<svg xmlns="http://www.w3.org/2000/svg" xml:space="preserve" viewBox="0 0 2400 1260"><path fill="#F6EA00" d="M1425 1261H1V1h2400v1260h-976M452.937 898c19.575 0 39.15.06 58.724-.088 2.118-.016 4.226-1.245 7.063-1.942 4.03-3.095 8.29-5.938 12.043-9.34a536.45 536.45 0 0 0 21.268-20.36c1.563-1.583 2.73-4.242 2.83-6.462.334-7.419.215-14.866.057-22.298-.2-9.407-1.059-18.822-.794-28.21.252-8.922-2.452-15.612-9.508-21.49-8.301-6.914-15.63-15.012-23.25-22.725-4.583-4.638-8.972-8.082-16.506-7.234-11.027 1.24-22.24.914-33.377 1.034-2.76.03-5.69-1.589-8.267-1.076-9.085 1.808-14.21-2.05-14.22-11.357-.002-2.667-.002-5.333 0-8 .007-5.94 6.33-16.15 12.102-17.018 14.754-2.22 29.873-5.081 41.61 8.642 4.856 5.678 11.49 8.162 19.112 7.957 8.605-.232 17.217-.164 25.824-.317 4.998-.089 7.637-2.926 7.329-7.375-.41-5.921-.233-11.92-1.142-17.756-.524-3.361-1.944-7.2-4.254-9.558-9.313-9.503-19.227-18.414-28.703-27.761-3.085-3.043-6.323-4.363-10.645-4.333-21.165.148-42.34.428-63.493-.105-8.835-.223-14.813 3.856-20.492 9.477-9.091 9-18.244 17.94-27.172 27.098-1.53 1.57-2.913 4.09-2.942 6.192-.236 16.996-.34 34.002.037 50.993.079 3.562 1.394 7.913 3.717 10.462 8.185 8.982 17.297 17.115 25.59 26.006 6.332 6.79 12.802 10.78 22.881 9.284 8.076-1.198 16.554.419 24.858.634 6.725.175 13.416-1.249 20.174 1.002 6.04 2.012 11.352 7.266 11.138 12.584-.133 3.318-.43 6.631-.514 9.95-.184 7.308-7.095 14.388-14.349 14.472-6.665.077-13.408-.614-19.98.177-8.27.996-14.203-2.457-19.125-8.201-6.516-7.605-14.78-9.318-24.21-8.658-7.2.503-14.454.76-21.658.481-5.97-.23-10.134 3.595-9.569 9.716.365 3.961.136 8.039 1.006 11.875.852 3.753 1.852 8.15 4.363 10.728 10.213 10.483 20.944 20.47 31.694 30.412 2.272 2.101 5.022 4.74 9.646 2.488 1.39 0 2.778 0 4.234.757 2.738 3.333 4.261 3.139 6.87-.757m736.128-530.02h-168.192v40.024h5.672c16.643 0 33.287-.015 49.93.007 5.553.008 10.019 4.354 10.057 9.89.054 7.655-.036 15.311-.344 23.38-.106.352-.035.664.246 1.845v143.036c12.984 0 25.275 0 37.764.227l.422.084s.371-.229 1.197-.474c.397-1.99 1.14-3.978 1.142-5.967.063-53.046.14-106.092-.085-159.137-.023-5.422 1.455-9.214 6.372-12.114.31-.14.565-.348 1.688-.784h58.01c0-13.296.012-25.912-.04-38.528-.002-.55-.587-1.1-1.244-1.977-.555.121-1.11.243-2.595.488M689.158 721.164c1.532-1.42 3.064-2.841 5.062-4.384.3-.132.557-.323 1.695-.739h57.827v-39.78H581.79v39.74h54.289c6.523 0 11.339 4.75 11.338 11.212-.002 32.804.01 65.607-.026 98.41-.025 22.31-.123 44.62-.153 67.52.253.286.505.572 1.696.88 11.315-.007 22.634-.201 33.942.077 4.262.105 5.244-1.32 5.23-5.386-.14-42.93-.102-85.86-.084-128.79.006-12.31.108-24.619.502-37.288.21-.267.328-.57.635-1.472m574.078 171.98c.252.286.504.572 1.694.88h39.396c.125-1.986.316-3.599.316-5.211.001-20.995.259-41.996-.23-62.98-.132-5.655 1.869-9.114 5.647-12.757 19.174-18.488 38.186-37.145 57.1-55.898 1.541-1.527 2.706-4.216 2.724-6.377.195-23.16.129-46.32.114-69.482 0-1.613-.159-3.226-.25-4.967h-40.364v5.278c.006 16.163.126 32.327-.11 48.486-.033 2.309-1.233 5.116-2.833 6.799-7.744 8.142-15.758 16.03-23.783 23.9-3.588 3.52-7.44 6.771-11.147 10.17-3.072 2.818-13.099 3.003-16.07.137-11.612-11.203-23.251-22.38-34.669-33.78-1.534-1.532-2.599-4.264-2.628-6.457-.221-16.493-.128-32.99-.133-49.486v-5.097h-40.137c-.195.772-.419 1.245-.42 1.72-.03 24.826-.095 49.653.058 74.478.01 1.677 1.334 3.672 2.61 4.963 10.464 10.588 21.022 21.085 31.631 31.529 9.706 9.555 19.563 18.958 29.213 28.57 1.246 1.24 2.338 3.323 2.344 5.02.083 23.324-.037 46.649-.073 70.562m114.519-473.313c-.172-.315-.345-.63-.87-1.522-16.292-15.93-32.557-31.886-48.93-47.732-1.295-1.254-3.331-2.444-5.037-2.464-15.992-.19-31.986-.137-47.98-.086-1.225.004-2.79.14-3.615.872-4.162 3.697-8.167 7.574-12.16 11.458-11.417 11.108-22.716 22.341-34.26 33.316-2.916 2.772-3.98 5.641-3.972 9.598.108 52.48.07 104.958.082 157.437 0 1.617.148 3.234.249 5.302 12.769 0 25.22.07 37.666-.146.891-.015 2.498-2.11 2.506-3.247.153-19.658.208-39.318.041-58.975-.05-5.976 3.916-10.632 9.941-10.636 17.993-.014 35.987-.105 53.977.118 2.324.028 4.793 1.445 6.903 2.708 3.652 2.187 4.257 5.738 4.244 9.845-.066 19.983.137 39.966.527 60.325l.443.157s.454-.124 1.396-.138c12.373 0 24.747.002 37.574.12.347-.028.592-.201.918-1.52.02-1.833.055-3.665.056-5.498.018-52.995.032-105.991.3-159.292M993.819 585.997c.396-1.66 1.138-3.319 1.14-4.979.061-52.635.02-105.27.127-157.905.007-3.304-1.052-5.535-3.36-7.762-14.84-14.322-29.684-28.645-44.238-43.256-3.146-3.157-6.243-4.226-10.513-4.182-14.987.156-29.977-.02-45.198-.292-.355-.098-.614.021-1.444.583-2.42 2.074-4.962 4.024-7.24 6.243-13.443 13.088-26.751 26.313-40.285 39.305-2.763 2.652-3.877 5.352-3.87 9.137.097 52.641.066 105.282.081 157.923 0 1.61.157 3.218.246 4.94h39.754c.194-.871.457-1.505.458-2.14.044-19.823.164-39.647.028-59.47-.046-6.719 3.757-11.123 10.546-11.134 17.658-.03 35.316-.015 52.974-.01 6.592.001 11.378 4.702 11.391 11.326.038 18.658.02 37.316.023 55.973v5.865c12.954 0 25.259 0 37.76.227l.423.083s.372-.229 1.197-.475m-539.48-217.8c-1.68 1.736-3.312 3.523-5.05 5.198a8869.464 8869.464 0 0 1-29.797 28.598c-2.973 2.837-5.965 5.671-9.134 8.282-5.117 4.218-7.613 8.935-7.56 16.138.382 51.138.206 102.28.207 153.42v5.897h41.01v-5.646c-.001-19.157-.012-38.314.002-57.47.005-5.783 3.69-9.579 9.499-9.595 18.324-.051 36.648-.056 54.972 0 6.055.018 9.93 4.052 9.938 10.177.024 18.99.01 37.981.01 56.972v5.444h40.85c.099-1.531.24-2.676.237-3.82-.164-53.455-.315-106.91-.624-160.363-.01-1.84-1.189-4.1-2.54-5.44-15.477-15.34-31.042-30.592-46.754-45.69-1.445-1.39-4.047-2.18-6.127-2.21-15.821-.227-31.645-.196-47.701-.466-.353-.098-.613.019-1.437.575m539.735 511.845c-.046.305.02.584.418 1.76v11.627c1.341.335 1.81.554 2.278.554 38.657.017 77.314.037 115.971-.052 1.472-.004 3.305-.689 4.355-1.697 13.32-12.788 26.567-25.652 39.691-38.64 1.232-1.217 2.124-3.404 2.129-5.145.118-42.322.114-84.646.014-126.968-.004-1.592-.782-3.6-1.9-4.708-12.766-12.652-25.59-25.252-38.628-37.623-1.817-1.723-4.87-3.014-7.36-3.027-37.323-.19-74.647-.135-111.972-.117-1.42 0-2.839.217-4.63.363v6.323c0 63.652.001 127.303-.01 190.954 0 1.994-.136 3.988-.356 6.396M605.692 367.678c-.368.428-.736.856-1.149 2.225v215.862h40.592V431.127c1.894 1.537 2.948 2.267 3.856 3.148 10.239 9.942 20.23 20.157 30.802 29.73 3.675 3.329 6.243 8.768 12.307 8.839 4.65.054 9.322.085 13.947-.307 1.78-.15 3.82-1.12 5.124-2.363 10.59-10.1 21.026-20.36 31.524-30.555 2.707-2.628 5.468-5.2 9.123-8.67.5 3.342 1.14 5.633 1.144 7.924.057 46.983.04 93.967.04 140.95v5.753h40.643V367.993c-7.332 0-14.37.636-21.248-.138-12.473-1.405-22.845 1.23-29.911 12.4-.259.408-.725.683-1.085 1.03-10.509 10.124-21.237 20.035-31.443 30.457-6.222 6.354-15.648 7.067-22.062.694-13.59-13.503-27.13-27.058-40.794-40.487-1.699-1.67-4.024-2.702-6.29-4.246-.344-.096-.621-.01-1.766.29-11.016-.013-22.033-.026-33.354-.315m1046.961 403.598c-.032 9.996.833 20.1-.353 29.958-1.164 9.676 3.84 15.058 10.205 20.328 1.015.84 2.129 1.576 3.066 2.494 21.617 21.167 43.25 42.317 64.762 63.59 2.17 2.145 4.21 3.044 7.282 3.038 58.15-.113 116.302-.143 174.453-.021 4.214.009 7.25-1.407 9.995-4.283a416.876 416.876 0 0 1 9.31-9.42c21.725-21.36 43.495-42.674 65.133-64.122 1.342-1.33 2.388-3.665 2.393-5.536.132-44.487.116-88.975.04-133.463-.003-1.503-.469-3.451-1.465-4.438-12.292-12.168-24.73-24.189-37.102-36.276-.668-.652-1.096-1.549-1.962-2.807 4.484-3.928 9.036-7.503 13.104-11.563 8.217-8.203 16.258-16.588 24.16-25.094 1.59-1.71 3.18-4.289 3.189-6.473.185-43.988.177-87.976.022-131.964-.008-2.149-1.18-4.829-2.712-6.355-15.208-15.149-30.586-30.127-45.958-45.11-10.003-9.75-19.966-19.546-30.217-29.029-1.943-1.797-5.156-3.131-7.788-3.14-58.15-.18-116.302-.18-174.452-.02-2.495.007-5.542 1.266-7.383 2.967-9.497 8.776-18.742 17.83-27.966 26.897-12.396 12.184-24.683 24.48-37.049 36.696-1.268 1.253-2.794 2.24-4.13 3.43-5.407 4.812-9.793 9.553-8.932 18.105 1.046 10.388.198 20.967-.028 31.962 1.249.178 2.498.356 4.674.403 25.77.02 51.539.04 77.685.038.256-.116.39-.316.902-1.09 12.826-12.66 25.652-25.321 39.025-38.007.473-.253.945-.505 2.34-.955 31.942.002 63.884-.037 95.825.1 2.071.009 4.711.795 6.115 2.195 11.864 11.835 23.558 23.844 35.14 35.957 1.489 1.557 2.866 3.999 2.894 6.05.232 16.8.214 33.605.026 50.405-.023 2.08-.956 4.655-2.374 6.124-5.399 5.59-11.179 10.81-16.8 16.186-7.527 7.201-15.039 14.419-22.795 21.282-.37.073-.741.146-2.025.21-36.57.008-73.14.01-109.711.037-2.986.002-5.971.17-9.277.34-.086.113-.254.233-.243.335.026.252.133.497.286 1.681-.029 25.022-.058 50.045-.46 75.538.463 1.027.927 2.054 2.34 3.032 39.156-.008 78.312-.032 117.469.035 1.487.003 3.407.438 4.395 1.413 12.207 12.04 24.355 24.144 36.296 36.447 1.62 1.669 2.823 4.491 2.873 6.81.276 12.657-.637 25.385.363 37.968.88 11.083-2.337 19.053-10.845 26.28-10.398 8.83-19.688 18.966-30.087 28.586-.771.285-1.543.571-3.247.945-32.347-.035-64.694-.071-97.476-.507a31.354 31.354 0 0 1-2.297-.644c-11.995-12.001-23.913-24.08-36.074-35.911-1.652-1.608-4.509-2.765-6.82-2.787-24.79-.242-49.58-.214-74.79-.615-.926.25-1.854.499-2.944 1.768M1422 499.5v86.195h41.008v-5.735c0-24.327-.002-48.654.002-72.981 0-6.138 3.835-9.958 10.09-9.97 13.497-.023 26.994.063 40.49-.043 4.97-.04 9.502-.021 13.628 3.87 5.898 5.564 11.497 10.167 11.05 19.934-.903 19.787-.27 39.644-.27 59.472v5.756c12.946 0 25.239-.032 37.531.021 3.366.015 3.12-2.281 3.11-4.46-.127-29.139-.216-58.278-.521-87.415-.02-1.969-1.276-4.324-2.688-5.8-3.728-3.9-7.858-7.415-12.088-11.324 4.299-4.224 8.295-7.768 11.79-11.751 1.656-1.889 3.298-4.602 3.338-6.968.29-17.158.31-34.325.03-51.482-.042-2.613-1.434-5.82-3.28-7.684-9.358-9.457-19.167-18.467-28.596-27.856-2.471-2.46-4.94-3.356-8.344-3.347-36.824.098-73.648.06-110.472.058H1422V499.5M837.392 841.107c-1.06-1.06-2-2.289-3.201-3.152-5.24-3.764-6.344-8.8-6.31-15.095.246-46.988.13-93.977.127-140.966v-5.59H787.41v5.21c.005 55.653.063 111.307-.104 166.96-.011 3.677 1.527 5.735 3.863 7.931 11.952 11.233 24.094 22.284 35.572 33.985 2.703 2.755 4.955 3.641 8.34 3.635 22.495-.043 44.99-.142 67.483.088 4.228.043 7.182-1.27 10.07-4.149 12.021-11.98 24.132-23.875 36.373-35.63 2.254-2.165 3.075-4.288 3.07-7.348-.086-55.154-.066-110.307-.068-165.461v-5.278H911.63c-.082 1.706-.213 3.168-.214 4.63-.013 45.49-.273 90.982.193 136.466.099 9.631-1.367 17.372-9.533 23.276-3.489 2.522-6.23 6.097-9.23 9.269-2.697 2.85-5.623 4.555-9.857 4.205-4.965-.41-10.091-.74-14.97.029-12.773 2.012-22.637-2.198-30.627-13.015z"/><path fill="#01ADB9" d="M1754.234 590.823c2.986-.09 5.971-.259 8.957-.261 36.57-.027 73.14-.029 110.495.109 1.015.094 1.247.043 1.479-.009 7.518-7.21 15.03-14.428 22.558-21.629 5.62-5.376 11.4-10.596 16.799-16.186 1.418-1.469 2.351-4.044 2.374-6.124.188-16.8.206-33.605-.026-50.405-.028-2.051-1.405-4.493-2.894-6.05-11.582-12.113-23.276-24.122-35.14-35.957-1.404-1.4-4.044-2.186-6.115-2.195-31.941-.137-63.883-.098-96.568-.055-1.21.343-1.677.639-2.144.935-12.826 12.661-25.652 25.322-38.886 38.292-.61.43-.763.595-.87.803-25.77-.02-51.54-.04-78.136-.088a27.519 27.519 0 0 1-3.65-.875c.029-10.496.877-21.075-.169-31.463-.86-8.552 3.525-13.293 8.932-18.105 1.336-1.19 2.862-2.177 4.13-3.43 12.366-12.216 24.653-24.512 37.05-36.696 9.223-9.067 18.468-18.12 27.965-26.897 1.841-1.701 4.888-2.96 7.383-2.967 58.15-.16 116.301-.16 174.452.02 2.632.009 5.845 1.343 7.788 3.14 10.251 9.483 20.214 19.28 30.217 29.03 15.372 14.982 30.75 29.96 45.958 45.109 1.532 1.526 2.704 4.206 2.712 6.355.155 43.988.163 87.976-.022 131.964-.01 2.184-1.6 4.762-3.189 6.473-7.902 8.506-15.943 16.891-24.16 25.094-4.068 4.06-8.62 7.635-13.104 11.563.866 1.258 1.294 2.155 1.962 2.807 12.372 12.087 24.81 24.108 37.102 36.276.996.987 1.462 2.935 1.464 4.438.077 44.488.093 88.976-.039 133.463-.005 1.871-1.05 4.206-2.393 5.536-21.638 21.448-43.408 42.762-65.133 64.122a416.876 416.876 0 0 0-9.31 9.42c-2.744 2.876-5.78 4.292-9.995 4.283-58.151-.122-116.302-.092-174.453.021-3.072.006-5.113-.893-7.282-3.038-21.511-21.273-43.145-42.423-64.762-63.59-.937-.918-2.05-1.653-3.066-2.494-6.365-5.27-11.37-10.652-10.205-20.328 1.186-9.857.32-19.962.757-30.486 1.256-.647 2.107-.766 2.96-.885 24.79.046 49.58.018 74.37.26 2.311.022 5.168 1.179 6.82 2.787 12.16 11.83 24.08 23.91 36.57 36.276 1.077.47 1.656.575 2.236.68 32.347.035 64.694.07 97.852.183 1.562-.306 2.314-.688 3.066-1.07 9.769-9.572 19.059-19.708 29.457-28.538 8.508-7.227 11.726-15.197 10.845-26.28-1-12.583-.087-25.311-.363-37.969-.05-2.318-1.253-5.14-2.873-6.81-11.941-12.302-24.089-24.406-36.296-36.446-.988-.975-2.908-1.41-4.395-1.413-39.157-.067-78.313-.043-118.152-.324-.884-1.264-1.084-2.24-1.285-3.214.03-25.022.059-50.045.183-75.7.242-.898.272-1.174.182-1.462z"/><path fill="#393436" d="M641.042 367.918c2.036 1.329 4.361 2.361 6.06 4.031 13.664 13.43 27.204 26.984 40.794 40.487 6.414 6.373 15.84 5.66 22.062-.694 10.206-10.422 20.934-20.333 31.443-30.458.36-.346.826-.62 1.085-1.03 7.066-11.169 17.438-13.804 29.911-12.4 6.879.775 13.916.14 21.248.14v217.582h-40.643v-5.753c0-46.983.017-93.967-.04-140.95-.003-2.291-.643-4.582-1.144-7.924-3.655 3.47-6.416 6.042-9.123 8.67-10.498 10.195-20.935 20.455-31.524 30.555-1.304 1.243-3.345 2.213-5.124 2.363-4.625.392-9.296.361-13.947.307-6.064-.071-8.632-5.51-12.307-8.839-10.572-9.573-20.563-19.788-30.802-29.73-.908-.881-1.962-1.611-3.856-3.148v154.638h-40.592c0-72.028 0-143.945.285-216.458.58-.849.875-1.101 1.17-1.354 11.015.014 22.032.027 33.784.092.91-.008 1.086-.067 1.26-.127zM1421.999 499V367.99h5.808c36.824.001 73.648.04 110.472-.058 3.405-.009 5.873.887 8.344 3.347 9.43 9.39 19.238 18.399 28.597 27.856 1.845 1.865 3.237 5.07 3.28 7.684.278 17.157.26 34.324-.031 51.482-.04 2.366-1.682 5.08-3.339 6.968-3.494 3.983-7.49 7.527-11.789 11.751 4.23 3.909 8.36 7.424 12.088 11.324 1.412 1.476 2.667 3.831 2.688 5.8.305 29.137.394 58.276.521 87.415.01 2.179.256 4.475-3.11 4.46-12.292-.053-24.585-.021-37.53-.021v-5.756c0-19.828-.634-39.685.27-59.472.446-9.767-5.153-14.37-11.051-19.933-4.126-3.892-8.658-3.91-13.628-3.871-13.496.106-26.993.02-40.49.044-6.255.011-10.09 3.831-10.09 9.969-.004 24.327-.002 48.654-.002 72.981v5.735h-41.008V499m59.524-42.004c12.646 0 25.293.065 37.937-.07 1.83-.019 4.093-.478 5.404-1.607 13.479-11.604 13.435-11.654 13.128-29.467-.005-.332.093-.703-.02-.992-.575-1.471-.862-3.242-1.875-4.321-3.412-3.633-6.96-7.167-10.733-10.418-1.365-1.177-3.505-2.026-5.301-2.043-15.972-.154-31.947-.118-47.92-.066-4.388.014-9.1 4.825-9.122 9.243-.05 10.15-.14 20.303.093 30.448.043 1.861 1.314 3.835 2.402 5.506 3.791 5.825 9.816 3.27 16.007 3.787z"/><path fill="#3A3535" d="M994.222 879.629c.072-1.994.207-3.988.207-5.982.012-63.651.01-127.302.011-190.954v-6.323c1.791-.146 3.21-.362 4.63-.363 37.325-.018 74.649-.073 111.972.117 2.49.013 5.543 1.304 7.36 3.027 13.039 12.37 25.862 24.97 38.628 37.623 1.118 1.108 1.896 3.116 1.9 4.708.1 42.322.104 84.646-.014 126.968-.005 1.74-.897 3.928-2.129 5.146-13.124 12.987-26.372 25.85-39.69 38.639-1.05 1.008-2.884 1.693-4.356 1.697-38.657.089-77.314.07-115.971.052-.468 0-.937-.22-2.278-.554v-12.29c.065-.995-.024-1.278-.27-1.511m114.672-151.038c-3.518-3.306-6.874-6.812-10.624-9.828-1.752-1.41-4.255-2.615-6.436-2.646-15.66-.22-31.325-.128-46.988-.103-5.147.008-9.823 4.536-9.826 9.59-.022 39.658-.024 79.316.002 118.974.003 4.7 4.78 9.398 9.511 9.408 15.997.033 31.994.078 47.989-.08 1.761-.017 3.893-.893 5.2-2.086 5.9-5.387 11.465-11.142 17.36-16.535 2.565-2.346 3.453-4.864 3.435-8.3-.128-25.326-.484-50.664.143-75.976.228-9.231-1.511-16.567-9.766-22.418z"/><path fill="#393435" d="M456.009 367.843c15.823.05 31.647.02 47.468.247 2.08.03 4.682.82 6.127 2.208 15.712 15.1 31.277 30.351 46.753 45.692 1.352 1.34 2.53 3.599 2.541 5.439.309 53.453.46 106.908.624 160.363.004 1.144-.138 2.289-.237 3.82h-40.85v-5.444c0-18.99.014-37.981-.01-56.972-.008-6.125-3.883-10.159-9.938-10.177-18.324-.056-36.648-.051-54.972 0-5.809.016-9.494 3.812-9.499 9.594-.014 19.157-.003 38.314-.002 57.471v5.646h-41.01v-5.896c-.001-51.141.175-102.283-.206-153.421-.054-7.203 2.442-11.92 7.56-16.138 3.168-2.611 6.16-5.445 9.133-8.282a8869.464 8869.464 0 0 0 29.796-28.598c1.74-1.675 3.37-3.462 5.642-5.279.754-.145.917-.209 1.08-.273M452.952 473c18.499.001 36.997.006 55.496 0 6.267-.001 10.013-3.83 10.004-10.164-.01-6.666-.207-13.34.076-19.995.15-3.51-1.027-5.895-3.533-8.248-7.769-7.294-15.476-14.67-22.891-22.32-3.012-3.107-6.078-4.318-10.407-4.454-5.306-.168-9.287 1.238-12.64 5.343-2.308 2.826-5.148 5.213-7.72 7.825-5.724 5.813-13.695 10.73-16.513 17.721-2.896 7.186-.754 16.402-.816 24.73-.001.167-.009.334-.005.5.1 4.491 3.23 8.01 8.95 9.062z"/><path fill="#393436" d="M892.009 367.842c14.988.05 29.978.227 44.965.071 4.27-.044 7.367 1.025 10.513 4.182 14.554 14.61 29.398 28.934 44.239 43.256 2.307 2.227 3.366 4.458 3.359 7.762-.108 52.635-.066 105.27-.127 157.905-.002 1.66-.744 3.32-1.795 5.016-.824.068-.993.098-1.162.128h-37.563v-5.865c-.004-18.657.015-37.315-.023-55.973-.013-6.624-4.8-11.325-11.39-11.327-17.659-.004-35.317-.018-52.975.01-6.79.012-10.592 4.416-10.546 11.135.136 19.823.016 39.647-.028 59.47-.001.635-.264 1.269-.458 2.14h-39.754c-.09-1.722-.246-3.33-.246-4.94-.015-52.64.016-105.282-.08-157.923-.008-3.785 1.106-6.485 3.869-9.137 13.534-12.992 26.842-26.217 40.284-39.305 2.28-2.219 4.82-4.169 7.836-6.326.757-.149.92-.214 1.082-.28m62.442 79.705c-.632-3.786.04-8.753-2.129-11.148-8.24-9.107-17.348-17.436-26.24-25.942-3.745-3.582-14.486-3.625-17.967-.25-8.594 8.334-17.266 16.594-25.63 25.155-1.625 1.663-2.685 4.52-2.81 6.889-.365 6.968-.148 13.969-.124 20.956.021 5.936 3.9 9.79 9.85 9.793 17.97.01 35.938 0 53.907.004 7.8.001 11.168-3.324 11.141-10.994-.015-4.492 0-8.984.002-14.463zM1376.026 586.024c-12.373-.001-24.747-.002-37.757-.14-.902-.3-1.184-.341-1.485-.258-.107-19.983-.31-39.966-.244-59.949.013-4.107-.592-7.658-4.244-9.845-2.11-1.263-4.58-2.68-6.903-2.708-17.99-.223-35.984-.132-53.977-.118-6.025.004-9.991 4.66-9.94 10.636.166 19.657.11 39.317-.042 58.975-.008 1.137-1.615 3.232-2.506 3.247-12.446.216-24.897.146-37.666.146-.101-2.068-.249-3.685-.25-5.302-.011-52.479.027-104.958-.08-157.437-.009-3.957 1.055-6.826 3.97-9.598 11.545-10.975 22.844-22.208 34.262-33.316 3.992-3.884 7.997-7.761 12.16-11.458.823-.732 2.39-.868 3.614-.872 15.994-.05 31.988-.104 47.98.086 1.706.02 3.742 1.21 5.037 2.464 16.373 15.846 32.638 31.803 49.094 48.35.26.815.357 1.012.452 1.21-.015 52.995-.029 105.99-.047 158.986 0 1.833-.037 3.665-.367 5.979-.615.536-.865.683-1.061.922m-58.54-113.025c2.993 0 5.988.008 8.982-.001 6.214-.019 9.99-3.865 9.995-10.164.006-6.654.308-13.326-.12-19.952-.171-2.665-1.287-5.856-3.093-7.727-8.193-8.49-16.777-16.601-25.239-24.831-3.428-3.335-14.479-3.426-17.884-.12-8.708 8.452-17.467 16.856-25.987 25.494-1.431 1.45-2.416 3.947-2.501 6.006-.29 6.973-.08 13.967-.066 20.953.012 6.128 4.268 10.337 10.504 10.34 14.805.01 29.609.003 45.408.002z"/><path fill="#3A3535" d="M837.642 841.357c7.74 10.567 17.604 14.777 30.378 12.765 4.878-.768 10.004-.44 14.969-.029 4.234.35 7.16-1.355 9.856-4.205 3.001-3.172 5.742-6.747 9.23-9.27 8.167-5.903 9.633-13.644 9.534-23.275-.466-45.484-.206-90.976-.193-136.465 0-1.463.132-2.925.214-4.631h40.378v5.278c.002 55.154-.018 110.307.068 165.46.005 3.061-.816 5.184-3.07 7.348-12.241 11.756-24.352 23.65-36.373 35.631-2.888 2.879-5.842 4.192-10.07 4.15-22.492-.231-44.988-.132-67.483-.09-3.385.007-5.637-.879-8.34-3.634-11.478-11.7-23.62-22.752-35.572-33.985-2.336-2.196-3.874-4.254-3.863-7.931.167-55.653.11-111.307.104-166.96v-5.21h40.6v5.59c.002 46.989.118 93.978-.129 140.966-.033 6.295 1.072 11.33 6.31 15.095 1.202.863 2.142 2.092 3.452 3.402zM1263.201 892.555c.07-23.324.191-46.649.108-69.973-.006-1.697-1.098-3.78-2.344-5.02-9.65-9.612-19.507-19.015-29.213-28.57-10.61-10.444-21.167-20.94-31.63-31.53-1.277-1.29-2.601-3.285-2.611-4.962-.153-24.825-.089-49.652-.058-74.479.001-.474.225-.947.42-1.72h40.136v5.098c.006 16.496-.087 32.993.134 49.486.03 2.193 1.094 4.925 2.628 6.457 11.418 11.4 23.057 22.577 34.67 33.78 2.97 2.866 12.997 2.681 16.07-.136 3.707-3.4 7.558-6.651 11.146-10.17 8.025-7.87 16.039-15.76 23.783-23.901 1.6-1.683 2.8-4.49 2.834-6.799.235-16.16.115-32.323.109-48.486v-5.278h40.364c.091 1.74.25 3.354.25 4.967.015 23.161.081 46.323-.114 69.482-.018 2.16-1.183 4.85-2.723 6.377-18.915 18.753-37.927 37.41-57.101 55.898-3.778 3.643-5.78 7.102-5.648 12.757.49 20.984.232 41.985.23 62.98 0 1.612-.19 3.225-.315 5.211-13.439 0-26.417 0-39.939-.282-.757-.583-.971-.885-1.186-1.187zM688.186 722.996c-.057 12.31-.16 24.619-.165 36.928-.018 42.93-.055 85.86.085 128.79.013 4.066-.969 5.491-5.23 5.386-11.309-.278-22.628-.084-34.487-.36-.758-.583-.973-.885-1.187-1.186.065-22.31.163-44.62.188-66.93.037-32.804.024-65.607.026-98.41 0-6.463-4.815-11.213-11.338-11.213h-54.29v-39.74h171.954v39.78c-19.345 0-38.586 0-58.554.056-.963.306-1.199.555-1.435.805-1.531 1.42-3.063 2.842-4.971 4.677-.45.75-.523 1.083-.596 1.417zM1192.004 367.82c.313.55.898 1.098.9 1.65.052 12.615.04 25.23.04 38.527-19.568 0-38.79 0-58.741.055-.97.312-1.208.568-1.446.824-4.428 2.805-5.906 6.597-5.883 12.02.225 53.044.148 106.09.085 159.136-.002 1.99-.745 3.978-1.797 6.004-.824.067-.993.097-1.162.126h-37.566c0-48.004 0-95.52.126-143.697.054-.973-.02-1.285-.092-1.598.028-7.655.118-15.31.064-22.965-.038-5.537-4.504-9.883-10.057-9.89-16.643-.023-33.287-.008-49.93-.008h-5.672V367.98c56.15 0 112.171 0 168.989.014 1.245-.049 1.693-.112 2.142-.174z"/><path fill="#F6EA01" d="M441 898c-3.791 2.252-6.54-.387-8.813-2.488-10.75-9.943-21.481-19.929-31.694-30.412-2.511-2.578-3.511-6.975-4.363-10.728-.87-3.836-.64-7.914-1.006-11.875-.565-6.12 3.599-9.946 9.569-9.716 7.204.279 14.458.022 21.658-.481 9.43-.66 17.694 1.053 24.21 8.658 4.922 5.744 10.856 9.197 19.126 8.201 6.57-.79 13.314-.1 19.98-.177 7.253-.084 14.164-7.164 14.348-14.472.084-3.319.38-6.632.514-9.95.214-5.318-5.098-10.572-11.138-12.584-6.758-2.25-13.449-.827-20.174-1.002-8.304-.215-16.782-1.832-24.858-.634-10.079 1.496-16.549-2.494-22.882-9.284-8.292-8.891-17.404-17.024-25.59-26.006-2.322-2.55-3.637-6.9-3.716-10.462-.377-16.991-.273-33.997-.037-50.993.029-2.101 1.411-4.622 2.942-6.192 8.928-9.159 18.081-18.099 27.172-27.098 5.679-5.621 11.657-9.7 20.492-9.477 21.153.533 42.328.253 63.493.105 4.322-.03 7.56 1.29 10.645 4.333 9.476 9.347 19.39 18.258 28.703 27.761 2.31 2.357 3.73 6.197 4.254 9.558.909 5.836.732 11.835 1.142 17.756.308 4.449-2.33 7.286-7.33 7.375-8.606.153-17.218.085-25.823.317-7.621.205-14.256-2.28-19.112-7.957-11.737-13.723-26.856-10.862-41.61-8.642-5.772.868-12.095 11.079-12.101 17.018-.003 2.667-.003 5.333 0 8 .01 9.307 5.134 13.165 14.219 11.357 2.578-.513 5.507 1.106 8.267 1.076 11.137-.12 22.35.206 33.377-1.034 7.534-.848 11.923 2.596 16.506 7.234 7.62 7.713 14.949 15.81 23.25 22.726 7.056 5.877 9.76 12.567 9.508 21.49-.265 9.387.595 18.802.794 28.21.158 7.431.277 14.878-.057 22.297-.1 2.22-1.267 4.879-2.83 6.461a536.45 536.45 0 0 1-21.268 20.361c-3.753 3.402-8.012 6.245-12.235 9.062 1.347-3.125 2.886-5.973 4.559-9.128 9.005-8.827 17.932-17.29 26.669-25.944.968-.96 1.188-3.008 1.195-4.554.079-17.665.134-35.33-.068-52.992-.023-2.007-1.18-4.472-2.62-5.917a1515.54 1515.54 0 0 0-30.728-29.963c-1.358-1.287-3.738-2.072-5.658-2.099-12.996-.181-26.062-.91-38.974.147-11.42.935-19.942-2.524-26.637-11.436-.198-.264-.543-.444-.672-.73-.581-1.287-1.54-2.585-1.582-3.903-.172-5.494-.166-11 .019-16.493.045-1.334.704-2.94 1.625-3.899 3.915-4.072 8.035-7.947 12.319-11.951.542-.193.802-.388 1.481-.719 11.126-.088 21.79-.224 32.448 0 2.042.043 4.47 1.037 6 2.4 4.343 3.874 8.258 8.224 12.475 12.247.953.91 2.442 1.765 3.692 1.777 11.16.105 22.324.101 33.48-.145 1.168-.025 3.233-1.77 3.289-2.804.318-5.874.28-11.778.046-17.66-.049-1.227-1.23-2.6-2.22-3.57-10.207-10.013-20.428-20.017-30.806-29.853-1.39-1.318-3.667-2.389-5.542-2.401-23.823-.158-47.648-.142-71.472-.015-1.758.01-3.946.756-5.197 1.939-9.885 9.343-19.714 18.755-29.245 28.455-1.843 1.875-3.218 5.09-3.26 7.712-.283 17.489-.226 34.985-.036 52.476.023 2.046 1.024 4.568 2.438 6.033 9.593 9.943 19.329 19.756 29.26 29.36 1.663 1.607 4.496 2.78 6.807 2.813 16.657.235 33.319.105 49.98.157 1.602.005 3.7-.106 4.727.796 7.742 6.794 17.1 12.805 14.17 25.585-.327 1.425.27 3.074-.11 4.47-.618 2.263-1.32 4.657-2.632 6.55-6.615 9.556-15.606 13.803-27.298 11.592-.965-.183-2.018-.167-2.99-.003-14.012 2.367-25.273-1.815-33.52-13.687-.935-1.348-2.91-2.762-4.43-2.79-12.082-.227-24.17-.127-36.488-.127 0 7.247-.09 14.068.079 20.883.032 1.296.794 2.859 1.724 3.8 6.315 6.39 12.765 12.645 19.187 19.305 1.383 1.756 2.749 3.151 4.41 4.67 1.738 1.678 3.18 3.231 4.666 5.136 2.666 2.497 5.287 4.642 7.908 6.788z"/><path fill="#F5E901" d="M441.417 898c-3.038-2.146-5.659-4.291-7.949-6.731 3.23 2.606 6.797 2.817 10.686 2.789 19.73-.144 39.468-.382 59.187.085 7.83.186 14.675-.5 19.615-7.271-1.538 2.847-3.077 5.695-4.786 8.835-2.283.96-4.391 2.189-6.51 2.205-19.573.149-39.148.088-59.62.088H441.417z"/><path fill="#F6EA01" d="M446.034 898.379c1.68-.379 3.395-.379 5.538-.379-1.244 3.896-2.767 4.09-5.538.379z"/><path fill="#C7DF24" d="M1652.368 491.377c1.04.034 1.981.316 3.286.691-.886-.085-2.135-.263-3.286-.69zM1753.683 668.22c.387.74.587 1.715.996 3.004-.255-.714-.719-1.741-.996-3.004zM1655.807 769.685c-.643.297-1.494.416-2.668.553a9.255 9.255 0 0 1 2.668-.553z"/><path fill="#A49C18" d="M605.845 367.815c-.142.39-.437.643-.994 1.021.105-.302.473-.73.994-1.02z"/><path fill="#C7DF24" d="M1876.616 809.003c-.437.358-1.189.74-2.285 1.002.427-.407 1.199-.693 2.285-1.002zM1775.795 809.665c-.362.096-.941-.009-1.705-.361.373-.112.93.025 1.705.361z"/><path fill="#EDDE0A" d="M1774.282 452.983c.194-.283.661-.58 1.41-.823-.19.306-.663.558-1.41.823z"/><path fill="#C7DF24" d="M1754.074 590.863c.25.248.22.524-.061.953-.209-.082-.316-.327-.342-.58-.01-.101.157-.221.403-.373z"/><path fill="#DACC09" d="M1191.832 367.656c-.277.226-.725.289-1.506.276.224-.197.779-.319 1.506-.276zM994.148 879.836c.32.026.41.31.232.843-.287-.052-.352-.33-.232-.843z"/><path fill="#E7D708" d="M992.1 586.275c.07-.143.24-.173.65-.117.243.085-.129.314-.129.314s-.422-.083-.521-.197z"/><path fill="#DACC09" d="M647.22 892.848c.196.007.411.31.7.882-.178-.015-.43-.3-.7-.882zM1263.219 892.85c.197.007.41.309.7.881-.179-.015-.43-.3-.7-.881z"/><path fill="#E7D708" d="M688.354 722.816c-.095-.154-.022-.487.287-.954.21.205.092.507-.287.954z"/><path fill="#EDDE0A" d="M693.987 716.841c.002-.189.238-.438.738-.66.052.276-.205.467-.738.66z"/><path fill="#7FCF55" d="M1875.046 590.489c-.113.225-.345.276-.904.187.044-.215.414-.288.904-.187z"/><path fill="#E7D708" d="M1124.1 586.276c.07-.143.238-.173.649-.117.242.085-.129.314-.129.314s-.422-.084-.52-.197z"/><path fill="#A49C18" d="M1376.253 586.083c-.031-.298.219-.445.743-.48.076.337-.17.51-.743.48zM1336.926 585.814c.159-.271.441-.23.872.077.166.144-.288.268-.288.268s-.443-.157-.584-.345z"/><path fill="#C7DF24" d="M1734.44 492.08c-.08-.197.074-.362.432-.546.147.218.013.418-.431.546z"/><path fill="#A49C18" d="M1086.328 441.074c.213.106.286.418.216.937-.39-.066-.462-.378-.216-.937zM1377.628 419.984c-.222-.045-.318-.242-.402-.769.184-.013.357.301.402.769z"/><path fill="#DACC09" d="M1133.002 408.829c-.007-.209.232-.465.738-.697.071.3-.183.51-.738.697zM891.892 367.731c-.046.176-.208.241-.632.277-.098-.366.16-.485.632-.277z"/><path fill="#A49C18" d="M640.927 367.81c-.06.168-.234.227-.678.22-.058-.336.219-.423.678-.22z"/><path fill="#DACC09" d="M455.892 367.733c-.046.174-.21.238-.633.272-.096-.363.164-.48.633-.272z"/><path fill="#F5E901" d="M1481.03 456.996c-5.698-.518-11.723 2.038-15.514-3.787-1.088-1.671-2.36-3.645-2.402-5.506-.234-10.145-.143-20.298-.093-30.448.021-4.418 4.734-9.23 9.121-9.243 15.974-.052 31.949-.088 47.92.066 1.797.017 3.937.866 5.302 2.043 3.773 3.251 7.32 6.785 10.733 10.418 1.013 1.079 1.3 2.85 1.875 4.321.113.29.015.66.02.992.307 17.813.35 17.863-13.128 29.467-1.311 1.129-3.574 1.588-5.404 1.608-12.644.134-25.29.07-38.43.069z"/><path fill="#F6EA00" d="M1109.146 728.843c8.003 5.6 9.742 12.935 9.514 22.166-.627 25.312-.271 50.65-.143 75.977.018 3.435-.87 5.953-3.434 8.299-5.896 5.393-11.461 11.148-17.361 16.535-1.307 1.193-3.439 2.069-5.2 2.086-15.995.158-31.992.113-47.989.08-4.73-.01-9.508-4.709-9.511-9.408-.026-39.658-.024-79.316-.002-118.974.003-5.054 4.679-9.582 9.826-9.59 15.663-.025 31.328-.116 46.988.103 2.18.031 4.684 1.236 6.436 2.646 3.75 3.016 7.106 6.522 10.876 10.08z"/><path fill="#F5E901" d="M452.509 473c-5.275-1.052-8.406-4.57-8.506-9.062-.004-.166.004-.333.005-.5.062-8.328-2.08-17.544.816-24.73 2.818-6.99 10.79-11.908 16.513-17.72 2.572-2.613 5.412-5 7.72-7.826 3.353-4.105 7.334-5.51 12.64-5.343 4.33.136 7.395 1.347 10.407 4.454 7.415 7.65 15.122 15.026 22.891 22.32 2.506 2.353 3.682 4.737 3.533 8.248-.283 6.654-.087 13.33-.076 19.995.01 6.334-3.737 10.163-10.004 10.165-18.499.005-36.997 0-55.94-.001zM954.45 448.04c-.001 4.985-.016 9.477 0 13.97.026 7.669-3.341 10.994-11.142 10.993-17.969-.003-35.938.006-53.906-.004-5.952-.003-9.83-3.857-9.85-9.793-.025-6.987-.242-13.988.124-20.956.124-2.37 1.184-5.226 2.81-6.89 8.363-8.56 17.035-16.82 25.63-25.154 3.48-3.375 14.22-3.332 17.966.25 8.892 8.506 18 16.835 26.24 25.942 2.169 2.395 1.497 7.362 2.129 11.642zM1316.988 473c-15.302 0-30.106.006-44.91-.003-6.237-.003-10.493-4.212-10.505-10.34-.014-6.986-.224-13.98.066-20.953.085-2.06 1.07-4.556 2.5-6.006 8.521-8.638 17.28-17.042 25.988-25.494 3.405-3.306 14.456-3.215 17.884.12 8.462 8.23 17.046 16.342 25.239 24.831 1.806 1.871 2.922 5.062 3.094 7.727.427 6.626.125 13.298.12 19.952-.006 6.299-3.782 10.145-9.996 10.164-2.994.009-5.989.001-9.48.001z"/><path fill="#393436" d="M523.09 886.564c-5.074 7.08-11.918 7.765-19.749 7.58-19.72-.468-39.458-.23-59.187-.086-3.89.028-7.455-.183-10.73-3.14-1.819-1.61-3.26-3.164-5.049-5.182a217.83 217.83 0 0 0-4.375-4.691c-6.406-6.3-12.856-12.555-19.171-18.944-.93-.941-1.692-2.504-1.724-3.8-.17-6.815-.08-13.636-.08-20.883 12.32 0 24.407-.1 36.489.127 1.52.028 3.495 1.442 4.43 2.79 8.247 11.872 19.508 16.054 33.52 13.687.972-.164 2.025-.18 2.99.003 11.692 2.211 20.683-2.036 27.298-11.592 1.311-1.893 2.014-4.287 2.632-6.55.38-1.396-.217-3.045.11-4.47 2.93-12.78-6.428-18.79-14.17-25.585-1.027-.902-3.125-.791-4.728-.796-16.66-.052-33.322.078-49.979-.157-2.311-.033-5.144-1.206-6.806-2.813-9.932-9.604-19.668-19.417-29.261-29.36-1.414-1.465-2.415-3.987-2.438-6.033-.19-17.49-.247-34.987.036-52.476.042-2.622 1.417-5.837 3.26-7.712 9.531-9.7 19.36-19.112 29.245-28.455 1.251-1.183 3.439-1.93 5.197-1.939 23.824-.127 47.649-.143 71.472.015 1.875.012 4.152 1.083 5.542 2.401 10.378 9.836 20.599 19.84 30.807 29.854.989.97 2.17 2.342 2.22 3.57.232 5.88.27 11.785-.047 17.659-.056 1.034-2.121 2.779-3.289 2.804-11.156.246-22.32.25-33.48.145-1.25-.012-2.74-.867-3.692-1.777-4.217-4.023-8.132-8.373-12.476-12.246-1.529-1.364-3.957-2.358-5.999-2.401-10.657-.224-21.322-.088-32.716-.03-.972.3-1.212.553-1.452.805-4.045 3.948-8.165 7.823-12.08 11.895-.92.958-1.58 2.565-1.625 3.899-.185 5.493-.191 11-.019 16.493.041 1.318 1 2.616 1.582 3.904.129.285.474.465.672.729 6.695 8.912 15.217 12.371 26.637 11.436 12.912-1.058 25.978-.328 38.974-.147 1.92.027 4.3.812 5.658 2.1a1515.54 1515.54 0 0 1 30.728 29.962c1.44 1.445 2.597 3.91 2.62 5.917.202 17.662.147 35.327.068 52.992-.007 1.546-.227 3.594-1.195 4.554-8.737 8.654-17.664 17.117-26.67 25.944z"/><path fill="#F5E901" d="M424.016 881.406c1.326 1.048 2.67 2.457 4.063 4.206-1.314-1.055-2.68-2.45-4.063-4.206z"/><path fill="#E7D708" d="M457.979 716.83c.001-.196.241-.449.75-.672.052.284-.208.479-.75.672z"/></svg>