<svg xmlns="http://www.w3.org/2000/svg" width="1330" height="774" xml:space="preserve" viewBox="0 0 1330 774"><path fill="#323333" d="M875.873 0c-3.058 11.044-6.499 22.115-10.129 33.124-5.653 17.143-11.438 34.24-17.144 51.366-.2.6-.15 1.282-.256 2.29h151.718c-5.103 15.556-9.994 30.696-15.035 45.787-19.204 57.48-38.42 114.956-57.707 172.409-7.82 23.295-24.115 37.328-47.831 42.881-3.477.814-7.15 1.077-10.735 1.094-21.628.097-43.256.048-66.113.048 7.505-22.653 14.81-44.701 22.196-66.999 13.289 0 26.595-.082 39.9.06 3.18.033 4.65-.605 5.788-4.091 8.707-26.66 17.785-53.197 26.754-79.77 4.995-14.8 10.001-29.595 15.172-44.896-1.45-.113-2.666-.29-3.882-.29-25.974-.017-51.95.026-77.923-.065-3.027-.011-4.35.706-5.418 3.932-19.463 58.755-39.135 117.44-58.783 176.134-1.74 5.2-3.624 10.354-5.535 15.796h-66.445l65.524-195.717h-86.945c2.272-6.886 4.334-13.21 6.444-19.517 7.261-21.707 14.614-43.384 21.71-65.145.82-2.515 1.664-3.537 4.294-3.476 6.142.142 12.29.045 19.516.045l-6.778 21.692h63.79l21.533-64.694h-43.649c2.556-7.44 4.93-14.354 7.412-21.633C803.416 0 839.41 0 875.873 0ZM725.42 642.916l21.514-63.59H639.936c-13.742 41.18-27.51 82.595-41.403 123.967-4.151 12.364-7.63 25.102-13.237 36.794-8.56 17.848-23.677 28.385-42.932 32.855-1.432.333-2.97.207-4.614.676-23.824.382-47.494.382-71.632.382 1.574-7.144 3.398-14.36 5.703-21.417 4.454-13.633 9.337-27.128 13.676-40.796 1.022-3.22 2.516-3.87 5.5-3.841 12.974.126 25.95.054 39.187.054 6.091-17.873 12.186-35.66 18.217-53.47 10.746-31.738 21.556-63.455 32.137-95.249 6.19-18.601 16.792-33.59 35.062-41.553 7.252-3.16 15.543-5.385 23.393-5.48 43.108-.52 86.226-.162 129.34-.299 13.517-.043 25.502 4.16 34.858 13.599 12.344 12.453 17.835 27.678 12.177 45.04-14.681 45.047-29.787 89.955-44.71 134.923-.095.285-.012.628-.012 1.445h43.23l-21.954 66.042c-16.29 0-32.841 1.085-49.191-.271-21.052-1.745-38.082-17.47-41.408-38.897-1.295-8.342-.8-16.15 2.494-24.401.947-1.203 1.794-1.845 2.075-2.679 6.762-20.092 13.488-40.198 20.107-60.338.327-.994-.363-2.323-.58-3.496zM998.718 774c3.055-11.04 6.533-22.096 10.116-33.118 3.535-10.873 7.176-21.71 10.876-32.882 12.834 0 25.804-.165 38.765.103 3.772.078 5.486-1.089 6.657-4.633 14.255-43.144 28.624-86.25 43.004-129.353 4.277-12.821 8.68-25.6 13.218-38.97h-43.733c2.609-7.664 4.892-14.68 7.482-21.58.315-.84 2.273-1.473 3.484-1.498 6.822-.142 13.648-.069 20.473-.069 56.262 0 112.525.113 168.787-.081 13.68-.048 25.777 3.881 35.536 13.206 8.085 7.724 12.963 17.416 14.78 28.854 1.994 12.55-2.265 23.592-6.086 34.941-5.752 17.085-11.29 34.242-16.794 50.989 6.918 10.839 12.03 21.905 8.75 34.99-5.804 23.16-12.402 46.174-23.112 67.542-9.19 18.333-25.155 28.243-45.703 31.177-9.501.382-18.849.382-28.648 0 6.815-22.136 14.082-43.892 21.422-66.03 4.125-12.6 8.246-24.795 12.136-37.063.428-1.351 0-3.44-.815-4.65-8.622-12.725-9.313-26.571-5.192-40.712 4.495-15.423 9.79-30.614 14.818-46.163-27.902 0-55.349-.044-82.795.135-1.34.009-3.418 1.711-3.889 3.065-6.502 18.708-12.842 37.473-19.104 56.264-9.725 29.18-19.546 58.33-28.965 87.61-6.12 19.024-16.971 33.939-35.31 42.479-5.54 2.579-11.769 3.673-17.681 5.447h-72.477zM197.002 153.029c-17.032 51.398-33.739 102.906-51.245 154.141-7.625 22.315-24.27 35.577-47.171 40.708-4.598 1.03-9.48 1.06-14.234 1.076-27.805.094-55.61.046-83.884.046-.468 0-.468-.5-.106-.879 7.573-22.234 14.784-44.09 22.052-66.121 20.575 0 41.042-.065 61.507.072 2.967.02 4.163-.874 5.105-3.722 9.16-27.698 18.552-55.32 27.784-82.994 4.675-14.016 9.158-28.096 13.807-42.388H1.19l29.196-87.713h22.89L46.254 87c34.727 0 68.856-.032 102.985.06 2.8.007 3.885-.964 4.724-3.58 3.447-10.742 7.236-21.374 10.786-32.085 3.185-9.609 6.222-19.267 9.463-29.333h-42.878L137.896 0h109.45c-9.103 28.74-18.673 57.481-28.514 86.91-7.457 22.498-14.643 44.308-21.83 66.119z"/><path fill="#9ac137" d="M1330 477.531c-120.334.469-240.668.469-362.367.469 5.192-1.212 9.117-1.847 12.857-3.054 11.607-3.748 17.114-12.649 17.93-24.747 1.263-18.682-13.046-28.68-26.988-29.339-5.008-.237-10.047-1.626-14.891-3.09-6.985-2.112-10.172-7.17-9.176-13.475.975-6.17 6.286-9.987 13.263-10.366 9.534-.519 18.408 1.271 26.8 6.754 2.819-4.199 5.38-8.014 8.497-12.66L978.67 379h350.863c.468 32.688.468 65.375.468 98.531Z"/><path fill="#323333" d="M0 773.5c4.65-13.8 9.45-27.051 13.925-40.411 21.543-64.337 43-128.704 64.481-193.062.41-1.229.745-2.482 1.215-4.058H36.526c2.436-7.319 4.64-14.179 7.071-20.958.318-.884 1.8-1.924 2.747-1.926 35.773-.099 71.547-.083 108.039-.083-2.966 8.736-5.782 16.928-8.53 25.142-16.981 50.74-33.937 101.49-50.932 152.225-1.889 5.639-3.972 11.212-6.12 17.51-4.367 12.895-8.682 25.061-12.76 37.306-3.183 9.554-6.072 19.206-9.091 28.815-22.317 0-44.633 0-66.95-.5z"/><path fill="#fff" d="M1071.663 774c5.445-1.774 11.674-2.868 17.212-5.447 18.34-8.54 29.19-23.455 35.31-42.479 9.42-29.28 19.241-58.43 28.966-87.61 6.262-18.79 12.602-37.556 19.104-56.264.471-1.354 2.549-3.057 3.89-3.065 27.445-.18 54.892-.135 82.794-.135-5.029 15.549-10.323 30.74-14.818 46.163-4.121 14.14-3.43 27.987 5.192 40.712.82 1.21 1.243 3.299.815 4.65a935.86 935.86 0 0 1-12.593 37.074c-28.12.396-55.712.442-83.302.34-3.079-.01-4.617.737-5.63 3.92-3.16 9.927-6.895 19.67-10.163 29.565-3.571 10.812-6.87 21.714-10.288 32.576h-56.49z"/><path fill="#9ac137" d="M67.418 774a486.09 486.09 0 0 1 8.623-28.815c4.078-12.245 8.393-24.41 12.803-36.92 50.264-.308 100.332-.308 151.753-.308-7.414 22.233-14.586 43.74-21.76 65.646-50.318.397-100.634.397-151.419.397zM1128.62 774a633.004 633.004 0 0 1 9.82-32.576c3.268-9.895 7.003-19.638 10.163-29.565 1.013-3.183 2.551-3.93 5.63-3.92 27.59.102 55.181.056 83.229.043-6.81 21.745-14.077 43.5-21.36 65.637-29.015.381-58.015.381-87.482.381zM272.795 478H2.31v-98.751h355.964c-1.291.727-2.033 1.198-2.818 1.58-13.641 6.632-19.796 20.39-15.553 34.924 2.11 7.229 7.04 12.393 13.753 14.919 6.71 2.524 13.98 3.57 21.02 5.202 2.257.523 4.654.572 6.822 1.318 4.437 1.527 8.175 3.907 8.32 9.35.23 8.523-1.633 12.072-7.867 14.28-12.58 4.455-24.022 1.71-34.622-5.806-1.188-.842-2.26-1.846-3.657-2.998l-9.715 11.387c9.362 8.262 20.039 12.524 31.91 14.595h-93.072z"/><path fill="#323333" d="M1214.959 281.964c5.534-16.315 11.067-32.63 16.602-48.944 8.804-25.945 17.61-51.889 26.394-77.84.15-.443.02-.98.02-1.976h-172.982c6.982-21.066 13.765-41.541 20.554-62.015 2.538-7.652 5.142-15.282 7.602-22.958.74-2.308 1.816-3.388 4.466-3.3 6.428.213 12.868.07 19.67.07L1130.005 87h5.752c48.958 0 97.916.066 146.873-.031 20.438-.04 39.943 16.025 44.41 35.873 2.819 12.522-.314 24.16-4.284 35.846-8.502 25.03-16.823 50.12-25.161 75.205-8.135 24.473-15.842 49.095-24.403 73.417-7.353 20.89-22.188 34.814-43.854 39.36-11.602 2.435-23.903 1.53-35.92 1.443 7.19-22.012 14.414-43.337 21.61-64.67.147-.436-.038-.984-.07-1.48zM462.378 263.653c8.032-23.727 15.84-47.112 23.654-70.494 4.446-13.305 8.9-26.607 13.426-40.135H347.87l28.386-87.829h22.968l-6.82 21.643h194.251c-.302 1.754-.362 3.126-.779 4.379-25.564 76.928-51.161 153.845-76.74 230.768-2.492 7.492-5.063 14.966-7.228 22.553-.724 2.535-1.603 3.522-4.276 3.51-20.796-.088-41.593-.048-63.563-.048 9.485-28.367 18.787-56.185 28.309-84.347z"/><path fill="#9ac137" d="M819.487 379.078h130.716c-6.941 3.72-12.579 8.471-16.14 15.593-6.19 12.377-2.432 26.863 9.267 34.362 7.278 4.665 15.455 6.323 23.975 6.884 13.919.915 18.959 9.28 14.37 19.02-3.207 6.806-10.323 7.392-16.656 7.935-9.67.827-19.302-3.156-28.576-10.842l-9.72 11.347c9.459 8.317 20.139 12.615 31.993 14.615-86.75 0-173.5 0-260.823-.283-.64-.462-.707-.641-.684-1.27.09-4.564.09-8.679.09-13.448h-47.471v-28.704h39.868v-13.288h-39.814v-28.011h47.271c0-4.632 0-8.758.105-13.144.17-.435.236-.61.302-.785 26.967-.012 53.934-.023 81.493.411.63 2.443.7 4.44.701 6.437.007 28.31.084 56.622-.074 84.932-.025 4.511 1.297 6.091 5.94 5.917 9.14-.344 18.301-.042 27.453-.115 18.26-.145 34.985-12.268 35.404-32.764.217-10.63.242-21.275-.04-31.903-.424-16.034-12.997-29.765-28.994-32.264-.047-.21.044-.632.044-.632zM634.459 477.955c-27.237-.02-54.474-.042-82.148-.308-.438-.245-.554-.502-.458-.923.097-4.687.097-8.953.097-13.745h-47.17v-28.366h39.402V420.99h-39.298V393.1h47.507l-.803-13.13c1.741-.322 3.483-.923 5.225-.927 25.567-.057 51.134-.035 77.262.255.63.46.7.633.694 1.262a2271.72 2271.72 0 0 0-.111 27.425c.058 22.968.145 45.936.12 69.173-.173.445-.246.622-.32.798zM1214.5 281.977c.49.482.674 1.03.527 1.465a13589.231 13589.231 0 0 1-21.835 64.293c-35.983.31-71.77.31-108.185.31l2.106-8.015c-9.91 0-19.631-.049-29.35.088-.838.011-2.158 1.101-2.41 1.944-2.566 8.565-9.607 13.957-14.559 20.815-1.71 2.37-3.736 4.514-6.11 7.347-1.244-6.185-2.945-11.62-3.275-17.136-.315-5.265.798-10.616 1.29-16-4.096.339-8.757-.224-11.216-5.371-.672-1.407-.917-3.037-1.24-4.589-2.826-13.6 4.6-23.553 11.911-33.57 3.377-4.627 6.744-9.274 9.846-14.085 2.576-3.995 5.518-6.66 10.71-6.7 1.42-.01 3.516-2.49 4.12-4.245 4.25-12.34 8.328-24.745 12.124-37.231.82-2.7 2.006-3.368 4.49-3.33 6.323.098 12.647.033 19.488.033-4.122 12.826-8.142 25.35-12.172 37.871-1.25 3.885-2.318 7.846-3.86 11.612-1.1 2.687-.595 3.633 2.175 4.657 7.957 2.94 15.753 6.317 24.263 9.788-.104-11.308 7.657-10.05 15.277-10.007 31.808.183 63.617.073 95.885.056m-173.944 36.194c-5.31 2.673-7.454 5.885-6.223 9.93 1.406 4.616 4.847 6.339 9.542 6.338 13.791-.001 27.584.024 41.372.295 3.448.067 5.02-1.062 5.957-4.36 2.354-8.277 5.04-16.46 7.626-24.67 2.632-8.354 2.743-8.554-4.856-12.006-6.523-2.963-13.291-5.386-20.21-8.151l-8.215 24.649 11.954 6.642-.419 1.207c-11.894 0-23.787 0-36.528.126m8.392-23.934 4.728-15.777-1.8-1.195c-1.725 1.414-3.87 2.532-5.103 4.29-6.088 8.693-11.565 17.837-17.99 26.262-4.596 6.028-3.438 12.507-3.391 19.019.01 1.037 1.174 2.066 2.473 4.193.19-2.569.396-3.812.353-5.047-.23-6.652 3.084-11.373 9.029-13.253 4.844-1.533 6.732-4.865 8.343-8.839 1.18-2.908 2.034-5.949 3.358-9.653zM489.518 477.887h-113.72c5.136-1.37 9.885-2.181 14.279-3.902 10.937-4.283 15.423-13.116 15.739-24.345.322-11.464-3.878-20.78-14.804-25.405-5.512-2.334-11.773-2.88-17.678-4.308-3.989-.965-8.164-1.569-11.868-3.21-6.185-2.738-8.16-7.465-6.612-13.71 1.299-5.24 6.395-8.691 12.287-9.072 9.723-.63 18.853.907 27.404 6.732l8.593-12.604-17.249-9.046c34.703 0 68.701 0 103.216.286.566.445.616.604.61 1.225-.021 32.437.014 64.413-.02 96.63-.106.403-.142.566-.177.729zM197.46 153.018c6.729-21.8 13.915-43.61 21.291-65.742 43.294-.32 86.4-.32 130.458-.32l-21.939 66.05c-43.141 0-86.247 0-129.81.012zM724.954 642.951c.682 1.138 1.372 2.467 1.045 3.461-6.62 20.14-13.345 40.246-20.107 60.338-.28.834-1.128 1.476-2.07 2.288-28.892.08-57.426.08-86.47.08 7.217-21.71 14.132-42.732 21.348-63.65.43-1.25 3.27-2.354 4.997-2.364 25.932-.15 51.866-.104 77.799-.104.997 0 1.995-.008 3.458-.049zM1000.949 143.651c6.354-19.069 12.506-37.787 18.65-56.476h66.986l-21.772 65.534h-66.837c1.01-3.174 1.89-5.94 2.973-9.058zM616.834 319.35c4.045-11.61 7.815-22.897 11.826-34.097.475-1.326 2.262-3.1 3.455-3.112 20.936-.19 41.875-.137 64.202-.137l-22.292 65.801h-66.474c3.087-9.554 6.084-18.83 9.283-28.455zM527.65 328.102c4.988-14.574 9.872-28.768 14.959-42.89.471-1.307 2.225-3.062 3.396-3.072 20.475-.165 40.952-.092 61.429-.05.284.001.567.278 1.324.673l-21.614 65.033h-65.89c2.197-6.679 4.273-12.986 6.397-19.694z"/><path fill="#fefffe" d="M819.49 379.92c15.95 2.29 28.523 16.02 28.947 32.054.282 10.628.257 21.273.04 31.903-.419 20.496-17.144 32.619-35.404 32.764-9.152.073-18.314-.23-27.453.115-4.643.174-5.965-1.406-5.94-5.917.158-28.31.082-56.621.075-84.932-.001-1.997-.072-3.994-.235-6.445-.125-.455.274-.473.794-.177 13.405.409 26.29.522 39.176.636m6.871 17.51c-9.907-8.062-21.294-2.988-31.948-4.479v70.031c6.297 0 12.3.505 18.19-.1 14.678-1.506 20.806-9.961 20.808-22.454 0-8.323-.173-16.65.012-24.97.15-6.787-1.432-12.767-7.062-18.027z"/><path fill="#fff" d="M489.765 476.917c-.036-31.976-.071-63.952.407-96.417 20.519-.485 40.524-.481 60.528-.477.2-.006.398-.014.742-.037.404 4.212.663 8.441.949 13.113h-47.507v27.891h39.298v13.623H504.78v28.366h47.17c0 4.792 0 9.058-.578 13.698-20.921.329-41.264.284-61.607.24z"/><path fill="#e3ecc7" d="M634.93 477.99c-.398-.211-.325-.388.29-.82 20.995-.263 41.447-.272 61.9-.281.066.179.132.358.309.802-20.602.288-41.314.312-62.498.3zM634.845 380.103c-.07-.173-.14-.346-.308-.781 20.626-.282 41.35-.303 62.55-.293.407.205.341.38-.273.794-21.023.253-41.496.266-61.97.28z"/><path fill="#d5e4ab" d="M489.695 477.157c20.413-.196 40.756-.151 61.58-.06.482.048.598.305.596.446-20.468.232-40.935.323-61.878.379-.44-.198-.404-.361-.298-.765z"/><path fill="#dee9bb" d="M550.4 379.716c-19.704.303-39.709.299-60.172.323-.507-.132-.557-.291-.664-.695 20.14-.14 40.337-.038 60.836.372z"/><path fill="#e0eac0" d="M819.443 379.71c-12.839.097-25.725-.016-38.93-.435 12.462-.302 25.244-.299 38.5-.246.474.049.383.47.43.681z"/><path fill="#fff" d="M634.769 380.559c20.55-.47 41.022-.484 61.94-.476.444 4.147.444 8.273.444 12.905h-47.271v28.011h39.814v13.288h-39.868v28.704h47.47c0 4.769 0 8.884-.09 13.448-20.54.459-40.993.468-61.888.463-.517-22.982-.604-45.95-.662-68.918-.023-8.99.021-17.98.11-27.425z"/><path fill="#fefffe" d="M1040.98 318.108c12.317-.063 24.21-.063 36.104-.063l.42-1.207-11.954-6.642 8.214-24.65c6.919 2.766 13.687 5.19 20.21 8.152 7.599 3.452 7.488 3.652 4.856 12.006-2.587 8.21-5.272 16.393-7.626 24.67-.937 3.298-2.509 4.428-5.957 4.36-13.787-.271-27.58-.296-41.372-.295-4.695 0-8.136-1.722-9.542-6.339-1.231-4.044.913-7.256 6.646-9.992z"/><path fill="#fcfdfa" d="M1048.785 294.598c-1.161 3.343-2.015 6.384-3.195 9.292-1.61 3.974-3.5 7.306-8.343 8.839-5.945 1.88-9.26 6.6-9.028 13.253.043 1.235-.164 2.478-.354 5.048-1.3-2.128-2.466-3.157-2.473-4.194-.047-6.512-1.205-12.991 3.391-19.019 6.425-8.425 11.902-17.569 17.99-26.261 1.232-1.76 3.378-2.877 5.103-4.29l1.8 1.194a1857.235 1857.235 0 0 1-4.89 16.138z"/><path fill="#9ac137" d="M826.623 397.689c5.367 5.003 6.95 10.983 6.8 17.771-.185 8.32-.011 16.646-.012 24.97-.002 12.492-6.13 20.947-20.808 22.453-5.89.605-11.893.1-18.19.1v-70.03c10.654 1.49 22.04-3.584 32.21 4.736z"/></svg>