<svg xmlns="http://www.w3.org/2000/svg" width="130.2" height="37.5" viewBox="0 0 130.2 37.5"><path fill="#009fc9" d="m48 32 2.065-6H56l-2.065 6z"/><path fill="#009fc9" d="m63.6 32 1.967-6H71.6l-1.967 6z"/><path fill="#333" d="M35.925 7.95 36.583 6h-1.966L32 13.93h14.012L39.988 32h6.024L54 7.95Z"/><path fill="#333" d="m12.822 0-.662 1.952h4.094l-1.979 5.983H4.098l.661-1.951H2.641L0 13.919h12.161L8.063 26.015h-6.08L0 32h8.063a5.557 5.469 0 0 0 5.283-3.772L23 0Z"/><path fill="#333" d="M85.98 7.967 88.599 0H78.514l-.656 1.96h4.061l-1.965 6.007h-6.028l.656-1.96h-1.965L70 13.976h7.99L71.965 32h6.025l6.025-18.025h7.99l-4.06 12.017h-4.061L81.918 32h6.026a5.507 5.49 0 0 0 5.235-3.787L100 7.967Z"/><path fill="#009fc9" d="m20.25 8-2.05 6h12.306L32.2 8Z"/><path fill="#009fc9" d="m100 14 2.065-6H108l-2.065 6Z"/><path fill="#009fc9" d="m68.009 30.182-1.044-3.79c0-.26-.39-.391-.652-.391-.391.261-.653.522-1.044.784l-3.652.261-2.348-.653a1.072 1.074 0 0 0-.913.13l-.391.261-3.261.13a.28.281 0 0 0-.26-.26L52.094 26c-.26 0-.521 0-.652.261l-1.043 3.79c0 .261 0 .522.26.654l2.349.654h.39l.522.522-.391.392c-.26.26-.391.391-.391.653a.958.96 0 0 0 .26.785 1.128 1.13 0 0 0 .783.391 1.029 1.03 0 0 0 1.044 1.046.958.96 0 0 0 .26.784 1.128 1.13 0 0 0 .784.392h.39a1.103 1.105 0 0 0 1.044.915h.13c.261 0 .392-.131.653-.262l.26-.26.262.26.13.131a.93.93 0 0 0 .783.392h.26a.902.904 0 0 0 .914-.785h.652a1.103 1.105 0 0 0 .914-1.045h.39c.261 0 .392-.13.653-.261a2.852 2.857 0 0 0 .391-.654h.522c.26 0 .39-.13.652-.261a1.48 1.483 0 0 0 .391-1.045c0-.262-.13-.392-.26-.654l-.914-.915 1.174-.522h.391l2.348-.654c-.391 0-.256-.261-.391-.522zm-13.827 3.397a.416.417 0 0 1-.39-.392.48.48 0 0 1 .13-.391l1.174-1.046a.455.456 0 0 1 .26-.13.416.417 0 0 1 .391.391c0 .131 0 .262-.13.262l-1.174 1.045c0 .13 0 .261-.26.261zm1.174 1.045a.416.417 0 0 1-.39-.391c0-.13 0-.261.13-.261l1.174-1.043a.455.456 0 0 1 .26-.13.48.48 0 0 1 .391.13.401.402 0 0 1 .13.261s0 .262-.13.262l-1.174 1.045a1.01 1.011 0 0 1-.39.13zM56.4 35.8a.582.583 0 0 1-.521-.391c0-.13 0-.261.13-.261l1.174-1.046a.455.456 0 0 1 .26-.13.48.48 0 0 1 .392.13.592.594 0 0 1 0 .654l-1.174 1.045c-.13-.132-.261-.132-.261 0Zm1.565.654a.455.456 0 0 1-.26.13.48.48 0 0 1-.392-.13.592.594 0 0 1 0-.654l.914-.784a.455.456 0 0 1 .26-.13.48.48 0 0 1 .391.13.592.594 0 0 1 0 .654zm6.13-2.352c-.26 0-.26 0-.39-.13l-.392-.522a.455.456 0 0 0-.26-.131h-.13a.455.456 0 0 0-.131.261c0 .13 0 .13.13.261l.261.261a.455.456 0 0 1 .13.261c0 .13 0 .392-.13.392a.401.402 0 0 1-.26.13h-.131c-.13 0-.26 0-.26-.13l-.392-.392a.455.456 0 0 0-.26-.13h-.13a.455.456 0 0 0-.131.26c0 .131 0 .131.13.262l.261.261c0 .13.13.13.13.261a.48.48 0 0 1-.13.392.401.402 0 0 1-.26.13h-.131c-.13 0-.13 0-.26-.13a.28.281 0 0 0-.261-.261l-.391-.13a.455.456 0 0 0-.26-.131h-.131a.455.456 0 0 0-.13.26c0 .131 0 .131.13.262l.26.261a.455.456 0 0 1 .13.261v.13c0 .262-.13.523-.39.523a.48.48 0 0 1-.391-.13l-.391-.392.13-.13a1.033 1.034 0 0 0 .13-1.438 1.128 1.13 0 0 0-.782-.392 1.854 1.857 0 0 0-.261-.784 1.128 1.13 0 0 0-.783-.392.958.96 0 0 0-.26-.784 1.128 1.13 0 0 0-.784-.392 1.009 1.01 0 0 0-.913-1.045h-.521c-.26 0-.391.13-.653.261l-.26.261-.653-.654.913-3.136 2.478-.13-.39.26a1.122 1.124 0 0 0 1.303 1.83l1.174-.914 1.173.391 4.045 4.051c0 .131.13.131.13.262 0 .13 0 .391-.13.391a.401.402 0 0 1-.261.13zm-.13-2.221-3.26-3.27-1.303-.522-.261-.13-1.435 1.045a.455.456 0 0 0-.26.13.561.562 0 0 1-.522-.522.28.281 0 0 1 .261-.261l1.044-.784.52-.392a.455.456 0 0 0 .262-.13h.13l2.478.653 3.652-.26-.521 3.266z"/><path fill="#009fc9" d="m108.2 31.8 1.957-6H120.2l-2.087 6z"/><path fill="#333" d="M127.15 8.204a4.629 4.606 0 0 0-1.301-.259h-13.944L112.556 6h-1.953L108 13.908h16.02L118.026 31.8h1.954a5.477 5.45 0 0 0 5.207-3.76l4.82-14.39a4.396 4.375 0 0 0-2.858-5.446Z"/></svg>