<svg xmlns="http://www.w3.org/2000/svg" viewBox="0 0 320 320" opacity="0.6">
  <path
    d="m154.06,287.01c-.16,0-.3-.1-.36-.26-.35-1.06-.71-7.88-1.09-20.85l-.02-.69c-.03-1.05-.32-3.75-.62-6.62-.63-5.98-.8-7.9-.63-8.29.17-.79-1.23-11.14-3.46-19.63-2.24-8.51-1.32-16.49-1.32-16.57.02-.21.21-.36.42-.33.21.02.35.21.33.42,0,.08-.91,7.93,1.3,16.29,2.19,8.31,3.77,19.32,3.43,20.12-.09.45.36,4.76.69,7.91.3,2.88.59,5.6.62,6.67l.02.69c.46,15.83.83,19.96,1.05,20.63.07.2-.04.41-.24.47-.04.01-.08.02-.12.02Zm10.96-145.37s-.07,0-.11-.02c-.2-.06-.31-.27-.25-.47,2.05-6.71,18.33-14.69,19.02-15.02.19-.09.41-.01.5.17s.01.41-.17.5c-.17.08-16.68,8.17-18.63,14.57-.05.16-.2.27-.36.27Z"
  />
  <path
    d="m162.25,256.36c-2.46,0-3.13-.9-3.78-1.77l-.19-.26c-.84-1.08-3.98-9.86-5.35-14.09-1.38-4.32-4.1-16.54-4.67-19.77-.49-2.8-3.65-12.47-4.18-14.08-.49-.08-1.55-.33-2.33-1.18-.73-.79-5.21-3.18-6.88-4.04-.18-.09-.26-.32-.16-.5s.32-.25.5-.16c.63.32,6.14,3.16,7.09,4.2.81.88,2.06.97,2.08.97.15,0,.29.11.33.26.15.46,3.74,11.32,4.28,14.41.57,3.21,3.27,15.37,4.64,19.67,1.52,4.71,4.53,12.96,5.22,13.86l.2.27c.66.89,1.18,1.58,3.75,1.45,3.04-.16,9.51-3.54,9.91-4.86.06-.2.27-.31.47-.25.2.06.31.27.25.47-.57,1.88-7.61,5.23-10.59,5.39-.21.01-.42.02-.61.02Zm-16.17-9.59c-.38,0-.78-.04-1.18-.12-3.36-.66-5.15-2.41-5.71-3.83-.23-.57-.34-1.36-.46-2.12-.13-.85-.26-1.73-.52-2.17-.25-.42-.31-.93-.39-1.57-.12-.94-.29-2.24-1.17-3.96-1.5-2.93-4.93-16.22-5.86-21.54-.52-3.01-.73-7.2-.9-10.57-.14-2.7-.25-5.03-.48-6.03-.55-2.38-.04-3.2.07-3.34.13-.16.36-.2.53-.07.16.12.19.35.08.51-.02.04-.4.71.06,2.73.24,1.06.36,3.43.5,6.16.17,3.35.38,7.51.89,10.48.92,5.28,4.31,18.44,5.78,21.32.94,1.83,1.12,3.2,1.24,4.2.07.56.13,1,.3,1.29.33.57.47,1.48.62,2.44.11.72.22,1.47.42,1.96.49,1.23,2.1,2.76,5.16,3.36,3.17.63,5.85-1.93,5.88-1.96.15-.14.39-.14.53,0,.14.15.14.38,0,.53-.11.1-2.37,2.27-5.37,2.27Zm21.51-83.61c-1.21,0-2.26-4.41-2.93-8.12-.04-.2.1-.4.3-.44.2-.04.4.1.44.3.62,3.41,1.66,7.24,2.22,7.51-.04-.03.26-.32.52-2.28,1.02-7.67-8.77-11.3-8.87-11.33-.18-.07-.28-.26-.24-.44-.17.03-.33-.07-.4-.23-.08-.19.02-.41.21-.49,1.99-.81,4.03-.42,6.6.07,2.28.43,5.13.97,8.72.75,7.26-.45,12.01-7.83,12.05-7.9.11-.18.34-.23.52-.12.17.11.23.34.12.52-.2.32-5,7.77-12.64,8.25-3.69.23-6.58-.32-8.91-.76-2.21-.42-4-.76-5.63-.3,1.25.49,10.24,4.34,9.22,12.08-.27,2.06-.64,2.91-1.28,2.93h-.01Zm.03-.74h0,0Zm-4.42-19.57s-.04,0-.05,0c-.21-.03-.35-.22-.32-.43,1.47-10.01,18.17-18.25,18.88-18.6.19-.09.41-.01.5.17.09.19.01.41-.17.5-.17.08-17.05,8.42-18.46,18.03-.03.19-.19.32-.37.32Zm-7.71-2.97s-.03,0-.05,0c-.21-.03-.35-.22-.32-.42.19-1.49,12.22-12.97,14.63-15.26.15-.14.39-.14.53.01.14.15.14.39-.01.53-5.43,5.15-14.15,13.73-14.41,14.81-.02.19-.18.32-.37.32Zm6.81,0c-.2,0-.37-.16-.37-.36-.16-3.8,10.91-13.67,11.38-14.09.15-.14.39-.12.53.03.14.16.12.39-.03.53-3.14,2.78-11.25,10.63-11.13,13.5,0,.21-.15.38-.36.39h-.02Z"
  />
  <path
    d="m164.1,260.22c-.49,0-.91-.06-1.23-.17-1.87-.7-2.45-2.43-2.75-3.35-.04-.12-.09-.27-.13-.36-.08-.03-.15-.09-.19-.17-.1-.18-.04-.41.14-.51.1-.06.28-.07.39-.03.26.1.34.36.5.83.29.87.77,2.32,2.31,2.89,2.36.89,11.71-2.53,12.8-5.15.08-.19.3-.28.49-.2.19.08.28.3.2.49-1.11,2.66-8.87,5.74-12.53,5.74Zm-16.57-8.58c-.26,0-.52,0-.79-.03-2.99-.22-5.61-1.32-6.68-2.8-.95-1.3-.89-5.63-.88-6.12,0-.21.16-.34.38-.37.21,0,.37.17.37.38-.02,1.26.06,4.73.74,5.67.72.99,2.76,2.24,6.13,2.49,3.02.23,5.44-1.05,5.46-1.06.18-.1.41-.03.51.15s.03.41-.15.51c-.1.05-2.22,1.18-5.08,1.18Z"
  />
  <path
    d="m152.18,287.6c-2.25,0-5.15-.6-5.78-1.37-.82-1.01-.91-5.01-.77-5.74.06-.87-3.19-13.05-3.8-14.95-.22-.68-.47-3.28-.76-6.29-.29-3.02-.69-7.13-.97-7.72-.69-.52-.25-2.05-.1-2.52.07-.2.28-.31.47-.24.2.07.3.28.24.47-.26.78-.31,1.59-.16,1.68.4.24.58,1.23,1.27,8.25.26,2.72.54,5.53.73,6.13.36,1.12,4,14.37,3.82,15.32-.16.82.04,4.42.62,5.13.54.66,5.15,1.49,6.96.89,3.53-1.17,4.3-1.78,4.32-2.08.02-.21-.09-.86-.2-1.48-.19-1.12-.42-2.4-.26-3.07.1-.46-.16-1.96-.41-3.42-.25-1.45-.53-3.09-.6-4.39-.05-.95-.03-2.97,0-5.31.04-4.27.1-10.13-.29-11.87-.62-2.72-.88-6.94-.89-7.12-.01-.21.15-.38.35-.4.18-.02.38.14.4.35,0,.04.26,4.34.87,7,.42,1.83.36,7.49.31,12.04-.02,2.33-.04,4.34,0,5.26.07,1.26.35,2.88.59,4.31.33,1.93.53,3.14.4,3.71-.12.53.11,1.83.27,2.78.15.85.24,1.38.21,1.68-.08.96-1.91,1.75-4.83,2.73-.5.17-1.21.24-2,.24Zm26.89-.24c-1.02,0-2.03-.16-2.94-.55-3.92-1.66-3.2-5.36-3.03-6.02-.95-4.15-10.63-20.59-10.73-20.76-.1-.18-.05-.41.13-.51.18-.11.41-.05.51.13.41.69,9.98,16.95,10.84,21.07.01.06,0,.13,0,.19-.05.15-1.08,3.66,2.58,5.21,3.89,1.65,9.79-1.4,10.18-1.96,1.08-1.58,1.22-2.83.42-3.73-1.45-1.62-2.7-6.33-3.28-10.29-.6-4.08-1.52-10.26-3.68-13.98-2.14-3.69-5.55-7.39-6.27-7.6-.11.03-.24,0-.33-.08-.11-.1-.16-.26-.11-.4.02-.05.44-1.36-.76-2.12-.06-.04-.1-.09-.13-.15-.01-.03-.33-.66-.64-1.43-.05-.25-.72-4.35-.41-6.48.29-1.97,1.24-14.71,1.31-17.46-1.93.55-3.72.56-3.8.56-.21,0-.38-.17-.38-.38s.17-.38.38-.38c.02,0,2.08,0,4.08-.68.34-.12.77-.32.86-.65.1-.38-.24-.85-.37-.98-.08-.09-.12-.21-.09-.33l.2-1.01c.03-.16.17-.28.33-.3.05,0,.1,0,.13-.14.06-.3-.14-.72-.26-.78-.59-.3-.46-1.1-.17-1.69.09-.19.31-.26.5-.17.19.09.26.32.17.5-.14.28-.2.62-.16.7.49.24.75,1.03.65,1.57-.06.32-.24.56-.51.68l-.12.6c.21.28.58.88.42,1.52-.12.47-.49.84-1.11,1.09-.03,2.3-1.02,15.78-1.32,17.82-.3,2.02.38,6.12.38,6.16.22.52.46,1.01.55,1.21,1.06.72,1.19,1.83,1.08,2.55,1.69.81,5.25,5.61,6.55,7.85,2.23,3.85,3.16,10.11,3.77,14.25.67,4.54,1.95,8.61,3.1,9.89.73.82,1.27,2.29-.35,4.66-.46.68-4.42,2.78-8.15,2.78Z"
  />
  <path
    d="m143.35,315.58c-1.94,0-3.83-.45-4.96-1.34-1.9-1.5-.64-4.8.11-6.78.18-.47.35-.91.38-1.1.15-1.02,4.5-5.91,6.03-7.6-.15-1.58,1.1-5.86,1.4-6.83-1.11-2.29,0-5.89.04-6.04.06-.2.27-.31.47-.25.2.06.31.27.25.47-.01.04-1.1,3.6-.03,5.6.05.09.06.19.03.29-.47,1.53-1.63,5.73-1.39,6.8.03.12,0,.24-.09.33-2.85,3.14-5.85,6.74-5.96,7.34-.04.27-.2.68-.42,1.26-.63,1.67-1.81,4.77-.34,5.92,1.98,1.56,6.95,1.55,9.34-.02,2.48-1.62,4.36-4.95,6.29-11.13.02-.05.04-.1.08-.14,1.19-1.3,4.37-4.92,4.74-6l.14-.4c.6-1.68,2.01-5.6-.09-8.5-.05-.07-.08-.15-.07-.24.05-1.02.04-3.84-.69-4.62-.13-.14-.24-.15-.31-.15-.21,0-.37-.17-.37-.38,0-.21.16-.36.38-.37.32,0,.61.14.85.39,1,1.07.93,4.27.9,5.04,2.22,3.21.74,7.32.11,9.09l-.14.39c-.47,1.38-4.18,5.49-4.84,6.2-1.98,6.3-3.94,9.73-6.57,11.45-1.35.88-3.33,1.32-5.25,1.32Zm31.93-2.11c-1.84,0-3.73-.25-5.36-.7-1.11-.3-1.81-.88-2.08-1.72-.48-1.5.46-3.71,2.8-6.56,1.58-1.93,3.88-8.74,4.25-9.89-.66-1.21-.16-3.52,0-4.19-.54-1.07-.61-4.29-.61-4.96,0-.21.16-.38.37-.38h0c.21,0,.37.17.38.37.02,1.66.21,4.22.57,4.69.07.09.09.21.06.32-.22.79-.65,3.04-.06,3.88.07.1.09.22.05.33-.11.33-2.63,8.08-4.44,10.3-2.1,2.57-3.05,4.65-2.66,5.85.19.59.7.99,1.56,1.23,3.81,1.05,9.32.97,11.59-1.01,2.38-2.07,3.99-6.42,5.86-11.88.9-2.63,1.71-3.7,2.3-4.49.69-.91,1.07-1.41,1.02-3.84-.05-3.07-1.02-4.37-1.79-5.42-.37-.5-.69-.93-.84-1.47l-.39-1.48c-.05-.2.07-.41.27-.46.2-.05.41.07.46.27l.39,1.48c.1.39.37.75.71,1.21.8,1.07,1.89,2.54,1.94,5.85.05,2.69-.44,3.33-1.18,4.31-.56.74-1.33,1.76-2.19,4.27-1.9,5.58-3.56,10.01-6.08,12.21-1.5,1.3-4.16,1.87-6.93,1.87Z"
  />
  <path
    d="m156.24,304.7s-.1,0-.14-.03l-1.33-.55c-.13-.05-.22-.18-.23-.32l-.07-1.17c-.01-.21.14-.39.35-.4.21,0,.38.14.4.35l.06.93.92.38.88-.64.82-4.69c.04-.2.24-.34.43-.3.2.04.34.23.31.43l-.85,4.84c-.02.1-.07.18-.15.24l-1.17.86c-.07.05-.14.07-.22.07Zm32.46-2.85s-.06,0-.08,0l-1.44-.33c-.1-.02-.19-.09-.24-.18-.05-.09-.06-.2-.03-.3l.25-.72c.07-.2.28-.3.48-.23.2.07.3.28.23.48l-.11.32.77.18.72-1.25v-4.16c0-.21.17-.38.38-.38s.38.17.38.38v4.26c0,.07-.02.13-.05.19l-.91,1.58c-.07.12-.19.19-.33.19Zm-3.04-16.25c-.16,0-.31-.1-.36-.26-.01-.05-1.49-4.81-2.02-6.26-.56-1.54-6.29-15.2-7.33-16.77-1.01-1.54-6.52-8-7-8.56-1.48-1.02-1.65-3.22-1.91-6.53-.16-2.1-.37-4.71-.96-7.79-1.47-7.73-.43-22.42,0-25.89.08-.63.16-1.21.24-1.75.28-1.92.49-3.31.03-4.94-.62-2.23-.04-6.89-.01-7.09.03-.21.21-.35.42-.32.21.03.35.21.32.42,0,.05-.59,4.71-.01,6.79.5,1.78.27,3.31-.02,5.25-.08.54-.16,1.11-.24,1.74-.42,3.44-1.46,18.02,0,25.66.6,3.13.8,5.76.97,7.88.25,3.13.41,5.19,1.62,5.99.03.02.06.04.08.07.24.29,6.01,7.03,7.09,8.67,1.1,1.66,6.84,15.35,7.41,16.93.53,1.47,1.97,6.1,2.03,6.3.06.2-.05.41-.25.47-.04.01-.07.02-.11.02Zm-33.32-122.34c-.06,0-.13-.02-.19-.05-.18-.1-.24-.33-.14-.51.51-.87,5-8.51,6.83-9.46.59-.31.93-.8.98-1.44.07-.93-.48-1.95-1.44-2.67-1.87-1.38-4.47-11.65-4.95-13.6-.68-.03-3.92.93-6.63,1.89-.2.07-.41-.03-.48-.23-.07-.19.03-.41.23-.48,3.03-1.08,6.78-2.26,7.42-1.78.07.05.12.13.14.21,1.18,4.85,3.41,12.41,4.72,13.37,1.17.87,1.84,2.14,1.75,3.33-.07.89-.56,1.62-1.38,2.05-1.39.72-5.18,6.87-6.52,9.17-.07.12-.2.19-.32.19Z"
  />
  <path
    d="m134.15,160.56c-1.11,0-2.28-.2-3.13-.78-1.63-1.1-3.9-3.36-4.33-3.88-.45-.55-2.56-6.59-1.88-9.52.65-2.8,1.71-6.08,4.19-6.69,2.39-.58,3.93-1.47,4.05-1.77.06-.2.27-.31.46-.25.2.06.31.27.25.47-.27.92-2.9,1.87-4.59,2.28-2.1.51-3.08,3.74-3.64,6.13-.63,2.69,1.42,8.46,1.73,8.88.36.44,2.59,2.67,4.17,3.73,1.5,1.01,4.32.6,5.19.27.14-.08,1.1-1.02,5.28-10.7l.12-.28c.24-.54.07-1.55-.02-1.9-.05-.2.07-.41.27-.46.2-.05.4.07.46.27.04.15.36,1.51-.02,2.38l-.12.28c-4.62,10.68-5.41,10.99-5.7,11.1-.58.22-1.63.42-2.75.42Zm18.98-25c-.15,0-.28-.09-.35-.23-.48-1.12-.71-3.14-.72-3.23-.02-.21.12-.39.33-.42.21-.03.39.12.42.33,0,.02.23,2,.67,3.02.08.19,0,.41-.2.49-.05.02-.1.03-.15.03Zm-19.72-.01c-.09,0-.17-.03-.25-.09-.25-.22-.38-.33,1.8-4.8-.27-4.18,2.48-7.43,2.6-7.56.13-.16.37-.17.53-.04.16.13.18.37.04.53-.03.03-2.71,3.21-2.41,7.12,0,.07,0,.13-.04.19-.87,1.79-1.8,3.82-1.9,4.23.01.1-.02.21-.09.29-.07.08-.18.13-.28.13Z"
  />
  <path
    d="m143.27,197.34c-.07,0-.14-.02-.21-.06-.4-.26-2.92-.67-4.76-.97-3.57-.58-4.58-.79-4.83-1.14-.04-.05-.11-.15.05-1.71-1.35-.07-3.06-.93-4.72-1.76-.99-.5-1.92-.96-2.68-1.21-.42-.14-1-.38-1.15-.9-.17-.59.29-1.14.87-1.84.34-.41.73-.88,1.02-1.39.99-1.77,3.73-9.71,4.71-12.72.92-2.85,5.72-14.51,5.93-15,.08-.19.3-.28.49-.2.19.08.28.3.2.49-.05.12-4.99,12.13-5.91,14.95-.98,3.03-3.75,11.04-4.77,12.85-.32.58-.73,1.07-1.1,1.51-.37.44-.79.95-.73,1.16.01.04.1.21.66.39.81.26,1.77.74,2.78,1.25,1.54.77,3.27,1.64,4.47,1.68.43-3.75,1.77-13.34,5.71-38.16.03-.2.23-.34.43-.31.2.03.34.22.31.43-2.41,15.2-5.91,38.05-5.92,40.08.44.19,2.66.55,4.29.81,2.81.46,4.56.76,5.05,1.09.17.11.22.35.1.52-.07.11-.19.17-.31.17Zm34.4-23.22s-.03,0-.05,0c-.21-.03-.35-.21-.32-.42.19-1.42,2.8-5.67,5.82-10.6,3.64-5.92,7.76-12.63,7.92-14.92.3-4.18-1.22-14.71-1.24-14.81-.03-.2.11-.39.32-.42.21-.03.4.11.43.32.06.43,1.55,10.71,1.24,14.97-.18,2.47-4.17,8.97-8.03,15.26-2.86,4.65-5.55,9.04-5.72,10.3-.02.19-.19.33-.37.33Zm-49.85-18.16c-.13,0-.26-.07-.33-.19-.21-.38-.4-1.22-.69-2.57-.24-1.11-.51-2.36-.81-3.24-.47-1.34.51-3.35,1.3-4.97.36-.73.69-1.42.79-1.84.19-.87.89-1.32,1.62-1.8.64-.42,1.37-.9,1.93-1.74,1.27-1.91,3.44-3.25,3.53-3.31.18-.11.41-.05.52.12.11.18.05.41-.12.52-.02.01-2.12,1.32-3.3,3.09-.64.97-1.47,1.51-2.14,1.95-.66.43-1.18.77-1.3,1.34-.11.5-.45,1.2-.84,2-.69,1.41-1.63,3.35-1.27,4.39.32.91.59,2.19.84,3.32.22,1.01.45,2.06.61,2.36.1.18.03.41-.15.51-.06.03-.12.05-.18.05Zm3.13-16.1c-.15,0-.3-.1-.35-.25-.05-.15,0-.3.1-.4.13-.32.27-1.77.36-2.74.09-.94.18-1.82.27-2.25.25-1.09,3.2-3.35,3.79-3.79.17-.12.4-.09.53.08.12.17.09.4-.08.52-1.37,1.03-3.37,2.75-3.51,3.36-.09.38-.17,1.28-.26,2.15-.26,2.74-.36,3.17-.73,3.3-.04.01-.08.02-.13.02Zm6.68-6.18c-.11,0-.21-.05-.29-.14-1.2-1.45-1.4-6.49-1.42-7.06,0-.21.16-.38.36-.39.22-.02.38.16.39.36.05,1.48.37,5.55,1.25,6.61.13.16.11.4-.05.53-.07.06-.16.09-.24.09Zm32.79-17.02c-1.43,0-3.09-.32-3.34-.38-.2-.04-.33-.24-.29-.44.04-.2.24-.34.44-.29.92.18,3.5.58,4.46.2.19-.07.41.02.49.21.08.19-.02.41-.21.49-.39.16-.95.21-1.54.21Z"
  />
  <path
    d="m172.15,214.24c-.35,0-.66-.03-.87-.11-.46-.17-.51-.5-.51-.63,0-.96-1.2-14.01-1.74-18.24-1.23,3.16-4.49,10.43-4.93,11.41-.04.09-.12.16-.21.2-.06.02-1.58.57-3.71.41-2.27-.18-10.22-5.29-11.39-6.12-.72-.52-2.41-1.1-3.76-1.57-1.7-.58-2.27-.8-2.46-1.08-.21-.32-.08-.95.91-4.54.62-2.22,1.32-4.74,1.36-5.78.08-2.09,2.67-21.04,2.78-21.85.03-.21.22-.36.42-.32.21.03.35.22.32.42-.03.2-2.69,19.72-2.78,21.78-.05,1.12-.73,3.58-1.39,5.95-.43,1.55-.96,3.46-.97,3.94.24.15,1.24.49,2.04.77,1.48.51,3.15,1.08,3.96,1.67,1.66,1.19,9.15,5.84,11.01,5.99,1.6.12,2.84-.19,3.25-.32,1.47-3.27,5.08-11.45,5.27-12.42.04-.19.22-.38.43-.36.42.04.52.05,1.46,9.91.45,4.69.85,9.34.88,10.08.49.25,2.96-.16,3.3-.48.04-.12.05-.89.05-1.57,0-1.87.01-4.69.88-7.31,1.3-3.91,3.17-13.68,3.56-17.85.38-4.1,3.37-21.06,3.86-23.17.05-.2.25-.33.45-.28.2.05.33.25.28.45-.49,2.1-3.46,18.99-3.84,23.07-.39,4.2-2.28,14.06-3.59,18.01-.83,2.51-.84,5.26-.85,7.08,0,1.32-.02,1.79-.22,2.05-.36.44-2.06.82-3.24.82Z"
  />
  <path
    d="m174.31,204.08c-.36,0-.96-.34-4.08-13.47-.05-.2.08-.4.28-.45.2-.05.4.08.45.28,1.16,4.89,2.55,10.24,3.24,12.22,0,0,0,0,0-.01.32-1.53.72-3.42-.11-4.6-.12-.17-.08-.4.09-.52.17-.12.4-.08.52.09,1.01,1.44.58,3.52.23,5.19-.06.29-.12.58-.17.84-.07.41-.35.44-.44.45,0,0-.02,0-.03,0Zm2.73-8.54c-.12,0-.24-.06-.31-.16-.1-.14-2.43-3.53-3.13-5.02-.71-1.5-2.06-20.98-2.21-23.19-.01-.21.14-.39.35-.4.19-.02.39.14.4.35.59,8.65,1.65,21.89,2.14,22.92.67,1.43,3.05,4.88,3.07,4.91.12.17.07.4-.1.52-.06.04-.14.07-.21.07Zm-15.31-23.25c-1.73,0-6.87-2.85-12.23-5.97-.53-.31-.95-.55-1.22-.7-2.25-1.27-2.5-6.78-2.44-8.19.06-1.42-2.1-9.46-2.94-12.44-.06-.2.06-.41.26-.46.2-.05.41.06.46.26.12.44,3.04,10.85,2.97,12.68-.09,2.16.42,6.58,2.06,7.5.27.15.69.4,1.23.71,2.64,1.54,10.67,6.21,11.93,5.86,1.63-.46,7.35-3.16,8.88-5.29,1.65-2.27,9.32-7.55,9.65-7.77,6.98-7.86,6.79-16.14,6.75-17.06-.03-.67.47-2.04,1.3-4.21,1.02-2.67,2.28-6,2.2-7.9-.14-3.14-4.03-6.76-4.07-6.8-.15-.14-.16-.38-.02-.53.14-.15.38-.16.53-.02.17.16,4.16,3.87,4.31,7.32.09,2.06-1.2,5.47-2.25,8.2-.66,1.73-1.28,3.36-1.25,3.91.05.95.24,9.51-7.01,17.65-.15.11-7.96,5.48-9.53,7.65-1.7,2.36-7.69,5.13-9.29,5.58-.08.02-.17.03-.28.03Z"
  />
  <path
    d="m160.21,157.52c-.07,0-.15-.02-.21-.07-.17-.12-.21-.35-.09-.52,2.39-3.44-.21-6.63-.32-6.77-.13-.16-.11-.4.05-.53.16-.13.39-.11.53.05.03.04,3.08,3.76.36,7.68-.07.11-.19.16-.31.16Zm-1.6-8.31s-.08,0-.12-.02c-.2-.07-.3-.28-.24-.47.05-.14,1.2-3.47,4.7-6.53,2.52-2.2,6.51-2.77,10.04-3.27,1.46-.21,2.84-.4,3.97-.7,3.77-.98,8.37-4.25,8.41-4.29.17-.12.4-.08.52.09.12.17.08.4-.09.52-.19.14-4.76,3.39-8.66,4.4-1.18.3-2.57.5-4.05.71-3.42.49-7.3,1.04-9.65,3.09-3.35,2.93-4.47,6.17-4.48,6.2-.05.16-.2.26-.36.26Zm0-23.48c-.47,0-.91-.1-1.17-.4-.09-.11-.12-.26-.07-.39.11-.28.72-1.72,1.46-2,.48-.19,8.45-4.68,13.7-7.66.1-.06.22-.06.33-.02,1.71.72,1.71,1.19,1.71,1.35,0,.27,0,.6-14.2,8.79-.26.09-1.03.32-1.75.32Zm-.42-.79c.41.12,1.28-.02,1.86-.21,4.74-2.74,12.36-7.21,13.66-8.18-.18-.12-.57-.33-.98-.52-1.94,1.1-13.03,7.38-13.64,7.61-.26.1-.65.74-.9,1.29Zm-1.18-2.6s-.06,0-.09-.01c-.1-.03-.18-.09-.23-.18-.32-.57-.65-1.65.13-2.13l12.5-7.64c.13-.08.3-.07.43.02l.13.1.55-.53c.08-.08.19-.12.31-.1.11.01.21.08.27.17l.47.76c.1.17.06.38-.1.5l-1.24.92-12.92,8.06c-.06.04-.13.06-.2.06Zm12.47-9.19l-12.27,7.5h0c-.2.12-.13.47-.03.76l12.89-8.09c-.13.07-.29.06-.41-.03l-.18-.14Zm-12.47,7.18h0,0Zm13.59-7.5l-.44.43.49-.36-.04-.07Zm-20.04-3.66c-.08,0-.16-.02-.22-.07l-.7-.51c-.09-.06-.14-.16-.15-.27-.15-1.92.75-5.37.79-5.52.02-.09.08-.17.17-.22l.37-.23c-.04-.07-.05-.16-.03-.24l.43-2.25c.03-.18.19-.3.37-.3h.86c.21,0,.38.17.38.38v4.46c0,.21-.17.38-.38.38s-.38-.17-.38-.38v-1.93l-1.09.67c-.16.65-.81,3.34-.74,4.96l.55.41c.17.12.2.36.08.52-.07.1-.19.15-.3.15Zm1.33-8.87l-.3,1.57.47-.29v-1.28h-.17Zm12.55,6.13c-.08,0-.16-.02-.21-.05-.19-.09-.26-.32-.17-.5.06-.12.18-.2.31-.21.14-.16.34-.61.38-.88-.18.14-.46.42-.67.72-.12.17-.36.21-.52.08-.17-.12-.2-.36-.08-.52.4-.55,1.16-1.41,1.76-1,.56.39.11,1.45-.11,1.83-.25.43-.49.54-.68.54Z"
  />
  <path
    d="m160.34,122.94s-.04,0-.06,0c-.2-.03-.34-.23-.31-.43.15-.89-.71-1.34-.75-1.36-.18-.09-.26-.32-.17-.5.09-.19.32-.26.5-.17.49.24,1.36,1,1.16,2.16-.03.18-.19.31-.37.31Zm-1.72-3.21c-.17,0-.33-.12-.37-.3-.24-1.13-1.81-1.36-1.82-1.37-.2-.03-.35-.22-.32-.42.03-.2.22-.34.42-.32.09.01,2.11.3,2.46,1.95.04.2-.09.4-.29.45-.03,0-.05,0-.08,0Zm-11.15-.67c-.09,0-.18-.03-.26-.1-.15-.14-.16-.38-.02-.53.15-.16,3.64-3.86,7.36-3.57.06,0,.12.02.17.05l.62.37c.18.11.23.34.13.51-.11.18-.34.23-.51.13l-.54-.33c-3.35-.19-6.64,3.31-6.67,3.34-.07.08-.17.12-.27.12Zm26.7-2.06c-.19,0-.35-.14-.37-.33-.02-.21.12-.39.33-.42.25-.03.56-.14.62-.26.03-.05-.02-.14-.04-.19-.07-.14-.15-.17-.2-.18-.23-.04-.58.18-.72.29-.16.13-.4.11-.53-.05-.13-.16-.11-.39.05-.53.07-.06.71-.58,1.34-.45.21.04.51.17.72.56.22.4.15.71.05.9-.28.53-1.05.64-1.2.66-.01,0-.03,0-.04,0Zm-10.78,0c-.21,0-.38-.17-.38-.38v-1.01c0-.12.06-.24.16-.31l3.76-2.61c.06-.04.14-.07.21-.07h1.35c.21,0,.38.17.38.38s-.17.38-.38.38h-1.23l-3.5,2.43v.81c0,.21-.17.38-.38.38Z"
  />
  <path
    d="m141.66,147.34c-1.21,0-4.11-2.17-6.07-5.7-1.88-3.39-.89-4.74-.17-5.73l.19-.26c.75-1.09,5.13-7.61,5.72-8.73.37-.7.67-.99.92-1.22.17-.16.28-.27.39-.5.09-.18.36-1.07.64-2.01,1.53-5.05,1.88-5.79,2.37-5.85.18-.05.86-.61,1.36-1.01,1.24-1.01,1.88-1.49,2.33-1.49h.02c.21,0,.37.18.36.39,0,.21-.17.37-.39.36-.27.03-1.26.84-1.86,1.32-.88.71-1.31,1.05-1.62,1.15-.38.5-1.37,3.76-1.85,5.35-.36,1.2-.58,1.89-.68,2.11-.17.36-.36.55-.55.73-.21.21-.46.44-.77,1.03-.64,1.21-5.16,7.92-5.77,8.8-.06.09-.13.18-.2.28-.67.92-1.43,1.95.22,4.92,1.95,3.51,4.68,5.32,5.42,5.32.53,0,1.83-2.71,2.35-4.91.4-1.68,3.62-7.03,4.41-8.06.82-1.07,2.87-1.93,4.02-1.93.86,0,3.46-1.7,3.69-2.1.22-.7,3.77-2.7,4.47-2.93.05-.02.08-.05.11-.1.15-.34-.1-1.17-.33-1.65-.09-.19,0-.41.18-.5.19-.09.41,0,.5.18.11.24.66,1.5.34,2.26-.11.25-.3.43-.56.52-.91.31-3.77,2.09-4.02,2.51-.2.65-3.25,2.56-4.38,2.56-.85,0-2.71.7-3.43,1.64-.75.97-3.91,6.22-4.28,7.78-.01.06-1.43,5.49-3.08,5.49Zm13.49-31.74c-.11,0-.22-.05-.3-.15-.13-.16-.1-.4.07-.53.2-.16.18-.49.17-.59-.03-.28-.16-.45-.2-.47-.7.54-2.3.43-2.49.42-.21-.02-.36-.2-.34-.4.02-.21.19-.37.4-.34.58.05,1.63.01,1.99-.26.36-.27.8-.19,1.09.2.37.49.49,1.53-.17,2.04-.07.05-.15.08-.23.08Z"
  />
  <path
    d="m141.64,127.46c-.09,0-.18-.03-.25-.1-1.24-1.15-5.31-4.98-5.48-6.04-.17-1.05,0-2.23,0-2.28.03-.21.22-.35.42-.32.21.03.35.22.32.42,0,.01-.15,1.13,0,2.06.1.55,2.8,3.34,5.24,5.6.15.14.16.38.02.53-.07.08-.17.12-.28.12Zm-4.82-9.93c-.16,0-.31-.1-.36-.27-.01-.04-.29-.99.18-1.75.27-.45.73-.73,1.36-.83.2-.03.4.1.43.3.04.2-.1.4-.31.43-.41.07-.69.23-.85.49-.29.47-.1,1.14-.1,1.14.06.2-.05.41-.25.47-.04.01-.07.02-.11.02Zm11.17-2.12c-.17,0-.33-.12-.36-.29-.11-.48-1.37-2-2.22-2.92l-1.21-1.05c-.97-.84-1.79-.05-1.82-.02-.15.15-.38.14-.53,0-.15-.15-.14-.38,0-.53.32-.32,1-.7,1.78-.56-.03-.49.08-1.04.14-1.34.02-.1.09-.19.18-.24.09-.05.2-.06.3-.03l1.55.52c.2.07.3.28.24.48-.07.2-.28.3-.48.24l-1.14-.39c-.07.45-.07.86,0,.97.05.05.08.12.09.19.06.04.12.09.18.15l1.24,1.08c.4.42,2.24,2.45,2.43,3.29.05.2-.08.4-.28.45-.03,0-.06,0-.08,0Zm-9.3-1.22c-.06,0-.12-.01-.18-.04-.18-.1-.25-.33-.15-.51.42-.78,1.22-2.06,1.96-1.9.2.04.33.24.29.44-.04.2-.25.33-.44.29-.18.05-.74.77-1.15,1.52-.07.13-.2.2-.33.2Zm11.16-.24c-.12,0-.23-.05-.3-.15-.83-1.13-2.07-2.78-2.3-3.01-.12-.08-.18-.23-.15-.38.04-.2.23-.33.44-.3.18.03.26.05,2.62,3.24.12.17.09.4-.08.52-.07.05-.15.07-.22.07Zm28.31-20.1s-.1,0-.15-.03c-.19-.08-.28-.29-.21-.48.19-.51.14-1.66.06-2.48l-.34.29c-.08.07-.19.1-.3.08-.11-.02-.2-.08-.26-.17-.55-.85-.85-2.56-1.02-4.32-.31,2.3-.66,3.55-1.03,3.73-.16.07-.34.06-.48-.05-.53-.37-1.05-.9-1.35-1.23l-.81.8c-.09.09-.21.13-.33.1-.12-.02-.22-.1-.27-.22-.46-1.04,0-4.53.35-6.77-.81,1.83-1.68,4.78-2.21,6.87-.04.15-.16.25-.3.28-.15.02-.3-.04-.38-.17-1.31-2.05-.06-7.87,0-8.11.04-.2.24-.33.45-.29.2.04.33.24.29.45-.28,1.3-.8,4.52-.46,6.47.6-2.22,1.93-6.67,3.08-7.62.12-.1.29-.11.43-.03.14.08.21.24.18.39-.43,2.3-.96,6.03-.84,7.63l.6-.59c.07-.07.18-.11.28-.11.1,0,.2.05.27.13,0,0,.61.72,1.25,1.23.38-.99.85-4.94,1.11-8.55.02-.2.2-.35.39-.35.2,0,.36.18.36.38,0,.07-.13,6.75.91,9.14l.52-.44c.1-.09.25-.11.38-.06.13.05.22.16.24.3.02.11.08.6.12,1.21.65-1.8,1.39-4.39.99-6.12-.05-.2.08-.4.28-.45.2-.05.4.08.45.28.73,3.12-1.77,8.42-1.88,8.65-.06.13-.2.21-.34.21Zm-16.41-4.06s-.02,0-.03,0c-.2-.01-.35-.18-.35-.37,0-.11.02-.21.04-.32.1-.66.38-2.46.66-4.08.97-5.58,9.26-8.7,9.61-8.83.19-.07.41.03.48.22.07.19-.03.41-.22.48-.08.03-8.24,3.09-9.13,8.25-.16.94-.32,1.95-.45,2.76.52-.39,1.11-.68,1.45-.83.49-2.73,5.81-7.23,6.04-7.43.16-.13.4-.11.53.04.13.16.11.4-.04.53-1.56,1.32-5.65,5.17-5.81,7.15-.01.14-.1.26-.23.32-.82.34-1.95,1.02-2.15,1.58-.02.14-.03.22-.03.22-.03.18-.19.32-.37.32Z"
  />
  <path
    d="m174.18,126.47c-.23,0-.66,0-1.13-2.34-.05,1.01.02,1.92.02,1.93.01.13-.05.26-.15.34-.11.08-.25.09-.37.04-1.95-.85-2.41-2.96-2.52-3.94-.52.28-1.03.86-1.22,1.11-.09.12-.25.18-.4.13s-.26-.17-.27-.33c-.16-1.81,1.09-3.94,1.14-4.03.11-.18.33-.24.51-.13.18.1.24.33.13.51,0,.02-.75,1.29-.98,2.61.38-.34.86-.67,1.37-.76.11-.02.22.01.3.08.08.07.13.18.13.29,0,.03.03,2.33,1.55,3.45-.03-.93,0-2.57.45-3.6.07-.15.23-.24.4-.22.17.02.3.16.32.32.17,1.31.46,2.8.7,3.49.71-1.06,2.62-3.43,5.46-3.34h.46c2.91.08,5.91.14,6.5-.19.08-.05.17-.1.25-.16-.7.14-1.42.19-1.77-.06-.17-.12-.21-.36-.08-.52.12-.17.36-.2.52-.08.23.14,1.41-.06,2.54-.44.16-.05.33,0,.43.14.09.14.09.32-.02.45-.03.04-.75.9-1.51,1.33-.73.41-2.98.38-6.88.29h-.46s-.06-.01-.09-.01c-3.09,0-4.99,3.42-5,3.45-.07.12-.19.2-.33.2Zm-1.08-10.48c-.08,0-.16-.03-.23-.08-.16-.13-.19-.36-.07-.53.47-.62,1.28-1.48,2.22-2.47,1.62-1.72,3.64-3.87,4.3-5.23.88-1.84,2.34-6.9,2.18-14.19-.1-4.53-1.86-8.82-3.01-11.14.34,2.73.73,7.03-.01,8.01-.13.16-.36.19-.53.07-.17-.13-.2-.36-.07-.53.59-.78.11-6.02-.41-9.5-.03-.18.07-.35.24-.41.17-.06.35,0,.45.15.16.26,3.94,6.39,4.09,13.32.16,7.43-1.34,12.63-2.25,14.53-.7,1.47-2.68,3.57-4.43,5.42-.88.94-1.72,1.83-2.17,2.41-.07.1-.19.15-.3.15Zm-13.51-7.46c-.19,0-.36-.15-.37-.34-.02-.2-.09-.54-.19-.96-.32-1.43-.92-4.11-.74-7.93.24-4.98,2.97-11.42,3.09-11.7.08-.19.3-.28.49-.2.19.08.28.3.2.49-.03.07-2.8,6.6-3.03,11.44-.18,3.72.41,6.33.73,7.73.11.48.18.82.2,1.07.02.21-.14.39-.34.4-.01,0-.02,0-.03,0Z"
  />
  <path
    d="m193.42,128.87c-.42,0-2-.07-3.04-1.03-.15-.14-.16-.38-.02-.53.14-.15.38-.16.53-.02.32.29.71.49,1.1.61-.43-.33-.89-.71-1.23-1.08-.95-1.04-3.43-7.99-2.23-10.21.99-1.85,1.66-5.25,2.31-8.55l.13-.66c.7-3.52.03-10.37-.63-15.95-.56-4.73-1.95-9.09-4.15-12.98-.66-1.16-2.53-2.73-7.71-3.59l-.22-.04c-.45-.1-2.94,1.33-4.96,2.66-.17.11-.41.07-.52-.11-.11-.17-.07-.41.11-.52,1.05-.69,4.53-2.96,5.5-2.77l.22.04c4.4.73,7.17,2.06,8.24,3.96,2.24,3.97,3.67,8.43,4.24,13.26.67,5.63,1.34,12.57.62,16.19l-.13.66c-.66,3.35-1.35,6.82-2.39,8.76-1.01,1.88,1.35,8.52,2.12,9.35.81.88,2.39,1.86,2.4,1.87.14.09.21.25.17.41-.04.16-.18.27-.35.28,0,0-.05,0-.11,0Zm-28.97-13.67c-.11,0-.23-.05-.3-.15l-.67-.89c-.05-.07-.08-.14-.08-.23,0-1.38-.38-4.61-.38-4.64-.02-.14.05-.28.16-.36.12-.08.27-.09.39-.02.03.01,2.72,1.51,4.94,1.58,2.24.07,8.84-2.06,11.55-5.06.14-.15.38-.16.53-.03.15.14.17.38.03.53-2.79,3.09-9.53,5.3-12.01,5.3-.04,0-.08,0-.12,0-1.75-.06-3.68-.88-4.65-1.35.11,1,.29,2.84.31,3.91l.6.79c.12.17.09.4-.07.53-.07.05-.15.08-.23.08Zm-2.74-7.51c-.1,0-.2-.04-.27-.12-1.41-1.52-2.77-5.79-2.83-5.97-.06-.2.05-.41.24-.47.2-.06.41.05.47.24.01.04,1.37,4.29,2.67,5.69.14.15.13.39-.02.53-.07.07-.16.1-.25.1Z"
  />
  <path
    d="m136.82,119.47s-.09,0-.14-.03l-10.94-4.58c-.37-.1-1.11-.53-.92-1.36.09-.41.29-.68.57-.8.31-.14.7-.08,1.14.18,1.19.68,5.28,2.8,5.91,2.8h0c.22-.02.32-.07.35-.09,0-.11.05-.21.14-.28.11-.09.25-.11.38-.05l3.65,1.55c.07.03.13.08.17.14.07.11.69,1.1.45,1.85-.09.28-.29.49-.57.62-.06.04-.13.06-.2.06Zm-11.07-6.09s-.04,0-.06,0c-.04.02-.1.1-.14.28-.08.34.41.48.43.49l10.82,4.52s.07-.08.08-.12c.09-.27-.11-.78-.31-1.12l-3.2-1.36c-.18.19-.46.3-.85.33-.99.08-6.29-2.86-6.35-2.89-.2-.11-.33-.15-.42-.15Zm7.06,2.29h0s0,0,0,0Zm5.89.32c-.09,0-.18-.03-.25-.09l-9.01-7.99s-.04-.04-.06-.07c-.66-.98-.83-1.65-.51-1.99.36-.38,1.03-.07,1.63.29l8.44,7.41c.08.07.13.17.13.28v1.79c0,.15-.09.28-.22.34-.05.02-.1.03-.15.03Zm-8.72-8.62l8.35,7.41v-.78l-8.26-7.26c-.27-.15-.45-.23-.56-.28.08.23.27.59.48.91Zm26.5,7.52c-.05,0-.1,0-.15-.03-.19-.08-.28-.3-.19-.49l.55-1.24c.53-1.23.46-3.31-.16-4.83-.54-1.33-.39-4.1-.2-7.61.06-1.2.13-2.47.18-3.75.16-4.8,3.99-13.19,5.63-16.57,1.4-2.88,7.52-6.61,10.91-7.19,3.44-.59,4.15,1.08,4.18,1.15.08.19-.02.41-.21.49-.19.08-.4-.01-.48-.2-.02-.03-.6-1.17-3.36-.7-3.19.55-9.08,4.15-10.36,6.78-1.62,3.34-5.4,11.61-5.56,16.27-.04,1.29-.11,2.56-.18,3.77-.18,3.28-.33,6.12.15,7.29.7,1.72.77,4,.16,5.42l-.55,1.24c-.06.14-.2.22-.34.22Zm-9.48-.93s-.03,0-.04,0c-.21-.02-.35-.21-.33-.42l1.7-15.05-.47-.69c-.05-.07-.07-.15-.06-.24l.05-.68h-.03l-.12,1.1c0,.06-.03.12-.06.17l-.25.37-1.31,13.46c-.02.21-.21.36-.41.34-.21-.02-.36-.2-.34-.41l1.32-13.56c0-.06.03-.12.06-.18l.26-.37.15-1.34c.02-.19.18-.33.37-.33h.77c.1,0,.2.04.27.12.07.08.11.18.1.28l-.07.95.47.69c.05.07.07.16.06.25l-1.71,15.19c-.02.19-.18.33-.37.33Zm-5.73-.88c-.11,0-.24-.02-.37-.06-.12-.04-.22-.14-.25-.26,0,0,0-.02,0-.03l-6.25-12.79c-.1-.25-.38-1.04-.17-1.52.08-.17.2-.3.37-.36.58-.22,1.05.2,1.53.91.04-.02.09-.03.13-.04.1,0,1.03-.07,1.59.4.48.4,1.81,3.57,2.35,4.92.06.14.03.29-.07.4l-.62.66s-.03.03-.05.05c1.42,2.85,2.87,5.76,2.98,5.98.03.06.04.12.04.19,0,.1-.07.99-.63,1.39-.13.09-.32.18-.57.18Zm-6.38-14.33s-.02,0-.03,0c0,.07.07.53.21.88l6.2,12.7c.08,0,.12-.03.14-.04.18-.13.27-.5.3-.72-.51-1.04-5.04-10.15-5.69-11.3-.69-1.23-1-1.52-1.13-1.52Zm1.66.93c.04.07.08.15.13.23.29.52,1.31,2.54,2.42,4.74l.32-.34c-.82-2.01-1.79-4.15-2.05-4.41-.2-.16-.55-.21-.81-.22Z"
  />
  <path
    d="m154.4,119.05c-.26,0-.52-.04-.79-.15-.1-.04-.18-.12-.21-.23-.03-.1-.02-.22.03-.31l1.48-2.5,8.18-10.56c.11-.14.31-.19.47-.1l1.63.83c.1.05.17.14.19.25.02.11,0,.22-.07.31l-8.54,11.33c-.08.09-1.14,1.13-2.38,1.13Zm-.06-.75c.97.05,1.86-.86,1.87-.87l8.24-10.93-.95-.49-7.96,10.27-1.19,2.02Zm-4.47-1.31s-.02,0-.03,0c-.21-.02-.36-.2-.34-.41l1.08-12.23c.02-.19.18-.34.37-.34h1.48c.1,0,.2.04.27.12s.11.18.1.28l-.7,11.66c-.01.21-.19.39-.4.35-.21-.01-.36-.19-.35-.4l.67-11.26h-.74l-1.05,11.89c-.02.2-.18.34-.37.34Zm-16.69-1.01s-.09,0-.13-.02c-.19-.07-.29-.29-.22-.48l.11-.29c-1.92-.89-5.18-2.39-5.64-2.56-.18-.06-.48.39-.61.72-.08.19-.3.29-.49.21-.19-.08-.28-.29-.21-.49.28-.69.86-1.41,1.57-1.14.63.24,5.79,2.63,6.01,2.73.18.08.26.29.19.47l-.24.62c-.06.15-.2.24-.35.24Zm45.65-21.11c-.09,0-.17-.03-.24-.09,0,0-1-.84-2.64-1.66-1.45-.72-2.56.28-2.6.32-.15.14-.39.13-.53-.02-.14-.15-.13-.39.02-.53.06-.06,1.53-1.41,3.45-.45,1.73.87,2.75,1.72,2.79,1.76.16.13.18.37.04.53-.07.09-.18.13-.29.13Zm-11.27-2.49c-.17,0-.32-.11-.36-.28-.2-.77-.71-1.31-1.75-1.86-.8-.42-2.3.35-2.81.68-.17.11-.41.06-.52-.11s-.06-.41.11-.52c.23-.15,2.24-1.42,3.57-.71,1.23.66,1.87,1.35,2.12,2.33.05.2-.07.41-.27.46-.03,0-.06.01-.1.01Z"
  />
  <path
    d="m171.79,104.36c-.48,0-1.27-.22-2.56-.6-.68-.2-1.39-.41-1.69-.44-.88-.08-3.26-1.08-3.53-1.19-.19-.08-.28-.3-.2-.49.08-.19.3-.28.49-.2.7.3,2.65,1.08,3.3,1.14.38.03,1.05.24,1.84.47.8.24,2.14.63,2.42.56.19-.08.4,0,.49.2.08.19-.01.41-.2.5-.09.04-.21.06-.36.06Zm-1.11-4.68c-.08,0-.15-.02-.22-.07-.29-.21-.55-.3-.75-.27-.18.03-.26.16-.27.17-.11.17-.34.22-.52.11-.17-.11-.23-.33-.12-.51.02-.04.26-.4.74-.5.41-.09.87.05,1.35.39.17.12.21.36.08.52-.07.1-.19.16-.3.16Zm-3.1-.01c-.18,0-.34-.13-.37-.32-.07-.44-.19-.57-.23-.58-.04-.02-.17.04-.24.11-.15.13-.39.12-.53-.03-.14-.15-.13-.39.03-.53.05-.04.5-.43.99-.26.38.13.62.53.72,1.17.03.2-.11.4-.31.43-.02,0-.04,0-.06,0Zm8.52-5.1c-.07,0-.14,0-.22-.02-1.01-.21-1.2-1.84-1.22-2.02-.02-.21.13-.39.34-.41.21-.01.39.13.41.34.05.51.28,1.29.62,1.36.09.02.14,0,.17-.03.17-.12.26-.49.28-.65.02-.21.21-.35.41-.33.21.02.35.21.33.41,0,.08-.1.83-.58,1.18-.16.12-.35.18-.55.18Zm-10.11-2.42c-.14,0-.31-.03-.49-.1-.42-.16-.58-.45-.64-.66-.21-.71.4-1.6.47-1.7.12-.17.35-.21.52-.09.17.12.21.35.09.52-.2.28-.44.79-.36,1.05,0,.03.03.11.19.17.24.09.35.03.39,0,.23-.13.34-.52.36-.62.04-.2.24-.33.44-.3.2.04.34.24.3.44-.02.08-.17.82-.74,1.13-.13.07-.3.13-.53.13Zm13.16-.94c-.11,0-.22-.05-.29-.14-.98-1.21-4.48-1.32-5.75-1.25-.23,0-.38-.15-.39-.36-.01-.21.15-.38.36-.39.2,0,4.95-.22,6.37,1.53.13.16.11.4-.06.53-.07.06-.15.08-.24.08Zm-10.01-1.78c-.11,0-.22-.05-.3-.15-.08-.11-2.05-2.62-5.31-1.35-.19.08-.41-.02-.49-.21-.08-.19.02-.41.21-.49,3.79-1.47,6.16,1.57,6.18,1.6.12.17.09.4-.07.52-.07.05-.15.08-.23.08Z"
  />
  <path
    d="m144.36,206.42s-.06,0-.09-.01l-1.09-.27c-.06-.02-.12-.05-.17-.09-2.25-2.11-3-8.77-3.03-9.05-.02-.21.13-.39.33-.41.2-.01.39.13.41.33,0,.07.73,6.51,2.73,8.52l.4.1c-.61-2.73-1.69-7.85-1.34-8.59.09-.19.31-.27.5-.18.19.09.27.31.18.5-.16.53.65,4.84,1.53,8.69.03.13-.01.26-.1.35-.07.07-.17.11-.26.11Zm41.86-84.61c-.14,0-.28-.08-.34-.22-.06-.14-.55-1.52,1.23-6.65,1.72-4.94,2-15.51.68-25.14-1.28-9.28-8.77-14.43-8.85-14.48-.17-.12-.22-.35-.1-.52.12-.17.35-.22.52-.1.08.05,7.85,5.38,9.17,15,1.36,9.89,1.07,20.37-.71,25.49-1.67,4.8-1.25,6.1-1.25,6.12.07.19-.03.41-.21.48-.05.02-.09.03-.14.03Zm-25.87-3.74c-.1,0-.2-.04-.27-.11-.14-.15-.14-.39,0-.53,1.6-1.55,2.29-7.17,2.3-7.22.02-.21.21-.35.42-.33.21.02.35.21.33.42-.03.24-.73,5.94-2.52,7.67-.07.07-.17.11-.26.11Zm15.62-24.21s-.06,0-.08,0c-.2-.04-.33-.25-.28-.45l.16-.71c.05-.2.25-.33.45-.28.2.04.33.25.28.45l-.16.71c-.04.17-.19.29-.37.29Zm-10.03-2.18s-.08,0-.11-.02c-.2-.06-.31-.27-.24-.47l.32-1.02c.06-.2.27-.31.47-.24.2.06.31.27.24.47l-.32,1.02c-.05.16-.2.26-.36.26Zm1.64-1.56c-.13,0-.26-.07-.33-.19-1.61-2.82,3.64-12.46,4.25-13.55.1-.18.33-.25.51-.15.18.1.25.33.15.51-.88,1.58-2.45,4.7-3.48,7.52.1-.1.21-.18.32-.22.19-.07.41.02.48.22.07.19-.02.41-.22.49-.42.16-1.04,2.52-1.31,5.04-.02.16-.14.29-.3.33-.03,0-.05,0-.08,0Zm5.51-1.07c-.15,0-.28-.08-.34-.23-.56-1.29,1.08-8.44,1.41-9.86.05-.2.25-.33.45-.28.2.05.33.25.28.45-.75,3.2-1.81,8.57-1.45,9.39.08.19,0,.41-.2.49-.05.02-.1.03-.15.03Z"
  />
  <path
    d="m186.49,103.87s-.02,0-.04,0c-.21-.02-.36-.2-.34-.41.92-9.54-1.7-22.33-1.73-22.46-.04-.2.09-.4.29-.44.21-.04.4.09.44.29.03.13,2.67,13.04,1.74,22.69-.02.19-.18.34-.37.34Z"
  />
  <path
    d="m185.74,122.6c-.8,0-2.51-.18-4.09-1.51-2.16-1.81.34-8.27.63-9,1.05-1.71,3.96-15.75,2.25-23.89-.79-3.75-2.59-6.18-4.26-7.71,2.12,2.65,4.41,7.27,3.95,14.64-.97,15.5-5.3,20.62-7.12,22.1-2.67,2.17-3.35,3.8-3.64,4.84-.06.2-.26.32-.46.26-.2-.05-.32-.26-.26-.46.31-1.13,1.06-2.91,3.89-5.22,1.36-1.11,5.87-5.94,6.85-21.57.79-12.63-6.71-16.84-6.79-16.88-.17-.09-.24-.3-.17-.48.08-.18.28-.27.46-.21.07.02,6.55,2.26,8.28,10.53,1.71,8.12-1.04,22.31-2.32,24.38-.71,1.79-2.29,6.84-.82,8.08,1.85,1.56,3.95,1.32,3.97,1.32.21-.02.39.12.42.33s-.12.39-.32.42c-.02,0-.19.02-.45.02Z"
  />
  <path
    d="m176.69,123.73s-.02,0-.03,0c-.21-.02-.36-.2-.34-.41.16-1.94,2.2-5.2,4.35-8.64,1.28-2.05,2.61-4.17,3.56-6.06,2.49-4.92,3.97-15.09,3.99-15.19.03-.21.22-.35.42-.32.21.03.35.22.32.42-.06.42-1.51,10.4-4.06,15.42-.97,1.92-2.31,4.05-3.6,6.12-2.11,3.37-4.09,6.55-4.24,8.31-.02.2-.18.34-.37.34Z"
  />
  <path
    d="m145.29,299.27c-.18,0-.34-.13-.37-.31-.04-.2.1-.4.3-.44.32-.06,3.16-.55,4.25.04.18.1.25.33.15.51s-.33.25-.51.15c-.65-.35-2.65-.16-3.76.04-.02,0-.05,0-.07,0Zm33.93-4c-1.93,0-3.86-.34-3.98-.36-.2-.04-.34-.23-.3-.44.04-.2.23-.34.44-.3.04,0,4.39.78,6.37.02.2-.07.41.02.48.22.07.19-.02.41-.22.48-.75.29-1.77.38-2.79.38Zm-28.07-2.42c-2.4,0-4.43-.55-4.55-.58-.2-.05-.32-.26-.26-.46s.26-.32.46-.26c.04.01,4.54,1.22,7.93,0,.2-.07.41.03.48.23s-.03.41-.23.48c-1.23.44-2.58.59-3.83.59Zm26.83-1.97c-1.52,0-2.59-.14-2.72-.16-.21-.03-.35-.22-.32-.42.03-.21.22-.36.42-.32.09.01,9.15,1.18,12.79-3.58.13-.17.36-.2.53-.07.16.13.2.36.07.53-2.63,3.44-7.64,4.02-10.77,4.02Zm-24.84-1.01c-.05,0-.1,0-.15,0-.21-.01-.37-.19-.35-.39.01-.21.19-.39.4-.35,1.84.07,6.42-2.2,6.47-2.22.19-.09.41-.02.5.17s.02.41-.17.5c-.19.1-4.58,2.3-6.7,2.3Zm33.01-168.73s-.08,0-.12-.02c-1.21-.41-1.26-1.23-1.31-2.03-.04-.57-.07-1.15-.46-1.79-1.05-1.74,1.91-13.92,2.51-16.34.05-.2.25-.32.45-.27.2.05.32.25.27.46-1.37,5.5-3.29,14.64-2.6,15.77.49.8.53,1.54.57,2.14.05.74.07,1.12.8,1.36.2.07.3.28.24.47-.05.16-.2.26-.36.26Zm-28.59-3.07c-.15,0-.28-.08-.34-.23-.08-.18,0-.38.15-.47.54-.4,4.57-4.36,4.57-6.47,0-.21.17-.38.38-.38s.38.17.38.38c0,2.64-4.76,7.04-4.98,7.14-.05.02-.1.03-.15.03Zm1.07-7.19c-.16,0-.31-.1-.36-.26-.27-.85-.06-7.78-.02-9.16,0-.21.17-.37.39-.36.21,0,.37.18.36.39-.1,3.14-.2,8.34-.02,8.9.06.2-.04.41-.24.47-.04.01-.08.02-.11.02Zm25.76-30.15c-.1,0-.19-.04-.27-.11-4.21-4.23-10.89-3.08-10.96-3.07-.21.04-.4-.1-.44-.3-.04-.2.1-.4.3-.44.29-.05,7.14-1.22,11.62,3.28.15.15.15.38,0,.53-.07.07-.17.11-.26.11Z"
  />
</svg>
