<svg xmlns="http://www.w3.org/2000/svg" viewBox="0 0 320 320">
  <path
    d="M164.23 151.49c-.15 0-.29-.09-.35-.24-1.78-4.27-3.8-9.11-3.97-14.1-.01-.32-.01-.65-.02-.98 0-.64-.01-1.31-.08-1.94a9.444 9.444 0 0 0-2.54-5.44.38.38 0 0 1 .01-.54c.15-.15.4-.14.54.01 1.53 1.6 2.5 3.69 2.75 5.89.08.68.08 1.36.09 2.02 0 .32 0 .64.02.96.16 4.85 2.07 9.42 3.91 13.83.08.2-.01.42-.21.5-.05.02-.1.03-.15.03Z"
  />
  <path
    d="M165.02 152.74a.36.36 0 0 1-.2-.06c-1.03-.63-1.35-1.9-1.31-2.89.03-.76.23-1.49.43-2.19.07-.24.14-.49.2-.73 1.1-4.43-.31-9.29-1.45-13.19-.06-.2.06-.42.26-.48s.42.06.48.26c1.16 3.99 2.61 8.96 1.46 13.59-.06.25-.13.5-.2.75-.19.69-.38 1.34-.4 2.02-.03.76.2 1.74.95 2.2.18.11.24.35.13.53-.07.12-.2.18-.33.18ZM167.19 153.04c-.14 0-.28-.08-.35-.22-.47-.98-.16-2.06.12-3.02l.09-.33c1.03-3.64.22-7.71-.42-10.97-.04-.21.1-.41.3-.45.21-.04.41.1.45.3.66 3.35 1.48 7.51.4 11.33l-.1.33c-.25.86-.51 1.75-.17 2.47.09.19.01.42-.18.51-.05.03-.11.04-.17.04Z"
  />
  <path
    d="M166.54 153.06c-.41 0-.81-.26-1.03-.67-.18-.34-.23-.71-.26-1.01l-.3-2.56c-.03-.21.13-.4.34-.43.21-.03.4.13.43.34l.3 2.56c.03.26.06.53.17.74.09.16.26.27.36.27.25 0 .39.15.41.36.01.21-.15.39-.36.41h-.05ZM172.95 150.18a.36.36 0 0 1-.22-.07c-1.6-1.12-2.83-2.96-3.77-5.61-.28-.79-.52-1.59-.76-2.4-.38-1.29-.78-2.62-1.34-3.86a.385.385 0 1 1 .7-.32c.58 1.28.99 2.64 1.38 3.96.24.79.47 1.58.74 2.36.88 2.5 2.02 4.21 3.49 5.24.17.12.22.36.09.54a.37.37 0 0 1-.31.16Z"
  />
  <path
    d="M171.42 152.33c-.06 0-.11-.01-.17-.04a.384.384 0 0 1-.18-.51c.95-1.96 1.34-4.28 1.12-6.7-.19-2.14-.86-4.37-1.98-6.61a.394.394 0 0 1 .17-.52c.19-.09.42-.02.52.17 1.16 2.33 1.85 4.65 2.05 6.89.23 2.56-.18 5.01-1.19 7.1-.07.14-.2.22-.35.22Z"
  />
  <path
    d="M172.92 150.01a.36.36 0 0 1-.32-.18.386.386 0 0 1 .12-.53c1.16-.74 1.96-2.13 2.19-3.81.21-1.56-.05-3.19-.34-4.72-.3-1.55-.59-2.83-1.04-4.09a15.624 15.624 0 0 0-5.33-7.16.385.385 0 0 1-.08-.54c.13-.17.37-.21.54-.08a16.38 16.38 0 0 1 5.6 7.51c.47 1.3.77 2.62 1.07 4.2.3 1.59.58 3.29.35 4.96-.26 1.91-1.19 3.5-2.54 4.36a.37.37 0 0 1-.21.06Z"
  />
  <path
    d="M174.6 147.65c-.06 0-.13-.02-.19-.05a.381.381 0 0 1-.15-.52c1.45-2.59 2.12-5.19 1.92-7.52-.09-1.14-.39-2.28-.69-3.34-.27-.98-.54-1.86-1.03-2.62-.32-.49-.72-.91-1.14-1.36-.19-.2-.38-.41-.57-.62a12.22 12.22 0 0 1-1.81-2.73c-.12-.24-.23-.49-.34-.74-.3-.67-.58-1.31-1.01-1.84-.53-.66-1.29-1.14-1.9-1.48-.68-.39-1.39-.73-2.11-1.02-1.89-.77-3.42-.93-4.67-.5a4.003 4.003 0 0 0-2.43 2.38c-.07.2-.29.3-.5.23-.2-.07-.3-.3-.23-.5a4.778 4.778 0 0 1 2.9-2.83c1.44-.5 3.14-.33 5.21.51.75.31 1.49.66 2.2 1.07.66.38 1.5.91 2.12 1.67.49.61.81 1.32 1.11 2.01.11.24.21.48.33.72.45.92 1.02 1.78 1.7 2.55.18.2.36.4.55.6.43.46.87.93 1.23 1.47.55.85.85 1.82 1.13 2.83.31 1.1.62 2.28.72 3.49.2 2.48-.49 5.24-2.02 7.96-.07.13-.2.2-.34.2ZM143.88 143.65c-.05 0-.11-.01-.16-.03-.19-.09-.28-.31-.19-.51 1.58-3.52 3.37-7 5.31-10.34.81-1.39 1.73-2.8 3.23-3.4.52-.21 1.08-.31 1.62-.4.77-.13 1.5-.25 2.04-.7.16-.14.41-.12.54.05.14.16.11.41-.05.54-.7.58-1.56.73-2.4.87-.52.09-1.01.17-1.46.35-1.28.51-2.11 1.8-2.85 3.07a110.52 110.52 0 0 0-5.28 10.27c-.06.14-.2.23-.35.23Z"
  />
  <path
    d="M142.56 142.5h-.03a.39.39 0 0 1-.35-.42c.27-3.07.65-6.34 1.68-9.47 1.12-3.4 2.91-6.21 5.18-8.13 1.45-1.23 2.92-1.92 4.36-2.07 1.8-.17 3.58.6 4.43 1.96.11.18.06.42-.12.53-.18.11-.42.06-.53-.12-.69-1.11-2.18-1.75-3.7-1.6-1.29.13-2.62.77-3.94 1.89-2.16 1.83-3.87 4.52-4.95 7.79-1.01 3.06-1.39 6.28-1.65 9.3-.02.2-.19.35-.38.35Z"
  />
  <path
    d="M147.29 136.89c-.07 0-.13-.02-.2-.05a.386.386 0 0 1-.13-.53c.15-.26.35-.47.54-.67 1.76-1.85 3.94-3.35 6.31-4.32.2-.08.42.01.5.21.08.2-.01.42-.21.5-2.27.93-4.36 2.36-6.04 4.14a2.7 2.7 0 0 0-.43.53c-.07.12-.2.19-.33.19Z"
  />
  <path
    d="M147.36 148.06h-.05a.387.387 0 0 1-.33-.44c.09-.64.24-1.27.38-1.88.24-1.01.46-1.97.45-2.96 0-.41-.05-.81-.1-1.22-.04-.34-.08-.69-.1-1.03-.11-2.21.73-4.48 2.25-6.09a.38.38 0 0 1 .54-.01c.15.15.16.39.01.54-1.38 1.45-2.14 3.51-2.04 5.52.02.33.06.66.09.99.05.42.1.86.11 1.3.02 1.08-.23 2.13-.47 3.15-.14.59-.28 1.21-.37 1.81-.03.19-.19.33-.38.33ZM145.95 149.76s-.07 0-.1-.01a.402.402 0 0 1-.27-.48c.26-.94.25-2.01-.03-3.21-.26-1.09-.71-2.15-1.14-3.17-.08-.2 0-.42.2-.5.2-.08.42 0 .5.2.45 1.05.91 2.14 1.18 3.3.31 1.32.32 2.53.02 3.6-.05.17-.2.28-.37.28Z"
  />
  <path
    d="M149.58 150.37c-.21 0-.38-.16-.38-.37-.06-1.76-.5-3.53-1.28-5.11a.394.394 0 0 1 .17-.52c.19-.09.42-.02.52.17.83 1.68 1.3 3.56 1.36 5.43 0 .21-.16.39-.37.4h-.01ZM154.06 132.34c-.25 0-.49-.11-.66-.29a.686.686 0 0 1-.17-.62c.04-.21.25-.34.46-.29.21.04.34.24.3.45 0-.03.05-.01.08-.01.13-.01.28-.14.45-.29l1.9-1.72c.16-.14.4-.13.54.03s.13.4-.03.54l-1.91 1.72c-.2.18-.49.44-.88.48h-.09ZM159.86 131.98s-.09 0-.13-.02a8.14 8.14 0 0 0-3.2-.47c-.19.04-.39-.15-.4-.36s.15-.39.36-.4c1.18-.07 2.39.12 3.51.52a.382.382 0 0 1-.13.74ZM165.27 137.24c-.18 0-.34-.12-.38-.3a46.55 46.55 0 0 0-2.15-7.08c-.22-.57-.45-1.11-.81-1.57-.79-1.02-2.11-1.46-3.61-1.9a.387.387 0 0 1-.26-.48c.06-.2.28-.32.48-.26 1.26.37 2.99.88 4 2.17.42.53.68 1.16.92 1.76.92 2.33 1.66 4.75 2.19 7.19.05.21-.09.41-.29.46h-.08ZM144.2 137.47s-.1 0-.15-.03a.382.382 0 0 1-.21-.5c1.47-3.58 3.5-6.88 6.05-9.81.62-.72 1.37-1.52 2.36-1.95 1.65-.71 3.76-.14 4.82 1.31a.387.387 0 1 1-.63.45c-.85-1.17-2.56-1.64-3.89-1.06-.84.37-1.52 1.09-2.09 1.75a34.568 34.568 0 0 0-5.92 9.6.38.38 0 0 1-.36.24ZM167.91 148.16c-.16 0-.31-.1-.36-.26-.07-.2.04-.42.24-.49.39-.13.77-.29 1.13-.47.02 0 .08-.04.1-.05 0-.02.03-.1.04-.14l.27-1.3a.39.39 0 0 1 .76.16l-.27 1.3c-.03.14-.07.33-.21.49-.1.12-.23.18-.33.24-.39.19-.81.36-1.22.51-.04.01-.08.02-.12.02ZM157.82 141.86c-.13 0-.25-.06-.32-.17-.13-.23-.12-.46.03-.9.06-.19.25-.29.44-.25.19.04.32.22.3.41l-.05.54c-.02.17-.14.33-.31.37-.03 0-.07.01-.1.01Z"
  />
  <path
    d="M157.2 141.73a.4.4 0 0 1-.34-.2l-.2-.37s-.09.04-.15.04a.428.428 0 0 1-.46-.34v-.04c-.09-.2-.14-.42-.13-.63 0-.07.01-.25.16-.39.09-.08.28-.14.41-.12.26.05.41.28.45.36l.08.16s.04 0 .05-.01c.11-.03.23 0 .32.07s.15.18.15.29l.04.79a.4.4 0 0 1-.28.39c-.03.01-.07.01-.1.01Z"
  />
  <path
    d="M155.67 141.1c-.09 0-.18-.03-.25-.09-.02-.01-.03-.03-.04-.04l-.06.03a.388.388 0 0 1-.49-.21c-.08-.18-.15-.35-.24-.52-.04.05-.09.09-.15.12a.39.39 0 0 1-.46-.12c-.08-.1-.16-.21-.25-.32l-.02.02c-.1.1-.25.13-.38.08a1.32 1.32 0 0 0-.39-.06l-.06.09a.38.38 0 0 1-.54 0 .527.527 0 0 1-.11-.48c.09-.23.33-.36.52-.37h.2v-.05c-.05-.15 0-.3.13-.39.12-.09.28-.11.41-.04.12.06.22.13.33.21a.7.7 0 0 1 .26-.23c.14-.05.29-.04.42.03.16.08.24.22.29.29.06 0 .12.01.18.04.14.07.25.15.34.26.18-.05.38.04.46.21.16.36.26.75.29 1.14a.378.378 0 0 1-.38.41ZM149.97 142.62c-.07 0-.15-.02-.22-.07-.56-.38-1.16-.71-1.78-.97a.382.382 0 0 1-.21-.5c.08-.2.31-.29.5-.21.67.28 1.31.63 1.91 1.04.18.12.22.36.1.53-.07.11-.2.17-.32.17ZM150.43 144.07h-.02c-.74-.05-1.46-.28-2.1-.67a.377.377 0 0 1-.12-.53c.11-.18.35-.23.53-.12.52.32 1.12.52 1.74.56.21.01.37.2.36.41-.01.2-.18.36-.38.36Z"
  />
  <path
    d="M155.68 147.28c-1.29 0-2.58-.17-3.82-.52-.13-.03-.34-.09-.51-.25-.17-.16-.25-.37-.29-.5-.06-.17-.11-.33-.17-.5-.27-.81-.52-1.58-1.12-1.94a.387.387 0 0 1-.18-.38l.38.05-.38-.06c.04-.3.1-.75.66-1.02.03-.02.07-.03.11-.04.46-.08.93-.1 1.38-.12.28-.01.57-.02.85-.05l.39-.04c.77-.09 1.58-.04 2.26.08l2.39.41c.45.08 1.82.31 2.07 1.38.11.47-.06.94-.18 1.27l-.38 1.05c-.08.21-.19.53-.47.74-.21.16-.45.21-.67.25-.76.13-1.53.19-2.3.19Zm-5.28-4.21c.67.53.95 1.38 1.22 2.21.05.16.11.32.16.48.02.06.06.16.09.19s.14.06.19.07c1.87.52 3.88.63 5.79.31.14-.02.26-.05.33-.1.09-.07.16-.25.21-.39l.38-1.05c.12-.33.21-.6.15-.84-.09-.39-.56-.65-1.45-.8l-2.39-.41c-.67-.12-1.36-.15-2.03-.07l-.4.04c-.29.03-.59.04-.89.05-.42.02-.82.04-1.22.1-.08.05-.12.1-.15.19Z"
  />
  <path
    d="M161.22 144.22h-.06l-1.68-.24a.392.392 0 0 1-.33-.44c.03-.21.23-.36.44-.33l1.68.24c.21.03.36.23.33.44-.03.19-.19.33-.38.33ZM162.25 147.24a.37.37 0 0 1-.29-.14c-.56-.67-.62-1.53-.63-2.44 0-.21.17-.39.38-.39.19-.02.39.17.39.38.01.76.05 1.48.45 1.95.14.16.12.41-.05.54-.07.06-.16.09-.25.09ZM157.4 144.38c-.15 0-.28-.08-.35-.22-.02-.04-.11-.13-.52-.15-1.04-.05-2.1-.02-3.14.1-.22.02-.4-.13-.42-.34-.02-.21.13-.4.34-.42a20.9 20.9 0 0 1 3.26-.1c.23.01.93.04 1.19.6.09.19 0 .42-.19.51-.05.03-.11.04-.16.04Z"
  />
  <path
    d="M155.05 144.48c-.08 0-.15-.02-.22-.06l-.2-.12a.39.39 0 0 1-.18-.43c.01-.06.04-.11.08-.15.02-.05.06-.1.1-.14.14-.12.34-.13.49-.02 0 0 .02.01.02.02l1.03-.03c.14.01.33.11.38.28.05.17-.02.35-.17.44-.34.21-.76.26-1.15.18-.06.03-.12.05-.18.05ZM158.83 150.94s-.08 0-.12-.02c-.3-.1-.6-.16-.91-.2a.386.386 0 0 1-.34-.43c.02-.21.22-.36.43-.34.36.04.72.12 1.07.23.2.07.31.28.24.49-.05.16-.2.26-.36.26ZM161.39 150.9c-.16 0-.3-.1-.36-.25-.07-.2.03-.42.23-.49l.62-.22c.2-.08.42.03.49.23s-.03.42-.23.49l-.61.22s-.09.02-.13.02ZM164.05 155.1a.36.36 0 0 1-.2-.06c-.68-.42-1.51-.5-2.39-.6-.37-.04-.75-.08-1.11-.15-.16-.03-.31-.06-.46-.09-.28-.06-.55-.12-.83-.15-1.04-.09-2.12.29-3.07.62a.382.382 0 1 1-.26-.72c1.03-.36 2.18-.78 3.4-.66.31.03.62.09.92.16l.44.09c.35.06.7.1 1.06.14.92.1 1.87.2 2.7.71a.389.389 0 0 1-.2.72Z"
  />
  <path
    d="M160.85 155.48c-1.56 0-3.1-.4-4.43-.74a.384.384 0 0 1-.28-.47c.05-.2.26-.32.47-.28 1.76.46 3.95 1.03 5.9.52v-.01c.11-.12.32-.16.47-.1.15.06.26.24.25.4-.01.16-.19.35-.34.4-.68.2-1.37.28-2.06.28Z"
  />
  <path
    d="M160.87 156.43c-.4 0-.79-.06-1.2-.14-.95-.17-1.95-.39-2.81-.95-.08-.06-.17-.11-.25-.17-.25-.18-.48-.34-.73-.38a.386.386 0 1 1 .14-.76c.41.07.75.31 1.04.51.08.05.15.11.23.16.74.49 1.66.68 2.53.84.59.11 1.16.19 1.67.05.26-.07.52-.21.79-.36l1.25-.68c.19-.1.42-.03.52.16.1.19.03.42-.16.52l-1.25.68c-.29.16-.6.32-.95.42-.27.08-.54.11-.81.11ZM148.51 154.4c-.18 0-.34-.13-.38-.31-.18-.93-.47-1.84-.86-2.71l-.17-.37c-.26-.56-.53-1.15-.62-1.8-.03-.21.12-.4.33-.43.23-.04.41.12.43.33.07.54.31 1.04.56 1.58l.18.39c.41.92.72 1.89.91 2.87.04.21-.1.41-.3.45h-.07Z"
  />
  <path
    d="M150.4 155.93c-.12 0-.24-.06-.32-.17l-.42-.6c-.53-.76-1.07-1.54-1.43-2.44-.08-.2.02-.42.22-.5.2-.08.42.02.5.22.32.81.84 1.56 1.34 2.28l.42.6c.12.17.08.41-.1.54a.36.36 0 0 1-.22.07Z"
  />
  <path
    d="M149.6 153.26c-.19 0-.36-.15-.38-.34-.09-.84-.21-1.68-.35-2.51-.04-.21.1-.41.31-.45.22-.04.41.1.45.31.15.84.27 1.71.36 2.56.02.21-.13.4-.34.42h-.04Z"
  />
  <path
    d="M153.45 159.46a.4.4 0 0 1-.23-.08 8.606 8.606 0 0 1-3.24-5.03c-.15-.7-.21-1.41-.27-2.1-.08-.89-.15-1.74-.4-2.55-.06-.2.05-.42.25-.48.21-.07.42.05.48.25.27.89.35 1.81.43 2.71.06.67.12 1.35.26 2 .39 1.81 1.47 3.47 2.95 4.58.17.13.21.37.08.54-.08.1-.19.16-.31.16ZM166.48 159.4a.37.37 0 0 1-.3-.15c-.13-.17-.1-.41.07-.54 1.69-1.32 2.38-3.47 3.06-5.94l1.35-4.95c.06-.2.26-.33.47-.27.21.06.33.27.27.47l-1.35 4.95c-.55 2.01-1.3 4.76-3.33 6.34-.07.05-.15.08-.24.08Z"
  />
  <path
    d="M171.18 151.1c-.42 0-.81-.2-1.01-.54a.392.392 0 0 1 .14-.53c.19-.1.42-.04.53.14.06.11.25.17.43.14.24-.04.48-.2.68-.35.14-.1.28-.21.42-.32.17-.13.41-.1.54.06s.11.41-.06.54c-.15.12-.3.23-.45.34-.3.21-.62.42-1.01.48-.07.01-.15.02-.22.02Z"
  />
  <path
    d="M171.3 153.18c-.09 0-.18-.03-.25-.1-.37-.32-.15-.62 1.05-2.24a.388.388 0 0 1 .69.32c-.2.75-.63 1.43-1.23 1.92-.07.06-.16.09-.24.09Z"
  />
  <path
    d="M169.58 154.1a.37.37 0 0 1-.29-.14.385.385 0 0 1 .02-.52c.03-.03.06-.06 1.33-1.51.13-.14.34-.17.51-.06.16.11.21.32.13.49-.34.67-.85 1.25-1.47 1.67a.36.36 0 0 1-.22.07ZM148.69 153.45s-.06 0-.09-.01a.393.393 0 0 1-.29-.46c.12-.51-.03-1.06-.2-1.64-.13-.45-.26-.92-.28-1.4 0-.21.16-.39.37-.4.17 0 .39.16.4.37.01.39.13.79.25 1.22.18.65.37 1.32.21 2.03-.04.18-.2.3-.37.3ZM144.17 143.29c-.35 0-.69-.23-.85-.6-.12-.28-.13-.58-.12-.84.03-1.14.19-2.27.34-3.37.03-.21.23-.36.44-.33.21.03.36.22.33.44-.15 1.07-.31 2.18-.34 3.28 0 .19 0 .37.06.51.04.08.11.14.14.14h.03c.2 0 .37.16.38.36.02.21-.14.4-.36.41h-.06ZM145.98 148.89c-.13 0-.25-.06-.33-.18l-.63-1.01s-.04-.07-.05-.11c-.34-1.3-.45-2.47-.57-3.61-.02-.21.13-.4.34-.42.23-.02.4.13.42.34.11 1.14.22 2.22.53 3.43l.6.96a.386.386 0 0 1-.32.59ZM166.45 149.8c-.11 0-.22-.05-.29-.13-.23-.27-.29-.62-.33-.85-.93-5.23-.6-10.69.97-15.77.08-.27.15-.49.16-.69.03-.39-.12-.79-.28-1.22l-.15-.42c-.07-.2.04-.42.25-.49.2-.07.42.05.49.25.04.13.09.26.14.39.18.48.36.98.32 1.54-.02.29-.1.56-.18.82a32.961 32.961 0 0 0-.96 15.46c.04.2.07.38.16.48a.381.381 0 0 1-.29.63ZM145.02 139.29s-.06 0-.1-.01a.384.384 0 0 1-.28-.47c.76-2.99 1.62-6.38 3.66-9.04.13-.17.37-.2.54-.07.17.13.2.37.07.54-1.94 2.54-2.78 5.85-3.52 8.76-.04.17-.2.29-.37.29ZM161.32 144.06c-.11 0-.22-.05-.3-.14a.382.382 0 0 1 .06-.54c.52-.42 1.17-.68 1.84-.72.21-.02.39.15.41.36.01.21-.15.39-.36.41-.51.03-1 .23-1.4.55-.07.06-.16.09-.24.09ZM169.48 146.64h-.07a.386.386 0 0 1-.31-.45l.5-2.69a.386.386 0 1 1 .76.14l-.5 2.69c-.03.18-.2.31-.38.31Z"
  />
  <path
    d="M145.93 160.58c-.21 0-.38-.17-.38-.39.01-2.49.8-5 2.21-7.05.12-.18.36-.22.54-.1.18.12.22.36.1.54a11.94 11.94 0 0 0-2.07 6.62c0 .21-.17.38-.38.38ZM151.53 160.39h-.01c-.21 0-.38-.18-.37-.4.03-1.09 0-2.19-.09-3.28a.39.39 0 0 1 .35-.42c.23-.01.4.14.42.35.09 1.12.12 2.25.09 3.37 0 .21-.18.37-.38.37Z"
  />
  <path
    d="M155.43 168.88a.36.36 0 0 1-.22-.07c-1.84-1.28-2.63-3.62-3.2-5.33-.57-1.71-1.16-3.47-1.36-5.32-.02-.21.13-.4.34-.42.22-.02.4.13.42.34.18 1.77.76 3.49 1.32 5.16.7 2.09 1.4 3.9 2.91 4.94.18.12.22.36.1.54-.08.11-.2.17-.32.17ZM168.69 164.36h-.06a.385.385 0 0 1-.32-.44c.45-3.03.65-6.13.59-9.2 0-.21.17-.39.38-.39s.38.17.38.38a55.9 55.9 0 0 1-.6 9.33c-.03.19-.19.33-.38.33ZM167.66 160.04c-.21 0-.38-.16-.38-.37l-.05-1.48c0-.21.16-.39.37-.4.18 0 .39.16.4.37l.05 1.48c0 .21-.16.39-.37.4h-.01ZM169.84 166.25h-.04a.392.392 0 0 1-.34-.43c.19-1.62.58-3.22 1.17-4.74l.07-.17c.16-.41.31-.79.36-1.19.08-.62-.1-1.25-.28-1.91-.05-.17-.09-.33-.13-.49-.38-1.5-.45-3.11-.19-4.64.03-.21.23-.35.44-.32.21.04.35.23.32.44-.24 1.43-.18 2.92.18 4.33.04.16.08.32.13.48.19.71.4 1.44.3 2.21-.06.49-.24.94-.41 1.37l-.07.17c-.56 1.46-.94 2.99-1.12 4.55a.38.38 0 0 1-.38.34Z"
  />
  <path
    d="M172.2 166.08h-.07a.391.391 0 0 1-.31-.44l.04-.3h.03c.53-2.27 1.08-4.81.4-7.16a7.196 7.196 0 0 0-1.93-3.19.38.38 0 0 1-.01-.54.38.38 0 0 1 .54-.01c1.01.97 1.75 2.19 2.14 3.53.76 2.63.09 5.51-.46 7.82-.04.18-.2.3-.37.3Z"
  />
  <path
    d="M169.18 170.81a.38.38 0 0 1-.38-.38c0-.21.17-.39.38-.39.96-.02 1.96-.69 2.54-1.72.57-1 .74-2.19.83-3.31.11-1.31.14-2.64.07-3.95-.01-.21.15-.39.37-.4.2 0 .39.15.4.37.07 1.35.04 2.71-.08 4.06-.1 1.15-.29 2.49-.93 3.62-.72 1.28-1.95 2.09-3.19 2.11Z"
  />
  <path
    d="M169.56 169.55s-.09 0-.14-.03c-.2-.08-.3-.3-.22-.5 1.25-3.21 2.15-6.56 2.66-9.96.03-.21.23-.36.44-.32.21.03.35.23.32.44-.52 3.46-1.43 6.87-2.71 10.13a.39.39 0 0 1-.36.24ZM153.94 169.32a.76.76 0 0 1-.62-.37c-1.21-2.1-2.44-4.35-2.99-6.8-.42-1.89-.43-3.89-.03-5.79.04-.21.24-.34.46-.3.21.05.34.25.3.46-.38 1.79-.37 3.68.03 5.46.52 2.31 1.68 4.47 2.84 6.49.02 0 .04 0 .07-.01.22-.03.4.14.41.35.01.18-.15.43-.32.49-.05.02-.1.02-.15.02Zm.05-.75ZM143.87 164.88c-.16 0-.31-.1-.37-.27l-1.98-6.16c-.18-.55-.38-1.17-.34-1.83 0-.16.03-.41.17-.64.15-.24.37-.38.55-.49 1.79-1.13 3.39-2.64 4.61-4.38.08-.11.2-.16.33-.16s.25.08.32.19c.55.96.76 2.05.62 3.33-.02.21-.21.35-.42.34a.382.382 0 0 1-.34-.42c.09-.87 0-1.63-.26-2.31-1.22 1.6-2.74 2.99-4.44 4.06-.13.08-.25.16-.3.24-.03.05-.05.14-.06.27-.03.52.14 1.05.31 1.56l1.98 6.16c.06.2-.05.42-.25.49-.04.01-.08.02-.12.02Z"
  />
  <path
    d="M157.72 171.59s-.08 0-.12-.02l-3.49-1.12c-1.63-.53-3.31-1.07-4.79-2.04-1.74-1.14-3.21-2.88-4.37-5.18-1.02-2.02-1.68-4.2-2.31-6.31-.06-.2.05-.42.26-.48.2-.06.42.05.48.26.63 2.08 1.27 4.23 2.26 6.18 1.1 2.18 2.48 3.82 4.11 4.89 1.39.91 3.03 1.44 4.61 1.95l3.49 1.12c.2.07.31.28.25.49-.05.16-.2.27-.37.27ZM139.71 162.16c-.06 0-.13-.02-.18-.05a.382.382 0 0 1-.16-.52 16.28 16.28 0 0 0 1.74-5.02.38.38 0 0 1 .45-.31c.21.04.35.24.31.45a17.15 17.15 0 0 1-1.82 5.25c-.07.13-.2.2-.34.2Z"
  />
  <path
    d="M156.47 174.9c-1.13 0-2.25-.17-3.32-.5-1.96-.61-3.7-1.73-5.38-2.81l-4.9-3.17c-1.65-1.07-3.52-2.28-4.58-4.17-.14-.25-.31-.59-.34-.97-.08-.93.59-1.58 1.18-2.16.29-.28.56-.55.76-.84.12-.18.36-.22.53-.1.18.12.22.36.1.53-.24.35-.55.66-.86.96-.54.52-1 .97-.95 1.54.02.23.14.47.25.67.96 1.73 2.75 2.88 4.32 3.9l4.9 3.17c1.63 1.06 3.32 2.15 5.19 2.72 2.03.63 4.27.62 6.29-.03.2-.07.42.05.48.25s-.05.42-.25.48c-1.1.35-2.27.53-3.43.53ZM164.51 164.58s-.07 0-.1-.01a.37.37 0 0 1-.27-.47l.77-2.92c.12-.46.33-1.24.96-1.61.37-.22.85-.27 1.34-.14.4.11.75.31 1.07.5.15.09.31.19.43.36.16.22.2.47.23.64.07.42.11.84.14 1.27.03.37.04.79-.17 1.17-.3.56-.91.78-1.32.93a.382.382 0 1 1-.26-.72c.39-.14.76-.29.9-.56.11-.2.1-.48.08-.75-.03-.4-.07-.8-.14-1.2-.02-.1-.04-.24-.09-.3-.04-.05-.12-.1-.21-.16-.28-.17-.57-.34-.87-.42-.29-.07-.56-.05-.75.06-.33.19-.48.67-.6 1.14l-.77 2.92c-.05.17-.2.29-.37.29Z"
  />
  <path
    d="M167.63 180.78h-.06a.385.385 0 0 1-.32-.44l.48-3.25c.09-.61.18-1.22.37-1.82.07-.22.15-.44.23-.66.1-.26.19-.53.27-.8.19-.73.18-1.51.15-2.11-.05-.89-.17-1.77-.35-2.64-.22-1.04-.5-1.85-.87-2.56l-.08-.15a3.83 3.83 0 0 1-.32-.71c-.1-.35-.11-.71-.11-1.03 0-.97.11-1.94.31-2.88a.39.39 0 0 1 .76.16c-.19.9-.28 1.82-.29 2.73 0 .27 0 .55.08.8.06.19.16.37.26.57l.08.15c.41.77.7 1.65.94 2.76.19.9.31 1.83.36 2.76.04.66.05 1.52-.17 2.35-.08.3-.18.59-.29.87-.08.2-.15.41-.21.62-.17.54-.25 1.13-.34 1.7l-.49 3.26c-.03.19-.19.33-.38.33ZM160.1 177.89s-.07 0-.1-.01a.396.396 0 0 1-.27-.47c.3-1.08.21-2.28-.25-3.3-.33-.75-.86-1.42-1.36-2.06l-1.12-1.43c-.34-.44-.7-.9-1.13-1.25l-.09-.07c-.14-.11-.29-.24-.42-.41-.16-.22-.23-.46-.3-.68l-1.51-5.01c-.29-.95-.59-1.93-1.1-2.77-.06-.1-.16-.26-.17-.47-.01-.33.22-.62.6-.77.65-.24 1.43-.07 2 .45.44.4.76.99.91 1.71.04.21-.09.41-.3.46a.394.394 0 0 1-.46-.3c-.08-.39-.27-.94-.67-1.3-.35-.32-.84-.44-1.21-.3-.04.02-.08.04-.09.05.02 0 .03.03.05.05.57.92.88 1.96 1.19 2.96l1.51 5c.05.17.1.34.19.45.07.09.17.17.28.26l.09.08c.49.41.87.9 1.24 1.37l1.12 1.43c.51.65 1.08 1.39 1.46 2.22.53 1.2.63 2.55.28 3.82-.05.17-.2.28-.37.28Z"
  />
  <path
    d="M155.54 164.93h-.01c-.21 0-.38-.18-.37-.4l.12-4.2c.01-.46.03-.99.27-1.47.25-.5.72-.9 1.34-1.15.52-.2 1.05-.28 1.57-.35.42-.05 1.52-.2 2.03.57.12.18.07.42-.11.53-.18.12-.42.07-.53-.11-.17-.25-.58-.33-1.29-.23-.47.06-.96.13-1.39.3-.44.17-.77.45-.93.77-.16.33-.18.75-.19 1.15l-.12 4.2c0 .21-.18.37-.38.37Z"
  />
  <path
    d="M158.5 162.74s-.08 0-.12-.02a.373.373 0 0 1-.25-.44c.13-.62.19-1.25.18-1.89 0-.18 0-.4.09-.61.22-.49.77-.6 1.06-.65.17-.44.36-.92.76-1.26.48-.41 1.2-.55 1.92-.38.6.15 1.12.47 1.61.79.18.12.23.36.11.53-.12.18-.36.23-.53.11-.45-.29-.89-.57-1.37-.68-.47-.11-.95-.03-1.23.21-.26.23-.4.6-.56.99-.4 1.05-.85 2.08-1.32 3.07-.07.14-.2.22-.35.22Z"
  />
  <path
    d="M161.7 163.32c-.08 0-.16-.03-.23-.07a.393.393 0 0 1-.16-.35c.09-.92.42-1.81.94-2.58.04-.06.1-.11.16-.14.19-.48.42-.94.68-1.38.09-.15.19-.32.37-.45.3-.22.67-.22.96-.21.3.02.75.08 1.17.29.44.23.75.6.86 1.02.05.21-.07.42-.28.47-.2.06-.42-.07-.47-.28-.05-.21-.23-.4-.47-.53-.22-.11-.49-.18-.86-.21-.16-.01-.35-.01-.45.06-.06.04-.11.13-.16.22-.51.86-.87 1.78-1.09 2.75-.1.44-.25 1.1-.83 1.35-.05.02-.1.03-.15.03ZM130.59 178.55h-.02c-.21 0-.38-.19-.37-.4.06-1.36.24-2.71.53-4.04.15-.67.34-1.38.74-2 .37-.58.88-1.03 1.38-1.46 2.08-1.81 4.14-3.7 6.13-5.61.15-.15.4-.14.54 0 .15.15.14.4 0 .54-2 1.93-4.06 3.82-6.14 5.63-.47.41-.94.82-1.25 1.31-.33.51-.5 1.14-.63 1.75-.28 1.28-.46 2.6-.51 3.91 0 .21-.18.37-.38.37Z"
  />
  <path
    d="M132.91 175.97s-.06 0-.1-.01a.384.384 0 0 1-.28-.47c.35-1.35.86-2.65 1.53-3.87.5-.92 1.22-2.04 2.4-2.6.49-.23 1-.35 1.5-.46l3.32-.73c.21-.04.41.09.46.29s-.09.41-.29.46l-3.32.73c-.45.1-.92.2-1.33.4-.98.47-1.61 1.46-2.06 2.28-.63 1.17-1.13 2.41-1.46 3.7-.05.17-.2.29-.37.29ZM149.94 187.54c-.07 0-.14-.02-.2-.05-2.78-1.66-5.4-3.62-7.79-5.82l-.55-.52c-1.62-1.52-3.3-3.08-5.39-3.52-1.61-.34-3.35.05-4.89.38a.388.388 0 0 1-.46-.29c-.05-.21.09-.41.29-.46 1.61-.35 3.44-.75 5.21-.38 2.31.48 4.06 2.13 5.76 3.72l.55.51c2.34 2.16 4.92 4.09 7.66 5.72.18.11.24.34.13.53-.07.12-.2.19-.33.19Z"
  />
  <path
    d="M142.22 183.17c-2.49 0-4.93-1.03-6.95-1.89a.378.378 0 0 1-.2-.51c.08-.2.31-.28.51-.2 2.31.98 5.18 2.2 7.93 1.72.22-.04.41.11.44.31.04.21-.1.41-.31.44-.47.08-.95.12-1.42.12ZM150.79 213.71c-.13 0-.27-.04-.38-.12-3.81-2.92-6.16-7.21-8.43-11.37-.9-1.64-1.83-3.34-2.83-4.93-.29-.46-.59-.92-.89-1.37-.62-.93-1.26-1.9-1.81-2.91-.51-.94-.96-1.94-1.34-2.8-1.74-3.94-3.34-8-4.77-12.06-.07-.2.04-.42.24-.49.2-.07.42.04.49.24a169.2 169.2 0 0 0 4.75 12.01c.37.85.81 1.83 1.31 2.74.54.98 1.17 1.93 1.78 2.85.3.46.61.92.9 1.38 1.02 1.6 1.95 3.32 2.86 4.97 2.2 4.03 4.48 8.2 8.08 11.01.11-.08.27-.1.4-.03s.26.25.26.4c0 .15-.14.34-.28.41-.09.04-.2.07-.32.07Z"
  />
  <path
    d="M142.87 193.87c-.73 0-1.38-.28-2.01-.56-.56-.25-1.1-.48-1.65-.5-.21 0-.38-.19-.37-.4 0-.21.18-.37.38-.37h.01c.7.03 1.32.3 1.93.56.6.26 1.15.53 1.76.49.54-.02 1.08-.26 1.59-.5l3.6-1.66c.36-.17.78-.36 1.25-.37.95-.02 1.73.7 2.34 1.39.14.16.13.4-.03.54a.38.38 0 0 1-.54-.03c-.5-.56-1.06-1.16-1.74-1.14-.31 0-.63.16-.95.3l-3.6 1.66c-.56.26-1.19.55-1.9.57h-.08ZM145.11 190.79c-1.32 0-2.78-.16-4.46-.49a.38.38 0 0 1-.3-.45c.04-.21.24-.35.45-.3 2.41.47 4.33.58 6.05.37 1.24-.16 2.48-.5 3.69-.84.2-.05.42.06.47.27s-.06.42-.27.47c-1.23.34-2.5.7-3.8.86-.58.07-1.19.11-1.82.11Z"
  />
  <path
    d="M149.27 189.79h-.07a.38.38 0 0 1-.3-.45l.27-1.36c-2.47-.31-4.98-.49-7.46-.52-.21 0-.38-.18-.38-.39 0-.21.17-.4.39-.38 2.59.03 5.19.22 7.75.55.31.04.43.21.48.34.05.14.03.26.01.32l-.31 1.59c-.04.18-.2.31-.38.31Zm.11-1.79h.01-.01Z"
  />
  <path
    d="M154.58 193.84c-.17 0-.32-.11-.37-.28-.3-1.03-.91-1.98-1.73-2.67l-.22-.17c-.2-.16-.41-.32-.59-.53-.29-.32-.48-.69-.66-1.05l-.06-.13a18.311 18.311 0 0 0-5.03-6.03.383.383 0 0 1-.07-.54c.13-.17.37-.2.54-.07 2.17 1.68 3.99 3.85 5.25 6.29l.07.13c.17.33.33.64.55.89.15.17.32.3.5.44l.23.19c.94.78 1.64 1.87 1.98 3.04.06.2-.06.42-.26.48-.04.01-.07.02-.11.02ZM150.24 183.97c-.16 0-.31-.1-.36-.26-.68-1.98-1.38-4.02-2.64-5.7-.76-1.01-1.72-1.88-2.66-2.73-.65-.59-1.32-1.19-2.07-1.64-1.09-.64-2.35-.94-3.58-1.24a.378.378 0 0 1-.28-.46c.05-.21.25-.34.46-.28 1.28.31 2.6.63 3.79 1.32.83.48 1.53 1.12 2.2 1.73.96.87 1.95 1.77 2.75 2.84 1.33 1.78 2.05 3.88 2.75 5.92.07.2-.04.42-.24.49-.04.01-.08.02-.12.02Z"
  />
  <path
    d="M148.07 183.27c-.12 0-.24-.06-.31-.16l-3.43-4.82a.396.396 0 0 1 .09-.54c.17-.12.41-.08.54.09l3.43 4.82c.12.17.08.41-.09.54-.07.05-.15.07-.22.07ZM153.71 180.81c-.12 0-.23-.05-.31-.15l-2.75-3.6c-.51-.67-1.03-1.36-1.64-1.96-1.31-1.31-3-2.19-4.63-3.05a.382.382 0 0 1-.16-.52c.1-.19.33-.26.52-.16 1.68.89 3.41 1.8 4.81 3.19.64.64 1.18 1.35 1.71 2.04l2.75 3.6a.383.383 0 0 1-.3.62ZM172.53 175.57c-.21 0-.38-.17-.38-.39.01-2.94.67-6.03 2.14-10.01l.05-.15c.24-.65.47-1.27.58-1.91.21-1.25-.03-2.55-.27-3.8a.386.386 0 1 1 .76-.14c.24 1.26.51 2.69.28 4.07-.12.71-.37 1.39-.61 2.05l-.05.14c-1.43 3.89-2.08 6.9-2.09 9.75 0 .21-.17.38-.38.38ZM173.51 185.81s-.06 0-.09-.01a.378.378 0 0 1-.28-.46c.38-1.59.81-3.68.81-5.78 0-.74-.06-1.49-.11-2.22-.06-.8-.12-1.62-.11-2.44.04-5.06 2.55-9.69 4.77-13.77.1-.19.34-.26.52-.15.19.1.26.33.15.52-2.18 4.01-4.64 8.55-4.68 13.41 0 .79.05 1.6.11 2.38.06.74.11 1.51.12 2.28 0 2.18-.44 4.33-.83 5.96-.04.18-.2.3-.37.3Z"
  />
  <path
    d="M170.01 190.97h-.08a.39.39 0 0 1-.3-.46c.18-.88.47-1.73.74-2.56l.08-.24c.94-2.84 1.77-5.76 2.47-8.66.05-.21.25-.34.46-.28.21.05.33.26.28.46-.7 2.92-1.54 5.85-2.49 8.72l-.08.25c-.27.8-.55 1.64-.72 2.47-.04.18-.2.31-.38.31ZM168.87 178.89s-.08 0-.12-.02a.387.387 0 0 1-.24-.49l2.44-7.15c.07-.2.29-.31.49-.24s.31.29.24.49l-2.44 7.15c-.05.16-.2.26-.36.26ZM179.33 171.35c-.12 0-.24-.06-.31-.16a.396.396 0 0 1 .09-.54c1.47-1.06 2.26-2.84 3.03-4.57l.18-.4c.78-1.75 1.8-3.63 3.5-4.6-.68-.49-1.58-.69-2.52-.9-1-.22-2.04-.45-2.9-1.07-.12-.09-.24-.18-.36-.28-.15-.12-.3-.25-.47-.35-.35-.21-.76-.32-1.28-.41-.88-.16-1.77-.25-2.66-.26-.24 0-.5 0-.71.06-.65.2-1.02.94-1.34 1.67-.09.19-.31.28-.51.2a.398.398 0 0 1-.2-.51c.38-.86.86-1.81 1.82-2.1.32-.1.65-.1.95-.1.93.01 1.86.1 2.78.27.52.1 1.06.22 1.54.51.2.12.38.27.56.41.1.09.21.17.32.25.73.53 1.64.73 2.61.94 1.2.27 2.44.54 3.32 1.48.09.09.12.22.1.34a.37.37 0 0 1-.23.27c-1.78.75-2.84 2.68-3.63 4.47l-.18.4c-.81 1.82-1.64 3.7-3.28 4.88-.07.05-.15.07-.22.07Z"
  />
  <path
    d="M183.85 170.88c-.18 0-.35-.13-.38-.32-.04-.21.1-.41.31-.45.35-.06.7-.25 1.13-.59a6.322 6.322 0 0 0 2.21-3.73c.26-1.45-.03-3-.78-4.27-1.26-2.04-2.27-3.3-3.71-3.68-.49-.13-1.01-.14-1.52-.16-2.07-.06-4.14-.13-6-.98-.18-.08-.36-.17-.54-.26-.41-.21-.79-.4-1.2-.5-.45-.11-1.1-.1-1.45.3-.14.16-.39.17-.54.03a.38.38 0 0 1-.03-.54c.58-.65 1.52-.7 2.21-.53.49.12.93.34 1.36.56.17.09.34.17.51.25 1.72.78 3.72.85 5.64.91.59.02 1.18.04 1.75.19 1.86.49 3.08 2.26 4.17 4.02.85 1.43 1.17 3.17.88 4.8s-1.19 3.16-2.48 4.2c-.53.43-1 .66-1.48.75h-.07Z"
  />
  <path
    d="M182.9 179.41a.386.386 0 0 1-.19-.72c1.52-.9 2.81-2.26 3.61-3.84 1.64-3.2 1.33-7.17 1.09-10.37-.02-.21.14-.4.35-.41.22-.03.4.14.41.35.25 3.29.56 7.39-1.17 10.78-.87 1.7-2.26 3.18-3.91 4.15-.06.04-.13.05-.2.05Z"
  />
  <path
    d="M186.52 181.98h-.07a.386.386 0 0 1-.31-.45l.92-4.76c.27-1.38.54-2.81.31-4.2-.04-.21.11-.41.32-.44.22-.03.41.11.44.32.25 1.52-.05 3.09-.32 4.47l-.92 4.76c-.04.18-.2.31-.38.31Z"
  />
  <path
    d="M169.07 215.06a.386.386 0 0 1-.21-.71l11.23-7.07c.56-.35 1.14-.72 1.59-1.19.73-.77 1.1-1.81 1.4-2.81.79-2.65 1.15-5.46 1.5-8.18.39-3.01.79-6.12 1.77-9.05.11-.34.23-.67.35-1 .24-.69.5-1.39.67-2.1.62-2.5.33-5.13.06-7.67-.02-.21.13-.4.34-.43.24-.02.4.13.43.34.27 2.49.58 5.3-.07 7.94-.19.75-.44 1.47-.69 2.18-.12.33-.23.66-.34.99-.95 2.87-1.35 5.94-1.73 8.91-.36 2.75-.72 5.59-1.53 8.3-.31 1.05-.74 2.23-1.58 3.12-.51.54-1.13.93-1.74 1.31l-11.23 7.07a.36.36 0 0 1-.2.06ZM173.86 188.96c-.2 0-.37-.16-.38-.37-.13-2.82 1.18-5.86 3.6-8.34 2.16-2.21 4.84-3.76 7.44-5.25.19-.11.42-.04.53.14s.04.42-.14.53c-2.55 1.47-5.19 2.99-7.27 5.12-2.27 2.33-3.51 5.16-3.38 7.76.01.21-.15.39-.37.4h-.02Z"
  />
  <path
    d="M171.59 193.38c-.12 0-.23-.04-.31-.11-.15-.15-.24-.43-.02-.76 1.92-2.92 3.59-6.08 5.2-9.13l.68.36c-1.59 3.01-3.24 6.11-5.13 9.02.08.21-.03.44-.18.54a.43.43 0 0 1-.25.07ZM175.65 191.77c-.47 0-.92-.14-1.26-.5-.14-.16-.14-.4.02-.54s.4-.14.54.02c.33.36.98.3 1.43.09.29-.13.56-.31.85-.51.27-.18.55-.37.87-.52.58-.28 1.2-.4 1.8-.52l.35-.07c1.3-.27 2.56-.7 3.76-1.28.19-.09.42-.01.51.18.09.19.01.42-.18.51-1.25.6-2.58 1.05-3.94 1.34l-.36.07c-.58.12-1.12.22-1.61.46-.26.13-.51.29-.77.47-.3.2-.61.41-.96.57-.32.14-.69.23-1.06.23ZM181.73 187.26c-.16 0-.32-.11-.37-.27-.06-.2.05-.42.25-.48.68-.21 1.31-.57 1.84-1.04.78-.7 1.33-1.64 1.86-2.55a.39.39 0 0 1 .53-.14c.18.11.25.34.14.53-.56.96-1.14 1.95-2.01 2.73-.61.55-1.35.96-2.13 1.2-.04.01-.08.02-.11.02ZM178.48 169.51s-.06 0-.09-.01a.378.378 0 0 1-.28-.46l.3-1.24c.05-.21.26-.34.46-.28.21.05.33.26.28.46l-.3 1.24c-.04.18-.2.29-.37.29ZM168.22 189.22c-.21 0-.44-.03-.69-.08l-4.58-.92c-.81-.16-1.73-.35-2.53-.8-.98-.55-1.7-1.44-2.33-2.22-.23-.29-.49-.61-.61-1.03-.19-.66.05-1.34.22-1.84l1.71-4.86a.37.37 0 0 1 .26-.24c.12-.03.25 0 .35.07 1.69 1.38 3.76 2.15 5.59 2.82.29.11.61.22.88.18.06-.01.12-.03.18-.04.13-.03.28-.07.45-.07.32 0 .58.14.81.26.07.04.13.07.2.1.45.21 1.01.17 1.43-.09-.28-.57-.99-.81-1.69-1a.396.396 0 0 1-.27-.47c.06-.2.26-.33.47-.27.83.23 1.75.54 2.16 1.36.04.07.06.13.08.19.09.09.13.23.1.36-.5 2.05-.91 4.14-1.22 6.22-.07.49-.11 1.03.17 1.31.12.12.15.31.07.46-.22.4-.62.61-1.21.61Zm-8.26-10.99-1.54 4.36c-.18.51-.32.97-.21 1.37.08.27.28.52.47.76.62.77 1.26 1.56 2.11 2.03.7.39 1.52.56 2.31.72l4.58.92c.26.05.66.11.9 0-.27-.49-.23-1.1-.15-1.66.27-1.79.61-3.6 1.02-5.38-.54.17-1.13.14-1.64-.1l-.24-.12c-.17-.09-.32-.17-.45-.17a.85.85 0 0 0-.25.05l-.25.06c-.47.08-.92-.09-1.27-.22-1.74-.64-3.69-1.36-5.38-2.62Z"
  />
  <path
    d="M156.66 191.7s-.09 0-.13-.02c-.2-.07-.3-.29-.23-.49.16-.46.08-.99-.02-1.55l-.03-.19c-.15-.92-.2-1.85-.16-2.77.02-.39.05-.8.19-1.2.22-.64.68-1.13 1.09-1.57a.38.38 0 0 1 .54-.02c.16.14.16.39.02.54-.37.4-.75.81-.93 1.3-.11.3-.13.65-.14.98-.04.87.02 1.75.15 2.62l.03.18c.1.6.21 1.29-.02 1.93-.06.16-.2.26-.36.26Z"
  />
  <path
    d="M153.11 202.43a.38.38 0 0 1-.38-.34c-.05-.42-.15-.84-.25-1.28-.18-.78-.37-1.6-.27-2.44.12-1.03.63-1.91 1.13-2.77.29-.5.61-1.05.69-1.61.03-.21.04-.42.04-.64 0-.17 0-.34.02-.51.13-1.63 1.22-2.97 2.1-4.05.13-.17.38-.19.54-.06s.19.38.06.54c-.99 1.22-1.82 2.34-1.93 3.63-.01.15-.02.31-.02.46 0 .25 0 .5-.05.74-.11.71-.48 1.34-.77 1.86-.47.81-.95 1.63-1.05 2.5-.08.71.08 1.42.26 2.18.1.44.21.9.26 1.37.03.21-.13.4-.34.43h-.05ZM164.03 204.55c-.15 0-.29-.08-.35-.23-.09-.19 0-.42.19-.51.59-.27 1.25-.59 1.62-1.14.27-.41.38-.93.49-1.44l2.64-12.75a.39.39 0 0 1 .76.16l-2.64 12.75c-.11.55-.24 1.18-.6 1.71-.48.71-1.25 1.1-1.94 1.41-.05.02-.1.03-.16.03ZM157.95 204h-.08c-.46-.1-.86-.47-1.08-1.01-.16-.4-.22-.81-.27-1.21-.06-.45-.11-.88-.32-1.22-.21-.36-.59-.61-.98-.89-.19-.13-.39-.27-.57-.41a.393.393 0 0 1-.06-.54c.14-.17.38-.19.54-.06.16.13.34.26.52.38.45.31.91.62 1.21 1.13.28.48.35 1 .42 1.51.05.37.09.72.22 1.02.12.3.32.51.52.55a.39.39 0 0 1-.08.77Z"
  />
  <path
    d="M151.75 210.95c-.17 0-.32-.11-.37-.28-.1-.37-.21-.74-.32-1.11-.55-1.88-1.12-3.82-.93-5.81.18-1.91 1.05-3.71 1.82-5.29.09-.19.32-.27.51-.18.19.09.27.32.18.51-.78 1.6-1.58 3.25-1.74 5.03-.17 1.85.38 3.72.91 5.53.11.38.22.75.32 1.13.06.2-.06.42-.27.47-.03.01-.07.01-.1.01Z"
  />
  <path
    d="M149.68 211.01c-.21 0-.38-.18-.38-.39.02-.97-.32-1.9-.69-2.88-.19-.51-.39-1.05-.53-1.59-.7-2.66.03-5.71 1.87-7.75a.38.38 0 0 1 .54-.03c.16.14.17.39.03.54-1.67 1.86-2.34 4.62-1.7 7.04.13.51.32 1.02.51 1.51.38 1.01.76 2.05.74 3.17 0 .21-.18.38-.38.38ZM168.21 199.74c-.1 0-.21-.04-.28-.12a.39.39 0 0 1 .02-.54c.6-.55 1.2-1.1 1.81-1.65.36-.32.7-.63.92-.99.5-.82.42-1.86.28-3.03-.03-.21.12-.4.33-.43.23-.03.4.12.43.33.16 1.27.25 2.5-.38 3.53-.28.46-.68.82-1.06 1.16-.61.55-1.21 1.1-1.81 1.65a.37.37 0 0 1-.26.1Z"
  />
  <path
    d="M168.25 197.9c-.15 0-.28-.08-.35-.22-.26-.57.19-1.13.34-1.32.51-.64 1.05-1.26 1.6-1.85.15-.16.39-.16.54-.02s.16.39.02.54c-.54.58-1.06 1.18-1.56 1.81-.27.34-.26.47-.24.51.09.19 0 .42-.19.51-.05.03-.11.04-.16.04ZM172.29 196.2c-.21 0-.43-.05-.59-.19a.569.569 0 0 1-.2-.47c0-.16.11-.29.26-.35.47-.17.97-.24 1.47-.23.14 0 .26.08.33.2 2.19-.59 4.24-1.74 5.87-3.29.16-.15.4-.14.54.01s.14.4-.01.54a14.573 14.573 0 0 1-7.44 3.76c-.07.01-.14.02-.22.02ZM180.76 201.94s-.06 0-.09-.01c-.72-.17-1.21-.68-1.68-1.18-.36-.38-.71-.73-1.12-.91-.41-.18-.89-.18-1.4-.18-.19 0-.39 0-.58-.01-1.56-.08-3.01-.79-4.29-1.42a.384.384 0 0 1-.18-.51c.09-.19.32-.27.51-.18 1.21.59 2.59 1.26 4 1.34.18 0 .36.01.54.01.56 0 1.14 0 1.7.24s.98.67 1.38 1.09c.42.43.81.84 1.31.96.21.05.33.26.28.46-.04.18-.2.29-.37.29ZM166.22 202.9h-.04a.437.437 0 0 1-.39-.48c.01-.13.08-.31.33-.43.78-.38 1.6-.71 2.43-1 .26-.09.54-.18.85-.21.41-.04.8.04 1.17.11 1.65.33 2.94.41 4.13.26.21-.02.4.12.43.33s-.12.4-.33.43c-1.27.16-2.64.08-4.3-.25-.4-.08-.71-.14-1.02-.12-.22.02-.45.1-.67.17-.73.25-1.46.54-2.15.87-.05.17-.24.31-.42.31Z"
  />
  <path
    d="M166.88 202.26c-.16 0-.31-.1-.36-.26-.06-.18.01-.37.17-.46.09-.1.37-.44.68-.84l.04-.08c.26-.47.59-.89.99-1.25.15-.13.37-.13.52 0 .15.14.16.36.04.52-.4.52-.71.92-.95 1.23l-.02.03c-.2.38-.44.84-.92 1.05-.02.01-.05.02-.07.03-.04.01-.08.02-.12.02ZM155.16 210.74h-.06a.385.385 0 0 1-.32-.44c.09-.59-.03-1.27-.34-1.96-.29-.65-.72-1.25-1.14-1.84a.396.396 0 0 1 .09-.54c.17-.12.41-.08.54.09.44.61.89 1.25 1.21 1.97.37.83.51 1.66.39 2.39-.03.19-.19.33-.38.33Z"
  />
  <path
    d="M164.55 214.74c-.21 0-.38-.18-.38-.39.01-1.01.02-2.05-.34-2.98-.38-.98-1.17-1.8-1.87-2.52-.71-.74-1.42-1.4-2.26-1.46-.21 0-.38.03-.44.11-.05.07-.08.19-.11.32-.02.07-.03.13-.05.2-.29 1.01-1.27 1.56-2.16 1.99l-2.64 1.28c-.82.4-1.84.89-2.36 1.73-.11.18-.35.23-.53.12a.377.377 0 0 1-.12-.53c.64-1.02 1.77-1.57 2.67-2.01l2.64-1.28c.78-.38 1.55-.8 1.76-1.51l.04-.16c.05-.19.1-.43.27-.64.23-.28.62-.43 1.09-.39 1.12.07 1.98.88 2.77 1.69.75.78 1.6 1.66 2.03 2.78.41 1.06.4 2.23.39 3.26 0 .21-.17.38-.38.38Z"
  />
  <path
    d="M159.62 207.46c-.13 0-.26-.07-.33-.19a.378.378 0 0 1 .14-.52l3.01-1.72c.31-.18.6-.34.87-.52l.22-.14c.29-.19.6-.39.94-.54.2-.08.42.01.5.21.08.2-.01.42-.21.5-.28.11-.54.29-.81.47l-.22.15c-.29.19-.59.36-.89.53l-3.04 1.74a.34.34 0 0 1-.19.05ZM177.55 205.96s-.07 0-.11-.02l-7.11-2.03a.387.387 0 0 1-.26-.48.38.38 0 0 1 .48-.26l7.11 2.03c.2.06.32.27.26.48-.05.17-.2.28-.37.28ZM156.6 218.77a.381.381 0 0 1-.25-.67c.97-.84 1.36-2.2.92-3.24-.35-.84-1.15-1.44-1.86-1.96-.38-.28-.81-.6-1.27-.67-.76-.11-1.51.43-2.21 1.01-.17.13-.41.11-.54-.05s-.11-.41.05-.54c.8-.66 1.74-1.35 2.82-1.17.64.1 1.18.5 1.61.82.75.56 1.69 1.25 2.11 2.28.56 1.34.08 3.07-1.13 4.12-.07.06-.16.09-.25.09ZM178.05 209.73H178c-.23 0-.4-.13-.48-.31-.04-.1-.01-.24.03-.33.04-.09.14-.2.24-.24.16-.06.33-.02.44.09.14-.04.29-.12.45-.2.2-.1.42-.22.67-.28.21-.05.42-.06.62-.06.16 0 .32 0 .45-.04.2-.05.4-.18.61-.32.68-.44 1.44-.94 1.83-1.66.25-.47.33-1.03.4-1.57.14-1.07.22-2.17.25-3.26 0-.21.18-.37.38-.37h.01c.21 0 .38.18.37.4-.03 1.11-.12 2.24-.26 3.34-.08.61-.18 1.25-.48 1.83-.48.9-1.37 1.48-2.09 1.95-.24.16-.52.34-.85.42-.22.05-.43.06-.62.06-.16 0-.32 0-.45.04-.16.04-.32.12-.49.21-.28.15-.6.32-.98.32Z"
  />
  <path
    d="M182.04 215.83h-.08a.38.38 0 0 1-.29-.46c.05-.21-.08-.48-.22-.75-.9-1.73-1.81-3.45-2.72-5.18-.1-.19-.03-.42.16-.52.19-.1.42-.03.52.16.91 1.72 1.82 3.45 2.72 5.18.16.31.4.78.29 1.28-.04.18-.2.3-.38.3Z"
  />
  <path
    d="M174.91 214.1c-.24 0-.49-.02-.73-.06l-.28-.06c-.15-.03-.3-.07-.45-.08-.2 0-.42.02-.64.06-.19.03-.37.06-.56.07-.51.03-1.19-.15-1.44-.74a.37.37 0 0 1 .04-.38c.09-.12.23-.19.38-.2.14 0 .3.05.4.16.08.09.12.21.1.32.14.06.32.08.47.08.16 0 .32-.04.48-.06.26-.04.53-.09.82-.07.2.01.39.05.58.1.08.02.17.04.25.05.63.11 1.28.01 1.97-.1l.34-.05c1.43-.21 2.9-.26 4.35-.15.21.02.37.2.35.41-.02.21-.21.37-.41.35-1.39-.11-2.8-.06-4.17.14l-.33.05c-.49.08-.99.15-1.5.15Zm-3.84-.7ZM135.02 213.39H135a.389.389 0 0 1-.37-.4c.04-.9-.16-1.79-.37-2.73-.2-.9-.41-1.82-.39-2.78.04-2.15 1.33-4.3 3.29-5.48.38-.23.79-.43 1.2-.63.83-.41 1.62-.79 2.16-1.45.14-.17.38-.19.54-.05.16.14.19.38.05.54-.65.78-1.55 1.22-2.42 1.65-.39.19-.78.38-1.14.6-1.74 1.05-2.88 2.95-2.92 4.84-.02.86.17 1.7.38 2.59.21.95.44 1.93.39 2.94-.01.21-.18.37-.38.37Z"
  />
  <path
    d="M138.17 217.04a2.2 2.2 0 0 1-.5-.06c-.51-.14-.9-.49-1.21-.78-.59-.54-1.25-1.14-1.66-1.93-.48-.93-.49-1.96-.02-2.7.08-.13.17-.24.26-.36.09-.11.18-.22.25-.34.19-.33.2-.79.21-1.18l.05-2.08c0-.36.02-.82.26-1.21.2-.34.52-.55.82-.74 1.44-.89 2.97-1.63 4.56-2.2.2-.08.42.03.49.23s-.03.42-.23.49a23.99 23.99 0 0 0-4.42 2.13c-.23.15-.46.29-.57.48-.13.22-.14.55-.15.84l-.05 2.08c-.01.47-.03 1.04-.3 1.54-.09.16-.2.3-.32.45-.07.09-.15.18-.21.28-.32.5-.29 1.26.06 1.93.35.67.93 1.2 1.5 1.72.26.24.56.51.89.6.33.09.71 0 1.11-.09 2.56-.59 5.17-1 7.77-1.21.67-.06 1.36-.11 1.82-.49.16-.13.45-.15.58.01.14.16.16.36 0 .5l-.1.09c-.65.53-1.5.6-2.25.66-2.56.21-5.13.61-7.65 1.19-.31.07-.65.15-.99.15Z"
  />
  <path
    d="M139.15 207.52c-.12 0-.23-.05-.3-.15a.386.386 0 0 1-.05-.4c.31-.67.55-1.37.71-2.09a.38.38 0 0 1 .46-.29c.21.05.34.25.29.46-.12.53-.28 1.05-.47 1.56l4.9-.99c.21-.05.41.09.45.3s-.09.41-.3.45l-5.61 1.14h-.08Z"
  />
  <path
    d="M139.91 210.51h-.02c-.1 0-.28-.04-.43-.25-.27-.37-.3-.89-.1-1.43.16-.43.43-.78 1.63-1.9.13-.12.33-.14.48-.03.15.1.2.3.13.47l-1.18 2.76c-.15.35-.4.39-.52.39Zm.18-.71h.01-.01Z"
  />
  <path
    d="M146.22 211.54c-.46 0-.91-.04-1.35-.07l-2.02-.16c-.96-.07-2.06-.16-3.04-.59a.398.398 0 0 1-.2-.51c.09-.2.31-.28.51-.2.86.38 1.84.45 2.79.53l2.02.16c.77.06 1.57.12 2.32-.02.2-.04.25-.09.25-.09a.37.37 0 0 1 .47-.26c.21.06.32.27.27.48-.06.23-.26.52-.84.63-.39.07-.79.1-1.18.1ZM138.27 207.15h-.05l-1.08-.14a.383.383 0 0 1-.33-.43c.03-.21.23-.35.43-.33l1.07.14c.21.03.36.22.33.43-.03.19-.19.33-.38.33ZM142.86 237.58c-.06 0-.13-.02-.19-.05-1.3-.73-2.38-1.8-3.13-3.1-.19-.33-.43-.78-.49-1.29-.05-.43.02-.84.08-1.21l.63-3.83c.14-.84.29-1.79.76-2.61.29-.52.69-.95 1.07-1.37 1.5-1.67 2.82-3.33 3.97-5.01l.56-.82c1.56-2.31 3.17-4.7 5.77-5.72.2-.08.42.02.5.22.08.2-.02.42-.22.5-2.38.93-3.93 3.22-5.42 5.43l-.56.82c-1.17 1.71-2.51 3.4-3.97 5.02-.43.48-.78.86-1.03 1.3-.4.7-.53 1.54-.67 2.36l-.63 3.83c-.06.33-.11.67-.07.99.05.37.23.73.39 1a7.584 7.584 0 0 0 2.84 2.81.383.383 0 0 1-.19.72Z"
  />
  <path
    d="M144.85 238.53c-.61 0-1.21-.21-1.67-.63-.4-.37-.65-.84-.89-1.29-.19-.36-.37-.7-.62-.97l-.1-.1c-.15-.16-.32-.34-.42-.59-.11-.29-.07-.59-.04-.81l.67-5.36a.383.383 0 1 1 .76.1l-.67 5.36c-.02.16-.04.34 0 .45.04.1.14.21.25.32l.11.12c.31.34.53.74.73 1.13.22.41.42.8.73 1.08.65.6 1.8.56 2.41-.09.15-.15.39-.16.54-.02s.16.39.02.54c-.47.5-1.15.76-1.82.76Z"
  />
  <path
    d="M148 238.32c-.67 0-1.31-.2-1.8-.39-.14-.05-.29-.12-.43-.22-.21-.17-.33-.39-.43-.57-.09-.16-.16-.3-.24-.44-.19-.35-.39-.71-.55-1.09-.81-2-.33-4.24.06-6.05.04-.21.24-.34.46-.29.21.04.34.25.29.46-.45 2.09-.76 3.95-.1 5.6.14.34.32.67.51 1.01.08.14.16.29.23.43.08.16.15.28.23.35.05.04.14.08.23.11 1.01.38 1.74.44 2.32.18.13-.06.3-.15.37-.3.04-.09.03-.19 0-.22a.383.383 0 0 1-.06-.54c.13-.17.38-.19.54-.06.32.26.41.76.22 1.16-.14.28-.39.5-.75.66-.36.16-.74.22-1.11.22Z"
  />
  <path
    d="M149.13 237.15c-.2 0-.4-.04-.59-.12-.6-.26-.96-.81-1.2-1.26-.5-.91-.77-1.83-.82-2.72-.04-.76.08-1.52.21-2.25.15-.86.28-1.68.15-2.48a.385.385 0 0 1 .76-.12c.15.93 0 1.84-.15 2.73-.12.72-.24 1.4-.2 2.08.04.78.29 1.58.73 2.39.19.34.45.76.83.92.17.07.39.07.56 0 .08-.03.18-.1.22-.21.05-.12.03-.27.02-.4-.05-.42-.18-.83-.31-1.26-.16-.52-.33-1.06-.36-1.63-.06-1.17.43-2.21.9-3.21.33-.7.64-1.35.78-2.05.04-.21.24-.35.45-.3.21.04.34.25.3.45-.16.79-.51 1.52-.84 2.22-.45.96-.88 1.87-.83 2.84.03.48.17.95.32 1.45.14.45.28.91.34 1.4.03.21.04.49-.07.77-.11.28-.34.51-.64.64-.18.08-.38.11-.57.11Z"
  />
  <path
    d="M150.1 230.7a.36.36 0 0 1-.2-.06.389.389 0 0 1-.13-.53l2.02-3.34c.38-.64.78-1.3 1.1-1.98.87-1.91 1.11-4.08 1.28-6.13.02-.21.21-.36.42-.35.21.02.37.2.35.42-.17 2.13-.42 4.37-1.35 6.39-.33.72-.74 1.4-1.14 2.06l-2.02 3.34c-.07.12-.2.19-.33.19Z"
  />
  <path
    d="M154.6 220.08a.384.384 0 0 1-.31-.61c.6-.86 1.48-1.52 2.47-1.85.2-.07.42.04.49.24.07.2-.04.42-.24.49-.84.28-1.58.84-2.09 1.57-.07.11-.19.16-.31.16ZM139.41 231.75h-.02a.383.383 0 0 1-.36-.41.71.71 0 0 0-.36-.64c-.17-.08-.35-.17-.46-.36-.1-.18-.09-.36-.09-.48.2-4.45 2.11-8.83 5.23-12 1.35-1.38 2.67-2.25 4.04-2.66.21-.06.42.06.48.26s-.05.42-.26.48c-1.24.37-2.45 1.18-3.71 2.46-2.99 3.04-4.82 7.24-5.01 11.5-.02.05.03.07.06.09.57.3.88.85.85 1.4-.01.2-.18.36-.38.36ZM139.64 221.09c-.1 0-.2-.04-.27-.11-.53-.53-.43-1.31-.34-1.93.11-.82.1-1.58-.01-2.33-.03-.21.11-.41.32-.44.22-.05.41.11.44.32.13.82.14 1.66.03 2.49-.08.57-.15 1.09.11 1.35a.38.38 0 0 1-.27.65Z"
  />
  <path
    d="M139.48 224.33c-.18 0-.35-.13-.38-.32-.4-2.29.34-4.76 1.92-6.46.14-.16.39-.16.54-.02s.16.39.02.54c-1.42 1.53-2.08 3.75-1.73 5.8.04.21-.1.41-.31.45h-.07ZM182.05 220.85c-.2 0-.36-.15-.38-.35-.17-1.68-.2-3.39-.09-5.07.01-.21.16-.38.41-.36.21.01.37.2.36.41-.11 1.64-.08 3.3.09 4.95.02.21-.13.4-.34.42h-.04Z"
  />
  <path
    d="M180.29 230.41c-.12 0-.24-.06-.31-.16a.396.396 0 0 1 .09-.54c.28-.2.51-.48.64-.79.09-.21.14-.45.2-.71.3-1.45.54-2.93.7-4.4 0-.05.02-.1.04-.14.04-.08.1-.16.16-.26.12-.19.27-.44.36-.68.29-.77 0-1.75-.68-2.28-.3-.24-.67-.4-1.06-.57-.17-.07-.33-.15-.5-.22-.19-.09-.38-.19-.57-.3-.41-.22-.79-.43-1.2-.54-.73-.18-1.54-.02-2.26.13-.21.04-.41-.1-.45-.3a.38.38 0 0 1 .3-.45c.8-.16 1.7-.34 2.6-.12.51.13.95.37 1.39.61.18.1.35.19.54.28.15.08.31.14.47.21.42.18.85.37 1.23.67.94.74 1.33 2.07.93 3.15-.12.32-.29.59-.43.81-.04.06-.07.11-.1.16-.16 1.47-.39 2.95-.7 4.39-.06.29-.12.58-.24.86-.19.44-.5.83-.9 1.12-.07.05-.15.07-.22.07Z"
  />
  <path
    d="M178.52 233.45h-.03c-.26 0-.48-.11-.66-.19-.38-.17-.74-.32-1.12-.37-.37-.04-.7.04-.92.22-.16.14-.4.12-.54-.04s-.12-.4.04-.54c.38-.32.93-.47 1.51-.4.48.06.92.24 1.33.43.14.07.27.12.38.13.08 0 .17-.02.29-.08.5-.23.86-.74.92-1.29.02-.19.06-.51.32-.68l-.16-1.41c-.03-.21.13-.4.34-.43.23-.03.4.13.43.34l.18 1.51c.01.08.04.29-.12.47-.08.09-.16.13-.22.15s.02.07.01.11c-.09.83-.62 1.58-1.36 1.92-.21.1-.41.15-.6.15Zm1.59-2.82.21.28-.13-.36s-.05.05-.07.08Zm-.06.13Z"
  />
  <path
    d="M175.81 237.37a.36.36 0 0 1-.22-.07.393.393 0 0 1-.09-.54c.98-1.39 2.09-2.72 3.28-3.94a.38.38 0 0 1 .54 0c.15.15.16.39 0 .54a31.878 31.878 0 0 0-3.2 3.85.37.37 0 0 1-.31.16ZM181.99 222.7h-.05a.682.682 0 0 1-.34-.19c-.15-.2-.12-.44-.09-.62.02-.12-.07-.26-.34-.44-1.1-.73-2.36-1.21-3.59-1.67-.2-.08-.3-.3-.22-.5.08-.2.3-.3.5-.22 1.27.48 2.58.97 3.75 1.75.51.33.74.71.69 1.12 0 .05-.01.09-.02.12.08.08.12.2.1.31-.03.19-.19.34-.38.34ZM175.36 230.26c-.07 0-.15-.02-.21-.07a.387.387 0 0 1-.11-.53c.31-.46.77-.71 1.22-.95.42-.23.81-.44.98-.79.12-.24.13-.54.15-.85 0-.18.02-.36.04-.53.19-1.38 1.28-2.38 2.37-3.28.16-.14.41-.11.54.05.14.16.11.41-.05.54-1.02.84-1.94 1.69-2.1 2.8-.02.15-.03.31-.04.46-.02.36-.04.78-.23 1.16-.28.56-.82.86-1.3 1.12-.38.21-.74.41-.95.71-.07.11-.2.17-.32.17ZM152.98 234.85s-.08 0-.12-.02c-1.21-.39-2.46-.69-3.71-.9-.21-.04-.35-.23-.32-.44s.23-.35.44-.32c1.29.22 2.57.53 3.81.93.2.07.31.28.25.48-.05.16-.2.27-.37.27ZM156.52 229.45c-.15 0-.29-.08-.35-.23-.55-1.23-1.03-2.5-1.42-3.79-.21-.69-.44-1.49-.44-2.33 0-1.82.99-3.35 2.18-5.02.12-.17.36-.21.54-.09.17.12.21.36.09.54-1.11 1.56-2.03 2.98-2.03 4.57 0 .73.21 1.47.4 2.1.38 1.26.85 2.5 1.39 3.7.09.19 0 .42-.19.51-.05.02-.1.03-.16.03Z"
  />
  <path
    d="M157.55 230.19a.36.36 0 0 1-.32-.18c-.9-1.4-.97-3.13-.94-4.3.01-.44.04-.88.06-1.31.06-.99.11-1.93 0-2.87-.03-.21.13-.4.34-.43.21-.04.4.12.43.34.12 1.01.06 2.02 0 3-.03.43-.05.86-.06 1.29-.04 1.71.22 2.94.81 3.87.12.18.06.42-.12.53-.06.04-.14.06-.21.06Z"
  />
  <path
    d="M158.28 232.11h-.05c-.58-.08-.96-.64-.99-1.48a7.09 7.09 0 0 1 .57-3.04c.38-.89.93-1.67 1.47-2.39a39.71 39.71 0 0 1 4.8-5.32c.16-.14.4-.14.54.02s.13.4-.02.54c-1.72 1.59-3.3 3.34-4.7 5.22-.51.68-1.03 1.43-1.38 2.24-.36.85-.54 1.78-.5 2.7.01.34.13.72.32.74.21.03.36.22.33.43-.03.19-.19.34-.38.34Z"
  />
  <path
    d="M174.14 221.69c-.17 0-.32-.11-.37-.28-.22-.79-.54-1.55-.96-2.26-.04-.06-.07-.12-.11-.15a.823.823 0 0 0-.21-.11l-1.5-.63a.388.388 0 0 1-.23-.33c-.08-.99-.73-2.13-1.93-3.37-.38-.4-.84-.8-1.36-.83-.3-.02-.62.11-.93.22l-3.77 1.39c-1.02.38-2.07.77-2.87 1.49-.22.2-.43.42-.63.65-.68.73-1.48 1.55-2.56 1.49-.21-.01-.37-.2-.36-.41s.18-.39.41-.36c.74.06 1.32-.58 1.94-1.25.23-.24.45-.48.68-.69.9-.82 2.08-1.26 3.12-1.64l3.77-1.39c.36-.13.77-.28 1.24-.27.79.04 1.42.59 1.88 1.06 1.25 1.28 1.96 2.5 2.12 3.61l1.29.54c.12.05.29.12.44.26.11.1.18.22.25.33.45.77.8 1.59 1.03 2.45.06.2-.06.42-.27.47-.03.01-.07.01-.1.01Z"
  />
  <path
    d="M174.18 227.71c-.16 0-.32-.11-.37-.27a7.49 7.49 0 0 1-.28-1.41c-.1-1.03.04-2.06.18-3.05.04-.26.07-.52.1-.79 0-.08.02-.17 0-.22-.02-.06-.08-.14-.13-.21l-.75-.96c-.13-.17-.1-.41.07-.54.17-.13.41-.1.54.07l.75.96c.09.12.22.28.27.49.05.19.03.36.01.5-.03.27-.07.53-.1.8-.14.99-.26 1.93-.18 2.88.04.42.12.85.25 1.25.06.2-.05.42-.25.48-.04.01-.08.02-.11.02Z"
  />
  <path
    d="M175.7 237.13c-.15 0-.28-.08-.35-.22-.34-.75-.69-1.55-.81-2.41-.09-.62-.06-1.25-.04-1.85.01-.23.02-.47.02-.7.03-2.53-.8-5.03-2.34-7.04-.13-.17-.1-.41.07-.54.17-.13.41-.1.54.07 1.64 2.15 2.53 4.82 2.5 7.52 0 .24-.01.49-.02.73-.03.59-.05 1.15.03 1.7.11.77.43 1.51.75 2.21.09.19 0 .42-.19.51a.47.47 0 0 1-.16.04Z"
  />
  <path
    d="M177.78 254.06c-.21 0-.38-.16-.38-.37l-.31-7.7c-.09-2.36-.19-4.8-.85-7.1-.2-.68-.47-1.44-1.04-1.92-.17-.14-.36-.26-.54-.37-.17-.11-.34-.21-.5-.33-.87-.65-1.37-1.68-1.77-2.5a.398.398 0 0 1 .18-.52c.19-.1.42-.01.52.18.38.79.82 1.68 1.54 2.22.14.11.29.2.44.29.22.14.44.27.64.44.72.61 1.05 1.5 1.28 2.29.69 2.39.79 4.88.88 7.29l.31 7.7c0 .21-.16.39-.37.4h-.02ZM169.94 272.67c-.15 0-.29-.09-.35-.24a175.48 175.48 0 0 1-11.83-42.22c-.03-.21.11-.41.32-.44.23-.04.41.11.44.32 2.15 14.44 6.12 28.58 11.78 42.03.08.2-.01.42-.21.5-.05.02-.1.03-.15.03Z"
  />
  <path
    d="M178.99 265.07a.38.38 0 0 1-.38-.38 92.3 92.3 0 0 0-1.08-13.28c-.03-.21.11-.41.32-.44.22-.04.41.11.44.32a92.29 92.29 0 0 1 1.09 13.39c0 .21-.17.39-.38.39Z"
  />
  <path
    d="M182.95 276.43c-.15 0-.29-.09-.35-.23-.53-1.24-.69-2.58-.84-3.88-.17-1.42-.33-2.76-.93-3.95-.42-.83-1.02-1.53-1.65-2.28-.15-.18-.31-.36-.46-.54-.24-.29-.48-.59-.72-.89-.56-.71-1.14-1.44-1.79-2.07-1.89-1.81-4.5-2.83-6.8-3.74-.2-.08-.3-.3-.22-.5.08-.2.3-.3.5-.22 2.37.93 5.05 1.98 7.05 3.9.69.66 1.29 1.42 1.86 2.15.23.3.47.59.71.88l.45.54c.64.75 1.3 1.52 1.75 2.43.66 1.32.84 2.79 1 4.21.15 1.3.3 2.53.79 3.66.08.2 0 .42-.2.51-.05.02-.1.03-.15.03Z"
  />
  <path
    d="M176.42 278.59c-.46 0-.92-.05-1.35-.1l-6.13-.7c-.2-.02-.35-.2-.34-.4.1-2.64.22-5.92-1.2-8.5-.1-.19-.04-.42.15-.52.18-.1.42-.04.52.15 1.46 2.65 1.41 5.88 1.31 8.54l5.78.66c.76.09 1.62.19 2.36-.06.48-.16.91-.45 1.36-.77.27-.19.55-.38.84-.54 1.14-.64 2.54-.86 3.82-.59.21.04.34.25.3.45a.38.38 0 0 1-.45.3c-1.1-.23-2.3-.04-3.28.51-.27.15-.52.33-.78.5-.48.33-.97.67-1.55.86-.44.15-.9.2-1.34.2Z"
  />
  <path
    d="M176.28 277.48c-.44 0-.87-.05-1.26-.09-1.99-.24-3.97-.67-5.89-1.27a.378.378 0 0 1-.25-.48c.06-.2.28-.31.48-.25 1.87.58 3.8 1 5.75 1.24.64.08 1.38.15 2.06 0 .65-.14 1.23-.47 1.86-.82.27-.15.55-.31.83-.44.89-.44 2.19-.83 3.29-.23.19.1.25.34.15.52-.1.19-.34.25-.52.15-.86-.47-1.99-.05-2.58.24-.27.13-.53.28-.79.42-.64.36-1.31.73-2.07.9-.35.08-.7.11-1.05.11ZM154.02 241.25c-.18 0-.34-.12-.38-.31-.46-2.19-1.02-4.91-.25-7.37.54-1.72 1.69-3.16 2.63-4.22a.38.38 0 0 1 .54-.03c.16.14.17.38.03.54-.89 1-1.97 2.35-2.47 3.94-.72 2.27-.19 4.78.27 6.98.04.21-.09.41-.3.46h-.08Z"
  />
  <path
    d="M158.93 292.93h-.03a.39.39 0 0 1-.36-.41c.12-1.9 0-3.82-.37-5.69-.39-1.18-.21-3.11-.02-5.16.07-.74.14-1.51.19-2.26.13-2.14.04-4.31-.05-6.42l-.58-14.1c-.05-1.32-.11-2.68-.47-3.94-.1-.36-.23-.72-.36-1.08-.28-.79-.57-1.61-.61-2.49-.01-.32 0-.64.03-.96.02-.36.05-.69.02-1.02-.08-.92-.56-1.74-1.06-2.61-.21-.36-.42-.72-.6-1.09-1.55-3.14-1.04-7.2 1.24-9.86.14-.16.38-.18.54-.04.16.14.18.38.04.54-2.09 2.43-2.55 6.14-1.14 9.01.17.35.37.7.57 1.04.52.9 1.06 1.84 1.16 2.92.04.39 0 .77-.02 1.15-.02.29-.04.58-.03.87.03.76.29 1.49.56 2.27.13.37.26.75.37 1.13.38 1.35.44 2.76.49 4.12l.58 14.1c.09 2.12.18 4.31.04 6.49-.05.76-.12 1.53-.19 2.28-.18 1.96-.35 3.82 0 4.89.39 1.98.52 3.96.39 5.93-.01.2-.18.36-.38.36Z"
  />
  <path
    d="M170.37 296.51h-.14l-2.96-.22c-1.59-.12-3.24-.24-4.85-.5-1.25-.2-2.51-.49-3.72-.87-.21-.07-.51-.16-.74-.37-.43-.39-.52-1.07-.25-1.81.04-.12.09-.24.14-.36.13-.32.26-.63.24-.91a.38.38 0 0 1 .36-.4c.21-.03.39.15.4.36.03.46-.15.88-.3 1.25-.04.11-.09.22-.13.32-.12.33-.18.78.05.98.1.09.25.14.44.2 1.18.36 2.4.64 3.62.84 1.57.25 3.2.37 4.77.49l2.96.22h.09c0-.01 0-.05.01-.11.52-3.14.96-7.72-1.15-11.25a.389.389 0 0 1 .13-.53c.18-.11.42-.05.53.13 2.24 3.75 1.78 8.51 1.25 11.76-.02.15-.07.46-.35.64-.15.1-.31.12-.44.12Z"
  />
  <path
    d="M170.91 290.33s-.08 0-.12-.02a.387.387 0 0 1-.24-.49c.67-1.98 1.31-4.12 1.51-6.31.21-2.34-.13-4.49-1-6.21-.1-.19-.02-.42.17-.52.19-.1.42-.02.52.17.93 1.85 1.31 4.15 1.08 6.63-.21 2.27-.87 4.46-1.55 6.48-.05.16-.2.26-.36.26ZM159.01 279.44s-.06 0-.1-.01a.384.384 0 0 1-.28-.47l2.1-8.25c.05-.2.26-.33.47-.28.21.05.33.26.28.47l-2.1 8.25c-.04.17-.2.29-.37.29ZM167.38 290.72c-.09 0-.18-.03-.25-.09l-2.66-2.28c-.58-.5-1.15-1.05-1.2-1.83-.08-1.12.97-1.91 1.97-2.18.34-.09.69-.14 1.04-.19.53-.08 1.04-.15 1.48-.37.19-.09.42-.01.51.18.09.19.01.42-.18.51-.55.26-1.13.35-1.7.44-.32.05-.64.09-.95.18-.71.19-1.44.73-1.4 1.38.03.49.48.91.94 1.3l2.66 2.28a.381.381 0 0 1-.25.67ZM159.56 229.57c-.2 0-.4-.09-.54-.23a.63.63 0 0 1-.17-.5c.03-.21.2-.37.43-.33.16.02.29.14.33.29.05-.03.14-.1.2-.14l5.75-4.31c.17-.13.41-.09.54.08.13.17.09.41-.08.54l-5.75 4.32c-.15.11-.37.28-.67.3h-.04ZM136.51 228.91c-.15 0-.29-.08-.35-.23-2.77-6.2-4.26-13.31-4.56-21.76-.26-7.44.46-14.96 1.14-22.23.02-.21.22-.37.42-.35.21.02.37.21.35.42-.69 7.25-1.39 14.74-1.14 22.13.29 8.35 1.75 15.37 4.49 21.47.09.19 0 .42-.19.51-.05.02-.1.03-.16.03ZM182.94 215.13h-.07a.386.386 0 0 1-.31-.45c.37-2.08.37-4.19-.02-6.27-.04-.21.1-.41.31-.45.22-.04.41.1.45.31.41 2.17.42 4.37.03 6.55-.03.19-.2.32-.38.32ZM179.74 241.08c-.19 0-.31-.08-.39-.16-.1-.11-.15-.34-.1-.48.06-.18.22-.31.39-.32.11-.02.25.04.34.12l7.22-2.34c.81-.26 1.82-.59 2.38-1.32.65-.84.68-2.1.1-3.87-.33-.99-.77-2.1-1.61-2.88-1.42-1.32-3.64-1.39-5.78-1.34a.38.38 0 0 1-.38-.38c0-.21.16-.39.38-.39 2.3-.04 4.69.03 6.32 1.55.97.9 1.46 2.12 1.82 3.2.67 2.03.59 3.52-.22 4.58-.71.91-1.84 1.28-2.75 1.58l-7.43 2.41c-.1.04-.19.05-.27.05ZM152.68 243.14c-7.7-.09-15.67-.19-23.18-2.66-1.58-.52-3.76-1.43-4.48-3.39-.41-1.12-.29-2.45.35-3.96.64-1.5 1.62-2.86 2.84-3.94.49-.43 1.15-.94 1.98-1.07.56-.09 1.13.01 1.63.1l5.43 1c.21.04.35.24.31.45-.04.21-.24.34-.45.31l-5.43-1c-.46-.09-.93-.17-1.37-.1-.63.1-1.18.53-1.59.89-1.14 1-2.05 2.27-2.65 3.66-.56 1.32-.68 2.46-.34 3.39.6 1.64 2.57 2.46 3.99 2.92 7.39 2.43 15.3 2.53 22.95 2.62.21 0 .38.18.38.39 0 .21-.17.38-.38.38ZM155.5 268.92c-.19 0-.36-.15-.38-.34-.11-1-.04-2 .2-2.98.04-.15.15-.26.3-.29l1.68-.34c-.62-3.21-.75-6.23-.87-9.15l-.05-1.24c0-.21.16-.39.37-.4h.02c.2 0 .37.16.38.37l.05 1.24c.12 3 .25 6.11.93 9.4.02.1 0 .2-.06.29a.36.36 0 0 1-.24.16l-1.81.37c-.17.82-.21 1.65-.13 2.48.02.21-.13.4-.34.42h-.04ZM118.07 285.16c-.44 0-.88-.05-1.32-.16a.383.383 0 0 1-.29-.33c-.14-1.33.56-2.77 1.83-3.77 1.11-.87 2.48-1.34 3.7-1.76l31.49-10.76c.2-.07.42.04.49.24.07.2-.04.42-.24.49l-31.49 10.76c-1.21.42-2.47.85-3.47 1.63-.77.61-1.55 1.65-1.55 2.81 1.78.34 3.63-.47 5.42-1.25l.16-.07c4.67-2.04 9.58-3.55 14.6-4.48.44-.08.88-.16 1.33-.24 1.93-.34 3.93-.69 5.76-1.41.5-.2.99-.42 1.49-.65 1.64-.74 3.33-1.51 5.17-1.29.21.03.36.22.34.43-.03.21-.21.36-.43.34-1.61-.19-3.14.5-4.76 1.23-.51.23-1.02.46-1.52.66-1.9.75-3.94 1.11-5.91 1.45-.44.08-.88.15-1.32.24-4.96.92-9.81 2.41-14.43 4.43l-.16.07c-1.51.66-3.18 1.4-4.87 1.4ZM144.98 294.11c-.67 0-1.33-.2-1.85-.68a.355.355 0 0 1-.12-.32c.2-1.88 1.04-3.61 1.97-5.37 2.77-5.27 5.83-10.47 9.1-15.45.12-.18.36-.23.53-.11s.23.36.11.53c-3.26 4.96-6.31 10.13-9.06 15.39-.88 1.69-1.63 3.22-1.86 4.89.87.64 2.25.35 3.09-.33.92-.74 1.5-1.86 2.06-2.95l.13-.26c1.98-3.84 4.46-7.42 7.35-10.64a.38.38 0 0 1 .54-.03c.16.14.17.39.03.54a50.065 50.065 0 0 0-7.24 10.48l-.13.26c-.6 1.16-1.21 2.36-2.27 3.2-.65.52-1.54.85-2.4.85ZM146.89 303.03h-.2c-1.51-.08-2.89-1.09-3.35-2.46-.74-2.19.91-4.32 1.65-5.13.8-.88 1.55-1.45 2.35-1.77 1.05-.42 2.19-.38 3.04.11.67.39 1.21 1.07 1.6 2.02.63 1.51.19 3.02-1.57 5.4-.85 1.15-2.18 1.84-3.52 1.84Zm1.92-8.89c-.38 0-.79.08-1.18.24-.69.28-1.35.78-2.07 1.57-.65.71-2.09 2.57-1.49 4.37.36 1.06 1.47 1.87 2.66 1.94 1.14.03 2.34-.54 3.07-1.52 1.57-2.13 1.98-3.43 1.48-4.65-.33-.79-.76-1.35-1.28-1.65-.34-.2-.75-.3-1.18-.3Z"
  />
  <path
    d="M117.9 293.04c-.22 0-.46-.02-.69-.11-.45-.16-.83-.54-1.14-1.14-.84-1.63-.71-3.63.32-4.99 1.12-1.47 3.28-1.98 4.81-1.12.99.55 1.71 1.64 1.85 2.83.15 1.17-.22 2.32-1.26 3.99a.39.39 0 0 1-.27.18c-1.09.16-2.19.27-3.27.34-.11 0-.23.02-.36.02Zm3.57-.74h.01-.01Zm-1.94-6.28c-.94 0-1.92.45-2.53 1.24-.86 1.12-.96 2.8-.25 4.17.22.42.45.67.72.77.2.07.44.07.74.05 1-.06 2.02-.17 3.03-.31.87-1.42 1.17-2.39 1.06-3.33-.12-.96-.68-1.82-1.47-2.26-.4-.22-.85-.32-1.3-.32ZM188.75 303.55c-.81 0-1.63-.13-2.39-.39-2.54-.85-4.3-2.92-6-4.93-.77-.91-1.58-1.85-2.43-2.66l-.25-.24c-.44-.41-.9-.83-1.23-1.37-.62-1.01-.66-2.2-.7-3.34 0-.25-.02-.51-.03-.76-.09-1.45-.44-2.91-.77-4.32l-1.71-7.15c-.05-.21.08-.41.28-.46.21-.06.41.08.46.28l1.71 7.15c.35 1.44.7 2.94.79 4.46.02.26.02.52.03.78.04 1.09.07 2.12.58 2.97.27.45.67.81 1.1 1.2l.26.24c.89.84 1.71 1.79 2.49 2.72 1.71 2.01 3.33 3.91 5.66 4.7 1.18.4 2.49.45 3.69.17.63-.15 1.22-.39 1.85-.64l.55-.22c2.46-.94 5.04-1.49 7.67-1.63.39-.02.74-.04.99-.21.44-.3.45-1.05.26-1.66-.57-1.88-2.18-3.25-3.74-4.58l-.14-.12a92.484 92.484 0 0 1-9.59-9.5c-1.03-1.19-2.1-2.47-2.85-3.99-.18-.36-.34-.73-.49-1.1-.45-1.04-.87-2.01-1.65-2.69a.381.381 0 0 1-.04-.54c.14-.16.38-.18.54-.04.92.79 1.4 1.9 1.86 2.97.15.36.31.72.48 1.06.71 1.43 1.74 2.67 2.74 3.82 2.92 3.36 6.12 6.53 9.51 9.42l.14.12c1.64 1.4 3.34 2.85 3.98 4.95.26.86.24 1.97-.57 2.52-.43.29-.92.31-1.37.34-2.57.13-5.07.67-7.45 1.58l-.55.21c-.63.25-1.28.51-1.96.67-.56.14-1.15.2-1.73.2ZM153.84 316.3h-.28c-.58-.03-1.04-.17-1.41-.41-.51-.34-.89-.92-1.09-1.69-.59-2.24.5-4.55 1.51-6.31.49-.85 1.01-1.69 1.53-2.53 1.96-3.17 3.98-6.44 4.26-10.1.02-.21.21-.38.41-.35.21.02.37.2.35.41-.3 3.84-2.37 7.2-4.38 10.44-.52.84-1.03 1.67-1.51 2.51-.94 1.63-1.95 3.76-1.44 5.73.11.4.33.95.77 1.24.26.17.59.26 1.03.29 1.13.05 2.21-.33 3.35-.74.82-.3 1.67-.61 2.55-.74.75-.11 1.53-.1 2.27-.09 1.14.02 2.22.04 3.19-.37 1.71-.73 2.63-2.62 3.25-4.19.62-1.57 1.27-3.61.78-5.47-.08-.32-.2-.64-.31-.97-.38-1.08-.77-2.2-.21-3.26.09-.18.21-.34.33-.5.1-.14.21-.28.29-.44.29-.59.12-1.33-.09-2.11a.37.37 0 0 1 .27-.47c.21-.06.42.06.47.27.19.7.49 1.76.04 2.66-.1.2-.23.38-.36.55-.1.13-.19.26-.27.4-.4.76-.08 1.68.25 2.65.12.34.24.69.33 1.02.54 2.08-.15 4.27-.81 5.95-.67 1.71-1.7 3.78-3.66 4.61-1.12.48-2.34.46-3.5.44-.71-.01-1.45-.03-2.14.08-.81.12-1.62.42-2.4.7-1.08.39-2.19.8-3.38.8Z"
  />
  <path
    d="M194.6 288.42c-.18 0-.35-.13-.38-.32-.04-.21.1-.41.31-.45l.95-.16s.06-.01.09-.02v-.08c.06-.59-.16-1.24-.69-2.05-.48-.72-1.05-1.38-1.7-1.96-1.69-1.49-3.84-2.36-5.93-3.2-.2-.08-.29-.3-.21-.5.08-.2.31-.29.5-.21 2.14.86 4.36 1.76 6.15 3.34.7.62 1.32 1.33 1.83 2.11.63.96.89 1.76.81 2.54-.02.17-.06.41-.26.59-.16.14-.35.17-.47.19l-.95.16h-.07ZM187.94 277.66c-.32 0-.62-.02-.9-.04a.39.39 0 0 1-.36-.41c.01-.21.2-.38.41-.36.75.05 1.6.1 2.29-.22.58-.27 1.06-.97.84-1.56-.13-.33-.47-.61-.94-.77-.29-.1-.61-.15-.94-.21-.19-.03-.39-.07-.58-.11-.88-.19-1.68-.57-2.46-.94-.52-.24-1.06-.5-1.6-.68a.387.387 0 0 1-.24-.49c.07-.2.29-.3.49-.24.58.2 1.13.46 1.67.71.78.36 1.51.71 2.3.88.18.04.36.07.54.1.35.06.7.12 1.06.24.7.24 1.2.67 1.41 1.22.39 1.02-.33 2.11-1.23 2.53-.57.26-1.18.33-1.77.33Z"
  />
  <path
    d="M193.12 282.55a.4.4 0 0 1-.36-.24c-.08-.2.01-.42.21-.5.5-.21.88-.76.95-1.38.06-.56-.11-1.2-.48-1.8-.24-.38-.51-.67-.8-.86-.66-.42-1.51-.43-2.49-.39-.18 0-.36.01-.48.08-.1.06-.2.18-.28.28-.44.58-.8 1.21-1.08 1.87-.08.2-.31.29-.5.21-.2-.08-.29-.3-.21-.5.3-.73.7-1.42 1.18-2.05.14-.18.3-.37.53-.49.28-.15.58-.16.82-.17.9-.03 2.02-.07 2.94.51.39.25.74.62 1.04 1.09.47.74.68 1.56.6 2.3-.1.9-.66 1.69-1.42 2-.05.02-.1.03-.15.03ZM200.17 294.16c-.16 0-.31-.1-.36-.26-.07-.2.04-.42.24-.49.08-.03.16-.21.15-.53 0-1.31-.49-2.64-1.33-3.65-.14-.16-.3-.34-.48-.39-.17-.05-.39.02-.66.1l-2.34.75c-.2.06-.42-.05-.48-.25s.05-.42.25-.48l2.34-.75c.29-.09.68-.22 1.09-.11.38.1.66.38.87.64.96 1.16 1.5 2.63 1.51 4.14 0 .65-.24 1.11-.67 1.26-.04.01-.08.02-.12.02Z"
  />
</svg>
