<svg xmlns="http://www.w3.org/2000/svg" viewBox="0 0 320 320" opacity="0.6">
  <path
    d="m312.95-15.4 24.13-26.59 38.14-39.83 30.76-32.59 31.11-31.57 26.75-27 25.64-24.88c.2-.19.51-.19.71 0 .19.2.19.52-.01.71l-25.64 24.87-26.74 26.99-31.1 31.56-30.75 32.58-38.13 39.83L299.81.6s-.05.08-.08.11L245.7 60.74l-65.2 85.32c-.1.13-.25.2-.4.2a.496.496 0 0 1-.39-.8l65.22-85.35L298.95.09l.03-.06s.05-.08.08-.11l13.9-15.31M147.57 74.95h-.02a.502.502 0 0 1-.48-.52c.05-1.16.46-2.25.88-3.27 1.78-4.33 3.83-7.84 6.26-10.75.63-.76 1.35-1.54 2.26-2.09 1.71-1.02 3.97-1.17 6.74-.44.83.22 1.9.56 2.81 1.21 1.29.93 2.08 2.33 2.78 3.57.23.4.46.81.61 1.27.33.96.27 1.95.21 2.9-.04.75-.09 1.46.05 2.13a.5.5 0 1 1-.98.2c-.16-.8-.11-1.61-.07-2.39.05-.9.1-1.75-.16-2.52-.12-.37-.32-.72-.53-1.09-.65-1.15-1.38-2.46-2.5-3.25-.78-.56-1.74-.86-2.49-1.06-2.49-.66-4.5-.56-5.97.33-.78.47-1.43 1.18-2.01 1.87-2.36 2.83-4.36 6.26-6.1 10.49-.39.93-.77 1.93-.81 2.93-.01.27-.23.48-.5.48Z"
  />
  <path
    d="M148.23 73.27c-.24 0-.45-.17-.49-.41-.16-.9.29-1.7.72-2.39 2.04-3.24 4.02-5.5 6.21-7.09 1.57-1.14 3.03-1.73 4.46-1.8 2.06-.11 4 .92 5.78 2.04.7.44 1.5.96 2.22 1.6a9.916 9.916 0 0 1 2.81 4.25c.09.26-.05.54-.32.63a.493.493 0 0 1-.63-.32 8.792 8.792 0 0 0-2.53-3.82c-.67-.59-1.43-1.09-2.09-1.5-1.52-.96-3.31-1.97-5.2-1.89-1.22.06-2.51.59-3.92 1.61-2.09 1.52-3.98 3.68-5.95 6.81-.33.53-.68 1.13-.58 1.68.05.27-.13.53-.4.58h-.09Z"
  />
  <path
    d="M147.27 74.33h-.01a.49.49 0 0 1-.49-.51c.03-1.66-.75-3.18-1.59-4.79-.25-.47-.49-.94-.71-1.42-.12-.26-.24-.54-.25-.87-.01-.34.1-.65.22-.93.86-2 2.38-3.6 3.75-4.9 1.57-1.49 3.27-2.88 5.04-4.13.2-.14.44-.31.74-.41.36-.12.73-.11.99-.09 4.01.15 6.92.95 9.16 2.53.23.16.28.47.12.7-.16.23-.47.28-.7.12-2.07-1.46-4.81-2.21-8.62-2.35-.26 0-.47-.01-.65.05-.16.05-.32.17-.47.27a44.31 44.31 0 0 0-4.92 4.03c-1.3 1.23-2.73 2.74-3.52 4.57-.07.16-.14.35-.14.5 0 .14.08.3.16.48.22.46.46.92.69 1.38.86 1.65 1.74 3.35 1.7 5.27a.5.5 0 0 1-.5.49Z"
  />
  <path
    d="M148.39 81.04a.49.49 0 0 1-.32-.12c-1.4-1.18-2.56-2.79-3.42-4.78-.19-.42-.39-.93-.5-1.49-.12-.62-.1-1.24-.08-1.84l.15-5.26c0-.28.24-.47.51-.49.28 0 .49.24.49.51l-.15 5.26c-.02.57-.03 1.11.07 1.62.09.46.27.91.43 1.28.52 1.18 1.14 2.21 1.85 3.09-.44-1.97-.62-3.99-.52-6.03.01-.28.25-.51.52-.48.28.01.49.25.48.52-.12 2.56.21 5.09.98 7.54a.498.498 0 0 1-.48.65Z"
  />
  <path
    d="M149.86 87.88c-.06 0-.12 0-.18-.03-1.43-.41-2.49-1.52-3.45-2.61-.93-1.06-1.8-2.13-2.16-3.47-.15-.57-.16-1.05-.04-1.49.17-.6.64-1.07 1.18-1.2.48-.11 1.01.02 1.58.39.85.56 1.53 1.4 1.9 2.35.1.26-.03.55-.28.65-.26.1-.55-.03-.65-.28-.3-.76-.84-1.43-1.52-1.88-.33-.22-.6-.3-.79-.25-.2.05-.38.25-.45.5-.07.26-.06.57.04.96.3 1.13 1.09 2.1 1.94 3.07.81.92 1.68 1.85 2.75 2.24.14-.08.32-.09.47-.02.23.12.36.44.27.68-.09.24-.35.4-.62.4Zm.09-.99Z"
  />
  <path
    d="M147.95 85.37c-.14 0-.29-.06-.38-.18a.559.559 0 0 1-.13-.28.913.913 0 0 0-.08-.13s-.05-.08-.05-.09c-.16-.26-.24-.5-.3-.76-.5-.04-.82-.2-1.05-.51-.29-.4-.31-.94-.05-1.3.14-.19.32-.3.46-.38l.15-.09c.21-.18.52-.16.71.04.18.21.16.52-.04.71-.09.08-.2.15-.31.21-.05.03-.13.07-.15.1 0 0 0 .07.05.13.03.04.09.13.65.11.26-.03.5.19.52.46.03.32.07.53.22.78.05.08.09.15.13.22.07.08.12.19.13.3 0 .02.01.04.02.07a.503.503 0 0 1-.49.6ZM162.55 96.13a.49.49 0 0 1-.48-.38c-.07-.27.09-.54.36-.61 1.07-.27 2.13-.64 3.14-1.08.26-.12.52-.23.71-.4.19-.16.33-.33.41-.49.71-1.37 1.28-2.42 1.75-3.27q1.99-3.61 1.73-9.8c-.02-.43.02-.84.05-1.25.04-.45.07-.87.04-1.28-.06-.71-.23-1.41-.41-2.15l-1.61-6.53c-.07-.27.1-.54.37-.61.27-.07.54.1.6.37l1.61 6.53c.18.75.37 1.52.44 2.32.04.5 0 .98-.04 1.44-.03.39-.06.76-.05 1.12.27 6.34.23 6.53-1.85 10.32-.47.85-1.04 1.89-1.74 3.25-.14.28-.36.54-.65.79-.29.25-.64.41-.96.56-1.06.46-2.17.84-3.29 1.13-.04.01-.08.02-.12.02ZM152.17 96.89h-.03a.487.487 0 0 1-.47-.52c.11-2.11.09-4.32-.74-6.24-.11-.24-.23-.48-.34-.72-.38-.76-.77-1.55-.79-2.45 0-.28.21-.51.48-.52.26.01.51.21.52.48.02.69.35 1.35.69 2.04.13.26.25.51.37.77.92 2.1.94 4.46.83 6.69a.49.49 0 0 1-.5.47ZM153.86 81.17c-.06 0-.13 0-.2-.02-.27-.05-.46-.21-.6-.31l-3.53-2.71a.504.504 0 0 1-.2-.82c1.38-1.48 2.94-3.15 5-4.01.55-.23 1.05-.36 1.53-.4.69-.05 1.35.09 1.99.22l1.61.35c.45.1 1.01.22 1.45.61.49.43.73 1.14.66 1.9-.06.62-.31 1.17-.56 1.69-.33.7-.74 1.48-1.43 2.03-.94.75-2.1.88-3.22 1-.67.07-1.31.14-1.89.33-.18.06-.38.13-.6.13Zm-3.41-3.59 3.23 2.47s.14.11.18.12c.04.01.17-.04.25-.06.73-.24 1.45-.32 2.14-.4 1.02-.11 1.99-.21 2.7-.78.52-.42.86-1.06 1.16-1.69.22-.45.42-.9.46-1.35.04-.43-.08-.83-.33-1.05-.24-.22-.64-.3-1-.38l-1.61-.35c-.59-.13-1.15-.25-1.7-.2-.37.03-.77.13-1.22.32-1.67.7-3.04 2.06-4.25 3.35Z"
  />
  <path
    d="M167.97 79.12c-.84 0-1.64-.21-2.46-.44-.24-.07-.54-.15-.82-.34-.29-.2-.48-.48-.64-.71l-1.7-2.48a.495.495 0 0 1 .02-.59c.64-.81 1.37-1.56 2.17-2.21.23-.18.49-.39.81-.52.67-.28 1.38-.17 1.99-.05.58.11 3.5.73 4.33 1.74.08.1.12.21.11.33 0 .04 0 .09-.01.13-.08.33-.1.66-.12 1.01-.02.38-.04.78-.15 1.2-.12.5-.26 1.06-.59 1.56-.53.79-1.52 1.3-2.65 1.37h-.29Zm-4.59-4.23 1.49 2.17c.12.18.25.36.39.46.13.09.34.15.51.2.83.23 1.64.44 2.42.39.82-.05 1.52-.39 1.88-.92.23-.35.35-.8.46-1.24.08-.33.1-.66.12-1.01.02-.3.03-.61.09-.93-.55-.42-1.98-.93-3.59-1.25-.49-.1-1-.18-1.41 0-.19.08-.38.23-.56.37-.65.53-1.24 1.12-1.78 1.77Z"
  />
  <path
    d="M161.02 75.6c-.24 0-.45-.17-.49-.42-.05-.27.14-.53.41-.58l2.13-.36c.27-.05.53.14.58.41s-.14.53-.41.58l-2.13.36h-.08ZM147.44 80.25a.501.501 0 0 1-.37-.84c.65-.71 1.34-1.41 2.05-2.06.2-.18.52-.17.71.03.19.2.17.52-.03.71-.69.63-1.36 1.31-1.99 2-.1.11-.23.16-.37.16Z"
  />
  <path
    d="M147.88 80.31c-.17 0-.34-.09-.44-.25a.494.494 0 0 1 .19-.68c.69-.39 1.34-.86 1.92-1.39.21-.19.52-.17.71.03.19.2.17.52-.03.71-.64.59-1.35 1.1-2.11 1.52-.08.04-.16.06-.24.06ZM161.67 83.01s-.07 0-.11-.01l-.61-.14a.503.503 0 0 1 .22-.98l.61.14c.27.06.44.33.38.6-.05.23-.26.39-.49.39ZM164.13 82.65a.504.504 0 0 1-.27-.93l.86-.53c.24-.14.54-.07.69.17.14.24.07.54-.17.69l-.86.52c-.08.05-.17.07-.26.07ZM149.27 72.65c-.05 0-.11 0-.16-.03a.495.495 0 0 1-.31-.63c.56-1.66 1.91-2.78 3.21-3.86.28-.24.57-.47.84-.71.48-.42.94-.88 1.4-1.33.56-.55 1.15-1.13 1.77-1.65 1.4-1.17 2.74-1.83 4.09-2.01.27-.03.53.15.56.43a.49.49 0 0 1-.43.56c-1.16.16-2.33.74-3.59 1.79-.59.5-1.16 1.05-1.72 1.59-.47.46-.95.93-1.44 1.36-.28.24-.57.49-.86.73-1.25 1.04-2.43 2.02-2.9 3.41-.07.21-.27.34-.47.34ZM162 88.22c-1.42 0-2.84-.36-4.05-1.1-.17-.1-.26-.3-.24-.5s.17-.36.37-.41c2.9-.78 5.9-1.18 8.91-1.21.1.03.2.03.28.08.01 0 .02.01.04.02.24.13.34.43.21.67-.25.48-.66.81-.99 1.04-1.3.93-2.91 1.4-4.52 1.4Zm-2.3-1.38c2.05.71 4.44.43 6.21-.81-2.09.08-4.17.35-6.21.81Z"
  />
  <path
    d="m162.51 86.93-.05-.82c-.02-.28.19-.51.47-.53s.51.19.53.47l.04.74-.49.11-.5.03ZM161.68 87.67c-.28 0-.5-.22-.5-.5v-.72c0-.28.22-.5.5-.5s.5.22.5.5v.72c0 .28-.22.5-.5.5ZM164.35 87.27c-.28 0-.5-.22-.5-.5v-.69c0-.28.22-.5.5-.5s.5.22.5.5v.69c0 .28-.22.5-.5.5ZM153.16 74.72c-.15 0-.29-.03-.43-.08h-.04a.515.515 0 0 1-.42-.58c.03-.23.22-.39.43-.42.04 0 .07-.01.11-.02.12 0 .24-.01.36-.02.01-.03.03-.06.05-.08.09-.13.24-.21.41-.21h.15c.08-.07.18-.11.29-.11h.22s.01-.02.02-.03c.09-.07.19-.1.28-.12.11-.1.25-.19.38-.18.13-.1.31-.13.46-.08a.53.53 0 0 1 .41-.05l.17.06c.16-.06.34-.06.48-.03.46.1.94.17 1.41.19.08-.01.23-.02.3 0 .13.04.25.11.35.19.04 0 .08.02.11.04l.15.08c.24.14.32.44.19.68-.13.23-.42.31-.65.2-.16 0-.31-.08-.41-.21h-.1c-.48-.02-.97-.08-1.44-.18-.13.09-.29.11-.44.06h-.02c-.08.04-.16.07-.26.06h-.13c-.11.07-.25.1-.4.06l-.06-.02c-.07.05-.14.09-.21.1-.08.07-.18.12-.29.14-.01.02-.03.04-.05.06a.48.48 0 0 1-.48.15c-.06.05-.13.09-.2.11-.07.02-.15.04-.22.05-.07.08-.17.15-.29.17-.07.01-.13.02-.2.02Z"
  />
  <path
    d="M151.94 75.48c-.2 0-.4-.13-.47-.33-.09-.24.02-.5.24-.62.04-.06.09-.1.15-.13l.03-.03.22-.17c.22-.17.53-.12.7.1.11.14.13.32.07.47 0 .04 0 .09-.01.13-.05.2-.21.35-.41.38a.24.24 0 0 1-.12.07l-.22.08c-.06.02-.11.03-.17.03ZM163.89 73.84s-.07 0-.1-.01a.488.488 0 0 1-.4-.51l.02-.2a.51.51 0 0 1 .44-.46c.04-.02.08-.04.13-.05l.11-.18a.49.49 0 0 1 .53-.23c.05-.04.12-.07.18-.08.05-.08.1-.17.14-.26.1-.22.34-.33.58-.27.04-.01.08-.02.12-.02l.07-.07c.13-.12.3-.17.47-.13.13-.04.27-.02.39.05.12-.02.26 0 .36.07h.64c.28 0 .5.22.5.5s-.22.5-.5.5h-.76s-.12 0-.18-.02c-.05.01-.1.02-.15.02-.05 0-.11 0-.16-.02-.08.06-.18.09-.28.09l-.03.03c-.08.08-.19.13-.3.14l-.04.04c-.06.07-.14.12-.23.15-.05.06-.09.12-.14.18-.08.09-.18.15-.29.17l-.06.09c-.09.16-.26.25-.43.25-.11.14-.28.22-.46.19-.05.02-.11.03-.16.03Zm2.91-2.35ZM153.4 77.6c-.15 0-.3-.07-.4-.2a.505.505 0 0 1 .1-.7 7.006 7.006 0 0 1 5.41-1.28.499.499 0 0 1-.18.98c-1.61-.29-3.3.11-4.63 1.1-.09.07-.19.1-.3.1ZM169.28 76.11a.51.51 0 0 1-.31-.11c-.78-.62-1.83-.91-2.82-.8-.5.06-.91.22-1.2.46-.21.18-.53.15-.7-.06a.493.493 0 0 1 .06-.7c.44-.37 1.02-.6 1.73-.69 1.27-.16 2.56.21 3.56 1.01.22.17.25.49.08.7-.1.12-.24.19-.39.19ZM148.65 73.05a.53.53 0 0 1-.27-.08.504.504 0 0 1-.17-.65l.85-1.66c.13-.25.43-.34.67-.22.25.13.34.43.22.67l-.64 1.24c0 .11-.04.22-.12.32l-.16.19c-.1.12-.24.18-.39.18ZM150.45 70.61a.49.49 0 0 1-.32-.12.489.489 0 0 1-.13-.59c.28-.63.6-1.26.94-1.87.13-.24.44-.33.68-.19s.33.44.19.68c-.22.39-.42.78-.62 1.18.01.06 0 .13-.01.2-.07.25-.23.47-.45.61-.08.06-.18.09-.28.09Z"
  />
  <path
    d="M151.08 70.43c-.11 0-.22-.04-.32-.11-.16-.13-.22-.34-.16-.54.23-.7.51-1.57 1.3-2.45.16-.18.42-.22.63-.09.2.12.29.37.21.6-.08.21-.15.43-.21.65.12.13.18.32.12.5-.1.31-.37.55-.69.6h-.06c0 .04-.01.07-.03.11-.1.28-.3.52-.56.66-.08.04-.16.07-.25.07Z"
  />
  <path
    d="M152.49 69.25a.499.499 0 0 1-.48-.64c.13-.46.29-.91.47-1.35a.5.5 0 0 1 .65-.27c.26.11.38.4.27.65-.12.29-.23.59-.33.89.04.16 0 .34-.13.47l-.11.11c-.1.09-.22.14-.35.14Z"
  />
  <path
    d="M152.98 69.45a.5.5 0 0 1-.5-.49c-.02-.97.13-1.92.44-2.83a.495.495 0 1 1 .94.32c-.27.81-.4 1.65-.39 2.5 0 .28-.22.5-.49.51Z"
  />
  <path
    d="M154.14 68.35c-.08 0-.17-.02-.24-.06a.599.599 0 0 1-.29-.64 7.57 7.57 0 0 1 1.33-3.19c.16-.22.47-.28.7-.11.22.16.28.47.11.7-.54.76-.93 1.64-1.12 2.55 0 0 0 .02.01.03.08.2 0 .46-.15.6-.1.09-.23.13-.36.13Z"
  />
  <path
    d="M154.61 67.61c-.1 0-.19-.03-.28-.08a.502.502 0 0 1-.17-.64c.47-.94 1.1-1.78 1.88-2.49.2-.19.52-.17.71.03.19.2.17.52-.03.71-.56.51-1.03 1.1-1.42 1.75 0 .12-.04.24-.12.33l-.19.22c-.1.11-.24.17-.38.17Z"
  />
  <path
    d="M156.3 67.06c-.26 0-.48-.2-.5-.47-.05-.75.25-1.44.48-1.9.08-.16.17-.32.25-.48.18-.34.36-.67.48-1.01.09-.26.38-.4.64-.31.26.09.4.38.31.64-.14.41-.35.79-.54 1.15l-.24.45c-.28.57-.4 1-.37 1.39.02.28-.19.51-.47.53h-.03Z"
  />
  <path
    d="M157.66 65.21c-.08 0-.16-.02-.24-.06a.506.506 0 0 1-.2-.68c.47-.85 1.08-1.61 1.83-2.23.21-.18.53-.15.7.06.18.21.15.53-.06.71-.65.55-1.19 1.2-1.59 1.95a.49.49 0 0 1-.44.26ZM154.81 65.64c-.11 0-.22-.04-.32-.11a.504.504 0 0 1-.07-.7c.63-.77 1.36-1.46 2.16-2.06.22-.16.53-.12.7.1.17.22.12.54-.1.7-.74.55-1.4 1.18-1.99 1.89-.1.12-.24.18-.39.18Z"
  />
  <path
    d="M151.94 68.08c-.1 0-.21-.03-.3-.1a.507.507 0 0 1-.1-.7c.63-.83 1.33-1.61 2.09-2.32.2-.19.52-.18.71.03.19.2.18.52-.03.71-.72.67-1.39 1.41-1.98 2.19-.1.13-.25.2-.4.2ZM157.63 63.72c-.15 0-.29-.07-.39-.19a.504.504 0 0 1 .08-.7l.75-.59c.22-.17.53-.13.7.08.17.22.13.53-.08.7l-.75.59a.51.51 0 0 1-.31.11ZM145.9 77.6h-.05a.5.5 0 0 1-.45-.54c.12-1.24.41-2.45.88-3.6.1-.26.4-.38.65-.27.26.1.38.4.27.65-.43 1.06-.71 2.18-.81 3.31-.02.26-.24.45-.5.45Z"
  />
  <path
    d="M146.29 79.04c-.27 0-.49-.21-.5-.48-.05-1.19 0-2.4.15-3.58.04-.27.28-.47.56-.43.27.04.47.29.43.56-.15 1.13-.19 2.27-.14 3.41.01.28-.2.51-.48.52h-.02Z"
  />
  <path
    d="M147.3 79.7c-.22 0-.42-.15-.48-.37-.29-1.03-.43-2.1-.44-3.17 0-.28.22-.5.5-.5.27 0 .5.22.5.5 0 .79.09 1.58.27 2.35.14.11.23.29.2.48l-.04.29c-.04.23-.23.41-.47.42h-.03ZM147.1 75.44s-.09 0-.14-.02a.493.493 0 0 1-.34-.62l.24-.83c.08-.27.35-.42.62-.34s.42.35.34.62l-.24.83c-.06.22-.26.36-.48.36ZM169.74 72.27a.501.501 0 0 1-.36-.85c0-.03 0-.08-.02-.18l-.33-1.56c-.06-.27.12-.54.39-.59.27-.06.54.12.59.39l.33 1.56c.11.52.01.9-.29 1.13-.09.07-.2.1-.3.1Zm-.31-.9Z"
  />
  <path
    d="M169.56 71.68c-.24 0-.45-.17-.49-.41-.07-.39-.17-.78-.3-1.15a.5.5 0 0 1 .32-.63c.26-.09.55.05.63.32.14.42.25.85.33 1.29.05.27-.13.53-.4.58h-.09ZM170.62 76.42h-.04a.495.495 0 0 1-.46-.46c0-.07 0-.15.03-.22.16-.71.38-1.41.66-2.08.11-.25.4-.37.66-.27.25.11.37.4.27.66-.27.64-.48 1.3-.62 1.98-.05.23-.25.39-.49.39ZM151.4 104.23c-.34 0-.68-.02-1.02-.1-1.36-.28-2.46-1.24-3.34-2.01l-1.81-1.58c-.34-.3-.77-.68-1-1.2-.55-1.24.25-2.58 1.17-3.41a8.31 8.31 0 0 1 4.19-2.02c1.07-.18 1.87.05 2.31.65.1.13.12.3.07.46s-.18.27-.33.32c-2.09.62-3.81 2.29-4.5 4.35-.09.26-.37.41-.63.31a.495.495 0 0 1-.31-.63c.66-1.95 2.12-3.6 3.95-4.51-.16 0-.29.02-.39.04-1.35.22-2.66.86-3.68 1.78-.63.57-1.26 1.51-.93 2.26.14.32.45.59.75.85l1.81 1.58c.83.73 1.78 1.55 2.89 1.78.63.13 1.32.06 1.98 0 1.71-.17 3.12-.35 4.4-.97 1.23-.6 2.22-1.56 3.27-2.58.43-.41.85-.83 1.29-1.22 2.04-1.8 4.17-2.52 5.98-2.03.27.07.43.35.35.61-.07.27-.34.42-.61.35-1.99-.53-4.03.91-5.06 1.82-.43.38-.84.78-1.26 1.18-1.06 1.03-2.15 2.09-3.53 2.76-1.54.75-3.31.93-4.74 1.07-.4.04-.83.08-1.27.08Z"
  />
  <path
    d="M160.28 97.69c-3.08 0-6.15-.31-9.18-.94a.503.503 0 0 1-.36-.29.501.501 0 0 1 .04-.46l.69-1.09c.15-.23.46-.3.69-.16.23.15.3.46.16.69l-.3.48c4.15.79 8.39.98 12.6.57.28 0 .52.17.55.45.03.28-.17.52-.45.55-1.47.14-2.95.22-4.43.22ZM173.03 97.94c-.11 0-.23 0-.35-.02-.65-.08-1.27-.28-1.87-.47-.4-.13-.8-.25-1.21-.34-.51-.11-1.77-.29-2.53.41-.2.19-.52.18-.71-.02-.19-.2-.18-.52.02-.71 1.07-.99 2.6-.84 3.43-.66.44.1.87.23 1.3.37.58.18 1.13.36 1.7.43.37.05.71-.03.77-.17.05-.14-.1-.4-.38-.66-1.61-1.5-4.02-2.06-6.13-1.42a.495.495 0 0 1-.62-.33.5.5 0 0 1 .33-.62c2.44-.74 5.23-.09 7.1 1.65.62.58.84 1.21.62 1.76-.21.52-.76.82-1.47.82Z"
  />
  <path
    d="M166.77 96.62s-.08 0-.12-.01a.506.506 0 0 1-.37-.6c.16-.65.3-1.3.43-1.96a.504.504 0 1 1 .99.19c-.13.67-.27 1.34-.44 2-.06.23-.26.38-.49.38ZM172.81 100.79a.42.42 0 0 1-.26-.08c-.2-.15-.31-.37-.2-.59.6-1.15 1.15-2.33 1.63-3.52.1-.26.39-.38.65-.28.26.1.38.39.28.65-.46 1.14-.98 2.27-1.55 3.38 0 .09-.04.18-.12.25-.11.12-.28.19-.44.19ZM150.99 108.04c-.11 0-.22 0-.33-.01-1.58-.12-2.94-1.09-4.02-1.87l-2.7-1.94c-.67-.48-1.36-.97-2.09-1.3l-.34-.15c-.84-.35-1.88-.79-2.13-1.84-.21-.89.35-1.89 1.29-2.28.58-.24 1.27-.26 1.98-.06a4.779 4.779 0 0 1 2.63-2.5.503.503 0 1 1 .36.94c-1.06.41-1.91 1.31-2.21 2.34-.04.14-.14.25-.26.31a.53.53 0 0 1-.41.01c-.37-.15-1.08-.37-1.71-.11-.42.18-.8.67-.7 1.12.13.56.85.86 1.54 1.15l.36.16c.83.37 1.55.89 2.26 1.39l2.71 1.94c1.04.74 2.21 1.59 3.51 1.68.69.05 1.41-.11 2.08-.3 3.02-.84 5.91-2.3 8.36-4.23.22-.17.53-.13.7.08.17.22.13.53-.08.7a25.079 25.079 0 0 1-8.71 4.41c-.66.18-1.36.35-2.08.35Z"
  />
  <path
    d="M165.13 107.86c-.23 0-.46-.03-.69-.1-.48-.15-.83-.48-1.15-.76-1.23-1.12-2.28-1.64-3.26-1.66-.28 0-.49-.24-.49-.51s.24-.47.51-.49c1.24.03 2.5.64 3.85 1.87.33.3.57.52.84.61.24.08.54.06.82.02 1.29-.16 2.67-.61 4.35-1.39 1.05-.49 1.86-.97 2.38-1.69.47-.65.69-1.7.16-2.38a.496.496 0 0 1 .09-.7c.22-.17.53-.13.7.09.84 1.07.56 2.62-.15 3.58-.69.95-1.74 1.52-2.77 2.01-1.77.83-3.25 1.3-4.64 1.48-.18.02-.37.04-.56.04Z"
  />
  <path
    d="M166.69 116.61c-.25 0-.47-.19-.5-.45-.03-.28-.05-.56-.07-.84-.02-.34-.05-.69-.09-1.03-.13-1.15-.45-2.3-.75-3.41-.28-1.01-.56-2.05-.72-3.11-.06-.36-.1-.78 0-1.21.08-.36.26-.67.42-.95 1.44-2.58 1.97-5.52 1.53-8.35-.04-.27.14-.53.42-.57.28-.03.53.15.57.42.47 3.05-.1 6.22-1.6 8.92-.18.32-.31.54-.36.76-.06.26-.02.57.02.84.15 1.01.43 2.02.7 3 .32 1.15.64 2.34.78 3.56.04.36.07.72.09 1.07l.06.81c.03.27-.17.52-.45.55h-.05ZM167.88 133.73c-.26 0-.48-.2-.5-.47-.2-3.16-.31-6.37-.31-9.55 0-.28.22-.5.5-.5s.5.22.5.5c0 3.16.1 6.34.3 9.48.02.28-.19.51-.47.53h-.03ZM164.38 113.5c-.19 0-.37-.11-.46-.29a46.799 46.799 0 0 0-4.91-8.44.507.507 0 0 1 .11-.7c.22-.17.54-.11.7.11 1.96 2.69 3.65 5.59 5.01 8.62.11.25 0 .55-.25.66-.07.03-.14.04-.2.04ZM162.43 116.95c-.09 0-.17-.02-.25-.07-3.87-2.26-6.69-5.99-9.17-9.29a.498.498 0 0 1 .1-.7c.22-.16.53-.12.7.1 2.43 3.22 5.18 6.87 8.88 9.03.24.14.32.45.18.68-.09.16-.26.25-.43.25Z"
  />
  <path
    d="M164.09 118.34c-.32 0-.66-.07-.96-.28-.51-.37-.72-1.08-.53-1.76.16-.56.52-.99.86-1.33.53-.55 1.13-1.02 1.69-1.46.17-.13.4-.14.57-.03.52-.06 1.05.05 1.46.33.72.49 1.01 1.46.65 2.21-.11.24-.28.43-.41.58-.29.34-.59.69-.99.97-.41.29-.91.5-1.58.66-.22.05-.48.1-.75.1Zm1.29-3.73c-.41.33-.83.68-1.2 1.06-.25.25-.51.56-.61.9-.07.27 0 .56.16.68s.45.12.89.02c.54-.13.93-.29 1.24-.51.3-.21.55-.5.81-.81.1-.12.21-.25.27-.36.14-.3 0-.74-.31-.95-.32-.22-.81-.23-1.22-.04h-.02Z"
  />
  <path
    d="M164.76 114.52a.5.5 0 0 1-.48-.36l-.34-1.13c-.08-.26.07-.54.34-.62.26-.08.54.07.62.34l.34 1.13a.497.497 0 0 1-.48.64ZM163.48 117.58c-.13 0-.25-.05-.35-.15-.2-.19-.2-.51 0-.71.85-.85 1.75-1.66 2.68-2.41.22-.17.53-.14.7.08.17.22.14.53-.08.7-.9.72-1.78 1.5-2.6 2.33-.1.1-.23.15-.35.15Z"
  />
  <path
    d="M165.97 120.82a.5.5 0 0 1-.37-.16c-.75-.8-1.44-1.68-2.04-2.61a.5.5 0 0 1 .15-.69.5.5 0 0 1 .69.15c.57.88 1.22 1.71 1.93 2.47.19.2.18.52-.02.71-.1.09-.22.13-.34.13ZM168.49 118.83c-.19 0-.37-.11-.46-.29-.37-.8-.8-1.58-1.28-2.31a.498.498 0 0 1 .83-.55c.51.77.97 1.59 1.36 2.44.11.25 0 .55-.25.66-.07.03-.14.04-.21.04Z"
  />
  <path
    d="M167.79 123.97c-.15 0-.3-.07-.4-.2l-.09-.12a.749.749 0 0 1-.35-.16.662.662 0 0 1-.26-.66l-1.36-1.82c-.15-.2-.13-.47.04-.64.58-.61 1.13-1.01 1.59-1.33.42-.29.85-.57 1.27-.85.09-.06.29-.2.56-.15.28.04.43.24.5.33.44.57.86 1.16 1.25 1.77.06.1.22.34.15.64-.04.2-.16.34-.21.39-.32.35-.69.62-1.06.89-.42.3-.81.58-1.06.96-.04.07-.09.14-.14.2.13.22.08.5-.13.65-.09.07-.19.1-.3.1Zm-1.4-3.21 1.2 1.61c.38-.5.82-.82 1.24-1.13.3-.21.58-.41.81-.65-.33-.52-.67-1-1.02-1.46-.38.25-.74.49-1.1.73-.34.23-.72.51-1.13.89Z"
  />
  <path
    d="M172.39 129.45c-.14 0-.28-.06-.38-.17-1.69-1.92-3.3-3.96-4.78-6.04a.499.499 0 0 1 .12-.7c.23-.16.54-.11.7.12 1.46 2.06 3.04 4.06 4.72 5.96.18.21.16.52-.04.71-.1.08-.21.12-.33.12ZM175 127.24c-.16 0-.32-.08-.42-.23-1.5-2.31-3.15-4.56-4.91-6.68a.486.486 0 0 1 .07-.7c.21-.18.53-.15.7.07 1.78 2.15 3.45 4.43 4.97 6.77a.5.5 0 0 1-.42.77ZM181.83 140.56c-.16 0-.31-.07-.41-.21-2.19-3.06-4.58-6.03-7.11-8.83a.496.496 0 0 1 .04-.71c.2-.18.52-.17.71.04 2.55 2.82 4.96 5.82 7.18 8.92a.5.5 0 0 1-.41.79Z"
  />
  <path
    d="M188.05 174.25c-.1 0-.21-.03-.29-.1a.507.507 0 0 1-.11-.7c1.12-1.53 1.65-3.68 1.5-6.05-.14-2.19-.79-4.34-1.42-6.42l-6.24-20.61c-.19-1.03-.48-2.01-.76-2.96-.22-.76-.45-1.54-.77-2.25-.32-.73-.75-1.44-1.17-2.13l-2.47-4.06a.504.504 0 0 1 .17-.69c.24-.14.54-.07.69.17l2.47 4.05c.44.72.89 1.46 1.24 2.25.34.77.58 1.58.81 2.36.29.98.59 1.99.78 3.02l6.22 20.55c.65 2.13 1.31 4.34 1.46 6.64.12 1.84-.08 4.5-1.69 6.7-.1.13-.25.21-.4.21Z"
  />
  <path
    d="M186.72 194.67a.493.493 0 0 1-.42-.76c.67-1.09.66-2.44.65-3.88v-1.24c.05-1.59.39-3.16.72-4.67.33-1.51.66-3.08.7-4.62.04-1.66-.27-3.36-.56-4.99l-2.29-12.72c-.05-.27.13-.53.4-.58.27-.04.53.13.58.4l2.29 12.72c.3 1.68.62 3.43.58 5.19-.04 1.64-.39 3.25-.72 4.81-.32 1.47-.64 2.99-.7 4.5-.01.39-.01.79 0 1.19.01 1.51.02 3.07-.8 4.41-.09.15-.26.24-.43.24ZM123.95 126.04h-.02a.502.502 0 0 1-.48-.52c.27-6.47 2.67-12.8 6.75-17.83.64-.79 1.44-1.7 2.44-2.39.97-.67 2.06-1.1 3.09-1.46 1.89-.66 3.84-1.18 5.81-1.56a.499.499 0 0 1 .18.98c-1.92.37-3.83.88-5.67 1.52-.97.34-1.98.73-2.85 1.33-.9.63-1.64 1.46-2.24 2.2-3.95 4.86-6.26 10.98-6.53 17.24-.01.27-.23.48-.5.48Z"
  />
  <path
    d="M120.62 140.23h-.05a.512.512 0 0 1-.45-.55c.64-6.17 2.23-12.17 4.73-17.84.11-.25.4-.37.66-.26.25.11.37.41.26.66a58.37 58.37 0 0 0-4.65 17.54.5.5 0 0 1-.5.45Z"
  />
  <path
    d="M128.51 152.75c-.49 0-.97-.06-1.4-.12-.58-.07-1.19-.15-1.79-.31a7.483 7.483 0 0 1-4.34-3.12c-1.95-2.99-1.42-6.9-.86-9.58.02-.08.06-.16.11-.23.98-1.12 2.2-1.96 3.45-2.37.26-.08.54.06.63.32a.5.5 0 0 1-.32.63c-1.04.34-2.07 1.04-2.92 1.98-.52 2.5-.97 6.06.75 8.7a6.446 6.446 0 0 0 3.76 2.7c.54.14 1.11.21 1.66.28.83.11 1.67.11 2.57 0l.31-.04c2.18-.27 4.42-.24 6.58-.22 3.47.04 6.76.08 9.89-.99.31-.11.62-.23.93-.34.45-.17.9-.34 1.37-.49.7-.22 1.41-.36 2.09-.5l4.04-.81a.5.5 0 1 1 .2.98l-4.05.81c-.66.13-1.35.27-2 .47-.44.14-.87.3-1.3.47-.32.12-.64.24-.96.35-3.3 1.13-6.82 1.09-10.23 1.05-2.13-.03-4.33-.05-6.45.21l-.31.04c-.46.06-.94.12-1.43.12Z"
  />
  <path
    d="M155.11 149.02c-.24 0-.46-.18-.49-.43-.18-1.21-.55-2.37-.95-3.59-.28-.87-.57-1.77-.78-2.69-.36-1.59-.71-4.58 1.07-6.68.18-.21.49-.24.7-.06.21.18.24.49.06.71-1.5 1.77-1.18 4.4-.86 5.81.2.87.48 1.75.76 2.6.39 1.21.8 2.46.98 3.75.04.27-.15.53-.42.57h-.07ZM125.36 139.74c-.15 0-.3-.07-.4-.2a.496.496 0 0 1 .09-.7c2.53-1.95 5.94-1.74 8.94-1.27l.65.1c2.68.42 5.45.86 7.84-.16.25-.11.55 0 .66.26.11.25 0 .55-.26.66-2.66 1.14-5.57.67-8.39.23l-.65-.1c-2.79-.43-5.95-.64-8.18 1.08-.09.07-.2.1-.3.1Z"
  />
  <path
    d="M142.37 139.5c-.09 0-.17-.02-.25-.07a.496.496 0 0 1-.18-.68c.05-.08.08-.22.11-.36.06-.27.14-.61.42-.88.22-.21.5-.3.7-.36.71-.21 1.44-.43 2.22-.46.94-.02 1.77.26 2.33.82.2.19.2.51 0 .71-.19.2-.51.2-.71 0-.36-.35-.96-.55-1.61-.53-.65.02-1.31.22-1.96.41-.11.03-.25.08-.3.13-.06.06-.1.22-.14.38-.05.2-.1.42-.22.63-.09.16-.26.25-.43.25Z"
  />
  <path
    d="M148.52 140.54h-.05a.5.5 0 0 1-.45-.54c.01-.15-.17-.37-.34-.57-.6-.72-.56-1.25-.42-1.57.12-.27.41-.62 1.1-.74l.21-.03c.19-.03.36-.05.48-.12.24-.14.54-.06.69.17s.06.54-.17.69c-.29.17-.59.21-.85.25l-.18.03c-.23.04-.34.12-.36.16-.02.05.02.22.24.48.29.35.65.77.6 1.34-.02.26-.24.45-.5.45Z"
  />
  <path
    d="M150.64 142.28c-.24 0-.45-.17-.49-.41l-.69-3.72c-.08-.45-.19-1 0-1.56.08-.23.19-.41.36-.53.18-.14.38-.18.55-.21 1.17-.21 2.37-.32 3.57-.34.27.02.5.22.51.49 0 .28-.22.5-.49.51-1.15.02-2.29.13-3.41.33-.03 0-.1.02-.13.03-.11.35-.03.75.03 1.1l.69 3.72c.05.27-.13.53-.4.58h-.09ZM131.52 135.88c-.13 0-.26-.05-.36-.15a20.97 20.97 0 0 1-4.88-8.25c-.08-.26.06-.54.33-.63.27-.09.54.06.63.33.92 2.92 2.53 5.64 4.65 7.85.19.2.18.52-.01.71-.1.09-.22.14-.35.14ZM140.49 122.68c-.15 0-.29-.06-.39-.18-2.42-2.96-3.99-6.68-4.41-10.48-.03-.27.17-.52.44-.55.27-.03.52.17.55.44.41 3.61 1.9 7.15 4.19 9.96.17.21.14.53-.07.7a.48.48 0 0 1-.32.11Z"
  />
  <path
    d="M139.93 129.78c-.05 0-.1 0-.16-.03a.5.5 0 0 1-.32-.63 17.54 17.54 0 0 0 .31-9.74c-.07-.27.09-.54.36-.61.27-.07.54.09.61.36.87 3.35.75 7.01-.33 10.3-.07.21-.26.34-.48.34ZM138.31 133.28h-.08a.49.49 0 0 1-.41-.57c.46-2.82.11-5.82-.99-8.45-.11-.25.01-.55.27-.65.25-.1.55.01.65.27 1.17 2.8 1.54 6 1.06 8.99-.04.25-.25.42-.49.42Z"
  />
  <path
    d="M135.55 138.47c-.1 0-.19-.03-.28-.08a.498.498 0 0 1-.14-.69c1.69-2.53 3.44-5.15 4.14-8.14a.49.49 0 0 1 .6-.37c.27.06.44.33.37.6-.75 3.16-2.63 5.98-4.29 8.46-.1.14-.25.22-.42.22ZM141.32 122.92h-.04a.497.497 0 0 1-.46-.54c.15-1.83 1.3-3.25 2.41-4.63.31-.38.62-.77.9-1.15a13.37 13.37 0 0 0 2.29-5.17.5.5 0 1 1 .98.2c-.41 2-1.26 3.92-2.46 5.56-.29.4-.61.8-.93 1.19-1.06 1.32-2.07 2.57-2.2 4.08-.02.26-.24.46-.5.46ZM137.03 166.95h-.01a.49.49 0 0 1-.49-.51c.1-4.75.44-9.55 1.01-14.26a.5.5 0 0 1 .56-.44c.27.03.47.28.44.56-.57 4.68-.91 9.44-1 14.16a.5.5 0 0 1-.5.49Z"
  />
  <path
    d="M139.75 163.24a.48.48 0 0 1-.37-.17 8.995 8.995 0 0 1-2.07-4.16.5.5 0 1 1 .98-.2c.27 1.37.91 2.65 1.83 3.69.18.21.16.52-.04.71-.1.08-.21.12-.33.12ZM138.41 165.68c-.18 0-.35-.1-.44-.26l-1.04-1.94a.501.501 0 0 1 .21-.68c.25-.13.55-.04.68.21l1.04 1.94c.13.24.04.55-.21.68-.08.04-.16.06-.23.06ZM185.07 194.47c-1.15 0-2.29-.28-3.4-.55-1.51-.37-2.94-.72-4.32-.4l-.34.09c-.36.1-.75.2-1.16.19-.44-.01-.82-.15-1.19-.28l-.27-.09c-.77-.25-1.6-.34-2.47-.43-1.18-.13-2.4-.26-3.49-.83-1.04.22-2.13.2-3.16-.07-.83-.21-1.59-.58-2.33-.93-.46-.22-.92-.44-1.39-.62-1.8-.69-3.71-.81-5.74-.94-1.33-.08-2.7-.17-4.03-.44-1.44-.28-2.82-.77-4.17-1.24-.85-.3-1.74-.61-2.62-.86-1.06-.3-2.19-.54-3.27-.77-2.61-.55-5.31-1.11-7.56-2.67a.483.483 0 0 1-.21-.48c.09-.65.2-1.3.3-1.95.36-2.31.71-4.48.67-6.7 0-.28.22-.5.49-.51.28.03.5.21.51.49.04 2.31-.31 4.52-.68 6.88-.08.54-.17 1.08-.25 1.62 2.03 1.31 4.42 1.81 6.94 2.34 1.1.23 2.24.47 3.34.78.91.26 1.81.57 2.67.88 1.31.46 2.66.93 4.03 1.2 1.27.25 2.61.34 3.9.42 2.01.13 4.09.26 6.03 1.01.5.19.98.42 1.46.65.73.35 1.42.68 2.15.87.94.25 1.92.25 2.86.02.12-.03.25-.01.37.05.96.55 2.08.67 3.28.8.88.09 1.8.19 2.67.48l.29.1c.31.11.61.21.89.22.28.02.56-.07.87-.15.12-.03.25-.07.38-.1 1.61-.37 3.23.02 4.79.4 1.53.37 2.97.72 4.37.38.27-.06.54.1.6.37.07.27-.1.54-.37.6-.48.12-.96.17-1.44.17ZM173.5 159.64h-.04a.497.497 0 0 1-.46-.54c.15-1.89.24-3.81.25-5.71 0-.28.23-.5.5-.5.28 0 .5.23.5.5-.01 1.92-.1 3.86-.25 5.78-.02.26-.24.46-.5.46ZM175.12 163.39c-.42 0-.84-.04-1.24-.13a.503.503 0 0 1 .22-.98c.68.15 1.4.15 2.07 0a.503.503 0 0 1 .22.98c-.42.09-.84.14-1.27.14Z"
  />
  <path
    d="M176.65 162.65c-.28 0-.5-.23-.5-.5l.07-12.52c0-.28.23-.53.5-.5.28 0 .5.23.5.5l-.07 12.52c0 .28-.23.5-.5.5ZM176.5 141.78c-.25 0-.47-.19-.5-.44-.22-1.82-.58-3.54-1.1-5.21-.05 1.24-.17 2.48-.36 3.71-.04.27-.3.45-.57.42a.49.49 0 0 1-.41-.57c.34-2.11.45-4.26.32-6.4-.01-.24.15-.46.38-.52s.48.07.57.29c1.11 2.6 1.82 5.27 2.17 8.17a.51.51 0 0 1-.44.56h-.06ZM177.99 123.93s-.09 0-.14-.02a.504.504 0 0 1-.36-.44.642.642 0 0 1-.13-.1c-.03-.03-.05-.06-.08-.09-.03.06-.07.12-.11.18-.12.16-.32.23-.52.19a.686.686 0 0 1-.46-.37c-.08-.02-.16-.05-.24-.09-.02.17-.13.31-.28.39a.619.619 0 0 1-.75-.18.508.508 0 0 1-.36-.12l-.08.08c-.13.13-.32.18-.5.13a.501.501 0 0 1-.35-.38c-.1-.46-.12-.92-.07-1.38a.49.49 0 0 1 .55-.44c.08 0 .16.04.22.08.04-.02.07-.04.11-.05.21-.07.44.02.56.2.11.17.25.32.39.46.03-.03.07-.06.11-.09.01-.05.02-.1.04-.15a.5.5 0 0 1 .44-.38c.36-.03.72.09.99.32.02-.08.05-.16.09-.24.11-.25.41-.35.65-.25.22.09.37.28.42.51.15.07.26.21.29.38 0 .02 0 .05.01.07.24-.17.52-.31.8-.4.27-.08.54.07.63.33.08.26-.07.54-.33.63-.47.15-.88.49-1.11.93-.09.17-.26.27-.44.27ZM181.44 124.91c-.17 0-.34-.09-.43-.24-.17-.29-.26-.62-.27-.95v-.1c.01-.27.23-.47.49-.48a.43.43 0 0 1 0-.16c.02-.19.15-.35.33-.42.48-.17 1.05.07 1.26.53.06.14.06.29 0 .43-.02.04-.05.08-.07.11.02.09.04.19.05.29.02.17-.06.34-.2.45-.14.1-.33.13-.49.06-.05-.02-.11-.04-.16-.06v.07c-.01.22-.17.41-.38.46-.04 0-.08.01-.12.01ZM178.6 118.43c-.23 0-.44-.17-.49-.4-.68-3.46-1.46-6.96-2.32-10.39-.07-.27.1-.54.36-.61.27-.07.54.1.61.36.86 3.44 1.65 6.96 2.33 10.44.05.27-.12.53-.39.59h-.1ZM182.95 110.36c-.21 0-.41-.14-.48-.35-.16-.52-.69-.91-1.17-1.24-1.12-.76-2.3-1.45-3.53-2.04a.5.5 0 1 1 .44-.9c1.27.61 2.49 1.32 3.65 2.11.67.46 1.32.99 1.57 1.77.08.26-.07.54-.33.63-.05.02-.1.02-.15.02ZM191.91 109.6c-.14 0-.27-.06-.37-.17-3.71-4.12-9.24-6.87-15.58-7.74-.92-.13-1.89-.22-2.79-.03a.502.502 0 0 1-.59-.39c-.06-.27.12-.54.39-.59 1.05-.22 2.13-.12 3.14.01 6.57.91 12.31 3.77 16.18 8.06a.505.505 0 0 1-.37.84ZM201.97 122.32c-.12 0-.24-.04-.34-.13a45.46 45.46 0 0 1-9.1-11.46c-.13-.24-.05-.55.19-.68s.54-.05.68.19c2.35 4.2 5.34 7.97 8.9 11.21.2.19.22.5.03.71-.1.11-.23.16-.37.16ZM185.25 151.55h-.03a.494.494 0 0 1-.46-.53c.67-9.82 1.01-19.79 1-29.63 0-.28.22-.5.5-.5s.5.22.5.5c0 9.87-.34 19.86-1.01 29.7a.51.51 0 0 1-.5.47Z"
  />
  <path
    d="M186.96 124.16h-.04a.497.497 0 0 1-.46-.54 14.04 14.04 0 0 1 4.7-9.47c.21-.18.52-.16.71.04.18.21.16.52-.04.71a13.046 13.046 0 0 0-4.36 8.79c-.02.26-.24.46-.5.46Z"
  />
  <path
    d="M186.92 127.93a.5.5 0 0 1-.5-.49c-.01-.98.18-1.98.56-2.89.27-.64.59-1.14.98-1.53.56-.57 1.27-.92 1.95-1.21 1.78-.76 3.39-1.16 4.92-1.2.29 0 .51.21.52.49 0 .28-.21.51-.48.51-1.4.04-2.89.41-4.55 1.12-.59.25-1.19.54-1.63.99-.3.3-.55.7-.77 1.21-.33.78-.5 1.64-.49 2.49 0 .28-.22.5-.49.51Z"
  />
  <path
    d="M204.17 141.83c-2.35 0-4.65-.62-6.57-1.79-1.27-.77-2.37-1.76-3.43-2.72l-8.4-7.56c-.2-.18-.22-.5-.04-.7 1.42-1.6 3.76-2.92 6.95-3.94 3.19-1.01 5.59-.95 7.36.19.23.15.3.46.15.69a.5.5 0 0 1-.69.15c-1.5-.96-3.63-.99-6.52-.07-2.77.88-4.84 1.98-6.17 3.29l8.01 7.22c1.03.93 2.09 1.89 3.28 2.6 2.01 1.22 4.47 1.79 6.93 1.61.9-.06 3.89-.45 4.87-2.68.11-.25.4-.37.66-.26.25.11.37.41.26.66-.81 1.85-2.95 3.08-5.71 3.28-.32.02-.63.03-.95.03Z"
  />
  <path
    d="M210.86 139.11c-.26 0-.48-.2-.5-.46-.42-5.6-1.84-11.01-4.21-16.1-.12-.25 0-.55.24-.67.25-.12.55 0 .67.24 2.43 5.2 3.88 10.73 4.31 16.45a.51.51 0 0 1-.46.54h-.04Z"
  />
  <path
    d="M210.72 138.31c-.06 0-.12-.01-.18-.03a.503.503 0 0 1-.29-.65 74.2 74.2 0 0 0 4.37-17.24c.3-2.31.4-4.68-.85-6.4a.507.507 0 0 1 .11-.7c.22-.16.54-.11.7.11 1.46 2 1.36 4.61 1.03 7.12a75.301 75.301 0 0 1-4.43 17.47c-.08.2-.27.32-.47.32Z"
  />
  <path
    d="M214.87 115.29a.49.49 0 0 1-.28-.09.487.487 0 0 1-.13-.69c.34-.5.42-1.16.48-1.92.28-3.56.36-7.18.25-10.76 0-.28.21-.51.48-.52.25 0 .51.21.52.48.12 3.61.03 7.27-.25 10.87-.07.86-.17 1.69-.64 2.4-.1.14-.25.22-.41.22Z"
  />
  <path
    d="M207.24 105.02h-.03c-.62-.04-1.02-.48-1.34-.83l-.11-.12c-.45-.49-1.02-.86-1.65-1.09a.5.5 0 0 1-.29-.28c-.69-1.69-.6-3.22-.42-4.5.02-.14.1-.26.21-.34.12-.08.26-.1.4-.07 2.99.71 4.9 1.82 6.74 2.89.25.14.51.29.75.32.12.01.26 0 .4-.01.15-.01.3-.02.45-.02.38.01.73.13 1.04.23.2.07.41.14.62.17.21.03.47-.03.6-.14.07-.06.07-.1.07-.12 0-.11-.12-.27-.24-.44-.15-.19-.31-.41-.4-.69a.5.5 0 0 1 .32-.63c.26-.08.54.06.63.32.04.12.14.25.25.39.2.27.46.6.45 1.06 0 .33-.16.64-.43.87-.35.3-.9.45-1.4.37-.28-.04-.54-.13-.78-.21-.27-.09-.52-.17-.76-.18-.11 0-.22 0-.33.02-.18.01-.39.03-.6 0-.45-.05-.83-.27-1.13-.45-1.75-1.01-3.4-1.97-5.93-2.64-.1 1-.09 2.07.34 3.24.69.28 1.31.72 1.82 1.26l.12.13c.22.24.45.5.67.51.28.02.49.25.47.53-.02.27-.24.47-.5.47Z"
  />
  <path
    d="M206.22 108.05a.5.5 0 0 1-.46-.3c-.12-.27-.42-.45-.77-.66-.34-.21-.73-.44-1.01-.82-.45-.6-.44-1.33-.44-1.96 0-.44 0-.85-.13-1.19-.1-.26.03-.55.28-.65s.55.03.65.28c.2.51.2 1.04.2 1.56 0 .55 0 1.03.25 1.37.16.21.43.38.72.55.43.26.92.56 1.16 1.11a.498.498 0 0 1-.46.7Z"
  />
  <path
    d="M206.29 114.3c-.06 0-.11 0-.17-.03a5.42 5.42 0 0 1-2.45-1.8c-.16-.21-.33-.47-.36-.79-.03-.26.04-.48.09-.66.23-.83.17-1.65.1-2.51-.07-.9-.15-1.83.1-2.75a.496.496 0 1 1 .96.26c-.2.75-.14 1.56-.07 2.41.07.91.15 1.86-.11 2.79-.05.19-.09.3-.08.36 0 .09.12.24.16.29.5.66 1.21 1.18 2 1.46a.501.501 0 0 1-.17.97Z"
  />
  <path
    d="M203.25 117.32c-.74 0-1.25-.33-1.34-.89-.07-.45.19-.8.36-1.04.65-.88.78-1.96.88-3.28.02-.28.26-.51.54-.46.28.02.48.26.46.54-.09 1.17-.2 2.62-1.03 3.75-.1.14-.21.29-.22.35.03 0 .24.06.57.02l2.98-.36c.28-.04.52.16.56.44a.51.51 0 0 1-.44.56l-2.98.36c-.11.01-.23.02-.33.02Z"
  />
  <path
    d="M202 122.88c-.06 0-.11 0-.17-.03a.501.501 0 0 1-.3-.64c.6-1.65.73-3.5.37-5.22-.05-.25.09-.5.33-.58.24-.08.5.03.61.27.6 1.31 1.08 2.01 1.58 2.75l-.83.56.41-.28-.42.27c-.16-.24-.33-.48-.5-.75-.03 1.13-.24 2.26-.62 3.31-.07.2-.27.33-.47.33ZM168.82 192.34c-.24 0-.45-.17-.49-.41-.38-2.1-.03-4.22.32-6.26.23-1.35.46-2.75.48-4.1 0-.86-.07-1.74-.15-2.59-.05-.5-.09-.99-.12-1.49-.27-4.4.68-8.74 1.59-12.93.06-.27.32-.44.6-.38.27.06.44.33.38.59-.9 4.13-1.83 8.39-1.57 12.66.03.49.08.97.12 1.46.08.88.17 1.78.16 2.69-.01 1.44-.26 2.87-.49 4.26-.35 2.05-.67 3.98-.32 5.92.05.27-.13.53-.4.58h-.09ZM152.24 180.97h-.05c-2.92-.27-5.47-1.81-7.93-3.29-2.28-1.37-4.64-2.79-7.22-3.13a.503.503 0 0 1-.43-.56c.04-.27.28-.48.56-.43 2.79.36 5.24 1.84 7.61 3.26 2.48 1.49 4.82 2.9 7.51 3.15a.5.5 0 0 1 .45.54c-.02.26-.24.45-.5.45ZM175.61 183.82c-1.3 0-2.6-.08-3.89-.25a.503.503 0 0 1-.43-.56c.04-.27.29-.47.56-.43 4.18.54 8.52.17 12.55-1.07.26-.09.54.07.62.33a.5.5 0 0 1-.33.62c-2.92.9-6.01 1.35-9.08 1.35Z"
  />
  <path
    d="M186.82 192.07c-.16 0-.32-.08-.42-.23-.29-.45-.9-.75-1.66-.83-.42-.04-.86-.03-1.32-.01-.33.01-.67.02-1 .01-.72-.02-1.43-.15-2.11-.28l-.87-.15c-1.14-.18-2.31-.23-3.46-.15l-.27.02c-.54.04-1.1.08-1.66-.02-.69-.13-1.29-.45-1.88-.76-.23-.12-.46-.25-.7-.36-.4-.18-1.41-.57-2.08-.11-.11.08-.24.1-.38.08-4.03-.78-7.37-1.57-10.59-2.85-.34-.13-.67-.27-1.01-.41-.65-.27-1.29-.54-1.96-.77-2.75-.96-5.76-1.22-8.66-1.47l-1.44-.13c-1.58-.15-3.26-.34-4.86-.89-.39-.13-.78-.29-1.17-.45-1.36-.54-2.65-1.06-3.88-.69a.495.495 0 1 1-.28-.95c1.56-.47 3.07.13 4.54.72.38.15.75.3 1.13.43 1.49.51 3.1.7 4.62.84l1.44.13c2.97.26 6.03.52 8.9 1.52.68.24 1.35.51 2.01.79.33.14.66.28.99.41 3.1 1.24 6.34 2.01 10.23 2.76 1.02-.55 2.22-.15 2.87.15.25.12.5.25.75.39.54.29 1.04.56 1.58.66.44.08.91.05 1.41 0l.28-.02c1.23-.08 2.46-.03 3.68.16l.9.15c.68.12 1.32.24 1.97.26.31 0 .62 0 .94-.01.47-.02.96-.03 1.46.02 1.08.12 1.92.57 2.39 1.28.15.23.09.54-.14.69-.08.06-.18.08-.27.08ZM174.46 148.61a.47.47 0 0 1-.27-.08l-2.47-1.55c-.3-.19-.61-.39-.88-.66-.34-.34-.55-.74-.77-1.16-.23-.43-.47-.88-.88-1.32a.489.489 0 0 1-.09-.54c.51-1.19 1.4-2.22 2.5-2.91.32-.2.76-.44 1.26-.4.48.02.89.28 1.25.55 1.24.92 2.31 2.02 3.2 3.28.26.37.51.81.42 1.33-.06.36-.28.62-.42.8-.71.89-1.49 1.72-2.34 2.48-.09.08-.2.12-.32.13-.06.03-.13.04-.21.04Zm-4.31-5.19c.36.44.6.88.8 1.27.2.37.37.69.6.93.19.19.43.35.69.51l2.24 1.41c.74-.68 1.42-1.41 2.05-2.2.08-.1.2-.25.22-.36.03-.16-.12-.39-.25-.58a13.07 13.07 0 0 0-2.98-3.05c-.22-.16-.48-.34-.71-.35-.25-.02-.48.13-.68.25-.84.52-1.53 1.28-1.98 2.17Z"
  />
  <path
    d="M177.68 148.74c-.06 0-.13-.01-.19-.04-.72-.3-1.19-.88-1.65-1.44-.11-.14-.23-.28-.34-.41a6.464 6.464 0 0 0-1.99-1.53c-.22-.11-.44-.2-.66-.3-.5-.21-1.01-.43-1.47-.78-.77-.58-1.28-1.4-1.72-2.12a.504.504 0 0 1 .17-.69c.23-.14.54-.07.69.17.42.68.84 1.38 1.46 1.84.37.27.81.46 1.27.66.24.1.48.2.71.32a7.75 7.75 0 0 1 2.3 1.76c.12.14.25.29.37.44.4.48.77.94 1.26 1.15.25.11.38.4.27.65a.51.51 0 0 1-.46.31Z"
  />
  <path
    d="M178.42 148.85c-.16 0-.31-.07-.41-.21-.02-.03-.04-.07-.06-.1a.496.496 0 0 1-.15-.55c.22-.59.29-1.24.22-1.86v-.14c.16-.93 1.08-1.2 1.46-1.31.16-.04.33 0 .46.1.13.11.19.27.17.44 0 .05.11.22.18.32.16.24.39.56.36.97-.03.37-.26.65-.37.79-.46.56-.99 1.06-1.59 1.48-.09.06-.19.09-.29.09Zm.61-2.76c.04.37.03.74-.01 1.11.18-.18.35-.36.5-.55.12-.14.14-.2.15-.23 0-.06-.11-.22-.18-.32-.06-.08-.13-.18-.19-.29-.17.09-.24.18-.27.29ZM172.65 153.85c-.42 0-.62-.23-.69-.34a.5.5 0 0 1 .15-.69c.18-.12.42-.1.58.03.7-.14 1.34-.59 1.96-1.33.26-.31.49-.64.73-.97.29-.41.59-.83.94-1.23.18-.21.5-.23.71-.04.21.18.23.5.04.71-.31.35-.59.74-.88 1.14-.25.35-.5.7-.77 1.03-.78.94-1.63 1.51-2.52 1.68-.09.02-.17.02-.25.02Zm.15-.88Z"
  />
  <path
    d="M171.82 153.03c-.09 0-.17 0-.26-.02a.496.496 0 0 1-.41-.58c.04-.27.3-.46.57-.41.38.06.82-.3 1.19-.67 1.03-1.02 2.04-2.1 2.99-3.2.18-.21.5-.23.71-.05.21.18.23.5.05.71a55.21 55.21 0 0 1-3.05 3.26c-.49.48-1.08.96-1.79.96ZM172.49 150.63c-.1 0-.19-.03-.28-.08a18.519 18.519 0 0 1-4.11-3.74.503.503 0 0 1 .07-.7c.21-.17.53-.14.7.07 1.12 1.37 2.43 2.56 3.9 3.54.23.15.29.46.14.69-.1.14-.25.22-.42.22Z"
  />
  <path
    d="M169.72 147.36s-.07 0-.11-.01a.493.493 0 0 1-.38-.59l.25-1.16c.06-.27.33-.44.59-.38.27.06.44.32.38.59l-.25 1.16c-.05.23-.26.39-.49.39ZM171.74 149.18h-.06a.492.492 0 0 1-.43-.56l.15-1.21c.03-.27.28-.47.56-.43.27.03.47.28.43.56l-.15 1.21c-.03.25-.25.44-.5.44ZM170.04 143.3c-.19 0-.37-.11-.45-.29-.38-.79-.84-1.55-1.38-2.24a.496.496 0 0 1 .09-.7c.22-.17.53-.13.7.09.58.75 1.09 1.56 1.5 2.42a.504.504 0 0 1-.45.72ZM168.06 144.18a.47.47 0 0 1-.42-.24l-.76-1.21a.504.504 0 0 1 .16-.69c.23-.15.54-.08.69.16l.76 1.21c.15.23.07.54-.16.69-.08.05-.17.08-.26.08ZM166.65 150.1c-.1 0-.2-.03-.29-.09-.75-.54-1.46-1.14-2.13-1.78-.2-.19-.2-.51 0-.71.19-.2.51-.2.71 0 .63.61 1.3 1.18 2.01 1.69.22.16.28.47.11.7-.1.14-.25.21-.41.21Z"
  />
  <path
    d="M163.69 152.86h-.05a.502.502 0 0 1-.44-.55c.13-1.21.62-2.4 1.38-3.36.17-.21.49-.25.7-.08s.25.49.08.7c-.64.8-1.06 1.81-1.17 2.84a.5.5 0 0 1-.5.45ZM165.4 155.53c-.62 0-1.25-.13-1.81-.4a.496.496 0 0 1-.25-.62c.09-.24.34-.38.59-.32.42.11.93-.04 1.38-.4.25-.2.47-.44.67-.71a.5.5 0 0 1 .39-.65h.08v-.02c.15-.23.46-.29.69-.14 0 0 .02.01.02.02l.46-.08c.13-.02.26 0 .36.08.83.56.73 1.24.66 1.51-.13.44-.46.73-.7.91-.73.53-1.63.81-2.53.81Zm1.39-1.86c-.21.28-.45.56-.73.8.46-.09.89-.27 1.26-.54-.18-.08-.36-.17-.54-.26ZM170.21 162.5c-.48 0-.96-.1-1.4-.3-.13.07-.28.08-.42.02a.497.497 0 0 1-.3-.53l.03-.24a.49.49 0 0 1 .29-.39c.03-.01.06-.03.1-.03.69-.91 1.4-1.98 1.87-3.16.38-.97.76-2.44.37-3.95-.07-.27.09-.54.36-.61.27-.07.54.09.61.36.45 1.77.02 3.46-.41 4.57-.47 1.19-1.15 2.24-1.81 3.15.42.13.88.15 1.31.04.27-.07.54.09.61.36.07.27-.09.54-.36.61-.27.07-.55.11-.83.11Z"
  />
  <path
    d="M171.35 165.11c-.1 0-.2-.02-.29-.06a.622.622 0 0 1-.36-.47h-.05c-.27 0-.49-.22-.5-.49v-.51c.03-2.05.93-3.99 2.36-5.06a.51.51 0 0 1 .6 0c.16.12.33.22.51.32.22.13.44.25.65.41.33.26.64.65.73 1.11.1.03.18.1.24.18.13.18.28.55-.1 1.1a14.06 14.06 0 0 1-3.19 3.25c-.15.11-.37.2-.59.2Zm-.17-1.12c.08 0 .16.02.23.06 1.08-.8 2.01-1.74 2.79-2.81a.506.506 0 0 1-.19-.51c.05-.22-.16-.5-.37-.67-.16-.13-.34-.23-.53-.33-.1-.06-.19-.11-.29-.17-1.03.92-1.67 2.43-1.69 4.04v.39h.04Z"
  />
  <path
    d="M171.69 162.61h-.07l-1.06-.15a.51.51 0 0 1-.43-.56.51.51 0 0 1 .56-.43l.99.14c.27.04.5.3.46.57-.04.25-.22.43-.46.43ZM168.76 153.94a.499.499 0 0 1-.09-.99c.69-.13 1.32-.6 1.65-1.22a.49.49 0 0 1 .67-.21c.24.13.34.43.21.67-.47.91-1.35 1.56-2.35 1.74h-.09Z"
  />
  <path
    d="M170.02 152.26a.46.46 0 0 1-.33-.13l-2.93-2.62c-.21-.18-.22-.5-.04-.71s.5-.22.71-.04l2.93 2.62a.504.504 0 0 1-.33.88ZM164.18 154.08s-.09 0-.13-.02a.496.496 0 0 1-.35-.61l.8-2.93a.496.496 0 1 1 .96.26l-.8 2.93c-.06.22-.26.37-.48.37Z"
  />
  <path
    d="M165.35 153.64s-.07 0-.11-.01c-.21-.05-.44-.24-.46-.62l-.05-1.28c-.01-.28.2-.51.48-.52.26 0 .51.2.52.48l.04 1.03c.15.16.17.46.06.65-.09.16-.29.27-.48.27Zm.43-.67ZM170.32 153a.502.502 0 0 1-.06-1l.77-.08a.622.622 0 0 0-.12-.2.497.497 0 0 1 .5-.79c.02 0 .16.02.5-.4.62-.81 1.2-1.67 1.7-2.55.14-.24.44-.32.68-.19.24.14.32.44.19.68-.53.92-1.12 1.82-1.78 2.67-.11.14-.34.44-.67.63.04.14.05.3.02.45-.04.23-.18.43-.38.55-.17.11-.35.13-.47.14l-.84.09h-.05Z"
  />
  <path
    d="M172.85 151.71a.505.505 0 0 1-.43-.76l.66-1.11c.14-.24.45-.31.69-.18.24.14.32.45.18.69l-.66 1.11c-.09.16-.26.25-.43.25ZM168.36 146.41c-.06 0-.12-.01-.19-.04a.498.498 0 0 1-.28-.65l.71-1.77c.1-.26.39-.38.65-.28s.38.39.28.65l-.71 1.77c-.08.2-.27.31-.46.31ZM167.15 148.32c-.14 0-.28-.05-.39-.13h-.01l-1.39-.55a.498.498 0 0 1-.28-.65c.07-.17.22-.28.38-.31.01-.13.08-.25.19-.34.25-.2.39-.54.39-.87-.07-.3-.14-.51-.18-.6a.502.502 0 0 1 .18-.67c.23-.14.53-.07.67.15.19.29.3.63.32.97.17.7.34 1.59.43 2.08.15.09.24.26.23.44 0 .21-.14.39-.34.46-.06.02-.13.03-.2.03Z"
  />
  <path
    d="M166.44 144.79a.505.505 0 0 1-.33-.88l1.01-.91c.21-.18.52-.17.71.04.18.21.17.52-.04.71l-1.01.91c-.1.09-.22.13-.33.13ZM167.67 142.52h-.01c-.28 0-.49-.24-.49-.51 0-.39-.1-.79-.31-1.12a.5.5 0 0 1 .15-.69.5.5 0 0 1 .69.15c.32.5.49 1.09.47 1.68a.5.5 0 0 1-.5.49Z"
  />
  <path
    d="M167.65 140.15a.507.507 0 0 1-.41-.8l.71-.96c.16-.22.48-.27.7-.11.22.16.27.48.11.7l-.71.96c-.1.13-.25.2-.4.2Z"
  />
  <path
    d="M171.19 139.8c-.58 0-1.1-.26-1.56-.49-.43-.22-.84-.42-1.22-.38a.512.512 0 0 1-.55-.45c-.03-.27.17-.52.45-.55h.21a.464.464 0 0 1-.04-.21c.01-.55-.04-1.12-.08-1.62-.05-.58-.09-1.09-.04-1.5a.504.504 0 0 1 .88-.27c.61.69 1.38 1.22 2.24 1.55l.29.1c.34.12.7.25 1.02.47.57.39.88 1.02.79 1.6-.1.65-.65 1.05-1.04 1.3-.32.2-.67.39-1.09.44-.09.01-.17.02-.25.02Zm-1.86-1.71c.26.09.51.22.74.33.44.22.86.42 1.24.38.23-.03.47-.16.69-.3.36-.23.55-.43.58-.61.03-.19-.12-.44-.37-.61-.22-.15-.5-.25-.79-.35l-.31-.11c-.62-.24-1.2-.56-1.72-.97 0 .06 0 .12.01.18.04.53.09 1.12.08 1.72 0 .14-.06.26-.15.35ZM170.55 151.33c-.14 0-.27-.05-.37-.16l-3.16-3.45c-.19-.2-.17-.52.03-.71.2-.19.52-.17.71.03l3.16 3.45c.19.2.17.52-.03.71-.1.09-.22.13-.34.13Z"
  />
  <path
    d="M166.65 149.64c-.12 0-.23-.04-.33-.12a.505.505 0 0 1-.05-.71l.66-.75.33-1.88c.05-.27.3-.45.58-.41.27.05.45.31.41.58l-.35 2.02c-.02.09-.06.17-.12.24l-.76.86c-.1.11-.24.17-.38.17Z"
  />
  <path
    d="M165.53 148.17a.501.501 0 0 1-.37-.84l2.43-2.66-.32-.54a.493.493 0 0 1 .18-.68c.24-.14.55-.06.68.18l.5.86c.11.19.09.43-.06.59l-2.68 2.93c-.1.11-.23.16-.37.16ZM134.11 176.31c-.15 0-.31-.07-.4-.21-.17-.23-.44-.41-.74-.61-.5-.33-1.07-.71-1.22-1.42-.18-.82.35-1.56.63-1.96a98.49 98.49 0 0 1 10.34-12.26c1.11-1.11 2.31-2.25 3.78-2.93.24-.11.52-.01.65.21.32.59.75 1.12 1.24 1.58.18-.05.34.05.48.16.14.1.21.26.2.42.11.1.17.24.16.4-.08 1.47-1.2 2.65-1.95 3.43l-10.26 10.75c-.8.84-1.62 1.7-2.63 2.37a.46.46 0 0 1-.28.08Zm12.4-18.28c-1.14.62-2.12 1.55-3.09 2.52a98.165 98.165 0 0 0-10.24 12.14c-.27.38-.55.81-.47 1.17.07.32.41.54.8.81.21.14.45.3.66.49.77-.57 1.45-1.29 2.12-1.98l10.26-10.75c.78-.82 1.49-1.63 1.65-2.55a7.23 7.23 0 0 1-1.69-1.84Z"
  />
  <path
    d="M147.33 158.34c-.13 0-.26-.05-.36-.15a.513.513 0 0 1 0-.71c2.28-2.25 4.53-4.58 6.68-6.93.19-.2.5-.22.71-.03.2.19.22.5.03.71-2.17 2.36-4.43 4.7-6.72 6.96-.1.1-.22.14-.35.14ZM148.6 159.97c-.12 0-.23-.04-.33-.12a.505.505 0 0 1-.05-.71c2.19-2.53 4.48-5.02 6.81-7.4.19-.2.51-.2.71 0 .2.19.2.51 0 .71-2.32 2.36-4.59 4.84-6.77 7.35-.1.11-.24.17-.38.17ZM154.43 136.6c-.13 0-.27-.05-.36-.16-.19-.2-.18-.52.02-.71 1.97-1.84 4.55-2.49 6.37-2.7 2.29-.27 4.58-.06 6.81.15.06 0 .11.02.16.04 1 .45 1.41 1.22 1.63 1.77.1.26-.02.55-.27.65s-.55-.02-.65-.27c-.24-.59-.56-.96-1.04-1.2-2.14-.2-4.36-.4-6.51-.15-1.67.2-4.03.78-5.8 2.44-.1.09-.22.13-.34.13ZM166.36 139.13c-.21 0-.43 0-.64-.01a.502.502 0 0 1-.48-.52c.01-.28.26-.48.52-.48.81.04 1.63 0 2.44-.11.27-.04.52.16.56.43.04.27-.16.52-.43.56-.66.08-1.32.13-1.98.13Z"
  />
  <path
    d="M164.53 147.21h-.03c-1.08-.07-2.2-.14-3.27-.53-.26-.1-.42-.17-.54-.15-.27.03-.51-.19-.53-.46-.02-.28.19-.51.46-.53.33-.02.63.09.86.17.97.35 1.97.43 2.94.49.32-.17.64-.45.63-.86-.01-.29-.18-.62-.46-.89-.29-.28-.66-.49-1.06-.71l-1.65-.93a.505.505 0 0 1-.21-.65c.12-.24.4-.34.64-.25.45.18.83.41 1.19.63.48.28.89.53 1.35.62.16.03.21.01.22 0 .04-.02.12-.12.18-.19l1.22-1.49c.14-.17.28-.34.31-.5.05-.25-.14-.57-.62-1.01-1.11-1.01-2.45-2.08-3.97-2.3a.5.5 0 1 1 .15-.99c1.79.26 3.28 1.44 4.5 2.55.3.28 1.11 1.02.92 1.95-.08.4-.32.69-.52.93l-1.22 1.49c-.11.13-.26.31-.48.43.3.39.47.83.49 1.26.03.77-.45 1.45-1.31 1.86-.07.03-.14.05-.22.05Z"
  />
  <path
    d="M155.83 152.32c-.39 0-.8-.15-1.15-.44-.32-.26-.55-.58-.77-.92-.11-.16-.27-.41-.31-.72-.05-.41.14-.83.53-1.19a2 2 0 0 1 .22-.19c-.04-.24.1-.48.34-.55.18-.06.34-.07.49-.03l4.77-.12c.66-.02 1.34-.04 1.94-.25.46-.16 1.01-.53 1.16-1.08.08-.27.35-.42.62-.34.27.08.42.35.34.62-.22.78-.89 1.43-1.79 1.75-.75.27-1.55.29-2.25.31h-.24l-2.41 2.38c-.28.27-.7.69-1.27.77-.07.01-.14.02-.22.02Zm-.44-3.05c-.12.14-.26.25-.38.35-.07.05-.13.11-.2.17-.17.16-.22.29-.22.35 0 .07.09.2.14.27.19.28.36.52.57.7.19.16.41.23.58.21.23-.04.46-.25.72-.5l1.65-1.62-2.87.08ZM170.46 136.24c-.14 0-.28-.06-.38-.17a.506.506 0 0 1 .05-.71c.88-.77 1.68-1.63 2.4-2.55.12-.16.14-.22.14-.23-.02.01-.09-.06-.12-.08l-1.16-.97c-.27-.23-.36-.23-.37-.23a.83.83 0 0 0-.16.13l-2.7 2.57c-.2.19-.52.18-.71-.02-.19-.2-.18-.52.02-.71l2.7-2.57c.12-.12.31-.29.57-.37.59-.17 1.09.24 1.3.42l1.16.97c.13.11.36.3.45.61.14.5-.18.91-.32 1.09-.75.97-1.6 1.88-2.53 2.69-.09.08-.21.12-.33.12Z"
  />
  <path
    d="M172.95 132.58a.5.5 0 0 1-.2-.96c.05-.02.14-.13.2-.21l.66-.8s-.09-.08-.13-.12l-.61-.53c-.39.42-.73.75-1.07 1.04-.21.18-.52.16-.71-.05a.506.506 0 0 1 .05-.71c.4-.35.81-.76 1.32-1.33.18-.2.5-.22.7-.04l.97.86c.15.13.31.27.45.43.09.1.18.31.17.44-.01.2-.12.33-.15.37l-.87 1.06c-.12.15-.3.37-.58.49-.06.03-.13.04-.2.04Z"
  />
  <path
    d="M174.34 130.98c-.12 0-.23-.04-.33-.12a.505.505 0 0 1-.05-.71c4.26-4.92 8.78-9.71 13.44-14.23-.06-.29-.27-.56-.54-.72a76.157 76.157 0 0 0-4.03 4.36l-.41.49c-.69.82-1.4 1.66-2.19 2.41-.29.27-.59.53-.89.79l-.72.63c-.9.82-1.72 1.77-2.52 2.68l-.71.81c-.61.69-1.23 1.36-1.87 2.01-.19.2-.51.2-.71 0s-.2-.51 0-.71c.63-.65 1.24-1.3 1.84-1.98l.7-.8c.82-.94 1.66-1.9 2.6-2.76.24-.22.49-.44.74-.65.29-.25.58-.5.86-.76.76-.71 1.45-1.53 2.11-2.33l.42-.5c1.29-1.51 2.66-2.99 4.32-4.66.13-.13.32-.18.5-.13.72.22 1.3.83 1.49 1.55.03.12.06.3.01.49-.06.24-.22.39-.31.47-4.64 4.5-9.14 9.26-13.38 14.16-.1.11-.24.17-.38.17Z"
  />
  <path
    d="M293.77-.09c68.17-71.87 150.62-157.17 195.99-199.51.2-.19.52-.18.71.02s.18.52-.02.71c-78.85 73.58-269.7 276.94-302.91 313.99-.1.11-.24.17-.37.17a.46.46 0 0 1-.33-.13.504.504 0 0 1-.04-.71C200.91 98.71 243.45 52.97 293.78-.09"
  />
  <path
    d="M310.64-16.87c64.4-68.01 137.26-143.45 179.12-182.72.2-.19.52-.18.71.02.19.2.18.52-.02.71-78.42 73.56-265.59 274.02-302.14 314.8-.1.11-.24.17-.37.17a.46.46 0 0 1-.33-.13.504.504 0 0 1-.04-.71c17.04-19.01 66.83-72.74 123.07-132.14"
  />
  <path
    d="M209.15 96.33c-.11 0-.23-.02-.35-.05-.34-.1-.6-.32-.8-.5a.505.505 0 0 1 .26-.88.638.638 0 0 1 .03-.6c.12-.21.35-.34.59-.35.32 0 .56.17.66.25.19.15.4.34.54.61.18.36.16.77-.04 1.08-.19.28-.52.44-.88.44Zm-.31-1.15c.09.07.17.12.25.14.05.01.11 0 .12 0-.06-.1-.12-.17-.19-.24l-.09.06a.3.3 0 0 1-.1.04ZM206.17 93.94s-.09 0-.14-.02a.493.493 0 0 1-.34-.62c.19-.68.44-1.53 1.06-2.14.49-.48 1.17-.78 2.04-.89.28-.03.52.16.56.43a.51.51 0 0 1-.43.56c-.44.06-1.05.21-1.46.61-.43.42-.62 1.1-.8 1.7-.06.22-.26.36-.48.36ZM213.18 91.52h-.09l-1.91-.33a.514.514 0 0 1-.41-.58c.05-.27.31-.46.58-.41l1.91.33c.27.05.45.31.41.58-.04.24-.25.41-.49.41Z"
  />
  <path
    d="M205.61 93.74c-.06 0-.12-.01-.18-.04-1.06-.42-1.69-1.69-1.44-2.89.13-.61.47-1.21 1.02-1.81.79-.86 1.73-1.47 2.74-1.75 1.13-.32 2.34-.2 3.3.31.24.13.33.43.2.68-.13.24-.44.33-.68.2-.74-.4-1.67-.48-2.56-.23-.83.23-1.61.74-2.27 1.46-.43.47-.69.92-.78 1.35-.16.72.21 1.51.83 1.75.26.1.38.39.28.65-.08.2-.27.32-.46.32Z"
  />
  <path
    d="M205.04 89.78a.51.51 0 0 1-.49-.39l-.19-.83c-.05-.22-.12-.53-.05-.85.1-.43.4-.73.66-.95.45-.37.94-.67 1.48-.9.25-.11.55 0 .66.26.11.25 0 .55-.26.66-.45.19-.86.45-1.24.76-.12.1-.29.25-.32.39-.02.1.02.27.05.41l.19.83c.06.27-.1.54-.37.6-.04 0-.08.01-.11.01Z"
  />
  <path
    d="M204.36 88.97c-.09 0-.18-.02-.26-.07-.43-.26-.95-.63-1.2-1.23-.36-.89.07-1.85.66-2.41.57-.54 1.32-.82 2.26-1.08.23-.06.48.05.58.26l.54 1.12c.03.06.13.26.05.5-.07.19-.3.36-.5.38a.559.559 0 0 1-.52-.3.502.502 0 0 1-.03-.36l-.26-.53c-.62.19-1.09.39-1.44.72-.34.32-.59.87-.42 1.3.13.33.49.57.78.75a.502.502 0 0 1-.26.93Z"
  />
  <path
    d="M211.97 87.72a.49.49 0 0 1-.41-.22c-.28-.41-.73-.7-1.2-.99-1.28-.78-2.81-1.56-4.31-1.39a.497.497 0 0 1-.55-.44c-.03-.27.16-.52.44-.55 1.81-.21 3.52.65 4.95 1.53.55.34 1.12.71 1.51 1.28.16.23.1.54-.13.69a.49.49 0 0 1-.28.09ZM214.19 100.15c-.06 0-.11 0-.17-.03a.501.501 0 0 1-.3-.64l.37-1.03c.63-1.73 1.27-3.52 1.45-5.36.03-.35.06-.81-.02-1.23-.24-1.28-1.37-2.23-2.6-3.16-.22-.17-.26-.48-.1-.7s.48-.26.7-.1c1.34 1.02 2.67 2.14 2.98 3.77.11.55.07 1.1.04 1.52-.19 1.96-.86 3.81-1.5 5.6l-.37 1.03c-.07.2-.27.33-.47.33ZM210.83 95.59c-.08 0-.17-.02-.24-.06-.33-.18-.71-.3-1.08-.33a.5.5 0 0 1-.45-.54c.03-.27.27-.46.54-.45.51.05 1.02.21 1.48.46.24.13.33.44.19.68-.09.16-.26.26-.44.26Z"
  />
  <path
    d="M213.34 95.91a.49.49 0 0 1-.41-.22c-.16-.23-.1-.54.13-.69.58-.4 1.08-.92 1.44-1.53.14-.24.45-.32.69-.17.24.14.31.45.17.69-.43.73-1.03 1.37-1.74 1.84a.49.49 0 0 1-.28.09ZM204.22 91.23c-.09 0-.17-.02-.25-.07-.47-.28-.87-.67-1.15-1.15a.513.513 0 0 1 .17-.69c.24-.14.54-.06.69.17.2.33.47.6.8.8.24.14.32.45.18.68-.09.16-.26.25-.43.25Z"
  />
  <path
    d="M203.84 96.19c-.24 0-.45-.17-.49-.42-.16-.91-.32-1.85-.56-2.76l-.1-.34c-.12-.43-.25-.88-.3-1.35-.06-.55-.03-1.1.1-1.63.22-.77.2-1.22.18-1.69-.01-.28.2-.51.48-.52.26-.05.51.2.52.47.02.51.05 1.1-.21 2-.1.4-.12.83-.07 1.25.05.39.16.78.27 1.19l.1.35c.26.95.42 1.92.58 2.85.05.27-.14.53-.41.58h-.08ZM177.87 146.36c-.19 0-.38-.06-.54-.18a.506.506 0 0 1-.11-.7c.16-.22.47-.27.7-.11 0-.02.11-.11.12-.19.03-.25-.16-.55-.34-.81-.76-1.09-1.59-2.07-2.48-2.92-.91-.86-1.69-1.21-2.34-1.05-.27.07-.54-.09-.61-.36s.09-.54.36-.61c1.02-.27 2.09.16 3.28 1.29.94.9 1.82 1.93 2.62 3.07.21.3.6.86.52 1.51-.05.41-.34.79-.73.96-.14.06-.28.09-.42.09ZM242.53 61.15c-.27 0-.53-.03-.79-.09-.23-.05-.46-.13-.68-.22-.18-.06-.35-.13-.53-.17-.2-.05-.41-.08-.61-.11s-.39-.06-.59-.1c-.6-.13-1.06-.38-1.35-.75a.495.495 0 0 1 .08-.7c.21-.18.53-.14.7.07.15.18.41.32.79.4.17.04.34.06.52.09.24.04.48.07.72.13.21.05.42.13.62.2.19.07.38.14.57.18.31.07.63.08.94.03.28-.05.53.14.57.41.04.27-.14.53-.41.57-.18.03-.36.04-.54.04Z"
  />
  <path
    d="M244.83 61.1c-.75 0-1.44-.33-2.02-.66-.45-.26-.9-.54-1.33-.86-.05-.03-.11-.08-.17-.12-.08-.06-.15-.11-.22-.17a.496.496 0 0 1-.02-.77c.04-.08.09-.16.16-.22.15-.14.33-.18.41-.2.62-.14 1.32-.06 2.02.21.58.23 1.11.56 1.63.91.15.1.36.24.51.46.22.33.22.75 0 1.04-.16.22-.42.34-.76.37h-.22Zm-2.38-2.06c.28.19.57.37.86.54.46.26.98.52 1.5.53-.02-.02-.05-.03-.07-.05-.5-.33-.95-.62-1.45-.81-.23-.09-.52-.18-.85-.2ZM298.34 1.44h-.13c-.59-.03-1.17-.14-1.73-.33l-.24-.08c-.19-.07-.38-.14-.57-.17-.22-.04-.42-.02-.54.06-.23.15-.54.08-.69-.16a.504.504 0 0 1 .16-.69c.34-.21.77-.28 1.25-.19.25.05.49.13.73.22l.22.08c.47.16.96.25 1.46.28h.17c.22-.17.52-.12.69.09.17.22.12.54-.1.71-.23.18-.49.21-.67.21Z"
  />
  <path
    d="M298.71 1.17c-.75 0-1.5-.36-1.95-.95a.881.881 0 0 1-.19-.47.82.82 0 0 1 .27-.63c.4-.39.96-.42 1.29-.43.31-.02.62-.03.96.02.42.07.77.23 1.03.48.3.29.42.66.32 1-.08.26-.29.47-.57.58-.13.05-.27.08-.39.09-.07.15-.2.26-.37.29-.13.02-.27.04-.4.04Zm.64-1.32a.922.922 0 0 0-.42-.16c-.23-.04-.48-.02-.75 0-.2.01-.4.03-.54.08.29.27.76.45 1.2.4.07-.17.23-.29.43-.3h.08M170.02 201.17c-.16 0-.3-.02-.42-.04l-1.66-.23a.501.501 0 0 1-.43-.52c.12-2.77.17-5.59.15-8.37 0-.28.22-.5.5-.5.27 0 .5.22.5.5.03 2.65-.02 5.33-.13 7.97l1.21.17c.15.02.34.05.44 0 .16-.07.24-.42.2-.96-.15-2.21-.12-4.44.07-6.64 0-.01-.01-.02-.02-.03-.09-.18-.05-.5.09-.66.17-.18.42-.25.64-.17.21.08.34.29.32.52-.23 2.29-.26 4.62-.11 6.92.03.39.1 1.56-.81 1.95-.18.08-.37.1-.54.1Z"
  />
  <path
    d="M170.5 199.65h-.02c-.8-.03-1.6-.09-2.39-.19a.506.506 0 0 1-.44-.56.5.5 0 0 1 .56-.44c.76.09 1.54.15 2.31.18.28 0 .49.24.48.52 0 .27-.23.48-.5.48ZM132.21 192.02c-.21 0-.41-.13-.48-.34-.17-.52-.02-1.13.4-1.64.23-.27.49-.47.74-.67l.27-.21c1.18-.98 1.85-2.51 2.45-3.85.11-.25.41-.36.66-.25.25.11.37.41.25.66-.64 1.45-1.37 3.09-2.72 4.22-.1.08-.19.16-.29.23-.22.17-.43.34-.59.52-.19.23-.28.5-.22.68a.5.5 0 0 1-.32.63c-.05.02-.1.03-.16.03Z"
  />
  <path
    d="M132.2 218.07a.49.49 0 0 1-.48-.38c-.18-.73-.55-1.4-.94-2.11-.11-.2-.22-.41-.33-.61-2.9-5.55-2.45-11.89-1.57-16.23.86-4.21 2.42-8.29 3.92-12.23.42-1.09.84-2.19 1.24-3.29.1-.26.38-.39.64-.3.26.1.39.38.3.64-.41 1.1-.82 2.2-1.24 3.3-1.49 3.9-3.03 7.94-3.88 12.07-.85 4.18-1.29 10.28 1.47 15.57.1.2.21.4.32.6.4.74.82 1.5 1.03 2.35.07.27-.09.54-.36.61-.04.01-.08.02-.12.02Z"
  />
  <path
    d="M158.51 231.39c-.27 0-.49-.21-.5-.48-.05-1.1-.57-2.2-1.04-3.17-.79-1.64-1.61-3.34-2.85-4.68-.74-.79-1.64-1.47-2.52-2.12-.54-.4-1.09-.81-1.69-.97-.52-.13-1.09-.08-1.69-.03-.35.03-.72.07-1.06.06-.81 0-1.58-.18-2.48-.44-.59-.17-1.27-.38-1.91-.73-.51-.28-.96-.65-1.36-.97-2.45-1.96-4.9-3.93-7.35-5.9-1.47-1.19-2.92-2.25-4.53-2.25h-.04c-.16 0-.31-.08-.4-.2a.513.513 0 0 1-.08-.45c.39-1.23.51-1.78.64-2.32.43-1.87.86-3.78 1.47-5.63.1-.31.21-.62.32-.93.44-1.26.85-2.44.94-3.69a.49.49 0 0 1 .54-.46c.28.02.48.26.46.54-.1 1.38-.56 2.69-1 3.95-.11.3-.21.61-.31.92-.6 1.8-1.03 3.69-1.44 5.52-.11.47-.22.95-.47 1.81 1.66.22 3.09 1.27 4.52 2.43 2.45 1.97 4.89 3.94 7.35 5.9.39.31.79.63 1.22.88.49.27 1.03.45 1.7.64.83.24 1.52.39 2.21.4.32 0 .64-.03.97-.06.66-.06 1.33-.12 2.02.06.8.2 1.46.7 2.04 1.13.92.68 1.86 1.39 2.66 2.25 1.34 1.44 2.2 3.21 3.02 4.92.51 1.05 1.08 2.25 1.14 3.56.01.28-.2.51-.48.52h-.02Z"
  />
  <path
    d="M146.21 242.71c-.27 0-.49-.22-.5-.49 0-.28.21-.5.49-.51l5.96-.14c.28 0 .54-.01.77-.08.64-.18 1.11-.82 1.58-1.51l2.7-4.03c.23-.35.47-.71.56-1.08.08-.39.01-.83-.06-1.31-.11-.68-.23-1.45.15-2.15.1-.92.16-1.81.22-2.68.12-1.72.23-3.34.58-4.95.38-1.75 1.04-3.44 1.67-5.06l.4-1.02c2.8-7.31 4.52-15.1 6.19-22.64a.503.503 0 0 1 .98.22c-1.67 7.57-3.4 15.4-6.23 22.78l-.4 1.03c-.62 1.59-1.26 3.24-1.63 4.91-.33 1.54-.44 3.13-.56 4.81-.06.92-.13 1.86-.23 2.83 0 .08-.03.15-.08.22-.26.4-.17.93-.07 1.56.09.54.18 1.11.05 1.68-.12.56-.43 1.02-.7 1.42l-2.7 4.03c-.44.65-1.09 1.63-2.14 1.92-.35.1-.71.11-1.02.11l-5.96.14h-.01ZM131.69 233.15c-.1 0-.21-.03-.3-.1l-2.51-1.85c-.15-.11-.37-.27-.47-.56-.18-.51.16-.95.31-1.13l3.04-3.85c-.29-2.58-.09-5.43.14-8.14.02-.28.25-.48.54-.46.27.02.48.27.46.54-.23 2.73-.43 5.6-.12 8.14.02.13-.02.27-.1.37l-3.17 4.02c-.1.13-.13.2-.14.22.01-.02.07.02.11.05l2.51 1.85c.22.16.27.48.11.7-.1.13-.25.2-.4.2Z"
  />
  <path
    d="M140.95 233.16c-1.08 0-2.15-.11-3.19-.22-1.07-.11-2.18-.22-3.27-.5-.48-.12-.95-.27-1.42-.42-1.07-.34-2.09-.66-3.11-.62-.26 0-.51-.21-.52-.48-.01-.28.21-.51.48-.52 1.21-.02 2.35.32 3.45.67.45.14.91.29 1.37.4 1.02.25 2.09.36 3.12.47 1.34.14 2.73.28 4.07.18.66-.05 1.33-.16 1.99-.27 1.53-.25 3.12-.51 4.67-.08.13.04.25.07.38.11.46.14.89.28 1.25.17.27-.08.54.07.62.33a.5.5 0 0 1-.33.62c-.65.2-1.28 0-1.83-.17-.12-.04-.23-.07-.35-.1-1.35-.37-2.75-.14-4.24.11-.68.11-1.38.23-2.08.28-.36.03-.71.04-1.06.04ZM154.17 241.9h-.03a.509.509 0 0 1-.47-.53c.02-.32-.15-.68-.51-1.1-1.28-1.49-3.37-2.24-5.31-1.92a.506.506 0 0 1-.58-.41c-.05-.27.14-.53.41-.58 2.27-.38 4.72.5 6.23 2.25.55.63.79 1.23.76 1.82a.51.51 0 0 1-.5.47Z"
  />
  <path
    d="M143.57 259.99h-.02a.496.496 0 0 1-.48-.52c.08-2.08.07-4.19-.05-6.26l-.02-.39c-.06-1.08-.13-2.21.03-3.32.15-1.05.49-2.05.82-3.01.68-2 1.38-4.06 2.32-6 .19-.39.39-.77.58-1.16l3.65-7.08c.13-.25.43-.34.67-.22.25.13.34.43.22.67l-3.65 7.08c-.19.38-.39.75-.57 1.14-.91 1.88-1.6 3.92-2.27 5.88-.31.92-.64 1.88-.77 2.83-.14 1.02-.08 2.09-.02 3.12l.02.39c.12 2.11.13 4.25.05 6.36-.01.27-.23.48-.5.48ZM125.87 261.2h-.02a.496.496 0 0 1-.48-.52l.21-5.5c.12-3.03.24-6.16.82-9.21.97-5.11 3.18-9.88 5.32-14.48.12-.25.41-.36.66-.24.25.12.36.41.24.66-2.11 4.55-4.3 9.25-5.24 14.24-.56 2.98-.68 6.07-.8 9.06l-.21 5.5c-.01.27-.23.48-.5.48ZM156.81 214.85a.49.49 0 0 1-.32-.12c-1.7-1.44-3.19-2.31-4.67-2.75-1.15-.34-2.39-.45-3.59-.55-4.48-.37-9.1-.76-13.64-.52-.27.01-.51-.2-.53-.47-.01-.28.2-.51.47-.52 4.61-.24 9.27.15 13.78.53 1.25.1 2.54.21 3.8.58 1.62.48 3.22 1.42 5.03 2.95.21.18.24.49.06.7-.1.12-.24.18-.38.18Z"
  />
  <path
    d="M145.17 210.41c-.17 0-.34-.09-.44-.25a.494.494 0 0 1 .19-.68c3.57-2.01 6.83-4.59 9.99-7.09.22-.17.53-.13.7.08.17.22.13.53-.08.7-3.19 2.52-6.48 5.13-10.12 7.17-.08.04-.16.06-.24.06ZM148.67 202.85c-.15 0-.31-.07-.4-.2a.498.498 0 0 1 .11-.7c2.44-1.79 4.73-3.81 6.83-5.99.19-.2.51-.21.71-.02.2.19.21.51.02.71a53.892 53.892 0 0 1-6.96 6.11c-.09.07-.19.1-.3.1ZM163.29 201.24c-.21 0-.4-.13-.47-.34-.95-2.76-2.25-5.4-3.84-7.84a.492.492 0 0 1 .15-.69.5.5 0 0 1 .69.15c1.64 2.51 2.97 5.22 3.95 8.06a.51.51 0 0 1-.47.67ZM158.05 220.09h-.09a.499.499 0 0 1-.4-.58c.66-3.61.51-7.39-.45-10.93a.496.496 0 1 1 .96-.26c.99 3.68 1.16 7.61.47 11.37-.04.24-.25.41-.49.41ZM146.32 230.66c-1.4 0-2.79-.22-4.1-.67-.45-.15-.9-.33-1.34-.51-1.01-.41-1.97-.8-2.98-.87-.28-.02-.48-.26-.46-.54s.25-.51.54-.46c1.17.09 2.24.52 3.28.94.43.17.86.35 1.29.49 3.39 1.16 7.35.66 10.35-1.29.23-.15.54-.09.69.15a.5.5 0 0 1-.15.69c-2.09 1.36-4.61 2.07-7.12 2.07ZM150.9 223.07c-1.37 0-2.74-.64-3.57-1.76a.498.498 0 0 1 .1-.7c.22-.17.53-.12.7.1.82 1.09 2.36 1.61 3.67 1.23.27-.08.54.08.62.34s-.08.54-.34.62c-.39.11-.79.17-1.18.17ZM129.98 260.31c-.24 0-.46-.14-.56-.37-.11-.24-.1-.6.14-.81a.52.52 0 0 1 .25-.11c.13-1.35.22-2.74.31-4.08.29-4.46.6-9.07 2.32-13.28.1-.25.21-.49.31-.74.35-.82.69-1.59.85-2.42.15-.78.13-1.59.12-2.45-.02-1.09-.04-2.22.31-3.31.08-.26.37-.41.63-.32.26.08.41.37.32.63-.3.93-.28 1.93-.26 2.98.02.87.03 1.77-.14 2.65-.18.93-.55 1.79-.91 2.63-.1.24-.21.48-.31.72-1.67 4.06-1.96 8.59-2.25 12.97-.09 1.43-.19 2.91-.34 4.36-.07.74-.51.9-.7.93h-.1Zm-.22-.89ZM125.39 270.7s-.09 0-.12-.02a.569.569 0 0 1-.42-.45c-.02-.11 0-.24.06-.35-.13-.46-.17-.91-.21-1.35-.03-.32-.06-.64-.12-.96-.14-.67-.47-1.31-.82-1.98-.54-1.05-1.1-2.14-.94-3.4.02-.18.07-.42.25-.62s.4-.28.55-.33l2.38-.8c.26-.09.55.05.63.31s-.05.54-.31.63l-2.38.8s-.09.03-.12.05c0 0 0 .04-.01.09-.12.94.35 1.85.84 2.81.36.7.74 1.43.91 2.23.08.36.11.73.14 1.08.04.48.08.94.24 1.35.14.36.03.59-.08.72-.1.12-.29.19-.45.19Z"
  />
  <path
    d="M136.56 294.32c-1.53 0-3.06-.11-4.59-.33-2.34-.34-3.74-1.27-4.07-2.7-.04-.17-.06-.35-.08-.52-.02-.19-.04-.38-.09-.53-.13-.39-.49-.68-.91-1.01-.33-.26-.67-.54-.94-.9-.5-.68-.63-1.49-.72-2.33-.63-5.55-.64-11.18-.04-16.73.03-.27.28-.47.55-.44.27.03.47.28.44.55-.59 5.48-.58 11.03.04 16.51.08.73.18 1.37.53 1.85.19.26.47.48.76.71.47.38 1.01.8 1.23 1.47.09.26.11.51.14.74.02.14.03.27.06.41.3 1.32 2.15 1.78 3.23 1.93 3.49.51 7.02.42 10.48-.28 1.3-.26 2.02-.69 2.22-1.32.16-.53-.08-1.1-.36-1.77-.27-.64-.55-1.3-.5-2.03.02-.28.25-.49.53-.47.28.02.48.26.47.53-.03.5.19 1.02.42 1.58.31.73.66 1.57.4 2.45-.46 1.51-2.35 1.89-2.98 2.01-2.06.41-4.15.62-6.23.62Z"
  />
  <path
    d="M125.79 270.56c-.26 0-.48-.2-.5-.46l-.32-3.9c-.06-.71-.13-1.6.23-2.4.68-1.5 2.41-1.95 4.01-2.18 3.63-.53 7.33-.95 10.98-1.25 1.35-.11 2.23.09 2.8.43 0-.3-.02-.51-.04-.73 0-.05-.02-.22-.05-.26-.02 0-.13-.03-.17-.04-3.11-.67-6.35-.36-9.38.07-1.26.18-2.55.39-3.82.63-1.04.2-2.05.42-2.81.98-.22.16-.54.11-.7-.11a.498.498 0 0 1 .11-.7c.93-.68 2.05-.94 3.22-1.15 1.28-.24 2.58-.46 3.86-.64 3.12-.45 6.46-.77 9.73-.06.16.04.44.09.66.3.29.28.33.66.35.88.04.46.09.93-.03 2.09a.5.5 0 0 1-.43.45c-.22.04-.45-.1-.53-.32-.32-.84-1.64-.91-2.69-.83-3.64.3-7.31.72-10.92 1.25-1.34.2-2.77.54-3.25 1.6-.25.56-.2 1.28-.14 1.91l.32 3.9c.02.28-.18.52-.46.54h-.04Z"
  />
  <path
    d="M134.36 290.37c-.63 0-1.26-.04-1.89-.15-2.23-.37-4.09-1.56-4.99-3.19-.73-1.33-.82-2.87-.9-4.22l-.89-15.06c-.02-.28.19-.51.47-.53.28-.03.51.19.53.47l.89 15.06c.07 1.25.16 2.67.78 3.8.75 1.36 2.34 2.37 4.27 2.68 1.81.3 3.69.03 5.5-.22 1.86-.26 3.98-.56 5.64-1.61.6-.38.96-.77 1.08-1.19.09-.29.07-.64.04-.99-.05-.6-.12-1.21-.2-1.81-.18-1.44-.36-2.93-.21-4.42.04-.41.11-.83.18-1.24.18-1.12.35-2.17.02-3.13-.16-.47-.43-.89-.72-1.35-.29-.46-.6-.94-.8-1.48-.54-1.48-.19-3.01.15-4.49l.12-.54c.43-1.96.26-3.31-.51-4.15-.19-.2-.18-.52.03-.71.2-.19.52-.18.71.03 1.01 1.09 1.26 2.74.75 5.04l-.12.54c-.31 1.34-.62 2.72-.18 3.92.16.44.43.85.7 1.29.31.48.63.98.83 1.56.41 1.2.21 2.43.02 3.62-.06.4-.13.79-.17 1.18-.14 1.38.03 2.75.21 4.2.08.62.15 1.23.2 1.85.04.43.06.9-.08 1.35-.2.66-.69 1.24-1.51 1.75-1.85 1.17-4.07 1.48-6.03 1.75-1.28.18-2.59.36-3.91.36ZM163.94 240.4c-.7 0-1.4-.12-2.04-.25-.26-.05-.7-.14-1.02-.47-.27-.28-.36-.63-.43-.88l-2.12-7.86a.496.496 0 1 1 .96-.26l2.12 7.86c.04.17.1.36.18.45.09.1.3.15.5.19 1.08.23 2.32.4 3.33-.05 1.24-.54 1.98-1.88 2.69-3.33l2.07-4.23c.34-.69.72-1.48 1.41-2.04.22-.17.53-.14.7.07.17.21.14.53-.07.7-.52.42-.85 1.1-1.14 1.7l-2.07 4.23c-.79 1.62-1.63 3.13-3.19 3.81-.61.27-1.26.36-1.9.36Z"
  />
  <path
    d="M167.73 238.24c-.16 0-.32-.08-.42-.23a.498.498 0 0 1 .14-.69c2.97-1.95 6.56-2.84 10.1-2.51.71.07 1.37.13 1.76-.18.28-.22.43-.65.55-1.06.26-.86.48-1.74.66-2.62.05-.27.32-.45.59-.39.27.05.45.32.39.59-.18.91-.41 1.83-.68 2.71-.16.54-.38 1.15-.89 1.56-.71.57-1.65.48-2.4.41-3.4-.31-6.75.52-9.54 2.35-.08.06-.18.08-.27.08Z"
  />
  <path
    d="M179.99 232.03a.502.502 0 0 1-.43-.76c.27-.45.7-.73 1.07-.98.31-.2.6-.4.76-.65.14-.22.2-.52.2-.95 0-.47-.07-.96-.14-1.47-.14-1.02-.29-2.07.12-3.09.22-.53.56-.97.89-1.39.11-.14.22-.28.32-.42.43-.59.61-1.11.54-1.53-.04-.27-.19-.52-.41-.68a.496.496 0 0 1-.09-.7c.17-.22.48-.26.7-.09.42.32.7.79.79 1.31.12.71-.12 1.46-.72 2.29-.11.15-.23.3-.35.45-.3.38-.58.75-.75 1.15-.31.77-.19 1.64-.06 2.57.07.52.15 1.07.15 1.61 0 .62-.11 1.09-.36 1.48-.27.43-.69.71-1.05.95-.31.21-.61.4-.77.66-.09.16-.26.24-.43.24ZM185.98 206.14c-.09 0-.17-.02-.25-.07a.496.496 0 0 1-.18-.68c1.15-1.95 1.1-4.51 1.07-6.56 0-.09.02-.18.07-.26.19-.32.2-.85.19-1.37l-.03-3.58c0-.28.22-.5.5-.5.27 0 .5.22.5.5l.03 3.58c0 .61-.01 1.24-.26 1.75.04 2.16.06 4.8-1.21 6.96-.09.16-.26.25-.43.25Z"
  />
  <path
    d="M182.16 220.16c-.12 0-.23-.04-.33-.12a.505.505 0 0 1-.05-.71 7.865 7.865 0 0 0 1.87-4.12l.03-.28c.03-.27.06-.54.12-.8.13-.56.39-1.06.63-1.54.08-.17.17-.33.25-.5 1.31-2.78 1.12-6.37-.58-10.65-.1-.26.02-.55.28-.65.26-.1.55.02.65.28 1.81 4.56 1.99 8.41.56 11.45-.08.18-.17.35-.26.53-.23.45-.45.87-.55 1.31-.05.22-.08.46-.1.69l-.04.3a8.784 8.784 0 0 1-2.11 4.65c-.1.11-.24.17-.38.17ZM139.8 304.54c-.15 0-.31-.07-.4-.21-2.25-3.08-4.41-6.29-6.42-9.53a.501.501 0 0 1 .16-.69.51.51 0 0 1 .69.16c1.99 3.23 4.14 6.41 6.37 9.47a.507.507 0 0 1-.4.8Z"
  />
  <path
    d="M135.62 298.85h-.02c-1.51-.05-3.02-.27-3.85-1.44-.43-.62-.54-1.33-.64-2.01-.06-.42-.12-.82-.25-1.18a.496.496 0 1 1 .93-.35c.17.46.24.93.31 1.38.09.6.17 1.16.47 1.59.6.86 1.9.97 3.06 1.02.28.01.49.24.48.52 0 .27-.23.48-.5.48ZM137.17 312.75c-.24 0-.46-.18-.49-.43-.33-2.22 1.35-4.13 3.05-4.96 1.66-.82 3.52-.96 5.31-1.1l.34-.03c2.72-.22 5.46-.56 8.15-1.03.39-.07.52-.18.54-.21 0-.05-.13-.21-.17-.26l-8.95-11.45a.496.496 0 0 1 .09-.7c.22-.17.53-.13.7.09l8.95 11.45c.15.19.39.5.38.92-.02.34-.21.95-1.37 1.15-2.72.47-5.49.82-8.24 1.04l-.34.03c-1.7.13-3.45.27-4.94 1-1.43.7-2.75 2.27-2.51 3.92.04.27-.15.53-.42.57h-.07Z"
  />
  <path
    d="M139.3 305.32c-1.94 0-3.8-1-5.15-1.96-2.7-1.93-4.79-4.58-5.77-7.17 0 .2.01.4.03.6.06.59.21 1.19.36 1.75.44 1.64.97 3.28 1.56 4.87a.496.496 0 1 1-.93.35c-.6-1.62-1.14-3.29-1.59-4.96-.16-.6-.33-1.25-.39-1.92-.13-1.31.11-2.58.35-3.81.05-.25.27-.41.53-.4.25.02.45.23.46.49.05 3.05 2.5 6.91 5.97 9.39 1.55 1.11 3.85 2.28 5.97 1.54.26-.09.55.05.64.31.09.26-.05.55-.31.64-.58.2-1.16.29-1.73.29Z"
  />
  <path
    d="M127.64 302.8c-.07 0-.15-.02-.22-.05a2.15 2.15 0 0 1-1.14-1.36c-.18-.63-.05-1.27.06-1.7.22-.83.58-1.6 1.07-2.3.16-.23.47-.28.7-.12.23.16.28.47.12.7-.42.61-.73 1.27-.92 1.99-.13.5-.15.87-.07 1.16.09.32.32.59.62.73a.5.5 0 0 1-.22.95Z"
  />
  <path
    d="M137.99 313.3c-.09 0-.19-.03-.28-.08-3.38-2.24-6.66-4.7-9.75-7.33-.37-.31-.82-.7-1.13-1.21-.65-1.07-.49-2.38-.38-3.34.02-.18.14-.34.31-.41.17-.06.37-.03.51.09 4.26 3.65 7.44 6.59 10.3 9.55.19.2.19.52-.01.71-.2.19-.51.19-.71-.01-2.67-2.76-5.62-5.52-9.49-8.85-.03.67.03 1.26.33 1.76.23.37.6.69.92.96 3.06 2.6 6.31 5.04 9.66 7.25.23.15.29.46.14.69-.1.15-.25.22-.42.22Z"
  />
  <path
    d="M145.92 315.14c-.29 0-.59-.02-.88-.06-.94-.14-1.8-.49-2.63-.83l-5.04-2.06c-.26-.1-.38-.4-.27-.65.1-.25.4-.38.65-.27l5.04 2.06c.78.32 1.58.65 2.4.76 1.75.25 3.54-.45 5.12-1.07l8.28-3.25c.12-.04.29-.11.34-.18.02-.03.06-.13.01-.41-.33-1.97-2.24-3.55-4.23-3.55h-.01c-.42.39-1.01.7-1.63 1.03-.58.31-1.18.62-1.71 1.03a5.979 5.979 0 0 0-2.3 4.25c-.02.27-.26.49-.53.46a.497.497 0 0 1-.46-.54 6.946 6.946 0 0 1 2.69-4.97c.6-.46 1.26-.81 1.85-1.12.62-.33 1.21-.64 1.52-.98.09-.1.21-.16.34-.16 2.55-.16 5.04 1.87 5.47 4.38.05.31.09.77-.18 1.15-.22.31-.56.45-.79.54l-8.28 3.25c-1.38.54-3.04 1.19-4.75 1.19Z"
  />
  <path
    d="M148.72 317.44c-1 0-1.94-.28-2.89-.59-2.53-.82-5.05-1.8-7.47-2.9a.502.502 0 0 1-.25-.66c.11-.25.41-.36.66-.25 2.39 1.09 4.87 2.05 7.36 2.86.93.3 1.84.58 2.74.54.86-.03 1.69-.33 2.57-.64.3-.11.6-.21.9-.31.66-.21 1.35-.38 2.01-.55 1.95-.49 3.79-.95 4.98-2.32.3-.35.67-.9.68-1.53.01-.52-.27-1.02-.68-1.18-.26-.1-.38-.4-.28-.65s.39-.38.65-.28c.79.32 1.32 1.2 1.3 2.14-.02.92-.52 1.69-.93 2.16-1.4 1.61-3.48 2.13-5.49 2.64-.65.16-1.32.33-1.95.53-.29.09-.58.2-.87.3-.91.33-1.85.67-2.87.7h-.19ZM142.75 306.38c-.49 0-1.01-.17-1.48-.5-.52-.36-.91-.85-1.26-1.28a.495.495 0 0 1 .08-.7c.22-.17.53-.14.7.08.32.4.65.81 1.05 1.08.38.27.82.38 1.16.29.27-.07.54.09.61.36.07.27-.09.54-.36.61-.16.04-.33.06-.5.06ZM148.31 305.43c-.15 0-.31-.07-.4-.21a202.16 202.16 0 0 1-7.41-10.88.5.5 0 0 1 .15-.69.5.5 0 0 1 .69.15c2.34 3.67 4.82 7.31 7.38 10.82a.507.507 0 0 1-.4.8ZM151.68 305.32c-.16 0-.32-.08-.42-.23l-7.64-11.68a.492.492 0 0 1 .15-.69.5.5 0 0 1 .69.15l7.64 11.68c.15.23.09.54-.15.69a.53.53 0 0 1-.27.08Z"
  />
  <path
    d="M146.5 297.31c-.18 0-.36-.1-.45-.28-.29-.58-.71-1.28-1.33-1.46-.49-.14-1.07.06-1.53.25-.52.22-1.01.47-1.51.72-.37.19-.74.38-1.11.55-.25.12-.55 0-.66-.24s0-.55.24-.66c.36-.17.72-.35 1.08-.53.52-.27 1.04-.53 1.58-.76.61-.25 1.41-.51 2.19-.29.99.29 1.56 1.21 1.94 1.97.12.25.02.55-.22.67-.07.04-.15.05-.22.05Z"
  />
  <path
    d="M141.48 298.76a.47.47 0 0 1-.42-.24.504.504 0 0 1 .16-.69c.28-.17.55-.36.82-.55.61-.43 1.25-.88 1.99-1.15 1.16-.42 2.73-.28 3.47.84a.498.498 0 0 1-.83.55c-.45-.67-1.52-.74-2.3-.45-.62.23-1.18.62-1.76 1.03-.28.2-.57.4-.86.58-.08.05-.17.08-.26.08Z"
  />
  <path
    d="M142.62 300.92a.501.501 0 0 1-.37-.84c.23-.25.42-.54.63-.84.2-.29.41-.6.65-.88.69-.78 1.57-1.15 2.36-.98.47.1.85.37 1.17.63.48.39.92.83 1.3 1.32.17.22.14.53-.08.7s-.53.14-.7-.08c-.34-.43-.73-.82-1.15-1.16-.23-.19-.48-.37-.74-.42-.52-.11-1.06.27-1.41.67-.21.24-.4.51-.58.78-.22.32-.44.65-.72.96-.1.11-.23.16-.37.16Z"
  />
  <path
    d="M143.47 302.33c-.17 0-.34-.09-.44-.25a.494.494 0 0 1 .19-.68c.39-.22.75-.49 1.13-.77.26-.19.52-.39.79-.56.89-.59 1.7-.88 2.48-.88.14 0 .33 0 .52.08.22.08.38.24.49.33.44.41.86.84 1.25 1.3a.506.506 0 0 1-.77.66c-.36-.43-.76-.84-1.17-1.21-.05-.04-.13-.12-.17-.14a.514.514 0 0 0-.16-.02c-.57 0-1.2.23-1.93.71-.26.17-.5.35-.75.54-.39.29-.79.58-1.23.84-.08.04-.16.07-.25.07Z"
  />
  <path
    d="M145.16 304.05a.5.5 0 0 1-.45-.72c.36-.73.84-1.73 1.78-2.22.76-.4 1.73-.4 2.59 0 .71.33 1.33.93 1.8 1.72.14.24.06.54-.17.69-.24.14-.54.06-.69-.17-.26-.43-.7-1.01-1.37-1.32-.57-.27-1.22-.28-1.7-.02-.6.32-.96.99-1.35 1.78-.09.18-.26.28-.45.28Z"
  />
  <path
    d="M145.93 306.16c-.08 0-.16-.02-.23-.06a.49.49 0 0 1-.21-.67c.66-1.27 1.71-2.23 2.88-2.61 1.39-.46 2.97-.07 3.84.94.18.21.16.52-.05.71-.21.18-.52.16-.71-.05-.62-.71-1.76-.98-2.77-.64-.93.31-1.77 1.08-2.31 2.13-.09.17-.26.27-.44.27ZM170.9 211.71h-.09a.514.514 0 0 1-.41-.58 54.02 54.02 0 0 1 5.08-15.3.5.5 0 0 1 .89.45c-2.4 4.73-4.08 9.79-4.98 15.02-.04.24-.25.42-.49.42ZM161.2 228.14a.503.503 0 0 1-.46-.7c.84-1.99 1.81-3.95 2.87-5.82.14-.25.58-1.03 1.36-.96.28.02.48.27.46.54s-.27.46-.54.46c0 0-.14-.01-.41.46a57.248 57.248 0 0 0-2.82 5.72.5.5 0 0 1-.46.3ZM168.41 220.28a.506.506 0 0 1-.4-.8 22.88 22.88 0 0 0 2.88-5.33l.19-.52c.26-.71.53-1.45.94-2.13.82-1.36 2.11-2.35 3.25-3.22.22-.17.53-.13.7.09s.13.53-.09.7c-1.12.86-2.28 1.75-3 2.94-.36.6-.6 1.26-.86 1.96l-.2.53c-.75 1.98-1.76 3.85-3.01 5.56-.1.13-.25.21-.41.21ZM165.72 229.08c-.16 0-.31-.07-.41-.21-.16-.23-.1-.54.12-.7a24.49 24.49 0 0 0 5.57-5.42l.42-.57c.55-.76 1.12-1.54 1.84-2.19 1.73-1.56 4.29-2.17 6.54-1.56a.496.496 0 1 1-.26.96c-1.92-.52-4.13 0-5.61 1.34-.64.58-1.16 1.29-1.7 2.03l-.42.58a25.448 25.448 0 0 1-5.8 5.64c-.09.06-.19.09-.29.09ZM143.95 171.27c-.07 0-.15-.02-.21-.05-.96-.46-1.84-1.06-2.61-1.79-.2-.19-.21-.51-.02-.71s.51-.21.71-.02c.5.47 1.05.89 1.64 1.24 0-1.08-.01-2.16-.05-3.24-.01-.28.21-.51.48-.52.28-.01.51.21.52.48.05 1.36.06 2.74.04 4.11 0 .17-.09.33-.24.42-.08.05-.17.08-.26.08ZM172.38 255.92c-1.43 0-2.8-.36-3.94-1.06-1.56-.95-2.66-2.53-2.95-4.22-.19-1.12-.04-2.23.1-3.3l.38-2.83c.24-1.83.49-3.71.15-5.53a.499.499 0 0 1 .98-.18c.37 1.97.11 3.94-.14 5.84l-.38 2.83c-.14 1-.28 2.03-.11 3 .24 1.41 1.17 2.73 2.49 3.53 1.24.75 2.79 1.06 4.38.85.92-.12 1.69-.39 2.29-.81.63-.44 1.19-1.11 1.74-2.11 1.34-2.43 1.92-5.28 1.65-8.04-.03-.33-.06-.62-.02-.93.04-.28.13-.54.21-.77l.08-.24c.3-.92.24-1.92.17-2.98-.02-.28-.04-.55-.05-.83-.04-1.04.01-2.09.17-3.12a.5.5 0 1 1 .99.15c-.15.96-.2 1.95-.16 2.93.01.27.03.54.05.8.07 1.11.15 2.25-.21 3.36l-.09.27c-.07.2-.14.38-.16.56-.02.19 0 .4.02.62.3 3.03-.32 6.09-1.76 8.7-.63 1.14-1.28 1.92-2.04 2.45-.73.51-1.66.84-2.74.98-.36.05-.72.07-1.08.07Z"
  />
  <path
    d="M170.63 271.44h-.12c-1.38-.04-2.6-.71-3.68-1.3l-6.45-3.55c-.23-.13-.58-.32-.77-.68-.21-.42-.12-.86-.05-1.18.46-2.23.03-4.45-.43-6.8-.18-.93-.37-1.89-.5-2.84-.75-5.66.73-11.26 2.09-15.51.08-.26.37-.41.63-.32.26.08.41.37.32.63-1.34 4.15-2.78 9.61-2.05 15.07.12.92.31 1.86.49 2.78.46 2.34.94 4.76.44 7.16-.05.23-.09.46-.04.56.05.09.22.19.35.26l6.45 3.55c.98.54 2.08 1.15 3.22 1.17.57.02 1.14-.12 1.57-.23.36-.1.65-.2.87-.36.53-.4.7-1.2.86-1.98l.03-.15c.4-1.94 1.13-3.81 1.84-5.62 1.05-2.71 2.05-5.27 2.06-8.04 0-.51-.03-1.09-.33-1.49a.507.507 0 0 1 .11-.7.5.5 0 0 1 .7.11c.47.64.52 1.45.52 2.08-.02 2.95-1.09 5.71-2.13 8.39-.69 1.78-1.4 3.61-1.79 5.47l-.03.15c-.19.91-.4 1.95-1.24 2.58-.37.28-.8.42-1.21.53-.47.13-1.08.27-1.74.27Z"
  />
  <path
    d="M170.97 290.88c-1.11 0-2.19-.43-3-.8l-.45-.21c-1.06-.5-2.14-1.02-3.25-.96-.6.03-1.19.24-1.82.45-.88.3-1.79.62-2.78.46-.62-.09-1.11-.38-1.39-.79-.18-.28-.26-.58-.32-.87-.57-2.77-.67-5.6-.29-8.4.21-1.52.56-3.05.89-4.54.74-3.26 1.45-6.34.79-9.44-.06-.27.12-.54.39-.59.27-.05.54.12.59.39.7 3.31-.06 6.64-.8 9.87-.33 1.46-.68 2.97-.88 4.45-.36 2.69-.27 5.4.28 8.06.04.21.09.4.17.52.12.18.38.31.71.36.74.11 1.5-.15 2.3-.42.66-.23 1.35-.46 2.09-.51 1.35-.08 2.57.5 3.74 1.06l.44.21c.92.43 2.25.94 3.38.6-.36-1.58-.29-3.16-.22-4.69l.24-5.48c.01-.28.03-.7.29-1.05.05-.07.11-.13.18-.19l.09-.09a.475.475 0 0 0-.3-.34c-.25-.07-.55-.03-.87.02-.12.02-.25.03-.37.05-2.5.22-4.54-1.59-6.25-3.32a.513.513 0 0 1 0-.71c.2-.19.51-.19.71 0 1.55 1.57 3.38 3.22 5.45 3.03.11 0 .22-.03.33-.04.39-.06.83-.12 1.28.01.43.12.8.47.95.88.13.34.09.68-.1.97-.07.11-.15.19-.22.25-.03.03-.06.05-.08.09-.07.1-.08.32-.09.49l-.24 5.48c-.07 1.54-.14 3.13.24 4.62.02.09.09.34-.06.59-.11.18-.27.25-.34.28-.46.2-.95.28-1.42.28Z"
  />
  <path
    d="M172.2 277.26h-.05a.504.504 0 0 1-.45-.55c.24-2.57.94-5.05 2.08-7.37a.5.5 0 1 1 .9.44 20.297 20.297 0 0 0-1.98 7.03c-.02.26-.24.45-.5.45ZM176.66 301.22c-2.64 0-5.61-.54-8-2.42-1.1-.86-1.99-1.95-2.85-3l-.43-.52a53.091 53.091 0 0 0-4.9-5.16c-.2-.19-.22-.5-.03-.71.19-.2.5-.22.71-.03a57.78 57.78 0 0 1 5 5.26l.43.52c.83 1.01 1.68 2.05 2.7 2.84 3.03 2.38 7.14 2.42 10.06 2.03.35-.05.68-.1.89-.27.35-.28.35-.88.14-1.3-.26-.53-.77-.94-1.27-1.34l-4.75-3.77c-.95-.75-2.02-1.6-2.6-2.83a.504.504 0 0 1 .91-.43c.48 1.02 1.45 1.79 2.31 2.47l4.75 3.77c.56.44 1.19.95 1.55 1.69.38.78.36 1.9-.41 2.52-.41.33-.91.42-1.38.48-.85.11-1.81.19-2.81.19Z"
  />
  <path
    d="M177.28 300.4c-.13 0-.27-.05-.36-.16l-10-10.64c-.19-.2-.18-.52.02-.71.2-.19.52-.18.71.02l10 10.64a.504.504 0 0 1-.36.85ZM178.75 299.37a.48.48 0 0 1-.37-.17l-7.71-8.69a.514.514 0 0 1 .04-.71c.21-.18.52-.17.71.04l7.71 8.69c.18.21.16.52-.04.71-.1.08-.21.13-.33.13Z"
  />
  <path
    d="M174.1 293.55a.49.49 0 0 1-.48-.38c-.12-.49-.64-.83-1.04-1.04-1.03-.52-2.31-.71-3.59-.54-1.15.16-2.34.59-3.53 1.29-.24.14-.54.06-.68-.18a.493.493 0 0 1 .18-.68c1.31-.77 2.62-1.25 3.91-1.42 1.48-.2 2.97.02 4.18.63.85.43 1.39 1.01 1.56 1.68.07.27-.09.54-.36.61-.04.01-.08.02-.12.02Z"
  />
  <path
    d="M167.53 294.46c-.06 0-.13-.01-.19-.04a.492.492 0 0 1-.27-.65c.25-.59.69-1.09 1.26-1.4.61-.33 1.3-.41 1.88-.44.7-.04 1.44-.02 2.4.05 1.13.08 2.38.29 3.16 1.21.18.21.15.53-.06.7-.21.18-.53.15-.7-.06-.53-.63-1.5-.79-2.47-.86-.92-.07-1.63-.08-2.28-.05-.48.03-1.02.08-1.46.32-.36.2-.65.52-.81.9a.51.51 0 0 1-.46.31Z"
  />
  <path
    d="M169.36 296a.51.51 0 0 1-.31-.11.496.496 0 0 1-.08-.7c.46-.58 1.06-1.04 1.73-1.34 1.13-.51 2.37-.53 3.53-.47.57.03 1.22.08 1.82.34.73.32 1.23.92 1.35 1.59.05.27-.14.53-.41.58a.506.506 0 0 1-.58-.41c-.07-.4-.44-.7-.77-.85-.44-.19-.96-.23-1.46-.26-1.04-.05-2.14-.04-3.08.38-.53.24-1 .6-1.35 1.05-.1.12-.25.19-.39.19Z"
  />
  <path
    d="m170.41 297.8-.39-.92c1.24-.53 2.53-1.07 3.87-1.42 1.54-.4 2.97-.48 4.25-.23a.504.504 0 1 1-.19.99c-1.13-.22-2.41-.15-3.8.22-1.27.33-2.52.86-3.73 1.37Zm-.2-.45ZM174.22 299.16c-.13 0-.26-.05-.36-.15-.19-.2-.19-.51.01-.71.55-.53 1.23-1.18 2.13-1.4 1.24-.29 2.47.35 3.28.78.24.13.34.43.21.68-.13.24-.43.34-.68.21-.9-.47-1.78-.88-2.59-.7-.64.15-1.18.68-1.66 1.14-.1.09-.22.14-.35.14ZM165.54 291.46s-.09 0-.13-.02a.502.502 0 0 1-.35-.62c.18-.65.74-1.18 1.46-1.38.54-.15 1.16-.12 1.84.08.26.08.42.36.34.62-.08.27-.36.41-.62.34-.5-.15-.93-.17-1.29-.07-.38.11-.68.38-.77.68-.06.22-.26.37-.48.37ZM163.71 302.39c-.11 0-.21-.03-.3-.1-2.14-1.64-4.81-3.68-5.95-6.6-.12-.3-.24-.67-.22-1.06.02-.34.14-.64.25-.91.04-.09.07-.17.1-.26.23-.65.19-1.38.14-2.15-.04-.78-.09-1.59.14-2.39.07-.23.28-.39.52-.36.24.02.43.2.46.43.34 2.5 1.07 4.38 2.23 5.74.46.54.92.9 1.38 1.09.41.17.89.24 1.36.3l1.73.24s.19.02.24.01c.23-.16.53-.09.69.14.15.23.09.54-.14.7-.33.22-.71.17-.92.14l-1.73-.24c-.5-.07-1.07-.15-1.61-.37-.61-.26-1.19-.7-1.75-1.36a9.17 9.17 0 0 1-1.57-2.66c-.03.36-.09.72-.21 1.08-.04.1-.08.21-.12.31-.09.21-.17.41-.18.59-.01.2.07.43.15.64 1.04 2.66 3.58 4.61 5.63 6.17.22.17.26.48.09.7-.1.13-.25.2-.4.2Z"
  />
  <path
    d="M165.78 301.79c-.13 0-.25-.05-.35-.14-2.65-2.58-5.22-5.3-7.62-8.1a.505.505 0 0 1 .05-.71c.21-.18.52-.16.71.05 2.27 2.65 4.69 5.23 7.2 7.68.43-.31.98-.4 1.42-.48.55-.09.9-.28.96-.5.07-.27.34-.43.61-.36.27.07.43.34.36.61-.12.45-.52 1.02-1.76 1.24-.46.08-.98.17-1.15.46-.08.13-.21.22-.36.24h-.07ZM163.91 294.01c-.22 0-.42-.15-.48-.37l-1.22-4.62c-.07-.27.09-.54.36-.61.27-.07.54.09.61.36l1.22 4.62c.07.27-.09.54-.36.61-.04.01-.09.02-.13.02Z"
  />
  <path
    d="M168.54 300.76c-.2 0-.39-.12-.47-.33-.1-.26.04-.55.29-.64a5.29 5.29 0 0 1 3.1-.16c.27.07.43.34.36.61-.07.27-.35.43-.61.36-.82-.21-1.71-.16-2.51.13-.06.02-.12.03-.17.03Z"
  />
  <path
    d="M173.42 307.15c-.19 0-.39 0-.59-.03-1.58-.18-2.87-1.07-4.27-2.13-1.44-1.09-2.88-2.2-4.31-3.32a.496.496 0 0 1-.09-.7c.17-.22.48-.26.7-.09 1.42 1.11 2.85 2.21 4.29 3.31 1.28.97 2.44 1.78 3.77 1.93.73.08 1.51-.05 2.19-.17 2.13-.36 4.26-.76 6.38-1.16l3.05-.57c.06-.01.23-.04.27-.08 0 0 .01-.04.02-.17.18-2.02-1.41-4.07-3.41-4.4a.49.49 0 0 1-.41-.57c.04-.27.3-.47.57-.41 2.53.42 4.47 2.92 4.24 5.47-.02.22-.06.47-.24.7-.25.32-.64.4-.87.44l-3.05.57c-2.13.4-4.26.8-6.4 1.17-.58.1-1.22.21-1.88.21Z"
  />
  <path
    d="M174.4 310c-.46 0-.92-.04-1.39-.12-1.81-.33-3.59-1.41-5.46-3.3-.52-.52-1.01-1.07-1.51-1.62-.87-.96-1.76-1.95-2.76-2.77a.503.503 0 0 1-.07-.7c.17-.21.49-.25.7-.07 1.06.87 1.98 1.88 2.87 2.87.48.54.97 1.07 1.48 1.59 1.72 1.74 3.33 2.72 4.93 3.02 1.63.3 3.26-.08 4.98-.49 1.08-.25 2.19-.52 3.32-.6l.47-.03c.55-.03 1.08-.06 1.54-.23.53-.2.99-.65 1.25-1.23s.29-1.22.08-1.75c-.1-.26.03-.55.28-.65.26-.1.55.03.65.28.3.78.27 1.7-.1 2.52-.37.83-1.03 1.47-1.81 1.76-.61.23-1.24.26-1.84.3l-.45.03c-1.05.08-2.13.33-3.17.58-1.31.31-2.65.62-4 .62ZM172.33 257.61c-1.47 0-2.88-.58-4.05-1.06l-2.76-1.13a.492.492 0 0 1-.27-.65c.1-.25.4-.38.65-.27l2.76 1.13c1.3.53 2.91 1.19 4.4.92.33-.06.66-.16 1.01-.27.69-.21 1.39-.44 2.17-.34.27.04.47.29.43.56-.04.27-.28.47-.56.43-.55-.07-1.13.11-1.74.3-.36.11-.74.23-1.13.3-.3.05-.61.08-.91.08Z"
  />
</svg>
