<svg class="svg" xmlns="http://www.w3.org/2000/svg" viewBox="0 0 320 320">
  <path
    d="m153.49,186.93s-.1,0-.14-.03c-.19-.08-.28-.3-.2-.49.52-1.27,1.93-7,1.94-7.06.04-.17.19-.29.36-.29.21,0,.36-.04.42-.1.11-.12.04-.55-.02-.92-.08-.5-.18-1.12-.04-1.72.42-1.81,1.3-7.47,1.31-7.53-.03-1.79.1-4.07.29-5.12.08-.48-.34-1.65-.71-2.69-.36-.99-.7-1.93-.74-2.57-.03-.47.08-2.39.23-5.05.28-4.73.69-11.88.37-13.43-.22-1.06-.15-2.81-.08-4.66.1-2.47.2-5.27-.39-6.47-1.11-2.24-1.85-12.53-1.88-12.96-.01-.21.14-.39.35-.4.2-.03.39.14.4.35,0,.11.76,10.58,1.81,12.68.68,1.37.57,4.14.47,6.83-.07,1.81-.14,3.51.06,4.48.34,1.66-.07,8.58-.36,13.63-.14,2.43-.26,4.53-.23,4.96.04.54.37,1.47.7,2.37.45,1.23.87,2.4.75,3.07-.18,1.01-.31,3.23-.28,5.04-.04.3-.9,5.81-1.33,7.65-.11.46-.03.98.05,1.43.09.59.18,1.14-.15,1.53-.16.19-.39.3-.69.34-.29,1.17-1.43,5.73-1.91,6.9-.06.15-.2.23-.35.23Zm27.92-63.1s-.07,0-.11-.02c-.2-.06-.31-.27-.25-.47l.06-.21-.43.21c-.19.09-.41.01-.5-.17-.09-.19-.01-.41.17-.5l.52-.25-.19-.21c-.14-.15-.13-.39.03-.53.15-.14.39-.13.53.03l.23.25.04-.11c.06-.2.27-.31.47-.25.1.03.17.1.22.18l.33-.16c.19-.09.41-.01.5.17.09.19.01.41-.17.5l-.75.36.49.54c.14.15.13.39-.03.53-.15.14-.39.13-.53-.03l-.23-.25-.04.11c-.05.16-.2.27-.36.27Zm-8.58-17.25c-.06,0-.11-.01-.16-.04-.18-.09-1.79-.9-1.81-2.15-.01-.78.59-1.49,1.8-2.11.11-.06.24-.06.35,0,.19.11,1.88,1.08,1.82,2.36-.04.75-.66,1.39-1.85,1.9-.05.02-.1.03-.15.03Zm0-3.53c-.59.33-1.22.8-1.21,1.33,0,.6.79,1.16,1.23,1.41.58-.27,1.21-.67,1.24-1.18.03-.61-.8-1.27-1.26-1.56Zm21.38,3.08c-.08,0-.15-.02-.22-.07-.18-.13-1.79-1.3-1.52-2.45.16-.7.92-1.15,2.31-1.37.11-.02.22.01.3.08.14.11,1.32,1.14,1.09,2.26-.14.68-.76,1.2-1.86,1.53-.04.01-.07.02-.11.02Zm.52-3.12c-.89.17-1.44.44-1.52.77-.11.47.6,1.18,1.07,1.55.51-.18,1.07-.46,1.16-.9.1-.51-.4-1.12-.71-1.42Z"
  />
  <path
    d="m133.45,144.44s-.05,0-.08,0c-.2-.04-.33-.24-.29-.44.68-3.31,7.6-15.78,10.22-19.54,1.75-2.51,5.74-5.26,8.95-7.46,1.48-1.02,2.76-1.9,3.43-2.5,2.21-2,5.2-1.44,5.33-1.42.2.04.34.24.3.44-.04.2-.24.34-.44.3-.03,0-2.76-.51-4.68,1.24-.7.63-2,1.53-3.51,2.56-2.99,2.06-7.09,4.88-8.76,7.28-2.53,3.62-9.45,16.1-10.1,19.26-.04.18-.19.3-.37.3Zm46.2-18.38c-.15,0-.29-.09-.35-.24,0,0-.42-1.02-1.7-2.59-1.11-1.37-3.57-2.03-5.03-2.42l-.5-.14c-1.05-.3-1.36-1.55-1.6-2.55-.12-.49-.23-.95-.4-1.18-.46-.67.23-1.82.91-2.94.04-.07.09-.14.13-.22-.38.32-.82.72-1.19,1.06-1.94,1.75-2.93,2.56-3.52,2.47-.24-.04-.44-.17-.59-.38-.47-.7-.16-2.17-.09-2.46.05-.2.24-.33.45-.28.2.05.33.25.28.45-.13.58-.23,1.55-.01,1.87.03.05.06.06.08.06.39-.02,1.96-1.44,2.89-2.29,1.69-1.53,2.13-1.89,2.52-1.78.12.03.27.16.32.27.13.33-.08.71-.63,1.61-.31.51-1.12,1.86-.94,2.12.24.35.37.88.51,1.43.21.86.45,1.83,1.08,2.01l.49.13c1.55.42,4.15,1.11,5.42,2.67,1.36,1.67,1.79,2.74,1.81,2.78.08.19-.02.41-.21.49-.05.02-.09.03-.14.03Zm18.39-3.7c-3.04,0-4.35-3.2-4.62-4.97-.03-.2.11-.4.31-.43.21-.03.4.11.43.31.03.19.74,4.49,4.06,4.33l1.2-1.86c-.79-.62-2.87-2.33-3.21-3.42-.06-.2.05-.41.25-.47.2-.06.41.05.47.25.25.78,2.11,2.41,3.23,3.25.16.12.2.34.09.5l-1.49,2.3c-.06.1-.17.16-.28.17-.15.01-.29.02-.44.02Zm-4.25-5.77c-.09,0-.18-.03-.25-.09-.15-.13-.17-.34-.06-.5,2.56-3.56,1.23-10.99,1.22-11.07-.04-.2.1-.4.3-.44.2-.04.4.1.44.3.04.22.72,4.03.15,7.59.92-2.36,1.74-6.01,1.42-11.24-.01-.21.14-.38.35-.4.2-.03.38.14.4.35.68,11.09-3.53,15.22-3.71,15.39-.07.07-.17.1-.26.1Z"
  />
  <path
    d="m209.19,216.29c-1.46,0-3.36-.25-4.38-.4-.15-.02-.28-.14-.31-.29l-.23-1.05c-.04-.2.08-.4.29-.45.21-.04.4.08.45.29l.17.79c2.24.31,4.76.48,5.29.25-.01-1.31.95-7.45,1.43-9.62.52-2.37,1.34-24.1,1.34-27.17,0-1.52-.19-9.72-.37-17.66-.26-11.12-.41-17.9-.37-18.29.02-.75-2.89-14.39-4.52-17.72-1.54-3.14-8.52-4.15-8.59-4.16-.21-.03-.35-.22-.32-.42.03-.2.21-.35.42-.32.3.04,7.44,1.07,9.16,4.57,1.58,3.23,4.69,17.13,4.6,18.12-.03.45.18,9.88.38,18.2.18,7.94.37,16.14.37,17.67,0,3.14-.81,24.85-1.36,27.33-.55,2.5-1.48,8.73-1.41,9.52.01.17-.05.34-.18.46-.27.25-.97.34-1.84.34Zm1.28-.74h0,0Z"
  />
  <path
    d="m198.24,225.52c-.16,0-.31-.1-.36-.27-.06-.2.05-.41.25-.47.91-.28,2.32-.85,2.61-1.27.21-.49-.2-4.46-.75-8.31-.05.01-.11,0-.17,0-.15-.04-3.65-1.07-5.17-1.98-.13-.08-.52-.31-.36-.67.28-.62,4.01.39,7.09,1.34.73.23,2.82.11,4.21.04.82-.04,1.42-.08,1.7-.05.79.08,2.96,1.36,3.38,1.62.18.11.23.34.13.51-.11.18-.34.23-.51.13-.93-.56-2.58-1.47-3.07-1.51-.23-.02-.88.01-1.58.05-1.61.09-3.61.2-4.47-.07-.15-.05-.33-.1-.53-.16.5,3.37,1.21,8.8.72,9.5-.54.77-2.6,1.43-3.01,1.55-.04.01-.07.02-.11.02Zm-1.16-12.02c1.06.4,2.14.74,2.65.89l.09-.17c-.84-.23-1.84-.5-2.74-.72Z"
  />
  <path
    d="m188.87,213.42c-2,0-3.93-.15-4.8-.41-1.09-.33-3.18-.51-5.39-.7-2.23-.19-4.54-.39-6.09-.77-3.36-.82-3.14-2.6-3.13-2.68.03-.2.21-.35.42-.32.2.03.34.21.32.42,0,.04-.05,1.21,2.57,1.85,1.5.36,3.77.56,5.98.75,2.26.19,4.39.38,5.55.73,2.23.68,9.45.39,10.07-.23.38-.47.75-2.59,1.11-4.64.21-1.17.42-2.39.67-3.57.31-1.44.14-2.87-.04-4.38-.25-2.07-.52-4.41.35-7.3.85-2.81.91-5.28.97-7.67.04-1.74.09-3.38.44-4.99.42-1.94.31-6.28.21-10.1-.1-4.06-.15-6.59.18-7.36.64-1.5,1.31-7.96,1.32-8.03,0-.08.04-.15.09-.2.37-.44,9.18-10.87,13.16-11.48.21-.04.4.11.43.31.03.21-.11.4-.31.43-3.53.55-11.75,10.11-12.62,11.14-.1.92-.72,6.63-1.36,8.13-.28.66-.2,3.91-.12,7.04.1,3.87.21,8.26-.23,10.28-.34,1.54-.38,3.14-.42,4.84-.06,2.33-.13,4.97-1.01,7.87-.83,2.75-.57,4.91-.33,7,.19,1.57.36,3.06.03,4.62-.25,1.17-.46,2.37-.66,3.54-.47,2.71-.79,4.39-1.27,4.99-.5.61-3.35.88-6.07.88Zm-71.04-25.83c-.19,0-.4-.02-.61-.07-2.22-.51-11.13-2.96-11.22-2.99-.15-.04-.26-.18-.27-.34-.14-2.24,3.27-5.77,4.01-6.51-.26-2.27.48-4.93,1.16-6.78.41-1.14.79-1.95.89-2.16.04-.2.09-.41.14-.62-.03-.03-.05-.07-.07-.11-.07-.18,0-.38.16-.47.04-.03.08-.06.12-.09,1.05-2.97,3.73-6.57,5.26-8.62.44-.59.79-1.06.93-1.29.75-1.25,7.43-12.3,10.06-15.08,2.58-2.73,14.35-17.21,14.47-17.35.13-.16.37-.19.53-.05.16.13.19.37.05.53-.48.6-11.91,14.65-14.51,17.4-2.58,2.72-9.22,13.7-9.96,14.95-.15.25-.49.71-.97,1.35-1.3,1.75-3.74,5.02-4.9,7.79,1.84-.38,4.92.59,9.23,2.87.06.03.11.08.15.14.01.02,1.24,1.94,5.61,2.36.1,0,.2.06.26.14s.09.19.07.29c-.02.1-.39,2.39-1.52,4.74-1.3,2.69-4.16,3.16-5.01,3.24-.41.04-.39,1.27-.37,2.01.02.79.02,1.25-.18,1.53-.05.08-.12.21-.21.38-.47.88-1.52,2.83-3.3,2.83Zm-11.35-3.71c1.53.42,8.93,2.45,10.91,2.91,1.6.38,2.56-1.42,3.08-2.38.11-.2.2-.36.26-.45.06-.12.05-.7.04-1.08-.03-1.19-.06-2.67,1.05-2.77.75-.07,3.27-.48,4.4-2.82.82-1.69,1.23-3.4,1.38-4.14-3.96-.48-5.4-2.15-5.71-2.58-4.47-2.36-7.75-3.28-9.13-2.6-.11.34-.2.67-.25.98,0,.04-.02.07-.03.1,0,0-.43.87-.88,2.12-.67,1.83-1.4,4.46-1.1,6.61.02.12-.02.24-.11.32-1.07,1.04-3.75,4-3.91,5.79Zm36.9-34c-.21,0-.38-.17-.38-.38,0-.24,0-.44,3.39-2.4.08-.67.37-2.98.88-5.37.59-2.8.8-4.13,0-9.12-.8-4.99-2.28-9.31-2.3-9.35-.07-.2.04-.41.23-.48.2-.06.41.04.48.23.02.04,1.51,4.42,2.33,9.48.83,5.12.61,6.5,0,9.39-.59,2.79-.88,5.46-.89,5.49-.01.12-.08.23-.19.29-1.4.81-2.96,1.76-3.22,2.01-.06.12-.19.2-.33.2Zm3.37-2.54h0,0Z"
  />
  <path
    d="m119.11,188.94c-.39,0-.83-.08-1.14-.15-.61-.14-2.67-.69-3.34-2.08-.09-.19-.01-.41.17-.5.19-.09.41-.01.5.17.61,1.27,3.13,1.86,3.9,1.81-.1-.18-.34-.48-.59-.72-.15-.14-.16-.38-.02-.53.14-.15.38-.16.53-.02.27.25.89.9.87,1.41,0,.18-.08.33-.22.44-.15.12-.39.16-.67.16Zm.14-.62h0,0Zm4.99-8.91c-.08,0-.16-.03-.23-.08-.16-.13-.2-.36-.07-.53.43-.56-.34-2.7-.71-3.73-.33-.92-.42-1.19-.35-1.42.03-.11.1-.23.26-.5.48-.81,1.48-2.49.85-3.7-.91-1.75-2.15-13.38-2.21-13.87-.02-.21.13-.39.33-.41.21-.02.39.13.41.33.35,3.32,1.42,12.25,2.13,13.6.82,1.58-.32,3.5-.87,4.43-.09.16-.17.28-.19.34.02.04.2.54.34.94.68,1.87,1.23,3.62.6,4.44-.07.1-.19.15-.3.15Zm61.8-77.39s-.09,0-.14-.03c-2.88-1.12-5.59-.01-5.62,0-.09.04-.19.04-.28,0l-.95-.37c-.19-.08-.29-.29-.21-.49.08-.19.29-.29.49-.21l.82.32c.63-.23,3.17-1.02,5.93.01l.68-.13c.21-.04.4.09.44.3s-.09.4-.3.44l-.79.16s-.05,0-.07,0Zm-2.31-3.73c-.1,0-.2-.04-.28-.12-.14-.15-.13-.39.02-.53.29-.26.84-.7,1.26-.59.18.05.33.18.39.37.07.2-.03.41-.23.48-.14.05-.29.01-.38-.08-.13.06-.36.22-.53.38-.07.07-.16.1-.25.1Zm-1.42,0c-.06,0-.13-.02-.19-.05-.12-.07-.27-.13-.38-.16-.07.12-.19.2-.34.2-.2,0-.36-.16-.36-.36,0-.23.1-.42.28-.52.36-.21.89.04,1.17.2.18.1.24.33.14.51-.07.12-.2.19-.33.19Zm-3.42-5.43c-.1,0-.19-.03-.28-.08-.44-.26-.91-1.18-1.05-1.46-.09-.19-.01-.41.17-.5.18-.09.41-.01.5.17.19.39.48.86.66,1.06.12-.14.29-.46.4-.76.07-.19.29-.29.48-.22.19.07.29.29.22.48-.12.33-.46,1.1-.92,1.26-.06.02-.13.03-.19.03Zm-3.97-2.64c-.11,0-.22-.05-.29-.14-.13-.16-.1-.4.06-.53,2.85-2.3,5.53-.84,5.64-.78.18.1.24.33.14.51s-.33.25-.51.15c-.1-.05-2.36-1.26-4.81.71-.07.06-.15.08-.24.08Zm9.86-.75c-.15,0-.28-.09-.34-.23-.08-.19,0-.41.2-.49.15-.06,3.73-1.55,6.11.03.17.11.22.35.1.52-.12.17-.35.22-.52.1-2.05-1.36-5.36.02-5.4.03-.05.02-.1.03-.15.03Z"
  />
  <path
    d="m189.85,118c-.07,0-.14-.02-.2-.06-.17-.1-.23-.33-.13-.5,0,0,.05-.09.12-.23.63-1.47,1.74-8.18,2.52-13.54-.51.78-1.07,1.55-1.33,1.92,0,0-.01.02-.02.02-.13.16-.36.19-.52.06-.16-.12-.19-.35-.07-.52,0,0,.01-.01.02-.02.26-.4,1.11-3.63,1.33-7.75.17-3.16-1.56-6.95-2.36-8.53-.72,1.19-2.51,2.55-3.1,2.86-.12.06-.44.22-.68.01-.12-.1-.16-.34-.11-.49,0,0,.03-.02-.1-.33-.23-.58-.98-.98-1.51-1.18-.39,1.07-1.92,1.87-2.12,1.97-.11.05-.23.05-.34,0-.8-.42-1.66-2.39-2.12-3.58-.18.65-.4,1.7-.55,2.63-.02.15-.14.28-.29.31-.16.03-.31-.03-.39-.16-2.12-3.29.14-7.3.24-7.47.19-.5,2.14-5.29,4.64-4.38.19.07.29.29.22.48-.07.19-.29.29-.48.22-1.54-.57-3.2,2.7-3.71,4-.04.08-1.71,3.05-.77,5.75.47-2.39.84-2.58.97-2.65.09-.05.21-.05.31-.01s.18.12.21.23c.46,1.36,1.33,3.34,1.91,3.88.56-.32,1.6-1.04,1.6-1.67,0-.12.05-.22.14-.3.09-.07.21-.1.32-.07.08.02,1.91.5,2.4,1.75.04.1.07.19.09.28.88-.57,2.8-2.31,2.75-2.95-.01-.17.09-.34.26-.39.17-.05.35.02.44.17.13.22,3.09,5.38,2.86,9.68-.12,2.25-.43,4.29-.75,5.78.49-.75.85-1.37.89-1.59,0,0,0-.02,0-.03.03-.2.2-.35.42-.32.2.02.35.21.33.41,0,0,0,.02,0,.03-.15,1.06-1.04,7.42-1.9,11.86,1.48-3.65,3.39-9.55,3.7-16.18.45-9.8-1.48-15.95-6.1-19.34-.17-.12-.2-.36-.08-.52.12-.17.36-.21.52-.08,4.83,3.55,6.87,9.9,6.4,19.97-.48,10.32-4.78,18.88-5.48,20.2-.04.08-.08.15-.11.21-.07.11-.19.16-.31.16Z"
  />
  <path
    d="m183.68,109.34c-1.61,0-8.07-2.53-9.11-5.25-.99-2.59-.41-11.29-.39-11.66.01-.2.18-.35.37-.35h0s0,0,0,0c-1.45-4.48,1.09-10.32,1.2-10.56.02-.05,2.34-5.56,7.12-3.81.19.07.29.29.22.48-.07.2-.29.29-.48.22-4.11-1.51-6.09,3.2-6.17,3.4-.02.06-1.84,4.24-1.54,8.07.34-1.63.89-3.57,1.63-3.97.09-.05.19-.06.29-.03.1.03.18.1.22.19l.62,1.22c.09.18.02.41-.16.5-.18.1-.41.02-.5-.16l-.38-.75c-.49.85-1.04,3.12-1.33,5.13-.03.17-.17.31-.34.32-.01,0-.02,0-.04,0,.02.05.02.1.02.15,0,.09-.6,8.9.34,11.34.9,2.35,6.98,4.77,8.39,4.77.02,0,.04,0,.05,0,1.33-.07,7.69-2.63,8.42-4.52.07-.19.29-.29.49-.21.19.08.29.29.21.49-.88,2.27-7.54,4.92-9.08,5-.02,0-.04,0-.07,0Z"
  />
  <path
    d="m167.91,209.59c-.84,0-1.66-.14-2.12-.48-3.14-.02-10-.17-11.29-.99-.64-.09-3.96-.64-7.21-3.31-.59-.2-3.48-1.26-3.4-3.11.05-1.29,3.43-6.75,7.07-12.47.54-.86.92-1.45,1.01-1.61.57-1.02,3.52-8.31,3.51-9.01-.15-.59.21-3.87.28-4.52.02-.21.21-.34.41-.33.21.02.35.21.33.41-.21,1.85-.37,3.96-.29,4.3.2.84-3.34,9.07-3.59,9.52-.09.17-.48.77-1.04,1.65-1.89,2.96-6.9,10.83-6.95,12.1-.05,1.17,2.11,2.12,2.95,2.38.05.01.09.04.13.07,3.39,2.81,6.94,3.2,6.97,3.2.1,0,.19.06.25.13.54.48,6.01.8,10.99.84.1,0,.19.04.26.11.59.59,3.27.4,3.75-.02.19-.35-.22-2.7-.47-4.09-.21-1.21-.41-2.34-.41-2.94,0-.96-.9-6.33-1.56-10.24-.35-2.05-.64-3.82-.75-4.56-.32-2.29,1.43-5.46,2.42-6.44.44-.44.84-4.19,1.08-6.44.25-2.34.41-3.81.63-4.34.24-.58,1.06-3.91,1.85-7.13.95-3.87,1.93-7.88,2.34-8.92.67-1.75,3.25-13.38,4.19-17.71.53-2.45.28-8.53,0-9.85-.12-.59-.65-1.49-1.26-2.55-.62-1.07-1.32-2.28-1.81-3.52-.93-2.33-3.38-4.38-3.4-4.4-.15-.12-.18-.34-.07-.5,1.25-1.87.92-4.35.92-4.37-.03-.21.11-.39.32-.42.2-.04.39.11.42.32.02.11.35,2.55-.86,4.61.68.61,2.55,2.4,3.38,4.49.47,1.19,1.16,2.38,1.76,3.42.64,1.11,1.19,2.06,1.34,2.77.13.6.25,2.09.3,3.79,1.34-2.4,3.32-6.08,3.57-7.09.28-1.12,1.95-2.2,3.42-3.15.67-.43,1.3-.84,1.56-1.12.88-.94,5.04-2.26,5.51-2.41.09-.03.19-.02.27.02.47.22.93.24,1.41.07,1.46-.53,2.49-2.71,2.5-2.73.07-.15.23-.24.41-.21.17.03.29.17.31.34.03.36-.15,1.05-.4,1.79,2.09-3.68,2.27-7.59,1.97-10.46-.38-3.78-3.93-17.46-5.73-21.47-.81-1.81-2.99-4.44-8.79-6.72-.99-.39-2.57.56-3.1.96-.16.13-.4.09-.52-.07-.12-.17-.09-.4.07-.52.23-.17,2.28-1.68,3.74-1.1,6.11,2.4,8.41,5.2,9.27,7.14,1.82,4.05,5.41,17.88,5.79,21.7.37,3.67,0,8.99-3.9,13.5-.12.14-.33.17-.48.07-.16-.1-.22-.3-.14-.47.27-.63.62-1.47.9-2.25-.45.5-1.01.97-1.65,1.2-.62.22-1.24.21-1.84-.04-1.78.57-4.5,1.58-5.05,2.17-.32.34-.96.75-1.7,1.23-1.22.79-2.89,1.87-3.09,2.71-.38,1.53-3.99,7.89-4.14,8.16-.03.06-.08.1-.13.13.01,1.88-.07,3.81-.33,4.98-.03.16-3.4,15.67-4.23,17.82-.38,1-1.41,5.16-2.31,8.83-.87,3.55-1.62,6.61-1.88,7.24-.19.46-.39,2.33-.58,4.14-.4,3.78-.71,6.3-1.29,6.89-.91.91-2.47,3.88-2.21,5.81.1.73.4,2.49.74,4.54.7,4.16,1.57,9.35,1.57,10.37,0,.53.19,1.64.4,2.81.52,3,.7,4.36.22,4.79-.39.34-1.47.57-2.53.57Z"
  />
  <path
    d="m164.65,115.12c-2.26,0-3.87-1.33-3.96-1.4-.14-.12-.17-.31-.09-.47.09-.16.28-.23.45-.17.72.24,1.83-.58,3.11-1.55.66-.5,1.35-1.02,2.1-1.48,1.48-.91,1.81-5.36,2.17-10.07.15-2.06.31-4.19.57-6.3.88-7.14,5.55-14.25,9.55-16.99,1.61-1.1,2.95-1.5,3.98-1.2.9.26,1.21.97,1.23,1,.08.19,0,.41-.2.49-.19.08-.41,0-.49-.19-.01-.03-.21-.43-.77-.58-.56-.15-1.58-.09-3.32,1.11-3.87,2.65-8.38,9.53-9.23,16.46-.26,2.09-.42,4.21-.57,6.27-.4,5.33-.71,9.54-2.52,10.66-.72.44-1.39.95-2.04,1.44-.91.69-1.75,1.31-2.52,1.59.88.45,2.3.93,3.89.47h0s3.1-1.65,3.71-3.42c.07-.2.28-.3.48-.23.2.07.3.28.23.48-.71,2.05-4,3.8-4.14,3.87-.56.16-1.1.23-1.61.23Z"
  />
  <path
    d="m172.17,114.27c-.06,0-.12-.02-.18-.05-.14-.08-.5-.27-.68-2.68l-.5.76c-.08.12-.21.18-.35.17-.14-.01-.26-.1-.31-.23-.69-1.68,1.41-20.98,1.65-23.18.02-.24.61-6.09,5.31-10.31.15-.14.39-.13.53.03.14.15.13.39-.03.53-4.48,4.03-5.06,9.77-5.06,9.83-.8,7.22-1.87,18.49-1.8,21.89l.56-.85c.09-.14.26-.21.41-.16.16.04.27.18.28.35.03.64.08,1.34.15,1.93.34-1.38.87-3.18,1.41-3.62.11-.09.27-.11.4-.05.13.06.21.19.21.34v.78c.24.06.62.11.97-.06.39-.19.67-.61.83-1.25.05-.2.26-.32.46-.27.2.05.32.25.27.46-.22.87-.64,1.46-1.24,1.75-.87.42-1.78.01-1.82,0-.05-.02-.09-.05-.12-.09-.34.94-.71,2.37-.98,3.7-.02.12-.1.22-.21.27-.05.02-.1.04-.16.04Z"
  />
  <path
    d="m181.41,123.01s-.09,0-.13-.02c-1-.38-5.56-6.77-7-8.82,0,0,0,0-.01.01-.15.14-.39.12-.53-.03-.14-.15-.12-.39.03-.53.01-.01,1.4-1.25,1.81-1.81.22-.4.16-3.44-.02-6.02-.01-.21.14-.39.35-.4.2-.02.39.14.4.35.12,1.75.35,5.88-.12,6.52-.28.38-.89.97-1.35,1.4,0,0,.01.02.02.02,2.73,3.88,5.88,8.04,6.62,8.56.99-.16,2.58-.55,3.04-.97.15-.14.39-.13.53.02.14.15.13.39-.02.53-.8.74-3.28,1.14-3.56,1.19-.02,0-.04,0-.06,0Zm-5.54-30.17c-.08,0-.15-.02-.22-.07-.17-.12-.21-.36-.09-.52.59-.82,1.32-1.31,2.18-1.44,1.55-.25,2.93.77,2.98.81.17.12.2.36.08.52-.12.16-.36.2-.52.08-.01,0-1.18-.86-2.43-.67-.65.1-1.21.49-1.68,1.14-.07.1-.19.16-.31.16Zm14.64,0c-.09,0-.18-.03-.26-.1-2.1-1.97-3.9-.43-3.97-.37-.16.14-.39.12-.53-.03-.14-.16-.12-.39.03-.53.02-.02,2.38-2.06,4.99.38.15.14.16.38.02.53-.07.08-.17.12-.27.12Z"
  />
  <path
    d="m168.03,181.12c-.2,0-.4-.08-.57-.23-.38-.35-.54-1.06-.36-1.61.27-.85.66-1.34,1.13-1.46,0,0,0,0,0,0,.61-.14.97.04,1.16.23.46.45.36,1.24.29,1.56-.18.85-.8,1.22-1.32,1.44-.11.05-.23.07-.34.07Zm.39-2.57c-.16.04-.39.31-.6.96-.1.3,0,.69.15.82.05.04.07.04.11.02.55-.23.79-.49.88-.9.08-.39.05-.75-.08-.87-.1-.1-.3-.07-.46-.04Zm2.2-11.88c-.08,0-.17,0-.26-.02-.47-.07-.72-.31-.85-.51-.32-.49-.21-1.17-.07-1.66.24-.84,1.39-1.18,1.74-1.11.01,0,.02,0,.02,0,0,0,0,0,.02,0,.44.12.78.4.95.8.18.42.17.92-.02,1.28l-.05.09c-.21.4-.58,1.12-1.48,1.12Zm.45-2.55c-.22.02-.81.22-.91.58-.13.46-.14.85-.02,1.04.04.06.11.14.32.17.52.07.71-.22.96-.7l.05-.1c.07-.13.1-.4,0-.63-.08-.18-.21-.3-.41-.36Zm27.49-8.91c-.08,0-.17-.03-.24-.08-.16-.13-.19-.37-.05-.53,1.09-1.34,2.19-3.26,2.67-10.57.47-7.01,4.12-12.66,4.28-12.9.11-.17.35-.22.52-.11.17.11.22.35.11.52-.04.06-3.7,5.73-4.16,12.54-.46,6.83-1.39,9.2-2.84,10.99-.07.09-.18.14-.29.14Zm-1.73-1.2c-1.9,0-14.05-6.94-15.08-7.8-.13-.11-.27-.24-.28-.43-.03-.62,2.54-8.97,2.94-9.94.08-.2.21-.49.36-.84.59-1.36,1.68-3.89,1.76-4.58.02-.14.11-.26.24-.31.13-.05.28-.02.39.08.01.01.39.36,1.31.81.34.17.81.33,1.3.5.96.33,1.95.66,2.4,1.19.15.17.86.53,1.54.88,1.72.87,4.31,2.17,5.92,4.12l1.77.47c.11.03.2.1.25.21.05.1.05.22,0,.32-.03.06-2.81,5.83-2.72,8.48.04,1.09.11,6.55-2.02,6.85-.02,0-.05,0-.08,0Zm-14.59-8.36c1.26,1.1,13.23,7.61,14.54,7.61.01,0,.02,0,.03,0,.88-.13,1.49-2.8,1.38-6.08-.08-2.44,1.95-7.02,2.6-8.42l-1.45-.38c-.08-.02-.15-.06-.2-.13-1.51-1.87-4.06-3.16-5.76-4.01-1-.51-1.54-.78-1.77-1.06-.32-.37-1.25-.69-2.07-.97-.52-.18-1.01-.34-1.39-.53-.44-.22-.76-.41-1-.57-.29.97-.98,2.59-1.68,4.2-.15.34-.27.63-.36.83-.46,1.09-2.65,8.39-2.87,9.52Zm-8.21,7.24c-.06,0-.11,0-.17,0-.37-.04-.67-.23-.88-.55-.3-.46-.32-1.04-.2-1.42.2-.66.72-1.38,1.53-1.28.01,0,.02,0,.03,0,.74.1,1.1.43,1.27.69.22.33.27.75.15,1.15-.19.61-.83,1.42-1.72,1.42Zm.13-2.52c-.35,0-.59.49-.67.76-.06.21-.04.56.11.79.09.13.2.2.34.22.51.08.97-.48,1.09-.88.03-.11.07-.33-.06-.52-.13-.19-.4-.32-.78-.36,0,0-.01,0-.02,0h-.02Zm3.99-12.76c-.15,0-.3-.02-.44-.05-.83-.21-1.36-1.09-1.17-1.92.2-.82,1.01-1.38,1.88-1.28.04,0,.08.01.11.03.37.08.72.33.98.69.31.44.44.96.34,1.4-.07.34-.29.63-.63.84-.31.19-.7.3-1.08.3Zm.08-2.52c-.45,0-.85.29-.96.71-.1.44.18.91.62,1.02.29.07.68,0,.94-.15.11-.07.25-.19.29-.36.05-.23-.04-.55-.22-.81-.16-.23-.38-.38-.58-.4-.02,0-.05,0-.07-.01h-.03Zm6.17-6.84c-.37,0-.77-.12-1.18-.4-.61-.43-.79-.87-.83-1.17-.05-.35.07-.71.33-1.02.55-.66,1.89-.41,2.15-.35.06.01.12.04.17.08.75.47.95,1,.97,1.36.03.41-.14.81-.46,1.08-.29.24-.69.42-1.15.42Zm-.39-2.28c-.32,0-.6.05-.71.17-.13.15-.18.29-.16.44.03.21.21.44.51.65.71.5,1.23.18,1.42.02.07-.05.21-.21.2-.45-.02-.26-.24-.54-.63-.78-.19-.04-.42-.06-.63-.06Zm4.22-33.14c-.79,0-1.14-.87-1.21-1.35-.03-.2.11-.39.31-.43.21-.03.4.11.43.31,0,0,.11.59.39.7l.73-.77c.14-.15.38-.16.53-.01.15.14.16.38.01.53l-.85.9c-.06.07-.15.11-.24.12-.04,0-.07,0-.11,0Z"
  />
  <path
    d="m192.59,302.29c-1.31,0-2.74-.05-4.3-.16-2.12-.14-3.65-.81-4.54-1.98-.73-.96-.84-2.01-.83-2.65-1.7.51-3.58.88-3.99.16-.25-.44.17-3.54.72-6.88-1.62,1.22-4.62,2.81-5.63,2.99-1.7.3-10.94.02-13.25-1.82-2.04-1.62-1.71-4.92-1.51-6.9.03-.31.06-.6.07-.83.02-.4.1-.77.17-1.13.23-1.19.47-2.42-1.01-5.25-1.19-2.25-1.28-10.89-1.38-20.04-.07-6.74-.15-13.7-.65-18.51-1.18-11.19-6.26-32.58-6.31-32.79-.05-.2.08-.4.28-.45.2-.05.4.08.45.28.05.21,5.15,21.65,6.33,32.89.51,4.85.58,11.83.66,18.58.09,8.65.19,17.6,1.29,19.7,1.61,3.06,1.33,4.48,1.09,5.74-.07.35-.13.68-.15,1.03-.02.24-.04.54-.08.86-.18,1.82-.48,4.87,1.23,6.24,2.06,1.64,11.11,1.94,12.65,1.67,1.44-.26,5.13-2.59,5.94-3.36.02-.11.04-.22.06-.33-.17-.63-.62-2.18-1.1-3.81-1.18-4-2.79-9.48-2.92-10.91-.06-.69-.05-1.69-.03-2.96.04-2.8.09-7.04-.66-11.65-1.08-6.53-2.31-18.41-1.99-20.43.27-1.71.5-3.7.1-7.47-.27-2.5-.18-20.19.8-20.94.28-.22.57-.28.83-.2.5.16.74.77,1,1.55.26.79,4.12,22.24,3.71,27.83-.2,2.71.04,7.42.26,11.97.22,4.48.43,8.71.24,10.93-.43,4.83.16,19.41,1.26,21.6.04.07.05.16.03.24-.26,1.4-.52,2.85-.76,4.23.03.15.05.23.05.28,0,.09-.05.21-.15.34-.63,3.74-1.08,6.92-.96,7.37.24.13,1.95-.17,3.63-.71.13-.04.26-.01.36.08s.14.22.12.35c0,.01-.27,1.46.64,2.66.75.98,2.1,1.55,3.99,1.67,7.91.53,12.59-.32,13.16-2.41.5-1.81.56-4.22.62-6.55.03-1.29.06-2.62.17-3.83.3-3.36.1-19.39,0-24.85-.04-2.15-.57-4.12-1.25-6.63-.97-3.61-2.3-8.55-2.84-16.85-.88-13.8.19-25.96.2-26.08.02-.21.21-.37.41-.34.21.02.36.2.34.41-.01.12-1.07,12.22-.2,25.96.53,8.22,1.85,13.12,2.81,16.7.69,2.55,1.23,4.57,1.27,6.81.11,5.47.3,21.54,0,24.93-.11,1.19-.14,2.51-.17,3.78-.06,2.38-.12,4.83-.64,6.73-.57,2.07-3.81,3.12-9.63,3.12Zm-17.89-90.6s-.05,0-.15.08c-.47.94-.91,16.51-.51,20.26.41,3.86.17,5.91-.11,7.67-.28,1.78.85,13.29,1.99,20.19.76,4.67.71,8.95.67,11.78-.02,1.25-.03,2.24.03,2.89.12,1.35,1.79,7.02,2.89,10.77.29.97.51,1.73.68,2.32.16-.91.32-1.78.47-2.56-1.2-2.8-1.67-17.43-1.28-21.88.19-2.17-.02-6.38-.24-10.83-.23-4.58-.46-9.31-.26-12.06.39-5.28-3.39-26.69-3.67-27.54-.22-.68-.39-1.04-.51-1.07Zm23.88-50.91c-.19,0-.36-.15-.37-.34-.03-.33-.66-8.16-.07-10.53.05-.2.25-.32.46-.27.2.05.32.25.27.46-.56,2.25.09,10.21.09,10.29.02.21-.14.39-.34.4,0,0-.02,0-.03,0Zm-9.47-19.77c-.58,0-.97-.43-1.12-.71-.07-.12-.08-.28,0-.4l.85-1.39c.1-.16.3-.23.48-.14.62.28,1.25.83,1.01,1.44-.09.22-.25.37-.45.43.02.12.02.24-.03.35-.04.12-.17.34-.53.4-.07.01-.14.02-.2.02Zm-.36-.93c.08.08.19.17.34.18-.05-.1-.14-.24-.23-.35,0,0,0,0,0,0l-.11.17Zm.47-.77c.06.01.11.04.16.07.09.07.23.13.29.14-.04-.05-.19-.18-.39-.31l-.06.09Z"
  />
  <path
    d="m194.36,318.73c-2.57,0-4.76-1.88-5.77-2.91-1.56-1.6-.99-4.62-.57-6.84.13-.69.24-1.29.26-1.71.09-1.78.39-5.34.39-5.38.02-.21.18-.36.41-.34.21.02.36.2.34.41,0,.04-.3,3.59-.39,5.36-.02.47-.14,1.09-.28,1.81-.39,2.05-.91,4.85.37,6.17,1.57,1.6,4.67,3.97,7.89,1.84,3.16-2.09,4.35-5.93,4.12-8.61l.03-1.48c0-.21.2-.36.38-.37.21,0,.37.18.37.38l-.03,1.44c.25,2.85-1.04,7-4.45,9.26-1.05.7-2.09.97-3.07.97Zm-21.41-13.45c-5.4,0-6.71-3.03-7.34-4.49-.12-.27-.23-.53-.31-.62-.67-.79-.92-5.48-.98-6.9,0-.21.15-.38.36-.39.22,0,.38.15.39.36.12,2.78.46,6.04.8,6.44.15.18.27.46.43.81.61,1.41,1.74,4.04,6.65,4.04h.11c1.29-.01,2.25-.38,2.93-1.15,1.61-1.79,1.27-5.27,1.06-7.35-.07-.72-.12-1.24-.08-1.54.13-.96.05-1.67,0-1.97l-.2-.09c-.19-.08-.27-.31-.19-.5.08-.19.3-.27.5-.19l.37.17c.1.05.18.13.21.24.01.04.27.98.06,2.44-.03.22.02.75.08,1.36.22,2.2.58,5.89-1.25,7.92-.82.91-1.99,1.38-3.48,1.39h-.12Zm.56-79.49c-.18,0-.34-.13-.37-.32-.03-.21.11-.4.31-.43,1.12-.17,3.8-.52,4.44-.05.16.12.21.26.23.36.03.21-.11.4-.32.43-.17.03-.32-.06-.39-.2-.41-.17-2.28-.04-3.85.2-.02,0-.04,0-.06,0Zm3.87-.32h0s0,0,0,0Zm23.15-.93s-.05,0-.08,0c-.2-.04-.33-.25-.29-.45.03-.31-.93-1.41-2.05-2.36-.16-.13-.18-.37-.04-.53.13-.16.37-.18.53-.04.76.64,2.5,2.22,2.3,3.09-.04.17-.19.29-.37.29Z"
  />
  <path
    d="m202.47,307.59c-.76,0-1.84-.38-2.7-.75-1.28-.54-1.82-1.33-2.07-3.03-.15-.99,0-1.74.42-2.22.33-.39.83-.59,1.45-.59,1.05,0,2.9,1.07,3.36,1.35,0,0,.02,0,.03,0,.13.05.22.17.24.31.08.61.44,3.69.22,4.39-.06.2-.2.35-.4.44-.15.07-.34.1-.55.1Zm-2.91-5.84c-.39,0-.69.11-.88.33-.27.31-.35.87-.24,1.62.23,1.59.71,2.06,1.62,2.45,1.53.65,2.49.77,2.65.65.09-.32-.04-2.18-.24-3.85-.68-.4-2.18-1.21-2.91-1.21Z"
  />
  <path
    d="m194.47,315.17c-.45,0-.93-.06-1.47-.18-1.68-.38-3.35-6.45-3.67-7.66-.05-.2.07-.41.27-.46.2-.06.4.07.46.27.88,3.35,2.28,6.93,3.11,7.12,1.5.34,2.51.16,3.17-.58.73-.81,2.39-5.03,2.39-5.6,0-.2.16-.38.36-.39.2,0,.37.13.39.33.07.7-1.76,5.25-2.58,6.16-.59.66-1.4.99-2.43.99Zm8.63-8.28s-.07,0-.11-.02c-.24-.07-2.32-.72-2.98-1.14-.75-.47-.68-2.83-.62-3.82.01-.21.2-.38.4-.35.21.01.36.19.35.4-.09,1.48.04,2.95.28,3.14.49.31,2.19.87,2.8,1.06.2.06.31.27.25.47-.05.16-.2.26-.36.26Zm-4.76-1.6c-.06,0-.13-.02-.19-.05-.49-.28-4.87-.55-8.81-.64-.21,0-.37-.18-.37-.38s.19-.35.38-.37c1.37.03,8.26.22,9.17.74.18.1.24.33.14.51-.07.12-.2.19-.33.19Zm-26.06-3.07c-.82,0-1.7-.16-2.38-.51-1.54-.79-2.92-4.42-3.07-4.84-.07-.19.03-.41.22-.48.2-.07.41.03.48.22.39,1.04,1.63,3.87,2.71,4.43,1.34.7,3.42.39,3.66.12l.05-.08c2.04-2.84,2.39-4.81,2.32-5.95-.01-.21.15-.38.35-.4.24-.03.38.15.4.35.07,1.27-.3,3.42-2.46,6.43-.32.45-1.26.7-2.29.7Zm-7.42-5.93c-.12,0-.24-.06-.31-.16-.12-.17-.08-.4.09-.52.15-.1,3.62-2.5,5.53-2.5.02,0,.03,0,.05,0,.21,0,.37.18.37.38s-.19.35-.38.37c-1.35-.03-4.17,1.7-5.14,2.37-.07.05-.14.07-.21.07Zm35.66-38.4c-.06,0-.13-.02-.19-.05-1.73-1.01-11.04-14.37-12.09-15.89-.12-.17-.08-.4.09-.52.17-.12.4-.08.52.09,4.11,5.92,10.65,14.97,11.85,15.67.18.1.24.33.14.51-.07.12-.2.19-.32.19Zm-2.17-19.26s-.02,0-.04,0c-1.02-.09-5.32-8.86-8.75-16.19-.09-.19,0-.41.18-.5.19-.08.41,0,.5.18,3.41,7.29,7.46,15.3,8.23,15.78.21.02.32.19.3.4-.02.19-.22.33-.41.33Zm-2.99-87.41c-.07,0-.13-.02-.2-.06l-.73-.45c-.17-.1-.23-.33-.13-.5l.32-.57s.04-.08.06-.12l.02-.04c-.08.09-.18.17-.3.2-.26.08-.47-.05-.65-.16l-.12-.07s-.02-.01-.03-.02l-.26.49c-.1.18-.32.25-.51.16-.18-.1-.25-.32-.16-.51l.17-.33c-.14.1-.29.16-.38.18-.18.06-.53.14-.81-.02-.23-.12-.42-.4-.51-.75-.09-.36-.06-.72.11-.98.18-.28.55-.76.98-.81.2-.02.37.04.51.18.46.44.54,1.01.49,1.43l.25-.48c.08-.15.25-.23.42-.19.13.03.79.2,1.01.65.08.17.09.35.04.53l.12-.21c.05-.09.14-.16.24-.18.1-.03.21,0,.3.05l.67.45c.17.11.22.35.11.52-.08.12-.23.18-.36.17.05.09.07.19.03.3-.06.2-.27.3-.47.25l-.44-.14-.03.05.42.26c.18.11.23.34.12.52-.07.12-.19.18-.32.18Zm.17-1.67l.08.02-.07-.04v.02Zm-1.58-.76s.03.01.04.02l.15.08s.03.02.05.03c.01-.03.03-.06.05-.1-.01-.04-.11-.11-.22-.16l-.07.13Zm-1.67-1.12c-.08.05-.23.19-.39.44-.11.18.02.59.13.66.09.03.37-.07.45-.16.03-.06.15-.57-.18-.95Zm-.05-.06h0,0Zm-1.68,1.19s-.09,0-.14-.03c-.19-.08-.29-.29-.21-.49l.26-.66-.38-.25-.31.69c-.08.19-.3.27-.5.19-.19-.08-.27-.31-.19-.5l.75-1.68c.08-.19.3-.27.5-.19.19.08.27.31.19.5l-.13.3.36.23.09-.23c.08-.19.29-.29.49-.21.19.08.29.29.21.49l-.63,1.61c-.06.15-.2.24-.35.24Zm-3.13-1.59c-.32,0-.61-.1-.79-.2-.1-.05-.17-.15-.19-.27-.02-.1,0-.2.06-.28l.8-1.6c.09-.18.31-.25.49-.17.08.04.8.39.96,1.01.06.21.07.53-.19.89-.33.46-.76.61-1.16.61Zm-.08-.75c.2.01.43-.03.62-.29.09-.13.09-.21.07-.27-.03-.11-.13-.23-.25-.32l-.44.88Zm-1.23-.04s-.03,0-.05,0c-.16-.02-.29-.14-.32-.3l-.09-.42-.03.07c-.07.19-.29.29-.48.22-.11-.04-.18-.12-.22-.22-.22.09-.51-.09-.51-.35v-.46l-.17-.1c-.23.26-.32.29-.37.32-.2.08-.41-.02-.49-.21-.07-.18,0-.38.17-.46.13-.12.58-.7.92-1.19.09-.13.26-.19.42-.14.16.05.26.19.26.36v1.23h0v.14l.25-.66c.06-.16.21-.26.38-.24.17.01.3.14.34.3l.13.65.21-.42c.09-.19.32-.26.5-.16.18.09.26.32.16.5l-.7,1.38c-.06.13-.19.2-.33.2Zm9.89-1.7c-.44,0-.89-.28-.99-.34-.14-.09-.2-.26-.16-.42l.39-1.32s0-.06.02-.09c.08-.25.44-.33.62-.14.24.19,1.15.99.87,1.79-.1.31-.31.43-.47.49-.09.03-.19.04-.29.04Zm-.34-.84c.17.08.33.11.38.09.05-.15-.06-.38-.24-.59l-.15.5Zm14.1.31s-1.79-4.67-2.29-5.95c-.23-.59-.88-1.65-1.52-2.67-.75-1.22-1.41-2.27-1.55-2.82-.21-.81-2.65-3.14-3.78-3.23-1.26-.09-5.58-1.99-6.46-2.38-6.52,1.14-8.17.04-8.34-.09-.16-.13-.19-.36-.07-.53.12-.16.36-.19.52-.07.04.03,1.65,1.04,7.87-.07.07-.01.15,0,.22.03,1.41.63,5.3,2.29,6.31,2.36,1.51.12,4.16,2.68,4.45,3.78.12.45.83,1.6,1.47,2.62.65,1.05,1.33,2.14,1.58,2.79.5,1.29,2.29,5.95,2.29,5.95l-.7.27Zm-15.25-.16c-.17,0-.31-.11-.36-.27l-.2-.71-.04.15c-.06.2-.27.31-.46.26-.17-.05-.29-.22-.27-.39-.04.02-.08.03-.12.03-.23.02-.39-.14-.41-.34l-.03-.36s-.01,0-.02,0l-.34-.22-.15.16c-.14.15-.38.16-.53.01-.09-.09-.13-.21-.11-.33-.03.02-.07.03-.11.04-.21.04-.4-.09-.45-.29l-.2-.91s0,0,0,0c-.04-.02-.08-.05-.11-.07l-.3.59c-.09.18-.32.26-.5.17-.18-.09-.26-.32-.17-.5l.76-1.51c.09-.18.32-.26.5-.17.1.05.17.14.2.24.37.13.88.36,1.06.7.08.15.09.32.03.48-.07.17-.2.3-.37.35-.08.03-.17.03-.26.03l.1.46s.01.08,0,.11l.95-1.01c.1-.11.26-.14.4-.1.14.05.24.17.25.32l.12,1.43.23-.79c.05-.16.19-.27.36-.27h0c.17,0,.31.11.36.27l.17.58.04-.18c.05-.2.25-.33.45-.28.2.05.33.25.28.45l-.37,1.59c-.04.17-.19.29-.36.29h0Zm-3.03-3.39h0,0Z"
  />
  <path
    d="m212.93,147.47c-.12,0-.24-.06-.31-.17-.3-.28-2.76-.74-4.87-.99-.06,0-.12-.03-.17-.06-.91-.62-1.82-3.31-3-7.03-.55-1.74-1.24-3.91-1.55-4.17-.16-.12-.36-.27-.59-.43-1.07-.78-2.69-1.95-3.32-3.08-.44-.78-4.79-1.88-7.8-2.43-5.85,1.63-9.51-.79-9.66-.89-.17-.12-.22-.35-.1-.52.11-.17.35-.22.52-.1.04.02,3.58,2.34,9.12.77.05-.02.12-.02.17,0,1.27.23,7.64,1.44,8.41,2.82.55.99,2.09,2.1,3.11,2.84.24.17.44.32.61.45.43.33.86,1.57,1.8,4.54.8,2.51,1.88,5.91,2.65,6.58,1.85.23,4.9.69,5.31,1.32.11.17.06.41-.11.52-.06.04-.13.06-.2.06Z"
  />
  <path
    d="m199.44,137.62s-.08,0-.12-.02c-.2-.06-.3-.28-.24-.47.47-1.46,7.59-11.62,8.4-12.78.12-.17.35-.21.52-.09.17.12.21.35.09.52-2.18,3.11-7.93,11.43-8.29,12.58-.05.16-.2.26-.36.26Zm-1.98-1.85s-.1,0-.15-.03c-.19-.08-.28-.3-.2-.49.7-1.62,7.8-12.3,8.11-12.76.12-.17.35-.22.52-.1.17.12.22.35.1.52-.07.11-7.37,11.08-8.04,12.64-.06.14-.2.23-.34.23Zm-7.64-4.06c-.15,0-.3-.09-.35-.25-.07-.19.03-.41.22-.48.52-.37,3.33-5.46,5.69-10.05.1-.18.32-.25.51-.16.18.09.26.32.16.51-1.93,3.76-5.3,10.12-6.1,10.41-.04.02-.09.02-.13.02Zm-2.19-.87c-.12,0-.24-.06-.31-.17-.11-.17-.07-.41.11-.52.54-.42,3.52-6.09,6.04-11.22.09-.19.32-.26.5-.17.19.09.26.32.17.5-1.26,2.56-5.43,10.95-6.3,11.52-.06.04-.13.06-.21.06Zm-40.76-1.75c-.11,0-.22-.05-.3-.15-.13-.16-.09-.4.07-.53,3.96-3.03,10.77-8.05,11.9-7.67.86.29,2,.16,3,.04l.53-.06c.8-.08,1.6.39,2.29.81.44.27.86.52,1.16.55l.44.05c1.34.14,5.41.58,6.14.47.6-.09,1.93.12,3.01.29.48.07,1.05.18,1.15.16.17-.06,1.52-.44,1.52-.44l.2.72s-1.33.37-1.55.44c-.16.05-.38.02-1.43-.14-.92-.14-2.3-.36-2.79-.29-.73.11-3.77-.2-6.33-.47l-.44-.05c-.47-.05-.96-.34-1.47-.66-.62-.38-1.26-.77-1.83-.71l-.52.06c-1.08.12-2.31.27-3.33-.08,0,0,0,0,0,0-.8,0-6.32,3.83-11.19,7.55-.07.05-.15.08-.23.08Zm44.63-8.71c-.49,0-.87-.34-.95-.86-.1-.64.29-1.43,1.22-1.62.47-.1.74.11.85.25.3.35.24.89.08,1.28-.21.54-.61.89-1.07.94-.04,0-.08,0-.12,0Zm.5-1.75s-.04,0-.08,0h0c-.53.11-.67.52-.63.76.03.17.11.24.25.23.22-.03.41-.3.49-.56.08-.25.04-.41,0-.44h0s-.01,0-.04,0Zm-.16-.36h0,0Zm-15.75.73c-.13,0-.26-.07-.33-.2-.1-.05-.92-.25-1.51-.4-.54-.13-1.1-.27-1.54-.42-1.31-.43-1.57-3.46-1.6-4.06-.01-.21.14-.38.35-.4.23-.02.39.14.4.35.08,1.25.48,3.2,1.09,3.4.42.14.97.27,1.48.4,1.37.34,1.83.47,1.99.77.1.18.03.41-.15.51-.06.03-.12.04-.18.04Z"
  />
  <path
    d="m147.64,132.94c-.11,0-.22-.05-.29-.14-.13-.16-.1-.4.06-.53,1.48-1.19,8.93-7.12,10.16-7.3.46-.07.96-.07,1.49-.08.9-.01,1.92-.02,2.94-.34,1.23-.39,1.85-.1,2.4.15.26.12.51.24.84.28.33.04,1.23.02,2.27,0,3.06-.06,5.68-.07,6.65.38,1.26.59,3.31.61,4.82-.73.15-.14.39-.12.53.03.14.15.12.39-.03.53-1.77,1.58-4.1,1.56-5.63.85-.9-.42-4.16-.36-6.32-.31-1.12.02-2,.04-2.38,0-.44-.05-.77-.2-1.06-.34-.5-.23-.9-.42-1.86-.11-1.12.35-2.2.37-3.15.38-.51,0-.99.01-1.39.07-.71.1-5.58,3.76-9.8,7.15-.07.05-.15.08-.23.08Z"
  />
  <path
    d="m164.6,209.07s-.05,0-.08,0c-.2-.04-.33-.24-.29-.44l.1-.51c.07-.55.03-11.98,0-18.13,0-2.23-.01-4-.01-4.79,0-2.93.38-13.41,1.26-16.33.47-1.53,1.59-6.26,2.68-10.83.89-3.74,1.73-7.28,2.19-8.98,1.01-3.74,3.97-27.75,4-27.99.03-.2.2-.35.42-.33.21.03.35.21.33.42-.12.99-3,24.31-4.02,28.09-.46,1.69-1.3,5.22-2.19,8.96-1.09,4.58-2.22,9.32-2.69,10.88-.8,2.65-1.23,12.62-1.23,16.11,0,.79,0,2.56.01,4.79.04,11.59.05,17.93-.02,18.28l-.1.51c-.04.18-.19.3-.37.3Z"
  />
  <path
    d="m179.25,212.37s-.04,0-.06,0c-.21-.03-.35-.22-.32-.43.31-2.06.9-6.16.9-6.92,0-.96,2.77-16.53,4.68-22.22,1.86-5.54,2.88-11.82,2.8-17.25-.08-5.45,3.43-14.06,3.58-14.42.08-.19.3-.28.49-.2.19.08.28.3.2.49-.04.09-3.61,8.83-3.53,14.13.08,5.51-.95,11.89-2.84,17.5-1.9,5.65-4.65,21.04-4.65,21.98,0,1.01-.87,6.79-.91,7.03-.03.19-.19.32-.37.32Zm2.6,0c-.19,0-.35-.14-.37-.34-.28-2.76,2.47-18.14,5.79-27.45,2.22-6.23,1.92-8.58,1.63-10.85-.14-1.06-.28-2.15-.14-3.59.41-4.38,4.57-17.18,4.74-17.72.06-.2.27-.3.47-.24.2.06.3.28.24.47-.04.13-4.3,13.27-4.71,17.56-.13,1.35,0,2.36.14,3.43.31,2.36.62,4.8-1.66,11.2-3.3,9.22-6.03,24.42-5.75,27.12.02.21-.13.39-.34.41-.01,0-.03,0-.04,0Zm-11.05-1.57c-.17,0-.33-.12-.37-.3-.38-1.88,1.96-12.2,4.3-22.04l.32-1.35c1.07-4.52,2.39-12.73,2.75-15.7.35-2.87,5.37-23.02,5.58-23.88.05-.2.25-.32.46-.27.2.05.32.25.27.46-.05.21-5.22,20.96-5.57,23.79-.36,2.98-1.69,11.23-2.76,15.78l-.32,1.36c-1.29,5.4-4.7,19.74-4.3,21.71.04.2-.09.4-.29.44-.03,0-.05,0-.08,0Zm-4.38-1.7s-.39-12.34-.5-15.03c-.02-.53-.06-1.24-.11-2.06-.21-3.43-.53-8.6.12-11.36.81-3.45,2.5-13.28,2.68-14.41.2-1.31,3.1-13.5,4.18-15.4.69-1.21,1.63-6.66,2.25-10.26.28-1.64.53-3.06.69-3.76.51-2.22.22-14.71.22-14.83,0-.21.16-.38.37-.38.22-.02.38.16.38.37.01.52.3,12.71-.24,15.02-.16.68-.4,2.09-.68,3.71-.7,4.09-1.58,9.18-2.34,10.51-.98,1.71-3.9,13.88-4.09,15.14-.17,1.13-1.88,11-2.69,14.47-.63,2.65-.31,7.76-.11,11.14.05.83.1,1.54.12,2.08.1,2.69.5,15.04.5,15.04l-.75.02Zm30.22-5.7s-.03,0-.05,0c-.21-.03-.35-.22-.32-.42.1-.83-2.07-12.84-2.41-14.33-.29-1.24.18-10.18.41-12.87.25-3.06,3.66-9.4,3.81-9.67.1-.18.33-.25.51-.15.18.1.25.33.15.51-.04.06-3.48,6.46-3.72,9.37-.27,3.33-.66,11.62-.42,12.63.15.67,2.57,13.53,2.42,14.6-.03.19-.19.32-.37.32Z"
  />
  <path
    d="m191.09,213.37c-.15,0-.29-.09-.35-.23-.08-.19.01-.41.21-.49.94-.39,2.97-8.46,4.41-16.04.04-.2.23-.34.44-.3.2.04.34.23.3.44-.7,3.71-3.13,15.89-4.86,16.6-.05.02-.09.03-.14.03Zm6.55-22.96c-.28,0-.92-.46-3.22-2.14-.17-.12-.2-.36-.08-.52.12-.17.36-.2.52-.08.2.15.41.3.62.45-5.41-7.75-9.27-26.09-9.45-26.94-.04-.2.09-.4.29-.44.2-.04.4.09.44.29.05.23,4.84,22.96,10.96,28.59.1.09.39.36.15.65-.08.09-.13.16-.24.16Zm-3-8.41c-.09,0-.18-.03-.25-.1-.15-.14-.17-.38-.03-.53,1.86-2.08,3.82-10.51,3.84-10.59.03-.12.12-.23.24-.27.19-.07,4.83-1.72,10.23,0l5.34,1.69c.2.06.31.27.24.47-.06.2-.27.3-.47.24l-5.34-1.69c-4.57-1.44-8.65-.35-9.56-.07-.32,1.36-2.12,8.66-3.97,10.72-.07.08-.18.12-.28.12Z"
  />
  <path
    d="m164.87,232.75c-.09,0-.18-.03-.25-.1-4.48-4.15-8.64-23.02-8.93-24.35-1.35-2.85.36-31.43,1.88-37.14.8-3,1.61-8.59,2.33-13.53.73-5.04,1.36-9.38,1.88-10.52.78-1.69,3.17-20.49,4.32-30.2.02-.21.22-.36.42-.33.21.02.35.21.33.42-.14,1.15-3.37,28.21-4.39,30.42-.47,1.03-1.13,5.54-1.82,10.31-.72,4.96-1.54,10.58-2.34,13.62-1.62,6.1-3.11,34.52-1.92,36.64.02.03.03.07.04.1.04.2,4.35,19.96,8.72,24.01.15.14.16.38.02.53-.07.08-.17.12-.28.12Zm43.48-18.1c-.14,0-.28-.08-.34-.23-.04-.08-.88-2.08.02-3.72.72-1.31,1.14-10.64,1.14-13.36,0-1.88.79-14.68,1.21-18.42.41-3.6,2.11-32.87,2.12-33.16.01-.21.19-.39.4-.35.21.01.37.19.35.4-.02.3-1.71,29.59-2.13,33.2-.42,3.73-1.21,16.47-1.21,18.34,0,1.7-.34,12.1-1.23,13.72-.72,1.32,0,3.04.02,3.06.08.19,0,.41-.2.49-.05.02-.1.03-.15.03Zm-2.39,0s-.03,0-.05,0c-.21-.03-.35-.22-.32-.42l.07-.52c-.46-1.89,1.73-13.14,1.76-13.25.24-1.14.43-16.62,0-19.66-.23-1.65.19-5.1.64-8.75.42-3.43.85-6.98.71-8.91-.3-3.97,1.53-18.89,1.61-19.52.03-.21.2-.35.42-.33.21.03.35.21.33.42-.02.15-1.9,15.48-1.61,19.37.15,2-.29,5.59-.71,9.05-.42,3.44-.86,7-.64,8.56.44,3.12.27,18.62,0,19.92-.47,2.24-2.17,11.85-1.76,12.93.02.06.03.12.02.19l-.08.6c-.03.19-.19.32-.37.32Zm-9.35-1.6s-.04,0-.07,0c-.2-.04-.34-.23-.3-.44.02-.11.49-2.67,1.55-4.12.87-1.19.76-9.71.41-12.48-.15-1.18.23-4.44.63-7.89.42-3.64.9-7.76.74-9.44-.32-3.28.81-24.7.86-25.61.01-.21.2-.39.39-.35.21.01.37.19.35.39-.01.22-1.18,22.28-.86,25.5.17,1.76-.29,5.75-.74,9.6-.39,3.4-.77,6.62-.63,7.71.26,2.09.6,11.46-.55,13.02-.96,1.3-1.41,3.78-1.42,3.8-.03.18-.19.31-.37.31Z"
  />
  <path
    d="m153.11,207.8c-.14,0-.27-.07-.34-.2-.67-1.2.93-22.52,1.99-26.53,1.09-4.15,2.97-15.77,2.48-18.91-.43-2.75,1.8-8.98,2.87-11.98.21-.58.37-1.03.46-1.3.3-.95.64-7.77.91-13.26.19-3.85.37-7.49.52-8.91.37-3.46,1.61-11.91,1.62-12,.03-.21.21-.35.43-.32.21.03.35.22.32.43-.01.08-1.25,8.52-1.62,11.97-.15,1.39-.33,5.02-.52,8.86-.36,7.26-.64,12.48-.95,13.45-.09.28-.25.74-.46,1.33-.97,2.71-3.24,9.05-2.84,11.61.51,3.29-1.36,14.9-2.5,19.22-1.19,4.53-2.43,24.93-2.05,25.99.1.18.03.4-.15.5-.06.03-.12.04-.17.04Zm-5.62-2.96c-.06,0-.12-.01-.18-.05-.18-.1-.25-.33-.15-.51.55-1,1.91-3.89,1.53-5.24-.51-1.83-.42-5.31-.42-5.46,0-.21.13-.37.38-.37.21,0,.37.18.37.38,0,.04-.09,3.52.39,5.24.53,1.92-1.51,5.65-1.6,5.81-.07.12-.2.19-.33.19Zm-1.22-1.44c-.06,0-.11-.01-.17-.04-.19-.09-.26-.32-.17-.5.22-.44.68-4.52,1.01-8.14.02-.21.2-.36.41-.34.21.02.36.2.34.41-.12,1.27-.71,7.64-1.08,8.4-.07.13-.2.21-.34.21Zm7.47-47.09c-.15,0-.3-.1-.35-.25-.65-1.82-5.19-13.13-5.85-14.77-2.64,4.09-5.6,8.44-6.31,8.58-.2.04-.4-.09-.44-.3-.04-.2.09-.4.3-.44.58-.33,4.18-5.67,6.57-9.41-.05-.66-2.61-2.06-4.07-2.46-1.16-.32-3.85-3.66-4.38-4.33-.5-.73-1.88.08-1.9.09-.18.1-.41.05-.51-.13-.11-.18-.05-.41.13-.51.74-.45,2.17-.92,2.89.11,1.15,1.45,3.27,3.86,3.98,4.05.59.16,4.89,1.78,4.6,3.37,0,.05-.03.09-.05.14-.12.18-.24.37-.36.56.08.04.15.11.18.2.21.53,5.24,13.03,5.93,14.99.07.2-.03.41-.23.48-.04.01-.08.02-.13.02Zm3.3-11.89c-.09,0-.17-.03-.24-.09-1.85-1.58-2.05-4.76-2.26-8.13-.15-2.48-.31-5.04-1.15-7.01-2-4.71-1.48-11.53-1.46-11.82.02-.21.2-.36.4-.34.21.02.36.2.34.4,0,.07-.53,6.93,1.4,11.46.89,2.09,1.05,4.72,1.21,7.26.2,3.2.39,6.23,2,7.6.16.13.18.37.04.53-.07.09-.18.13-.29.13Z"
  />
  <path
    d="m149.03,151.93c-.16,0-.3-.1-.36-.26-.4-1.2-1.84-5.62-1.84-5.62-.43-1.46-1.01-2.81-1.27-2.97-.68-.09-4.29-2.43-5.02-4.23-.52-1.26-4.04-2.66-5.35-3.09-.2-.07-.3-.28-.24-.47.06-.2.27-.3.47-.24.52.17,5.07,1.71,5.81,3.52.63,1.53,3.96,3.69,4.48,3.78.55.08,1.17,1.25,1.83,3.48h0s1.43,4.41,1.83,5.61c.07.2-.04.41-.24.47-.04.01-.08.02-.12.02Z"
  />
  <path
    d="m122.16,180.34c-.07,0-.13-.02-.2-.06-.18-.11-.23-.34-.12-.52.04-.19-.16-1.33-.3-2.17-.42-2.47-.58-3.68-.14-4.12.4-.4,1.63-3.32,2.32-5.08.08-.19.29-.29.49-.21.19.08.29.29.21.49-.31.78-1.86,4.71-2.49,5.33-.19.33.16,2.36.35,3.46.31,1.79.39,2.39.2,2.69-.07.12-.19.18-.32.18Zm1.63-12.68c-.06,0-.11-.01-.16-.04-.15-.07-.23-.23-.21-.39l.26-1.76s.02-.07.03-.1c0,0,.14-.34-.01-.88-.18-.63.47-.99.99-1.28.17-.1.35-.19.5-.3.19-.14.3-.26.3-.35,0-.78,4.1-8.63,5.18-8.87.31-.16,1.03-1.92,1.66-3.47.6-1.49,1.36-3.33,2.27-5.21,2.17-4.43,11.01-19.72,11.09-19.87.1-.18.33-.24.51-.14.18.1.24.33.14.51-.09.15-8.91,15.42-11.07,19.83-.91,1.85-1.65,3.68-2.25,5.16-1.09,2.68-1.56,3.78-2.19,3.92-.74.41-4.53,7.37-4.59,8.14,0,.35-.2.61-.41.79.12-.02.25.03.33.13.14.16.12.39-.04.53h0s-.32.31-.48,1.07c-.21,1-1.43,2.31-1.57,2.46-.07.08-.17.12-.27.12Zm.62-2.04l-.05.35c.25-.36.47-.75.53-1.05.15-.68.4-1.09.56-1.31-.13.08-.27.16-.41.24-.22.12-.59.33-.63.44.19.67.06,1.15,0,1.32Zm9.7-14.88c-.13,0-.25-.06-.32-.18-.11-.18-.05-.41.13-.51,1.48-.9,8-13.84,12.02-22.31.09-.19.31-.27.5-.18.19.09.27.31.18.5-1.03,2.18-10.16,21.33-12.3,22.63-.06.04-.13.05-.19.05Z"
  />
  <path
    d="m112.22,186.19s-.03,0-.04,0c-.21-.02-.36-.21-.33-.41.06-.53,1.41-13,4.22-17.79,2.72-4.66,4.04-13.24,4.06-13.32.02-.12.09-.22.19-.27.1-.06.23-.06.34,0,.63.29,6.2,2.9,7.12,4.51.1.18.04.41-.14.51-.18.1-.41.04-.51-.14-.63-1.09-4.44-3.08-6.34-3.99-.33,1.93-1.63,8.91-4.07,13.09-2.73,4.65-4.1,17.37-4.12,17.49-.02.19-.18.33-.37.33Zm-2.12-.57s-.07,0-.1-.01c-.57-.16-.73-.65,1.48-10.61.15-.68.28-1.27.38-1.72.62-2.9,6.22-15.19,6.45-15.71.09-.19.31-.27.5-.19.19.09.27.31.19.5-.06.13-5.8,12.74-6.4,15.56-.1.45-.23,1.04-.38,1.72-.6,2.69-1.98,8.92-1.83,9.84.08.09.12.22.08.35-.05.17-.2.28-.36.28Zm.29-.58h0,0Zm90.4-34.75c-.08,0-.17-.03-.24-.08l-2.09-1.71c-.16-.13-.18-.37-.05-.53s.37-.18.53-.05l2.09,1.71c.16.13.18.37.05.53-.07.09-.18.14-.29.14Zm.53-3.09c-.15,0-.29-.09-.35-.24-.07-.19.03-.41.22-.48,1.02-.38,6.79-5.7,10.42-9.19.15-.14.39-.14.53.01.14.15.14.39-.01.53-.94.9-9.19,8.79-10.68,9.35-.04.02-.09.02-.13.02Zm-.16-.79c-.06,0-.13-.02-.19-.05l-2.23-1.31c-.18-.1-.24-.33-.13-.51.1-.18.33-.24.51-.13l2.23,1.31c.18.1.24.33.13.51-.07.12-.2.19-.32.19Zm.33-3.33c-.13,0-.26-.07-.33-.19-.1-.18-.03-.41.15-.51.04-.02.97-.53,2.13-1.06.59-.27,1.44-1.43,2.13-2.37.57-.78,1.06-1.45,1.45-1.71.62-.43,2.69-2.78,3.43-3.66.13-.16.37-.18.53-.04.16.13.18.37.04.53-.28.33-2.76,3.23-3.58,3.79-.28.19-.78.88-1.26,1.54-.81,1.11-1.66,2.26-2.42,2.61-1.13.52-2.07,1.03-2.08,1.03-.06.03-.12.05-.18.05Zm-53.44-.52c-.14,0-.27-.07-.33-.2-.09-.18-.02-.41.16-.5.06-.03,5.89-3.02,9.4-6.08,3.74-3.26,13.88-1.92,15.66-1.39,1.51.45,3.36,0,3.38,0,.2-.05.4.07.45.28.05.2-.07.4-.28.45-.08.02-2.06.5-3.77,0-1.44-.42-11.52-1.75-14.96,1.24-3.58,3.11-9.49,6.15-9.55,6.18-.05.03-.11.04-.17.04Zm36.72-6.2c-.07,0-.13-.02-.19-.05-.69-.41-3.38-.37-4.91-.25-.2.04-.39-.14-.4-.34-.02-.21.14-.39.34-.4.43-.03,4.24-.31,5.35.35.18.11.24.34.13.51-.07.12-.19.18-.32.18Z"
  />
  <path
    d="m199.43,158.46c-.1,0-.2-.04-.28-.12l-.87-.95c-.81-.88-4.25-3.28-5.81-3.36-1.92-.12-5.83-2.56-7.51-3.84-1.59-1.22-3.25-1.56-3.67-1.54-.09.11-.27.27-.64.45-.97.48-2.51.8-3.93.25-.94-.37-4.77-.31-8.15-.26-5.25.08-6.73.04-7.1-.38-.4-.06-2.55,1.21-4.67,2.86-.16.13-.4.1-.53-.07s-.1-.4.07-.53c3.2-2.48,5.12-3.41,5.69-2.76.41.22,3.8.17,6.52.13,3.79-.06,7.36-.11,8.43.31,1.65.64,3.47-.19,3.71-.46-.01,0,.06-.17.29-.24.64-.21,2.72.34,4.43,1.65,1.92,1.48,5.55,3.59,7.09,3.69,1.82.1,5.37,2.58,6.32,3.6l.87.96c.14.15.13.39-.02.53-.07.07-.16.1-.25.1Zm-45.96-2.53c-.13,0-.26-.07-.33-.2-.1-.18-.03-.41.15-.51,1.52-.82,2.87-1.83,2.9-2.18.02-.2.2-.36.4-.35.2.01.36.18.35.39-.05.95-2.32,2.27-3.3,2.8-.06.03-.12.04-.18.04Zm-5.83-8.21c-.12,0-.24-.06-.31-.17-.12-.17-.07-.4.1-.52.08-.05,7.93-5.33,9.37-6.56,1.67-1.42,5.42-3.06,9.08-3.29,2.3-.15,5.49.17,8.06.43,1.69.17,3.16.32,3.93.29.5-.01,1.11-.05,1.77-.08,3.65-.18,4.4-.16,4.65.17.08.1.11.27.07.39-.06.2-.27.31-.47.25-.08-.02-.14-.07-.18-.13-.53-.11-2.71,0-4.03.06-.66.03-1.28.06-1.78.08-.85.02-2.32-.12-4.03-.29-2.54-.25-5.7-.57-7.94-.42-3.72.24-7.29,1.96-8.64,3.11-1.47,1.25-9.11,6.39-9.44,6.61-.06.04-.14.06-.21.06Z"
  />
  <path
    d="m198.23,173.64c-.14,0-.27-.08-.34-.21,0-.02-.84-1.66-2.4-2.2-.79-.27-1.29-.72-1.78-1.16-.65-.58-1.22-1.08-2.41-1.15-1.45-.08-2.55-.96-3.72-1.9-.76-.61-1.55-1.24-2.46-1.66-2.08-.95-4.83-1.86-15.46-2.42-9.8-.52-11.61,1.05-11.63,1.06-.15.14-.38.13-.53,0-.14-.14-.15-.37-.01-.52.18-.19,2.04-1.84,12.2-1.29,10.77.57,13.49,1.47,15.73,2.49,1,.46,1.82,1.12,2.61,1.75,1.07.86,2.08,1.67,3.29,1.74,1.45.08,2.17.72,2.86,1.33.46.4.89.79,1.53,1.01,1.86.64,2.79,2.5,2.83,2.57.09.19.02.41-.17.5-.05.03-.11.04-.17.04Zm.71-12.17c-.15,0-.3-.09-.35-.25-.24-.67-4.52-2.78-5.67-3.14-1.15-.36-5.03-1.65-6.8-3.3-1.42-1.32-4.25-1.6-6.12-1.79-.3-.03-.57-.06-.82-.09-1.26-.15-3.46-.08-5.07-.04-.65.02-1.22.04-1.61.04-1.31,0-7.81-.28-10.18-.58-2.11-.28-5.57,2.45-5.6,2.48-.16.13-.4.1-.53-.06s-.1-.4.06-.53c.15-.12,3.73-2.95,6.17-2.64,2.34.3,8.78.58,10.08.58.38,0,.94-.02,1.58-.04,1.63-.05,3.86-.12,5.18.04.24.03.51.06.8.09,1.97.2,4.95.5,6.55,1.99,1.7,1.58,5.72,2.88,6.51,3.13.73.23,5.72,2.42,6.15,3.6.07.19-.03.41-.22.48-.04.02-.08.02-.13.02Z"
  />
  <path
    d="m188.05,213.53c-.08,0-.16-.01-.21-.04-.05-.02-.11-.05-.23-.05-.21-.01-.36-.19-.35-.4.01-.21.17-.38.4-.35.04,0,.08,0,.11.01.11-.72.47-2.52,2.21-6.99,3.03-7.79,3.77-15.89,3.86-17.04-.47-.61-1.59-1.89-2.33-2.06-.25-.06-.54-.1-.88-.15-1.15-.17-2.88-.42-4.75-1.48-2.29-1.3-15.99-5.15-16.13-5.19-.2-.06-.32-.26-.26-.46.06-.2.26-.31.46-.26.57.16,13.93,3.92,16.3,5.26,1.74.99,3.32,1.22,4.48,1.39.36.05.68.1.94.16,1.2.27,2.69,2.23,2.85,2.45.05.07.08.16.07.25s-.62,8.93-3.92,17.4c-1.27,3.27-2.01,5.64-2.2,7.04-.02.19-.05.36-.23.47-.05.03-.12.04-.2.04Zm5.5-29.05s-.05,0-.08,0c-.93-.21-1.88-.89-2.79-1.56-.47-.34-.96-.7-1.42-.96-.52-.3-1.86-.59-3.27-.89-2.16-.46-4.38-.93-5.38-1.73-1.25-1-7.57-2.3-9.9-2.72-.2-.04-.34-.23-.3-.44.04-.2.23-.34.44-.3.35.06,8.58,1.56,10.23,2.88.85.68,3.19,1.18,5.06,1.58,1.54.33,2.87.61,3.49.97.5.29,1,.65,1.49,1,.85.62,1.73,1.25,2.51,1.43.2.05.33.25.28.45-.04.17-.19.29-.37.29Zm-23.85-6.21s-.08,0-.12-.02c-.89-.31-1.98-.62-2.33-.62-.38.27-2.05.45-10.21.09h0l-.47-.02c-.2,0-.36-.17-.36-.38,0,0,0,0,0-.01,0-.21.2-.35.39-.36l.47.02h0c4.98.22,8.97.26,9.67.1.03-.04.08-.07.12-.1.12-.07.5-.28,2.96.58.2.07.3.28.23.48-.05.15-.2.25-.35.25Zm-2.33-.86s0,0,0,0t0,0Zm30.09-1.22s-.1,0-.15-.03c-.28-.12-2.75-1.22-3.42-2.3-.3-.5-2.11-1.33-3.71-2.07-1.29-.59-2.61-1.2-3.56-1.79-2.17-1.35-13.81-4.06-13.92-4.09-.2-.05-.33-.25-.28-.45.05-.2.24-.33.45-.28.48.11,11.87,2.77,14.15,4.18.91.57,2.22,1.17,3.48,1.75,2.25,1.03,3.64,1.71,4.03,2.36.46.75,2.37,1.7,3.07,2.01.19.08.28.3.19.49-.06.14-.2.23-.34.23Zm-39.95-8.68c-.19,0-.35-.14-.37-.33-.03-.21.12-.39.32-.42.38-.05,9.27-1.21,11.59-.83.21.03.34.23.31.43-.04.2-.23.34-.43.31-2.21-.37-11.27.82-11.36.83-.02,0-.03,0-.05,0Z"
  />
  <path
    d="m212.87,201c-.15,0-.29-.09-.35-.24-.14-.36-1.19-.7-2.29-1.06-.93-.3-2.08-.68-3.25-1.22-2.62-1.22-10.33,1.26-10.4,1.28-.08.03-.17.02-.25,0-.03-.01-3.13-1.15-4.48-1.15s-8.87-2.16-10.09-3.62c-.58-.69-3.52-1.35-5.28-1.75-1.94-.43-2.37-.55-2.53-.82-.03-.04-.05-.1-.05-.16-.23-.18-1.12-.5-2.05-.74-.06-.01-.11-.04-.16-.08-1-.9-1.23-.82-2.5-.41-.44.14-.98.32-1.67.49-2.78.7-17.16.71-17.77.71-.21,0-.38-.17-.38-.38s.17-.38.38-.38c.15,0,14.89,0,17.58-.68.68-.17,1.2-.34,1.62-.48,1.29-.42,1.89-.62,3.17.5,1.94.5,2.42.9,2.51,1.18.33.13,1.22.33,2.02.51,2.71.61,5,1.18,5.69,2,.98,1.17,8.16,3.35,9.52,3.35s4.01.93,4.62,1.15c1.06-.33,8.1-2.48,10.83-1.21,1.13.53,2.21.88,3.17,1.19,1.5.49,2.48.81,2.75,1.5.08.19-.02.41-.21.49-.04.02-.09.03-.14.03Z"
  />
  <path
    d="m195.97,203.4c-2.06,0-14.02-4.23-14.93-5.06-.47-.4-5.68-1.9-10.33-3.1-.07-.02-.13-.06-.18-.11-.56-.6-.75-.47-1.14-.19-.27.19-.65.46-1.12.29-.63-.21-5.29.14-8.13.48-2.49.3-11.01.61-11.37.62-.03,0-.07,0-.1,0l-2.76-.62c-.2-.05-.33-.25-.28-.45.04-.2.25-.33.45-.28l2.71.61c.71-.03,8.89-.33,11.26-.62,1.93-.23,7.51-.77,8.46-.45.1.03.2-.02.45-.19.41-.29,1.08-.77,2.04.21,1.86.48,9.81,2.56,10.55,3.24.69.58,12.85,5.04,14.45,4.86.2-.04.39.12.42.33.03.21-.12.39-.33.42-.04,0-.08,0-.12,0Z"
  />
  <path
    d="m210.94,214.65c-.08,0-.16-.02-.22-.07-.02-.02-2.22-1.63-5.16-1.54-3.09.08-10.11-1.42-10.4-1.48-.2-.04-.33-.24-.29-.45.04-.2.24-.33.45-.29.07.02,7.21,1.54,10.23,1.46,3.15-.06,5.53,1.62,5.62,1.69.17.12.2.36.08.52-.07.1-.19.15-.3.15Zm-20.75-1.62s-.07,0-.11-.02c-1.71-.53-10.3-3.23-11.11-4.05-.26-.26-2.11-.59-3.47-.82-2.55-.44-4.14-.75-4.55-1.33-.1-.14-.14-.3-.11-.46.04-.2.24-.34.43-.3.18.03.31.19.31.36.35.36,2.65.76,4.04,1,2.13.37,3.46.62,3.87,1.03.47.48,5.92,2.35,10.8,3.87.2.06.31.27.25.47-.05.16-.2.26-.36.26Zm-37.95-6.24c-.19,0-.35-.14-.37-.33-.02-.21.12-.39.33-.42,2.18-.25,13.16-1.48,14.7-.5.77.48,1.28.32,1.87.13.31-.1.65-.21,1.03-.21.32-2.64,2.29-18.93,2.2-21.73-.06-1.93,1.43-8.06,2.63-12.99.72-2.94,1.39-5.72,1.41-6.35.06-1.72,5.24-18.03,5.46-18.72.06-.2.27-.31.47-.24.2.06.31.27.24.47-1.49,4.7-5.38,17.17-5.42,18.52-.03.7-.65,3.26-1.43,6.5-1.19,4.88-2.66,10.96-2.61,12.79.09,3.08-2.16,21.42-2.25,22.2-.01.1-.07.2-.15.26-.08.06-.19.08-.29.06-.35-.08-.68.03-1.05.16-.64.21-1.44.47-2.51-.21-1.01-.64-9.25.04-14.21.62-.01,0-.03,0-.04,0Zm60.25-2.5s-.06,0-.09-.01c-.13-.03-3.27-.84-4.84-2.07-1.01-.79-7.21-.06-10.88.58-.2.04-.4-.1-.43-.3-.04-.2.1-.4.3-.43,1-.18,9.86-1.68,11.47-.43,1.45,1.13,4.54,1.93,4.57,1.93.2.05.32.25.27.46-.04.17-.2.28-.36.28Zm.75-13.55c-.09,0-.18-.03-.25-.1-.15-.14-.16-.38-.02-.53,0,0,0,0,0,0-.04,0-.3-.86-5.23-1.79-5.82-1.08-8.91.16-9.34.48-.11.13-.29.17-.45.1-.19-.09-.27-.31-.18-.5.21-.44,3.5-2.04,10.1-.81,3.59.67,5.48,1.43,5.77,2.32.1.31,0,.58-.12.71-.07.08-.18.12-.28.12Zm.06-3.16c-.2,0-.37-.16-.38-.37-.07-.1-.47-.17-.85-.25-.89-.17-2.39-.46-4.77-1.37-4.4-1.68-9.36-.01-9.41,0-.19.06-.41-.04-.48-.23-.07-.2.04-.41.23-.48.21-.07,5.26-1.77,9.92,0,2.32.89,3.77,1.17,4.64,1.34.87.17,1.44.28,1.46.96,0,.21-.16.38-.37.38h0Zm-93.25-1.94c-3.17,0-12.95-3.15-13.38-3.29-.2-.06-.31-.27-.24-.47.06-.2.28-.31.47-.24,3.82,1.23,11.55,3.52,13.48,3.24.21-.02.39.12.42.32.03.21-.12.39-.32.42-.12.02-.27.02-.43.02Zm93.63-9.12c-.14,0-.3-.03-.45-.06-.14-.03-.25-.13-.29-.26-.48-.16-1.35-.44-2.92-.9-5.24-1.54-11.33-.68-11.39-.67-.22.03-.4-.11-.43-.32-.03-.21.11-.4.32-.43.25-.04,6.31-.9,11.71.7,3.99,1.18,3.98,1.21,3.88,1.64-.06.23-.23.3-.43.3Zm-86.42-.33s-.05,0-.08,0c-.18-.04-4.44-.92-5.94-2.68-1.11-1.3-7.21-2.19-9.47-2.42-.21-.02-.36-.21-.33-.41.02-.21.2-.35.41-.33.86.09,8.45.92,9.96,2.68,1.34,1.57,5.48,2.43,5.52,2.44.2.04.33.24.29.44-.04.18-.19.3-.37.3Zm85.62-14.11c-.07,0-.14-.02-.2-.06-.08-.05-.13-.12-.16-.19-.23-.08-.75-.18-1.19-.26-.96-.18-2.15-.4-3.13-.82-1.46-.62-7.07-.19-9.1.03-.22.01-.39-.13-.41-.33-.02-.21.13-.39.33-.41.31-.03,7.53-.8,9.47.03.9.38,2.05.6,2.97.77,1.13.21,1.6.3,1.75.64.05.11.03.32-.03.43-.07.12-.19.18-.32.18Zm-86.68,0c-.17,0-.32-.11-.36-.28-.19-.77-3.72-2.76-7.02-4.25-.19-.08-.27-.31-.19-.5s.31-.27.5-.19c1.18.53,7.06,3.25,7.44,4.75.05.2-.07.41-.27.46-.03,0-.06.01-.09.01Zm72.38-3.63c-.15,0-.3-.1-.35-.25-.07-.2.03-.41.23-.48.28-.1,6.85-2.41,10-1.57,3.07.82,4.54,1.56,4.6,1.59.18.09.26.32.16.5-.09.18-.32.26-.5.16-.01,0-1.47-.74-4.46-1.54-2.92-.78-9.49,1.53-9.55,1.56-.04.01-.08.02-.13.02Zm-65.12-7.52c-.14,0-.27-.08-.34-.21-.28-.47-3.83-2.64-7.1-4.47-.18-.1-.25-.33-.15-.51s.33-.25.51-.14c1.49.83,6.09,3.44,7.2,4.53.26-.08.43-.12.51-.13.2-.02.39.14.41.34.02.21-.14.39-.34.41-.12.02-.58.17-.58.17-.04.01-.08.02-.11.02Zm5.65-1.06c-.05,0-.11-.01-.16-.03-.29-.13-.55-.24-.8-.34-.81-.32-1.51-.6-2.37-1.5-.84-.87-5.69-3.31-7.49-4.17-.19-.09-.27-.31-.18-.5.09-.19.31-.27.5-.18.27.13,6.6,3.18,7.71,4.33.75.78,1.35,1.02,2.11,1.32.26.1.54.21.84.35.19.09.27.31.18.5-.06.14-.2.22-.34.22Zm17.94-11.94c-.15,0-.3-.09-.35-.25-.93-2.6,1.34-17.81,1.43-18.46.03-.2.22-.35.43-.32.21.03.35.22.31.43-.65,4.35-2.19,16.08-1.47,18.09.07.2-.03.41-.23.48-.04.02-.08.02-.13.02Zm28.63-46.19c-.05,0-.11-.01-.16-.04-.19-.09-.27-.31-.18-.5,1.5-3.13-1.14-11.98-1.17-12.07-.06-.2.05-.41.25-.47.2-.06.41.05.47.25.11.38,2.76,9.22,1.13,12.61-.06.13-.2.21-.34.21Zm-4.27,0c-.17,0-.32-.11-.36-.28-.78-3,1.14-11.79,1.22-12.16.04-.17.19-.29.37-.29h0c.18,0,.33.14.36.31.05.3,1.23,7.35.79,10-.03.2-.23.34-.43.31-.2-.03-.34-.23-.31-.43.28-1.66-.14-5.32-.47-7.65-.53,2.83-1.32,7.75-.81,9.72.05.2-.07.41-.27.46-.03,0-.06.01-.09.01Z"
  />
  <path
    d="m192.77,116.58c-.11,0-.23-.05-.3-.15-.12-.17-.09-.4.08-.52.53-.47,1.26-5.55,1.66-10.18.02-.21.2-.36.41-.34.21.02.36.2.34.41-.2,2.32-.93,9.95-1.96,10.72-.07.05-.15.07-.22.07Zm-29.91-2.31s-.06,0-.08,0c-.2-.05-.33-.25-.28-.45.04-.19.22-.32.42-.29.73-.05,5.45-2.64,5.96-4.29.06-.2.27-.31.47-.25.2.06.31.27.25.47-.63,2.03-5.75,4.81-6.74,4.81Zm36.04-.74c-.07,0-.13-.02-.19-.05-.18-.11-.23-.34-.13-.51.66-1.09.81-5.63-.17-12.18-.93-6.17-5.08-16.94-5.12-17.05-.08-.19.02-.41.21-.49.2-.08.41.02.49.21.04.11,4.22,10.96,5.16,17.21.92,6.13.95,11.22.08,12.68-.07.12-.19.18-.32.18Zm-25.73-3.8c-.2,0-.37-.16-.38-.36l-.37-9.95c-.37-9.93,3.09-17.18,3.13-17.25.09-.19.32-.27.5-.17.19.09.26.31.17.5-.03.07-3.42,7.16-3.05,16.9l.37,9.95c0,.21-.15.38-.36.39h-.01Zm19.68-7.69s-.07,0-.11-.01c-.2-.06-.31-.27-.25-.47,0-.03.84-2.9.95-4.87.11-2.02-1.44-10.71-4.33-15.11-2.8-4.25-5.54-3.46-5.57-3.46-.2.06-.41-.05-.47-.25-.06-.2.05-.41.25-.47.13-.04,3.31-.95,6.42,3.76,3.11,4.72,4.57,13.6,4.46,15.56-.12,2.06-.94,4.92-.98,5.04-.05.16-.2.27-.36.27Z"
  />
  <path
    d="m181.03,285.43s-.04,0-.06,0c-.21-.03-.35-.22-.31-.43.7-4.54,4.15-19.17,4.18-19.32.05-.2.25-.33.45-.28.2.05.33.25.28.45-.04.15-3.48,14.75-4.17,19.26-.03.19-.19.32-.37.32Zm-13.84-.72c-.12,0-.23-.05-.3-.15-3.71-5.1-6.15-27.59-6.25-28.54-.02-.21.13-.39.33-.41.22-.02.39.13.41.33.02.23,2.52,23.24,6.11,28.18.12.17.08.4-.08.52-.07.05-.14.07-.22.07Zm1.04-36.87c-3.16,0-5.58-3.82-5.69-3.99-.11-.17-.06-.41.12-.52.18-.11.41-.06.52.12.02.04,2.39,3.79,5.2,3.63,2.73-.13,3.42-5.34,3.43-5.39.03-.21.21-.36.42-.33.21.03.35.21.33.42-.03.24-.78,5.89-4.14,6.05-.06,0-.12,0-.18,0Zm-27.78-50.48c-5.62,0-10.97-5.9-13.34-11.73-.74-1.81-1.39-4.14-1.88-6.76-.02-.09,0-.18.04-.26.96-1.64,2.42-4.55,2.4-5.53-.21-.08-.86-.04-1.26-.01-.9.06-1.47.08-1.78-.21-.12-.11-.19-.25-.2-.42l-.03-.58c-.1-2.22-.1-6.19,1.07-8.21,0-.27-.02-.92,0-1.14.02-.13,3.95-13.07,14.71-13.39,13.39-.36,16.67,11.78,17,13.16.17.15.52.48.77.75.64.71-.2,6.78-.3,7.47-.48,3.36-2.32,13.04-5.02,17.46-2.61,4.28-6.85,9.38-12.19,9.38Zm-14.45-18.49c.48,2.51,1.1,4.75,1.81,6.48,2.61,6.42,8.05,11.26,12.64,11.26,4.99,0,9.04-4.91,11.55-9.03,2.64-4.32,4.44-13.87,4.92-17.18.55-3.88.62-6.54.46-6.9-.27-.28-.77-.73-.77-.73-.06-.05-.1-.13-.12-.21-.11-.53-2.75-13.07-16.27-12.69-10.24.3-13.96,12.64-13.99,12.76-.01.1,0,.62,0,1,.03.1.01.21-.04.3-.84,1.34-1.21,4.14-1.03,7.89l.03.49c.22.06.82.03,1.2,0,.97-.06,1.97-.12,2.05.61.14,1.37-1.95,5.11-2.43,5.93Zm63.13-90.57c-.19,0-.35-.14-.37-.33-.64-5.46-4.44-8.84-4.48-8.87-.16-.14-.17-.37-.04-.53.14-.16.38-.17.53-.04.17.14,4.06,3.59,4.73,9.35.02.21-.12.39-.33.42-.02,0-.03,0-.04,0Z"
  />
  <path
    d="m140.41,193.34c-10.08,0-13.81-9.01-13.85-9.1-.08-.19.02-.41.21-.49.19-.08.41.01.49.21.03.09,3.59,8.63,13.15,8.63s13.14-8.36,13.17-8.45c.08-.19.3-.28.49-.2.19.08.28.3.2.49-.04.09-3.79,8.91-13.86,8.91Zm.18-12.79c-12.77,0-13.68-4.49-13.71-4.68-.03-.2.1-.4.31-.43.19-.03.39.1.43.3.02.07,1,4.06,12.97,4.06s16.08-8.38,16.12-8.46c.08-.19.3-.27.5-.19.19.08.27.31.19.49-.04.09-4.11,8.91-16.81,8.91Z"
  />
  <path
    d="m140.41,178.52c-1.71,0-4.69-.1-5.37-.77-.34-.34-.65-.65-.64-1.1,0-.35.21-.71.65-1.11.08-.08.2-.11.31-.09.03,0,3.17.44,4.49.43h0c2.19-.02,4.08-.1,4.89-.14l.42-.02h.02c.4,0,.74.43.84.86.11.45-.02,1.03-.69,1.35-.88.42-2.35.6-4.92.6Zm-4.97-2.31c-.24.25-.28.39-.29.45,0,.13.19.32.39.52.31.31,2.06.59,4.87.59,1.62,0,3.62-.06,4.6-.52.29-.14.29-.31.29-.37,0-.2-.13-.39-.19-.42l-.34.03c-.81.04-2.72.12-4.92.14h0c-1.24-.02-3.71-.32-4.41-.41Zm6.09-1.58h-1.12c-.1,0-.2-.04-.27-.11-.07-.07-.11-.17-.11-.27v-2.15c.01-.21.18-.37.39-.37h1.11c.21,0,.38.17.38.38v2.15c0,.21-.17.38-.38.38Zm-.74-.75h.37v-1.4h-.36v1.4Zm-1.55.75c-.21,0-.38-.17-.38-.38v-.9h-.74v.9c0,.21-.17.38-.38.38s-.38-.17-.38-.38v-2.55c0-.21.17-.38.38-.38s.38.17.38.38v.9h.74v-.9c0-.21.17-.38.38-.38s.38.17.38.38v2.55c0,.21-.17.38-.38.38Zm3.59-.15c-.1,0-.19-.04-.26-.1-.07-.07-.12-.17-.12-.27v-2.24c0-.21.16-.37.37-.38l1.2-.02c.19-.03.38.16.38.37,0,.21-.16.38-.37.38h-.83v.38h.83c.21,0,.38.17.38.38s-.17.38-.38.38h-.83v.36l.81-.04c.19,0,.38.15.39.36.01.21-.15.38-.36.39l-1.2.06h-.02Zm2.54-.26c-.19,0-.35-.15-.37-.34l-.2-2.15c-.02-.21.13-.39.34-.41.2-.01.39.13.41.34l.2,2.15c.02.21-.13.39-.34.41-.01,0-.02,0-.03,0Zm-8.67,0h-1.39c-.21,0-.38-.17-.38-.38s.17-.38.38-.38h.75l-.88-1.59c-.06-.12-.06-.26,0-.37s.19-.18.32-.18h1.19c.21,0,.38.17.38.38s-.17.38-.38.38h-.55l.88,1.59c.06.12.06.26,0,.37s-.19.18-.32.18Z"
  />
  <path
    d="m132.2,199.05c-.39,0-.73-.12-.95-.36-.24-.25-.3-.61-.18-.97.27-.79-.64-4.88-1.28-7.28-.05-.2.07-.41.27-.46.2-.05.41.06.46.27.29,1.07,1.69,6.47,1.27,7.71-.05.15,0,.2.01.22.1.11.39.17.74.08.22-.06.97-.33,1.21-1.35.43-1.86-.8-2.89-.85-2.93-.16-.13-.19-.37-.06-.53.13-.16.36-.19.53-.06.07.05,1.66,1.36,1.12,3.69-.22.96-.88,1.67-1.75,1.9-.18.05-.36.07-.53.07Zm8.21-7.25c-7.73,0-11.81-6.83-11.85-6.9-.1-.18-.04-.41.13-.51.18-.11.41-.04.51.13.03.05,2.26,3.78,6.51,5.58l3.91-8.1c-11.98-.17-12.83-5.62-12.86-5.86-.03-.21.12-.39.32-.42.21-.02.39.12.42.32.01.07.92,5.21,12.7,5.21h.02c11.96,0,16.25-8.38,16.29-8.47.09-.19.32-.26.5-.17.19.09.26.32.17.5-.02.04-.9,1.77-2.94,3.69l-4.66,10.37c1.5-1.39,2.29-2.64,2.31-2.66.11-.18.34-.23.52-.12.18.11.23.34.12.52-.02.04-1.3,2.03-3.68,3.87-.04.04-.08.08-.13.1-2.03,1.53-4.84,2.93-8.33,2.93Zm-3.99-1.43c1.19.42,2.52.68,3.99.68.75,0,1.47-.07,2.16-.19l4.97-10.02c-2,.69-4.34,1.14-7.08,1.17l-4.04,8.37Zm12.15-9.92l-5.06,10.2c.63-.17,1.23-.38,1.79-.62,0-.06,0-.12.03-.17l4.65-10.06c-.45.23-.92.45-1.41.65Zm2.52-1.26l-4.79,10.36c.72-.39,1.38-.82,1.97-1.26l4.64-10.34c-.55.42-1.16.85-1.83,1.25Z"
  />
</svg>
