<svg xmlns="http://www.w3.org/2000/svg" viewBox="0 0 320 320" opacity="0.6">
  <path
    d="m140.55,314.62c-.84,0-1.73-.05-2.66-.14-.67-.07-1.58-.17-2.31-.65-1-.65-1.57-1.92-1.5-3.3.07-1.26.61-2.41,1.14-3.36.85-1.54,1.86-2.99,3.01-4.31.27-.31.56-.62.84-.93,1.13-1.23,2.31-2.51,2.8-4.08.17-.52.25-1.06.35-1.64.15-.93.31-1.9.82-2.74.11-.18.34-.23.52-.13.18.11.23.34.13.51-.44.72-.58,1.57-.72,2.47-.09.58-.19,1.17-.37,1.74-.54,1.72-1.77,3.06-2.96,4.36-.28.3-.56.61-.83.91-1.11,1.28-2.09,2.69-2.91,4.18-.49.88-.99,1.93-1.05,3.04-.06,1.11.4,2.14,1.16,2.64.54.35,1.22.45,1.98.53,4.93.5,8.56-.37,10.8-2.59,1.07-1.07,1.82-2.47,2.54-3.82,1.75-3.28,3.51-6.56,5.26-9.83l.85-1.59c.1-.18.32-.25.51-.15.18.1.25.33.15.51l-.85,1.59c-1.75,3.27-3.51,6.55-5.26,9.83-.75,1.4-1.52,2.84-2.68,3.99-1.97,1.96-4.91,2.95-8.75,2.95Z"
  />
  <path
    d="m143.01,317.1c-1.21,0-2.43-.12-3.62-.23-1.32-.13-2.82-.27-4.06-1.09-1.23-.82-2.09-2.57-1.34-3.99.1-.18.32-.25.51-.16.18.1.25.32.16.51-.54,1.01.13,2.38,1.09,3.01,1.08.72,2.48.85,3.71.97,2.12.2,4.31.42,6.38-.06,2.27-.53,4.04-1.88,4.73-3.61.13-.34.23-.7.34-1.06.26-.94.54-1.91,1.35-2.55.58-.46,1.29-.61,1.98-.75.32-.07.63-.13.94-.23,2.01-.67,3.07-2.86,3.24-4.75.19-2.12-.45-4.21-1.07-6.24-.06-.2.05-.41.25-.47.2-.06.41.05.47.25.61,2,1.3,4.26,1.1,6.53-.19,2.13-1.42,4.62-3.75,5.39-.33.11-.68.18-1.02.25-.63.13-1.22.26-1.67.61-.62.49-.85,1.3-1.09,2.16-.11.39-.22.77-.36,1.14-.78,1.96-2.74,3.48-5.25,4.06-.99.23-2,.31-3.01.31Z"
  />
  <path
    d="m145.06,316.76c-.64,0-1.27-.12-1.85-.26-1.78-.41-2.8-1.13-3.11-2.21-.05-.18-.09-.38-.12-.58-.07-.45-.13-.74-.34-.86-.14-.09-.35-.1-.54-.1l-2.05-.06s0,.04,0,.08v.25c0,.74.01,1.57-.44,2.26-.1.14-.28.2-.44.14-.49-.19-.95-.45-1.35-.77-.16-.13-.19-.37-.06-.53.13-.16.37-.19.53-.05.26.21.54.38.84.53.19-.46.18-1.02.18-1.57v-.25c0-.4.13-.66.39-.77.12-.06.26-.06.35-.06l2.08.06h0c.28,0,.61.02.91.2.52.31.62.91.69,1.39.03.17.05.33.1.49.22.78,1.08,1.35,2.55,1.69.87.2,1.87.38,2.73.07.2-.07.41.03.48.23.07.2-.03.41-.23.48-.43.15-.86.21-1.3.21Zm-.67-2.79h-.01c-.21,0-.37-.18-.36-.39.03-.85.56-1.68,1.58-2.46.16-.12.33-.25.5-.37.56-.4,1.08-.77,1.43-1.29.71-1.08.49-2.46.25-3.92-.06-.4-.13-.79-.17-1.18-.32-2.72.44-5.53,2.1-7.7.13-.16.36-.2.53-.07.16.13.2.36.07.53-1.54,2.02-2.25,4.63-1.95,7.16.04.38.11.76.17,1.14.25,1.54.51,3.13-.36,4.46-.42.64-1.03,1.07-1.62,1.49-.16.12-.33.23-.49.35-.83.63-1.27,1.27-1.29,1.88,0,.2-.17.36-.38.36Zm7.36-4.54c-.07,0-.15-.02-.21-.07-.17-.12-.21-.35-.09-.52.67-.96,1-2.19.9-3.37-.02-.21.13-.39.34-.41.22-.02.39.14.41.34.12,1.35-.26,2.76-1.03,3.86-.07.1-.19.16-.31.16Zm1.4-5.34c-.24,0-.48-.07-.67-.21-.45-.33-.5-.91-.5-1.31-.03-1.44.2-2.92.67-4.31.03-.12.06-.24.12-.35.08-.16.25-.24.42-.21.17.04.29.19.29.37,0,.04,0,.11-.02.15-.03.08-.05.15-.08.23-.08.46.2,1.01.39,1.31.1.18.17.22.19.23.06.02.2.02.5-.25,1.16-1.09,2.01-2.47,2.83-3.81.1-.17.32-.22.49-.14.17.09.25.3.17.48-.95,2.26-2.03,4.47-3.22,6.58-.21.37-.42.72-.78.98-.25.18-.53.27-.81.27Zm-.16-4.2c-.18.88-.27,1.78-.25,2.66,0,.39.06.62.2.72.14.11.39.08.58-.06.23-.17.4-.44.57-.74.52-.92,1.02-1.86,1.49-2.82-.19.21-.4.42-.61.62-.17.16-.69.63-1.27.41-.22-.08-.41-.26-.57-.55-.05-.08-.1-.16-.14-.24Z"
  />
  <path
    d="m141.03,310.8c-.76,0-1.48-.12-2.16-.37-.63-.23-1.23-.58-1.71-.86-.27-.16-.56-.34-.79-.62-.42-.54-.38-1.2-.34-1.79.02-.33.04-.65-.02-.93-.04-.2.09-.4.29-.44.2-.04.4.09.44.29.08.38.05.76.03,1.12-.03.52-.06.97.18,1.28.14.17.35.3.58.44.58.34,1.06.61,1.58.8,1.45.53,3.27.39,4.99-.38,1.6-.72,3.02-1.89,4.31-3.05.15-.14.39-.13.53.03.14.15.12.39-.03.53-1.33,1.2-2.8,2.41-4.5,3.17-1.14.51-2.29.77-3.39.77Zm5.56-8.16c-.06,0-.11-.01-.17-.04-1.29-.65-2.76-.94-4.25-.85-.21.03-.38-.15-.4-.35-.01-.21.15-.38.35-.4,1.62-.09,3.22.23,4.63.93.19.09.26.32.17.5-.07.13-.2.21-.34.21Zm.39-.99c-.13,0-.25-.07-.32-.18-.08-.13-.07-.29.01-.41-.06-.03-.18-.05-.23-.06l-3.84-.72c-.2-.04-.34-.23-.3-.44.04-.2.23-.34.44-.3l3.83.72c.23.04.48.1.67.29.15.15.23.38.21.6-.02.19-.12.35-.28.44-.06.04-.13.05-.19.05Zm-.27-.57h0,0Zm1.17-1.32c-.05,0-.11-.01-.16-.04-1.39-.65-2.85-1.14-4.37-1.47-.2-.04-.33-.24-.29-.45.04-.2.25-.33.45-.29,1.57.34,3.09.85,4.53,1.52.19.09.27.31.18.5-.06.14-.2.22-.34.22Zm.02-2.07c-.05,0-.11-.01-.16-.04-1.27-.62-2.68-.86-4.08-.72-.2.01-.39-.13-.41-.33-.02-.21.13-.39.33-.41,1.55-.16,3.1.12,4.49.79.19.09.26.32.17.5-.06.13-.2.21-.34.21Z"
  />
  <path
    d="m140.58,302.59c-.08,0-.16-.03-.22-.07-.08-.06-.13-.15-.15-.25-.15-1.08.42-2.06.97-2.91,1.16-1.77,2.57-3.74,4.64-4.83.12-.06.26-.06.37,0,.11.07.18.19.18.32h0c0,.06,0,.1-.03.15l-.31.81c-.69,1.77-1.14,2.93-1.82,4.03-.68,1.1-1.86,2.47-3.56,2.74-.02,0-.04,0-.06,0Zm4.65-6.81c-1.43,1.06-2.51,2.59-3.43,3.99-.41.63-.81,1.3-.86,1.97,1.21-.37,2.08-1.43,2.62-2.3.62-.99,1.05-2.07,1.67-3.67Z"
  />
  <path
    d="m177.99,314.87c-3.84,0-6.78-.99-8.75-2.95-1.15-1.15-1.93-2.59-2.67-3.99-1.77-3.32-3.55-6.63-5.32-9.94l-.8-1.49c-.1-.18-.03-.41.15-.51.18-.1.41-.03.51.15l.8,1.49c1.77,3.31,3.54,6.62,5.31,9.93.72,1.35,1.47,2.74,2.54,3.82,2.23,2.22,5.87,3.1,10.8,2.59.76-.08,1.44-.18,1.98-.53.76-.5,1.21-1.53,1.16-2.64s-.56-2.16-1.05-3.04c-.82-1.49-1.8-2.9-2.92-4.18-.27-.31-.55-.61-.82-.91-1.19-1.29-2.42-2.63-2.96-4.36-.18-.57-.28-1.16-.37-1.74-.15-.9-.29-1.75-.72-2.47-.11-.18-.05-.41.13-.51.17-.11.41-.05.51.13.51.85.67,1.81.82,2.74.09.57.18,1.12.35,1.63.49,1.57,1.67,2.84,2.8,4.08.28.31.57.62.84.93,1.15,1.32,2.16,2.77,3.01,4.31.53.96,1.07,2.11,1.14,3.36.07,1.39-.5,2.65-1.49,3.3-.74.48-1.65.58-2.31.65-.93.09-1.82.14-2.66.14Zm-40.79-9.91c-.12,0-.23-.06-.31-.16-.12-.17-.08-.4.09-.52.66-.46,1.15-1.11,1.67-1.8l.22-.29c1.75-2.28,3.83-4.3,6.18-6.02.17-.12.4-.09.52.08.12.17.09.4-.08.52-2.29,1.67-4.32,3.64-6.03,5.87l-.22.29c-.53.7-1.09,1.43-1.84,1.96-.07.05-.14.07-.21.07Zm10.88-.34c-.13,0-.25-.07-.32-.18-.56-.93-.7-2.11-.38-3.15.07-.22.15-.43.24-.65.09-.22.19-.45.25-.68.19-.74.05-1.52-.1-2.35-.12-.68-.25-1.39-.19-2.1.02-.2.22-.35.39-.34.2,0,.36.17.36.38h0c.39,2.35.58,4.55.77,6.68.12,1.27-.17,2.06-.87,2.37-.05.02-.1.03-.15.03Zm.17-3.54c-.06.14-.11.28-.15.42-.22.7-.17,1.47.1,2.15.16-.27.22-.72.16-1.35-.04-.4-.07-.81-.11-1.22Z"
  />
  <path
    d="m175.53,317.35c-1.01,0-2.01-.08-3.01-.31-2.51-.58-4.48-2.1-5.25-4.06-.1-.25-.18-.47-.25-.66-.25-.72-.37-1.05-1.08-1.61-.77-.61-2.33-1.54-3.2-1.83-2.11-.7-4.21-3.48-3.64-5.87.16-.7.31-1.4.45-2.12.26-1.29.53-2.63.94-3.99.06-.2.27-.31.47-.25.2.06.31.27.25.47-.4,1.32-.67,2.64-.92,3.92-.15.72-.29,1.44-.46,2.14-.47,1.97,1.34,4.39,3.15,4.99.96.32,2.6,1.29,3.43,1.95.88.7,1.06,1.19,1.33,1.95.07.19.14.4.24.64.69,1.73,2.45,3.08,4.73,3.61,2.07.48,4.26.27,6.38.06,1.23-.12,2.63-.26,3.71-.97.97-.64,1.21-1.35,1.05-3.16-.02-.21.14-.39.34-.41.2-.02.39.14.41.34.16,1.8-.02,2.94-1.38,3.85-1.24.82-2.73.97-4.05,1.09-1.19.12-2.41.23-3.62.23Z"
  />
  <path
    d="m173.48,316.99c-.43,0-.87-.06-1.3-.21-.2-.07-.3-.28-.23-.48.07-.19.28-.29.48-.23.87.31,1.87.12,2.73-.07.17-.04.36-.08.56-.12,1.03-.21,2.58-.53,2.8-1.3.12-.42.26-.82.38-1.19l.14-.43c.09-.26.26-.79.88-.95.7-.19,1.09-.22,1.71-.22.19,0,.67.22.68.22.33.16.61,1,.61,1.22,0,.37.1.47.34.71.1.1.22.22.35.38.27.01.49.17.64.28.06.04.14.1.17.11.16-.13.36-.1.49.06.13.16.07.4-.09.53-.41.33-.82.04-1.01-.1-.06-.05-.18-.13-.22-.13-.17.06-.35,0-.45-.14-.13-.2-.27-.33-.4-.46-.28-.28-.57-.57-.56-1.25-.01-.09-.18-.5-.26-.59,0,0-.26-.08-.33-.1-.54,0-.85.03-1.47.2-.22.06-.29.22-.37.46l-.14.43c-.12.36-.25.75-.37,1.16-.34,1.21-2.09,1.57-3.36,1.83-.2.04-.38.08-.54.12-.58.13-1.21.26-1.85.26Zm.67-2.77c-.2,0-.37-.16-.38-.36-.02-.62-.45-1.25-1.29-1.88-.16-.12-.32-.24-.48-.35-.59-.42-1.2-.85-1.62-1.5-.87-1.33-.61-2.92-.36-4.46.06-.38.13-.77.17-1.14.3-2.53-.41-5.14-1.95-7.16-.13-.16-.09-.4.07-.53.16-.12.4-.09.53.07,1.66,2.17,2.43,4.98,2.1,7.7-.04.38-.11.78-.17,1.18-.24,1.46-.47,2.84.25,3.92.34.52.87.9,1.43,1.3.17.12.34.24.5.37,1.02.78,1.55,1.6,1.58,2.46,0,.21-.16.38-.36.39h-.01Zm-7.36-4.54c-.12,0-.23-.06-.31-.16-.77-1.1-1.15-2.51-1.03-3.86.02-.21.21-.35.41-.34.21.02.36.2.34.41-.1,1.18.22,2.41.9,3.37.12.17.08.4-.09.52-.07.05-.14.07-.22.07Zm-1.4-5.34c-.27,0-.56-.09-.81-.27-.36-.26-.57-.61-.78-.98-1.19-2.11-2.27-4.32-3.22-6.58-.08-.18,0-.39.17-.48.18-.09.39-.03.49.14.83,1.34,1.68,2.73,2.84,3.82.31.28.44.27.48.25.04-.01.1-.05.19-.22.2-.32.47-.86.4-1.33-.03-.08-.05-.15-.08-.23-.01-.04-.02-.08-.02-.13v-.02c0-.18.12-.33.29-.37.17-.04.35.05.42.21.05.11.09.23.12.35.47,1.39.7,2.87.67,4.32,0,.4-.05.98-.5,1.31-.19.14-.42.21-.66.21Zm-2.42-4.44c.48.96.97,1.9,1.49,2.82.17.31.33.57.57.75.19.14.44.17.57.06.14-.1.2-.33.2-.72.02-.89-.07-1.79-.25-2.67-.05.08-.1.17-.15.26-.05.09-.24.42-.58.54-.56.22-1.08-.25-1.25-.41-.21-.2-.42-.41-.61-.63Z"
  />
  <path
    d="m177.52,311.05c-1.1,0-2.25-.26-3.39-.77-1.7-.77-3.17-1.98-4.5-3.17-.15-.14-.17-.38-.03-.53.14-.15.38-.17.53-.03,1.29,1.16,2.71,2.32,4.31,3.05,1.72.78,3.54.91,4.99.38.52-.19,1.03-.48,1.58-.8.22-.13.44-.26.58-.44.24-.31.21-.76.18-1.28-.02-.37-.05-.75.03-1.12.04-.2.23-.34.44-.29.2.04.33.24.29.44-.06.28-.04.6-.02.93.04.58.08,1.25-.34,1.79-.23.29-.52.47-.79.62-.59.35-1.13.65-1.71.86-.68.25-1.41.37-2.16.37Zm-5.57-8.16c-.14,0-.27-.08-.33-.21-.09-.19-.02-.41.17-.5,1.41-.71,3.01-1.02,4.63-.93.21.01.36.19.35.4-.01.21-.17.37-.4.35-1.48-.09-2.95.21-4.25.85-.05.03-.11.04-.17.04Zm-.39-1c-.07,0-.13-.02-.19-.05-.15-.09-.26-.25-.28-.44-.03-.22.05-.45.21-.6.2-.2.45-.26.67-.29l3.83-.72c.21-.04.4.09.44.3.04.2-.09.4-.3.44l-3.83.72c-.06.01-.17.03-.23.06.08.12.09.28.01.41-.07.12-.2.18-.32.18Zm-.89-1.88c-.14,0-.28-.08-.34-.22-.09-.19,0-.41.18-.5,1.44-.67,2.96-1.18,4.53-1.52.21-.05.4.08.45.29s-.08.4-.29.45c-1.51.33-2.98.82-4.37,1.47-.05.02-.11.04-.16.04Zm-.02-2.07c-.14,0-.27-.08-.34-.21-.09-.19-.01-.41.17-.5,1.39-.68,2.94-.95,4.49-.79.21.02.36.21.33.41-.02.21-.21.35-.41.33-1.41-.15-2.82.1-4.08.72-.05.03-.11.04-.16.04Z"
  />
  <path
    d="m168.01,308.8s-.1,0-.15-.03c-.19-.08-.28-.3-.2-.49,1.79-4.21,3.45-8.46,4.95-12.61.07-.2.28-.3.48-.23.05.02.09.04.12.07.01-.01.03-.02.05-.03,0,0,.02-.01.03-.02.03-.27.07-.53.15-.78.03-.1.09-.18.18-.23.62-.34,1.44-.25,2.1.22.53.38.9.91,1.27,1.46.87,1.35,1.73,2.79,2.54,4.28.25.47.53.99.59,1.57.02.19-.1.36-.28.4-.07.02-.13.02-.2.03,0,0,0,0,0,0l.22.29c.52.69,1.02,1.34,1.67,1.79.17.12.21.35.09.52-.12.17-.35.21-.52.09-.75-.53-1.3-1.25-1.84-1.96l-.22-.29c-1.71-2.22-3.74-4.2-6.03-5.87-.03-.02-.06-.05-.08-.08-1.41,3.84-2.95,7.74-4.59,11.62-.06.14-.2.23-.35.23Zm6.02-13.01c.05.05.09.11.14.16l.21.23c1.04,1.11,2.08,2.23,3.12,3.35l1.65,1.78c-.08-.17-.17-.35-.26-.52-.81-1.47-1.65-2.9-2.51-4.23-.34-.51-.65-.96-1.08-1.26-.31-.22-.78-.37-1.17-.24-.05.24-.08.48-.09.73Zm-.84.5s-.01.04-.02.06c.01,0,.03,0,.04,0,0-.02-.01-.04-.02-.05Zm-4.21,1.35c-1,0-1.76-.83-2.14-1.62-.15-.31-.26-.63-.38-.95-.17-.47-.33-.91-.59-1.29-.35-.53-.9-.94-1.5-1.12-.11-.03-.23-.05-.32-.03-.13.04-.26.26-.31.33-.21.35-.4.72-.55,1.12-.08.19-.29.29-.49.21-.19-.08-.29-.29-.21-.49.17-.44.37-.85.61-1.24.14-.24.38-.56.76-.67.27-.07.51-.01.7.04.8.24,1.48.75,1.93,1.43.31.46.49.96.67,1.45.11.3.22.6.35.88.28.58.82,1.22,1.53,1.19.23-.04.38.15.4.35.01.21-.14.38-.35.4-.04,0-.07,0-.11,0Zm-7.92-.84c-.12,0-.25-.06-.32-.18-.84-1.35-.66-3.23.41-4.39.14-.15.38-.16.53-.02s.16.38.02.53c-.85.92-1,2.41-.33,3.48.11.18.06.41-.12.52-.06.04-.13.06-.2.06Z"
  />
  <path
    d="m174.55,301.93c-.2,0-.37-.16-.38-.36-.03-.87-.33-1.7-.65-2.58-.28-.78-.57-1.58-.67-2.43-.02-.21.13-.39.33-.41.2,0,.39.13.41.33.08.76.35,1.49.62,2.26.32.89.66,1.82.69,2.81,0,.21-.16.38-.36.39h-.01Z"
  />
  <path
    d="m172.6,305.14c-.17,0-.32-.11-.36-.28-.05-.2.07-.41.27-.46,1.74-.45,3.54-.74,5.34-.85.2-.04.39.14.4.35.01.21-.14.38-.35.4-1.76.11-3.5.39-5.2.83-.03,0-.06.01-.09.01Zm-26.65-1.22c-.09,0-.17-.03-.25-.09-.27-.23-.7-.23-1.13-.23-1.32.02-2.72.12-4.14.31-.2.02-.39-.12-.42-.32-.03-.21.12-.39.32-.42,1.45-.19,2.87-.29,4.23-.31h.02c.51,0,1.14,0,1.61.41.16.14.17.37.04.53-.07.09-.18.13-.28.13Zm27.74-3.25c-.18,0-.34-.13-.37-.31-.21-1.19-.41-2.38-.6-3.58-.06-.42-.14-.94.07-1.41.08-.19.3-.28.49-.2.19.08.28.3.2.49-.12.28-.06.66-.01,1,.19,1.19.39,2.38.6,3.56.04.2-.1.4-.3.43-.02,0-.04,0-.07,0Zm-28.64-21.71c-.15,0-.28-.08-.34-.23-3.27-7.67-5.06-16.78-5.47-27.84-.24-6.33-.02-12.77.18-19,.1-3.08.21-6.27.26-9.4.09-5.98,0-12.35-.27-19.46,0-.21.15-.38.36-.39.22.02.38.15.39.36.28,7.13.36,13.51.27,19.5-.05,3.14-.16,6.33-.26,9.41-.21,6.21-.42,12.63-.18,18.94.41,10.97,2.18,19.99,5.41,27.57.08.19,0,.41-.2.49-.05.02-.1.03-.15.03Z"
  />
  <path
    d="m148.08,289.05c-.27,0-.56-.08-.76-.25-2.69-2.15-5.29-4.46-7.72-6.88-.49-.49-1.04-1.05-1.33-1.79-.27-.69-.26-1.42-.23-2.23.31-7.39.84-14.81,1.58-22.05.02-.21.21-.35.41-.33.21.02.36.21.34.41-.73,7.23-1.26,14.63-1.57,22.01-.03.72-.04,1.37.18,1.93.23.59.72,1.09,1.16,1.53,2.41,2.4,4.99,4.7,7.66,6.83.06.05.17.08.26.08.02-.11.08-.21.19-.27.18-.1.41-.04.51.14.14.25.1.53-.11.7-.14.11-.34.17-.56.17Zm-8.35-57.41c-.18,0-.34-.14-.37-.32-1.67-12.05-3.6-24.14-5.73-35.93-.04-.2.1-.4.3-.44.21-.04.4.1.44.3,2.13,11.8,4.06,23.9,5.73,35.96.03.21-.11.39-.32.42-.02,0-.03,0-.05,0Z"
  />
  <path
    d="m155,296.54c-.81,0-1.62-.32-2.35-.62l-.14-.06c-2.58-1.04-5.41-1.54-8.17-1.45-.14.02-.27-.07-.34-.19-.16-.27-.36-.56-.57-.87-.66-.95-1.48-2.14-1.48-3.55,0-.96.37-1.82.73-2.66.23-.54.46-1.05.58-1.58.05-.2.25-.33.45-.28.2.05.33.25.28.45-.14.6-.39,1.16-.62,1.71-.35.8-.68,1.56-.67,2.36,0,1.18.71,2.21,1.34,3.13.18.26.35.5.49.73,2.8-.05,5.64.46,8.25,1.51l.14.06c.93.37,1.88.76,2.71.46.92-.34,1.4-1.41,1.78-2.39.84-2.13,1.71-4.32,1.82-6.63.1-2.07-.43-4.18-.89-6.05l-1.37-5.53c-.59-2.4-1.19-4.8-1.78-7.2-.05-.2.07-.4.27-.46.2-.04.4.07.45.27.6,2.4,1.19,4.8,1.78,7.2l1.37,5.53c.48,1.92,1.02,4.1.91,6.27-.11,2.43-1.05,4.79-1.87,6.87-.44,1.13-1.02,2.38-2.23,2.82-.3.11-.6.15-.9.15Z"
  />
  <path
    d="m156.81,280.14s-.09,0-.14-.03c-1.9-.75-3.76-1.69-5.52-2.78-.17-.11-.23-.32-.13-.5,2.38-4.37,3.75-9.77,4.09-16.03.3-5.6-.25-11.28-.78-16.77-.02-.21.13-.39.34-.41.2-.02.39.13.41.34.03.27.05.53.08.8.32-1.86.6-3.75.84-5.65-.04,0-.09,0-.13,0-.2-.05-.33-.25-.28-.45.69-2.97,1.4-6.04.95-9.06-.2-1.31-.6-2.56-1.07-3.95-1.42-4.25-2.95-8.67-4.56-13.12-.07-.2.03-.41.23-.48.19-.07.41.03.48.22,1.61,4.46,3.15,8.88,4.57,13.14.48,1.42.89,2.71,1.1,4.08.35,2.36.04,4.7-.43,6.99.12.07.19.21.17.36-.35,3.25-.82,6.49-1.4,9.62-.03.15-.14.26-.27.29.43,4.64.77,9.39.52,14.1-.33,6.23-1.68,11.62-4.01,16.04,1.64.99,3.35,1.84,5.1,2.54.19.08.29.29.21.49-.06.15-.2.24-.35.24Zm.49-52.83s-.02,0-.03,0c-.21-.02-.36-.2-.34-.41,1.36-16.18,1.76-32.65,1.21-48.95,0-.21.16-.38.36-.39.24-.02.38.16.39.36.55,16.33.14,32.83-1.22,49.04-.02.2-.18.34-.37.34Z"
  />
  <path
    d="m152.64,295.59c-.15,0-.3-.09-.35-.25-1.48-4.04-3.2-8.07-5.09-11.96-.07-.13-.04-.29.04-.4-2.08-.42-4.12-1-6.11-1.73-.19-.07-.29-.29-.22-.48.07-.19.29-.29.48-.22,3.4,1.25,6.96,2.05,10.57,2.37.21.02.36.2.34.41s-.21.36-.41.34c-1.34-.12-2.68-.3-4-.55,1.9,3.9,3.61,7.92,5.09,11.97.07.19-.03.41-.22.48-.04.02-.09.02-.13.02Zm9.78-49.75c-.16,0-.3-.1-.35-.25-1.92-5.48-1.7-11.4-1.47-17.13.09-2.33.18-4.75.13-7.09-.08-3.58-.52-7.42-1.35-11.75l-.22-1.16c-.69-3.55-1.41-7.23-.65-10.82.04-.2.24-.33.44-.29.2.04.33.24.29.44-.73,3.44-.03,7.04.65,10.52l.22,1.16c.83,4.38,1.28,8.26,1.36,11.88.06,2.37-.04,4.79-.13,7.14-.22,5.66-.44,11.51,1.43,16.86.07.2-.03.41-.23.48-.04.01-.08.02-.12.02Zm.81-29.54c-.06,0-.11-.01-.17-.04-.19-.09-.26-.32-.17-.5,4.17-8.46,6.63-17.92,7.12-27.36,0-.21.16-.4.39-.35.21,0,.37.19.35.39-.49,9.54-2.98,19.1-7.19,27.65-.06.13-.2.21-.34.21Z"
  />
  <path
    d="m175.24,294.64c-.2,0-.37-.16-.38-.36-.07-2.33-.74-4.62-1.93-6.63-.11-.18-.05-.41.13-.51.18-.11.41-.05.51.13,1.26,2.12,1.97,4.54,2.04,7,0,.21-.16.38-.36.39h-.01Zm-10.82-.91c-.2,0-.36-.16-.37-.36-.01-.21.15-.38.35-.39-.03-.02-.03-.24-.12-.45-1.03-2.27-2.27-4.53-3.69-6.69-.11-.17-.07-.41.11-.52.17-.12.41-.07.52.11,1.45,2.2,2.71,4.48,3.75,6.8.16.35.22.85.02,1.19-.12.19-.31.31-.54.32,0,0-.01,0-.02,0Zm-3.48-.8c-.16,0-.31-.1-.36-.27-.44-1.45-.97-2.91-1.56-4.36-.08-.19.01-.41.2-.49.19-.08.41.01.49.2.61,1.47,1.14,2.96,1.59,4.43.06.2-.05.41-.25.47-.04.01-.07.02-.11.02Zm4.32-11.1c-1.91,0-3.78-.84-5.03-2.29-.14-.16-.12-.39.04-.53.16-.14.39-.12.53.04,1.15,1.33,2.95,2.1,4.71,2.03,1.67-.07,3.18-.81,4.79-1.6.68-.33,1.38-.68,2.09-.96.19-.08.41.02.49.21.08.19-.02.41-.21.49-.68.28-1.37.61-2.03.94-1.6.79-3.26,1.6-5.09,1.68-.09,0-.18,0-.28,0Zm-6.98-3.56s-.1,0-.14-.03c-.19-.08-.28-.3-.2-.49,1.41-3.38,2.72-6.71,3.26-10.16.5-3.24.33-6.62.17-9.9-.21-4.16-.43-8.46.74-12.53.06-.2.26-.31.46-.26.2.06.31.26.26.46-1.13,3.96-.92,8.19-.71,12.29.17,3.31.34,6.73-.18,10.05-.55,3.54-1.88,6.91-3.31,10.33-.06.14-.2.23-.35.23Zm4.23-2.1c-.13,0-.25-.07-.32-.19-.1-.18-.04-.41.14-.51,2.88-1.67,5.58-3.69,8.03-6.01-.56-.89-1.45-1.52-2.38-2.19-.77-.55-1.57-1.12-2.2-1.87-1.32-1.55-1.73-3.55-2.09-5.8-.03-.2.11-.4.31-.43.2-.03.4.11.43.31.35,2.14.73,4.03,1.92,5.44.57.67,1.33,1.22,2.06,1.74,1.04.75,2.11,1.52,2.74,2.69.08.15.05.33-.07.45-2.54,2.44-5.36,4.57-8.38,6.32-.06.03-.12.05-.19.05Z"
  />
  <path
    d="m171.09,292.08c-.07,0-.13-.02-.19-.05-.18-.11-.23-.34-.13-.51,2.62-4.31,5.59-9.19,6.63-14.51.4-2.07.51-4.21.62-6.1.21-3.91.41-7.9.59-11.9-1.48,3.8-3.09,7.63-4.81,11.42-.08.19-.31.27-.5.19-.19-.09-.27-.31-.19-.5,1.85-4.09,3.58-8.23,5.15-12.31.13-.36.26-.69.28-1.03.01-.31-.08-.64-.18-.98l-.07-.26c-.62-2.23-.48-4.57-.35-6.63.5-8.43,1.19-17.01,2.08-25.53-.04-.06-.05-.14-.05-.22l1.92-22.95c-.36.02-.75.04-1.12-.17-.36-.21-.56-.58-.72-.92-3.52-7.22-6.81-14.63-9.83-22.13-.04,0-.08,0-.12,0l-6.76-.81c-1.36-.17-2.69-.33-4.01-.34-1.31-.01-2.63.11-3.9.24l-10.31,1.01c-.05,0-.1,0-.15-.01-3.67,7.85-8.13,15.31-13.34,22.27-.08.11-.22.15-.34.15-.13-.01-.25-.1-.3-.22-.31-.69-1.09-.9-2-1.15-.74-.2-1.51-.41-2.09-.92-1.38-1.2-1.04-3.42-.86-4.61.65-4.23.98-8.51.97-12.73,0-.44,0-.88,0-1.33-.02-3.25-.05-6.6,1.25-9.62.08-.19.3-.28.49-.2.19.08.28.3.2.49-1.24,2.88-1.21,6.15-1.19,9.32,0,.44,0,.89,0,1.33.01,4.26-.32,8.58-.98,12.85-.24,1.56-.33,3.11.61,3.93.46.4,1.14.59,1.8.77.81.22,1.64.45,2.16,1.06,7.08-9.56,12.77-20.05,16.91-31.2.07-.19.29-.29.48-.22.19.07.29.29.22.48-1.11,2.98-2.32,5.91-3.64,8.79l10.03-.99c1.3-.13,2.64-.26,3.99-.24,1.36.01,2.72.17,4.1.34l6.47.78c-1.11-2.79-2.19-5.59-3.23-8.4-.07-.19.03-.41.22-.48.2-.07.41.03.48.22,3.91,10.59,8.39,21.1,13.34,31.23.12.24.25.49.43.59.18.1.44.09.72.07,2.47-.2,4.93-.75,7.29-1.63.29-.11.54-.22.65-.41.11-.18.1-.46.09-.73l-1.25-26.69c0-.21.15-.38.36-.39.21,0,.38.15.39.36l1.25,26.68c.02.37.03.8-.2,1.16-.25.42-.72.6-1.03.71-2.2.83-4.48,1.37-6.79,1.61,0,.03,0,.07,0,.1l-1.83,21.88c.05.07.08.16.07.26-.94,8.86-1.67,17.8-2.19,26.57-.12,2-.25,4.28.33,6.39l.07.25c.06.2.12.41.16.62.13.06.23.2.22.36-.2,4.82-.44,9.65-.69,14.37-.1,1.91-.22,4.08-.63,6.2-1.07,5.45-4.07,10.4-6.72,14.76-.07.12-.19.18-.32.18Z"
  />
  <path
    d="m156.72,172.62c-.37,0-.73-.05-1.09-.19-.49-.18-.79-.53-.8-.93-.02-.52.41-.93,1.18-1.1.2-.04.4.08.45.28.05.2-.08.4-.28.45-.38.08-.6.24-.59.34,0,.08.14.19.32.26.91.34,1.97,0,2.9-.35,4.69-1.76,8.18-3.68,10.96-6.04.33-.28.65-.57.98-.86.93-.83,1.89-1.69,2.99-2.33.18-.1.41-.04.51.13.1.18.04.41-.13.51-1.04.6-1.97,1.44-2.87,2.24-.33.29-.66.59-.99.87-2.85,2.42-6.41,4.38-11.18,6.17-.72.27-1.53.54-2.33.54Z"
  />
  <path
    d="m153.27,171.85c-.24,0-.47-.02-.71-.05-.17-.03-.34-.06-.49-.15-.21-.12-.37-.34-.43-.61-.07-.32,0-.68.19-.95.27-.38.68-.58,1.05-.76,2.89-1.36,5.53-3.06,7.89-5.05.16-.13.39-.11.53.04s.11.39-.04.53c-2.41,2.04-5.11,3.77-8.02,5.14-.34.16-.63.31-.79.53-.07.09-.1.24-.07.35.01.06.04.1.07.12.04.02.14.04.21.05,1.57.22,3.14-.48,4.61-1.23,2.04-1.04,3.98-2.09,5.77-3.13.18-.1.41-.04.51.14.1.18.04.41-.14.51-1.8,1.05-3.76,2.11-5.81,3.15-1.36.69-2.81,1.35-4.33,1.35Z"
  />
  <path
    d="m149.9,170.41s-.03,0-.05,0c-.56-.02-1.05-.35-1.2-.81-.16-.52.06-1.06.67-1.61,1.33-1.2,2.94-2.03,4.49-2.83.3-.16.61-.31.91-.47,1.09-.57,2.25-1.25,3.24-2.14-1.14.49-2.37.8-3.58,1.1-1.17.29-2.37.59-3.47,1.05l-.22.1c-.42.18-.86.38-1.35.43-.74.09-1.41-.21-1.72-.75-.1-.19-.15-.35-.13-.52.02-.43.42-.67.61-.79,1.62-.95,3.37-1.68,5.06-2.4.82-.35,1.65-.69,2.46-1.07,1.91-.88,4.67-2.31,6.48-4.66.13-.16.36-.19.53-.07.16.13.19.36.07.53-1.92,2.48-4.78,3.97-6.77,4.88-.82.38-1.65.73-2.48,1.08-1.67.7-3.39,1.43-4.97,2.35-.21.12-.24.18-.25.2.21.4.66.5,1.02.46.38-.04.74-.21,1.13-.38l.23-.1c1.15-.49,2.38-.79,3.58-1.09,1.93-.48,3.76-.93,5.24-2.09.14-.11.35-.1.48.02.14.12.16.32.07.48-1.19,1.9-3.16,3.11-4.92,4.04-.3.16-.61.32-.92.48-1.51.78-3.07,1.58-4.33,2.71-.25.23-.54.56-.46.83.05.16.27.28.51.29.26,0,.56-.1.89-.24,1.55-.63,3.09-1.26,4.63-1.89l.75-.31c.19-.08.41.01.49.2.08.19-.01.41-.21.49l-.75.31c-1.54.63-3.08,1.26-4.62,1.89-.37.16-.74.3-1.15.3Z"
  />
  <path
    d="m166.6,171.94c-.27,0-.54-.04-.79-.07-.25-.04-.5-.07-.75-.11-.07.11-.18.17-.33.18-1.22-.03-2.48-.12-3.84-.28-.21-.02-.35-.21-.33-.42.02-.21.21-.36.42-.33.48.06.95.11,1.4.14-.02-.06-.02-.12,0-.18.04-.2.24-.33.45-.29.97.21,2.01.39,3.1.55.38.06.74.1,1.08.02.31-.07.56-.26.63-.48.06-.2.27-.31.47-.25.2.06.31.27.25.47-.15.48-.6.86-1.18.99-.19.04-.38.06-.56.06Zm1.11-2.01s-.08,0-.12-.02c-.69-.23-1.33-.43-1.96-.58-.2-.05-.32-.25-.27-.46s.26-.32.46-.27c.64.16,1.3.36,2.02.6.2.07.3.28.24.48-.05.16-.2.25-.36.25Zm-18.35-1.69c-.06,0-.12-.01-.17-.04-1.62-.83-3.03-2.01-4.39-3.15-1.14-.95-2.32-1.94-3.6-2.7-.18-.11-.24-.34-.13-.51.11-.18.33-.24.51-.13,1.33.79,2.54,1.8,3.7,2.77,1.33,1.11,2.71,2.26,4.25,3.05.18.09.26.32.16.5-.07.13-.2.2-.33.2Zm8.28-9.29c-.06,0-.12-.01-.18-.05l-1.78-.97c-.18-.1-.25-.33-.15-.51.1-.18.33-.25.51-.15l1.78.97c.18.1.25.33.15.51-.07.12-.2.19-.33.19Zm2.27-1.25c-.29,0-.51-.13-.69-.24-1.97-1.18-4.18-1.84-6.43-1.95-.92-.04-1.88,0-2.8.06-1.21.07-2.47.13-3.71,0-.21-.02-.35-.21-.33-.42.02-.21.21-.35.41-.33,1.18.13,2.4.07,3.58,0,.94-.05,1.91-.1,2.88-.06.41.02.82.06,1.23.11-.05-.03-.1-.07-.15-.11-.3-.21-.66-.62-.69-1.08-.02-.25.08-.48.26-.65.25-.23.6-.25.79-.26h.1c3.77-.2,7.67-.41,11.45.3.35.06.69.13,1.04.21,1.03.21,2.09.43,3.13.44.21,0,.37.17.37.38,0,.21-.17.37-.38.37h0c-1.12,0-2.22-.23-3.28-.45-.34-.07-.68-.14-1.02-.2-3.69-.69-7.54-.49-11.27-.29h-.1c-.07,0-.27.02-.32.07,0,.17.13.41.35.56,1.74,1.24,4.08,1.14,6.52.91.17-.01.34.09.39.25l.32.96c.07.2-.04.41-.24.47-.2.07-.41-.04-.47-.24l-.23-.68c-.93.08-1.84.14-2.71.11.56.24,1.11.53,1.64.84.16.09.27.16.35.16.21,0,.38.17.38.38s-.17.38-.38.38Z"
  />
  <path
    d="m139.41,171.14c-.31-.02-.55-.22-.71-.57-.42-.95-.25-2.01-.01-3.02,1.17-4.79,3.94-9.34,7.79-12.81.34-.31.71-.61,1.2-.68.33-.04.69.06.94.28.21.18.33.42.34.68,0,.21-.16.38-.37.38-.25.02-.38-.16-.38-.37,0-.04-.03-.08-.07-.12-.09-.08-.24-.12-.36-.11-.27.04-.53.25-.79.49-3.75,3.37-6.43,7.78-7.57,12.43-.2.82-.38,1.76-.03,2.54.02.04.04.07.05.09,0-.02.03-.04.06-.06,1.77-1.64,3.34-3.52,4.65-5.58.11-.17.34-.23.52-.12.17.11.23.34.11.52-1.35,2.11-2.96,4.04-4.78,5.74-.11.1-.31.28-.6.28Zm36.62-3.07c-.27,0-.56-.14-.74-.31-1.23-1.13-2.37-2.36-3.41-3.68-.13-.16-.1-.4.06-.53.16-.13.4-.1.53.06,1,1.27,2.1,2.47,3.29,3.55-.61-1.44-1.2-2.86-1.78-4.28l-.3-.71c-.65-1.55-1.31-3.16-2.12-4.65-1.02-1.88-2.26-3.6-3.7-5.13.12.38.28.74.5,1.08.11.17.06.41-.12.52-.17.11-.41.06-.52-.12-.49-.77-.77-1.66-.81-2.57,0-.15.08-.3.22-.36.14-.06.3-.04.42.07,1.86,1.79,3.43,3.86,4.68,6.15.83,1.52,1.5,3.15,2.16,4.71l.3.71c.63,1.51,1.25,3.02,1.87,4.53.05.13.11.3.07.49-.04.19-.18.35-.38.41-.06.02-.13.03-.2.03Zm-24.07-12.54c-.18,0-.34-.13-.37-.32-2.84-19.46-5.78-39.59-2.59-59.45.03-.21.23-.34.43-.31.2.03.34.23.31.43-3.17,19.74-.24,39.81,2.59,59.22.03.2-.11.39-.32.42-.02,0-.04,0-.05,0Zm13.61-2.23h-.01c-.21,0-.37-.18-.36-.39l1.1-30.19c.33-8.94.66-18.19-1.21-27.11-.04-.2.09-.4.29-.44.21-.04.4.09.44.29,1.89,9.01,1.55,18.3,1.22,27.29l-1.1,30.19c0,.2-.17.36-.38.36Z"
  />
  <path
    d="m131.56,144.64h-.02c-.21,0-.37-.19-.36-.39.63-13.7,1.29-27.88-2.43-41.31-.05-.18.04-.36.2-.44,4.86-2.3,10.13-3.46,15.22-3.34h.11c.56.01,1.1.02,1.54-.21.28-.14.53-.4.77-.65l2.56-2.68c.14-.15.38-.16.53-.01.15.14.16.38.01.53l-2.56,2.68c-.27.28-.58.6-.96.8-.6.32-1.29.31-1.9.29h-.11c-4.88-.12-9.92.97-14.6,3.13,3.65,13.46,3,27.58,2.37,41.24,0,.2-.18.36-.37.36Zm26-40.37c-2.95,0-5.93-.49-8.57-.93-.2-.03-.34-.23-.31-.43s.23-.34.43-.31c2.69.45,5.75.96,8.71.92,3.26-.03,6.06-.72,8.31-2.03.18-.1.41-.04.51.14.1.18.04.41-.14.51-2.37,1.38-5.28,2.09-8.68,2.13-.09,0-.18,0-.27,0Zm-1.5-2.26c-2.4,0-4.81-.32-7.14-.98-.2-.06-.32-.26-.26-.46.06-.2.26-.31.46-.26,5.42,1.52,11.29,1.21,16.52-.89.19-.08.41.02.49.21s-.02.41-.21.49c-3.14,1.26-6.5,1.89-9.87,1.89Z"
  />
  <path
    d="m139.29,171.02c-.09,0-.18-.03-.25-.09-5.91-5.16-11.83-10.33-17.75-15.5-2.39-2.08-5.66-4.93-6.55-8.72-.82-3.46.45-7.05,1.47-9.94l11.02-31.4c.35-1,.9-2.17,2.04-2.35.21-.04.4.11.43.31.03.2-.11.4-.31.43-.75.12-1.17,1.06-1.45,1.86l-11.02,31.4c-.98,2.79-2.21,6.27-1.44,9.52.78,3.29,3.32,5.72,6.31,8.33,5.91,5.17,11.83,10.34,17.75,15.5.16.14.17.37.04.53-.07.08-.18.13-.28.13Z"
  />
  <path
    d="m147.06,170.1s-.04,0-.06,0c-.09-.01-.27-.06-.39-.28-.06.02-.11.04-.17.07-.25.1-.54.22-.86.18-.48-.05-.91-.4-1.13-.93-.31-.75-.12-1.64.47-2.16.62-.55,1.61-.58,2.23-.07.24.19.43.47.59.84.16.4.32,1,.12,1.6-.13.38-.43.75-.78.75Zm-.99-2.81c-.24,0-.49.08-.67.25-.34.3-.46.87-.27,1.31.09.21.27.45.52.47.15,0,.31-.05.51-.13.2-.08.43-.17.68-.19,0,0,.02,0,.03,0h.01c.1,0,.19.04.26.1.12-.38,0-.79-.11-1.06-.11-.25-.23-.44-.37-.55-.16-.13-.37-.2-.58-.2Zm-14.25,2.61c-.12,0-.25,0-.38-.01-1.67-.09-3.23-.46-4.63-1.1-.14-.07-.38-.19-.49-.45-.16-.42.15-.78.26-.91,1.24-1.42,2.12-3.22,2.46-5.08.04-.2.23-.34.44-.3.2.04.34.23.3.44-.37,1.99-1.31,3.92-2.64,5.44-.08.09-.11.14-.12.17.02-.02.08.01.1.02,1.29.59,2.8.95,4.35,1.03,1.15.06,1.95-.17,2.36-.69.26-.33.36-.81.46-1.27l.16-.77c.04-.2.24-.33.44-.29.2.04.33.24.29.44l-.15.73c-.12.56-.25,1.15-.61,1.62-.52.66-1.39.99-2.61.99Zm18.49-14.62c-.13,0-.26-.07-.33-.19-.1-.18-.04-.41.14-.51.22-.12.36-.4.35-.7,0-.37-.2-.71-.36-.92-.23-.31-.5-.5-.76-.48-.21.01-.44.18-.57.42-.12.22-.19.51-.21.91,0,.04,0,.07-.02.1.07.13.05.3-.05.42-.14.16-.38.17-.53.03-1.34-1.19-2.73-2.43-4.43-2.93-.29-.09-.59-.16-.9-.22-.67-.15-1.36-.3-1.97-.68-.47-.3-.85-.7-1.21-1.08-.2-.22-.41-.44-.63-.63-.86-.76-1.96-1.16-3.12-1.57-.95-.34-1.93-.69-2.79-1.26-.21-.14-.41-.29-.62-.45-.64-.48-1.24-.93-1.92-.93-.21,0-.38-.17-.38-.38s.17-.38.38-.38c.11,0,.22,0,.33.02,0-.11.01-.22.01-.33-.1-.53-.29-1.37-.48-2.24-.42.17-.87.16-1.28.15l-2.11-.04c-.21,0-.37-.17-.37-.38,0-.21.17-.37.38-.37h0l2.11.04c.38,0,.73.02,1.02-.11.36-.16.65-.53.8-1.01.14-.48.14-.99.14-1.53,0-.21.17-.38.38-.38s.38.17.38.38c0,.57,0,1.16-.18,1.74-.12.41-.33.76-.58,1.03.36.83.55,1.73.55,2.63.07.35.09.55.08.67.43.21.81.5,1.2.79.19.15.39.29.59.42.78.52,1.72.85,2.62,1.18,1.18.42,2.4.86,3.37,1.71.24.21.46.45.68.68.34.37.67.71,1.06.96.5.31,1.1.45,1.73.59.32.07.64.14.95.24,1.6.47,2.94,1.53,4.13,2.57.04-.24.12-.5.25-.75.26-.47.72-.78,1.19-.8.51-.04,1.02.26,1.4.78.32.44.5.91.51,1.35.01.57-.27,1.11-.73,1.37-.06.03-.12.05-.19.05Zm-7.48-51.28s-.01,0-.02,0c-1.05-.06-2.07-.59-2.73-1.44-.12-.16-.1-.39.06-.52.85-.71,1.62-1.48,2.3-2.31.13-.16.37-.18.53-.05.16.13.18.37.05.53-.63.77-1.34,1.49-2.11,2.16.51.51,1.23.84,1.94.88.21.01.37.19.35.39-.01.2-.18.35-.37.35Z"
  />
  <path
    d="m151.63,153.76c-.16,0-.31-.1-.36-.26-4.83-14.83-8.92-30.06-12.15-45.26-.21-1.02-.38-2.19.26-3.07.38-.53.98-.81,1.5-1.06l.11-.05c2.54-1.2,4.86-2.8,6.9-4.77.15-.14.39-.14.53,0,.14.15.14.39,0,.53-2.1,2.03-4.49,3.68-7.1,4.91l-.11.05c-.48.23-.94.45-1.21.82-.46.64-.32,1.57-.14,2.47,3.22,15.17,7.3,30.37,12.12,45.18.06.2-.04.41-.24.47-.04.01-.08.02-.12.02Zm-34.7-13.17c-.13,0-.25-.07-.32-.18-.11-.18-.05-.41.13-.51,3.36-2.01,7.54-2.41,11.2-1.05.27.1.75.29.93.76.07.19-.02.41-.22.48-.19.07-.41-.02-.48-.22-.05-.14-.27-.24-.49-.32-3.39-1.25-7.44-.87-10.56.99-.06.04-.13.05-.19.05Zm13.41-1.54s-.09,0-.14-.03c-.82-.32-1.47-.89-2.11-1.44-.48-.42-.93-.81-1.44-1.1-.21-.12-.51-.24-.69-.15-.17.09-.39.04-.49-.12-.11-.16-.07-.38.08-.5l1.82-1.43c.16-.13.4-.1.53.06.13.16.1.4-.06.53l-1.06.83c.08.04.16.08.25.12.58.33,1.08.76,1.57,1.19.61.53,1.19,1.03,1.89,1.31.19.08.29.29.21.49-.06.15-.2.24-.35.24Z"
  />
  <path
    d="m128.95,158.77c-.17,0-.33-.12-.37-.3-.04-.2.09-.4.29-.45,2.99-.63,5.93-1.61,8.73-2.89.18-.09.41,0,.5.18.09.19,0,.41-.18.5-2.85,1.31-5.84,2.3-8.89,2.95-.03,0-.05,0-.08,0Zm-7.2-9.99c-.11,0-.22-.05-.29-.14-.13-.16-.1-.4.06-.53,1.44-1.14,2.92-2.31,4.72-2.83.63-.18,1.29-.28,1.92-.37.2-.03.42.11.45.32.03.21-.09.39-.3.42-.65.09-1.28.18-1.86.35-1.66.47-3.08,1.6-4.46,2.69-.07.05-.15.08-.23.08Zm-4.46-3.35s-.02,0-.03,0l-.38-.04c-.14-.01-.26-.1-.32-.22-.06-.13-.04-.27.05-.38,1.46-1.86,3.06-3.76,4.75-5.65.14-.16.38-.17.53-.03.15.14.17.38.03.53-1.54,1.72-3.01,3.46-4.37,5.16.07.08.11.18.1.29-.02.2-.18.34-.37.34Zm3.03-.54c-.17,0-.32-.11-.36-.28-.05-.2.07-.41.27-.46.34-.09.65-.33.97-.59l3.42-2.74c.16-.13.4-.11.53.06.13.16.1.4-.06.53l-3.41,2.74c-.36.29-.76.6-1.25.73-.03,0-.06.01-.1.01Zm64.47-2.83c-.21,0-.38-.17-.38-.37,0-3.18-.38-6.41-.74-9.53-.31-2.66-.62-5.41-.72-8.13-.13-4.01.22-7.94.54-10.92.38-3.54.95-7.58,2.86-10.98-4.42-1.25-8.97-2.07-13.54-2.42l-.33-.03c-1.03-.08-2.09-.16-3.1-.49-1.79-.6-3.31-1.98-4.07-3.7-.08-.19,0-.41.19-.49.19-.09.41,0,.49.19.68,1.53,2.03,2.76,3.62,3.29.92.3,1.94.38,2.92.46l.33.03c4.78.37,9.54,1.24,14.15,2.58.11.03.2.12.25.22.04.11.03.23-.03.33-2.02,3.36-2.61,7.49-3,11.1-.32,2.96-.67,6.86-.54,10.82.09,2.7.41,5.43.71,8.07.36,3.14.74,6.39.74,9.61,0,.21-.17.38-.37.38h0Zm-55.94-16.37c-.12,0-.24-.06-.31-.16-.84-1.21-1.86-2.28-3.05-3.18-.17-.12-.2-.36-.07-.53.12-.17.36-.2.53-.07,1.25.95,2.33,2.07,3.21,3.35.12.17.08.4-.09.52-.06.04-.14.07-.21.07Zm2.21-5.25c-.17,0-.32-.11-.36-.28-.52-2.09-2.09-3.81-3.47-5.32-.14-.15-.13-.39.02-.53.15-.14.39-.13.53.02,1.44,1.58,3.07,3.37,3.64,5.64.05.2-.07.4-.27.46-.03,0-.06.01-.09.01Z"
  />
  <path
    d="m167.33,152.07c-.19,0-.32-.08-.4-.16-.13-.14-.17-.33-.1-.51.07-.19.25-.32.43-.33.11,0,.24.05.32.14.95-.46,1.74-1.09,2.57-1.76.68-.55,1.39-1.13,2.17-1.58,1.09-.63,2.29-1.02,3.46-1.39,1.35-.43,2.63-.84,3.74-1.6.35-.24.68-.51,1.01-.79.69-.57,1.4-1.16,2.29-1.46.22-.08.46-.14.7-.2.54-.14,1.05-.26,1.35-.62.42-.5.34-1.28.22-2.04l-1.87-11.63c-.02-.14.03-.27.14-.36,2.58-1.98,5.29-3.29,7.92-4.55.19-.09.41-.01.5.17.09.19.01.41-.17.5-2.53,1.22-5.14,2.47-7.61,4.33l1.83,11.41c.03.18.06.37.08.55,1.67-1.47,3.8-2.41,6.01-2.66.12-.02.24.03.32.12.06.07.1.16.1.25.06.03.16.06.29.06l3.08.04c.21,0,.37.17.37.38,0,.21-.17.37-.38.37h0l-3.07-.04c-.29,0-.68-.09-.89-.35-.01-.01-.02-.03-.03-.04-2.07.3-4.03,1.25-5.56,2.68-.06.06-.14.09-.22.1-.04.37-.14.72-.36,1.03l.6.25c2.12.89,4.23,1.79,6.36,2.69.19.08.28.3.2.49-.08.19-.3.28-.49.2-2.12-.9-4.24-1.79-6.36-2.69l-.91-.39c-.38.23-.82.34-1.25.45-.22.05-.44.11-.64.18-.76.26-1.39.78-2.06,1.33-.35.29-.7.57-1.07.83,0,0,0,0,0,0,.02.06.02.13,0,.2-.23.91-.18,1.5.16,1.76.1.07.24.13.38.19.1.04.2.08.29.13.51.24.88.65,1.24,1.04.21.24.42.46.65.64.43.33.95.54,1.51.75.65.25,1.32.51,1.87,1.01.15.14.16.38.02.53-.14.15-.38.16-.53.02-.44-.4-1.02-.63-1.63-.86-.58-.23-1.19-.46-1.7-.87-.28-.22-.51-.48-.73-.72-.32-.35-.63-.69-1.01-.87-.08-.04-.17-.08-.25-.11-.17-.07-.37-.15-.54-.28-.69-.52-.66-1.45-.55-2.07-.99.52-2.06.86-3.1,1.19-1.13.36-2.29.73-3.31,1.32-.73.42-1.42.98-2.08,1.51-.9.73-1.83,1.48-2.92,1.96-.15.06-.27.08-.37.08Z"
  />
  <path
    d="m185.97,138.45c-.12,0-.25-.06-.32-.17-.11-.17-.06-.41.12-.52,3.3-2.08,6.9-3.56,10.7-4.38l.31-.07c1.39-.3,2.82-.61,3.7-1.6.14-.16.37-.17.53-.03s.17.37.03.53c-1.04,1.18-2.67,1.53-4.11,1.84l-.31.07c-3.71.81-7.23,2.25-10.46,4.29-.06.04-.13.06-.2.06Z"
  />
  <path
    d="m176.03,167.61c-.11,0-.23-.05-.3-.15-.12-.17-.09-.4.08-.52,5.94-4.39,11.88-8.76,17.83-13.14,1.34-.98,2.86-2.09,4-3.48.57-.69,1.06-1.47,1.54-2.23.71-1.12,1.44-2.29,2.45-3.21l.25-.22c.33-.3.65-.58.81-.93.14-.33.14-.72.14-1.13-.04-2.75-.36-4.92-1.02-6.82-.37-1.05-.86-2.07-1.33-3.06l-.22-.47c-2.46-5.13-4.51-10.51-6.08-15.99-.13-.49-.26-.92-.49-1.31-.11-.18-.24-.35-.37-.53-.08-.1-.15-.2-.22-.3-.79-1.11-1.23-2.4-1.65-3.66l-.09-.28c-.98-2.88-2.21-5.79-4.6-7.6-.17-.12-.2-.36-.07-.53.13-.17.36-.2.53-.07,2.55,1.94,3.89,5.11,4.86,7.96l.09.28c.41,1.2.83,2.44,1.55,3.46.07.09.14.19.21.28.15.19.29.39.42.6.27.47.42.97.56,1.49,1.57,5.44,3.6,10.78,6.04,15.87l.22.46c.48,1.01.99,2.04,1.37,3.14.69,1.98,1.03,4.22,1.06,7.06,0,.45,0,.96-.2,1.43-.22.51-.62.86-1,1.2l-.24.21c-.94.86-1.61,1.92-2.32,3.06-.49.78-1,1.58-1.6,2.31-1.2,1.46-2.76,2.6-4.13,3.61-5.94,4.38-11.88,8.75-17.83,13.14-.07.05-.14.07-.22.07Z"
  />
  <path
    d="m165.62,152.59s-.09,0-.14-.03c-.19-.08-.29-.3-.21-.49,5.5-13.58,8.76-27.87,9.67-42.46.05-.72.09-1.44.35-2.12-3.2-1.86-6.21-4.09-8.93-6.62-.15-.14-.16-.38-.02-.53.14-.15.38-.16.53-.02,2.76,2.57,5.82,4.81,9.09,6.68.17.1.24.32.15.49-.31.63-.36,1.39-.41,2.13-.92,14.69-4.19,29.06-9.72,42.72-.06.15-.2.23-.35.23Zm28.73-.08c-.15,0-.3-.09-.35-.25,0,0,0-.01,0-.02-.9-.01-1.92-.15-2.77-.75-.76-.53-1.22-1.33-1.62-2.1-.55-1.07-1.04-2.13-1.45-3.18-.08-.19.02-.41.21-.49.19-.08.41.02.49.21.4,1.02.88,2.07,1.42,3.11.36.69.77,1.4,1.39,1.83.83.58,1.96.63,2.84.6.17,0,.35.12.38.31.05.29-.12.59-.4.69-.04.02-.08.02-.13.02Zm2.26-8.65c-.18,0-.37-.02-.55-.08-.34-.11-.6-.32-.83-.53l-2.99-2.54c-.16-.13-.18-.37-.04-.53.13-.16.37-.18.53-.04l2.99,2.54c.19.16.38.31.58.38.19.06.43.04.67.02l2.04-.16c.09,0,.19-.01.23-.04.05-.03.09-.13.08-.23-.02-.15-.12-.31-.21-.43-.28-.37-.6-.67-.95-.88-.18-.11-.23-.34-.12-.52.11-.18.34-.23.52-.12.43.26.82.63,1.16,1.08.14.2.31.46.35.78.05.38-.11.77-.41.96-.2.13-.42.15-.59.16l-2.04.16c-.13,0-.26.02-.4.02Zm-7.93-8.31c-.05,0-.11-.01-.16-.04-.12-.06-.2-.17-.22-.31-.09-1.07.2-2.16.78-3.06l-1.85.25c-.21.04-.39-.12-.42-.32s.12-.39.32-.42l2.79-.38c.16-.03.31.06.39.2.07.14.04.32-.07.43-.68.68-1.1,1.59-1.18,2.54,1.72-1.19,3.49-2.32,5.28-3.37.73-.43,1.4-.8,2.16-.98.92-.23,1.82-.1,2.49.34.17.11.22.35.1.52-.12.17-.35.22-.52.1-.49-.33-1.18-.41-1.89-.24-.66.16-1.28.51-1.96.9-1.98,1.16-3.93,2.42-5.82,3.75-.06.04-.14.07-.22.07Zm-16.21-31.03c-.16,0-.31-.1-.36-.26-.06-.2.05-.41.24-.47.45-.14.86-.35,1.22-.61l.18-.13c.24-.18.49-.37.77-.5l-2.23-2.52c-.14-.16-.12-.39.03-.53.16-.14.39-.12.53.03l2.65,2.99c.1.11.12.27.06.41s-.21.22-.35.21c-.33-.04-.66.24-1.01.5l-.19.14c-.43.31-.91.55-1.43.72-.04.01-.08.02-.11.02Z"
  />
  <path
    d="m182.86,172.14c-.21,0-.47,0-.69-.19-.18-.16-.24-.35-.28-.49-.63-2.53-1.13-4.99-1.54-7.07-.02-.11,0-.22.08-.31.06-.08.15-.12.25-.13.81-.22,1.64-.28,2.45-.34.33-.02.65-.05.98-.08,1.52-.17,3.01-.58,4.42-1.23.18-.08.4-.01.49.17.09.18.03.4-.15.5-.11.06-.1.35.02.71.56,1.73.95,3.51,1.15,5.29.02.19.03.38-.05.57-.14.39-.52.53-.81.63l-.12.04c-.31.13-.6.35-.9.58-.27.22-.56.44-.89.61-.43.22-.89.32-1.37.41-1,.18-2.02.3-3.04.34h-.03Zm-1.7-7.54c.39,1.99.87,4.3,1.44,6.62.02.07.04.15.06.16.02,0,.14,0,.21,0,.97-.04,1.95-.15,2.91-.33.42-.08.82-.16,1.16-.34.27-.13.51-.33.76-.53.33-.26.67-.53,1.08-.69l.14-.05c.16-.06.34-.12.36-.2.02-.04,0-.13,0-.18-.2-1.77-.58-3.5-1.12-5.18-.07-.23-.11-.42-.13-.59-1.25.49-2.54.81-3.86.96-.33.04-.67.06-1,.08-.7.05-1.38.1-2.03.25Zm-7.67-36.59c-.12,0-.24-.06-.31-.17-.11-.17-.07-.41.11-.52,1.58-1.05,3.48-1.53,5.15-1.95.76-.2,1.52-.39,2.28-.58.76-.19,1.52-.39,2.28-.58.2-.05.4.07.46.27.05.2-.07.41-.27.46-.76.2-1.52.39-2.28.58-.76.19-1.52.39-2.28.58-1.62.41-3.45.87-4.93,1.85-.06.04-.14.06-.21.06Zm.22-3.91c-.15,0-.3-.09-.35-.25-.07-.19.03-.41.22-.48,2.66-.99,5.45-1.88,8.29-2.67.24-.07.91-.27,1.37.14.16.14.17.37.03.53-.14.15-.38.17-.53.03-.15-.13-.54-.02-.67.02-2.83.78-5.59,1.67-8.24,2.65-.04.02-.09.02-.13.02Zm-.61-15.14s-.04,0-.06,0c-.69-.12-1.34-.37-1.94-.76-.17-.11-.22-.34-.11-.52.11-.17.34-.22.52-.11.5.32,1.07.55,1.66.65.2.03.34.23.31.43-.03.18-.19.31-.37.31Z"
  />
  <path
    d="m168.83,297.53c-.21,0-.38-.17-.38-.38s.17-.38.38-.38c.63,0,1.23,0,1.79-.19.62-.21,1.15-.64,1.71-1.1s1.13-.93,1.84-1.2c.2-.07.41.03.48.22.07.19-.03.41-.22.48-.59.22-1.09.63-1.62,1.07-.58.48-1.19.98-1.94,1.23-.67.23-1.36.23-2.03.23Zm-11.3-.8h-.02c-.21-.01-.37-.19-.36-.39l.1-2.04c.01-.21.18-.35.39-.36.21.01.37.19.36.39l-.1,2.04c0,.2-.18.36-.37.36Zm5.19-2.69c-.15,0-.3-.04-.43-.12-.21-.13-.34-.31-.46-.47l-.07-.1c-.1-.13-.18-.2-.21-.17-.04,0-.15.13-.21.2l-.57-.49c.15-.18.36-.42.7-.45.32-.02.63.13.88.46l.08.11c.08.12.17.23.25.28.08-.19.3-.26.49-.19s.3.32.22.51c-.07.19-.22.33-.42.39-.08.03-.17.04-.26.04Zm-1.68-.89h0,0Zm-4.08-63.41s-.03,0-.05,0c-.21-.03-.35-.22-.32-.42l.34-2.5c.03-.21.22-.35.42-.32.21.03.35.22.32.42l-.34,2.5c-.03.19-.19.32-.37.32Zm-21.41-61.18c-.22,0-.42-.11-.61-.31-.32-.31-.68-.72-.76-1.25,0-.04,0-.09,0-.14-.01,0-.02,0-.03,0h0s-.1,0-.15,0c-.13,0-.28.02-.44-.01-.26-.07-.49-.21-.7-.46-.2-.23-.35-.48-.45-.74-.02-.06-.04-.12-.05-.18-.18.02-.38.01-.58-.07-.25-.1-.47-.32-.63-.65-.09.04-.19.05-.28.02-.04-.01-.09-.02-.15-.02-.13-.01-.31-.03-.48-.14-.22-.13-.33-.34-.41-.51-.04-.07-.08-.17-.13-.26-.04-.08-.08-.17-.12-.25-.23-.46-.11-.73.02-.88.22-.22.55-.24.89-.07.37.2.66.47.82.78.02.03.03.06.04.09.16-.08.34-.12.53-.08.23.04.45.17.63.37.16.16.36.44.47.73.09,0,.19,0,.28.02.37.1.59.36.77.58.26.32.5.67.57,1.09.15-.05.32-.06.48,0,.19.06.35.2.47.32.37.34.73.74.88,1.27.08.35-.07.49-.21.55-.08.03-.15.04-.21.02-.08.07-.18.14-.31.17-.05,0-.09.01-.14.01Zm-.6-1.56c.09.28.31.51.53.73.06.06.09.08.1.08,0-.02.01-.04.02-.06-.14-.26-.35-.48-.58-.69-.03-.03-.05-.05-.07-.07Zm-1.87-1.74s0,.05.02.12c.07.17.17.35.31.52.11.12.2.2.3.22.02,0,.05,0,.08,0-.07-.17-.19-.34-.34-.53-.11-.14-.25-.29-.37-.33,0,0,0,0,0,0Zm-1.35-1.11s0,.06.06.19c.06.14.15.3.28.35.05.02.11.02.18.02-.05-.12-.15-.28-.28-.41-.08-.08-.16-.13-.23-.15,0,0,0,0,0,0Zm.75.52h0,0Zm-2.15-1.25s.03.06.04.08c.04.09.08.17.13.25.06.12.1.19.14.21.01,0,.04.01.07.02,0-.07-.03-.14-.07-.22-.06-.12-.17-.24-.31-.34Zm49.25,1.57s-.1,0-.14-.03c-.5-.21-.82-.77-.76-1.34.05-.49.37-.95.83-1.21.25-.14.5-.2.73-.15.06.01.12.03.18.05.08-.25.23-.49.45-.71.21-.21.43-.34.67-.39.18-.04.37-.03.54.03.09-.25.21-.48.36-.69.21-.3.45-.49.73-.57.22-.06.46-.03.67.06.18-.51.62-.92,1.15-1.05.31-.07.59-.04.8.08.28.17.49.53.36.9-.07.2-.29.3-.48.23-.2-.07-.3-.28-.23-.48-.06-.02-.14-.03-.28,0-.34.08-.62.41-.66.75,0,.06,0,.09,0,.1,0,0,.06.02.11.04l-.14.37c0,.2-.03.41-.13.61-.09.19-.31.27-.5.18-.19-.09-.27-.31-.18-.5.07-.15.07-.32,0-.42-.08-.11-.21-.17-.32-.14-.1.03-.2.12-.31.27-.16.23-.28.48-.34.75.02,0,.04.02.06.03.19.08.28.3.2.49-.05.13-.17.22-.31.23-.05.24-.18.43-.37.56-.18.11-.41.06-.52-.12-.11-.18-.06-.41.12-.52.03-.02.06-.11.05-.23-.02-.12-.04-.17-.07-.2-.02-.02-.1-.04-.17-.03-.09.02-.19.08-.3.19-.15.15-.25.31-.28.46-.03.16,0,.32.08.42.13.16.1.4-.06.53-.02.02-.04.03-.06.04-.02.35-.17.62-.43.73-.19.08-.41,0-.49-.19-.08-.19,0-.41.19-.49-.02,0,0-.04,0-.12,0-.17-.02-.28-.06-.36-.05-.09-.12-.14-.16-.15-.07-.01-.14.01-.24.07-.25.14-.43.39-.45.64-.03.23.11.49.3.57.19.08.28.3.2.49-.06.14-.2.23-.35.23Zm4.9-4.01h0s0-.01,0-.01h0Zm3.82,2.14c-.18,0-.34-.13-.37-.31-.2-1.18-.45-2.36-.75-3.51-.05-.2.07-.4.27-.46.2-.05.41.07.46.27.3,1.17.56,2.37.76,3.57.03.2-.1.4-.31.43-.02,0-.04,0-.06,0Zm-39.12-66.19h0c-.21,0-.37-.18-.37-.38.07-2.9-.23-5.79-.89-8.59-.02-.09,0-.18.03-.25-.24-.32-.47-.66-.69-1.02-.43-.72-.8-1.47-1.11-2.23-.02.06-.05.12-.07.18-.17.42-.38.94-.97,1.03-.29.05-.6-.04-.95-.29-.54-.38-.95-.93-1.15-1.55-.11-.31-.16-.63-.21-.94-.04-.23-.07-.46-.14-.68-.1-.33-.25-.65-.41-.99-.15-.31-.3-.63-.41-.98-.43-1.33-.13-2.87.76-3.94.1-.12.26-.17.41-.11l1.21.42s0-.09,0-.14c-.04-1.33.21-2.64.45-3.91.26-1.37.5-2.67.42-3.99-.01-.21.15-.38.35-.4.21-.04.38.15.4.35.08,1.41-.18,2.81-.44,4.17-.23,1.23-.47,2.5-.44,3.75.03,1.09.27,2.17.55,3.37.5,2.06,1.14,4.43,2.38,6.48,1.31,2.17,3.11,3.66,5.07,4.21,1.25.35,2.6.34,3.91.33.34,0,.65,0,.92-.1.22-.07.42-.19.64-.32l1.06-.66c.51-.32,1.02-.64,1.53-.96,1.14-.71,2.06-1.34,2.61-2.28.3-.51.47-1.09.64-1.74.46-1.65.92-3.3,1.4-4.94.06-.2.26-.31.46-.26.2.06.31.26.26.46-.47,1.64-.93,3.29-1.39,4.94-.19.7-.38,1.33-.72,1.92-.69,1.18-1.9,1.93-2.87,2.54-.51.32-1.02.64-1.52.96l-1.07.67c-.24.15-.49.3-.78.39-.38.14-.79.14-1.16.14-1.36.01-2.77.02-4.12-.36-1.42-.4-2.75-1.23-3.9-2.43.52,2.54.75,5.15.69,7.77,0,.2-.17.37-.38.37Zm-6.16-19.95c-.61.86-.79,2.02-.47,3.03.1.3.23.58.38.89.17.35.34.71.45,1.1.07.26.11.51.16.77.05.29.09.56.18.81.16.47.48.9.88,1.18.23.16.34.17.39.16.16-.03.25-.21.4-.58.1-.24.21-.51.39-.73.01-.02.03-.03.04-.05-.43-1.22-.75-2.45-1.02-3.58-.22-.91-.41-1.76-.51-2.6-.05,0-.1,0-.16-.02l-1.11-.38Zm22.51,19.42c-.17,0-.33-.12-.37-.3-.94-4.58-.67-9.35.78-13.8.06-.2.28-.31.47-.24.2.06.3.28.24.47-1.41,4.33-1.68,8.97-.76,13.42.04.2-.09.4-.29.44-.03,0-.05,0-.08,0Zm2.02-12.44c-.18,0-.37-.01-.55-.04-.2-.03-.34-.23-.31-.43s.22-.34.43-.31c.97.15,2.02-.25,2.63-1.01.43-.54.69-1.29.75-2.17.05-.78-.05-1.58-.15-2.36l-.02-.11c-.05-.37-.1-.72-.24-1.03-.13-.28-.35-.48-.58-.53-.37-.07-.78.18-1.3.81-.13.16-.37.18-.53.04-.16-.13-.18-.37-.04-.53.45-.54,1.15-1.23,2.03-1.06.47.1.88.46,1.11.96.18.4.25.83.3,1.24v.11c.12.82.23,1.66.17,2.51-.07,1.04-.38,1.91-.91,2.58-.66.84-1.71,1.33-2.78,1.33Zm-25.6-16.1c-.16,0-.31-.1-.36-.26-.21-.66-.06-1.35.1-1.88.63-2.19,1.93-4.23,3.64-5.76.15-.14.39-.12.53.03.14.16.12.39-.03.53-1.61,1.44-2.83,3.36-3.42,5.42-.13.43-.25.97-.1,1.44.06.2-.05.41-.24.47-.04.01-.08.02-.11.02Z"
  />
  <path
    d="m143.49,77.55c-.13,0-.25-.06-.32-.18-.22-.35-.29-.74-.37-1.11-.06-.3-.12-.58-.24-.82-.05-.1-.11-.19-.18-.28-.09-.13-.18-.26-.24-.4-.13-.27-.17-.55-.21-.82-.17-1.31-.34-2.59-.27-3.88.08-1.47.51-2.76,1.24-3.72.12-.17.36-.2.53-.07.17.12.2.36.07.53-.64.84-1.01,1.99-1.09,3.31-.07,1.23.09,2.47.25,3.67.04.29.07.5.15.67.05.11.12.21.19.3.08.11.16.23.22.35.18.33.25.68.32,1.02.06.32.12.62.27.86.11.18.05.41-.12.52-.06.04-.13.06-.2.06Zm2.66-12.82c-.1,0-.2-.04-.28-.12-.73-.82-1.05-2.04-.87-3.35.16-1.14.65-2.22,1.07-3.17.08-.19.3-.27.49-.19.75-.67,1.8-1.19,3.56-1.77.2-.46.44-.89.71-1.29.06-.08.14-.14.24-.16l.32-.06c.61-.12,1.21-.24,1.82-.35.2-.04.4.1.44.3.04.2-.1.4-.3.44-.61.11-1.2.23-1.81.35l-.16.03c-.24.37-.45.77-.62,1.19-.04.1-.13.18-.23.21-2.09.68-3.12,1.23-3.83,2.05-.05.06-.11.1-.18.12-.34.78-.65,1.58-.77,2.41-.15,1.1.09,2.1.68,2.75.14.15.13.39-.03.53-.07.06-.16.1-.25.1Zm20.67-.32s-.09,0-.14-.03c-.19-.08-.29-.29-.21-.49.55-1.42.27-3.16-.7-4.32-.13-.16-.11-.4.05-.53.16-.13.39-.11.53.05,1.14,1.37,1.47,3.41.82,5.07-.06.15-.2.24-.35.24Zm-3.94-.5c-.13,0-.26-.07-.33-.19-.65-1.14-.96-2.44-.88-3.76.01-.21.03-.42.06-.63.05-.46.09-.89.04-1.31-.1-.7-.51-1.39-1.15-1.96-.47-.41-1.02-.73-1.53-.98.09.7.25,1.47.42,2.26.15.67.37,1.38.9,1.58.19.07.29.29.22.48-.07.19-.29.29-.48.22-.87-.33-1.18-1.26-1.37-2.13-.22-1.01-.42-2-.48-2.86-.37.34-.67.68-.78,1.09-.08.33-.03.72.03,1.09l.62,4.01c.03.21-.11.4-.31.43-.2.04-.4-.11-.43-.31l-.62-4.01c-.06-.43-.13-.92-.01-1.39.12-.43.36-.79.65-1.11-.74-.08-1.49-.1-2.22-.07-.6.3-1.04.81-1.24,1.43-.2.61-.15,1.27.14,1.81.1.18.03.41-.15.51-.18.1-.41.03-.51-.15-.38-.72-.45-1.59-.19-2.39.28-.84.88-1.52,1.69-1.91.04-.02.09-.03.14-.04,1.06-.06,2.14,0,3.21.17.14.02.26.13.3.27,0,.01,0,.02,0,.03.06,0,.12,0,.18.03.64.28,1.44.66,2.14,1.22.02-.06.05-.13.1-.18.15-.15.39-.14.53,0,.41.42.89.76,1.39,1.12.35.25.7.5,1.02.77.61.52,1.63,1.58,1.59,2.93,0,.21-.18.36-.39.36-.21,0-.37-.18-.36-.39.03-1.03-.82-1.9-1.32-2.33-.31-.26-.64-.5-.97-.73-.18-.13-.36-.26-.54-.39.27.44.45.91.52,1.39.07.51.02,1.01-.03,1.49-.02.2-.04.39-.05.59-.07,1.17.21,2.33.79,3.34.1.18.04.41-.14.51-.06.03-.12.05-.19.05Z"
  />
  <path
    d="m166.66,76.59c-.06,0-.12-.01-.18-.05-.18-.1-.25-.33-.15-.51.14-.26.27-.52.39-.79-.01,0-.02,0-.04,0-.21,0-.37-.18-.36-.39.02-.61.02-1.22,0-1.83-.02,0-.05,0-.07,0-.2,0-.37-.16-.38-.36-.04-.81-.63-1.51-1.21-2.19l-.24-.29c-.57-.68-1.08-1.42-1.52-2.2-.12.13-.31.17-.47.08-.4-.23-.88-.31-1.39-.39-.5-.08-.94-.14-1.36-.11-.18,0-.35.04-.52.07-.67.12-1.34.29-2.05.49-.2.06-.41-.05-.47-.25-.06-.2.06-.41.25-.46.74-.22,1.43-.38,2.11-.51.2-.04.41-.07.62-.08.49-.04.98.03,1.43.1.53.08,1.01.16,1.46.35-.03-.07-.06-.13-.1-.2l-.95-.23c-.37-.09-.73-.18-1.1-.27-.62-.15-1.22-.31-1.79-.59-.37-.19-.71-.41-1.01-.63l-2.17-1.51c-.17-.12-.21-.35-.09-.52.12-.17.35-.21.52-.09l2.18,1.52c.29.2.59.41.92.58.5.25,1.05.39,1.63.53.37.09.74.18,1.11.27l.4.1c-.17-.43-.32-.87-.45-1.32-.06-.2.06-.41.26-.46.2-.06.41.06.46.26.53,1.84,1.45,3.57,2.67,5.02l.24.28c.35.41.72.85.99,1.34-.1-1.19-.27-2.37-.51-3.54-.04-.2.09-.4.29-.44.21-.05.4.09.44.29.45,2.18.66,4.42.62,6.65.4-1.18.61-2.43.61-3.7,0-.21.17-.38.38-.38s.38.17.38.38c0,2.04-.5,4.03-1.46,5.78-.07.12-.2.2-.33.2Zm3.54-.11s-.09,0-.14-.03c-.19-.08-.29-.3-.21-.49.87-2.14,1.2-4.52.95-6.81l-.02.04c-.04.07-.09.14-.12.22-.06.16-.05.36-.04.58v.12c.03,1.01-.3,2.01-.92,2.81-.13.16-.36.19-.53.07-.16-.13-.2-.36-.07-.53.51-.67.78-1.5.77-2.33v-.1c-.02-.27-.03-.58.09-.88.05-.12.11-.24.19-.35.03-.05.06-.09.08-.14.22-.44.07-1.04-.11-1.61l-.66-2.15c-.2-.65-.39-1.24-.66-1.79-.49-.99-1.29-1.83-2.07-2.64l.54-.53-.27.26.28-.25c.81.85,1.65,1.73,2.19,2.82.3.61.5,1.25.71,1.91l.66,2.15c.1.31.18.63.23.95.17,0,.32.13.35.31.48,2.71.17,5.61-.86,8.17-.06.15-.2.23-.35.23Zm-22.9-4.25c-.08,0-.16-.03-.23-.08-.16-.13-.19-.36-.06-.53.3-.38.7-.71,1.22-1.02.38-.22.95-.5,1.56-.4.34.06.63.21.92.37l1.12.63c.18.1.24.33.14.51-.1.18-.33.25-.51.14l-1.11-.63c-.24-.13-.46-.25-.67-.29-.27-.04-.63.06-1.06.31-.43.26-.76.53-1.01.84-.07.09-.18.14-.29.14Zm-.79-2.8c-.14,0-.27-.08-.34-.21-.09-.19-.02-.41.17-.5l1.94-.96c.26-.13.52-.26.8-.33.48-.11.97-.07,1.43-.02l1.66.18c.21.02.35.21.33.41-.02.21-.22.34-.41.33l-1.67-.18c-.41-.05-.81-.08-1.17,0-.2.05-.41.15-.64.27l-1.94.97c-.05.03-.11.04-.17.04Zm-.56-.99c-.18,0-.34-.13-.37-.32l-.32-2.1c-.03-.2.11-.4.31-.43.2-.02.4.11.43.31l.32,2.1c.03.2-.11.4-.31.43-.02,0-.04,0-.06,0Zm.77-.94c-.16,0-.31-.1-.36-.27-.05-.16.02-.33.16-.42.13-.61.21-1.1.25-1.57.02-.21.21-.35.41-.34.21.02.36.2.34.41-.05.5-.13,1.03-.26,1.63-.05.27-.21.48-.43.54-.04.01-.07.02-.11.02Zm2.65-.76c-.08,0-.17-.03-.23-.08-.71-.57-1.32-1.22-1.81-1.94-1.47-1.47-.8-3.51-.27-5.15.06-.2.28-.3.47-.24.2.06.3.28.24.47-.6,1.83-.97,3.33.13,4.44.49.71,1.05,1.3,1.71,1.83.16.13.19.37.06.53-.07.09-.18.14-.29.14Zm7.64-.67s-.1,0-.15-.03c-.46-.2-.91-.45-1.33-.75-1.23-.89-1.99-2.04-2.14-3.26-.03-.21.12-.39.33-.42.21-.02.39.12.42.33.12.99.79,1.99,1.83,2.74.38.27.77.5,1.18.67.19.08.28.3.2.49-.06.14-.2.23-.34.23Zm-2.92-.59s-.03,0-.05,0c-2.23-.29-4.32-1.33-5.9-2.93-.15-.15-.14-.38,0-.53.15-.15.38-.14.53,0,1.46,1.48,3.4,2.44,5.46,2.71.21.03.35.22.32.42-.02.19-.19.33-.37.33Zm-2.04-3.43c-.07,0-.14-.02-.2-.06-.95-.6-1.63-1.67-1.86-2.92-.18-.98-.12-2.08.18-3.38.05-.2.25-.33.45-.28.2.05.33.25.28.45-.28,1.19-.34,2.19-.18,3.07.2,1.05.75,1.93,1.53,2.42.17.11.23.34.11.52-.07.11-.19.17-.32.17Z"
  />
  <path
    d="m148.99,72.1c-.09,0-.17-.02-.24-.05-.13-.09-.23-.2-.27-.39-.11-.55.27-1.14.82-1.26.55-.12,1.15.24,1.29.77.04.17-.03.34-.18.42,0,.06-.03.12-.07.17-.02.02-.04.04-.06.06-.05.07-.13.11-.23.13-.15.02-.3.04-.45.04l-.44.09c-.06.01-.12.02-.17.02Zm13.56-.36c-.08,0-.16-.02-.22-.07-.47-.35-.94-.7-1.42-1.02-.36-.25-.74-.49-1.1-.46-.17,0-.34.08-.53.16-.65.29-1.05.63-1.22,1.04-.08.19-.3.28-.49.21-.19-.08-.29-.3-.21-.49.24-.59.76-1.07,1.61-1.45.23-.1.49-.21.79-.22.59-.03,1.1.26,1.57.59.49.33.97.69,1.44,1.04.17.12.2.36.08.52-.07.1-.19.15-.3.15Z"
  />
  <path
    d="m158.21,85.38c-.21,0-.38-.17-.38-.38s.17-.39.38-.39.38.15.38.36v.03c0,.21-.17.38-.38.38Zm-6.05-3.06c-.11,0-.22,0-.33-.02-.21-.03-.35-.21-.33-.42.03-.21.21-.35.42-.33.37.04.74-.03,1.14-.1.22-.04.44-.08.66-.11.61-.07,1.21,0,1.79.05l.49.05c.54.04,1.34.07,1.96-.26.18-.1.41-.02.51.16.1.18.03.41-.16.51-.8.42-1.74.39-2.37.34l-.51-.05c-.57-.06-1.1-.11-1.63-.05-.2.02-.4.06-.6.1-.34.06-.68.13-1.04.13Zm1.03-4.41s-.04,0-.06,0c-.6-.09-1.09-.63-1.21-1.32-.09-.56.05-1.09.2-1.6.15-.48.27-.89.25-1.28-.01-.21.14-.38.35-.4.21-.01.38.14.4.35.03.53-.12,1.02-.26,1.49-.15.49-.26.91-.2,1.31.05.31.27.66.58.7.21.03.35.22.32.43-.03.19-.19.32-.37.32Zm3.1-.59c-.05,0-.11-.01-.16-.04l-.7-.33c-.19-.09-.27-.31-.18-.5.09-.19.31-.27.5-.18l.7.33c.19.09.27.31.18.5-.06.14-.2.21-.34.21Zm3.4-5.8c-.06,0-.13-.02-.18-.05-.27-.15-.52-.33-.76-.55-.13-.11-.16-.3-.08-.45v-.02c.08-.14.23-.21.38-.2.24.03.29-.02.39-.12.05-.05.11-.11.2-.17.36-.23.86-.13,1.11.21.09.17.12.29.12.4-.05.27-.18.43-.39.55l-.58.34c-.06.04-.13.05-.19.05Z"
  />
</svg>
