<svg xmlns="http://www.w3.org/2000/svg" viewBox="0 0 320 320" opacity="0.6">
  <path
    d="m-87.05-15.4 24.13-26.59 38.14-39.83L5.98-114.4l31.11-31.57 26.75-27 25.64-24.88c.2-.19.51-.19.71 0 .19.2.19.52-.01.71l-25.64 24.87-26.74 26.99-31.1 31.56-30.75 32.58-38.13 39.83L-100.19.6s-.05.08-.08.11l-54.03 60.03-65.2 85.32c-.1.13-.25.2-.4.2a.496.496 0 0 1-.39-.8l65.22-85.35L-101.05.09l.03-.06s.05-.08.08-.11l13.9-15.31"
  />
  <path
    d="M-106.23-.09c68.17-71.87 150.62-157.17 195.99-199.5.2-.19.52-.18.71.02s.18.52-.02.71C11.6-125.29-179.25 78.07-212.46 115.12c-.1.11-.24.17-.37.17a.46.46 0 0 1-.33-.13.504.504 0 0 1-.04-.71c14.1-15.73 56.65-61.48 106.97-114.54"
  />
  <path
    d="M-89.36-16.87C-24.97-84.88 47.9-160.32 89.76-199.59c.2-.19.52-.18.71.02.19.2.18.52-.02.71-78.42 73.56-265.59 274.02-302.14 314.8-.1.11-.24.17-.37.17a.46.46 0 0 1-.33-.13.504.504 0 0 1-.04-.71c17.04-19.01 66.83-72.74 123.07-132.14M172.51 93.31c-3.25 0-6.45-.84-9.28-2.44-.67-.38-1.42-.86-1.92-1.58-.8-1.16-.79-2.58-.77-3.96v-.4c.02-2.08-.24-4.16-.78-6.17a.38.38 0 0 1 .27-.46c.2-.05.41.07.46.27.55 2.08.82 4.22.8 6.37v.4c-.02 1.26-.04 2.56.63 3.52.41.6 1.08 1.02 1.67 1.36 2.81 1.59 5.99 2.41 9.22 2.34.92-.02 2.1-.11 3-.71.85-.56 1.4-1.53 1.89-2.39.1-.18.33-.25.51-.14.18.1.24.33.14.51-.53.93-1.13 1.98-2.13 2.64-1.07.71-2.38.82-3.41.83h-.33Z"
  />
  <path
    d="M177.89 101.74a.367.367 0 0 1-.32-.56c.4-.66.08-1.55-.22-2.41l-.14-.4c-.72-2.14-.66-4.63.18-7.85.21-.82.46-1.63.7-2.44.49-1.63 1-3.31 1.22-5.01.32-2.43.08-4.95-.14-7.18-.08-.77-.15-1.57-.35-2.34-.2-.8-.54-1.57-.86-2.33l-1.24-2.9c-.59-1.39-1.27-2.96-2.41-4.05-.15-.14-.31-.28-.49-.4-.04.17-.16.33-.38.3-1.22 0-2.44-.3-3.53-.86a.352.352 0 0 1-.2-.34c0-.14.08-.27.21-.33 1.72-.83 3.75-.02 4.91 1.09 1.26 1.2 1.96 2.84 2.58 4.3l1.24 2.9c.33.78.68 1.58.9 2.44.21.82.29 1.65.37 2.45.22 2.26.47 4.83.14 7.35-.23 1.76-.75 3.47-1.25 5.13-.24.8-.48 1.6-.69 2.41-.8 3.07-.86 5.43-.19 7.42l.13.38c.35.98.74 2.08.16 3.05a.36.36 0 0 1-.32.18Zm-6.67-38.69c.58.19 1.18.31 1.79.35-.56-.26-1.19-.4-1.79-.35Z"
  />
  <path
    d="M176.64 106.5c-.06 0-.13-.02-.19-.05a.367.367 0 0 1-.13-.51c.52-.88.46-1.98.32-2.75-.11-.58-.28-1.13-.46-1.72-.13-.41-.25-.82-.36-1.24-.53-2.15-.44-4.5.27-6.6.07-.2.28-.3.47-.24.2.07.3.28.24.47-.66 1.97-.75 4.17-.25 6.18.1.41.22.8.35 1.2.18.58.36 1.18.48 1.8.24 1.28.1 2.41-.41 3.27a.36.36 0 0 1-.32.18Z"
  />
  <path
    d="M171.6 105.58c-.09 0-.18-.03-.25-.1a.378.378 0 0 1-.03-.53c1.61-1.79 2.67-4.02 3.7-6.17.09-.19.31-.27.5-.18.19.09.27.31.18.5-1.05 2.2-2.14 4.48-3.82 6.35-.07.08-.18.12-.28.12Z"
  />
  <path
    d="M173.6 105.85s-.07 0-.11-.02a.375.375 0 0 1-.25-.47c.56-1.84 1.18-3.69 1.83-5.5.07-.19.29-.3.48-.22.19.07.3.29.23.48-.65 1.79-1.26 3.63-1.82 5.46-.05.16-.2.27-.36.27ZM187.86 108.11c-.15 0-.29-.09-.35-.24-.07-.19.02-.41.21-.49 1.42-.55 2.48-2.09 2.69-3.92.21-1.82-.37-3.68-.91-5.1l-.25-.66c-.3-.77-.6-1.56-.8-2.38-.29-1.18-.35-2.4-.42-3.57-.02-.29-.03-.58-.05-.87-.12-1.88-.39-3.77-.64-5.6-.51-3.64-1.08-7.76-3-11.17-.85-1.52-1.97-2.91-3.06-4.25l-3.43-4.24c-.92-1.14-1.97-2.44-3.34-3.13-1.23-.62-2.99-.69-4 .36-.14.15-.38.16-.53.01a.377.377 0 0 1-.01-.53c1.32-1.37 3.45-1.23 4.88-.51 1.52.76 2.62 2.13 3.59 3.33l3.43 4.24c1.1 1.37 2.24 2.78 3.13 4.35 1.98 3.53 2.57 7.73 3.09 11.43.26 1.84.52 3.75.65 5.66.02.29.03.59.05.88.06 1.14.12 2.33.39 3.44.19.78.49 1.55.78 2.29l.25.66c.56 1.5 1.17 3.47.95 5.45-.24 2.11-1.48 3.89-3.16 4.54a.32.32 0 0 1-.14.03Z"
  />
  <path
    d="M185.1 109.05a.36.36 0 0 1-.2-.06c-.16-.11-.2-.35-.12-.52.04-.09.11-.16.19-.2 1.53-1.94.89-4.84.54-6.02-.23-.76-.52-1.53-.8-2.27-.52-1.38-1.07-2.82-1.24-4.33-.25-2.12.24-4.21.71-6.24.37-1.59.75-3.23.76-4.84.02-2.54-.85-5.03-1.69-7.44-.37-1.06-.76-2.16-1.06-3.26-.06-.2.06-.41.26-.46.2-.05.41.06.46.26.3 1.08.68 2.17 1.05 3.22.86 2.47 1.76 5.02 1.73 7.69-.02 1.7-.4 3.38-.78 5-.47 2.05-.92 3.99-.69 5.98.17 1.42.67 2.75 1.2 4.15.29.75.58 1.53.81 2.32.8 2.69.56 5.1-.65 6.67v.01c-.03.08-.09.15-.16.19-.08.09-.2.14-.32.14ZM180.22 108.3c-.23 0-.43-.19-.45-.43-.02-.2.17-.44.37-.46.92-1.77 1.68-3.62 1.36-5.42-.12-.67-.38-1.3-.65-1.97-.12-.3-.24-.6-.35-.9-.68-1.87-.87-3.89-.57-5.85.14-.9.38-1.78.62-2.63.15-.56.31-1.12.43-1.68.32-1.45.45-2.93.39-4.41 0-.21.15-.38.36-.39.21.01.38.15.39.36.06 1.55-.07 3.1-.41 4.61-.13.58-.29 1.15-.44 1.72-.23.83-.47 1.69-.6 2.54-.28 1.84-.1 3.73.53 5.48.11.29.22.58.34.87.28.68.56 1.38.69 2.12.37 2.1-.52 4.17-1.54 6.1-.11.22-.27.33-.47.34h-.02ZM188.2 110.22c-.09 0-.19-.04-.26-.11a.368.368 0 0 1 0-.53c.61-.62 1.42-.88 2.21-1.14l.37-.12c.98-.33 1.92-.78 2.79-1.34.22-.14.45-.31.49-.51.02-.08 0-.19-.04-.32-.16-.47-.57-.9-1.23-1.28-.21-.12-.43-.23-.65-.35-.4-.21-.82-.42-1.2-.71a.37.37 0 0 1-.07-.53c.12-.17.36-.2.53-.07.33.25.7.44 1.09.64.23.12.46.24.68.36.83.48 1.34 1.04 1.56 1.69.09.26.11.49.06.71-.1.46-.47.76-.82.98-.92.59-1.91 1.07-2.96 1.42l-.38.12c-.73.23-1.42.46-1.9.95-.07.08-.17.11-.27.11ZM161.11 68.26a.42.42 0 0 1-.35-.19c-.11-.18-.1-.41.04-.55.65-.69 1.54-1.07 2.31-1.41l6.12-2.66c.19-.08.41 0 .49.19.08.19 0 .41-.19.49l-6.12 2.66c-.69.3-1.4.61-1.94 1.11-.02.15-.12.29-.26.33a.36.36 0 0 1-.11.02Z"
  />
  <path
    d="M153.64 99.07a.36.36 0 0 1-.32-.18c-.21-.33-.35-.73-.45-1.25-.47-2.41.36-4.77 1.17-7.05.27-.75.54-1.53.76-2.29.24-.83.42-1.67.59-2.48.25-1.14.5-2.33.53-3.5v-.72c0-.55-.02-1.12.08-1.69.1-.59.32-1.14.53-1.67l.14-.36c.39-1.04.7-2.14 1-3.21.52-1.85 1.06-3.77 2.07-5.47.92-1.55 2.17-2.83 3.36-4 .99-.97 1.97-1.89 3.19-2.52 1.39-.72 2.9-.9 4.13-.48.2.07.3.28.23.48s-.28.3-.48.23c-1.04-.35-2.33-.19-3.54.44-1.12.58-2.06 1.46-3.01 2.39-1.16 1.14-2.37 2.38-3.24 3.85-.96 1.62-1.48 3.48-1.99 5.29-.3 1.08-.62 2.2-1.02 3.27l-.14.36c-.2.52-.4 1.02-.49 1.53-.09.5-.08 1.01-.07 1.55v.75c-.03 1.25-.29 2.47-.55 3.64-.18.83-.36 1.68-.61 2.53-.23.78-.5 1.57-.77 2.34-.81 2.29-1.57 4.44-1.14 6.66.08.43.2.75.35 1a.383.383 0 0 1-.32.58Z"
  />
  <path
    d="M148.55 105.41a.36.36 0 0 1-.32-.18c-1.01-1.68-.23-3.76.75-5.03.55-.71 1.2-1.33 1.84-1.93.56-.52 1.13-1.06 1.61-1.65 1.59-1.94 2.25-4.46 2.79-6.87.05-.2.24-.33.45-.28.2.05.33.25.28.45-.54 2.39-1.25 5.11-2.94 7.18-.51.63-1.1 1.18-1.68 1.72-.64.6-1.25 1.17-1.76 1.84-.9 1.17-1.47 2.92-.7 4.19.11.18.05.41-.13.51a.34.34 0 0 1-.19.05Z"
  />
  <path
    d="M147.94 107.55h-.03c-.11 0-.27-.06-.41-.25-.27-.4-.21-.98.14-1.41.25-.3.58-.49.87-.65 1.13-.63 2.09-1.37 2.92-2.24.14-.15.38-.15.53-.01.15.14.15.38.01.53-.89.92-1.9 1.71-3.02 2.34-.33.19-.58.32-.74.51-.08.1-.14.23-.14.35.1.02.2.08.26.18.07.12.07.33 0 .45-.08.14-.23.22-.39.22Zm.18-.67Z"
  />
  <path
    d="M147.23 107.9c-.18 0-.34-.13-.37-.32-.03-.2.11-.4.31-.43.71-.11 1.3-.58 2-1.18l1.9-1.62c.16-.13.4-.12.53.04s.12.39-.04.53l-1.9 1.62c-.62.53-1.4 1.19-2.37 1.35h-.06ZM158.93 85.83c-.39 0-.78-.11-1.11-.33-.58-.4-.88-1.05-1.11-1.63-.32-.81-.67-1.77-.77-2.79-.08-.77-.04-1.91.59-2.93.1-.16.26-.4.51-.56.64-.42 1.44-.14 1.87.01.2.07.3.28.23.48a.38.38 0 0 1-.48.23c-.46-.16-.92-.29-1.21-.1-.09.06-.18.17-.28.33-.51.84-.54 1.8-.48 2.46.09.92.41 1.83.72 2.58.2.5.43 1.01.84 1.29.34.23.8.27 1.17.1.37-.17.65-.54.71-.94.03-.21.22-.36.42-.32.21.03.35.22.32.42-.09.66-.54 1.25-1.15 1.52-.25.11-.52.16-.79.16Z"
  />
  <path
    d="M156.96 82.62h-.06a.381.381 0 0 1-.31-.43c.2-1.23.54-2.45.99-3.62a.376.376 0 1 1 .7.28c-.43 1.12-.75 2.28-.95 3.47-.03.18-.19.31-.37.31ZM157.7 83.4c-.12 0-.23-.06-.31-.16a.37.37 0 0 1 .09-.52c.26-.18.55-.19.78-.19.13 0 .25 0 .34-.04.11-.04.2-.17.2-.29 0-.12-.1-.25-.21-.29a.372.372 0 0 1-.26-.39l.11-1.38c.02-.21.2-.36.4-.34.21.02.36.2.34.4l-.09 1.13c.27.19.45.51.45.85 0 .44-.28.86-.69 1.01-.2.07-.4.08-.58.08-.15 0-.3 0-.37.06a.36.36 0 0 1-.22.07ZM159.46 73.39c-.05 0-.1-.01-.16-.03-.19-.09-.27-.31-.19-.5 1.06-2.32 2.94-4.21 4.59-5.87.15-.15.38-.15.53 0 .15.15.15.38 0 .53-1.69 1.7-3.44 3.45-4.44 5.65a.37.37 0 0 1-.34.22Z"
  />
  <path
    d="M159.04 75.74c-.07 0-.13-.02-.2-.06a.374.374 0 0 1-.12-.52 86.73 86.73 0 0 1 3.99-5.94c.12-.17.36-.21.52-.08.17.12.2.36.08.52-1.39 1.9-2.72 3.88-3.95 5.89a.36.36 0 0 1-.32.18Z"
  />
  <path
    d="M159.73 76.27c-.09 0-.18-.03-.25-.1a.378.378 0 0 1-.02-.53c.54-.59.96-1.3 1.23-2.06.07-.2.28-.3.48-.23.2.07.3.28.23.48-.29.85-.77 1.66-1.38 2.32-.07.08-.18.12-.28.12Z"
  />
  <path
    d="M159.22 78.6c-.12 0-.24-.06-.31-.16-.12-.17-.07-.4.1-.52.82-.57 1.34-1.54 1.34-2.54a.38.38 0 1 1 .76 0c0 1.24-.64 2.45-1.66 3.16-.06.04-.14.07-.21.07ZM168.81 75.55a.37.37 0 0 1-.26-.1c-.51-.48-1.22-.77-2.01-.83-.7-.05-1.46.08-2.27.38a.362.362 0 0 1-.48-.22.37.37 0 0 1 .22-.48c.91-.34 1.78-.49 2.58-.43.96.07 1.84.44 2.48 1.03.15.14.16.38.02.53-.07.08-.17.12-.27.12ZM178.55 76.42c-.1 0-.2-.04-.27-.12-.51-.54-1.29-.87-2.14-.88-.75.02-1.56.2-2.38.64-.18.1-.41.02-.51-.16-.1-.18-.03-.41.16-.51.94-.49 1.84-.71 2.74-.72 1.06.01 2.03.42 2.68 1.12.14.15.13.39-.02.53-.07.07-.16.1-.26.1ZM169.04 72.56h-.06c-.22-.04-.33-.13-.69-1.16a.37.37 0 0 1 .69-.27l.4.9c.06.13.04.29-.04.4a.4.4 0 0 1-.3.15Z"
  />
  <path
    d="M168.19 72.4c-.17 0-.32-.11-.36-.28l-.27-1.06a.38.38 0 0 1 .27-.46c.2-.05.4.07.46.27l.27 1.06c.05.2-.07.41-.27.46-.03 0-.06.01-.09.01Z"
  />
  <path
    d="M167.42 71.88a.36.36 0 0 1-.32-.18l-.45-.75a.363.363 0 0 1 .13-.51c.18-.11.41-.05.52.13l.45.75c.11.18.05.41-.13.51a.34.34 0 0 1-.19.05Z"
  />
  <path
    d="M166.62 71.8c-.18 0-.33-.12-.37-.31-.04-.2-.15-.4-.31-.53s-.18-.37-.04-.53c.13-.16.37-.17.53-.04.29.25.49.59.56.96.04.2-.1.4-.3.44h-.07Z"
  />
  <path
    d="M166.03 72.02c-.24 0-.41-.22-.77-.76a.374.374 0 0 1 .08-.5c.15-.12.38-.1.51.04l.44.49c.16.18.15.36.12.44a.4.4 0 0 1-.32.28h-.07Z"
  />
  <path
    d="M165.28 72.1c-.1 0-.21-.04-.28-.12l-.32-.36a.378.378 0 0 1 .03-.53.37.37 0 0 1 .53.03l.32.36c.14.15.12.39-.03.53-.07.06-.16.1-.25.1ZM174.2 72.99a.36.36 0 0 1-.2-.06.374.374 0 0 1-.12-.52c.19-.29.41-.57.65-.81.15-.14.39-.14.53.01.14.15.14.39 0 .53-.21.2-.39.42-.54.66-.07.11-.19.18-.32.18Z"
  />
  <path
    d="M175.09 72.88c-.07 0-.15-.02-.21-.07a.37.37 0 0 1-.09-.52c.21-.3.49-.56.81-.74.18-.11.41-.04.51.14.1.18.04.41-.14.51-.22.13-.42.31-.56.52-.07.1-.19.16-.31.16Z"
  />
  <path
    d="M175.75 72.95c-.07 0-.13-.02-.2-.06a.374.374 0 0 1-.12-.52c.24-.39.65-.67 1.1-.74a.376.376 0 0 1 .12.74c-.24.04-.46.19-.59.39a.36.36 0 0 1-.32.18Z"
  />
  <path
    d="M176.47 72.97c-.05 0-.1-.01-.15-.03-.19-.08-.27-.31-.19-.5.19-.42.58-.73 1.03-.8.2-.04.4.1.43.3.04.2-.1.4-.31.43-.21.04-.39.18-.48.37a.37.37 0 0 1-.34.22Z"
  />
  <path
    d="M177.19 72.83c-.12 0-.24-.06-.31-.17a.374.374 0 0 1 .11-.52c.29-.19.62-.31.96-.34.22-.01.39.14.41.34s-.13.39-.34.41c-.22.02-.43.09-.62.21-.06.04-.14.06-.21.06Z"
  />
  <path
    d="M178.34 72.98h-.04l-.47-.05c-.21-.02-.36-.2-.34-.41s.21-.35.41-.34l.47.05c.21.02.36.2.34.41-.02.19-.18.34-.37.34ZM169.9 80.98c-.06 0-.13-.02-.19-.05-.19-.11-.41-.18-.63-.21a.371.371 0 0 1-.32-.42c.03-.2.22-.35.42-.32.32.04.62.15.9.3a.375.375 0 0 1-.19.7ZM171.65 81.26c-.12 0-.23-.05-.3-.15-.12-.17-.09-.4.08-.52.24-.18.53-.28.82-.3.21-.02.39.14.4.35.01.21-.14.39-.35.4-.15.01-.31.07-.43.16a.36.36 0 0 1-.22.07ZM171.52 86.9c-.36 0-.72-.02-1.07-.05-1.44-.1-3.41-.23-4.75-1.43-.08-.08-.13-.18-.12-.3s.06-.22.15-.28c.03-.02.18-.22.29-.36.37-.48.97-.83 1.69-.97.61-.12 1.22-.09 1.81-.06l1.46.07c.67.03 1.35.07 2.02.31.79.29 1.38.83 1.61 1.5.04.12.02.25-.05.35-.42.57-1.12.97-1.97 1.13-.35.07-.71.09-1.06.09Zm-5.03-1.8c1.04.75 2.44.9 4.01 1 .65.04 1.31.09 1.94-.03.57-.11 1.05-.34 1.37-.68-.2-.36-.58-.67-1.07-.85-.56-.2-1.19-.23-1.8-.26l-1.46-.07c-.54-.03-1.1-.06-1.63.04-.54.1-.98.35-1.24.69-.05.06-.09.11-.12.16Z"
  />
  <path
    d="M173.61 85.9h-.06c-2.3-.36-4.64-.42-6.95-.19-.2.01-.39-.13-.41-.33s.13-.39.34-.41c2.38-.24 4.78-.17 7.15.2.2.03.34.22.31.43-.03.18-.19.32-.37.32ZM161.3 96.24c-.08 0-.17-.03-.23-.08a.38.38 0 0 1-.06-.53c.74-.92.64-2.24.52-2.95-.2-1.11-.65-2.18-1.32-3.09-.15-.21-.32-.41-.48-.61-.27-.34-.56-.69-.8-1.07-.34-.55-.69-1.39-.49-2.27.05-.2.25-.33.45-.28.2.05.33.25.28.45-.16.67.18 1.35.4 1.7.21.34.47.66.74.99.17.21.35.42.51.64.73 1 1.24 2.18 1.45 3.4.25 1.43.02 2.69-.67 3.55a.37.37 0 0 1-.29.14ZM157.99 96.19s-.09 0-.13-.03c-.18-.08-.28-.24-.23-.42.17-.53.52-.99.99-1.29.08-.05.15-.09.23-.14.14-.08.27-.15.36-.24.21-.22.19-.62.06-.9-.17-.36-.49-.65-.81-.92l-.1-.09c-.34-.28-.7-.58-.96-.97-.66-1-.48-2.31-.37-3.18.03-.21.21-.35.42-.32.21.03.35.22.32.42-.13 1-.21 1.96.25 2.67.2.3.5.55.81.81l.11.09c.37.31.78.68 1.01 1.18.23.51.26 1.24-.2 1.73-.17.17-.37.29-.54.38-.07.04-.13.07-.19.11-.23.14-.42.35-.55.59 0 .06-.02.12-.05.18l-.07.12c-.07.13-.22.22-.37.22Z"
  />
  <path
    d="M157.47 104.7a.36.36 0 0 1-.22-.07.362.362 0 0 1-.08-.52c.74-1.02 1.66-2.29 1.71-3.67.04-1.12-.48-2.2-1-3.1l-.14-.25c-.3-.52-.61-1.06-.79-1.66-.21-.72-.2-1.45-.19-2.16 0-.46 0-.9-.04-1.33a.38.38 0 0 1 .33-.42c.21-.03.39.12.42.33.06.48.05.96.05 1.42 0 .68-.01 1.33.16 1.94.15.52.43.99.72 1.49l.15.25c.57 1 1.15 2.19 1.1 3.5-.06 1.61-1.05 2.98-1.85 4.08a.38.38 0 0 1-.3.16Z"
  />
  <path
    d="M155.79 103.7a.37.37 0 0 1-.27-.63c.81-.85 1.04-2.32.62-3.94-.04-.14-.08-.28-.12-.43-.09-.32-.18-.63-.24-.96-.18-1.02-.02-2.06.12-2.99.03-.21.22-.34.43-.31.21.03.35.22.31.43-.14.91-.28 1.85-.12 2.75.05.3.14.59.22.88l.12.44c.23.9.62 3.15-.81 4.65-.07.08-.17.12-.27.12Z"
  />
  <path
    d="M153.29 103.21h-.04a.364.364 0 0 1-.33-.41c.22-2.08 1.25-3.98 2.16-5.66.1-.18.33-.25.51-.15s.25.33.15.51c-.88 1.62-1.87 3.45-2.07 5.38-.02.19-.18.34-.37.34ZM163.87 104.63c-.18 0-.34-.13-.37-.31-.55-3.2-1.96-6.21-4.08-8.68a.378.378 0 0 1 .04-.53c.16-.13.39-.11.53.04 2.2 2.57 3.67 5.7 4.25 9.04.04.2-.1.4-.31.43h-.06Z"
  />
  <path
    d="M163.79 106.43c-.39 0-.74-.27-1.02-.79a14.816 14.816 0 0 1-1.74-6.48c0-.21.16-.38.36-.39.22.02.38.16.39.36.07 2.14.64 4.26 1.65 6.15.2.37.31.39.36.4.21 0 .38.15.39.36 0 .21-.15.38-.36.39h-.04Z"
  />
  <path
    d="M162.54 105.83c-.15 0-.25-.1-.4-.25l-1.85-1.87c-.15-.15-.15-.38 0-.53s.38-.15.53 0c.89.88 1.41 1.4 1.71 1.72l.26.26v.02c.16.21.14.27.12.37-.03.13-.14.23-.27.27-.04 0-.07.01-.11.01ZM177.66 106.97c-.11 0-.22-.05-.3-.15-.13-.16-.1-.4.07-.53.53-.41.64-1.22.74-2l.02-.19c.27-1.99.98-3.88 1.68-5.7.07-.19.29-.29.48-.22.19.07.29.29.22.48-.68 1.78-1.38 3.62-1.64 5.53l-.02.19c-.11.89-.24 1.89-1.02 2.5a.4.4 0 0 1-.23.08ZM181.87 83.54c-.16 0-.3-.1-.36-.26-.75-2.26-.85-4.66-.94-6.99-.1-2.32-.19-4.72-.95-6.91a.38.38 0 0 1 .23-.48c.2-.07.41.04.48.23.79 2.29.89 4.75.99 7.13.09 2.28.19 4.63.9 6.79.06.2-.04.41-.24.47-.04.01-.08.02-.12.02ZM189.39 106.29s-.07 0-.11-.02a.375.375 0 0 1-.25-.47c.28-.96.16-2.12-.37-3.45-.21-.53-.47-1.06-.71-1.57-.29-.61-.6-1.24-.84-1.89-.88-2.4-.84-4.98-.81-7.48.02-1.68.04-3.41-.21-5.07-.03-.2.11-.4.31-.43.21-.03.4.11.43.31.27 1.71.24 3.48.22 5.19-.03 2.54-.06 4.94.77 7.21.23.62.52 1.23.81 1.82.25.52.51 1.07.73 1.62.59 1.49.72 2.82.39 3.94-.05.16-.2.27-.36.27ZM149.41 105.01c-.17 0-.32-.12-.36-.29-.42-1.71.6-3.36 1.52-4.44.27-.32.57-.63.86-.95.75-.8 1.46-1.56 1.89-2.49.09-.19.31-.27.5-.18.19.09.27.31.18.5-.48 1.04-1.27 1.88-2.03 2.69-.28.3-.57.61-.84.92-.81.95-1.7 2.37-1.36 3.77.05.2-.07.4-.28.45-.03 0-.06.01-.09.01Z"
  />
  <path
    d="M149.98 102.7c-.11 0-.22-.05-.3-.14a.36.36 0 0 1-.02-.43c.73-1.18 1.66-1.72 2.54-2.17a.38.38 0 0 1 .45.08c.11.13.13.31.04.46-1.03 1.59-1.81 1.94-2.59 2.18-.04.01-.08.02-.11.02Z"
  />
  <path
    d="M151.48 104.67h-.03a.373.373 0 0 1-.34-.41c.19-2.19.85-4.36 1.91-6.28.1-.18.33-.25.51-.15s.25.33.15.51c-1.01 1.83-1.64 3.9-1.82 5.99-.02.19-.18.34-.37.34ZM143.53 129.69h-.05a.371.371 0 0 1-.32-.42c.19-1.37.02-2.74-.17-4.2-.18-1.37-.36-2.79-.2-4.19.06-.55.18-1.08.29-1.61.14-.65.27-1.27.31-1.9.07-1.04-.12-2.1-.29-3.05-.33-1.88-.69-3.75-1.06-5.62-.19-.97-.47-2.05-1.25-2.51a.37.37 0 0 1-.18-.39.36.36 0 0 1 .31-.3c1.19-.19 2.29-.4 3.34-.59 1.36-.25 2.64-.49 3.93-.67.2-.03.39.12.42.32.03.21-.12.39-.32.42-1.27.17-2.55.41-3.9.66-.82.15-1.67.31-2.57.46.55.67.78 1.59.95 2.45.37 1.88.73 3.75 1.06 5.64.17.98.37 2.1.3 3.23-.04.69-.19 1.36-.33 2.01-.11.5-.22 1.03-.28 1.54-.15 1.32.03 2.69.2 4.01.19 1.44.38 2.92.17 4.4-.03.19-.19.32-.37.32Z"
  />
  <path
    d="M130.8 133.59c-.17 0-.33-.12-.37-.3-.22-1.04.09-2.03.4-2.99.24-.76.47-1.48.45-2.2v-.22c-.03-.25-.05-.53.03-.82.16-.63.68-1 1.13-1.33.27-.19.53-.38.7-.6-.46-1.58-.5-4.25.49-6.61.25-.6.56-1.16.85-1.71.35-.64.68-1.25.93-1.91.19-.51.33-1.05.47-1.58.13-.51.27-1.03.45-1.54.87-2.41 2.72-4.32 4.36-6 .15-.15.38-.15.53 0 .15.14.15.38 0 .53-1.58 1.63-3.38 3.47-4.19 5.73-.17.48-.3.98-.43 1.47-.14.54-.29 1.11-.49 1.65-.26.7-.62 1.36-.97 2-.29.53-.59 1.09-.82 1.65-.95 2.28-.88 4.84-.41 6.27.03.1.02.22-.04.31-.25.41-.63.69-1 .95-.4.29-.75.54-.84.91-.04.17-.03.37-.02.58v.24c.04.85-.22 1.67-.47 2.45-.29.91-.56 1.76-.38 2.6.04.2-.09.4-.29.45h-.08Z"
  />
  <path
    d="M128.08 139.99s-.08 0-.13-.02a.38.38 0 0 1-.23-.48c.47-1.32.96-2.68.94-4.07v-.17c-.01-.37-.03-.78.16-1.17.1-.22.25-.39.38-.55l1.27-1.51c.13-.16.37-.18.53-.05.16.13.18.37.05.53l-1.27 1.51c-.11.13-.22.26-.28.38-.11.23-.1.52-.09.83v.18c.03 1.53-.51 3.02-.98 4.34-.05.15-.2.25-.35.25Z"
  />
  <path
    d="M139.47 153.21c-1.93 0-3.77-.21-5.28-.42-1.1-.15-2.34-.4-3.1-1.32-.32-.4-.51-.85-.68-1.3-.12-.31-.24-.61-.4-.87-.14-.23-.32-.44-.51-.66-.17-.2-.34-.4-.48-.62-.62-.91-.81-2-.98-2.97l-.61-3.49c-.2-1.14-.3-2.54.71-3.29.17-.12.4-.09.52.08.12.17.09.4-.08.52-.68.51-.58 1.63-.42 2.56l.61 3.49c.15.89.33 1.9.86 2.67.13.19.28.37.44.55.2.23.4.47.57.75.2.32.33.66.46.99.16.41.32.79.57 1.1.59.72 1.66.92 2.62 1.06 2.14.3 4.95.6 7.72.28 2.77-.33 5.21-1.27 7.04-2.71.16-.13.4-.1.53.06s.1.4-.06.53c-1.94 1.53-4.5 2.53-7.41 2.87-.88.11-1.77.15-2.64.15Z"
  />
  <path
    d="M131.46 148.77c-.1 0-.21-.04-.28-.13a.378.378 0 0 1 .03-.53c1.29-1.15 2.36-2.57 3.12-4.12a.36.36 0 0 1 .5-.17c.19.09.26.31.17.5-.79 1.64-1.93 3.14-3.29 4.35-.07.06-.16.09-.25.09ZM129.15 140.03c-.14 0-.27-.07-.33-.2-.1-.18-.02-.41.16-.5l3.03-1.56c.19-.1.41-.02.51.16.1.18.02.41-.16.5l-3.03 1.56c-.06.03-.11.04-.17.04ZM129.72 143.94a.63.63 0 0 1-.45-.17c-.24-.23-.28-.58-.1-.99.11-.25.25-.49.39-.73l1.35-2.32a.375.375 0 0 1 .65.37l-1.35 2.32c-.13.22-.25.43-.35.66-.01.03-.02.05-.03.07.03-.01.07-.04.12-.06.71-.44 1.43-.9 1.94-1.54.13-.16.36-.19.53-.06.16.13.19.36.06.53-.59.74-1.41 1.26-2.13 1.71-.25.16-.46.21-.62.21Zm.09-.68ZM136.68 130.31s-.09 0-.13-.02c-1.17-.45-2.27-1.06-3.26-1.82-.17-.13-.37-.29-.48-.54-.25-.57.15-1.15.31-1.4.12-.17.35-.21.52-.1.17.12.22.35.1.52-.14.21-.32.5-.25.67.04.08.14.16.24.24.94.72 1.97 1.3 3.07 1.72.19.07.29.29.22.48-.06.15-.2.24-.35.24ZM141.43 123.97c-.17 0-.32-.11-.36-.28-.72-2.62-1.89-5.08-3.47-7.29a.37.37 0 0 1 .09-.52c.17-.12.4-.08.52.09 1.63 2.29 2.84 4.82 3.59 7.53.05.2-.06.41-.26.46-.03 0-.07.01-.1.01ZM140.68 126.14c-.15 0-.29-.09-.35-.23-.34-.83-.95-1.63-1.79-2.37-.79-.69-1.68-1.25-2.54-1.8a.374.374 0 0 1-.12-.52c.11-.18.34-.23.52-.12.85.53 1.8 1.14 2.63 1.87.94.82 1.61 1.71 1.99 2.65a.375.375 0 0 1-.34.52ZM138.42 150.9c-.52 0-1.04-.04-1.56-.13-.17-.03-.34-.07-.51-.11-.24-.05-.47-.11-.71-.14-.73-.1-1.49 0-2.22.11-.2.03-.39-.12-.42-.32-.03-.21.12-.39.32-.42.75-.1 1.59-.22 2.42-.11.26.04.52.09.78.15.16.04.32.07.48.1 1.27.24 2.6.08 3.89-.07l4.82-.57c.21-.03.39.12.42.33a.38.38 0 0 1-.33.42l-4.82.57c-.84.1-1.69.2-2.55.2ZM161.41 148.4a.37.37 0 0 1-.37-.34c-.02-.21.13-.39.34-.41.39-.04.78-.14 1.14-.3-1.16-.33-2.36-.54-3.56-.62a.66.66 0 0 1-.4-.12c-.19-.14-.24-.36-.26-.48-.11-.54-.39-1.02-.7-1.54-.13-.23-.27-.46-.39-.69a6.886 6.886 0 0 1-.55-4.74c.31-1.25 1-2.41 1.94-3.3-.48.04-.95.19-1.37.42-.22.13-.42.28-.63.42-.25.18-.51.37-.79.52-.6.32-1.25.46-1.88.6-.64.14-1.24.27-1.76.57-.51.3-.93.76-1.36 1.24-.52.58-1.07 1.19-1.82 1.53-.19.08-.41 0-.5-.19-.09-.19 0-.41.19-.5.61-.28 1.08-.8 1.57-1.35.46-.51.93-1.03 1.54-1.39.62-.36 1.31-.51 1.98-.65.61-.13 1.18-.25 1.68-.52.25-.13.48-.3.71-.47.23-.17.45-.33.7-.47a4.09 4.09 0 0 1 2.8-.46c.15.03.26.14.3.29.03.15-.03.3-.15.39a6.112 6.112 0 0 0-2.41 3.49c-.35 1.4-.17 2.94.49 4.22.11.22.24.44.37.65.32.54.65 1.11.78 1.76 1.53.11 3.06.42 4.53.92.13.04.23.16.25.3s-.04.28-.15.36c-.65.48-1.41.77-2.22.84h-.03Z"
  />
  <path
    d="M161.74 146.8c-.09 0-.18-.03-.25-.1-1-.9-1.75-2.19-2.16-3.72-.4-1.49-.45-3.04-.44-4.21 0-.83.03-1.78.33-2.7.16-.51.5-.79.88-.75.41.04.62.42.69.57.49.92.9 1.89 1.21 2.88.06.2-.05.41-.25.47s-.41-.05-.47-.25c-.3-.95-.69-1.87-1.16-2.75-.06-.12-.1-.16-.12-.17.02.02-.04.1-.08.23-.26.81-.29 1.7-.29 2.47 0 1.13.04 2.61.42 4.02.38 1.4 1.05 2.56 1.94 3.36.15.14.17.38.03.53-.07.08-.18.12-.28.12ZM198.97 109.34c-.08 0-.16-.02-.24-.07-1.56-.83-3.22-1.49-4.92-1.94a.38.38 0 0 1-.27-.46c.05-.2.26-.32.46-.27 1.71.45 3.38 1.1 4.95 1.93.12-.02.28.05.36.15.11.14.11.36 0 .5-.07.09-.19.15-.32.15Zm.11-.73Z"
  />
  <path
    d="M189.63 134.04h-.08c-.24-.04-.39-.25-.36-.5a.37.37 0 0 1 .37-.33c.05-.35.01-.76-.03-1.19-.03-.3-.05-.6-.05-.9.01-.97.33-1.88.64-2.76.17-.47.34-.96.46-1.45.15-.64.22-1.29.29-1.99.04-.46.09-.92.16-1.37.13-.81.34-1.59.54-2.35.63-2.35 1.28-4.77 2.38-7.01 1.24-2.52 2.92-4.47 4.87-5.64.18-.11.41-.05.51.13.11.18.05.41-.13.51-1.83 1.09-3.41 2.93-4.58 5.33-1.06 2.17-1.71 4.56-2.33 6.88-.2.74-.41 1.51-.53 2.28-.07.44-.11.88-.16 1.33-.07.69-.14 1.39-.3 2.09-.13.52-.3 1.03-.48 1.52-.3.86-.59 1.67-.6 2.52 0 .27.02.55.04.82.04.51.09 1.03-.03 1.57-.06.29-.36.52-.64.52Z"
  />
  <path
    d="M191.36 124.94c-.06 0-.13-.02-.19-.05a.375.375 0 0 1-.14-.51c2.29-3.99 4.46-8.12 6.44-12.29a.38.38 0 0 1 .5-.18c.19.09.27.31.18.5a178.66 178.66 0 0 1-6.47 12.34c-.07.12-.2.19-.33.19ZM202.25 131.52c-.06 0-.12-.01-.17-.04a.376.376 0 0 1-.16-.51c.31-.61.4-1.34.25-2-.09-.37-.24-.72-.41-1.1-.26-.59-.53-1.2-.53-1.88 0-.41.09-.78.18-1.15.06-.23.11-.46.14-.69.09-.7-.09-1.44-.26-2.15-.65-2.73-1.11-5.45-1.39-8.15l-.02-.18c-.15-1.48-.31-3.01-1.17-4.13-.13-.16-.1-.4.07-.53.16-.13.4-.09.53.07.99 1.29 1.16 2.93 1.33 4.51l.02.17c.28 2.67.73 5.36 1.35 7.97.21.87.4 1.67.29 2.51-.03.26-.1.52-.16.78-.08.34-.16.65-.16.97 0 .53.23 1.04.47 1.58.17.39.35.79.45 1.23.2.84.09 1.75-.31 2.52-.07.13-.2.2-.33.2Z"
  />
  <path
    d="M204.72 145.13c-.28 0-.59-.04-.92-.13-1.17-.31-2.31-.75-3.38-1.3a.368.368 0 0 1-.16-.5c.09-.18.32-.26.5-.16 1.03.53 2.12.94 3.23 1.24.57.15 1.26.18 1.46-.2.1-.19.08-.46.04-.77l-.43-3.37c-.22-1.71-.45-3.47-1.1-5.08-.71-1.76-1.87-3.05-3.26-3.65a.375.375 0 0 1 .29-.69c1.57.68 2.87 2.12 3.66 4.05.69 1.7.92 3.51 1.15 5.27l.43 3.37c.04.34.1.81-.12 1.22-.25.46-.74.7-1.39.7Z"
  />
  <path
    d="M177.33 161.5c-2.72 0-5.6-.2-8.68-.59a.366.366 0 0 1-.32-.42c.03-.2.21-.35.42-.32 6.56.83 12.19.77 17.22-.19 6.08-1.16 11.37-3.7 15.31-7.35 1.26-1.16 2.11-2.21 2.69-3.29.86-1.6 1.2-3.45 1.53-5.23a.377.377 0 0 1 .74.14c-.34 1.84-.69 3.74-1.6 5.45-.62 1.16-1.53 2.27-2.85 3.49-4.04 3.74-9.46 6.34-15.68 7.53-2.73.52-5.64.79-8.77.79Z"
  />
  <path
    d="M168.83 160.6c-.06 0-.12 0-.18-.01-.7-.09-1.14-.67-1.5-1.2l-1.85-2.76a.371.371 0 0 1 .1-.52c.17-.12.4-.07.52.1l1.85 2.76c.27.4.58.83.98.88.3.05.63-.16.81-.47.17-.29.23-.69.18-1.16-.1-.98-.61-1.91-1.12-2.79-1-1.71-2.09-3.4-3.25-5.01-.61-.85-1.35-1.77-2.36-1.92a.369.369 0 0 1-.31-.43c.03-.21.22-.34.43-.32 1.23.19 2.1 1.18 2.85 2.23 1.18 1.63 2.28 3.34 3.29 5.07.55.94 1.1 1.96 1.21 3.08.07.64-.03 1.18-.28 1.62-.3.52-.84.84-1.38.84Z"
  />
  <path
    d="M168.47 158.44c-.06 0-.13 0-.19-.02-.2-.05-.34-.17-.46-.28-.59-.55-1.1-1.17-1.51-1.87a.363.363 0 0 1 .13-.51c.18-.11.41-.05.51.13.38.63.84 1.2 1.38 1.7.03.02.1.1.13.1.01 0 .06 0 .11-.05.08-.07.13-.19.19-.3.09-.18.16-.36.24-.54.06-.16.26-.29.43-.28.16.01.3.13.34.28.04.14-.01.31-.12.41-.06.15-.13.3-.2.45-.08.17-.18.37-.36.52a.89.89 0 0 1-.61.25Z"
  />
  <path
    d="M168.93 158.58c-.13 0-.27 0-.4-.01-.21 0-.37-.19-.36-.39.01-.21.21-.36.39-.36.4.02.81 0 1.2-.04.21-.02.39.12.42.33.03.21-.12.39-.33.42-.3.04-.61.06-.93.06ZM163.14 148.65c-.18 0-.34-.13-.37-.31-.04-.2.1-.4.31-.43.93-.16 1.84-.52 2.63-1.04.17-.11.41-.06.52.11.11.17.07.41-.11.52-.88.58-1.88.97-2.91 1.15h-.06ZM182.34 155.92c-.77 0-1.56-.12-2.33-.24-.42-.06-.84-.13-1.25-.17-1.56-.17-3.18-.02-4.75.12-1.44.13-2.92.27-4.39.17a.372.372 0 0 1-.35-.4c.01-.21.19-.37.4-.35 1.41.09 2.87-.04 4.27-.17 1.6-.15 3.26-.3 4.89-.12.43.05.86.11 1.29.18 1.4.22 2.71.42 3.91-.07.1-.04.2-.09.31-.13.51-.23 1.09-.49 1.7-.27.19.07.3.29.23.48-.07.19-.28.29-.48.23-.33-.12-.72.06-1.14.25-.11.05-.22.1-.33.14-.64.26-1.31.35-1.98.35ZM191.98 133.97c-.06 0-.13-.02-.19-.05a.375.375 0 0 1-.14-.51c1.87-3.27 4.26-6.18 7.11-8.66.16-.13.39-.12.53.04s.12.39-.04.53a32.906 32.906 0 0 0-6.95 8.46c-.07.12-.2.19-.33.19ZM200.29 134.09a.37.37 0 0 1-.34-.22c-.49-1.05-1-1.6-1.6-1.72-.53-.11-1.11.13-1.62.36-.86.39-1.71.84-2.51 1.33-.18.11-.41.05-.52-.13a.363.363 0 0 1 .13-.51c.83-.5 1.7-.96 2.59-1.37.61-.28 1.33-.56 2.08-.41 1.13.23 1.76 1.33 2.13 2.14.09.19 0 .41-.18.5-.05.02-.1.04-.16.04ZM203.75 143.34c-.05 0-.11-.01-.16-.04-1.7-.82-3.47-1.51-5.28-2.06a.375.375 0 0 1-.25-.47c.06-.2.27-.31.47-.25 1.84.56 3.65 1.27 5.38 2.1a.372.372 0 0 1-.16.71ZM150.46 117.74a.41.41 0 0 1-.29-.13c-.97-1.16-2.17-2.6-2.42-4.35-.18-1.27.17-2.52.5-3.47.56-1.63 1.34-3.17 2.31-4.59.43-.63.93-1.25 1.69-1.48.53-.17 1.08-.1 1.56-.04 1.59.19 3.36.51 4.3 1.85s.59 3.05.3 3.96c-.24.74-.96 2.48-2.58 2.76-.41.07-.82.03-1.18 0-.17-.02-.5-.05-.71-.3-.18-.2-.2-.46-.21-.61l-.29-3.38c-.02-.21.13-.39.34-.41.21-.02.39.14.41.34l.29 3.38s.01.16.03.19c.02.01.09.03.22.04.33.03.67.07.98.01 1.25-.22 1.84-1.77 1.99-2.25.25-.77.55-2.22-.2-3.3-.77-1.09-2.29-1.36-3.78-1.54-.42-.05-.86-.1-1.24.02-.54.17-.94.67-1.29 1.19-.93 1.36-1.68 2.85-2.22 4.41-.3.87-.62 2.01-.46 3.12.22 1.54 1.35 2.89 2.25 3.97a.379.379 0 0 1-.29.62Z"
  />
  <path
    d="M165.62 137.2c-.39 0-.78-.02-1.18-.07-.93-.12-1.88-.4-2.99-.89-4.12-1.8-7.65-5.25-9.67-9.44-.58-1.21-1.07-2.53-1.44-3.91-.21-.77-.45-1.8-.47-2.88-.04-3.11 1.8-5.89 3.28-8.12.11-.17.35-.22.52-.11.17.11.22.35.11.52-1.42 2.15-3.19 4.82-3.15 7.7.01.99.24 1.96.44 2.69.36 1.34.83 2.61 1.4 3.78 1.95 4.04 5.33 7.35 9.29 9.08 1.05.46 1.93.72 2.79.83 1.01.13 2.07.03 3.09-.05l5.99-.53c1.25-.11 2.53-.22 3.72-.62 2.53-.84 4.3-2.83 5.34-4.35 1.35-1.98 2.26-4.25 3.14-6.44l1.31-3.26a.376.376 0 1 1 .7.28l-1.31 3.26c-.89 2.23-1.82 4.54-3.21 6.58-1.1 1.62-2.99 3.74-5.73 4.64-1.27.42-2.6.54-3.89.65l-5.99.53c-.68.06-1.38.12-2.07.12ZM181.55 110.69c-.12 0-.24-.06-.31-.17a5.943 5.943 0 0 0-1.75-1.71c-.8-.5-1.73-.81-2.63-1.11l-4.38-1.46c-.92-.3-1.86-.62-2.83-.74-2.16-.28-4.42.43-6.24.99-1.92.6-3.5 1.14-4.76 2.22a.37.37 0 0 1-.53-.04.378.378 0 0 1 .04-.53c1.49-1.26 3.45-1.87 5.03-2.36 1.89-.59 4.23-1.31 6.55-1.02 1.04.13 2.02.46 2.97.78l4.38 1.46c.94.31 1.92.64 2.79 1.19.78.49 1.47 1.16 1.98 1.93.11.17.07.41-.1.52-.06.04-.14.06-.21.06Z"
  />
  <path
    d="M187.51 121.95c-.08 0-.17 0-.25-.02a.38.38 0 0 1-.33-.42c.02-.21.22-.35.42-.33 1.01.11 1.79-.98 2.17-1.96 1-2.57.9-5.6-.28-8.1-.17-.37-.4-.78-.74-.98-.24-.14-.55-.2-.85-.26l-2.09-.39c-.24-.04-.49-.09-.69-.04-.14.04-.28.13-.43.23-.09.06-.17.11-.26.16-.54.3-1.13.39-1.7.47-.51.07-.98.14-1.39.35-.45.24-.78.71-.91 1.28-.12.58 0 1.18.32 1.6.32.41.84.67 1.42.72.61.05 1.18-.14 1.58-.51.07-.06.11-.14.15-.21a.7.7 0 0 1-.15-.56.4.4 0 0 1 .19-.28c.11-.06.23-.06.34 0 .2.09.34.26.39.47.09.03.21.05.35.05l2.64.04c.21 0 .37.17.37.38s-.17.37-.38.37l-2.64-.04c-.08 0-.26-.01-.45-.06-.08.15-.18.29-.29.39-.55.51-1.34.77-2.15.7-.79-.06-1.5-.43-1.95-1-.47-.6-.64-1.41-.46-2.22.17-.79.64-1.44 1.29-1.79.52-.27 1.09-.35 1.64-.43.53-.07 1.02-.14 1.43-.38.07-.04.15-.09.22-.14.19-.12.39-.26.65-.33.36-.1.71-.03 1.02.02l2.09.39c.35.07.75.14 1.1.35.51.31.81.83 1.03 1.3 1.26 2.68 1.37 5.93.3 8.69-.47 1.21-1.42 2.44-2.71 2.44Z"
  />
  <path
    d="M186.52 117.05c-.09 0-.19-.04-.26-.11l-1.67-1.62a.368.368 0 0 1 0-.53c.15-.15.38-.15.53 0l1.67 1.62c.15.14.15.38 0 .53-.07.08-.17.11-.27.11ZM160.08 124.91c-.17 0-.33-.12-.37-.3-.12-.57-.39-1.11-.67-1.67-.19-.36-.37-.73-.52-1.11-.45-1.16-.53-2.4-.6-3.6-.02-.38-.05-.77-.08-1.15-.18-1.91-.73-3.21-1.68-3.95-.16-.13-.19-.36-.06-.53s.36-.19.53-.06c1.12.88 1.76 2.34 1.96 4.47.04.39.06.78.09 1.17.08 1.2.15 2.33.55 3.38.14.36.31.7.48 1.04.3.58.6 1.19.74 1.86.04.2-.09.4-.29.44h-.08ZM172.54 125.59c-.05 0-.1-.01-.15-.03-.19-.08-.27-.31-.19-.5.62-1.38 1.58-2.53 2.52-3.65l1.33-1.58c.89-1.06 1.63-2.03 1.69-3.16.01-.21.18-.39.39-.35.21.01.37.19.35.39-.08 1.47-1.11 2.7-1.86 3.6l-1.33 1.58c-.9 1.08-1.83 2.19-2.41 3.47a.37.37 0 0 1-.34.22ZM173.74 128.53c-.13 0-.26-.02-.38-.07-.2-.08-.37-.22-.51-.4l-.18-.02a.4.4 0 0 1-.28-.19c-.26-.48-.27-1.07-.01-1.51.29-.5.91-.77 1.44-.62.24.07.46.2.66.41.42.44.58 1.06.41 1.58-.11.31-.36.59-.67.73-.16.07-.32.11-.48.11Zm-.33-1.71c.08 0 .15.02.23.05a.42.42 0 0 0-.23-.13c-.02.03-.04.05-.05.08h.06ZM159 127.3a.94.94 0 0 1-.63-.23c-.04-.04-.08-.07-.11-.11-.07-.02-.15-.05-.22-.08a.368.368 0 0 1-.21-.23c-.1-.31-.23-.7-.19-1.1.04-.43.31-.93.81-1.07.38-.1.81.03 1.17.37.41.38.72 1.05.49 1.68-.13.35-.45.63-.83.72-.1.02-.19.04-.28.04Zm.33-1.6c.03.1.07.22.11.38 0-.13-.04-.26-.11-.38ZM162.58 130.22c-.06 0-.12-.01-.18-.04a4.76 4.76 0 0 1-2.12-2.33c-.08-.19 0-.41.2-.49.19-.08.41 0 .49.2.35.84.99 1.54 1.79 1.96a.378.378 0 0 1-.18.71ZM167.5 129.87c-.12 0-.24-.06-.31-.17a.383.383 0 0 1 .11-.52 7.04 7.04 0 0 0 1.68-1.54c.13-.16.36-.19.53-.06.16.13.19.36.06.53-.52.67-1.15 1.24-1.86 1.71a.36.36 0 0 1-.2.06ZM164.59 132.49c-.13 0-.3-.02-.46-.11-.21-.12-.3-.33-.35-.45-.21-.46-.39-.94-.54-1.42a.6.6 0 0 1 .02-.49c.1-.19.29-.26.37-.29.5-.18 1.06-.39 1.69-.36.74.02 1.39.4 1.65.96.2.41.19.9-.02 1.3-.13.25-.34.46-.6.6-.06.12-.18.2-.32.2l-1.35.05h-.1Zm1.45-2.14.2 1.03.06-.09c.1-.2.1-.44 0-.64a.833.833 0 0 0-.26-.3Zm-1.36.69c.02.06.05.11.08.17v-.11c-.03-.02-.05-.04-.08-.05Zm.14-.88c.12.14.26.26.42.35v-.39c-.14 0-.29.02-.43.04Z"
  />
  <path
    d="M165.93 136.36c-.2 0-.37-.16-.37-.36a36.11 36.11 0 0 0-.31-3.43c-.03-.21.11-.39.32-.42.2-.03.4.11.42.32.16 1.16.27 2.33.32 3.5 0 .21-.15.38-.36.39h-.02ZM172.97 136c-.13 0-.25-.07-.32-.18a.363.363 0 0 1 .13-.51c.21-.12.4-.33.6-.65 1.14-1.79.93-4.32-.48-5.9a.37.37 0 0 1 .03-.53.37.37 0 0 1 .53.03c1.63 1.82 1.87 4.75.56 6.81-.17.26-.44.65-.85.89a.34.34 0 0 1-.19.05ZM159.48 134.38c-.09 0-.18-.03-.25-.09a5.686 5.686 0 0 1-1.82-3.37c-.19-1.28.09-2.65.77-3.75.11-.18.34-.23.52-.12.18.11.23.34.12.52-.59.96-.83 2.14-.67 3.25a4.92 4.92 0 0 0 1.58 2.92c.15.14.17.37.03.53-.07.08-.18.13-.28.13ZM186.86 121.99h-.08a.376.376 0 0 1-.28-.45c.13-.57-.07-1.21-.24-1.77l-.87-2.79c-.06-.2.05-.41.25-.47s.41.05.47.25l.87 2.79c.19.62.43 1.39.26 2.16-.04.17-.19.29-.37.29ZM138.71 145.67c-1.13 0-2.17-.53-3.18-1.04-.3-.15-.6-.31-.91-.44l-.23-.1c-.56-.25-1.2-.53-1.61-1.09-.25-.34-.38-.75-.49-1.1-.21-.66-.42-1.34-.48-2.06-.12-1.34.31-2.81 1.2-4.14.83-1.24 1.95-2.24 2.94-3.05.61-.5 1.34-1.07 2.16-1.57 1.54-.93 3.25-1.49 4.9-2.03 1.88-.62 4-1.32 6.15-.98.19.03.37.07.56.1.37.08.72.15 1.07.15.54 0 .98-.17 1.2-.48a.37.37 0 0 1 .52-.09c.17.12.21.35.09.52-.36.51-1.04.81-1.82.8-.42 0-.82-.09-1.21-.17-.17-.04-.35-.07-.52-.1-1.97-.31-4 .36-5.8.95-1.61.53-3.28 1.08-4.75 1.96-.78.47-1.48 1.03-2.07 1.51-.95.78-2.02 1.73-2.79 2.89-.79 1.19-1.18 2.49-1.07 3.66.06.64.26 1.28.45 1.91.1.31.2.64.38.88.29.4.78.61 1.3.84l.24.11c.31.14.62.3.93.46 1.12.56 2.17 1.1 3.28.92.18-.03.36-.08.54-.12.19-.05.38-.1.57-.13.41-.07.83-.07 1.23-.06.45 0 .88.01 1.28-.09.89-.23 1.58-1 2.24-1.74l.2-.22a22.2 22.2 0 0 1 4.87-4.03c.18-.11.41-.05.52.12.11.18.05.41-.12.52a21.745 21.745 0 0 0-4.71 3.89l-.2.22c-.71.78-1.5 1.67-2.61 1.96-.5.13-1 .13-1.48.12-.38 0-.74 0-1.09.05-.17.03-.34.08-.5.12-.2.05-.4.11-.61.14-.19.03-.37.04-.56.04Z"
  />
  <path
    d="M149.89 138.95c-.29 0-.41-.18-1.09-1.52-.09-.18-.02-.4.15-.5.18-.1.4-.04.5.14l.78 1.31c.07.11.07.25 0 .37-.06.12-.18.19-.31.2h-.05ZM153.65 137.23a.37.37 0 0 1-.37-.34c-.1-1.22-.57-2.42-1.34-3.37a.38.38 0 0 1 .06-.53c.16-.13.4-.1.53.06a6.976 6.976 0 0 1 1.5 3.78c.02.21-.14.39-.34.4h-.03ZM159.3 139.92a.376.376 0 0 1-.08-.74l4.78-1.12c.65-.15 1.31-.31 1.97-.44 1.55-.3 3.14-.47 4.68-.63.94-.1 1.88-.2 2.81-.33 2.46-.34 4.9-.89 7.26-1.65.87-.28 1.27-.01 1.46.26.15.22.26.62-.09 1.23-.35.6-.79 1.13-1.33 1.57-.16.13-.4.11-.53-.05s-.11-.4.05-.53c.47-.38.86-.84 1.16-1.37.13-.23.16-.38.12-.43-.04-.06-.25-.08-.6.04-2.4.77-4.88 1.33-7.38 1.68-.94.13-1.89.23-2.84.33-1.52.16-3.09.33-4.61.62-.65.13-1.3.28-1.94.43l-4.78 1.12h-.09Z"
  />
  <path
    d="M182.62 142.15a.36.36 0 0 1-.2-.06.372.372 0 0 1-.11-.52c.37-.58.51-1.31.38-1.99-.06-.29-.15-.51-.29-.66-.28-.32-.78-.42-1.28-.5a42.77 42.77 0 0 0-4.78-.49c-.21 0-.37-.18-.36-.39 0-.21.21-.35.39-.36 1.62.07 3.26.24 4.87.5.6.1 1.28.24 1.72.75.22.25.38.6.46 1.01.17.87 0 1.79-.48 2.54-.07.11-.19.17-.32.17Z"
  />
  <path
    d="M183.06 145.32a.37.37 0 0 1-.37-.34c-.02-.21.13-.39.33-.41.23-.02.47-.25.56-.53.09-.27.07-.61-.04-1-.11-.37-.25-.61-.45-.74-.15-.1-.36-.15-.55-.19-.73-.16-1.48-.25-2.22-.28-.57-.02-1.14-.04-1.6-.41a.38.38 0 0 1 .14-.66c.6-.16 1.24-.11 1.8.15.09.04.16.11.19.2.64.05 1.25.14 1.85.27.26.05.56.13.82.3.34.23.59.61.75 1.16.16.54.17 1.03.04 1.44-.18.57-.66.99-1.19 1.04h-.04Z"
  />
  <path
    d="M182.96 151.44c-.16 0-.32-.01-.47-.03-1.5-.17-2.96-.62-4.36-1.05l-.52-.16a95.33 95.33 0 0 0-10.2-2.49l-.13-.02c-.67-.12-1.36-.25-2.02-.5-.2-.08-.4-.16-.6-.25-.33-.15-.65-.29-.98-.37-.53-.13-1.02-.06-1.32.19a.37.37 0 0 1-.53-.04.378.378 0 0 1 .04-.53c.49-.42 1.21-.54 1.99-.35.39.1.75.26 1.1.41.18.08.37.16.56.24.6.23 1.26.35 1.9.47l.13.03c3.45.64 6.91 1.49 10.28 2.51l.52.16c1.37.42 2.8.86 4.23 1.02.26.03.55.05.78-.03.17-.07.31-.22.3-.35 0-.18-.26-.37-.72-.53l-4.59-1.59c-.41-.14-1.03-.36-1.35-.89a.37.37 0 0 1-.04-.29c.02-.1.09-.18.17-.23.87-.51 1.9-.3 2.87-.05l1.92.5c.51.13.92.22 1.29.11.27-.08.5-.32.61-.63.11-.31.08-.64-.07-.88-.35-.51-1.09-.64-1.83-.73l-2.87-.35a.375.375 0 0 1-.33-.42c.02-.21.21-.35.42-.33l2.87.35c.87.11 1.84.28 2.36 1.06.29.43.35 1.01.16 1.55-.19.54-.6.95-1.1 1.1-.6.19-1.21.03-1.7-.1l-1.92-.5c-.61-.16-1.24-.3-1.78-.21.17.09.36.16.56.23l4.59 1.59c.29.1 1.18.41 1.23 1.2.02.46-.3.91-.78 1.09-.22.08-.45.11-.66.11Z"
  />
  <path
    d="M167.88 148.04c-.15 0-.29-.09-.35-.23l-.11-.27s-.03-.1-.03-.14a32.23 32.23 0 0 1-1.57-9.94.38.38 0 1 1 .76 0c0 3.44.56 6.83 1.66 10.09.06.19-.03.4-.22.47-.04.02-.09.02-.13.02Z"
  />
  <path
    d="M166.94 147.77c-.07 0-.13-.02-.19-.05-.22-.13-.36-.21-.45-.25-.04.02-.09.04-.15.04a.38.38 0 0 1-.39-.27c-.8-3.08-1.54-6.35-1.2-9.62.02-.19.18-.33.37-.34.19 0 .35.14.37.33.38 3.18.89 6.55 1.98 9.65.05.15 0 .32-.12.42a.35.35 0 0 1-.24.08ZM148.51 152.65c-.15 0-.29-.09-.35-.24-.21-.54-.09-1.21.31-1.75.34-.45.8-.76 1.21-1.04.59-.4 1.19-.8 1.79-1.19.76-.5 1.81-1.19 2.98-1.25.63-.02 1.22.12 1.79.27.24.06.48.12.71.17.72.14 1.45.15 2.22.17.29 0 .57.01.86.02 1.12.05 2.24.2 3.33.45.2.05.33.25.28.45-.05.2-.25.33-.45.28-1.04-.24-2.12-.39-3.19-.43-.28-.01-.56-.02-.84-.02-.77-.01-1.57-.03-2.35-.18-.25-.05-.5-.11-.76-.18-.54-.14-1.05-.27-1.57-.25-.89.04-1.71.53-2.6 1.12-.6.39-1.19.79-1.78 1.19-.38.25-.77.51-1.03.86-.25.33-.33.73-.22 1.03a.38.38 0 0 1-.21.49c-.05.02-.09.03-.14.03Z"
  />
  <path
    d="M148.21 156.52c-.05 0-.11-.01-.16-.03-.36-.16-.77-.58-.73-1.66.02-.64.11-1.28.25-1.91.04-.17.08-.34.2-.51.14-.2.35-.32.53-.41.52-.25 1.07-.38 1.61-.5l.61-.15c.84-.23 1.39-.53 1.73-.96.13-.16.36-.19.53-.06s.19.36.06.53c-.58.73-1.49 1.04-2.12 1.21-.21.06-.42.11-.63.16-.52.12-1.01.24-1.46.45-.09.04-.2.1-.24.16-.04.05-.06.15-.08.24-.13.58-.21 1.18-.23 1.77 0 .24 0 .81.29.95.19.09.27.31.18.5a.37.37 0 0 1-.34.22Z"
  />
  <path
    d="M151.28 161.09c-.07 0-.14 0-.21-.02a.988.988 0 0 1-.64-.46c-.17-.27-.23-.62-.16-.93.1-.44.44-.84.94-1.11.23-.12.47-.22.72-.31.14-.05.27-.1.4-.16.57-.25 1.08-.65 1.45-1.15-.36-.07-.78-.02-1.17.14-.58.23-1.06.66-1.46 1.04l-.1.1c-.35.34-.71.7-1.21.88-.61.23-1.44.1-1.79-.53-.13-.24-.16-.5-.18-.71-.08-.75-.13-1.59.43-2.19.41-.44.98-.56 1.49-.67l.29-.06c.01-.07.04-.13.09-.19.47-.51 1.17-.78 1.86-.8.15 0 .29.1.35.24.05.14.02.31-.1.41-.55.5-1.22.86-1.94 1.05l-.39.09c-.44.09-.85.18-1.1.45-.34.37-.3 1.02-.23 1.6.02.16.04.32.1.43.14.26.56.3.86.19.35-.13.64-.42.95-.72l.1-.1c.42-.41 1-.92 1.7-1.2.77-.31 1.58-.3 2.21.03.09.05.16.13.19.23s.02.2-.03.29c-.47.81-1.2 1.46-2.05 1.84-.15.06-.29.12-.44.18-.21.08-.42.16-.62.26-.31.17-.51.39-.57.62-.03.11 0 .25.06.35.03.05.08.11.16.12.1.02.26-.02.4-.06l2.64-.78c.54-.16 1.1-.33 1.68-.45 1.03-.22 2.08-.31 3.1-.39.5-.04 1.01-.08 1.51-.14 1.87-.21 3.15-.62 4.17-1.33.34-.24.68-.53 1.01-.82.84-.72 1.71-1.47 2.87-1.57.21-.02.39.14.4.34.02.21-.14.39-.34.4-.91.08-1.65.71-2.44 1.39-.34.3-.7.6-1.07.86-1.46 1.01-3.27 1.32-4.51 1.46-.51.06-1.02.1-1.53.14-1 .08-2.03.16-3 .38-.54.12-1.09.28-1.62.44l-2.64.78c-.15.04-.34.1-.55.1Z"
  />
  <path
    d="M152.5 169.57a.37.37 0 0 1-.26-.1c-1.09-1.05-1.85-2.37-2.58-3.64-.37-.65-.75-1.32-1.17-1.93-.55-.8-2.53-3.4-5.09-3.01-.13.02-.25-.03-.34-.12s-.11-.22-.08-.35c.81-2.99 1.85-5.94 3.1-8.77.08-.19.31-.28.49-.19.19.08.28.3.19.49a62.287 62.287 0 0 0-2.92 8.15c1.86.03 3.79 1.21 5.26 3.37.44.64.83 1.32 1.2 1.98.74 1.29 1.43 2.5 2.45 3.47.15.14.15.38.01.53-.07.08-.17.12-.27.12Z"
  />
  <path
    d="M137.73 203.38c-.12 0-.24 0-.37-.03-.65-.09-1.21-.41-1.72-.74a30.736 30.736 0 0 1-4.93-3.88c-.57-.55-1.19-1.21-1.31-2.1-.07-.55.07-1.07.23-1.6.28-.92.6-1.84.95-2.74.35-.9.75-1.83 1.51-2.52.34-.31.73-.54 1.1-.76.24-.14.48-.29.7-.45 1.98-1.45 2.42-4.17 2.7-6.84l.9-8.52c.26-2.52.56-5.37 1.79-7.82.95-1.91 2.39-3.48 3.78-5 .14-.15.38-.16.53-.02.15.14.16.38.02.53-1.36 1.48-2.76 3.01-3.66 4.82-1.16 2.34-1.44 5-1.71 7.57l-.9 8.52c-.29 2.71-.78 5.74-3 7.37-.24.18-.5.33-.76.49-.36.21-.69.42-.98.67-.64.58-1 1.42-1.31 2.23-.34.89-.65 1.79-.93 2.69-.14.45-.26.88-.2 1.28.08.64.6 1.19 1.09 1.66 1.47 1.42 3.09 2.69 4.81 3.78.45.28.92.57 1.42.63.51.07 1.05-.08 1.64-.27 1.95-.62 3.9-1.34 5.8-2.14 1.01-.42 1.98-.87 2.64-1.63.7-.81.99-1.93 1.27-3.01.06-.23.12-.46.19-.69.21-.74.47-1.48.72-2.19.18-.51.36-1.01.52-1.52.56-1.78.93-3.66 1.29-5.48.53-2.7 1.08-5.49 2.27-8.04.1-.21.21-.43.31-.64.38-.76.73-1.47.88-2.25.16-.81.06-1.96-.73-2.57a.39.39 0 0 1-.07-.53c.12-.16.36-.19.53-.07.88.67 1.27 1.97 1.01 3.31-.17.88-.57 1.67-.95 2.44-.1.21-.21.42-.31.63-1.15 2.46-1.69 5.21-2.22 7.87-.36 1.84-.73 3.75-1.31 5.57-.16.52-.35 1.03-.53 1.55-.25.7-.5 1.42-.71 2.15-.06.22-.12.45-.18.68-.3 1.16-.62 2.37-1.43 3.31-.76.89-1.86 1.39-2.91 1.83-1.91.8-3.89 1.53-5.86 2.16-.56.18-1.07.33-1.6.33Z"
  />
  <path
    d="M169 176.73h-.05c-4.5-.62-9.04-1.41-13.51-2.33a.375.375 0 0 1-.29-.44c.04-.2.24-.33.44-.29 4.45.92 8.98 1.71 13.46 2.33a.371.371 0 0 1-.05.74Z"
  />
  <path
    d="M182.78 205.86c-.43 0-.87-.04-1.32-.12-1.46-.26-2.82-.92-3.96-1.53-1.5-.8-3.21-1.82-4.45-3.35-1.47-1.81-2.28-4.31-2.48-7.65-.06-1.02-.07-2.05-.08-3.05-.02-1.6-.03-3.25-.27-4.85-.12-.82-.3-1.65-.48-2.46-.09-.4-.17-.8-.26-1.2-.79-3.93-1.13-9.54 1.7-13.98.11-.17.34-.23.52-.12.17.11.23.34.11.52-2.7 4.23-2.36 9.63-1.59 13.43.08.4.17.8.25 1.19.18.82.36 1.66.49 2.51.24 1.65.26 3.32.27 4.95.01.99.02 2.01.08 3.01.19 3.18.95 5.54 2.32 7.22 1.15 1.42 2.78 2.39 4.22 3.16 1.09.58 2.39 1.2 3.75 1.45 1.41.26 2.75.06 3.75-.55.25-.15.49-.33.73-.51.27-.2.55-.42.85-.59.42-.25.88-.42 1.31-.58.44-.17.86-.32 1.23-.55 1.73-1.03 2.25-3.29 2-5.08-.28-2.01-1.38-3.9-2.35-5.56l-1.49-2.56c-.36-.62-.74-1.27-.94-2.01-.22-.85-.17-1.72-.13-2.55.32-5.96.38-12.88-1.64-19.35l-.09-.27c-.41-1.31-.84-2.67-.44-4.02.06-.2.27-.31.47-.25.2.06.31.27.25.47-.34 1.13.06 2.37.44 3.58l.09.27c2.05 6.58 2 13.59 1.68 19.57-.04.82-.09 1.63.1 2.36.17.64.52 1.24.86 1.82l1.49 2.56c1 1.72 2.14 3.68 2.44 5.83.28 2.03-.34 4.62-2.36 5.83-.44.26-.9.44-1.35.61-.43.16-.83.31-1.2.53-.27.16-.53.35-.78.54-.26.19-.51.39-.79.56-.84.51-1.86.77-2.96.77ZM194.41 154.83a1.9 1.9 0 0 1-.41-.04c-.43-.08-.82-.29-1.16-.48l-1.86-1.03c-1.06-.59-2.27-1.26-3.15-2.26-.53-.61-.95-1.32-1.35-2.02-.66-1.14-1.28-2.22-2.36-2.73a.372.372 0 0 1-.18-.5c.09-.19.31-.27.5-.18 1.3.6 2.01 1.84 2.7 3.03.38.66.77 1.35 1.26 1.9.8.91 1.89 1.51 2.96 2.1l1.86 1.03c.32.18.62.34.93.4.52.1 1.1-.11 1.6-.3l3-1.09c.34-.12.69-.25.96-.46.51-.39.76-1.07 1-1.79.23-.69.4-1.27.43-1.87.05-1.22-.52-2.34-1.12-3.53-.21-.42-.43-.84-.61-1.27-.12-.28-.23-.57-.35-.85-.39-.99-.75-1.92-1.49-2.54-.17-.14-.36-.27-.54-.39-.22-.15-.44-.29-.64-.46-.31-.27-.56-.58-.8-.88-.21-.26-.4-.51-.63-.72-.4-.37-.9-.63-1.43-.91-.23-.12-.45-.24-.67-.36-.57-.33-1.09-.72-1.6-1.1-.27-.2-.54-.4-.82-.59a15.143 15.143 0 0 0-8.09-2.68c-.21 0-.37-.18-.36-.39 0-.21.17-.39.39-.36 3.01.09 6.03 1.09 8.5 2.81.28.2.56.4.83.61.49.37 1 .75 1.53 1.05.21.12.43.23.64.35.55.29 1.12.58 1.59 1.02.27.25.49.53.71.8.23.29.45.56.71.78.18.15.37.28.56.41.21.14.42.28.61.44.88.75 1.3 1.81 1.7 2.84.11.28.22.56.34.83.18.41.39.82.59 1.23.62 1.22 1.26 2.48 1.2 3.9-.03.75-.27 1.49-.46 2.07-.27.84-.58 1.63-1.25 2.15-.36.28-.78.43-1.16.57l-3 1.09c-.46.17-1.01.37-1.59.37Z"
  />
  <path
    d="M194.32 194.79h-.06a26.42 26.42 0 0 0-3.88-.38c-.21 0-.37-.18-.37-.38 0-.21.13-.36.38-.37 1.21.03 2.42.14 3.61.33.11-1.06-.13-2.12-.39-3.25-.18-.79-.37-1.61-.43-2.44-.08-1.24.13-2.46.34-3.64.09-.53.19-1.06.25-1.59.31-2.49.03-5.05-.25-7.54-.13-1.13-.26-2.31-.33-3.47-.16-2.51-.06-5.06.04-7.52.09-2.22.18-4.51.08-6.76 0-.21.15-.38.36-.39.2 0 .38.15.39.36.1 2.28 0 4.59-.08 6.82-.1 2.44-.2 4.97-.04 7.44.07 1.14.2 2.3.33 3.43.28 2.53.57 5.14.25 7.71-.07.54-.16 1.09-.26 1.63-.21 1.19-.41 2.32-.33 3.46.05.77.24 1.55.41 2.32.3 1.27.6 2.59.35 3.92-.03.18-.19.3-.37.3Z"
  />
  <path
    d="M192.96 186.43s-.08 0-.12-.02c-.41-.14-.86-.15-1.34-.16h-.37a10.64 10.64 0 0 1-4.1-1.06c-.19-.09-.26-.32-.17-.5s.31-.26.5-.17c1.18.58 2.49.91 3.8.97h.35c.51.02 1.04.04 1.56.21.2.07.3.28.24.47-.05.16-.2.26-.36.26ZM191.78 195.66c-.14 0-.27-.08-.34-.21a.377.377 0 0 1 .17-.5l1.68-.81c.19-.09.41-.01.5.17.09.19.01.41-.17.5l-1.68.81c-.05.03-.11.04-.16.04ZM141.12 156.1h-.04a.364.364 0 0 1-.33-.41l.23-2.27c.02-.21.2-.35.41-.33.21.02.36.21.33.41l-.23 2.27c-.02.19-.18.34-.37.34Z"
  />
  <path
    d="M138.15 171.13c-.18 0-.33-.12-.37-.3l-.11-.56c-.01-.07 0-.14.02-.2-.22-2.5.34-4.99.88-7.4.4-1.78.81-3.62.9-5.44.02-.37.04-.82.33-1.17.24-.28.58-.4.84-.49l2.8-.98c.2-.07.41.04.48.23.07.2-.03.41-.23.48l-2.8.98c-.19.07-.4.14-.51.27-.13.16-.15.44-.16.72-.1 1.89-.51 3.76-.92 5.57-.61 2.7-1.18 5.26-.78 7.87.03.2-.11.39-.31.43h-.06ZM151.21 192.58c-.35 0-.71-.02-1.06-.07a.366.366 0 0 1-.32-.42c.03-.21.21-.35.42-.32 3.98.52 7.7-2.29 9.61-5.31 2.14-3.37 2.93-7.55 3.63-11.24.03-.17.17-.29.34-.3.17-.01.33.09.38.25.23.65.46 1.31.69 1.97 1.73 4.96 3.37 9.65 6.84 13.08.15.15.15.38 0 .53-.15.15-.38.15-.53 0-3.6-3.55-5.34-8.54-7.02-13.37-.08-.22-.15-.44-.23-.66-.66 3.39-1.52 7.06-3.47 10.14-2.26 3.56-5.82 5.72-9.29 5.72Z"
  />
  <path
    d="M157.58 191.78c-.67 0-1.34 0-2.01-.03-.21 0-.37-.18-.36-.39s.18-.35.39-.36c3.13.09 6.3-.03 9.41-.37l.4-.04c1.91-.21 3.89-.43 5.73.24.19.07.3.29.22.48-.07.19-.28.3-.48.22-1.68-.61-3.57-.4-5.39-.2l-.4.04c-2.48.27-5 .4-7.5.4ZM151.14 254.02c-.09 0-.18-.03-.25-.1a.378.378 0 0 1-.02-.53c1.15-1.26 1.57-3.07 1.95-4.67 2.31-9.91 4.76-19.93 7.28-29.8.53-2.06 1.07-4.19 1.96-6.23.26-.59.54-1.17.83-1.74.44-.89.9-1.81 1.23-2.76.54-1.53.76-3.16.94-4.58.45-3.66.66-7.38.65-11.07 0-.21.17-.38.37-.38.21 0 .37.17.38.37.02 3.72-.2 7.47-.65 11.16-.18 1.45-.41 3.14-.97 4.73-.35.99-.81 1.93-1.26 2.84-.28.57-.56 1.13-.81 1.71-.87 1.98-1.4 4.08-1.92 6.11-2.52 9.87-4.97 19.89-7.28 29.79-.39 1.69-.84 3.6-2.12 5-.07.08-.18.12-.28.12Z"
  />
  <path
    d="M167.63 212.98a.36.36 0 0 1-.22-.07c-1.2-.87-1.45-2.48-1.53-3.78v-.21c-.09-1.19-.17-2.43-.88-3.28a.38.38 0 0 1 .05-.53c.16-.13.4-.11.53.05.87 1.04.96 2.46 1.04 3.71v.21c.09 1.14.29 2.54 1.24 3.23a.37.37 0 0 1-.22.67Z"
  />
  <path
    d="M172.91 290.89c-.1 0-.2-.04-.28-.12-.58-.62-.63-1.5-.63-2.34v-6.68c-.01-6.77-.02-13.76 1.2-20.55-.55-.89-.39-1.99-.23-3.05.16-1.04.31-2.03-.16-2.83l-.12-.19c-.23-.37-.52-.83-.31-1.34.09-.23.26-.38.39-.51.05-.04.09-.09.13-.13.54-.6.09-1.63-.3-2.54-1-2.32-1.13-4.9-1.24-7.16l-.45-9.26c-.09-1.95-.19-3.96-.47-5.92-.31-2.21-.85-4.45-1.38-6.62-1.11-4.57-2.26-9.3-1.28-13.97.04-.2.24-.33.44-.29.2.04.33.24.29.44-.94 4.5.19 9.15 1.28 13.64.53 2.19 1.08 4.45 1.4 6.7.28 1.99.38 4.02.47 5.98l.45 9.26c.11 2.31.23 4.7 1.15 6.85.46 1.06 1.05 2.43.2 3.39l-.18.18c-.09.08-.18.17-.21.24-.06.16.1.42.25.66l.13.21c.6 1.02.42 2.19.25 3.31-.15 1.01-.3 1.97.18 2.64.06.08.08.19.07.29-1.23 6.78-1.23 13.79-1.22 20.57v6.68c0 .72.04 1.4.43 1.83.14.15.13.39-.02.53-.07.07-.16.1-.25.1Z"
  />
  <path
    d="M178.12 297.67c-.62 0-1.25-.03-1.87-.12-2.08-.32-3.71-1.42-4.35-2.93-.48-1.14-.38-2.36-.28-3.53.06-.67.12-1.36.06-2.01a.38.38 0 0 1 .34-.41c.2-.02.39.14.4.34.06.71 0 1.44-.06 2.14-.1 1.14-.19 2.21.22 3.18.54 1.27 1.95 2.2 3.77 2.48 1.09.17 2.18.12 3.34.07a24.3 24.3 0 0 1 1.7-.05c.11 0 .27 0 .32-.04.04-.03.08-.13.1-.18 1.06-2.6.71-5.59.4-8.22a.38.38 0 0 1 .33-.42c.21-.03.39.12.42.33.3 2.59.68 5.81-.45 8.59-.06.16-.15.34-.32.48-.29.23-.63.21-.87.21-.53 0-1.06.02-1.59.04s-1.07.05-1.62.05ZM186.85 235.17a.8.8 0 0 1-.71-.41c-.21-.41-.06-.86.03-1.12 3.53-10.33 5.05-21.54 4.41-32.43-.01-.21.15-.38.35-.4.2-.03.38.14.4.35.65 10.99-.89 22.3-4.45 32.72-.07.2-.14.42-.08.54.08-.14.24-.21.41-.17.2.05.33.25.28.45-.06.26-.27.44-.55.47h-.1Z"
  />
  <path
    d="M186.78 252.79c-.21 0-.37-.17-.38-.37-.02-1.84.15-3.7.31-5.49.09-.94.17-1.89.23-2.83.29-4.55-.04-9.2-.36-13.7-.42-5.86-.85-11.91.08-17.81a.376.376 0 0 1 .74.12c-.92 5.82-.49 11.83-.07 17.64.32 4.53.66 9.21.36 13.8-.06.95-.15 1.9-.24 2.85-.16 1.77-.33 3.61-.31 5.41 0 .21-.16.38-.37.38Z"
  />
  <path
    d="M182.08 286.26c-.14 0-.29-.05-.36-.14-.11-.12-.25-.39.02-.81 1.3-1.97 2-4.29 2.56-6.31a94.215 94.215 0 0 0 3.41-24.65c-2.86-1-5.44-2.71-7.47-4.96a.37.37 0 0 1 .03-.53.37.37 0 0 1 .53.03c2.01 2.22 4.57 3.89 7.41 4.84.15.05.26.19.26.36a95.183 95.183 0 0 1-3.44 25.12c-.56 2.02-1.26 4.33-2.55 6.36.03.04.05.08.06.13.05.23-.1.44-.27.53-.05.03-.11.04-.18.04Z"
  />
  <path
    d="M183.02 289.77s-.07 0-.11-.02a.375.375 0 0 1-.25-.47c.64-2.09.95-4.25.9-6.43 0-.21.16-.38.37-.38.2 0 .37.16.38.37.05 2.26-.27 4.5-.94 6.67-.05.16-.2.26-.36.26ZM185.21 248.56c-.07 0-.15-.02-.22-.07-1.42-1-2.55-2.44-3.18-4.06-.4-1.03-.5-1.9-.29-2.68.14-.53.43-1 .68-1.41l2.41-3.93c.11-.18.34-.23.52-.12.18.11.23.34.12.52l-2.41 3.93c-.24.39-.48.79-.6 1.21-.16.61-.08 1.33.27 2.21.58 1.48 1.62 2.8 2.92 3.72.17.12.21.35.09.52-.07.1-.19.16-.31.16ZM178.04 236.79a.3.3 0 0 1-.22-.08.36.36 0 0 1-.07-.52c1.59-2.12 2.7-4.84 3.32-8.09.55-2.93.66-5.96.75-8.9 0-.21.15-.36.39-.36.21 0 .37.18.36.39-.1 2.96-.2 6.02-.77 9.01-.63 3.37-1.8 6.19-3.46 8.4a.37.37 0 0 1-.3.15ZM149.51 237.53c-.17 0-.33-.12-.37-.3-1.8-8.82-3.37-17.8-4.67-26.71-.03-.2.11-.39.32-.42.21-.03.4.11.43.32 1.3 8.89 2.86 17.86 4.66 26.67.04.2-.09.4-.29.44h-.08ZM140.29 239.31a.37.37 0 0 1-.32-.19c-1.65-2.84-1.85-6.16-1.93-9.59-.2-8.94.14-17.99 1.01-26.9.02-.21.2-.36.41-.34.21.02.36.2.34.41-.87 8.88-1.2 17.9-1.01 26.81.07 3.33.27 6.55 1.83 9.23a.375.375 0 0 1-.33.56Z"
  />
  <path
    d="M138.62 253.13c-.32 0-.65-.14-.86-.4a.34.34 0 0 1-.07-.15c-.28-1.28-.46-2.87.61-3.78.1-.09.21-.16.32-.24.13-.09.26-.18.35-.28.33-.37.25-1.02.13-1.6l-.06-.28c-.26-1.28-.54-2.6-.13-3.88.15-.46.38-.88.6-1.28.14-.26.29-.52.4-.79.29-.66.43-1.39.57-2.19 1.24-7.03 1.75-14.22 1.52-21.35 0-.21.16-.38.36-.39.2-.01.38.16.39.36.23 7.19-.28 14.43-1.53 21.51-.15.86-.3 1.62-.62 2.36-.13.29-.28.57-.43.85-.21.39-.41.76-.54 1.15-.35 1.09-.1 2.32.15 3.5l.06.29c.15.76.24 1.63-.31 2.25-.15.17-.33.29-.49.4-.09.06-.18.12-.26.19-.74.64-.61 1.9-.39 2.95.11.08.3.09.41.01.17-.12.4-.09.52.08.12.17.09.4-.08.52-.19.14-.41.2-.63.2Z"
  />
  <path
    d="M137.46 289.24c-.17 0-.32-.11-.36-.28a48.394 48.394 0 0 1-1.46-16.03c.08-1.02.19-2.04.29-3.05.09-.87.19-1.75.26-2.62.17-2.08.23-4.2.28-6.25l.04-1.43c.04-1.32.07-2.68.23-4.01.05-.39.11-.81.31-1.18.17-.32.44-.6.8-.83 1.37-.91 2.99-.62 4.55-.33.9.16 1.84.34 2.7.26 2.27-.19 4.09-2.03 5.76-3.89.14-.15.38-.17.53-.03.15.14.17.38.03.53-1.77 1.98-3.71 3.93-6.26 4.14-.96.08-1.94-.1-2.89-.27-1.48-.27-2.88-.52-4 .22-.25.17-.44.36-.55.57-.14.26-.19.58-.23.91-.16 1.3-.19 2.64-.23 3.94l-.04 1.44c-.05 2.06-.11 4.19-.29 6.29-.07.88-.17 1.76-.26 2.64-.11 1.01-.22 2.02-.29 3.03-.4 5.32.08 10.63 1.44 15.78.05.2-.07.41-.27.46-.03 0-.06.01-.1.01Z"
  />
  <path
    d="M140.9 299.41c-.53 0-1.07-.04-1.6-.15-1.57-.32-2.8-1.25-3.31-2.46-.59-1.41-.15-2.98.24-4.35a55.53 55.53 0 0 0 2.05-13.06c0-.21.19-.37.39-.36.21 0 .37.18.36.39-.16 4.45-.86 8.89-2.06 13.18-.39 1.38-.77 2.75-.29 3.92.41.99 1.44 1.74 2.77 2.02 1.24.25 2.53.1 3.79-.05 1.39-.17 2.92-.44 3.58-1.56.31-.53.38-1.21.44-1.81l.45-4.3c.02-.21.21-.34.41-.33.21.02.36.21.33.41l-.45 4.3c-.07.68-.15 1.45-.54 2.11-.79 1.35-2.45 1.72-4.13 1.93-.77.09-1.59.19-2.43.19Z"
  />
  <path
    d="M147.19 292.12c-.12 0-.24-.06-.31-.17a.404.404 0 0 1-.03-.37c.97-2.09 1.29-4.43 1.6-6.69 1.17-8.56 2.37-17.41 1.93-26.18-.01-.21.15-.38.36-.39.2 0 .38.15.39.36.44 8.84-.77 17.72-1.94 26.32-.29 2.12-.59 4.31-1.42 6.34h.2c.21-.02.38.14.39.35s-.15.38-.36.39l-.8.04h-.02Z"
  />
  <path
    d="M149.89 260.03h-.04a.375.375 0 0 1-.33-.42c.08-.72.39-1.42.87-1.97.08-.1.17-.19.26-.28.13-.14.27-.27.38-.43.06-.09.12-.21.15-.33-.1-.04-.2-.1-.27-.18-.16-.19-.18-.43-.2-.57-.08-1-.1-2.01-.06-3 0-.21.19-.35.39-.36.21 0 .37.18.36.39-.04.96-.02 1.94.06 2.9v.03h.1c.14.02.26.11.31.24.15.39.07.87-.22 1.29-.13.19-.3.36-.46.53-.08.08-.16.16-.23.25-.38.43-.62.99-.69 1.56a.37.37 0 0 1-.37.33Zm1.32-4.05Zm.28-.04Z"
  />
  <path
    d="M149.64 260.17c-.15 0-.29-.09-.35-.24a8.357 8.357 0 0 0-3.18-3.89.383.383 0 0 1-.11-.52c.11-.17.35-.22.52-.11a9.182 9.182 0 0 1 3.47 4.24.38.38 0 0 1-.21.49c-.05.02-.09.03-.14.03ZM185.77 262.81c-.13 0-.26-.07-.32-.19-.86-1.48-1.89-2.85-3.06-4.08a.376.376 0 0 1 .12-.61c.21-.09.23-.53.14-.92-.22-1.07-.57-2.12-1.02-3.12-.09-.19 0-.41.19-.5.19-.08.41 0 .5.19.48 1.05.84 2.15 1.08 3.28.13.62.06 1.13-.19 1.46 1.1 1.2 2.08 2.52 2.9 3.93a.375.375 0 0 1-.33.56ZM186.53 315.32c-.48 0-1-.06-1.54-.2a10.526 10.526 0 0 1-6.18-4.27c-.32-.44-.62-.86-1-1.19-.57-.49-1.28-.78-2.03-1.08-.29-.12-.59-.23-.87-.37-1.41-.64-2.26-1.58-2.42-2.64-.1-.69.1-1.33.29-1.95.08-.27.17-.54.22-.81.23-1.09 0-2.21-.25-3.39-.25-1.2-.5-2.44-.25-3.67.04-.2.24-.34.44-.29.2.04.33.24.29.44-.22 1.09 0 2.2.25 3.37.25 1.21.5 2.45.25 3.7-.06.29-.15.59-.24.88-.18.57-.34 1.1-.27 1.62.16 1.08 1.31 1.76 1.99 2.07.27.12.56.24.84.35.78.31 1.58.63 2.25 1.21.44.39.78.86 1.11 1.31.11.16.22.31.34.46 1.34 1.75 3.27 3 5.41 3.52.82.2 2.34.4 3.3-.45.13-.12.33-.13.47-.02.34.26.88.23 1.3.18 1.06-.13 1.75-.41 2.18-.89.67-.74.61-1.88.26-2.68-.43-.99-1.3-1.75-2.01-2.3a18.57 18.57 0 0 0-2.92-1.87l-.32-.16c-.68-.34-1.39-.7-1.94-1.28-.41-.43-.69-.94-.97-1.43-.17-.3-.33-.6-.53-.88-.28-.4-.63-.76-1-1.13-.34-.35-.7-.72-1-1.13-.63-.86-1.09-2.16-.47-3.24a.375.375 0 0 1 .65.37c-.44.76-.05 1.78.42 2.42.27.37.6.7.94 1.05.37.38.75.77 1.07 1.23.21.3.39.63.57.95.26.47.51.92.85 1.28.46.48 1.08.8 1.73 1.12l.32.17c1.07.55 2.09 1.21 3.04 1.94.78.61 1.73 1.45 2.23 2.59.53 1.23.38 2.62-.39 3.48-.74.82-1.87 1.04-2.65 1.13-.48.06-1.08.09-1.58-.16-.58.42-1.34.64-2.21.64ZM132.17 315.98c-.44 0-.79-.13-.99-.37-.79.17-1.58.15-2.29-.06-.66-.19-1.23-.54-1.79-.88-.65-.4-1.31-.85-1.51-1.61-.14-.52-.03-1.03.11-1.51.16-.58.36-1.25.76-1.82.59-.83 1.48-1.29 2.34-1.74.58-.3 1.12-.58 1.58-.97.58-.49 1.01-1.12 1.46-1.8l.23-.34c.8-1.17 1.7-2.28 2.68-3.29l.22-.22c.45-.46.87-.89 1.17-1.4.38-.63.49-1.29.32-1.82a.37.37 0 0 1 .24-.47c.2-.06.41.04.47.24.24.73.1 1.62-.39 2.44-.35.59-.82 1.07-1.28 1.54l-.21.22c-.95.98-1.83 2.06-2.6 3.19l-.23.34c-.46.69-.94 1.4-1.6 1.96-.52.44-1.13.75-1.72 1.06-.82.42-1.59.82-2.08 1.51-.33.47-.5 1.04-.65 1.58-.11.4-.2.78-.11 1.12.13.49.64.83 1.18 1.16.51.31 1.05.64 1.61.81.66.19 1.42.19 2.17-.02.1-.03.21-.01.3.05.09.06.15.15.17.26.01.07.27.14.63.1l2.95-.37c.51-.06 1.03-.13 1.48-.34.51-.25.93-.7 1.33-1.13.85-.93 1.74-1.88 2.28-3.02.12-.25.23-.48.44-.66.17-.15.36-.23.53-.29l3.23-1.29c.21-.08.4-.16.53-.29.13-.13.2-.33.25-.49.39-1.22.15-2.58-.08-3.9l-.09-.5c-.25-1.47-.41-3.33.58-4.75a.37.37 0 0 1 .52-.09c.17.12.21.35.09.52-.83 1.19-.68 2.87-.45 4.2l.09.49c.25 1.4.5 2.86.06 4.25-.08.24-.2.55-.44.8-.23.23-.52.35-.78.45l-3.23 1.29c-.12.05-.24.1-.32.16-.09.08-.16.22-.23.37-.62 1.29-1.54 2.29-2.43 3.26-.43.46-.91.99-1.55 1.3-.55.27-1.17.34-1.71.41l-2.95.37c-.1.01-.21.02-.3.02Z"
  />
</svg>
