<svg xmlns="http://www.w3.org/2000/svg" viewBox="0 0 320 320">
  <path
    d="M161.17 97.66c-.85 0-1.73-.32-2.45-.9-.79-.65-1.39-1.59-1.72-2.73-.27-.95-.34-1.94-.36-2.78-.02-.6-.02-1.24.21-1.84.28-.73.89-1.38 1.81-1.93a8.042 8.042 0 0 1 4.08-1.11h.03c1 0 1.83.22 2.46.63.93.61 1.42 1.63 1.75 2.44.64 1.59.82 2.95.55 4.14-.61 2.67-3.43 4.22-5.69 4.01-.21.04-.43.06-.65.06Zm1.56-10.54c-1.3 0-2.58.35-3.7 1.01-.77.46-1.27.98-1.49 1.54-.18.47-.18 1.03-.16 1.55.02.79.08 1.72.33 2.6.2.69.62 1.66 1.47 2.36.75.61 1.69.86 2.53.67h.12c1.92.19 4.43-1.16 4.95-3.43.24-1.04.07-2.24-.51-3.69-.29-.72-.72-1.6-1.47-2.1-.51-.33-1.2-.51-2.05-.51h-.03Z"
  />
  <path
    d="M162.66 98.75h-.09c-1.26-.02-2.49-.43-3.57-.78-.56-.19-1.2-.4-1.72-.83-.57-.48-.85-1.15-.74-1.76-.38-.53-.56-1.16-.7-1.77-.22-.91-.4-1.88-.3-2.85.13-1.18.76-2.19 1.03-2.56 1.11-1.57 2.28-2.63 3.58-3.23 1.65-.77 3.51-.72 4.85.14 1.33.85 2.04 2.34 2.61 3.83.4 1.05.83 2.28.87 3.58.05 1.43-.42 2.72-1.29 3.55l-.27.24c-.12.1-.24.21-.35.33-.1.11-.19.23-.28.36-.08.11-.15.21-.23.31-.73.9-1.99 1.44-3.39 1.44Zm-5.48-10.11c-.48.68-.82 1.51-.89 2.21-.09.8.05 1.62.28 2.59.14.58.3 1.18.67 1.62.08.1.11.23.07.36-.14.41.13.88.46 1.15.41.34.95.52 1.47.69 1.08.36 2.21.73 3.35.75 1.21.02 2.28-.41 2.88-1.16.07-.09.14-.18.2-.27.1-.15.21-.29.33-.43.13-.14.27-.27.42-.39.08-.07.17-.14.24-.21.71-.68 1.1-1.77 1.06-2.99-.04-1.18-.45-2.34-.82-3.34-.52-1.37-1.16-2.74-2.31-3.47-1.12-.71-2.7-.75-4.13-.09-1.18.55-2.25 1.52-3.28 2.98Z"
  />
  <path
    d="M155.85 87.03c-.38 0-.75-.1-1.07-.35a.38.38 0 0 1-.07-.53.39.39 0 0 1 .53-.07c.43.33 1.09.19 1.51-.08.47-.3.82-.77 1.2-1.26l.12-.15c.42-.56.94-1.18 1.68-1.48.41-.17.83-.22 1.2-.26.67-.07 1.47-.1 2.21.16.84.29 1.47.93 1.64 1.68.04.2-.08.4-.28.45-.2.04-.4-.08-.45-.28-.11-.49-.56-.93-1.15-1.14-.61-.21-1.3-.18-1.89-.12-.31.03-.67.08-.98.21-.57.24-1.01.77-1.37 1.25l-.12.15c-.4.52-.81 1.06-1.39 1.44-.37.23-.83.39-1.3.39ZM168.24 87.9h-.07a.382.382 0 0 1-.3-.44c.03-.15.09-.49-.02-.61-.04-.04-.11-.07-.17-.11-.7-.33-1.47-.51-2.25-.53-.21 0-.37-.17-.37-.38s.18-.35.38-.37c.88.02 1.76.22 2.56.6.13.06.27.14.39.26.39.4.27.99.22 1.27-.04.18-.19.3-.37.3Z"
  />
  <path
    d="M168.6 89.46c-.18 0-.33-.12-.37-.3-.07-.35-.14-.75-.36-1.02-.28-.35-.81-.48-1.33-.58a.375.375 0 0 1-.29-.44c.04-.2.23-.34.44-.29.62.12 1.33.3 1.77.85.33.41.43.93.51 1.35.04.2-.09.4-.3.44h-.07ZM161.81 95.4c-.83 0-1.69-.44-2.2-1.17-.56-.81-.71-1.93-.39-2.98.14-.48.35-.83.63-1.09.38-.35.88-.49 1.27-.58.35-.08.81-.15 1.29-.07.77.14 1.48.7 1.88 1.5.4.78.47 1.67.19 2.44-.32.9-1.04 1.56-2.04 1.86-.21.06-.43.09-.64.09Zm.17-5.17c-.2 0-.42.03-.69.09-.3.06-.67.17-.92.4-.18.17-.32.41-.42.76-.25.84-.15 1.71.29 2.34.45.65 1.31.99 2.01.78.76-.23 1.31-.72 1.55-1.39.2-.57.14-1.27-.16-1.85-.3-.59-.8-1-1.35-1.1-.1-.02-.2-.03-.31-.03Z"
  />
  <path
    d="M162.09 93.8h-.08c-.23-.05-.49-.11-.74-.23-.31-.16-.55-.4-.66-.68-.12-.3-.08-.61-.05-.84.02-.15.05-.42.28-.61.14-.11.3-.14.39-.16.64-.11 1.15.03 1.44.39.15.2.24.45.26.77 0 .1.03.42-.16.68-.05.07-.11.12-.16.17-.08.07-.12.11-.16.23-.05.17-.2.27-.36.27Zm-.45-1.81c-.09 0-.18 0-.28.03-.04 0-.05.08-.05.11-.02.17-.04.36 0 .49.04.1.15.21.29.28.08.04.18.07.28.1.08-.12.17-.2.23-.25.06-.06.08-.11.07-.25 0-.16-.04-.28-.1-.35-.07-.09-.23-.14-.44-.14ZM152.56 88.28c-.12 0-.23-.01-.33-.03-.08-.01-.16-.02-.24-.02-.21-.02-.38-.16-.39-.36 0-.21.16-.38.36-.39.12 0 .25.01.37.03.12.02.22.03.3.02a.69.69 0 0 0 .27-.16c.23-.19.43-.42.59-.67.11-.18.34-.23.52-.12.18.11.23.34.12.52-.2.33-.45.62-.75.86-.14.12-.34.26-.58.31-.08.02-.16.02-.24.02Z"
  />
  <path
    d="M152.47 87.7h-.11l-.6-.05c-.06 0-.17-.01-.28-.08-.15-.08-.31-.27-.27-.66.02-.21.21-.36.42-.33.18.02.32.17.33.34l.45.02h.11a.38.38 0 0 1 .43-.16c.2.06.31.27.25.47-.04.14-.19.45-.73.45Zm-.51-.65ZM142.12 81.87s-.06 0-.09-.01a.376.376 0 0 1-.28-.45c.32-1.32.73-2.62 1.23-3.88.92-2.29 1.96-3.94 3.26-5.2 1.65-1.59 3.74-2.43 5.71-2.3.21.01.36.19.35.4-.01.21-.2.38-.4.35-1.77-.1-3.64.65-5.14 2.1-1.22 1.18-2.2 2.75-3.08 4.94-.49 1.22-.89 2.49-1.2 3.78-.04.17-.19.29-.36.29Z"
  />
  <path
    d="M144.08 89.51c-.15 0-.29-.09-.35-.23-.91-2.24-2.04-5.03-1.59-7.8.34-2.11 1.56-3.96 2.64-5.6.11-.17.35-.22.52-.11.17.11.22.35.11.52-1.04 1.57-2.21 3.35-2.53 5.3-.42 2.56.67 5.24 1.55 7.39.08.19-.01.41-.21.49-.05.02-.09.03-.14.03ZM146.82 84.21c-.17 0-.32-.11-.36-.28-.93-3.43-.67-7.12.71-10.38a.375.375 0 0 1 .69.29 15.269 15.269 0 0 0-.68 9.89c.05.2-.06.41-.26.46-.03 0-.07.01-.1.01ZM153.74 84.62c-.12 0-.24-.06-.31-.16-1.3-1.87-1.22-4.27-1.04-6.38l.02-.25c.17-2 .35-4.06-.5-5.79a.377.377 0 0 1 .17-.5.38.38 0 0 1 .5.17c.94 1.92.75 4.08.57 6.18l-.02.25c-.17 1.97-.25 4.22.9 5.88.12.17.08.4-.09.52-.07.05-.14.07-.21.07Z"
  />
  <path
    d="M157.81 85.55c-.06 0-.11-.01-.17-.04l-2.08-1.05c-.32-.16-.69-.35-.99-.65-.34-.35-.52-.8-.66-1.19a9.376 9.376 0 0 1-.42-4.3c.03-.26.08-.51.13-.77.09-.5.17-.98.18-1.46 0-.77-.25-1.42-.68-1.77a.38.38 0 0 1-.06-.53.38.38 0 0 1 .53-.06c.62.5.97 1.36.96 2.36 0 .54-.1 1.07-.19 1.59-.04.25-.09.49-.12.74-.18 1.33-.04 2.7.39 3.96.11.31.25.66.48.91.21.21.5.36.79.51l2.08 1.05c.19.09.26.32.17.5-.07.13-.2.21-.34.21ZM149.37 83.9c-.18 0-.34-.13-.37-.32-.26-1.81-.27-3.64-.03-5.45.03-.21.21-.34.42-.32.21.03.35.22.32.42-.23 1.74-.22 3.51.03 5.25.03.21-.11.4-.32.42h-.05ZM145.53 86.81a.37.37 0 0 1-.37-.33c-.18-1.64-.3-3.3-.35-4.94 0-.21.16-.38.36-.39.19-.03.38.16.39.36.05 1.62.16 3.26.34 4.88a.38.38 0 0 1-.33.42h-.04ZM162.63 80.53c-.1 0-.2-.04-.28-.12-.33-.36-.38-.82-.42-1.22l-.02-.18c-.14-1.14-.79-2.18-1.41-3.18-.13-.21-.27-.43-.39-.64l-.3-.51c-.38-.65-.73-1.27-1.21-1.79-1.14-1.24-2.86-1.81-4.38-2.32-.74-.25-1.44-.45-2.04-.22a.362.362 0 0 1-.48-.22.37.37 0 0 1 .22-.48c.82-.31 1.67-.08 2.54.21 1.53.51 3.43 1.14 4.7 2.52.54.58.93 1.26 1.31 1.92l.29.5.39.63c.67 1.08 1.36 2.19 1.52 3.49l.02.19c.03.32.06.62.22.79.14.15.13.39-.02.53-.07.07-.16.1-.25.1Z"
  />
  <path
    d="M172.56 85h-.02a.372.372 0 0 1-.35-.4c.21-3.33-.71-6.69-2.57-9.45-.52-.78-1.13-1.53-1.72-2.22-.76-.91-1.53-1.77-2.48-2.35-.63-.38-1.33-.64-1.95-.85-.8-.28-1.75-.58-2.73-.72-2.57-.38-5.25.34-7.58 1.08-.05.2-.32.36-.52.31a.477.477 0 0 1-.36-.55c.04-.2.19-.34.44-.41 2.46-.79 5.32-1.59 8.12-1.17 1.03.15 2.03.47 2.86.75.65.22 1.41.5 2.1.92 1.05.64 1.86 1.55 2.66 2.51.59.71 1.22 1.47 1.76 2.28 1.95 2.9 2.91 6.42 2.69 9.92-.01.2-.18.35-.37.35Z"
  />
  <path
    d="M170.94 83.4c-.2 0-.37-.16-.38-.37-.06-2.42-1.2-4.97-3.22-7.18-1.84-2.01-4.1-3.52-6.46-5.02a.383.383 0 0 1-.12-.52c.11-.18.34-.23.52-.12 2.3 1.46 4.71 3.07 6.61 5.15 2.13 2.34 3.35 5.06 3.41 7.67 0 .21-.16.38-.37.38Z"
  />
  <path
    d="M167.66 81.26h-.04a.364.364 0 0 1-.33-.41 9.97 9.97 0 0 0-1.36-6.11.363.363 0 0 1 .13-.51c.18-.1.41-.05.51.13 1.18 1.96 1.7 4.3 1.47 6.58-.02.19-.18.34-.37.34Z"
  />
  <path
    d="M166.76 78.58c-.15 0-.29-.09-.35-.23-.37-.9-.75-1.84-1.27-2.66-.17-.27-.36-.54-.55-.8-.53-.74-1.07-1.5-1.27-2.43-.04-.2.09-.4.29-.45.21-.04.4.09.45.29.17.78.64 1.45 1.15 2.15.2.28.39.55.57.84.56.88.95 1.85 1.33 2.78.08.19-.01.41-.21.49-.05.02-.09.03-.14.03ZM158.45 80.9c-.13 0-.26-.07-.33-.19-.19-.33-.22-.7-.26-1.02-.16-1.58-.4-3.17-.7-4.73-.03-.17-.06-.31-.13-.41-.13-.2-.41-.27-.74-.36-.24-.06-.49-.13-.72-.26a.375.375 0 1 1 .36-.66c.16.08.35.14.56.19.42.11.89.24 1.17.67.15.23.2.49.23.67.31 1.58.55 3.19.71 4.8.03.28.05.54.16.73a.375.375 0 0 1-.32.56ZM168.4 86.71c-.11 0-.22-.05-.3-.14-.13-.16-.1-.4.07-.53.25-.2.45-.53.55-.94.1-.4.11-.82.12-1.27 0-.21.17-.37.38-.37s.37.17.37.38c0 .47-.02.95-.14 1.43-.1.4-.32.96-.82 1.35a.4.4 0 0 1-.23.08Z"
  />
  <path
    d="M169.48 86.26c-.16 0-.3-.1-.35-.25a.38.38 0 0 1 .23-.48c.74-.25 1.33-.94 1.47-1.7.04-.2.23-.34.44-.3.2.04.34.24.3.44-.2 1.04-.97 1.93-1.97 2.27-.04.01-.08.02-.12.02Z"
  />
  <path
    d="M171.18 85.84a.34.34 0 0 1-.23-.08.37.37 0 0 1-.07-.53c.49-.65.82-1.42.95-2.23.03-.2.23-.34.43-.31.21.03.34.22.31.43-.15.93-.53 1.82-1.09 2.57a.37.37 0 0 1-.3.15Z"
  />
  <path
    d="M170.58 93.32s-.1 0-.15-.03a.375.375 0 0 1-.2-.49c.54-1.27 1.09-2.57 1.41-3.92.35-1.49.35-2.83.01-4-.06-.2.06-.41.26-.46.2-.05.41.06.46.26.38 1.29.38 2.77 0 4.38-.33 1.41-.9 2.75-1.45 4.04a.38.38 0 0 1-.34.23Z"
  />
  <path
    d="M170.63 90.41c-.05 0-.11-.01-.16-.03a.372.372 0 0 1-.18-.5c.48-1.04.62-2.24.38-3.36-.04-.2.09-.4.29-.45.21-.04.4.09.45.29.27 1.28.12 2.64-.43 3.83a.37.37 0 0 1-.34.22ZM169.38 88.38s-.09 0-.14-.02c-.14-.04-.36-.17-.25-.62.11-.45.31-.86.5-1.22.09-.17.3-.25.48-.18s.27.27.22.46c-.37 1.18-.5 1.58-.8 1.58ZM166.3 85.39h-.05c-.47-.07-.88-.33-1.2-.54-.73-.47-1.41-.96-1.67-1.76a.37.37 0 0 1 .24-.47c.2-.07.41.04.47.24.19.56.73.95 1.36 1.36.29.19.59.38.91.43.21.03.35.22.32.43-.03.19-.19.32-.37.32Z"
  />
  <path
    d="M167.39 86.2a.42.42 0 0 1-.21-.06 4.187 4.187 0 0 1-1.64-2.15c-.07-.2.04-.41.24-.47.2-.07.41.04.47.24.24.72.72 1.34 1.34 1.76.17.12.22.35.1.52-.07.11-.19.17-.31.17ZM156.28 86.74a.36.36 0 0 1-.2-.06.374.374 0 0 1-.12-.52c.09-.14.11-.36.06-.58-.06-.24-.19-.47-.33-.71-.01-.02-.04-.08-.06-.09h-.08c-.51-.01-1.01.03-1.5.14-.2.04-.4-.08-.45-.28-.05-.2.08-.4.28-.45.55-.12 1.11-.18 1.68-.16.1 0 .29 0 .46.11.17.1.25.25.31.35.16.28.33.58.41.92.1.42.05.83-.15 1.15-.07.11-.19.18-.32.18Z"
  />
  <path
    d="M142.99 100.45a.36.36 0 0 1-.22-.07.37.37 0 0 1-.09-.52c.64-.89.59-2.12.54-3.32v-.17c-.07-1.65-.01-3.31.17-4.95.05-.45.11-.88.28-1.3.18-.44.46-.81.73-1.17.14-.19.29-.38.41-.57.32-.51.52-1.08.73-1.69.18-.52.37-1.06.64-1.57.13-.24.32-.54.62-.74.31-.2.66-.25.95-.29l3.04-.43c.31-.04.65-.09 1.01-.05.46.05.86.25 1.24.43.26.13.51.25.76.32.09.02.18.04.27.07.41.09.91.21 1.19.66.36.58.06 1.32-.43 1.67-.42.31-.92.4-1.44.46-1.56.2-3.15.33-4.73.4-.19 0-.38-.15-.39-.36s.15-.38.36-.39c1.56-.07 3.13-.2 4.67-.4.43-.05.81-.11 1.09-.32.21-.16.36-.48.23-.67-.11-.18-.41-.25-.72-.32-.1-.02-.21-.05-.3-.07-.32-.09-.61-.23-.88-.36-.34-.17-.67-.33-1-.37-.26-.03-.54.01-.82.05l-3.04.43c-.23.03-.48.07-.64.18-.16.11-.28.31-.37.47-.24.45-.41.94-.59 1.46-.22.62-.44 1.27-.81 1.85-.14.22-.29.42-.45.63-.25.33-.49.65-.63 1-.13.33-.18.71-.23 1.1-.18 1.6-.23 3.23-.17 4.84v.17c.06 1.26.11 2.68-.67 3.79-.07.1-.19.16-.31.16Z"
  />
  <path
    d="M146.82 90.06c-.1 0-.2-.04-.28-.12a.378.378 0 0 1 .02-.53l1.64-1.5c.21-.19.45-.41.75-.55.33-.15.69-.19.97-.2 1.87-.07 3.69.73 4.89 2.15.13.16.12.39-.04.53-.16.13-.39.12-.53-.04-1.04-1.22-2.71-1.95-4.29-1.88-.22 0-.48.03-.69.13-.2.09-.38.26-.56.42l-1.64 1.5c-.07.07-.16.1-.25.1ZM147.15 93.48c-.1 0-.2-.04-.27-.12a.377.377 0 0 1 .01-.53c.88-.84 1.97-1.45 3.15-1.75.23-.06.49-.12.78-.09.29.02.56.12.81.22.73.3 1.4.71 2.01 1.21.16.13.18.37.05.53a.37.37 0 0 1-.53.05c-.55-.45-1.17-.82-1.83-1.1-.19-.08-.38-.15-.57-.16-.18-.01-.37.03-.55.07a6.39 6.39 0 0 0-2.82 1.56.37.37 0 0 1-.26.1Z"
  />
  <path
    d="M153.53 92.5h-.02l-.92-.06a.372.372 0 0 1-.35-.4c.01-.21.2-.36.4-.35l.92.06c.21.01.36.19.35.4-.01.2-.18.35-.37.35ZM147.9 96.13a.36.36 0 0 1-.32-.18.383.383 0 0 1 .12-.52 4.745 4.745 0 0 1 1.76-.64c.21-.04.41-.07.61-.14.27-.1.47-.25.54-.43a.375.375 0 0 1 .69.29c-.16.38-.51.69-.99.85-.23.08-.48.13-.72.17-.11.02-.22.04-.32.06-.42.09-.81.25-1.18.48-.06.04-.13.05-.2.05Z"
  />
  <path
    d="M151.85 95.55s-.1 0-.14-.03c-.33-.13-.63-.31-.92-.53a.39.39 0 0 1-.07-.53c.13-.17.36-.2.53-.07.23.18.48.32.75.43a.375.375 0 0 1-.15.72Z"
  />
  <path
    d="M147.91 96.84a.375.375 0 0 1-.19-.7c.5-.29 1.06-.37 1.56-.43l2.15-.29c.21-.02.39.12.42.32s-.12.39-.32.42l-2.15.29c-.43.06-.91.12-1.29.34-.06.03-.12.05-.19.05ZM149.42 104.98c-.06 0-.12-.01-.18-.05a.378.378 0 0 1-.15-.51l.47-.85c.11-.2.23-.42.26-.62s0-.41-.04-.6c-.1-.49-.27-.96-.51-1.4l-.1-.18c-.2-.35-.42-.75-.43-1.22 0-.2.04-.36.13-.5.2-.28.53-.31.69-.33l1.24-.14c.2 0 .39.13.41.33a.38.38 0 0 1-.33.42l-1.24.14c-.12.01-.17.03-.18.04.02.32.18.6.35.9l.11.19c.27.5.47 1.04.59 1.61.05.24.1.56.04.88-.06.32-.21.6-.34.85l-.47.86c-.07.12-.2.19-.33.19Z"
  />
  <path
    d="M148.02 106.14c-.08 0-.17-.03-.23-.08a.38.38 0 0 1-.06-.53c.38-.48.88-.87 1.44-1.12.19-.09.41 0 .5.18.09.19 0 .41-.19.5-.45.21-.85.52-1.16.91a.37.37 0 0 1-.29.14ZM151.31 100.24l-1.98-.03c-.21 0-.37-.17-.37-.38s.17-.37.38-.37l1.98.03c.21 0 .37.17.37.38s-.17.37-.38.37ZM167.25 105.4h-.04a.37.37 0 0 1-.33-.41c.35-3.16 1.06-6.29 2.11-9.3.29-.84.56-1.62.42-2.35-.07-.35-.24-.68-.41-1.03-.16-.33-.33-.66-.43-1.04-.05-.2-.09-.41-.12-.61-.05-.29-.09-.56-.2-.79a.853.853 0 0 0-.44-.42c-.14-.05-.22 0-.25 0-.18.09-.41.02-.51-.16-.1-.18-.02-.41.16-.51.26-.13.55-.15.83-.05.37.13.71.44.88.82.15.33.2.66.25.99.03.18.06.36.1.53.08.3.23.59.38.9.19.38.38.77.47 1.22.19.93-.13 1.85-.42 2.66a41.67 41.67 0 0 0-2.1 9.22.37.37 0 0 1-.37.33ZM148.79 96.32h-.03a.373.373 0 0 1-.34-.41l.05-.59c.02-.21.21-.36.41-.34.21.02.36.2.34.41l-.05.59c-.02.19-.18.34-.37.34ZM160.54 102.93c-.1 0-.19-.04-.27-.11a8.705 8.705 0 0 0-2.11-1.55l-.35-.18c-.55-.27-1.12-.55-1.54-1.05-.23-.27-.39-.57-.55-.88a39.29 39.29 0 0 1-2.27-5.5c-.12-.36-.22-.72-.16-1.1.07-.45.43-.92.96-.95.37 0 .66.18.89.38a7.03 7.03 0 0 1 1.48 1.69c.11.17.06.41-.12.52-.18.11-.41.06-.52-.12-.36-.57-.81-1.08-1.33-1.51-.12-.1-.26-.18-.38-.21-.11 0-.23.15-.25.32-.04.22.04.47.13.75.6 1.85 1.35 3.66 2.22 5.39.14.28.27.53.45.73.32.38.8.61 1.3.86l.36.18c.85.44 1.62 1.01 2.3 1.69.15.15.15.38 0 .53-.07.07-.17.11-.26.11Z"
  />
  <path
    d="M156.85 101.91c-.13 0-.25-.07-.32-.18l-2.68-4.5c-.23-.38-.48-.81-.6-1.3-.12-.53-.06-1.06 0-1.56.02-.18.04-.35.05-.53.02-.24.02-.49.02-.74 0-.34 0-.68.04-1.02.13-1.18.7-2.25 1.21-3.19.19-.35.42-.77.83-1.03.48-.3 1.21-.27 1.54.26.11.17.06.41-.12.52-.17.11-.41.06-.52-.12-.08-.12-.33-.13-.51-.02-.25.15-.42.47-.57.75-.5.93-1.01 1.89-1.13 2.92-.04.31-.03.62-.03.94 0 .26 0 .52-.02.79-.01.19-.03.38-.06.56-.05.46-.1.9-.01 1.31.09.38.3.74.51 1.09l2.68 4.5c.11.18.05.41-.13.51a.34.34 0 0 1-.19.05Z"
  />
  <path
    d="M154.83 102.81c-.17 0-.32-.12-.36-.29-.18-.75-.77-1.34-1.4-1.96-.65-.65-1.33-1.32-1.59-2.24-.2-.71-.1-1.44-.01-2.09l.23-1.75c.05-.39.11-.87.4-1.26.32-.45.97-.72 1.5-.41.18.1.24.33.13.51-.1.18-.33.24-.51.13-.13-.08-.38.02-.51.2-.18.24-.22.6-.27.92l-.23 1.75c-.08.6-.16 1.23 0 1.79.2.73.78 1.3 1.39 1.91.67.67 1.36 1.35 1.6 2.31.05.2-.07.4-.28.45-.03 0-.06.01-.09.01Z"
  />
  <path
    d="M159.86 109.16c-.13 0-.26-.07-.33-.19-.38-.67-1.06-1.12-1.77-1.6-.15-.1-.3-.2-.44-.3-2.47-1.72-4.25-4.15-5.97-6.51-.15-.2-.31-.43-.39-.71-.21-.7.18-1.39.41-1.8a.375.375 0 0 1 .65.37c-.24.42-.46.86-.35 1.22.05.16.16.31.28.48 1.69 2.3 3.43 4.69 5.8 6.33l.43.29c.75.5 1.53 1.03 2 1.85a.375.375 0 0 1-.33.56Z"
  />
  <path
    d="M157.18 107.41a.34.34 0 0 1-.23-.08c-2.52-1.92-5.39-4.09-7.07-7.11a.37.37 0 0 1 .15-.51c.18-.1.41-.04.51.14 1.61 2.88 4.4 5.01 6.87 6.88a.38.38 0 0 1-.23.68Z"
  />
  <path
    d="M156.49 107.72c-.16 0-.31-.11-.36-.27l-.22-.75c-.06-.2.06-.41.25-.47.2-.06.41.06.47.25l.22.75c.06.2-.06.41-.25.47-.04 0-.07.01-.11.01ZM170.56 94.34c-.21 0-.37-.17-.37-.38.02-1.44-.23-2.9-.73-4.25-.27.08-.51.17-.75.28-.19.08-.41 0-.5-.19-.08-.19 0-.41.19-.5.32-.14.64-.26.97-.35.07-.02.28-.08.48.03.17.09.24.26.27.34.57 1.47.85 3.07.82 4.65 0 .2-.17.37-.38.37Z"
  />
  <path
    d="M169.53 96c-.1 0-.2-.04-.27-.12a.377.377 0 0 1 .01-.53c.21-.2.47-.25.69-.3.12-.03.28-.06.31-.11.03-.04.03-.18.03-.26v-.2c-.06.03-.11.06-.17.08-.19.07-.4-.03-.48-.22-.07-.19.03-.41.22-.48.01 0 .05-.03.08-.05l.1-.07c.22-.14.48-.16.68-.04.29.17.3.52.3.63v.35c0 .18.01.46-.15.7-.2.3-.53.37-.77.42-.13.03-.27.06-.32.11a.37.37 0 0 1-.26.1Z"
  />
  <path
    d="M170.38 96.4a.37.37 0 0 1-.37-.33l-.05-.42a.372.372 0 0 1 .74-.08l.05.42c.02.21-.13.39-.33.41h-.04Z"
  />
  <path
    d="M169.41 99.56h-.29a.362.362 0 0 1-.34-.3c-.15-.74-.14-1.5.36-3.16.03-.12.12-.21.24-.25.35-.12 1-.35 1.54-.01.09.06.16.16.17.27.02.11-.02.22-.09.3-.1.11-.06.4-.02.64.1.72.06 1.4-.12 2.03-.02.06-.08.18-.13.23-.1.1-.21.12-.26.13-.34.08-.68.12-1.03.12Zm.38-3.07c-.36 1.25-.39 1.85-.33 2.31.23 0 .46-.03.69-.07.12-.5.15-1.01.08-1.51-.04-.26-.08-.54-.04-.81-.12 0-.25.04-.39.08Z"
  />
  <path
    d="M170 97.46c-.25 0-.51-.04-.75-.1a.37.37 0 0 1-.26-.46c.06-.2.26-.31.46-.26.27.08.56.09.84.05.21-.03.4.11.43.32.03.21-.11.4-.32.43-.13.02-.27.03-.41.03ZM169.64 98.72c-.15 0-.31 0-.46-.01a.378.378 0 0 1-.36-.39c.01-.21.2-.37.39-.36.35.02.71.01 1.06-.01.21-.02.39.14.4.35.02.21-.14.39-.35.4-.23.02-.46.03-.69.03Z"
  />
  <path
    d="M168.35 105.8a1.048 1.048 0 0 1-.96-.74c-.14-.46 0-.9.11-1.27.48-1.56.86-3.17 1.13-4.77.04-.21.23-.34.43-.31.21.04.34.23.31.43a39.16 39.16 0 0 1-1.16 4.87c-.09.29-.18.59-.11.82.03.08.11.17.19.2.13-.03.18-.18.21-.25.71-1.84 1.16-3.77 1.35-5.73.02-.21.2-.35.41-.34.21.02.36.2.34.41-.19 2.03-.66 4.03-1.39 5.93-.08.22-.19.46-.43.62-.13.08-.28.13-.43.13ZM164.64 99.25h-.09c-.79 0-1.61-.04-2.42-.1a.385.385 0 0 1-.35-.4c.01-.21.2-.37.4-.35.79.06 1.59.09 2.37.1.19 0 .35 0 .47-.04.21-.07.41-.27.59-.46l.61-.64c.14-.15.39-.17.54-.03.15.14.17.37.03.52l-.64.67c-.22.24-.5.53-.9.66-.22.07-.44.08-.62.08Z"
  />
  <path
    d="M171.49 112.09s-.1 0-.14-.03a.375.375 0 0 1-.2-.49c.84-2.02 1.69-4.42 1.73-6.95.03-2.6-.88-4.9-2.5-6.33a.369.369 0 0 1-.03-.53c.14-.16.37-.17.53-.03 1.78 1.57 2.79 4.08 2.75 6.9-.03 2.67-.97 5.26-1.78 7.22-.06.14-.2.23-.35.23Z"
  />
  <path
    d="M170.87 111.71s-.1 0-.15-.03a.375.375 0 0 1-.2-.49l.87-2.02c.17-.41.35-.81.49-1.23.71-2.09.51-4.46.34-6.55-.02-.21.14-.39.34-.4.21-.01.39.14.4.34.18 2.16.38 4.61-.38 6.85-.15.44-.33.86-.51 1.29l-.87 2.02a.38.38 0 0 1-.34.23ZM148.47 106.31c-.06 0-.12-.01-.18-.04-.86-.46-1.66-1-2.4-1.62-.08 0-.17-.04-.24-.1a3.88 3.88 0 0 1-.47-.53c-.89-.86-1.68-1.83-2.32-2.9-.26-.44-.58-1.09-.29-1.7.06-.12.17-.2.31-.21.13 0 .26.05.34.16.43.62.78.85 1.16 1.1.12.08.24.16.35.27.36.36.43.85.5 1.27l.03.18c.07.39.21.89.5 1.34.86.81 1.83 1.51 2.88 2.08a.378.378 0 0 1-.18.71Zm-4.91-5.51c.29.47.6.91.94 1.34-.05-.36-.11-.69-.29-.88-.06-.06-.14-.11-.23-.17-.13-.09-.27-.18-.41-.29ZM147.69 108.17c-.1 0-.19-.04-.27-.11a.368.368 0 0 1 0-.53c.37-.37.84-.55 1.3-.72.13-.05.26-.1.38-.15.55-.23 1.05-.57 1.57-.92.21-.14.42-.28.64-.42.64-.4 1.61-.95 2.68-.9.21 0 .37.18.36.39 0 .21-.15.36-.39.36-.87-.06-1.7.44-2.26.79-.21.13-.41.27-.62.41-.53.36-1.08.73-1.7.99-.13.06-.27.11-.41.16-.4.15-.77.29-1.03.54-.07.07-.17.11-.27.11ZM144.02 112.87c-.08 0-.17-.03-.24-.08a.379.379 0 0 1-.05-.53c.99-1.2 2.42-1.95 3.55-2.46.34-.15.68-.3 1.03-.45.91-.39 1.86-.8 2.7-1.33.41-.26.81-.56 1.2-.85.88-.66 1.79-1.34 2.89-1.66.2-.06.41.06.46.26.06.2-.06.41-.26.46-.97.28-1.78.89-2.65 1.54-.41.31-.82.61-1.25.89-.89.57-1.86.99-2.81 1.39-.34.15-.68.29-1.01.44-1.06.48-2.39 1.17-3.28 2.26a.37.37 0 0 1-.29.14ZM138.82 97.66c-.22 0-.44-.13-.65-.38l-1.32-1.62a.39.39 0 0 1 0-.48c.66-.77 1.36-1.51 2.06-2.21.15-.15.4-.4.91-.41.07-.03.15.02.21.07.48.33.83.82.99 1.38.05.17.07.27.1.31.02.02.05.04.08.07.12.09.3.22.35.48a.4.4 0 0 1-.1.33l-2.12 2.22c-.07.07-.19.2-.37.25-.05.01-.1.02-.16.02Zm-1.19-2.23 1.12 1.38s.04.05.05.06l1.88-1.96s-.07-.06-.1-.09c-.16-.17-.21-.38-.26-.54-.11-.41-.33-.73-.61-.96-.12.02-.19.08-.27.18-.62.62-1.23 1.27-1.82 1.94ZM142.94 94.06c-.09 0-.19-.04-.26-.11-.33-.32-.72-.59-1.13-.8a.38.38 0 0 1-.21-.28c-.02-.12.03-.25.12-.33.61-.56 1.3-1.03 2.05-1.4.12-.06.27-.05.38.03.11.08.17.21.16.34-.14 1.45-.33 1.79-.72 1.99 0 0-.03.02-.05.04.06.14.03.31-.09.42-.07.07-.16.1-.25.1Zm-.57-1.3c.13.08.25.17.38.26.06-.06.13-.12.21-.16.11-.06.2-.29.27-.7-.3.18-.58.38-.85.6Z"
  />
  <path
    d="M140.37 93.63a.369.369 0 0 1-.28-.62c.51-.58 1.28-.89 2.03-.89.21 0 .37.18.37.38 0 .21-.2.35-.38.37-.56-.04-1.09.22-1.45.63-.07.08-.18.13-.28.13ZM141.14 94.78c-.09 0-.17-.03-.24-.09a.369.369 0 0 1-.04-.53c.38-.45.87-.81 1.4-1.05.19-.08.41 0 .5.19s0 .41-.19.5c-.43.19-.83.49-1.14.85a.36.36 0 0 1-.29.13ZM134.65 103.95h-.06a.381.381 0 0 1-.31-.43c.32-1.94.93-3.81 1.81-5.57.32-.64.73-1.37 1.34-1.93.15-.14.39-.13.53.02s.13.39-.02.53c-.52.47-.89 1.13-1.18 1.71-.85 1.69-1.43 3.49-1.74 5.35-.03.18-.19.31-.37.31Z"
  />
  <path
    d="M132.46 105.34s-.07 0-.1-.01a.379.379 0 0 1-.26-.46c.18-.65.41-1.28.69-1.9.48-1.07 1.06-1.99 1.72-2.72.52-.57 1.11-1.07 1.69-1.55.68-.56 1.32-1.09 1.84-1.74a.37.37 0 0 1 .53-.05c.16.13.19.37.06.53-.57.71-1.27 1.29-1.94 1.85-.56.46-1.13.94-1.61 1.47-.61.68-1.15 1.53-1.59 2.53-.26.58-.48 1.19-.65 1.79-.05.17-.2.27-.36.27ZM151.46 105.42c-.71 0-1.43-.06-2.13-.19a.372.372 0 0 1-.3-.43c.04-.2.23-.34.44-.3.92.16 1.87.21 2.8.15.2-.03.39.14.4.35.01.21-.14.39-.35.4-.28.02-.57.03-.86.03ZM149.36 107.04c-.06 0-.11-.01-.17-.04l-.68-.34a.371.371 0 0 1-.17-.5.38.38 0 0 1 .5-.17l.68.34c.19.09.26.32.17.5-.07.13-.2.21-.34.21Z"
  />
  <path
    d="M151.54 105.11c-.1 0-.19-.04-.26-.11a.368.368 0 0 1 0-.53c.35-.36.74-.69 1.15-.98.17-.12.4-.08.52.09.12.17.08.4-.09.52-.38.27-.73.57-1.05.9-.07.07-.17.11-.27.11ZM143.64 114.15h-.04a.375.375 0 0 1-.33-.42c.07-.6.23-1.19.47-1.74.53-1.22 1.46-2.23 2.28-3.12l2.22-2.42-.28-.39a.37.37 0 0 1 .09-.52c.17-.12.4-.08.52.09l.45.64c.1.14.09.34-.03.47l-2.43 2.64c-.82.89-1.67 1.81-2.15 2.92-.21.48-.35 1-.41 1.52a.37.37 0 0 1-.37.33ZM136.9 104.69c-.16 0-.31-.03-.45-.09-.19-.08-.35-.2-.48-.31-.13-.11-.27-.21-.34-.2-.21.04-.4-.09-.44-.3s.09-.4.3-.44c.42-.08.72.17.95.35.11.09.21.17.3.2.14.06.35.03.63-.08.58-.25 1.1-.67 1.53-1.04.95-.83 1.81-1.77 2.56-2.79.11-.16.25-.34.47-.46.32-.18.71-.11.93.15.13.16.11.4-.05.53-.15.12-.36.11-.49-.02-.1.05-.17.14-.25.25a18.9 18.9 0 0 1-2.67 2.91c-.47.42-1.05.88-1.73 1.17-.28.12-.53.17-.75.17Z"
  />
  <path
    d="M137.07 117.9c-.2-.01-.39-.16-.39-.38 0-.21.17-.37.38-.37h.01c1.11 0 2.19-.55 3.15-1.03l2.32-1.17c.11-.05.21-.11.28-.17.27-.23.21-.75-.02-1.07-.24-.35-.63-.59-1.04-.84l-.19-.12c-2.8-1.78-4.82-4.78-5.41-8.04-.04-.25-.08-.45-.18-.57-.21-.25-.73-.17-1.14.04-.19.09-.41.02-.51-.16s-.02-.41.16-.51c.63-.33 1.55-.49 2.07.15.22.27.28.59.33.87.56 3.09 2.46 5.91 5.08 7.57l.18.12c.46.28.93.58 1.26 1.05.42.6.5 1.54-.11 2.07-.14.12-.3.2-.44.27l-2.32 1.17c-1.03.52-2.2 1.11-3.49 1.11Z"
  />
  <path
    d="M131.66 127.91a.36.36 0 0 1-.2-.06.374.374 0 0 1-.12-.52c1.28-2.03 3.15-3.59 4.95-5.1l.9-.75c2.04-1.73 4.04-3.69 4.84-6.22.06-.2.27-.3.47-.24.2.06.31.27.24.47-.86 2.72-2.95 4.76-5.07 6.57-.3.25-.6.51-.9.76-1.76 1.47-3.58 2.99-4.8 4.93-.07.11-.19.18-.32.18Z"
  />
  <path
    d="M135.39 131.59a.37.37 0 0 1-.29-.14.38.38 0 0 1 .06-.53c.36-.28.57-.74.75-1.19.99-2.53 1.16-5.31 1.33-7.99.01-.21.19-.37.4-.35.21.01.36.19.35.4-.17 2.74-.35 5.57-1.38 8.21-.22.55-.48 1.12-.98 1.51a.4.4 0 0 1-.23.08Z"
  />
  <path
    d="M136.36 128.64s-.1 0-.15-.03a.375.375 0 0 1-.2-.49c.23-.54.29-1.18.17-1.91-.1-.68-.34-1.35-.57-2-.07-.2.03-.41.23-.48s.41.03.48.23c.24.68.49 1.39.6 2.14.13.87.06 1.65-.23 2.32-.06.14-.2.23-.35.23ZM124.38 119.08c-.09 0-.18-.03-.25-.1a.378.378 0 0 1-.02-.53c2.32-2.53 3.85-5.74 5.15-8.83l.1-.25c.48-1.15.98-2.34 1.72-3.39.64-.92 1.75-2.1 3.34-2.51.2-.05.4.07.46.27.05.2-.07.4-.27.46-1.07.27-2.1 1.06-2.91 2.21-.69.98-1.17 2.14-1.64 3.25l-.1.25c-1.33 3.15-2.89 6.43-5.29 9.04-.07.08-.18.12-.28.12Z"
  />
  <path
    d="M119.19 124.21s-.06 0-.1-.01a.366.366 0 0 1-.26-.46c.53-1.97 1.08-4 2.07-5.85.47-.87 1.05-1.75 1.84-2.74 1.92-2.43 4.18-4.55 6.74-6.3.17-.12.4-.07.52.1s.07.4-.1.52a29.53 29.53 0 0 0-6.58 6.14c-.76.96-1.32 1.8-1.77 2.63-.95 1.77-1.49 3.77-2.01 5.69-.04.17-.2.28-.36.28Z"
  />
  <path
    d="M116.87 127.67c-.18 0-.33-.12-.37-.3l-1.06-5.47c-.06-.29-.12-.64-.04-1 .12-.52.51-.9.8-1.17 2.07-1.96 4.21-3.99 6.83-5.32.18-.1.41-.02.5.16.09.18.02.41-.16.5-2.52 1.28-4.62 3.27-6.65 5.2-.28.27-.52.51-.59.79-.05.21 0 .46.05.7l1.06 5.47c.04.2-.09.4-.3.44h-.07ZM159.17 109.21s-.07 0-.1-.01l-1.03-.29c-.16-.04-.36-.1-.55-.21-.28-.16-.46-.4-.63-.63l-.19-.27c-.39-.55-.79-1.12-1.31-1.41l-.09.2c-.08.19-.31.27-.5.19-.19-.08-.27-.31-.19-.5l.24-.54c.08-.18.27-.26.46-.2.92.3 1.49 1.11 2 1.83l.19.27c.13.17.25.34.4.42.1.06.24.1.37.13l1.03.29a.37.37 0 0 1-.1.73ZM158.07 110.33c-.09 0-.18-.03-.25-.09-.63-.55-1.39-1.04-2.47-1.56-.72-.35-1.49-.67-2.27-.67h-.01c-.21 0-.37-.17-.38-.37 0-.21.18-.4.39-.38.93 0 1.79.36 2.59.75 1.14.56 1.95 1.07 2.63 1.68.16.14.17.37.03.53-.07.08-.18.13-.28.13ZM155.31 111.11c-.05 0-.11-.01-.16-.04l-1.51-.71c-.31-.15-.63-.3-.94-.51-.55-.38-.95-.9-1.34-1.39-.13-.16-.1-.4.07-.53.16-.13.4-.1.53.07.35.45.72.92 1.17 1.24.25.17.54.31.83.45l1.51.71c.19.09.27.31.18.5a.37.37 0 0 1-.34.22Z"
  />
  <path
    d="M159.44 116.89c-.06 0-.12-.01-.18-.04l-1.35-.72c-.47-.25-.99-.53-1.4-.96-.35-.37-.58-.81-.8-1.23l-.05-.09c-.66-1.25-1.42-2.47-2.25-3.63-.12-.17-.08-.4.08-.52.17-.12.4-.08.52.08.85 1.18 1.63 2.43 2.31 3.72l.05.09c.21.4.4.77.68 1.06.33.34.78.58 1.21.82l1.34.72a.378.378 0 0 1-.18.71ZM153.36 114.03c-.2 0-.36-.16-.37-.36-.03-.6-.34-1.15-.66-1.73-.15-.26-.29-.53-.42-.8-.34-.75-.52-1.58-.52-2.41 0-.21.21-.37.38-.37.21 0 .37.17.37.38 0 .71.15 1.44.45 2.09.12.25.25.5.39.74.35.63.72 1.29.76 2.06.01.21-.15.38-.36.39h-.02ZM173.15 103.94a.383.383 0 0 1-.32-.58c.71-1.13 1.5-2.22 2.37-3.24.67-.79 1.49-1.67 2.53-2.27.53-.31 1.01-.47 1.48-.51.98-.08 1.87.43 2.61.93.14.1.2.28.14.44l-.29.79a.37.37 0 0 1-.48.22.378.378 0 0 1-.22-.48l.18-.51c-.58-.37-1.23-.69-1.89-.65-.35.03-.73.16-1.16.41-.94.55-1.71 1.37-2.33 2.11a25.5 25.5 0 0 0-2.3 3.16c-.07.11-.19.18-.32.18Z"
  />
  <path
    d="M173.4 105.08c-.1 0-.2-.04-.27-.11a.387.387 0 0 1 0-.53l3.9-3.78c.46-.45.98-.95 1.63-1.25 1-.46 2.22-.37 3.12.25.91.62 1.43 1.77 1.31 2.85-.02.21-.21.36-.42.33a.375.375 0 0 1-.33-.42c.09-.81-.3-1.67-.99-2.14-.68-.47-1.61-.54-2.38-.18-.53.25-.98.68-1.42 1.11l-3.89 3.78c-.07.07-.17.11-.26.11Z"
  />
  <path
    d="M185.69 107.04c-.12 0-.23-.06-.31-.16-.49-.7-1.05-1.5-1.22-2.45l-.02-.11c-.02-.12-.04-.24-.08-.32-.05-.1-.17-.19-.29-.27-.3-.21-.62-.38-.95-.52-.21-.09-.4-.17-.57-.31-.12-.1-.21-.22-.28-.33l-.07-.09c-.17-.22-.39-.4-.65-.52-.19-.09-.27-.31-.18-.5s.31-.26.5-.18c.36.17.68.43.92.74l.08.11c.06.08.11.15.16.2.08.06.19.11.32.17.43.18.79.38 1.13.61.2.14.4.29.53.54.1.19.13.38.16.55l.02.1c.14.79.64 1.51 1.09 2.15.12.17.08.4-.09.52a.36.36 0 0 1-.22.07Z"
  />
  <path
    d="M186.18 107.78c-.11 0-.22-.05-.3-.15l-1.03-1.35c-.15-.2-.29-.39-.46-.52a2.12 2.12 0 0 0-.51-.28c-1.51-.63-3.11-.7-4.39-.18a.371.371 0 0 1-.49-.21c-.08-.19.01-.41.21-.49 1.46-.59 3.27-.52 4.96.19.21.09.46.2.68.38.25.19.44.44.6.66l1.03 1.35c.12.17.09.4-.07.53a.4.4 0 0 1-.23.08Z"
  />
  <path
    d="M171.99 111.2c-.16 0-.31-.1-.36-.26-.06-.2.05-.41.24-.47.63-.2 1.27-.2 1.89-.19.29 0 .57 0 .86-.02 1.75-.12 3.27-1.04 4.88-2.01 1.57-.95 3.2-1.93 5.06-2.11.22-.02.39.13.41.34.02.21-.13.39-.34.41-1.69.17-3.18 1.06-4.75 2.01-1.62.97-3.29 1.98-5.22 2.12-.3.02-.61.02-.91.02-.59 0-1.15 0-1.66.16-.04.01-.08.02-.11.02Z"
  />
  <path
    d="M176.1 114.55c-.06 0-.12-.01-.17-.04a.388.388 0 0 1-.16-.51c.94-1.78 2-3.51 3.16-5.16a.37.37 0 0 1 .52-.09c.17.12.21.35.09.52a48.824 48.824 0 0 0-3.11 5.07c-.07.13-.2.2-.33.2ZM192.33 135.83s-.08 0-.12-.02a.362.362 0 0 1-.24-.47l2.99-9.23c.2-.62.43-1.31.4-1.98-.02-.47-.16-.94-.37-1.49-.08-.23-.17-.45-.26-.68-.33-.84-.67-1.71-.81-2.64-.06-.4-.08-.8-.09-1.2-.02-.48-.04-.94-.13-1.38-.09-.44-.25-.86-.41-1.3-.13-.34-.25-.68-.35-1.03-.1-.37-.17-.75-.24-1.13-.08-.41-.15-.8-.26-1.18-.49-1.63-1.82-2.98-3.46-3.52-1.61-.53-3.5-.27-4.93.69-1.32.88-2.25 2.28-3.02 3.53-1.72 2.79-2.75 5.01-3.31 7.2-.05.2-.25.32-.46.27a.38.38 0 0 1-.27-.46c.75-2.91 2.21-5.49 3.4-7.41.81-1.31 1.8-2.79 3.24-3.75 1.62-1.08 3.76-1.38 5.58-.78 1.87.62 3.39 2.16 3.95 4.02.13.42.2.85.28 1.26.06.36.13.71.23 1.07.09.33.21.65.33.97.17.45.34.92.44 1.42.1.5.12 1.01.14 1.5.02.38.03.75.08 1.13.12.84.43 1.63.76 2.47l.27.69c.2.54.39 1.12.41 1.72.03.8-.21 1.57-.43 2.24l-2.99 9.23c-.05.16-.2.26-.36.26Z"
  />
  <path
    d="M177.99 147.8c-.21 0-.37-.17-.38-.37 0-.21.17-.38.37-.38 2.15 0 4.01-1.41 5.18-2.58.75-.74 1.43-1.58 2.09-2.39.63-.77 1.28-1.57 2-2.3.89-.91 1.88-1.72 2.94-2.41l.15-.1c.49-.31.95-.61 1.2-1.04.2-.33.27-.75.35-1.16.18-1.02.39-2.18.06-3.2-.15-.48-.42-.92-.7-1.38-.11-.18-.22-.36-.32-.54-.31-.56-.57-1.15-.83-1.72-.52-1.17-1-2.27-1.88-3.07a.378.378 0 0 1-.02-.53c.14-.15.38-.16.53-.02.99.91 1.53 2.13 2.06 3.32.25.56.5 1.13.8 1.66.1.17.2.34.31.52.29.48.59.98.77 1.54.38 1.2.16 2.45-.04 3.56-.08.45-.17.96-.44 1.41-.35.59-.9.95-1.44 1.29l-.15.09c-1.02.66-1.96 1.43-2.82 2.3-.69.71-1.33 1.49-1.95 2.25-.67.83-1.37 1.68-2.15 2.45-1.27 1.27-3.3 2.79-5.71 2.79ZM159.81 119.34c-.09 0-.18-.03-.25-.09a.383.383 0 0 1-.06-.5c.53-.76.62-1.89.23-3.1-.21-.67-.53-1.3-.86-1.97-.21-.41-.41-.82-.59-1.24-.45-1.06-.51-1.9-.17-2.56.23-.45.62-.77 1.01-1.06 2-1.5 4.18-2.76 6.5-3.72.76-.32 1.63-.37 2.08.14.41-.03.74.18 1.03.62.83 1.25 1.4 2.69 1.63 4.17l.02.12c.04.26.08.51.17.72.18.4.61.68 1.05.69.18 0 .33.14.36.31s-.07.35-.24.41a35.593 35.593 0 0 0-11.65 6.96c-.07.06-.16.1-.25.1Zm6.91-13.74c-.27 0-.59.09-.82.18-2.25.94-4.38 2.17-6.33 3.63-.33.25-.63.49-.79.8-.23.46-.17 1.09.19 1.93.17.41.37.81.57 1.2.33.66.67 1.35.9 2.08.26.81.33 1.6.22 2.3 2.93-2.42 6.29-4.4 9.82-5.78-.27-.2-.5-.46-.64-.77-.14-.3-.18-.62-.23-.92l-.02-.12a9.822 9.822 0 0 0-1.51-3.87c-.21-.32-.33-.3-.46-.26a.37.37 0 0 1-.47-.2c-.07-.15-.24-.21-.45-.21ZM172.97 112.41c-.11 0-.22-.05-.3-.14-.13-.16-.1-.4.07-.53l1.57-1.22c.16-.12.4-.1.53.07.13.16.1.4-.07.53l-1.57 1.22a.4.4 0 0 1-.23.08ZM176.79 121.34c-.06 0-.11-.01-.17-.04a.371.371 0 0 1-.17-.5c2.02-4.03 5.81-6.58 10.2-9.27.92-.56 1.7-1.09 2.04-1.9a.375.375 0 0 1 .69.29c-.45 1.1-1.54 1.76-2.34 2.25-4.29 2.62-7.99 5.11-9.92 8.96-.07.13-.2.21-.33.21ZM177.82 121.66a.41.41 0 0 1-.29-.13c-.13-.16-.11-.4.05-.53 1.3-1.09 2.99-1.31 4.63-1.53.59-.08 1.2-.16 1.77-.28.57-.12 1.15-.29 1.71-.46.72-.22 1.47-.44 2.25-.56 2.54-.42 5.25.32 7.24 1.95.16.13.18.37.05.53s-.37.18-.53.05c-1.83-1.5-4.31-2.17-6.64-1.79-.72.12-1.45.33-2.15.54-.58.17-1.17.35-1.78.48-.6.13-1.22.21-1.82.29-1.6.21-3.11.41-4.24 1.36-.07.06-.16.09-.24.09Z"
  />
  <path
    d="M194.42 123.11c-.91 0-1.81-.08-2.7-.22-.65-.11-1.3-.26-1.95-.41-1.48-.34-2.89-.66-4.31-.53-.24.02-.47.06-.71.09-.77.11-1.56.23-2.33-.03-.11-.04-.22-.08-.33-.13-.14-.06-.28-.12-.43-.15-.78-.17-1.55.5-2.21 1.18-.14.15-.38.15-.53 0a.368.368 0 0 1 0-.53c.8-.82 1.77-1.64 2.91-1.39.19.04.37.11.55.19.09.04.19.08.28.11.61.2 1.28.1 1.99 0 .25-.04.5-.07.75-.1 1.55-.15 3.08.2 4.55.54.63.15 1.27.29 1.91.4 1.2.2 2.42.26 3.64.18.23-.01.38.14.4.35s-.14.39-.35.4c-.37.03-.74.04-1.11.04ZM172.45 129.74c-.13 0-.26-.07-.33-.19-1.07-1.88-.93-4.41.4-7.51a31.7 31.7 0 0 1 1.57-3.14l.05-.09c.2-.35.4-.69.51-1.05.14-.43.17-.93.1-1.53-.19-1.52-1-2.93-2.18-3.79a.678.678 0 0 0-.09-.06c-.03.11-.11.21-.22.25a.38.38 0 0 1-.49-.21.541.541 0 0 1 .06-.52c.11-.18.31-.3.52-.31.27-.02.49.11.67.24 1.35.98 2.28 2.59 2.49 4.31.09.7.04 1.31-.13 1.85-.14.43-.36.82-.58 1.19l-.05.09c-.57.99-1.08 2.02-1.53 3.06-1.23 2.88-1.38 5.18-.44 6.84a.375.375 0 0 1-.32.56Z"
  />
  <path
    d="M178.87 134.24c-.2 0-.36-.15-.37-.35-.23-3.27.4-6.55 1.84-9.49.15-.31.29-.62.19-.82-.05-.11-.2-.21-.34-.31-.85-.55-1.78-.97-2.76-1.25l-.18-.05c-.32-.09-.66-.18-.98-.35-.4-.22-.71-.53-1.02-.82-.3-.29-.58-.57-.91-.73a.368.368 0 0 1-.17-.5c.09-.19.32-.27.5-.17.44.21.78.55 1.11.87.28.27.54.53.85.7.24.13.52.21.82.29l.19.05c1.05.3 2.05.75 2.96 1.34.22.14.47.32.61.61.26.54-.02 1.13-.19 1.47a17.941 17.941 0 0 0-1.77 9.11c.01.21-.14.39-.35.4h-.03Z"
  />
  <path
    d="M190.74 135.13s-.08 0-.11-.02a6.27 6.27 0 0 1-2.69-1.71c-.5-.54-.89-1.15-1.26-1.74l-.28-.43c-1.12-1.72-2.49-3.31-3.81-4.85-.56-.66-1.13-1.25-1.84-1.32a.373.373 0 0 1-.34-.41c.02-.21.19-.36.41-.34.98.1 1.69.83 2.33 1.58 1.34 1.56 2.72 3.17 3.87 4.93l.28.44c.38.59.73 1.15 1.18 1.64.64.7 1.46 1.22 2.37 1.51.2.06.31.27.24.47-.05.16-.2.26-.36.26Z"
  />
  <path
    d="M185.33 127.22h-.04l-1.95-.19a.373.373 0 0 1-.34-.41c.02-.21.19-.36.41-.34l1.95.19c.21.02.36.2.34.41-.02.19-.18.34-.37.34ZM171.86 142.38h-.04c-1.93-.22-3.45-1.61-4.71-2.9-1.36-1.38-2.87-3.03-3.54-5.06-.31-.95-.43-1.95-.55-2.92-.17-1.38-.32-2.68-.98-3.79-.13-.21-.27-.42-.41-.62-.2-.28-.4-.57-.57-.89-.34-.66-.49-1.37-.63-2.06l-1-4.81c-.04-.2.09-.4.29-.44.2-.04.4.09.44.29l1 4.81c.13.64.27 1.3.56 1.86.14.28.32.53.51.8.15.22.31.44.44.67.74 1.25.91 2.69 1.08 4.08.11.93.23 1.9.52 2.78.62 1.88 2 3.38 3.36 4.76 1.18 1.2 2.58 2.49 4.26 2.68.21.02.35.21.33.42a.37.37 0 0 1-.37.33Z"
  />
  <path
    d="M175.53 149.63c-.1 0-.21 0-.31-.02-.67-.1-1.21-.51-1.64-.85-.95-.73-2.14-1.64-2.6-2.99-.16-.46-.23-.96-.29-1.43-.12-.83-.23-1.61-.78-2.05a.38.38 0 0 1-.06-.53.38.38 0 0 1 .53-.06c.79.63.93 1.6 1.06 2.54.06.46.13.9.26 1.29.39 1.13 1.48 1.97 2.35 2.64.38.3.82.63 1.29.7.51.08 1.04-.16 1.57-.38l.13-.05c1.74-.73 3.59-1.17 5.38-1.61 1.9-.46 3.86-.93 5.65-1.73.19-.08.41 0 .5.19.08.19 0 .41-.19.5-1.85.83-3.85 1.31-5.78 1.78-1.76.42-3.58.86-5.26 1.57l-.12.05c-.5.21-1.06.45-1.66.45Z"
  />
  <path
    d="M182.84 151.35a.378.378 0 0 1-.18-.71c1.19-.65 2.56-1.46 3.69-2.55.81-.78 1.85-2.05 2.2-3.7.11-.51.15-1.03.19-1.58l.06-.72c.15-1.47.52-2.91 1.11-4.27.08-.19.3-.28.49-.19.19.08.28.3.19.49-.56 1.29-.91 2.65-1.05 4.05l-.06.7c-.04.55-.08 1.12-.2 1.68-.31 1.45-1.14 2.86-2.42 4.09-1.19 1.15-2.62 1.99-3.85 2.67-.06.03-.12.05-.18.05ZM147.88 126.87a.37.37 0 0 1-.37-.33c-.61-5.33-.79-10.75-.52-16.11 0-.21.19-.37.39-.36.21.01.37.19.36.39-.27 5.32-.09 10.7.52 15.99a.38.38 0 0 1-.33.42h-.04ZM133.17 164.87h-.03a.372.372 0 0 1-.35-.4c.56-8.36 2.17-16.71 3.73-24.78l4.26-22.04c.04-.2.24-.34.44-.3.2.04.34.24.3.44l-4.26 22.04c-1.56 8.05-3.17 16.38-3.72 24.69-.01.2-.18.35-.37.35Z"
  />
  <path
    d="M129.51 139.59c-.06 0-.11-.01-.17-.04a.371.371 0 0 1-.17-.5c.24-.5.73-.7 1.16-.88.27-.12.53-.23.71-.39.17-.17.27-.41.38-.68.96-2.26 2.16-4.4 3.59-6.37.07-.1.18-.15.3-.16.11 0 .23.05.3.14 1.19 1.5 1.57 3.7 1.79 6.54.02.21-.14.39-.35.4-.2.03-.39-.14-.4-.35-.16-2.12-.44-4.27-1.34-5.71-1.26 1.8-2.33 3.74-3.19 5.77-.14.33-.28.67-.56.94-.27.27-.63.42-.94.55-.35.15-.66.28-.78.52-.06.13-.2.21-.34.21Z"
  />
  <path
    d="M136.96 136.19a.37.37 0 0 1-.29-.14l-2.4-2.93c-.13-.16-.11-.4.05-.53s.4-.11.53.05l2.4 2.93c.13.16.11.4-.05.53a.35.35 0 0 1-.24.08ZM133.67 141.75c-.12 0-.25 0-.38-.01-.83-.04-1.64-.22-2.42-.38-.47-.1-.95-.2-1.43-.27l-.22-.03c-.53-.08-1.08-.15-1.58-.43-.34-.19-.62-.45-.88-.71l-.16-.15c-.73-.68-1.59-1.26-2.43-1.81-.72-.48-1.46-.98-2.14-1.55-2.92-2.48-4.41-6.17-5.72-9.43-.08-.19.02-.41.21-.49s.41.02.49.21c1.28 3.18 2.73 6.78 5.51 9.14.65.55 1.37 1.03 2.07 1.5.86.57 1.75 1.16 2.52 1.89l.16.16c.24.23.47.45.73.59.38.21.83.28 1.32.34l.23.03c.49.08.98.18 1.47.28.79.17 1.54.32 2.31.37 1.39.07 2.57-.31 3.25-1.07.14-.15.38-.17.53-.03s.17.38.03.53c-.77.85-2.01 1.32-3.47 1.32ZM188.6 172.73h-.04a.364.364 0 0 1-.33-.41l2.2-21.08c.5-4.79 1.02-9.75.88-14.65 0-.21.16-.38.36-.39h.01c.2 0 .37.16.38.36.14 4.95-.38 9.93-.88 14.75l-2.2 21.08c-.02.19-.18.34-.37.34Z"
  />
  <path
    d="M187.48 193.63h-.04a.364.364 0 0 1-.33-.41c.45-4.35.82-8.76 1.1-13.11.15-2.37.26-4.51 0-6.66-.17-1.4-.51-2.81-.83-4.17-.15-.64-.31-1.29-.44-1.93-.32-1.49-.55-3.01-.79-4.49-.29-1.82-.58-3.71-1.02-5.52-.95-3.87-2.43-6.72-4.54-8.71a.368.368 0 0 1-.01-.53c.14-.15.38-.16.53-.01 2.22 2.09 3.77 5.06 4.75 9.08.45 1.84.75 3.74 1.04 5.58.23 1.46.47 2.98.78 4.45.14.64.29 1.28.44 1.92.33 1.38.67 2.81.84 4.26.27 2.21.16 4.39 0 6.8-.28 4.36-.65 8.78-1.1 13.13-.02.19-.18.34-.37.34ZM169.14 176.68c-.09 0-.17-.03-.25-.09a.378.378 0 0 1-.04-.53c1.76-2.04 1.7-5.02 1.64-7.89v-.55c-.05-1.8 0-3.63.06-5.41.12-4.14.25-8.41-.76-12.44-.11-.44-.24-.89-.36-1.33-.65-2.33-1.32-4.74-.36-6.98a.375.375 0 0 1 .69.29c-.85 2-.22 4.28.4 6.49.13.45.25.91.36 1.35 1.04 4.13.91 8.46.79 12.65-.05 1.76-.11 3.59-.07 5.37v.55c.07 2.88.15 6.13-1.81 8.4-.07.09-.18.13-.28.13ZM165.31 169.8c-.06 0-.12-.01-.17-.04-4.02-2.11-6.9-5.68-9.73-9.46-1.94-2.58-3.79-5.15-5.12-8.05-2.17-4.74-2.76-9.95-3.32-14.99a.38.38 0 0 1 .33-.42c.2-.01.39.12.41.33.56 4.98 1.14 10.13 3.26 14.76 1.3 2.84 3.13 5.36 5.04 7.91 2.78 3.71 5.6 7.2 9.48 9.24.18.1.25.32.16.51-.07.13-.2.2-.33.2ZM133.76 185.18h-.02c-.74-.04-1.19-.62-1.58-1.12-.3-.38-.58-.75-.95-.86-.09-.03-.18-.04-.28-.06-.37-.07-.87-.17-1.03-.68-.07-.24-.02-.46.01-.62l.93-4.14c.02-.11.1-.21.2-.25.33-.16.44-.61.44-.94 0-.27-.05-.54-.11-.83-.04-.21-.08-.42-.1-.63-.12-1.08.2-2.12.51-3.12l.15-.48c.7-2.38.98-4.83.81-7.31-.01-.21.14-.38.35-.4.2-.03.39.14.4.35.17 2.56-.11 5.11-.84 7.57l-.15.49c-.28.93-.58 1.89-.48 2.82.02.19.06.38.09.57.06.31.12.63.12.97 0 .53-.18 1.18-.69 1.52l-.9 3.98a.69.69 0 0 0-.03.23c.02.08.27.13.46.16.12.02.24.05.35.08.59.18.98.68 1.32 1.11.34.43.63.81 1.03.83.21.01.36.19.35.4-.01.2-.18.35-.37.35Z"
  />
  <path
    d="M185.84 197.57a.369.369 0 0 1-.28-.62c.81-.91.87-2.01.79-2.76-.17-1.51-1.1-3.07-2.36-3.98-1.87-1.34-4.25-1.79-6.56-2.22-.42-.08-.85-.16-1.26-.24-2.4-.48-4.77-1.17-7.05-2.05-.5-.19-1-.4-1.5-.6-1.24-.5-2.52-1.03-3.82-1.38-2.21-.6-4.55-.74-6.62-.86-7.54-.45-15.2-.77-22.77-.95-1.06-.03-2.26-.05-3.28.38-.19.08-.41 0-.49-.2s0-.41.2-.49c1.17-.5 2.46-.47 3.59-.44 7.58.18 15.25.5 22.79.95 2.1.12 4.49.27 6.77.89 1.34.37 2.65.9 3.91 1.41.5.2.99.4 1.49.6 2.24.86 4.57 1.54 6.93 2.01.42.08.83.16 1.26.24 2.39.44 4.85.9 6.86 2.34 1.45 1.04 2.48 2.77 2.67 4.5.15 1.3-.19 2.46-.97 3.34-.07.08-.18.13-.28.13ZM187.8 185.14c-.07 0-.15-.02-.21-.07l-5.12-3.52c-.74-.51-1.5-1.03-2.34-1.35-1.22-.46-2.58-.47-3.91-.48-.32 0-.65 0-.97-.01-2.07-.05-4.13-.37-6.12-.94-1.02-.29-2.03-.66-3.01-1.01-.87-.31-1.77-.63-2.67-.9-2.63-.79-5.38-1.17-8.05-1.53-7.54-1.04-16.09-2.21-24.11-.33-.2.05-.4-.08-.45-.28-.05-.2.08-.4.28-.45 8.15-1.91 16.78-.72 24.39.32 2.69.37 5.48.75 8.16 1.56.92.27 1.83.6 2.71.92.97.35 1.97.71 2.97.99 1.93.55 3.93.86 5.94.91.32 0 .64.01.96.01 1.39.01 2.83.02 4.17.53.92.35 1.72.9 2.5 1.43l5.12 3.52c.17.12.21.35.1.52-.07.11-.19.16-.31.16ZM182 162.39c-.19 0-.36-.15-.37-.35-.34-4.4-1.88-8.63-4.44-12.22a.37.37 0 0 1 .09-.52c.16-.12.4-.08.52.09 2.65 3.7 4.23 8.06 4.58 12.6.02.21-.14.39-.35.4H182Z"
  />
  <path
    d="M182.37 181.46s-.08 0-.11-.02a.362.362 0 0 1-.24-.47c.44-1.39.53-2.9.61-4.35.33-5.73.67-11.66-.27-17.41-.17-1.07-.4-2.16-.61-3.22-.48-2.35-.98-4.79-.99-7.24 0-.21.17-.38.37-.38.21 0 .37.17.38.37 0 2.38.5 4.78.97 7.09.22 1.06.44 2.16.62 3.25.95 5.84.61 11.8.27 17.58-.09 1.5-.17 3.05-.65 4.53-.05.16-.2.26-.36.26ZM149.09 169.43c-.18 0-.34-.13-.37-.31-.93-5.72-2.2-11.45-3.77-17.03-.06-.2.06-.41.26-.46.2-.05.41.06.46.26 1.58 5.6 2.85 11.36 3.78 17.11.03.21-.11.4-.31.43h-.06ZM138.89 126.63h-.04a.373.373 0 0 1-.34-.41c.16-1.62.07-3.24-.27-4.83-.04-.2.09-.4.29-.44.2-.04.4.08.45.29.36 1.66.45 3.36.28 5.06-.02.19-.18.34-.37.34ZM183.65 224.06s-.06 0-.09-.01a.375.375 0 0 1-.27-.46c1.2-4.79 2-9.71 2.38-14.63.2-2.61.36-6.03-.21-9.37-.16-.95-.39-1.92-.6-2.85-.5-2.16-1.02-4.39-.84-6.66.02-.21.21-.35.4-.34.21.02.36.2.34.4-.17 2.15.33 4.33.82 6.43.22.94.45 1.92.61 2.89.58 3.42.42 6.9.22 9.55-.38 4.96-1.19 9.93-2.39 14.76-.04.17-.2.28-.36.28Z"
  />
  <path
    d="M179.88 245.05c-.05 0-.11-.01-.16-.03a.372.372 0 0 1-.18-.5c5.91-12.91 8.12-27.77 6.24-41.84a.373.373 0 1 1 .74-.1c1.9 14.21-.34 29.22-6.31 42.25a.37.37 0 0 1-.34.22Z"
  />
  <path
    d="M179.13 253.17h-.06a.387.387 0 0 1-.31-.43c1.21-7.15 2.06-14.45 2.54-21.7.01-.21.2-.37.4-.35.21.01.36.19.35.4-.48 7.27-1.34 14.6-2.55 21.77-.03.18-.19.31-.37.31Z"
  />
  <path
    d="M172.78 288.5c-.2 0-.36-.15-.37-.35-.01-.21.14-.39.35-.4 2.88-.2 5.73-.72 8.49-1.55.45-.14.88-.29 1.12-.59.22-.28.27-.68.29-1.07.12-2.01-.4-4.05-.89-6.01l-.17-.66a88.662 88.662 0 0 1-2.58-18.69c-.01-.45-.02-.9-.04-1.36-.08-3.28-.16-6.66-1.46-9.64a.37.37 0 0 1 .19-.49c.19-.08.41 0 .49.19 1.36 3.11 1.44 6.57 1.52 9.92.01.45.02.9.04 1.35.19 6.24 1.05 12.47 2.56 18.53l.17.66c.51 2.02 1.04 4.11.91 6.24-.03.49-.1 1.04-.44 1.48-.37.48-.94.69-1.5.85-2.81.85-5.72 1.38-8.66 1.58h-.03Z"
  />
  <path
    d="M178.44 293.85c-.09 0-.18-.03-.25-.1a.378.378 0 0 1-.03-.53 12.39 12.39 0 0 0 3.07-6.71c.03-.2.2-.35.42-.33.21.03.35.21.33.42-.33 2.62-1.49 5.15-3.26 7.12-.07.08-.18.12-.28.12Z"
  />
  <path
    d="M177.6 297.52c-.08 0-.17-.03-.24-.08a.38.38 0 0 1-.06-.53c.67-.83.75-2.01.82-3.16l.04-.59c.14-1.69.54-3.34 1.2-4.9a.375.375 0 0 1 .69.29c-.63 1.49-1.01 3.06-1.14 4.67l-.04.58c-.08 1.26-.17 2.56-.99 3.58a.37.37 0 0 1-.29.14ZM162.83 186.67c-.16 0-.31-.1-.36-.26l-.95-3.03c-.06-.2.05-.41.25-.47s.41.05.47.25l.95 3.03c.06.2-.05.41-.25.47-.04.01-.08.02-.11.02ZM179.79 194.99c-.2 0-.37-.16-.38-.36-.08-2.39-.66-4.79-1.68-6.96a.38.38 0 0 1 .18-.5c.18-.09.41 0 .5.18 1.06 2.25 1.67 4.76 1.75 7.25 0 .21-.16.38-.36.39h-.01ZM163.27 267c-.16 0-.3-.1-.36-.26-.6-1.83-.31-3.75-.03-5.61.09-.57.17-1.15.23-1.72.54-5.1-1.06-9.92-2.75-15.01-1.01-3.06-2.06-6.22-2.58-9.42-.4-2.43-.5-4.92-.6-7.33-.05-1.31-.11-2.66-.21-3.98-.31-4.08-1.1-8.18-1.86-12.14-.85-4.46-1.74-9.06-1.96-13.67-.1-1.96-.07-3.96-.05-5.9.03-2.96.07-6.03-.33-9-.03-.21.12-.39.32-.42.2-.02.39.12.42.32.4 3.02.37 6.12.34 9.11-.02 1.92-.04 3.91.05 5.85.22 4.56 1.1 9.14 1.95 13.57.76 3.99 1.55 8.11 1.87 12.22.1 1.34.16 2.7.21 4.01.1 2.39.2 4.85.59 7.24.51 3.14 1.55 6.28 2.56 9.31 1.64 4.95 3.33 10.06 2.78 15.33-.06.58-.15 1.17-.24 1.75-.28 1.85-.54 3.6 0 5.26.06.2-.04.41-.24.47-.04.01-.08.02-.12.02Z"
  />
  <path
    d="M165.61 269.27a.37.37 0 0 1-.37-.33c-.26-2.07-.79-4.1-1.57-6.03-.08-.19.02-.41.21-.49s.41.02.49.21c.8 1.99 1.35 4.09 1.62 6.22.03.21-.12.39-.33.42h-.05ZM168.28 264.36h-.02c-.86-.05-1.9-.21-2.3-1.09-.15-.34-.15-.7-.16-.98-.03-4.07.36-8.15 1.16-12.14.04-.2.24-.33.44-.29.2.04.33.24.29.44-.79 3.93-1.17 7.97-1.14 11.99 0 .28 0 .5.09.68.23.51 1 .62 1.65.65.21.01.37.19.35.39-.01.2-.18.35-.37.35Z"
  />
  <path
    d="M171.56 279.93c-.1 0-.2-.04-.27-.11-2.71-2.81-5.2-5.29-8.17-7.14-.34-.21-.98-.61-1.01-1.29-.01-.32.12-.6.23-.83.63-1.34.73-2.85.3-4.19-.06-.2.05-.41.24-.47.2-.06.41.05.47.24.48 1.53.37 3.23-.31 4.69-.11.23-.19.39-.18.53.01.26.35.49.66.69 3.04 1.9 5.56 4.41 8.31 7.25.14.15.14.39 0 .53-.07.07-.17.11-.26.11Z"
  />
  <path
    d="M177.76 297.63s-.08 0-.12-.02a46.286 46.286 0 0 0-12.65-2.47c-.5-.03-1.13-.06-1.59-.47-.38-.34-.53-.84-.64-1.21-1.06-3.54-2.27-7.55-1.99-11.55.08-1.09.26-2.17.44-3.22.22-1.31.45-2.66.46-4 0-.34 0-.69-.01-1.04-.04-1.88-.08-4.01 1.42-5.28.16-.13.4-.11.53.04.13.16.11.4-.04.53-1.23 1.04-1.19 2.89-1.15 4.69 0 .36.02.72.01 1.06 0 1.39-.25 2.78-.47 4.12-.17 1.03-.36 2.1-.43 3.15-.27 3.86.92 7.8 1.96 11.28.11.37.21.67.42.86.27.24.73.26 1.13.28 4.38.23 8.71 1.08 12.86 2.51.2.07.3.28.23.48-.05.16-.2.25-.35.25Z"
  />
  <path
    d="M168.23 285.82c-.13 0-.25-.07-.32-.18-2-3.36-3.04-7.37-2.93-11.28 0-.21.17-.34.39-.36.21 0 .37.18.36.39-.11 3.77.9 7.63 2.83 10.88.11.18.05.41-.13.51a.34.34 0 0 1-.19.05ZM162.92 293.36c-.18 0-.34-.13-.37-.32-.03-.21.11-.4.31-.43a30.9 30.9 0 0 1 3.59-.33c.2-.04.38.16.39.36 0 .21-.16.38-.36.39-1.17.04-2.35.15-3.5.32h-.06ZM151.89 193.79c-.15 0-.3-.09-.35-.25a68.704 68.704 0 0 0-4.71-10.24.375.375 0 0 1 .65-.37c1.87 3.3 3.47 6.79 4.76 10.35.07.19-.03.41-.22.48-.04.02-.09.02-.13.02ZM136.97 240.78c-.16 0-.31-.1-.36-.27-2.18-7.22-2.18-14.9-2.18-22.33 0-3.62 0-7.37-.25-11.01-.07-.99-.16-1.97-.24-2.96-.17-1.88-.34-3.83-.37-5.76-.04-2.11.09-4.26.21-6.33.19-3.17.38-6.44-.01-9.62-.03-.21.12-.39.33-.42.21-.03.39.12.42.33.41 3.25.21 6.56.02 9.76-.12 2.06-.25 4.19-.21 6.27.03 1.9.2 3.84.37 5.71.09.99.18 1.98.24 2.97.25 3.67.25 7.43.26 11.07 0 7.37 0 15 2.14 22.12.06.2-.05.41-.25.47-.04.01-.07.02-.11.02Z"
  />
  <path
    d="M140.3 275.72c-.16 0-.3-.1-.35-.25-1.68-4.98-3.42-10.12-4.08-15.45-.61-4.91-.29-9.9.02-14.73l1.79-27.99c.01-.21.19-.39.4-.35.21.01.36.19.35.4l-1.79 27.99c-.31 4.79-.62 9.75-.03 14.59.65 5.25 2.38 10.36 4.05 15.3.07.2-.04.41-.24.48-.04.01-.08.02-.12.02Z"
  />
  <path
    d="M154.33 293.38s-.08 0-.11-.02l-11.73-3.72c-.22-.07-.58-.18-.77-.51-.21-.37-.09-.77 0-1.07.69-2.2-.17-4.54-.99-6.8l-.21-.57a48.499 48.499 0 0 1-2.46-10.15.373.373 0 1 1 .74-.1c.44 3.4 1.25 6.77 2.42 9.99l.21.56c.87 2.38 1.77 4.84 1.01 7.26-.06.18-.13.4-.08.49.04.08.24.14.34.17l11.73 3.72c.2.06.31.27.24.47-.05.16-.2.26-.36.26Z"
  />
  <path
    d="M156.01 297.94c-.05 0-.11-.01-.16-.03a.372.372 0 0 1-.18-.5c1.49-3.23-.12-7-1.22-8.95a24.724 24.724 0 0 0-6.5-7.49.372.372 0 0 1-.07-.53c.12-.16.36-.19.53-.07 2.72 2.07 5.04 4.74 6.7 7.72 1.16 2.08 2.87 6.1 1.24 9.63a.37.37 0 0 1-.34.22Z"
  />
  <path
    d="M152.02 284.58H152a.372.372 0 0 1-.35-.4c.4-6.08.81-12.38-.84-18.35l-.21-.73c-.3-1.05-.62-2.13-.66-3.25-.05-1.32.27-2.59.59-3.83.11-.43.22-.87.31-1.3.47-2.2.54-4.51.6-6.74.06-2.09.11-4.24.5-6.34.45-2.42 1.34-4.75 2.2-7.01 1-2.61 2.03-5.32 2.34-8.11.02-.21.21-.34.41-.33.21.02.35.21.33.42-.33 2.89-1.37 5.63-2.39 8.29-.85 2.23-1.73 4.53-2.16 6.88-.38 2.04-.43 4.16-.49 6.22-.06 2.27-.12 4.61-.61 6.88-.1.44-.21.89-.32 1.33-.31 1.24-.61 2.41-.57 3.62.04 1.03.34 2.07.63 3.07.07.25.14.5.21.74 1.69 6.1 1.27 12.45.87 18.6-.01.2-.18.35-.37.35Z"
  />
  <path
    d="M153.4 251.5s-.06 0-.09-.01a.384.384 0 0 1-.28-.45 50.94 50.94 0 0 1 5.58-13.8c.1-.18.33-.24.51-.13.18.1.24.33.13.51a50.115 50.115 0 0 0-5.5 13.6c-.04.17-.19.29-.36.29Z"
  />
  <path
    d="M154.25 273.27h-.03c-.37 0-.68-.16-.88-.44-.12-.17-.08-.4.09-.52s.4-.08.52.09c.06.08.15.12.28.13.21 0 .45-.11.58-.27.27-.34.3-.84.33-1.41.08-2.26.17-4.59-.08-6.87-.03-.29-.07-.59-.11-.88-.11-.86-.23-1.74-.2-2.64.03-.94.22-1.86.4-2.75.08-.38.15-.75.22-1.13.56-3.25.23-6.6-.95-9.69a.37.37 0 0 1 .22-.48c.19-.07.41.02.48.22 1.23 3.21 1.57 6.7.99 10.08-.07.39-.14.77-.22 1.15-.18.9-.35 1.75-.38 2.63-.03.83.09 1.69.19 2.52.04.3.08.6.11.89.26 2.33.17 4.69.09 6.98-.02.54-.05 1.28-.48 1.84-.27.34-.72.56-1.16.56Z"
  />
  <path
    d="M153.48 298.58c-1.21 0-2.51-.27-3.81-.81-.31-.13-.62-.27-.93-.41-.6-.27-1.17-.53-1.78-.7-.44-.13-.93-.21-1.4-.29-1.22-.22-2.49-.44-3.38-1.38-.08-.08-.11-.19-.1-.31s.08-.21.18-.27c.63-.39.96-1.25.76-1.96-.13-.44-.43-.83-.75-1.23-.18-.23-.37-.47-.52-.72-.54-.86-.66-2.11.17-2.72.17-.12.4-.09.52.08.12.17.09.4-.08.52-.45.33-.34 1.15.02 1.72.14.23.31.44.48.66.35.45.71.91.88 1.49.26.88-.04 1.88-.7 2.51.7.54 1.65.7 2.65.88.49.09.99.18 1.47.31.66.19 1.28.47 1.89.74.3.14.6.27.91.4 1.75.71 3.45.92 4.93.61 1.72-.37 3.12-1.49 3.67-2.93.65-1.71.19-3.78-1.41-6.35-.21-.33-.42-.67-.64-1-1.1-1.69-2.23-3.44-2.46-5.48-.14-1.21.05-2.47.23-3.69.29-1.96.57-3.81-.49-5.25-.12-.17-.09-.4.08-.52.17-.12.4-.09.52.08 1.24 1.69.93 3.78.63 5.8-.17 1.17-.36 2.38-.23 3.5.21 1.87 1.29 3.54 2.34 5.16.22.34.44.68.65 1.01 1.73 2.78 2.21 5.07 1.47 7.01-.64 1.67-2.25 2.97-4.21 3.39-.5.11-1.02.16-1.56.16Z"
  />
  <path
    d="M155.38 296.62h-.21c-.59-.04-1.14-.25-1.65-.46-.71-.29-1.41-.61-2.12-.92-2.57-1.15-5.22-2.32-7.98-2.2-.18.05-.38-.15-.39-.35-.01-.21.15-.38.36-.39 2.94-.16 5.68 1.08 8.33 2.27.7.31 1.39.63 2.09.91.47.19.94.37 1.41.4.72.05 1.52-.25 2.24-.84.67-.56 1.2-1.29 1.71-2a.37.37 0 0 1 .52-.09c.17.12.21.36.09.52-.54.75-1.1 1.53-1.84 2.14-.8.66-1.7 1.02-2.56 1.02ZM178.1 294.97c-.06 0-.13-.02-.18-.05l-2.45-1.38c-.91-.51-1.85-1.04-2.87-1.31-.6-.16-1.23-.22-1.76-.27-2.39-.19-4.79-.04-7.14.45a.37.37 0 0 1-.44-.29c-.04-.2.09-.4.29-.44 2.42-.5 4.89-.65 7.35-.46.56.04 1.23.11 1.89.29 1.1.29 2.09.85 3.04 1.38l2.45 1.38c.18.1.25.33.14.51-.07.12-.2.19-.33.19ZM151.13 248.92c-1.97 0-3.59-1.38-4.46-2.72-1.01-1.55-1.45-3.42-1.84-5.07l-1.58-6.74c-.7-2.96-1.41-6.03-1.49-9.15 0-.21.16-.38.37-.38.2 0 .37.16.38.37.08 3.04.79 6.07 1.47 9l1.58 6.74c.39 1.67.8 3.4 1.74 4.84.79 1.21 2.27 2.48 4.04 2.37.21-.03.38.15.4.35.01.21-.15.38-.35.4h-.24ZM138.8 314.81c-2.09 0-4.17-.46-6.03-1.4-.31-.16-.67-.36-.87-.73-.17-.3-.19-.64-.2-.91l-.12-2.34c0-.15.08-.29.22-.36.14-.06.3-.04.41.07.91.85 2.22 1.09 3.72 1.29l3.41.46c.79.11 1.61.22 2.39.13 1.3-.13 2.5-.77 3.6-1.43 1.17-.71 2.32-1.5 3.4-2.35.51-.4 1.02-.82 1.53-1.25 2.09-1.74 4.26-3.54 6.95-4.18.07-.02.14-.01.21 0v-.22c0-1.12-.11-1.89-.25-2.41-.35.76-1.02 1.39-1.64 1.89-1.25 1.02-2.63 2.05-4.22 2.67l-.25.09c-.41.16-.8.3-1.08.56-.21.2-.38.47-.54.74l-1.33 2.22c-.11.18-.33.24-.51.13a.367.367 0 0 1-.13-.51l1.33-2.22c.18-.3.38-.63.67-.9.39-.36.86-.54 1.32-.71l.24-.09c1.49-.59 2.82-1.58 4.02-2.56.82-.67 1.66-1.48 1.59-2.43a.37.37 0 0 1 .23-.37c.15-.06.32-.02.42.09.58.64.86 1.89.87 3.81 0 1.23-.11 3.03-1.12 4.43-1.07 1.48-2.8 2.11-4.47 2.71-1.05.38-2.13.77-3.02 1.37-.47.31-.89.69-1.34 1.08-.23.2-.45.4-.69.59-2.42 1.99-5.57 3.02-8.71 3.02Zm-6.44-4.6.08 1.54c.01.21.02.43.11.58.1.18.33.31.56.42 4.4 2.22 10.12 1.59 13.93-1.54.23-.19.45-.38.67-.57.45-.39.91-.8 1.42-1.14.97-.65 2.1-1.06 3.19-1.45 1.64-.59 3.18-1.15 4.12-2.45.55-.76.86-1.74.95-3.05-2.52.6-4.61 2.34-6.64 4.02-.51.43-1.03.85-1.54 1.26-1.11.87-2.27 1.68-3.47 2.4-1.18.71-2.47 1.39-3.91 1.54-.87.09-1.73-.03-2.56-.14l-3.41-.46c-1.03-.14-2.37-.32-3.46-.98Z"
  />
  <path
    d="M154.5 303.96a.34.34 0 0 1-.22-.07.38.38 0 0 1-.08-.53c1.07-1.44 2.11-2.94 3.09-4.44.11-.17.35-.22.52-.11.17.11.22.35.11.52-.99 1.51-2.04 3.02-3.12 4.47a.37.37 0 0 1-.3.15ZM152.08 306.77s-.06 0-.1-.01a.38.38 0 0 1-.27-.46c.14-.52.05-1.11-.04-1.66-.4-2.33-1.07-4.62-1.97-6.8a.375.375 0 0 1 .69-.29c.92 2.24 1.6 4.58 2.01 6.96.11.64.2 1.32.03 1.98-.04.17-.2.28-.36.28ZM148.67 300.56h-.11c-.74-.05-.97-.38-1.04-.65-.04-.17-.02-.32 0-.43.12-.83-.35-1.61-.89-2.4-.08-.12-.09-.29 0-.41s.23-.19.38-.17c1.3.22 1.91.83 2.19 1.3.37.63.43 1.43.15 2.25-.03.08-.09.26-.25.38-.14.1-.3.12-.42.12Zm-.43-.84s.08.06.37.08c.14-.35.29-1.03-.06-1.62-.17-.28-.42-.5-.77-.67.35.64.58 1.31.48 2.03-.01.09-.02.16-.02.18ZM140.73 296.85c-.27 0-.5-.03-.73-.08a.366.366 0 0 1-.29-.41c.02-.19.17-.35.39-.33.14.04.31-.09.49-.19.08-.04.15-.08.23-.12.82-.4 1.75-.3 2.5-.21.17.02.31.16.33.33s-.08.34-.25.4c-1.3.46-2.07.62-2.67.62Z"
  />
  <path
    d="M138.1 303.21c-.06 0-.13-.02-.19-.05a.367.367 0 0 1-.13-.51c1.49-2.5 3.17-5.34 5.59-7.36a.38.38 0 0 1 .53.05c.13.16.11.39-.05.53-2.32 1.94-3.9 4.6-5.43 7.17a.36.36 0 0 1-.32.18Z"
  />
  <path
    d="M132.54 309.69h-.08a.38.38 0 0 1-.29-.45c.23-1.08.64-2.11 1.21-3.07.6-1 1.37-1.89 2.04-2.64 2.27-2.52 4.75-4.88 7.38-7.02.16-.13.4-.11.53.05s.11.4-.05.53c-2.6 2.12-5.05 4.45-7.3 6.94-.65.72-1.39 1.57-1.96 2.52-.53.88-.9 1.83-1.12 2.84-.04.18-.19.3-.37.3Z"
  />
  <path
    d="M142.73 306.68c-.71 0-1.43-.14-2.13-.27-1.07-.21-2.09-.4-3.04-.12l-.09.03c-.23.07-.52.16-.83.08-.53-.14-.79-.69-.76-1.16.02-.41.2-.75.39-1.09 1.23-2.14 2.75-4.1 4.52-5.83.15-.14.39-.14.53 0 .14.15.14.39 0 .53-1.72 1.68-3.2 3.58-4.4 5.66-.15.27-.28.51-.29.75 0 .18.09.37.21.4.1.03.25-.02.42-.07l.1-.03c1.13-.34 2.28-.12 3.4.1 1.09.21 2.12.41 3.07.1.92-.29 1.65-1.02 2.31-1.75 1.43-1.55 2.75-3.22 3.93-4.96.12-.17.35-.22.52-.1.17.12.22.35.1.52-1.2 1.77-2.55 3.47-4 5.05-.7.76-1.55 1.6-2.64 1.95-.44.14-.88.19-1.32.19Z"
  />
  <path
    d="M146.23 301.96c-.1 0-.2-.04-.27-.12a14.52 14.52 0 0 0-4.26-3.11.372.372 0 0 1-.18-.5c.09-.19.31-.27.5-.18 1.69.81 3.19 1.91 4.48 3.27.14.15.14.39-.01.53a.37.37 0 0 1-.26.1ZM144.2 303.67a.36.36 0 0 1-.22-.07c-1.15-.84-2.35-1.63-3.57-2.34a.375.375 0 0 1 .37-.65 39.2 39.2 0 0 1 3.64 2.38.37.37 0 0 1-.22.67ZM142.86 305.2c-.07 0-.15-.02-.21-.06-.94-.64-1.94-1.21-2.98-1.69a.372.372 0 0 1-.18-.5c.09-.19.31-.27.5-.18 1.07.5 2.11 1.09 3.08 1.75.17.12.22.35.1.52-.07.11-.19.16-.31.16Z"
  />
  <path
    d="M142.98 305.38a.4.4 0 0 1-.23-.08c-.59-.45-1.4-.72-2.34-.78-.87-.05-1.77.07-2.64.19-.2.03-.39-.12-.42-.32-.03-.21.12-.39.32-.42.9-.12 1.84-.25 2.79-.19 1.09.07 2.04.39 2.75.93a.38.38 0 0 1-.23.68ZM138.79 303.28a.37.37 0 0 1-.37-.33c-.02-.21.13-.39.33-.41 1.9-.21 3.84-.35 5.75-.41.23-.02.38.16.39.36 0 .21-.16.38-.36.39-1.9.06-3.81.2-5.69.41h-.04ZM140.76 301.48a.376.376 0 0 1-.08-.74c1.5-.35 3.05-.59 4.59-.71.3-.02 1-.08 1.39.42.13.16.1.4-.06.53s-.4.1-.53-.06-.49-.16-.75-.14c-1.5.11-3.01.35-4.47.69h-.09ZM141.88 299.69c-.16 0-.31-.1-.36-.26-.06-.2.05-.41.25-.47 1.36-.42 2.77-.63 4.19-.64.74.01 1.55.06 2.2.54.17.12.2.36.08.52a.37.37 0 0 1-.52.08c-.48-.35-1.15-.39-1.75-.39-1.35 0-2.68.21-3.97.61-.04.01-.07.02-.11.02Z"
  />
  <path
    d="M138.36 305.33c-.09 0-.17-.03-.25-.09-.16-.13-.17-.37-.04-.53l6.72-7.77c-.32.03-.7.13-1.1.23-.33.08-.66.17-1 .23-.71.13-1.41.14-2.1.15-.24 0-.5 0-.76-.04a.382.382 0 0 1-.31-.33c-.02-.24.08-.49.27-.65.16-.14.4-.11.53.05.05.07.08.14.09.22h.18c.66 0 1.33-.02 1.98-.13.32-.06.64-.14.94-.22.81-.21 1.58-.41 2.18-.12a.377.377 0 0 1 .12.58l-7.17 8.29c-.07.09-.18.13-.28.13ZM142.42 305.49a.42.42 0 0 1-.21-.06.383.383 0 0 1-.11-.52c1.69-2.57 3.44-5.15 5.21-7.68a.37.37 0 0 1 .52-.09c.17.12.21.35.09.52-1.77 2.53-3.52 5.1-5.2 7.66-.07.11-.19.17-.31.17ZM139.39 310.52a.34.34 0 0 1-.22-.07c-.13-.1-.28-.18-.43-.26-.2-.11-.39-.23-.57-.37-.38-.3-.72-.83-.57-1.4.06-.22.19-.41.28-.54.52-.73 1.08-1.44 1.69-2.11.14-.15.38-.17.53-.03.15.14.17.38.03.53-.58.64-1.13 1.33-1.63 2.04-.07.1-.14.2-.17.3-.05.21.12.46.32.62.15.12.31.21.47.3.17.1.34.2.5.31a.37.37 0 0 1-.22.67ZM134.07 308.47a.37.37 0 0 1-.34-.22.38.38 0 0 1 .18-.5c.8-.37 1.62-.68 2.45-.93.2-.06.41.05.47.25s-.05.41-.25.47c-.8.24-1.59.54-2.36.9-.05.02-.1.03-.16.03ZM176.03 314.74c-.62 0-1.26-.05-1.88-.23-1.64-.47-3.08-1.75-4.4-3.93l-.11-.17c-.46-.77-.94-1.57-1.7-1.89-.36-.15-.77-.19-1.2-.23-.32-.03-.65-.06-.98-.14-.98-.24-1.77-.87-2.47-1.42-.51-.4-1.15-.91-1.47-1.63-.35-.8-.24-1.64-.13-2.46.04-.31.09-.63.1-.94.03-.59-.06-1.18-.15-1.8l-.09-.63c-.26-2.11-.07-4.3.55-6.33.06-.2.27-.31.47-.25.2.06.31.27.25.47-.59 1.93-.77 4.02-.52 6.02l.09.62c.09.63.19 1.28.16 1.94-.01.33-.06.67-.1 1-.1.75-.2 1.45.07 2.06.24.55.78.97 1.25 1.34.64.51 1.37 1.08 2.19 1.28.28.07.57.1.87.12.47.05.96.09 1.42.29.97.42 1.54 1.36 2.04 2.19l.1.17c1.22 2.01 2.52 3.19 3.96 3.6.99.28 2.06.21 3.1.13l6.6-.46c.21-.01.4-.03.57-.08.68-.21 1.02-1.03 1.11-1.73.21-1.7-.52-3.6-2.17-5.63-.41-.5-.84-.99-1.27-1.48-.77-.87-1.56-1.76-2.22-2.75l-.01.01c-.16.13-.4.11-.53-.05a29.95 29.95 0 0 0-4.27-4.23.385.385 0 0 1-.08-.5c.04-.07.1-.11.17-.14a.526.526 0 0 1-.12-.14.378.378 0 0 1 .52-.53l.28.19c.3.08.89.08 1.44-.02a.4.4 0 0 1 .33.1c.09.08.13.21.11.33-.04.23.23.48.49.73l.14.13c.6.6.96 1.35 1.3 2.08.12.25.23.5.36.74.68 1.3 1.69 2.44 2.67 3.54.44.5.88.99 1.3 1.5 1.78 2.2 2.57 4.28 2.33 6.2-.12.93-.61 2.04-1.63 2.35-.25.08-.5.09-.73.11l-6.6.46c-.47.03-.97.07-1.48.07Zm2.4-15.34c.27.27.53.55.78.83-.02-.05-.05-.1-.07-.15-.13-.28-.26-.55-.4-.81-.1.06-.2.1-.31.13Zm-.81-.99c.1.08.2.16.3.21l-.3-.21Zm-.45-1.22.04.03s0-.02-.01-.03h-.03Z"
  />
  <path
    d="M167.78 301.92c-.07 0-.14-.01-.21-.04-.33-.12-.44-.47-.47-.58-.12-.4-.18-.83-.17-1.25 0-.22.03-.56.2-.86.12-.22.29-.39.44-.53.93-.92 1.63-2.01 2.06-3.18.06-.16.23-.27.4-.24.17.02.31.16.33.33.12 1.12-.37 2.13-.89 3.19-.35.73-.72 1.48-.89 2.28-.04.18-.08.38-.2.55-.15.21-.38.34-.6.34Zm.08-.72Zm.93-2.76c-.2.25-.42.49-.65.71-.17.16-.28.28-.35.4-.07.12-.1.29-.11.52-.01.33.03.67.13.98.01-.05.03-.1.04-.15.19-.92.58-1.71.95-2.47Z"
  />
  <path
    d="M168.94 303.94c-.06 0-.12-.01-.18-.05-.55-.3-.55-1.03-.55-1.3v-1.15c.04-1.86.06-3.78-.09-5.66l-1.28.39c-.2.06-.41-.05-.47-.25s.05-.41.25-.47l1.72-.52c.11-.03.22-.01.32.05s.15.16.16.28c.2 2.07.17 4.17.15 6.2v1.14c-.02.36.04.58.14.63.18.1.25.33.15.51-.07.12-.2.2-.33.2ZM163.07 296.71c-.09 0-.17-.03-.24-.09a.364.364 0 0 1-.13-.34c.09-.6.28-1.17.55-1.71.05-.1.15-.18.27-.2.12-.02.23.01.32.09.46.42.65.83.57 1.23-.09.43-.49.76-1.21 1.01-.04.01-.08.02-.12.02Zm.6-1.23s-.03.09-.05.13c.03-.04.04-.07.05-.08v-.05Z"
  />
  <path
    d="M176.48 306.7c-.46 0-.93-.06-1.39-.2-1.33-.41-2.33-1.48-3.13-2.35-1.08-1.16-2.2-2.36-3.12-3.69-.16-.22-.31-.45-.46-.68-.35-.52-.67-1.02-1.06-1.47-.48-.56-1.08-1.07-1.65-1.56-1.09-.93-2.21-1.88-2.71-3.27-.07-.19.03-.41.22-.48s.41.03.48.22c.44 1.2 1.44 2.06 2.5 2.96.6.51 1.21 1.04 1.74 1.64.42.49.78 1.03 1.12 1.55.15.22.29.45.45.67.89 1.29 1.99 2.46 3.05 3.6.79.84 1.67 1.79 2.81 2.14 1.19.37 2.51.04 3.67-.24l2.07-.51h.02c0-.02-.02-.04-.03-.07a41.003 41.003 0 0 0-4.33-6.65.38.38 0 0 1 .06-.53c.16-.13.4-.1.53.06 1.68 2.1 3.16 4.38 4.41 6.77.07.13.27.51.03.85-.15.21-.38.26-.5.3l-2.07.51c-.8.2-1.74.43-2.68.43Z"
  />
  <path
    d="M175.76 305.33c-.12 0-.24-.06-.31-.17-2.11-3.19-4.43-6.31-6.88-9.27-.13-.16-.11-.4.05-.53s.4-.11.53.05c2.47 2.98 4.8 6.12 6.92 9.34a.374.374 0 0 1-.32.58ZM179.07 305.6c-.13 0-.26-.07-.33-.2a246.92 246.92 0 0 0-4.59-8.08.363.363 0 0 1 .13-.51c.18-.11.41-.05.51.13 1.58 2.66 3.13 5.38 4.61 8.1.1.18.03.41-.15.51-.06.03-.12.05-.18.05ZM175.58 310.89a.37.37 0 0 1-.34-.22.38.38 0 0 1 .18-.5l1.52-.71c.63-.29 1.42-.66 1.82-1.28.06-.09.06-.12.06-.12 0-.02-.05-.1-.07-.13-.35-.55-.73-1.08-1.14-1.6a.38.38 0 0 1 .06-.53c.16-.13.4-.1.53.06.42.53.82 1.09 1.18 1.66.06.1.17.27.19.48.02.25-.09.45-.18.58-.52.81-1.41 1.22-2.13 1.55l-1.52.71c-.05.02-.1.03-.16.03ZM185.59 308.95s-.07 0-.1-.01l-3.2-.89c-.17-.05-.37-.1-.55-.25-.22-.18-.31-.42-.39-.6l-.59-1.43a.375.375 0 0 1 .69-.29l.59 1.43c.04.11.1.25.17.3.06.05.17.08.28.11l3.2.89a.37.37 0 0 1-.1.73ZM169.96 307.48h-.07a.375.375 0 0 1-.29-.44c.18-.91-.17-1.97-.94-2.85-.73-.83-1.71-1.42-2.66-2l-1.44-.87c-.45-.27-.91-.55-1.31-.94-.69-.68-1.07-1.59-1.4-2.4a.375.375 0 0 1 .69-.29c.3.74.65 1.57 1.23 2.15.33.33.76.58 1.17.83l1.44.87c1 .6 2.03 1.23 2.83 2.14.92 1.05 1.34 2.36 1.11 3.49-.04.18-.19.3-.37.3Z"
  />
  <path
    d="M164.45 304.15c-.12 0-.24-.06-.31-.17-.83-1.22-1.52-2.54-2.06-3.92a.38.38 0 0 1 .21-.49c.19-.07.41.02.49.21.52 1.33 1.18 2.59 1.98 3.77.12.17.07.4-.1.52-.06.04-.14.06-.21.06Z"
  />
  <path
    d="M177.96 311.13h-.11c-2.83-.02-5.36-.88-7.13-2.43-.45-.4-.86-.84-1.26-1.27-.58-.63-1.13-1.23-1.8-1.68-.62-.42-1.31-.69-2.05-.98-.32-.12-.64-.25-.95-.39-1.38-.61-2.27-1.35-2.72-2.28a.377.377 0 0 1 .17-.5c.19-.09.41-.01.5.17.37.76 1.14 1.39 2.35 1.92.3.13.61.25.92.38.74.29 1.5.59 2.19 1.05.75.5 1.35 1.16 1.94 1.79.38.42.78.85 1.2 1.21 1.63 1.43 3.99 2.22 6.64 2.24 2.53.04 5.03-.63 7.19-1.23.2-.05.41.06.46.26.06.2-.06.41-.26.46-2.18.61-4.71 1.26-7.29 1.26ZM176.02 299.27a.37.37 0 0 1-.37-.33s-.03-.09-.36-.19c-1.5-.44-3.04-.83-4.58-1.17a.38.38 0 0 1-.29-.45c.04-.2.24-.33.45-.29 1.55.33 3.11.73 4.63 1.18.55.16.85.44.9.82a.38.38 0 0 1-.33.42h-.04ZM177.39 301.52s-.1 0-.14-.03l-6-2.51a.375.375 0 0 1 .29-.69l6 2.51a.375.375 0 0 1-.15.72Z"
  />
  <path
    d="M178.63 302.68c-.2 0-.38-.05-.49-.09l-5.57-1.65a.375.375 0 0 1-.25-.47c.06-.2.26-.31.47-.25l5.57 1.65c.27.08.33.06.34.05.16-.13.4-.09.53.07.12.17.09.4-.07.53-.16.12-.34.16-.51.16ZM179.48 304.66s-.08 0-.12-.02a57.63 57.63 0 0 0-5.85-1.61.385.385 0 0 1-.29-.45c.04-.2.24-.33.45-.29 1.99.44 3.98.99 5.93 1.63.2.07.3.28.24.47-.05.16-.2.26-.36.26Z"
  />
  <path
    d="M174.39 305.09c-.17 0-.32-.11-.36-.28-.05-.2.07-.4.27-.46 1.68-.42 3.41-.69 5.15-.8.23-.02.38.14.4.35s-.14.38-.35.4c-1.69.11-3.38.37-5.01.78-.03 0-.06.01-.09.01ZM173.16 303.89c-.11 0-.22-.05-.3-.15-.13-.16-.1-.4.07-.53 1.43-1.1 2.97-2.05 4.59-2.84a.38.38 0 0 1 .5.17c.09.19.01.41-.17.5-1.57.77-3.07 1.69-4.46 2.76a.4.4 0 0 1-.23.08ZM171.68 301.73c-.09 0-.19-.04-.26-.11a.368.368 0 0 1 0-.53c.91-.94 1.93-1.79 3.01-2.52.56-.38 1.23-.74 1.94-.54.2.05.32.26.26.46a.37.37 0 0 1-.46.26c-.42-.12-.9.16-1.32.44-1.04.7-2.01 1.51-2.89 2.42-.07.08-.17.11-.27.11ZM170.34 299.51c-.12 0-.24-.06-.31-.17a.374.374 0 0 1 .11-.52l4.2-2.76c.17-.11.4-.07.52.11.11.17.07.41-.11.52l-4.2 2.76a.37.37 0 0 1-.21.06Z"
  />
  <path
    d="M169.37 302.27h-.07a.377.377 0 0 1-.3-.44l1.12-6.25a.377.377 0 0 1 .74.14l-1.12 6.25c-.03.18-.19.31-.37.31Z"
  />
</svg>
