<svg class="svg" xmlns="http://www.w3.org/2000/svg" viewBox="0 0 320 320">
  <path
    d="m125.68,239.21c-.16,0-.31-.07-.41-.21-1.42-1.93-2.25-4.3-2.34-6.68v-.17s.09-.14.09-.14c1.16-1.73,2.87-3.05,4.42-4.2.2-3.28.46-6.84.72-10.29l.03-.36c.22-2.9.45-5.9.94-8.83.31-1.82.73-3.75,1.38-6.27,1.56-6.16,3.57-12.54,7.7-17.43.18-.21.51-.24.72-.06.22.18.24.51.06.72-4,4.73-5.96,10.97-7.49,17.02-.64,2.49-1.06,4.4-1.36,6.19-.49,2.88-.72,5.86-.93,8.73l-.03.36c-.26,3.52-.54,7.16-.73,10.5.03-.01.07-.02.11-.02.28-.03.54.17.57.45.31,2.9,1.79,5.61,4.07,7.44.22.18.26.5.08.72-.18.22-.5.26-.72.08-2.49-1.99-4.11-4.96-4.45-8.13v-.04c-1.51,1.13-3.06,2.31-4.13,3.85.11,2.12.87,4.23,2.13,5.95.17.23.12.55-.11.72-.09.07-.2.1-.3.1Zm10.79-3.89c-.11,0-.23-.04-.32-.11-1.6-1.3-2.89-3.13-3.82-5.44-.79-1.95-1.25-3.92-1.78-6.28-.06-.28.11-.55.39-.61.28-.06.55.12.61.39.42,1.92.91,4.1,1.73,6.12.87,2.15,2.05,3.85,3.52,5.03.22.18.25.5.08.72-.1.13-.25.19-.4.19Z"
  />
  <path
    d="m130.97,242.52c-.33,0-.64-.08-.93-.16-.39-.11-.79-.23-1.2-.35-1.49-.44-2.9-.86-4.35-.82l-.72.02.22-.69c.25-.79.58-1.56.99-2.31.14-.25.45-.34.7-.2.25.14.34.45.2.7-.27.48-.49.97-.68,1.47,1.35.08,2.66.47,3.94.85.39.12.79.23,1.18.34.29.08.52.13.73.12.2-.02.41-.1.63-.19,2.4-.93,4.92-1.31,7.39-1.14-.4-.18-.8-.36-1.19-.57-.25-.13-.35-.44-.21-.69s.44-.35.69-.21c4.31,2.29,9.52,2.41,14.11,2.51,3.26.07,6.52.15,9.78.23.28,0,.51.24.5.53s-.26.49-.53.5c-3.26-.09-6.52-.16-9.77-.23-3.84-.09-8.09-.18-11.98-1.51,0,.04,0,.08,0,.13-.04.28-.3.48-.57.44-2.61-.33-5.29,0-7.75.95-.35.14-.66.26-1.01.29-.05,0-.11,0-.16,0Z"
  />
  <path
    d="m162.32,242.53c-.19,0-.37-.03-.54-.1-.26-.1-.4-.4-.29-.66.1-.26.4-.4.66-.29.16.06.35.04.49-.07.3-.21.38-.73.43-1.23.07-.7.13-1.41.18-2.11.15-2.33.07-4.72-.01-7.03v-.35c-.06-1.55-.13-2.94-.41-4.28-.05-.23-.1-.47-.16-.7-.19-.81-.39-1.65-.32-2.53.02-.28.3-.48.55-.47.28.02.49.27.47.55-.06.72.11,1.44.29,2.21.06.24.11.49.16.73.29,1.42.36,2.86.41,4.45v.35c.06,1.38.11,2.78.11,4.19.79-1.22,1.38-2.58,1.96-3.97,1.13-2.7,2.16-5.39,3.06-7.98.09-.27.39-.41.65-.32.27.09.41.38.32.65-.91,2.61-1.95,5.32-3.08,8.04-.75,1.78-1.51,3.51-2.69,5.03-.07.09-.15.14-.25.18-.01.44-.03.87-.06,1.31-.05.72-.11,1.43-.19,2.15-.06.55-.15,1.47-.86,1.97-.27.19-.59.28-.9.28Zm-1.9-10.18s-.02,0-.04,0c-.28-.02-.5-.26-.48-.55.43-6.44.05-12.91-1.13-19.25-.05-.28.13-.55.41-.6.27-.06.55.13.6.41,1.19,6.42,1.58,12.99,1.15,19.51-.02.27-.24.48-.51.48Zm-21.97-46.85c-.1,0-.19-.03-.28-.08-.24-.15-.3-.47-.15-.71.45-.69.87-1.42,1.27-2.22.15-.3.31-.66.56-.96.23-.28.5-.5.74-.68,1.64-1.32,2.69-2.7,3.19-4.15.09-.27.38-.41.65-.32.27.09.41.38.32.65-.56,1.64-1.73,3.18-3.47,4.58-.27.22-.48.38-.63.57-.17.21-.3.48-.44.77-.42.85-.86,1.61-1.33,2.33-.1.15-.26.23-.43.23Zm9.96-8.12l-.28-.77.27-.2c.55-1.77.88-3.54.98-5.28.02-.28.25-.5.54-.48.28.02.5.26.48.54-.11,1.93-.48,3.88-1.11,5.81l-.11.34-.77.04Zm-1.43-4.01c-.08,0-.17-.02-.24-.06-.25-.13-.34-.45-.21-.7.33-.62.4-1.39.16-2.06-.39-1.13-1.47-1.84-2.62-2.6-.31-.2-.61-.4-.9-.61-3.46-2.48-5.49-6.88-5.3-11.49.17-4.12,2.1-8.35,5.3-11.61,2.82-2.86,6.53-5.04,11.02-6.48.27-.09.56.06.65.33s-.06.56-.33.64c-4.34,1.38-7.91,3.48-10.61,6.22-3.02,3.07-4.85,7.06-5,10.93-.17,4.2,1.74,8.36,4.88,10.61.28.2.58.4.87.59,1.24.82,2.52,1.66,3.02,3.12.33.94.24,2.01-.23,2.88-.09.17-.27.27-.45.27Zm18.17-5.21s-.02,0-.03,0c-.28-.02-.5-.26-.48-.54.1-1.72.66-3.35,1.21-4.93.24-.68.47-1.36.67-2.05.13-.45.23-.96.02-1.23-.13-.17-.39-.26-.69-.37-.31-.11-.67-.24-.96-.49-1.05,3.09-2.6,6.1-5.36,7.93-.23.15-.55.09-.71-.14-.16-.24-.09-.55.14-.71,3.26-2.17,4.73-6.27,5.73-10.01.99-3.66,1.71-7.52.32-10.88-.11-.26.02-.56.28-.67.26-.11.56.02.67.28,1.51,3.64.76,7.7-.27,11.54-.16.58-.32,1.17-.51,1.77.13-.01.26.03.37.12.15.13.39.22.64.31.39.14.84.3,1.15.7.57.72.29,1.68.16,2.14-.21.71-.45,1.41-.69,2.11-.55,1.58-1.06,3.07-1.15,4.65-.02.27-.24.48-.51.48Z"
  />
  <path
    d="m164.61,169.81s-.07,0-.1-.01c-.28-.05-.46-.32-.4-.6.61-3.13,2.18-5.94,3.7-8.66,1.35-2.41,2.74-4.91,3.42-7.58,1.01-3.96.43-8.26-1.6-11.79-.14-.25-.06-.56.19-.7.25-.14.56-.06.7.19,2.16,3.76,2.78,8.34,1.7,12.56-.71,2.79-2.14,5.35-3.51,7.82-1.48,2.65-3.01,5.4-3.59,8.36-.05.25-.26.41-.5.41Zm-4.69-11.3c-.09,0-.19-.03-.27-.08-.24-.15-.31-.47-.16-.71,3.14-4.97,3.38-11.53.6-16.71-.22-.41-.47-.83-.79-1.18-1.01-1.07-2.59-1.31-4.41-1.49-.28-.03-.49-.28-.46-.56.03-.28.3-.48.56-.46,1.56.16,3.7.37,5.06,1.81.41.43.71.95.95,1.39,2.94,5.51,2.69,12.47-.64,17.74-.1.15-.26.24-.43.24Z"
  />
  <path
    d="m165.81,145.25s-.04,0-.06,0c-.28-.03-.48-.29-.45-.57.23-1.92-1.02-4.04-3.03-5.14-1.65-.91-3.76-1.26-6.46-1.08-.28,0-.53-.19-.55-.48-.02-.28.19-.53.48-.55,2.9-.2,5.2.19,7.02,1.2,2.36,1.3,3.83,3.84,3.55,6.16-.03.26-.25.45-.51.45Z"
  />
  <path
    d="m119.91,257.48c-.24,0-.46-.17-.5-.42-.48-2.68-.17-5.63.95-8.77.97-2.73,2.41-5.25,3.92-7.81.15-.24.46-.32.7-.18.24.14.33.46.18.7-1.48,2.51-2.9,4.99-3.84,7.63-1.05,2.97-1.36,5.74-.91,8.24.05.28-.14.55-.41.6-.03,0-.06,0-.09,0Zm27.46-83.88c-.13,0-.27-.05-.37-.16-.2-.2-.19-.53.01-.73,4.55-4.43,6.64-10.92,8.39-17.18.08-.27.36-.43.63-.36.27.08.43.36.36.63-1.79,6.4-3.93,13.03-8.66,17.64-.1.1-.23.15-.36.15Zm4.75-1.21c-.19,0-.37-.11-.46-.29-.09-.19-.05-.41.08-.56-.21.16-.52.14-.7-.07-.19-.21-.16-.54.05-.72l.12-.1c.7-.61,1.42-1.23,2.02-1.93.68-.8,1.13-1.61,1.34-2.43.07-.28.34-.44.62-.37.27.07.44.35.37.62-.24.98-.77,1.94-1.55,2.85-.65.76-1.4,1.41-2.12,2.04l-.04.03s.04-.02.06-.03c2.81-1.35,5.09-3.5,6.6-6.23.14-.25.45-.34.7-.2.25.14.34.45.2.7-1.61,2.92-4.05,5.22-7.05,6.66-.07.03-.15.05-.22.05Zm-2.94-9.36c-.2,0-.39-.12-.47-.32-1.12-2.67-1.14-5.58-1.03-7.81.18-3.62.72-6.48,1.72-9,1.25-3.15,3.21-5.66,5.65-7.26.24-.16.55-.09.71.15.16.24.09.55-.15.71-2.87,1.88-4.44,4.73-5.26,6.78-.96,2.41-1.48,5.16-1.65,8.67-.1,2.12-.08,4.88.95,7.36.11.26-.01.56-.28.67-.06.03-.13.04-.2.04Zm22.13-19.26c-.22,0-.42-.14-.49-.36-.2-.62-.63-1.22-1.31-1.84-1.37-1.24-3.25-2.12-5.59-2.63-1.68-.37-3.44-.51-5.15-.65l-1.26-.11c-.28-.03-.49-.28-.46-.56.03-.28.28-.49.56-.46l1.26.11c1.74.14,3.53.29,5.28.67,2.51.55,4.55,1.52,6.06,2.87.82.74,1.35,1.49,1.6,2.29.09.27-.06.56-.33.64-.05.02-.1.02-.16.02Z"
  />
  <path
    d="m152.26,286.76c-.07,0-.13-.01-.2-.04-2.66-1.12-5.65-1.43-8.54-1.74-3.36-.36-6.84-.73-9.89-2.34-2.14-1.12-3.92-2.79-5.64-4.4-1.66-1.56-3.31-3.11-4.97-4.66l-2.58-2.41c-1.61-1.53-3.44-3.26-4.09-5.57-.54-1.9-.21-3.89.18-5.58.66-2.84,1.64-5.6,2.91-8.21.13-.26.43-.36.69-.24.25.12.36.43.24.69-1.24,2.54-2.2,5.23-2.84,7.99-.36,1.56-.67,3.39-.19,5.07.58,2.04,2.3,3.67,3.81,5.1l2.58,2.41c1.66,1.55,3.32,3.1,4.97,4.66,1.67,1.57,3.4,3.18,5.42,4.24,2.88,1.52,6.11,1.87,9.52,2.23,2.97.31,6.03.64,8.83,1.82.26.11.38.41.27.67-.08.2-.27.31-.47.31Z"
  />
  <path
    d="m151.81,286.76c-.22,0-.43-.05-.63-.14-.26-.12-.37-.42-.25-.68.12-.26.42-.37.68-.25.43.2,1.02-.31,1.44-.77,1.82-1.98,3.64-3.94,5.45-5.91l.42-.45c1.89-2.03,4.03-4.34,5.51-6.97,1.15-2.04,2.02-4.48,2.65-7.45.57-2.7.88-5.49.92-8.3.05-3.65-.74-6.1-2.4-7.47-.99.66-2.1,1.09-3.26,1.27l-.19.03c-.25.03-.5.07-.74.14-.31.09-.59.25-.89.43-3.55,2.01-7.32,3.36-11.28,4.02-.28.05-.54-.14-.59-.42s.14-.54.42-.59c3.84-.64,7.5-1.94,10.89-3.87.39-.22.74-.43,1.16-.55.29-.09.59-.13.89-.17l.18-.03c1.24-.19,2.44-.73,3.45-1.55.22-.18.54-.15.72.07.13.17.15.39.05.57,1.81,1.6,2.67,4.27,2.62,8.14-.04,2.88-.35,5.74-.94,8.5-.66,3.07-1.56,5.61-2.76,7.74-1.54,2.74-3.72,5.09-5.65,7.17l-.42.45c-1.82,1.97-3.63,3.93-5.45,5.91-.7.77-1.37,1.15-1.99,1.15Z"
  />
  <path
    d="m158.84,250.74c-.16,0-.32-.07-.42-.21-.17-.23-.11-.55.12-.72.74-.53,1.53-1.16,1.59-1.93h-.01c-.51-.01-1.01-.02-1.5-.03l-2.28-.05.47-.76c.97-1.56,1.47-3.43,1.42-5.27,0-.28.21-.52.5-.53.26-.01.52.21.53.5.05,1.74-.35,3.52-1.14,5.08h.52c.5.02,1,.03,1.5.04.17,0,.59,0,.85.36.14.19.2.42.17.7-.06,1.33-1.34,2.25-2.02,2.74-.09.07-.2.1-.3.1Zm1.41-2.85h.01-.01Z"
  />
  <path
    d="m132.01,248.74c-.21,0-.42,0-.64,0-2.83-.07-6.77-.76-9.41-3.59-.19-.21-.18-.53.02-.73.21-.19.53-.18.73.02,2.4,2.57,6.05,3.2,8.69,3.26,1.93.05,3.89-.15,5.79-.34,1.33-.14,2.72-.28,4.09-.33,1.54-.06,3.13-.02,4.67.02,4.21.11,8.55.22,12.15-1.8.25-.14.56-.05.7.2.14.25.05.56-.2.7-3.84,2.16-8.34,2.04-12.68,1.93-1.52-.04-3.1-.08-4.61-.02-1.34.05-2.71.19-4.03.33-1.72.18-3.5.36-5.28.36Z"
  />
  <path
    d="m120.93,268.04c-.26,0-.48-.2-.51-.46-.5-4.97.84-9.88,2.07-13.6.42-1.29.88-2.57,1.33-3.86,1.04-2.94,2.12-5.99,2.79-9.07.06-.28.33-.45.61-.39.28.06.45.33.39.61-.68,3.15-1.77,6.22-2.82,9.2-.45,1.27-.9,2.55-1.32,3.83-1.19,3.62-2.5,8.4-2.02,13.17.03.28-.18.53-.46.56-.02,0-.04,0-.05,0Z"
  />
  <path
    d="m154.29,260.16c-.2,0-.39-.12-.47-.32-.82-2-1.91-3.88-3.26-5.59l-.38-.06c-.32-.05-.54-.32-.52-.65,0-.2.1-.39.24-.51.1-.47.17-.94.2-1.42-.14,0-.27-.07-.37-.19-1.2-1.47-3.71-1.13-5.5-.74l-16.9,3.61c-1.15.24-2.45.52-3.73.18-1.3-.35-2.59-1.54-2.43-3.06.03-.28.28-.49.56-.46.28.03.49.28.46.56-.09.91.8,1.72,1.68,1.96,1.04.28,2.21.03,3.25-.19l16.89-3.61c1.87-.4,4.44-.75,6.06.63-.06-.7-.21-1.39-.44-2.05-.09-.27.05-.56.31-.65.27-.1.56.05.65.31.58,1.64.69,3.45.34,5.17.08.08.14.15.18.2,1.52,1.87,2.75,3.94,3.66,6.16.11.26-.02.56-.28.67-.06.03-.13.04-.19.04Z"
  />
  <path
    d="m141.26,280.95s-.09,0-.13,0h-.12s-6.39-.28-6.39-.28c-.62-.03-1.22-.08-1.76-.38-.53-.3-.88-.8-1.17-1.25-3.72-5.68-5.82-12.54-5.92-19.32v-.02c0-.58.18-1.07.56-1.45.95-.97,2.88-.99,4.58-1,.29,0,.57,0,.83-.01,3.54-.1,7-.82,10.29-2.15.44-.18,1.35-.54,2.01.04.36.3.48.75.54,1.11.31,1.72.24,3.47.18,5.17-.03.67-.06,1.35-.06,2.02-.02,2.86.56,4.95,1.75,6.38l.12.15c.41.48.92,1.07.85,1.86-.07.63-.49,1.08-.83,1.44-1.72,1.83-3.02,4.01-3.79,6.33-.15.42-.33.97-.86,1.23-.24.12-.48.14-.7.14Zm-14.46-21.25c.1,6.59,2.14,13.25,5.75,18.78.23.36.49.72.82.91.34.19.79.23,1.3.25l6.48.28c.12,0,.28,0,.34-.03.16-.08.26-.37.35-.63.82-2.47,2.19-4.78,3.98-6.69.29-.31.56-.6.59-.88.03-.35-.29-.72-.61-1.09l-.13-.16c-1.36-1.63-2.01-3.94-1.99-7.05,0-.68.03-1.37.06-2.06.07-1.64.13-3.34-.16-4.96-.02-.11-.07-.4-.19-.51-.2-.17-.75.05-.96.13-3.41,1.38-6.99,2.13-10.65,2.23-.27,0-.55.01-.85.01-1.43.01-3.21.03-3.86.69-.18.19-.27.42-.26.73l-.51.02h.51Zm20.44,7.49c-.15,0-.29-.06-.39-.18-.18-.22-.15-.54.07-.72,3.78-3.15,6.93-6.92,9.35-11.2.14-.25.45-.33.7-.19.25.14.33.45.19.7-2.49,4.39-5.71,8.25-9.59,11.48-.1.08-.21.12-.33.12Zm-30.76-2.17s-.08,0-.12-.01c-.28-.07-.45-.34-.38-.62.65-2.72,1.45-6.1,3.76-8.38.2-.2.53-.2.73,0,.2.2.2.53,0,.73-2.1,2.08-2.87,5.3-3.48,7.89-.06.24-.27.39-.5.39Zm58.05-63.14c-.27,0-.5-.22-.51-.49-.13-3.02-.71-6-1.71-8.84-1.15-3.27-2.66-5.55-4.63-6.99-.31-.23-.64-.44-.96-.65-.86-.56-1.76-1.13-2.37-2.03-.19-.27-.35-.57-.51-.87-.33-.62-.65-1.2-1.17-1.41-.25-.1-.56-.12-.87-.13-.28-.01-.56-.03-.86-.09-1.15-.25-1.85-1.14-2.53-1.99-.35-.44-.68-.85-1.06-1.18-1.64-1.4-4.1-.99-5.09-.75-.22.05-.43.11-.65.17-.72.2-1.47.39-2.26.39-.25,0-.5-.02-.76-.04-.31-.03-.6-.05-.88-.03-.37.02-.85.18-1.02.54l-.18.38-2.91-.7c-.27-.07-.44-.34-.38-.62.07-.27.33-.45.62-.38l2.14.51c.42-.51,1.1-.74,1.66-.77.36-.02.7,0,1.03.03.25.02.5.05.75.04.63,0,1.25-.17,1.91-.35.23-.06.45-.13.68-.18,2.41-.59,4.59-.24,6,.96.45.39.83.86,1.19,1.32.59.75,1.16,1.46,1.95,1.63.21.05.44.06.68.07.37.02.8.03,1.21.2.86.35,1.3,1.16,1.69,1.87.14.27.29.53.45.77.5.73,1.27,1.23,2.08,1.75.34.22.69.44,1.01.68,2.13,1.56,3.77,4.01,4.99,7.47,1.03,2.94,1.63,6.02,1.77,9.14.01.28-.21.52-.49.54h-.02Z"
  />
  <path
    d="m161.88,207.76c-.18,0-.35-.1-.45-.26l-1.98-3.56c-1.46-2.62-2.84-5.43-2.14-8.26.44-1.77,1.61-3.19,2.71-4.34.95-1.01,2.26-2.24,3.94-2.77,1.78-.56,3.83-.26,5.63.82,1.48.88,2.77,2.27,3.84,4.12.14.25.06.56-.19.7-.25.14-.56.06-.7-.19-.98-1.7-2.15-2.96-3.48-3.76-1.53-.91-3.32-1.18-4.8-.72-1.45.46-2.63,1.57-3.5,2.49-1,1.06-2.08,2.34-2.46,3.88-.6,2.48.68,5.07,2.04,7.52l1.98,3.56c.14.25.05.56-.2.7-.08.04-.16.07-.25.07Z"
  />
  <path
    d="m189.31,242.54c-3.8,0-7.2-2.27-10.11-4.42-1.67-1.25-3.26-2.5-4.47-4.12-.74-.98-1.3-2.09-1.84-3.15l-7.65-15.22c-2.34-4.67-4.75-9.5-6.44-14.55-.09-.27.06-.56.32-.65.27-.09.56.06.65.32,1.67,4.98,4.06,9.77,6.38,14.41l7.65,15.22c.54,1.08,1.05,2.09,1.74,3,1.13,1.51,2.66,2.71,4.26,3.91,2.94,2.18,6.42,4.49,10.14,4.19.26-.03.53.19.55.47.02.28-.19.53-.47.55-.24.02-.48.03-.72.03Zm1.81-5.98c-.18,0-.36-.1-.45-.27-.63-1.19-1.25-2.39-1.87-3.59l-.6-1.16c-.81-1.57-1.65-3.18-2.75-4.58-.4-.51-.84-1-1.27-1.47-.41-.45-.81-.9-1.19-1.37-1.25-1.57-2.2-3.35-2.96-4.88-3.75-7.56-6.16-15.64-7.18-24.02-.03-.28.17-.54.45-.57.27-.04.54.16.57.45,1,8.26,3.39,16.24,7.08,23.69.73,1.48,1.65,3.2,2.84,4.69.36.45.76.89,1.15,1.32.44.49.9.99,1.31,1.53,1.16,1.47,2.02,3.13,2.85,4.74l.6,1.16c.62,1.2,1.24,2.39,1.87,3.58.13.25.04.56-.21.69-.08.04-.16.06-.24.06Z"
  />
  <path
    d="m145.91,285.35l-.47-.91c.18-.09.36-.19.54-.29l.29-.16s.08-.04.12-.05c8.22-4.48,14.57-12.58,17-21.63l-.06-.55c-.42-4.03-1.23-8.09-2.4-12.06-.08-.27.07-.56.35-.64.27-.08.56.08.64.35,1.08,3.66,1.86,7.39,2.31,11.12l.6.19c-2.17,10.42-9.42,19.85-18.92,24.63Zm10.58-3.62c-.18,0-.36-.1-.45-.28-.13-.25-.03-.56.22-.69,13.22-6.91,24.8-17,35.33-26.88l.24-.22c3.33-3.12,6.77-6.35,11.02-8.17.26-.11.56,0,.67.27.11.26-.01.56-.27.67-4.09,1.74-7.46,4.91-10.72,7.97l-.24.22c-10.59,9.93-22.22,20.08-35.56,27.05-.08.04-.16.06-.24.06Zm8.99-33.11c-.16,0-.31-.07-.41-.21-.17-.23-.12-.55.11-.72,3.69-2.7,7.65-4.99,11.82-6.83-4.33-1.11-8.58-2.6-12.65-4.42-.26-.12-.37-.42-.26-.68.12-.26.42-.38.68-.26,4.42,1.98,9.06,3.55,13.78,4.68,0,0,.01,0,.02,0,1.03-.42,2.07-.81,3.12-1.18.26-.09.56.05.65.32.09.27-.05.56-.32.65-5.81,2.02-11.27,4.89-16.23,8.53-.09.07-.2.1-.3.1Zm26.42-4.81c-1.45,0-2.88-.4-4.03-.72-.94-.26-1.84-.55-2.47-1.29-.18-.22-.16-.54.06-.72.22-.18.54-.16.72.06.44.52,1.15.74,1.96.96,2.04.57,3.86.98,5.51.4,1.43-.5,2.68-1.79,3.71-3.83.29-.58.56-1.17.82-1.76.53-1.19,1.08-2.43,1.86-3.53.16-.23.49-.29.72-.12.23.16.29.48.12.72-.72,1.02-1.25,2.2-1.76,3.35-.27.61-.54,1.22-.84,1.81-1.16,2.29-2.6,3.75-4.29,4.34-.68.24-1.39.34-2.09.34Zm-18.37-12.6c-.11,0-.21-.03-.31-.1l-5.07-3.78c-.23-.17-.27-.49-.1-.72.17-.23.49-.27.72-.1l5.07,3.78c.23.17.27.49.1.72-.1.14-.25.21-.41.21Zm-9.57-49.35c-.09,0-.18-.02-.26-.07-.24-.15-.32-.46-.18-.7,1.25-2.09,2.64-4.13,4.15-6.05-1.13-.39-2.23-.91-3.26-1.54-.24-.15-.32-.46-.17-.71.15-.24.46-.32.71-.17,2.34,1.44,5.04,2.24,7.79,2.31.17,0,.33-.03.46-.08.44-.19.5-.55.55-1.4.02-.33.04-.67.11-1,.13-.54.39-.98.65-1.41.13-.22.26-.43.37-.66.23-.48.32-1.15-.02-1.45l-1.17-1.04,1.55.14c.08,0,.27-.15.3-.32.05-.29-.1-.6-.24-.82-.14-.19-.31-.43-.38-.73-.11-.51.11-1.07.54-1.45.21-.18.46-.3.68-.4.21-.08.61-.24.81-.3.26-.08.35-.2.35-.49,0-.47-.48-1.02-.83-1.43l-.15-.17c-.38-.44-.61-.74-.92-1.13l-.27-.34c-.08-.1-.15-.2-.23-.29-.25-.3-.54-.65-.67-1.1-.15-.46-.11-.94-.07-1.37.15-1.79.25-3.7-.04-5.56-.31-1.96-1.04-3.65-2.11-4.9-.18-.21-.16-.54.05-.72.21-.18.54-.16.72.05,1.2,1.39,2.01,3.26,2.35,5.41.31,1.97.21,3.95.05,5.8-.03.37-.06.71.03.99.08.26.27.49.48.74.09.11.17.21.25.32l.26.33c.3.38.52.67.89,1.09l.14.17c.46.53,1.08,1.25,1.08,2.1,0,.74-.38,1.26-1.08,1.47-.18.06-.54.2-.72.27-.13.06-.3.14-.41.23-.15.13-.24.32-.21.44.02.09.12.23.21.36.37.56.5,1.1.42,1.59-.07.38-.28.71-.57.92.25.65.09,1.43-.18,2.01-.12.26-.27.51-.42.76-.23.38-.44.73-.53,1.11-.06.24-.07.52-.09.82-.04.81-.1,1.82-1.17,2.29-.27.11-.56.16-.88.16-1.38-.04-2.74-.24-4.05-.6-.02.06-.05.11-.09.16-1.53,1.94-2.94,3.99-4.19,6.1-.1.16-.27.25-.44.25Zm-18.7-14.35c-.16,0-.31-.07-.41-.2-2.55-3.38-3.81-7.75-3.44-11.99.36-4.22,2.35-8.3,5.46-11.21.21-.19.53-.18.73.02s.18.53-.02.72c-2.92,2.73-4.79,6.58-5.14,10.55-.34,3.99.84,8.1,3.24,11.28.17.23.13.55-.1.72-.09.07-.2.1-.31.1Zm19.11-.54c-.76,0-1.29-.56-1.73-1.02l-.15-.15c-.39-.4-.86-.73-1.39-.98-.26-.12-.37-.42-.25-.68s.43-.37.68-.25c.64.3,1.21.7,1.69,1.2l.15.16c.29.31.59.62.88.69.03-.01.06-.02.09-.03.01-.04.03-.1.03-.14.08-.45.07-.91-.02-1.38-.05-.28.13-.55.41-.6.27-.05.55.13.6.41.11.59.12,1.17.03,1.73-.04.18-.08.38-.2.57-.12.18-.29.31-.47.38-.08.06-.17.09-.27.1-.03,0-.06,0-.09,0Zm-.84-3.64c-.22,0-.45-.07-.65-.22-.18-.13-.34-.31-.47-.54-.14-.25-.06-.56.18-.7.14-.08.3-.09.44-.04-.04-.08-.08-.16-.11-.24-.1-.27.04-.56.3-.66.27-.1.56.04.66.3.05.13.13.27.23.4.18.23.36.46.36.79,0,.38-.27.74-.67.86-.09.03-.19.04-.28.04Z"
  />
  <path
    d="m196.46,292.72l-.67-.31c-.66-.36-1.47-.31-2.34-.26-.56.03-1.14.07-1.71,0-1.53-.21-2.78-1.14-3.99-2.04-1.29-.96-2.52-1.89-3.92-1.82h-.02c-.25,0-.47-.18-.51-.43-.05-.08-.07-.17-.07-.27.31-10.39,1.96-20.71,4.91-30.68.08-.27.37-.42.64-.35.27.08.43.37.35.64-2.9,9.77-4.53,19.89-4.86,30.07,1.56.12,2.85,1.08,4.09,2.01,1.16.86,2.25,1.68,3.51,1.85.47.06.98.03,1.51,0,.73-.04,1.49-.09,2.21.11.42-3.54.89-7.13,2.08-10.51.77-2.16,1.82-4.23,2.85-6.23.82-1.61,1.68-3.28,2.36-4.97,1.62-4,2.4-8.35,3.16-12.56.36-2,.73-4.06,1.19-6.07l.16-.67c.27-1.14.54-2.31.64-3.48.3-3.4-.9-6.93-3.23-9.43-.82-.89-2.51-2.37-4.48-2.21-.29.02-.53-.19-.55-.47-.02-.28.19-.53.47-.55,2.42-.17,4.36,1.51,5.31,2.54,2.52,2.71,3.83,6.53,3.5,10.22-.11,1.24-.39,2.45-.66,3.62l-.15.67c-.45,1.99-.82,4.04-1.18,6.02-.77,4.26-1.56,8.67-3.22,12.76-.7,1.73-1.56,3.42-2.4,5.05-1.01,1.97-2.05,4.01-2.79,6.1-1.22,3.48-1.67,7.25-2.1,10.9l-.09.76Z"
  />
  <path
    d="m193.77,288.74c-.91,0-1.79-.12-2.62-.37-.99-.29-1.91-.77-2.79-1.23l-4.66-2.45c-.25-.13-.35-.44-.22-.69.13-.25.44-.35.69-.22l4.66,2.45c.88.46,1.71.89,2.61,1.16,1.43.43,3.05.44,4.67.03.27-.07.55.1.62.37.07.27-.1.55-.37.62-.87.22-1.75.33-2.6.33Zm-4.57-56.04c-.19,0-.38-.11-.46-.3-.12-.26,0-.56.25-.68.58-.27,1.04-.52,1.46-.8.04,0,.04-.06.04-.11,0-.1-.02-.32-.08-.4-.05-.06-.23-.13-.65-.13-.44,0-.9.05-1.34.16-.27.07-.55-.1-.62-.38-.07-.28.1-.55.38-.62.57-.14,1.15-.2,1.71-.19h.01c.23,0,.92,0,1.31.52.25.31.29.68.3,1.01,0,.18,0,.39-.1.6-.13.23-.3.34-.43.41-.44.29-.94.56-1.57.85-.07.03-.14.05-.22.05Z"
  />
  <path
    d="m195.02,233.97c-.11,0-.24-.02-.36-.06-.8-.28-1.23-.96-1.61-1.56-.22-.34-.42-.66-.67-.9-.35-.33-.82-.52-1.3-.53-.28,0-.51-.24-.5-.52s.24-.48.52-.5c.73.02,1.45.31,1.98.81.34.33.59.72.83,1.1.3.47.56.88.93,1.08.12-.56.16-1.08.13-1.6-.02-.2-.05-.45-.13-.64-.09-.18-.25-.34-.43-.51-.52-.49-.95-.9-1.46-1.15-.55-.27-1.2-.34-1.76-.37-1.25-.07-2.51,0-3.74.21-.28.05-.55-.14-.59-.42s.14-.55.42-.59c1.31-.23,2.65-.3,3.97-.23.67.04,1.44.12,2.15.47.66.31,1.17.8,1.66,1.27.3.28.55.53.71.87.15.33.2.68.23,1.01.04.71-.03,1.4-.2,2.08-.03.11-.1.42-.39.59-.11.07-.25.11-.39.11Z"
  />
  <path
    d="m198.45,234.99c-.18,0-.35-.02-.53-.07-.48-.15-.89-.55-1.18-1.16-.08-.17-.14-.34-.21-.51-.09-.23-.17-.45-.28-.63-.13-.21-.34-.4-.57-.42-.31,0-.52-.21-.53-.5,0-.28.21-.52.5-.53.55-.01,1.13.34,1.48.92.16.26.26.53.36.79.06.15.11.3.18.44.16.34.36.56.55.62.12.04.27.03.45.02h.11s.04,0,.06-.11c.11-.72.18-1.37-.04-1.9-.1-.25-.26-.46-.47-.71-1.08-1.21-2.7-1.88-4.33-1.75-.3.02-.53-.19-.55-.48-.02-.28.19-.53.48-.55,1.93-.13,3.88.65,5.18,2.1.25.29.5.61.65,1,.34.82.2,1.76.1,2.44-.04.25-.11.52-.34.72-.11.11-.34.25-.73.25-.11,0-.22.01-.33.01Z"
  />
  <path
    d="m185.38,305.56c-.28,0-.51-.22-.51-.5,0-.28.22-.52.5-.52,1.02-.02,1.96-.62,2.92-1.29,1.97-1.36,3.93-2.78,5.85-4.22-.85-.47-1.68-.44-2.29-.31-.98.22-1.88.77-2.72,1.32l-.13.09c-.54.35-1.1.71-1.78.86-.88.19-1.84.02-2.89-.51-2.39-1.19-4.05-3.47-5.4-5.45-.21.31-.34.72-.48,1.17-.19.61-.38,1.23-.56,1.84-.19.62-.37,1.23-.56,1.84-.08.27-.37.42-.64.34-.27-.08-.42-.37-.34-.64.19-.61.38-1.22.56-1.84.19-.62.37-1.23.56-1.84.25-.82.53-1.61,1.23-2.1l.43-.3.29.44c1.4,2.08,3,4.45,5.36,5.63.57.29,1.42.59,2.21.42.5-.11.96-.41,1.45-.72l.13-.09c.91-.6,1.9-1.21,3.05-1.46,1.35-.3,2.67.02,3.71.9l.49.41-.51.39c-2.1,1.6-4.27,3.18-6.44,4.67-1.09.76-2.18,1.45-3.49,1.47h-.01Zm14.13-71.12c-.28,0-.51-.23-.51-.51s.23-.51.51-.51c.31,0,.38-.05.38-.06.02-.02.04-.05.05-.12.03-.16,0-.32-.07-.41-.05-.06-.16-.12-.28-.19-.16-.09-.35-.2-.51-.37-.17-.18-.19-.45-.05-.65-.24-.02-.44-.21-.47-.45-.03-.28.17-.54.45-.57.21-.02.51-.05.82,0,.37.06.69.24.89.49.17.2.24.48.18.73-.03.18-.15.3-.22.37.25.32.36.77.28,1.22-.05.29-.16.52-.35.69-.33.35-.87.35-1.1.35Z"
  />
  <path
    d="m188.46,313.1h-.3c-2.81-.04-5.59-.29-8.25-.73-.6-.1-1.24-.22-1.85-.46-.85-.33-1.57-.87-2.28-1.4-.14-.11-.33-.24-.43-.48-.1-.23-.08-.47-.07-.62l.32-2.59c-.5-2.59-.35-5.27.44-7.8l1,.17c-.01.34.38.73,1.08,1.08.48.23.99.4,1.53.58.23.08.46.15.68.23,4.82,1.68,8.84,5.73,10.48,10.56.09.27-.05.56-.32.65-.27.09-.56-.05-.65-.32-1.54-4.54-5.32-8.34-9.85-9.92-.22-.08-.44-.15-.66-.22-.55-.18-1.12-.37-1.66-.63-.42-.21-.74-.42-.98-.64-.43,1.96-.47,3.99-.11,5.97.04.08.06.17.05.27.05.23.1.46.16.69.1.42.26.93.6,1.13.21.13.52.15.85.17l3.44.22c.27.02.54.04.8,0,.07-.01.15-.03.22-.05.13-.04.27-.07.4-.08.26-.05.55-.03.77,0,1.35.11,2.75.54,4.39,1.36l.17.14c.55.69.61,1.71.16,2.49l-.15.26Zm-12.15-3.46s.05.02.07.04c.67.5,1.33,1,2.05,1.28.52.2,1.08.31,1.65.4,2.51.42,5.11.66,7.75.71.09-.33.05-.71-.13-.99-1.47-.72-2.72-1.11-3.92-1.2-.17-.02-.36-.03-.52,0-.11.02-.2.04-.29.06-.1.03-.21.05-.31.07-.38.06-.74.04-1.05.02l-3.43-.22c-.42-.03-.9-.06-1.33-.32-.2-.12-.36-.27-.5-.45l-.06.49s0,.08,0,.11c0,0,0,0,0,0Z"
  />
  <path
    d="m206.46,313.74c-.34,0-.67-.01-1.01-.03-1.12-.08-2.21-.26-3.27-.45-3.15-.52-6.36-.91-9.53-1.17-1.53-.12-3.01-.19-4.31.31-.27.1-.56-.03-.66-.29-.1-.26.03-.56.29-.66,1.51-.58,3.11-.51,4.76-.37,2.48.2,4.98.48,7.46.84.01,0,.02-.01.03-.01.65-.25,1.18-.78,1.62-1.27,2.1-2.34,3.74-5.38,5.01-9.31l.2-.62.55.33c1.81,1.09,3.88,1.94,6.33,2.61l.58.16c1.09.28,2.21.58,3.23,1.19,1.45.86,2.32,2.19,2.33,3.55,0,.59-.15,1.12-.43,1.54-.38.56-.96.89-1.47,1.14-1.97.97-4.17,1.48-6.24,1.88-1.75.34-3.6.64-5.46.64Zm-4.71-1.59c.2.03.4.07.6.1,1.04.18,2.11.36,3.17.43,2.07.13,4.21-.21,6.21-.59,2.01-.39,4.12-.87,5.99-1.79.42-.2.83-.44,1.08-.79.17-.25.25-.58.25-.96-.01-1.17-.95-2.15-1.83-2.68-.89-.53-1.89-.79-2.96-1.07l-.59-.16c-2.3-.63-4.28-1.42-6.04-2.4-1.29,3.78-2.93,6.75-5.02,9.08-.25.28-.53.57-.85.84Z"
  />
  <path
    d="m184.18,316.8c-1.93,0-3.83-.23-5.61-1-.76-.33-1.45-.75-2.13-1.16l-.1-.06c-.31-.18-.74-.44-1.05-.83-.94-1.14-.46-2.73.06-3.99.11-.26.41-.39.67-.28.26.11.39.41.28.67-.41.99-.81,2.23-.21,2.95.18.23.45.4.78.59l.1.06c.68.41,1.32.8,2.01,1.1,2.8,1.22,6.04.95,9.17.7l.56-.05c5.77-.47,11.67-.55,17.53-.23l.34.02c1.46.08,2.83.16,4.21-.03,1.95-.27,3.9-1.12,5.49-2.4.96-.96,1.85-2.04,2.61-3.18.13-.18.25-.38.27-.56.02-.28.28-.49.55-.47.28.02.49.27.47.55-.03.42-.24.77-.45,1.06-.79,1.18-1.72,2.31-2.77,3.36-1.77,1.43-3.9,2.36-6.03,2.65-1.48.2-2.97.12-4.41.04l-.34-.02c-5.81-.32-11.66-.24-17.39.23l-.56.05c-1.34.11-2.71.22-4.05.22Zm13.36-16.46l-.21-.15c-.45-.33-.65-.83-.8-1.33-.51-1.67-.67-3.42-.47-5.2h.12s.84-.19.84-.19c.96,1.85,1.21,2.56,1.33,3.23.14.78.21,1.5.21,2.2s-.29,1.22-.78,1.37l-.25.07Zm-.51-4.5c.06.92.22,1.83.49,2.72,0,.02.01.04.02.07-.01-.56-.08-1.13-.18-1.75-.05-.26-.12-.54-.32-1.04Z"
  />
  <path
    d="m201.05,310.27l-.33-.32c-.16-.18-.19-.44-.1-.64-1.27-4.97-2.74-9.93-4.37-14.74-.09-.27.05-.56.32-.65.27-.09.56.05.65.32.13.38.25.75.38,1.13.23-.09.5,0,.63.22.21.35.39.72.56,1.09.04-.02.08-.03.13-.04.27-.05.55.13.6.41.16.82.37,1.64.64,2.44.07-.04.15-.07.23-.08.28-.03.53.19.55.47.04.56.02,1.11-.05,1.63l-.25,1.72,1.31,5.64-.34.16c.02.09.04.17.07.26.08.46-.1.66-.27.76l-.36.22Zm-.37-.75h.01-.01Z"
  />
  <path
    d="m202.15,302.63c-.32,0-.61-.23-.74-.63,0-.02-.02-.05-.03-.07l-.06.23-.61-.52c-.53-.45-.76-1.12-.9-1.64-.22-.82-.35-1.68-.38-2.54-.01-.28.21-.52.49-.54.3-.05.52.21.54.49,0,.09.01.18.02.27h.84l.07.32c.28.4.51.76.69,1.1h0l.05-.54h.36l.03.08c.7.19,1.13.6,1.3,1.22.13.47.07.93.02,1.34l-.15,1.2-.77-.87c-.06-.08-.12-.15-.18-.23.02.29,0,.57-.03.85l-.03.33-.31.11c-.07.02-.15.04-.22.04Zm.23-.96h.01-.01Z"
  />
  <path
    d="m206.97,302.17c-.17,0-.33-.08-.43-.23-.36-.54-.88-.98-1.46-1.25-.42-.19-.87-.3-1.34-.42-.26-.06-.52-.13-.78-.21-1.09-.32-2.13-.89-3.01-1.66-.21-.19-.24-.51-.05-.72.18-.21.51-.24.72-.05.77.67,1.68,1.17,2.63,1.45.25.07.49.13.74.19.5.12,1.02.25,1.52.48.76.35,1.42.9,1.89,1.61.16.24.09.55-.14.71-.09.06-.19.09-.28.09Z"
  />
  <path
    d="m204.88,302.22c-.33,0-.52-.26-.59-.37l-.88-1.64.09-.07c-2.24-2.39-4.51-4.91-6.76-7.5-.19-.21-.16-.54.05-.72.21-.19.54-.17.72.05,2.54,2.91,5.09,5.72,7.59,8.38.21,0,.42.12.5.33l.09.21c.04.09.07.17.11.26l-.25.16c.05.22,0,.43-.15.63-.12.18-.3.28-.51.28Zm-.35-.72h.01-.01Z"
  />
  <path
    d="m205.21,301.31c-.16,0-.32-.08-.42-.22l-.9-1.28-.19.1c-.25.13-.56.02-.69-.23-.13-.25-.02-.56.23-.69l.26-.13c-.43-.73-.99-1.39-1.5-1.98-1.27-1.52-2.57-3.08-4.18-4.22.01.81-.06,1.6-.21,2.33-.06.28-.33.46-.61.4-.28-.06-.46-.33-.4-.61.1-.46.16-.94.18-1.44l-.47.57-.07-.53c-.19.78-.31,1.59-.37,2.41,0,.2-.06.39-.17.53-.11.14-.26.22-.35.27l-.71.31s-.23.12-.47.07c-.01,0-.04,0-.06,0-.34.32-.58.7-.69,1.12-.07.27-.35.43-.63.36-.27-.08-.43-.36-.36-.63.18-.64.55-1.23,1.05-1.66.17-.17.42-.27.67-.24l.13.03.57-.25c.09-1.24.31-2.41.67-3.53-.07.08-.16.15-.27.18-.84.24-1.45.83-1.82,1.28-.52.65-.91,1.4-1.25,2.11-.3.64-.6,1.29-.87,1.94.04.1.05.21.03.32-.06.23-.31.42-.54.42h0c-.27,0-.5-.17-.57-.42-.04-.17-.02-.36.06-.52.29-.71.63-1.45.97-2.18.35-.73.78-1.58,1.37-2.32.66-.82,1.47-1.38,2.34-1.63.27-.08.56.08.63.36.02.06.02.12.02.18.09-.14.24-.22.4-.23l-.1-.78c-.04-.28.16-.54.44-.57.27-.04.54.16.57.44l.13,1s0,0,.01,0l.67-.28v.14c.15-.03.29-.01.41.07,1.83,1.23,3.24,2.93,4.61,4.56.61.72,1.37,1.62,1.88,2.63l.23.46-.07.04.81,1.15c.16.23.11.55-.13.71-.09.06-.19.09-.29.09Zm-13.97-3.43s0,0,0,.01c0,0,0,0,0-.01Zm2.96-1.91s0,0,0,0h0Z"
  />
  <path
    d="m206.91,303.42c-.09,0-.19-.03-.27-.08-.73-.45-1.63-.5-2.59-.55-.46-.02-.92-.05-1.37-.11-.87-.14-1.68-.41-2.41-.83-.24-.14-.47-.29-.71-.44-.27-.17-.53-.35-.81-.49-.37-.19-.77-.34-1.2-.5-.84-.31-1.71-.64-2.38-1.33-.11-.11-.15-.25-.14-.39-.13,0-.25.02-.38.03-.26.02-.53-.18-.56-.46-.03-.28.18-.53.46-.56,1.09-.11,2.17-.06,3.19.14.28.05.46.32.41.6-.06.28-.33.46-.6.41-.41-.08-.83-.13-1.26-.16.46.32,1.03.54,1.62.76.44.16.9.33,1.33.56.31.16.6.35.89.54.22.14.44.28.66.41.62.36,1.31.59,2.05.71.41.06.84.08,1.27.1,1.05.05,2.13.11,3.08.7.24.15.31.47.16.71-.1.16-.26.24-.43.24Zm-12.44-6.57s-.05,0-.08,0c-.28-.04-.47-.3-.43-.58l.16-1.06c-.44-.04-.88-.07-1.31-.1-.28-.02-.5-.26-.48-.55.02-.28.28-.49.55-.48.91.06,1.81.14,2.72.22h0c.29,0,.56.26.56.57v.46l-.94.12-.05-.16s-.02,0-.03,0l-.17,1.13c-.04.25-.26.44-.51.44Zm1-1.54s.05,0,.07,0c-.02,0-.05,0-.07,0Z"
  />
  <path
    d="m201.04,303.11c-.08,0-.17-.01-.26-.04-.26-.06-.53-.2-.77-.42-.21-.19-.22-.52-.03-.73.19-.21.52-.22.73-.03.05.05.1.09.15.12.1-.23.26-.43.46-.58.23-.17.55-.12.72.11.17.23.12.55-.11.72-.07.05-.12.13-.15.2-.02.1-.09.38-.36.54-.11.07-.24.11-.39.11Zm0-1.03h0Zm-1.88.81h-.34c-.18.01-.36-.05-.5-.19l-.36-.35c-.07-.08-.17-.18-.24-.31-.09-.14-.13-.29-.17-.42l-.03-.11c-.03-.08-.08-.17-.13-.26l-.07-.13c-.19-.37-.33-.76-.41-1.16-.06-.28.12-.55.4-.61.27-.06.55.12.61.4.06.31.17.61.32.89l.06.12c.07.13.13.25.18.39l.05.18c.02.07.04.14.06.17.03.05.07.1.11.13l.32.32c-.06-.05-.15-.09-.25-.1v.12l.16.04.48.18c-.06.15-.1.26-.14.36l-.12.34Zm-.11-.92h.01-.01Z"
  />
  <path
    d="m201.63,311.1c-.08,0-.15-.01-.21-.02-.88-.15-1.72-.4-2.49-.75l-.63-.29.46-.52c1.73-1.95,3.29-4.06,4.65-6.28l.15-.3h.03s0,0,.01,0l.19.07-.13-.15.23.18.13.03.02-.38c.86.04,1.7.32,2.44.81l.4.26-.23.42c-1.28,2.29-2.74,4.5-4.34,6.58-.08.1-.2.25-.41.32-.09.03-.18.04-.26.04Zm-1.63-1.44c.49.17,1,.31,1.53.4,1.46-1.91,2.79-3.9,3.96-5.96-.37-.19-.77-.31-1.18-.37-1.27,2.08-2.72,4.08-4.31,5.93Zm-1.81.33l-.33-.08c-.72-.18-1.54-.41-2.5-.71l-.77-.24.55-.6c1.3-1.41,2.51-2.94,3.62-4.54l-.16-.05.61-.61.38.3.13-.43c.11.03.22.06.32.1l.65-.82.34.1c.53.16,1.03.41,1.47.74l.4.29-.28.41c-1.51,2.2-2.89,4.12-4.22,5.87l-.2.27Zm-1.75-1.53c.49.14.93.27,1.35.37,1.17-1.55,2.38-3.23,3.69-5.12-.14-.08-.28-.14-.42-.2l-.35.44-.05.34h-.97c-1,1.47-2.09,2.86-3.24,4.17Zm-2.11.47l-.31-.07c-.91-.19-1.78-.48-2.6-.84l-.69-.31.54-.53c2.08-2.02,3.87-4.31,5.3-6.8l.29-.51.47.36c.53.41,1.05.84,1.54,1.51h.69l-.51.8c-1.4,2.12-2.92,4.19-4.52,6.15l-.2.24Zm-1.78-1.56c.45.17.91.31,1.39.42,1.43-1.77,2.8-3.62,4.06-5.51-.26-.34-.54-.61-.83-.86-1.29,2.15-2.84,4.15-4.61,5.96Zm-16.93-2.77s-.06,0-.09,0c-6.29-1.09-13.62-2.67-20.29-6.19-1.28-.68-2.55-1.43-3.78-2.16-3.5-2.08-7.12-4.23-11.13-4.67-.39-.05-.77-.07-1.16-.1-.77-.06-1.56-.11-2.33-.3v-.99c1.19-.31,2.11-1,2.52-1.9.25-.56.33-1.19.42-1.86.1-.79.21-1.61.61-2.36.14-.25.45-.34.7-.21.25.13.34.45.21.7-.31.58-.4,1.27-.5,2.01-.09.72-.19,1.46-.5,2.16-.31.68-.83,1.26-1.5,1.71.15.01.3.02.45.03.4.03.8.06,1.2.11,4.23.47,7.94,2.67,11.54,4.81,1.22.72,2.48,1.47,3.74,2.14,6.54,3.46,13.77,5.02,19.99,6.09.28.05.47.31.42.59-.04.25-.26.43-.5.43Zm1.86-5.54l-.46-.08c-.27-.08-.46-.31-.46-.57v-.08c-1.07-1-2.12-1.99-3.17-2.97-1.13-1.06-2.26-2.11-3.38-3.17l-.13-.12c-1.55-1.45-3.16-2.94-4.93-4.12-2.96-1.97-6.47-3.15-9.82-4.19-.27-.08-.42-.37-.34-.64.08-.27.37-.42.64-.34,3.41,1.06,7,2.27,10.08,4.32,1.85,1.23,3.48,2.75,5.06,4.23l.13.12c1.13,1.06,2.26,2.11,3.38,3.17,1.13,1.06,2.26,2.11,3.38,3.17.46.45.27.84.21.95l-.2.33Zm-.69-.51h.01-.01Zm4.38-1.45c-.07,0-.14-.01-.21-.05-.26-.12-.37-.42-.26-.68,1.29-2.87,2.22-5.86,2.74-8.88,0-.04.02-.08.03-.12-4.08-5.26-8.71-10.1-13.78-14.38-.22-.18-.24-.51-.06-.72s.51-.24.72-.06c5.14,4.34,9.84,9.25,13.97,14.59.12.15.14.36.06.52.06.1.08.22.06.34-.54,3.11-1.48,6.18-2.81,9.13-.09.19-.27.3-.47.3Z"
  />
  <path
    d="m129.58,300.49c-.93,0-1.65-.86-1.76-1.73-.1-.81.21-1.57.55-2.28.74-1.54,1.8-3.49,3.44-4.89,1.73-1.48,3.89-2.16,5.79-1.8.28.05.46.32.41.6-.05.28-.32.46-.6.41-1.12-.21-2.36.02-3.51.61.03.07.04.15.03.22-.24,2.69-1.14,5.31-2.59,7.6-.33.53-.81,1.14-1.57,1.25-.07,0-.13.01-.19.01Zm3.28-8.42c-.13.1-.25.2-.37.3-1.5,1.28-2.49,3.11-3.19,4.56-.27.57-.52,1.17-.45,1.71.05.41.42.87.8.83.34-.05.64-.47.84-.78,1.27-1.99,2.08-4.27,2.37-6.61Z"
  />
  <path
    d="m133.66,297.48c-.77,0-1.55-.27-2.13-.76-.33-.29-.53-.58-.62-.89-.09-.34-.04-.66,0-.9.15-.82.38-1.59.71-2.38v-.17l.21-.15c2.29-1.65,2.72-1.73,3.08-1.66.13.02.32.1.45.31.17.27.21.57.23.83.1,1.46.2,2.98-.16,4.47-.06.26-.15.56-.38.81-.31.33-.74.42-1.03.46-.12.01-.25.02-.37.02Zm-1.1-4.51c-.3.71-.51,1.41-.64,2.14-.03.15-.06.33-.02.44.03.12.13.24.3.39.46.38,1.09.57,1.71.5.2-.03.34-.08.41-.15.07-.07.11-.26.13-.35.33-1.34.23-2.78.13-4.17,0-.03,0-.07,0-.11-.28.14-.85.48-2.01,1.3Zm-.42-.32h.01-.01Z"
  />
  <path
    d="m124.43,301.07c-.2,0-.39-.12-.47-.32-.11-.26.02-.56.28-.67.14-.06.26-.19.31-.33.05-.17.09-.3.16-.42.13-.22.3-.36.44-.46.06-.05.14-.11.16-.14-.04-.11-.06-.28.01-.48.1-.34.41-.49.6-.59l.11-.06s.08-.09.09-.17c.01-.08,0-.17-.05-.22l-.7-.81,1.07-.04c.35-.01.72-.06,1.09-.16.05-.01.13-.03.15-.05-.1-.12-.22-.23-.34-.34l-.55-.51.68-.33c.62-.3,1.19-.66,1.68-1.05.22-.17.55-.14.72.08.18.22.14.54-.08.72-.39.31-.82.6-1.28.86.02.04.04.07.06.11.15.32.17.8-.12,1.15-.21.24-.47.3-.66.35-.21.05-.43.1-.64.13,0,.09,0,.17-.02.26-.06.38-.27.7-.58.89-.06.04-.12.07-.19.1-.02.01-.05.02-.07.03.01.1.02.18.01.27-.06.42-.35.65-.53.79-.07.06-.16.13-.18.17-.01.02-.03.08-.04.13l-.04.12c-.14.42-.49.78-.89.95-.06.03-.13.04-.19.04Zm3.82-.11c-.05,0-.11,0-.16-.03-.27-.09-.41-.38-.33-.65.67-2.03,1.57-3.99,2.67-5.81.4-.66.88-1.41,1.54-2.01,1.13-1.05,2.61-1.55,3.91-1.99.27-.09.56.05.65.32.09.27-.05.56-.32.65-1.21.41-2.58.88-3.55,1.77-.56.51-.99,1.19-1.35,1.79-1.06,1.76-1.92,3.65-2.57,5.61-.07.22-.27.35-.49.35Z"
  />
  <path
    d="m122.24,302.42c-.08,0-.15,0-.23-.01-.28-.03-.49-.27-.47-.56.02-.28.28-.48.56-.47.59.05,1.27-.24,1.85-.8.5-.49.86-1.1,1.24-1.75l.12-.2c1.26-2.17,2.74-4.35,4.93-5.66.24-.15.56-.07.7.18.15.24.07.56-.18.7-1.99,1.19-3.37,3.25-4.57,5.3l-.12.2c-.4.68-.82,1.38-1.41,1.96-.72.71-1.59,1.1-2.43,1.1Zm9.67-9.63l-.32-.62c-.08-.16-.09-.34-.03-.52.06-.17.18-.32.34-.39.09-.05.19-.06.29-.05.2-.11.39-.2.58-.28.28-.12.54-.23.73-.4.29-.27.44-.76.37-1.3-.06-.54-.31-1.06-.57-1.62l-.9-1.93c-.22-.48-.42-.92-.53-1.41-.21-.95-.02-1.96.54-2.78.16-.23.48-.29.71-.14.23.16.3.48.14.71-.39.58-.54,1.32-.39,1.99.08.38.25.75.43,1.14l.93,1.98c.28.6.58,1.23.66,1.93.1.86-.16,1.68-.7,2.17-.32.29-.69.45-1.02.59-.29.13-.57.25-.76.43l-.5.49Zm.44-.61h0,0Z"
  />
  <path
    d="m132.36,292.96s-.02,0-.03,0c-.84-.04-1.26-.9-1.41-1.22-1.14-2.35-2.01-4.83-2.58-7.38-.1-.45-.2-.94-.27-1.45-.77.69-1.79,1.17-3.03,1.44-1.06.23-2.15.28-3.26.32-.33,0-.67,0-.97-.3-.2-.2-.2-.53,0-.73.2-.2.53-.2.73,0,.01,0,.14,0,.22,0,1.09-.04,2.08-.09,3.06-.3,1.08-.23,1.96-.64,2.6-1.23.16-.14.37-.17.56-.09-.06-1.1.07-2.24.59-3.27.13-.25.44-.35.69-.22.25.13.35.44.22.69-.77,1.5-.49,3.41-.15,4.91.55,2.47,1.4,4.88,2.5,7.16.2.42.39.63.54.64.28.01.5.25.49.54-.01.27-.24.49-.51.49Z"
  />
  <path
    d="m120.32,310.09c-.37,0-.69-.24-.81-.33-3.15-2.4-5.01-6.35-4.84-10.32.14-3.18,1.49-6.11,2.79-8.94.52-1.12,1.05-2.28,1.5-3.43.72-1.84,1.26-3.79,1.78-5.68.74-2.67,1.5-5.44,2.78-7.97.13-.25.44-.35.69-.23.25.13.35.44.23.69-1.24,2.44-1.98,5.15-2.71,7.78-.53,1.92-1.08,3.9-1.81,5.78-.46,1.18-1,2.35-1.52,3.49-1.27,2.74-2.57,5.58-2.7,8.56-.15,3.64,1.55,7.26,4.43,9.45.14.11.2.12.21.13.26-.12.52,0,.64.25.12.26-.03.57-.29.69-.12.06-.24.08-.36.08Z"
  />
  <path
    d="m120.15,310.27c-.23,0-.43-.15-.49-.38-.08-.27.08-.56.36-.63.8-.22,1.82-.66,2.14-1.49.17-.46.12-1,.08-1.53l-.4-4.62c-.03-.28.18-.53.47-.56.29-.03.53.18.56.47l.4,4.62c.05.61.11,1.31-.14,1.98-.38.99-1.33,1.7-2.83,2.11-.05.01-.09.02-.14.02Zm3.73-8.42c-.09,0-.17-.02-.25-.07-1.24-.71-2.06-1.87-2.87-3.1-1.2-1.83-2.7-4.1-3.13-6.65-.05-.28.14-.54.42-.59.27-.05.54.14.59.42.4,2.34,1.77,4.43,2.98,6.26.73,1.13,1.48,2.18,2.52,2.77.25.14.33.45.19.7-.09.17-.27.26-.45.26Z"
  />
  <path
    d="m124.15,301.15l-.48-.49c-1.81-1.84-3.32-3.91-4.48-6.16l-.85,1.07.29-1.91c.02-.13.08-.36.3-.49h0s1.24-1.57,1.24-1.57l.07-.31h.92l-.48-1.07.48-.27s0,0,0,0l1.99-1.93-.05-.05,1.14-1.93s.03-.06.04-.08l-.02-.03.06-.3c.06-.16.18-.29.35-.34l.33-.11.25.28c.1.12.13.25.13.38,1.23,2.12,2.8,3.96,4.69,5.48l.55.44-.58.39c-.7.47-1.31,1.1-1.74,1.81l-.38.63-.46-.58c-.35-.45-.6-.94-.83-1.41l-.2-.4c-.79-1.46-1.95-2.72-3.07-3.94l-.12-.13.26.46c1.19,2.14,2.54,4.02,3.74,5.69l.23.32-.25.3c-.55.66-1.03,1.33-1.44,1.99l-.28.46.02.69-.1.04c-.2.86-.53,1.71-.95,2.47l-.33.6Zm-4.26-7.54c1.04,2.12,2.39,4.07,4.01,5.81.22-.48.39-.99.52-1.5l-4.07-4.88-.45.57Zm5.37,3.72h0s0,0,0,0Zm-.15-.17l.08.03-.2-.2c-.05-.05-.1-.1-.15-.15l.27.33Zm-3-6.7c.9,1.95,1.83,3.82,3.16,5.33.28-.42.58-.83.91-1.24-1.04-1.46-2.19-3.08-3.24-4.89l-.83.8Zm-1.07,1.83l2.72,3.25c-.89-1.21-1.59-2.57-2.26-3.97l-.38.49c-.03.1-.05.17-.08.24Zm3.34-4.46c1.04,1.14,2.18,2.41,2.96,3.88l.21.42c.11.22.21.43.32.63.31-.39.67-.76,1.05-1.08-1.58-1.36-2.94-2.94-4.05-4.71l-.5.86Zm-3.12,3.46h.1s-.02-.05-.03-.07l-.07.07Zm-.15-.55s0,0,0,.01c0,0,0,0,0-.01Zm3.26-4.97h0Zm.89-.18s.02.03.03.05c0-.02-.02-.03-.03-.05Z"
  />
  <path
    d="m119.67,310.57c-.68,0-1.4-.23-2.05-.68-.76-.52-1.31-1.23-1.85-1.97-.59-.82-1.21-1.72-1.7-2.68-1.29-2.57-1.72-5.8-1.25-9.34.42-3.15,1.47-6.13,2.48-9.01,1.73-4.89,3.54-9.9,5.39-14.92.1-.27.39-.4.66-.3.27.1.4.39.3.66-1.84,5.01-3.65,10.03-5.38,14.91-1,2.83-2.03,5.76-2.43,8.8-.44,3.34-.04,6.36,1.15,8.74.45.9,1.04,1.75,1.61,2.54.49.66.98,1.3,1.6,1.72.66.45,1.38.61,1.97.43.27-.08.56.07.64.35.08.27-.07.56-.35.64-.25.08-.52.11-.79.11Z"
  />
  <path
    d="m117.55,309.49s-.04,0-.05,0c-.93-.09-1.53-.85-1.99-1.58-.89-1.38-1.81-2.88-2.5-4.49-1.32-3.12-1.79-6.78-1.39-10.88.34-3.43,1.21-6.74,2.42-10.65,1.37-4.45,2.87-8.82,4.46-13,.1-.27.4-.4.66-.3.27.1.4.4.3.66-1.58,4.15-3.08,8.51-4.44,12.94-1.19,3.85-2.05,7.1-2.38,10.44-.39,3.93.05,7.42,1.31,10.38.65,1.54,1.55,2.99,2.42,4.34.34.52.74,1.06,1.24,1.11.28.03.49.28.46.56-.03.26-.25.46-.51.46Zm22.02-17.42c-.08,0-.15,0-.23-.03-.28-.06-.45-.34-.38-.62.06-.27.33-.45.62-.38.04-.01.19-.15.33-.47.96-2.19,1.79-4.45,2.46-6.73.08-.27.37-.42.64-.35.27.08.43.37.35.64-.69,2.32-1.53,4.63-2.5,6.85-.3.7-.76,1.09-1.27,1.09Z"
  />
</svg>
