<svg xmlns="http://www.w3.org/2000/svg" viewBox="0 0 320 320" opacity="0.6">
  <path
    d="m160.75,195.54c-.97,0-2.04-.26-3.24-.89-3.15-1.64-6.3-3.52-7.93-6.21-1.15-1.89-1.34-3.92-1.52-5.89-.13-1.41-.26-2.87-.76-4.25-.06-.17.03-.35.19-.42.16-.05.35.03.41.2.52,1.46.66,2.97.79,4.42.18,1.98.35,3.85,1.43,5.61,1.55,2.54,4.61,4.37,7.68,5.97,3.54,1.84,5.7.5,8.45-2.61.43-.49.85-.93,1.25-1.36,1.88-2,3.24-3.46,3.25-6.68,0-.98.07-2,.14-2.99.11-1.53.22-3.09.07-4.52-.02-.18.11-.33.29-.35.18-.01.33.11.35.29.16,1.48.04,3.09-.07,4.64-.07.98-.14,1.99-.14,2.95,0,3.49-1.51,5.09-3.42,7.12-.39.42-.81.86-1.24,1.34-1.66,1.89-3.49,3.64-5.98,3.64h0Z"
  />
  <path
    d="m148.03,183.34h-.05c-1.2-.2-2.31-1.01-3.04-2.21-.78-1.29-.99-2.81-.56-4.09.06-.17.24-.26.41-.21.17.05.26.24.2.4-.36,1.09-.18,2.42.5,3.55.63,1.05,1.58,1.74,2.6,1.91.17.03.29.2.26.37-.03.16-.16.27-.32.27Zm23.46-1.46c-.15,0-.28-.1-.31-.26-.03-.18.08-.34.25-.37,1.93-.37,2.2-3.04,2.38-4.8.03-.3.06-.57.09-.8.02-.18.19-.29.36-.27.18.02.3.19.27.36-.03.22-.06.49-.09.78-.18,1.84-.49,4.91-2.89,5.38h-.06Z"
  />
  <path
    d="m172.7,177.01c-.08,0-.16-.03-.22-.08-.37-.34-1.07-1.09-1.38-2.03-.13.29-.27.58-.41.86-.05.09-.14.16-.24.18-.11,0-.21-.02-.28-.1-.74-.8-1.57-1.45-2.44-2.15-.89-.71-1.8-1.42-2.61-2.3.07.51.23,1.01.38,1.44.04.1.02.23-.06.31-.07.08-.19.12-.3.1-3.55-.65-11.65-5.99-11.97-10.14-.01-.18.12-.33.3-.34.18-.02.33.11.34.29.27,3.49,7.34,8.41,10.9,9.43-.19-.63-.33-1.35-.24-2.02.02-.12.11-.23.23-.27.12-.03.26.01.34.11.9,1.15,2.01,2.03,3.09,2.87.74.59,1.5,1.19,2.2,1.88.24-.5.47-1.02.68-1.55.06-.16.23-.23.38-.19.16.04.26.2.23.36-.17,1.05.62,2.05,1.08,2.54,1.46-1.56,2.13-3.26,2.85-5.29.38-1.08.45-2.26.52-3.4.07-1.19.15-2.42.57-3.51.04-.09.12-.17.22-.2.1-.02.21,0,.29.07.07.06.16.12.25.19-.08-1.59-.55-3.26-1-4.87-.3-1.06-.6-2.15-.8-3.2-.02-.11.02-.24.12-.31.1-.07.22-.09.33-.03.2.09.39.17.58.23.11.04.21.07.32.11-.74-1.77-2.32-3.3-3.85-4.79-.65-.63-1.27-1.23-1.81-1.84-1.82-2.04-4.29-4.33-7.32-4.05-.18.01-.33-.11-.35-.29s.11-.33.29-.35c3.36-.34,6.1,2.27,7.87,4.25.52.59,1.13,1.18,1.78,1.81,1.73,1.68,3.69,3.59,4.29,5.86.04.13-.02.28-.14.35s-.27.06-.38-.03c-.26-.22-.56-.33-.9-.45-.02,0-.05-.02-.07-.02.18.84.43,1.71.67,2.56.53,1.89,1.08,3.83,1.04,5.71,0,.13-.09.25-.21.29-.12.04-.26,0-.35-.08-.08-.09-.25-.2-.4-.3-.27.89-.33,1.88-.4,2.92-.07,1.19-.15,2.42-.56,3.58-.78,2.21-1.51,4.05-3.22,5.76-.06.06-.14.09-.23.09h0Z"
  />
  <path
    d="m143.62,179.17c-.1,0-.19-.04-.25-.12-1.47-1.88-1.82-4.18-1.95-6.6-.06.09-.11.18-.17.27-.22.36-.45.74-.69,1.04-.09.1-.23.15-.36.1-.13-.04-.21-.17-.21-.31.02-1.58-.08-3.19-.18-4.73-.2-3.36-.42-6.84.51-10.23.23-.83.52-1.6.81-2.33.28-.72.54-1.39.72-2.09l.08-.29c.37-1.41.73-2.74,2.15-4,1.16-1.03,3.13-2.15,4.67-2.66.36-.11.8-.15,1.23-.19.47-.03.95-.07,1.24-.21.56-.28.66-.45.85-.77.12-.2.27-.46.55-.79,2.7-3.16,7.18-5.44,10.63-2.97.12.08.17.25.11.38s-.2.22-.35.2c-.76-.13-1.99.21-3.11.71l.54-.12c1.52-.35,3.09-.72,4.85.05.1.04.17.15.19.25.02.11-.03.22-.11.29-.46.37-1.1.85-1.68,1.22-.15.09-.35.06-.44-.09-.1-.15-.06-.35.09-.45.39-.26.81-.56,1.18-.84-1.36-.42-2.61-.12-3.93.19-.76.18-1.55.36-2.4.42-.14,0-.28-.07-.32-.22s0-.29.12-.37c1.01-.73,2.62-1.42,3.93-1.64-2.97-1.26-6.54.75-8.81,3.4-.25.29-.38.51-.49.7-.24.4-.42.66-1.12,1.02-.4.2-.95.24-1.48.28-.39.03-.8.06-1.08.16-1.47.49-3.34,1.55-4.45,2.52-1.28,1.13-1.59,2.31-1.95,3.68l-.08.29c-.2.73-.46,1.42-.74,2.15s-.57,1.47-.79,2.27c-.9,3.29-.69,6.71-.49,10.02.07,1.22.15,2.48.17,3.74.03-.04.05-.08.08-.12.24-.38.48-.79.74-1.1.08-.1.22-.15.35-.1.13.04.21.16.22.29.09,2.39.27,4.69,1.43,6.57v-.05c.11-.66.23-1.41.57-2.03.06-.1.17-.17.3-.17.12,0,.23.08.28.2.1.22.27.48.46.74.07.1.14.2.21.3.35-.67.77-1.37,1.64-1.43.1,0,.19.03.26.1s.1.17.08.26c-.03.23,0,.5.04.8.01.11.03.24.04.35,3.66-2.94,6-8.28,6.02-13.82,0-.18.14-.32.32-.32.2,0,.32.15.32.32-.02,6.09-2.62,11.74-6.8,14.73-.11.08-.25.08-.36,0-.11-.07-.17-.21-.14-.33.05-.24,0-.55-.03-.86-.02-.17-.04-.33-.05-.51-.34.18-.57.59-.86,1.17l-.17.33c-.06.1-.17.17-.29.17s-.23-.07-.28-.18c-.12-.24-.3-.49-.47-.74-.06-.08-.12-.18-.18-.26-.13.4-.2.85-.27,1.27-.05.3-.1.59-.16.84-.03.12-.12.21-.24.24h-.07l.02.02Z"
  />
  <path
    d="m151.92,159.43c-.19,0-.39-.01-.58-.03-1.26-.16-2.37-1.41-3.36-2.52-.65-.74-1.39-1.55-1.74-1.48-.09.02-.18,0-.25-.05s-.12-.13-.13-.23l-.02-.21c-.04-.38-.08-.8-.06-1.19-.12-.06-.19-.19-.17-.32.02-.18.19-.31.36-.28h.09c.05-.01.09-.01.14,0,.02,0,.03,0,.05.01.18,0,.33-.01.48-.03,1.31-2.48,5.68-3.42,8.33-2.41,1.96.75,2.71,2.39,2.06,4.5-.67,2.2-2.64,4.26-5.2,4.26v-.02Zm-5.45-4.68c.61.12,1.23.83,1.99,1.69.91,1.03,1.93,2.19,2.95,2.31,2.46.29,4.47-1.72,5.1-3.78.69-2.27-.53-3.28-1.68-3.71-2.44-.93-6.56-.01-7.6,2.24-.05.1-.14.17-.25.19-.17.02-.36.04-.56.05-.02.32.02.67.05,1.01Z"
  />
  <path
    d="m151.5,157.1c-.45,0-.89-.07-1.29-.22-1.13-.42-1.72-1.36-1.67-2.65,0-.03,0-.07.02-.09-.04-.01-.07-.03-.11-.05-.14-.11-.16-.31-.05-.46,1.05-1.33,3.05-1.84,6.11-1.56.1,0,.18.06.24.15,1.1,1.65.51,2.84.07,3.41-.72.91-2.06,1.46-3.32,1.46Zm-2.53-3.15c.13.05.22.18.21.31-.05,1.27.65,1.8,1.25,2.01,1.26.47,3.07-.02,3.88-1.05.57-.72.56-1.6-.01-2.53-2.64-.22-4.43.2-5.33,1.25h0Zm17.03,5.49c-2.56,0-4.53-2.06-5.2-4.26-.65-2.12.11-3.76,2.06-4.5,2.65-1.01,7.02-.07,8.33,2.41.15.01.29.02.48.03.02,0,.03,0,.05-.01h.23c.17-.03.34.1.36.28.02.13-.06.27-.17.32.02.39-.02.81-.06,1.19l-.02.21c0,.09-.05.18-.13.23-.07.05-.16.08-.25.05-.35-.05-1.09.76-1.74,1.48-.98,1.11-2.09,2.38-3.36,2.52-.2.02-.39.03-.58.03v.02Zm-.74-8.52c-.78,0-1.53.11-2.17.36-1.15.44-2.37,1.44-1.68,3.71.63,2.05,2.62,4.07,5.1,3.78,1.02-.12,2.05-1.29,2.95-2.31.76-.86,1.38-1.57,1.99-1.69.03-.33.07-.7.05-1.01-.2,0-.39-.03-.56-.05-.11-.01-.21-.08-.25-.19-.77-1.67-3.22-2.6-5.43-2.6h0Z"
  />
  <path
    d="m166.42,157.1c-1.26,0-2.6-.55-3.32-1.46-.45-.57-1.03-1.76.07-3.41.05-.08.14-.13.24-.15,3.06-.28,5.07.23,6.11,1.56.11.13.09.34-.05.46-.03.02-.07.04-.11.05,0,.03.02.06.02.09.05,1.29-.54,2.22-1.67,2.65-.4.15-.84.22-1.29.22Zm-2.8-4.4c-.58.93-.58,1.81-.01,2.53.81,1.03,2.62,1.51,3.88,1.05.6-.22,1.3-.76,1.25-2.01,0-.15.08-.27.21-.31-.9-1.05-2.69-1.46-5.33-1.25h0Zm-2.6-.23s-.06,0-.1-.01c-.6-.19-1.29-.18-2.02-.17-.81.01-1.64.02-2.4-.26-.17-.06-.25-.25-.19-.42s.25-.25.41-.19c.64.24,1.38.24,2.16.22.75-.01,1.52-.02,2.22.2.17.05.26.24.21.4-.04.13-.17.23-.31.23h.02Zm-1.86,1.49c-.92,0-1.59-.06-1.9-.3-.14-.11-.16-.31-.06-.46.11-.15.31-.17.45-.05.26.21,1.66.18,2.42.16.27,0,.52-.01.74-.01.18,0,.32.15.32.32s-.14.32-.32.32c-.21,0-.46,0-.72.01-.33,0-.64.01-.93.01Zm-4.95,23.58c-.37,0-.68-.03-.84-.07-.14-.03-.24-.16-.25-.3,0-.15.08-.27.22-.32h.04-.33c-.18-.01-.32-.16-.32-.33s.14-.32.32-.32h2.88c.17,0,.31.13.32.31,0,.18-.12.32-.3.33-.21.01-.42.04-.62.08.04.04.07.1.07.17.02.17-.08.32-.25.35-.31.07-.64.09-.95.09h.01Zm10.66-.35c-.3,0-.64-.02-.95-.09-.16-.04-.27-.19-.25-.35,0-.06.04-.12.07-.17-.2-.04-.41-.07-.62-.08-.17-.01-.3-.16-.3-.33s.15-.31.32-.31h2.88c.18,0,.32.15.32.32s-.14.32-.32.32h-.33.04c.14.06.23.19.22.33,0,.15-.11.26-.25.3-.16.04-.48.07-.84.07h0Zm-9.72-3.3s-.07,0-.11-.02c-1.17-.42-2.36-.89-3.08-1.78-.11-.13-.09-.34.05-.46s.34-.09.45.05c.61.76,1.71,1.19,2.79,1.58.17.06.25.24.19.4-.05.13-.17.22-.3.22h.01Zm7.75.22c-.12,0-.23-.06-.28-.18-.08-.16-.02-.35.14-.44.4-.21.85-.36,1.33-.53.69-.24,1.4-.49,1.99-.91.14-.1.34-.07.45.07.1.15.07.34-.07.45-.67.48-1.42.75-2.15,1-.45.16-.88.31-1.24.5-.05.02-.1.03-.15.03h-.02Zm-4.46,10.3c-.22,0-.44-.03-.6-.06-.13-.02-.22-.12-.25-.25s-.08-.19-.17-.3-.21-.26-.28-.48c-.06-.17.04-.35.2-.4.17-.05.35.03.41.21.04.1.09.18.17.27.07.09.16.2.22.34.19.02.37.02.51,0,.18-.02.34.09.37.27.03.18-.09.34-.27.36-.11.02-.21.02-.32.02v.02Zm3.16-.37c-.13,0-.25-.04-.32-.2-.14-.3.16-.5.4-.66.15-.1.35-.06.45.08.06.08.07.19.04.28.05.17-.04.35-.21.4-.1.03-.23.07-.35.07v.02Zm-1.53,6.56c-1.93,0-4-.92-4.2-3.03v-.03l-.09-.06c-.14-.11-.16-.31-.05-.46s.31-.16.45-.05c.61.49,2.05.19,3.1-.04.45-.09.87-.19,1.2-.22,1.34-.12,2.65-.07,3.88,0,.17,0,.31.16.3.32-.02,2.31-2.27,3.47-4.34,3.56h-.25,0Zm-3.51-2.78c.35,1.56,2.14,2.21,3.74,2.13,1.68-.07,3.5-.91,3.71-2.61-1.11-.05-2.28-.08-3.46.02-.3.03-.7.11-1.13.21-.92.2-2.01.43-2.85.26h-.01Z"
  />
  <path
    d="m158.64,189.37c-.62,0-1.18-.08-1.63-.28-.16-.07-.24-.26-.16-.43.07-.17.26-.24.42-.17,1.43.63,4.53-.22,6.03-.63l.13.3.08.31c-1.25.34-3.24.89-4.87.89Zm-61.31,53.76c-.07,0-.13-.02-.19-.06-.53-.38-1.06-1-1.63-1.64-1.21-1.37-2.45-2.78-3.67-2.26-.13.05-.29.02-.38-.09-.9-1.12-1.78-2.26-2.67-3.4l-.73-.94c-.26-.33-.67-.76-1.09-1.2-.85-.88-1.8-1.89-2.1-2.7-.87-2.41,3.34-6.51,5.4-7.51.68-.33,1.45-.36,2.19-.4.8-.04,1.56-.07,2.19-.46.79-.49,1.53-1.51,2.24-2.5.5-.7.97-1.36,1.48-1.86.19-.19.35-.37.5-.54.39-.45.76-.86,1.47-1.2.3-.15.69-.17,1.08-.19.37-.02.79-.04.96-.18.46-.39.61-1.07.77-1.78.14-.65.29-1.33.68-1.89.88-1.28,2.29-2.23,3.65-3.15.83-.56,1.61-1.09,2.27-1.68.87-.78,1.78-1.51,2.66-2.22,1.49-1.2,3.03-2.45,4.4-3.95.73-.8,1.13-1.73,1.51-2.63.34-.8.66-1.57,1.2-2.21.1-.12.34-.26,1.01-.63.5-.28,1.11-.62,1.33-.81.67-.58,1.3-1.21,1.91-1.83.33-.33.67-.67,1.01-1,.26-.25.55-.49.85-.74.55-.45,1.11-.91,1.47-1.44.2-.31.31-.78.42-1.25.13-.56.27-1.14.59-1.53.55-.66,1.43-.91,2.35-1.17.72-.2,1.47-.42,2.13-.83,1.22-.78,2.44-1.65,3.62-2.49.78-.56,1.57-1.12,2.35-1.65.18-.12.36-.26.54-.39.59-.45,1.2-.9,1.97-1.08.47-.1.91-.05,1.33,0,.56.06,1.04.11,1.49-.21.14-.09.34-.07.45.07s.07.34-.07.45c-.64.46-1.33.38-1.93.32-.39-.04-.76-.08-1.12,0-.64.13-1.19.56-1.73.95-.19.15-.37.28-.56.4-.78.53-1.56,1.09-2.34,1.65-1.19.84-2.41,1.72-3.65,2.51-.74.48-1.57.71-2.3.91-.86.24-1.6.45-2.03.97-.22.27-.34.77-.46,1.26-.12.52-.25,1.05-.51,1.45-.4.61-1.01,1.1-1.59,1.59-.29.24-.57.47-.81.71-.34.32-.67.65-1,.99-.62.62-1.26,1.27-1.95,1.87-.27.24-.87.57-1.44.89-.34.19-.76.43-.84.5-.47.56-.77,1.28-1.1,2.03-.4.94-.82,1.92-1.62,2.81-1.4,1.54-2.96,2.8-4.47,4.02-.87.71-1.77,1.43-2.63,2.2-.69.61-1.52,1.18-2.33,1.73-1.31.89-2.67,1.82-3.48,2.99-.32.46-.45,1.07-.58,1.66-.17.79-.35,1.61-.98,2.14-.33.28-.84.3-1.34.33-.32.02-.66.03-.83.12-.59.29-.89.62-1.27,1.06-.16.18-.33.37-.53.57-.47.47-.92,1.1-1.41,1.78-.75,1.05-1.52,2.13-2.42,2.68-.77.48-1.65.52-2.5.55-.71.03-1.38.06-1.94.34-2.05,1-5.77,4.8-5.08,6.71.25.68,1.16,1.63,1.96,2.47.44.46.85.89,1.13,1.26l.73.94c.84,1.08,1.67,2.16,2.52,3.22,1.56-.46,2.94,1.11,4.17,2.51.44.5.85.97,1.24,1.31.3-.61.5-1.27.7-1.94.22-.75.45-1.5.83-2.22.74-1.37,2.52-2.72,3.95-3.8.4-.3.78-.59,1.1-.85,1.14-.92,2.28-1.83,3.43-2.74,2.91-2.3,5.91-4.69,8.73-7.22.87-.78,1.75-1.66,2.69-2.6,2.59-2.58,5.52-5.52,8.72-6.71.35-.12.68-.12.98-.12s.57,0,.82-.12c.22-.11.42-.42.61-.71.24-.37.5-.76.88-.93.66-.31,1.23-.24,1.73-.18.6.07,1.12.13,1.81-.4.14-.11.34-.08.45.05.11.13.09.34-.05.46-.89.71-1.63.61-2.28.54-.48-.06-.89-.11-1.39.11-.22.1-.42.4-.61.71-.24.36-.48.74-.85.92-.4.21-.78.2-1.13.2-.26,0-.51,0-.74.08-3.08,1.15-5.95,4.03-8.49,6.57-.94.94-1.83,1.84-2.71,2.63-2.83,2.54-5.84,4.94-8.76,7.25-1.14.91-2.29,1.82-3.42,2.74-.33.27-.71.55-1.12.86-1.38,1.04-3.1,2.35-3.77,3.59-.35.65-.56,1.36-.78,2.11-.24.81-.49,1.64-.94,2.42-.05.08-.12.13-.21.16h-.07l-.03-.05Z"
  />
  <path
    d="m88.64,248.45c-2.4,0-4.14-2.09-5.61-4.12l-.26-.36c-1.51-2.08-4.33-5.94-3.79-8.52.33-1.57,1.81-2.78,3.23-3.95,1-.82,1.94-1.6,2.47-2.45.09-.16.29-.2.44-.1.15.09.2.29.1.45-.58.94-1.61,1.78-2.61,2.6-1.34,1.1-2.73,2.24-3.01,3.59-.48,2.3,2.22,6.02,3.68,8.01l.26.36c1.68,2.32,3.56,4.52,6.29,3.65,2.31-.73,4.52-2.53,6.47-4.12l.81-.65c.14-.11.34-.09.45.05.11.13.09.34-.05.46l-.8.65c-2,1.63-4.26,3.47-6.69,4.23-.49.16-.95.23-1.39.23h0Z"
  />
  <path
    d="m83.33,237.79c-.19,0-.38-.03-.57-.1-.61-.22-.95-.51-1.04-.87-.13-.53.32-1,.67-1.37.12-.13.31-.33.33-.4.03-.88-.41-1.43-1.14-2.23-.12-.13-.11-.33.02-.46s.33-.11.45.02c.24.26.48.53.69.81.55-.31,1.1-.43,1.64-.53.45-.08.87-.17,1.27-.36.16-.07.35,0,.43.16s0,.35-.15.43c-.48.23-.96.32-1.43.4-.45.08-.88.17-1.29.37.05.56.43.88.84,1.21.34.29.69.58.76,1.03.09.57-.15,1.2-.59,1.57-.26.22-.56.32-.89.32h0Zm.03-2.66c-.03.26-.25.49-.5.76-.22.24-.56.59-.51.78,0,.05.09.23.63.42.33.11.62.08.84-.11.26-.22.42-.62.36-.98-.03-.2-.27-.39-.54-.62-.09-.07-.18-.16-.28-.24Zm9.14,10.8c-.1,0-.2-.05-.26-.13-2.29-3.27-4.24-5.58-5.81-6.87-.14-.11-.16-.31-.04-.46.11-.15.31-.16.45-.04,1.61,1.32,3.6,3.67,5.93,6.99.1.15.07.34-.08.45-.06.04-.12.06-.18.06h0Zm-2.3-.22c-.09,0-.19-.04-.25-.12-1.36-1.7-2.75-3.18-4.15-4.37-.14-.11-.15-.32-.04-.46.12-.13.32-.15.45-.03,1.42,1.22,2.85,2.72,4.23,4.45.11.13.09.34-.05.46-.06.05-.13.07-.2.07h.01Zm7.12-10.92c-.06,0-.12-.02-.17-.05-1.24-.81-5.43-4.86-5.17-6.01.04-.18.21-.27.38-.24.17.04.28.21.24.38-.05.65,3.28,4.29,4.89,5.33.15.09.19.29.09.45-.06.09-.16.15-.27.15h0Zm1.68-1.89c-.08,0-.16-.03-.23-.09-.28-.28-.58-.57-.89-.86-.96-.91-1.95-1.85-2.71-2.97-.1-.15-.06-.34.09-.45s.35-.06.45.08c.72,1.06,1.68,1.98,2.62,2.86.31.29.62.58.9.87.13.12.13.33,0,.46-.06.06-.14.09-.23.09Zm10.32-6.91c-1.05,0-2.55-1.92-4.5-4.57-.6-.82-1.13-1.53-1.44-1.86-.12-.12-.12-.33,0-.46.13-.12.33-.12.45,0,.35.36.88,1.08,1.5,1.92,1.09,1.47,3.35,4.53,4.04,4.3.17-.05.35.03.41.21s-.03.35-.2.4c-.08.03-.17.04-.25.04h-.01Zm2.04-1.7c-.08,0-.16-.03-.22-.09l-.46-.44c-1.24-1.18-2.78-2.66-3.19-4.33-.04-.18.06-.34.23-.39.17-.04.35.06.39.24.37,1.49,1.83,2.9,3.01,4.03l.46.45c.13.12.13.33,0,.46-.06.06-.15.09-.23.09h.01Zm15.29-11.55c-.05,0-.1-.01-.15-.04-3.6-1.96-4.88-7.91-5.19-9.68-.03-.18.09-.34.26-.37.18-.03.34.08.37.26.61,3.51,2.21,7.78,4.87,9.22.16.08.21.28.13.44-.06.1-.17.17-.28.17h-.01Zm2.73-1.68c-.07,0-.14-.02-.2-.06-2.06-1.59-3.43-4.52-3.27-6.99.01-.18.18-.29.34-.3.18.01.31.17.3.34-.15,2.23,1.15,5,3.02,6.44.14.1.17.31.06.45-.06.08-.16.12-.25.12Zm96.95,26.44c-.08,0-.15-.03-.21-.08-.46-.4-.93-.83-1.41-1.28-1.96-1.78-4.18-3.82-6.44-5.02-.28-.16-.53-.18-.78-.21-.34-.03-.72-.07-1.14-.4-.57-.45-.74-.92-.9-1.38-.1-.27-.19-.53-.37-.8-.6-.91-1.41-1.54-2.26-2.21-.43-.34-.88-.68-1.31-1.08-2.39-2.21-4.89-3.88-7.53-5.66-.69-.46-1.38-.92-2.08-1.4-.51-.34-1.08-.94-1.68-1.58-.74-.78-1.51-1.58-2.08-1.83-.43-.19-.83-.26-1.19-.32-1.09-.2-1.78-.45-1.91-2.21-.81-.33-1.67-1.05-2.31-1.58-.28-.24-.52-.44-.66-.51-.15-.09-.2-.29-.11-.44.09-.16.29-.21.44-.11.18.1.42.31.74.57.66.55,1.55,1.3,2.3,1.54.13.04.22.16.22.29.08,1.59.49,1.66,1.4,1.83.39.07.83.15,1.33.36.69.29,1.51,1.14,2.29,1.97.55.58,1.13,1.18,1.58,1.49.7.48,1.39.94,2.08,1.4,2.66,1.78,5.18,3.47,7.61,5.72.4.37.84.72,1.27,1.05.86.66,1.74,1.36,2.4,2.36.22.33.34.65.44.93.15.43.28.76.7,1.09.28.22.5.24.81.27.29.03.62.06,1.02.27,2.33,1.25,4.58,3.3,6.57,5.12.39.35.77.71,1.14,1.04,1.06-1.37,2.38-2.73,3.67-3.76,1.07-.86,1.87-.94,2.72-1.04.46-.05.94-.1,1.54-.27,1.16-.34,3.44-2.06,4.28-3.25.68-.97.66-1.08.43-2.16l-.06-.27c-.6-.09-.97-.05-1.28-.03-.71.05-1.1.04-2.23-.87-.69-.56-1.26-1.2-1.8-1.84-.32-.36-.63-.72-.95-1.04-.78-.78-1.97-.95-3.11-1.14-1.28-.2-2.61-.4-3.3-1.48-.05-.08-.07-.18-.04-.27.03-.09.1-.17.18-.2.03-.01.09-.03.17-.05-.2-.43-.31-.79-.4-1.12-.19-.64-.34-1.14-1.06-1.87-1.07-1.09-2.31-2.28-3.69-3.55-1.33-1.22-2.75-2.35-4.12-3.42-1.89-1.49-3.84-3.03-5.57-4.86l-.72-.76c-1.39-1.45-2.71-2.82-3.71-4.56-.75-1.31-1.78-2.26-2.97-3.36l-.55-.51c-2.88-2.7-5.77-5.62-8.57-8.46-.76-.77-1.52-1.55-2.28-2.3-.31-.31-.58-.61-.83-.89-.84-.94-1.51-1.69-2.82-1.96-.8-.17-1.39-.18-1.9-.2-.99-.03-1.78-.05-3.25-1.06l-.52-.36c-1.35-.93-2.23-1.55-3.96-1.92-.64-.13-1.33-.2-1.99-.26-1.1-.1-2.25-.22-3.3-.63-.16-.06-.24-.25-.18-.42.07-.17.25-.24.42-.18.97.38,2.06.5,3.12.59.68.06,1.39.13,2.06.27,1.86.39,2.84,1.07,4.2,2.01l.52.35c1.32.9,1.95.92,2.91.94.54.01,1.16.03,2.02.21,1.52.31,2.28,1.16,3.17,2.16.25.28.51.57.81.87l2.28,2.3c2.79,2.82,5.67,5.75,8.55,8.44l.54.51c1.23,1.13,2.29,2.12,3.09,3.51.96,1.66,2.25,3,3.61,4.42l.73.76c1.69,1.78,3.63,3.31,5.5,4.79,1.38,1.09,2.81,2.22,4.15,3.46,1.38,1.28,2.63,2.48,3.71,3.57.83.84,1.02,1.47,1.21,2.14.12.4.25.83.54,1.36.04.07.05.17.03.25-.03.08-.08.16-.16.19-.02.01-.04.02-.08.03.6.54,1.56.68,2.56.84,1.24.2,2.53.39,3.46,1.32.33.33.65.7.98,1.07.53.6,1.07,1.23,1.72,1.75.98.79,1.23.77,1.77.73.36-.03.85-.07,1.65.07.13.02.23.12.26.25l.1.49c.25,1.19.28,1.51-.54,2.67-.92,1.29-3.34,3.11-4.62,3.49-.65.19-1.18.25-1.65.3-.82.08-1.46.16-2.38.89-1.34,1.07-2.71,2.5-3.77,3.92-.05.07-.14.11-.22.12h-.03l-.02.06Z"
  />
  <path
    d="m243.36,235c-.05,0-.1-.01-.15-.04-.4-.21-.27-.82.02-2.16.21-1,.51-2.36.31-2.84-.41-1.03-1.79-1.62-3-2.15-.49-.21-.95-.4-1.32-.62-.15-.09-.21-.29-.12-.44.09-.16.29-.21.44-.11.34.2.79.39,1.26.59,1.33.57,2.83,1.22,3.34,2.49.27.67,0,1.97-.28,3.22-.12.55-.28,1.3-.25,1.53.08.09.11.24.04.36-.06.11-.17.18-.28.18h0Z"
  />
  <path
    d="m235.08,247.22c-1.16,0-2.1-1.41-2.86-2.56-.25-.37-.48-.72-.66-.93-.45-.51-.98-1.01-1.5-1.48-.49-.46-1-.93-1.43-1.41-.4-.44-.8-1.03-1.2-1.59-.44-.63-.89-1.29-1.24-1.58-.14-.11-.15-.32-.04-.46.11-.13.32-.16.45-.04.41.34.86,1.01,1.35,1.7.38.55.78,1.12,1.15,1.53.42.46.91.92,1.39,1.38.53.5,1.07,1.01,1.54,1.54.21.24.45.59.72,1,.66,1,1.59,2.39,2.42,2.26.11-.05.73-.61,1.11-.94.43-.38.7-.62.85-.72.3-.2.58-.33.85-.46.42-.2.78-.37,1.19-.77,1.96-1.86,5.02-6.3,3.55-8.62-.77-1.21-4.23-1.91-6.52-2.38-.76-.16-1.42-.29-1.93-.43-.17-.04-.27-.22-.23-.39.05-.17.22-.27.39-.23.49.12,1.14.26,1.89.42,2.68.55,6.02,1.22,6.94,2.67,1.77,2.79-1.77,7.65-3.65,9.43-.48.46-.93.67-1.36.87-.25.12-.51.25-.78.42-.12.08-.46.37-.78.66-.95.84-1.24,1.08-1.46,1.1h-.16v.02Z"
  />
  <path
    d="m231.84,240.22c-1.07,0-1.44-.47-1.57-.86-.26-.8.4-1.82.95-2.22.15-.11.46-.2,1.13-.36.33-.08.7-.18.83-.24.35-.16.71-.38,1.05-.61.25-.17.5-.32.75-.47l.34-.19c1.16-.64,2-1.11,2.75-2.23.1-.15.3-.19.44-.09.15.09.19.3.09.45-.83,1.27-1.78,1.78-2.97,2.44l-.34.19c-.24.13-.47.29-.71.44-.24.16-.5.32-.75.47.02.08,0,.17-.04.24-.14.21-.24.59-.35.99-.26.91-.57,2.06-1.59,2.06h0Zm1.19-2.96c-.16.04-.34.09-.53.15-.32.08-.82.21-.92.27-.43.31-.85,1.07-.71,1.49.11.33.58.4.96.42.49,0,.71-.66.97-1.59.07-.26.14-.51.22-.73h0Zm-.57,6.56c-.09,0-.18-.03-.24-.1-.12-.13-.11-.33.03-.46.48-.43,1.07-1.04,1.7-1.69,1.58-1.64,3.55-3.67,5.3-4.45.16-.07.35,0,.42.17s0,.35-.16.43c-1.64.73-3.56,2.72-5.1,4.32-.64.65-1.24,1.28-1.73,1.72-.06.05-.14.08-.21.08h0Zm3.05.4h-.09c-.12,0-.22-.08-.27-.19s-.03-.23.04-.32c.89-1.18,2.41-2.24,3.63-3.08l.17-.12c.15-.1.34-.06.45.08.1.15.07.34-.08.45l-.17.12c-.95.66-2.1,1.46-2.94,2.32,0,0,.02.02.03.03.11.13.1.34-.04.46-.22.18-.46.27-.72.27v-.02Zm44.95,27.32h-.24c-.18,0-.31-.17-.3-.34s.16-.29.34-.3c.56.03.93-.06.99-.24.18-.52-1.04-1.96-1.88-2.53-4.01-2.78-7.46-5.61-10.26-8.44-1.84-1.86-3.33-4.1-4.76-6.27-.89-1.34-1.73-2.6-2.65-3.8-1.22-1.58-2.21-2.08-4-2.9-1.41-.64-2.29-1.44-3.31-2.37-.23-.21-.46-.42-.71-.63-.5-.45-1.39-1.08-2.42-1.82-3.46-2.48-8.2-5.88-7.79-8.34.03-.18.19-.29.37-.26.17.03.29.2.26.37-.35,2.06,4.58,5.6,7.53,7.72,1.04.75,1.94,1.39,2.47,1.86.25.23.49.44.72.64,1.02.92,1.83,1.65,3.15,2.25,1.83.84,2.93,1.39,4.24,3.09.94,1.2,1.82,2.54,2.68,3.83,1.42,2.14,2.88,4.35,4.68,6.16,2.77,2.79,6.19,5.61,10.17,8.36.55.38,2.49,2.18,2.12,3.27-.15.46-.62.67-1.39.67h0Z"
  />
  <path
    d="m278.12,272.9c-.8,0-1.47-.37-2.63-1.21-1.44-1.04-3.1-2.32-4.68-3.62-.37-.3-.74-.6-1.11-.89-1.15-.91-2.24-1.76-3.16-2.84-.71-.82-1.21-1.75-1.7-2.66-.37-.67-.74-1.38-1.21-2.03-.1-.15-.07-.34.07-.45.14-.1.34-.07.45.07.49.68.87,1.4,1.25,2.1.49.91.96,1.77,1.62,2.54.88,1.03,1.95,1.87,3.07,2.76.37.29.75.59,1.12.9,1.57,1.29,3.22,2.56,4.65,3.59,1.77,1.28,2.12,1.36,4.04.63.02-1.99-4.94-4.78-7.1-6-.27-.15-.5-.28-.69-.39-.15-.09-.21-.29-.12-.44.09-.16.29-.21.44-.11.19.11.42.24.69.38,2.73,1.54,7.81,4.39,7.4,6.84-.02.11-.1.21-.2.25-.96.37-1.62.57-2.2.57h0Z"
  />
  <path
    d="m266.57,270.74c-.27,0-.58-.07-.95-.26-.74-.38-.88-1.54-1-2.55-.06-.48-.12-.97-.22-1.17-.43-.8-1.04-1.19-1.81-1.68-.18-.11-.36-.23-.55-.36-.44-.3-.92-.6-1.41-.91-1.67-1.06-3.57-2.27-4.75-3.71-1-1.23-2.55-5.16-1.93-6.63.07-.17.26-.24.42-.17s.24.26.17.43c-.48,1.12.86,4.77,1.83,5.97,1.11,1.37,2.96,2.54,4.59,3.58.49.31.98.62,1.42.92.18.12.36.24.54.35.82.52,1.53.98,2.03,1.92.17.31.23.81.3,1.39.09.78.22,1.84.65,2.05.77.39,1.11.09,1.3-.18.73-1.02.5-3.69-.19-4.36-.12-.11-.13-.31-.02-.44,0,0,.01-.01.02-.02.12-.12.33-.13.45,0,.89.86,1.18,3.91.27,5.2-.2.27-.57.63-1.16.63h0Z"
  />
  <path
    d="m254.07,255.94c-.08,0-.15-.03-.21-.08-2.44-2.16-5.35-3.95-8.15-5.69-2.57-1.59-5.23-3.23-7.58-5.17-.14-.11-.16-.31-.04-.46.11-.13.31-.16.45-.04,2.32,1.91,4.96,3.54,7.51,5.12,2.58,1.6,5.24,3.24,7.58,5.18.02-.02.05-.04.08-.05.16-.07.35,0,.43.16.09.2.17.39.25.59.05.13,0,.29-.12.37-.06.04-.12.05-.18.05l-.02.02Zm-29.15-23.46c-.13,0-.24-.07-.3-.2-.07-.17,0-.35.17-.43.76-.32,1.56-.58,2.33-.84,2.33-.77,4.53-1.49,5.9-3.66.1-.16.29-.2.44-.09.15.09.19.29.1.45-1.5,2.36-3.91,3.15-6.25,3.92-.76.25-1.55.51-2.28.82-.04.02-.08.02-.12.02h0Zm-6.08-5.25s-.09,0-.13-.03h-.05c-.22.04-.37-.02-.44-.19-.11-.25.1-.42.25-.54.04-.03.08-.05.13-.06,2.9-.62,5.85-1.43,7.3-3.88.09-.16.29-.21.44-.11.15.09.2.29.11.44-1.5,2.55-4.5,3.48-7.29,4.1,0,.06-.04.11-.08.16-.06.07-.15.1-.24.1v.02Zm1.89,1.68c-.08,0-.16-.03-.22-.09-.12-.11-.13-.31-.02-.44,0,0,.01-.01.02-.02.63-.65,1.48-1.06,2.29-1.45.75-.36,1.52-.74,2.12-1.29.13-.12.33-.11.45.02.12.12.11.33-.02.46-.66.62-1.49,1.02-2.28,1.4-.8.38-1.56.75-2.11,1.32-.06.06-.15.09-.23.09h0Zm-13.01-9.77h-.09c-.14,0-.26-.11-.29-.26s.04-.29.17-.35c.45-.22.9-.42,1.35-.61,1.63-.72,3.17-1.39,4.26-2.95.1-.15.3-.18.45-.07.14.1.18.3.08.45-1.2,1.7-2.82,2.41-4.53,3.15-.17.07-.35.16-.52.23-.25.26-.55.39-.87.39v.02Zm-10.46-9.12c-.11,0-.22-.06-.28-.17-.09-.16-.03-.35.12-.44,2.49-1.41,4.77-4.79,5.72-7.39.06-.17.24-.25.41-.19s.25.25.19.42c-1,2.71-3.38,6.24-6.01,7.73-.05.03-.1.04-.16.04h0Zm-3.56-3.15c-.16,0-.3-.12-.32-.29-.02-.18.11-.33.29-.35,1.98-.21,3.62-2.82,4.71-4.54l.08-.13c.09-.15.29-.2.44-.1.15.09.19.29.1.45l-.08.13c-1.15,1.84-2.89,4.61-5.18,4.85h-.04Zm-59.08-17.85c-.08,0-.17-.03-.23-.09-.12-.12-.12-.33,0-.46.26-.26.56-.53.86-.8,1.19-1.08,2.55-2.3,2.61-3.81,0-.18.14-.31.33-.31.18,0,.31.16.31.33-.07,1.77-1.53,3.09-2.82,4.26-.3.27-.58.53-.84.78-.06.06-.14.09-.23.09h.01Zm-94.31,83.44c-.66,0-1.22-.1-1.61-.34-.48-.3-.93-.94-.3-2.24.03-.07.09-.12.17-.16,3.2-1.31,5.85-3.64,8.41-5.89,1.12-.99,2.29-2.01,3.48-2.94,1.49-1.15,3.22-2.14,4.89-3.09,2.68-1.53,5.45-3.1,7.38-5.42.46-.55.75-1.37,1.03-2.15.36-1.01.73-2.04,1.49-2.61.73-.54,1.7-.66,2.63-.79.77-.09,1.49-.19,2.06-.5,1.99-1.09,3.44-3.19,4.84-5.21,1.23-1.76,2.49-3.59,4.14-4.8.14-.1.34-.07.45.07.1.15.07.34-.07.45-1.56,1.14-2.8,2.93-3.99,4.65-1.44,2.09-2.94,4.23-5.06,5.4-.67.36-1.49.48-2.28.57-.89.11-1.73.22-2.33.66s-.92,1.35-1.26,2.31c-.3.84-.6,1.71-1.14,2.35-2.01,2.41-4.83,4.02-7.55,5.56-1.65.94-3.36,1.92-4.82,3.04-1.18.91-2.33,1.93-3.45,2.91-2.57,2.26-5.22,4.6-8.47,5.96-.43.97-.02,1.22.12,1.31,1.53.95,7.17-.97,8.16-2.21.11-.15.31-.17.45-.05s.16.31.05.46c-.95,1.19-4.89,2.71-7.4,2.71h-.02Z"
  />
  <path
    d="m49.06,269.85c-.25,0-.5,0-.75-.02-.11,0-.2-.06-.26-.16-.32-.54-.39-1.04-.22-1.48.36-.97,1.7-1.42,2.89-1.83.47-.16.91-.31,1.19-.46.64-.35,1.08-.86,1.55-1.39.33-.37.67-.76,1.09-1.1.74-.6,1.44-.9,2.18-1.22.33-.15.68-.3,1.07-.49.16-.07.35-.01.43.15s.01.35-.14.44c-.39.2-.75.35-1.1.5-.73.31-1.36.59-2.03,1.13-.38.31-.68.65-1.01,1.03-.48.55-.98,1.12-1.72,1.53-.33.18-.79.34-1.29.51-1,.34-2.24.76-2.5,1.44-.08.23-.05.49.09.79,7.63.33,19.13-5.95,20.61-12.95.04-.18.21-.28.38-.25.17.04.28.21.25.38-1.64,7.73-13.37,13.47-20.71,13.47h0Z"
  />
  <path
    d="m68.62,258.32c-.16,0-.29-.11-.32-.27-.03-.18.09-.34.27-.36,1.28-.2,3.05-1.36,4.47-2.3.45-.29.87-.57,1.24-.8,1.14-.7,2.25-1.65,3.33-2.57l.64-.55c1.86-1.59,4.62-3.77,7.04-4.48.17-.05.35.05.4.22.05.17-.05.35-.22.4-2.3.68-4.99,2.81-6.8,4.36l-.63.54c-1.1.94-2.23,1.92-3.41,2.64-.37.22-.78.5-1.22.79-1.47.97-3.31,2.18-4.73,2.4h-.06Zm93.47-56.37c-.09,0-.18-.04-.24-.1-.09-.09-.11-.24-.05-.35.83-1.77,2.64-3.29,4.47-4.66,1.99-1.48,1.99-2.85,1.97-5.32v-.93c0-.18.14-.32.32-.32s.32.15.32.32v.93c.02,2.5.03,4.15-2.23,5.84-1.51,1.13-3,2.36-3.88,3.71l.18-.06c3.31-1.1,6.74-2.23,7.55-5.66,1.16-4.9,1.21-8.23.15-9.14-.13-.11-.15-.32-.03-.46.11-.13.32-.15.45-.03,1.62,1.4.93,6.09.05,9.77-.89,3.78-4.49,4.97-7.97,6.12l-.96.32s-.07.02-.1.02h0Zm-2.14.88h-.02c-1.14-.08-2.14-.9-3.11-1.7-.49-.4-.96-.79-1.41-1.05-.81-.46-1.46-.53-2.21-.6-.45-.04-.91-.09-1.44-.23-.11-.03-.2-.11-.23-.23-.17-.61-.41-1.19-.63-1.75-.41-1.02-.83-2.06-.88-3.28-.13-3.49.02-4.4.3-4.69.12-.12.32-.13.45-.02.13.12.14.32.02.46-.08.11-.25.78-.12,4.22.04,1.1.43,2.05.83,3.06.21.53.43,1.07.6,1.64.42.09.8.13,1.17.17.79.08,1.54.16,2.46.68.5.28.98.68,1.5,1.11.49.4,1,.82,1.51,1.12-.78-.82-1.59-1.8-2.34-2.8-.82-1.1-1.03-2.17-1.24-3.29-.12-.65-.25-1.32-.51-2.03-.06-.17.03-.35.19-.42.17-.06.35.03.41.2.28.76.41,1.46.54,2.13.21,1.1.39,2.04,1.12,3.03,1.06,1.42,2.25,2.77,3.26,3.7.1.09.13.24.08.36-.05.12-.17.2-.29.2h-.01Z"
  />
  <path
    d="m160.97,203.69s-.09,0-.14-.03c-.13-.06-.3-.12-.48-.19-.34-.11-.73-.25-1-.46-.14-.1-.17-.31-.06-.46.11-.13.31-.17.45-.06.18.15.52.26.81.36.08.03.17.06.25.08l.1-.22c.23-.51.44-.98.65-1.56.06-.17.25-.25.41-.19.17.06.25.25.19.42-.22.6-.44,1.08-.67,1.59l-.22.5c-.04.08-.1.15-.18.17-.04.01-.07.02-.11.02v.02Z"
  />
  <path
    d="m162.14,215.92c-.15,0-.3,0-.45-.01-1.74-.09-5.15-.56-6.92-1.68-1.49-.94-2.56-2.91-3.5-4.64-.35-.64-.68-1.25-1.01-1.76-.34-.53-.73-1.09-1.13-1.65-.92-1.3-1.87-2.64-2.4-4.01-.65-1.67-.58-3.55-.52-5.38.02-.59.04-1.17.03-1.74-.02-1.57.34-3.42.69-5.21.42-2.15.85-4.37.57-5.9-.03-.18.08-.34.26-.37s.34.08.37.26c.3,1.66-.12,3.84-.57,6.14-.34,1.76-.7,3.58-.68,5.08,0,.58-.01,1.17-.03,1.77-.06,1.75-.12,3.57.48,5.12.51,1.31,1.43,2.61,2.33,3.87.41.58.81,1.14,1.15,1.68.34.54.67,1.15,1.03,1.8.91,1.66,1.93,3.55,3.28,4.4,1.66,1.05,4.94,1.49,6.61,1.59,4.76.3,9.16-4.15,11.42-8.65,2.06-4.1,3.04-9.59,3.27-13.35.1-1.62.11-3.25.11-4.83,0-1.44,0-2.94.09-4.42.15-2.92-.09-4.81-1.82-7.09-.11-.15-.08-.34.06-.46.14-.1.34-.08.45.06,1.85,2.42,2.11,4.5,1.95,7.51-.08,1.46-.08,2.96-.09,4.39,0,1.58,0,3.22-.11,4.86-.24,3.84-1.24,9.42-3.34,13.6-2.29,4.56-6.72,9.02-11.58,9.02h0Z"
  />
  <path
    d="m159.55,211.27c-.1,0-.19-.04-.26-.12-.87-1.15-1.63-2.45-2.37-3.69-.75-1.27-1.52-2.56-2.4-3.73-.5-.66-1.11-1.08-1.75-1.51-.56-.38-1.13-.77-1.64-1.34-.55-.61-.89-1.33-1.23-2.02-.43-.89-.84-1.74-1.65-2.36-.14-.1-.17-.31-.07-.45.11-.15.31-.17.45-.06.94.71,1.41,1.66,1.85,2.58.33.68.64,1.33,1.12,1.87.45.51.97.86,1.52,1.23.66.45,1.34.91,1.91,1.66.9,1.18,1.68,2.51,2.44,3.79.73,1.23,1.48,2.51,2.33,3.63.11.15.08.34-.06.45-.06.04-.13.06-.19.06h0Z"
  />
  <path
    d="m159.7,211.91c-2.14,0-3.85-.7-5.44-2.85-.11-.15-.08-.34.07-.45.14-.1.34-.07.45.07,1.96,2.66,4.06,2.88,7.23,2.39l.16-.02c1.84-.29,3.06-.49,4.46-1.62.62-.51,1.21-1.11,1.84-1.75.77-.78,1.56-1.59,2.41-2.21.14-.1.34-.07.45.07.1.15.07.34-.07.45-.81.59-1.58,1.38-2.33,2.14-.61.62-1.25,1.28-1.9,1.8-1.54,1.25-2.89,1.46-4.77,1.75l-.16.02c-.86.13-1.66.22-2.4.22Z"
  />
  <path
    d="m162.06,209.18c-.09,0-.17-.03-.23-.1-.12-.12-.12-.33.01-.46.6-.57,1.44-.98,2.33-1.41.89-.44,1.81-.88,2.5-1.5,1.93-1.74,1.89-3.38,1.83-5.85,0-.26,0-.52-.02-.79-.12.05-.26.03-.36-.06-.13-.12-.13-.32,0-.46.08-.08.32-.33.61-.26.12.03.29.11.38.38,0,.03.02.06.02.1,0,.36,0,.72.02,1.06.06,2.46.1,4.4-2.04,6.35-.76.68-1.72,1.15-2.65,1.61-.84.4-1.63.8-2.17,1.3-.06.06-.14.08-.22.08h-.01Z"
  />
  <path
    d="m164.74,205.82c-1.25,0-2.39-.24-4.01-.63-.17-.04-.28-.22-.23-.39.04-.17.22-.27.39-.24,2.4.59,3.68.81,5.94.42.17-.03.34.08.37.26s-.09.34-.26.37c-.83.15-1.53.22-2.2.22Zm9.27-13.44c-.18,0-.32-.15-.32-.32,0-2.51-.44-7.28-1.65-10.17-.07-.17,0-.35.17-.43.16-.07.35,0,.42.18,1.35,3.2,1.7,8.21,1.7,10.42,0,.18-.14.32-.32.32h0Zm-17.84,79.77s-.1-.01-.15-.03c-.94-.48-1.9-1.3-2.84-2.09-1.1-.93-2.25-1.9-3.34-2.32-1.68-.65-3.44.47-5.14,1.56-.61.39-1.19.76-1.77,1.05-1.04.53-1.62.82-2.12.62-.46-.17-.72-.72-1.04-1.46-.51-1.2-.55-2.48-.59-3.73-.01-.43-.03-.84-.06-1.26-.19-2.5-.81-5.09-1.42-7.6-.49-2.02-.99-4.11-1.27-6.15-1.56-11.55-.66-23.15.58-36.02.55-5.69,1.28-12.39,2.58-18.99.34-1.74.56-3.54.78-5.27.17-1.39.35-2.82.59-4.24.03-.2.06-.4.1-.62.14-.97.31-2.17.84-2.96.2-.3,1.91-1.77,2.3-1.58.14.07.21.24.16.39-.03.09-.11.18-.21.21-.24.12-1.43.91-1.72,1.34-.45.67-.61,1.8-.74,2.7-.03.23-.06.44-.1.64-.24,1.4-.41,2.83-.58,4.21-.21,1.74-.44,3.55-.78,5.31-1.29,6.58-2.02,13.26-2.57,18.93-1.23,12.84-2.13,24.4-.58,35.87.27,2.01.77,4.09,1.26,6.09.61,2.52,1.24,5.14,1.43,7.69.03.43.05.86.06,1.29.04,1.23.07,2.4.53,3.5.27.63.47,1.04.67,1.11.24.08.79-.19,1.61-.6.55-.27,1.11-.63,1.71-1.02,1.75-1.12,3.73-2.39,5.72-1.61,1.2.47,2.38,1.46,3.53,2.43.69.58,1.34,1.13,1.98,1.57-2.44-7.41-2.76-15.52-3.07-23.38-.14-3.55-.28-7.21-.62-10.71l-.07-.73c-.3-3.13-.61-6.37-1.74-9.31-.14-.35-.28-.7-.41-1.03-.71-1.74-1.32-3.24-1.13-5.33.21-2.23.31-4.4.41-6.7l.06-1.25c.02-.47.12-1.13.23-1.83.2-1.32.48-3.13.18-3.73-.08-.16-.02-.35.14-.44s.35-.02.43.15c.39.78.13,2.48-.12,4.12-.1.68-.2,1.33-.22,1.76l-.06,1.25c-.1,2.31-.2,4.49-.41,6.73-.18,1.93.4,3.37,1.08,5.03.14.33.28.67.42,1.04,1.17,3.02,1.48,6.3,1.78,9.47l.07.73c.34,3.52.48,7.19.62,10.74.32,8.1.64,16.49,3.31,24.02.04.12,0,.26-.09.35-.06.05-.14.08-.21.08v-.02Z"
  />
  <path
    d="m151.38,265.88c-.18,0-.32-.15-.32-.32,0-3.75-.41-7.18-.85-10.83-.21-1.77-.43-3.61-.6-5.47-.88-9.79-1.09-17.99-.64-25.09.01-.18.17-.3.34-.3.18.01.31.17.3.34-.44,7.07-.24,15.23.64,25,.17,1.85.39,3.68.6,5.45.42,3.51.86,7.13.86,10.91,0,.18-.14.32-.32.32h-.01Z"
  />
  <path
    d="m141.23,268.95c-.26,0-.49-.05-.69-.17-.15-.08-.21-.28-.12-.44s.28-.21.44-.12c.71.39,2.59-.71,4.1-1.59,1.22-.72,2.37-1.39,3.22-1.56,1.82-.36,3.09.42,4.32,1.16.72.44,1.47.89,2.33,1.11.17.04.28.22.23.39-.04.17-.21.28-.39.23-.95-.24-1.74-.73-2.5-1.18-1.18-.72-2.29-1.39-3.86-1.08-.74.15-1.9.83-3.02,1.48-1.53.9-3,1.75-4.05,1.75h-.01Zm57.68,2.78h-.03c-1.96-.2-5.12-3.28-5.91-4.77-.08-.16-.02-.35.13-.44.15-.08.35-.02.43.13.73,1.38,3.28,3.82,4.97,4.34-.26-1.38-.4-2.87-.54-4.32-.1-1.04-.2-2.12-.34-3.11-.1-.71-.22-1.42-.33-2.13-.33-2.08-.67-4.21-.76-6.35-.36-7.93-2.67-15.76-4.9-23.34-1.35-4.57-2.74-9.29-3.68-13.97l-.33-1.63c-1.16-5.79-2.25-11.27-4.77-16.62-1.13-2.41-2.1-4.74-3-6.93-.18-.45-.37-.9-.55-1.37-.74-1.86-1.51-3.78-2.42-5.31-.09-.16-.04-.35.11-.44.15-.09.35-.04.44.11.93,1.58,1.71,3.53,2.46,5.4.19.47.37.92.55,1.37.9,2.18,1.87,4.51,2.99,6.91,2.55,5.44,3.65,10.94,4.82,16.78l.33,1.63c.94,4.65,2.33,9.36,3.67,13.92,2.25,7.62,4.57,15.48,4.93,23.48.09,2.1.43,4.22.76,6.28.11.72.23,1.42.33,2.14.15,1.02.25,2.1.35,3.14.15,1.6.31,3.26.63,4.73.02.1,0,.21-.07.28-.06.07-.15.1-.24.1l-.03-.02Z"
  />
  <path
    d="m193.25,267.12s-.08,0-.12-.02c-1.25-.52-2.31-1.35-3.34-2.15-1.13-.87-2.29-1.78-3.72-2.29l-1.41-.5c-1.96-.68-3.98-1.38-5.82-2.36-2.65-1.41-2.72-2.98-2.83-5.56l-.03-.75c-.07-1.44-.12-2.88-.17-4.33-.1-2.95-.2-6-.5-9-.38-3.8-.57-7.67-.75-11.41-.34-6.76-.68-13.74-2.12-20.46-.04-.18.07-.34.25-.38.17-.04.34.07.38.25,1.45,6.78,1.8,13.79,2.13,20.57.19,3.74.38,7.61.75,11.38.3,3.02.4,6.08.5,9.05.05,1.43.1,2.87.17,4.32l.03.76c.11,2.6.16,3.79,2.48,5.02,1.79.95,3.71,1.62,5.73,2.32.47.17.94.33,1.42.5,1.52.54,2.73,1.48,3.89,2.39.91.71,1.78,1.38,2.78,1.87.19-4.54-.5-9.05-1.16-13.41-.25-1.62-.5-3.3-.71-4.96-.09-.74-.19-1.46-.29-2.2-.32-2.43-.66-4.94-.75-7.42-.04-1.11.07-2.28.19-3.53.22-2.33.45-4.75-.38-6.71-.07-.17,0-.35.17-.43.16-.07.35,0,.42.17.89,2.11.66,4.61.43,7.03-.11,1.22-.22,2.38-.19,3.45.09,2.46.42,4.95.75,7.36.1.74.2,1.46.29,2.2.21,1.65.46,3.32.71,4.94.69,4.53,1.41,9.24,1.15,14.01,0,.1-.06.2-.15.26-.05.03-.11.05-.17.05h0Z"
  />
  <path
    d="m192.8,268.73c-3.49,0-7.25-1.19-8.46-1.61-.3-.1-.65-.21-1.04-.33-1.71-.53-4.05-1.25-4.95-2.45-.58-.78-.61-1.87-.63-2.94-.02-1.04-.05-2.01-.58-2.55-.13-.12-.12-.33,0-.46.13-.12.33-.12.45,0,.71.72.74,1.87.76,2.99.02.95.05,1.95.51,2.56.78,1.04,3,1.72,4.63,2.22.4.12.76.23,1.06.33,1.39.48,6.2,2,9.95,1.46.17-.01.34.09.36.27.03.18-.1.34-.27.36-.58.08-1.18.11-1.78.11v.02Zm-56.09-51.78c-.15,0-.28-.1-.31-.26-.37-1.85-1.29-3.73-2.17-5.55-.78-1.62-1.59-3.29-2.06-4.97-.27-.95-.63-1.92-.99-2.86-.5-1.33-1.02-2.7-1.29-4.1-.09-.48-.17-1-.26-1.54-.27-1.73-.58-3.69-1.37-5.03-.09-.16-.04-.35.11-.44.15-.09.35-.04.44.11.85,1.44,1.17,3.48,1.45,5.26.08.53.16,1.04.25,1.51.26,1.35.77,2.69,1.26,4,.36.95.73,1.94,1,2.92.45,1.63,1.25,3.28,2.02,4.87.9,1.86,1.83,3.79,2.22,5.71.03.18-.08.34-.25.38h-.06,0Zm1.26-12.03h-.02c-.26-.01-.31-.22-.31-.46-1.16-2.92-1.1-5.71-1.04-8.65.02-.94.04-1.92.02-2.91,0-.18.14-.32.31-.33.16.02.32.13.33.31.02,1.01,0,1.98-.02,2.94-.06,2.7-.11,5.25.79,7.86.14.03.26.18.27.32,0,.04,0,.09-.02.12v.23c.02.05.03.1.02.16-.03.27-.14.4-.33.4h0Zm47.14-19.9c-.07,0-.15-.02-.21-.08-.27-.24-.6-.6-.95-.99-.66-.72-1.47-1.62-2.09-1.86-.6-.24-1.12-.21-1.61-.18-.85.05-1.73.1-2.73-1.23-.11-.15-.08-.34.06-.45s.34-.07.45.06c.8,1.06,1.37,1.03,2.18.98.54-.03,1.15-.06,1.88.22.76.3,1.6,1.21,2.33,2.02.33.36.65.72.89.93.13.11.15.32.03.46-.06.07-.15.11-.24.11h.01Zm-.42,3.57c-.13,0-.26-.08-.3-.22-.06-.17.03-.35.19-.42.14-.05.46-.25.8-.46.77-.48,1.73-1.07,2.44-1.18.93-.16,1.94.09,2.93.33.39.09.76.19,1.12.25.17.03.29.2.26.37-.03.18-.2.29-.37.26-.37-.06-.76-.16-1.16-.26-.92-.23-1.87-.46-2.67-.32-.59.09-1.53.67-2.21,1.1-.42.26-.72.45-.92.52-.04.01-.07.02-.11.02h0Z"
  />
  <path
    d="m189.3,196.99c-.07,0-.15-.02-.21-.06-.27-.18-.36-.62-.32-4.64v-1.61c.02-1.31.03-2.54-.41-3.78-.06-.17.03-.35.19-.42.17-.06.35.03.41.2.48,1.35.46,2.7.44,4.01v1.6c0,1.09-.04,3.58.09,4.12.04.03.07.07.1.12.07.17,0,.35-.17.42-.04.02-.08.02-.13.02v.02Zm3.14,17.85c-.12,0-.24-.07-.3-.2-1.37-3.23-.94-7.95-.56-12.12.17-1.83.32-3.55.32-5.01,0-.18.14-.32.32-.32s.32.15.32.32c0,1.49-.16,3.24-.33,5.07-.37,4.1-.8,8.74.51,11.81.07.17,0,.35-.17.43-.04.02-.08.02-.13.02h.02Zm6.35,15.38c-.08,0-.19-.03-.29-.15-.12-.12-.11-.33.02-.46h0c0-.21-.05-.54-.08-.76l-.03-.22c-.07-.57-.17-1.19-.26-1.65-.15-.73-.41-1.45-.66-2.16-.19-.54-.39-1.1-.54-1.65-.1-.36-.14-.71-.18-1.03-.04-.35-.08-.68-.19-.99-.1-.26-.26-.48-.44-.7-.18-.23-.36-.46-.49-.76-.51-1.16-.67-2.88-.64-4.21-1.25-.05-2.67.02-3.56.19-.18.03-.34-.08-.37-.26s.08-.34.26-.37c1.01-.19,2.66-.26,4.02-.19.17,0,.31.16.3.33-.05,1.23.07,3.09.58,4.24.1.22.25.42.41.61.2.26.41.52.54.87.14.38.19.77.23,1.13.04.3.07.61.16.93.14.53.33,1.05.53,1.61.26.73.53,1.47.69,2.24.1.48.2,1.12.27,1.71l.03.22c.11.89.15,1.27-.15,1.4-.03.01-.08.03-.15.03h-.02Z"
  />
  <path
    d="m196.24,246.78c-.07,0-.13-.02-.19-.06-.09-.07-.14-.18-.13-.29.1-.97.5-1.87.88-2.74.31-.7.62-1.41.78-2.15.55-2.54.85-5.5.83-8.11-.02-2.32-.68-4.87-1.81-6.96-1.25-2.32-3.25-3.32-6.89-3.43-.18,0-.32-.16-.31-.33,0-.18.15-.31.32-.31,2.72.08,5.73.59,7.44,3.77,1.18,2.19,1.86,4.84,1.88,7.26.02,2.66-.29,5.67-.85,8.26-.17.8-.5,1.55-.82,2.27-.24.53-.46,1.05-.62,1.57.12.05.2.18.19.31-.03.55-.33.81-.58.92-.04.02-.09.03-.13.03h0Zm-11.34-44.74c-.1,0-.2-.05-.26-.13-.78-1.14-.45-3.67-.13-6.12.17-1.29.33-2.51.29-3.33-.11-2.48-1.17-3.97-3.76-5.31-2.33-1.2-2.43-1.71-2.44-3.45,0-.5,0-1.11-.08-1.89-.02-.18.11-.33.29-.35.17-.01.33.11.35.29.08.81.08,1.44.08,1.95,0,1.53,0,1.8,2.09,2.87,2.8,1.44,3.99,3.13,4.11,5.85.04.88-.12,2.13-.29,3.45-.29,2.22-.62,4.74.03,5.68.1.15.06.34-.08.45-.06.04-.12.05-.18.05h-.02Zm-18.71,38.68c-.56,0-1.01-.03-1.22-.05-1.04-.08-5.01-2.08-5.11-2.56-.04-.18.08-.34.25-.38.12-.02.24.02.31.11.33.27,3.45,2.1,4.6,2.19,1.96.16,4.14-.08,4.51-.86.7-1.48-.38-2.65-1.43-3.77-.4-.43-.77-.82-1.02-1.22-.51-.82-.73-1.64-.95-2.43-.29-1.07-.56-2.08-1.53-2.97-.12-.11-.14-.31-.03-.44,1.71-2.09.84-3.6-.36-5.71l-.35-.61c-.55-.98-.74-2.04-.93-3.08-.17-.93-.33-1.82-.74-2.59-.08-.16-.02-.35.14-.44.16-.08.35-.02.43.13.45.86.63,1.84.8,2.77.18.99.37,1.99.86,2.88l.34.6c1.19,2.09,2.22,3.89.48,6.21.93.97,1.22,2.03,1.5,3.06.2.75.41,1.53.87,2.25.22.34.57.73.95,1.13,1.08,1.16,2.43,2.59,1.54,4.48-.51,1.08-2.54,1.28-3.92,1.28h0Z"
  />
  <path
    d="m158.02,241.52c-2.06,0-4.17-.48-4.83-.64-.17-.04-.28-.22-.23-.38.04-.18.22-.28.39-.24,2.61.64,7.33,1.22,8.45-.7.09-.16.29-.21.44-.11s.21.29.12.44c-.74,1.27-2.51,1.63-4.32,1.63h-.02Zm6.12-4.84c-1.97,0-7.43-2.72-8.86-5.06-.43-.71-.5-1.35-.2-1.92.08-.16.28-.22.43-.13.16.08.22.28.13.44-.19.35-.13.77.18,1.28,1.31,2.16,6.51,4.76,8.31,4.76h.02c.18,0,.32.15.32.32,0,.19-.15.32-.34.32h.01Zm-5.52.22c-1.09,0-2.01-.77-2.82-1.44-.21-.18-.42-.35-.63-.51-.14-.1-.17-.31-.06-.45.11-.15.31-.17.45-.06.21.17.43.34.65.53.79.65,1.62,1.33,2.49,1.3.2,0,.33.12.34.31,0,.18-.13.33-.31.33h-.11Zm-.98,2.43c-1.19,0-2.67-.85-3.63-1.39-.15-.09-.24-.3-.15-.46s.25-.23.41-.13l.06.03c1.01.57,2.89,1.65,3.83,1.21.16-.07.35,0,.43.16.07.17,0,.35-.16.43-.24.11-.51.16-.79.16Zm9.92-10.45h-.25c-.1,0-.2-.06-.25-.15-.06-.08-.07-.2-.03-.29.56-1.45,1.95-2.44,3.29-3.38,1.32-.93,2.68-1.91,3.18-3.29.06-.17.24-.25.41-.2.17.06.25.24.19.42-.56,1.58-2.01,2.6-3.41,3.6-1.16.83-2.27,1.61-2.85,2.66.29-.01.57-.05.87-.08.5-.06,1.01-.12,1.55-.08.18.01.31.17.3.34s-.15.3-.34.3c-.48-.03-.94.02-1.43.08-.4.05-.81.09-1.22.09v-.02Zm1.19-5.28c-.21,0-.46-.05-.75-.18-.04-.02-.07-.04-.1-.07-.34.03-.7-.02-1.1-.17-.08-.03-.15-.09-.19-.17-.34-.74-.21-1.63.32-2.21.48-.53,1.18-.7,1.87-.46.65.24,1.11.79,1.21,1.47.09.61-.11,1.2-.53,1.51-.14.11-.39.25-.75.25h.02Zm-.09-.64c.15.01.31,0,.45-.11.22-.17.34-.54.28-.91-.03-.22-.18-.75-.79-.97-.44-.16-.87-.05-1.18.28-.28.31-.46.84-.26,1.38.42.12.76.12,1.07,0,.16-.07.35,0,.42.18.02.05.03.1.02.16h-.01Zm5.32,17.35c-1.45,0-3.03-.26-4.01-1.66-.1-.15-.07-.34.08-.45.14-.1.35-.06.45.08,1.08,1.55,3.2,1.42,4.75,1.33.18-.01.33.12.34.3,0,.18-.13.33-.3.34-.41.02-.85.05-1.3.05h0Z"
  />
  <path
    d="m165.63,245.93h-.02c-1.56-.11-3.81-.93-5.07-2.48-.71-.87-1.02-1.89-.88-2.93.02-.18.18-.31.36-.28.18.02.3.19.28.36-.12.87.13,1.69.74,2.44,1.14,1.4,3.19,2.14,4.62,2.24.18.01.31.17.3.34-.01.17-.15.3-.32.3h-.01Zm2.3,5.46s-.07,0-.11-.02c-1.14-.42-2.11-1.11-3.04-1.78-.7-.51-1.43-1.04-2.22-1.42-.74-.36-2.01-.52-3.24-.67-1.6-.2-3.12-.38-3.77-1.03-.12-.11-.13-.31-.02-.44,0,0,.01-.01.02-.02.12-.12.33-.12.45,0,.5.5,1.97.67,3.4.85,1.28.16,2.61.32,3.45.73.83.4,1.58.95,2.31,1.47.94.67,1.82,1.32,2.88,1.7.17.06.25.25.19.42-.05.13-.17.22-.3.22Z"
  />
  <path
    d="m159.55,284.99s-.07,0-.1-.02c-.17-.06-.26-.24-.2-.4.4-1.16.98-2.35,1.55-3.49.85-1.73,1.74-3.52,2-5.27.37-2.45.29-5.12.22-7.69-.05-1.77-.1-3.62,0-5.35.27-4.81,1.46-8.09,4.25-11.68.65-.84,1.31-1.66,1.97-2.49.6-.76,1.21-1.51,1.81-2.29,1.1-1.41,3.51-5.08,3.5-5.66-.06-.17.03-.33.19-.39.17-.06.36.04.42.21.34.91-3.57,6.18-3.61,6.24-.6.78-1.21,1.54-1.82,2.29-.66.82-1.31,1.65-1.96,2.48-2.7,3.48-3.86,6.66-4.12,11.33-.1,1.71-.04,3.53,0,5.3.08,2.6.15,5.29-.22,7.8-.28,1.86-1.18,3.69-2.06,5.47-.56,1.12-1.13,2.29-1.52,3.41-.05.13-.17.22-.3.22h0Zm8.91,1.05s-.07,0-.1-.01c-.22-.06-.28-.3-.29-.37-.03-.11,0-.23.09-.3,3.25-3.08,5.65-6.91,7.98-10.63,1.77-2.83,3.61-5.76,5.8-8.32.12-.13.32-.16.45-.03.13.11.15.32.03.46-2.16,2.52-3.98,5.43-5.75,8.24-2.24,3.57-4.55,7.25-7.62,10.3.02.03.03.07.03.1.02.18-.1.33-.28.36-.08.09-.19.21-.35.21h.01Zm28.59-34.65h-.05c-.17-.03-.29-.2-.26-.37.18-1.08.86-2.71,1.58-4.43.7-1.67,1.43-3.4,1.77-4.8.88-3.53.28-5.11-.72-7.71-.23-.61-.48-1.27-.74-2.01-.06-.17.03-.35.2-.4.17-.06.35.03.41.2.25.74.5,1.39.73,1.99,1.01,2.64,1.67,4.37.74,8.09-.36,1.44-1.09,3.2-1.81,4.9-.71,1.69-1.38,3.29-1.54,4.29-.03.16-.16.27-.32.27h0Zm-60.12,23.44c-.1,0-.19-.04-.25-.12-1.88-2.39-1.66-4.35-1.07-7.27.32-1.62.43-3.21.55-4.9l.07-1c.06-.83.24-1.66.41-2.47.26-1.23.51-2.4.38-3.57-.02-.18.11-.33.29-.35.17-.02.33.11.35.29.13,1.27-.14,2.53-.39,3.77-.17.79-.34,1.6-.4,2.39l-.07.99c-.12,1.7-.23,3.31-.56,4.97-.48,2.42-.73,4.09.41,5.98.19-1.71,1.08-3.48,2.68-4.08.17-.06.35.02.41.19s-.02.35-.19.42c-1.61.61-2.39,2.74-2.3,4.44,0,.15-.08.27-.21.32-.04.01-.07.02-.11.02h0Z"
  />
  <path
    d="m163.32,266.92c-.08,0-.16-.03-.23-.09-1.73-1.71-6.28-3.61-8.74-3.27-.18,0-.34-.1-.36-.28-.02-.18.1-.33.27-.36,2.7-.35,7.43,1.62,9.28,3.45.13.12.13.33,0,.46-.06.06-.15.09-.23.09h.01Zm-8.29,22.28c-2.76,0-7.82-.34-11.56-2.58-2.03-1.21-3.11-3.1-3.97-4.96-.49-1.06-.75-2.33-1-3.58-.34-1.68-.7-3.42-1.62-4.54-.11-.13-.09-.34.04-.46.14-.11.34-.09.45.04,1.03,1.25,1.4,3.06,1.76,4.83.24,1.2.5,2.45.95,3.43.82,1.76,1.83,3.56,3.71,4.68,4.08,2.45,9.87,2.54,12.18,2.47.18-.01.33.13.33.31s-.13.32-.31.33c-.28,0-.6.01-.97.01v.02Zm14.84,3.97h-.26c-.18,0-.32-.15-.32-.32s.14-.32.32-.32h.13c2.42-.02,4.53-.21,4.59-2.83.03-1.09-.46-2.17-.98-3.31-.75-1.66-1.53-3.36-.68-5.22.07-.17.27-.24.43-.16.16.07.23.27.16.43-.73,1.59-.04,3.09.68,4.69.52,1.15,1.06,2.35,1.03,3.59-.08,3.39-3.16,3.47-5.1,3.47h0Z"
  />
  <path
    d="m164.25,315.58c-1.08,0-2.3-.13-3.7-.39-.17-.03-.35-.06-.54-.09-1.36-.24-3.22-.56-4.1-1.58-.9-1.05-.89-2.35-.88-3.61,0-.76.01-1.46-.17-2.1-.34-1.18-1.35-2.14-2.32-3.06-1.7-1.62-3.45-3.29-1.81-6.13.06-.11.19-.19.32-.16.1.01.25,0,.39-.02.08-.01.16-.02.25-.03.02-.55.03-1.1.03-1.63.03-2.92.07-5.68,2.63-7.53,1.03-.75,1.09-.79,1.96-2.03l.2-.3c.57-.85,1.36-2,2.55-1.48.1.04.17.13.19.24.59.37,1.23.77,1.78,1.18.16-.34.44-.64.83-.9,1.17-.79,3.15-1.02,4.28-.76,2.53.6,2.45,2.06,2.34,4.09-.11,2.15.23,2.83.97,4.34l.21.43c.62,1.28.89,2.84,1.15,4.36.13.78.26,1.52.43,2.21.17.71.53,1.65.91,2.64,1.25,3.28,2.82,7.35.66,9.64-.94,1-3.3,1.65-5.03,2.13-.29.08-.55.16-.78.22-.81.24-1.7.35-2.72.35h-.03Zm-13.07-16.48c-1.23,2.3.17,3.63,1.79,5.18,1.04.99,2.11,2,2.5,3.35.21.73.2,1.52.2,2.28-.01,1.19-.02,2.31.72,3.18.73.84,2.53,1.15,3.72,1.36.2.03.39.06.55.09,2.61.5,4.56.52,6.13.06.23-.06.5-.15.79-.22,1.56-.43,3.92-1.08,4.74-1.94,1.88-2,.4-5.86-.79-8.98-.4-1.06-.75-1.97-.94-2.72-.17-.72-.31-1.49-.44-2.25-.25-1.47-.51-2.99-1.09-4.18l-.21-.43c-.77-1.56-1.16-2.33-1.03-4.64.11-2.04.16-2.97-1.85-3.45-.97-.23-2.76-.02-3.77.66-.41.27-.64.59-.7.95-.02.11-.09.21-.2.25-.11.04-.23.02-.32-.05-.67-.54-1.57-1.1-2.36-1.59l-.08-.05s-.04-.03-.06-.05c-.51,0-.93.56-1.45,1.32l-.21.31c-.91,1.3-1.01,1.39-2.11,2.18-2.3,1.66-2.33,4.14-2.36,7.01,0,.64-.01,1.31-.05,1.97,0,.09-.05.18-.12.23s-.16.08-.25.07c-.11-.02-.27,0-.42.02-.11.01-.22.03-.32.03v.02Z"
  />
  <path
    d="m158.08,314.18c-.13,0-.25-.08-.3-.21-.06-.17.02-.35.18-.42.82-.31,1.27-.89,1.79-1.57.3-.38.6-.78,1-1.14,1.49-1.39,3.16-1.45,4.75-1.31,2.07.19,5.94.53,6.1,3.67,0,.18-.13.33-.3.34-.2,0-.33-.12-.34-.3-.12-2.27-2.72-2.81-5.52-3.07-1.66-.15-3.02,0-4.26,1.14-.36.33-.65.71-.93,1.07-.53.68-1.08,1.39-2.06,1.77-.04.01-.08.02-.11.02h0Z"
  />
  <path
    d="m170.6,311.58c-.06,0-.12,0-.17-.03-.17-.06-.28-.21-.3-.39-.02-.18.11-.33.29-.35.11-.01.22.04.29.12.43-.11,1.69-.98,2.24-1.5.13-.12.33-.12.45,0s.12.33,0,.46c-.02.02-1.92,1.69-2.79,1.69h0Zm-10.63.71h-.08c-1.98-.51-3.71-1.99-4.61-3.95-.07-.17,0-.35.16-.43s.35,0,.43.16c.82,1.8,2.39,3.13,4.19,3.6.17.04.27.22.23.39-.04.15-.17.24-.31.24h-.01Zm.4-10.99s-.06,0-.09-.01c-.12-.04-.22-.15-.23-.27-.12-1.12.4-2.13.91-2.88-.36.17-.66.48-.86.9-.05.11-.16.18-.28.19-.12,0-.23-.06-.29-.17-.49-.9-.23-1.85.13-2.59l-.24.1c-.45.2-.92.4-1.36.55-.12.04-.26,0-.34-.09-.08-.09-.1-.24-.05-.35.4-.84,1.58-2.2,2.76-3.05-.38.12-.79.32-1.2.52-.89.43-1.81.86-2.71.72-1.32-.21-1.43-.9-1.38-1.3.2-1.57,3.73-3.75,5.71-3.55.18.02.3.18.29.35-.02.18-.17.3-.35.29-1.68-.19-4.86,1.89-5,2.99-.04.29.25.49.84.58.7.11,1.5-.27,2.34-.66.99-.47,2-.95,2.99-.64.13.04.23.17.22.31,0,.15-.1.27-.23.3-.94.27-2.36,1.55-3.18,2.63.13-.06.27-.11.4-.18.37-.17.74-.33,1.11-.47.13-.05.27,0,.36.09.09.1.1.25.03.37-.41.68-.82,1.45-.74,2.18.46-.54,1.11-.84,1.79-.81.12,0,.23.07.28.19.05.1.04.24-.03.33-.54.73-1.07,1.49-1.22,2.33,1.41-1.09,3.53-1.03,5.42-.98.51.01.99.02,1.43.02-.11-.78-.71-1.54-1.82-2.3-.12-.08-.17-.25-.11-.38.06-.13.2-.22.35-.2.24.04.49.09.76.15.31.06.63.12.93.18-.2-.83-.77-1.41-1.37-2.02-.38-.38-.77-.78-1.08-1.26-.05-.08-.07-.18-.04-.27s.09-.17.18-.2c.56-.24,1.19-.34,1.8-.44.31-.04.62-.09.9-.16.17-.03.35.07.38.24.04.18-.07.34-.24.38-.3.07-.62.11-.95.17-.43.06-.87.12-1.26.25.23.28.49.55.76.82.74.75,1.5,1.53,1.62,2.8,0,.09-.02.19-.09.25-.07.07-.15.09-.25.09-.3-.02-.61-.07-.91-.12.76.75,1.12,1.52,1.1,2.32,0,.17-.14.31-.3.31-.55.03-1.16.01-1.81,0-2.03-.05-4.35-.12-5.5,1.33-.06.07-.15.12-.25.12h-.03Z"
  />
  <path
    d="m161.85,290.87c-.05,0-.1-.01-.15-.04-.16-.08-.22-.28-.13-.44.31-.58.87-1.02,1.63-1.25,1.27-.38,3.02-.19,4.25.49.16.08.21.28.13.44s-.28.21-.43.12c-1.08-.59-2.66-.77-3.76-.44-.6.19-1.02.5-1.25.93-.06.11-.17.17-.28.17h-.01Z"
  />
  <path
    d="m164.82,292.18c-.59,0-1.19-.08-1.66-.27-.09-.04-.16-.11-.19-.21-.13.03-.26-.02-.34-.12-.1-.15-.07-.34.08-.45.81-.57,2.09-1.11,3.05-.78.51.18.87.58,1.05,1.17.05.17-.04.34-.2.39-.48.17-1.13.26-1.79.26h0Zm-.92-.73c.68.13,1.53.09,2.17-.05-.12-.22-.29-.36-.52-.45-.41-.15-.97-.04-1.5.17.02.1-.02.23-.11.3-.01,0-.02.02-.04.03Zm-5.45,1.55c-.53,0-1.01-.15-1.37-.57-.11-.12-.1-.31.01-.44.82-.83,2.04-.92,3.43-.27.04.02.08.05.11.08.1-.03.19-.06.29-.09.17-.06.35.04.4.21s-.04.35-.21.4c-.15.05-.3.1-.47.17-.66.23-1.47.52-2.19.52h0Zm-.63-.78c.49.27,1.22.11,1.93-.11-.62-.21-1.34-.28-1.93.11Zm6.61,10.51h-.26c-1.28-.1-2.71-1.03-3.04-2.88-.03-.18.08-.34.26-.37s.34.08.37.26c.24,1.33,1.21,2.25,2.46,2.36.99.07,2.24-.4,2.78-1.98.06-.17.24-.26.41-.2s.26.24.2.4c-.52,1.49-1.75,2.42-3.18,2.42Zm-8.42,5.84h-.1c-.14-.02-.25-.12-.27-.26-.08-.46-.14-.88-.19-1.31-.15-1.18-.3-2.3-.95-3.49-.31-.57-.69-1.1-1.05-1.61-.57-.81-1.17-1.65-1.51-2.66-.09-.02-.19-.01-.29.01-.17.03-.34-.07-.38-.24-.04-.18.07-.34.24-.38.27-.06.53-.04.79.05.09.03.17.11.2.21.3.99.87,1.8,1.48,2.65.37.53.75,1.07,1.09,1.67.71,1.3.86,2.47,1.02,3.71.03.21.05.43.08.63.07-.07.17-.11.28-.1.18.02.3.19.27.36-.1.66-.49.76-.71.76h0Zm1.83-3.02s-.1-.01-.14-.03c-.85-.43-2.48-3.87-3.16-5.99-.5-1.56-.43-2.11-.31-2.37-.02-.05-.02-.1-.01-.17.03-.18.21-.29.38-.25,1.59.32,2.19,1.36,2.76,2.37.43.75.87,1.52,1.74,2.06.13.08.18.24.13.37-.29.83-.53,1.72-.76,2.58-.1.39-.21.79-.32,1.17-.03.09-.09.17-.18.21-.04.02-.09.03-.13.03Zm-3.05-8.09c-.03.12-.07.57.35,1.87.66,2.03,1.86,4.44,2.53,5.3.06-.22.12-.44.17-.65.21-.8.43-1.62.69-2.4-.86-.62-1.33-1.43-1.74-2.15-.5-.87-.94-1.64-2-1.97Zm15.45-1.13h-.22c-.18,0-.32-.16-.31-.33,0-.18.15-.28.33-.31,1.74.06,3.28-.6,4.12-1.74.74-1.01.87-2.29.38-3.7-.06-.17.03-.35.2-.4.16-.06.35.03.41.2.55,1.6.39,3.13-.47,4.3-.93,1.27-2.58,2.01-4.44,2.01h0Zm17.39-71.62c-.14,0-.27-.09-.31-.23-1.16-3.98-2.72-8.05-4.23-12-1.78-4.63-3.62-9.42-4.78-14.06-.04-.18.06-.34.23-.39s.35.06.39.23c1.16,4.6,2.99,9.37,4.76,13.99,1.52,3.95,3.08,8.03,4.25,12.05.05.17-.05.35-.22.39-.03,0-.06.01-.09.01h0Zm-9.48-14.72h-.04c-1.09-.13-2-1.05-2.12-2.14-.08-.74.63-2.23,1.03-2.52.08-.06.16-.08.23-.09v-.02c.04-.18.21-.28.38-.25.96.21,1.58.63,1.83,1.28.35.87,0,2.04-1.05,3.6-.06.09-.16.15-.27.15h0Zm-.89-3.97c-.27.39-.68,1.34-.64,1.76.08.73.67,1.37,1.38,1.54.83-1.26,1.12-2.21.87-2.83-.16-.39-.56-.67-1.2-.84v.04c0,.18-.12.33-.3.34-.04,0-.08,0-.12-.01h0Zm1.98,15.28c-.11,0-.2-.05-.26-.13-.22-.32-.5-.55-.77-.77-.16-.13-.32-.27-.46-.4-.1-.1-.12-.26-.05-.38.29-.5.71-.9,1.12-1.31.21-.21.41-.4.59-.61.09-.1.23-.13.35-.09.13-.05.29,0,.37.12.1.15.06.34-.08.45l-.16.11c.09.11.18.25.27.38.1.15.24.35.3.4.12.09.16.26.09.39-.17.34-.4.7-.63,1.05-.14.22-.28.44-.4.63-.06.09-.15.16-.26.16h-.02Zm-.84-1.59c.07.06.15.12.22.19.19.16.39.32.58.53.06-.09.12-.18.17-.27.17-.27.35-.54.49-.79-.08-.1-.16-.22-.24-.35-.07-.1-.17-.25-.25-.36-.03.03-.06.06-.1.09-.31.31-.63.62-.88.97h.01Z"
  />
  <path
    d="m181.13,234.79s-.08,0-.12-.02l-.17-.06c-.15-.06-.3-.11-.45-.19-.14-.06-.21-.22-.18-.36.16-.71.51-1.35.86-1.97.29-.52.58-1.06.75-1.62.58-1.9.74-4.38.82-6.78.03-.84-.23-2.02-.5-3.27-.57-2.59-1.22-5.54.46-6.88.14-.11.34-.08.45.05.11.13.09.34-.05.46-1.37,1.08-.77,3.82-.23,6.24.28,1.29.55,2.5.52,3.42-.08,2.45-.25,4.98-.85,6.94-.19.62-.5,1.19-.8,1.73-.29.53-.56,1.03-.72,1.55.03.01.07.03.1.04,2.68-3.82,3.44-7.46,4.32-11.67l.3-1.44c.04-.18.21-.28.38-.25.17.04.28.21.25.38l-.3,1.44c-.91,4.35-1.69,8.11-4.57,12.12-.06.08-.16.13-.26.13h-.01Zm-5.45,7.36c-.16,0-.3-.12-.32-.29-.02-.18.11-.33.29-.35,2.02-.19,3.98-2.05,5.71-3.7.67-.64,1.3-1.25,1.91-1.72,1.04-.83,2.08-1.68,3.11-2.53,1.17-.97,2.37-1.95,3.56-2.9.14-.1.34-.08.45.05.11.15.08.34-.05.46-1.19.93-2.39,1.92-3.55,2.87-1.03.85-2.07,1.7-3.12,2.54-.58.47-1.21,1.06-1.87,1.69-1.8,1.72-3.85,3.67-6.09,3.88,0,0-.03,0-.03,0Zm1.47,9.88c-.11,0-.21-.05-.27-.16-.09-.15-.05-.35.1-.45,1.71-1.07,3.03-2.35,4.43-3.69.91-.88,1.85-1.78,2.9-2.63,2.05-1.63,3.71-3.03,5.17-4.54.12-.13.33-.13.45,0,.13.12.13.33,0,.46-1.48,1.54-3.16,2.96-5.23,4.61-1.03.82-1.96,1.72-2.86,2.58-1.37,1.32-2.78,2.68-4.54,3.79-.05.03-.11.05-.17.05l.02-.02Zm12.12.56h-.06c-1.14-.21-2.33-.59-3.28-1.05-.05.04-.11.06-.17.07-.17.02-.33-.11-.35-.29-.13-1.58.39-2.24.85-2.51.55-.32,1.27-.25,1.94.21.78.53,1.61,1.71,1.38,3.31,0,.08-.06.17-.13.22-.05.04-.12.06-.19.06v-.02Zm-3.23-1.72c.83.43,1.9.79,2.95,1.02.04-1.13-.56-1.96-1.13-2.35-.46-.31-.93-.37-1.26-.19-.37.22-.56.75-.56,1.51Zm1.22,6.86c-1.21,0-2.47-.28-3.16-.7-.94-.56-2.44-2.84-2.38-4.37,0-.35.11-.62.24-.82-.04-.02-.08-.04-.12-.05-.16-.07-.24-.26-.17-.43s.26-.24.42-.17c.14.06.28.12.41.2.15-.05.31.02.38.17,0,.03.02.05.03.08.71.48,1.25,1.08,1.78,1.67.52.58,1.01,1.13,1.64,1.54.43.28.94.42,1.48.57.79.22,1.6.45,2.18,1.12.12.13.1.33-.03.46-.6.53-1.63.75-2.69.75v-.02Zm-4.74-5.56c-.1.12-.16.3-.17.53-.05,1.23,1.29,3.32,2.07,3.79,1.1.66,3.64.83,4.8.23-.44-.34-1.01-.5-1.61-.67-.56-.16-1.14-.32-1.65-.64-.7-.46-1.25-1.06-1.77-1.65s-1.03-1.15-1.68-1.58h0Zm-2.91-5.57c-.41,0-.73-.15-.97-.43-.64-.76-.37-2.35-.19-3.4l.06-.36c.03-.17.19-.29.35-.27.74.08,1.27.37,1.59.87.45.71.42,1.78-.1,3.3-.04.1-.12.19-.23.21-.18.04-.35.06-.51.06v.02Zm-.52-3.76v.05c-.15.82-.4,2.35.05,2.87.14.17.35.22.67.18.39-1.2.42-2.08.11-2.57-.17-.26-.44-.44-.82-.53h0Zm4.02.16h-.3c-.15,0-.28-.12-.3-.28-.09-.66-.11-1.8-.02-2.2.04-.18.21-.29.38-.25.17.03.29.21.25.38-.05.26-.06,1.09,0,1.71h.02c1.36,0,1.41-.68,1.51-1.96.02-.23.04-.46.06-.7-.48.09-.92.31-1.01.4-.08.16-.26.22-.42.13-.16-.07-.22-.28-.14-.44.2-.4,1.23-.78,1.94-.79.1,0,.19.04.25.11s.09.17.07.27c-.06.36-.09.72-.12,1.06-.1,1.26-.2,2.55-2.18,2.55v-.02Zm4-4.5c-.32,0-.69-.12-1.1-.38-.11-.07-.17-.21-.14-.33.12-.63.31-1.43.65-1.98.07-.1.2-.16.31-.15-.02-.07,0-.17.02-.23.05-.1.24-.19.36-.19.1,0,.19.05.25.12.22.06.6.13.73.1.1-.01.2.01.27.08s.11.17.1.26c-.09.99-.2,2.21-.97,2.59-.15.07-.31.11-.48.11v-.02Zm-.57-.82c.26.13.56.24.76.13.39-.2.52-1.04.59-1.74-.26-.03-.57-.08-.79-.18.02.08,0,.17-.04.24-.26.4-.42,1.04-.52,1.54h0Zm-11.28-8.54c-.13,0-.25-.07-.3-.2-.07-.17,0-.35.18-.42,1.32-.54,1.94-2.45,1.57-3.67-.17-.57-.62-1.2-1.8-.97-.17.03-.34-.07-.38-.25-.04-.18.08-.34.25-.38,1.25-.26,2.2.27,2.54,1.41.46,1.51-.29,3.79-1.94,4.45-.04.02-.08.02-.12.02h0Zm-39.18,15.97c-.1,0-.21-.05-.27-.15-.1-.15-.06-.34.09-.45,1.35-.89,2.59-2.05,3.8-3.19,1.07-1.01,2.17-2.03,3.37-2.91.39-.28.81-.57,1.25-.87,1.43-1,2.91-2.01,3.89-3.07.12-.12.32-.13.45-.02.13.12.14.32.02.46-1.02,1.11-2.6,2.2-3.99,3.16-.43.3-.85.59-1.24.87-1.17.84-2.26,1.86-3.31,2.85-1.22,1.14-2.49,2.33-3.88,3.25-.05.03-.12.05-.18.05Zm2.94,13.44c-.13,0-.25-.08-.3-.21-.06-.17.03-.35.19-.42,1.65-.6,3.28-1.57,4.85-2.51l.76-.46c.35-.21.78-.51,1.22-.82,1.19-.83,2.41-1.69,3.32-1.69.17-.04.33.15.33.32s-.12.31-.32.32c-.71,0-1.95.87-2.95,1.58-.46.32-.89.62-1.27.85l-.76.46c-1.6.95-3.26,1.94-4.96,2.56-.04.01-.07.02-.11.02h0Zm.66,4.44h-.09c-.09-.02-.19-.11-.24-.19-.08-.16-.02-.35.14-.44.09-.05.19-.05.28,0,.6-.1,3.52-1.7,5.47-2.86,1.48-.88,3.21-1.88,4.74-2.59.16-.07.35,0,.43.16.07.16,0,.35-.15.43-1.5.71-3.21,1.69-4.68,2.56-1.53.9-5.06,2.95-5.89,2.95h-.01Zm1.71-12.45c-.58,0-1.12-.44-1.69-.89-.31-.25-.64-.51-.99-.73-.08-.05-.14-.13-.15-.23-.01-.09.02-.2.08-.26.41-.44.55-.94.69-1.48.17-.62.34-1.28.95-1.77.14-.11.34-.09.45.04.06.07.08.17.07.26.98-.09,1.76.18,2.2.76.5.64.51,1.6.04,2.68-.42.95-.86,1.46-1.38,1.59-.09.02-.18.03-.27.03h0Zm-2.04-1.97c.27.19.52.38.75.57.56.45,1.04.83,1.41.74.31-.07.62-.49.95-1.22.38-.86.39-1.58.04-2.03-.35-.45-1.04-.62-1.96-.47-.08.01-.16,0-.23-.05-.17.29-.26.63-.36,1-.13.47-.26.99-.6,1.46h0Zm7.14,3.04c-.6,0-1.27-.19-1.76-.5-.12-.08-.18-.23-.13-.37.14-.43.32-.98.65-1.37-.02-.04-.04-.08-.05-.12-.03-.18.09-.34.27-.36.56-.08,1.11,0,1.64.29.1.05.17.17.17.28,0,.42-.11,1.39-.22,1.89-.03.13-.14.24-.28.25-.09,0-.19.01-.28.01h0Zm-1.2-.92c.36.18.79.27,1.18.28.07-.4.13-.95.15-1.32-.15-.06-.3-.11-.46-.13-.41.04-.66.57-.88,1.17h0Zm-4.37,4.67c-.73,0-1.3-.22-1.59-.62-.14-.2-.27-.52-.18-.98-.1-.18-.07-.4-.07-.4.02-.17.11-.29.25-.35.02,0,.05-.02.07-.02-.04-.04-.07-.1-.08-.17-.03-.18.09-.34.27-.36.78-.12,1.46.11,1.86.64.41.54.45,1.31.11,2.06-.05.1-.15.18-.26.19-.13.01-.26.02-.38.02h0Zm-1.16-2.28s.03.02.05.04c.11.09.15.25.09.38-.17.38-.19.67-.05.86.18.25.63.36,1.2.35.17-.47.13-.92-.11-1.23-.24-.32-.67-.46-1.19-.4h.01Zm4.49-19.36c-.95,0-1.85-.84-2.68-1.75-.09-.09-.11-.23-.06-.34.33-.78,1.09-2.18,2.38-2.85.16-.08.35-.02.43.13,0,.01.01.03.02.04.54-.09,1.05.07,1.44.48.63.66.88,1.97.12,3.19-.43.68-.93,1.06-1.51,1.11,0,0-.14,0-.14,0Zm-2.06-2.03c.52.56,1.4,1.45,2.15,1.39.37-.03.71-.3,1.03-.81.57-.92.41-1.93-.04-2.4-.34-.36-.81-.4-1.33-.11-.12.07-.27.05-.37-.04-.7.58-1.17,1.39-1.44,1.97Zm.77-20.87c-.06,0-.12-.02-.18-.05-1.31-.87-2.32-1.61-2.41-2.64-.03-.33.05-.66.22-1.03.01-.03.03-.07.05-.09.22-.4.58-.83,1.08-1.3.13-.12.33-.11.45.02.03.03.05.06.06.1.17-.08.35-.17.53-.24.09-.03.2-.03.28.02,1.1.65,1.85,1.25,1.96,2.02.12.84-.5,1.66-1.83,3.08-.06.06-.15.1-.23.1h.02Zm-1.78-3.42c-.13.25-.18.48-.16.68.05.62.71,1.19,1.9,2,1.02-1.1,1.56-1.82,1.48-2.36-.06-.42-.51-.86-1.52-1.47-.63.27-1.2.64-1.7,1.14Z"
  />
  <path
    d="m144.88,237.53s-.06,0-.1-.01c-.46-.15-.98-.22-1.54-.29-1.59-.22-3.39-.47-4.27-2.46-.56-1.28-.3-2.58-.05-3.84.1-.53.2-1.02.24-1.5.15-1.83-.39-2.35-1.58-3.48l.17-.28.22-.23-.22.23.27-.19c1.21,1.16,1.95,1.86,1.77,4-.04.53-.15,1.06-.25,1.59-.24,1.21-.47,2.37.01,3.46.73,1.67,2.28,1.88,3.77,2.09.59.08,1.14.16,1.65.31.17.05.26.23.21.4-.04.13-.17.23-.31.23v-.02Zm-1.49-12.07c-.39,0-.91-.18-1.46-.85-.08-.09-.09-.23-.04-.33.31-.68.89-1.37,1.56-1.83.15-.1.35-.06.45.08.02.03.04.07.05.1.46.1.78.4.88.87.15.7-.24,1.51-.88,1.83-.12.06-.31.12-.56.12Zm-.83-1.1c.27.29.69.6,1.1.39.37-.18.62-.71.53-1.11-.06-.26-.24-.39-.57-.39-.04,0-.09-.01-.13-.03-.38.32-.71.73-.94,1.14h.01Zm-.19-7.2s-.07,0-.1-.02c-.15-.05-.26-.18-.29-.33-.04-.2,0-.53.8-1.22.31-.26.61-.42.9-.56.49-.24.91-.45,1.34-1.16,1.69-2.8,2.27-4.01-.12-5.79-.14-.1-.17-.31-.07-.45.1-.15.31-.17.45-.06,2.95,2.2,1.83,4.07.28,6.64-.53.88-1.1,1.16-1.61,1.41-.27.13-.52.26-.77.47-.36.31-.5.5-.55.59.05.08.07.19.03.28-.05.13-.17.22-.3.22h.01Zm-2.65,5.49c-.44,0-.86-.18-1.12-.5-.16-.2-.42-.68-.1-1.42-.05-.13,0-.3.13-.38.04-.03.09-.05.14-.08.06-.09.13-.18.21-.28.11-.13.32-.16.45-.04.02.02.04.03.05.05.46-.1.98-.15,1.43-.09.13.01.24.1.27.23.45,1.59-.44,2.18-.72,2.32-.23.12-.49.18-.74.18v.02Zm-.51-1.88c-.25.4-.29.76-.11.99.21.27.7.33,1.07.15.42-.22.58-.71.45-1.37-.49-.02-1.03.07-1.41.24Zm4.6-24.41h-.04c-.09-.01-.17-.06-.22-.13-.76-1.12.11-2.59.95-4.01.38-.64.78-1.31.97-1.89-.2.11-.41.25-.62.38-.81.52-1.64,1.07-2.32.86-.3-.08-.52-.3-.67-.62-.48-1.05,3.17-5.21,3.49-5.47,0-.01.02-.03-.07-.15-.11-.13-.1-.34.04-.46.13-.11.34-.1.45.04.29.33.29.73.02,1.03-.7.56-3.45,4.14-3.34,4.74.09.19.19.24.27.26.4.12,1.18-.38,1.8-.79.48-.31.93-.6,1.32-.71.1-.02.21,0,.29.06s.13.17.12.27c-.04.84-.59,1.76-1.18,2.76-.65,1.09-1.31,2.2-1.11,3,.28-.2.6-.36.88-.52.19-.1.37-.2.53-.3.15-.09.35-.05.44.1.09.16.05.35-.11.45-.17.1-.36.21-.56.32-.39.22-.8.44-1.1.7-.06.05-.13.08-.21.08l-.02-.02Zm37.95,62.58c-.08,0-.16-.03-.22-.09-1.5-1.47-1.82-2.71-2.28-4.42-.1-.36-.2-.76-.32-1.18-.05-.17.05-.35.22-.39.17-.05.35.05.4.22.12.43.23.83.33,1.19.44,1.67.73,2.78,2.1,4.13.13.12.13.33,0,.46-.06.06-.15.09-.23.09Zm-1.89-31.47c-.06,0-.12-.01-.17-.05-.7-.43-1.07-1.04-1-1.63.05-.38.27-.72.64-.98h0c0-.19.13-.32.33-.32.1,0,.19.01.28.02h.03c.12-.03.24,0,.33.08.38.1.63.3.74.59.28.68-.37,1.57-.95,2.19-.06.06-.15.1-.23.1h0Zm.16-2.29c-.41.17-.65.42-.69.68-.03.28.14.59.48.86.55-.63.72-1.11.64-1.31-.04-.11-.2-.19-.44-.24h.01Zm-34.38,19.66h-.05c-.77-.22-1.34-.44-1.75-.64-.1-.05-.16-.16-.17-.27-.02-.34.06-.67.2-.97h-.2c-.16-.02-.28-.15-.29-.31,0-.16.11-.3.26-.33l.9-.16s.1-.02.15-.02l1.11-.19c.09-.01.18,0,.25.06.07.05.11.13.12.22.09.78-.03,1.51-.16,2.28-.01.09-.07.2-.15.25-.06.04-.14.07-.21.07h-.01Zm-1.33-1.13c.28.13.65.27,1.1.4.08-.51.14-.99.13-1.47l-.77.12c-.22.19-.43.56-.46.93h0Zm-.52,22.36c-.06,0-.11-.01-.16-.04-.6-.34-1.24-.55-1.9-.59-.17-.01-.3-.15-.3-.31,0-.53.1-1.29.44-1.84.04-.06.1-.11.17-.13.03-.06.06-.11.09-.15.3-.31.88-.16,1.8.13l.16.05c.08.02.15.08.19.16s.05.17.02.25c-.19.58-.26,1.34-.2,2.14,0,.11-.05.23-.15.29-.05.03-.11.05-.17.05h.01Zm-1.71-1.25c.47.06.92.2,1.37.39,0-.54.06-1.06.17-1.5-.3-.09-.72-.21-.95-.23-.01.11-.09.23-.21.27-.04.01-.06.02-.12.02-.16.32-.23.73-.26,1.06h0Zm.65-62.87s-.07,0-.1-.02c-.47-.16-1.27-.7-1.56-1.05-.08-.09-.1-.22-.05-.33.35-.8,1-1.43,1.64-1.99,0-.15.09-.27.23-.31.06-.02.13-.03.18-.04l.11-.1c.13-.11.34-.1.45.03l.06.09c.28.09.42.31.48.44.41.86-.39,2.6-1.27,3.23-.05.04-.12.06-.18.06h0Zm-1.03-1.33c.25.22.67.5.98.64.67-.58,1.14-1.87.93-2.32-.02-.03-.05-.12-.25-.12-.64.55-1.29,1.11-1.65,1.81h-.01Zm6.11-28.2c-.08,0-.16-.03-.22-.08-.13-.12-.14-.32-.02-.46,1.98-2.14,2.83-7.76,2.02-10.4-.05-.17.04-.35.21-.4s.35.04.4.22c.88,2.85-.02,8.71-2.17,11.02-.06.07-.15.1-.23.1h.01Zm-2.52.63c-.17,0-.32-.13-.32-.31-.02-.72-.1-1.57-.19-2.47-.12-1.26-.25-2.56-.23-3.78.02-2.23.51-4.29.98-6.28.1-.4.19-.8.28-1.2.04-.18.21-.28.38-.24s.28.21.24.38c-.09.4-.19.81-.28,1.21-.46,1.95-.94,3.97-.97,6.13-.01,1.17.11,2.46.23,3.7.09.91.17,1.78.19,2.52,0,.18-.14.32-.31.33h0Zm-3.56-3.15c-.16,0-.3-.11-.32-.28-.53-4.09.16-8.75,1.91-12.77.07-.17.26-.24.42-.17.16.07.24.26.17.43-1.7,3.92-2.38,8.46-1.86,12.43.02.18-.1.33-.28.36,0,0-.04,0-.04,0Zm21.33-1.05c-2.09,0-4.1-3.79-5.82-7.35-.2-.4-.37-.76-.5-1.02-.08-.16-.02-.35.14-.44.16-.08.35-.02.43.13.14.27.31.62.51,1.04,1.1,2.27,3.38,6.98,5.24,6.98h.04c.17,0,.32.13.32.31s-.13.32-.31.33c0,0-.05,0-.05,0Zm5.49,1.05c-.11,0-.22-.06-.28-.17-.73-1.3-1.7-2.52-2.64-3.7-1.59-1.99-3.23-4.06-3.88-6.66-.04-.18.06-.34.23-.39.18-.05.35.06.39.23.62,2.47,2.22,4.48,3.77,6.42.95,1.2,1.94,2.44,2.7,3.79.09.16.03.35-.12.44-.05.03-.1.04-.16.04h-.01Zm3.35,1.05h-.02c-.18-.01-.31-.17-.3-.34.22-2.99-1.28-7.6-3.28-10.07-.11-.13-.09-.34.05-.46s.34-.09.45.05c2.12,2.63,3.66,7.35,3.42,10.52,0,.17-.15.3-.32.3h0Zm1.89-.62h-.03c-.18-.02-.31-.18-.29-.35.04-.38.08-.78.12-1.17.38-3.74.82-7.96-1.32-11.22-.1-.15-.06-.35.09-.45s.35-.05.44.09c2.27,3.46,1.82,7.8,1.43,11.64-.04.39-.08.79-.12,1.17-.02.17-.16.29-.32.29h0Zm-16.55-22.68c-.11,0-.21-.05-.27-.16-.09-.16-.04-.35.11-.45l.13-.07c1.26-.77,2.69-1.64,4.19-1.86.17,0,.34.09.36.27.03.18-.1.34-.27.36-1.37.2-2.74,1.03-3.94,1.77l-.13.07c-.05.03-.11.05-.17.05h-.01Zm9.42,2.1c-.07,0-.13-.02-.19-.06-1.89-1.35-4.64-2.14-6.55-.84-.15.1-.35.06-.45-.08s-.06-.34.08-.45c2.31-1.58,5.36-.53,7.28.84.14.1.18.3.07.45-.06.08-.16.13-.26.13h.02Zm-4.82,128.95s-.06,0-.09-.01c-.17-.05-.27-.23-.22-.39.97-3.47-.02-8.41-.74-12.02l-.21-1.07c-.03-.18.08-.34.25-.37.17-.04.34.08.38.25l.21,1.06c.73,3.67,1.74,8.71.73,12.32-.04.15-.17.24-.31.24h0Z"
  />
</svg>
