<svg xmlns="http://www.w3.org/2000/svg" viewBox="0 0 320 320" opacity="0.6">
  <path
    d="m168.78,206.95s-.09,0-.13-.02c-5.14-1.97-5.11-2.06-5-2.46.04-.13.15-.34.56-.27.6.13,4.09-1.61,7.13-3.31.18-.1.41-.04.51.14.1.18.04.41-.14.51-1.2.67-4.63,2.55-6.53,3.19.92.39,2.38.97,3.75,1.5.19.07.29.29.22.48-.06.15-.2.24-.35.24Z"
  />
  <path
    d="m179.09,213.52s-.1,0-.14-.03c-.19-.08-.28-.3-.2-.49l1.75-4.23c.04-.1.13-.18.23-.21.1-.03.22-.02.31.04.07.04,1.69,1.06,1.79,2.41.01.21-.14.39-.35.4-.21.02-.39-.14-.4-.35-.04-.61-.62-1.21-1.07-1.56l-1.57,3.8c-.06.14-.2.23-.35.23Z"
  />
  <path
    d="m186.5,208.6c-.07,0-.14-.02-.21-.06-.7-.46-1.86-1.34-1.84-2,.01-.23.04-.84,3.49-1.43.21-.04.4.1.43.31.04.2-.1.4-.31.43-1.29.22-2.52.57-2.84.79.13.25.78.82,1.48,1.29.17.11.22.35.1.52-.07.11-.19.17-.31.17Z"
  />
  <path
    d="m187.42,243.08c-.3,0-.36-.08-.43-.15-.09-.11-.12-.3-.06-.43.14-.32,1.84-1.91,3.24-3.18.15-.14.39-.13.53.03.14.15.13.39-.03.53-.93.84-1.91,1.77-2.51,2.36.64-.13,1.56-.35,2.38-.57.21-.05.41.07.46.26.05.2-.07.41-.26.46-2,.54-2.89.69-3.31.69Z"
  />
  <path
    d="m182.19,253.07c-2.99,0-4.53-1.37-4.75-1.58,0,0-.02-.02-.03-.03-.14-.15-.13-.38.01-.52.15-.14.38-.14.53,0,0,0,0,0,.02.02.36.28,2.83-.02,5.32-.67.2-.05.4.07.46.27.05.2-.07.41-.27.46-.95.25-2.7.66-4.09.76,1.91.75,5.75,1.21,11.69-2.76.17-.11.4-.07.52.1.12.17.07.4-.1.52-3.97,2.65-7.05,3.43-9.31,3.43Z"
  />
  <path
    d="m181.64,256.96c-.17,0-.32-.11-.36-.28-.05-.2.06-.41.26-.46,6.94-1.9,11.04-7.67,11.08-7.73.12-.17.35-.21.52-.09.17.12.21.35.09.52-.17.25-4.29,6.05-11.49,8.02-.03,0-.07.01-.1.01Z"
  />
  <path
    d="m182.51,248.69s-.08,0-.12,0c-.36-.05-.68-.32-.88-.53l-1.04.41c-.11.04-.23.03-.33-.03l-1.64-.97h-2.08c-.09,0-.17-.03-.24-.09-.03-.02-.62-.52-1.19-1.59-.16-.3-.16-.54,0-.72.28-.31.75-.12,1.4.16.06.02.12.05.19.08.02-.04.05-.08.08-.11.25-.24.5-.08.98.24.57.37,1.92,1.25,2.49.88.85-.55,1.81-.34,2.65-.15.53.12,1.03.23,1.5.18,1.2-.14,2.05-.85,2.06-.85.1-.08.22-.11.34-.08l1.01.28c.45.12,1.7-.95,2.57-2.04.09-.12.26-.17.4-.12.15.04.25.17.27.33.15,1.6.02,2.08-.22,2.34-.21.22-.46.21-.62.21-.03,0-.06,0-.09,0,0,0-.01.04-.03.09-.13.43-.41.75-.82.92-.5.2-1.05.14-1.32.05-.07.02-.2.07-.31.12-.38.15-.95.38-1.55.43-.22.02-.49.03-.77.05-.71.04-1.9.1-2.19.33-.15.12-.33.18-.52.18Zm-.88-1.36c.12,0,.23.05.3.15.12.17.39.43.56.45.51-.37,1.44-.45,2.69-.51.27-.01.53-.03.74-.05.49-.04.98-.24,1.33-.38.4-.16.61-.25.83-.13.07.02.51.1.84-.06.17-.08.28-.22.34-.42.19-.64.66-.64.85-.62.06,0,.14-.16.13-.83-.73.78-1.9,1.83-2.74,1.59l-.83-.23c-.34.25-1.18.77-2.29.9-.59.07-1.18-.06-1.75-.19-.8-.18-1.49-.33-2.08.05-.34.22-.74.25-1.15.17l.98.58,1.12-.44s.09-.03.14-.03Zm-5.06-.52h1.75c-.39-.2-.76-.44-1.06-.64-.24.22-.59.07-1.15-.16-.06-.03-.14-.06-.22-.09.29.47.55.76.68.89Z"
  />
  <path
    d="m180.48,249.71c-1.94,0-3.4-.11-3.52-.12-.21-.02-.36-.2-.35-.4.02-.21.18-.37.4-.35.06,0,6.24.46,10.18-.51,3.81-.93,5.37-4.92,5.38-4.96.07-.19.29-.29.48-.22.19.07.29.29.22.48-.07.18-1.72,4.4-5.9,5.43-2.11.52-4.79.64-6.89.64Z"
  />
  <path
    d="m178.32,242.73c-1.62,0-2.65-.24-2.76-.27-.2-.05-.32-.25-.27-.46.05-.2.26-.32.45-.27.07.02,7.11,1.67,14.45-4.23.16-.13.4-.11.53.06.13.16.1.4-.06.53-4.85,3.91-9.52,4.65-12.35,4.65Z"
  />
  <path
    d="m139.28,249.21c-.35,0-.59-.15-.85-.33-.26-.19-.49-.36-1.22-.2-1.34.3-1.85-.17-2.18-.48-.22-.2-.23-.21-.43-.11-.69.33-1.13-.13-1.45-.47-.07-.08-.14-.15-.21-.22-.01,0-.03,0-.04-.02l-.65-.3c-.12,0-.25.02-.4.08-1.1.37-2.03-.37-2.6-.9-.05.08-.14.11-.27.12-.36.02-.41-.31-.45-.63-.01-.1,0-.19,0-.26,0-.04,0-.08,0-.1-.02-.09,0-.19.05-.28.1-.15.28-.21.45-.15l3.4,1.38c.33.03.59.16.8.32h1.2c.23,0,2.39-.06,3.19.73.14.14.34.09.82-.13.4-.18,1.05-.47,1.48.05.11-.14.24-.35.34-.5.38-.59.77-1.21,1.32-1.24.17-.02.44.04.69.33l.79.96s.03.03.04.04c.12.12.15.32.06.47-.06.11-.17.18-.29.19-.02,0-.05,0-.08,0-.16.06-.63.28-1.95,1.07-.72.43-1.19.58-1.56.58Zm-.75-1.17c.14.07.25.16.35.23.29.21.48.36,1.57-.29.83-.49,1.38-.8,1.74-.98l-.51-.63s-.06-.06-.07-.07c-.16.02-.54.62-.73.9-.35.54-.64.96-1.03.96-.12,0-.34-.05-.49-.33-.05-.09-.08-.13-.62.11-.07.03-.14.06-.21.09Zm-3.25-.62c.1.07.18.14.26.21.27.25.56.51,1.51.3.01,0,.03,0,.04,0,0,0,0,0,0,0-.3-.3-1.09-.45-1.81-.5Zm-1.23-.02c.08.04.14.03.21,0h-.21Z"
  />
  <path
    d="m137.15,245.38c-4.01,0-7.02-1.22-7.21-1.29-.19-.08-.28-.3-.2-.49.08-.19.3-.29.49-.2.07.03,7.13,2.87,13.93-.23.19-.09.41,0,.5.19.09.19,0,.41-.19.5-2.54,1.16-5.08,1.54-7.31,1.54Z"
  />
  <path
    d="m129.03,252.86c-1.82,0-2.29-.44-2.4-.63-.11-.18-.05-.41.12-.52.17-.1.38-.06.49.09.07.06,1.01.74,5.74-.14,5.33-1,9.07-3.14,9.11-3.17.18-.1.41-.04.51.14.1.18.04.41-.14.51-.16.09-3.88,2.23-9.35,3.25-1.82.34-3.14.46-4.09.46Z"
  />
  <path
    d="m141.65,254.4h-.01c-1.56-.05-4.01-1.53-4.11-1.59-.14-.09-.21-.26-.17-.42.05-.16.19-.28.37-.27,3.26.06,5.62-1.74,5.64-1.76.16-.13.4-.1.53.07.13.16.1.4-.07.53-.09.07-1.98,1.5-4.76,1.84.8.4,1.85.84,2.6.86.21,0,.37.18.36.39,0,.2-.17.36-.38.36Z"
  />
  <path
    d="m128.74,251.58c-.21,0-.38-.01-.5-.04-.2-.05-.32-.25-.27-.46s.26-.32.45-.27c.5.12,2.48-.18,4.34-.52-1.81-.64-3.45-1.95-3.55-2.03-.16-.13-.19-.37-.06-.53.13-.16.37-.19.53-.06.03.02,3.11,2.47,5.2,2.19.2-.03.39.11.42.31.04.2-.09.39-.29.43-.52.11-4.61.98-6.28.98Z"
  />
  <path
    d="m139.69,224.83c-1.74,0-3.22-.12-3.99-.47-.19-.08-.27-.31-.19-.5.08-.19.31-.27.5-.19,2.52,1.12,14.15-.4,14.27-.42.2-.02.39.12.42.32.03.21-.12.39-.32.42-.35.05-6.32.83-10.68.83Z"
  />
  <path
    d="m133.01,205.85c-.08,0-.14,0-.2-.01-.2-.04-.34-.24-.3-.44.04-.2.24-.33.44-.3.41.08,2.57-.47,3.61-.87-1.6-.67-4.08-2.82-4.4-3.1-.16-.14-.17-.37-.04-.53.14-.16.37-.17.53-.04.93.82,3.58,2.96,4.58,3.1.1.01.42.06.53.33.05.13,0,.35-.09.46-.45.53-3.62,1.4-4.67,1.4Zm4.2-1.43h0,0Z"
  />
  <path
    d="m145.12,209.63c-.29,0-.57-.01-.84-.04-4.2-.48-5.04-1.63-5.12-1.76-.11-.17-.06-.41.12-.52.17-.11.41-.06.52.12h0s.77.98,4.57,1.41c2.81.32,7.45-1.33,9.98-2.34-6.16-.41-14.66-5.1-15.06-5.33-.18-.1-.25-.33-.15-.51.1-.18.33-.24.51-.15.11.06,10.71,5.91,16.58,5.2.18-.02.36.09.41.27s-.04.37-.2.44c-.3.14-7.02,3.2-11.31,3.2Z"
  />
  <path
    d="m159,204.91c-.12,0-.24-.06-.31-.17-1.21-1.86-1.3-5.27-1.31-5.42,0-.21.16-.38.37-.38h0c.2,0,.37.16.38.37,0,.03.09,3.35,1.19,5.02.11.17.06.41-.11.52-.06.04-.13.06-.2.06Z"
  />
  <path
    d="m188.98,293.81c-.15,0-.29-.06-.4-.17-.12-.12-.45-.44-.25-2.25.05-.46-.43-1.71-.74-2.39-.09-.19,0-.41.18-.5.19-.09.41,0,.5.18.09.2.9,1.96.81,2.79-.1.87-.05,1.38,0,1.57.13,0,.31-.01.51-.02.36,0,1.31-.02,1.46-.19.19-.4-.03-3.55-.38-4.6-.07-.2.04-.41.24-.48.19-.07.41.04.48.24.3.89.74,4.57.3,5.25-.31.47-1.09.52-2.07.53-.22,0-.41,0-.53.02-.03,0-.06,0-.09,0Z"
  />
  <path
    d="m182.29,300.89c-.17,0-.33-.12-.37-.29-.2-.77,1.29-1.98,2.34-2.73-.13-.35-.38-.79-.68-.82-.3.02-1.25,1.21-1.99,2.49-.1.18-.33.24-.51.14-.18-.1-.24-.33-.14-.51.51-.89,1.79-2.9,2.69-2.87,1.02.08,1.39,1.47,1.43,1.62.04.15-.02.31-.15.4-1.19.82-2.25,1.81-2.27,2.11.05.2-.07.39-.27.44-.03,0-.06.01-.09.01Z"
  />
  <path
    d="m184.49,303.37s-.02,0-.03,0c-.21-.02-.36-.2-.35-.4.08-1.04,1.24-2.25,1.68-2.67-.06-.2-.22-.52-.65-.57-.44-.04-1.27.98-1.81,1.97-.1.18-.33.25-.51.15-.18-.1-.25-.33-.15-.51.23-.42,1.43-2.5,2.56-2.36.98.12,1.31.99,1.34,1.43,0,.12-.04.23-.12.31-.42.38-1.53,1.53-1.59,2.31-.01.2-.18.35-.37.35Z"
  />
  <path
    d="m185.65,305.27c-.14,0-.27-.08-.34-.21-.12-.24-.31-.64,2.18-2.25-.09-.32-.26-.88-.51-1.37-.35.19-1.17,1.16-1.86,2.21-.11.17-.35.22-.52.11-.17-.11-.22-.35-.11-.52.64-.97,1.81-2.58,2.57-2.58,0,0,.01,0,.02,0,.22,0,.4.13.51.33.46.84.69,1.87.7,1.91.03.15-.03.31-.17.4-.89.56-1.9,1.31-2.1,1.59,0,.14-.08.28-.21.34-.05.03-.11.04-.16.04Z"
  />
  <path
    d="m189.71,301.45c-.13,0-.26-.07-.33-.2-.1-.18-.03-.41.15-.51.15-.08,3.07-1.67,5.03-2.29-2.62-1.27-7.43-3.34-8.85-2.81-.19.07-.41-.02-.48-.22-.07-.19.02-.41.21-.48.2-.08,4.87-1.88,7.4-1.88.21,0,.38.17.38.38s-.17.38-.38.38c-1.43,0-3.67.65-5.26,1.17,3.05.63,7.61,2.94,8.25,3.27.15.08.23.24.2.41-.03.17-.17.29-.34.3-1.27.1-4.62,1.8-5.8,2.45-.06.03-.12.05-.18.05Z"
  />
  <path
    d="m196.76,300.86s-.1,0-.15-.03c-.06-.03-6.19-2.61-8.61-2.17-.17.03-.34-.06-.41-.22-.07-.16-.02-.35.12-.45.16-.12,3.22-2.37,5.02-3.65-2.31-.09-7.48-.3-8.45-.31-.21,0-.37-.17-.37-.38,0-.21.17-.37.38-.37h0c1.26.01,9.25.34,9.59.35.16,0,.3.12.35.27.04.16-.02.32-.15.41-.93.62-3.53,2.51-4.95,3.56,2.96.22,7.56,2.17,7.79,2.26.19.08.28.3.2.49-.06.14-.2.23-.34.23Z"
  />
  <path
    d="m189.71,301.87c-.17,0-.32-.12-.37-.29-.05-.2.08-.4.28-.45.18-.04,4.46-1.05,7.22-.46.2.04.33.24.29.45-.04.2-.24.32-.45.29-2.59-.56-6.85.45-6.89.46-.03,0-.06,0-.09,0Z"
  />
  <path
    d="m197.5,298.98c-1.06,0-2.36-.34-2.88-.49-.14-.04-.24-.16-.27-.3-.02-.14.04-.29.15-.37.22-.16,2.24-1.55,3.56-1.15.42.13.74.42.91.86.21.53.05.87-.12,1.05-.27.29-.78.4-1.36.4Zm-1.82-1c1.2.27,2.39.36,2.63.09.05-.06,0-.21-.03-.27h0c-.09-.22-.22-.36-.43-.42-.57-.17-1.49.22-2.18.59Z"
  />
  <path
    d="m187.26,301.55c-.06,0-.11-.01-.17-.04-.13-.06-.21-.19-.21-.33l-.04-4.76c0-.21.17-.38.37-.38h0c.21,0,.37.17.38.37l.03,3.98c1.37-1.17,2.82-2.8,2.53-3.59-.55-1.54-1.47-3.16-1.48-3.17-.1-.18-.04-.41.14-.51.18-.1.41-.04.51.14.04.07.96,1.69,1.53,3.29.64,1.74-2.71,4.41-3.38,4.93-.07.05-.15.08-.23.08Z"
  />
  <path
    d="m182.93,288.63c-1.8,0-4.02-.85-4.13-.9-.19-.08-.29-.29-.21-.49.08-.19.29-.29.49-.21.03.01,2.77,1.07,4.42.81-.18-.06-.38-.11-.55-.16-1.24-.35-2.14-.64-2.43-1.18-.1-.18-.03-.41.15-.51.18-.1.41-.03.51.15.16.3,1.34.63,1.97.81,1.04.29,1.56.44,1.57.9,0,.41-.47.55-.67.62-.34.11-.72.15-1.13.15Z"
  />
  <path
    d="m188.42,286.8c-.75,0-1.24-.11-1.29-.12-3.81-.3-6.03-.86-6.55-1.66-.17-.27-.12-.49-.09-.55.07-.2.28-.3.48-.23.16.06.26.21.25.37.09.12.84.91,6.03,1.32.08.01,2.37.51,4.63-.81.17-.1.41-.04.51.14.1.18.04.41-.14.51-1.43.83-2.85,1.02-3.83,1.02Zm-7.22-2.08h0s0,0,0,0Zm0,0h0Zm0,0"
  />
  <path
    d="m185.58,279.88c-.08,0-.16-.03-.23-.08-4.85-3.74-5.66-13.32-5.69-13.73-.02-.21.14-.39.34-.4.21-.01.39.14.4.34,0,.1.82,9.66,5.4,13.19.16.13.2.36.07.53-.07.1-.18.15-.3.15Z"
  />
  <path
    d="m182.45,292.8h0c-.21,0-.37-.18-.37-.38s.17-.36.38-.37c.18-.05.72-.64,1.3-1.39-1.59.05-3.73-.58-3.84-.62-.2-.06-.31-.27-.25-.47s.27-.31.47-.25c.84.25,3.26.84,4.35.47.15-.05.32,0,.42.13s.1.31,0,.44c-.78,1.11-1.83,2.43-2.46,2.43Z"
  />
  <path
    d="m123.54,316.76c-2.71,0-6.37-.86-7.75-1.45-1.34-.57-1.34-1.21-1.34-2.26,0-.49,0-1.11-.13-1.95-.3-2.07,1.23-3.93,2.46-5.42.47-.56.91-1.1,1.18-1.56.57-.97,1.55-1.6,2.33-2.11.53-.35,1.14-.74,1.14-.99,0-.66.72-1.29,1.48-1.96.55-.49,1.18-1.04,1.27-1.42.23-.98,2.13-3.15,2.69-3.78-.13-.64-.41-2.54.53-3.69.53-.64,1.34-.94,2.4-.87,3.86.25,4.29,1.91,4.33,2.1.31,1.03,1.01,2.85,1.55,3.2.55.35,3.19.58,4.83.64.13-.13.52-.61,1.11-1.96.64-1.45-.89-4.3-1.53-5.27l-.09-.13.03-.15c.3-1.42.1-1.56.01-1.63-.55-.4-.55-.87.48-3.44,1.9-4.73,1.77-16.87,1.77-17,1.18-5.17,1.03-6.87.94-7.89-.04-.41-.07-.73,0-1.11.09-.47.03-.7-.04-.94-.09-.31-.19-.66.06-1.31.44-1.11.55-1.81.38-2.33-.12-.36.02-.81.17-1.32.25-.81.52-1.72-.09-2.37-.26-.27-.55-.64-.48-1.05.07-.43.48-.64.92-.86.4-.21.85-.44,1.19-.86.49-.6.54-1.7.6-2.96.05-1.04.1-2.21.43-3.32.68-2.34.76-3.58.76-3.6.01-.21.19-.38.4-.35.21.01.36.19.35.4,0,.05-.08,1.33-.79,3.76-.3,1.03-.35,2.1-.4,3.15-.07,1.4-.12,2.6-.76,3.4-.44.54-1.01.83-1.43,1.05-.19.1-.48.25-.52.33h0s.02.11.28.4c.91.97.54,2.2.26,3.11-.1.33-.22.73-.18.87.29.88-.03,1.93-.4,2.84-.16.41-.12.57-.04.83.08.29.19.64.06,1.29-.05.27-.03.52,0,.9.1,1.06.26,2.84-.94,8.03.02.42.14,12.33-1.82,17.2-.78,1.93-.83,2.41-.78,2.52.49.35.66.79.36,2.27.44.7,2.35,3.94,1.51,5.86-.56,1.26-.97,1.86-1.23,2.14l.39.88c.47.25,1.97,1.19,2.04,2.92.09,1.89-.99,5.19-3.64,6.61-1.33.71-2.7,1.02-3.92,1.3-1.05.24-1.96.45-2.43.84-.46.38-.65,1.14-.88,2.02-.25.96-.53,2.04-1.24,2.93-1.35,1.69-3.84,3-6.5,3.43-.41.06-.88.09-1.37.09Zm-1.56-15.15c-.26.37-.74.68-1.28,1.03-.75.49-1.61,1.05-2.09,1.86-.3.51-.76,1.07-1.25,1.66-1.2,1.45-2.55,3.09-2.3,4.83.13.89.13,1.56.13,2.05,0,1.01,0,1.19.89,1.57,1.6.68,6.26,1.68,8.71,1.3,2.44-.39,4.81-1.63,6.03-3.16.61-.77.86-1.73,1.1-2.65.25-.96.48-1.87,1.12-2.41.61-.51,1.6-.74,2.74-1,1.17-.27,2.49-.57,3.73-1.23,2.37-1.27,3.32-4.22,3.25-5.92-.06-1.55-1.72-2.33-1.73-2.33l-.13-.06-.52-1.17c-.9-.04-3.22-.17-4.47-.51.05.07.04.13.03.21-.06.37-.44.32-.58.3-.86-.11-2.17-.04-3.56.12.79.57,1.56,1.14,2.19,1.62l-.41.63c-.33-.14-2.08.04-4.33.37,1.12.63,2.08,1.2,2.31,1.34l1.64.98-1.89-.29c-.85-.13-2.65.12-4.42.45.55.41,1.18.89,1.91,1.46.12.09.24.18.36.28l-.48.58c-.11-.09-.22-.17-.33-.26-2.29-1.62-6.2-1.03-6.24-1.03l-.13-.64Zm3.51-.12c.21.03.43.06.65.11-.09-.06-.17-.12-.26-.19-.13.03-.26.05-.39.08Zm-2.32-1.66c-.47.42-1,.92-1,1.19,0,.17-.05.33-.13.47.35-.09,1.55-.38,3-.68-.79-.55-1.4-.94-1.63-1.01l-.06.02h0c-.06,0-.12.02-.18,0Zm1.31-.29c.38.23.9.58,1.59,1.07,1.35-.26,2.79-.5,3.92-.59-.63-.37-1.3-.75-1.94-1.1-1.14.18-2.36.39-3.56.61Zm.55-2.03c-.06.12-.1.23-.12.31-.08.34-.31.67-.63,1,.7-.13,1.64-.3,2.68-.47-.85-.44-1.54-.76-1.84-.82-.03,0-.06-.01-.08-.02Zm1.1-.4c.58.26,1.31.63,2.05,1.04,1.61-.25,3.26-.47,4.4-.53-.64-.47-1.28-.93-1.9-1.35-1.79.25-3.56.6-4.56.85Zm1.28-2.72c-.52.58-1.19,1.38-1.7,2.07.96-.31,2.48-.6,4.06-.82-.84-.56-1.56-.99-2.01-1.18-.12-.02-.24-.04-.35-.07Zm2.6.5c.3.19.6.39.91.6.48-.06.96-.11,1.41-.15-.73-.14-1.52-.3-2.32-.45Zm-2.18-1.19c4.45.85,6.48,1.24,7.4,1.49-.9-.67-1.66-3.12-1.81-3.61,0-.04-.37-1.32-3.65-1.53-.82-.05-1.4.14-1.78.6-.65.79-.54,2.24-.4,2.98.07.02.15.04.23.07Z"
  />
  <path
    d="m130.98,300.86c-.19,0-.41-.04-.66-.15-1.57-.67-1.84-2.82-1.76-4.63-1.17.71-4.74,2.02-6.07,1.4-.39-.18-.6-.51-.6-.93,0-1.74,4.35-2.92,6.25-3.35l-1.22-1.22,2.08,1.07.55-2.33.12,2.67,2.24,1.15.04.17c.17.8.98,4.86-.25,5.88-.16.13-.39.25-.71.25Zm-1.58-5.8c-.22,1.86-.17,4.37,1.22,4.96.4.17.54.05.59.01.63-.52.41-3.16.04-4.97l-1.63-.84c-.04.26-.11.56-.22.84Zm-.57-1.24c-2.55.53-6.19,1.73-6.19,2.73,0,.13.04.19.16.25,1.05.48,4.89-.93,5.53-1.47.14-.12.25-.29.33-.47.05-.41.11-.77.16-1.04Z"
  />
  <path
    d="m125.55,306.71s-.02,0-.02,0c-.21-.01-.36-.19-.35-.4.08-1.28,3.22-11.97,3.35-12.42.06-.2.27-.31.47-.25.2.06.31.27.25.46-.9,3.07-3.26,11.26-3.32,12.26-.01.2-.18.35-.37.35Z"
  />
  <path
    d="m134.6,289.66c-2.42,0-5.52-.06-5.72-.07-.21,0-.37-.18-.37-.38s.18-.37.38-.37c2.04.04,7.51.12,8.32,0,.94-.14,2.55-1.04,2.56-1.05.18-.1.41-.04.51.14.1.18.04.41-.14.51-.07.04-1.74.98-2.82,1.14-.36.05-1.45.07-2.73.07Z"
  />
  <path
    d="m133.04,287.25c-.15,0-.29-.09-.35-.23-.08-.19.01-.41.21-.49.36-.15,1.01-.44,1.76-.78,2.21-1,3.94-1.77,4.46-1.83.19-.02.5-.26.68-.65.14-.3.3-.91-.16-1.58-1-1.46-.09-4.35-.05-4.47.06-.2.27-.3.47-.24.2.06.31.27.24.47-.24.74-.7,2.86-.05,3.82.49.72.57,1.56.22,2.32-.28.6-.78,1.03-1.28,1.09-.45.05-2.82,1.12-4.24,1.77-.76.35-1.43.65-1.79.79-.05.02-.09.03-.14.03Z"
  />
  <path
    d="m181.54,254.4c-1.82,0-3.61-.38-4.75-1.02-1.18-.67-1.18-1.93-1.18-3.27,0-.33,0-.68-.02-1.04-.05-1.03-.39-1.22-.82-1.46-.22-.12-.48-.27-.67-.52-.35-.47-.27-1.2-.16-2.13.07-.62.15-1.32.09-1.97-.08-.77-.35-1.19-.64-1.63-.26-.39-.52-.8-.61-1.41-.18-1.27-.71-3.96-1.14-4.81-.5-.99-.51-5.59-.51-6.12,0-.21.17-.38.38-.38s.38.17.38.38c0,1.9.12,5.15.43,5.78.53,1.06,1.07,4.07,1.21,5.04.06.44.26.75.49,1.1.31.48.66,1.02.76,1.97.07.73-.01,1.47-.09,2.13-.08.67-.16,1.37.02,1.6.1.13.25.22.44.32.48.27,1.14.63,1.2,2.08.02.37.02.73.02,1.07,0,1.38.04,2.18.8,2.62,1.21.69,3.27,1.04,5.25.89.22-.02.39.14.4.35.01.21-.14.39-.35.4-.31.02-.62.03-.93.03Z"
  />
  <path
    d="m184.71,284.97s-.02,0-.03,0c-.08,0-1.93-.17-3.79-1.55-1.86-1.39-2.76-5.04-2.57-6.16.14-.83-.7-5.85-1.3-7.3-.61-1.47.19-4.62.36-5.24-.9-3.51-.77-11.33-.76-11.67,0-.21.18-.37.38-.37.21,0,.37.17.37.38,0,.08-.14,8.2.76,11.56.02.07.02.13,0,.2-.27.97-.88,3.72-.41,4.84.62,1.49,1.53,6.69,1.35,7.72-.14.8.61,4.19,2.28,5.43,1.68,1.25,3.39,1.41,3.4,1.41.21.02.36.2.34.4-.02.2-.18.34-.37.34Z"
  />
  <path
    d="m180.96,294.38c-.29,0-.34-.08-.41-.16-.13-.16-.1-.4.07-.53.1-.08.24-.1.36-.06.3,0,1.57-.26,2.7-.52l.24-.54c.03-.09,1-3.06,2.63-3.66,3.51-1.28,5.52-1.42,6.15-.44.11.17.06.41-.12.52-.18.11-.41.06-.52-.12-.29-.46-1.83-.51-5.26.74-1.07.39-1.95,2.46-2.19,3.22l-.33.74c-.05.11-.14.18-.25.21-1.85.44-2.67.58-3.06.58Z"
  />
  <path
    d="m193.88,313.54c-1.19,0-2.34-.56-2.41-.6-3.04-1.35-4.02-2.43-5.22-5.77-1.03-2.86-2.63-4.72-2.87-5-2.74-1.66-3.04-1.95-2.86-2.8.04-.21.1-.45-.04-.91-.42-1.44-.36-2.48-.31-3.31.01-.25.03-.48.03-.71,0-.89-.63-1.81-.64-1.82-.04-.05-.06-.12-.07-.18-.22-2.67-1.1-4.12-1.11-4.14-.02-.04-.04-.08-.05-.12-.56-2.61,1.29-3.82,2.06-4.21-.04-.48.24-.93.46-1.15.15-.15.38-.15.53,0,.15.15.15.38,0,.53,0,0-.36.38-.21.66.05.1.05.21.01.31-.04.1-.12.18-.23.21-.1.04-2.41.87-1.91,3.42.18.31.95,1.79,1.17,4.31.18.28.71,1.2.71,2.16,0,.24-.01.49-.03.75-.04.81-.1,1.74.28,3.06.18.64.1,1.02.05,1.27-.06.3-.09.43,2.56,2.04.03.02.06.04.08.06.08.08,1.9,2.04,3.06,5.29,1.14,3.17,1.95,4.07,4.83,5.34.04.02,2.32,1.13,3.37.08l.34-.34c.98-1.01,1.26-1.23,2.98-1.18.12-.04.28-.06.46,0,.4.11.77.51,1.1,1.2.26,0,.73-.06,1.16-.42.56-.45.88-1.25.96-2.38.22-3.31-3.7-8.65-4.41-8.92-.14-.03-.6-.12-.66-.51-.03-.2.07-.35.19-.47-1.11-2.31-2.39-4.75-2.71-5.01-.32-.15-.48-.66-.69-1.35-.2-.67-.51-1.67-.94-1.74-.33-.05-.59-.22-.78-.49-.49-.72-.19-1.99-.16-2.13.04-.17.19-.29.38-.29.11,0,1.2-.03,1.26-1.47.07-1.52-1.97-1.87-2.06-1.88-.17-.03-.3-.17-.31-.35,0-.18.11-.33.28-.38.59-.16,2.22-.75,2.61-1.52.37-.74.24-3.35.1-6.11-.05-.95-.1-1.94-.14-2.95-.15-4.08-1.16-11.7-1.17-11.78.37-3.42,0-11.23-.51-13.82-.4-2.02.06-3.05.34-3.66.08-.18.16-.34.17-.45-.01-.26-.82-1.13-1.72-1.85-.09-.08-.15-.19-.14-.32.12-1.84-.3-2.53-.64-3.08-.15-.25-.3-.49-.38-.79-.18-.67.17-1.24.51-1.79.21-.34.42-.69.5-1.05.09-.38-.33-1.06-.73-1.72-.45-.74-.96-1.58-1.11-2.44-.29-1.74-.11-4.14.08-6.04.09-.94,0-1.96-.08-2.94-.1-1.13-.18-2.11.01-2.83.2-.75-.12-4.9-.36-7.93-.14-1.83-.28-3.55-.31-4.48-.08-2.54-.41-5.37-.41-5.4-.02-.21.12-.39.33-.42.22-.03.39.12.42.33,0,.03.33,2.89.41,5.46.02.91.16,2.63.3,4.44.34,4.28.56,7.37.34,8.18-.16.59-.08,1.55.01,2.57.08.97.18,2.08.08,3.08-.18,1.86-.36,4.2-.08,5.85.12.72.59,1.49,1.01,2.17.53.86.98,1.6.82,2.28-.11.48-.37.9-.59,1.27-.28.46-.52.85-.42,1.21.05.2.16.37.3.6.36.59.85,1.4.76,3.33.79.65,1.92,1.71,1.85,2.4-.03.23-.12.44-.23.68-.27.6-.65,1.42-.29,3.2.54,2.7.91,10.52.52,13.96h0s1.03,7.64,1.18,11.76c.04,1,.09,1.99.14,2.94.16,3.11.29,5.57-.18,6.49-.36.71-1.26,1.21-2,1.53.82.39,1.63,1.12,1.57,2.3-.07,1.52-1.02,2.06-1.71,2.17-.07.42-.08.99.1,1.27.06.09.14.14.26.16.9.14,1.26,1.31,1.55,2.26.1.33.25.83.35.93.5.23,1.99,3.18,3.15,5.61.05.12.04.25-.02.35,1.32.68,5.05,6.22,4.82,9.64-.09,1.35-.51,2.33-1.24,2.92-.88.71-1.88.56-1.93.55-.13-.02-.23-.1-.29-.22-.43-.97-.73-1-.74-1h0c-.07.05-.1.04-.18.04-1.53-.06-1.62.04-2.5.95l-.34.35c-.5.5-1.16.67-1.81.67Z"
  />
  <path
    d="m183.79,282.77c-.65,0-1.08-.03-1.13-.04-.21-.02-.36-.2-.35-.4s.17-.38.4-.35c.03,0,3.46.25,5.69-.71,1.79-.77,3.78-6.13,4.4-8.14.06-.2.27-.31.47-.25.2.06.31.27.25.47-.24.77-2.39,7.55-4.82,8.6-1.58.69-3.65.81-4.91.81Z"
  />
  <path
    d="m193.87,314.96c-3.02,0-4.72-.47-6.68-2.3-2.04-1.9-1.4-4.47-1.07-5.4l-3.04-1.34c-.2-.12-3.55-2.32-4.12-4.65-.58-2.36.95-4.27,1.01-4.35.13-.16.37-.19.53-.05.16.13.18.37.05.53-.01.02-1.36,1.7-.87,3.69.5,2.04,3.71,4.15,3.74,4.17l3.32,1.45c.09.04.17.12.2.21.04.1.03.2-.01.29-.06.12-1.35,2.91.76,4.89,2.29,2.13,4.15,2.24,8.87,2.01,3.06-.15,4.95-.74,5.6-1.75.36-.55.36-1.24.02-2.12-.08-.19.02-.41.21-.49.19-.07.41.02.49.21.43,1.11.4,2.05-.09,2.81-.8,1.24-2.83,1.93-6.19,2.09-1.03.05-1.93.08-2.74.08Z"
  />
  <path
    d="m185.83,305.62s-.09,0-.13-.02c-.19-.07-.29-.29-.22-.48.31-.84,1.72-1.49,3.08-2.11.65-.3,1.54-.71,1.66-.9.02-.3-.37-1.05-.7-1.57h-1.99c-.17,0-.31-.11-.36-.27s.01-.33.15-.42l1.34-.89-.88-1.35-1.75.64c-.16.06-.34,0-.44-.14s-.08-.33.03-.46l1.15-1.28c-.84-1.31-2.99-2.59-3.01-2.6-.18-.11-.24-.33-.13-.51.1-.18.33-.24.51-.13.11.06,2.61,1.55,3.42,3.12.07.14.05.31-.05.42l-.33.37.63-.23c.16-.06.35,0,.44.15l1.25,1.92c.11.17.06.4-.11.52l-.61.41h.94c.12,0,.24.06.31.16.17.24,1,1.48.92,2.29-.05.51-.71.83-2.07,1.46-1.05.48-2.48,1.14-2.69,1.69-.06.15-.2.24-.35.24Z"
  />
  <path
    d="m196.05,302.25s-.07,0-.1-.01c-.11-.03-.2-.11-.24-.21l-.62-1.4c-.07-.16-.02-.34.11-.45l.14-.11-.63-.3c-.07-.03-.13-.09-.16-.15l-1.01-1.78c-.1-.17-.05-.38.11-.5l.5-.35-.63-.34c-.08-.04-.15-.12-.18-.21-.21-.6-.88-2.58-.88-3.01s.63-1.67.9-2.18c.1-.19.33-.25.51-.15.18.1.25.33.15.51-.38.71-.8,1.62-.81,1.83,0,.22.41,1.51.79,2.63l1.05.57c.12.06.19.18.2.31,0,.13-.05.25-.16.33l-.73.5.78,1.37,1.07.51c.12.06.2.17.21.3.01.13-.04.26-.14.34l-.39.3.34.77c.55-.24,1.68-.54,3.31-.12.2.05.32.26.27.46-.05.2-.26.32-.46.27-2-.52-3.04.18-3.09.21-.06.04-.14.07-.22.07Z"
  />
  <path
    d="m141.65,267.75s-.03,0-.04,0c-1.72-.19-3.84-.54-4.18-1.12-.08-.14-.09-.3-.03-.45.25-.62,2.4-1.33,4.16-1.82.2-.06.41.06.46.26.06.2-.06.41-.26.46-1.38.38-2.95.94-3.5,1.27.55.22,2.1.51,3.44.66.21.02.35.21.33.42-.02.19-.18.33-.37.33Z"
  />
  <path
    d="m128.32,294.36c-.19,0-.36-.15-.37-.34-.1-1.23-.22-4.13.78-4.62.19-.09.41-.01.5.17.09.19.02.41-.17.5-.34.17-.52,2.02-.37,3.89.02.21-.14.39-.34.4-.01,0-.02,0-.03,0Z"
  />
  <path
    d="m131.25,294.83c-.12,0-.23-.06-.3-.16-.07-.1-.39-.68-.05-2.1.51-2.13.26-2.44.23-2.47-.18-.03-.38-.16-.38-.37,0-.21.16-.38.37-.38.22.03.46.1.6.28.36.45.33,1.35-.09,3.11-.26,1.1-.05,1.51-.04,1.52.1.18.04.4-.13.51-.06.04-.13.06-.2.06Z"
  />
  <path
    d="m130.48,287.77c-1.24,0-2.17-.12-2.47-.39-.18-.16-.28-.37-.28-.62-.02-.91,1.28-2.19,1.54-2.44.15-.14.39-.14.53.01.14.15.14.39-.01.53-.55.52-1.32,1.45-1.31,1.88.76.56,8.26.18,11.01-1.53.18-.11.41-.06.52.12.11.18.05.41-.12.52-1.99,1.23-6.52,1.91-9.4,1.91Z"
  />
  <path
    d="m140.5,294.36c-3.81,0-6.89-3.11-7.02-3.25-.14-.15-.14-.39,0-.53s.39-.14.53,0c.03.03,3.15,3.17,6.75,3.01.19-.02.38.15.39.36,0,.21-.15.38-.36.39-.1,0-.2,0-.3,0Z"
  />
  <path
    d="m140.64,293.1s-.06,0-.08,0l-1.33-.31c-1.12-.26-2.42-1.13-2.91-1.48-.09-.05-.17-.11-.24-.18-.14-.14-.15-.36-.02-.51s.36-.17.51-.05c0,0,.06.05.17.12.69.33,2.67-.29,3.9-.87.19-.09.41,0,.5.18s0,.41-.18.5c-.39.18-1.75.79-2.98.97.46.25.97.49,1.43.59l1.13.26,1.24-1.16c.15-.14.39-.13.53.02.14.15.13.39-.02.53l-1.39,1.29c-.07.07-.16.1-.26.1Z"
  />
  <path
    d="m132.5,307.42c-.11,0-.21-.05-.29-.13-.61-.73-4.04-2.67-5.31-3.36-.11-.06-.18-.16-.19-.28-.02-.12.03-.24.12-.32l1.8-1.65c.07-.06.16-.1.25-.1h.83l-.3-.3c-.11-.11-.14-.26-.08-.4.01-.03.33-.83,1.06-1.8.26-.35.56-.45.86-.42-.07-.08-.11-.17-.12-.27-.05-.53,1.04-1.66,3.26-3.39.16-.13.4-.1.53.07.13.16.1.4-.07.53-1.21.94-2.54,2.13-2.89,2.62h.03c.92.46,1.58.81,1.6,1.32,0,.13-.03.38-.34.56-.49.29-.99-.06-1.4-.34-.62-.43-.72-.41-.86-.23-.45.6-.73,1.12-.86,1.41l.76.76c.11.11.14.27.08.41-.06.14-.19.23-.35.23h-1.59l-1.3,1.19c1.24.68,4.38,2.46,5.07,3.28.13.16.11.4-.05.53-.07.06-.16.09-.24.09Z"
  />
  <path
    d="m121.86,303.83c-.08,0-.16-.02-.23-.08-.45-.34-1.51-.55-1.88-.6-.21-.03-.35-.22-.32-.42.03-.21.22-.36.42-.32.14.02,1.21.18,1.94.56l1.02-1.13-1.12-.98c-.13-.12-.17-.31-.08-.47.09-.16.27-.23.44-.17l1.57.52c.57-.6,1.17-1.28,1.42-1.65-.27-.04-.74-.04-1.18-.02-.21.02-.39-.14-.4-.35-.01-.21.14-.38.35-.4,1.92-.13,2.03.31,2.08.49.05.18.13.52-1.89,2.61-.1.1-.25.14-.39.09h-.03s0,0,0,0c.08.07.12.16.13.26,0,.1-.03.2-.1.27l-1.48,1.65c-.07.08-.18.12-.28.12Z"
  />
  <path
    d="m122.67,316.72h0c-1.43-.01-2.5-1.31-3.02-1.94l-.13-.16c-.1-.12-.21-.28-.32-.44-.33-.51-.71-1.09-1.64-1.29-.69-.15-.74.02-.87.51-.05.19-.1.39-.21.57-.41.7-1.35.78-1.39.78-.2.03-.38-.14-.4-.34-.02-.21.14-.39.34-.4.16-.01.62-.12.8-.42.06-.09.09-.24.13-.38.13-.47.36-1.35,1.75-1.05,1.23.27,1.76,1.08,2.11,1.61.09.14.17.26.26.37l.14.17c.44.54,1.36,1.65,2.44,1.66.21,0,.37.17.37.38,0,.21-.17.37-.38.37Z"
  />
  <path
    d="m120.85,315.9c-.19,0-.35-.14-.37-.33-.03-.21.12-.39.32-.42.04,0,3.67-.48,5.57-1.09,1.84-.59,4.6-4.04,6.52-7.2,1.26-2.07,3.29-3.08,5.09-3.97,1.07-.53,1.99-.99,2.54-1.57,1.4-1.47.77-4.04.77-4.07-.05-.2.07-.4.27-.46.2-.05.4.07.46.27.03.12.74,3-.95,4.77-.65.68-1.67,1.19-2.75,1.72-1.71.85-3.64,1.81-4.78,3.69-1.85,3.04-4.77,6.83-6.93,7.52-1.96.63-5.54,1.1-5.7,1.12-.02,0-.03,0-.05,0Z"
  />
  <path
    d="m138.09,303.63c-.11,0-.23-.05-.3-.15-.48-.64-2.6-2.34-3.38-2.94-.15-.11-.19-.31-.1-.47.07-.13.67-1.25,1.18-1.67.47-.38,1.22.15,2.75,1.29.43.32,1,.74,1.31.92.12-.73,0-3-.22-4.94-.02-.21.12-.39.33-.41.21-.02.39.13.41.33.26,2.33.47,5.21-.02,5.71-.1.11-.24.16-.39.15-.34-.03-.81-.36-1.88-1.16-.59-.44-1.55-1.16-1.89-1.25-.23.23-.55.71-.77,1.1.72.56,2.74,2.17,3.27,2.88.12.17.09.4-.08.52-.07.05-.15.07-.22.07Z"
  />
  <path
    d="m135.24,305.26c-.15,0-.3-.1-.35-.25-.14-.25-1.59-1.48-2.85-2.46-.16-.13-.19-.36-.07-.52.25-.33,1.1-1.37,1.81-1.34.59.05,2.35,1.58,3.35,2.48.15.14.17.38.03.53-.14.15-.38.17-.53.03-1.15-1.04-2.59-2.22-2.92-2.29-.13.02-.54.34-.91.75,1.26.99,2.65,2.16,2.8,2.57.07.2-.03.41-.23.48-.04.01-.08.02-.12.02Z"
  />
  <path
    d="m133.21,307.42c-.12,0-.25-.06-.32-.18-.72-1.15-2.56-2.01-2.58-2.02-.15-.07-.23-.22-.21-.38.02-.18.23-1.77,1.25-1.77.8,0,2.35,1.4,2.81,1.83.15.14.16.38.02.53-.14.15-.38.16-.53.02-.83-.79-1.95-1.63-2.29-1.63-.19,0-.38.44-.47.85.58.3,1.97,1.11,2.64,2.17.11.18.06.41-.12.52-.06.04-.13.06-.2.06Z"
  />
  <path
    d="m181.12,157.35c-.16,0-.32-.11-.36-.27-1.43-5.14-5.85-29.38-5.9-29.62-.04-.2.1-.4.3-.44.21-.03.4.1.44.3.04.24,4.46,24.45,5.88,29.56.06.2-.06.41-.26.46-.03,0-.07.01-.1.01Z"
  />
  <path
    d="m183.68,135.75c-.14,0-.28-.08-.34-.22-2.44-5.39-3.71-9.72-3.72-9.76-.06-.2.06-.41.26-.46.19-.06.41.06.46.26.01.04,1.27,4.32,3.68,9.66.08.19,0,.41-.19.5-.05.02-.1.03-.15.03Z"
  />
  <path
    d="m156.15,133.97c-.07-.2-.28-.32-.48-.26-.2.07-.31.26-.24.46.11,1.23-5.3,16.23-6.71,18.77-.55-1.67-1.53-8.1-2.14-12.1-.31-2.01-.58-3.81-.79-5.01-.45-2.6-2.04-7.9-3.34-12-.02.2-.03.4-.06.6-.05.29-.14.58-.27.85,1.21,3.87,2.54,8.41,2.94,10.69.21,1.19.48,2.99.78,4.99,1.71,11.23,2.12,12.86,2.74,13,.03,0,.06,0,.09,0,.11,0,.25-.04.39-.2,1.22-1.34,7.45-18.74,7.09-19.8Z"
  />
  <path
    d="m156.27,178.9c-.08,0-.16-.03-.23-.08-.16-.13-.19-.36-.07-.53.02-.03,2.22-2.88,3.95-7.56,1.74-4.7,3.81-32.54,3.83-32.83.02-.21.2-.37.4-.35.21.02.36.2.35.4-.08,1.15-2.11,28.23-3.88,33.03-1.77,4.8-3.97,7.65-4.06,7.77-.07.09-.18.14-.3.14Z"
  />
  <path
    d="m143.86,199.69c-1.3,0-2.52,0-3.6-.03-7.63-.16-8.83-.99-9.53-1.98-.73-1.03.07-2.52.54-3.41l.06-.11c.13-.25.22-1.12.31-1.96.15-1.5.34-3.36.93-4.69.89-2.03,2.3-12.31,2.72-15.75.35-2.84,1.72-19.72,1.74-19.89.02-.21.2-.37.4-.34.21.02.36.2.34.4-.01.17-1.39,17.06-1.74,19.92-.02.13-1.68,13.45-2.78,15.96-.54,1.22-.72,3.02-.87,4.46-.12,1.19-.2,1.88-.39,2.24l-.06.11c-.37.69-1.05,1.97-.59,2.63.54.76,1.67,1.51,8.93,1.66,7.63.16,20.9-.28,23.81-.68,1.22-.16,2.31-.38,3.37-.58,1.56-.3,3.04-.59,4.53-.62,2.41-.06,5.76-.26,5.79-.26.23-.03.38.15.4.35.01.21-.14.38-.35.4-.03,0-3.4.2-5.82.26-1.44.03-2.81.3-4.41.61-1.07.21-2.17.42-3.41.59-2.77.38-12.9.72-20.33.72Z"
  />
  <path
    d="m177.49,194.25c-.18,0-.33,0-.45-.01-.21-.02-.36-.2-.34-.4.02-.21.21-.37.4-.34.69.06,2.83-.1,2.86-.11.22-.02.39.14.4.35.02.21-.14.39-.35.4-.08,0-1.59.12-2.52.12Z"
  />
  <path
    d="m143.25,196.25c-.58,0-1.03,0-1.34-.02-.43-.02-.91-.04-1.42-.06-2.84-.11-6.72-.26-9.01-1.5-.18-.1-.25-.33-.15-.51.1-.18.33-.25.51-.15,2.13,1.15,5.91,1.3,8.68,1.41.51.02.99.04,1.43.06,2.89.15,18.94-.48,22.67-.79,3.64-.29,4.06-.4,5.18-.68l.13-.03c1.27-.32,4.01-.46,4.13-.47.2,0,.38.15.39.36,0,.21-.15.38-.36.39-.03,0-2.79.14-3.98.45l-.13.03c-1.16.3-1.6.41-5.31.71-3.34.28-16.59.81-21.43.81Z"
  />
  <path
    d="m143.75,193.56c-.18,0-.34-.13-.37-.32-.03-.2.11-.4.32-.43,3.53-.52,8.51-1.86,8.54-3.19.03-1.21-7.3-4.19-14.11-6.26-.2-.06-.31-.27-.25-.47.06-.2.27-.31.47-.25,3.45,1.05,14.7,4.65,14.64,7-.06,2.44-7.66,3.69-9.18,3.91-.02,0-.04,0-.06,0Z"
  />
  <path
    d="m177.79,188.13s-.01,0-.02,0c-2.07-.11-3.5-1.89-3.55-1.96l-.06-.08v-.1c-.57-3.96,10.54-5.76,11.81-5.95.21-.03.4.11.43.31.03.21-.11.4-.31.43-3.2.49-11.37,2.32-11.21,5,.28.32,1.44,1.52,2.94,1.6.21.01.37.19.35.39-.01.2-.18.35-.37.35Z"
  />
  <path
    d="m131.33,243s-.29-2.58-.38-3.61c-.04-.5-.47-1.66-.89-2.77-.37-.98-.75-1.98-.9-2.65-.36-1.59.3-4.2.79-5.46.32-.83.08-2.28-.14-3.57-.13-.75-.25-1.46-.27-2.08-.07-1.76.32-8.63.55-11.39.23-2.7.93-9.12,1.21-10.45.19-.91-.51-2.34-.8-2.81-.11-.18-.05-.41.13-.51.18-.11.41-.05.52.13.05.08,1.18,1.96.89,3.35-.24,1.18-.95,7.44-1.19,10.36-.23,2.75-.62,9.57-.55,11.3.02.57.14,1.25.26,1.98.25,1.45.5,2.95.1,3.97-.59,1.51-1.04,3.8-.76,5.02.14.62.51,1.6.87,2.55.46,1.22.89,2.37.94,2.98.08,1.02.38,3.58.38,3.58l-.75.09Z"
  />
  <path
    d="m144,236.76c-.2,0-.36-.15-.37-.35-.01-.21.15-.38.35-.4.01,0,1.47-.09,3.44-.61.28-.08.49-.24.65-.51.56-.97.21-2.96.03-3.65l-.05-.18.11-.15c1.08-1.44.86-1.93.69-2.29-.11-.24-.29-.63.12-1.04.37-.38.8-2.58.99-4.02l.02-.16.13-.09c1.37-.97,1.57-2.06,1.79-3.33.13-.73.26-1.49.64-2.24.96-1.91,2.81-7.26,2.83-7.31l.05-.14.13-.07c.29-.15.37-.91.35-1.29v-.26s.22-.1.22-.1c1.34-.59,1.54-1.63,1.72-2.54.03-.18.07-.34.1-.49.29-1.17,2.04-1.34,2.24-1.35.69-.1,2.21.1,2.85,1.61.67,1.56,2.96,7.69,3.7,10.38.65,2.39,1.32,3.91,2.1,4.77.47.52.81,2.65,1.29,6.08.22,1.56.5,3.51.66,3.79.46.37,1.01,1.17,1.04,1.2.12.17.07.4-.1.52-.17.12-.4.07-.52-.1,0,0-.52-.75-.94-1.1-.27-.22-.4-.85-.88-4.21-.28-1.98-.75-5.29-1.11-5.69-.87-.96-1.59-2.57-2.27-5.08-.67-2.47-2.93-8.57-3.66-10.29-.59-1.36-2.07-1.17-2.08-1.16-.39.03-1.46.24-1.6.79-.03.14-.06.29-.09.45-.17.89-.42,2.22-1.93,2.98-.01.43-.1,1.27-.62,1.66-.29.84-1.91,5.47-2.82,7.28-.33.65-.45,1.32-.57,2.03-.23,1.28-.46,2.6-1.96,3.72-.12.88-.54,3.64-1.18,4.29-.03.06,0,.14.03.2.27.59.46,1.35-.67,2.91.15.64.57,2.8-.15,4.04-.26.44-.63.73-1.11.86-2.05.54-3.53.63-3.59.63,0,0-.01,0-.02,0Z"
  />
  <path
    d="m128.32,282.23c-.18,0-.34-.13-.37-.32,0-.03-.43-2.86-.66-5.42-.24-2.58-1.18-14.43-1.18-16.86v-.85c-.01-2.51-.02-5.64.5-6.89.34-.82.57-2.35.78-3.82.12-.81.24-1.61.37-2.29.25-1.24.03-1.64-.24-2.16-.13-.24-.27-.51-.38-.88-.22-.75.43-1.6,1.06-2.42.41-.54.93-1.21.87-1.54-.19-1.1.64-2.96.73-3.17.09-.19.31-.27.5-.18.19.09.27.31.19.5-.23.51-.81,1.99-.68,2.73.11.65-.44,1.37-1.02,2.12-.46.61-1.04,1.36-.93,1.75.08.29.2.51.32.73.3.57.61,1.16.31,2.65-.13.67-.25,1.46-.37,2.26-.22,1.52-.45,3.09-.83,4-.46,1.11-.45,4.28-.44,6.6v.85c0,2.4.94,14.21,1.18,16.79.23,2.53.65,5.35.66,5.37.03.21-.11.4-.31.43-.02,0-.04,0-.06,0Z"
  />
  <path
    d="m128.31,290.06s-.1,0-.15-.03c-1.87-.79-2.06-2.74-2.06-2.82-.96-3.33,6.52-11.5,7.38-12.42.14-.15.38-.16.53-.02.15.14.16.38.02.53-2.25,2.42-7.91,9.24-7.19,11.78.02.13.18,1.65,1.62,2.26.19.08.28.3.2.49-.06.14-.2.23-.35.23Z"
  />
  <path
    d="m186.91,142.18c-.17,0-.33-.12-.37-.29-.05-.2.08-.4.28-.45.48-.11,2.63-.73,3.63-1.08.49-.17,2.16-.93,3.78-1.67,1.67-.76,3.39-1.54,4.19-1.86,1.54-.6,6.58-3.87,6.63-3.9.17-.11.4-.06.52.11.11.17.06.41-.11.52-.21.14-5.15,3.34-6.77,3.97-.78.3-2.5,1.08-4.15,1.84-1.71.78-3.32,1.51-3.84,1.69-1.04.36-3.2.99-3.71,1.1-.03,0-.06,0-.08,0Z"
  />
  <path
    d="m185.53,119.68s-.07,0-.1-.01c-.2-.06-.32-.26-.26-.46.08-.28.33-.71.77-1.45.45-.76,1.01-1.7,1.31-2.47,1.18-3.02,3.66-6.27,4.47-7.33.83-1.08,1.63-3.25,1.64-3.28.07-.19.29-.29.48-.22.19.07.29.29.22.48-.03.09-.85,2.3-1.75,3.47-.8,1.05-3.23,4.23-4.37,7.15-.32.82-.9,1.79-1.37,2.58-.31.53-.64,1.07-.69,1.27-.05.17-.2.27-.36.27Z"
  />
  <path
    d="m186.81,141.87c-.18,0-.34-.13-.37-.31,0-.03-.48-2.64-.79-3.96-.32-1.34-1.03-5.97-.95-7.72.05-.97.15-2.07.26-3.12.08-.83.16-1.64.21-2.4.06-.88-.02-2.79-.1-4.64-.07-1.73-.15-3.52-.11-4.47.08-1.95,1.02-7.78,1.06-8.03.03-.2.23-.34.43-.31.21.03.34.23.31.43,0,.06-.97,6.03-1.05,7.94-.04.92.03,2.7.1,4.41.08,1.96.16,3.8.09,4.72-.05.76-.13,1.59-.21,2.42-.1,1.05-.21,2.13-.25,3.09-.08,1.69.62,6.2.93,7.51.32,1.33.8,3.97.8,3.99.04.2-.1.4-.3.44-.02,0-.05,0-.07,0Z"
  />
  <path
    d="m185.53,125.38c-.07,0-.14-.02-.2-.06-.17-.11-.22-.35-.11-.52.77-1.18,2.61-12.63,3.66-20.04.03-.2.21-.35.42-.32.21.03.35.22.32.42-.27,1.9-2.66,18.65-3.77,20.35-.07.11-.19.17-.31.17Z"
  />
  <path
    d="m195.55,121c-.19,0-.35-.14-.37-.33,0-.03-.43-3.52-1.09-7.5-.65-3.89-1.79-5.67-1.8-5.69-.11-.17-.07-.41.11-.52.17-.11.41-.06.52.11.05.08,1.24,1.91,1.92,5.98.66,3.99,1.09,7.49,1.09,7.53.03.21-.12.39-.33.42-.01,0-.03,0-.04,0Z"
  />
  <path
    d="m184.66,153.3c-.17,0-.33-.12-.37-.3-.08-.34,0-1.39.13-3.37.15-2.12.33-4.75.26-6.49-.12-3.1,0-10.64,0-10.72,0-.21.17-.37.38-.37h0c.21,0,.37.17.37.38,0,.08-.12,7.6,0,10.68.07,1.78-.12,4.43-.26,6.57-.1,1.43-.2,2.9-.15,3.16.04.2-.08.4-.29.45-.03,0-.05,0-.08,0Z"
  />
  <path
    d="m184.86,170.82c-.21,0-.37-.17-.38-.37,0-.14-.04-3.36,0-4.25.04-.92-.04-3.23-.22-4.42-.18-1.22-.15-2.82,0-3.39.06-.23.03-1.52,0-2.37-.02-.68-.04-1.33-.02-1.67.04-.89,1.95-10.65,2.17-11.75.04-.2.23-.34.44-.3.2.04.34.24.3.44-.59,3-2.13,10.94-2.16,11.64-.01.34,0,.96.02,1.63.04,1.4.05,2.27-.03,2.58-.1.38-.18,1.83,0,3.08.2,1.33.26,3.71.23,4.56-.04.87,0,4.18,0,4.21,0,.21-.16.38-.37.38h0Z"
  />
  <path
    d="m187.53,179.51c-.17,0-.33-.12-.37-.29,0-.02-.47-2.12-1.28-3.89-.84-1.83-4-14.34-4.14-14.88-.05-.2.07-.4.27-.46.2-.05.4.07.46.27.03.13,3.28,12.98,4.09,14.75.84,1.84,1.31,3.95,1.33,4.04.04.2-.08.4-.29.45-.03,0-.05,0-.08,0Z"
  />
  <path
    d="m174.5,204.43c-.2,0-.33-.08-.41-.15-.4-.35-.24-1.17.26-2.86.06-.21.11-.38.13-.48.08-.33.43-.75,1-1.4.31-.35.63-.72.75-.94.18-.34.66-.92,1.26-1.66.51-.63,1.1-1.35,1.63-2.08.94-1.27,1.5-4.48,1.44-5.48-.38.39-1.06,1.46-1.3,2.17-.35,1.04-2.29,3.02-2.92,3.43-.48.31-1.24.22-1.75.05-.33-.11-.75-.31-.88-.66-.12-.33.11-.85.81-2.26.33-.67.83-1.69.83-1.93,0-.75,1.42-2.04,2.1-2.63.17-.39.89-2,1.85-3.1.69-.79,2.65-1.85,4.54-2.87,1.13-.61,2.2-1.19,2.83-1.62,1.38-.95,2.31-4.88,2.5-7.23.14-1.76-.19-7.74-.58-12.88-.23-3.04-.09-5.01,0-6.18.04-.56.08-1.04.02-1.18-.21-.56-.24-2.58-.24-4.67,0-1.11-.36-3.27-.36-3.29-.03-.2.1-.4.31-.43.21-.03.4.11.43.31.01.09.37,2.24.37,3.41,0,2.58.06,4.07.19,4.41.11.29.08.72.02,1.5-.08,1.15-.22,3.09,0,6.07.36,4.79.73,11.07.58,13-.13,1.61-.93,6.49-2.82,7.79-.66.46-1.75,1.04-2.9,1.67-1.75.95-3.73,2.02-4.33,2.7-.99,1.14-1.75,2.96-1.76,2.98l-.1.14c-1,.84-1.89,1.83-1.9,2.11,0,.4-.35,1.12-.91,2.27-.3.61-.75,1.52-.76,1.74.11.12,1.14.41,1.51.17.51-.33,2.33-2.21,2.61-3.04.22-.66,1.27-2.66,2.04-2.81.2-.04.39.03.52.18.56.65-.23,5.05-1.39,6.63-.54.74-1.14,1.47-1.65,2.11-.56.68-1.03,1.28-1.19,1.55-.16.29-.49.67-.85,1.07-.29.34-.79.9-.83,1.07-.02.11-.08.29-.15.53-.12.41-.47,1.57-.46,2.01.25-.11.93-.59,2.62-2.55.48-.51.98-.92,1.43-1.28.31-.25.6-.49.84-.72.17-.17.35-.43.58-.76.5-.72,1.18-1.7,2.46-2.85.15-.14.39-.12.53.03.14.15.12.39-.03.53-1.21,1.08-1.86,2.03-2.34,2.71-.25.37-.45.65-.67.87-.25.25-.56.5-.9.78-.43.35-.91.74-1.34,1.2-2.1,2.44-2.81,2.8-3.23,2.83-.02,0-.04,0-.05,0Zm3.28-16.67h0,0Z"
  />
  <path
    d="m177.27,208.61c-.1,0-.19-.02-.28-.07-.76-.38-1.1-2.61-.81-3.48.17-.52.74-1.31,1.34-2.15.37-.52.76-1.06,1.04-1.52.71-1.17,2.23-4.04,2.25-4.07.1-.19.33-.26.51-.16.18.1.25.32.16.51-.06.12-1.54,2.92-2.27,4.11-.3.49-.69,1.04-1.07,1.57-.54.76-1.1,1.54-1.24,1.95-.23.69.16,2.39.44,2.57-.04-.03.36-.19,1.31-2.18.41-.86,1.72-2.39,2.67-3.47.55-.62,1.33-1.86,2.03-2.96l.44-.7c.85-1.32,2.38-2.92,2.45-2.98.14-.15.38-.16.53,0,.15.14.15.38,0,.53-.01.02-1.55,1.61-2.35,2.87l-.44.69c-.74,1.17-1.51,2.39-2.1,3.05-.53.6-2.14,2.43-2.55,3.3-.98,2.04-1.49,2.44-1.82,2.55-.08.03-.15.04-.23.04Z"
  />
  <path
    d="m180.65,208c-.24,0-.47-.18-.68-.53-.31-.52-.55-1.39-.17-2.11.15-.29.37-.59.63-.95.62-.84,1.46-2,2.11-3.9.07-.2.28-.3.48-.23.2.07.3.28.23.48-.68,2.01-1.57,3.22-2.21,4.1-.24.33-.45.62-.58.85-.27.52.02,1.21.21,1.47.23-.18.66-.59.97-.87.5-.47.96-.91,1.25-1.09.4-.26.93-1.48,1.36-2.46l.22-.5c.33-.75.8-1.5,1.22-2.16.32-.51.62-.98.77-1.33.37-.85,1.68-3.03,1.74-3.12.11-.18.34-.23.51-.13.18.11.23.34.13.51-.01.02-1.34,2.23-1.69,3.04-.17.4-.47.88-.82,1.43-.4.64-.86,1.37-1.17,2.06l-.22.5c-.56,1.3-1.05,2.42-1.64,2.8-.23.15-.71.6-1.14,1-.99.93-1.25,1.15-1.51,1.15Z"
  />
  <path
    d="m186.96,198.99s-.08,0-.12-.02c-1.61-.56-2.03-1.3-2.07-1.38-.09-.18-.02-.41.16-.5.18-.09.4-.02.5.16.01.02.35.57,1.65,1.02.2.07.3.28.23.48-.05.15-.2.25-.35.25Z"
  />
  <path
    d="m186.96,204.92s-.02,0-.03,0c-.22-.02-.43-.15-.62-.39-.42-.54-.75-1.7-.65-2.33.11-.68.45-2.3.46-2.37.04-.2.24-.33.44-.29.2.04.33.24.29.44,0,.02-.35,1.67-.46,2.33-.08.52.28,1.52.52,1.8.51-.72,1.69-4.22,1.87-5.07.04-.18.1-.5.17-.9.42-2.31.69-3.62.93-3.98.29-.49,2.13-6.75,2.71-8.92l.06-.13s2.21-2.89,2.65-4.47c.22-.79.21-1.19.19-1.74-.02-.56-.04-1.25.17-2.54.17-1.03.61-2.88,1.12-5.01.75-3.15,1.68-7.06,2.06-9.74.64-4.63.34-12.43,0-15.14-.36-2.92-.81-6.11-.81-6.11-.03-.21.11-.39.32-.42.21-.03.39.12.42.32,0,0,.45,3.19.81,6.12.34,2.74.65,10.64,0,15.33-.38,2.72-1.32,6.65-2.07,9.81-.51,2.12-.94,3.96-1.11,4.96-.2,1.22-.17,1.85-.16,2.4.02.57.04,1.07-.22,1.97-.45,1.6-2.4,4.22-2.73,4.66-.41,1.51-2.41,8.5-2.79,9.07-.2.32-.63,2.68-.82,3.7-.07.41-.13.74-.17.92-.01.06-1.5,5.73-2.57,5.73Zm.06-.75h0,0Z"
  />
  <path
    d="m129.55,137.72c-.15,0-.29-.09-.35-.23-.08-.19.01-.41.21-.49.24-.1,2.36-.95,3.37-.69.2.05.32.25.27.46-.05.2-.26.32-.46.27-.59-.15-2.09.32-2.9.65-.05.02-.09.03-.14.03Z"
  />
  <path
    d="m136.83,137.72c-.1,0-.2-.04-.27-.12-.38-.4-.85-.39-.88-.39-.21.01-.38-.15-.39-.36,0-.21.15-.38.35-.39.03-.01.83-.04,1.46.62.14.15.14.39-.01.53-.07.07-.17.1-.26.1Z"
  />
  <path
    d="m129.34,135.48c-.16,0-.3-.1-.35-.25-.07-.2.04-.41.23-.48.1-.03,2.39-.81,3.55-.64.2.03.35.22.31.43s-.22.35-.43.31c-.82-.14-2.58.4-3.2.61-.04.01-.08.02-.12.02Z"
  />
  <path
    d="m137.4,135.33c-.08,0-.16-.03-.23-.08-.42-.32-1.23-.39-1.51-.39-.21,0-.37-.17-.37-.38,0-.21.17-.38.38-.38.13,0,1.28.02,1.97.55.16.13.19.36.07.53-.07.1-.19.15-.3.15Z"
  />
  <path
    d="m134.3,153.31c-.73,0-1.39-.1-1.75-.25-.62-.25-1.39,0-1.4,0l-.12.04-.12-.04c-2.89-.87-3.73-1.84-4.54-2.77l-.17-.2c-.96-1.09-.68-3.41-.67-3.5.03-.21.21-.35.42-.33.21.03.35.21.33.42-.07.58-.12,2.22.49,2.91l.18.21c.76.88,1.48,1.71,4.08,2.51.3-.08,1.09-.25,1.81.05.67.27,2.89.3,3.78-.32,1-.69,2.94-3.06,3.26-4.46.21-.92-.28-2.01-.67-2.89-.22-.5-.4-.9-.43-1.22-.02-.22-.07-.55-.12-.92-.18-1.24-.31-2.22-.22-2.66.04-.2.24-.34.44-.29.2.04.33.24.29.44-.07.35.12,1.63.23,2.41.06.38.1.72.13.95.02.21.19.59.37,1,.41.93.98,2.2.71,3.36-.39,1.71-2.54,4.21-3.56,4.92-.67.46-1.77.64-2.74.64Z"
  />
  <path
    d="m140.79,131.9l-.09-1.11c-.05-.58-.09-1.07-.13-1.49-.13.52-.33,1.02-.62,1.47,0,.03,0,.05,0,.08l.09,1.11c.12,1.36.15,1.72.08,2.29-.07.61-.25,2.25-.85,2.83-.15.14-.15.38,0,.53.07.08.17.11.27.11s.19-.04.26-.11c.7-.68.94-2.04,1.08-3.28.07-.64.04-1.05-.08-2.43Z"
  />
  <path
    d="m141.12,102.85c-.75-.41-1.44-.62-2.07-.73.14.23.19.52.13.79.49.11,1.01.28,1.58.59,3.05,1.66,3.94,5.97,3.95,6.01.04.18.19.3.37.3.02,0,.05,0,.07,0,.2-.04.33-.24.29-.44-.04-.19-.97-4.7-4.33-6.52Z"
  />
  <path
    d="m156.46,120.78s-.08,0-.12-.02c-.2-.07-.3-.28-.24-.47.09-.27,2.17-6.56,3.81-9.61,1.66-3.09,4.56-5.47,4.68-5.57.16-.13.4-.11.53.05.13.16.11.4-.05.53-.03.02-2.9,2.39-4.49,5.34-1.61,2.99-3.74,9.42-3.76,9.49-.05.16-.2.26-.36.26Z"
  />
  <path
    d="m187.53,144.94l-.09-.27s-.39-1.15-.86-2.75c-.44-1.49-1.7-2.81-1.71-2.82-.14-.15-.14-.39,0-.53.15-.14.39-.14.53,0,.06.06,1.4,1.46,1.89,3.13.33,1.12.62,2.01.76,2.44,3.53-.53,16.38-7.22,17.96-8.09-.11-.62-1.14-2.76-1.6-3.71-.23-.48-.42-.88-.52-1.11-.45-1.03-2.97-7.87-3.88-10.72-.82-2.56-2.05-5.4-3.23-8.15l-1.17-2.72c-.99-2.29-1.64-3.8-2.04-4.42-.25-.39-.49-.53-.81-.72-.24-.14-.51-.3-.81-.58-.31-.29-.48-.6-.67-.93-.27-.48-.55-.98-1.3-1.55-.59-.45-2.65-1.45-9.12-3.62-1.74-.58-6.17-2.29-6.21-2.31-.19-.07-.29-.29-.21-.48.08-.19.29-.29.48-.21.04.02,4.46,1.72,6.18,2.3,5.27,1.77,8.41,3.03,9.34,3.74.86.67,1.21,1.28,1.49,1.77.17.31.31.55.53.75.24.22.46.36.68.48.35.21.71.42,1.06.96.43.68,1.1,2.21,2.1,4.53l1.17,2.72c1.19,2.77,2.43,5.62,3.26,8.22.96,2.99,3.46,9.74,3.85,10.65.1.23.29.61.51,1.08,1.8,3.74,1.93,4.31,1.46,4.6-.13.08-15.17,8.11-18.74,8.31l-.28.02Z"
  />
  <path
    d="m191.68,142.64s-.02,0-.02,0c-.21-.01-.36-.19-.35-.4.12-1.8,0-19.44,0-19.62,0-.21.13-.37.38-.38.21,0,.37.17.38.37,0,.73.12,17.84,0,19.67-.01.2-.18.35-.37.35Z"
  />
  <path
    d="m135.58,66.59c-.15,0-.3-.09-.35-.25-.07-.19.03-.41.22-.48.77-.29,2.51-3.13,3-4.91.33-1.21.96-1.71,1.58-2.21.33-.27.68-.54.99-.95.5-.63.71-1.73.9-2.69.15-.75.28-1.41.53-1.81.51-.82,2.69-2.72,5.86-3,3.11-.29,4.62,2.17,4.68,2.27.11.18.05.41-.13.51-.18.11-.41.05-.51-.13-.05-.09-1.33-2.13-3.97-1.91-2.73.24-4.79,1.84-5.29,2.65-.18.29-.3.91-.43,1.56-.21,1.05-.44,2.24-1.05,3.01-.37.47-.77.79-1.12,1.07-.59.47-1.06.85-1.32,1.82-.48,1.73-2.29,4.98-3.46,5.41-.04.02-.09.02-.13.02Z"
  />
  <path
    d="m172.39,71.33s-1.57-2.32-2.05-3c-.24-.34-.29-.98-.36-2.09-.07-1.19-.17-2.83-.73-3.32-.61-.54-1-1.83-1.41-3.2-.33-1.08-.78-2.57-1.18-2.72-.49-.19-1.09-.73-1.85-1.41-1.11-1-2.49-2.25-3.92-2.71-2.2-.71-4.75,1.91-4.78,1.94-.14.15-.38.15-.53.01-.15-.14-.15-.38,0-.53.12-.12,2.91-2.99,5.55-2.13,1.58.51,3.03,1.81,4.19,2.86.65.58,1.26,1.13,1.61,1.27.74.29,1.15,1.64,1.62,3.21.35,1.15.74,2.46,1.19,2.86.79.7.89,2.37.98,3.84.04.68.09,1.52.22,1.7.48.68,2.06,3.02,2.06,3.02l-.62.42Z"
  />
  <path
    d="m139.95,77.88c-.17,0-.32-.11-.36-.28-.49-1.91-.6-3.22-.33-4.02.31-.94.51-3.51-.12-4.89-.74-1.64.41-4.7.46-4.83.07-.19.29-.29.48-.22.19.07.29.29.22.48-.31.8-.98,3.12-.48,4.25.74,1.64.48,4.41.14,5.43-.15.44-.21,1.43.35,3.6.05.2-.07.4-.27.46-.03,0-.06.01-.09.01Z"
  />
  <path
    d="m170.64,60.57c-.13,0-.25-.07-.32-.18,0-.02-.95-1.6-1.63-2.17-.36-.31-.85-1.1-1.47-2.11-.74-1.21-1.66-2.7-2.45-3.46-1.4-1.33-4.76-2.85-4.8-2.87-.19-.08-.27-.31-.19-.5.09-.19.31-.27.5-.19.14.06,3.52,1.59,5.01,3.01.87.82,1.77,2.3,2.57,3.61.54.88,1.04,1.71,1.31,1.93.77.66,1.74,2.29,1.78,2.36.11.18.05.41-.13.51-.06.04-.13.05-.19.05Z"
  />
  <path
    d="m136.88,73.15c-.15,0-.29-.09-.35-.23-.56-1.33.54-5.98.66-6.51.05-.2.25-.33.45-.28.2.05.33.25.28.45-.46,1.89-1.05,5.21-.7,6.04.08.19,0,.41-.2.49-.05.02-.1.03-.15.03Z"
  />
  <path
    d="m142.32,98.28c-.1-.18-.33-.24-.51-.13-.02,0-1.56.93-2.63,1.44-.21.1-.48.23-.8.38-1.4.65-3.5,1.64-4.24,2.24-.34.28-.94.66-1.56,1.03-.01.09-.03.18-.04.27-.05.26-.14.51-.25.76.9-.51,1.87-1.11,2.33-1.49.66-.54,2.8-1.54,4.08-2.14.32-.15.6-.28.81-.38,1.09-.53,2.62-1.44,2.68-1.47.18-.11.24-.34.13-.51Z"
  />
  <path
    d="m132,150.23c-.81,0-1.36-.25-1.7-.41-.1-.04-.23-.1-.27-.11-.05,0-.11,0-.17,0-.38.02-.96.06-1.79-.51-.55-.37-1.22-1.16-1.81-1.86-.37-.44-.75-.89-.95-1.04l-.29-.22c-1.5-1.13-2.47-1.91-2.7-2.27-.25-.41-.68-.93-.68-.94-.13-.16-.1-.4.06-.53.16-.13.4-.1.53.06.02.02.45.56.73,1.01.2.32,1.94,1.64,2.51,2.07l.29.22c.26.2.64.64,1.07,1.16.53.63,1.19,1.41,1.65,1.72.62.42.98.4,1.33.38.28-.02.5.03.79.17.49.22,1.22.55,2.53.16,1.74-.52,2.17-1.92,2.17-1.93.06-.2.26-.32.47-.25.2.06.31.27.25.46-.02.07-.55,1.8-2.67,2.44-.52.15-.96.21-1.35.21Z"
  />
  <path
    d="m121.04,140.26c-.08-.05-.17-.06-.25-.04-.06-.06-.15-.17-.29-.38-.2-.32-.41-.85-.62-1.36-.38-.96-.62-1.52-.97-1.71-.36-.2-1.05-1.11-1.05-1.47,0-.86-.21-1.42-.63-1.72-.29-.2-.86-1.31-.77-1.54.01,0,.04,0,.05-.01-.15-.16-.24-.36-.27-.58-.03-.03-.07-.05-.09-.09-.24.11-.39.33-.42.62-.07.74.67,1.94,1.07,2.22.14.1.31.37.31,1.1s.96,1.87,1.43,2.12c.15.12.45.85.64,1.33.22.54.44,1.1.68,1.48.34.54.61.77.9.77,0,0,0,0,.01,0,.13,0,.33-.12.4-.23.1-.18.04-.41-.14-.51Z"
  />
  <path d="m120.53,140.4s0,0,0,0c0,0,0,0,0,0Z" />
  <path
    d="m169.4,79.27h-.73c-.21,0-.38-.17-.38-.38s.17-.38.38-.38h.54c.27-.37.63-.91.72-1.14.05-.17-.1-.91-.32-1.57-.07-.2.04-.41.24-.47.2-.07.41.04.47.24.15.46.49,1.59.31,2.07-.17.45-.86,1.38-.93,1.48-.07.09-.18.15-.3.15Zm0-.38h0,0Z"
  />
  <path
    d="m145.68,97.6c-.13,0-.26-.07-.33-.19-.1-.18-.04-.41.14-.51.02-.01,2.01-1.13,3.02-1.99.63-.54.61-.7.55-1.3-.02-.24-.05-.52-.05-.87,0-1.25-.61-4.54-.62-4.58-.04-.2.1-.4.3-.44.2-.04.4.1.44.3.03.14.63,3.39.63,4.71,0,.32.03.57.05.79.08.76.08,1.2-.8,1.95-1.06.91-3.06,2.03-3.14,2.08-.06.03-.12.05-.18.05Z"
  />
  <path
    d="m157.75,103.28c-2.35,0-5.1-.43-8.19-1.74-2.89-1.23-4.46-3.75-4.52-3.85-.11-.18-.05-.41.12-.52.18-.11.41-.05.52.12.01.02,1.52,2.42,4.18,3.55,5.63,2.4,10.09,1.73,12.95,1.03,2.51-.62,5.06-2.21,6.84-4.27,1.4-1.62,1.03-2.59.78-3.23l-.08-.21c-.03-.08-.03-.09-.3-.1-.29-.01-.68-.03-1.05-.37-.54-.49-1.6-1.67-2.12-2.77-.49-1.03-.62-4.8-.64-5.23,0-.21.16-.38.36-.39.2-.01.38.16.39.36.04,1.12.21,4.18.56,4.93.45.95,1.41,2.06,1.95,2.54.16.15.33.16.59.17.29.01.78.04.98.61l.07.18c.27.71.78,2.03-.91,3.99-1.9,2.2-4.53,3.84-7.22,4.5-1.39.34-3.15.68-5.23.68Z"
  />
  <path
    d="m156.6,107.05c-3.1,0-5.36-1.27-7.02-2.2-.26-.14-.5-.28-.73-.4-.63-.34-1.35-.61-2.04-.86-1.15-.43-2.24-.83-3-1.55-1.23-1.16-1.75-2.74-1.92-3.36-.16-.6.52-1.32,2.5-2.67.77-.52,2.57-.17,2.92-.09.2.04.33.24.29.45-.04.2-.25.33-.45.29-.73-.16-1.96-.28-2.3-.06-2.03,1.38-2.23,1.82-2.24,1.92.15.53.61,1.95,1.7,2.98.65.61,1.67.99,2.75,1.39.72.27,1.46.54,2.13.9.23.12.48.26.74.41,1.62.91,3.87,2.16,6.83,2.1,3.86-.05,6.42-.55,9.45-1.85,3.24-1.39,4.94-2.76,6.5-5.23,1.58-2.51,1.75-3.88,1.64-4.1-.24-.19-2.27-.93-4.12-1.53h-.54c-.21,0-.38-.17-.38-.38s.17-.38.38-.38h.6s.08,0,.12.02c1.54.5,4.18,1.39,4.52,1.78.55.63-.07,2.59-1.58,4.98-1.65,2.61-3.44,4.06-6.83,5.52-3.13,1.34-5.77,1.86-9.74,1.91-.06,0-.12,0-.19,0Z"
  />
  <path
    d="m153.56,54.66s-.07,0-.11-.02c-.2-.06-.31-.27-.25-.47.03-.08.65-2.07,2.21-2.6,1.42-.48,3.34-.69,3.42-.7.2-.01.39.13.41.33.02.21-.13.39-.33.41-.02,0-1.92.21-3.26.66-1.2.4-1.73,2.09-1.74,2.11-.05.16-.2.26-.36.26Z"
  />
  <path
    d="m143.66,57.69c-.07,0-.14-.02-.2-.06-.17-.11-.22-.35-.11-.52,0-.01.87-1.34,1.32-2.44.54-1.33,2.78-1.52,3.04-1.54.13,0,2.92-.04,4.2.85,1.26.88,1.81,1.91,1.83,1.96.1.18.03.41-.16.5-.18.1-.41.03-.51-.16,0,0-.5-.92-1.6-1.69-.9-.63-3.01-.74-3.74-.72-.54.04-2.06.31-2.38,1.07-.48,1.17-1.35,2.51-1.38,2.57-.07.11-.19.17-.31.17Z"
  />
  <path
    d="m169.09,76.32s-.06,0-.09-.01c-.2-.05-.32-.25-.27-.45.43-1.75-.34-3.61-2.35-5.71-1.12-1.17-1.18-1.45-1.28-2.58-.04-.47-.1-1.12-.28-2.1-.55-3.04-2.51-5.44-2.53-5.46-.13-.16-.11-.4.05-.53.16-.13.4-.11.53.05.08.1,2.1,2.57,2.69,5.8.18,1.02.24,1.69.28,2.17.09,1,.1,1.11,1.07,2.12,2.21,2.29,3.04,4.39,2.54,6.4-.04.17-.2.29-.36.29Z"
  />
  <path
    d="m142.77,79.26c-.14,0-.26-.07-.33-.2-.05-.09-.21-.52-.25-2-.02-.64.29-1.23.65-1.92.6-1.14,1.34-2.56.92-4.92-.7-3.98,1.53-7.15,1.63-7.28.12-.17.35-.21.52-.09.17.12.21.35.09.52-.02.03-2.14,3.05-1.5,6.71.46,2.61-.38,4.22-1,5.39-.32.62-.58,1.1-.56,1.55.04,1.34.17,1.69.18,1.71.07.19,0,.41-.19.49-.05.02-.1.03-.16.03Z"
  />
  <path
    d="m170.54,74.4s-.08,0-.12-.02c-.2-.07-.3-.28-.23-.48.4-1.15-.86-4.85-2.22-7.26-.59-1.05-.83-2.17-1.09-3.36-.35-1.62-.72-3.3-2.01-5-1.79-2.37-4.08-2.29-6.09-2.22-.42.01-.83.03-1.23.02-2.02,0-3.14,2.12-3.15,2.14-.09.18-.32.26-.5.17-.19-.09-.26-.32-.17-.5.05-.11,1.34-2.59,3.83-2.56.38,0,.77,0,1.18-.02,2.09-.07,4.69-.16,6.71,2.52,1.39,1.83,1.79,3.67,2.14,5.29.25,1.13.48,2.2,1.01,3.16,1.3,2.31,2.81,6.34,2.27,7.88-.05.16-.2.25-.35.25Z"
  />
  <path
    d="m141.43,80.52c-.14,0-.27-.08-.34-.21-.81-1.64-.54-5.46.56-7.7.52-1.06.43-2.66.32-4.52-.1-1.78-.22-3.79.23-5.7.89-3.86,4.13-6.13,6.77-6.13.03,0,.06,0,.09,0,2.58.05,3.86,1.8,3.92,1.87.12.17.08.4-.08.52-.17.12-.4.08-.52-.08-.05-.06-1.13-1.52-3.32-1.56-2.39-.07-5.3,2.02-6.12,5.55-.42,1.8-.31,3.76-.21,5.49.11,1.96.21,3.65-.4,4.89-1.08,2.22-1.22,5.72-.57,7.04.09.19.02.41-.17.5-.05.03-.11.04-.17.04Z"
  />
  <path
    d="m147.71,60.93s-.08,0-.11-.02c-.2-.06-.31-.27-.25-.47.02-.07.56-1.73,2.53-2.14,1.98-.41,3.29,1.16,3.34,1.22.13.16.11.39-.05.53-.16.13-.39.11-.53-.05-.04-.05-1.08-1.28-2.61-.96-1.52.31-1.95,1.57-1.96,1.63-.05.16-.2.26-.36.26Z"
  />
  <path
    d="m153.77,60.39s-.06,0-.1-.01c-.2-.05-.32-.26-.27-.46.03-.1.66-2.41,2.74-2.81,1.94-.38,3.34-.01,3.4,0,.2.05.32.26.26.46-.05.2-.26.32-.46.27-.01,0-1.3-.34-3.06,0-1.61.31-2.15,2.25-2.15,2.27-.04.17-.2.28-.36.28Z"
  />
  <path
    d="m147.73,74.39c-.07,0-.14-.02-.2-.06-.17-.11-.23-.34-.12-.52l.47-.68s1.23-.84,2.62-1c1.5-.19,2.44,1.03,2.48,1.08.12.16.09.4-.07.52-.16.12-.4.1-.53-.07-.03-.04-.73-.91-1.8-.8-1.03.12-1.97.68-2.22.84l-.32.51c-.07.11-.19.17-.32.17Z"
  />
  <path
    d="m150.54,74.08c-.62,0-1.25-.83-1.42-1.09-.12-.17-.08-.4.09-.52.17-.12.4-.08.52.09.27.39.67.76.81.77.12,0,.43-.38.61-.72.09-.18.32-.26.5-.17.18.09.26.32.17.5-.13.27-.62,1.13-1.27,1.13Z"
  />
  <path
    d="m160.72,72.41c-.69,0-1.19-.65-1.21-.68-.12-.17-.09-.4.07-.53.17-.12.4-.09.52.07h0c.09.11.4.43.68.38.29-.05.52-.5.57-.65.07-.19.29-.29.48-.22.19.07.29.28.23.48-.04.1-.38,1-1.14,1.14-.07.01-.13.02-.2.02Z"
  />
  <path
    d="m158.09,68.91c-.16,0-.31-.1-.36-.26-.06-.2.05-.41.25-.47.77-.24,4.67-1.43,5.38-1.43.21,0,.38.17.38.38s-.17.38-.38.38c-.46,0-3.4.86-5.16,1.39-.04.01-.07.02-.11.02Z"
  />
  <path
    d="m151.68,69.74s-.04,0-.06,0c-.02,0-1.94-.31-2.88-.21-1,.11-2.3.21-2.3.21l-.06-.75s1.29-.1,2.28-.21c1.04-.11,2.99.2,3.07.21.2.03.34.23.31.43-.03.18-.19.32-.37.32Z"
  />
  <path
    d="m155.85,79.82c-.11,0-.22-.05-.29-.14-.08-.05-.52-.09-.89-.07-.21,0-.38-.15-.39-.36s.15-.38.36-.39c.44-.02,1.22,0,1.51.35.13.16.11.4-.05.53-.07.06-.15.08-.24.08Z"
  />
  <path
    d="m157.8,79.7c-.05,0-.11-.01-.16-.04-.19-.09-.27-.31-.18-.5.12-.24.53-1.03,1.11-1.09.21,0,.39.12.42.33.02.21-.12.39-.33.42-.11.03-.37.36-.52.67-.06.13-.2.21-.34.21Z"
  />
  <path
    d="m154.18,84.79c-.58,0-1.29-.27-1.38-.3-.19-.07-.29-.29-.21-.48.08-.19.29-.29.48-.21.32.12.95.3,1.25.24.24-.05,1.38-.22,2.7-.42,1.44-.21,3.41-.51,3.62-.56.18-.05.42-.31.54-.47.12-.17.35-.22.52-.1.17.12.21.35.1.52-.04.06-.45.63-.97.77-.23.06-1.61.27-3.7.58-1.26.19-2.44.37-2.66.41-.09.02-.18.03-.28.03Z"
  />
  <path
    d="m141.93,81.13c-.12,0-.23-.06-.3-.16l-.68-.94c-.67-.93-2.81-3.85-2.81-3.85l-2.18-4.59s-.03-.09-.04-.14l-.05-.83-.3,1.75c-.03.18-.19.3-.38.31-.19,0-.34-.15-.36-.33l-.21-1.99c-.12-1.09.06-2.2.26-3.03-.69.39-1.51.68-1.86.8-.16.05-.33,0-.43-.14-.09-.14-.09-.32.02-.45l2.03-2.48c.86-1.05,1.12-1.89,1.59-3.42.18-.58.38-1.25.66-2.05.5-1.44,1-2.56,1.37-3.32l-.69.42c-.3.24-.52.08-.6,0-.28-.29-.03-.59.48-1.19.88-1.05,3.14-3.72,4.16-5.09,1.01-1.36,3.3-1.65,5.14-1.88l.69-.09c1.3-.18,2.69.18,3.51.45-.15-.97-.15-2.42-.14-2.95,0-.2.16-.36.35-.37.19-.02.37.12.4.32.14.95.65,1.98,1.04,2.68.25-1,1.89-2.43,2.08-2.59.14-.12.33-.12.47-.01.14.11.18.3.1.46-.22.43-.36,1.23-.44,1.93.04-.06.08-.13.13-.2.58-.95,3.61-1.66,4.84-1.92.15-.05.3-.08.43-.08.19-.01.37.13.39.33.02.2-.11.38-.3.41-.11.02-.23.05-.35.07-.29.1-.64.29-.99.51.59-.07,1.22-.11,1.58-.06.85.12,4.86,2.46,6.74,3.83,2.07,1.51,3.14,4.67,3.59,6.42.3,1.15,1.67,2.69,2.53,3.57.3.24.56.49.75.73.12.15.1.37-.04.5-.14.13-.36.13-.51,0-.04-.03-.33-.3-.73-.71-.29-.23-.61-.45-.94-.65.66,1.07,1.55,2.85,1.85,3.84.26.87.19,1.82.12,2.82-.05.68-.1,1.38-.06,2.12.1,1.77,1.14,3.58,1.15,3.59.09.15.06.34-.07.46-.13.12-.32.13-.47.03-.65-.45-1.22-1.23-1.62-1.89-.03.37-.07.78-.08,1.14-.05.98,0,3.7,0,3.73,0,.15-.09.29-.23.35-.14.06-.31.02-.41-.09-.76-.78-1.24-1.58-1.53-2.18-.09.27-.18.53-.24.72-.21.7-1.37.95-1.6.99-.2.04-.39-.09-.43-.28,0,0-.52-2.2-.73-3.18-.19-.87-1.16-1.7-1.81-2.25-.8-.7-1.45-1.64-1.82-2.66-.07-.19-.16-.49-.27-.87-.47-1.57-1.34-4.49-2.7-5.65-1.64-1.4-5.49-2.15-6.26-2.01-.38.07-.6.29-.72.44,0,.02,0,.03,0,.05-.02.12-.09.22-.2.28-.14.07-.34.06-.45-.04-.05-.04-.09-.09-.12-.15-.64-.47-1.45-.03-2.51.64-.92.57-3.27,4.59-3.87,6.62-.4,1.36-.38,2.53-.36,3.9,0,.51.02,1.04,0,1.6-.03,1.33-.65,2.04-1.2,2.66-.37.42-.72.82-.9,1.4-.43,1.41.13,2.7.14,2.71.08.17.01.37-.15.47-.16.1-.37.06-.49-.08-.15-.19-.32-.43-.48-.66-.01-.02-.03-.04-.04-.06.01.33.04.72.08,1.07.02.16-.07.31-.21.38-.14.07-.31.04-.43-.07-.2-.19-.37-.38-.51-.55v.29c0,.16-.1.31-.26.36-.04.01-.08.02-.12.02Zm0-2.21c.14,0,.26.07.33.2,0,0,.12.22.37.55-.01-.37,0-.73.04-.92.05-.19.19-.32.36-.35.17-.03.31.03.45.16-.02-.46.03-.98.19-1.51.22-.73.64-1.21,1.05-1.68.53-.61.99-1.13,1.02-2.19.01-.55,0-1.07,0-1.57-.03-1.36-.05-2.65.39-4.12.56-1.89,2.98-6.29,4.19-7.04.92-.58,2.13-1.34,3.19-.72.21-.24.56-.5,1.08-.6,1-.18,5.04.6,6.88,2.18,1.53,1.3,2.44,4.36,2.93,6.01.11.36.19.65.26.83.33.9.91,1.74,1.61,2.35.72.61,1.81,1.55,2.05,2.66.16.73.49,2.13.64,2.8.34-.11.63-.27.67-.38.15-.52.58-1.69.58-1.69.06-.15.21-.27.37-.24.16,0,.3.12.35.28,0,.01.27.95,1.07,2.04,0-.89-.01-2.12.01-2.73.05-1,.21-2.32.21-2.38.02-.17.15-.3.31-.33.17-.02.33.06.4.21,0,0,.18.38.46.85-.15-.51-.26-1.06-.29-1.62-.04-.79,0-1.52.06-2.22.07-.97.13-1.81-.09-2.55-.41-1.35-1.9-4.03-2.23-4.32-.42-.37-.9-.85-.9-.85-.13-.13-.15-.33-.04-.48.11-.15.3-.2.47-.12.04.02.37.17.83.42-.48-.65-.88-1.34-1.04-1.96-.43-1.65-1.42-4.62-3.3-6-1.99-1.46-5.79-3.61-6.4-3.69-.56-.08-2.21.16-2.8.26-.17.02-.33-.06-.4-.21-.07-.15-.03-.33.09-.44.03-.03.1-.09.2-.17-.97.31-1.77.65-1.95.95-.61,1-.98,1.21-1.12,1.25-.12.04-.25.02-.34-.06s-.15-.19-.15-.32c0-.06.05-1,.21-1.93-.44.47-.81.97-.87,1.29l-.15.88c-.03.15-.14.27-.29.3-.15.03-.3-.03-.39-.15-.03-.04-.44-.63-.85-1.44.04.46.1.8.18.92.09.14.07.32-.03.44-.11.12-.28.16-.44.1-.02,0-2.07-.89-3.81-.65l-.7.09c-1.7.21-3.81.48-4.63,1.58-.8,1.08-2.34,2.94-3.39,4.19l.24-.15c.15-.09.34-.07.46.06.12.12.14.32.05.46,0,.02-.98,1.57-1.97,4.41-.27.79-.48,1.45-.65,2.03-.48,1.57-.77,2.51-1.73,3.67l-1.1,1.34c.58-.28,1.04-.58,1.13-.79,0-.02,0-.03.01-.03.07-.19.29-.29.48-.21.19.07.29.28.22.47,0,.01,0,.02-.01.03-.07.18-.56,1.54-.62,3l.22-1.28.18-.43c.07-.16.24-.25.41-.22.17.03.3.17.31.35l.21,3.56,2.11,4.46h0s2.11,2.88,2.78,3.8h0s0-.3,0-.3c0-.17.12-.32.28-.36.03,0,.06-.01.09-.01Z"
  />
  <path
    d="m153.56,60.72c-.19,0-.35-.14-.37-.34l-.15-1.56c-.11-2.65-.01-2.79.07-2.91.02-.09.07-.93.09-1.62l-.31-1.43s-.01-.08,0-.13l.32-2.35c.03-.21.22-.34.42-.32.21.03.35.22.32.42l-.31,2.29.3,1.45c-.03,1.51-.11,1.9-.17,2.04-.04.25-.02,1.47.03,2.5l.15,1.54c.02.21-.13.39-.34.41-.01,0-.02,0-.04,0Z"
  />
  <path
    d="m157.97,92.51c-2.08,0-6.38-1.96-8.52-3.36-2.33-1.53-3.34-4.92-3.39-5.06l-2.27-5.04c-.08-.19,0-.41.19-.5.19-.08.41,0,.5.19l2.29,5.09c.03.08,1,3.32,3.1,4.7,2.34,1.53,6.5,3.32,8.22,3.23,1.83-.1,4.83-1.62,6.38-3.71,1.64-2.21,2.81-3.79,3.01-5,.22-1.36.83-5.47.83-6.62,0-.21.17-.38.38-.38s.38.17.38.38c0,1.29-.67,5.71-.84,6.74-.23,1.39-1.45,3.03-3.13,5.3-1.74,2.35-4.97,3.91-6.96,4.03-.05,0-.1,0-.15,0Z"
  />
  <path
    d="m144.12,82.47c-.15,0-.3-.02-.45-.08-.73-.3-1.2-.99-1.22-1.02-.11-.17-.07-.4.11-.52.17-.12.4-.07.52.1,0,0,.36.53.88.74.33.13.93-.21,1.17-.39.16-.13.4-.1.53.07s.1.4-.07.53c-.09.07-.77.58-1.46.58Z"
  />
  <path
    d="m158.87,72.61c-.06,0-.12-.01-.17-.04-.18-.09-.26-.32-.16-.5.03-.07.85-1.61,2.25-1.66,1.27-.04,2.88.73,2.94.77.19.09.26.32.17.5-.09.19-.32.26-.5.17-.02,0-1.49-.77-2.58-.69-.96.04-1.6,1.24-1.61,1.26-.07.13-.2.2-.33.2Z"
  />
  <path
    d="m140.7,111.46h0s-.01-.07-.03-.09c-2.23-5.1-1.03-9.92-1.02-9.97.04-.16-.02-.32-.16-.41-.06-.04-.58-.35-1.3-.1-.85.29-1.56,1.23-2.11,2.8-.6,1.71-1.11,2.89-1.65,3.13-.25.11-.58.05-1.19-.2-.52-.21-.82-.43-.9-.65-.12-.31.11-.81.47-1.55.14-.28.33-.59.54-.92.81-1.3,1.92-3.07,1.26-5.44-.81-2.92-3.73-4.68-3.85-4.75-.13-.08-.3-.07-.43.03-.12.1-.17.26-.12.41.01.03,1.06,3.28-.87,4.67-.75.54-1.57.54-2.25.02-.8-.61-1.15-1.75-.82-2.64.31-.83.78-1.28,1.28-1.74.66-.61,1.33-1.24,1.64-2.7.33-1.57-.25-3-.64-3.95-.14-.35-.32-.79-.33-.87.11-.12.19-.39.1-.53-.09-.14-.28-.21-.44-.17-.39.11-2.31,1.73-2.33,4.65,0,1.35-1.05,1.99-2.25,2.73-1.3.8-2.77,1.7-2.63,3.71.14,2.1.74,3.39,1.22,4.42.33.7.61,1.31.69,2.03.14,1.27.19,2.66-.39,3.28-.25.27-.62.4-1.13.37-.73-.03-1.36-.46-1.72-1.19-.53-1.07-.39-2.47.37-3.56.08-.12.09-.26.02-.39-.06-.12-.19-.2-.33-.2h0s-4.27.08-4.44,5.62c-.13,4.04-1.45,7.23-2.16,8.95-.2.49-.35.84-.4,1.07-.19.74-1.7,7.42,2.33,13.08,1.73,2.42,4,4.23,6.75,5.38.1.04.21.04.31,0,.1-.05.17-.14.2-.24.11-.4.38-.69.77-.82.06-.02.11-.05.15-.09.02-.02.04-.05.01-.05.03,0,.16-.02.18-.04.02,0,.13,0,.15,0,.11,0,.18.03.31.09.05.02.11.07.17.12.03.04.07.07.1.09.44.29.65.89.5,1.46-.03.1,0,.21.05.29.05.09.14.15.24.17.49.1.96.16,1.42.21h.11c.11.03.21-.02.29-.09.08-.07.12-.19.12-.3.07-.5.14-.87.23-1.22.11-.48.27-1.03.59-1.44.2-.26.56-.46.94-.23.53.33.6,1.02.59,1.73v1.21c0,.11.05.21.13.28.07.06.16.09.25.09.01,0,.03,0,.04,0,1.15-.13,2.32-.4,3.49-.79.14-.05.24-.18.25-.33.02-.28.06-.57.11-.93-.03-.61.05-1.08.23-1.45.13-.27.38-.49.62-.55.14-.04.27-.02.38.05.32.21.44.68.5,1.08.03.2.06.42.08.63.01.13.09.24.2.29.11.06.24.06.36,0,2.95-1.65,5.13-4.09,6.48-7.25,2.86-6.76,1.02-10.96-1.31-16.28Zm1.69,12.96c-.05.32-.15.64-.31.93,0,0,0,0-.01.01-.01.05-.03.1-.05.15-.02.11-.05.22-.1.32-.17.53-.36,1.06-.6,1.62-1.2,2.82-3.1,5.04-5.66,6.6,0-.04-.01-.07-.02-.11-.09-.54-.27-1.21-.84-1.58-.3-.19-.64-.24-.99-.15-.44.12-.86.48-1.09.94-.24.49-.34,1.07-.3,1.74-.04.22-.06.44-.09.66-.9.29-1.8.5-2.68.63v-.78c.01-.88-.09-1.84-.94-2.37-.24-.15-.49-.22-.75-.22-.44,0-.87.22-1.18.63-.41.53-.6,1.17-.72,1.72-.08.3-.14.62-.2,1.01-.24-.03-.49-.06-.75-.11.05-.73-.26-1.44-.82-1.84-.01-.02-.03-.03-.04-.05-.1-.09-.23-.2-.39-.27-.2-.09-.37-.14-.47-.13-.08-.03-.18-.03-.35-.02-.14,0-.26.03-.3.06-.11.03-.2.08-.29.17,0,0-.02.02-.03.03-.44.17-.79.49-1,.9-2.47-1.1-4.51-2.78-6.08-4.97-3.9-5.47-2.28-12.17-2.21-12.46.04-.18.19-.52.37-.96.73-1.76,2.09-5.04,2.22-9.22.11-3.49,1.94-4.49,2.98-4.78-.54,1.18-.57,2.54-.02,3.62.49.98,1.35,1.56,2.36,1.6.73.01,1.3-.18,1.71-.61.79-.84.75-2.36.59-3.87-.09-.84-.41-1.53-.75-2.26-.48-1.03-1.02-2.19-1.15-4.15-.11-1.55,1-2.23,2.28-3.02,1.21-.75,2.59-1.59,2.6-3.36.01-1.71.76-2.89,1.3-3.49.06.2.16.43.26.68.37.92.88,2.17.6,3.52-.25,1.22-.79,1.72-1.41,2.3-.54.51-1.1,1.03-1.48,2.03-.45,1.21,0,2.68,1.07,3.5.95.72,2.12.72,3.14,0,1.64-1.17,1.59-3.27,1.38-4.52.88.7,2.25,2.01,2.73,3.75.58,2.05-.39,3.6-1.17,4.84-.22.36-.43.69-.58.99-.4.81-.74,1.51-.5,2.14.17.44.57.77,1.31,1.07.69.29,1.25.43,1.78.19.71-.32,1.21-1.18,2.05-3.56.58-1.65,1.21-2.18,1.63-2.33.17-.06.32-.06.43-.05-.25,1.21-.88,5.45,1.09,10.04,0,.03.01.06.03.09l.04.09c1.8,4.1,3.28,7.52,2.44,12.01-.02.22-.03.44-.07.66Z"
  />
  <path
    d="m123.11,143.57c-.67,0-1.39-.19-1.71-.72-.42-.7-.83-2.93-.72-3.91.04-.39.9-4.38,1.62-4.62.47-.16,1.55-.53,2.09.36.45.75.61,2.3.46,3.09-.12.61-.33,1.64-.22,2.21.12.64.23,1.46.23,1.46l-.74.1s-.1-.8-.22-1.43c-.13-.71.08-1.78.22-2.49.13-.64-.03-1.99-.37-2.56-.18-.31-.59-.25-1.13-.06-.29.43-1.07,3.06-1.18,4.01-.1.86.31,2.93.62,3.45.21.35,1.14.44,1.75.27.47-.14.71-.64.71-.65.08-.19.31-.27.49-.19.19.08.27.3.19.49-.01.03-.37.83-1.19,1.07-.25.07-.56.12-.89.12Zm-.48-8.59"
  />
  <path
    d="m127.63,144.41c-.49,0-1.16-.43-1.45-.62-.17-.12-.21-.35-.09-.52.12-.17.35-.21.52-.09.39.27.87.48,1.02.49.23-.04,1.42-.77,1.52-1.82.07-.68-.06-1.18-.18-1.67-.08-.34-.16-.66-.18-1.01-.01-.34.03-.84.09-1.42.08-.86.18-1.93.07-2.56-.17-.95-.58-1.37-.81-1.37-.27,0-1.35.81-1.39,1.79-.03.7-.1,1.57-.17,2.3-.04.5-.08.94-.1,1.23-.01.21-.04.61-.08,1.07-.06.72-.17,2.04-.14,2.33.04.11.03.25-.04.35-.12.17-.35.21-.52.09-.23-.16-.26-.18-.04-2.84.04-.45.07-.84.08-1.05.01-.29.05-.74.1-1.26.06-.73.14-1.58.17-2.27.06-1.38,1.45-2.51,2.14-2.51s1.32.78,1.54,1.99c.13.73.03,1.81-.06,2.77-.05.53-.1,1.03-.09,1.32.01.28.08.55.16.87.13.52.27,1.12.2,1.92-.14,1.39-1.58,2.38-2.14,2.48-.04,0-.08.01-.13.01Z"
  />
  <path
    d="m133.75,143.23c-.08,0-.16-.03-.23-.08-.16-.13-.19-.36-.06-.53.29-.36,1.08-1.38,1.27-1.68.15-.25.3-1.71.3-2.63v-3.83c0-.52-.45-1.59-.69-1.66h0c-.3,0-1.22.95-1.25,1.29.02.22.01.56,0,.98,0,.45-.02.99,0,1.57.03.95-.16,3.09-.55,3.6l-.07.09c-.32.43-.99,1.32-2.25,1.79l-.63.1c-.21.03-.4-.11-.43-.32-.03-.21.11-.4.31-.43l.55-.08c.98-.37,1.53-1.12,1.83-1.52l.08-.1c.16-.24.43-1.94.39-3.12-.02-.59,0-1.14,0-1.6,0-.39.02-.71,0-.92-.05-.61.81-1.42.9-1.51.32-.3.79-.63,1.21-.57.86.13,1.33,1.86,1.33,2.41v3.83c0,.47-.07,2.46-.41,3.02-.24.4-1.21,1.62-1.32,1.76-.07.09-.18.14-.29.14Z"
  />
  <path
    d="m135.39,147.03s-.09,0-.13-.02c-.19-.07-.29-.29-.22-.48,0-.03.23-.64.79-1.2.44-.44.88-1.43.95-2.17.06-.63.64-1.52,1.23-2.38.14-.21.25-.36.29-.44.08-.17.21-.85.31-1.35.06-.31.12-.61.17-.84.19-.84.46-2.88.33-3.27-.02-.07-.18-.23-.48-.34-.28-.1-.49-.1-.54-.07l-.02.07c-.22.52-.68,1.59-.78,2.41-.12.96-.89,2.63-1.39,3.02l-.37.3c-.16.13-.4.11-.53-.05-.13-.16-.11-.4.05-.53l.38-.31c.27-.21,1-1.63,1.11-2.53.12-.93.6-2.06.84-2.61l.05-.11c.06-.14.26-.45.83-.44.52.02,1.35.35,1.55.93.25.73-.23,3.36-.31,3.69-.05.22-.11.51-.16.81-.15.8-.25,1.3-.37,1.53-.05.09-.18.29-.35.54-.37.54-1.05,1.53-1.1,2.03-.09.91-.6,2.06-1.17,2.62-.44.44-.62.92-.62.92-.06.15-.2.25-.35.25Z"
  />
  <path
    d="m136.26,109.37c-.06-.13-.18-.22-.33-.23-.16,0-.28.07-.35.2,0,.01-.83,1.52-2.13,1.82-.61.14-1.26-.02-1.91-.48-2.55-1.82-2.69-5.43-2.69-5.46,0-.12-.07-.24-.17-.3-.1-.07-.23-.08-.35-.03-.63.26-1.05.64-1.24,1.13-.01.03-.02.06-.03.09-.72-1.25-1.15-3.55-1.27-4.52-.02-.17-.16-.31-.33-.33-.18-.01-.34.08-.39.25-.71,1.99-.64,2.62-.42,4.47.09.79.21,1.77.31,3.2.24,3.5-.91,6.67-2.1,7.16-.14.06-.55.22-1.11-.42-1.12-1.29-1.18-2.82-1.06-3.8.21-.33.31-.71.23-1.19-.03-.17-.17-.29-.34-.31-.18-.03-.33.08-.39.24-.02.04-.15.41-.23.98-.18.23-.46.46-.81.72-.39.3-.79.61-1.06,1.01-.71,1.06-1.93,5.39-.96,11.32.92,5.65,6.48,7.01,7.14,7.15.16.05.35.02.53.02,9.47,0,10.75-3.52,12.5-8.36l.34-.93c2-5.42-1.23-13.08-1.37-13.41Zm.67,13.15l-.34.93c-1.71,4.72-2.85,7.87-11.79,7.87-.12,0-.24,0-.37,0-.43-.09-5.71-1.28-6.57-6.54-.95-5.82.29-9.94.85-10.78.2-.3.53-.56.89-.84.09-.07.18-.14.27-.22.02,1.04.3,2.31,1.29,3.45.8.92,1.57.79,1.96.62,1.64-.68,2.81-4.29,2.57-7.9-.1-1.44-.22-2.44-.31-3.23-.14-1.18-.21-1.8-.06-2.59.29,1.36.83,3.18,1.72,3.97.02,0,.03-.03.05-.03.12-.06.25-.09.39-.09h.06c.09,0,.18.01.26.04.01-.07.01-.14-.01-.21-.05-.12-.23-.67.38-1.13.15,1.19.73,3.88,2.95,5.46.83.59,1.68.79,2.51.6,1.01-.24,1.77-1.01,2.2-1.57.73,1.97,2.67,7.94,1.1,12.2Z"
  />
</svg>
