<svg class="svg" xmlns="http://www.w3.org/2000/svg" viewBox="0 0 320 320">
  <path
    d="m169.11,237.8c-.1,0-.2-.04-.28-.11-.16-.16-.17-.41-.01-.56,5.55-5.76,9.86-19.47,11.48-24.62.48-1.51.56-1.79.66-1.93.13-.18.38-.23.55-.09.18.13.22.35.11.54-.06.14-.3.88-.56,1.72-1.64,5.21-5.99,19.04-11.67,24.95-.08.08-.19.13-.29.13h.01Zm14.41,34.67c-3.12,0-7.76-3.84-8.39-4.37-.17-.15-.19-.4-.04-.56.15-.17.4-.19.56-.04,1.95,1.66,7.42,5.55,9.17,3.69,1.37-1.45,1.39-3.13.94-4.23-.24-.58-.55-.86-.67-.86-.22,0-.4-.2-.39-.42,0-.22.19-.39.4-.39h.02c.51.02,1.04.54,1.37,1.36.54,1.33.53,3.36-1.1,5.08-.49.52-1.15.73-1.88.73h0Zm-2.23,5.26c-.21,0-.39-.16-.4-.37-.02-.22.15-.42.37-.43.64-.05,1.85-1.17,1.98-1.6-1-.78-9.27-4.25-10.04-4.49-.21-.06-.32-.28-.27-.49.06-.21.26-.33.48-.28.1.02,10.42,4.09,10.63,5.04.06.28-.04.62-.33.99-.53.72-1.65,1.57-2.39,1.63h-.03Zm2.02-2.34h.01-.01Zm-4.11,2.4c-1.68,0-5.28-1.92-6.21-3.08-1.04-1.3-.93-2.93-.9-3.46v-.11c0-.22.19-.4.41-.4s.4.18.4.4v.17c-.03.46-.13,1.85.72,2.91,1.1,1.37,5.19,3.07,5.78,2.75.2-.09.44-.02.53.18.09.2.02.44-.18.53-.15.07-.33.1-.55.1h0Zm-5.43,5.6c-.06,0-.14-.02-.2-.05-.19-.11-.26-.35-.15-.54.08-.16.35-.62-1.55-2.81-.59-.68-.8-1.34-.63-1.96.32-1.15,1.88-1.65,1.94-1.67.21-.06.44.05.5.26s-.05.44-.26.5c-.33.1-1.24.51-1.41,1.12-.09.34.05.76.46,1.22,1.64,1.89,2.11,2.93,1.65,3.72-.07.13-.21.2-.34.2h-.01Z"
  />
  <path
    d="m195.16,302.61c-1.75,0-3.5-.56-5.45-1.67-3.33-1.89-4.92-5.64-5.52-7.06-.09-.23-.16-.39-.2-.46-.32-.23-3.59-1.11-6.67-1.5-3.27-.43-6.03-4.07-6.45-4.97-.44-.95.19-3.71.32-4.26.05-.22.26-.34.48-.29s.34.27.29.48c-.29,1.24-.62,3.23-.38,3.74.32.7,2.88,4.12,5.82,4.51,2.53.33,6.75,1.25,7.2,1.82.07.09.14.24.3.63.57,1.35,2.1,4.91,5.19,6.68,3.92,2.23,6.82,2.1,11.06-.52,3.61-2.23,3.12-3.26,2.14-5.29-.16-.33-.33-.69-.5-1.07-1.15-2.67-6.86-6.26-7.63-6.68-.99-.53-3.68-3.96-3.88-4.27-.11-.18-.13-.37-.13-.51-.01-.33-.03-1.02-2.97-2.2-.21-.08-.3-.31-.22-.52s.31-.3.52-.22c3.16,1.26,3.44,2.14,3.47,2.92v.13c.29.43,2.83,3.57,3.58,3.98.06.03,6.6,3.85,7.98,7.06.16.38.32.72.48,1.05,1.14,2.37,1.59,3.83-2.44,6.31-2.39,1.48-4.42,2.21-6.44,2.21h.02Z"
  />
  <path
    d="m198.84,300.2c-11.62-.06-13.65-5.63-13.73-5.87-.07-.21.04-.44.25-.51s.44.04.51.25c.02.07,1.99,5.27,12.98,5.33.22,0,.4.18.4.41s-.18.4-.4.4h-.01Z"
  />
  <path
    d="m198.84,301.33c-.05,0-.1-.01-.16-.03-.2-.08-.29-.32-.21-.52.2-.47,2.02-4.59,3.71-5.15.03-.01.13-.07.2-.11.31-.19.79-.48,1.35-.32.41.1.75.42,1.04.96.1.19.04.44-.16.54-.19.1-.44.04-.54-.16-.13-.23-.32-.51-.55-.57-.22-.06-.49.09-.73.24-.13.07-.24.15-.35.19-1.01.33-2.51,3.07-3.22,4.72-.06.16-.21.24-.37.24h-.01Zm-5.67-2.26c-.21,0-.38-.16-.4-.37-.02-.22.15-.42.37-.43.04,0,3.83-.35,6.29-2.69.82-.78,1.47-1.36,1.96-1.79.56-.5,1.05-.94,1.11-1.09-.13-.19-.07-.39.11-.51s.44-.03.56.15c.4.58-.05.98-1.24,2.05-.48.43-1.13,1-1.94,1.77-2.67,2.54-6.62,2.89-6.78,2.91h-.04Z"
  />
  <path
    d="m199.58,296.27c-.46,0-1.97-.05-4.55-.62-3.3-.72-4.18-3.62-4.18-3.99,0-.22.18-.4.4-.4s.39.17.4.38c.03.11.71,2.62,3.56,3.23,2.97.65,4.49.59,4.5.59h.02c.21,0,.39.17.4.39,0,.22-.16.41-.39.42h-.16.01Zm-7.93-4.6h.01-.01Zm9.99,2.27c-.21,0-.38-.16-.4-.37-.11-1.23-2.97-4.6-3.64-4.92-.14.01-.31-.08-.39-.24-.08-.2,0-.44.21-.52.26-.11.52.04.61.09,1.04.62,3.87,4.01,4.02,5.52.02.22-.14.42-.37.44h-.04Zm-6.46,4.7c-.1,0-.21-.04-.29-.13-.02-.02-2.26-2.36-3.5-3.34-.76-.61-2.31-2.38-3.55-3.8-.69-.79-1.47-1.68-1.63-1.81-.21-.07-.28-.28-.22-.49.07-.21.32-.3.54-.23.2.06.42.29,1.9,2,1.16,1.33,2.74,3.14,3.44,3.69,1.27,1,3.48,3.31,3.58,3.41.16.16.15.42-.01.56-.07.07-.18.11-.27.11Z"
  />
  <path
    d="m188.8,297.4c-.2,0-.37-.15-.4-.34-.13-.82-2.01-4.49-3.26-6.74-.06-.11-.06-.24-.01-.35l.42-.9c.09-.2.33-.29.53-.2s.29.33.2.53l-.33.72c.59,1.09,3.07,5.67,3.24,6.82.03.22-.11.42-.33.46h-.06Zm-7.51-4.75c-.13,0-.25-.06-.32-.17-1.38-1.98-2.45-2.48-3.94-3.16-.53-.25-1.14-.52-1.82-.9-2.64-1.46-3.51-4.64-3.54-4.78-.05-.21.07-.43.28-.49.22-.05.44.07.49.28,0,.03.82,2.98,3.16,4.29.65.37,1.22.63,1.76.88,1.54.71,2.75,1.26,4.27,3.43.13.18.08.43-.1.55-.07.05-.15.07-.23.07h-.01Zm1.23-1.35c-.11,0-.22-.05-.3-.14-1.92-2.2-1.85-2.51-1.79-2.7.03-.13.16-.26.27-.31.37-.14.92-.32,1.5-.5.04-.05.08-.09.15-.11l.57-.28-.45-.37c-.76.11-2.16.31-2.35.31-.04,0-4.44-1.61-4.49-2.38,0-.22.16-.41.39-.42.19-.03.31.08.38.22.43.38,3.42,1.69,3.79,1.78.09-.01,1.44-.2,2.35-.33.11-.01.22.01.31.08l1.07.87.07.07c.28-.08.46-.14.49-.15.16-.05.33,0,.44.15.1.14.1.32.01.46l-.93,1.4c-.06.09-.16.16-.26.18s-.22,0-.3-.07l-.9-.67c-.43.14-.85.27-1.18.39.02.03.04.06.06.1.11-.06.26-.06.39.01l1.26.76c.17.09.23.3.17.48l-.33.91c-.05.14-.17.23-.3.25h-.08Zm.95-3.21l.09.07.08-.13c-.05.02-.11.03-.18.05h0Z"
  />
  <path
    d="m178.48,288.29s-.08,0-.11-.02c-1.72-.53-3.68-1.05-4.01-1.07-.21.04-.42-.09-.46-.31s.1-.43.32-.48c.27-.05,1.19.17,2.27.48l-2.86-2.18c-.18-.14-.21-.39-.07-.56s.39-.21.56-.07l4.59,3.51c.16.11.2.33.11.5-.07.14-.21.22-.35.22Zm7.94,7.38c-.19,0-.35-.14-.4-.32-.29-1.55-1.07-2.47-1.62-2.93-.06.14-.2.24-.37.24-.22,0-.4-.18-.4-.4v-.58c0-.14.07-.27.19-.34s.27-.08.39-.02c.08.04,2.07,1.06,2.59,3.88.04.22-.1.43-.32.47h-.07.01Zm4.74-3.58c-.11,0-.23,0-.34-.02-1.89-.19-3.28-1.88-3.34-1.95-.14-.17-.11-.42.05-.56.17-.14.42-.11.56.05.1.13,2.45,2.93,4.84.98.76-.62,1.38-1.07,1.88-1.44,1.37-1.01,1.45-1.12,1.21-1.66-.09-.2,0-.44.2-.53.21-.09.44,0,.53.2.52,1.17-.15,1.65-1.47,2.62-.49.35-1.11.81-1.85,1.42-.71.58-1.47.88-2.29.88v.02Zm-9.61-5.52c-.13,0-.24-.01-.35-.04-.29-.07-.53-.27-.68-.55-.56-1.09.3-3.51.41-3.78.07-.21.31-.31.51-.23.21.07.31.3.24.51-.33.9-.75,2.54-.45,3.12.05.1.11.14.17.15.31.08.73-.1,1.1-.48.63-.65,1.15-1.92.78-3.15-.06-.21.06-.44.27-.5.22-.06.44.06.5.27.45,1.55-.17,3.1-.98,3.93-.47.49-1,.74-1.51.74h0Z"
  />
  <path
    d="m190.8,290.86s-.09,0-.14-.02c-.16-.06-.26-.21-.26-.38v-2.21l-2.17.03c-.1,0-.22-.04-.29-.13s-.11-.19-.11-.3l.11-2.14-2.98.79c-.13.03-.25,0-.34-.07-.09-.07-.16-.2-.16-.31v-1.65h-.79c-.22,0-.4-.18-.4-.4s.18-.4.4-.4h1.19c.22,0,.4.18.4.4v1.53l3.02-.8c.13-.03.25,0,.35.07.1.08.16.21.15.33l-.13,2.26,2.15-.03c.1,0,.21.04.29.11.07.07.11.18.11.28v1.72c.98-.81,2.66-2.07,3.53-2.71l-1.41-.74c-.1-.05-.18-.15-.2-.26l-.28-1.18-2.18-.77c-.19-.06-.29-.26-.26-.46l.38-1.85-2.54-.76c-.21-.06-.33-.28-.27-.5.06-.21.29-.33.5-.27l2.88.87c.2.06.31.26.27.46l-.38,1.86,2.06.73c.13.04.22.16.25.28l.29,1.21,1.81.95c.13.06.2.19.21.32s-.05.27-.16.35c-1.66,1.22-4.26,3.19-4.61,3.6-.07.09-.19.14-.3.14l.02.03Zm-68.39,25.59c-.1,0-.22-.02-.28-.07-.18-.14-.22-.39-.08-.56.07-.1.2-.16.32-.17.77-.24,7.58-3.98,9.35-7.98.08-.2.32-.29.53-.21.2.08.29.32.21.53-1.94,4.39-9.13,8.23-9.9,8.44-.03,0-.08.01-.13.01h-.02Z"
  />
  <path
    d="m125.27,313.82c-2.76,0-5.34-1.92-5.91-2.36-3.93-.23-4.54-1.64-4.59-1.79-.07-.21.03-.44.24-.51s.43.03.5.23c.02.04.59,1.11,4.02,1.28.08,0,.17.03.24.09.03.03,3.7,3.05,6.86,2.06.21-.06.44.05.5.26s-.05.44-.26.5c-.53.17-1.06.24-1.6.24h0Z"
  />
  <path
    d="m116.82,310.49c-.18,0-.33-.11-.39-.29-.66-2.25,2.12-6.91,2.39-7.15.17-.15.42-.13.56.04.14.16.13.4-.02.54-.3.38-2.69,4.56-2.17,6.33.06.21-.06.44-.27.5-.04.01-.07.02-.11.02h.01Zm5.21,1.81c-.2,0-.37-.15-.4-.34-.03-.2.09-.39.28-.44.5-.21,4.55-2.72,4.79-5.94.02-.22.2-.39.43-.37.22.02.39.21.37.43-.27,3.75-4.96,6.59-5.42,6.67h-.05Z"
  />
  <path
    d="m130.78,309.71c-.18,0-.34-.13-.39-.3-.43-1.78,1.18-5.83,1.63-6.91-.42-.38-.89-.67-1.03-.67-.16.4-.98,1.26-1.68,1.97,1.67-.33,1.7-.24,1.78.11.1.45.05.48-2.95,1.28-6.23,1.66-8.92-2.94-8.95-2.98-.1-.19-.04-.44.15-.54s.44-.04.54.15c.09.17,2.35,3.96,7.75,2.68,0-.11.04-.23.13-.31.89-.83,2.38-2.32,2.59-2.74.1-.21.28-.35.51-.39.65-.1,1.57.72,1.92,1.09.11.11.15.29.08.44-.58,1.36-2.03,5.2-1.69,6.66.05.22-.08.43-.29.48-.03,0-.06.01-.09.01v-.02Z"
  />
  <path
    d="m125.29,312.97c-.17,0-.32-.1-.39-.28-.06-.21.05-.44.26-.5.77-.24,2.34-3.87,3.4-7.23.06-.21.29-.32.5-.26.21.06.32.29.26.5-.39,1.21-2.38,7.26-3.93,7.75-.04.01-.08.02-.11.02h.01Zm7.2-10.71c-.14,0-.26-.06-.34-.19l-1.14-1.82c-.07-.13-.08-.28,0-.41l.56-.98c.06-.1.16-.18.27-.2.11-.02.23,0,.32.08.41.32.91.7,1.17.85.27-.3.78-.85,1.18-1.25l-1.77-.69c-.14-.05-.23-.18-.25-.32s.04-.29.17-.38l1.34-.96c.08-.06.2-.09.31-.06l2.19.44,1.84-1.24c.14-.09.3-.09.44,0,.14.08.21.24.18.4l-.2,1.2.73-.22c.21-.06.44.05.5.27.06.21-.05.44-.27.5l-1.34.41c-.13.04-.27,0-.38-.08-.1-.09-.16-.23-.14-.37l.15-.92-1.21.81c-.08.06-.2.08-.3.06l-2.19-.43-.59.43,1.65.64c.13.05.22.16.25.28.03.14,0,.27-.1.37-.65.67-1.6,1.68-1.7,1.81-.06.08-.2.17-.3.18-.13.01-.38.05-1.47-.79l-.22.38,1,1.62c.11.19.06.44-.13.55-.06.04-.14.06-.21.06v-.02Z"
  />
  <path
    d="m134.63,301.33c-.08,0-.17-.03-.24-.08-.18-.14-.21-.39-.08-.56.2-.27,1.79-2.09,1.97-2.3.09-.11.25-.16.39-.13.15.03.26.15.29.28l.31,1.14c.06.21-.06.44-.28.49-.22.06-.44-.07-.49-.28l-.11-.42c-.64.73-1.34,1.53-1.45,1.68-.07.1-.2.16-.32.16l.02.02Zm-6.94,2.8s-.08,0-.14-.02c-2.49-.87-6.28-2.19-6.67-2.29-.14-.02-.26-.11-.31-.25-.08-.21.02-.44.23-.52.18-.06.2-.08,6.34,2.07l-.45-2.11c-.02-.11,0-.24.08-.33.07-.09.19-.15.31-.15h1.97l-.51-2.59c-.04-.22.09-.43.31-.47l2.5-.5-.43-2.65c-.03-.2.08-.39.28-.45l2.17-.65.42-1.98c.02-.11.09-.21.2-.27.1-.05.23-.06.33-.02,1.29.5,6.67.51,8.48-.88.49-.38.75-.79.77-1.24.05-.85-.67-1.62-.81-1.76-.16-.16-.16-.41,0-.56s.41-.16.56,0c.26.26,1.13,1.22,1.04,2.38-.04.69-.41,1.3-1.09,1.83-1.98,1.51-6.89,1.55-8.81,1.12l-.38,1.79c-.03.15-.14.26-.28.3l-2.07.62.43,2.68c.03.21-.1.42-.31.46l-2.49.49.52,2.67c.02.11,0,.24-.08.33-.07.09-.19.15-.31.15h-1.97l.49,2.32c.03.15-.02.29-.13.39-.07.06-.17.1-.26.1h.03Z"
  />
  <path
    d="m120.95,300.93c-.19,0-.35-.14-.4-.33-.04-.22.1-.43.32-.47.99-.18,1.99-.47,2.26-.65-.04-.42-.28-1.48-.44-2.11-.03-.14,0-.27.09-.37l1.61-1.71v-2.11c0-.11.05-.23.14-.3l2.08-1.83-.53-1.72c-.06-.21.05-.44.26-.5.22-.06.44.05.5.26l.61,1.96c.04.15,0,.31-.11.42l-2.14,1.88v2.09c0,.1-.04.2-.1.27l-1.57,1.67c.13.54.41,1.77.41,2.19,0,.24,0,.8-2.93,1.33h-.07l.02.03Z"
  />
  <path
    d="m126.02,297.81c-.28,0-.47-.11-.59-.22-.25-.22-.39-.56-.38-1.02.02-2.05,2.79-6.63,3.26-7.01.17-.15.42-.11.56.05.03.03.05.07.06.1.03-.06.07-.13.14-.17.17-.13.41-.09.54.06.11.13,2.78,3.24,2.02,7.88-.03.22-.24.37-.46.33s-.37-.24-.33-.46c.38-2.31-.19-4.22-.78-5.5-.21,2.07-1.66,4.41-2.81,5.39-.51.44-.91.57-1.22.57v-.02Zm2.8-7.65c-.42.43-3.03,4.8-2.97,6.48,0,.17.04.29.1.34.09.07.38-.02.77-.35,1.41-1.2,3.33-4.8,2.23-6.56l-.03-.06c-.02.05-.06.1-.1.16h0Zm46.86-5.38c-.65,0-1.28-.13-2.01-.33-1.81-.5-2.92-3.74-3.53-5.48-.11-.32-.2-.58-.27-.74-.42-.98.69-2.68,1.13-3.3-1.04-3.42-.45-4.11.35-4.6.32-.2.54-.32.04-1.72-.78-2.17-1.29-6.93-1.74-11.13-.35-3.29-.68-6.39-1.04-7.17-.79-1.71,0-3.52.31-4.11-.66-1.41-.43-2.68-.31-3.14-.41-.76-.49-1.33-.26-1.71.03-.05.07-.1.11-.15-.42-.75-.55-1.67-.68-2.5-.09-.62-.19-1.25-.39-1.49-.77-.94-3.15-12.76-3.41-14.11-.71-3.58-3.34-9.05-3.37-9.11-.09-.2-.01-.44.19-.53s.44-.01.53.19c.1.23,2.7,5.62,3.43,9.3,1.25,6.3,2.82,13.17,3.26,13.76.33.41.44,1.09.55,1.88.14.89.28,1.9.78,2.53.09.13.11.28.04.42-.06.14-.21.23-.37.23,0,0-.11.24.34,1.07.05.09.06.22.03.32,0,.01-.46,1.4.31,2.89.06.13.06.27-.01.4-.01.02-1.15,1.91-.38,3.56.4.86.69,3.38,1.12,7.42.45,4.15.95,8.87,1.7,10.95.62,1.7.35,2.23-.38,2.68-.44.26-.97.58.05,3.87.04.13.01.26-.06.35-.58.78-1.37,2.18-1.15,2.67.07.17.17.45.29.8.48,1.38,1.59,4.59,2.98,4.98,1.85.51,2.85.46,5.16-.83,1.4-.78,3.67-1.4,5.5-1.89,1.15-.31,2.45-.67,2.71-.88.33-.27.56-.85.56-1.39,0-.37-.09-.88-.56-1.26-.17-.14-.2-.4-.05-.56.14-.17.4-.2.56-.05.55.46.86,1.12.86,1.88s-.33,1.59-.86,2.01c-.37.3-1.28.56-3,1.02-1.78.48-4.01,1.09-5.32,1.82-1.61.9-2.69,1.23-3.75,1.23l-.03-.03Zm8.57-42.46h-.07c-.22-.04-.35-.25-.31-.47,1.85-9.29,2.66-20.74,2.8-27.73.14-6.86-.27-13.31-.32-13.65-.03-.22.1-.43.32-.46.21-.03.42.09.47.31.07.38.47,6.96.34,13.82-.14,7.02-.95,18.53-2.81,27.87-.04.19-.21.32-.4.32l-.02-.02Z"
  />
  <path
    d="m173.77,280.13c-.18,0-.33-.11-.39-.29-.06-.21.06-.43.28-.49.31-.08,1.47-.24,3.34-.49,2.08-.27,4.92-.66,5.44-.83.72-.25,6.26-4.68,5.94-9.46-.22-3.18-1.13-3.55-1.93-3.87-.42-.17-.85-.34-1.14-.82-.51-.85-.09-4.87.91-12.5.21-1.61.4-2.99.45-3.67.2-2.29-.71-2.96-.72-2.97-.09-.06-.16-.17-.17-.27-.01-.1.01-.22.08-.3.53-.67.52-2.25.46-2.96-1.1-1.13-1.48-1.98-1.49-2.02-.08-.2,0-.44.21-.52.2-.08.44,0,.52.21,0,0,.38.82,1.43,1.88.06.06.1.15.11.24.03.24.23,2.21-.41,3.39.38.44.94,1.45.77,3.42-.06.7-.24,2.02-.46,3.7-.48,3.63-1.47,11.2-1.01,11.99.15.24.37.33.75.49.92.37,2.18.88,2.43,4.56.34,5.07-5.33,9.86-6.47,10.27-.54.2-2.67.49-5.6.88-1.45.19-2.95.4-3.23.47-.03,0-.07.01-.1.01h0Z"
  />
  <path
    d="m175.71,283.19h-.04c-.18-.02-.64-.06-.68-.46-.05-.48.33-.61,2.48-1.29,2.26-.73,5.68-1.84,7.82-3.31,2.97-2.06,2.79-4.02,2.57-4.77-.03-.13-.02-.3.05-.41l.64.48-.31-.24.39-.08c.27.95.53,3.33-2.87,5.68-2.23,1.53-5.72,2.66-8.02,3.41-.61.2-1.21.4-1.62.54v.09c-.02.21-.2.37-.4.37h0Zm-3.27-38.74h-.57c-.22-.05-.34-.27-.29-.48.05-.2.25-.32.45-.3.29.02,3.48,0,6.81-.25,6.16-.46,6.46-1.26,6.46-1.29-.1-.2-.02-.45.17-.54.19-.1.43-.03.53.17.16.3.11.64-.09.91-1.29,1.63-10.99,1.79-13.47,1.79h.01Zm9.43,5.48c-.06,0-.13-.01-.18-.04-2.67-1.35-6.68-1.74-8.6-1.93-1.19-.11-1.31-.13-1.46-.33-.13-.19-.07-.43.1-.55.13-.08.29-.08.42-.02.14.03.58.07,1.01.11,1.97.2,6.07.59,8.88,2.01.2.1.27.34.18.54-.07.14-.21.22-.35.22h0Zm-1.55,16.16c-1.58,0-4.89-1.03-5.12-1.15-.2-.1-.27-.34-.17-.54s.34-.27.53-.17c.38.17,4.16,1.25,5.04,1.03.71-.18,3.21-2.13,4.62-3.32.17-.15.42-.11.56.05s.13.42-.05.56c-.39.32-3.82,3.2-4.95,3.48-.13.03-.29.05-.48.05h.01Zm-37.65-63.87c-6.55,0-10.65-3.37-10.84-3.53-.17-.15-.19-.4-.05-.56.15-.17.4-.19.56-.05.05.04,4.9,4.02,12.27,3.24.23-.03.42.14.44.35.02.22-.14.42-.35.44-.7.07-1.38.1-2.02.1Zm17.54-.44c-.22,0-.4-.18-.4-.4s.18-.4.4-.41c16.93-.14,25.42-4.9,25.5-4.95.19-.1.44-.04.54.15s.04.44-.15.54c-.08.05-8.72,4.92-25.9,5.05h0Zm-12.58-92.77s-.08,0-.13-.02c-2.19-.74-4.11-4.42-4.19-4.58-.1-.2-.02-.44.17-.54.2-.1.44-.02.54.17.02.03,1.86,3.55,3.75,4.18.21.07.32.3.25.51-.05.17-.21.27-.38.27h-.01Zm-19.8,168.12c-.22,0-.4-.18-.4-.4,0,0,0-4.22.06-8.75.04-2.72-.37-5.26-.7-7.3-.22-1.38-.41-2.56-.44-3.55-.04-1.46.44-2.37.81-3.09.3-.57.54-1.02.51-1.64-.03-.86.17-1.14.52-1.33.05-.02.13-.15.07-.73-.11-1.55.82-3.03,1.23-3.59-.98-1.77.06-5.09.1-5.24,2.34-3.93,1.86-4.61,1.06-5.75-.13-.19-.26-.38-.4-.58-1.09-1.76-.72-3.82-.05-7.54.61-3.39.48-5.72.35-8.19l-.04-.79c-.13-2.47.67-9.63.86-11.23-.47-.22-.8-.52-1-.91-.31-.63-.13-1.21-.1-1.28.03-.09.09-.17.18-.22,1.3-.76.91-2.01.89-2.07-.07-.21.04-.44.25-.51s.44.04.5.25c.21.64.24,2.03-1.1,2.91-.04.27,0,.86.93,1.17.18.06.29.24.27.43,0,.08-1.01,8.73-.89,11.4l.04.78c.13,2.4.26,4.89-.37,8.37-.68,3.8-.94,5.54-.05,6.99.13.2.25.38.37.55,1,1.43,1.45,2.44-.99,6.53-.26.87-.87,3.57-.02,4.68.11.15.1.35-.01.5-.01.02-1.35,1.64-1.22,3.24.06.9-.06,1.27-.51,1.5-.05.03-.11.13-.09.57.03.82-.28,1.42-.61,2.05-.38.71-.76,1.44-.73,2.69.02.94.21,2.1.43,3.44.33,2.07.75,4.64.71,7.44-.06,4.53-.06,8.74-.06,8.74,0,.22-.18.4-.4.4l.02.03Z"
  />
  <path
    d="m140.47,297.69c-.67,0-1.29-.49-1.91-1.48-1.9-3.05-2.63-3.4-3.22-3.69-.27-.13-.54-.26-.86-.57-.35-.35-2.1-.89-3.63-1.36-2.21-.68-4.73-1.45-5.81-2.35-1.98-1.63-2.63-5.98-2.2-8.25.42-2.24,4.11-5.43,4.27-5.56.17-.15.42-.13.56.04s.13.42-.04.56c-.03.03-3.63,3.13-4.01,5.1-.39,2.03.19,6.06,1.93,7.48.96.79,3.39,1.54,5.54,2.2,2.15.66,3.5,1.1,3.95,1.55.22.22.4.3.64.42.69.32,1.53.74,3.56,3.99.32.52.83,1.14,1.27,1.11.82-.05,1.71-2.03,2.35-3.47.53-1.2.99-2.23,1.52-2.66,1.2-.98-.41-7.06-1.47-8.52-1.15-1.58-2.57-6.35-1.43-8.49,1.05-1.98,2.99-8.08,3.31-11.58.27-3,.08-5.73.02-6.76-.01-.18-.02-.31-.02-.39,0-.14.06-.27.18-.34.02-.01,1.77-1.2,2.08-3.19.27-1.82.07-2.23.06-2.25-.11-.11-.1-.24-.03-.39.02-.04,1.71-3.89,1.84-5.8.13-1.94,4-15.25,4.98-17.16l.72-1.37c1.85-3.51,6.75-12.83,7.26-14.57.22-.77.57-1.31.92-1.85.62-.95,1.24-1.94,1.2-4.43,0-.22.18-.41.4-.41s.4.18.4.4c.04,2.74-.69,3.88-1.34,4.88-.32.5-.63.98-.81,1.64-.52,1.81-5.29,10.85-7.31,14.71l-.71,1.36c-.93,1.79-4.77,15.01-4.89,16.84s-1.49,5.11-1.83,5.9c.13.38.18,1.13-.04,2.6-.29,1.95-1.71,3.2-2.23,3.6,0,.04,0,.1.01.16.06,1.04.25,3.82-.02,6.89-.31,3.59-2.32,9.85-3.4,11.88-.95,1.78.33,6.22,1.37,7.65,1.06,1.46,3.12,8.15,1.33,9.61-.38.31-.85,1.36-1.29,2.37-.85,1.9-1.72,3.86-3.03,3.94h-.09v.04Z"
  />
  <path
    d="m164.37,206.33c-.19,0-.35-.14-.4-.32-.04-.22.1-.43.31-.47,2.56-.49,3.68-2.12,3.75-2.34,0-.22.18-.37.4-.37s.4.21.4.43c0,.57-1.51,2.51-4.39,3.06h-.07.01Zm-19.71,17.06c-.11,0-.24-.05-.31-.16-.14-.18-.1-.43.07-.56.94-.73,5.25-7.69,5.83-9.66.61-2,2.47-6.26,2.55-6.45.09-.2.32-.29.53-.21.2.08.29.32.21.53-.02.04-1.93,4.4-2.51,6.35-.61,2-4.95,9.16-6.11,10.07-.07.05-.16.08-.25.08h0Zm-14.94,19.82h-.06c-.22-.03-.37-.24-.33-.46.29-1.76,1.12-2.32,2.25-3.09.78-.53,1.75-1.19,2.96-2.47,2.98-3.18,7.13-9.32,7.32-9.73.05-.21.26-.32.48-.27s.33.29.28.51c-.11.47-4.62,6.98-7.5,10.05-1.26,1.35-2.29,2.03-3.1,2.59-1.11.75-1.67,1.13-1.91,2.56-.03.2-.2.33-.4.33h0Zm.31,7.31c-.18,0-.34-.13-.39-.3-.05-.22.07-.43.29-.48,2.35-.58,6.09-1.9,11.51-6.52,5.16-4.41,6.47-8.57,6.48-8.61.06-.21.28-.33.49-.27.21.06.33.28.27.49-.01.04-1.29,4.36-6.73,8.99-4.22,3.6-7.97,5.72-11.83,6.69-.03,0-.06.01-.09.01Z"
  />
  <path
    d="m128.77,254.23c-.18,0-.35-.09-.41-.26-.07-.21,0-.42.21-.49l.13-.04c3.99-1.14,6.81-2.62,7.59-3.99l.07-.15c-.77-.02-3.96,1.37-6.6,2.8-.19.1-.44.03-.54-.17s-.03-.44.17-.54c3.06-1.65,6.86-3.44,7.64-2.65.25.26.24.63-.03,1.11-1.21,2.13-5.57,3.64-8.07,4.35-.04.01-.09.02-.14.02h-.01Z"
  />
  <path
    d="m127.42,256.53c-.15,0-.29-.08-.35-.22-.09-.2-.02-.44.18-.53.09-.05,9.85-4.9,12.05-5.68l.89-.3c1.97-.68,5.27-1.81,6.02-2.66.15-.17.4-.19.56-.04s.19.4.04.56c-.89,1.01-4.05,2.1-6.36,2.89l-.88.3c-2.12.74-11.86,5.58-11.96,5.63-.05.03-.11.04-.18.04h-.01Zm12.43-1.81c-1.42,0-2.66-.25-3.32-.39-.2-.04-.33-.07-.41-.07-.22-.01-.4-.2-.39-.41,0-.22.18-.39.4-.39.08,0,.28.03.56.09,1.19.24,4.35.89,6.87-.45,2.47-1.3,2.97-2.23,2.96-2.47,0-.02,0-.07-.15-.13-.21-.07-.31-.3-.24-.51.07-.21.3-.31.51-.24.41.15.65.45.68.82.06.91-1.14,2.06-3.38,3.24-1.33.7-2.78.91-4.08.91l-.02-.02Zm-14.99,24.54h-.06c-.22-.02-.39-.21-.37-.43s.21-.38.43-.37c.33,0,1.9-.69,9.23-6.91,2.65-2.24,2.01-3.24,2-3.26-.13-.18-.08-.43.08-.55.17-.13.41-.11.54.05.13.16,1.16,1.59-2.12,4.36-7.27,6.17-9.07,7.1-9.77,7.1h.02Zm6.71,9.87c-.06,0-.13-.01-.19-.05-.2-.1-.27-.34-.17-.54.42-.77,1.68-1.19,2.91-1.59.63-.21,1.67-.54,1.79-.77,0,0-.04-.05-.15-.15-1.35-1.17-11.12-2.81-11.87-2.84-.22,0-.4-.19-.39-.41,0-.22.18-.4.4-.4.44,0,10.73,1.58,12.4,3.04.33.29.47.59.41.91-.14.67-1.11.98-2.33,1.38-.97.32-2.19.72-2.45,1.21-.07.14-.21.21-.35.21h-.01Z"
  />
  <path
    d="m135.96,287.73c-.22,0-.4-.18-.4-.4s.18-.4.4-.4c1.59,0,6.35-.5,7.42-2.72.09-.2.33-.28.53-.19.2.09.28.33.19.53-1.5,3.14-8.08,3.18-8.14,3.18h0Zm4.06,6.56c-1.31,0-2.54-.62-2.73-.82-.16-.16-.16-.41,0-.56s.4-.16.55-.01c.23.17,2.5,1.24,3.86,0,.16-.15.42-.14.56.02.15.17.14.42-.02.56-.66.61-1.46.8-2.21.8h-.01Zm-17.16,23.58c-2.97,0-7.26-1.26-8.58-3.47-1.33-2.23-.3-4.58.37-6.14.13-.3.25-.57.33-.8.52-1.44,6.64-8.97,7.72-10.31,0-1.85,1.7-4.92,2.26-5.96l.1-.19c.37-.68.63-1.85.63-1.86.04-.22.26-.35.48-.3.22.04.35.26.3.48-.01.05-.28,1.29-.71,2.08l-.1.2c-1.5,2.71-2.23,4.62-2.16,5.69,0,.1-.02.2-.09.28-2.88,3.54-7.31,9.16-7.68,10.19-.09.25-.22.54-.35.86-.65,1.49-1.53,3.53-.42,5.4,1.35,2.26,6.87,3.51,9.31,2.95,2.16-.5,7.23-2.35,7.69-8.7.44-6.06,2.7-7.12,3.17-7.27,1.78-1.09,4.38-2.86,4.66-3.46.09-.2.33-.28.53-.2.2.09.29.33.2.53-.49,1.05-4.27,3.38-5.02,3.84-.04.02-.08.04-.13.05-.01,0-2.19.64-2.62,6.57-.5,6.9-5.98,8.89-8.32,9.43-.46.1-1,.16-1.6.16v-.05Z"
  />
  <path
    d="m133.76,304.13c-.18,0-.34-.13-.39-.3-.05-.22.08-.43.29-.48.04,0,3.84-.94,6.19-3.8,2.34-2.84,2.51-4.67,2.51-4.7.02-.22.2-.39.43-.37.22.02.39.21.37.43,0,.08-.17,2.08-2.69,5.14-2.53,3.07-6.45,4.03-6.62,4.07-.03,0-.06.01-.09.01h0Zm-9.4,13.61h-.02c-1.59-.06-6.59-3.31-7.75-4.08l-1.26.57c-.21.09-.44,0-.53-.2s0-.44.2-.53l1.47-.67c.13-.05.27-.04.39.03,2.41,1.61,6.41,4.02,7.53,4.07.22,0,.4.2.39.42,0,.22-.19.39-.4.39h-.01Zm94.29-161.71c-.22,0-.4-.18-.4-.4v-2.39l-.67-.62c-.17-.15-.17-.41-.02-.56.15-.17.41-.17.56-.02l.79.74c.08.07.13.18.13.29v2.57c0,.22-.18.4-.4.4h0Zm-77.14-23.9c-1.34,0-1.71-.9-2.12-1.86-.38-.9-.47-5.33.5-7.46.32-.71.76-1.16,1.27-1.33.67-.21,1.23-.16,1.7.17.93.65,1.02,2.14,1.02,2.2,0,.1-.03.22-.11.29-.07.08-.18.13-.29.13h-1.06c-.19,0-.35-.14-.39-.31-.03-.15-.14-.4-.25-.47,0,0-.19.01-.2.01-.33.07-.51.11-.63,2.96-.02.4-.02.76-.02,1.07.06-.11.18-.19.3-.2.59-.06,2.01-.18,2.5.22.4.32.33,1.06.19,2.23-.03.28-.08.67-.07.76.03.03.08.24-.07.51-.27.45-1.28,1.07-2.3,1.07h.02Zm.41-9.97c-.15,0-.31.03-.5.08-.29.09-.56.4-.79.9-.91,1.98-.77,6.16-.49,6.82.41.97.61,1.37,1.38,1.37.7,0,1.4-.44,1.58-.65-.03-.2,0-.48.06-.99.05-.44.17-1.35.06-1.55-.13-.07-.81-.09-1.54-.04l-.03.52h.91c.2,0,.38.16.4.35.02.21.13,1.3-.38,1.83-.19.2-.45.29-.72.27-1.33-.1-1.83-1.49-1.7-4.64.13-3.14.35-3.51,1.25-3.71.34-.08.58-.04.79.09.26.17.42.44.51.66h.32c-.08-.4-.27-.92-.62-1.16-.15-.09-.31-.15-.5-.15h.01Zm-.75,7.25c.24.81.61.85.76.86.19-.15.25-.51.26-.85h-1.02Zm4.33,3.18c-.15,0-.28-.07-.35-.21-1.11-2.08-.65-9.31-.63-9.62.01-.21.19-.38.4-.38h2.71c.22,0,.4.18.4.4s-.18.4-.4.4h-2.34c-.11,2.13-.22,6.74.43,8.51.63-.18,1.9-.43,2.64.18.17.14.2.4.05.56s-.4.19-.56.05c-.51-.42-1.79-.08-2.21.06-.04.02-.09.02-.14.02v.02Z"
  />
  <path
    d="m148.1,126.83s-.06,0-.09-.01l-2.2-.51c-.18-.04-.31-.21-.31-.39v-2.07c0-.21.16-.38.37-.4,1.04-.09,1.7-.08,1.95.04.2.09.28.34.18.53-.09.2-.33.27-.52.19-.15-.04-.66-.03-1.17,0v1.38l1.89.44c.22.05.34.26.3.48-.04.19-.21.31-.39.31Zm0,4.61c-.06,0-.14-.02-.2-.05-.51-.29-1.29.02-1.29.02-.13.05-.26.03-.38-.04s-.18-.2-.18-.33v-3.56c0-.22.18-.4.4-.4h1.38c.22,0,.4.18.4.4s-.18.4-.4.4h-.98v2.64c.4-.07.96-.09,1.44.18.19.1.26.35.16.54-.07.14-.21.21-.34.21h0Zm1.04,12.89c-.2,0-.43-.03-.66-.13-.28-.11-.8-.32-.25-7.55.02-.22.18-.39.43-.37.22.02.39.21.37.43-.22,2.89-.32,6.11-.14,6.78.32.08.64-.03.64-.03.21-.08.44.02.52.22s-.01.44-.22.52c-.04.02-.32.13-.69.13Zm-6.76,11.51c-.82,0-1.3-.67-1.86-1.42l-.29-.4c-.85-1.13-1.14-3.04-.76-3.7.1-.31-.1-2.3-.35-3.94-.03-.18.07-.35.23-.43.11-.05,1.1-.48,1.53-.55.43-.06.92.33,1.84,1.48l.06.08c.58.67,1.16,6.42.66,8.1-.04.15-.18.62-.59.72-.18.04-.33.06-.48.06h.02Zm-2.42-9.29c.25,1.71.47,3.7.21,4.16-.15.25-.05,1.82.71,2.83l.3.41c.65.9.91,1.2,1.48,1.04.49-.55.01-6.75-.47-7.52l-.08-.1c-.81-1.02-1.09-1.17-1.15-1.19-.15.03-.61.22-.99.38h-.01Z"
  />
  <path
    d="m145.63,157.56h-.05c-.39-.03-.64-.46-.74-1.25-.82-3.41-2.23-9.04-2.43-9.47-.05-.11-.05-.32,0-.43.06-.1.19-.35,1.2-.48.2-.02.38.09.43.28.04.14.64,2.11,1.15,3.88.04-1.82.03-3.33-.05-3.6-.18-.3-.02-.52.03-.58.1-.13.31-.38,1.42.04.15.05.25.2.26.35.01.29.34,7.28-.21,9.73-.03.14-.06.25-.09.35-.2.62-.45,1.18-.91,1.18h0Zm-2.4-10.76c.49,1.59,2.05,7.98,2.38,9.36.01.09.03.2.05.28.03-.08.07-.19.11-.31.03-.08.05-.18.07-.28.47-2.09.26-7.92.21-9.24-.04-.01-.08-.02-.11-.03.14,1.14.05,3.94-.05,6.3,0,.21-.18.38-.38.39-.24,0-.39-.14-.42-.34-.09-.69-1.19-4.39-1.72-6.15-.05.01-.1.02-.15.03Zm4.87,9.85c-.08,0-.18-.03-.25-.08-.19-.15-.43-.33-.16-9.92,0-.14.08-.26.2-.33l.94-.54c.19-.11.44-.05.54.15.11.19.04.44-.15.54l-.75.43c-.09,3.33-.18,8.52-.04,9.18.07.14.06.3-.04.44-.08.1-.2.16-.31.16h.02Z"
  />
  <path
    d="m149.94,150.45h-.57c-.2,0-.35-.14-.4-.33l-.32-1.81c-.02-.11.01-.24.09-.33l.65-.73c.15-.17.4-.18.56-.04.17.15.19.4.04.56l-.51.58.23,1.28h.24c.22,0,.4.18.4.4s-.18.4-.4.4v.02Zm0,5.33h-.9c-.22,0-.4-.18-.4-.4v-3.76c0-.15.08-.29.22-.35l.9-.45c.2-.1.44-.02.54.18.09.2.02.44-.18.54l-.68.34v3.11h.5c.22,0,.4.18.4.4s-.18.4-.4.4h-.01Zm-7.7-1.65c-.68,0-1.78-1.68-1.93-2.43-.13-.59-.07-1.69-.02-2.75.03-.68.07-1.45.02-1.65-.04-.18.04-.35.2-.44.16-.08.35-.05.48.07.16.17.96,1.04,1,1.75.02.31.22,1.6.39,2.72.15.95.28,1.84.31,2.13.03.35-.18.55-.4.58h-.06.01Zm-1.13-5.68c0,.17-.01.34-.02.53-.04.92-.09,2.06,0,2.56.08.39.4.9.7,1.28-.05-.38-.13-.83-.2-1.3-.19-1.2-.38-2.44-.4-2.8,0-.07-.03-.18-.08-.28h0Zm11.89,39.56c-4.84,0-11.16-6.25-11.46-6.55-.16-.16-.16-.41,0-.56s.41-.16.56,0c.07.07,7.74,7.66,12.19,6.1,3.74-1.31,10.34-17.18,12.56-23.18.07-.21.3-.31.51-.24s.31.3.24.51c-.33.9-8.19,21.95-13.04,23.66-.5.18-1.02.25-1.57.25h0Zm-6.18,2.64s-.07,0-.11-.02c-7.01-2.12-14.16-14.46-14.16-15.32,0-.22.18-.4.4-.4.2,0,.37.15.4.33.28.81,6.8,12.57,13.6,14.62.21.06.33.29.27.5-.05.18-.21.28-.39.28Zm-13.47-15.34h.01-.01Zm34.14.88c-.08,0-.17-.02-.23-.07-.18-.13-.22-.38-.09-.55.78-1.1,2.29-7.1,2.81-9.31.05-.22.26-.35.48-.3.22.05.34.26.3.48-.19.83-1.91,8.18-2.93,9.6-.07.1-.2.17-.32.17h-.01Zm15.41,9.13c-.07,0-.16-.02-.22-.07-2.93-1.97-6.6-6.54-7.98-8.26-.26-.31-.43-.53-.48-.58-.16-.16-.16-.41,0-.56s.41-.16.56,0c.06.06.25.29.53.65,1.36,1.69,4.98,6.2,7.8,8.1.19.13.23.38.1.55-.07.11-.21.18-.33.18h.01Zm-22.83,9.69c-4.47,0-7.99-.27-8.35-.3-.22-.02-.39-.21-.37-.43.01-.22.21-.38.42-.38.06,0,6.05.32,9.08-.39,3-.71,14.54-9.83,14.66-9.92.18-.14.43-.1.56.06.14.18.1.43-.06.56-.46.37-11,8.69-14.6,9.96,6.42-.08,14.17-.77,17.01-3.43.16-.15.42-.15.56.02.15.16.15.42-.02.56-3.26,3.05-12.15,3.67-18.91,3.67h.01Zm-.98-32.56c-.22,0-.4-.18-.4-.4v-2.8l-.57-.72c-.14-.17-.11-.43.06-.56.17-.14.43-.11.56.06l.67.82c.05.07.08.16.08.25v2.93c0,.22-.18.4-.4.4h-.01Zm1.86-.28c-.22,0-.4-.18-.4-.4v-2.86l-.68-1.19c-.11-.19-.04-.44.15-.54s.44-.04.54.15l.73,1.28c.03.06.05.13.05.2v2.96c0,.22-.18.4-.4.4Zm2.15-.15c-.22,0-.4-.18-.4-.4v-2.93l-.61-.95c-.11-.19-.06-.44.13-.55s.44-.06.55.13l.68,1.05c.04.06.06.14.06.22v3.05c0,.22-.18.4-.4.4h-.02Zm2.2-.14c-.22,0-.4-.18-.4-.4v-2.9l-.7-.79c-.15-.17-.13-.42.03-.56.17-.15.42-.13.56.03l.8.91c.06.07.1.17.1.26v3.06c0,.22-.18.4-.4.4h-.01Zm1.93-.44c-.22,0-.4-.18-.4-.4v-2.47l-.97-1.13c-.15-.17-.13-.42.04-.56s.42-.13.56.04l1.06,1.24c.06.07.09.17.09.26v2.62c0,.22-.18.4-.4.4Zm2.07-.52c-.22,0-.4-.18-.4-.4v-2.11l-.72-1c-.13-.18-.09-.43.09-.56.18-.13.43-.09.56.09l.8,1.11c.05.07.07.15.07.23v2.23c0,.22-.18.4-.4.4h-.02Zm1.34-2.8c-.09,0-.19-.03-.26-.09l-1.06-.93c-.17-.15-.19-.4-.04-.56s.4-.19.56-.04l1.06.93c.17.15.19.4.04.56-.08.09-.19.14-.3.14Zm32.3,0c-.22,0-.4-.18-.4-.4v-3.11l-.34-.97c-.07-.21.03-.44.24-.51s.44.03.51.24l.37,1.03s.02.08.02.14v3.17c0,.22-.18.4-.4.4h0Zm1.91-.54c-.22,0-.4-.18-.4-.4v-2.5l-.66-.93c-.13-.18-.08-.43.09-.55.18-.13.43-.08.55.09l.73,1.03c.05.06.07.15.07.23v2.63c0,.22-.18.4-.4.4h0Zm1.87,0c-.22,0-.4-.18-.4-.4v-2.48l-.77-.92c-.15-.17-.11-.42.05-.56s.42-.11.56.05l.87,1.03c.06.07.09.17.09.26v2.63c0,.22-.18.4-.4.4h-.01Zm1.79-.27c-.22,0-.4-.18-.4-.4v-2.8l-.62-1.07c-.11-.19-.04-.44.15-.54.19-.11.44-.04.54.15l.67,1.17c.03.06.05.13.05.2v2.9c0,.22-.18.4-.4.4Zm2.05-.24c-.22,0-.4-.18-.4-.4v-2.71l-.69-.87c-.14-.18-.1-.43.06-.56.17-.14.43-.11.56.06l.78.97c.05.07.08.16.08.25v2.85c0,.22-.18.4-.4.4h-.01Zm2.14-.43c-.22,0-.4-.18-.4-.4v-2.43l-.89-.65c-.18-.13-.22-.38-.08-.56.14-.18.39-.22.56-.08l1.05.77c.1.07.17.2.17.32v2.63c0,.22-.18.4-.4.4h-.02Zm1.89-.2c-.22,0-.4-.18-.4-.4v-2.32l-.82-.55c-.19-.13-.23-.38-.11-.55.13-.19.38-.23.55-.11l1,.67c.11.07.18.2.18.33v2.54c0,.22-.18.4-.4.4Zm2.2,0c-.21,0-.39-.16-.4-.38l-.2-2.65-.82-.82c-.16-.16-.16-.41,0-.56s.41-.16.56,0l.93.94c.06.06.1.16.11.25l.21,2.8c.02.22-.15.41-.37.43h-.03Zm-89.55-12.22c-.21,0-.39-.17-.4-.38,0-.02-.16-2.23-1.27-3.17-.64-.53-1.07-1.19-1.47-1.76-.42-.62-.78-1.15-1.25-1.39-1-.5-3.08-.92-3.1-.92-.16-.03-.27-.15-.31-.3-.1-.43-.35-.97-.52-1.03-.49-.2-6.2-2.31-6.26-2.33-.21-.07-.31-.3-.24-.51.07-.21.3-.31.51-.24.24.08,5.79,2.14,6.28,2.34.51.21.8.93.93,1.34.61.13,2.16.49,3.06.94.66.33,1.1.97,1.55,1.65.38.55.77,1.14,1.33,1.6,1.38,1.17,1.55,3.63,1.55,3.74.01.22-.16.41-.38.43h-.02.01Z"
  />
  <path
    d="m152.23,163.39s-.08,0-.13-.02l-1.06-.37s-.08-.03-.11-.06l-5.67-4.33c-.09-.07-.16-.2-.16-.31v-1.64c0-.21.17-.39.38-.4,2.09-.13,4.4-.29,4.67-.38.19-.13.4-.05.52.13.13.19.03.45-.15.57-.09.06-.28.19-4.62.45v1.06l5.46,4.17.92.31,18.32-1.92c.23-.03.42.14.44.35s-.14.42-.35.44l-18.41,1.93h-.05Z"
  />
  <path
    d="m150.76,162.45c-.22,0-.4-.18-.4-.4v-2.14l-4.65-2.38c-.2-.1-.27-.34-.18-.54.1-.2.34-.27.54-.18l4.87,2.48c.14.07.22.21.22.35v2.38c0,.22-.18.4-.4.4v.02Zm27.88-1.53c-.22,0-.4-.18-.4-.4,0-.4,0-.57,3.52-.8.2-.03.41.16.43.38.01.22-.16.41-.38.43-1.17.07-2.57.21-2.9.3-.07.06-.16.09-.26.09h-.01Z"
  />
  <path
    d="m186.31,160.07c-.2,0-.38-.16-.4-.35-.02-.22.14-.42.35-.44l33.7-3.72.4-2.59-1.01-1.2c-.06-.07-.09-.18-.09-.27l1.81-46.2c-.17-1.12-.5-2.32-.7-2.49-1.06-.1-33.35.21-35.14.38-1.78.17-34.98,5.32-37.34,5.79-.08.26-.15,1.03-.14,1.76l3.44,48.36c.02.22-.15.41-.38.43-.21.01-.41-.15-.43-.38l-3.44-48.38c-.03-2.23.35-2.42.52-2.5.61-.3,37.36-5.84,37.69-5.87,2-.19,34.83-.48,35.48-.32.2.05.79.2,1.23,3.19l-1.79,46.12,1.03,1.21c.07.08.1.21.09.32l-.47,3.07c-.03.18-.17.31-.35.33l-34.01,3.76h-.04Z"
  />
  <path
    d="m152.23,163.39c-.22,0-.4-.19-.4-.41l.06-3.07-.85-.44c-.2-.1-.27-.34-.17-.54s.34-.27.54-.17l1.06.55c.14.07.22.21.22.37l-.06,3.32c0,.22-.18.4-.4.4h-.02Z"
  />
  <path
    d="m152.7,160.07c-.2,0-.38-.16-.4-.35-.02-.22.14-.42.35-.44,8.26-.86,20.77-2.2,21.67-2.45.15-.07.33-.05.46.07.16.16.16.41,0,.56-.13.13-.37.37-22.05,2.6h-.04Zm25.01-2.75c-.21,0-.39-.17-.4-.38,0-.22.16-.41.38-.42l4.98-.24c.24-.02.41.16.42.38,0,.22-.16.41-.38.42l-4.98.24h-.02Zm7.4-.67c-.21,0-.38-.16-.4-.37-.02-.22.14-.42.37-.44l35.67-3.4c.22-.02.42.15.44.37s-.14.42-.37.44l-35.67,3.4h-.04Zm-33.88,2.18c-.2,0-.38-.16-.4-.35-.02-.22.14-.42.35-.44l68.43-6.91c.24-.03.42.14.44.35s-.14.42-.35.44l-68.43,6.91h-.04Zm34.11-41.91c-1.3,0-2.56-2.07-2.69-3.19-.18-1.4.51-2.93,2.47-3.21.65-.09,1.2.09,1.62.55.8.87.85,2.47.69,3.13-.21.89-.58,2.54-1.94,2.7h-.15v.02Zm.08-5.62c-.06,0-.13,0-.2.01-1.95.28-1.84,1.98-1.79,2.32.11.91,1.2,2.58,1.95,2.48.74-.09,1.03-1.13,1.26-2.1.11-.52.05-1.81-.5-2.41-.2-.21-.43-.31-.72-.31h0Zm-.25-.39h.01-.01Z"
  />
  <path
    d="m184.14,115.59c-.27,0-.53-.07-.72-.26-.16-.16-.16-.41,0-.56s.41-.16.56,0c.02.01.15.04.33,0,.11-.02.22-.06.27-.1-.18-.16-.63-.42-1.04-.59-.21-.08-.3-.32-.21-.52.08-.21.32-.3.52-.21,1.16.49,1.69.98,1.59,1.46-.07.32-.38.59-.82.72-.15.04-.31.07-.48.07Z"
  />
  <path
    d="m185.77,115.74c-.08,0-.18-.02-.26-.06-.27-.15-.37-.47-.46-.88-.28-1.21,1.72-1.76,1.95-1.82.22-.05.43.07.49.29.05.22-.07.43-.29.49-.62.16-1.44.56-1.37.87.03.13.05.21.07.27.07-.03.16-.06.25-.08.22-.06.44.05.5.27.06.21-.05.44-.27.5-.08.02-.15.05-.21.07-.11.04-.25.09-.4.09v-.02Zm.18-.71h.01-.01Zm-37.84-3.74c-.2,0-.37-.15-.4-.34-.03-.22.11-.42.33-.46,1.43-.22,34.92-5.26,37.36-5.26h.04c1.96.06,35.33-.71,35.67-.72.23,0,.41.17.41.39s-.17.41-.39.41c-1.38.03-33.72.78-35.72.72-1.55-.06-25.05,3.4-37.26,5.25h-.06v.02Z"
  />
  <path
    d="m185.11,110.92c-.22,0-.4-.18-.4-.4l-.05-4.2c0-.22.18-.41.4-.41s.4.18.4.4l.05,4.2c0,.22-.18.41-.4.41Zm-34.35,45.73c-.13,0-.25-.06-.32-.17-.13-.18-.08-.43.09-.55l34.49-24.42-.31-14.39c0-.22.17-.41.4-.41.18.02.41.17.41.39l.32,14.6c0,.14-.06.26-.17.33l-34.66,24.53c-.07.05-.15.07-.23.07h-.02Z"
  />
  <path
    d="m219.74,149.71c-.06,0-.13-.01-.18-.04l-34.31-17.6c-.2-.1-.27-.34-.18-.54.1-.2.34-.27.54-.18l34.31,17.6c.2.1.27.34.18.54-.07.14-.21.22-.35.22h-.01Zm-64.51,13.31c-.22,0-.4-.18-.4-.4v-2.88l-.73-1.09c-.13-.19-.07-.43.1-.55.18-.13.43-.07.55.1l.8,1.19c.04.06.06.15.06.22v3c0,.22-.18.4-.4.4Zm1.73-.57c-.22,0-.4-.18-.4-.4v-2.32l-.79-1.23c-.11-.19-.06-.44.11-.55.19-.11.43-.06.55.11l.86,1.33c.04.06.06.14.06.22v2.43c0,.22-.18.4-.4.4h0Zm25.95,14.4c-.15,0-.29-.08-.37-.23-.09-.2-.01-.44.19-.53,2.59-1.24,3.11-3,3.42-4.05.09-.3.17-.54.27-.73.24-.41.52-2.64.65-4.09,0-.1.05-.19.13-.26,1.28-1.19,1.17-3.92,1.17-3.95,0-.22.16-.41.39-.42.2,0,.41.16.42.38,0,.13.13,2.98-1.31,4.47-.07.86-.34,3.63-.75,4.29-.05.09-.13.31-.19.54-.32,1.1-.94,3.14-3.85,4.55-.05.03-.11.04-.18.04h.02Zm-5.77-7.13h-.38c-3.72-.07-5.91-3.91-6-4.07-.1-.19-.04-.44.16-.54.19-.1.44-.04.54.16.02.03,2.07,3.6,5.32,3.66,3.18.05,4.89-.5,7.19-4.14.11-.19.37-.24.55-.13s.24.37.13.55c-2.18,3.46-3.9,4.53-7.51,4.53v-.02Z"
  />
  <path
    d="m187.48,166.99h-.01c-.22,0-.4-.2-.39-.42.04-1.03-.29-2.9-.29-2.92-.04-.22.1-.43.32-.46.23-.04.43.1.47.32.01.08.35,1.97.31,3.09,0,.22-.19.39-.4.39h-.02Zm-6.29,6.03c-1.06,0-3-.85-3.64-1.14-.2-.09-.29-.32-.2-.53s.32-.29.53-.2c1.34.61,3.03,1.19,3.44,1.05.75-.25,3.9-2.6,4.16-3.03.03-.22.22-.32.45-.29.22.03.35.28.32.5-.11.75-4.09,3.39-4.67,3.58-.1.03-.23.05-.38.05h-.02Zm-6.68-1.65h-.03c-1.36-.09-2.79-2.62-3.06-3.12-.1-.2-.03-.44.16-.54.2-.1.44-.03.54.16.59,1.1,1.73,2.66,2.41,2.7.22.01.39.21.38.43-.01.21-.19.38-.4.38Zm9.85-7.01c-1,0-1.92-1.18-2.03-1.34-.14-.18-.09-.43.08-.56s.43-.09.56.08c.32.43,1.15,1.23,1.62.96.68-.39,1-2.22.93-3.77-.05-1.19-1.27-3.39-1.72-3.9-.26.25-1.03,1.28-1.07,1.85-.06.77,0,3.07,0,3.09,0,.13-.05.25-.16.32l-.87.67c-1.12,1.18-2.6.94-3.21.65-.2-.09-.28-.33-.19-.53s.33-.28.53-.19c.06.03,1.3.57,2.34-.51l.75-.58c-.01-.59-.05-2.3,0-2.97.07-.87,1.28-2.63,1.93-2.63.77,0,2.4,3.35,2.46,4.72.06,1.36-.15,3.82-1.34,4.5-.21.11-.41.17-.62.17h0Zm-12.9-1.91h-.04c-2.66-.26-2.83-.55-2.93-.74-.06-.11-.07-.28-.02-.41.09-.2.33-.28.53-.19.06.03.11.08.16.14.15.06.66.23,2.34.39.22.02.39.22.35.44-.02.21-.2.37-.4.37h.01Zm-3.56-57.13c-.14,0-.27-.07-.34-.2-1-1.76-2.13-1.94-2.17-1.95-.22-.03-.38-.23-.34-.45s.23-.37.44-.34c.06,0,1.54.21,2.76,2.35.1.19.04.44-.15.54-.06.03-.13.05-.2.05Z"
  />
  <path
    d="m169.64,105.29c-.11,0-.23-.05-.3-.14-.21-.24-.87-.45-1.27-.51-.22-.03-.37-.24-.33-.46s.23-.38.46-.33c.13.02,1.27.22,1.75.78.15.17.13.42-.04.56-.07.06-.17.09-.26.09Zm-40.21,31.34c-.2,0-.37-.15-.4-.34-2.41-17.25-6.25-21.24-6.28-21.29-.16-.16-.16-.41,0-.56s.41-.16.56,0c.17.16,4.06,4.12,6.52,21.74.03.22-.13.42-.34.45h-.06Zm8.14-12.37c-.17,0-.32-.1-.38-.28-1.88-5.83-7.04-10.73-7.1-10.77-.16-.15-.17-.41-.02-.56.16-.17.41-.17.56-.02.22.21,5.36,5.08,7.3,11.11.07.21-.04.44-.26.5-.04.01-.08.02-.13.02h.01Zm-29.59-7.71c-2.83,0-5.94-.33-6.14-.35-.22-.02-.38-.22-.35-.44s.23-.38.44-.35c.07,0,7.21.78,9.57.02.21-.06.44.05.5.26.07.21-.04.44-.26.5-.87.28-2.29.38-3.77.38h.01Z"
  />
  <path
    d="m109.43,119.2c-.66,0-1.86-.58-4.11-1.98-.17-.1-.3-.19-.37-.23-.19-.11-.26-.35-.15-.54.1-.19.35-.26.54-.15.07.04.21.13.4.24,2.76,1.71,3.51,1.91,3.7,1.87.42-.16,1.11-1.01,1.44-1.51.13-.19.38-.23.55-.11.19.13.23.38.11.55-.1.16-1.03,1.51-1.84,1.82-.08.03-.18.04-.28.04h-.01Zm-1.03,4.27c-2.92,0-6.76-2.62-8.86-4.24l-.13-.09c-.18-.13-.23-.38-.1-.55.13-.18.35-.23.54-.11.02.01.07.05.17.13,3.6,2.78,6.78,4.26,8.75,4.06.21-.03.42.14.44.35s-.14.42-.35.44c-.15.01-.3.02-.46.02Zm-6.99,5.94c-.24,0-.49,0-.75-.02-.22-.01-.39-.2-.38-.42.01-.22.18-.4.42-.38,5.64.32,8.49-3.35,9.42-4.56.3-.4.41-.52.61-.56.21-.04.43.09.47.31.03.18-.05.34-.2.43-.05.06-.14.17-.25.31-.96,1.23-3.79,4.89-9.36,4.89h.02Zm16.41,14.58c-.17,0-.32-.1-.39-.28-1.68-5.23-4.14-7.75-4.16-7.77-.16-.16-.16-.41,0-.56s.41-.16.56,0c.1.1,2.62,2.66,4.36,8.1.06.21-.05.44-.26.5-.04.01-.08.02-.13.02h.01Z"
  />
  <path
    d="m124.56,146.71c-.15,0-.28-.07-.35-.22-.41-.77-.99-1.49-1.22-1.51-.46-.04-1.23-.72-3.16-2.59-.59-.57-1.35-1.29-1.51-1.39-.55-.27-.65-1.22-.74-2.22-.04-.39-.07-.75-.14-.97-.17-.4-2.25-1.89-4.09-3.04-.19-.11-.24-.37-.13-.55s.37-.24.55-.13c1.26.78,4.23,2.7,4.44,3.51.07.28.11.68.16,1.1.04.47.14,1.44.31,1.59.24.11.75.61,1.7,1.52.81.79,2.34,2.26,2.7,2.37.79.08,1.61,1.5,1.84,1.94.1.2.03.44-.17.54-.06.03-.13.04-.19.04h-.01Z"
  />
  <path
    d="m126.22,145.79h-.02c-.22-.01-.39-.21-.38-.43.05-.86-1.37-3.71-2.46-4.68-1.03-.92-3.27-3.52-3.75-4.09-.57-.11-2.75-.61-3.63-1.29-.88-.69-2.56-1.41-2.58-1.41-.2-.08-.3-.32-.21-.52.08-.2.32-.3.52-.21.07.03,1.79.76,2.75,1.52.7.55,2.71,1.03,3.43,1.17.09.02.17.06.23.14.02.03,2.66,3.14,3.77,4.11,1.15,1.01,2.82,4.06,2.73,5.34-.01.21-.19.38-.4.38l-.02-.02Z"
  />
  <path
    d="m111.62,149.12c-.07,0-.15-.02-.21-.06-.19-.11-.25-.37-.14-.55,3.07-5.05,1.44-11.03,1.42-11.08-.01-.04-.02-.08-.01-.13.2-3.79-1.42-7.65-1.44-7.69-.03-.08-.04-.18-.02-.26.35-1.31-.38-3.06-.39-3.07-.04-.09-.04-.21,0-.3,0-.02,1-2.6,1.13-2.98.03-.1-.06-.49-.13-.74-.09-.4-.21-.85-.18-1.23.03-.5.25-1.05.44-1.55.09-.24.18-.47.23-.66.07-.24-.13-.64-.3-1-.13-.25-.25-.5-.33-.77-.24-.8.74-1.36,1.26-1.59.01-.45.04-1.39,0-1.96-.04-.47-.72-1.29-1.15-1.7-.16-.16-.17-.41,0-.56.16-.16.41-.17.56,0,.14.13,1.31,1.29,1.39,2.21.06.81,0,2.25,0,2.32,0,.16-.11.3-.26.35-.56.21-1.06.58-1.02.71.06.21.17.43.28.65.24.49.51,1.04.35,1.59-.06.22-.16.46-.25.73-.17.45-.37.95-.39,1.33-.02.26.07.65.16.98.11.47.21.87.1,1.18-.11.35-.87,2.31-1.09,2.87.19.48.69,1.99.39,3.31.28.71,1.62,4.25,1.45,7.86.19.71,1.59,6.53-1.52,11.65-.07.13-.21.19-.34.19v-.02Zm1.73-33.4h.01-.01Z"
  />
  <path
    d="m114.95,152.58h-.08c-.22-.04-.35-.26-.3-.48.96-4.5-1.03-9.65-1.04-9.7-.08-.21.02-.44.23-.52.21-.08.44.02.52.23.08.22,2.1,5.44,1.09,10.16-.04.19-.21.31-.39.31h-.02Zm-7.06,2.4c-.1,0-.22-.04-.29-.14-.15-.17-.14-.42.03-.56,1.93-1.75,3.35-11.24,3.24-12.19-.06-.11-.06-.26.01-.39.11-.19.37-.25.55-.14.2.13.22.34.23.43.11,1.2-1.35,10.91-3.51,12.88-.07.07-.18.1-.27.1Zm-8.87-36.73h-.07c-.22-.04-.37-.25-.32-.46.14-.81-.04-2.64-.21-4.26-.14-1.31-.25-2.45-.19-2.99.15-1.24,1.98-2.98,2.19-3.18.16-.15.42-.15.56.02.15.16.15.42-.02.56-.71.66-1.86,1.97-1.94,2.69-.05.45.06,1.6.19,2.82.18,1.74.37,3.55.21,4.48-.03.2-.2.33-.4.33h0Z"
  />
  <path
    d="m109.63,157.08c-1.51,0-2.93-.48-4.19-1.44-3.92-2.97-7.16-13.56-7.75-16.03-.75-3.11-.37-6.56-.28-7.19-.81-2.47-.17-5.79-.01-6.52-.15-.33-.46-1.24-.72-3.33-.34-2.74,1.47-6.78,1.55-6.95.09-.2.32-.29.53-.2.2.09.29.32.2.53-.02.04-1.81,4-1.48,6.52.31,2.48.69,3.17.69,3.18.05.08.06.2.04.29,0,.04-.89,3.79,0,6.31.02.06.03.13.02.19,0,.04-.52,3.77.25,6.98.77,3.23,3.99,12.95,7.46,15.58,4,3.04,8.67-.06,11.1-2.18,3.51-3.07,5.27-4.6,5.85-5.6.41-.71,1.36-1.2,2.19-1.63.49-.25,1-.52,1.2-.74.19-.21.41-.7.62-1.18.41-.92.81-1.87,1.52-2.13.2-.08.44.03.51.23.07.21-.03.44-.24.51-.39.15-.78,1.04-1.06,1.7-.24.55-.47,1.09-.75,1.39-.29.32-.81.59-1.42.91-.73.39-1.57.81-1.87,1.33-.62,1.06-2.19,2.46-6.02,5.8-2.78,2.42-5.48,3.65-7.91,3.65h-.03Zm2.24-43.77c-1.1,0-3.29-.28-7.83-1.43-3.11-.78-4.32-2.46-4.36-2.54-.13-.18-.08-.43.09-.55.18-.13.43-.08.55.09,0,.01,1.11,1.51,3.9,2.22,7.06,1.78,8.17,1.4,8.33,1.3.19-.11.44-.06.55.13s.06.44-.13.55c-.13.07-.34.22-1.13.22h.01Z"
  />
  <path
    d="m100.95,109.51c-.22,0-.4-.18-.4-.4,0-1.39.05-8.35,1.17-9.6,1.35-1.52,11.07.52,11.16.54,1.12.27.79,2.46.67,3.13-.04.22-.24.35-.47.32-.22-.04-.37-.25-.32-.47.22-1.16.11-2.16-.06-2.2-1.89-.46-9.6-1.67-10.38-.79-.7.79-.97,5.98-.97,9.07,0,.22-.18.4-.4.4Z"
  />
  <path
    d="m113.56,103.18c-.05,0-.11-.01-.17-.03-.2-.09-.29-.32-.2-.53,0,0,.27-.67-.03-2.16-.23-1.15-.79-1.26-2.91-1.51l-.8-.09c-2.42-.31-4.48.85-4.5.86-.19.11-.44.04-.54-.15s-.04-.44.15-.54c.09-.05,2.3-1.29,5-.95l.8.09c2.02.24,3.24.39,3.6,2.15.34,1.74.01,2.56-.03,2.64-.06.15-.21.24-.37.24h0Z"
  />
  <path
    d="m111.27,109.51c-.13,0-.25-.06-.32-.17-.13-.18-.08-.43.09-.55.32-.24,2.3-2.83,2.12-4.52-.15-1.41-6.51-3.08-7.28-3.13-.22.02-.4-.14-.42-.37-.02-.22.16-.42.39-.44h.01c.48,0,7.86,1.6,8.1,3.85.22,2.1-2.01,4.95-2.46,5.25-.07.05-.15.07-.23.07h.01Z"
  />
  <path
    d="m109.19,110.38c-.52,0-1.15-.08-1.57-.42-.11-.09-.18-.25-.14-.4,0-.03.16-.69.73-1.48.34-.47.04-.81.02-.83-.15-.17-.14-.42.03-.56s.42-.14.56.03c.26.29.59,1.04.02,1.84-.26.37-.42.69-.51.91.45.17,1.17.14,1.58.06.88-.31,1.47-.81,1.71-1.46.39-1.07-.3-2.26-.38-2.4-.33-.48-4.05-1.86-4.51-1.94-.22,0-.38-.18-.38-.4s.21-.4.43-.4c.37,0,4.64,1.5,5.14,2.33.17.27.95,1.69.45,3.09-.32.89-1.07,1.54-2.25,1.96-.1.02-.49.08-.96.08h.01Z"
  />
  <path
    d="m107.35,111.89c-.18,0-.34-.11-.39-.3-.05-.21.06-.42.26-.48.13-.05.33-.34.26-1.09-.02-.22.14-.42.35-.44.23-.03.42.14.44.35.17,1.63-.73,1.91-.82,1.94-.03,0-.07.01-.1.01Z"
  />
  <path
    d="m107.69,109.58c-.93,0-1.91-.72-2.05-.81-.18-.14-.21-.39-.08-.56.14-.18.39-.21.56-.08.3.23,1.26.82,1.82.62.4-.15.52-.28.55-.32,0-.08.03-.16.09-.23.07-.09.19-.15.31-.15.24,0,.95-.06,1.29-.32.18-.14.43-.09.56.08.14.18.09.43-.08.56-.45.33-1.11.44-1.49.47-.14.21-.41.45-.95.66-.17.06-.35.09-.54.09Zm6.08-2.54h-.08c-.22,0-.4-.19-.4-.41s.18-.4.4-.4h.07c.79,0,1.21-.27,1.42-.49.21-.22.31-.51.29-.79-.03-.35-.97-1.25-1.84-1.86-.18-.13-.22-.38-.09-.55.13-.18.38-.22.55-.09.49.34,2.1,1.53,2.17,2.44.04.51-.14,1.02-.5,1.41-.32.34-.93.74-2,.74h.01Zm-2.16,6.1c-.07,0-.15-.02-.22-.06-.19-.11-.24-.37-.11-.55.51-.78.97-3.55,1.11-4.54.03-.22.22-.37.45-.34.22.03.38.23.34.45-.05.39-.53,3.79-1.23,4.86-.07.11-.21.19-.33.19Zm65.67,53.84c-.35,0-.7-.1-1.01-.32-1.15-.78-1.26-2.37-1.37-3.77-.03-.46-.06-.89-.14-1.24,0-.05-.75-5.08.29-5.36.5-.14,2.12.16,2.7.66.34.29.43,1.01.54,2.7.06.89.14,1.9.29,2.23.42.9.64,2.03.64,2.5,0,.22-.18.4-.4.4s-.4-.18-.4-.4c0-.34-.19-1.36-.56-2.17-.22-.47-.29-1.46-.37-2.51-.05-.78-.14-1.96-.29-2.17-.31-.26-1.38-.48-1.81-.48h-.01c-.16.61-.1,3.03.16,4.47.07.41.1.86.15,1.33.09,1.22.2,2.6,1.02,3.16.24.17.49.22.77.16.79-.16,1.59-1.13,1.93-1.66.11-.19.37-.24.55-.13s.24.37.13.55c-.19.29-1.18,1.76-2.44,2.01-.13.02-.25.04-.38.04h-.01Z"
  />
  <path
    d="m174.14,167.36c-.16,0-.32-.01-.49-.04-1.03-.16-1.23-1.13-1.45-2.16-.15-.72-.31-1.54-.77-2.3-.72-1.18-.91-2.56-.51-3.59.26-.68.76-1.15,1.41-1.34.29-.08.59-.04.89.13,1.22.7,2.01,3.69,2.1,4.03.05.22-.07.43-.29.49-.21.05-.43-.07-.49-.29-.29-1.15-1.02-3.13-1.72-3.54-.13-.07-.21-.06-.26-.05-.5.15-.76.54-.88.86-.31.8-.15,1.91.45,2.88.52.87.72,1.79.87,2.55.21,1.03.34,1.47.78,1.53,1.1.17,1.69-.44,1.72-.46.16-.16.41-.16.56-.01.16.16.17.4.02.56-.03.03-.71.74-1.93.74h0Z"
  />
  <path
    d="m173.45,166.99c-.06,0-.13-.01-.19-.05-.37-.2-.58-.49-.81-.8-.27-.37-.57-.77-1.2-1.14-.75-.43-1.55-.59-2.33-.75-.42-.08-.82-.17-1.2-.28-1.16-.37-2.26-1.6-2.32-1.65-.15-.17-.14-.42.03-.56s.42-.14.56.03c0,.01,1.01,1.13,1.95,1.42.34.1.72.19,1.12.26.8.16,1.71.34,2.57.85.76.44,1.14.95,1.44,1.35.2.26.35.47.55.58.2.1.27.34.16.54-.07.14-.21.21-.35.21h.02Zm4.11,1.47c-1.75,0-3.12-.54-3.2-.57-.21-.08-.3-.31-.22-.52s.32-.3.52-.22c.02,0,2.57,1,5,.19,1.27-.43,1.73-1.02,2.22-1.66.47-.62.96-1.25,2.09-1.72.43-.18.83-.37,1.25-.55,1.75-.78,3.41-1.52,5.47-1.75l.69-.07c1.76-.18,3.16-.32,3.16-.93,0-.87-.34-1.24-.35-1.25-.15-.16-.15-.41.01-.56.16-.15.41-.15.56,0,.06.06.58.62.58,1.82,0,1.33-1.63,1.49-3.87,1.72l-.69.07c-1.93.21-3.53.93-5.23,1.68-.42.19-.83.38-1.26.55-.93.4-1.34.92-1.76,1.47-.52.67-1.11,1.43-2.61,1.93-.8.27-1.61.37-2.34.37l-.02.02Z"
  />
  <path
    d="m148.04,204.83c-7.05,0-12.13-.96-12.89-1.11-.15-.03-.33-.06-.55-.09-1.34-.21-3.57-.56-3.57-2.03,0-1.34.2-3.47.2-3.57,0-.06.02-.13.06-.18,1.28-2.01.56-4.31.55-4.33-.02-.07-.02-.15,0-.23,0-.03.72-2.78.78-3.99.02-.43-.25-1.41-.54-2.44-.5-1.78-1.13-4.01-.91-5.59.33-2.46.39-3.54,0-5.39-.27-1.3-.17-5.75-.07-9.67.04-2.01.08-3.75.06-4.63-.06-2.5-2.54-13.4-2.97-14.15-.41-.69-.16-1.55.11-2.46.13-.45.26-.91.33-1.37.18-1.27-.3-2.69-.72-3.23-.29-.38-.48-.73-.79-1.34-.23-.43-.52-1-.97-1.79-.64-1.12-2.12-2.23-3.43-3.21-.78-.58-1.52-1.14-1.98-1.63-1.06-1.13-7.72-3.62-8.35-3.75-.18,0-.33-.11-.39-.29-.06-.21.06-.44.27-.49.54-.17,7.89,2.76,9.04,3.98.42.44,1.13.98,1.88,1.54,1.38,1.03,2.93,2.2,3.64,3.46.46.8.76,1.38.99,1.82.3.57.47.9.71,1.21.5.65,1.11,2.26.88,3.84-.07.51-.22,1-.35,1.47-.23.77-.42,1.44-.19,1.84.59,1,3.02,12.03,3.08,14.52.02.91-.02,2.65-.06,4.67-.08,3.68-.2,8.27.05,9.48.41,1.97.37,3.14.01,5.67-.2,1.42.41,3.56.89,5.27.33,1.19.61,2.14.57,2.69-.06,1.17-.65,3.51-.78,4.04.15.53.64,2.74-.63,4.8-.04.43-.19,2.25-.19,3.4,0,.79,1.96,1.1,2.9,1.24.23.03.43.06.58.09,1.03.21,10.44,1.98,21.88.53,5.39-.69,10-.92,13.69-1.12,4.26-.22,7.32-.38,9.22-1.06,2.21-.8,4.23-1.22,5.55-1.5.65-.14,1.33-.27,1.46-.37.07-.26-.33-2.2-.77-2.69-.25-.29-.4-1.12-.75-3.61-.42-2.91-1.04-7.3-2.1-9.13-.04-.06-.05-.15-.05-.22.16-3.45-.09-6.63-.54-6.93-3.07.3-4.25-.47-6.58-2.01-.47-.31-1-.66-1.61-1.03-3.64-2.27-4.43-8.56-4.47-8.83-.03-.22.13-.42.34-.45.23-.03.42.13.45.34,0,.06.78,6.17,4.1,8.24.61.38,1.14.73,1.62,1.04,2.25,1.48,3.29,2.16,6.12,1.9.15-.01.37.01.58.22.99.95.85,6.11.79,7.42,1.1,2,1.7,6.22,2.14,9.31.2,1.39.43,2.96.57,3.21.52.58,1.28,3.21.7,3.8-.21.21-.61.3-1.84.55-1.31.27-3.29.69-5.45,1.47-2.01.73-5.13.9-9.46,1.12-3.68.19-8.26.43-13.64,1.11-3.3.42-6.43.57-9.24.57v.04Zm7.47-105.53c-2.89,0-9.33-3.85-10.64-6.92-1.11-2.59-1.38-5.08-1.48-6.15-.02-.2-.03-.34-.05-.4-.03,0-.24-.05-.42-.05-.22,0-.4-.18-.4-.4s.18-.4.4-.4c.17,0,1.03.03,1.19.66.02.07.04.25.06.51.1,1.03.37,3.44,1.43,5.92,1.3,3.05,7.76,6.59,10.06,6.43.09,0,9.86-.8,11.23-10.51.02-.11.08-.22.19-.28s.22-.07.33-.04c.37.13,1,.22,1.25.04.4-.26.91-.85,1.34-3.04.14-.67.3-1.2.43-1.63.31-1,.46-1.51-.07-2.6-.09-.2-.01-.44.19-.53s.44-.01.53.18c.68,1.38.44,2.14.11,3.18-.14.43-.28.92-.41,1.54-.49,2.46-1.13,3.17-1.68,3.55-.44.29-1.06.24-1.49.17-1.36,7.92-8.34,10.5-11.89,10.75h-.21.01Z"
  />
  <path
    d="m167.28,88.45h-.07c-.22-.04-.37-.25-.32-.46.37-2.1,1.75-2.08,1.82-2.07.22,0,.4.2.39.42,0,.22-.15.4-.42.39-.02,0-.76.02-1,1.4-.03.2-.2.33-.4.33h.01Zm-11.31-6.22c-.22,0-.4-.18-.4-.4,0-1.91-.27-4.71-.28-4.74-.02-.22.14-.42.35-.44.22-.03.42.14.44.35.01.11.28,2.87.28,4.82,0,.22-.18.4-.4.4Zm-.28,2.93c-.17,0-.32-.1-.38-.27-.09-.25-.56-.13-.56-.13-.21.06-.44-.06-.49-.27-.06-.21.06-.43.27-.49.42-.13,1.27-.15,1.54.64.07.21-.04.44-.25.51-.04.01-.08.02-.13.02h-.01Zm1.33,0c-.16,0-.3-.08-.37-.23-.09-.2,0-.44.2-.53.03-.01.8-.37,1.58-.24.22.03.37.24.33.46-.03.22-.24.37-.46.33-.53-.08-1.12.18-1.13.18-.05.02-.1.03-.17.03h.01Zm2.46,4.97c-.44,0-1.01-.03-1.71-.07-.52-.03-1-.04-1.33-.06-.24,0-.56.01-.91.02-1.02.03-2.31.07-3.27-.02-1.28-.13-1.63-1.06-1.63-1.53,0-.22.18-.4.4-.4s.4.18.4.4c0,.11.06.67.91.75.91.09,2.21.05,3.16.02.35-.01.68-.02.93-.02.37.01.83.03,1.38.06.76.04,2.02.13,2.26.03.21-.09.63-.61.88-1.03.11-.19.37-.25.55-.14s.25.35.14.55c-.11.19-.7,1.13-1.25,1.36-.18.07-.48.1-.91.1v-.02Zm-8.04-1.67h.01-.01Zm5,3.72c-1.38,0-2.76-.4-2.83-.42-.21-.06-.33-.28-.27-.5.06-.21.28-.33.5-.27.01,0,1.35.39,2.6.39s2.06-.37,2.06-.37c.2-.09.44,0,.53.2s0,.44-.2.53c-.04.02-.98.44-2.39.44Zm-10-13.8c-.18,0-.33-.11-.39-.29-.06-.21.06-.44.27-.5.56-.17,5.49-1.55,7.01.11.15.17.14.42-.02.56-.17.15-.42.14-.56-.02-.9-.98-4.28-.45-6.19.11-.04.01-.07.02-.11.02h-.01Zm18.67.67c-.06,0-.13-.02-.19-.05-3.63-1.96-4.73-.42-4.74-.41-.11.18-.37.24-.55.11-.19-.11-.24-.35-.13-.54.06-.09,1.44-2.23,5.8.13.2.1.27.34.16.54-.07.14-.21.21-.35.21h0Z"
  />
  <path
    d="m151.15,78.72s-.1,0-.17-.01c-.67-.08-1.24-.74-1.3-.81-.15-.17-.11-.42.05-.56s.42-.13.56.05c.16.19.52.5.79.53.01,0,.15.02.16-.02.03-.22.24-.35.46-.31.22.03.37.25.32.47-.05.29-.32.68-.88.68h0Zm10.49.33c-.7,0-1.09-.58-1.21-.94-.07-.21.04-.44.25-.51s.44.04.51.24c0,.02.16.41.45.41s.46-.4.46-.4c.07-.21.3-.32.51-.25s.32.3.25.51c-.13.34-.51.94-1.21.94h-.01Zm4.8-3.87c-.05,0-.11-.01-.17-.03-.26-.11-.66-.28-1.12-.44-1.61-.26-4.16.2-5.22.47-.15.04-.29-.01-.4-.13-.09-.11-.13-.27-.07-.41.21-.54.58-.93,1.15-1.16,1.35-.55,3.45,0,4.78.46.51.09.97.26,1.3.53.16.13.2.35.09.52-.07.13-.21.19-.34.19h-.01Zm-21,0c-.1,0-.22-.04-.29-.13-.13-.14-.14-.34-.03-.5.07-.1.22-.2.42-.28,1.16-.61,5.37-2.6,7.45-.68.11.11.16.28.1.44-.05.16-.2.25-.37.26-2.65.08-5.68.33-6.68.63-.25.13-.4.21-.41.21-.06.03-.14.05-.2.05Zm5.13-1.61c-.28,0-.56.02-.86.07.34-.02.7-.04,1.05-.06h-.2Zm-5.13,28.94c-.13,0-.25-.06-.32-.17-.13-.18-.08-.43.1-.55.98-.68,1.03-4.6.82-6.91-.02-.22.15-.42.37-.43.21-.02.42.15.44.37.05.66.5,6.47-1.17,7.63-.07.05-.15.07-.23.07h-.01Zm20.61,3.53c-.16,0-.31-.09-.38-.25-.08-.21.02-.44.22-.52.03-.04.08-.23.11-.43-3.79-2.58-2.23-9.34-2.16-9.63.05-.22.26-.34.48-.29.22.05.34.27.29.48-.02.06-1.55,6.74,2.01,8.9.13.07.21.22.19.38-.02.33-.14,1.14-.65,1.35-.05.02-.09.03-.15.03h.02Z"
  />
  <path
    d="m149.73,108.05h-.07c-1.89-.35-4.38-3.17-4.86-3.74-.5-.58-.19-1.91-.08-2.3.05-.21.27-.34.49-.28.21.06.33.28.28.49-.18.66-.22,1.41-.08,1.57.27.32,2.74,3.15,4.4,3.46.22.04.37.25.32.47-.03.19-.21.32-.4.32Zm-4.81-12.53c-.05,0-.11-.01-.17-.03-.16-.07-.25-.24-.23-.41l.31-2.89c.02-.22.2-.39.44-.35.22.02.38.22.35.44l-.19,1.69.24-.25c.15-.16.41-.17.56-.02s.17.41.02.56l-1.05,1.14c-.07.08-.19.13-.29.13Z"
  />
  <path
    d="m111.62,128.65h-.06c-.22-.03-.37-.24-.33-.46.23-1.35,2.44-3.83,3.19-4.28.43-.29,3.32-3.96,5.84-7.29.09-.37.47-1.84,1.03-2.71.62-.96,6.1-4.33,7.2-4.99,3.98-1.36,12.34-5.33,12.88-6,.39-.71,1.51-.83,2.07-.86.42-.91,1.76-1.22,1.94-1.26.22-.05.43.09.47.3.04.22-.09.43-.3.47-.33.07-1.33.41-1.42.94-.03.2-.19.34-.41.33-.55,0-1.47.1-1.66.46-.53.97-10.02,5.23-13.23,6.32-2.39,1.46-6.46,4.08-6.87,4.71-.55.87-.94,2.53-.95,2.55-.01.05-.03.1-.07.15-1.26,1.67-5.44,7.16-6.11,7.56-.59.35-2.64,2.66-2.82,3.72-.03.2-.2.33-.4.33h.01Zm31.61-43.86c-.11,0-.22-.05-.3-.14-.65-.74-1.24-2.44-1.59-3.57-.04.18-.08.38-.11.57-.03.18-.17.3-.34.32-.18.03-.34-.07-.42-.23-.24-.53-.4-1.66-.48-2.57l-.62,1.06c-.1.18-.31.25-.5.17-.19-.07-.28-.27-.24-.47.49-1.96.39-2.59.14-4.09-.15-.86-.33-2.02-.48-3.85-.29-3.71,1.61-7.58,2.72-9.46l-.54.26c-.15.07-.32.04-.44-.06-.13-.1-.17-.28-.11-.43.54-1.55,4.38-5.31,5.71-6.58l-.86-.47c-.14-.07-.21-.21-.21-.35,0-.06.02-.14.05-.19.1-.2.34-.26.54-.16s1.36.57,5.87-1.1c4.71-1.74,9.15.73,9.81,1.13.97.14,8.38,1.54,11.46,13.63l.77,1.52c.08.17.04.38-.11.5-.16.11-.37.1-.51-.02l-.49-.44c.35,1.02.71,2.38.71,3.67,0,2.32,0,5.2.42,6.38.06.19-.01.4-.19.49s-.4.04-.51-.11c-.06-.08-1.57-2.12-1.85-3.26-.05-.22.07-.43.29-.48.21-.05.43.07.49.29.09.37.35.88.67,1.4-.13-1.38-.13-3.11-.13-4.7,0-2.3-1.28-4.94-1.29-4.96-.08-.18-.03-.38.11-.5.16-.11.37-.1.51.02l.3.27c-3.15-11.97-10.76-12.9-10.83-12.91-.06,0-.13-.03-.17-.06s-4.57-2.81-9.18-1.1c-2.16.8-3.66,1.12-4.67,1.21.03.05.05.1.06.17.01.13-.03.25-.13.34-1.19,1.12-3.95,3.84-5.25,5.57l.61-.29c.17-.07.37-.03.48.1s.13.34.02.49c-.04.05-3.71,5.34-3.33,10.14.15,1.79.32,2.9.47,3.78.14.86.24,1.46.21,2.21l.17-.29c.09-.16.26-.23.44-.19.17.04.29.19.3.37.02.44.08,1.34.19,2.14.18-.33.32-.4.4-.42.1-.04.23-.04.33.01s.18.15.21.26c.14.53.45,1.62.82,2.6-.14-2.1-.19-5.3.63-7,.54-1.16.68-2.2.79-3.2.14-1.14.28-2.31,1.02-3.58,1.41-2.44,6.25-4.71,9.07-4.78.22,0,.4.18.4.39,0,.22-.17.41-.39.41-2.55.06-7.17,2.24-8.4,4.37-.66,1.13-.78,2.17-.92,3.28-.13,1.07-.26,2.18-.87,3.45-1.14,2.4-.38,8.51-.37,8.58.02.18-.07.34-.23.42-.05.02-.1.03-.17.03h.02Z"
  />
  <path
    d="m153.04,66.91c-.07,0-.15-.02-.22-.06-.15-.09-.22-.27-.18-.44.53-2.07,3.67-4.83,4.31-4.83.22,0,.4.18.4.4,0,.2-.15.37-.33.4-.34.15-1.78,1.31-2.75,2.62,2.2-1.74,4.9-3.67,5.7-3.39.21.07.31.3.24.51s-.3.32-.51.24c-.59-.05-3.79,2.3-6.42,4.47-.07.06-.17.09-.25.09h.02Z"
  />
  <path
    d="m165.17,66.91c-.14,0-.27-.07-.34-.21-1.46-2.61-8.28-2.08-8.36-2.08-.25.02-.42-.15-.43-.37s.15-.42.37-.43c.3-.02,7.41-.57,9.12,2.48.1.19.04.44-.16.54-.06.03-.13.05-.2.05Z"
  />
  <path
    d="m166.9,73.85c-.14,0-.26-.07-.33-.19-2.38-3.75-1.82-8.66-1.79-8.87.02-.22.22-.38.45-.34.22.03.38.23.34.45,0,.04-.47,4.07,1.17,7.43.2-.86.47-1.91.71-2.24.13-.18.39-.22.55-.09.18.13.22.38.09.55-.18.25-.55,1.74-.8,2.98-.03.16-.16.28-.32.31h-.07.01Z"
  />
  <path
    d="m168.13,85.65s-.06,0-.09-.01c-.19-.05-.31-.22-.3-.42.27-3.74.45-7.89.26-8.38l-.16-.3c-.39-.72-.91-1.71-.95-3.08,0-.22.17-.41.39-.42.19-.03.41.17.42.39.04,1.18.51,2.08.86,2.73l.17.32c.27.54.14,3.84-.02,6.47.3-.67.64-1.37.94-1.91.86-1.51,1.55-2.09,1.59-2.12.17-.14.43-.11.56.06.14.17.11.42-.06.56-.02.01-.64.53-1.39,1.89-.56,1-1.24,2.59-1.6,3.43-.1.24-.19.43-.23.53-.06.15-.21.23-.37.23h-.01Zm-24.4,2.44h-.04l-.8-.09c-.85-.09-1.31-1.3-1.72-2.38-.1-.27-.2-.52-.28-.69-.4-.78-.09-2.79-.03-3.17.03-.22.24-.37.46-.33s.37.24.33.46c-.14.87-.24,2.29-.03,2.69.09.19.2.45.31.76.21.54.7,1.83,1.06,1.87l.8.09c.22.02.38.22.35.44-.02.21-.2.35-.4.35h-.02Zm-2.13-11.11c-.17,0-.31-.1-.38-.26-1.42-3.84.37-7.89.45-8.07.09-.2.32-.29.53-.2.2.09.29.32.2.53-.02.04-1.73,3.92-.43,7.46.07.21-.03.44-.24.51-.04.02-.09.02-.14.02Zm28.98-2.37h-.03c-.22-.02-.39-.21-.37-.43.17-2.26-1.09-3.72-1.11-3.74-.15-.17-.13-.42.04-.56s.42-.13.56.04c.06.07,1.49,1.73,1.29,4.32-.01.21-.19.38-.4.38h0Zm-20.63-10.61c-.18,0-.33-.11-.39-.29-.16-.58,0-1.27.47-2.08.71-1.21,2.15-2.58,2.59-2.68.21-.05.43.07.48.29.05.21-.06.42-.26.48-.47.24-2.84,2.56-2.5,3.78.05.21-.07.43-.28.49-.03,0-.07.01-.1.01Zm13.94,0c-.2,0-.37-.15-.4-.34-.26-1.75-1.34-3.38-1.35-3.39-.13-.19-.07-.43.11-.55.18-.13.43-.07.55.11.05.07,1.18,1.78,1.47,3.71.03.22-.11.42-.33.46h-.06Zm-18.45,2.91c-.22,0-.4-.18-.4-.4,0-2.42,1.86-4.71,1.94-4.8.14-.17.4-.2.56-.05.17.14.2.4.05.56-.02.02-1.75,2.16-1.75,4.3,0,.22-.18.4-.4.4h-.01Zm-1.77-4.55s-.09,0-.15-.02c-.21-.07-.31-.31-.23-.51.98-2.59,4.94-3.96,5.1-4.02.21-.07.44.04.51.25.07.21-.04.44-.25.51-.04.01-3.77,1.31-4.61,3.55-.06.16-.21.26-.38.26v-.02Zm22.29-1.29c-.17,0-.32-.1-.38-.27-.97-2.74-3.86-3.1-3.98-3.11-.22-.02-.38-.22-.35-.44s.23-.39.44-.35c.15.01,3.51.42,4.64,3.64.07.21-.03.44-.24.51-.04.01-.09.02-.14.02Zm.73,12.03c-.16,0-.3-.09-.37-.25-.81-1.96.54-6.84.59-7.05.06-.21.27-.33.49-.28.21.06.33.28.28.49-.38,1.34-1.22,5.11-.63,6.52.08.21-.01.44-.22.52-.05.02-.1.03-.16.03v.02Zm-7.3-15.41c-.13,0-.26-.06-.33-.18-.01-.02-1.64-2.42-3.78-1.88-.21.05-.43-.07-.49-.29-.05-.22.07-.43.29-.49,2.7-.68,4.56,2.1,4.64,2.21.13.19.07.43-.11.55-.06.04-.15.06-.22.06h0Zm-6.67,6.31c-.19,0-.35-.14-.4-.32-.51-2.69,4.22-5.53,4.76-5.84.19-.11.44-.04.54.15.11.19.04.44-.15.54-1.34.77-4.72,3.18-4.37,5,.04.22-.1.43-.31.47h-.07Zm-12.09,5.23c-.21,0-.39-.17-.4-.38-.19-3.28,3.19-4.95,3.34-5.02.2-.09.44-.01.53.19.09.2.01.44-.19.53-.03.01-3.05,1.51-2.89,4.25.01.22-.16.41-.38.43,0,0-.02,0-.02,0Z"
  />
</svg>
