<svg xmlns="http://www.w3.org/2000/svg" viewBox="0 0 320 320">
  <path
    d="M155.23,123.63c-.15,0-.29-.06-.39-.19-.17-.22-.14-.53.08-.7.49-.39.86-.93,1.05-1.52.12-.36.18-.75.24-1.16.04-.29.09-.58.15-.87.39-1.74,1.6-3.26,3.18-4.08l-5.28-3.97c-.75-.56-1.49-1.19-1.64-2.15-.14-.92.35-1.69.78-2.37.24-.37.46-.72.58-1.08.09-.26.38-.4.64-.31.26.09.4.38.31.64-.16.47-.43.89-.68,1.29-.39.61-.72,1.13-.63,1.69.09.58.64,1.04,1.25,1.5l5.97,4.49c.15.11.22.3.19.48-.03.18-.16.33-.33.39-1.65.55-2.97,2.01-3.35,3.71-.06.26-.1.53-.14.79-.06.43-.13.88-.27,1.32-.25.77-.75,1.48-1.38,1.99-.09.07-.2.11-.31.11Z"
  />
  <path
    d="M155.35,123.59c-.24,0-.45-.17-.49-.41-.35-2.02-1.02-3.96-1.98-5.78l-.18-.33c-.25-.46-.51-.93-.69-1.45-.62-1.72-.42-3.78.6-6.28.1-.26.4-.38.65-.27.26.11.38.4.27.65-.93,2.26-1.12,4.08-.58,5.56.16.45.39.87.63,1.32l.18.34c1.01,1.91,1.71,3.95,2.08,6.08.05.27-.13.53-.41.58-.03,0-.06,0-.09,0Z"
  />
  <path
    d="M155.69,120.96c-.09,0-.18-.03-.26-.08-.39-.24-.54-.68-.39-1.15.06-.2.24-.34.45-.35.34-.03.67.22.78.58.11.37-.02.74-.32.92-.08.05-.17.07-.26.07ZM155.43,120.03c-.09.06-.14.16-.12.23.02.06.11.14.22.12v-.19s-.11-.16-.11-.16Z"
  />
  <path
    d="M165.06,124.18c-.19,0-.37-.11-.45-.29l-4.13-8.75c-.12-.25-.01-.55.24-.67.25-.11.55-.01.67.24l3.69,7.83c.88-1.57,2.04-2.95,3.16-4.3,1.19-1.42,2.42-2.89,3.27-4.53.13-.24.43-.34.67-.21.25.13.34.43.21.67-.9,1.73-2.16,3.25-3.39,4.71-1.36,1.63-2.65,3.17-3.49,5-.08.18-.23.27-.45.29Z"
  />
  <path
    d="M155.33,170.44c-.09,0-.18-.02-.26-.07-.24-.15-.31-.45-.16-.69.88-1.43,1.85-2.92,3.13-4.09.18-.16.36-.32.55-.48.32-.27.62-.53.89-.82.79-.85,1.29-1.96,1.76-3.12,3.27-7.93,5.39-16.27,6.32-24.79.12-1.14.23-2.28.33-3.42.23-2.52.46-5.13.93-7.67.42-2.27,1.04-4.52,1.63-6.69.5-1.84,1.03-3.75,1.42-5.64.46-2.21.81-5-.61-7.01-.15-.21-.11-.51.09-.68.2-.16.5-.15.68.04,2.97,3.15,6.1,6.24,9.29,9.16.12.11.18.27.16.43-.02.16-.11.3-.25.38-.84.47-1.55,1.15-2.06,1.97-.15.24-.46.31-.69.16-.23-.15-.31-.45-.16-.69.48-.77,1.11-1.43,1.84-1.95-2.4-2.22-4.77-4.52-7.05-6.87.34,1.77.06,3.66-.27,5.26-.4,1.92-.93,3.84-1.43,5.7-.59,2.16-1.2,4.39-1.61,6.61-.46,2.49-.69,5.08-.92,7.57-.1,1.15-.21,2.3-.33,3.44-.94,8.62-3.08,17.05-6.39,25.06-.51,1.25-1.05,2.44-1.96,3.42-.31.33-.64.62-.97.9-.18.15-.35.3-.52.46-1.19,1.09-2.07,2.46-2.95,3.88-.09.15-.26.24-.43.24Z"
  />
  <path
    d="M162.21,161c-.08,0-.15-.01-.22-.04-.22-.09-.39-.4-.35-.64.05-.25.27-.43.52-.41,1.37-2.2,2.58-4.52,3.6-6.91.43-.99.82-2,1.22-3l.42-1.06c1.71-4.29,3.64-8.53,5.5-12.64l4.93-10.85c1.7-3.75,2.53-5.57,3-6.42-1.84-1.17-4.6-3.22-8.42-6.22-.22-.17-.25-.48-.08-.7.17-.22.49-.25.7-.08,4.02,3.16,6.96,5.32,8.73,6.41.22.14.3.42.18.65-.03.05-.06.1-.1.13-.34.55-2.2,4.65-3.11,6.65l-4.93,10.85c-1.86,4.09-3.78,8.33-5.48,12.59l-.42,1.06c-.4,1.01-.8,2.03-1.23,3.03-1.07,2.5-2.35,4.93-3.78,7.22-.13.21-.41.38-.68.38Z"
  />
  <path
    d="M146.98,161.5c-.22,0-.42-.14-.48-.36-.64-2.15-1.26-4.34-1.85-6.52-1.41-4.42-1.75-9.39-1.95-13.69-.14-2.93-.23-5.95-.31-8.61l-.45-15.25c0-.21.12-.4.31-.48l9.56-3.88c.25-.1.55.02.65.28.1.26-.02.55-.28.65l-9.24,3.75.44,14.9c.08,2.66.17,5.68.31,8.59.2,4.24.53,9.12,1.92,13.45.59,2.19,1.21,4.38,1.85,6.51.08.26-.07.54-.34.62-.05.01-.1.02-.14.02Z"
  />
  <path
    d="M162.7,118.12c-.07,0-.13-.01-.2-.04-1.07-.46-2.27-.58-3.62-.67-.23-.02-.3.01-.31.02-.14.24-.43.29-.67.15-.24-.14-.29-.47-.15-.7.32-.53.98-.48,1.2-.46,1.44.1,2.73.23,3.94.75.25.11.37.4.26.66-.08.19-.27.3-.46.3Z"
  />
  <path
    d="M159.5,117.43c-.08,0-.15-.02-.22-.05-.24-.12-.34-.41-.23-.65.02-.05.04-.09.08-.13.39-.63,1.08-1.05,1.82-1.11.25-.03.45.13.52.35.07.22-.03.47-.23.58-.93.52-1.21.71-1.3.78-.09.15-.26.24-.43.24Z"
  />
  <path
    d="M159.43,116.63c-.11,0-.23-.04-.32-.12-.21-.18-.24-.49-.06-.7.49-.58,1.31-.84,2.04-.64.27.07.42.35.35.61-.07.27-.34.42-.61.35-.35-.09-.78.04-1.01.32-.1.12-.24.18-.38.18Z"
  />
  <path
    d="M162.07,124.19c-.06,0-.12-.01-.19-.04-1.17-.47-2.49-1-3.78-.79-.16.02-.34-.03-.45-.16-.11-.13-.16-.3-.11-.46.09-.35-.14-.79-.37-1.21l-.07-.13c-.29-.56-.53-1.14-.7-1.74-.08-.27.08-.54.34-.62.27-.08.54.08.62.34.15.53.36,1.06.62,1.55l.06.12c.2.37.42.79.49,1.26,1.08-.02,2.16.31,3.09.67.14-1.22.35-2.45.62-3.64.06-.27.34-.43.6-.38.27.06.44.33.38.6-.32,1.37-.54,2.77-.67,4.17-.01.16-.1.3-.24.38-.08.05-.17.07-.26.07Z"
  />
  <path
    d="M145.97,116.06c-.2,0-.38-.12-.46-.31l-.59-1.43c-.07-.18-.23-.55-.04-.93.12-.25.34-.38.47-.46,2.26-1.35,4.6-2.66,6.96-3.89.24-.13.55-.03.67.21s.03.55-.21.67c-2.33,1.22-4.66,2.51-6.91,3.86-.01,0-.04.02-.06.04.01.01.03.05.05.11l.59,1.43c.1.26-.02.55-.27.65-.06.03-.13.04-.19.04Z"
  />
  <path
    d="M154.94,171.06c-.14,0-.28-.06-.38-.18-.18-.21-.15-.53.06-.7.54-.46.52-1.39.18-2.03-.4-.77-1.17-1.34-1.85-1.85l-6.17-4.62c-.13-.1-.2-.25-.2-.41.28-11.88,1.2-23.88,2.72-35.67.51-3.93,1.11-8.1,2.42-12.07.09-.26.36-.41.63-.32.26.09.4.37.32.63-1.28,3.88-1.88,8-2.38,11.88-1.51,11.67-2.42,23.55-2.71,35.31l5.96,4.46c.73.54,1.64,1.22,2.14,2.19.52.99.54,2.43-.42,3.25-.09.08-.21.12-.32.12Z"
  />
  <path
    d="M148.78,159.8c-.12,0-.25-.04-.34-.13l-.17-.15c-.14-.13-.19-.33-.13-.51-.4-1.13-.76-2.27-1.07-3.42-.07-.27.08-.54.35-.61.27-.07.54.09.61.35.35,1.28.76,2.56,1.22,3.81.08.22,0,.46-.19.59-.08.06-.18.08-.28.08Z"
  />
  <path
    d="M155.6,169.53c-.25,0-.47-.19-.5-.45-.19-1.78-1.38-3.28-2.8-4.91l-5.24-6.03c-.18-.21-.16-.52.05-.71.21-.18.52-.16.71.05l5.24,6.03c1.25,1.44,2.8,3.23,3.04,5.46.03.27-.17.52-.44.55-.02,0-.04,0-.05,0Z"
  />
  <path
    d="M152.34,163.62s-.06,0-.09,0c-.27-.05-.45-.31-.4-.58.61-3.28.54-6.71.48-10.02-.06-3.12-.12-6.35.37-9.5.24-1.51.6-3.01.95-4.46.95-3.91,1.92-7.93,3.09-11.83l.1-.33c.4-1.34.82-2.72.91-4.1.02-.28.28-.49.53-.47.28.02.48.26.47.53-.1,1.5-.53,2.93-.95,4.33l-.1.33c-1.16,3.88-2.13,7.88-3.07,11.76-.35,1.45-.71,2.93-.94,4.41-.48,3.06-.42,6.25-.36,9.33.06,3.36.13,6.84-.49,10.22-.04.24-.25.41-.49.41Z"
  />
  <path
    d="M162.55,159.62s-.03,0-.05,0c-.27-.03-.47-.27-.45-.55.23-2.28-.15-4.63-.52-6.9-.2-1.23-.41-2.5-.52-3.76-.35-3.95.22-7.93.77-11.78.22-1.53.44-3.12.61-4.67.28-2.63.37-5.63-1.06-7.95-.14-.24-.07-.54.16-.69.24-.14.54-.07.69.16,1.58,2.57,1.49,5.78,1.2,8.57-.17,1.57-.39,3.17-.61,4.71-.54,3.79-1.1,7.71-.76,11.55.11,1.23.31,2.48.51,3.69.38,2.33.77,4.74.53,7.16-.03.26-.24.45-.5.45Z"
  />
  <path
    d="M151.51,152.46c-.08,0-.17-.02-.25-.06-.24-.14-.33-.44-.19-.68.1-.18.07-.44-.07-.65-.15-.21-.41-.38-.74-.47-.27-.07-.42-.35-.35-.62.07-.27.35-.42.62-.35.56.15,1.02.46,1.3.87.37.53.42,1.2.12,1.71-.09.16-.26.25-.44.25Z"
  />
  <path
    d="M150.15,161.04c-.16,0-.31-.07-.41-.21-.9-1.28-1.29-2.9-1.08-4.45.04-.27.29-.47.56-.43.27.04.47.29.43.56-.18,1.3.16,2.67.91,3.74.16.23.1.54-.12.7-.09.06-.19.09-.29.09Z"
  />
  <path
    d="M154.58,105.91c-.14,0-.28-.06-.37-.17-.18-.21-.16-.52.04-.71l.96-.85c.21-.18.52-.17.71.04.18.21.17.52-.04.71l-.96.86c-.1.08-.21.13-.33.13Z"
  />
  <path
    d="M147.97,163.2h0c-1.12,0-2.22-.62-2.81-1.57-.1-.16-.1-.37,0-.53.1-.16.28-.25.47-.24.58.05,1.15.17,1.69.35.1.03.18.1.25.18.04.06.11.12.18.2.21.21.5.51.68.88.07.16.06.34-.03.48-.09.14-.25.23-.42.23Z"
  />
  <path
    d="M147.18,162.33c-.22,0-.43-.15-.48-.38-.41-1.62-1.37-3.01-2.38-4.47-.63-.91-1.28-1.85-1.79-2.86-.81-1.61-1.26-3.35-1.69-5.03-.79-3.08-1.6-6.26-2.05-9.49-.15-1.06-.26-2.12-.37-3.19-.12-1.15-.24-2.33-.41-3.49-.34-2.28-.89-4.57-1.42-6.78-.43-1.78-.87-3.62-1.21-5.45-.23-1.29-.46-2.79-.16-4.26.34-1.66,1.32-2.98,2.64-3.53.53-.22,1.09-.31,1.63-.4.18-.03.35-.06.53-.09.85-.16,1.7-.45,2.51-.73l10.37-3.57c.27-.09.55.05.64.31.09.26-.05.55-.31.64l-10.37,3.57c-.85.29-1.73.6-2.65.77-.18.04-.37.06-.56.09-.5.08-.97.15-1.39.33-1,.42-1.78,1.49-2.05,2.81-.26,1.3-.05,2.69.16,3.89.33,1.81.77,3.63,1.19,5.39.54,2.23,1.1,4.55,1.44,6.87.17,1.18.3,2.37.42,3.53.11,1.05.21,2.1.36,3.15.44,3.17,1.25,6.32,2.03,9.38.42,1.63.85,3.32,1.61,4.83.48.95,1.11,1.86,1.72,2.75,1.02,1.47,2.07,3,2.52,4.79.07.27-.09.54-.36.61-.04.01-.08.02-.12.02Z"
  />
  <path
    d="M140.04,165.8c-.27,0-.49-.21-.5-.48-.16-4.05-.37-9.09,1.8-13.22.11-.2.33-.3.55-.26.22.05.38.24.39.46.18,3.77.89,6.92,2.17,9.65.12.25.01.55-.24.67-.25.12-.55,0-.67-.24-1.1-2.34-1.79-4.96-2.11-7.99-1.2,3.48-1.05,7.38-.9,10.89.01.28-.2.51-.48.52h-.02Z"
  />
  <path
    d="M145.85,170.66c-.18,0-.35-.06-.48-.17-.18-.15-.23-.41-.13-.61-.23-.07-.48-.12-.73-.18l-6.64-1.38c-.14-.03-.26-.11-.33-.23-.07-.12-.09-.26-.05-.4.71-2.37,1.35-4.79,1.91-7.2.06-.27.33-.44.6-.37.27.06.44.33.37.6-.53,2.25-1.12,4.52-1.77,6.74l6.11,1.27c.57.12,1.22.25,1.77.66.09.07.16.16.18.27.09.32-.06.67-.36.87-.14.09-.3.14-.46.14Z"
  />
  <path
    d="M142.87,175.99c-.38,0-.77-.08-1.1-.17-.79-.21-1.58-.5-2.28-.74l-3.9-1.38c-.13-.05-.24-.15-.29-.28-.05-.13-.05-.28.01-.41l2.38-5.01c.12-.25.42-.36.67-.24.25.12.36.42.24.67l-2.15,4.51,3.38,1.2c.68.24,1.45.52,2.21.72.46.12,1.04.24,1.4-.01.27-.18.42-.57.55-.94.49-1.43.87-2.92,1.12-4.41.04-.27.31-.46.57-.41.27.04.46.3.41.57-.26,1.55-.65,3.09-1.16,4.58-.18.51-.41,1.09-.92,1.44-.35.24-.74.32-1.13.32Z"
  />
  <path
    d="M140.35,200.49c-.29,0-.55-.08-.75-.15l-3.01-.98c-.28-.09-.62-.2-.9-.47-.3-.29-.43-.65-.53-.95-1.53-4.3-3.47-8.46-5.78-12.39-.06-.11-.08-.24-.06-.36.52-2.39,1.96-4.39,3.36-6.32,1.18-1.63,2.4-3.32,3.01-5.21.08-.26.37-.4.63-.32.26.08.41.37.32.63-.65,2.04-1.92,3.79-3.15,5.49-1.36,1.88-2.64,3.65-3.15,5.76,2.3,3.93,4.24,8.09,5.76,12.39.08.21.16.44.28.55.11.11.32.18.52.24l3.01.98c.17.05.36.12.49.1.11-.02.24-.09.37-.18,1.5-.95,2.83-2.14,3.94-3.52.63-.78,1.2-1.64,1.75-2.48l4.73-7.15c.83-1.25,1.69-2.55,2.31-3.93.67-1.5,1.09-3.13,1.49-4.72.07-.27.34-.43.61-.36.27.07.43.34.36.61-.41,1.62-.84,3.31-1.55,4.88-.65,1.46-1.53,2.79-2.38,4.07l-4.72,7.15c-.57.86-1.15,1.74-1.81,2.56-1.18,1.47-2.59,2.73-4.18,3.74-.22.14-.46.28-.76.33-.07.01-.14.02-.2.02Z"
  />
  <path
    d="M170.7,203.8c-2.68,0-4.65-.49-6.19-1.52-1.9-1.28-3.03-3.34-3.96-5.38-2.37-5.16-3.92-10.64-4.62-16.28-.04-.36-.08-.72-.13-1.08-.13-1.15-.26-2.34-.52-3.47-.08-.37-.18-.75-.28-1.12-.43-1.69-.88-3.44-.27-5.14.09-.26.38-.39.64-.3.26.09.39.38.3.64-.51,1.41-.12,2.94.3,4.55.1.39.2.77.28,1.15.27,1.19.4,2.4.54,3.58.04.36.08.71.12,1.06.68,5.54,2.21,10.92,4.53,15.99.87,1.9,1.92,3.82,3.61,4.96,1.37.92,3.16,1.35,5.63,1.35.04,0,.08,0,.11,0,.28,0,.5.22.5.5,0,.32-.3.5-.61.5Z"
  />
  <path
    d="M188.42,194.5c-.08,0-.17-.02-.25-.06-.35-.2-.46-.56-.51-.74-.89-2.88-.67-5.92-.45-8.86.2-2.67.4-5.44-.25-8-.07-.27.09-.54.36-.61.27-.07.54.09.61.36.7,2.72.49,5.57.28,8.32-.21,2.83-.41,5.52.29,8.1.04,0,.1,0,.15.01.27.06.43.33.37.6l-.11.49c-.04.15-.14.28-.29.34-.06.03-.13.04-.2.04Z"
  />
  <path
    d="M170.82,203.92c-.26,0-.48-.2-.5-.46-.02-.28.19-.51.46-.54,1.18-.08,2.31-.4,3.51-.73.49-.13.98-.27,1.48-.39,1-.24,2.03-.42,3.03-.59,1.09-.19,2.22-.38,3.3-.66,2.38-.61,4.16-1.61,5.29-2.95.3-.35.58-.76.86-1.24,2.28-3.94,2-9.27-.69-12.95-.16-.22-.11-.54.11-.7.22-.16.54-.11.7.11,2.91,3.99,3.22,9.76.74,14.04-.31.53-.62.99-.96,1.39-1.27,1.5-3.22,2.6-5.8,3.27-1.12.29-2.27.49-3.39.68-.98.17-1.99.34-2.96.57-.48.12-.97.25-1.45.38-1.2.33-2.43.67-3.71.76-.01,0-.02,0-.04,0Z"
  />
  <path
    d="M136.98,181.87c-.66,0-1.3-.07-1.9-.13-.27-.03-.47-.27-.45-.55.03-.28.28-.47.55-.45,1.08.11,2.19.23,3.22-.03.74-.19,1.45-.57,2.16-.99,3.03-1.75,5.97-3.73,8.73-5.88.22-.17.53-.13.7.09.17.22.13.53-.09.7-2.8,2.18-5.77,4.18-8.84,5.96-.78.45-1.55.87-2.42,1.09-.55.14-1.11.19-1.66.19Z"
  />
  <path
    d="M154.73,170.38c-.06,0-.11,0-.17-.03-.62-.22-1.07-.69-1.44-1.07l-2.85-2.95c-.19-.2-.19-.51.01-.71.2-.19.51-.19.71.01l2.85,2.95c.32.33.66.68,1.06.82.26.09.39.38.3.64-.07.2-.27.33-.47.33Z"
  />
  <path
    d="M156.23,172.92c-.11,0-.25-.01-.4-.08-.16-.08-.27-.19-.35-.29-.14-.17-.31-.37-.43-.62-.37-.71-.29-1.58.19-2.16.54-.66,1.56-.81,2.22-.33.13.1.25.22.36.36.31.42.46.95.4,1.47-.05.47-.28.92-.62,1.24-.05.11-.14.19-.25.24-.11.05-.21.07-.3.07-.23.04-.46.07-.69.09-.03,0-.07,0-.12,0ZM156.55,170.16c-.2,0-.42.09-.55.25-.22.27-.25.71-.07,1.06.08.16.2.3.3.43.26.02.41-.02.58-.05.23-.2.36-.45.39-.69.03-.26-.05-.54-.2-.75-.05-.06-.1-.12-.15-.15-.08-.06-.2-.09-.31-.09Z"
  />
  <path
    d="M163.17,161.62c-.24,0-.45-.17-.49-.41-.05-.27.13-.53.41-.58l1.68-.29c.26-.05.53.14.58.41.05.27-.14.53-.41.58l-1.68.29s-.06,0-.09,0Z"
  />
  <path
    d="M158.06,171.33c-.25,0-.46-.18-.49-.43-.04-.27.15-.53.43-.56l1.31-.18c.26-.04.53.15.56.43.04.27-.15.53-.43.56l-1.31.18s-.05,0-.07,0Z"
  />
  <path
    d="M177.84,121.15c-.08,0-.16-.02-.24-.06-.52-.29-1.03-.62-1.5-.99-.22-.17-.25-.48-.08-.7.17-.22.48-.26.7-.08.43.33.88.64,1.36.9.24.13.33.44.2.68-.09.17-.26.26-.44.26Z"
  />
  <path
    d="M171.91,140.55c-.23,0-.43-.15-.49-.38-.06-.27.1-.54.37-.6l4.14-1c.89-.21,1.79-.43,2.72-.54.2-.02.4-.04.59-.06.36-.03.73-.07,1.08-.14.5-.1,1.04-.27,1.69-.56.78-.34,1.53-.74,2.24-1.2l-.16-1.66c-3.46.72-6.94,1.52-10.35,2.39-.27.07-.54-.09-.61-.36-.07-.27.09-.54.36-.61,3.6-.92,7.28-1.76,10.93-2.51.14-.03.28,0,.4.09.11.08.19.21.2.35l.25,2.51c.02.18-.07.36-.22.46-.83.56-1.72,1.04-2.64,1.45-.72.32-1.33.52-1.9.63-.39.08-.78.11-1.18.15-.19.02-.38.04-.57.06-.87.1-1.75.32-2.6.52l-4.15,1s-.08.01-.12.01Z"
  />
  <path
    d="M156.63,169.05c-.17,0-.33-.09-.43-.24-.14-.24-.07-.54.17-.69,7.04-4.27,13.34-10.04,18.23-16.66.16-.22.48-.27.7-.11.22.16.27.48.11.7-4.97,6.73-11.37,12.58-18.51,16.93-.08.05-.17.07-.26.07Z"
  />
  <path
    d="M177.14,161.61c-.12,0-.25-.04-.34-.13-.2-.19-.21-.5-.02-.71.64-.68,1.33-1.32,2-1.93.79-.72,1.6-1.47,2.31-2.27,2.23-2.56,3.43-5.82,4.6-8.97.09-.26.38-.39.64-.29.26.1.39.38.29.64-1.14,3.08-2.43,6.58-4.78,9.28-.74.85-1.58,1.62-2.39,2.36-.66.6-1.34,1.22-1.95,1.88-.1.11-.23.16-.37.16Z"
  />
  <path
    d="M186.29,147.48c-.06,0-.13-.01-.19-.04-.25-.11-.37-.4-.27-.65.62-1.48,1-3.04,1.14-4.64.08-.9.08-1.83.08-2.72,0-.36,0-.73,0-1.09.06-4.49.85-8.96,1.62-13.29.13-.72.26-1.47.55-2.18.19-.48.44-.91.69-1.34l2.1-3.63c-.39-.2-.7-.52-.97-.8-.09-.1-.19-.2-.29-.29-.72-.68-1.7-.96-2.75-1.27-.56-.16-1.14-.33-1.69-.57-.83-.35-1.57-.85-2.29-1.33-.41-.27-.82-.55-1.24-.8-1-.58-2.11-1.02-3.2-1.44-1.56-.61-3.17-1.25-4.53-2.33-.22-.17-.25-.49-.08-.7s.49-.25.7-.08c1.24.99,2.71,1.57,4.27,2.18,1.12.44,2.27.89,3.33,1.51.44.26.87.54,1.3.83.71.48,1.38.93,2.12,1.25.5.21,1.02.36,1.58.53,1.11.32,2.27.66,3.16,1.5.11.1.21.21.32.32.34.35.7.72.99.67.17.01.35.08.45.24.09.16.1.35,0,.51l-2.42,4.2c-.24.42-.46.81-.63,1.22-.25.62-.37,1.28-.49,1.98-.76,4.29-1.54,8.72-1.6,13.13,0,.36,0,.72,0,1.08,0,.92,0,1.87-.08,2.81-.15,1.7-.56,3.36-1.22,4.94-.08.19-.27.31-.46.31Z"
  />
  <path
    d="M184.16,158.16c-.09,0-.18-.02-.26-.07-.24-.14-.31-.45-.17-.69.94-1.55,1.67-3.35,2.17-5.37.55-2.24.77-4.55.65-6.86-.01-.28.2-.51.47-.53.27-.04.51.2.53.47.12,2.41-.1,4.81-.67,7.15-.52,2.12-1.29,4.02-2.29,5.65-.09.15-.26.24-.43.24Z"
  />
  <path
    d="M171.13,177.32c-.18,0-.35-.02-.53-.08-.89-.28-1.37-1.2-1.42-2.74-.05-1.5-.1-3.04-.06-4.54,0-.24.18-.44.42-.48,5.08-.85,10.24-.97,15.35-.35.16.02.44.05.75.15-.05-.43-.09-.85-.13-1.27l-.48-4.87c-.04-.44-.08-.88-.06-1.32.02-.44.1-.86.18-1.27l.06-.32c.37-2.07.34-4.24.31-6.33,0-.28.22-.5.49-.51.24.01.5.22.51.49.03,2.14.06,4.35-.33,6.52l-.06.33c-.07.39-.14.76-.16,1.13-.02.38.02.76.06,1.17l.47,4.84c.07.76.15,1.51.27,2.23v.08s.04.06.05.09c.03.08.03.16.02.23.34,1.74.94,3.41,1.54,4.97.36.94-.01,1.36-.27,1.53-.27.18-.56.16-.74.16-3.44-.12-6.96-.21-10.44-.26-1.53-.02-3.27-.05-4.9.28-.31.06-.6.12-.9.12ZM170.11,170.41c-.02,1.34.02,2.73.07,4.07.03,1.07.27,1.68.72,1.81.23.07.54,0,.86-.06,1.82-.37,3.62-.34,5.2-.32,3.49.05,7.01.14,10.46.26.03,0,.12,0,.16,0-.03-.01-.04-.13-.12-.33-.63-1.66-1.27-3.44-1.62-5.32-.14-.19-.49-.32-1.06-.39-4.88-.59-9.81-.5-14.66.27Z"
  />
  <path
    d="M160.74,123.68c-.18,0-.36-.1-.45-.27-.84-1.65-1.88-3.2-3.1-4.6-.18-.21-.16-.52.05-.71.21-.18.52-.16.71.05,1.27,1.46,2.36,3.08,3.23,4.8.13.25.03.55-.22.67-.07.04-.15.05-.23.05Z"
  />
  <path
    d="M161.61,122.03c-.15,0-.31-.07-.4-.21-.96-1.32-1.96-2.65-2.98-3.94-.17-.22-.13-.53.08-.7.21-.17.53-.13.7.08,1.02,1.3,2.03,2.64,3,3.97.16.22.11.54-.11.7-.09.06-.19.1-.29.1Z"
  />
  <path
    d="M156.9,129.75c-.11,0-.22-.04-.31-.11-.22-.17-.25-.49-.08-.7,1.41-1.77,3.02-3.38,4.78-4.79.21-.17.53-.14.7.08.17.21.14.53-.08.7-1.7,1.37-3.25,2.93-4.62,4.64-.1.12-.24.19-.39.19Z"
  />
  <path
    d="M156.18,132.29c-.1,0-.21-.03-.29-.1-.22-.16-.27-.48-.11-.7,1.84-2.51,3.98-4.8,6.36-6.8.21-.18.53-.15.7.06.18.21.15.53-.06.7-2.32,1.95-4.41,4.18-6.2,6.62-.1.13-.25.21-.4.21Z"
  />
  <path
    d="M154.41,139.27c-.21,0-.4-.13-.47-.33-.09-.26.05-.55.31-.64.99-.35,1.62-1.31,2.29-2.32.18-.27.35-.53.53-.79,1.35-1.9,3.19-3.25,5.28-4.69.22-.16.54-.1.7.13.16.23.1.54-.13.7-2.01,1.39-3.77,2.68-5.03,4.45-.17.24-.34.5-.51.75-.73,1.11-1.49,2.26-2.8,2.72-.05.02-.11.03-.17.03Z"
  />
  <path
    d="M153.77,141.46c-.21,0-.4-.13-.47-.34-.07-.21,0-.45.19-.58,1.04-.71,2.13-1.44,2.91-2.41.24-.3.46-.62.67-.95.17-.25.33-.5.51-.74,1.25-1.71,3.01-2.92,4.72-3.97.23-.14.54-.07.69.16.14.24.07.54-.16.69-1.62,1-3.29,2.14-4.44,3.71-.17.23-.32.46-.48.7-.23.35-.46.7-.72,1.02-.77.96-1.75,1.67-2.73,2.34-.06.18-.23.32-.44.34l-.2.02s-.02,0-.04,0Z"
  />
  <path
    d="M153.46,146.96c-.13,0-.26-.05-.35-.15-.2-.2-.2-.51,0-.71l8.46-8.45c.2-.2.51-.2.71,0s.2.51,0,.71l-8.46,8.45c-.1.1-.23.15-.35.15Z"
  />
  <path
    d="M152.84,149.32c-.11,0-.22-.04-.32-.11-.21-.18-.24-.49-.07-.7,2.57-3.12,5.5-5.94,8.71-8.38.22-.17.53-.12.7.1.17.22.12.53-.1.7-3.16,2.39-6.03,5.16-8.55,8.22-.1.12-.24.18-.39.18Z"
  />
  <path
    d="M153.29,154.63c-.17,0-.33-.08-.43-.22-.13-.18-.19-.51.09-.82,2.5-2.76,5.13-5.45,7.82-8.01.2-.19.52-.18.71.02.19.2.18.52-.02.71-2.62,2.49-5.17,5.1-7.6,7.78-.01.21-.16.42-.34.5-.07.03-.15.05-.22.05Z"
  />
  <path
    d="M152.99,156.86c-.09,0-.18-.02-.26-.08-.23-.15-.31-.45-.16-.69.17-.27.38-.49.58-.71,2.54-2.7,5.18-5.36,7.86-7.92.2-.19.52-.18.71.02.19.2.18.52-.02.71-2.66,2.55-5.29,5.2-7.82,7.88-.18.19-.34.36-.46.55-.09.15-.26.24-.42.24Z"
  />
  <path
    d="M152.87,161.89c-.13,0-.27-.05-.36-.16-.19-.2-.18-.52.02-.71,3.06-2.87,6.04-5.89,8.87-8.97.19-.2.5-.21.71-.03.2.19.22.5.03.71-2.85,3.09-5.85,6.13-8.92,9.02-.1.09-.22.14-.34.14Z"
  />
  <path
    d="M152.49,163.9c-.1,0-.21-.03-.3-.1-.22-.17-.27-.48-.1-.7.66-.89,1.35-1.8,2.2-2.57.25-.23.52-.44.78-.65.16-.13.31-.25.47-.38.51-.43,1-.91,1.46-1.37l.6-.6c1.32-1.33,2.69-2.7,4.23-3.84.22-.16.54-.12.7.1.17.22.12.54-.1.7-1.48,1.1-2.82,2.44-4.12,3.74l-.6.6c-.47.47-.98.97-1.52,1.42-.16.13-.32.27-.48.4-.25.2-.5.4-.74.62-.78.71-1.44,1.58-2.07,2.43-.1.13-.25.2-.4.2Z"
  />
  <path
    d="M155.4,167.2c-.12,0-.24-.04-.34-.13-.2-.19-.22-.5-.03-.71l6.62-7.17c.19-.2.5-.22.71-.03.2.19.22.5.03.71l-6.62,7.17c-.1.11-.23.16-.37.16Z"
  />
  <path
    d="M155.48,169.04c-.12,0-.24-.04-.33-.13-.21-.18-.23-.5-.04-.71,1.65-1.86,3.41-3.67,5.23-5.37.2-.19.52-.18.71.02s.18.52-.02.71c-1.8,1.68-3.54,3.47-5.17,5.3-.1.11-.24.17-.37.17Z"
  />
  <path
    d="M157.41,186.93c-.13,0-.26-.05-.36-.16l-3.52-3.71c-.19-.2-.18-.52.02-.71.2-.19.52-.18.71.02l3.52,3.71c.19.2.18.52-.02.71-.1.09-.22.14-.34.14Z"
  />
  <path
    d="M155.24,184.28c-.11,0-.22-.04-.31-.11-.22-.17-.25-.49-.08-.7.43-.55.93-1.04,1.47-1.48.21-.17.53-.14.7.08.17.22.14.53-.08.7-.48.38-.93.83-1.31,1.31-.1.12-.24.19-.39.19Z"
  />
  <path
    d="M154.17,183.29c-.12,0-.23-.04-.33-.12-.21-.18-.23-.5-.05-.71l1.94-2.21c.18-.21.5-.23.71-.05.21.18.23.5.05.71l-1.94,2.21c-.1.11-.24.17-.38.17Z"
  />
  <path
    d="M165.65,121.69c-.12,0-.24-.04-.32-.12,0,0-.02-.02-.03-.03-.23-.1-.5-.27-.67-.56-.16-.28-.16-.65,0-.94.14-.25.39-.41.66-.42.46.02.81.32.95.85.04.17.09.43,0,.7-.01.04-.03.08-.05.11-.03.1-.08.2-.17.27-.1.08-.24.13-.38.13Z"
  />
  <path
    d="M161.22,115.68c-.18,0-.36-.1-.45-.28-.12-.25-.03-.55.22-.67,2.22-1.12,4.33-2.47,6.27-4.02,1.05-.84,2.06-1.78,2.42-3,.08-.26.36-.42.62-.34.27.08.42.35.34.62-.43,1.48-1.58,2.56-2.75,3.5-2,1.6-4.16,2.99-6.44,4.14-.07.04-.15.05-.22.05Z"
  />
  <path
    d="M170.12,103.65c-.29,0-.6-.04-.9-.11-.92-.23-1.72-.78-2.45-1.33l-.31-.24c-.58-.45-1.12-.87-1.71-1.13-.19-.09-.31-.28-.29-.49.02-.21.16-.39.36-.45,1.44-.41,2.92-.26,4.36-.11,1.43.15,2.79.29,4.06-.1.23-.07.48.03.59.25.11.22.05.48-.15.63-.32.24-.52.64-.74,1.07-.22.43-.45.88-.83,1.25-.51.49-1.23.75-2.01.75ZM166.38,100.66c.24.17.47.35.69.52l.3.23c.74.56,1.38.97,2.09,1.15.6.15,1.43.13,1.97-.39.26-.25.44-.61.63-.98.05-.09.09-.19.14-.28-1.04.09-2.1-.01-3.13-.12-.93-.1-1.83-.19-2.7-.14Z"
  />
  <path
    d="M169.74,102.49c-.7,0-1.44-.06-2.14-.32-.26-.1-.39-.38-.29-.64.1-.26.38-.39.64-.29.83.31,1.77.27,2.68.23l1-.04c.29,0,.51.21.52.48.01.28-.2.51-.48.52l-1,.04c-.3.01-.61.02-.93.02Z"
  />
  <path
    d="M170.78,102.93s-.03,0-.04,0c-.28-.02-.48-.26-.46-.54.04-.49.05-.98.02-1.47-.01-.28.2-.51.47-.53.27-.02.51.2.53.47.03.53.02,1.07-.02,1.61-.02.26-.24.46-.5.46Z"
  />
  <path
    d="M169.33,102.84c-.27,0-.49-.21-.5-.48-.01-.39,0-.78.01-1.17.02-.28.23-.51.53-.47.28.01.49.25.47.53-.02.36-.02.73-.01,1.09,0,.28-.21.51-.48.52h-.02Z"
  />
  <path
    d="M168.2,102.22h-.01c-.28,0-.5-.24-.49-.51v-.49c.02-.27.24-.48.51-.48h.02c.28,0,.49.24.48.52v.48c-.02.27-.24.49-.51.49Z"
  />
  <path
    d="M171.63,102.1c-.11,0-.22-.04-.31-.1-.2-.15-.2-.35-.21-.55v-.21c-.01-.27.2-.49.46-.51.3-.04.5.18.53.45l.04.34c.03.25-.15.52-.39.58-.04,0-.08.01-.12.01Z"
  />
  <path
    d="M168.06,108.72c-.23,0-.44-.16-.49-.4-.05-.27.12-.53.39-.59.33-.07.66-.05.95-.04.33.02.62.03.85-.07.29-.13.51-.46.74-.85,1.47-2.48,2.9-5.03,4.25-7.56.26-.48.54-1.02.68-1.57.24-.94.07-1.93-.12-2.98-.11-.61-.22-1.24-.24-1.88-.01-.28.2-.51.48-.52.25-.02.51.2.52.48.02.57.12,1.14.23,1.75.19,1.11.39,2.25.1,3.4-.17.67-.49,1.27-.77,1.8-1.36,2.55-2.8,5.11-4.27,7.6-.25.42-.59.99-1.19,1.26-.44.2-.9.17-1.31.16-.25-.01-.49-.02-.7.02-.03,0-.07,0-.1,0Z"
  />
  <path
    d="M168.04,108.8c-.06,0-.13-.01-.19-.04l-2.39-.98c-.4-.17-.82-.34-1.22-.58-.33-.2-.62-.44-.9-.66l-2.01-1.64c-.21-.17-.25-.49-.07-.7.17-.22.49-.25.7-.07l2.01,1.64c.27.22.52.42.79.59.33.2.71.36,1.08.51l2.39.98c.26.1.38.4.27.65-.08.19-.27.31-.46.31Z"
  />
  <path
    d="M163.93,100.89c-.23,0-.43-.16-.49-.39-.19-.83.21-1.74.96-2.16.24-.13.54-.05.68.19.13.24.05.54-.19.68-.35.2-.56.66-.47,1.06.06.27-.1.54-.37.6-.04,0-.08.01-.11.01Z"
  />
  <path
    d="M174.5,99.18c-.27,0-.49-.21-.5-.49,0-.2-.05-.41-.14-.59-.12-.25,0-.55.24-.66.25-.12.55,0,.66.24.14.3.22.64.23.98,0,.28-.21.51-.49.51h-.01Z"
  />
  <path
    d="M171.16,98.93s-.09,0-.13-.02c-.58-.16-1.15-.39-1.67-.7-.24-.14-.32-.44-.18-.68.14-.24.44-.32.68-.18.45.26.93.46,1.44.6.27.07.42.35.35.61-.06.22-.26.37-.48.37Z"
  />
  <path
    d="M173.41,98.08c-.26,0-.48-.21-.5-.47-.06-.96-.44-1.86-.84-2.82-.1-.23-.19-.45-.28-.68-.43-1.06-.93-2.63-.42-4.09.09-.26.38-.4.64-.31.26.09.4.38.31.64-.4,1.14.04,2.48.41,3.39.09.22.18.44.28.66.42.99.85,2.02.92,3.15.02.28-.19.51-.47.53,0,0-.02,0-.03,0Z"
  />
  <path
    d="M156.24,99.64c-.12,0-.22-.02-.29-.04l-1.2-.25c-.62-.13-1.32-.28-1.96-.62-1.16-.61-2.02-1.85-2.32-3.31-.24-1.16-.14-2.45.28-3.93.08-.26.35-.42.62-.34.27.08.42.35.34.62-.38,1.32-.46,2.45-.26,3.45.24,1.17.91,2.15,1.81,2.63.51.27,1.12.4,1.7.52l1.12.24s-.02-.1-.03-.15c-.08-.26.07-.54.33-.62.27-.08.54.07.62.33.06.19.17.68-.05,1.06-.11.19-.29.33-.5.38-.07.02-.14.03-.21.03Z"
  />
  <path
    d="M153.06,96.49c-.47,0-.92-.37-1.03-.88-.09-.41.02-.79.14-1.11.22-.57.5-1.1.86-1.59.16-.22.48-.27.7-.11.22.16.27.48.11.7-.3.42-.55.87-.73,1.36-.07.18-.14.39-.1.54.01.05.05.09.07.1.27-.04.51.15.55.42.04.27-.17.53-.44.57-.04,0-.08,0-.13,0Z"
  />
  <path
    d="M154.52,96.94c-.08,0-.16-.02-.24-.06-.12-.06-.21-.17-.24-.3-.17-.57-.22-1.18-.15-1.78.03-.25.23-.43.48-.44.27.02.46.17.51.41.27,1.43.37,1.97-.21,2.15-.05.02-.1.02-.15.02Z"
  />
  <path
    d="M155.73,110.19s-.02,0-.03,0c-.28-.02-.48-.25-.47-.53.22-3.46.1-6.96-.35-10.4-.04-.27.16-.53.43-.56.27-.04.53.16.56.43.46,3.5.58,7.07.36,10.6-.02.26-.24.47-.5.47Z"
  />
  <path
    d="M154.55,111.39s-.09,0-.14-.02c-.27-.08-.42-.35-.34-.62l1.15-4.01c.08-.27.35-.42.62-.34.27.08.42.35.34.62l-1.15,4.01c-.06.22-.26.36-.48.36Z"
  />
  <path
    d="M166.87,110.35c-.12,0-.23-.04-.33-.12-.21-.18-.23-.5-.05-.71l1.06-1.21c.18-.21.5-.23.71-.05.21.18.23.5.05.71l-1.06,1.21c-.1.11-.24.17-.38.17Z"
  />
  <path
    d="M168.41,92.44c-.17,0-.34-.09-.43-.25-.58-1.01-1.52-.8-3.01-.35-.45.14-.91.28-1.34.34-.27.03-.53-.15-.57-.42-.04-.27.15-.53.42-.57.35-.05.76-.18,1.19-.31,1.33-.41,3.15-.96,4.17.81.14.24.06.54-.18.68-.08.05-.17.07-.25.07Z"
  />
  <path
    d="M172.75,90.4c-.09,0-.18-.02-.26-.07-.22-.14-.3-.42-.18-.66.04-.09.1-.17.16-.23l.4-.55c.11-.15.28-.22.44-.21.1-.08.22-.14.38-.15.12-.02.24.03.33.1.07-.02.15-.03.22-.02.01,0,.02,0,.04,0,.1-.04.21-.05.32-.02.04.01.08.03.11.05.11-.01.22.02.31.09.02.01.03.02.05.04.05-.01.1-.02.15-.02.27,0,.49.22.5.49,0,.18-.09.34-.23.43-.09.1-.22.16-.36.16-.06-.01-.06,0-.09,0,0,0,0,0-.01,0-.09.02-.19.02-.29,0-.05.04-.1.07-.16.09-.07.11-.17.18-.3.21-.06.02-.13.02-.19.01-.13.13-.33.17-.51.11-.11-.04-.2-.11-.25-.19-.01,0-.03,0-.04-.01-.02.01-.03.03-.04.04l-.08.11c-.1.14-.25.21-.41.21ZM175.23,89.74h0,0ZM175.62,89.41h0s0,0,0,0Z"
  />
  <path
    d="M168.81,90.13c-.09,0-.17-.02-.25-.07l-.42-.24s-.06.02-.08.02c-.4.05-.68-.15-.89-.3-.08-.06-.17-.12-.22-.13-.04,0-.07,0-.11-.01-.1,0-.21-.02-.31-.04-.05-.01-.1-.03-.15-.05-.07.06-.16.1-.26.12-.31.1-.68.08-1.02-.08l-.34.24c-.11.08-.25.11-.38.08-.13-.02-.25-.1-.32-.21-.21.17-.45.15-.63-.06-.17-.21-.07-.52.15-.69.19-.15.44-.22.69-.18.07,0,.13.03.19.05l.25-.18c.07-.05.23-.11.32-.12.21,0,.36.09.41.13.06.04.14.07.22.08.02-.03.04-.06.07-.08.09-.08.21-.13.32-.13.12-.16.33-.23.54-.16.15.05.25.16.3.3,0,0,0,0,0,0,.1,0,.2.02.29.04.13.03.25.09.35.15.04-.02.09-.03.14-.03.1-.01.2.02.28.06.11.02.21.06.29.1l.16.09c.07-.06.15-.1.25-.12.27-.04.53.14.58.41l.07.43c.03.19-.05.38-.21.49-.08.06-.18.09-.28.09ZM166.9,88.68h0s0,0,0,0ZM165.86,88.45s-.02,0-.04.01c.01,0,.03,0,.04-.01Z"
  />
  <path
    d="M164.09,89.52c-.19,0-.37-.1-.45-.28-.12-.25-.01-.55.24-.67.39-.19.7-.65.83-1.23.1-.46.11-.94.11-1.45v-.42c.03-.99.16-1.98.38-2.94.14-.58.36-1.34.81-2,.49-.71,1.19-1.18,1.92-1.3.27-.05.53.14.57.41.04.27-.14.53-.41.57-.47.08-.92.4-1.26.88-.36.52-.54,1.16-.66,1.66-.21.89-.33,1.8-.35,2.73v.41c0,.54-.01,1.11-.14,1.67-.2.89-.7,1.58-1.38,1.91-.07.03-.14.05-.22.05Z"
  />
  <path
    d="M163.78,89.87c-.15,0-.29-.06-.39-.19-.17-.22-.14-.53.08-.7.34-.27.43-.78.4-1.17-.04-.49-.22-.96-.42-1.47-.6-1.53-1.09-3.08-.89-4.65.17-1.37.85-2.59,1.49-3.6.15-.23.46-.3.69-.16.23.15.3.46.16.69-.58.92-1.19,2.01-1.34,3.19-.16,1.27.2,2.55.8,4.08.25.63.47,1.2.52,1.84.06.83-.23,1.59-.77,2.03-.09.07-.2.11-.31.11Z"
  />
  <path
    d="M161.66,89.89c-.16,0-.32-.08-.42-.23-.15-.23-.08-.54.15-.69.55-.36.95-1.04,1.08-1.87.13-.81.03-1.67-.06-2.49-.03-.27.17-.52.44-.55.27-.03.52.16.55.44.1.85.21,1.82.06,2.77-.18,1.11-.74,2.04-1.53,2.55-.08.05-.18.08-.27.08Z"
  />
  <path
    d="M161.91,89.53s-.09,0-.13-.02c-.27-.07-.42-.35-.35-.61.13-.47.08-1.03-.13-1.76-.06-.21-.14-.43-.21-.64-.15-.44-.3-.9-.39-1.39-.2-1.14-.02-2.33.52-3.35.13-.25.43-.34.68-.21.24.13.34.43.21.68-.44.83-.58,1.79-.42,2.71.07.41.21.82.35,1.25.08.23.15.45.22.68.17.58.37,1.45.14,2.31-.06.22-.26.37-.48.37Z"
  />
  <path
    d="M158.66,93.65c-.24,0-.45-.17-.49-.42-.37-2.27-.84-5.1.14-7.59.39-.99,1-1.95,1.93-3.02.18-.21.5-.23.71-.05.21.18.23.5.05.71-.85.98-1.41,1.85-1.75,2.73-.88,2.24-.46,4.81-.08,7.07.04.27-.14.53-.41.57-.03,0-.05,0-.08,0Z"
  />
  <path
    d="M158.44,97.11c-.14,0-.28-.06-.38-.18-.6-.71-.94-1.69-.96-2.75-.02-.82.14-1.69.5-2.75.09-.26.37-.4.63-.31.26.09.4.37.31.63-.32.94-.46,1.71-.45,2.41.02.84.27,1.59.72,2.13.18.21.15.53-.06.71-.09.08-.21.12-.32.12Z"
  />
  <path
    d="M155.41,94.49c-.13,0-.25-.02-.37-.05-.27-.07-.42-.35-.35-.61.07-.27.34-.42.61-.35.13.03.28,0,.39-.07.15-.11.26-.33.38-.6l.88-1.95c.11-.25.41-.36.66-.25.25.11.36.41.25.66l-.88,1.95c-.14.3-.32.72-.7,1-.25.19-.56.28-.87.28Z"
  />
  <path
    d="M154.78,94.59c-.13,0-.25-.05-.35-.14-.2-.19-.2-.51,0-.71,1.53-1.55,2.11-3.87,2.56-6.11.05-.27.31-.45.59-.39.27.05.45.32.39.59-.49,2.39-1.1,4.87-2.83,6.62-.1.1-.23.15-.36.15Z"
  />
  <path
    d="M153.53,91.95c-.26,0-.48-.21-.5-.47-.02-.28.19-.51.47-.53.15,0,.33-.15.53-.43,1.23-1.65,1.43-3.98,1.6-5.84.02-.28.27-.47.54-.46.28.02.48.27.46.54-.17,2-.39,4.48-1.79,6.36-.15.2-.59.79-1.28.83,0,0-.02,0-.03,0Z"
  />
  <path
    d="M147.55,89.83c-.23,0-.44-.16-.49-.4-.06-.27.12-.54.38-.59,1.14-.24,2.05-1.01,2.62-1.62.14-.15.29-.32.4-.51.22-.38.3-.86.38-1.36.05-.3.1-.61.18-.91.07-.27.35-.42.61-.35.27.07.42.35.35.61-.07.26-.11.53-.16.8-.09.57-.19,1.16-.5,1.7-.16.27-.36.5-.54.69-.95,1.02-2.04,1.68-3.14,1.91-.04,0-.07.01-.11.01Z"
  />
  <path
    d="M149.12,93.61c-.23,0-.44-.16-.49-.39-.3-1.41-.62-2.86-.68-4.35-.07-1.71.22-3.21.86-4.45.12-.25.43-.34.67-.22.25.13.34.43.22.67-.56,1.08-.81,2.42-.74,3.95.06,1.41.36,2.82.65,4.18.06.27-.11.54-.38.59-.04,0-.07.01-.11.01Z"
  />
  <path
    d="M148.5,93.92c-.19,0-.37-.11-.46-.3-.11-.25,0-.55.25-.66,1.24-.55,2.27-1.59,2.82-2.83.11-.25.41-.37.66-.26.25.11.37.41.26.66-.65,1.47-1.86,2.69-3.33,3.34-.07.03-.14.04-.2.04Z"
  />
  <path
    d="M147.68,98.02c-.23,0-.43-.15-.49-.38-.06-.27.1-.54.37-.6.33-.08.62-.38.94-.73.23-.26.48-.53.63-.82.23-.43.29-.95.36-1.5.05-.37.1-.75.2-1.13.07-.27.34-.42.61-.35.27.07.43.35.35.61-.08.31-.13.65-.17,1-.08.61-.16,1.25-.47,1.84-.21.4-.51.73-.77,1.02-.33.37-.79.88-1.45,1.03-.04,0-.08.01-.12.01Z"
  />
  <path
    d="M153.58,101.61c-.07,0-.14-.01-.21-.05-1.46-.68-2.28-2.21-2.87-3.33-.18-.35-.39-.74-.54-1.16-.35-1.02-.31-2.11-.27-3.07.01-.27.23-.48.5-.48h.02c.28.01.49.24.48.52-.04.92-.07,1.86.22,2.7.12.35.3.69.48,1.02.68,1.29,1.33,2.4,2.41,2.89.25.12.36.41.24.66-.08.18-.27.29-.45.29Z"
  />
  <path
    d="M155.24,105.05c-.1,0-.2-.03-.29-.09-1.68-1.16-2.96-2.87-3.6-4.81-.09-.26.05-.54.32-.63.26-.09.54.05.63.32.58,1.73,1.72,3.26,3.23,4.3.23.16.28.47.13.7-.1.14-.25.21-.41.21Z"
  />
  <path
    d="M152.94,107.83c-.21,0-.41-.14-.48-.36-.6-1.98-.9-4.04-.9-6.11,0-.28.22-.5.5-.5h0c.28,0,.5.22.5.5,0,1.97.28,3.93.86,5.82.08.26-.07.54-.33.62-.05.01-.1.02-.14.02Z"
  />
  <path
    d="M154.1,105.41c-.08,0-.16-.02-.24-.06-.43-.24-.79-.65-1.03-1.18-.2-.44-.29-.89-.38-1.32-.06-.27.12-.54.39-.59.27-.05.54.11.59.39.08.4.17.78.32,1.12.11.23.29.55.6.71.24.13.33.44.2.68-.09.17-.26.26-.44.26Z"
  />
  <path
    d="M149.6,100.83c-.09,0-.17-.02-.25-.07-.24-.14-.32-.45-.17-.68.5-.85.8-1.81.86-2.8.02-.28.23-.49.53-.47.28.02.49.25.47.53-.07,1.14-.41,2.26-1,3.25-.09.16-.26.25-.43.25Z"
  />
  <path
    d="M148.14,101.57c-.17,0-.34-.09-.43-.24-.14-.24-.06-.54.17-.69,1-.6,1.97-1.27,2.87-2.01.21-.18.53-.14.7.07.17.21.14.53-.07.7-.94.77-1.94,1.47-2.99,2.1-.08.05-.17.07-.26.07Z"
  />
  <path
    d="M157.88,82.23c-.16,0-.32-.08-.42-.23-.15-.23-.09-.54.14-.69.96-.63,1.95-1.28,3.05-1.73l.3-.12c.22-.09.45-.17.66-.28,1.06-.54,1.85-1.7,2.12-3.09.22-1.15.13-2.44-.29-4.07-.07-.27.09-.54.36-.61.27-.07.54.09.61.36.46,1.78.56,3.21.31,4.51-.33,1.69-1.32,3.11-2.65,3.79-.24.12-.49.22-.75.32l-.29.12c-1.01.42-1.96,1.04-2.88,1.64-.08.06-.18.08-.27.08Z"
  />
  <path
    d="M154.35,84.4c-.21,0-.4-.13-.47-.33-.09-.26.05-.55.31-.64.46-.16.93-.18,1.38-.19.18,0,.35,0,.53-.02,1.38-.12,2.65-1.01,3.23-2.26.12-.25.42-.36.67-.24.25.12.36.42.24.67-.74,1.57-2.33,2.68-4.05,2.84-.19.02-.39.02-.59.03-.39.01-.75.02-1.07.13-.05.02-.11.03-.17.03Z"
  />
  <path
    d="M150.02,81.15c-.29,0-.57-.02-.83-.05-.27-.03-.47-.27-.44-.55s.26-.48.55-.44c.64.07,1.37.1,1.92-.21.32-.18.6-.47.89-.78.21-.23.44-.47.7-.68.21-.17.53-.14.7.07s.14.53-.07.7c-.22.17-.41.38-.6.58-.33.36-.68.72-1.14.98-.53.29-1.11.37-1.67.37Z"
  />
  <path
    d="M165.1,75.49h-.01c-.28,0-.49-.24-.49-.51,0-.24.02-.49.03-.74.04-.61.07-1.18-.03-1.74-.11-.59-.47-1.35-1.15-1.53-.28-.08-.63-.05-1.04.08-1.29.4-2.34,1.57-2.62,2.89-.05.27-.33.45-.59.39-.27-.06-.45-.32-.39-.59.35-1.7,1.65-3.13,3.3-3.65.59-.18,1.13-.22,1.6-.09.92.25,1.66,1.16,1.87,2.31.12.67.08,1.33.05,1.98-.01.23-.03.47-.03.7,0,.27-.23.49-.5.49Z"
  />
  <path
    d="M169.5,79.06h0c-.28,0-.5-.23-.5-.5.01-1.08.02-2.19-.33-3.18-.37-1.01-1.14-1.75-1.97-1.87-.54-.08-1.11.07-1.67.21-.27.07-.54-.09-.61-.36-.07-.27.09-.54.36-.61.63-.16,1.34-.34,2.07-.23,1.44.22,2.37,1.45,2.76,2.52.42,1.16.41,2.42.4,3.53,0,.27-.23.5-.5.5Z"
  />
  <path
    d="M169.04,81.68c-.05,0-.11,0-.16-.03-.49-.16-.99-.31-1.49-.42-.16-.04-.21-.03-.24-.03-.22.16-.52.11-.69-.12-.16-.22-.1-.54.12-.71.37-.27.83-.17,1.02-.12.54.12,1.07.27,1.59.45.26.09.4.37.31.63-.07.21-.26.34-.47.34Z"
  />
  <path
    d="M177.81,90.21c-.06,0-.12-.01-.18-.03-1.23-.48-2.5-1.05-3.51-1.99-1.17-1.08-1.77-2.52-1.62-3.85.04-.4.15-.77.26-1.13.08-.28.16-.56.21-.84.07-.45.02-1.06-.37-1.32-.24-.17-.64-.17-1-.02-.39.17-.73.48-1.08.81-.2.19-.52.18-.71-.02-.19-.2-.18-.52.02-.71.42-.4.84-.78,1.38-1.01.69-.29,1.42-.25,1.95.11.77.52.92,1.53.79,2.31-.05.33-.14.65-.24.97-.1.33-.19.65-.22.97-.12,1.02.37,2.14,1.31,3,.89.82,2.06,1.34,3.19,1.79.26.1.38.39.28.65-.08.2-.27.32-.47.32Z"
  />
  <path
    d="M175.8,93.23c-.27,0-.49-.21-.5-.48-.04-.84.09-1.67.21-2.47.09-.57.17-1.1.2-1.65.06-1.25-.16-2.6-.71-4.36-.08-.26.06-.54.33-.63.26-.08.54.06.63.33.59,1.88.83,3.33.76,4.71-.03.59-.12,1.18-.21,1.75-.12.78-.24,1.53-.2,2.27.01.28-.2.51-.48.52,0,0-.02,0-.02,0Z"
  />
  <path
    d="M175.84,91.69c-.21,0-.4-.13-.47-.33l-.5-1.42c-.09-.26.05-.55.31-.64.26-.09.55.05.64.31l.5,1.42c.09.26-.05.55-.31.64-.05.02-.11.03-.17.03Z"
  />
  <path
    d="M176.09,84.8c-.19,0-.38-.11-.46-.3-.29-.66-.43-1.36-.56-2.03-.17-.85-.34-1.66-.77-2.33-.37-.57-.92-1-1.56-1.22-.26-.09-.4-.38-.31-.64.09-.26.38-.4.64-.31.85.29,1.58.87,2.07,1.62.53.83.73,1.76.91,2.67.13.65.26,1.27.5,1.84.11.25,0,.55-.26.66-.06.03-.13.04-.2.04Z"
  />
  <path
    d="M176.4,88.23s-.1,0-.14-.02c-.26-.08-.42-.36-.34-.62.34-1.13.5-2.3.47-3.49,0-.38-.04-.81-.18-1.19-.2-.52-.61-.96-1.02-1.38-.19-.2-.18-.52.02-.71.2-.19.52-.18.71.02.45.47.96,1.01,1.22,1.71.2.52.24,1.06.25,1.52.03,1.29-.14,2.56-.51,3.8-.07.22-.26.36-.48.36Z"
  />
  <path
    d="M179.92,85.73c-.14,0-.29-.06-.39-.18-.82-1-1.91-1.76-3.13-2.2-.26-.09-.4-.38-.31-.64.09-.26.38-.4.64-.31,1.4.49,2.64,1.36,3.58,2.51.17.21.14.53-.07.7-.09.08-.21.11-.32.11Z"
  />
  <path
    d="M172.51,78.55c-.26,0-.48-.2-.5-.47-.04-.69-.11-1.26-.3-1.78-.21-.56-.55-1-.97-1.22-.53-.29-1.23-.25-1.71-.21-.27.02-.52-.17-.55-.45-.03-.27.17-.52.45-.55.61-.06,1.52-.1,2.29.32.63.34,1.14.96,1.43,1.75.25.67.32,1.39.36,2.06.02.28-.19.51-.47.53-.01,0-.02,0-.03,0Z"
  />
  <path
    d="M167.2,92.21c-.17,0-.38-.02-.58-.12-.33-.16-.54-.47-.55-.81,0-.12.04-.24.12-.32.05-.08.12-.16.21-.2.14-.07.3-.07.44,0,.14.07.26.21.31.36.06-.03.16-.07.23-.11.12-.06.27-.06.4-.01.13.05.23.15.28.28.11.29,0,.62-.27.79-.16.1-.32.12-.46.13-.04,0-.08,0-.12,0Z"
  />
  <path
    d="M172.25,92.76c-.18,0-.35-.09-.44-.26-.13-.24-.04-.55.2-.68.22-.12.42-.31.63-.51.15-.14.3-.29.47-.42.51-.41,1.3-.7,1.98-.3.1.06.19.13.28.22.33.33.51.8.49,1.27-.01.27-.22.51-.52.47-.28-.01-.49-.25-.47-.52,0-.19-.07-.38-.2-.51-.03-.03-.06-.05-.09-.07-.22-.13-.59.02-.84.22-.14.11-.27.23-.39.36-.25.24-.51.49-.84.67-.08.04-.16.06-.24.06Z"
  />
  <path
    d="M174.26,92.34c-.21,0-.41-.14-.48-.34l-.18-.56c-.06-.19,0-.39.14-.52.14-.13.35-.17.53-.1,0,0,.01,0,.02,0,.14-.08.33-.11.47-.04.18.08.33.25.39.45.07.22.03.46-.09.65-.14.22-.38.38-.69.44-.04,0-.07.01-.11.01Z"
  />
  <path
    d="M150.36,83.41c-.13,0-.26-.05-.36-.15-.19-.2-.19-.51,0-.71.97-.94,1.59-2.22,2.19-3.55l.09-.2c.58-1.29,1.18-2.62,2.14-3.71,1.2-1.36,2.79-2.07,4.27-1.9.27.03.47.28.44.55-.03.28-.29.47-.55.44-1.15-.13-2.42.45-3.4,1.56-.86.98-1.43,2.24-1.98,3.46l-.09.21c-.64,1.42-1.31,2.79-2.4,3.85-.1.1-.22.14-.35.14Z"
  />
  <path
    d="M148.92,84.28c-.18,0-.35-.09-.44-.26-.13-.24-.04-.55.2-.68.3-.17.44-.64.58-1.1.38-1.26,1.1-2.81,2.57-3.51.25-.12.55-.01.67.24.12.25.01.55-.24.67-1.14.54-1.73,1.83-2.02,2.81-.2.68-.42,1.41-1.08,1.77-.08.04-.16.06-.24.06Z"
  />
  <path
    d="M173.34,85.12c-.18,0-.35-.1-.44-.27-.61-1.15-1.36-2.23-2.23-3.2-.19-.21-.17-.52.04-.71.21-.19.52-.17.71.04.93,1.03,1.73,2.17,2.38,3.4.13.24.04.55-.21.68-.07.04-.15.06-.23.06Z"
  />
  <path
    d="M158.59,93.44s-.07,0-.11-.01c-.27-.06-.44-.32-.38-.59.25-1.18.51-2.4.94-3.57.5-1.34,1.17-2.44,1.99-3.25.2-.2.51-.19.71,0,.2.2.19.51,0,.71-.72.71-1.31,1.69-1.76,2.89-.41,1.1-.66,2.29-.9,3.43-.05.23-.26.4-.49.4Z"
  />
  <path
    d="M134.47,136.84c-.21,0-.41-.13-.47-.34-1.31-3.98-.99-8.22-.68-12.32.13-1.76.27-3.58.27-5.34v-.14c0-.77,0-1.56.3-2.32.33-.82,1.19-1.65,2.23-1.61.28.02.49.25.47.53-.02.28-.27.49-.53.47-.54-.04-1.03.47-1.24.98-.23.58-.23,1.25-.23,1.95v.14c0,1.8-.14,3.64-.28,5.42-.3,4-.61,8.14.63,11.93.09.26-.06.54-.32.63-.05.02-.1.03-.16.03Z"
  />
  <path
    d="M133.48,143.28c-.24,0-.45-.17-.49-.41-.28-1.5-.23-3.08.14-4.55.23-.91.57-1.78.91-2.62.48-1.21.93-2.36,1.06-3.58.03-.28.29-.48.55-.45.28.03.47.27.45.55-.14,1.36-.64,2.62-1.12,3.84-.32.81-.65,1.66-.86,2.5-.34,1.34-.38,2.77-.13,4.13.05.27-.13.53-.4.58-.03,0-.06,0-.09,0Z"
  />
  <path
    d="M131.79,154.54c-.26,0-.48-.2-.5-.46-.45-5.38,1.42-10.69,3.06-15.37.09-.26.38-.4.64-.31.26.09.4.38.31.64-1.61,4.59-3.44,9.79-3.01,14.96.02.28-.18.52-.46.54-.01,0-.03,0-.04,0Z"
  />
  <path
    d="M128.21,168.96c-.2,0-.38-.12-.46-.31-.61-1.48-.77-3.15-.44-4.71.07-.33.16-.65.25-.98.14-.51.28-1,.32-1.49.04-.44.01-.89-.02-1.36-.05-.69-.09-1.4.08-2.12.37-1.53,1.67-2.64,2.61-3.44l2.62-2.24c.16-.13.38-.16.57-.06l1.73.95c.24.13.33.44.2.68-.13.24-.44.33-.68.2l-1.42-.79-2.36,2.01c-1.09.93-2.01,1.79-2.29,2.92-.14.57-.1,1.17-.05,1.81.03.49.07,1,.02,1.52-.05.58-.21,1.13-.35,1.67-.08.3-.17.61-.23.92-.29,1.37-.15,2.83.39,4.13.11.25-.02.55-.27.65-.06.03-.13.04-.19.04Z"
  />
  <path
    d="M126.95,176.05h0c-.28,0-.5-.23-.5-.5.03-2.85.63-5.74,1.74-8.36.11-.25.4-.37.66-.26.25.11.37.4.26.66-1.06,2.5-1.63,5.26-1.66,7.98,0,.27-.23.5-.5.5Z"
  />
  <path
    d="M127.56,183.96h-.01c-.28,0-.49-.24-.49-.51.03-.9-.1-1.79-.38-2.64-.06-.19-.13-.38-.2-.57-.13-.35-.26-.71-.36-1.1-.5-2.08.34-4.46,2.19-6.21.2-.19.52-.18.71.02.19.2.18.52-.02.71-1.57,1.49-2.31,3.55-1.9,5.25.08.34.2.66.32.99.07.2.15.4.21.6.32.96.46,1.96.43,2.98,0,.27-.23.49-.5.49Z"
  />
  <path
    d="M128.92,187.31c-.18,0-.35-.1-.44-.27-.67-1.26-1.23-2.59-1.68-3.94-.03-.09-.03-.19,0-.28.32-1.24,1.33-2.31,2.58-2.72.51-.17,1-.22,1.44-.15.56.09,1.06.38,1.36.79.17.22.12.53-.1.7s-.54.12-.7-.1c-.15-.2-.41-.35-.72-.4-.29-.05-.62,0-.97.11-.87.29-1.61,1.04-1.88,1.89.11.32.23.65.35.97.32-.96,1.11-1.77,2.1-2.05.27-.08.54.08.62.35s-.08.54-.35.62c-.93.26-1.61,1.25-1.52,2.21.03.29.11.58.21.88.08.27.16.54.21.82.04.24-.1.48-.33.56-.05.02-.11.03-.16.03Z"
  />
  <path
    d="M132.64,192.26c-.48,0-.95-.16-1.33-.44-.65-.49-.94-1.25-1.19-1.92-.46-1.24-.98-2.47-1.52-3.68-.11-.25,0-.55.25-.66.25-.11.55,0,.66.25.56,1.23,1.08,2.49,1.55,3.74.21.57.43,1.16.85,1.47.25.18.56.27.86.24.27-.03.52.17.55.44s-.17.52-.44.55c-.08,0-.16.01-.24.01Z"
  />
  <path
    d="M132.56,174.24c-.1,0-.19-.03-.28-.08-.23-.15-.29-.46-.14-.69.35-.52.94-.74,1.47-.89.63-.19,1.28-.37,1.92-.53.27-.06.54.1.61.37.07.27-.1.54-.37.61-.63.16-1.25.33-1.87.51-.38.11-.76.24-.92.49-.1.14-.25.22-.42.22Z"
  />
  <path
    d="M134.97,159.04s-.1,0-.15-.02c-1.17-.36-2.31-.83-3.39-1.39-.8-.41-.7-.97-.66-1.13.09-.31.34-.47.46-.55,1.91-1.25,3.96-2.04,6.44-2.93.26-.09.55.04.64.3.09.26-.04.55-.3.64-2.38.86-4.35,1.62-6.15,2.78,0,0,.01,0,.02.01,1.03.53,2.12.98,3.24,1.33.26.08.41.36.33.63-.07.21-.26.35-.48.35Z"
  />
  <path
    d="M195.49,123.17s-.08,0-.13-.02c-.27-.07-.43-.34-.36-.61.23-.89.12-1.86-.31-2.66-.43-.81-1.17-1.44-2.03-1.75-.26-.09-.4-.38-.31-.64.09-.26.38-.4.64-.31,1.1.38,2.04,1.19,2.59,2.22.55,1.03.69,2.26.4,3.39-.06.23-.26.37-.48.37Z"
  />
  <path
    d="M196.4,128.22c-.08,0-.16-.02-.24-.06-.24-.13-.33-.43-.2-.68.09-.18.04-.47-.03-.77-.49-2.09-1.27-4.09-2.33-5.96-.14-.24-.05-.55.19-.68.24-.14.54-.05.68.19,1.11,1.95,1.93,4.04,2.43,6.23.08.33.22.94-.07,1.47-.09.17-.26.26-.44.26Z"
  />
  <path
    d="M201.46,141.28c-.23,0-.44-.17-.49-.41-1.02-5.27-3.66-10.07-6.22-14.71-.13-.24-.05-.55.2-.68.24-.14.55-.05.68.2,2.59,4.71,5.28,9.58,6.32,15.01.05.27-.12.53-.4.59-.03,0-.06,0-.1,0Z"
  />
  <path
    d="M204.52,180.15c-.07,0-.15-.02-.22-.05-.25-.12-.35-.42-.23-.67,2.33-4.74,2.28-10.38,2.23-15.34-.05-4.95-.1-10.06-1.71-14.81-.02-.06-.03-.12-.03-.18.11-2.39-.9-4.78-2.98-7.11-.55-.61-1.15-1.21-1.72-1.8-1.27-1.28-2.59-2.6-3.53-4.2-.14-.24-.06-.54.17-.68.24-.14.54-.06.68.17.88,1.49,2.1,2.71,3.38,4,.59.59,1.2,1.2,1.76,1.83,2.24,2.5,3.32,5.1,3.24,7.73,1.63,4.87,1.68,10.03,1.73,15.03.05,5.08.11,10.84-2.33,15.79-.09.18-.26.28-.45.28Z"
  />
  <path
    d="M199.42,190.59c-.53,0-1.03-.17-1.3-.26-.26-.09-.4-.37-.31-.63.09-.26.37-.4.63-.31.77.26,1.26.27,1.49.04.08-.08.14-.2.21-.33l2.48-4.61c.37-.69.76-1.41.95-2.16.21-.84.18-1.72.15-2.65-.02-.67-.04-1.37.03-2.07.03-.27.28-.47.55-.44.27.03.47.28.44.55-.07.63-.05,1.26-.03,1.93.03.96.06,1.95-.18,2.92-.22.87-.63,1.64-1.04,2.39l-2.48,4.61c-.09.17-.21.38-.38.56-.35.36-.8.47-1.23.47Z"
  />
  <path
    d="M191.11,147.3c-.14,0-.28-.06-.37-.17-1.02-1.15-2.11-2.27-3.23-3.33-.2-.19-.21-.51-.02-.71.19-.2.51-.21.71-.02,1.14,1.08,2.25,2.22,3.29,3.4.18.21.16.52-.04.71-.09.08-.21.13-.33.13Z"
  />
  <path
    d="M194.06,151.34c-.12,0-.24-.04-.34-.13-.59-.54-1.16-1.13-1.68-1.74-.36-.43-.77-.95-1.07-1.56-.2-.42-.34-.85-.47-1.27l-.08-.26c-.46-1.44-1.11-2.84-1.73-4.2-.11-.25,0-.55.25-.66.25-.11.55,0,.66.25.63,1.38,1.28,2.81,1.77,4.31l.08.26c.13.4.25.78.42,1.13.25.51.61.97.93,1.35.49.58,1.03,1.14,1.59,1.65.2.19.22.5.03.71-.1.11-.23.16-.37.16Z"
  />
  <path
    d="M195.83,155.7c-.21,0-.4-.13-.47-.33-.86-2.46-1.89-4.88-3.06-7.21-.12-.25-.03-.55.22-.67.25-.12.55-.03.67.22,1.19,2.36,2.24,4.83,3.12,7.32.09.26-.05.55-.31.64-.06.02-.11.03-.17.03Z"
  />
  <path
    d="M196.97,162.71s-.07,0-.1,0c-.94-.19-1.98-.5-2.53-1.39-.4-.64-.41-1.41-.38-1.93.11-1.98.94-3.95,2.29-5.4.27-.29.47-.5.5-.7.03-.24-.18-.55-.39-.84-.17-.22-.12-.54.1-.7.22-.16.53-.12.7.1.25.34.67.9.58,1.57-.07.52-.42.89-.7,1.19-1.25,1.35-1.99,3.09-2.08,4.83-.03.61.04,1.04.23,1.35.35.56,1.15.79,1.88.94.27.05.45.32.39.59-.05.24-.26.4-.49.4Z"
  />
  <path
    d="M195.68,166.96c-.21,0-.41-.14-.48-.35l-.62-1.99c-.43-1.36-.91-2.9-.75-4.48.03-.27.28-.47.55-.45.27.03.47.27.45.55-.14,1.37.31,2.81.71,4.08l.62,1.98c.08.26-.06.54-.33.63-.05.02-.1.02-.15.02Z"
  />
  <path
    d="M194.58,176.38c-.14,0-.28-.06-.38-.18-1.06-1.27-1.65-2.94-1.62-4.6.01-.65.12-1.29.22-1.83.35-1.85.86-3.67,1.53-5.42.1-.26.39-.39.65-.29.26.1.39.39.29.65-.65,1.7-1.15,3.46-1.48,5.25-.1.53-.19,1.1-.2,1.67-.03,1.42.48,2.85,1.39,3.94.18.21.15.53-.06.7-.09.08-.21.12-.32.12Z"
  />
  <path
    d="M190.75,186.19c-.12,0-.24-.05-.34-.13-.16-.15-.24-.36-.24-.58,0-.22.11-.42.28-.55.02-.01.04-.03.06-.04l1.63-4.33c.23-.61.47-1.25.86-1.82.09-.13.18-.25.28-.38.11-.15.22-.29.32-.45.76-1.24.33-2.93-.14-4.42-.08-.26.07-.54.33-.63.26-.08.54.07.63.33.53,1.7,1.01,3.64.04,5.24-.11.18-.24.36-.38.53-.08.11-.17.22-.25.34-.32.48-.54,1.05-.75,1.61l-1.86,4.96c-.06.16-.19.27-.35.31-.04,0-.08.01-.12.01ZM191.07,185.72h0,0Z"
  />
  <path
    d="M190.25,187.8c-.06,0-.12,0-.17-.03-.26-.09-.39-.38-.3-.64.18-.48.32-.99.42-1.5.06-.27.32-.45.59-.39.27.06.44.32.39.59-.12.56-.27,1.11-.47,1.65-.07.2-.27.33-.47.33Z"
  />
  <path
    d="M200.23,190.13h-.01c-.28,0-.49-.24-.49-.51.02-.88-.41-1.82-1.3-2.8-.79-.87-2.07-1.96-3.71-2.16-1.46-.18-2.93.52-3.5,1.66-.12.25-.42.35-.67.23-.25-.12-.35-.42-.23-.67.76-1.54,2.62-2.45,4.52-2.21,1.95.24,3.43,1.49,4.33,2.49,1.06,1.18,1.58,2.35,1.55,3.5,0,.27-.23.49-.5.49Z"
  />
  <path
    d="M195.5,191.81c-.2,0-.39-.12-.47-.32-.1-.25.02-.53.26-.64.59-.27,1.16-.6,1.68-.98.03-.05.05-.1.07-.15.1-.26.1-.59.09-.91,0-.78-.05-1.47-.39-1.96-.4-.58-1.17-.77-1.59-.83-.47-.07-.89-.05-1.23.06-.37.12-.71.36-1.08.62-.12.09-.25.18-.38.26-.77.51-1.45.7-2.09.58-.27-.05-.45-.31-.4-.58.05-.27.32-.45.58-.4.36.07.81-.07,1.35-.43.12-.08.23-.16.35-.24.41-.29.83-.58,1.34-.75.5-.16,1.06-.2,1.69-.1,1,.15,1.8.59,2.26,1.25.55.78.56,1.79.57,2.52,0,.02,0,.05,0,.07.32-.33.63-.67.9-1.04.17-.22.48-.26.7-.1.22.17.27.48.1.7-.61.81-1.33,1.54-2.14,2.14-.54.71-1.49,1.03-2.04,1.21-.05.02-.1.03-.16.03Z"
  />
  <path
    d="M190.36,190.79c-.14,0-.28-.06-.37-.17-.18-.21-.16-.52.04-.71.67-.59,1.4-1.12,2.18-1.56.13-.08.26-.15.32-.21-.16-.15-.21-.39-.1-.59.13-.25.42-.34.67-.22.2.1.35.29.42.51.07.26.04.55-.1.79-.18.3-.46.46-.69.59-.73.42-1.41.9-2.03,1.45-.09.08-.21.13-.33.13ZM192.64,188.23h.01-.01Z"
  />
  <path
    d="M190.28,193.15c-.25,0-.46-.19-.5-.44-.03-.27.16-.52.44-.56,1.04-.12,2.04-.58,2.81-1.28l.16-.15c.16-.15.32-.3.5-.43.64-.46,1.43-.6,2.07-.71.27-.05.53.13.58.41s-.13.53-.41.58c-.59.1-1.2.21-1.66.54-.14.1-.27.23-.4.35l-.17.16c-.93.84-2.12,1.39-3.36,1.54-.02,0-.04,0-.06,0Z"
  />
  <path
    d="M191.44,194.36c-.11,0-.24,0-.36-.03-.08-.02-.15-.04-.23-.06l-.11-.03c-.13-.03-.28-.01-.4.06-.24.13-.54.05-.68-.19-.13-.24-.05-.54.19-.68.33-.19.74-.24,1.11-.16.06.01.12.03.19.05.04.01.08.03.13.04.08.02.19.02.3,0l1.22-.04,2-2.26c.18-.21.5-.23.71-.05.21.18.23.5.05.71l-1.92,2.23c-.07.08-.17.2-.32.27-.18.09-.36.1-.48.1l-1.22.04c-.05,0-.11,0-.16,0Z"
  />
  <path
    d="M191.61,195.29c-.27,0-.5-.1-.7-.18-.08-.03-.16-.07-.24-.09-.09-.02-.18-.03-.27-.04-.09,0-.17-.02-.26-.03-.12-.02-.22-.05-.32-.09-.14.02-.3-.03-.41-.13-.21-.2-.26-.52-.13-.77.08-.15.24-.25.41-.27.17-.02.34.07.44.21,0,0,.06.04.18.07.06.01.13.02.19.02.14.01.29.03.43.07.13.03.25.08.37.14.12.05.28.12.33.1.04,0,.11-.05.14-.07.26-.16.51-.35.75-.57.2-.19.52-.17.71.03.19.2.17.52-.03.71-.28.25-.58.48-.9.68-.12.08-.27.16-.46.2-.08.02-.16.03-.23.03Z"
  />
  <path
    d="M196.32,191.24s-.09,0-.14-.02c-.26-.08-.42-.35-.34-.62.28-.95.65-1.87,1.12-2.74.13-.24.44-.33.68-.2.24.13.33.43.2.68-.44.81-.79,1.67-1.04,2.55-.06.22-.26.36-.48.36Z"
  />
  <path
    d="M201.09,161.18c-1.54,0-3.07-.4-4.42-1.16-.24-.14-.33-.44-.19-.68.14-.24.44-.33.68-.19,1.59.89,3.45,1.22,5.24.92.27-.04.53.14.58.41.05.27-.14.53-.41.58-.49.08-.99.12-1.48.12Z"
  />
  <path
    d="M198.6,173.71s-.05,0-.08,0c-.27-.04-.46-.3-.42-.57.06-.4-.73-.78-.98-.88l-1.63-.69c-.13-.05-.23-.16-.27-.29l-.65-1.78c-.09-.26.04-.55.3-.64.26-.09.55.04.64.3l.58,1.57,1.43.61c1.46.62,1.66,1.41,1.58,1.96-.04.25-.25.42-.49.42Z"
  />
  <path
    d="M194.21,138.64c-.09,0-.18-.02-.26-.07l-4.43-2.66c-.24-.14-.31-.45-.17-.69.14-.24.45-.32.69-.17l4.43,2.66c.24.14.31.45.17.69-.09.16-.26.24-.43.24Z"
  />
  <path
    d="M154.22,81.49c-.14,0-.27-.06-.37-.16-.19-.2-.17-.52.03-.71,2.45-2.23,4.88-4.54,7.21-6.87.2-.2.51-.2.71,0s.2.51,0,.71c-2.35,2.35-4.79,4.67-7.25,6.91-.1.09-.22.13-.34.13Z"
  />
  <path
    d="M177.81,239.2c-.07,0-.14-.01-.2-.04-.25-.11-.37-.41-.25-.66,1.08-2.44,1.5-5.14,1.91-7.76.75-4.85,1.52-9.84,2.19-14.8-.15-.13-.24-.33-.21-.53.02-.14.08-.24.14-.33.05-.08.14-.22.28-.51.05-.1.13-.18.23-.23.73-1.64,1.54-3.26,2.4-4.84.21-.38.22-.88.23-1.37l.19-8.66c0-.28.24-.49.51-.49.28,0,.5.23.49.51l-.19,8.66c-.01.55-.03,1.23-.35,1.83-.95,1.74-1.83,3.54-2.62,5.35-.69,5.21-1.51,10.47-2.3,15.57-.42,2.68-.84,5.45-1.98,8.01-.08.19-.27.3-.46.3Z"
  />
  <path
    d="M170.91,302.2s-.05,0-.07,0c-.27-.04-.46-.29-.42-.57.27-1.88.71-4.33,1.71-6.59l.12-.26c.22-.48.42-.93.48-1.39.04-.29.02-.59,0-.92-.01-.25-.03-.5-.02-.75.03-.87.31-1.68.58-2.46.2-.58.4-1.13.48-1.69.11-.7.07-1.41.02-2.16-.04-.64-.08-1.31-.02-1.98.12-1.33.63-2.55,1.12-3.73.12-.29.24-.59.36-.88,2.04-5.2,2.15-10.88,2.27-16.38,1.06-5.61,1.9-11.52.97-17.29-.22-1.41-.56-2.82-.88-4.19l-1.91-8.09c-.06-.27.1-.54.37-.6.27-.07.54.1.6.37l1.91,8.09c.33,1.39.67,2.82.9,4.26.95,5.92.1,11.94-.97,17.55-.1,5.24-.22,11.28-2.33,16.65-.12.3-.24.6-.37.9-.48,1.17-.94,2.27-1.05,3.44-.05.59-.02,1.19.03,1.82.05.78.1,1.58-.03,2.38-.1.65-.32,1.27-.53,1.87-.26.74-.5,1.44-.53,2.16,0,.22,0,.44.02.66.02.36.04.72,0,1.1-.08.61-.33,1.15-.56,1.67l-.12.25c-.95,2.15-1.37,4.51-1.63,6.33-.04.25-.25.43-.49.43Z"
  />
  <path
    d="M170.72,302.25h-.02c-.87-.04-1.54-.52-2.18-.99-.34-.25-.66-.48-.99-.64-.46-.22-1.01-.32-1.54-.41l-5.49-.96c-.58,1.19-1.56,2.19-2.74,2.78-.25.12-.55.03-.67-.22-.12-.25-.03-.55.22-.67,1.08-.55,1.97-1.51,2.42-2.64.09-.22.32-.35.55-.3l5.87,1.03c.6.1,1.21.21,1.79.49.42.2.79.47,1.15.73.55.4,1.07.78,1.63.8.28.01.49.24.48.52-.01.27-.23.48-.5.48Z"
  />
  <path
    d="M160.5,231.38c-.18,0-.36-.1-.45-.28-1.72-3.45-3.66-7.36-4.13-11.51-.38-3.38.22-6.78.8-10.05.33-1.86.67-3.79.83-5.68.02-.27.25-.47.54-.46.27.02.48.26.46.54-.16,1.94-.5,3.89-.84,5.77-.57,3.21-1.16,6.53-.79,9.77.45,3.97,2.27,7.63,4.03,11.17.12.25.02.55-.22.67-.07.04-.15.05-.22.05Z"
  />
  <path
    d="M163.78,272.79c-.19,0-.37-.11-.46-.29-2.41-5.3-3.54-10.47-3.36-15.37.05-1.44.22-2.89.39-4.3.2-1.69.4-3.43.4-5.14,0-2.72-.54-5.5-1.06-8.18-.72-3.74-1.47-7.6-.82-11.44.05-.27.31-.45.58-.41.27.05.46.3.41.58-.62,3.66.08,7.26.81,11.08.53,2.73,1.07,5.55,1.08,8.37,0,1.77-.2,3.54-.4,5.26-.16,1.38-.33,2.82-.38,4.22-.17,4.74.93,9.76,3.27,14.92.11.25,0,.55-.25.66-.07.03-.14.04-.21.04Z"
  />
  <path
    d="M157.81,302.24c-.18,0-.35-.1-.44-.27-.92-1.76-1-3.79-.94-5.72.15-5.26,1.14-10.49,2.1-15.55.2-1.07.41-2.17.78-3.23.38-1.09.92-2.13,1.44-3.12.71-1.36,1.38-2.64,1.68-4.06.06-.27.32-.45.59-.39.27.06.44.32.39.59-.32,1.56-1.06,2.96-1.77,4.32-.5.97-1.03,1.97-1.38,2.99-.34.99-.54,2.06-.74,3.09-.95,5.02-1.93,10.21-2.08,15.39-.05,1.79.01,3.67.83,5.22.13.24.04.55-.21.67-.07.04-.15.06-.23.06Z"
  />
  <path
    d="M170.08,300.38c-.05,0-.1,0-.16-.03-.68-.22-1.12-.8-1.44-1.27-1.52-2.29-2.09-5.08-2.6-7.54-.06-.27.12-.53.39-.59.27-.06.54.12.59.39.49,2.37,1.04,5.06,2.45,7.19.22.34.53.75.92.87.26.09.4.37.32.63-.07.21-.26.34-.47.34Z"
  />
  <path
    d="M161.6,288.26c-.24,0-.45-.17-.49-.41-.05-.27.13-.53.4-.58l3.25-.58c1.43-.26,2.93-.53,4.42-.5.24,0,.48.01.72.02.46.02.9.04,1.34,0h.12c.46-.05,1.04-.1,1.51.26.22.17.26.48.09.7s-.48.26-.7.09c-.16-.13-.5-.1-.81-.07h-.12c-.5.05-.99.03-1.47,0-.23,0-.46-.02-.69-.02-1.42-.03-2.84.24-4.23.49l-3.25.58s-.06,0-.09,0Z"
  />
  <path
    d="M162.17,276.78c-.16,0-.31-.07-.41-.21-.16-.22-.11-.54.12-.7l3.84-2.72-1.64-3.17c-.13-.25-.03-.55.21-.67.25-.13.55-.03.67.21l1.72,3.32c.05.09.16.31.1.57-.06.26-.26.4-.35.47l-3.97,2.82c-.09.06-.19.09-.29.09ZM165.8,273.33h.01-.01Z"
  />
  <path
    d="M157.2,209.04c-.19,0-.38-.11-.46-.3-1.06-2.42-1.93-4.95-2.56-7.52-.07-.27.1-.54.37-.61s.54.1.61.37c.62,2.51,1.46,4.99,2.51,7.36.11.25,0,.55-.26.66-.07.03-.13.04-.2.04Z"
  />
  <path
    d="M139.66,220.96c-.15,0-.29-.07-.39-.19-.17-.22-.13-.53.08-.7,2.76-2.17,6.05-3.62,9.52-4.18l.15-.02c.53-.08,1.02-.16,1.41-.41.2-.13.39-.31.59-.5l.09-.09c1.44-1.37,3.19-2.44,5.06-3.08.27-.09.55.05.64.31.09.26-.05.55-.31.64-1.74.6-3.37,1.59-4.7,2.86l-.09.08c-.23.22-.46.44-.75.62-.56.35-1.21.45-1.79.54l-.15.02c-3.3.54-6.44,1.91-9.07,3.98-.09.07-.2.11-.31.11Z"
  />
  <path
    d="M151.55,226.69c-.08,0-.16-.02-.24-.06-.24-.13-.33-.43-.2-.68l4.49-8.36c.13-.24.44-.33.68-.2.24.13.33.43.2.68l-4.49,8.36c-.09.17-.26.26-.44.26Z"
  />
  <path
    d="M134.21,208.25s-.07,0-.11-.01c-.27-.06-.44-.32-.38-.59l1.98-9.24c.06-.27.32-.44.59-.38.27.06.44.32.38.59l-1.98,9.24c-.05.24-.26.4-.49.4Z"
  />
  <path
    d="M132.16,224.79c-.09,0-.18-.02-.27-.08-.98-.62-1.66-1.76-1.88-3.14-.18-1.18-.02-2.4.12-3.48l.56-4.25c.14-1.09.29-2.21.72-3.27.83-2.05,2.54-3.52,4.06-4.82.21-.18.53-.15.71.05.18.21.16.53-.05.71-1.43,1.22-3.05,2.61-3.78,4.43-.38.94-.52,2-.65,3.02l-.56,4.25c-.14,1.06-.28,2.15-.12,3.19.17,1.09.69,1.99,1.42,2.45.23.15.3.46.16.69-.09.15-.26.23-.42.23Z"
  />
  <path
    d="M126.71,255.24c-.26,0-.48-.2-.5-.47-.68-11.25-.71-23.14,3.59-33.86.1-.26.4-.38.65-.28.26.1.38.39.28.65-4.23,10.54-4.19,22.3-3.52,33.43.02.28-.19.51-.47.53-.01,0-.02,0-.03,0Z"
  />
  <path
    d="M120.02,284.54h0c-.28,0-.5-.23-.49-.51.08-4.4,1.21-8.72,2.29-12.9.84-3.25,1.71-6.6,2.08-9.96l.06-.59c.11-1.06.22-2.15.58-3.2.2-.59.48-1.14.74-1.67.18-.37.36-.73.52-1.11.49-1.16.73-2.43.97-3.65l2.5-12.75c.05-.27.31-.45.59-.39.27.05.45.32.39.59l-2.5,12.75c-.25,1.28-.51,2.6-1.03,3.85-.17.4-.36.78-.55,1.17-.26.53-.51,1.03-.69,1.55-.32.94-.42,1.92-.53,2.97l-.06.6c-.38,3.43-1.26,6.82-2.11,10.1-1.07,4.12-2.17,8.38-2.26,12.66,0,.27-.23.49-.5.49Z"
  />
  <path
    d="M131.09,302.14c-.08,0-.16,0-.23,0-1.38-.04-2.69-.45-3.95-.84l-1.44-.44c-.73-.23-1.55-.48-2.23-1.01-.13-.1-.25-.21-.38-.33-.22-.2-.42-.39-.65-.48-.14-.06-.29-.09-.44-.12-.2-.04-.43-.1-.66-.2-.09-.04-.18-.09-.26-.14-.11-.06-.22-.12-.29-.13-.17-.02-.38.18-.61.38-.33.3-.71.67-1.32.66-.34-.04-.74-.06-1.14-.09-.17-.01-.32-.11-.4-.25-.08-.15-.08-.33,0-.48,1.58-3.04,1.92-6.43,2.29-10.02.18-1.76.36-3.58.71-5.34.38-1.93.96-3.83,1.53-5.67.49-1.6,1.04-3.39,2.23-4.77l.23-.26c.24-.26.46-.51.59-.79.16-.36.18-.8.2-1.22l.24-6.08c.01-.28.25-.47.52-.48.28.01.49.24.48.52l-.24,6.08c-.02.47-.04,1.06-.29,1.6-.19.42-.48.73-.76,1.04l-.22.24c-1.05,1.22-1.57,2.9-2.02,4.38-.57,1.84-1.14,3.72-1.51,5.6-.34,1.71-.52,3.51-.7,5.24-.33,3.28-.68,6.66-2.07,9.71.14.01.28.02.4.04h0c.14,0,.35-.19.58-.4.35-.32.79-.71,1.4-.63.27.03.49.16.66.25.06.03.12.07.19.1.13.06.29.1.46.13.21.05.42.1.62.18.38.16.67.43.92.66.11.1.21.19.32.28.53.42,1.23.64,1.91.85l1.44.44c1.2.37,2.43.75,3.68.79,1.32.04,2.5-.35,3.24-1.08.2-.19.51-.19.71,0s.19.51,0,.71c-.9.89-2.22,1.37-3.74,1.37Z"
  />
  <path
    d="M134.69,300.98s-.04,0-.06,0c-.27-.03-.47-.28-.44-.55l.3-2.66c.08-.7.17-1.5-.08-2.15l-.07-.17c-.07-.17-.15-.36-.2-.57-.06-.32-.02-.62.02-.88.21-1.47.21-2.92.01-4.34-.04-.27.15-.53.42-.57.26-.04.53.15.57.42.22,1.52.21,3.06,0,4.59-.04.25-.06.44-.04.59.02.11.07.23.13.36l.09.21c.34.88.23,1.85.14,2.63l-.3,2.66c-.03.25-.25.44-.5.44Z"
  />
  <path
    d="M129.92,298.44c-.08,0-.17-.02-.24-.06-.24-.13-.33-.44-.2-.68l5.26-9.5c.31-.56.6-1.09.79-1.65.31-.92.34-1.91.38-2.95.01-.38.02-.75.05-1.12.16-2.29.81-4.5,1.44-6.65.5-1.7,1.02-3.45,1.27-5.21.29-1.98.25-4.05.22-6.04l-.09-5.02c0-.28.21-.5.49-.51.23-.03.5.21.51.49l.09,5.02c.04,2.03.07,4.14-.23,6.2-.26,1.83-.79,3.62-1.3,5.35-.62,2.09-1.25,4.25-1.4,6.43-.02.36-.04.72-.05,1.08-.04,1.07-.07,2.18-.43,3.24-.22.65-.54,1.23-.86,1.8l-5.26,9.51c-.09.17-.26.26-.44.26Z"
  />
  <path
    d="M136.91,269.13s-.07,0-.1-.01c-.27-.06-.44-.32-.39-.59,1.71-8.25,4.36-16.32,7.89-23.98.82-1.78,1.7-3.57,2.55-5.3,2.78-5.65,5.66-11.5,6.77-17.74.05-.27.31-.46.58-.41.27.05.45.31.41.58-1.13,6.38-4.04,12.29-6.85,18-.85,1.73-1.73,3.51-2.54,5.27-3.5,7.59-6.13,15.58-7.82,23.76-.05.24-.26.4-.49.4Z"
  />
  <path
    d="M130.22,277.77c-.18,0-.35-.09-.44-.26-.13-.24-.04-.55.2-.68,3.3-1.78,6.21-4.33,8.41-7.37.16-.22.47-.27.7-.11.22.16.27.47.11.7-2.29,3.16-5.31,5.81-8.74,7.67-.08.04-.16.06-.24.06Z"
  />
  <path
    d="M171.06,311.19c-.23,0-.43-.16-.49-.39-.06-.27.11-.54.38-.6.02,0,.06-.01.11-.09.1-.16.11-.46.04-.71-.3-1.07-1.32-1.96-3.03-2.65-.84-.34-1.59-.55-2.28-.66-.62-.09-1.26-.1-1.88-.12-.6-.01-1.23-.03-1.83.02-1.04.08-2.06.36-2.96.81-.61.3-1,.62-1.22.98-.2.33-.27.86,0,1.17.18.21.16.53-.05.71-.21.18-.53.16-.71-.05-.52-.6-.56-1.57-.09-2.34.33-.54.84-.97,1.64-1.37,1.02-.51,2.14-.81,3.32-.91.65-.05,1.3-.04,1.93-.02.65.01,1.33.03,2.01.13.77.12,1.59.35,2.51.72,2.01.8,3.23,1.92,3.62,3.3.11.41.14,1.01-.15,1.49-.17.29-.43.48-.74.56-.04,0-.08.01-.11.01Z"
  />
  <path
    d="M171.93,313.01c-.08,0-.16-.02-.24-.06-1.2-.65-2.45-1.23-3.72-1.73-2.02-.8-3.58-1.17-5.06-1.22-1.87-.06-3.53.46-4.71,1.46-.14.12-.52.4-.93.33-.21-.03-.39-.15-.5-.33-.06-.1-.09-.21-.07-.33.02-.15.06-.32.12-.49.06-.21.12-.44.12-.62,0-.19.09-.37.26-.46.97-.52,1.96-1.06,3.07-1.34,2.7-.69,5.35.2,8.29,1.34l3.55,1.38c.12.05.22.14.28.27.21.48.21,1.03.02,1.51-.05.13-.16.24-.29.29-.06.02-.11.03-.17.03ZM157.91,310.3s-.01.09-.02.13c1.34-.98,3.12-1.5,5.06-1.43h0c-.83-.07-1.64-.03-2.44.18-.9.23-1.76.67-2.6,1.12Z"
  />
  <path
    d="M171.27,313.55c-.5,0-.98-.05-1.46-.11l-4.33-.49c-1.57-.18-3.17-.36-4.79-.35h-.19c-.63,0-1.29.01-1.93-.21-.12-.04-.24-.09-.36-.15-.27-.12-.52-.23-.71-.18-.27.07-.54-.1-.6-.37-.06-.27.1-.54.37-.6.51-.12.97.08,1.34.24.1.04.2.09.3.12.47.17,1.01.16,1.58.16h.19s.07,0,.1,0c1.62,0,3.24.18,4.8.36l4.32.49c.53.06,1.03.12,1.52.1,0-.02.02-.05.03-.07.12-.25.42-.35.67-.24.18.09.31.26.34.47.04.22-.04.45-.2.6-.21.2-.48.22-.59.22-.14,0-.27.01-.41.01Z"
  />
  <path
    d="M157.43,308.11s-.02,0-.03,0c-.28-.02-.49-.25-.47-.53.12-1.84.53-3.31,1.26-4.52l.13-.21c.1-.16.21-.32.29-.49.24-.52.25-1.18.26-1.76,0-.27.23-.49.5-.49h0c.28,0,.5.23.49.51,0,.64-.02,1.45-.35,2.16-.1.21-.22.41-.35.61l-.12.2c-.65,1.06-1.01,2.39-1.12,4.06-.02.26-.24.47-.5.47Z"
  />
  <path
    d="M170.98,308.02c-.3,0-.58-.24-.65-.55-.12-.5-.08-.99-.04-1.46.01-.19.03-.38.03-.56,0-.15,0-.54-.14-.86l-.46.69c-.06.09-.18.26-.39.35-.47.19-.82-.17-.97-.32l-.07-.07c-.14-.13-.49-.09-.79-.06-.91.09-1.77.03-2.59-.03l-1.5-.11c-.89-.06-1.99-.14-2.89-.71l-.15-.1c-.22-.14-.58-.38-.7-.3-.04.02-.09.09-.14.15-.08.1-.16.2-.26.28-.24.2-.58.28-.87.19-.24-.07-.42-.25-.5-.48-.08-.26.07-.54.33-.63.16-.05.33-.01.46.08.02-.03.04-.05.06-.08.1-.12.22-.27.4-.38.65-.4,1.32.03,1.76.32l.14.09c.69.43,1.62.5,2.43.56l1.5.11c.78.05,1.59.11,2.37.04.51-.05,1.15-.11,1.62.32l.05.04.71-1.05c.15-.22.45-.29.68-.15.61.38.95,1.15.94,2.12,0,.21-.02.42-.04.62-.03.33-.05.65-.02.94.19.1.3.32.26.55-.05.23-.3.44-.54.44h0ZM171.3,307.24s0,0,0,0c0,0,0,0,0,0Z"
  />
  <path
    d="M170.33,304.3c-.14,0-.31-.05-.41-.13-.24-.19-.27-.48-.27-.6-.01-.56.04-1.12.13-1.67.05-.27.31-.45.58-.4.27.05.45.31.4.58-.08.44-.12.9-.12,1.34.08.07.13.16.16.27.05.27-.12.53-.39.59-.03,0-.05,0-.09,0ZM170.65,303.55h0,0Z"
  />
  <path
    d="M168.92,304.99c-.23,0-.43-.15-.49-.38l-.47-1.94c-.06-.27.1-.54.37-.6.27-.06.54.1.6.37l.47,1.94c.06.27-.1.54-.37.6-.04,0-.08.01-.12.01Z"
  />
  <path
    d="M158.71,302.4c-.09,0-.19-.03-.27-.08-.23-.15-.3-.46-.15-.69l1.92-2.97c.15-.23.46-.3.69-.15.23.15.3.46.15.69l-1.91,2.97c-.1.15-.26.23-.42.23Z"
  />
  <path
    d="M166.46,304.72c-.06,0-.13-.01-.19-.04-.25-.11-.45-.27-.62-.41l-.13-.1c-.5-.4-1.15-.64-1.9-.71-.65-.05-1.35.02-2.15.24-.27.08-.54-.09-.61-.35-.07-.27.08-.54.35-.61.91-.25,1.72-.34,2.5-.27.94.08,1.78.4,2.43.92l.15.12c.13.11.25.21.36.25.25.11.38.4.27.65-.08.19-.27.31-.46.31Z"
  />
  <path
    d="M161.92,300.54c-.19,0-.37-.11-.45-.29-.12-.25-.01-.55.24-.67.53-.25,1.08-.44,1.65-.55.22-.04.47-.08.73-.02.37.08.66.35.75.69.07.27-.09.54-.36.61-.27.07-.54-.09-.61-.36-.08.02-.19.04-.31.06-.49.1-.97.26-1.42.47-.07.03-.14.05-.21.05Z"
  />
  <path
    d="M166.41,302.13c-.15,0-.31-.07-.4-.2-.39-.53-1.06-.9-1.84-1-.66-.09-1.42,0-2.31.26-.26.08-.54-.07-.62-.34-.08-.26.07-.54.34-.62,1.03-.3,1.92-.4,2.73-.29,1.05.14,1.97.65,2.51,1.4.16.22.12.54-.11.7-.09.07-.19.1-.3.1Z"
  />
  <path
    d="M165.78,303.05c-.1,0-.19-.03-.28-.08-.91-.61-2.05-.79-3.15-.9.18.18.2.47.04.68-.17.21-.49.24-.7.07-.41-.34-.6-.91-.46-1.43.06-.23.27-.38.52-.37,1.34.11,3,.24,4.31,1.12.23.15.29.46.14.69-.1.14-.25.22-.42.22Z"
  />
  <path
    d="M168.52,302.56c-.15,0-.3-.03-.45-.09-.3-.12-.53-.34-.69-.52-.31-.33-.56-.69-.81-1.04-.12-.16-.13-.39-.02-.56.1-.17.29-.28.49-.24,1.4.21,2.02,1.01,2.29,1.64.09.21.03.45-.14.59-.18.15-.42.23-.66.23Z"
  />
  <path
    d="M135.15,302.28c-.21,0-.4-.13-.47-.34l-.36-1.07c-.09-.26.05-.55.31-.63.26-.09.54.05.63.31l.36,1.07c.09.26-.05.55-.31.63-.05.02-.11.03-.16.03Z"
  />
  <path
    d="M115.31,305.73c-.1,0-.21-.03-.29-.1-.22-.16-.27-.48-.11-.7l1.28-1.75c.29-.39.57-.77.89-1.12,1.14-1.22,2.69-1.92,4.06-2.53.25-.12.55,0,.66.25.11.25,0,.55-.25.66-1.35.61-2.74,1.23-3.74,2.3-.29.31-.53.65-.8,1l-1.29,1.77c-.1.13-.25.21-.4.21Z"
  />
  <path
    d="M114.06,305.58c-.17,0-.33-.09-.43-.24-.14-.24-.07-.54.17-.69.66-.4,1.28-.85,1.85-1.34.21-.18.53-.15.71.05.18.21.16.53-.05.71-.62.53-1.28,1.01-1.98,1.43-.08.05-.17.07-.26.07Z"
  />
  <path
    d="M130.22,310.48c-.26,0-.49-.21-.5-.47-.04-.83-.09-1.7-.37-2.46-.29-.78-.82-1.37-1.44-1.57-.36-.12-.78-.11-1.1-.1-1.32.07-2.63.46-3.77,1.14l-.18.11c-.78.47-1.76,1.07-2.76.64-.38-.16-.67-.44-.92-.68-.25-.25-.47-.46-.71-.5-.11-.02-.26,0-.42.02-.2.03-.44.06-.68.02-.32-.04-.58-.18-.81-.3l-.11-.06c-.88-.45-1.91-.61-2.88-.47-.27.05-.53-.15-.57-.42-.04-.27.15-.53.42-.57,1.18-.18,2.42.02,3.48.57l.12.06c.18.09.34.18.49.2.11.02.26,0,.41-.02.21-.03.45-.06.71-.02.55.09.92.45,1.25.77.21.2.4.39.61.48.53.23,1.21-.18,1.86-.58l.18-.11c1.28-.76,2.74-1.2,4.23-1.28.41-.02.94-.02,1.46.15.91.3,1.67,1.09,2.06,2.17.33.91.38,1.89.43,2.76.01.28-.2.51-.47.53,0,0-.02,0-.03,0Z"
  />
  <path
    d="M135.48,309.2c-.08,0-.16-.02-.24-.06-.24-.13-.33-.44-.2-.68.93-1.72.99-3.86.18-5.63l-4.9,4.94c-.19.2-.51.2-.71,0-.2-.19-.2-.51,0-.71l5.38-5.42c.11-.11.26-.17.42-.14.15.02.29.11.37.24,1.29,2.16,1.35,4.99.15,7.2-.09.17-.26.26-.44.26Z"
  />
  <path
    d="M121.27,306.8c-.27,0-.49-.21-.5-.48-.02-.77-.05-1.72.33-2.57.19-.42.46-.78.71-1.1l2.18-2.86c.17-.22.48-.26.7-.09.22.17.26.48.09.7l-2.18,2.86c-.22.29-.45.59-.59.9-.29.64-.26,1.43-.24,2.13,0,.28-.21.51-.48.52h-.02Z"
  />
  <path
    d="M119.48,302.94c-.38,0-1-.22-2.19-.83-.21-.11-.31-.34-.26-.56.05-.22.25-.38.49-.38h0c.66,0,1.77,0,2.47.73.06.06.11.14.13.23.07.27-.01.52-.21.67-.12.09-.25.15-.44.15Z"
  />
  <path
    d="M118.76,303.32c-.29,0-.59-.11-.91-.34l-.16-.12c-.14-.11-.28-.21-.4-.25-.23-.07-.55.09-.86.25-.24.13-.55.03-.67-.21-.13-.24-.03-.55.21-.67.36-.19.96-.5,1.59-.33.31.08.53.26.74.42l.14.1c.2.14.31.16.35.15.27-.08.54.07.62.34.08.26-.07.54-.34.62-.1.03-.2.04-.31.04Z"
  />
  <path
    d="M117.79,305.45s-.06,0-.09,0c-.27-.05-.45-.31-.41-.58,0,0-.02-.05-.08-.1-.1-.08-.27-.14-.44-.2-.31-.11-.63-.21-.92-.22-.26,0-.48.07-.59.21-.17.22-.49.25-.7.07-.21-.17-.25-.49-.07-.7.31-.38.84-.56,1.39-.58.45.01.86.15,1.22.28.22.08.5.17.74.37.33.27.5.67.43,1.05-.04.24-.25.41-.49.41Z"
  />
  <path
    d="M120.41,302.34c-.35,0-.66-.14-.88-.25-.26-.13-.63-.37-.75-.79-.13-.44.09-.84.2-1.06.39-.74.82-1.47,1.26-2.17.16-.25.35-.39.58-.42.12-.02.36-.01.59.21.19.17.29.39.35.56.35.92.33,1.97-.05,2.88-.3.69-.72.93-1.02,1-.1.03-.2.04-.3.04ZM120.89,298.92c-.36.58-.71,1.18-1.03,1.79-.12.23-.13.29-.12.31,0,0,.02.06.25.18.08.04.34.17.47.14.11-.03.24-.19.34-.43.27-.62.3-1.34.09-1.99ZM120.66,298.34h0,0Z"
  />
  <path
    d="M115.84,303.18c-.14,0-.28-.06-.38-.18-.18-.21-.15-.53.06-.71.55-.46,1.06-1.02,1.56-1.56.91-1,1.85-2.03,3.14-2.61.25-.12.55,0,.66.25.11.25,0,.55-.25.66-1.1.49-1.93,1.4-2.81,2.37-.52.57-1.05,1.15-1.65,1.66-.09.08-.21.12-.32.12Z"
  />
  <path
    d="M114.78,303.92c-.1,0-.21-.03-.3-.1-.22-.16-.27-.48-.11-.7,1.22-1.67,2.61-3.55,4.48-4.82.23-.15.54-.09.69.14.15.23.09.54-.14.69-1.73,1.16-3,2.9-4.24,4.58-.1.13-.25.2-.4.2Z"
  />
  <path
    d="M114.78,313.99s-.05,0-.08,0c-.27-.04-.46-.3-.41-.58l.07-.43c.19-1.12.31-2.12-.13-2.88-.22-.37-.57-.68-.93-.95-.82-.64-1.53-1.04-2.23-1.27-.84-.27-1.68-.27-2.36,0-.25.1-.54-.02-.64-.27-.11-.25,0-.54.25-.65.49-.22.99-.28,1.47-.34.28-.04.57-.07.84-.14.9-.24,1.68-.92,2.38-1.52.21-.18.53-.16.71.05.18.21.16.52-.05.71-.53.46-1.14,1-1.87,1.38.67.27,1.35.69,2.11,1.27.43.34.88.72,1.18,1.24.61,1.04.47,2.24.26,3.47l-.08.5c-.04.24-.25.42-.49.42Z"
  />
  <path
    d="M101.95,310.97c-.26,0-.48-.2-.5-.46-.07-1,.55-2.01,1.6-2.57.87-.47,1.85-.58,2.72-.67l2.66-.29c.27-.04.52.17.55.44.03.27-.17.52-.44.55l-2.66.29c-.82.09-1.66.18-2.36.56-.57.31-1.12.93-1.07,1.62.02.28-.19.52-.46.54-.01,0-.03,0-.04,0Z"
  />
  <path
    d="M117.58,310.87c-.15,0-.3-.07-.4-.2l-1.18-1.55c-.17-.22-.12-.53.1-.7.22-.17.53-.12.7.1l1.18,1.55c.17.22.12.53-.1.7-.09.07-.2.1-.3.1Z"
  />
  <path
    d="M126.62,314.82c-.27,0-.49-.21-.5-.49l-.02-.63c-.43-.09-.83-.3-1.15-.61-.2-.19-.2-.51,0-.71.19-.2.51-.2.71,0,.24.23.58.37.92.37,0,0,0,0,.02,0,.27,0,.49.21.5.48l.02.58c2.57-.05,5.16-.29,7.69-.71.25-.04.52-.1.63-.23.1-.12.12-.39.14-.58.07-.95.15-1.92.03-2.85-1.86.76-3.87,1.04-5.83,1.3-2.19.3-4.25.58-6.13,1.48-.38.18-.75.38-1.11.59-.65.36-1.32.73-2.05.98-1.55.52-3.22.44-4.7.36-1.77-.09-3.59-.18-5.37-.45-3.07-.47-6.07-1.48-8.85-2.5-.26-.1-.39-.38-.3-.64.1-.26.38-.39.64-.3,2.73,1,5.67,2,8.66,2.45,1.74.27,3.53.36,5.27.44,1.39.07,2.96.15,4.33-.31.65-.22,1.25-.55,1.89-.91.38-.21.77-.43,1.17-.62,2.02-.97,4.26-1.27,6.43-1.57,2.18-.3,4.25-.58,6.13-1.47.14-.07.3-.07.43,0,.14.07.24.19.27.34.29,1.26.19,2.59.1,3.76-.02.31-.06.78-.37,1.15-.33.39-.81.5-1.23.57-2.75.46-5.55.71-8.34.73h0Z"
  />
  <path
    d="M114.27,315.92c-.38,0-.76-.01-1.15-.05-1.13-.11-2.21-.43-3.25-.73-2.61-.76-5.31-1.55-7.94-2.49-.33-.12-.83-.3-1.16-.71-.22-.27-.33-.63-.3-.98.03-.29.17-.55.39-.72.06-.05.12-.08.2-.1.46-.11.95-.02,1.35.24.23.15.29.47.14.69-.16.23-.46.29-.69.14-.11-.07-.24-.11-.37-.12,0,.09.03.16.07.21.15.18.42.29.73.4,2.6.93,5.28,1.72,7.88,2.47,1,.29,2.03.59,3.07.7.79.08,1.59.04,2.38,0,1.17-.05,2.39-.1,3.57-.26.45-.06.92-.14,1.34-.32.39-.17.75-.42,1.12-.69.18-.13.36-.26.54-.38,1.38-.9,3.05-1.35,4.69-1.25.28.02.49.25.47.53-.02.27-.24.47-.5.47,0,0-.02,0-.03,0-1.44-.08-2.89.3-4.09,1.09-.17.11-.34.23-.51.35-.41.29-.83.59-1.32.8-.53.22-1.08.32-1.6.39-1.23.16-2.47.22-3.66.27-.45.02-.91.04-1.37.04Z"
  />
  <path
    d="M154.71,202.01c-.24,0-.46-.18-.49-.43l-.55-3.87c-.04-.27.15-.53.42-.57.27-.04.53.15.57.42l.55,3.87c.04.27-.15.53-.42.57-.02,0-.05,0-.07,0Z"
  />
</svg>
