<svg xmlns="http://www.w3.org/2000/svg" viewBox="0 0 320 320" opacity="0.6">
  <path
    d="m137.41,65.41c-.18,0-.33-.13-.36-.32-.02-.2.12-.37.31-.4.93-.11,1.77-.6,2.47-1.07.83-.55,1.61-1.17,2.41-1.8,1.38-1.08,2.94-2.31,3.87-3.72.1-.15.29-.2.45-.13.16.08.24.26.19.43-.85,2.65-3.03,4.71-4.78,6.37-.14.13-.35.13-.49,0-.14-.13-.15-.35-.03-.49l.14-.18s.09-.08.15-.1c1.08-1.03,2.22-2.14,3.11-3.41-.7.64-1.46,1.23-2.16,1.79-.81.64-1.61,1.26-2.46,1.83-.73.49-1.7,1.06-2.79,1.19-.01,0-.03,0-.04,0Z"
  />
  <path
    d="m142.84,65.29c-.1,0-.19-.04-.26-.11-.13-.14-.13-.36,0-.5l.18-.17s.03-.02.04-.03c1.43-1.37,2.35-3.2,3.17-4.83.28-.57.52-1.08.52-1.6,0-.2.16-.36.36-.36s.36.16.36.36c0,.68-.28,1.29-.59,1.92-.89,1.77-1.9,3.77-3.54,5.24-.07.06-.15.09-.24.09Z"
  />
  <path
    d="m143.54,64.62c-.15,0-.23-.06-.28-.11-.1-.1-.14-.27-.08-.4.06-.14.23-.23.39-.23,1.87-.99,3.51-2.58,4.58-4.47.23-.4.41-.79.45-1.02.04-.18.21-.31.4-.28.18.02.32.18.31.37-.06,1.4-.79,2.64-1.33,3.46-.37.56-.73,1.02-1.11,1.41-.34.34-.69.62-1.04.85-.17.11-.39.06-.5-.11-.11-.17-.06-.39.11-.5.31-.2.62-.45.92-.75.14-.14.27-.29.41-.46-.88.88-1.89,1.62-2.99,2.19-.09.03-.17.04-.23.04Z"
  />
  <path
    d="m145.43,64.58c-.14,0-.27-.08-.33-.21-.08-.18,0-.39.18-.47,2.33-1.03,3.97-3.18,5.43-5.09.28-.37.56-.75.61-1.15.02-.2.21-.34.4-.31.2.02.34.2.31.4-.07.59-.42,1.06-.73,1.48-1.52,1.99-3.23,4.23-5.72,5.33-.05.02-.1.03-.14.03Zm5.64-1.37c-.07,0-.15-.02-.22-.06-.14-.09-.21-.29-.16-.45.05-.15.18-.24.32-.25.69-.72,1.16-1.6,1.34-2.51.19-.99.03-2.05-.45-2.9-.1-.17-.04-.39.14-.49.17-.1.39-.04.49.14.56,1,.76,2.23.53,3.39-.21,1.09-.79,2.16-1.64,2.99-.08.08-.22.14-.35.14Zm-.15-.65s0,0,0,0c0,0,0,0,0,0Z"
  />
  <path
    d="m155.55,63.61h0c-.2,0-.36-.17-.35-.36.02-1.31-.18-2.66-.57-3.93,0,0,0,.02,0,.03-.18.79-.4,1.61-.89,2.29-.58.79-1.44,1.27-2.2,1.69-.17.1-.39.03-.49-.14-.1-.17-.03-.39.14-.49.7-.39,1.48-.83,1.97-1.49.41-.57.61-1.32.77-2.03.1-.41.18-.81.12-1.18-.03-.19.1-.38.3-.41.19-.02.36.09.41.27.09.03.16.11.2.2.66,1.65.99,3.45.97,5.2,0,.2-.16.35-.36.35Z"
  />
  <path
    d="m146.97,86.1c-.62,0-1.25-.06-1.87-.17-1.86-.81-3.26-2.28-4.49-3.57l-.06-.07c-.89-.94-1.82-1.92-2.51-3.05-1.41-2.3-1.79-4.99-2.08-7.78-.18-1.73-.32-3.29-.42-4.75-.01-.2.13-.37.33-.38.19-.02.37.13.38.33.1,1.45.24,3,.42,4.72.28,2.7.65,5.31,1.98,7.48.65,1.07,1.55,2.02,2.42,2.93l.06.07c1.18,1.24,2.53,2.65,4.18,3.38,2.34.42,4.81-.08,6.7-1.39,1.6-1.12,2.82-2.83,3.89-4.34.35-.56.64-1.2.86-1.89.13-.39.22-.77.31-1.19.96-4.48.7-9.28-.72-13.64-.1.25-.22.47-.36.67,0,.08-.04.15-.1.21-.08.08-.23.14-.34.12-.11-.02-.22-.1-.27-.2-.07-.14-.02-.37.09-.48.27-.36.47-.88.59-1.59.03-.16.16-.28.32-.3.17-.02.31.08.37.23,1.8,4.76,2.2,10.13,1.13,15.12-.09.42-.19.84-.33,1.26-.24.75-.56,1.44-.95,2.07-1.12,1.57-2.37,3.34-4.07,4.53-1.56,1.09-3.47,1.66-5.44,1.66Z"
  />
  <path
    d="m134.06,68.82c-.09,0-.18-.03-.25-.1-.14-.14-.14-.37,0-.51,1.46-1.47,2.97-2.99,3.88-4.85.09-.18.3-.25.48-.17.18.09.25.3.17.48-.96,1.97-2.51,3.54-4.01,5.05-.07.07-.16.11-.25.11Zm4.95-1.05c-.08,0-.16-.03-.22-.08-.15-.12-.18-.35-.05-.5.29-.36.73-.51,1.09-.6.64-.14,1.26-.16,1.9-.17.22,0,.43,0,.65-.01.22,0,.43-.01.64-.01.35,0,.79,0,1.16.26.15.11.19.31.1.47-.09.16-.28.22-.45.15-.08-.04-.16-.07-.24-.12-.32-.09-.77-.05-1.19-.04-.22,0-.44.01-.66.01-.59.01-1.18.03-1.74.16-.24.06-.54.15-.69.35-.07.09-.17.13-.28.13Zm5.29-3.4s-.06,0-.09-.01l-.2-.05c-.13-.04-.27-.07-.4-.1-1.14-.23-2.34-.04-3.5.14-.19.04-.38-.1-.41-.3-.03-.19.1-.38.3-.41,1.16-.18,2.48-.38,3.75-.13.15.03.3.07.45.11l.19.05c.19.05.31.24.26.44-.04.16-.19.27-.35.27Zm4.8-.47c-.11,0-.21-.05-.28-.14-.12-.15-.1-.38.06-.5.94-.74,2.18-.82,3.36-.85,1.11-.02,2.01-.01,2.84.03.2.01.35.18.34.38-.01.2-.19.35-.38.34-.81-.04-1.7-.05-2.79-.03-1.06.02-2.16.09-2.93.69-.07.05-.14.08-.22.08Z"
  />
  <path
    d="m141.97,67.77s-.03,0-.05,0c-.36-.02-.67-.05-.97-.09-.05.03-.11.04-.17.04-.19,0-.35-.17-.35-.36,0,0,0-.02,0-.04.01-.16.04-.33.09-.51.05-.19.24-.3.43-.25.19.05.3.23.27.42,0,0,0,0,0,.01.22.03.45.05.68.06.03,0,.07,0,.1,0l.03-.23c.02-.2.2-.34.4-.32.2.02.34.2.32.4l-.05.45c0,.07-.04.13-.08.18-.03.05-.07.08-.12.11-.17.1-.37.11-.52.11Z"
  />
  <path
    d="m141.85,67.74s-.1-.01-.14-.03c-.06.01-.12.01-.18,0-.12.05-.25.03-.35-.05,0,0-.01,0-.02,0-.13.05-.28,0-.38-.1-.01-.01-.02-.03-.03-.04,0,0-.01,0-.02,0-.16-.09-.23-.27-.16-.44.04-.1.11-.25.25-.37.06-.05.12-.07.19-.08.02-.01.04-.03.06-.04.1-.06.22-.07.32-.03.05-.01.11-.02.16,0,.09-.04.19-.05.28-.01.08-.03.17-.01.25.03.08-.04.18-.04.26,0,.11-.02.23.04.31.13.09.11.1.25.05.37,0,.09-.02.17-.08.24h0c0,.15-.09.28-.24.34l-.14.05c-.06.02-.12.02-.17.02-.06.04-.13.06-.19.06Zm7.39-.64c-.06,0-.12-.01-.17-.04-.17-.1-.24-.31-.14-.49.23-.42.64-.76,1.19-.98.46-.18.93-.24,1.39-.29,1.12-.13,2.4-.23,3.48.33.18.09.24.31.15.48-.09.18-.31.24-.48.15-.91-.47-2.01-.39-3.07-.26-.43.05-.84.1-1.2.24-.27.11-.63.31-.83.66-.07.12-.19.18-.31.18Z"
  />
  <path
    d="m150.58,66.73c-.18,0-.34-.14-.36-.33,0-.08.01-.15.05-.21,0-.16.02-.32.07-.46.07-.19.27-.28.46-.22.19.07.28.27.22.46,0,0,0,0,0,0,.29-.03.56-.07.83-.12l.13-.37c.07-.19.27-.28.46-.21.19.07.28.27.21.46l-.21.57c-.05.15-.19.23-.33.24-.47.09-.96.15-1.5.19,0,0-.02,0-.03,0Z"
  />
  <path
    d="m136.21,71.18c-.09,0-.17-.03-.24-.1-.21-.2-.41-.4-.6-.62-.12.14-.32.17-.47.07-1.95-1.27-3.25-3.51-3.38-5.83-.01-.2.14-.37.34-.38.19-.04.37.14.38.34.1,1.79.97,3.53,2.33,4.71-.94-1.48-1.44-3.24-1.4-4.99,0-.2.13-.34.37-.35.2,0,.35.17.35.37-.06,2.29.9,4.59,2.58,6.15.14.13.15.36.02.51-.07.08-.17.11-.26.11Zm14.58-4.49c-.09,0-.18-.03-.25-.1-.02-.02-.04-.05-.06-.07-.03-.01-.06-.03-.09-.06-.14-.12-.16-.33-.06-.48l.27-.37c.06-.09.16-.14.26-.15h0c.08-.08.18-.11.28-.1.03-.02.06-.03.09-.05.09-.04.19-.05.28-.01,0,0,.02,0,.02,0,.08-.03.17-.03.25,0,.13-.06.29-.03.39.07.08.02.15.06.2.12.02.02.03.04.04.07.01,0,.02.02.03.03.12.11.15.29.07.43h0c.07.15.03.34-.11.44-.09.07-.2.09-.3.06-.08.02-.16.01-.23-.02-.09.06-.2.08-.31.05-.1.06-.21.07-.32.04-.07.03-.15.03-.22,0-.02.01-.03.03-.05.04-.06.05-.14.07-.21.07Z"
  />
  <path
    d="m136.66,77.49c-.06,0-.13,0-.19-.02-.33-.07-.57-.26-.78-.43-1.18-.95-2.16-1.81-2.7-3.02-.14-.3-.24-.63-.33-.94l-.03-.09c-.31-1.03-.63-2.09-.72-3.18-.08-.96.19-1.66.78-1.97.18-.09.39-.03.48.15.09.17.03.39-.15.48-.44.23-.42.97-.4,1.28.08,1.02.39,2.04.69,3.03l.03.09c.09.31.18.59.3.86.48,1.08,1.39,1.87,2.46,2.73.2.16.36.29.51.32.11.02.22-.03.24-.07.06-.19.27-.29.45-.23.19.06.29.26.23.45-.13.38-.51.57-.87.57Z"
  />
  <path
    d="m135.58,74.52c-.33,0-.66-.13-.93-.36-.06.11-.17.18-.3.18-.44-.03-.79-.32-.99-.9-.48-1.43-.51-3.02-.06-4.48.06-.19.26-.3.45-.24.19.06.3.26.24.45-.4,1.32-.38,2.75.06,4.04.03.08.06.16.09.22-.07-.18-.13-.38-.17-.61-.08-.43-.07-.81.04-1.16.17-.51.56-.93,1.03-1.13.18-.07.39,0,.47.19.08.18,0,.39-.19.47-.29.12-.53.39-.63.7-.07.22-.08.49-.02.81.06.36.18.63.35.83.18.2.43.32.65.27.19-.03.38.1.41.29s-.1.38-.29.41c-.07.01-.14.02-.2.02Z"
  />
  <path
    d="m136.03,74.7c-.14,0-.27-.08-.33-.21-.33-.75-.62-1.5-.83-2.07-.07-.18.02-.39.21-.46.19-.07.39.03.46.21.21.56.49,1.3.81,2.04.08.18,0,.39-.18.47-.05.02-.1.03-.14.03Zm-3.81-4.84c-.12,0-.24-.06-.3-.17-.2-.32-.32-.69-.36-1.07-.75-2.51-1.04-4.93-.83-7.12.25-2.62,1.25-5.01,2.81-6.75.08-.09.2-.13.31-.12,1.67-2.56,3.33-4.31,5.2-5.51,2.48-1.59,5.29-2.09,7.71-1.37.19.06.3.26.24.44-.06.19-.25.3-.45.24-2.19-.65-4.85-.17-7.12,1.28-1.84,1.18-3.47,2.94-5.14,5.54-.08.13-.24.19-.39.15-1.37,1.61-2.24,3.78-2.46,6.15-.2,2.1.08,4.43.82,6.92.04.34.12.6.27.83.1.17.05.39-.11.49-.06.04-.12.06-.19.06Z"
  />
  <path
    d="m137.54,58.42c-.1,0-.2-.03-.26-.08-.2-.16-.22-.47-.13-.68,1.29-2.93,3.28-5.57,5.75-7.63,1.21-1.01,2.28-1.66,3.35-2.04,1.38-.5,2.79-.54,3.99-.14,1.39.47,2.45,1.58,2.78,2.88.05.19-.07.39-.26.43-.19.04-.39-.07-.43-.26-.26-1.05-1.17-1.99-2.32-2.38-1.04-.35-2.29-.31-3.51.13-.99.36-1.99.97-3.14,1.92-2.35,1.96-4.24,4.46-5.49,7.24,0,0,.01.01.02.02.12.16.08.38-.08.5-.06.05-.16.07-.26.07Zm.26-.47s0,0,0,0c0,0,0,0,0,0Z"
  />
  <path
    d="m157.82,69.02c-.15,0-.29-.09-.35-.23-.06-.13-.03-.31.06-.41.03-.04.07-.07.12-.08.86-1.63,1.42-3.41,1.64-5.23.02-.2.2-.33.4-.31.2.02.34.2.31.4-.13,1.09-.39,2.17-.74,3.21.65-.49,1.16-1.14,1.5-1.88.08-.18.29-.26.47-.18.18.08.26.29.18.47-.47,1.05-1.26,1.93-2.26,2.52-.05.1-.15.18-.27.2-.03,0-.05,0-.07.01-.19.44-.4.86-.62,1.27-.06.11-.25.25-.38.25Zm-.24-.6s-.03.05-.04.07c.01-.02.03-.05.04-.07Zm-22.05-3.2c-.18,0-.34-.14-.36-.32-.21-1.89-.36-3.92-.07-5.95.31-2.2,1.13-4.11,2.35-5.53.13-.15.36-.16.5-.04.15.13.17.36.04.51-1.13,1.31-1.89,3.09-2.19,5.16-.28,1.96-.13,3.94.07,5.78.02.2-.12.37-.32.4-.01,0-.03,0-.04,0Zm22.59-.12s-.09,0-.14-.03c-.18-.08-.27-.29-.19-.47.67-1.57.92-3.4.74-5.45-.17-2.01-.75-3.99-1.24-5.5-.22-.67-.44-1.31-.8-1.84-.38-.56-.91-.95-1.44-1.06-.52-.11-1.07.08-1.35.44.72,1.88,1.05,3.63.96,5.2,0,.2-.18.38-.38.34-.2-.01-.35-.18-.34-.38.08-1.51-.25-3.22-.98-5.08-.04-.1-.03-.21.02-.3.4-.72,1.33-1.11,2.22-.93.71.15,1.4.65,1.89,1.36.41.61.65,1.3.89,2.02.5,1.54,1.09,3.58,1.27,5.66.19,2.16-.08,4.11-.8,5.79-.06.14-.19.22-.33.22Zm-17.12-4.19c-.07,0-.15-.02-.21-.07-.16-.12-.19-.34-.08-.5,2.4-3.28,4.63-6.76,6.64-10.34.1-.17.32-.23.49-.14.17.1.23.32.14.49-2.02,3.6-4.27,7.1-6.69,10.41-.07.1-.18.15-.29.15Z"
  />
  <path
    d="m158.68,75.74c-.12,0-.25-.02-.37-.05-.38-.11-.68-.37-.82-.7-.08-.18.01-.39.19-.47.18-.08.39.01.47.19.06.13.19.24.36.29.17.05.34.03.46-.06.14-.1.24-.26.35-.46,1.43-2.59,1.7-5.8.72-8.58-.07-.19.03-.39.22-.46.18-.07.39.03.46.22,1.05,2.97.76,6.4-.76,9.17-.14.24-.29.51-.56.7-.2.14-.44.22-.7.22Z"
  />
  <path
    d="m159.65,73.31c-.14,0-.3-.08-.36-.21-.08-.16-.03-.38.11-.49.36-.85.67-1.63.74-2.44.12-1.22-.31-2.48-.68-3.58-.06-.19.04-.39.22-.45.18-.06.39.04.45.22.4,1.17.85,2.51.72,3.88-.08.93-.42,1.79-.83,2.73-.01.19-.16.28-.25.32-.04.02-.08.02-.13.02Z"
  />
  <path
    d="m158.03,73.24c-.14,0-.29-.1-.35-.23s-.03-.34.07-.44c.05-.06.12-.1.2-.11.1-.12.18-.24.27-.36.13-.17.25-.33.38-.5.09-.11.23-.16.36-.13.02,0,.03,0,.05.02.13-.08.24-.18.3-.28.16-.26.16-.63,0-.99-.15-.36-.44-.69-.72-1.01l.54-.48-.27.24.27-.23c.32.36.64.73.84,1.21.24.58.22,1.19-.06,1.64-.24.4-.65.61-.96.72-.06.08-.12.16-.18.24-.13.17-.26.34-.39.51-.06.08-.2.2-.37.2Zm-.19-.64s-.01.01-.02.02c0,0,.01-.01.02-.02Z"
  />
  <path
    d="m150.54,124.92c-.14,0-.29-.07-.35-.18-.09-.14-.07-.38.05-.5h0c-.02-.9-.08-1.79-.18-2.68l-.17-.99c-.44-2.61-.89-5.3-1.02-8.02-.08-1.8-.03-3.63.02-5.39.03-1.32.07-2.65.11-3.98.03-1.4.13-2.75.91-3.83.58-.79,1.48-1.37,2.77-1.79.38-.12.77-.22,1.16-.33.63-.17,1.23-.33,1.8-.57,2.66-1.12,4.44-4.12,4.13-7-.02-.2.12-.37.32-.39.2-.01.37.12.39.32.34,3.17-1.62,6.5-4.56,7.73-.62.26-1.27.43-1.9.6-.37.1-.75.2-1.12.32-1.14.36-1.92.86-2.41,1.52-.66.91-.74,2.15-.77,3.43-.04,1.33-.08,2.65-.11,3.98-.05,1.75-.1,3.56-.02,5.34.13,2.68.57,5.35,1.01,7.93l.17,1.01c.11.99.17,1.98.19,2.95,0,.34-.19.45-.31.49-.03.01-.07.02-.11.02Zm-3.72-45.56c-.49,0-1.07-.04-1.62-.21-1.03-.29-1.95-.93-2.6-1.79-.08-.11-.09-.25-.03-.37s.17-.19.3-.2c3.16-.46,6.3-.79,9.35-.97.14-.01.25.06.32.16.07.11.08.25.01.36-.66,1.24-1.81,2.21-3.15,2.65-.55.18-1.16.29-1.86.33-.21.01-.45.03-.72.03Zm-3.24-1.95c.5.5,1.13.86,1.81,1.06.57.16,1.23.21,2.1.15.64-.04,1.2-.14,1.69-.3.95-.31,1.8-.93,2.38-1.73-2.61.17-5.29.45-7.98.83Zm2.75-4.54s-.05,0-.07,0l-.93-.19c-.19-.04-.32-.23-.28-.42.04-.19.23-.32.42-.28l.93.19c.19.04.32.23.28.42-.04.17-.18.29-.35.29Zm1.98-.34c-.12,0-.24-.06-.31-.17-.1-.17-.05-.39.12-.49l.76-.46c.17-.1.39-.05.49.12.1.17.05.39-.12.49l-.76.46c-.06.04-.12.05-.19.05Zm9.99-.29s-.1-.01-.15-.03c-.18-.08-.26-.29-.18-.47.27-.58.11-1.29-.1-2.08-.05-.19.06-.39.25-.44.19-.05.39.06.44.25.19.72.46,1.7.06,2.56-.06.13-.19.21-.33.21Zm2.37-4.7c-.05,0-.11-.01-.16-.04-.18-.09-.25-.3-.16-.48.99-1.98.77-4.41.48-6.31-.19-1.2-.46-2.61-1.03-3.93-.58-1.34-1.41-2.41-2.38-3.11-.16-.11-.2-.34-.08-.5.11-.16.34-.2.5-.08,1.08.77,1.99,1.95,2.63,3.41.61,1.39.89,2.86,1.08,4.1.31,2,.53,4.58-.55,6.74-.06.13-.19.2-.32.2Z"
  />
  <path
    d="m152.13,118.97c-.25,0-.52-.06-.73-.27-.41-.39-.29-1.01-.24-1.27.04-.16.08-.33.16-.48.11-.18.27-.32.46-.42.32-.15.7-.15,1.04,0,.34.15.59.43.69.76.1.33.04.7-.15,1.04-.14.24-.32.42-.51.5-.03.02-.06.04-.1.05-.13.03-.36.1-.61.1Zm.52-.44h0,0Zm-.37-1.4c-.07,0-.13.01-.19.04-.06.03-.12.08-.16.13-.03.05-.05.16-.08.27-.04.22-.08.5.04.62.12.11.41.06.58.02.03-.01.06-.03.09-.03.11-.04.34-.4.26-.68-.04-.13-.15-.24-.29-.31-.08-.04-.16-.05-.24-.05Zm-.15-6.41s-.07,0-.11-.01c-.21.02-.46.02-.69-.04-.35-.08-.65-.33-.77-.64-.14-.41,0-.87.41-1.27.43-.41.95-.52,1.33-.29.2.12.32.33.37.44.21.37.28.75.18,1.09-.1.34-.39.66-.65.72-.02,0-.05,0-.07,0Zm-.27-1.66c-.1,0-.26.08-.39.2-.14.14-.29.36-.24.52.03.08.14.16.26.19.18.04.39.03.57.01.04-.04.09-.11.11-.18.04-.15,0-.34-.13-.57-.05-.1-.09-.14-.11-.16-.02-.01-.04-.02-.07-.02Zm-.05-5.57s-.03,0-.04,0c-.05,0-.1-.02-.14-.05-.32.02-.63-.1-.88-.33-.31-.27-.48-.66-.44-1.04.04-.34.22-.65.52-.87.03-.03.07-.05.11-.07-.34-.14-.66-.32-.95-.54-.16-.12-.19-.34-.07-.5.12-.16.34-.19.5-.08,1.11.82,2.77,1.03,4.35.55,1.26-.38,2.51-1.18,3.95-2.52,1.91-1.79,2.98-3.49,3.26-5.21.03-.19.21-.33.41-.3.19.03.33.22.3.41-.31,1.88-1.44,3.71-3.48,5.62-.95.89-2.43,2.13-4.23,2.68-.79.24-1.59.33-2.35.27,0,0,.01.02.02.03.19.31.25.67.17.99-.12.48-.61.93-.98.93Zm-.07-.78s.08,0,.12.02c.09-.07.2-.19.24-.35.03-.14,0-.3-.08-.44-.09-.14-.21-.23-.35-.26-.14-.03-.29.01-.42.11-.13.09-.21.23-.23.36-.01.14.06.31.2.43.14.12.3.17.44.14.03,0,.05,0,.08,0Zm-2.59-1.53c-1.77,0-3.48-.52-4.95-1.01-2-.67-4.1-1.47-5.87-2.78-1.99-1.47-3.26-3.4-3.6-5.44-.03-.19.1-.38.29-.41.2-.03.38.1.41.29.31,1.85,1.49,3.62,3.32,4.98,1.69,1.26,3.73,2.03,5.67,2.68,1.5.5,3.26,1.03,5.01.97.19.01.36.15.37.35,0,.2-.15.36-.35.37-.1,0-.21,0-.31,0Zm1.64-1.94s-.06,0-.1-.01c-1.02-.28-2.03-.57-3.04-.86l-.52-.15c-1.05-.29-2.14-.6-3.16-1.06-3.23-1.45-5.74-4.5-6.56-7.96-.05-.19.07-.39.27-.43.19-.04.38.07.43.27.76,3.24,3.12,6.11,6.16,7.47.98.44,2.04.74,3.06,1.03l.52.15c1.01.29,2.02.58,3.04.86.19.05.3.25.25.44-.04.16-.19.26-.35.26Z"
  />
  <path
    d="m153.89,125.66c-.23,0-.46-.04-.68-.07-.36-.06-.71-.11-.97,0-.18.07-.39-.01-.47-.2-.07-.18.01-.39.2-.47.45-.18.93-.11,1.35-.04.42.06.78.12,1.02-.06.28-.22.29-.69.26-1.18l-.64-11.22c-.01-.2.14-.37.34-.38.2-.04.37.14.38.34l.64,11.22c.02.42.08,1.3-.54,1.78-.27.21-.58.28-.88.28Zm-46.12-20.58s-.1,0-.14-.03c-.18-.08-.26-.29-.18-.47,1.52-3.46,2.97-7.13,4.31-10.91.32-.89.75-2.11,1.78-2.67.67-.37,1.45-.38,2.15-.39,1.12-.01,2.24-.02,3.36-.04h.1c.66,0,1.36,0,2.03.21.83.26,1.46.85,1.67,1.56.13.43.07.94-.16,1.35-.21.37-.53.63-.91.72-.19.05-.39-.07-.43-.26-.05-.19.07-.39.26-.43.19-.05.35-.18.46-.38.14-.24.18-.54.1-.79-.14-.48-.61-.9-1.2-1.09-.56-.18-1.17-.18-1.81-.18h-.09c-1.11.02-2.24.03-3.36.04-.64,0-1.3.02-1.81.3-.79.43-1.16,1.46-1.45,2.28-1.35,3.79-2.81,7.48-4.33,10.95-.06.13-.19.21-.33.21Zm52.39-14.18c-.09,0-.18-.03-.25-.1l-.09-.09c-.86-.81-1.74-1.64-2.34-2.7-.87-1.53-1.01-3.3-1.14-5.01-.07-.91-.15-1.85-.33-2.73-.04-.19.08-.38.28-.42.19-.03.38.08.42.28.19.93.27,1.89.34,2.82.14,1.71.26,3.32,1.05,4.72.54.96,1.38,1.76,2.2,2.53l.09.09c.14.14.15.36.02.51-.07.07-.17.11-.26.11Zm-22.12-.31c-.06,0-.13-.02-.18-.05-.17-.1-.22-.32-.12-.49.91-1.51,1.39-3.23,1.39-4.98,0-.69-.07-1.41-.15-2.09-.09-.83-.18-1.69-.14-2.55,0-.2.21-.33.37-.34.2,0,.35.17.34.37-.03.81.05,1.64.14,2.45.07.71.15,1.44.15,2.17,0,1.88-.52,3.73-1.49,5.35-.07.11-.19.17-.31.17Z"
  />
  <path
    d="m122.23,97.4c-.14,0-.28-.08-.33-.22-.07-.18.01-.39.2-.47.25-.1.45-.33.55-.62.1-.3.09-.61-.04-.85-.24-.43-.79-.67-1.29-.85-1.43-.5-2.94-.74-4.46-.71h0c-.19,0-.35-.16-.36-.35,0-.2.15-.36.35-.37,1.62-.03,3.2.22,4.72.75.63.22,1.32.54,1.67,1.18.23.42.27.94.09,1.43-.17.48-.52.87-.96,1.04-.04.02-.09.03-.14.03Z"
  />
  <path
    d="m113.98,107.47c-.61,0-1.24-.27-1.52-.87-.08-.18,0-.39.18-.47.18-.08.39,0,.47.18.19.43.84.54,1.29.38.54-.19.98-.68,1.38-1.16.62-.73,1.18-1.52,1.05-2.31l-.03-.14c-.06-.28-.13-.62.05-.95.26-.48.91-.55,1.37-.38.14.05.28.12.41.19.17.09.34.17.5.21.3.07.63-.04,1.04-.21.34-.16.7-.34.93-.63.18-.22.3-.56.16-.83-.17-.33-.69-.45-1.18-.52l-3.45-.51c-.2-.03-.33-.21-.3-.41s.21-.33.41-.3l3.45.51c.3.05.62.11.91.22.04-.07.1-.12.18-.15.42-.15.98-.43,1.22-.92.11-.22.12-.5.04-.74-.04-.12-.13-.29-.31-.37-.09-.04-.21-.07-.33-.1-1.55-.32-3.19-.48-4.87-.48-.2,0-.36-.16-.36-.36s.16-.36.36-.36c1.72,0,3.41.17,5.01.49.16.03.34.07.5.15.31.15.55.42.67.78.14.42.12.9-.08,1.29-.3.61-.89.98-1.4,1.19.06.07.12.15.16.24.25.49.15,1.12-.25,1.6-.33.41-.79.64-1.19.83-.47.21-.97.37-1.48.26-.25-.05-.46-.16-.67-.27-.11-.06-.23-.11-.34-.16-.2-.07-.44-.05-.5.05-.05.09-.01.28.02.45l.03.17c.17,1.09-.48,2.03-1.21,2.89-.46.55-.98,1.11-1.68,1.37-.21.07-.44.11-.67.11Z"
  />
  <path
    d="m112.42,110.1s-.08,0-.12-.02c-.14-.05-.25-.19-.26-.34,0-.15.1-.32.24-.38,0,0,0,0,0,0l1.48-2.67c.1-.17.31-.24.49-.14.17.1.24.31.14.49l-1.57,2.84s-.04.06-.06.08c-.1.1-.22.16-.34.16Zm1.16-18.33c-.19,0-.34-.15-.36-.33-.12-1.91.02-3.84.42-5.76.08-.38.18-.79.42-1.15.3-.45.77-.72,1.23-.68.44.03.87.32,1.12.76.2.36.28.76.33,1.13.1.81.15,1.62.19,2.41v.14c.04.66.07,1.34-.05,2.03-.06.37-.14.7-.24,1-.06.19-.26.29-.45.23-.19-.06-.29-.26-.23-.45.09-.27.16-.56.21-.89.1-.62.07-1.23.04-1.89v-.14c-.05-.77-.09-1.56-.19-2.34-.05-.31-.1-.62-.24-.88-.13-.23-.34-.38-.54-.39-.25,0-.47.18-.59.37-.16.24-.24.53-.32.9-.39,1.85-.52,3.73-.4,5.57.01.2-.14.37-.33.38,0,0-.02,0-.02,0Z"
  />
  <path
    d="m113.19,119.48h0c-.2,0-.35-.17-.35-.37.03-1.2-.1-2.37-.4-3.48-.02-.06-.02-.12,0-.18.49-1.98.9-4.03,1.22-6.09-.39.51-.86.92-1.38,1.2-1.3.69-2.9.5-3.82-.46-.54-.56-.77-1.3-.9-1.81-.36-1.39-.38-2.87-.03-4.28,0-.02.01-.04.02-.06-.35.37-.59.85-.75,1.26-.12.33-.22.66-.33,1-.15.52-.31,1.05-.56,1.55-.33.67-.81,1.25-1.26,1.81-.2.24-.39.48-.58.73-.71.94-1,1.8-.88,2.56.03.19-.1.38-.3.41-.19.03-.38-.1-.41-.3-.16-.96.18-2,1.01-3.11.19-.26.4-.5.6-.75.45-.55.88-1.07,1.17-1.67.22-.45.36-.93.52-1.44.11-.35.21-.7.34-1.05.3-.78.87-1.79,1.89-2.17.08-.03.17-.03.24,0,.04-.03.08-.05.13-.07.18-.08.39,0,.48.18.08.18,0,.39-.17.48-.21.1-.36.35-.47.82-.32,1.29-.31,2.65.03,3.93.18.7.4,1.16.72,1.5.68.72,1.96.86,2.96.32.9-.48,1.6-1.42,1.97-2.64.06-.19.25-.3.45-.24.19.06.3.26.24.45-.1.31-.21.61-.34.89.15.06.25.22.22.39-.34,2.29-.78,4.57-1.32,6.77.3,1.15.43,2.36.4,3.6,0,.19-.16.35-.36.35Z"
  />
  <path
    d="m111.42,139.91c-.1,0-.2-.04-.27-.12-.13-.15-.11-.38.04-.51,1.66-1.42,2.82-3.4,3.26-5.55.39-1.92.19-3.94-.56-5.76-.04.28-.09.56-.15.84-.04.19-.23.32-.42.28-.19-.04-.32-.23-.28-.42.65-3.23.36-6.55.08-9.75-.02-.2.13-.37.33-.39.19-.01.37.13.39.33.22,2.5.46,5.26.2,7.99.09.03.17.09.22.18,1.05,2.11,1.37,4.54.9,6.85-.47,2.31-1.71,4.42-3.5,5.95-.07.06-.15.09-.23.09Zm-5.66-1.54c-.15,0-.29-.09-.34-.24-.06-.19.04-.39.22-.45.5-.17.89-.58,1.25-.99,1.84-2.07,3.37-4.4,4.53-6.94.08-.18.3-.26.48-.18.18.08.26.3.18.47-1.2,2.6-2.76,5-4.65,7.12-.41.46-.89.96-1.56,1.19-.04.01-.08.02-.12.02Zm3.41-12.45c-.06,0-.12-.01-.17-.04-.17-.09-.24-.31-.14-.49.7-1.3,1.62-2.44,2.74-3.4.15-.13.38-.11.5.04.13.15.11.38-.04.51-1.05.9-1.92,1.97-2.58,3.2-.06.12-.19.19-.32.19Zm1.27-8.06c-.41,0-.8-.1-1.15-.18-1.52-.38-3.4-.86-4.71-2.15-1.28-1.27-1.8-3.21-1.34-4.96.05-.19.25-.3.44-.25.19.05.3.25.25.44-.4,1.48.07,3.19,1.15,4.27,1.16,1.15,2.94,1.6,4.38,1.96.38.09.77.19,1.14.15.65-.07,1.27-.61,1.54-1.35.07-.19.27-.29.46-.22.19.07.28.27.22.46-.35.98-1.21,1.71-2.14,1.82-.08,0-.16.01-.24.01Z"
  />
  <path
    d="m102.99,143.29h-.04c-2.28-.01-4.42-1.04-5.58-2.69-.4-.56-.72-1.23-1.01-2.11-.76-2.27-.98-4.74-1.18-6.91-.06-.68-.13-1.39-.05-2.1.08-.76.32-1.48.54-2.18l.04-.11c.45-1.34.89-2.65,1.61-3.82.11-.18.22-.36.34-.54.21-.33.42-.64.57-.97.19-.4.32-.83.45-1.29.79-2.63,1.88-5.61,4.02-7.83.14-.14.36-.15.51,0,.14.14.15.36,0,.51-2.04,2.11-3.09,4.99-3.85,7.53-.14.47-.28.95-.49,1.41-.18.38-.4.72-.62,1.05-.11.17-.22.34-.33.52-.68,1.1-1.1,2.37-1.52,3.6l-.06.18c-.23.69-.44,1.35-.51,2.03-.07.64,0,1.31.05,1.96.2,2.24.41,4.56,1.14,6.75.27.81.56,1.42.92,1.92,1.03,1.46,2.94,2.38,5,2.39,1.75.04,3.62-.57,5.57-1.72,1.59-.94,2.71-1.95,3.42-3.09.11-.17.33-.22.49-.11.17.11.22.33.11.49-.78,1.24-1.98,2.32-3.66,3.32-2.05,1.21-4.03,1.82-5.89,1.82Zm23.4-3.32c-.1,0-.19-.04-.26-.11-.89-.95-1-2.29-1.05-3.68-.06-1.86-.12-3.71-.18-5.57-.09.02-.19,0-.26-.04-.02-.01-.04-.03-.06-.04-1.15.3-2.34.65-3.54,1.04-.19.06-.39-.04-.45-.23-.06-.19.04-.39.23-.45,1.3-.43,2.57-.8,3.78-1.1.09-.03.18-.04.27-.03-.23-7.11-.47-14.22-.71-21.33,0-.2.15-.36.35-.37.21-.02.36.15.37.35.31,9.25.62,18.5.91,27.75.04,1.25.14,2.44.86,3.22.13.15.13.37-.02.51-.07.06-.16.1-.24.1Zm-12.22-3.78c-.15,0-.28-.09-.34-.23-.07-.19.03-.39.21-.46,2.55-.93,4.69-3.11,5.57-5.68.17-.49.3-1.01.43-1.52.28-1.12.57-2.27,1.26-3.25.15-.22.32-.42.49-.62.23-.28.45-.54.62-.83.41-.69.52-1.55.63-2.39.2-1.72.43-3.64-.27-5.25-.08-.18,0-.39.19-.47.18-.08.39,0,.47.19.78,1.79.54,3.81.32,5.6-.12.94-.24,1.88-.73,2.7-.2.34-.45.64-.69.92-.16.19-.31.37-.45.57-.61.87-.87,1.91-1.15,3.01-.13.52-.27,1.06-.44,1.57-.97,2.81-3.21,5.1-6,6.12-.04.01-.08.02-.12.02Z"
  />
  <path
    d="m127.31,165.4c-.1,0-.2-.04-.28-.13-3.46-4.16-5.94-9.16-7.16-14.43-1.53-6.62-1.09-13.7-.71-19.96.01-.2.18-.36.38-.33.2.01.35.18.34.38-.38,6.2-.82,13.24.69,19.75,1.2,5.17,3.62,10.06,7.01,14.14.13.15.11.38-.05.5-.07.06-.15.08-.23.08Z"
  />
  <path
    d="m121.36,179.95c-.12,0-.23-.06-.3-.17-.64-1.01-.34-2.23-.08-3.3l.11-.47c.5-2.13.26-4.4.03-6.59-.08-.8-.17-1.6-.22-2.39-.24-3.52.16-7.02,1.17-10.43.06-.19.26-.3.45-.24.19.06.3.26.24.45-.99,3.32-1.38,6.74-1.15,10.18.05.79.13,1.57.22,2.36.24,2.25.48,4.58-.04,6.82l-.12.48c-.24.98-.49,2-.01,2.75.11.17.06.39-.11.49-.06.04-.13.06-.19.06Zm79.79-61.08c-2.05,0-4.09-.24-6.08-.47-3-.35-6.05-.7-8.99-1.48-.19-.05-.31-.25-.26-.44.05-.19.25-.3.44-.25,2.89.76,5.92,1.11,8.84,1.45,2.65.31,5.34.62,7.98.39.65-2.36,5.53-19.75,8.61-30.74-2.01.1-4.02-.28-5.97-.65-2.48-.47-4.82-.91-7.17-.46-.84.16-1.52.4-2.08.74-1.13.69-1.93,1.87-2.15,3.16-.21,1.24.11,2.55.87,3.54.11.02.2.09.25.19.06.12.04.27-.04.38-4.29,5.5-8.57,11.3-13.07,17.72-.11.16-.34.2-.5.09-.16-.11-.2-.34-.09-.5,4.43-6.32,8.65-12.04,12.87-17.46-.87-1.15-1.24-2.65-.99-4.09.25-1.5,1.18-2.86,2.48-3.66.63-.39,1.39-.66,2.32-.84,2.49-.48,5,0,7.44.46,2,.38,4.07.77,6.09.62.05-.03.11-.05.16-.04.05-.01.11,0,.17,0,.19.05.3.25.25.44-.09.31-8.71,31.07-8.82,31.48-.04.15-.16.26-.31.27-.75.08-1.5.11-2.26.11Zm-78-23.04c-.11,0-.22-.05-.29-.15-.11-.16-.08-.39.09-.5,2.58-1.82,5.42-3.2,8.42-4.11l.57-.17c.84-.25,1.72-.5,2.48-.9.56-.3,1.11-.69,1.63-1.08.95-.69,1.93-1.41,3.13-1.65.19-.04.38.09.42.28.04.19-.09.38-.28.42-1.04.21-1.92.84-2.84,1.52-.55.4-1.11.81-1.72,1.13-.83.44-1.74.7-2.62.96l-.57.17c-2.93.88-5.69,2.23-8.22,4.01-.06.04-.13.07-.21.07Z"
  />
  <path
    d="m155.82,121.07s-.1-.01-.15-.03c-.13-.06-.21-.18-.21-.32l-.11-5.38c0-.11.04-.21.12-.28l16.98-14.83c.1-.09.24-.11.36-.07.12.04.21.15.23.28l.65,4.24c1.5-1.67,3.01-3.34,4.52-5.01l.07-.07c1.2-1.32,2.44-2.69,3.9-3.77,1.7-1.26,3.5-1.95,5.2-2.02,1.1-.04,2.19.16,3.21.38.44.09,1.66.33,2.18,1.18l2.16-1.44c.17-.11.39-.07.5.1.04.06.06.13.06.2,0,.12-.06.23-.16.3l-2.23,1.48c-.08.05-.17.07-.25.06-.32.58-1.59,2.18-5.65,7.32-2.85,3.61-5.71,7.22-5.71,7.22-.12.16-.35.18-.5.06s-.18-.35-.06-.5c2.93-3.69,10.34-13.06,11.28-14.3-.19-.45-.77-.76-1.77-.96-.98-.21-2.02-.41-3.04-.36-1.56.06-3.22.71-4.8,1.88-1.4,1.04-2.62,2.38-3.8,3.67l-.07.07c-1.65,1.83-3.31,3.66-4.95,5.48-.04.04-.08.07-.13.09l-17.6,15.25c-.07.06-.15.09-.23.09Zm.25-5.58l.09,4.45,16.9-14.64-.63-4.1-16.36,14.29Zm37.5-21.59c-.11,0-.22-.05-.29-.15-1.09-1.49-1.44-3.45-.96-5.23.48-1.76,1.81-3.3,3.48-4.02.81-.35,1.67-.52,2.49-.65,3.5-.58,7.08-.65,10.63-.2.06,0,.12.03.17.07,1.31.96,2.43,2,3.36,2.9.14.14.15.36.01.51-.14.14-.36.15-.51.01-.89-.86-1.97-1.86-3.22-2.78-3.45-.43-6.93-.36-10.33.2-.77.12-1.59.28-2.32.6-1.47.64-2.65,2-3.07,3.56-.42,1.55-.1,3.33.85,4.63.12.16.08.38-.08.5-.06.05-.14.07-.21.07Z"
  />
  <path
    d="m174.98,117.76c-.08,0-.16-.03-.22-.08-.64-.51-1.17-1.14-1.68-1.75-.34-.41-.7-.83-1.08-1.2-1.68-1.63-4.16-2.44-6.48-2.11-.2.03-.38-.11-.41-.3-.03-.19.11-.38.3-.4,2.53-.37,5.24.52,7.08,2.31.41.4.77.83,1.13,1.26.45.53.87,1.04,1.37,1.47.14-.12.28-.25.43-.4l.09-.08c.14-.14.37-.13.51.01.14.14.13.37-.01.51l-.08.08c-.24.23-.48.46-.75.64-.06.04-.13.06-.2.06Zm-16.93-1.16c-.09,0-.19-.04-.26-.11-.14-.14-.13-.37.01-.51,4.05-3.87,8.34-7.62,12.75-11.13.16-.12.38-.1.5.06.12.15.1.38-.06.5-4.4,3.49-8.67,7.22-12.7,11.08-.07.07-.16.1-.25.1Zm19.89-1.82c-.07,0-.15-.02-.21-.07-.16-.12-.2-.34-.08-.5.37-.52.78-1.01,1.23-1.49.14-.15.36-.15.51-.02.14.14.15.36.02.51-.43.47-.82.93-1.17,1.42-.07.1-.18.15-.29.15Zm-18.41-.9c-.09,0-.18-.03-.25-.1-.14-.14-.15-.36-.01-.51,3.41-3.56,7.1-6.91,10.97-9.95.15-.12.38-.1.5.06.12.16.1.38-.06.5-3.84,3.02-7.51,6.34-10.89,9.88-.07.07-.16.11-.26.11Zm13.07-13.08c-.1,0-.2-.04-.27-.12-.13-.15-.12-.37.03-.51l3.77-3.33c2.57-2.26,5.76-5.08,9.68-5.68,2.78-.42,5.75.38,7.94,2.16.15.12.18.35.05.5-.13.15-.35.18-.5.05-2.04-1.65-4.8-2.41-7.38-2.01-3.72.57-6.82,3.31-9.32,5.51l-3.77,3.33c-.07.06-.15.09-.24.09Z"
  />
  <path
    d="m182.72,113.7c-.09,0-.19-.04-.25-.1-.13-.13-.15-.35-.04-.49.72-2.06,1.34-3.75,1.96-5.33.07-.18.28-.28.46-.2.18.07.28.28.2.46-.62,1.59-1.25,3.32-1.99,5.42-.04.12-.14.2-.26.23-.03,0-.05,0-.08,0Zm-4.17-16.3c-.07,0-.14-.02-.2-.06-.16-.11-.21-.33-.1-.5,1.1-1.63,2.83-2.94,4.85-3.7,1.79-.67,3.82-.93,6.03-.78.2.01.35.18.33.38-.01.2-.18.36-.38.33-2.11-.14-4.04.11-5.74.74-1.89.71-3.49,1.92-4.51,3.43-.07.1-.18.16-.3.16Zm14.47-5.89c-.14,0-.27-.08-.33-.22-.26-.63-.04-1.29.2-1.86.38-.9.83-1.77,1.34-2.58.1-.17.33-.22.49-.11.17.11.22.33.11.49-.49.78-.92,1.61-1.29,2.48-.18.43-.35.92-.19,1.31.07.18-.01.39-.2.47-.04.02-.09.03-.14.03Zm17.34-5.08c-.47,0-1.15-.14-2.03-.42-.17-.06-.28-.23-.24-.41s.2-.32.38-.29l2.42.22c.11,0,.21.07.27.16.06.09.08.2.04.31-.03.1-.11.24-.29.33-.13.07-.32.1-.56.1Z"
  />
  <path
    d="m181.29,130.32c-.07,0-.15-.01-.23-.03-.14-.04-.24-.15-.27-.29-1.77-1.55-3.7-3.31-4.75-5.62-.34-.74-.58-1.53-.81-2.3-.37-1.2-.71-2.34-1.4-3.3-.57-.79-1.38-1.43-2.15-2.05-.21-.17-.42-.34-.63-.51-.79-.65-1.54-1.35-2.27-2.03l-.19-.18c-.3-.29-1.01-.96-.79-1.75.05-.19.25-.3.44-.25.19.05.3.25.25.44-.09.34.27.74.59,1.04l.19.18c.72.67,1.46,1.37,2.23,2,.2.17.41.33.62.5.81.65,1.66,1.32,2.29,2.19.76,1.06,1.14,2.31,1.51,3.51.23.74.46,1.51.78,2.21,1.04,2.29,3.05,4.05,4.83,5.61.11.1.15.26.1.4-.05.14-.19.23-.34.23Zm4.99-4.48c-.17,0-.33-.13-.35-.3-.31-2-.53-3.79.01-5.51.05-.16.1-.32.16-.48.16-.46.32-.9.28-1.34-.02-.22-.09-.44-.16-.68-.05-.16-.1-.32-.14-.48-.12-.56-.11-1.12-.1-1.66.1-3.69.43-7.39.97-10.98.03-.19.21-.33.41-.3.2.03.33.21.3.41-.54,3.57-.86,7.23-.96,10.9,0,.5-.02,1.01.08,1.48.03.14.08.28.12.42.08.26.17.53.19.82.05.59-.13,1.13-.31,1.64-.05.15-.11.3-.15.46-.49,1.58-.29,3.29.01,5.19.03.19-.1.38-.3.41-.02,0-.04,0-.06,0Zm-9.15-6.99c-.1,0-.19-.04-.27-.12-.37-.41-.74-.82-1.1-1.24l-.08-.09c-1.33-1.49-2.65-2.98-3.98-4.47l-1.95-2.2c-.12-.12-.31-.33-.39-.61-.18-.67.38-1.2.66-1.46.25-.24.56-.51.94-.63.48-.15,1.04-.03,1.52.31.39.28.7.65.97.98,1.65,2.02,3.43,3.98,5.29,5.81.1.1.28.28.41.28.16,0,.33-.22.48-.62,0-.02.01-.03.02-.05-.87-1.54-1.79-3.08-2.77-4.59-.42-.65-.9-1.38-.87-2.25.02-.55.33-1.1.78-1.41.36-.25.76-.31,1.14-.19.51.18.82.63,1.04.96.44.64.94,1.27,1.42,1.87.45.57.9,1.15,1.33,1.74,1.08,1.52,1.68,2.92,1.85,4.28.02.2-.12.37-.31.4-.19.02-.37-.11-.4-.31-.15-1.24-.72-2.53-1.72-3.96-.41-.58-.86-1.15-1.3-1.71-.48-.61-.99-1.25-1.44-1.91-.18-.26-.41-.59-.69-.69-.2-.07-.38.02-.5.1-.27.18-.46.53-.47.85-.03.64.37,1.25.75,1.83,1.35,2.09,2.6,4.22,3.74,6.34.09.17.03.39-.15.48-.17.1-.39.03-.48-.15-.17-.31-.33-.62-.51-.93-.24.4-.55.61-.92.61-.42,0-.74-.32-.91-.48-1.88-1.85-3.68-3.83-5.35-5.87-.25-.31-.51-.63-.82-.85-.3-.21-.63-.29-.9-.21-.24.07-.45.27-.66.46-.26.24-.52.52-.46.75.03.09.09.19.22.31l1.96,2.21c1.32,1.49,2.65,2.98,3.98,4.47l.08.09c.36.41.72.82,1.1,1.23.13.15.12.37-.02.51-.07.06-.15.09-.24.09Zm-.08-21.88c-.06,0-.12-.01-.17-.05l-5.45-3.04c-1.34-.75-2.86-1.61-4.46-2.16-.63-.22-1.29-.39-1.93-.57-.57-.15-1.15-.31-1.71-.49-1.99-.64-3.84-1.66-5.63-2.64-.17-.1-.26-.33-.17-.5.1-.17.29-.25.46-.15l.05.03c1.76.97,3.59,1.97,5.51,2.59.55.18,1.11.33,1.68.48.65.17,1.33.36,1.98.58,1.54.53,2.93,1.28,4.58,2.21l5.45,3.04c.17.1.23.31.14.49-.07.12-.19.18-.31.18Zm12.7-4.77c-.08,0-.15-.02-.22-.08-.16-.12-.18-.35-.06-.5,1.33-1.71,2.59-3.4,3.76-5.03.12-.16.34-.2.5-.08.16.11.2.34.08.5-1.17,1.64-2.44,3.34-3.78,5.05-.07.09-.18.14-.28.14Z"
  />
  <path
    d="m180.69,132.56c-.38,0-.74-.07-1.06-.22-.72-.32-1.21-.95-1.62-1.51-.38-.52-.74-1.05-.93-1.67-.3-.97-.11-1.99.11-2.97.04-.19.24-.31.43-.27.19.04.31.23.27.43-.2.91-.37,1.8-.12,2.6.16.51.48.98.82,1.46.35.49.78,1.03,1.33,1.28.47.21,1.07.21,1.65,0,.49-.18.98-.49,1.54-.98,1.31-1.14,2.34-2.63,2.97-4.29.16-.4.24-.73.26-1.05.04-.6-.16-1.22-.54-1.66-.13-.15-.11-.38.04-.51.15-.13.38-.11.5.04.51.59.77,1.39.71,2.18-.03.39-.13.79-.31,1.25-.67,1.77-1.77,3.35-3.17,4.57-.63.55-1.19.9-1.77,1.11-.37.14-.76.21-1.13.21Z"
  />
  <path
    d="m177.95,149.53c-.12,0-.23-.06-.3-.16-.2-.3-.6-.43-1.03-.57l-.26-.08c-.41-.14-.79-.33-1.16-.51-.24-.12-.48-.23-.72-.34-.48-.21-1-.39-1.59-.54-.09-.02-.16-.08-.21-.15-.8-1.22-1.42-2.55-1.85-3.96-.17,1.15-.39,2.3-.81,3.4-.07.18-.28.28-.46.21-.19-.07-.28-.28-.21-.46.53-1.38.72-2.89.92-4.35l.05-.37c.43-3.27.95-6.59,1.54-9.85.29-1.54.56-2.92,1.03-4.28.1-.3.21-.59.32-.88.19-.5.37-.97.51-1.46.18-.61.31-1.25.44-1.88.17-.83.34-1.7.65-2.52.07-.19.28-.28.46-.21.19.07.28.28.21.46-.29.77-.45,1.6-.62,2.41-.13.64-.26,1.3-.45,1.94-.15.52-.34,1.02-.53,1.51-.11.28-.22.57-.32.86-.45,1.31-.72,2.67-1,4.18-.59,3.23-1.11,6.52-1.53,9.77.1.05.17.13.19.24.39,1.7,1.05,3.29,1.97,4.73.58.15,1.09.33,1.56.54.25.11.5.23.75.35.37.18.71.35,1.08.48l.24.08c.48.16,1.03.33,1.37.8.05-.07.12-.13.22-.15,2.88-.68,4.99-3.16,6.34-4.97.82-1.09,1.35-1.96,1.71-2.82.28-.64.48-1.32.63-1.91.82-3.04.96-5.45.45-7.59-.09-.39-.21-.78-.33-1.17-.15-.5-.31-1.01-.41-1.54-.28-1.36-.22-2.74-.17-4.08,0-.2.16-.35.37-.34.2,0,.35.17.34.37-.05,1.3-.1,2.64.16,3.91.1.49.25.99.4,1.47.12.4.24.8.34,1.21.54,2.26.39,4.78-.45,7.94-.16.62-.37,1.34-.67,2.01-.39.91-.94,1.83-1.8,2.97-1.41,1.9-3.64,4.51-6.75,5.24-.13.03-.26-.01-.35-.11-.03.04-.06.08-.1.1-.06.04-.13.06-.2.06Zm.85-11.84s-.06,0-.09-.01c-1-.25-1.96-.53-2.7-1.18-1.43-1.26-1.46-3.38-1.01-4.95.28-.97.73-1.88,1.17-2.76.29-.58.59-1.18.83-1.79.07-.18.28-.27.46-.2.18.07.27.28.2.46-.25.63-.56,1.25-.85,1.84-.44.89-.86,1.72-1.12,2.63-.39,1.36-.38,3.17.8,4.21.62.54,1.45.78,2.4,1.02.19.05.31.24.26.43-.04.16-.19.27-.35.27Z"
  />
  <path
    d="m129.23,247.96c-.16,0-.31-.11-.35-.28-5.17-22.03-10.51-44.8-8.23-67.8.02-.2.19-.33.39-.32.04,0,.07.01.1.03,0,0,0,0,0,0,.1-.17.32-.23.49-.13,3.11,1.81,6.82,3.88,10.8,5.45,8.32,3.29,17.88,4.41,27.66,3.25.76-.09,1.51-.19,2.27-.3,1.2-.16,2.44-.33,3.67-.44.46-.04.92-.08,1.38-.12,1.5-.12,3.06-.25,4.52-.65,1.23-.34,3.47-1.21,4.6-3.18.05-.09.14-.15.23-.17.04-7.41-.14-15.29-1.64-22.89-.19-.97-.41-1.95-.62-2.92-.74-3.33-1.5-6.78-1.37-10.26,0-.2.2-.36.37-.35.2,0,.35.17.34.37-.13,3.39.62,6.79,1.35,10.08.22.98.43,1.96.63,2.93,1.53,7.75,1.7,15.79,1.65,23.32,0,.2-.16.36-.36.36-.01,0-.02,0-.04,0-.95,1.57-2.71,2.78-4.96,3.4-1.52.42-3.11.55-4.65.67-.46.04-.91.07-1.37.12-1.22.11-2.45.28-3.65.44-.76.1-1.52.21-2.28.3-9.9,1.17-19.58.03-28.01-3.3-3.99-1.58-7.71-3.64-10.83-5.46-2.22,22.83,3.09,45.49,8.24,67.41.05.19-.07.39-.27.43-.03,0-.06,0-.08,0Zm44.19-102.62c-.13,0-.26-.07-.32-.2-1.57-3.11-1.35-6.98.57-9.86.11-.17.33-.21.5-.1.17.11.21.33.1.5-1.77,2.67-1.98,6.26-.52,9.14.09.18.02.39-.16.48-.05.03-.11.04-.16.04Zm6.51-9.29c-.49,0-.98-.04-1.46-.13-1.29-.23-2.24-.82-2.68-1.65-.09-.17-.03-.39.15-.48.17-.09.39-.03.48.15.46.86,1.56,1.17,2.18,1.29,1.74.32,3.61,0,5.13-.9,1.52-.9,2.72-2.37,3.28-4.04.06-.19.27-.29.45-.22s.29.27.22.45c-.62,1.83-1.93,3.44-3.6,4.43-1.25.73-2.71,1.12-4.16,1.12Zm-7.23-1.68c-.1,0-.2-.04-.27-.13-.13-.15-.11-.38.04-.5l1.79-1.5c.15-.13.38-.11.5.04.13.15.11.38-.04.5l-1.79,1.5c-.07.06-.15.08-.23.08Zm-27.55-55.67c-.35,0-.7-.04-1.05-.15-.19-.06-.29-.26-.23-.45.06-.19.26-.29.45-.23.5.17,1.1.11,1.62.07l3.94-.36c.26-.02.51-.05.76-.1.19-.04.38.09.42.28.04.19-.09.38-.28.42-.28.05-.56.09-.84.11l-3.94.36c-.27.02-.56.05-.86.05Z"
  />
  <path
    d="m141.43,298.65s-.09,0-.14-.03c-1.19-.48-1.56-1.82-1.86-2.9-.55-1.95-1.1-3.9-1.64-5.86-.54-1.91-1.07-3.83-1.61-5.74-.8-2.81-1.59-5.64-2.38-8.46-.97-3.46-1.97-7.04-2.74-10.61-1.42-6.7-2.04-13.62-2.63-20.32-.44-4.9-.89-9.97-1.65-14.91-.03-.2.1-.38.3-.41.19-.04.38.1.41.3.77,4.96,1.22,10.04,1.66,14.96.59,6.68,1.21,13.58,2.62,20.23.76,3.55,1.76,7.12,2.73,10.57.79,2.82,1.58,5.65,2.38,8.46.54,1.91,1.08,3.83,1.61,5.74.55,1.95,1.09,3.91,1.64,5.86.27.97.58,2.07,1.44,2.43.18.07.27.28.2.47-.06.14-.19.22-.33.22Zm46.6-52.65s-.02,0-.03,0c-.2-.02-.34-.19-.32-.39.33-3.57.55-8.86-1.25-13.58-1.31-3.43-3.59-6.44-5.8-9.35-1.54-2.03-3.14-4.14-4.42-6.39-.1-.17-.04-.39.13-.49.17-.1.39-.04.49.14,1.25,2.21,2.84,4.29,4.36,6.31,2.24,2.95,4.56,6,5.9,9.53,1.85,4.86,1.63,10.26,1.3,13.9-.02.19-.17.33-.36.33Zm-3.68-20.15c-.18,0-.34-.14-.36-.32l-2.89-26.66c-.52-4.79-1.12-10.22-4.08-14.41-.11-.16-.08-.39.09-.5.16-.11.38-.08.5.09,3.07,4.34,3.67,9.86,4.2,14.74l2.89,26.67c.02.2-.12.37-.32.39-.01,0-.03,0-.04,0Z"
  />
  <path
    d="m186.9,299.94c-.1,0-.2,0-.3-.02-.36-.06-.67-.24-.94-.4-.3-.17-.55-.32-.78-.3-.1,0-.2-.02-.27-.09-.07-.07-.12-.16-.12-.26-.08-3-1.51-5.81-2.89-8.52l-.51-1c-2.2-4.39-4.03-9.09-5.64-13.25l-4.91-12.6c-.9-2.3-1.95-5.01-2.95-7.75-.88-2.43-1.71-4.9-2.52-7.29-1.11-3.31-2.22-6.61-3.34-9.92-1.15-3.42-2.3-6.84-3.45-10.26-1.2-3.56-2.36-7.04-3.4-10.56-.53-1.81-1.03-3.64-1.5-5.47-2.09,2.95-3.4,6.68-4.01,11.4-.37,2.87-.43,5.72-.19,8.45.07.77.16,1.54.26,2.31.17,1.43.35,2.91.36,4.38.02,4.06-1.24,7.98-2.46,11.78-.05.14-.17.24-.32.25,1.23,7.23,2.26,14.57,3.07,21.86.02.2-.12.37-.32.4,0,0-.01,0-.02,0l.92,2.52c.51,1.37,1.08,2.93,1.25,4.53.2,1.8-.11,3.61-.41,5.35-.27,1.58-.55,3.22-.43,4.81.06.77.2,1.55.34,2.3.22,1.19.45,2.43.35,3.68-.01.15-.11.27-.25.31-3.3.99-6.72,1.36-10.17,1.08-.2-.02-.34-.19-.33-.39.02-.2.2-.35.39-.33,3.28.26,6.53-.07,9.67-.98.05-1.07-.15-2.13-.35-3.24-.14-.78-.29-1.58-.35-2.38-.12-1.68.17-3.36.44-4.98.29-1.7.59-3.45.4-5.15-.16-1.52-.72-3.03-1.21-4.36l-4.97-13.56c-.07-.19.03-.39.21-.46.19-.07.39.03.46.21l3.56,9.71c-.94-8.27-2.16-16.57-3.64-24.71-.03-.19.09-.38.29-.42.19-.03.38.09.42.29.17.95.34,1.91.51,2.87,1.14-3.56,2.26-7.24,2.24-10.98,0-1.44-.18-2.89-.36-4.3-.1-.78-.19-1.56-.26-2.34-.24-2.78-.18-5.68.2-8.6.63-4.93,2.03-8.82,4.26-11.9.07-.09.17-.15.28-.15-1.13-4.55-2.04-9.15-2.72-13.75-.03-.2.11-.38.3-.41.2-.03.38.11.41.3.99,6.67,2.46,13.35,4.38,19.86,1.04,3.5,2.2,6.98,3.4,10.53,1.15,3.42,2.3,6.84,3.45,10.26,1.11,3.31,2.23,6.61,3.34,9.92.8,2.38,1.64,4.85,2.51,7.27.99,2.73,2.05,5.44,2.94,7.74l4.91,12.6c1.61,4.14,3.43,8.83,5.62,13.19l.51,1c1.37,2.69,2.79,5.47,2.96,8.5.31.06.58.22.83.37.24.14.47.27.7.31.25.04.53-.02.78-.08,3.79-.86,7.43-2.24,10.81-4.1l-.17-.58c-.46-1.57-.89-3.06-1.14-4.6-.05-.3-.09-.61-.14-.92-.12-.85-.24-1.72-.53-2.52-.24-.66-.6-1.29-.95-1.91-.47-.83-.96-1.69-1.18-2.66-.28-1.23-.09-2.47.09-3.68.18-1.19.35-2.32.1-3.41-.19-.89-.65-1.68-1.12-2.51-.36-.62-.72-1.27-.98-1.96-.44-1.17-.53-2.4-.6-3.76-.03-.7-.07-1.41-.1-2.12-.13-2.97-.26-6.04-.76-9.01-.75-4.34-2.35-8.63-4.65-12.38-.1-.17-.05-.39.12-.49.17-.1.39-.05.49.12,2.34,3.83,3.98,8.2,4.74,12.64.51,3.01.64,6.11.77,9.1.03.7.06,1.41.1,2.11.07,1.3.15,2.47.55,3.55.23.64.57,1.23.93,1.86.48.85.98,1.72,1.2,2.71.28,1.22.09,2.47-.09,3.67-.18,1.19-.35,2.32-.1,3.41.2.86.64,1.64,1.11,2.46.36.64.74,1.3,1,2.02.32.86.45,1.78.57,2.66.04.3.08.6.13.9.24,1.5.67,2.97,1.12,4.52l.25.86c.05.16-.02.33-.17.41-3.52,1.97-7.3,3.42-11.25,4.31-.24.06-.5.11-.76.11Zm-35.49-3.69h0,0Zm30.44-44.41c-.08,0-.17-.03-.24-.09l-4.89-4.31c-.15-.13-.16-.36-.03-.51.13-.15.36-.16.51-.03l4.89,4.31c.15.13.16.36.03.51-.07.08-.17.12-.27.12Zm-40.93-13.5c-.13,0-.26-.07-.32-.2l-5.64-11.4c-.09-.18-.02-.39.16-.48.18-.09.39-.02.48.16l5.64,11.4c.09.18.02.39-.16.48-.05.03-.1.04-.16.04Zm34.46-12.11c-.12,0-.24-.06-.3-.17-2.49-4.03-4.98-8.07-7.46-12.11l-4.51-7.32c-.1-.17-.05-.39.12-.49.17-.11.39-.05.49.12l4.51,7.32c2.49,4.04,4.97,8.08,7.46,12.11.1.17.05.39-.12.49-.06.04-.12.05-.19.05Zm-26.77-23.18s-.07,0-.1-.01c-.19-.06-.3-.25-.24-.44.23-.79-1.01-1.45-1.39-1.64-2.4-1.18-4.99-2.34-7.69-3.43-.18-.07-.27-.28-.2-.47.07-.18.28-.27.47-.2,2.72,1.1,5.32,2.26,7.74,3.45,1.39.67,2.04,1.58,1.77,2.49-.05.16-.19.26-.34.26Z"
  />
  <path
    d="m151.31,306.17c-.11,0-.22-.05-.29-.14-.12-.16-.09-.38.07-.5.58-.44.9-1.28.84-2.24-.04-.76-.28-1.49-.53-2.27l-.13-.4c-.4-1.26-.71-2.55-.91-3.84-.03-.2.1-.38.3-.41.2-.03.38.11.41.3.19,1.26.49,2.51.88,3.73l.13.39c.26.78.52,1.59.57,2.45.07,1.2-.36,2.27-1.13,2.85-.06.05-.14.07-.22.07Zm41.32-22.34c-.11,0-.22-.05-.29-.14l-14.44-19.17c-.12-.16-.09-.38.07-.5.16-.12.38-.09.5.07l14.44,19.17c.12.16.09.38-.07.5-.06.05-.14.07-.21.07Z"
  />
  <path
    d="m146.67,313.85c-.13,0-.26-.07-.32-.2-.09-.18-.02-.39.16-.48,1.34-.67,2.38-1.87,2.85-3.31.19-.59.28-1.21.38-1.87.05-.33.1-.66.16-.98.31-1.57.93-3.06,1.48-4.37.08-.18.29-.27.47-.19s.27.29.19.47c-.53,1.28-1.14,2.74-1.44,4.24-.06.31-.11.63-.16.95-.1.65-.2,1.33-.41,1.98-.53,1.62-1.7,2.98-3.21,3.74-.05.03-.11.04-.16.04Z"
  />
  <path
    d="m142.94,315.22c-.08,0-.15,0-.23,0-1.65-.06-3.28-.63-4.58-1.09-1.13-.39-2.2-.82-2.9-1.72-.73-.96-.89-2.38-.41-3.63.51-1.32,1.55-2.22,2.34-2.75.18-.12.37-.24.55-.35.34-.21.67-.41.96-.66,1.59-1.35,1.83-3.69,1.95-5.97.01-.2.18-.34.38-.34.2.01.35.18.34.38-.12,2.33-.39,4.94-2.2,6.48-.33.28-.69.5-1.04.72-.18.11-.36.22-.53.34-.71.47-1.64,1.27-2.07,2.41-.39,1.02-.27,2.18.31,2.94.57.75,1.5,1.11,2.57,1.48,1.6.57,2.94,1,4.37,1.05,1.6.06,3.05-.51,3.87-1.5.13-.15.35-.17.5-.05.15.13.17.35.05.5-.92,1.12-2.49,1.77-4.22,1.77Zm56.4-6.75s-.03,0-.05,0c-3.46-.45-6.96-.55-10.43-.3-.39.03-.88.07-1.33-.15-.3-.14-.52-.38-.7-.59-1.87-2.21-2.4-5.51-1.32-8.21.07-.18.28-.27.47-.2.18.07.27.28.2.47-.99,2.46-.5,5.47,1.2,7.48.14.16.29.33.47.41.27.13.62.11.96.08,3.51-.26,7.07-.15,10.57.3.2.03.33.21.31.4-.02.18-.18.31-.35.31Z"
  />
  <path
    d="m215.96,312.99c-.32,0-.63-.02-.91-.05-4.28-.43-8.48-1.68-12.53-2.88-1.53-.46-3.19-.96-4.48-2.02-.15-.12-.17-.35-.05-.5.13-.15.35-.17.5-.05,1.18.97,2.7,1.42,4.17,1.86,4.08,1.21,8.25,2.45,12.46,2.87.96.1,2.14.12,2.78-.59.39-.43.54-1.13.4-1.87-.5-2.66-3.68-3.79-4.64-4.08-.78-.23-1.61-.4-2.41-.57-1.44-.3-2.92-.61-4.28-1.27-1.23-.61-2.3-1.5-3.27-2.38-1.84-1.65-3.58-3.44-5.17-5.33-.13-.15-.11-.38.04-.5.15-.13.38-.11.5.04,1.57,1.86,3.29,3.63,5.1,5.25,1.08.97,2.03,1.73,3.11,2.27,1.27.63,2.71.92,4.11,1.21.81.17,1.66.34,2.47.58,2.83.83,4.75,2.57,5.14,4.63.18.97-.02,1.87-.57,2.48-.63.7-1.6.88-2.47.88Z"
  />
</svg>
