<svelte:options immutable="{true}" />

<svg class="svg" xmlns="http://www.w3.org/2000/svg" viewBox="0 0 320 320">
  <path
    d="m166.36,48.36c-.37,0-.73-.03-1.07-.1-2.05-.38-3.07-1.73-3.05-4v-.07c-.03-.11,0-.23.1-.31,1.55-1.37,3.16-1.84,5.07-1.47,1.38.27,2.46.94,2.9,1.81.31.61.29,1.32-.05,2.05-.71,1.5-2.36,2.1-3.92,2.1h.02Zm-3.48-4.11h0c-.02,1.96.81,3.06,2.53,3.38,1.56.29,3.57-.1,4.3-1.65.26-.55.28-1.05.05-1.49-.41-.81-1.54-1.29-2.46-1.47-1.68-.33-3.05.05-4.42,1.23Z"
  />
  <path
    d="m173.01,44.75s-.1-.01-.14-.04c-.86-.45-1.31-.32-2.18-.07l-.3.08c-.17.05-.34-.05-.39-.22s.05-.34.22-.39l.29-.08c.94-.27,1.56-.45,2.65.11.16.08.22.27.14.43-.06.11-.17.17-.28.17h-.01Zm-15.75.46h-.3c-.17-.01-.31-.16-.29-.34,0-.18.17-.31.34-.29,1.3.09,5.36-.26,5.73-.73.05-.17.21-.25.38-.2.17.05.26.24.21.4-.28,1.02-4.8,1.17-6.06,1.17h0Z"
  />
  <path
    d="m177.5,48.42c-1.47,0-3.56-.58-4.35-1.66-.31-.42-.57-1.1-.1-1.98,0,0-.02-.01-.02-.02-.13-.12-.14-.32-.02-.45,1.42-1.58,3.61-1.3,5.15-.31.94.6,1.4,1.1,1.51,1.66.15.75-.32,1.45-1.03,2.51-.04.06-.11.12-.18.14-.26.07-.59.11-.95.11h-.01Zm-3.81-3.89c.09.1.11.26.03.38-.36.56-.38,1.04-.05,1.48.79,1.06,3.35,1.59,4.51,1.34.6-.88.98-1.47.88-1.94-.08-.37-.47-.76-1.23-1.25-1.15-.74-2.89-1.15-4.13,0h0Zm.64,6.72c-.11,0-.22-.06-.27-.16-.09-.15-.03-.35.12-.43.25-.14.22-.38-.01-.97-.13-.34-.26-.66-.1-.93.09-.15.28-.2.43-.12.14.08.2.26.13.41,0,.08.08.27.13.41.19.49.51,1.31-.26,1.75-.05.03-.1.04-.16.04h0Z"
  />
  <path
    d="m149.13,53.29c-.48,0-.96-.18-1.38-.51-.63-.5-1.01-1.27-.99-2.01,0-.17.16-.31.32-.31.17,0,.31.15.31.33-.02.53.28,1.12.75,1.5.27.22.58.34.88.37-.21-.39-.41-.79-.56-1.24-.04-.12,0-.26.09-.34.1-.09.24-.1.35-.04.61.31,1.44.05,2.25-.2.16-.05.32-.1.47-.14-.2-.75-.38-1.51-.35-2.23,0-.12.08-.22.19-.27.11-.05.24-.03.33.04.13.11.26.22.4.34.1.09.21.18.31.27-.25-.88-.46-1.93-.45-2.82,0-.15.11-.29.27-.31.16-.02.3.07.35.21.47,1.43,1.42,2.61,2.35,3.76.58.72,1.18,1.47,1.67,2.28.27-1.84.21-3.79.16-5.69-.04-1.42-.09-2.89,0-4.3,0-.14.11-.26.25-.29.14-.02.28.04.34.17.23.45.52.98.91,1.39.3-.78.72-1.69,1.35-2.52.06-.08.17-.14.26-.13.1,0,.19.05.25.13.2.29.41.59.61.88.44-.84.69-1.72.95-2.63.15-.52.3-1.07.5-1.62.03-.08.09-.15.17-.18.08-.03.17-.04.25,0,.58.24,1.09.59,1.58.93l.54.36c.14-.65.06-1.35-.02-2.09-.05-.44-.1-.9-.1-1.35,0-.12.06-.22.17-.28.1-.05.23-.05.32.02,1.78,1.18,4.78,3.56,6.37,5.64.05-.24.1-.49.14-.75.05-.29.1-.58.17-.86.03-.11.11-.2.22-.23s.23,0,.31.07c.24.22.47.52.71.8.05.06.09.11.14.17,0-.27-.04-.55-.09-.84-.02-.13.03-.25.14-.32s.25-.07.35,0c.52.36,1.01.82,1.48,1.26.63.59,1.28,1.2,2,1.57.04-.41.09-.84.18-1.24.03-.13.13-.23.27-.25.13-.02.26.05.32.17.22.44.71.77,1.24,1.13.36.25.75.51,1.08.84-.07-2.49-.57-6.05-2.2-7.42-.13-.11-.15-.31-.04-.44.11-.14.3-.16.44-.05.16.12.3.26.44.4-1.2-2.74-3.7-5.54-6.53-7.17-1.74-1.01-4.4-2.04-7.14-1.25-.14.04-.29-.02-.37-.15-.07-.13-.04-.29.07-.39.35-.3.73-.57,1.1-.83l.3-.21c-2.18-.1-4.11.15-5.64,2.07-.11.14-.31.16-.44.05-.14-.11-.16-.31-.05-.45,1.92-2.41,4.42-2.45,7.03-2.27.13,0,.24.1.28.22s0,.26-.1.34c-.31.26-.65.5-.98.73,2.44-.24,4.7.68,6.25,1.58,3.55,2.05,6.51,5.72,7.36,9.12.03.14-.03.28-.15.35,1.06,2.67,1.01,6.31,1,6.83,0,.15-.12.28-.27.3-.16.03-.3-.07-.35-.22-.2-.64-.81-1.05-1.45-1.48-.34-.23-.68-.47-.97-.74-.04.3-.07.61-.09.91,0,.1-.06.19-.15.24-.08.05-.19.07-.28.03-1-.38-1.81-1.14-2.6-1.87-.28-.26-.55-.51-.82-.74.02.35,0,.69-.04,1.01-.02.12-.1.22-.21.25-.11.04-.24.01-.32-.07-.23-.22-.46-.51-.68-.78l-.24-.3c0,.08-.03.16-.04.23-.09.48-.18.98-.34,1.46-.04.12-.14.2-.26.21-.12.02-.24-.04-.3-.14-1.25-1.92-4.13-4.3-6.06-5.65.02.22.04.43.07.66.1.92.21,1.87-.13,2.76-.03.09-.1.16-.19.19s-.19.02-.26-.02c-.32-.19-.62-.39-.92-.6-.39-.27-.76-.52-1.16-.72-.14.42-.26.84-.38,1.25-.32,1.12-.62,2.17-1.27,3.22-.06.09-.17.17-.27.15-.11,0-.21-.05-.26-.14-.2-.3-.41-.61-.63-.92-.55.83-.91,1.73-1.17,2.44-.03.09-.11.17-.21.2s-.2,0-.28-.05c-.34-.26-.63-.6-.87-.95-.02,1.05,0,2.12.04,3.16.07,2.24.14,4.56-.33,6.72-.03.13-.14.23-.27.25-.14.01-.26-.06-.32-.18-.5-1.08-1.24-1.99-2.02-2.97-.56-.69-1.13-1.4-1.6-2.17.13.59.3,1.16.47,1.62.05.12,0,.26-.09.35s-.24.1-.36.04c-.37-.2-.69-.46-1-.73.07.53.22,1.07.35,1.58.02.08.02.2-.02.28-.04.07-.11.16-.19.18-.24.06-.49.14-.75.22-.66.21-1.38.43-2.05.36.15.33.33.64.51.97.05.09.06.19.02.28s-.12.16-.21.18c-.16.04-.32.06-.49.06v-.02Z"
  />
  <path
    d="m149.37,57.74c-.06,0-.12-.02-.18-.05-.84-.56-1.59-1.54-2.31-2.48-.26-.35-.52-.68-.77-.99,0,.16,0,.31.04.46s-.03.3-.17.37c-.14.06-.3.02-.39-.1-1.39-1.91-2.69-4.18-2.3-6.81-.14.29-.23.61-.27.93-.02.15-.14.27-.29.28s-.29-.08-.33-.23c-.87-3.12.29-8.09,1.28-10.66.7-1.83,2.5-5.79,5.47-7.74-.46.08-.92.15-1.36.2-.12.01-.24-.05-.31-.16-.06-.11-.06-.24.02-.35,1.35-1.85,4.19-3.75,6.61-4.44,1.16-.33,2.49-.66,3.55-.64.45,0,.94.15,1.41.28.49.13.99.27,1.26.21.17-.04.34.06.38.23s-.06.34-.23.38c-.43.11-.99-.05-1.58-.21-.43-.12-.88-.24-1.26-.25-.98,0-2.24.29-3.36.61-2.03.58-4.37,2.05-5.77,3.6.18-.03.36-.06.55-.09.65-.11,1.33-.22,2-.26.16,0,.3.1.33.26.03.16-.07.31-.22.36-3.9,1.18-6.26,6.59-6.88,8.23-.84,2.18-1.8,6.1-1.49,9.04.24-.46.58-.86.99-1.18.11-.09.27-.09.38,0,.11.08.16.23.11.37-.98,2.61-.02,4.9,1.27,6.85,0-.1.02-.2.02-.29,0-.13.08-.24.2-.29.12-.05.26-.02.34.07.44.45.85,1,1.3,1.58.5.66,1.02,1.33,1.55,1.84v-.58c0-.11.04-.21.13-.27.09-.06.2-.08.3-.04.5.2.99.47,1.44.8.14.1.17.3.07.44s-.3.17-.44.07c-.28-.2-.57-.38-.87-.53,0,.28,0,.52.09.75.05.13.02.28-.09.37-.06.05-.13.07-.2.07h-.02Z"
  />
  <path
    d="m152.94,57.17c-1.06,0-2.12-.35-2.89-.98-.85-.71-1.25-1.7-1.12-2.81.02-.17.18-.29.35-.28.17.02.3.18.28.35-.13,1.14.42,1.85.9,2.25.93.77,2.43,1.04,3.65.67.17-.05.34.04.39.21s-.04.34-.21.4c-.43.13-.89.2-1.35.2h0Z"
  />
  <path
    d="m152.06,66.86s-.09,0-.13-.03c-.11-.05-.18-.15-.19-.27-.08-1.38-.06-2.82-.03-4.21v-.07c-.09.06-.18.11-.23.17-.08.08-.19.11-.3.09s-.2-.1-.23-.21c-.25-.78-.34-1.65-.42-2.48-.07-.73-.15-1.49-.34-2.17-.05-.17.05-.34.22-.39.17-.04.34.05.39.22.2.73.28,1.52.36,2.27.07.68.13,1.32.28,1.92.14-.09.26-.18.34-.33.07-.13.22-.19.36-.16.14.04.24.16.24.31v.83c-.03,1.15-.05,2.32,0,3.47,1.02-1.14,1.75-2.96,1.97-4.35.02-.14.13-.25.27-.26.06,0,.13,0,.19.03-.15-1.53-.6-2.88-1.28-3.77-.11-.14-.08-.34.06-.44.14-.11.34-.08.44.06.94,1.23,1.49,3.26,1.47,5.42,0,.16-.12.29-.28.31-.15.02-.3-.08-.34-.23-.02-.06-.04-.12-.07-.19-.4,1.54-1.27,3.36-2.5,4.37-.06.05-.13.07-.2.07l-.04.02Zm1.08-11.81c-.18,0-.32-.05-.43-.09-.99-.45-1.56-2.45-1.46-3.28.02-.17.18-.29.35-.28.17.02.3.18.28.35-.03.26.04.7.18,1.15.33-.29.76-.43,1.22-.39.54.05,1,.36,1.16.79.09.24.17.72-.35,1.28-.35.38-.68.48-.94.48h-.01Zm-.83-1.49c.18.38.41.7.67.82.08.04.3.13.65-.24.15-.16.31-.4.22-.62-.08-.2-.34-.36-.63-.38-.17-.02-.62,0-.9.43h0Zm-18.64,39.7c-.21,0-.41-.08-.58-.22-.13-.11-.15-.31-.04-.45.11-.13.31-.15.45-.04.04.03.07.05.11.06,1.73-1.81,3.77-3.39,5.74-4.92.76-.59,1.52-1.18,2.27-1.78,2.47-2,4.73-4.44,6.92-6.8l.78-.84c.69-.74,1.44-1.49,2.17-2.22,1.64-1.64,3.34-3.33,4.59-5.16.79-1.15,1.32-2.46,1.85-3.72.75-1.8,1.52-3.66,3.03-5.19.36-.37.81-.73,1.25-1.08.63-.51,1.28-1.04,1.71-1.6.43-.58.82-1.4,1.19-2.21.24-.53.5-1.07.76-1.53.16-.28.33-.62.51-.98.91-1.85,2.16-4.39,4.5-3.46.1.04.18.13.19.24.34,1.9-1.12,4.18-2.41,6.19-.47.73-.91,1.42-1.23,2.04.14,0,.28.02.41.04.4.04.75.08,1.14-.04.49-.15,1.04-.55,1.57-.93.35-.26.69-.5,1.01-.68.41-.23.88-.63,1.37-1.05,1.19-1.01,2.53-2.16,3.61-1.25.32.27.47.57.47.9-.02.69-.77,1.28-1.5,1.84-.37.28-.71.55-.92.79-.39.46-.77.94-1.14,1.42-.57.74-1.15,1.5-1.82,2.16-.12.12-.32.12-.45,0-.12-.12-.12-.32,0-.45.63-.64,1.21-1.38,1.76-2.1.38-.49.75-.98,1.16-1.45.25-.3.62-.58,1.02-.88.56-.43,1.25-.96,1.26-1.35,0-.05,0-.19-.24-.4-.62-.53-1.55.19-2.79,1.25-.52.45-1.01.87-1.48,1.12-.29.16-.61.39-.95.64-.57.41-1.16.84-1.75,1.02-.51.16-.96.12-1.4.07-.26-.03-.53-.06-.83-.04-.11,0-.21-.05-.27-.14s-.07-.21-.03-.31c.33-.76.89-1.63,1.49-2.56,1.18-1.84,2.52-3.93,2.34-5.55-1.56-.48-2.53,1.17-3.53,3.21-.18.37-.36.72-.52,1.02-.25.44-.49.95-.73,1.49-.38.83-.78,1.69-1.26,2.32-.47.63-1.15,1.18-1.81,1.71-.44.36-.86.69-1.2,1.04-1.42,1.44-2.14,3.17-2.89,4.99-.53,1.29-1.09,2.62-1.91,3.83-1.28,1.88-3,3.59-4.66,5.25-.72.72-1.47,1.47-2.16,2.2l-.78.84c-2.2,2.37-4.48,4.83-6.99,6.86-.75.61-1.51,1.2-2.28,1.79-1.99,1.54-4.05,3.14-5.77,4.95-.05.06-.12.09-.2.1h-.11Z"
  />
  <path
    d="m177.34,67.26c-.53,0-1.07-.06-1.55-.12-.62-.07-1.2-.14-1.56-.07-.17.03-.34-.08-.37-.25s.08-.34.25-.37c.45-.09,1.08,0,1.75.07,1.69.2,2.91.26,3.21-.76-.71-1.14-3.82-1.98-5.01-2.3l-.28-.08c-.75-.21-1.46-.4-2.06-.31-.5.08-.97.35-1.47.64-.61.36-1.26.74-1.97.72-.17,0-.31-.15-.31-.32s.14-.31.32-.31h.03c.54,0,1.06-.31,1.61-.63.53-.31,1.07-.63,1.69-.72.73-.11,1.54.11,2.33.32l.27.07c2.35.63,4.84,1.45,5.47,2.72.03.06.04.14.03.21-.26,1.21-1.28,1.48-2.38,1.48h0Z"
  />
  <path
    d="m142.12,104.9c-.08,0-.15-.03-.21-.08-.13-.12-.14-.32-.03-.45.74-.83,1.5-2.07,2.25-3.28.47-.76.96-1.56,1.44-2.24,1.65-2.36,3.45-4.72,5.18-7.01l1.22-1.61c1.16-1.54,2.18-3.19,3.16-4.79,1.02-1.66,2.08-3.37,3.3-4.98.46-.6.94-1.19,1.42-1.77.76-.92,1.54-1.86,2.21-2.86.19-.29.35-.63.52-.99.23-.5.48-1.01.83-1.41.54-.6,1.35-1.02,2.14-1.42.5-.25.96-.49,1.34-.77.46-.33.87-.73,1.27-1.12,1.06-1.03,2.17-2.1,3.93-1.53.16.05.36.12.58.2,1.78.62,2.77.83,2.93.62,0,0,.13-.23-.6-1.23-1.24-1.69-2.35-1.58-4.03-1.41-.57.06-1.22.12-1.92.11-.17,0-.31-.15-.31-.32s.14-.31.32-.31c.07.02.13,0,.19,0,.59,0,1.14-.06,1.66-.11,1.69-.17,3.15-.32,4.6,1.66.71.96.89,1.57.6,1.98-.48.65-1.87.22-3.64-.4-.21-.07-.4-.14-.56-.19-1.41-.45-2.24.36-3.3,1.38-.42.4-.85.82-1.34,1.18-.42.3-.93.56-1.42.82-.73.38-1.49.76-1.95,1.28-.29.33-.5.78-.73,1.26-.17.36-.35.74-.57,1.07-.69,1.02-1.48,1.98-2.24,2.91-.48.58-.96,1.16-1.41,1.75-1.21,1.58-2.25,3.28-3.27,4.92-.99,1.61-2.02,3.27-3.2,4.83l-1.22,1.61c-1.73,2.28-3.52,4.64-5.17,6.99-.47.67-.95,1.45-1.42,2.21-.76,1.23-1.54,2.49-2.31,3.36-.06.07-.15.11-.24.11v.03Zm25.23-58.85c-.36,0-.71-.11-.9-.36-.11-.15-.3-.55.25-1.07-.15.02-.32.07-.48.12-.43.16-.92.49-.87.89.02.17-.11.33-.28.35-.17,0-.33-.11-.35-.28-.07-.64.42-1.23,1.28-1.55.79-.29,1.84-.3,2.28.36.41.61.21,1.08-.12,1.31-.21.15-.52.23-.82.23h0Zm0-1.43c.05.12,0,.27-.1.36-.28.22-.29.34-.29.34.02.03.19.11.45.1.25-.01.42-.1.47-.19.04-.07,0-.21-.11-.37-.08-.12-.23-.2-.42-.24Zm9.51,2.28c-.3,0-.6-.14-.78-.38-.08-.11-.27-.44-.06-.89-.39-.03-.78.03-1.1.21-.17.06-.42.13-.56-.09-.09-.14-.06-.3.09-.46,0-.26.38-.37.55-.18.86-.27,1.88-.06,2.53.29.08.04.14.12.16.22.17.84-.32,1.13-.47,1.2-.12.05-.24.08-.37.08h0Zm-.16-1.15c-.09.11-.19.28-.1.4.08.1.26.15.38.1.12-.05.14-.21.13-.34-.13-.06-.26-.11-.4-.15h0Zm-5.56,11.44c-.55,0-1.09-.04-1.56-.22-.16-.06-.25-.24-.19-.41.06-.16.24-.25.41-.19.61.23,1.41.19,2.19.16.27,0,.54-.02.79-.02.17,0,.32.14.32.32s-.14.32-.32.32c-.24,0-.5,0-.77.02-.29,0-.58.02-.88.02h.01Z"
  />
  <path
    d="m170.92,56.99c-.09,0-.17-.04-.24-.11-.11-.13-.1-.33.03-.45.51-.45,1.05-1.1,1.62-1.79.76-.91,1.54-1.85,2.32-2.39.07-.05.15-.06.23-.05.56.08,1.25.35,1.77.68.08.05.13.13.14.22s-.02.18-.08.25c-.29.32-.66.93-1.01,1.51-.39.64-.72,1.2-1,1.47-.13.12-.33.12-.45,0s-.12-.33.01-.45c.22-.21.56-.78.9-1.34.28-.47.57-.94.84-1.31-.35-.18-.74-.32-1.09-.39-.68.5-1.39,1.37-2.09,2.2-.59.71-1.15,1.38-1.69,1.86-.06.05-.13.08-.21.08v.02Zm-17.03,16.59c-.13,0-.26-.09-.3-.22-.12-.39-.36-.9-.62-1.44-.74-1.58-1.66-3.53-.67-4.64-.02-.03-.06-.06-.11-.1-.15-.08-.21-.27-.13-.43.08-.15.28-.21.43-.13.3.16.47.43.47.75,0,.09-.04.18-.1.24-.85.77,0,2.57.69,4.03.26.56.52,1.09.65,1.52.05.17-.04.34-.21.4-.03,0-.06,0-.09,0h-.01Z"
  />
  <path
    d="m150.02,77.92c-.09,0-.19-.04-.25-.12l-.25-.32c-1.07-1.33-3.05-3.8-2.9-5.19.02-.21.1-.86,2.69-3.11.58-.5.88-.74,1.51-1.01.36-.16.63-.12.8-.09.18.03.2.03.31-.13.11-.14.3-.17.44-.06.14.11.17.3.06.44-.34.46-.67.41-.91.37-.15-.02-.27-.04-.45.04-.55.25-.8.43-1.35.91-1.78,1.54-2.45,2.42-2.48,2.7-.13,1.13,1.9,3.65,2.76,4.72l.26.32c.11.14.09.34-.05.44-.06.05-.13.07-.2.07v.02Zm9.73,10.89c-.12,0-.24-.01-.35-.03-.98-.21-1.75-1.37-2.44-2.39-.3-.44-.58-.86-.82-1.11-.12-.13-.12-.33,0-.45.13-.12.33-.12.45,0,.28.29.58.73.89,1.2.59.88,1.32,1.97,2.05,2.13.49.1,1.3-.2,2.07-.5.67-.25,1.35-.51,2-.6-1.01-1.98-2.92-4.13-4.47-5.88l-.37-.42c-.12-.13-.1-.33.03-.45s.33-.1.45.03l.37.41c1.69,1.91,3.8,4.28,4.78,6.46.04.1.04.21-.02.3s-.14.14-.27.14c-.67,0-1.47.29-2.26.59-.75.29-1.47.56-2.08.56h0Zm6.2,3.47c-.06,0-.12-.02-.17-.05-.12-.08-.17-.22-.13-.36.84-2.79,1.86-5.27,2.93-7.91.33-.82.67-1.64,1-2.49.37-.93.91-1.76,1.44-2.58.57-.87,1.15-1.77,1.5-2.76.33-.94.11-2.05-.11-3.13-.23-1.13-.44-2.19-.08-3.12.06-.16.25-.24.41-.18,0,0,.03,0,.04.02.06-.03.13-.05.21-.04.17.03.29.19.26.36.05.24,1.03,2.04,1.51,2.91.18.34.34.62.44.81.45.86,1.68,2.97,3.3,3.9.14.08.2.26.13.41l-.11.23c-.66,1.39-1.42,2.96-2.52,4.16-.68.73-1.33.81-1.9.88-.43.05-.84.1-1.29.4-.79.53-1.56,1.83-2.23,2.97-.33.56-.64,1.09-.94,1.49-.86,1.17-2.15,2.82-3.47,3.99-.06.05-.13.08-.21.08h-.01Zm6.85-21.7c-.1.67.06,1.47.23,2.3.23,1.16.47,2.35.09,3.46-.37,1.06-.98,2-1.57,2.9-.53.82-1.04,1.6-1.38,2.46-.34.85-.67,1.68-1.01,2.5-.91,2.24-1.78,4.37-2.53,6.66.96-1,1.85-2.15,2.49-3.03.28-.38.58-.89.9-1.44.71-1.2,1.51-2.56,2.42-3.18.58-.39,1.1-.45,1.57-.51.56-.06,1-.12,1.51-.68,1.03-1.12,1.76-2.64,2.4-3.98-1.64-1.07-2.84-3.13-3.3-4-.09-.18-.25-.46-.43-.8-.78-1.43-1.19-2.22-1.4-2.68v.02Z"
  />
  <path
    d="m165.26,83.51c-.52,0-1.04-.08-1.55-.15-.82-.12-1.6-.24-2.31-.03-.17.05-.34-.05-.39-.21-.05-.17.05-.34.21-.39.84-.25,1.73-.12,2.58,0,.56.08,1.13.16,1.67.14,1.14-.06,2.34-.27,3.36-.46.17-.03.34.08.37.25s-.08.34-.25.37c-1.04.2-2.27.41-3.45.47h-.25.01Zm.7,8.68c-.14,0-.27-.09-.31-.24-.13-.5-.44-1.06-.76-1.65-.48-.87-.97-1.77-.95-2.62,0-.17.14-.31.32-.31.17,0,.31.15.31.32,0,.69.44,1.51.88,2.31.33.6.66,1.21.82,1.79.04.17-.06.34-.22.39-.03,0-.05.01-.08.01h0Z"
  />
  <path
    d="m166.27,92.5c-.06,0-.12-.02-.18-.05-.57-.39-1.26-.76-1.99-1.15-1.27-.69-2.59-1.4-3.48-2.3-.12-.12-.12-.32,0-.45.12-.12.32-.12.45,0,.83.83,2.1,1.52,3.33,2.19.74.4,1.44.78,2.04,1.19.14.1.18.29.08.44-.06.09-.16.14-.26.14h0Zm-36.4,23.81c-1.19,0-2.67-.78-4.41-2.34-.36-.32-.78-.66-1.23-1.02-1.37-1.1-2.93-2.34-3.5-3.76-.65-1.58-.49-4.04-.36-6.01.03-.41.05-.79.07-1.13.08-1.85.65-3.56,1.21-5.21.34-1.02.69-2.07.93-3.15.28-1.25.36-2.66.45-4.15.13-2.29.27-4.65,1.17-6.5.99-2.04,4.01-5.44,5.88-6.6,2.16-1.35,5.29-.98,8.05-.65.76.09,1.47.18,2.12.22,1.42-1.94,4.45-2.61,6.46-3.06.17-.04.34.07.38.24.04.17-.07.34-.24.38-1.97.44-4.95,1.1-6.18,2.94-.06.09-.17.14-.28.14-.71-.04-1.5-.13-2.34-.23-2.66-.32-5.67-.67-7.64.56-1.76,1.1-4.71,4.42-5.64,6.34-.84,1.74-.97,4.04-1.1,6.26-.08,1.45-.17,2.95-.46,4.25-.25,1.12-.61,2.18-.95,3.21-.56,1.68-1.1,3.28-1.17,5.03-.02.35-.04.73-.07,1.14-.12,1.91-.28,4.29.31,5.73.52,1.26,2,2.45,3.31,3.5.45.36.88.71,1.25,1.04,1.97,1.76,3.57,2.48,4.62,2.07.43-.17.85-.46,1.29-.78.44-.31.89-.63,1.38-.85.19-.08.38-.16.57-.23.55-.22,1.08-.43,1.51-.83.13-.12.33-.11.45.02s.11.33-.02.45c-.52.49-1.12.73-1.71.96-.18.07-.36.14-.54.22-.43.19-.85.49-1.26.78-.46.33-.93.66-1.43.86-.27.1-.55.16-.86.16h-.02Z"
  />
  <path
    d="m137.19,114.33c-.39,0-.68-.27-1.02-.68-.19-.24-.41-.5-.74-.76-.39-.31-.8-.51-1.24-.72-.64-.32-1.3-.64-1.92-1.32-1.77-1.95-2.94-4.2-3.76-5.95-.19-.41-.48-.93-.79-1.48-1.31-2.36-3.11-5.59-1.5-7.42.57-.65,1.35-1.13,2.1-1.59.42-.26.82-.51,1.17-.77.22-.17.46-.38.71-.61.73-.67,1.56-1.42,2.43-1.48h.2c.17.01.31.16.3.34,0,.06-.02.11-.05.15.34.83.5,1.75.65,2.64.17,1.02.34,1.98.76,2.78.44.85,1.32,1.62,2.17,2.36.6.53,1.22,1.07,1.7,1.65.73.88,1.52,1.67,2.29,2.44.47.46.93.93,1.39,1.42,1.15,1.23,1.05,2.02.36,3.45-.87,1.83-2.28,3.6-3.85,4.86-.61.49-1.04.7-1.38.7h.02Zm-4.7-22.11c-.6.15-1.26.74-1.85,1.28-.26.24-.52.47-.75.65-.38.29-.81.55-1.22.81-.71.44-1.45.89-1.95,1.47-1.32,1.49.36,4.5,1.58,6.69.31.56.6,1.08.81,1.52.8,1.71,1.94,3.91,3.65,5.79.53.59,1.11.87,1.73,1.18.44.22.9.45,1.35.79.38.3.63.6.84.85.45.55.55.67,1.52-.11,1.5-1.2,2.84-2.89,3.67-4.64.62-1.3.66-1.76-.25-2.74-.45-.48-.91-.94-1.37-1.4-.78-.78-1.59-1.58-2.33-2.49-.45-.54-1.05-1.07-1.63-1.58-.89-.78-1.82-1.59-2.31-2.54-.46-.9-.65-1.95-.82-2.97-.15-.88-.3-1.78-.64-2.57h-.03Z"
  />
  <path
    d="m123.07,99.47c-.08,0-.17-.03-.23-.1-.12-.13-.11-.33.02-.45.8-.74,1.55-1.27,2.63-1.47.17-.03.34.08.37.25s-.08.34-.25.37c-.94.17-1.58.63-2.32,1.32-.06.06-.14.08-.21.08h-.01Zm19.2-13.8c-.12,0-.23-.07-.29-.18-.4-.86-.2-2.2-.03-3.39.07-.51.14-.99.16-1.37.06-1.34-.38-1.87-1.1-2.75-.26-.32-.56-.68-.87-1.13-.1-.14-.06-.34.08-.44s.34-.06.44.08c.29.43.58.77.83,1.08.73.89,1.31,1.59,1.24,3.18-.02.42-.09.91-.17,1.44-.16,1.1-.34,2.35-.02,3.03.07.16,0,.35-.15.42-.04.02-.09.03-.13.03h0Zm60.55,52.72c-.15,0-.29-.11-.31-.27-.4-2.83-.55-5.51-.47-7.97.08-2.24-.15-4.38-.38-6.65-.08-.81-.17-1.62-.24-2.44-.11-1.27-.42-2.41-.75-3.62-.33-1.2-.67-2.44-.79-3.83l-.09-.99c-.34-3.89-.69-7.91-1.43-11.69-.14-.7-.26-1.41-.39-2.13-.52-2.89-1.05-5.89-2.29-8.45-.16-.34-.34-.64-.5-.92-.44-.76-.86-1.48-.88-2.62-.01-.51.04-.95.08-1.33.12-1.05.18-1.58-.97-2.28-1.34-.82-2.91-1.66-4.38-1.7-.25,0-.47,0-.68.02-.48.03-.94.06-1.48-.16-.32-.13-.58-.36-.83-.59-.23-.21-.45-.41-.68-.51-.5-.21-1-.27-1.48-.33-.76-.09-1.55-.19-2.29-.85-.28-.25-.43-.51-.56-.72-.21-.36-.33-.56-.96-.6-.25-.03-.58.15-.87.3-.38.2-.71.37-1.01.21-.11-.06-.26-.19-.3-.47-.02-.17.09-.33.27-.36.16-.02.31.08.35.24.11-.04.28-.12.4-.19.37-.19.78-.41,1.21-.37.96.07,1.21.5,1.46.91.12.2.23.39.43.57.6.53,1.22.61,1.95.69.52.06,1.07.13,1.64.37.34.14.61.39.87.62.22.2.42.39.63.47.41.16.77.14,1.21.11.23,0,.47-.03.74-.02,1.61.05,3.27.93,4.69,1.79,1.5.91,1.39,1.83,1.27,2.89-.04.37-.09.78-.08,1.25.02.98.36,1.56.8,2.31.17.3.36.61.53.97,1.27,2.64,1.81,5.68,2.34,8.61.13.71.25,1.42.39,2.12.75,3.82,1.1,7.85,1.44,11.76l.09.99c.12,1.33.45,2.54.77,3.72s.66,2.4.77,3.73c.07.82.15,1.62.24,2.43.23,2.19.46,4.45.38,6.74-.08,2.43.07,5.07.46,7.86.02.17-.1.33-.27.36h-.04v.02Z"
  />
  <path
    d="m187.91,142.18c-.89,0-1.55-.38-1.94-2.14-.06-.29-.16-.61-.25-.93-.28-.97-.6-2.07-.38-3.01.36-1.52,1.37-1.6,2.44-1.68.25-.02.52-.04.8-.07.47-.06.94-.13,1.42-.19,2.77-.38,5.64-.78,8.48-.55.12,0,.22.08.26.19.45,1.06,2.21,4.27,3.64,4.64.27.07.49.03.7-.14.02-.02.04-.03.06-.04,0-.04-.01-.08-.02-.12-.03-.17.08-.34.25-.37.17-.04.34.08.37.25.16.84.2,1.64.14,2.39-.01.16-.14.28-.29.29-.95.06-1.94.2-2.89.34-.76.11-1.55.22-2.33.3-1.81.17-3.62.29-5.37.41-.99.07-1.98.13-2.97.21-.4.03-.75.08-1.07.13-.38.05-.72.1-1.04.1h-.01Zm8.8-8.02c-2.21,0-4.45.31-6.62.61-.47.07-.95.13-1.42.19-.29.04-.57.06-.84.08-1.08.08-1.62.12-1.87,1.19-.18.78.11,1.8.37,2.7.1.34.19.67.26.97.4,1.81.87,1.74,2.27,1.55.33-.05.7-.1,1.12-.13.99-.08,1.98-.14,2.97-.21,1.75-.12,3.55-.24,5.35-.41.77-.07,1.55-.19,2.3-.29.88-.13,1.78-.25,2.67-.33.02-.37,0-.75-.03-1.14-.31.16-.65.2-1.02.1-1.7-.44-3.48-3.72-3.98-4.83-.51-.04-1.02-.05-1.53-.05Z"
  />
  <path
    d="m203.45,139.78c-.1,0-.19-.04-.25-.12-.07-.09-.09-.2-.05-.3.1-.28.22-.6.36-.94.44-1.13.98-2.51.99-3.5-.55-.18-1.16-.33-1.72-.4-.17-.02-.29-.18-.27-.36.02-.17.19-.29.36-.27.67.09,1.42.28,2.05.5.12.04.2.15.21.27.08,1.14-.53,2.72-1.02,3.98-.04.11-.08.21-.12.32.07.06.1.16.08.26-.06.32-.27.52-.57.55h-.05Zm-17.66-4.49h-.03c-.17-.02-.3-.17-.28-.35.1-1-.06-2.09-.21-3.15-.16-1.11-.33-2.26-.21-3.35.15-1.4,0-2.72-.14-4.12-.1-.92-.2-1.87-.21-2.83-.02-2.17.24-3.89,1.61-5.76,1.51-2.07,2.55-3.94,2.73-6.35.01-.18.16-.31.34-.29.17.01.3.16.29.34-.18,2.56-1.27,4.52-2.85,6.68-1.27,1.74-1.51,3.29-1.49,5.38.01.94.11,1.87.21,2.77.15,1.37.3,2.79.14,4.26-.11,1.01.05,2.12.21,3.19.16,1.1.33,2.23.22,3.31-.02.16-.15.28-.31.28h-.02Zm-6.51-90.08c-.17,0-.32-.14-.32-.32,0-.24.01-.5.02-.76.03-.74.07-1.5-.16-2.08-.06-.16.02-.35.18-.41s.35.02.41.18c.27.69.23,1.53.2,2.33-.01.25-.02.5-.02.73,0,.17-.14.32-.32.32h.01Zm-3.87,17.99c-.17,0-.31-.15-.32-.32,0-.27.27-.74.95-1.83.29-.47.6-.96.75-1.27.56-1.11.97-2.3,1.25-3.64.06-.29.13-.59.2-.89.51-2.25,1.13-5.05.13-7.12-.08-.16-.01-.35.15-.42.16-.08.35-.01.42.15,1.1,2.27.44,5.19-.09,7.53-.07.31-.14.6-.2.89-.29,1.39-.72,2.63-1.3,3.79-.17.34-.47.82-.78,1.32-.33.52-.82,1.31-.85,1.5,0,.17-.14.31-.31.31Zm-37.89,26.4c-.17,0-.32-.14-.32-.32v-5.47c-.01-.94-.18-2.02-.34-3.06-.23-1.48-.47-3.01-.27-4.24.03-.17.18-.29.36-.26.17.03.29.19.26.36-.18,1.13.05,2.61.28,4.05.17,1.06.34,2.16.35,3.15v5.47c0,.17-.14.32-.32.32Zm-3.5,2.58c-.17,0-.32-.14-.32-.32,0-.77.02-1.59.05-2.43.1-3.21.21-6.85-1.05-9.42-.08-.16-.01-.35.14-.42.16-.08.35,0,.42.14,1.33,2.71,1.21,6.43,1.11,9.72-.03.84-.05,1.65-.05,2.41,0,.17-.14.32-.32.32h.02Z"
  />
  <path
    d="m123.49,91.77c-.11,0-.21-.05-.27-.15-.09-.15-.05-.34.1-.44,3.27-2.07,9.57-4.51,13.51-2.71.16.07.23.26.16.42-.07.16-.26.23-.42.16-3.69-1.68-9.88.74-12.91,2.67-.05.03-.11.05-.17.05Z"
  />
  <path
    d="m126.17,95.91c-.17,0-.32-.14-.32-.32,0-3.82.24-8.77,2.09-13.15.07-.16.25-.24.41-.17.16.07.24.25.17.41-1.81,4.27-2.04,9.14-2.04,12.9,0,.17-.14.32-.32.32h0Zm.07,6.64c-1.05,0-1.8-.46-2.79-1.07-.23-.14-.48-.29-.75-.45-.15-.09-.2-.28-.11-.43s.28-.2.43-.11c.27.16.52.31.76.46,1.33.82,2.07,1.27,3.74.75.17-.05.34.04.4.21.05.17-.04.34-.21.4-.56.18-1.04.25-1.47.25h0Zm-2.14,9.48c-.15,0-.28-.1-.31-.25-.05-.22-.47-2.15-.42-3.34.02-.59.25-1.23.46-1.85.24-.68.48-1.39.37-1.83-.04-.17.06-.34.23-.38.17-.04.34.06.38.23.15.62-.11,1.38-.39,2.19-.2.58-.41,1.18-.43,1.67-.04,1.11.36,2.97.41,3.18.04.17-.07.34-.24.38h-.07.01Z"
  />
  <path
    d="m126.21,110.45c-1.71,0-3.35-.63-4.24-2.08-.09-.15-.04-.34.1-.44.15-.09.34-.04.43.1,1.26,2.07,4.36,2.19,6.61,1.12.16-.07.35,0,.42.15.08.16,0,.35-.15.42-.98.46-2.1.72-3.19.72h.02Zm44.97,65.46h-.06c-1.69-.3-3.13-.45-4.63-.21l-.29.05c-1.09.17-1.69.27-2.11-.06-.41-.32-.5-.91-.62-2.17-.14-1.49-.52-2.82-.92-4.23-.44-1.56-.9-3.17-.99-4.99-.16-3.26.14-6.66.43-9.96.38-4.26.77-8.66.15-12.76-.81-5.35-.52-11.15-.24-16.76.15-2.96.3-6.02.28-8.91,0-1.88-.07-3.85-.13-5.75-.06-2.04-.12-4.15-.13-6.14,0-1.09.06-2.34.12-3.66.18-3.63.39-7.75-.68-10.42-.06-.16,0-.35.18-.41.16-.07.35.01.41.18,1.11,2.8.9,6.99.72,10.69-.07,1.31-.13,2.55-.12,3.62,0,1.99.07,4.09.13,6.13.06,1.91.11,3.88.13,5.77.02,2.91-.13,5.98-.28,8.94-.28,5.58-.57,11.35.23,16.64.63,4.17.23,8.61-.15,12.91-.29,3.27-.59,6.65-.43,9.87.09,1.75.54,3.33.97,4.85.39,1.37.8,2.79.94,4.34.08.91.16,1.56.38,1.73.2.16.77.07,1.62-.07l.29-.05c1.59-.25,3.09-.1,4.84.21.17.03.29.19.26.37-.03.15-.16.26-.31.26h.01Z"
  />
  <path
    d="m171.22,175.92c-.07,0-.14-.02-.2-.06-.15-.09-.2-.28-.11-.43.06-.1.16-.15.27-.15s.04-.05.03-.09c-1.49-4.36-1.61-8.85-1.74-13.6-.02-.65-.04-1.29-.06-1.94-.04-1.25-.14-2.51-.24-3.73-.19-2.31-.38-4.69-.17-7.1.3-3.53.37-6.78.21-10.25-.41-9.2-.41-18.39-.41-27.27,0-1.76,0-3.52.02-5.27.03-5.34.06-10.86-.19-16.31-.06,0-.13,0-.2-.02-.17-.04-.27-.21-.23-.38s.22-.27.38-.23l-.08.31.08-.31s.12-.14.28-.12c.18.02.28.16.32.2.04.05.06.11.07.18.27,5.58.24,11.22.21,16.67,0,1.75-.02,3.51-.02,5.27,0,8.88,0,18.06.41,27.25.16,3.49.09,6.78-.21,10.33-.2,2.35,0,4.71.17,6.99.1,1.23.2,2.5.24,3.76l.06,1.95c.13,4.71.25,9.15,1.72,13.49.04.41-.16.66-.34.77-.09.06-.19.09-.28.09h.01Zm-5.2-77.12c-.1,0-.2-.05-.26-.14-.57.06-1.07-.28-1.26-.73-.19-.44-.08-1.03.61-1.35.71-.34,1.31.02,1.56.5.27.52.2,1.28-.48,1.67-.05.03-.11.04-.16.04h-.01Zm-.37-1.71c-.08,0-.18.02-.29.07-.28.13-.38.32-.29.53.09.22.41.45.83.29.06-.03.13-.03.2-.01.11-.19.09-.42,0-.59-.04-.08-.18-.29-.44-.29h-.01Zm.16,11.01c-.14,0-.27-.1-.31-.25,0-.06,0-.11,0-.17-.41-.09-.66-.38-.73-.7-.12-.51.17-1.17.95-1.39.64-.17.99.07,1.15.23.27.27.35.71.23,1.14-.16.56-.62.97-1.22,1.11h-.07v.03Zm.21-1.05c.1,0,.2.05.25.13.1-.11.18-.24.22-.38.06-.21.03-.41-.07-.52-.14-.14-.39-.1-.53-.06-.4.11-.55.4-.5.63.05.2.26.28.56.22h.07v-.02Zm0,9.74h-.19c-.2-.02-.31-.12-.33-.28-.43-.35-.71-.83-.79-1.39-.02-.1.02-.2.08-.27.41-.43.9-.6,1.39-.47.54.15.98.66,1.15,1.34.02.08,0,.16-.03.23-.32.54-.73.73-1.13.8-.04.02-.09.03-.14.03h-.01Zm-.66-1.61c.1.4.34.73.7.95.28-.05.46-.16.62-.39-.13-.39-.38-.68-.66-.75-.26-.07-.48.04-.65.19h0Zm.66,10.29c-.13,0-.25-.08-.3-.21-.02-.06-.02-.11,0-.16-.24-.02-.47-.12-.66-.3-.3-.29-.43-.71-.33-1.09.06-.21.24-.59.81-.73.82-.21,1.36.27,1.52.8.18.6-.08,1.4-.92,1.68-.03.01-.07.02-.1.02h-.01Zm0-1.05c.12,0,.23.07.28.17.16-.19.19-.44.13-.65-.04-.12-.2-.51-.76-.37-.2.05-.32.14-.35.28-.04.15.02.34.16.47.09.08.24.17.44.1.03,0,.06-.01.09-.01h0Zm-.42,11.59c-.16,0-.3-.13-.31-.3,0-.07.02-.14.06-.2-.46-.45-.61-1.04-.42-1.73.02-.08.07-.15.14-.19.6-.36,1.23-.37,1.69,0,.42.33.6.89.44,1.4-.09.28-.41.94-1.57,1.02h-.03Zm-.1-1.93c-.1.49.06.85.49,1.15.03.02.05.04.07.06.28-.1.46-.26.53-.49.08-.26,0-.55-.23-.72-.22-.18-.53-.18-.86,0Zm.63,11.89c-.12,0-.24-.01-.37-.04-.17-.03-.29-.2-.25-.37v-.03c-.26-.18-.41-.44-.43-.75-.02-.46.28-.91.69-1.05.4-.14.82.04,1.13.46.34.48.41.96.18,1.33-.18.29-.52.44-.95.44h0Zm-.08-1.65s-.05,0-.07.01c-.15.05-.27.25-.26.43,0,.17.14.29.38.35.11.03.19.11.22.21.11-.02.19-.07.23-.13.08-.13.02-.37-.16-.62-.08-.12-.2-.24-.34-.24h0Zm.22,12.62c-.12,0-.24-.02-.36-.06-.07-.02-.12-.07-.16-.13-.17-.26-.69-1.52-.35-2.14.2-.36.6-.46,1.15-.24.63.25.96.84.83,1.52-.12.62-.58,1.05-1.12,1.05h0Zm-.05-.64c.27.03.49-.25.54-.54.03-.14.07-.61-.44-.81-.33-.13-.36-.07-.37-.04-.13.24.1,1.03.27,1.39h0Zm-.2,9.27c-.07,0-.13-.02-.19-.06-.53-.4-.92-1.39-.63-2.08.09-.22.41-.73,1.29-.57.78.13,1.1.76,1.08,1.33-.03.63-.49,1.31-1.32,1.38-.04,0-.09,0-.13-.02-.03,0-.07.02-.1.02Zm.17-2.11c-.31,0-.38.16-.41.22-.14.33.05.98.36,1.27h.05c.49-.04.73-.43.74-.77,0-.29-.13-.62-.55-.69-.08,0-.15-.02-.2-.02h0Zm.86,10.18c-.14,0-.27-.1-.31-.24-.2-.08-.38-.21-.53-.4-.31-.41-.37-.98-.15-1.38.2-.35.57-.52,1.03-.47.77.08,1.07.6,1.1,1.06.04.66-.42,1.28-1.07,1.44h-.07,0Zm-.11-1.88c-.16,0-.26.05-.32.16-.1.18-.06.48.1.68.1.14.29.28.61.22.17-.16.25-.39.24-.59-.02-.27-.2-.43-.54-.47h-.09Zm12.36-57.61h-.14c-.96-.08-2.38-1.17-3.87-2.38-.23-.18-.43-.35-.59-.47-1.59-1.22-1.63-2.13-1.69-3.51-.02-.34-.03-.72-.08-1.15-.02-.17-.06-.46-.11-.85-.57-4.2-.95-8.21.19-9.12.05-.04.1-.07.16-.1-.03-.07-.04-.14-.02-.22.05-.17.22-.26.39-.22,1.56.44,3.37.33,5.13.22,2.01-.12,4.09-.25,5.81.45.11.04.18.14.2.26.09.76.2,1.55.31,2.35.38,2.65.77,5.39.34,8.04-.34,2.08-3.64,6.72-6.02,6.72v-.02Zm-5.73-17.06c-.08,0-.13.03-.17.06-.67.54-.66,3.41.04,8.54.05.4.1.7.11.87.04.44.06.83.08,1.19.06,1.33.09,2,1.45,3.04.16.13.37.29.6.48,1,.81,2.68,2.17,3.52,2.24h.1c1.87,0,5.07-4.22,5.39-6.19.42-2.55.03-5.24-.34-7.84-.11-.74-.21-1.47-.29-2.18-1.55-.57-3.4-.45-5.36-.33-1.52.09-3.09.19-4.53-.06,0,.01,0,.02-.01.04-.06.16-.24.25-.41.19-.07-.03-.13-.04-.18-.04h0Z"
  />
  <path
    d="m178.98,102.51c-2.59,0-5.16-.29-6.14-1.09-.14-.11-.16-.31-.05-.45s.31-.16.44-.05c1.67,1.36,9.33,1.1,11.68.36.17-.05.34.04.4.21.05.17-.04.34-.21.4-1.1.35-3.62.62-6.13.62h0Zm-30.18,9.95c-1.68,0-6.13-2.69-6.42-4.2-.03-.17.08-.34.25-.37.17-.03.34.08.37.25.24,1.24,4.58,3.78,5.86,3.69,1.39-.11,4.3-3.69,4.68-5.14.56-2.16.87-6.55.4-8.76-.35-1.66-1.82-1.67-4.2-1.48-.56.04-1.14.09-1.69.09-.17,0-.32-.14-.32-.32s.14-.32.32-.32c.52,0,1.09-.04,1.64-.09,2.05-.16,4.37-.35,4.87,1.98s.19,6.79-.41,9.06c-.4,1.54-3.45,5.47-5.24,5.62h-.11Z"
  />
  <path
    d="m148.13,100.59c-1.05,0-2.07-.04-3-.14-.17-.02-.3-.18-.28-.35s.18-.29.35-.28c1.82.21,4.02.14,6.14.07,1.06-.03,2.12-.07,3.11-.07.17,0,.32.14.32.32s-.14.32-.32.32c-.99,0-2.04.03-3.09.07-1.08.04-2.17.07-3.23.07h0Zm14.02,75.61c-1.39,0-2.83-.3-4.25-.6-1.15-.24-2.24-.47-3.25-.52-1.56-.09-3.14-.34-4.67-.58-.66-.1-1.31-.21-1.97-.3-.73-.1-1.48-.16-2.28-.21-1.4-.1-2.85-.21-4.17-.58-2.09-.59-4.03-1.71-5.91-2.79-1.17-.67-2.39-1.37-3.62-1.93-1.2-.54-2.19-.53-3.06-.51-1.35.03-2.52.04-3.04-2.44-.47-2.22.91-5.8,2.04-7.63.55-.89.88-1.84,1.23-2.83.25-.71.51-1.45.86-2.19,1.95-4.09,2.86-8.77,3.66-12.9.3-1.56.19-3.18.08-4.76-.04-.58-.08-1.16-.1-1.74-.04-1.19.2-2.2.44-3.18.16-.67.32-1.35.39-2.08.44-4.67.44-9.18,0-14.63-.01-.17.12-.33.29-.34.17-.02.33.12.34.29.44,5.49.44,10.03,0,14.74-.07.77-.24,1.48-.41,2.17-.24.98-.46,1.91-.42,3.01.02.57.06,1.14.1,1.72.11,1.61.22,3.28-.09,4.92-.81,4.17-1.72,8.89-3.71,13.05-.34.7-.59,1.43-.83,2.12-.35.98-.7,2-1.29,2.95-1.04,1.69-2.39,5.14-1.96,7.16.41,1.97,1.08,1.95,2.41,1.94.9,0,2.01-.03,3.34.57,1.26.57,2.49,1.28,3.67,1.96,1.85,1.06,3.76,2.16,5.77,2.73,1.25.35,2.67.46,4.04.56.77.06,1.58.12,2.33.22.66.09,1.31.19,1.98.3,1.52.24,3.08.48,4.61.57,1.06.06,2.17.29,3.34.54,2.29.48,4.65.97,6.61.11.04-.02.08-.03.13-.03.11,0,.23.04.46.11.12.04.34.11.44.12.11-.05.24-.04.33.04.14.11.16.31.05.45-.2.26-.58.14-1.02,0-.09-.03-.17-.06-.23-.07-.84.35-1.74.49-2.66.49h0Zm9.67-.48c-.17,0-.34-.04-.47-.16-.11-.11-.16-.27-.13-.44.02-.16.17-.27.33-.27.14,0,.28,0,.42.02.87-.24,1.87-.24,2.83-.23.83,0,1.62,0,2.31-.13.85-.17,1.71-.32,2.56-.48,1.12-.2,2.27-.4,3.37-.65l.66-.14c1.37-.29,3.24-.69,4.25-1.27,1.18-.69,1.16-1.59,1.12-2.96-.01-.42-.02-.86,0-1.33.16-3.28-.29-6.7-.73-10.01-.18-1.36-.37-2.76-.5-4.11-.11-1.06-.37-2.29-.65-3.58-.61-2.86-1.31-6.1-.41-8.39.06-.16.25-.24.41-.18s.24.25.18.41c-.83,2.12-.15,5.26.44,8.03.28,1.31.55,2.56.66,3.65.13,1.34.32,2.74.5,4.09.44,3.34.9,6.79.74,10.13-.02.46-.01.89,0,1.29.04,1.42.07,2.64-1.44,3.52-1.09.64-3.03,1.05-4.44,1.35l-.65.14c-1.12.25-2.28.45-3.4.65-.85.15-1.7.3-2.55.47-.75.15-1.61.15-2.44.14-.85,0-1.73,0-2.48.16-.02.14-.13.25-.27.27-.07,0-.15.02-.23.02h.01Zm25.57-81.88c-2.59,0-4.85-.7-7.03-1.37-2.21-.68-4.29-1.34-6.7-1.31h-.07c-2.02,0-3.93-.59-5.78-1.15-2.81-.86-5.46-1.67-8.37-.52-.16.06-.35-.02-.41-.18s.02-.35.18-.41c3.12-1.23,6-.35,8.79.51,1.83.56,3.72,1.14,5.66,1.12h.09c2.47,0,4.67.68,6.8,1.34,2.14.66,4.35,1.35,6.84,1.35.19.02.32.14.32.32s-.13.3-.32.32v-.02Z"
  />
  <path
    d="m173.24,96.53c-.11,0-.22-.06-.27-.16-1.15-2.01-1-9.91-.23-12.44.05-.17.23-.26.39-.21.17.05.26.23.21.39-.72,2.39-.88,10.09.18,11.95.09.15.03.35-.12.43-.05.03-.1.04-.16.04Zm4.13-.21c-.09,0-.19-.04-.25-.12-.45-.58-.47-2.15-.45-4.31,0-.81.02-1.58-.03-2.05-.09-.86-.06-1.81-.03-2.82.05-1.63.09-3.31-.36-4.55-.06-.16.02-.35.19-.41.16-.06.35.02.41.19.5,1.35.45,3.1.4,4.79-.03.99-.05,1.92.03,2.74.05.51.04,1.29.03,2.12-.01,1.38-.03,3.47.31,3.92.11.14.08.34-.06.44-.06.04-.13.07-.19.07h0Zm8.05,1.45c-.17,0-.31-.14-.32-.31-.04-1.35-.12-2.78-.41-4.07-.18-.81-.56-1.4-.96-2.02-.32-.5-.66-1.02-.88-1.66-.58-1.67-.45-3.61-.32-5.5.11-1.61.21-3.13-.1-4.46-.04-.17.07-.34.24-.38.18-.04.34.07.38.24.33,1.42.22,3.06.11,4.64-.12,1.82-.25,3.7.29,5.25.2.57.5,1.04.82,1.53.41.64.84,1.31,1.05,2.23.3,1.35.38,2.81.43,4.19,0,.17-.13.32-.31.33h-.02Zm3.72-1.86h-.02c-.17-.01-.3-.16-.29-.34.12-1.58.21-4.5.21-6.79,0-1.1-.22-2.21-.44-3.29-.27-1.36-.55-2.78-.39-4.2.02-.17.18-.3.35-.28s.3.18.28.35c-.15,1.33.11,2.63.38,4,.22,1.1.45,2.25.45,3.41,0,2.3-.09,5.24-.21,6.84-.01.17-.15.29-.31.29h0Zm6.81,37.57c-.16,0-.29-.11-.31-.27-.11-.77-.42-1.32-.74-1.91-.23-.41-.46-.83-.64-1.35-.5-1.44-.05-2.42.48-3.55.12-.25.24-.51.36-.8,1.75-4.22,1.44-9.06.96-13.66-.16-1.51-.24-3.04-.31-4.51-.08-1.43-.15-2.91-.3-4.39-.08-.79-.23-1.56-.38-2.31-.22-1.12-.45-2.29-.45-3.55,0-.68-.09-1.52-.2-2.41-.19-1.7-.4-3.46,0-4.66.06-.17.24-.26.4-.2.17.06.25.24.2.4-.36,1.06-.16,2.83.02,4.38.1.91.2,1.77.2,2.49,0,1.2.22,2.34.44,3.43.15.76.31,1.55.39,2.37.15,1.49.23,2.98.3,4.42.08,1.47.16,2.99.31,4.48.49,4.68.81,9.61-1,13.96-.12.29-.24.56-.36.82-.51,1.09-.87,1.88-.45,3.08.16.47.38.86.6,1.25.22.4.45.81.61,1.3.12.05.2.16.2.29v.58c0,.17-.13.3-.29.31h-.04Z"
  />
  <path
    d="m192.24,110.38c-.11,0-.21-.06-.27-.16-.09-.15-.04-.34.11-.43,1.97-1.18,4.91-2.65,7.68-1.89.17.05.27.22.22.39-.05.17-.22.27-.39.22-2.53-.69-5.31.71-7.19,1.83-.05.03-.11.04-.16.04Zm-5.29,6.43c-.18,0-.35,0-.52-.02s-.3-.17-.28-.34c.02-.17.18-.3.34-.29,1.19.11,2.51-.23,3.91-.59,1.29-.33,2.64-.66,3.92-.66.59,0,1.37.13,2.2.27,1.03.17,2.44.39,2.79.19.15-.09.34-.04.43.11.09.15.04.34-.11.43-.51.29-1.55.15-3.21-.11-.77-.12-1.57-.25-2.11-.26-1.21-.02-2.5.32-3.75.64-1.21.31-2.45.63-3.6.63h-.01Zm-.34,4.46c-.49,0-.98-.04-1.46-.15-.17-.04-.28-.2-.24-.37.04-.17.21-.28.37-.24,2.17.46,4.5-.33,6.97-1.17,2.63-.89,5.35-1.81,7.91-1.1.17.05.27.22.22.39-.05.17-.22.27-.39.22-2.38-.66-5,.23-7.54,1.09-1.94.66-3.93,1.33-5.84,1.33Zm13.22,10.4c-.55,0-1.34-.16-2.26-.35-1.13-.23-2.43-.49-3.42-.48-1.05.02-2.19.2-3.3.38-1.77.29-3.6.58-5.28.24-.17-.03-.28-.2-.25-.37.03-.17.2-.28.37-.25,1.57.32,3.34.03,5.06-.24,1.12-.18,2.29-.37,3.39-.38,1.08-.04,2.4.25,3.56.49.87.18,1.67.34,2.17.34.18,0,.32.14.32.31s-.13.32-.31.32h-.05,0Z"
  />
  <path
    d="m189.76,141.8c-.06,0-.12-.02-.18-.05-1.92-1.29-1.31-5.31-.81-8.54.19-1.21.35-2.25.34-2.92-.09-6.27-.53-11.74-1.31-16.25-.03-.17.09-.34.26-.37.17-.03.34.09.37.26.78,4.54,1.23,10.04,1.32,16.34.01.73-.15,1.79-.34,3.03-.44,2.89-1.05,6.85.54,7.91.15.1.18.29.09.44-.06.09-.16.14-.26.14h-.02Zm8.05-.62s-.08,0-.12-.02c-2.41-1.01-4.06-4.45-3.27-6.8.06-.17.24-.25.4-.2.17.06.26.23.2.4-.68,2.04.82,5.13,2.92,6.02.16.07.24.25.17.41-.05.12-.17.19-.29.19h0Zm-22.59-30.41c-.05,0-.1,0-.15-.01-.1-.01-.19-.08-.24-.17-.05-.09-.05-.2,0-.29.46-.86,2.46-2.64,4.4-4.36,1.44-1.28,3.21-2.86,3.41-3.29-.02-.13.05-.26.17-.32.15-.08.35-.02.43.14.23.45-.28,1-3.58,3.94-1.42,1.26-2.99,2.66-3.79,3.56.04.02.08.05.11.09.11.14.09.33-.04.45-.21.17-.45.26-.7.26h-.02Zm2.36,2.5c-.11,0-.21-.06-.27-.15-.09-.15-.04-.34.11-.43,1.23-.74,2.31-1.84,3.47-3.02,1.34-1.37,2.73-2.78,4.4-3.61.15-.08.34-.01.42.14.08.16.01.35-.14.42-1.57.78-2.92,2.15-4.23,3.49-1.13,1.15-2.3,2.34-3.59,3.12-.05.03-.11.05-.16.05h-.01Z"
  />
  <path
    d="m183.77,109.34c-.07,0-.14-.02-.2-.07-.59-.48-1.28-1-2.01-1.54-2.29-1.69-4.88-3.6-6.12-6.01-.08-.16-.02-.35.14-.43.15-.08.35-.02.43.14,1.17,2.27,3.7,4.14,5.93,5.79.74.55,1.44,1.06,2.04,1.56.13.11.15.31.04.45-.06.08-.15.12-.24.12h-.01Zm-.82,2.28c-.07,0-.14-.02-.2-.07-.54-.43-1.12-.88-1.74-1.35-2.81-2.15-6.31-4.83-7.84-7.85-.08-.16-.02-.35.14-.43.16-.08.34-.02.43.14,1.47,2.89,4.9,5.52,7.66,7.63.62.47,1.21.93,1.75,1.36.14.11.16.31.05.44-.06.08-.15.12-.25.12h0Zm-39.85-1.86c-.09,0-.18-.04-.24-.11-.11-.13-.1-.33.03-.45,1.58-1.38,3.34-2.69,5.04-3.96,2.1-1.56,4.26-3.17,6.1-4.92.13-.12.33-.12.45.01s.11.33,0,.45c-1.87,1.78-4.05,3.4-6.16,4.97-1.69,1.26-3.44,2.56-5,3.93-.06.05-.13.08-.21.08Z"
  />
  <path
    d="m154.25,106.45c-.07,0-.14-.02-.2-.07-1-.8-1.85-1.85-2.68-2.87-.77-.96-1.58-1.94-2.49-2.72-.13-.11-.15-.31-.04-.45.11-.13.31-.15.45-.04.96.81,1.78,1.82,2.57,2.8.84,1.04,1.64,2.02,2.58,2.78.14.11.16.31.05.44-.06.08-.15.12-.25.12h.01Zm-.62,1.86c-.07,0-.14-.02-.2-.07l-.49-.4c-2.23-1.81-5.6-4.54-6.63-7.18-.06-.16.02-.35.18-.41s.35.02.41.18c.96,2.48,4.26,5.15,6.43,6.91l.49.4c.14.11.16.31.05.45-.06.08-.15.12-.24.12Zm-3.31,3.35c-.08,0-.15-.03-.21-.08-1.27-1.12-2.46-2.36-3.6-3.56-1.28-1.34-2.59-2.72-4.02-3.92-.13-.11-.15-.31-.04-.45.11-.13.31-.15.45-.04,1.45,1.22,2.78,2.62,4.07,3.96,1.09,1.14,2.21,2.32,3.4,3.38.03-.03.05-.08.07-.15.04-.17.21-.27.38-.23.17.04.27.22.23.39-.09.35-.31.58-.64.68-.03,0-.06.01-.09.01h0Zm3.1,62.39s-.09,0-.13-.03c-.16-.07-.23-.26-.16-.42v-.02c.02-.42-.18-2.37-.34-3.81-.14-1.32-.27-2.56-.28-3.01-.08-3.57.53-7.65,1.19-11.53.22-1.28.62-2.46,1.02-3.61.43-1.26.88-2.57,1.06-3.98.24-1.88.38-3.79.52-5.64.09-1.18.18-2.37.29-3.55.34-3.59.31-7.31.28-10.9-.03-3.67-.07-7.47.31-11.12.25-2.45.16-4.95.08-7.37-.07-1.97-.14-4-.03-6.01.06-1.08.24-2.13.41-3.14.2-1.18.41-2.4.42-3.65,0-.5.05-1.12.09-1.8.14-2.02.33-4.79-.45-5.94-.1-.14-.06-.34.08-.44.14-.1.34-.06.44.08.9,1.33.71,4.11.56,6.34-.05.67-.09,1.27-.09,1.76,0,1.3-.22,2.55-.43,3.75-.17,1-.34,2.02-.4,3.07-.11,1.98-.04,4,.03,5.95.09,2.44.17,4.96-.08,7.45-.37,3.62-.33,7.4-.3,11.05.03,3.6.06,7.33-.28,10.96-.11,1.18-.2,2.36-.29,3.54-.14,1.86-.28,3.78-.53,5.68-.19,1.47-.64,2.81-1.09,4.11-.38,1.12-.78,2.28-.99,3.51-.66,3.85-1.26,7.89-1.18,11.41,0,.42.14,1.65.28,2.95.43,4.1.4,4.12.18,4.28-.06.04-.12.06-.19.06v.02Zm-8.46-.62h-.08c-.17-.04-.27-.21-.23-.38.08-.34.04-1.14,0-2-.06-1-.12-2.13,0-2.94.15-1.05.38-2.08.6-3.08.24-1.09.49-2.22.64-3.36.34-2.65.89-5.32,1.43-7.91.37-1.8.75-3.66,1.07-5.5.89-5.3.69-10.32.48-15.63l-.07-1.87c-.05-1.26-.12-2.55-.19-3.86-.27-4.86-.56-9.89.41-14.41.04-.17.21-.28.38-.24.17.04.28.2.24.38-.95,4.45-.67,9.43-.39,14.25.07,1.31.15,2.61.19,3.87l.07,1.87c.21,5.35.41,10.39-.49,15.76-.31,1.85-.7,3.72-1.07,5.52-.53,2.57-1.08,5.23-1.42,7.86-.15,1.17-.4,2.31-.65,3.42-.22.99-.45,2.01-.59,3.03-.11.75-.04,1.85,0,2.82.05.94.1,1.76,0,2.19-.04.14-.16.24-.31.24l-.02-.03Zm-6.56-2.09c-.26,0-.32-.28-.36-.43-.02-.09,0-.18.05-.25-.02-.24-.05-.57-.07-.79-.02-.2-.03-.37-.04-.46-.01-.24-.05-.48-.08-.73-.06-.44-.12-.89-.09-1.37.06-1.23.44-2.46.8-3.65.16-.53.33-1.06.46-1.59.3-1.2.45-2.45.6-3.66.07-.58.14-1.15.23-1.73.16-1.07.52-2.03.86-2.96.3-.8.61-1.64.78-2.53,1.27-6.61,1.25-14.04,1.24-20.59,0-2.98.05-5.99.11-8.9.07-3.68.15-7.48.09-11.23,0-.18.14-.32.31-.32s.31.14.32.31c.06,3.76-.02,7.57-.09,11.25-.06,2.91-.12,5.92-.11,8.89,0,6.58.03,14.04-1.25,20.71-.18.94-.5,1.8-.81,2.63-.35.94-.68,1.82-.83,2.83-.09.57-.16,1.14-.23,1.71-.15,1.23-.31,2.5-.62,3.74-.13.53-.3,1.07-.47,1.62-.35,1.15-.72,2.34-.77,3.49-.02.42.04.84.09,1.26.03.26.07.52.08.77,0,.08.02.25.04.44.12,1.39.13,1.47-.2,1.52h-.06l.02.02Zm-7.27-3.17s-.07,0-.11-.02c-.1-.03-.26-.13-.22-.43,0-.31,0-.68-.02-1.07-.03-1.11-.05-2.37.23-3.35.21-.73.59-1.35.96-1.95.36-.58.69-1.13.87-1.76.73-2.56,1.31-5.7,1.73-9.34.1-.9.28-1.77.45-2.61.29-1.43.56-2.79.49-4.27-.09-1.88-.05-3.8,0-5.66.03-1.13.05-2.27.05-3.41v-.39c0-3.2-.02-6.23.37-9.38.09-.73.2-1.48.31-2.25.34-2.37.7-4.82.56-7.02-.01-.17.12-.32.3-.34.15-.01.32.12.34.3.14,2.27-.22,4.75-.56,7.15-.11.77-.22,1.52-.31,2.24-.38,3.11-.37,6.12-.37,9.3v.39c0,1.14-.02,2.29-.05,3.42-.04,1.84-.08,3.75,0,5.61.07,1.56-.22,3.02-.5,4.43-.17.83-.34,1.68-.44,2.56-.42,3.68-1,6.86-1.75,9.45-.21.72-.58,1.33-.94,1.92s-.7,1.14-.89,1.8c-.25.88-.23,2.09-.2,3.16,0,.2,0,.4.01.59.06.02.12.06.16.12.1.14.06.34-.08.44.03,0,0,.03-.02.07-.06.11-.16.31-.36.31h0Zm47.02,6.8c-.19,0-.37-.14-.61-.33-.09-.07-.22-.18-.3-.22-.06,0-.12,0-.17-.02-.11-.05-.18-.15-.19-.27-.1-1.75,0-3.52.09-5.23l.09-1.68c.07-1.54-.24-2.85-.56-4.22-.15-.65-.31-1.31-.43-2.02-.44-2.6-.43-5.33-.42-7.97.01-2.7.02-5.49-.45-8.14-.12-.66-.28-1.29-.43-1.89-.26-1.04-.53-2.11-.6-3.32-.12-2.12-.08-4.3-.04-6.41.02-1.06.04-2.12.04-3.17,0-2.52.18-5.07.36-7.54.24-3.4.49-6.92.26-10.37-.01-.17.12-.32.29-.34.16-.03.32.12.34.29.23,3.49-.02,7.03-.26,10.46-.17,2.46-.35,5-.35,7.5,0,1.06-.02,2.12-.04,3.18-.04,2.09-.08,4.26.04,6.36.07,1.15.32,2.15.58,3.2.16.62.32,1.26.44,1.94.49,2.7.48,5.52.46,8.25-.01,2.61-.02,5.31.41,7.86.12.68.27,1.34.42,1.98.33,1.42.65,2.77.58,4.4-.02.56-.06,1.12-.09,1.69-.09,1.61-.18,3.27-.11,4.91.15.07.29.19.44.31.06.05.15.12.21.16.05,0,.1,0,.15,0,.17.06.26.23.2.4-.03.1-.14.21-.24.24-.04,0-.07.02-.11.02v-.02Zm6.24-1.84c-.17,0-.32-.14-.32-.32,0-6.9-.93-13.33-1.92-20.13-.39-2.68-.79-5.45-1.13-8.23-.41-3.41-.29-6.93-.17-10.33.11-3.14.22-6.38-.08-9.54-.11-1.11-.47-1.94-.85-2.81-.29-.65-.58-1.33-.76-2.13-.14-.61-.05-1.34.03-2.05.11-.97.23-1.97-.22-2.58-.1-.14-.07-.34.07-.44.14-.1.34-.07.44.07.6.82.47,1.94.34,3.03-.08.69-.16,1.33-.04,1.84.17.74.44,1.36.73,2.02.39.88.78,1.79.9,3.01.31,3.2.19,6.46.08,9.62-.12,3.38-.24,6.87.16,10.23.33,2.77.73,5.54,1.12,8.21.91,6.28,1.85,12.77,1.92,19.44v.78c0,.18-.14.32-.32.32h.02Z"
  />
  <path
    d="m161.89,95.29s-.06,0-.09-.01c-.35-.1-.7-.21-1.04-.32-1.43-.45-2.78-.88-4.46-.7-.42.04-.9.13-1.42.22-1.86.32-3.96.68-4.98-.3-.13-.12-.13-.32,0-.45.12-.13.32-.13.45,0,.79.76,2.81.41,4.43.14.53-.09,1.04-.18,1.46-.22,1.82-.18,3.23.26,4.72.73.34.11.67.21,1.02.31.17.05.26.22.22.39-.04.14-.17.23-.3.23v-.02Zm-5.63,11.73c-.9,0-1.78-.1-2.53-.38-.16-.06-.25-.24-.19-.41.06-.16.24-.25.4-.19,2.02.73,5.38.16,7.85-.62.17-.06.34.04.4.21.05.17-.04.34-.21.4-.9.28-3.38.99-5.72.99Zm-4.9,4.8c-.15,0-.28-.11-.31-.26-.03-.17.08-.34.25-.37.87-.16,1.68-.47,2.46-.77,1.04-.4,2.11-.81,3.37-.89.9-.05,1.73.02,2.52.1.71.07,1.44.13,2.22.11h0c.17,0,.31.13.32.3,0,.18-.13.32-.3.33-.82.03-1.58-.04-2.31-.11-.81-.08-1.57-.15-2.42-.1-1.15.07-2.14.45-3.18.85-.81.31-1.65.63-2.58.8h-.06.01Zm5.3,5.4c-1.48,0-2.93-.17-4.35-.33l-.83-.1c-2.26-.25-4.43-.9-6.52-1.53-1.83-.55-3.72-1.12-5.67-1.42-.08-.01-.14-.05-.19-.11-.04-.05-.17-.21-.13-.41.04-.19.2-.27.29-.31.04-.02.08-.04.1-.06.11-.13.31-.15.45-.04.11.09.14.25.08.38,1.82.32,3.57.85,5.27,1.36,2.07.62,4.2,1.26,6.41,1.51l.84.1c1.66.19,3.38.4,5.09.31.59-.03,1.18-.12,1.8-.22.99-.16,2.02-.32,3.06-.19.17.02.3.18.28.35s-.18.29-.35.28c-.95-.11-1.93.04-2.88.19-.61.1-1.24.19-1.86.22-.28.01-.57.02-.85.02h-.04Zm2.51,4.87c-1.02,0-2.06-.09-3.01-.4-.75-.24-1.37-.53-1.97-.82-.94-.44-1.82-.86-3.07-.99-1.82-.19-4.12-.27-6.15-.2-.61.02-1.4.13-2.25.24-1.99.27-4.24.58-5.35-.08-.15-.09-.2-.28-.11-.43s.28-.2.43-.11c.93.55,3.16.24,4.95,0,.86-.12,1.68-.23,2.31-.25,2.05-.07,4.38.01,6.24.21,1.36.14,2.29.58,3.28,1.05.58.27,1.18.56,1.89.79,1.66.53,3.73.36,5.24.24l.09.31.03.32c-.76.06-1.64.14-2.54.14v-.02Z"
  />
  <path
    d="m159.2,125.26s-.1-.01-.14-.04c-1.1-.57-2.09-1.64-3.06-2.68-.6-.65-1.17-1.26-1.74-1.74-1.9-1.58-2.34-2.92-2.91-4.63-.15-.45-.31-.93-.5-1.45-.06-.16.02-.35.18-.41s.34.02.41.18c.2.53.36,1.02.51,1.47.55,1.67.95,2.88,2.71,4.34.6.5,1.19,1.13,1.8,1.8.92,1,1.88,2.04,2.88,2.55.16.08.22.27.14.43-.06.11-.17.17-.28.17h0Z"
  />
  <path
    d="m157.01,125.91c-.24,0-.48,0-.7-.03-1.82-.16-3.35-.6-4.97-1.07l-.64-.19c-2.65-.76-5.14-1.1-7.38-1.03-.75.03-1.57.14-2.43.27-1.55.22-3.15.45-4.47.15-.17-.04-.28-.21-.24-.38s.21-.28.38-.24c1.2.28,2.74.06,4.23-.16.84-.12,1.72-.25,2.5-.27,2.31-.08,4.86.27,7.58,1.05l.65.19c1.66.48,3.09.9,4.85,1.05.65.06,1.45,0,2.23-.04,1.06-.07,2.07-.13,2.75.06.17.05.27.22.22.39s-.22.27-.39.22c-.58-.16-1.58-.1-2.54-.03-.55.04-1.11.07-1.63.07h0Zm4.05,6.59h-.08c-.97-.24-2.01-.16-3.11-.08-.81.06-1.64.12-2.46.05-2.28-.2-4.25-1-6.05-1.83-3.2-1.48-6.92-1.51-10.52-1.54-1.26-.01-2.56-.02-3.82-.09-.17-.01-.31-.16-.3-.33,0-.17.16-.3.33-.3,1.25.07,2.54.08,3.79.09,3.66.03,7.45.06,10.78,1.6,1.74.81,3.66,1.58,5.84,1.78.77.06,1.58,0,2.36-.05,1.1-.08,2.24-.16,3.31.1.17.04.27.21.23.38-.04.14-.16.24-.31.24v-.02Zm.21,3.72h-.04c-1.26-.14-2.56-.13-3.93-.12-2.37.02-4.82.04-7.08-.78-2.35-.85-3.74-1.2-6.24-1.22h-1.17c-2.19.02-5.18.05-6.83-.6-.16-.06-.24-.25-.18-.41s.25-.24.41-.18c1.54.6,4.47.58,6.6.56.43,0,.83-.01,1.18,0,2.6.01,4.03.38,6.46,1.25,2.15.78,4.54.76,6.86.74,1.34-.01,2.71-.02,4.01.12.17.02.3.18.28.35-.02.16-.15.28-.31.28h-.02Zm.82,6.61h-.03c-1.05-.11-1.99-.37-2.9-.62-.95-.26-1.93-.53-3.04-.62-1.28-.1-2.57-.09-3.81-.09-1.34.01-2.73.02-4.13-.11l-.29-.03c-2.52-.23-5.13-.47-7.54-.61-1.39-.08-2.48-.49-3.53-.88-.86-.32-1.67-.62-2.65-.77-.17-.03-.29-.19-.27-.36.03-.17.19-.3.36-.27,1.04.16,1.92.49,2.78.8,1.06.39,2.06.77,3.35.84,2.42.14,5.03.38,7.56.61l.29.03c1.37.13,2.75.12,4.07.11,1.26,0,2.56-.02,3.87.09,1.16.09,2.17.37,3.15.64.92.25,1.79.5,2.79.6.17.02.3.17.28.35-.02.16-.15.29-.31.29Zm-4.74,5.53c-2.75,0-5.41-.22-7.95-.99-2.65-.8-5.4-.74-7.99-.62-.53.03-1.19.09-1.91.15-2.4.22-5.39.49-7.04-.16-.16-.06-.24-.25-.18-.41s.24-.24.41-.18c1.51.6,4.54.32,6.75.12.73-.07,1.4-.13,1.94-.15,2.65-.13,5.46-.18,8.2.64,3.83,1.15,8,1.04,12.29.81.19.01.32.13.33.3,0,.17-.12.32-.3.33-1.54.08-3.06.15-4.55.15h0Zm-7.31,7.22c-.84,0-1.72-.09-2.71-.29-1.3-.27-2.66-.45-3.96-.61-1.34-.17-2.72-.35-4.06-.63-.64-.14-1.35-.32-2.1-.52-1.97-.52-4.2-1.11-5.85-.96-.16,0-.33-.11-.34-.29-.02-.17.11-.33.29-.34,1.76-.15,4.05.45,6.06.98.75.2,1.45.38,2.08.52,1.32.28,2.69.45,4.01.62s2.68.34,4.01.62c2.65.55,4.5.19,7.05-.33l.79-.16c1.77-.35,5.05-1,6.69-.38.16.06.25.24.19.41-.06.16-.24.25-.41.19-1.47-.55-4.65.07-6.35.41l-.79.16c-1.69.34-3.08.62-4.59.62v-.02Z"
  />
  <path
    d="m152.22,158.54c-1.28,0-2.57-.18-3.85-.36-.69-.1-1.38-.19-2.04-.26-2.28-.22-4.23-.74-6.3-1.3l-1.18-.32c-1.45-.38-3-.49-4.49-.6-1.35-.1-2.74-.2-4.07-.49-.09-.02-.17-.08-.22-.17-.1-.21-.19-.42-.27-.64-.06-.16.03-.35.19-.4.16-.06.34.03.4.19.05.15.11.29.18.43,1.25.26,2.56.35,3.83.45,1.52.11,3.1.22,4.61.62l1.18.32c2.05.55,3.98,1.07,6.2,1.28.67.06,1.37.16,2.07.26,2.19.31,4.46.63,6.48-.03.42-.14.85-.3,1.27-.47,1.61-.63,3.28-1.29,4.98-.56.16.07.23.25.17.42-.07.16-.26.24-.41.17-1.46-.63-2.94-.05-4.5.57-.44.17-.88.34-1.31.48-.94.31-1.92.42-2.91.42h0Zm9.67,7.45c-4.01,0-7.87-.45-11.6-.89-1.68-.2-3.41-.4-5.15-.56-.46-.04-.92-.08-1.37-.12-2.84-.23-5.52-.45-8.06-1.94-.55-.33-1.38-.66-2.25-1.02-2.07-.84-4.41-1.8-5.1-3.31-.07-.16,0-.35.16-.42.15-.07.35,0,.42.16.58,1.28,2.9,2.22,4.76,2.98.9.37,1.74.71,2.33,1.06,2.41,1.42,5.02,1.63,7.79,1.86.46.04.92.07,1.38.12,1.75.16,3.48.37,5.16.56,3.89.45,7.56.88,11.53.88.17,0,.32.14.32.32s-.14.32-.32.32h0Z"
  />
  <path
    d="m162.36,176.11c-.19,0-.3-.16-.39-.28-.03-.04-.07-.1-.1-.13-.05,0-.1-.03-.15-.07-.07-.06-.11-.14-.12-.23-.06-1.17-.07-2.37-.08-3.54-.02-2.06-.04-4.18-.36-6.15-.03-.17.09-.33.26-.36.17-.02.33.09.36.26.33,2.01.35,4.16.36,6.24,0,1.09.02,2.22.07,3.31.09.07.17.17.23.25.17.03.28.2.25.37-.02.12-.15.28-.27.31h-.08l.02.02Zm10.2-65.88c-1.27,0-2.92-.2-3.64-.75-.14-.11-.16-.31-.06-.44.11-.14.31-.16.44-.06.72.56,3.11.72,4.31.56.16-.03.33.1.36.27.02.17-.1.33-.27.36-.3.04-.7.06-1.14.06Zm5.05,6.24c-.48,0-.93-.03-1.32-.1-.78-.13-1.43-.54-2.05-.92-.45-.28-.87-.54-1.32-.7-.61-.21-1.2-.27-1.83-.34-.6-.06-1.22-.12-1.86-.33-.17-.05-.26-.23-.2-.4.05-.17.23-.26.4-.2.58.19,1.14.24,1.73.3.64.07,1.3.13,1.98.37.52.18.99.48,1.44.76.6.37,1.16.72,1.82.84,1.74.3,4.74-.18,6.44-.82.16-.06.35.02.41.19.06.16-.02.35-.19.41-1.4.53-3.66.95-5.45.95h0Zm4.33,4.59c-3.81,0-8.52-1.61-10.76-3.52-.13-.11-.15-.31-.03-.45.11-.13.31-.15.45-.03,2.92,2.5,9.56,4.06,12.92,3.04.17-.05.34.04.39.21s-.04.34-.21.39c-.81.25-1.75.36-2.75.36h-.01Zm-.04,2.26c-1.67,0-3.24-.19-4.81-.56-.65-.16-1.4-.27-2.19-.39-1.86-.28-3.79-.58-5.14-1.51-.14-.1-.18-.3-.08-.44.1-.15.29-.18.44-.08,1.23.85,3.09,1.13,4.88,1.4.8.12,1.56.24,2.24.4,2.27.55,4.53.68,7.12.42.17-.02.33.11.35.28s-.11.33-.28.35c-.87.09-1.71.13-2.52.13h-.01Zm2.9,6.49h-.05c-1.28-.19-2.36-.75-3.4-1.28-1.05-.54-2.05-1.05-3.24-1.21-1.33-.18-2.73-.17-4.08-.16-1.52,0-3.1.02-4.56-.24-.17-.03-.29-.2-.25-.37.03-.17.2-.29.37-.25,1.4.25,2.88.24,4.44.23,1.37-.01,2.79-.02,4.17.17,1.3.17,2.39.73,3.44,1.27,1.04.53,2.03,1.04,3.21,1.22.17.03.29.19.27.36-.02.16-.16.27-.31.27h0Zm.21,6s-.07,0-.1-.02c-1.96-.64-4.27-1.34-6.55-1.65-1.14-.16-2.34-.15-3.62-.15-1.81,0-3.66.02-5.31-.47-.17-.05-.26-.22-.21-.39,0,0,0,0,0,0,.05-.17.23-.26.39-.21,1.56.47,3.37.46,5.13.45,1.24,0,2.53-.01,3.71.15,2.33.32,4.67,1.03,6.66,1.68.17.05.26.23.2.4-.04.13-.17.22-.3.22h0Zm-1.77,2.15c-1,0-2.02-.28-3.01-.56-.51-.14-.99-.27-1.46-.37-1.79-.36-3.9-.23-5.93-.11-1.02.06-1.98.12-2.9.12-.17,0-.32-.14-.32-.32s.14-.32.32-.32c.9,0,1.85-.06,2.86-.12,2.08-.12,4.22-.25,6.1.12.49.1,1.01.24,1.5.38,1.45.4,2.95.82,4.28.26.16-.07.35,0,.41.17.07.16,0,.35-.17.41-.56.23-1.12.32-1.69.32v.02Zm-.45,5.51c-.14,0-.29,0-.43-.01-.75-.04-1.43-.23-2.08-.42-.58-.16-1.12-.32-1.7-.37-1.09-.1-2.24,0-3.45.13-1.78.17-3.61.35-5.29-.18-.17-.05-.26-.23-.21-.4s.23-.26.4-.21c1.55.49,3.32.32,5.03.16,1.19-.11,2.42-.23,3.57-.13.64.06,1.24.23,1.82.39.65.18,1.26.36,1.94.39.69.04,1.45-.03,2.19-.1.62-.06,1.26-.11,1.87-.11.17,0,.32.14.32.32s-.14.32-.32.32c-.58,0-1.21.06-1.82.11-.61.06-1.24.11-1.85.11h0Zm.79,8.09c-1.95,0-3.96-.1-5.64-.63-.52-.16-.98-.37-1.41-.57-.66-.3-1.28-.59-2.1-.71-.56-.08-1.14-.09-1.75-.09-.96-.01-1.95-.02-2.85-.33-.17-.06-.25-.24-.2-.4.06-.16.24-.25.4-.2.8.28,1.74.29,2.65.3.61,0,1.24.01,1.84.1.91.13,1.6.45,2.27.76.42.19.85.39,1.34.54,2.15.67,4.95.62,7.42.57.67-.01,1.32-.03,1.94-.02.17,0,.32.14.31.32,0,.17-.14.31-.32.31h-.15c-.57,0-1.16.01-1.78.02-.64.01-1.31.02-1.98.02h.01Zm5.35,4.92c-2.18,0-3.89-.41-5.69-.84-.84-.2-1.7-.4-2.62-.57-2.22-.4-5.01-.19-7.47,0-1.17.09-2.28.17-3.2.17-.17,0-.31-.14-.32-.31,0-.18.14-.32.31-.32.91,0,2-.09,3.16-.17,2.5-.18,5.33-.39,7.63.02.94.17,1.81.38,2.66.58,1.77.42,3.44.82,5.54.82.17,0,.32.14.32.32s-.14.32-.32.32v-.02Zm-.41,2.69h-.06c-3.08-.6-5.93-1.09-8.49-1.43-1.43-.2-2.99-.04-4.5.12-1.96.2-3.99.41-5.82-.14-.17-.05-.26-.22-.21-.39,0,0,0,0,0,0,.05-.17.23-.27.39-.21,1.71.51,3.59.32,5.58.12,1.55-.16,3.15-.32,4.65-.12,2.57.35,5.44.83,8.53,1.44.17.03.28.2.25.37-.03.15-.16.26-.31.26v-.02Zm-15.23,7.64c-.94,0-1.87-.06-2.78-.21-.17-.03-.29-.19-.26-.36.03-.17.19-.28.36-.26,2.29.38,4.79.14,7.2-.09,1.38-.13,2.81-.27,4.16-.28.78,0,2.08-.19,3.34-.36,2.19-.3,3.56-.47,4.13-.29.17.05.26.23.21.4s-.23.26-.39.21c-.48-.14-2.27.1-3.86.32-1.28.18-2.6.36-3.42.36-1.32,0-2.67.14-4.1.28-1.51.14-3.06.29-4.58.29h-.01Zm-45.88-65.32c-.16,0-.3-.13-.31-.29-.01-.17.12-.33.29-.34,1.3-.09,3.13-1.7,4.46-2.88.42-.37.81-.71,1.14-.98.14-.11.34-.09.44.05.11.14.09.34-.05.45-.33.26-.71.6-1.12.96-1.48,1.31-3.32,2.93-4.84,3.04h-.02.01Zm2.68,5.37c-.06,0-.12-.02-.18-.05-.15-.1-.18-.29-.09-.44.46-.68,2.9-3.08,4.31-3.44.17-.04.34.06.38.23.04.17-.06.34-.23.38-1.2.31-3.51,2.54-3.95,3.18-.06.09-.16.14-.26.14h.02Zm2.07,2.48c-.1,0-.2-.05-.26-.13-.1-.14-.07-.34.07-.44,1.98-1.41,3.24-2.59,4.52-4.2.06-.07.14-.12.24-.12s.18.03.24.1c1.19,1.3,3.44,3.32,4.73,3.54.17.03.29.19.26.36-.03.17-.2.29-.36.26-1.45-.25-3.67-2.24-4.84-3.47-1.24,1.52-2.51,2.67-4.42,4.03-.06.04-.12.06-.18.06h0Z"
  />
  <path
    d="m135.25,112.24c-.09,0-.18-.04-.24-.11-.11-.13-.1-.33.04-.45.31-.26.67-.55,1.06-.85,1.27-.99,2.86-2.23,3.39-3.38.07-.16.26-.23.42-.15.16.07.23.26.15.42-.6,1.29-2.25,2.58-3.58,3.61-.38.3-.74.58-1.05.84-.06.05-.13.07-.2.07h.01Zm6.61-33.49c-.14,0-.27-.1-.31-.25-.04-.17.07-.34.24-.38.55-.13,1.14-.45,1.76-.8.81-.45,1.64-.91,2.59-1.07.17-.03.34.09.36.26.03.17-.09.34-.26.36-.84.14-1.63.58-2.39,1-.66.37-1.29.71-1.93.86h-.07v.02Zm60.12,50.68c-1.34,0-2.56-.44-3.76-.86-1.18-.42-2.3-.82-3.52-.82-.75,0-1.59.23-2.41.44-.55.15-1.12.3-1.66.38-.88.13-1.68.08-2.46.04-.61-.04-1.24-.08-1.9-.03-.17.02-.33-.12-.34-.29-.01-.17.12-.33.29-.34.71-.05,1.36-.01,1.99.03.78.05,1.52.09,2.33-.03.51-.08,1.04-.22,1.6-.37.86-.23,1.74-.46,2.57-.46,1.32,0,2.55.44,3.73.86,1.36.49,2.65.95,4.09.8.17-.02.33.11.35.28s-.11.33-.28.35c-.21.02-.41.03-.61.03h0Zm-14.49-20.71c-.17,0-.31-.14-.32-.31,0-1.05.54-2.53,1.12-4.1.81-2.17,1.72-4.64,1.17-6.13-.06-.16.02-.35.19-.41.16-.06.35.02.41.19.63,1.71-.32,4.29-1.17,6.57-.56,1.51-1.09,2.94-1.08,3.87,0,.17-.14.32-.31.32h-.01Zm-15.69-71.52c-.11,0-.22-.06-.28-.16-.76-1.4-2.89-4.74-6.21-5.64-.17-.05-.27-.22-.22-.39s.22-.27.39-.22c3.42.93,5.6,4.12,6.59,5.94.08.15.03.35-.13.43-.05.03-.1.04-.15.04h.01Zm3.51-.21c-.12,0-.23-.07-.29-.18-2.14-4.52-4.6-6.99-8.5-8.52-.16-.06-.24-.25-.18-.41.06-.16.25-.25.41-.18,4.01,1.57,6.66,4.22,8.84,8.84.07.16,0,.35-.15.42-.04.02-.09.03-.13.03Zm-15.9,2.69c-.13,0-.25-.08-.3-.21-.81-2.16,0-6.19,1.26-8.33.09-.15.28-.2.43-.11.15.09.2.28.11.43-1.3,2.21-1.89,5.99-1.22,7.79.06.16-.02.35-.18.41-.04.01-.07.02-.11.02h.01Zm-4.96,2.48c-.15,0-.28-.11-.31-.26-.7-3.68-.47-9.84,3.05-11.71.15-.08.35-.02.43.13s.02.35-.13.43c-3.19,1.7-3.37,7.67-2.73,11.03.03.17-.08.34-.25.37h-.06,0Zm-5.57,4.96c-.11,0-.22-.06-.28-.17-2.61-5.1,1.37-13.78,5.26-16.53.14-.1.34-.07.44.08.1.14.07.34-.08.44-4.03,2.85-7.33,11.3-5.06,15.72.08.16.02.35-.14.43-.05.02-.09.04-.14.04h0Zm-2.48,2.48c-.09,0-.18-.04-.24-.11-3.17-3.74-.55-10.32.57-13.14.06-.16.25-.24.41-.18.16.06.24.25.18.41-1.08,2.71-3.59,9.05-.67,12.5.11.13.1.33-.04.45-.06.05-.13.08-.2.08h0Zm25.71,2.28c-.07,0-.15-.02-.2-.07-.11-.09-.14-.24-.09-.36.06-.14.14-.28.23-.4.02-.07.04-.15.08-.25.07-.15.24-.21.39-.16.13-.05.28,0,.36.12.1.14.06.34-.08.44-.06.04-.12.09-.17.14-.04.17-.11.34-.36.5-.05.03-.11.05-.17.05h0Zm22.96,120.93c-.15,0-.28-.1-.31-.25-.46-2.25-1.09-4.55-1.71-6.77-.73-2.66-1.49-5.42-1.97-8.16-.26-1.51-.47-3.06-.66-4.55-.18-1.4-.37-2.85-.61-4.25-.11-.67-.19-1.43-.27-2.22-.16-1.57-.32-3.2-.8-4.2-.08-.16,0-.35.15-.42.15-.08.34,0,.42.15.52,1.1.69,2.78.85,4.4.08.79.15,1.53.26,2.18.24,1.41.43,2.87.61,4.28.19,1.49.39,3.03.66,4.53.47,2.71,1.23,5.45,1.96,8.1.62,2.23,1.25,4.54,1.72,6.82.04.17-.08.34-.25.37h-.06,0Zm7.28,5.74c-.15,0-.28-.11-.31-.26-.21-1.2-.05-2.95.11-4.64.1-1.1.2-2.13.2-3.02,0-1.76.04-3.54.08-5.26.04-1.75.08-3.56.08-5.35,0-3.09-.13-6.07-.31-9.64-.05-1.08.02-2.22.1-3.43.13-2.02.27-4.11-.24-5.83-.05-.17.05-.34.21-.39.17-.05.34.05.39.21.54,1.82.4,3.97.27,6.05-.08,1.19-.15,2.32-.1,3.36.18,3.58.31,6.57.31,9.67,0,1.8-.04,3.62-.08,5.37-.04,1.72-.08,3.5-.08,5.25,0,.91-.1,2.01-.2,3.08-.15,1.65-.31,3.36-.11,4.47.03.17-.08.34-.26.37h-.06Z"
  />
  <path
    d="m195.48,200.11h-.13c-.65-.07-1.06-.32-1.22-.75-.39-1.07,1.12-2.78,2.71-4.44.26-.27.47-.49.58-.63,1.63-2.01.89-4.25.1-6.62-.16-.47-.32-.96-.46-1.44-.65,1.02-.47,2.36-.28,3.77.15,1.15.31,2.35-.01,3.39-.24.76-.74,1.29-1.32,1.36-.29.04-.87,0-1.38-.82-.59-.92-.56-2.69-.54-4.11,0-.45.01-.85,0-1.17-.08-1.54-.19-2.04-.63-3.32-.61-1.78-.82-3.6-.64-5.56.27-2.96,1.29-4.53,2.71-6.7.19-.29.39-.6.59-.92.12-.19.24-.45.31-.67.05-.17.23-.26.4-.21.17.05.26.23.21.4-.09.27-.23.58-.38.82-.21.32-.4.63-.6.92-1.36,2.1-2.35,3.61-2.61,6.42-.17,1.86.03,3.6.61,5.29.44,1.28.58,1.83.67,3.49.02.33.01.75,0,1.21-.02,1.27-.04,3,.45,3.76.17.27.45.57.77.53.32-.04.64-.42.8-.93.28-.9.14-1.98-.01-3.11-.23-1.71-.46-3.48.84-4.76.08-.08.2-.11.31-.08s.19.12.22.23c.16.65.38,1.3.61,2,.81,2.43,1.64,4.95-.21,7.22-.12.15-.34.38-.62.67-.86.9-2.86,3-2.57,3.79.08.22.42.3.69.33,1.34.15,5.7-3.45,6.17-4.61.91-2.25,1.05-5.57,1.16-8.24.02-.44.04-.86.06-1.27.17-3.44-.85-6.21-1.98-8.69-.07-.16,0-.35.16-.42s.35,0,.42.16c1.17,2.55,2.22,5.41,2.04,8.98-.02.4-.04.82-.06,1.26-.11,2.72-.25,6.1-1.21,8.45-.49,1.23-4.86,5.01-6.7,5.01h-.03Z"
  />
  <path
    d="m194.15,199.32h-.04c-.97-.12-1.54-.42-1.73-.93-.34-.88.61-1.98,1.45-2.96.36-.42.7-.82.81-1.06.07-.16.26-.23.42-.16.16.07.23.26.16.42-.14.33-.5.74-.91,1.21-.61.71-1.54,1.79-1.33,2.31.1.26.52.44,1.22.53.17.02.3.18.28.35-.02.16-.16.28-.31.28h-.02Zm-55.1-26.04c-2.03,0-3.88-.07-6-.64-.88-.24-4.6-1.59-5.38-3.43-.22-.52-.2-1.04.08-1.53.09-.15.28-.21.43-.12.15.09.21.28.12.43-.18.32-.19.63-.05.97.58,1.36,3.57,2.69,4.96,3.06,2.38.64,4.46.63,6.87.61h1.1c.17,0,.32.14.32.31s-.14.32-.32.32h-2.14v.02Z"
  />
  <path
    d="m133.87,303.62h-.07c-1.75-.38-3.34-1.19-4.88-1.97-2.52-1.28-4.91-2.49-7.98-2.02-.31.05-.59.09-.85.14-2.77.46-3.46.43-4.21-3.16-.43-2.05,0-2.97.52-4.14.27-.59.57-1.25.8-2.17,1.55-6.28,1.37-13.02,1.19-19.55-.15-5.67-.31-11.54.66-17.12,1.02-5.83,2.02-10.61,3.17-15.07.41-1.61,1.26-3,2.08-4.34.72-1.17,1.39-2.28,1.8-3.52.68-2.08.31-4.18-.05-6.2-.07-.39-.14-.77-.2-1.15-.97-6.04-1.84-11.94-1.85-17.66,0-1.59.4-2.94.79-4.24.33-1.11.68-2.26.76-3.53.08-1.26-.04-2.52-.16-3.75-.15-1.51-.3-3.07-.08-4.65.14-1.03.21-2.26.28-3.56.13-2.42.26-4.92.92-6.73.27-.73.7-1.34,1.12-1.93.42-.58.81-1.13,1.04-1.79.31-.86.28-1.97.26-2.95-.01-.59-.03-1.15.03-1.63.02-.17.18-.29.35-.28.17.02.3.18.28.35-.05.44-.04.98-.02,1.55.03,1.03.05,2.21-.3,3.18-.26.74-.7,1.35-1.13,1.95-.41.58-.8,1.13-1.04,1.78-.63,1.72-.76,4.17-.88,6.55-.07,1.31-.13,2.55-.28,3.61-.21,1.5-.07,2.96.08,4.5.12,1.25.24,2.54.16,3.85-.08,1.35-.44,2.53-.78,3.68-.4,1.32-.77,2.56-.77,4.05.02,5.68.88,11.55,1.85,17.56.06.38.13.76.2,1.14.38,2.1.76,4.28.03,6.51-.43,1.31-1.16,2.5-1.86,3.65-.8,1.3-1.62,2.65-2.01,4.17-1.14,4.44-2.15,9.21-3.16,15.02-.96,5.52-.8,11.35-.65,16.99.18,6.57.36,13.36-1.21,19.72-.24.98-.56,1.67-.84,2.28-.5,1.1-.86,1.89-.48,3.75.65,3.13.92,3.09,3.49,2.66.27-.04.55-.09.86-.14,3.28-.5,5.87.81,8.37,2.08,1.39.71,2.83,1.44,4.37,1.84.11-.87.49-1.35.85-1.82.33-.42.64-.82.79-1.53.26-1.22-.1-1.82-.6-2.64-.26-.42-.54-.89-.78-1.51-1.31-3.37-.4-6.29.57-9.38.17-.54.34-1.1.51-1.66.54-1.85,1.19-3.76,1.82-5.61,1.54-4.54,3.14-9.23,3.37-13.8.16-3.18.57-6.16.97-9.04.31-2.21.62-4.5.82-6.85.24-2.83,1.21-5.54,2.23-8.41.68-1.9,1.38-3.87,1.86-5.89,1.43-6.05,3.12-12.05,4.74-17.68.46-1.62.88-3.37,1.32-5.22,1.01-4.29,2.06-8.72,3.84-11.88.07-.12.2-.18.33-.16.13.02.24.13.26.27.33,2.23.91,4.52,1.48,6.73,1.07,4.19,2.17,8.52,1.69,12.85-.15,1.35-.32,2.7-.48,4.06-.27,2.22-.56,4.52-.76,6.78-.18,1.93.18,3.69.57,5.56.29,1.41.59,2.87.68,4.5.13,2.47-.3,4.93-.72,7.31-.52,2.97-1.06,6.04-.53,9.23.17,1.01.45,2.22.75,3.51.83,3.62,1.87,8.12,1.12,11.19-.23.95-.72,1.42-1.19,1.87-.37.35-.72.69-.94,1.27-.34.89-.23,1.9-.13,2.88.05.47.1.96.1,1.42,0,1.43-.09,2.85-.18,4.22-.11,1.73-.22,3.52-.15,5.3.03.68.03,1.41.03,2.17,0,2.06,0,4.39.57,6.13.29.9.91,1.91,1.57,2.99.46.76.94,1.54,1.31,2.3,1.68-1.83,4.07-2.38,6.38-2.9,1.05-.24,2.05-.47,2.97-.81.47-.18.97-.42,1.49-.68,1.02-.5,2.07-1.02,3.09-1.08.79-.04,1.58.19,2.33.42.63.19,1.28.39,1.94.41.89-4.27.88-8.81.86-13.19v-1.64c0-.63.02-1.3.05-1.99.07-1.84.15-3.74-.27-5.38-.17-.66-.35-1.26-.53-1.84-.5-1.62-.94-3.02-.74-5.1.18-1.87.53-3.78.87-5.63.57-3.09,1.16-6.29.99-9.51-.06-1.11,0-2.33.05-3.51.07-1.55.14-3.16-.05-4.53-.14-1.02-.55-1.87-.94-2.68-.51-1.05-1.03-2.13-1-3.58.06-3.95.3-9.13,1.64-14.24.43-1.65.89-3.31,1.35-4.99,1.18-4.28,2.4-8.71,3.22-13.05.37-1.96.79-3.95,1.19-5.87.74-3.54,1.51-7.21,2.04-10.87.1-.68.22-1.43.35-2.22.8-4.95,1.9-11.72-.68-15.54-.1-.15-.06-.34.08-.44s.34-.06.44.08c2.72,4.03,1.6,10.94.78,15.99-.13.79-.25,1.53-.35,2.21-.53,3.68-1.3,7.36-2.05,10.91-.4,1.92-.82,3.9-1.19,5.86-.83,4.37-2.05,8.81-3.23,13.1-.46,1.67-.92,3.33-1.35,4.98-1.32,5.04-1.56,10.18-1.62,14.09-.02,1.31.45,2.27.94,3.3.41.86.84,1.75,1,2.87.19,1.43.12,3.06.05,4.65-.05,1.16-.1,2.37-.05,3.45.17,3.29-.42,6.53-1,9.66-.34,1.83-.69,3.73-.86,5.57-.19,1.95.23,3.29.71,4.85.18.59.37,1.19.54,1.87.43,1.73.36,3.68.29,5.56-.03.68-.05,1.33-.05,1.96v1.63c.02,4.51.04,9.17-.92,13.58-.03.14-.15.24-.3.25-.84.02-1.63-.21-2.39-.44-.73-.22-1.42-.43-2.11-.39-.89.05-1.89.54-2.85,1.01-.51.25-1.05.52-1.55.7-.96.35-2.02.6-3.05.83-2.36.54-4.8,1.09-6.35,3.06-.07.09-.18.13-.29.12s-.21-.09-.25-.19c-.37-.86-.93-1.79-1.48-2.68-.68-1.11-1.32-2.16-1.63-3.13-.6-1.83-.6-4.22-.6-6.32,0-.75,0-1.47-.03-2.14-.07-1.82.04-3.62.15-5.36.09-1.36.17-2.77.17-4.19,0-.43-.05-.88-.1-1.36-.11-1.05-.23-2.14.17-3.18.27-.71.69-1.11,1.09-1.5.44-.43.83-.79,1.01-1.56.71-2.92-.3-7.34-1.12-10.9-.3-1.3-.58-2.52-.75-3.55-.55-3.29,0-6.42.53-9.44.43-2.45.84-4.77.71-7.17-.09-1.58-.38-3.02-.66-4.41-.39-1.91-.76-3.72-.58-5.74.21-2.27.49-4.57.76-6.8.17-1.36.33-2.71.48-4.05.47-4.22-.62-8.49-1.68-12.63-.49-1.92-.99-3.9-1.34-5.85-1.47,3.01-2.42,7.01-3.34,10.88-.44,1.86-.86,3.62-1.32,5.25-1.61,5.62-3.3,11.61-4.73,17.65-.48,2.05-1.19,4.04-1.88,5.96-1.01,2.83-1.97,5.51-2.2,8.26-.2,2.37-.52,4.67-.82,6.89-.4,2.87-.81,5.83-.96,8.98-.23,4.66-1.84,9.39-3.4,13.97-.63,1.84-1.27,3.75-1.81,5.59-.17.57-.34,1.13-.51,1.68-.97,3.12-1.81,5.81-.58,8.97.22.57.48.99.73,1.41.53.88,1,1.63.68,3.1-.18.85-.57,1.35-.92,1.78-.39.49-.72.92-.75,1.83,0,.09-.05.18-.12.24-.06.04-.12.07-.19.07h-.01Z"
  />
  <path
    d="m159.31,188.8s-.07,0-.11-.02c-.23-.07-.24-.3-.23-.42-.68-3.5-.65-6.87-.62-10.43,0-.73,0-1.46,0-2.2,0-.17.14-.32.32-.32s.32.14.32.32c0,.74,0,1.48,0,2.21-.03,3.34-.05,6.51.51,9.76.15-.06.32,0,.39.14.08.15.03.35-.13.43,0-.02-.04.11-.07.17-.08.15-.18.36-.39.36h.01Z"
  />
  <path
    d="m157.7,190.38c-.09,0-.18-.04-.24-.11-.1-.12-.1-.29,0-.41.22-.25.48-.44.78-.59.9-.82,1.38-1.93,1.88-3.1.61-1.4,1.24-2.85,2.66-3.76l.57-.36c2.48-1.55,4.44-2.77,3.39-6.68-.04-.17.06-.34.22-.39.17-.04.34.06.39.22,1.17,4.36-1.18,5.83-3.66,7.38l-.57.36c-1.26.8-1.82,2.1-2.42,3.48-.63,1.46-1.29,2.98-2.84,3.91-.05.03-.11.05-.16.05h0Zm-7.08-11.58c-3.34,0-7.47-.79-10.3-1.66-.17-.05-.26-.22-.21-.39,0,0,0,0,0,0,.05-.17.23-.26.39-.21,3.34,1.03,8.5,1.94,11.95,1.54.16-.02.33.1.35.28.02.17-.1.33-.28.35-.59.07-1.23.1-1.91.1h0Z"
  />
  <path
    d="m164.26,182.42c-.15,0-.29-.11-.31-.26-.07-.43.11-.92.3-1.44.21-.57.42-1.16.34-1.68-.05-.33-.4-.71-.78-1.11-.44-.47-.94-1-1.1-1.64-.04-.17.06-.34.23-.38.17-.04.34.06.38.23.12.48.54.93.94,1.36.44.47.86.92.94,1.45.11.69-.15,1.38-.37,2-.16.44-.31.85-.27,1.12.03.17-.09.34-.26.36h-.05,0Zm-12.39,1.86c-.06,0-.11-.02-.16-.05-.54-.33-3.32-.47-5.55-.58-1.7-.08-3.3-.17-4.25-.32-.75-.12-1.65-.19-2.62-.27-2.81-.23-6-.5-7.75-1.96-.13-.11-.15-.31-.04-.45.11-.13.31-.15.45-.04,1.6,1.33,4.68,1.59,7.4,1.81.97.08,1.89.16,2.66.28.92.15,2.5.23,4.18.31,3.12.16,5.22.29,5.85.67.15.09.2.29.11.43-.06.1-.16.15-.27.15v.02Zm4.65,10.24s-.09,0-.13-.03c-1.23-.57-2.14-1.41-3.02-2.23-.69-.64-1.41-1.3-2.27-1.82-.82-.49-1.76-.55-2.68-.62-1.35-.1-2.75-.19-3.62-1.66-.09-.15-.04-.34.11-.43s.34-.04.43.11c.7,1.18,1.82,1.26,3.12,1.35.99.07,2.02.14,2.96.71.92.55,1.66,1.24,2.38,1.9.88.82,1.72,1.59,2.86,2.12.16.07.23.26.15.42-.05.12-.17.18-.29.18Zm10.53-5.27s-.1,0-.15-.04c-.15-.08-.21-.27-.13-.43.18-.34.36-.65.54-.95.83-1.4,1.38-2.33.11-3.98-.11-.14-.08-.34.06-.44.14-.11.34-.08.44.06,1.53,2,.79,3.25-.06,4.69-.17.29-.35.59-.53.92-.06.11-.17.17-.28.17h0Zm-7.12,4.03c-.14,0-.27-.09-.31-.24-.04-.17.06-.34.23-.39.6-.16,2.05-2.46,2.24-4.07.02-.17.18-.29.35-.28.17.02.3.18.28.35-.19,1.62-1.65,4.33-2.71,4.61-.03,0-.05,0-.08,0h0Zm1.32,3.93c-.08,0-.16-.03-.22-.09-.11-.11-.13-.28-.04-.4.28-.42.58-.81.87-1.2.71-.95,1.38-1.85,1.8-2.98.06-.16.24-.25.41-.19.16.06.25.24.19.41-.45,1.22-1.15,2.15-1.89,3.14-.05.06-.09.12-.14.19.06.03.12.08.15.14.08.15.02.35-.13.43-.28.15-.55.32-.81.5-.06.04-.12.06-.18.06h0Zm11.68-7.97c-.17,0-.31-.14-.32-.31,0-.17.14-.32.31-.32,3.71-.06,9.5-1.45,11.89-3.34.14-.11.34-.09.44.05.11.14.09.34-.05.44-2.52,2-8.38,3.42-12.27,3.48Zm3.38,7.93c-.21,0-.41,0-.61-.04-.84-.13-1.44-.55-1.81-1.23-.08-.15-.02-.35.13-.43.15-.08.34-.02.43.13.27.5.71.8,1.34.9,2.7.42,7.59-2.71,8.99-4.08.13-.12.33-.12.45,0,.12.13.12.33,0,.45-1.42,1.38-5.94,4.3-8.93,4.3h.01Zm-40.66,27.59c-1.49,0-2.67-.15-3.24-.67-.22-.2-.35-.45-.36-.73,0-.17.12-.32.3-.33.18,0,.32.13.33.3,0,.11.05.21.15.29.76.68,3.69.51,5.44.4.61-.04,1.14-.07,1.52-.07.17,0,.32.14.32.32s-.14.32-.32.32c-.37,0-.89.03-1.48.07-.95.06-1.85.1-2.66.1h0Zm-7,9.76c-.09,0-.18-.04-.25-.12-.11-.14-.09-.34.05-.45,1.74-1.4,2.76-3.06,3.94-5.47.08-.16.27-.22.42-.14.16.08.22.27.14.42-1.22,2.49-2.28,4.22-4.11,5.69-.06.05-.13.07-.2.07h.01Zm-4.96,8.68c-.1,0-.19-.05-.26-.13-.21-.3-.17-.53-.1-.68.28-.55,1.39-.58,3.48-.59,1.15,0,2.68,0,3.29-.25-.43-.59-1.01-1.02-1.62-1.47-.75-.55-1.52-1.13-1.98-2-.08-.15-.02-.35.13-.43.15-.08.35-.02.43.13.4.75,1.08,1.26,1.8,1.79.71.53,1.45,1.08,1.95,1.91.07.12.06.28-.04.38-.5.52-1.83.56-3.96.57-1.04,0-2.59,0-2.9.23,0,0,.01.02.03.04.1.14.07.34-.07.44-.06.04-.12.06-.19.06h0Zm12.39-4.65c-2.53-.02-4.56-.21-6.57-.63-.17-.04-.28-.2-.25-.37.04-.17.2-.28.37-.25,1.96.41,3.95.6,6.44.61.17,0,.32.14.31.32,0,.17-.14.31-.32.31h.02Zm-4.31,7.47s-.06,0-.09,0c-.14-.03-.25-.18-.25-.32,0-.12.06-.22.15-.28.02-.04.05-.1.09-.16.18-.34.46-.86.78-1.21.08-.09.21-.12.33-.08,3.27,1.14,3.89-.4,4.93-2.94.26-.64.54-1.31.88-2,.08-.16.27-.22.42-.14.16.08.22.27.14.43-.33.66-.6,1.32-.86,1.95-1,2.44-1.86,4.55-5.51,3.37-.22.28-.42.65-.55.92-.16.3-.25.48-.45.48h0Z"
  />
  <path
    d="m142.35,242.31c-1.55,0-3.52-.73-3.78-1.49-.06-.17.03-.35.2-.4.16-.06.35.03.4.2.13.38,2.16,1.26,3.68,1.03.17-.03.33.09.36.27.03.17-.09.33-.27.36-.19.03-.39.04-.59.04h0Zm-16.33,7.16c-.6,0-1.18-.02-1.73-.07-.17,0-.3-.17-.29-.34.02-.17.18-.3.34-.29,2.71.22,6.01-.17,9.16-.6,2.76-.37,3.75-.11,6.38.61.17.05.27.22.22.39-.05.17-.22.27-.39.22-2.62-.71-3.5-.95-6.13-.6-2.55.35-5.19.67-7.56.67h0Zm12.23,8.62h-.08c-1.46-.37-2.69-1.3-3.87-2.2-.77-.59-1.56-1.19-2.4-1.61-2.17-1.09-4.14-1.12-6.05-1.14-.17,0-.31-.14-.31-.32,0-.17.14-.31.32-.31,1.98.02,4.03.05,6.32,1.21.89.45,1.7,1.07,2.5,1.68,1.18.9,2.3,1.76,3.64,2.09.17.04.27.21.23.38-.04.14-.16.24-.31.24v-.02Zm-13.63,25.73c-.12,0-.24-.07-.29-.19-.42-.99.45-2.79,1.46-4.87,1.02-2.12,2.18-4.51,1.93-6.05-.03-.17.09-.33.26-.36.16-.03.33.09.36.26.29,1.74-.92,4.23-1.98,6.43-.86,1.78-1.75,3.62-1.45,4.35.07.16,0,.35-.17.41-.04.02-.08.02-.12.02h0Zm44.6-41.45c-1.57,0-3.68-.65-5.31-1.21l-.22-.08c-.1-.03-.17-.11-.2-.21-.03-.1-.01-.2.05-.28.13-.17.5-.52,1.18-.16.14.07.2.23.15.38,2.85.92,4.71,1.16,5.52.69.22-.13.35-.3.4-.54.2-.97-2.33-2.29-4.17-3.25-1.49-.78-2.78-1.45-3.24-2.09-.1-.14-.07-.34.07-.44s.34-.07.44.07c.37.52,1.71,1.22,3.01,1.89,2.36,1.23,4.8,2.5,4.5,3.94-.09.42-.33.74-.71.96-.38.22-.9.31-1.49.31l.02.02Zm6.5-4.13h-.04c-.71-.09-1.37-.28-2.01-.46-.26-.07-.51-.15-.77-.21-.12-.03-.22-.14-.23-.26-.14-1-.46-2.02-.94-2.95-.08-.16-.02-.35.14-.43.15-.08.34-.02.43.14.48.93.81,1.94.98,2.95.19.05.39.11.58.16.62.18,1.26.36,1.92.44.17.02.3.18.27.35-.02.16-.16.28-.31.28h-.02Zm2.79,8.99c-.13,0-.24-.08-.29-.2-.75-1.88-2.24-4.12-4.15-4.78-.17-.06-.25-.24-.2-.4.06-.16.23-.25.4-.2,2.66.91,4.14,4.17,4.53,5.14.06.16-.01.35-.18.41-.04.02-.08.02-.12.02h.01Zm-4.34,0h-.47c-2.64,0-5.36,0-7.96-.62-.22.02-.35-.05-.41-.21-.1-.27.14-.41.36-.52.08-.04.16-.08.2-.12.09-.15.26-.17.41-.08.14.08.17.28.1.42,2.37.47,4.87.48,7.29.49h.47c.17,0,.32.14.31.32,0,.17-.14.31-.32.31h.02Zm-2.79,26.98c-.15,0-.28-.11-.31-.26-.11-.6-.19-1.39-.29-2.29-.2-1.83-.45-4.11-1-5.74-.4-1.18-1.27-2.14-2.11-3.06-.95-1.04-1.93-2.12-2.17-3.48-.03-.17.08-.34.26-.37.17-.03.34.08.37.26.21,1.18,1.09,2.15,2.01,3.16.89.98,1.8,1.98,2.24,3.29.57,1.69.83,4.01,1.03,5.87.1.89.18,1.67.29,2.25.03.17-.08.34-.26.37,0,0-.06,0-.06,0Zm-9.59,12.71h-.05c-.08-.02-.17-.06-.21-.13-.09-.14-.04-.35.1-.44,1.61-1.14,2.83-2.13,2.98-2.42.82-1.58-.28-3.97-2.35-5.1-.15-.08-.21-.28-.13-.43.08-.15.28-.21.43-.13,2.4,1.31,3.59,4.03,2.61,5.94-.28.54-2.11,1.89-3.18,2.64-.06.04-.13.06-.2.06h0Zm12.38.32s-.08,0-.13-.03c-.44-.19-.98-.37-1.55-.57-1.5-.51-3.2-1.08-3.82-2.05-.09-.15-.05-.34.09-.44,1.74-1.13,4.48-1.44,6.93-1.59.17,0,.32.12.34.3.01.17-.12.32-.3.34-2.1.13-4.67.39-6.33,1.3.65.64,2.04,1.11,3.28,1.54.59.2,1.14.39,1.6.59.16.07.23.26.17.42-.05.12-.17.19-.29.19h.01Zm-12.39,6.51c-.16,0-.3-.12-.31-.28-.02-.17.11-.33.28-.35,1.83-.19,3.49-.92,5.1-1.62,2.74-1.19,5.56-2.43,9.28-1.15.17.06.25.24.2.4-.06.16-.24.25-.4.2-3.49-1.19-6.08-.06-8.83,1.13-1.65.72-3.36,1.47-5.28,1.67h-.04Zm-36.54,2.48h-.71c-2.03-.04-4.33-.07-6.2-.63-.17-.05-.26-.22-.21-.39,0,0,0,0,0,0,.05-.17.22-.26.39-.21,1.79.53,4.04.57,6.02.6h.71c.17.01.31.16.31.33s-.14.31-.32.31h.01Zm7.74.93c-.12,0-.23-.07-.28-.18-.84-1.73-3.8-4.14-6.68-4.83-1.11-.26-2.71-.38-3.99.6-.14.1-.34.08-.44-.06-.11-.14-.08-.34.06-.44,1.17-.89,2.73-1.13,4.52-.71,3.1.74,6.18,3.27,7.11,5.16.08.16.01.35-.15.42-.04.02-.09.03-.14.03h-.01Zm1.86,4.03s-.09,0-.13-.03c-.61-.29-1.1-.72-1.58-1.13-.49-.43-.95-.83-1.49-1.04-.58-.22-1.37-.28-2.07-.34-.69-.05-1.29-.1-1.67-.28-.16-.07-.23-.26-.15-.42s.26-.23.42-.15c.28.13.85.18,1.45.22.74.06,1.58.12,2.25.38.64.25,1.17.71,1.68,1.15.45.39.91.79,1.43,1.04.16.07.23.26.15.42-.05.11-.17.18-.29.18Zm29.36,3.66c-.42,0-.79-.09-1.1-.29-.57-.38-.84-1.11-.81-2.16-.13-.02-.27-.01-.42.03-.17.05-.34-.05-.39-.22s.05-.34.22-.39c.36-.1.71-.08,1.03.06.12.05.2.18.19.31-.07.95.11,1.57.52,1.84.99.66,3.29-.51,4.82-1.28.43-.22.82-.41,1.13-.55.58-.25,1.36-.52,2.25-.83,2.48-.87,5.89-2.06,6.58-3.43.08-.16.27-.22.42-.14s.22.27.14.43c-.81,1.6-4.2,2.79-6.93,3.74-.89.31-1.65.58-2.21.82-.3.13-.67.32-1.09.53-1.33.67-3.04,1.53-4.35,1.53h0Z"
  />
  <path
    d="m185.95,314.28c-5.01,0-17.87-2.34-21.83-6.64-1.02-1.1-1.39-2.27-1.11-3.47.11-.26.23-.55.52-.5.27.04.3.31.32.48,0,.07.03.21.05.25.1.14.07.34-.07.44-.08.06-.19.08-.29.04,0,.76.34,1.55,1.04,2.32,4.24,4.61,19.06,6.89,22.55,6.37,2.66-.4,4.5-1.56,4.82-3.04.27-1.27-.6-2.62-2.47-3.82-.86-.55-1.8-1.05-2.71-1.53-.96-.51-1.96-1.04-2.86-1.63-.95-.62-1.78-1.41-2.58-2.17-.92-.87-1.87-1.78-2.99-2.41-.15-.09-.21-.28-.12-.43s.28-.21.43-.12c1.19.67,2.17,1.6,3.11,2.5.78.74,1.59,1.51,2.49,2.1.87.57,1.86,1.09,2.81,1.6.92.49,1.88.99,2.76,1.56,2.1,1.35,3.08,2.94,2.74,4.49-.37,1.74-2.42,3.1-5.35,3.54-.33.05-.76.07-1.27.07h.01Z"
  />
  <path
    d="m166.43,309.25s-.08,0-.13-.03c-.31-.13-.8-.29-1.32-.46-1.31-.42-2.79-.9-3.37-1.55-.73-.81-.82-1.83-.9-2.82-.06-.73-.13-1.48-.45-2.15-.08-.16,0-.35.15-.42.16-.08.34-.01.42.15.37.77.44,1.58.51,2.37.08.93.15,1.8.74,2.45.47.52,1.99,1.01,3.1,1.37.56.18,1.04.34,1.37.48.16.07.23.26.17.42-.05.12-.17.19-.29.19h0Zm13.32-.31c-.16,0-.3-.13-.31-.29-.01-.17.12-.33.29-.34,1.95-.13,4.87-.97,6.37-1.82.15-.09.34-.03.43.12.09.15.03.35-.12.43-1.73.98-4.83,1.78-6.64,1.9h-.02Zm.31,4.34c-.11,0-.21-.05-.27-.15-.09-.15-.05-.34.1-.44,3.64-2.26,7.87-4.59,11.62-4.7.2,0,.32.13.33.31,0,.18-.13.32-.31.33-3.59.11-7.73,2.39-11.3,4.6-.05.03-.11.05-.17.05h0Zm-61.33,4.48c-.88,0-1.82-.05-2.81-.14-2.99-.26-5.33-1.52-6.11-3.3-.42-.96-.59-2.53,1-4.58.94-1.22,1.86-2.56,2.84-3.99,1.36-1.98,2.76-4.03,4.23-5.71.11-.13.31-.14.45-.03.13.11.15.31.03.45-1.44,1.66-2.83,3.69-4.18,5.65-.94,1.37-1.91,2.78-2.86,4.01-1.1,1.43-1.42,2.79-.92,3.94.68,1.56,2.82,2.68,5.58,2.92,4.7.41,7.83.06,10.9-2.93.21-.2.44-.42.67-.65,1.25-1.19,2.82-2.68,3.52-4.08.51-1.02.58-2.11.66-3.27.07-1.13.15-2.3.65-3.45.07-.16.26-.23.42-.16s.23.26.16.42c-.45,1.05-.53,2.16-.6,3.24-.08,1.17-.16,2.39-.73,3.52-.76,1.5-2.36,3.03-3.65,4.26-.24.22-.46.44-.67.64-2.56,2.5-5.22,3.25-8.59,3.25h.01Z"
  />
  <path
    d="m124.62,315.45h-.06c-1.09-.22-2.06-.65-3-1.05-1.31-.57-2.55-1.11-4.05-1.11h-.01c-.92,0-1.83.16-2.79.33-1.72.3-3.5.61-5.37-.03-.17-.06-.25-.24-.2-.4.06-.17.23-.25.4-.2,1.71.59,3.41.3,5.05,0,.94-.16,1.92-.34,2.89-.34h.01c1.62,0,2.98.59,4.3,1.16.91.4,1.85.8,2.88,1.01.17.04.28.2.25.37-.03.15-.16.25-.31.25h.01Zm-2.79-4.96c-1,0-2.03-.1-3.03-.2-1.46-.14-2.96-.29-4.35-.12-.17.02-.33-.1-.35-.27-.02-.17.1-.33.27-.35,1.46-.18,3-.03,4.49.11.98.1,2,.2,2.97.2.2.01.32.14.32.32s-.17.29-.32.32h0Zm67.52-134.58h-.01c-1.38-.06-2.79-.06-4.28-.06-3.24,0-6.6,0-9.78-.59-.17-.03-.29-.2-.25-.37.03-.17.2-.29.37-.25,3.12.57,6.45.57,9.67.58,1.5,0,2.91,0,4.3.06.17,0,.31.15.3.33,0,.17-.15.3-.32.3h0Z"
  />
</svg>
