<svg class="svg" xmlns="http://www.w3.org/2000/svg" viewBox="0 0 320 320">
  <path
    d="m126.55,219.95c-.08,0-.16-.02-.23-.06-.25-.13-.34-.43-.21-.67l12.7-24.34c.13-.25.43-.34.67-.21.25.13.34.43.21.67l-12.7,24.34c-.09.17-.26.27-.44.27Zm-25.79-111.13c-.28,0-.5-.22-.5-.5s.22-.5.5-.5c1.02,0,3.89-.05,4.85-.3,1.17-.3,3.92-1.59,3.94-1.61.25-.12.55-.01.67.24.12.25.01.55-.24.67-.12.05-2.86,1.35-4.12,1.67-1.28.33-4.95.33-5.1.33Zm2.84-4.75c-.12,0-.24-.04-.33-.13-.78-.7-1.09-.65-1.1-.64-.07.27-.36.43-.63.35-.27-.07-.43-.34-.36-.61.07-.25.3-.59.71-.7.56-.16,1.23.12,2.05.86.21.18.22.5.04.71-.1.11-.24.17-.37.17Zm1.56-.39c-.1,0-.2-.03-.29-.09-.23-.16-.28-.47-.12-.7.12-.18,1.24-1.71,2.5-1.18.25.11.37.4.26.66-.11.25-.4.37-.66.27-.41-.18-1.05.5-1.29.83-.1.14-.25.21-.41.21Zm-10.79-8.34c-.05,0-.11,0-.16-.03-.26-.09-.4-.37-.32-.63.04-.11.91-2.68,2.84-2.68s2.7.62,3.57,1.69c.17.22.14.53-.08.7-.21.17-.53.14-.7-.08-.74-.91-1.31-1.32-2.79-1.32-1.19,0-1.88,1.98-1.89,2-.07.21-.27.34-.47.34Zm11.48-1.36s-.04,0-.05,0c-.27-.03-.47-.27-.44-.55.1-.94.81-2.79,2.84-3.06,2.43-.34,3.83,1.42,3.89,1.5.17.22.13.53-.09.7-.22.17-.53.13-.7-.09-.04-.05-1.11-1.37-2.96-1.12-1.75.23-1.97,2.1-1.98,2.18-.03.26-.25.45-.5.45Zm-13.98-1.33c-.06,0-.12-.01-.18-.03-.26-.1-.38-.39-.28-.65.7-1.78,1.76-2.94,3.17-3.45,2.3-.83,4.63.43,4.73.48.24.13.33.44.2.68s-.44.33-.68.2c-.02-.01-2.05-1.1-3.92-.42-1.12.41-1.98,1.37-2.57,2.87-.08.2-.27.32-.47.32Zm12.8-3.16c-.14,0-.27-.06-.37-.17-.18-.21-.17-.52.04-.71.04-.04,4.2-3.69,8.52-1.17.24.14.32.45.18.68s-.45.32-.68.18c-3.68-2.15-7.2.92-7.35,1.05-.1.08-.21.13-.33.13Z"
  />
  <path
    d="m97.8,95.35s-.1,0-.15,0c-.77-.07-1.15-.44-1.34-.74-.55-.87-.11-2.13-.06-2.27.09-.26.38-.39.64-.29.26.1.39.38.3.64-.09.24-.28,1-.03,1.39.04.06.15.24.58.28.14.01.19-.01.19-.02.09-.14-.07-.84-.39-1.45-.13-.24-.03-.55.21-.67.25-.13.55-.03.67.21.2.39.83,1.72.33,2.47-.14.22-.42.46-.95.46Zm10.47-1.69c-.78,0-1.53-1.06-1.84-1.57-.14-.23-.07-.54.16-.69.23-.14.54-.07.69.16.33.53.81,1.06,1,1.09.07-.13.17-1.01.12-1.8-.02-.28.19-.51.46-.53.28-.03.51.19.53.46.05.7.07,2.36-.74,2.77-.13.07-.26.1-.39.1Z"
  />
  <path
    d="m90.44,94.23c-.06,0-.13-.01-.19-.04l-2.98-1.23c-.14-.06-.24-.17-.29-.31-4.18-12.79,5.3-22.77,5.39-22.86.17-.18.45-.2.65-.06.2.15.26.42.15.64-1.12,2.12-2.61,5.94-1.81,7.16.06.09.08.19.08.3,0,.03-.06,1.09-.04,2.57.09-.36.22-.67.38-.93.1-.16.29-.25.47-.23.19.02.35.15.42.32.01.04,1.16,3.03,3.83,4.81-.77-1.32-1.6-3.02-1.37-3.83.05-.16.17-.28.32-.34.15-.05.33-.02.46.07.06.04,5.35,3.99,9.82,4.77l-.14-.52c-.05-.18,0-.37.14-.5.14-.13.33-.17.5-.11.03.01,2.7.92,5.06.95l-.52-.98c-.11-.21-.06-.46.11-.61.18-.15.43-.16.62-.03,0,0,1.07.73,3.15.79-.15-.33-.31-.75-.46-1.27-.05-.19,0-.39.16-.52.15-.13.36-.15.54-.07.02,0,1.6.77,3.12.98.27.04.46.29.43.56-.04.27-.3.46-.56.43-.86-.12-1.71-.38-2.35-.62.2.47.37.72.37.72.1.15.12.34.04.5-.08.16-.24.27-.42.28-1.36.07-2.43-.12-3.19-.34l.22.42c.08.15.08.33,0,.47-.08.15-.23.24-.4.26-1.91.16-4.15-.36-5.36-.71l.1.37c.04.16,0,.33-.1.45-.11.13-.26.19-.43.18-3.75-.35-8.11-3.03-10.05-4.35.38.95,1.18,2.37,1.97,3.57.12.18.11.42-.03.59-.13.17-.36.23-.57.16-2.94-1.11-4.64-3.59-5.43-5.06-.39,2.33.51,6.71.96,8.46.06.23-.05.46-.25.57-.2.11-.46.06-.61-.12-2.28-2.66-1.99-10.79-1.94-12.05-.53-1.01-.25-2.66.24-4.2-2.37,3.78-5.28,10.53-2.81,18.39l2.48,1.02c.44-.34,1.44-.97,3.03-1.14.07,0,6.56-.57,8.1.59,1-.11,2.11-.31,2.33-.47.41-.4,5.68-2.94,10.16-1.86l3.47-2.64c.22-.17.53-.13.7.09.17.22.13.53-.09.7l-3.66,2.79c-.12.1-.28.13-.43.08-3.94-1.08-8.94,1.15-9.47,1.57-.44.43-2.16.65-3.14.75-.21.02-.41-.09-.5-.28-.47-.48-4.8-.63-7.35-.34-1.81.2-2.68,1.07-2.69,1.08-.1.1-.23.15-.36.15Z"
  />
  <path
    d="m106.04,116.72c-4.75,0-9.69-3.5-12.21-6.34-2.86-3.21-4.41-10.72-4.48-11.04-.11-.39-.87-3.19-1.29-5.03-.57-.21-2.4-1.06-3.52-3.67-1.28-2.99-2.34-12.01-.52-15.02l.1-.16c.89-1.47,2.1-3.46,3.66-5.01-.19.09-.42.05-.57-.11-.18-.19-.18-.49,0-.69.23-.24,5.34-5.57,9.31-3.87.14-.36.39-.78.81-1.05.26-.17.68-.32,1.25-.22.56-.4,2.18-1.38,4.43-1.27.27.01.54.02.83.03,2.54.07,5.69.16,10.3,4.83,3.97,4.03,6.04,9.27,6.15,15.57.04,1.83-.24,2.96-.55,3.71l.26.35c.43.58.28,2.02-.01,4.51-.06.52-.12,1.05-.17,1.54-.1,1-.02,1.21.01,1.25.03.01.17.04.27.06.22.05.53.11.88.28.49.23.56.59.56.79-.01.67-.95,1.28-1.87,1.71.12.94.32,3.43-.39,6.28-.98,3.91-5.14,10.29-10.4,12.11-.92.32-1.87.46-2.83.46Zm-17.25-24.01s0,.07,0,.11c.05.8,1.12,4.81,1.52,6.29.02.11,1.57,7.6,4.25,10.61,2.86,3.2,8.93,7.34,13.97,5.59,4.93-1.71,8.83-7.72,9.76-11.41.83-3.32.33-6.22.32-6.25-.04-.23.08-.45.29-.55.62-.27,1.24-.64,1.51-.88-.21-.08-.37-.12-.53-.15-.94-.19-1.2-.62-1.1-2.01-.07.08-.18.15-.3.16-.26.04-.52-.14-.57-.4-.4-2.04-1.68-7.63-2.81-8.93-.18-.21-.16-.52.05-.71.21-.18.52-.16.71.05.82.94,1.6,3.4,2.17,5.57,0-.32,0-.59-.01-.78-.05-.49.16-.85.39-1.23.09-.15.19-.32.29-.52.64-5.25-5.22-11.21-5.28-11.27-.19-.2-.19-.51,0-.71.2-.19.51-.2.71,0,.2.2,3.87,3.92,5.17,8.26-.13-5.98-2.1-10.95-5.86-14.77-4.32-4.39-7.25-4.47-9.61-4.54-.29,0-.57-.02-.85-.03-2.37-.13-3.93,1.18-3.95,1.2-.13.11-.31.15-.47.1-.28-.09-.51-.07-.68.04-.35.22-.51.8-.54,1.01-.03.17-.13.31-.29.38s-.33.06-.48-.03c-1.92-1.22-4.49.09-6.32,1.42.62-.13,1.2-.21,1.68-.26.35-.06.72-.08,1.08-.07.27,0,.49.23.48.5,0,.27-.22.49-.49.5-.01,0-.39,0-.94.06-3.23.55-5.61,4.47-7.08,6.89l-.1.16c-1.59,2.62-.61,11.33.58,14.11.7,1.63,1.69,2.45,2.35,2.84,0-.03,0-.06,0-.08,0-.04,0-.08-.01-.12l-.02-.28h.02c0-.51.12-.52.45-.54.36-.02.48.22.52.47h0s0,.08.01.17Zm31.8,3.59h.01-.01Zm-1.37-7.91c-.15.26-.22.4-.21.55.05.52,0,1.46-.05,2.47-.03.56-.06,1.13-.07,1.58.03-.29.07-.58.1-.87.15-1.29.38-3.2.23-3.72Z"
  />
  <path
    d="m105.82,218.87c-1.11,0-1.69-1.88-2.35-4.06-.22-.72-.43-1.41-.64-1.9-.69-1.68-2.91-4.75-6.59-9.14-2.14-2.55-2.99-4.82-3.55-6.32-.37-.98-.64-1.7-1.01-1.83-1.44-.53-2.55-3.87-2.85-4.83-1.22-1.15-1.6-3.92-1.68-4.65-1.31-1.74-1.55-3.82-1.6-4.42-1.51-2-2.35-4.38-2.72-7.68-.15-1.28-.76-2.81-1.36-4.29-.63-1.56-1.28-3.17-1.4-4.54-.25-2.81-.8-5.51-1.52-7.42-.53-1.42-.38-2.48-.29-3.11.02-.15.05-.32.05-.41-.21-.24-.58-1.29-.95-9.37-.67-.88-.75-3-.76-3.8-1.13-1.27-.85-4.65-.75-5.61-1.77-4.67-.37-6.52.12-6.98.18-.48.86-1.94,3.07-3.59,2.54-1.91,7.96-7.41,9.09-8.97l.28-.38c3.17-4.36,4.67-6,5.55-6.06.23-.02.45.07.6.23.05.05.09.12.11.19.04.13,4.22,13,7.9,17.66,3.11,3.95,6.92,10.67,9.2,14.68.55.96,1.01,1.78,1.36,2.38,1.83,3.13,2.33,4.1,2.35,4.14.13.25.03.55-.21.67-.24.13-.55.03-.67-.21,0,0-.52-1-2.33-4.09-.35-.6-.82-1.42-1.37-2.39-2.26-3.99-6.05-10.67-9.11-14.56-3.49-4.41-7.23-15.44-7.95-17.61-.53.33-1.76,1.63-4.62,5.56l-.28.38c-1.17,1.61-6.71,7.24-9.3,9.19-2.33,1.74-2.75,3.19-2.75,3.21-.03.11-.1.22-.2.28,0,0-1.67,1.34.15,6.04.03.08.04.16.03.24-.21,1.73-.17,4.43.55,5.01.12.1.19.24.18.39-.01,1.39.21,3.09.58,3.43.1.09.16.21.16.35.18,3.92.5,8.28.73,8.95.3.31.24.76.17,1.2-.09.61-.21,1.44.23,2.62,1.02,2.72,1.42,5.98,1.58,7.68.11,1.23.73,2.77,1.33,4.26.62,1.54,1.26,3.14,1.43,4.55.35,3.18,1.16,5.43,2.61,7.31.06.08.1.18.1.29,0,.02.09,2.35,1.48,4.12.06.08.1.17.11.26.09.91.52,3.45,1.46,4.22.08.06.13.15.16.24.48,1.62,1.51,4.04,2.28,4.32.8.3,1.13,1.19,1.6,2.42.57,1.52,1.35,3.61,3.38,6.03,3.8,4.53,6.01,7.61,6.75,9.4.22.54.44,1.24.67,1.99.32,1.04.99,3.21,1.42,3.35.84-.09,4.84-2.61,6.63-5.03.47-.63.97-1.26,1.46-1.87,1.28-1.59,2.6-3.24,2.5-4.18-.14-1.31-1.35-2.34-1.36-2.35-.21-.18-.24-.49-.06-.7.18-.21.49-.24.7-.06.06.05,1.53,1.29,1.72,3.01.15,1.35-1.17,3-2.71,4.92-.48.6-.97,1.21-1.43,1.84-1.85,2.51-6.06,5.3-7.36,5.43-.03,0-.07,0-.1,0Zm3.19-100.33s-.04,0-.06,0c-10.25-1.22-11.31-4.68-11.4-5.07-.06-.27.11-.54.38-.6.27-.06.53.11.59.37.02.07,1.03,3.16,10.47,4.29.82-.15,2.44-.39,3.4-.13.32-.5.93-1.38,1.61-2.07.8-.81,1.88-4.69,1.79-6.02-.02-.28.19-.51.47-.53.29-.01.51.19.53.47.1,1.5-.99,5.69-2.08,6.79-.89.89-1.69,2.24-1.69,2.25-.08.13-.21.22-.35.24-.15.03-.3-.02-.41-.12-.26-.2-1.76-.15-3.15.12-.03,0-.06,0-.09,0Z"
  />
  <path
    d="m115.01,161.82c-.19,0-.38-.05-.56-.14-.69-.36-.55-1.34-.29-3.12.18-1.25.41-2.81.43-4.62.03-2.45.67-8.84,1.18-13.96.31-3.16.59-5.89.59-6.5,0-.67.42-2.42.99-4.84.85-3.62,2.02-8.58,2.16-11.59.22-4.74-1.66-11.37-1.68-11.44-.08-.27.08-.54.34-.62.27-.08.54.08.62.34.06.22,1.26,4.44,1.63,8.63.07-3.59-.1-7.93-.32-8.81-.34-1.37-1.36-2.74-1.37-2.75-.17-.22-.12-.53.1-.7.22-.16.53-.12.7.1.05.06,1.15,1.55,1.54,3.11.38,1.53.62,11.07-.03,13.73-.6,2.46-.88,13.33-.85,17.45.04,4.7-2.5,18.34-2.53,18.48-.26,1.38-.46,2.66-.61,3.67-.2,1.32-.3,1.91-.41,2.18-.16.38-.59,1.09-1.22,1.32-.14.05-.28.08-.42.08Zm4.53-38.3c-.39,1.86-.83,3.73-1.21,5.34-.51,2.18-.96,4.06-.96,4.62,0,.65-.27,3.27-.6,6.59-.51,5.11-1.14,11.47-1.18,13.88-.03,1.88-.27,3.54-.44,4.75-.13.9-.28,1.93-.17,2.15,0-.03.04-.02.11-.05.23-.08.51-.46.63-.76.07-.17.21-1.08.35-1.96.16-1.02.36-2.31.62-3.7.71-3.77,2.55-14.4,2.51-18.28-.02-2.59.08-8.25.34-12.58Zm-7.72,19.92c-.25,0-.47-.19-.5-.45,0-.01-.17-1.45-1.67-4.47-.48-.97-1.13-2.44-1.88-4.15-1.7-3.87-3.81-8.69-5.21-10.4-2.08-2.55-5.71-10.7-5.86-11.04-.11-.25,0-.55.25-.66.25-.11.55,0,.66.25.04.08,3.72,8.37,5.72,10.82,1.49,1.82,3.63,6.71,5.35,10.64.74,1.7,1.39,3.16,1.86,4.11,1.6,3.22,1.77,4.75,1.77,4.82.03.27-.17.52-.45.55-.02,0-.03,0-.05,0Zm-.78-21.35s-.04,0-.06,0c-.27-.03-.47-.28-.44-.55.04-.31.39-3.1,1.8-3.94.24-.14.54-.06.68.17.14.24.06.54-.17.69-.74.44-1.21,2.19-1.32,3.19-.03.25-.25.44-.5.44Z"
  />
  <path
    d="m108.68,130.32c-.65,0-1.46-.95-2.74-2.48-.86-1.03-1.84-2.19-2.65-2.84-.22-.17-.25-.49-.08-.7.17-.22.49-.25.7-.08.88.71,1.9,1.91,2.79,2.97.63.75,1.47,1.74,1.88,2.04.28-.69.29-3.25-.4-4.12-1-1.28.11-6.22.34-7.19.06-.27.34-.44.6-.37.27.06.44.33.37.6-.62,2.59-.99,5.75-.53,6.34.8,1.02.89,3.23.7,4.4-.11.68-.31,1.11-.62,1.31-.12.08-.25.12-.38.12Zm12.86-7.32c-.67,0-1.39-.9-1.75-1.44-.04-.06-.07-.13-.08-.19,0,0,0,0,0,0-.26.1-.55-.04-.64-.3-1.69-4.57-4.61-4.88-4.73-4.89-.27-.02-.48-.26-.46-.54.02-.27.26-.48.53-.46.15.01,3.67.33,5.59,5.54.01.03.02.06.02.08.21-.08.46-.01.59.18.24.35.55.7.77.88,0-.7-.39-2.63-.6-3.72-.26-1.33-.41-2.11-.4-2.48.01-.28.26-.5.52-.48.28,0,.49.24.48.52,0,.27.2,1.32.38,2.25.61,3.06.76,4.17.45,4.65-.15.24-.38.38-.65.38h-.01Z"
  />
  <path
    d="m122.92,203.97c-1.05,0-2.65-1.27-3.6-2.11-.21-.18-.23-.5-.04-.71.18-.21.5-.22.71-.04,1.14,1.01,2.47,1.87,2.89,1.87h0c.48-.8,1.65-6.15,2.54-11.06-.13-.57-.8-3.51-1.45-6.65-.29-1.43-.58-2.92-.81-4.26-.53-3.08-1.02-10.03-1.5-16.74-.24-3.32-.47-6.57-.69-9.21-.65-7.67-2.03-14.78-2.04-14.85-.05-.25.1-.49.34-.57.24-.08.5.04.61.27.04.1,4.54,9.96,6.47,13.82.75,1.5,1.55,3.41,2.32,5.25,1.22,2.91,2.48,5.92,3.32,6.73.82.79,1.66,2.61,2.54,4.54.75,1.64,1.53,3.34,2.11,3.87,3.27,2.98,3.32,3.75,3.1,4.24-.09.22-.27.38-.51.46-.64.22-1.6-.25-1.88-.4-.24-.13-.33-.43-.2-.68.13-.24.43-.33.68-.2.33.17.73.31.95.34-.13-.24-.65-1.05-2.82-3.03-.73-.67-1.51-2.38-2.34-4.19-.77-1.68-1.64-3.58-2.32-4.23-.99-.95-2.18-3.78-3.55-7.06-.77-1.83-1.56-3.72-2.29-5.19-1.2-2.39-3.38-7.09-4.88-10.34.45,2.82,1.03,6.9,1.4,11.15.23,2.65.46,5.9.69,9.23.47,6.69.96,13.62,1.49,16.64.23,1.33.52,2.81.81,4.23.72,3.47,1.46,6.69,1.47,6.72.01.07.02.13,0,.2-.92,5.12-2.19,11.32-2.98,11.83-.15.09-.32.14-.51.14Zm29.94-35.62c-3.4,0-5.41-2.11-7.35-4.16-.4-.42-.79-.83-1.2-1.23-1.47-1.42-3.39-5.93-5.09-9.91-1.11-2.61-2.17-5.08-2.84-6.07-1.44-2.12-4.19-10.63-6.01-16.26-.4-1.22-.74-2.28-.99-3.04-1.34-3.98-8.54-19-8.61-19.15-.12-.25-.01-.55.24-.67.25-.12.55-.02.67.23.3.62,7.29,15.22,8.65,19.26.26.77.6,1.82.99,3.05,1.69,5.24,4.53,14.01,5.88,16.01.73,1.07,1.75,3.47,2.93,6.24,1.58,3.7,3.54,8.3,4.86,9.59.42.4.82.83,1.23,1.25,1.92,2.01,3.74,3.96,6.8,3.84,3.7-.09,10.13-4.36,12.93-7.27,3.69-3.82,6.4-6.53,7.74-6.63.27-.02.51.19.54.46.02.28-.19.51-.46.53-1.07.08-4.84,3.99-7.1,6.33-2.57,2.66-9.32,7.47-13.63,7.57-.07,0-.13,0-.2,0Zm-37.77-13.9c-.19,0-.37-.11-.45-.29-.59-1.25-2.35-4.7-3.37-5.58-1.43-1.24-7.14-11.05-8.4-13.42-.44-.83-1.22-2.12-2.12-3.62-2-3.33-4.75-7.88-6.09-11.15-1.94-4.72-.99-10.18-.95-10.41.05-.27.31-.45.58-.4.27.05.45.31.4.58,0,.05-.94,5.41.89,9.85,1.32,3.2,4.04,7.72,6.02,11.02.91,1.51,1.69,2.81,2.15,3.66,1.65,3.09,7,12.12,8.18,13.14,1.38,1.2,3.52,5.72,3.61,5.91.12.25.01.55-.24.67-.07.03-.14.05-.21.05Zm-2.9-9.95c-.2,0-.39-.12-.46-.32-.04-.11-.42-1.25-.43-6.1-.01-4.06.56-7.45.76-8.53-.57-.45-1.67-1.74-3.84-5.41-.14-.24-.06-.54.17-.69.24-.14.54-.06.68.18,1.35,2.28,3.1,4.88,3.62,5.17,0,0,.02,0,.03,0,0,0,.01,0,.02,0,.58-.05,3.19-1.1,3.91-1.62.02-.02.04-.04.07-.06.18-.44.01-3.28-.1-5.17-.09-1.63-.19-3.19-.15-4.27-.39.35-.9.85-1.35,1.29-1.86,1.83-3.14,3.03-4.03,3.12-1.42.14-2.24-.48-2.53-.74-2.41-.85-10.53-6.22-10.88-6.45-.23-.15-.29-.46-.14-.69.15-.23.47-.29.69-.14.09.06,8.64,5.72,10.75,6.37.09.03.18.08.24.16.02.02.56.63,1.77.5.6-.06,2.37-1.8,3.43-2.84,1.77-1.74,2.25-2.18,2.78-1.92.12.06.38.25.32.72-.12.9,0,2.9.11,4.83.22,3.73.24,5.2-.1,5.8l.05,4.49c0,.28-.22.5-.49.51-.31,0-.5-.22-.51-.49l-.04-3.8c-1.02.53-2.59,1.15-3.49,1.33-.2,1.06-.75,4.42-.74,8.33.01,4.64.36,5.72.37,5.76.09.26-.05.54-.31.63-.06.02-.11.03-.17.03Z"
  />
  <path
    d="m110.37,204.58c-3.22,0-6.33-.11-7.59-.25-1.31-.15-1.62-.33-1.77-.63-.57-1.15.96-16.81,2.15-18.63.24-.36.52-.42.69-.41,0,0,.02,0,.03,0,10.92.58,16.71,1.16,17.21,1.72.9,1-.83,16.75-1.38,17.41-.48.58-5.01.78-9.34.78Zm-8.47-1.41c1.7.59,15.47.55,17.06-.05.57-1.38,1.68-14.39,1.36-16.04-1.21-.41-9.17-1.01-16.36-1.4-.95,1.52-2.33,15.54-2.06,17.49Zm18.52-16.05h0,0Zm-8.63-3.86c-.24,0-.45-.17-.49-.41-.62-3.36-.92-34.05-.93-35.36,0-.28.22-.5.5-.5h0c.27,0,.5.22.5.5,0,.32.31,31.9.92,35.19.05.27-.13.53-.4.58-.03,0-.06,0-.09,0Zm2.85-16.7c-.17,0-.46-.07-.64-.52-.61-1.54.12-4.58.2-4.93.07-.27.33-.43.61-.37.27.07.43.34.37.6-.15.6-.42,2.02-.41,3.16.25-1.04.54-2.6.74-3.99.04-.27.3-.47.57-.42.27.04.46.29.42.57-.84,5.78-1.44,5.85-1.79,5.89-.02,0-.04,0-.07,0Zm.29-.88h0,0Zm-5.49-12.21c-.14,0-.28-.06-.38-.18-.06-.07-5.9-6.92-9.14-10.78-3.23-3.86-9.43-15.11-9.88-15.99-.14-.27-.54-1.06,2.91-3.62-.58-.63-1.67-1.83-2.16-2.39-.58-.66.24-3.95,2.43-9.77.1-.26.39-.39.64-.29.26.1.39.39.29.64-1.4,3.72-2.78,8.15-2.57,8.82.63.71,2.48,2.71,2.48,2.71.1.11.14.25.13.39-.01.14-.09.27-.21.35-1.49,1.07-2.86,2.32-3.02,2.75.68,1.29,6.62,12.01,9.72,15.73,3.23,3.86,9.07,10.71,9.13,10.78.18.21.15.53-.06.71-.09.08-.21.12-.32.12Z"
  />
  <path
    d="m113.44,185.67s-.08,0-.12-.01c-.27-.07-.43-.33-.37-.6.36-1.48.1-5.04-.29-6.26-.3,1.08-.5,3.92-.52,6.38,0,.28-.23.5-.5.5h0c-.28,0-.5-.23-.5-.5.06-7.41,1-7.61,1.35-7.69.25-.05.5.03.7.23.93.96,1.1,6.03.72,7.57-.06.23-.26.38-.49.38Zm.86-12.13s-.06,0-.08,0c-.48-.06-.73-.57-.88-.95-1.11-2.85.59-6.76.67-6.92.08-.18.25-.29.44-.3.22,0,.37.1.46.27,1.03,2.02.79,6.46.05,7.52-.22.32-.48.38-.66.38Zm.16-.95h.01-.01Zm-.02-5.16c-.38,1.3-.76,3.27-.17,4.79,0,.02.01.03.02.05.29-.88.47-3.11.15-4.84Z"
  />
  <path
    d="m120.84,190.24c-.09,0-.18-.02-.26-.07-.98-.34-11.44-.99-17.86-1.32-.28-.01-.49-.25-.47-.53.01-.28.25-.5.53-.47,17.73.93,18.24,1.38,18.4,1.52.21.18.22.5.04.71-.1.11-.24.17-.37.17Zm3.77-3.77h-.01c-.28,0-.49-.24-.49-.51,0-.28.22-.49.51-.49.36-.12,3.2-1.98,5.47-3.48,2.43-1.6,4.74-3.11,5.7-3.6,1.69-.86,2.92-.46,3.48-.16,1.58-1.38,5.05-8.99,6.96-13.7.1-.26.39-.38.65-.27.26.1.38.4.27.65-.55,1.34-5.4,13.18-7.64,14.37-.18.1-.4.07-.56-.06-.04-.03-1.01-.8-2.71.07-.92.47-3.3,2.04-5.61,3.55-4.69,3.08-5.62,3.64-6.03,3.64Zm-11.6-7.82c-.28,0-.54-.11-.76-.32-.06-.06-.1-.13-.13-.21-.23-.79-1.28-4.79.05-5.99.31-.28.87-.54,1.81-.18,1.07.41,1.66,1.31,1.68,2.52.02,1.6-1.05,3.62-2.16,4.08-.17.07-.33.1-.49.1Zm.13-5.89c-.12,0-.22.03-.29.1-.62.56-.26,3.12.19,4.79.02,0,.04-.01.08-.02.61-.25,1.57-1.8,1.55-3.15-.01-.8-.36-1.34-1.04-1.6-.19-.07-.35-.11-.49-.11Zm32.81-8.32c-.19,0-.37-.11-.46-.3l-.94-2.1c-2.4-3.37-3.59-8.05-4.55-11.82-.2-.8-.39-1.55-.58-2.24-.77-2.79-1.61-11.95-2.17-18-.22-2.4-.39-4.29-.5-5.1-.38-2.95-4.4-17.73-5.05-18.99-.31-.6-2.78-.71-4.88-.43-.15.02-.29-.03-.4-.13-.11-.1-.17-.24-.16-.39.06-1.46-.09-3.24-.42-3.56-.42-.36-3.77-1.04-6.63-1.46-.27-.04-.46-.29-.42-.57.01-.1.06-.19.12-.26,0,0-.01-.01-.02-.02-.19-.2-.19-.51,0-.71.11-.11,2.89-2.68,11.58-.12.26.08.42.36.34.62-.08.27-.35.42-.62.34-6.98-2.06-9.83-.63-10.46-.22,2.07.31,6.11,1,6.8,1.68.67.65.75,2.61.73,3.74,1.56-.16,4.63-.28,5.32,1.03.76,1.46,4.81,16.63,5.16,19.32.11.83.28,2.73.5,5.14.55,6.02,1.39,15.12,2.14,17.83.19.69.38,1.45.59,2.26.94,3.7,2.11,8.32,4.42,11.53.02.03.04.06.05.09l.96,2.15c.11.25,0,.55-.25.66-.07.03-.14.04-.2.04Z"
  />
  <path
    d="m146.65,126.72c-.19,0-.38-.11-.46-.3-.11-.25,0-.55.26-.66,6.34-2.75,5.15-8.02,4.76-9.74l-.05-.21c-.27-1.28-1.4-3.82-1.96-4.58-.34-.46-1.84-1.13-2.8-1.47-.22-.08-.36-.29-.33-.52.22-2.28-2.88-5.66-4.09-6.76-.06-.06-.11-.13-.13-.2,0-.01-.49-1.36-1.9-3.25-.9-1.21-.91-1.21-1.48-1.39-.32-.1-.81-.25-1.6-.6-1.79-.81-7.49.73-9.54,1.39-.26.09-.54-.06-.63-.32s.06-.54.32-.63c.79-.25,7.79-2.46,10.26-1.35.73.33,1.17.46,1.48.56.83.25.98.38,1.99,1.75,1.28,1.71,1.84,3,2,3.39.64.6,4.28,4.16,4.34,7.12.78.29,2.4.97,2.93,1.69.63.86,1.83,3.52,2.14,4.97l.04.2c1.17,5.17-.63,8.83-5.34,10.88-.06.03-.13.04-.2.04Z"
  />
  <path
    d="m149.39,135.01c-.06,0-.13,0-.19-.01-.37-.05-.67-.25-.86-.56-.38-.61-.34-1.46-.31-2.21.02-.38.05-1.09-.08-1.2-1.21-.13-1.73-.29-1.76-.29-.26-.08-.42-.35-.34-.62.08-.26.36-.42.62-.34,0,0,.48.14,1.54.25,1.1.12,1.05,1.35,1.01,2.25-.02.6-.05,1.29.16,1.64.04.06.08.09.15.1.52.07,1.67-.66,2.9-1.81.82-.76,5.25-11.19,5.03-13.05-.04-.35-.13-.45-.15-.46-.18-.06-.81.31-1.24.75-.14.14-.34.18-.52.12-.18-.06-.31-.23-.33-.42-.12-1.19-.41-1.64-.63-1.81-.22-.17-.49-.14-.85-.08-.12.02-.22.04-.31.04-.71.05-1.63-1.16-2.24-2.17-.14-.24-.07-.54.17-.69.23-.14.54-.07.69.17.5.83,1.15,1.62,1.39,1.7,0,0,.07-.02.15-.03.39-.06,1.04-.17,1.62.27.41.31.7.84.88,1.61.45-.31,1.05-.58,1.56-.4.32.11.72.42.82,1.29.26,2.21-4.29,12.92-5.34,13.9-1.04.97-2.47,2.08-3.53,2.08Zm-11.33-5.56c-.12,0-.23-.04-.33-.12-.21-.18-.23-.5-.05-.7.04-.04,3.72-4.4,4.89-9.66.06-.27.32-.44.6-.38.27.06.44.33.38.6-1.23,5.51-4.95,9.91-5.11,10.09-.1.12-.24.17-.38.17Z"
  />
  <path
    d="m143.66,149.65c-.1,0-.2-.03-.29-.09-.22-.16-.28-.47-.11-.7,3.86-5.37,3.66-7.51,3.39-10.47-.06-.71-.13-1.44-.15-2.28-.04-1.82-.32-2.84-.56-3.74-.32-1.2-.58-2.15-.08-4.2.45-1.85-.02-3.6-.98-7.09-.69-2.51-1.63-5.95-2.61-10.93-2.16-10.92-4.98-12.5-5.01-12.51-.24-.13-.34-.42-.22-.67.12-.24.4-.35.65-.24.33.15,3.31,1.81,5.56,13.22.98,4.94,1.91,8.36,2.59,10.86.97,3.54,1.5,5.49.98,7.59-.44,1.8-.23,2.56.08,3.71.24.91.55,2.03.59,3.98.02.8.08,1.52.15,2.21.28,3.06.5,5.48-3.58,11.15-.1.14-.25.21-.41.21Zm37.44-4.55c-.14,0-.27-.06-.37-.17-.18-.2-.17-.51.03-.7-.04,0,.1-.34-.21-1.49-.2-.74-.99-1.61-1.91-2.61-.87-.96-1.86-2.04-2.62-3.32-1.45-2.48-3.77-4.19-3.8-4.21-.08-.06-.14-.13-.17-.22-.53-1.37-.97-1.54-1.05-1.56-.08-.02-.13.02-.15.03-.12.1-.29.15-.44.12-.15-.03-.29-.13-.36-.27-.41-.89-2.3-2.3-2.99-2.77-.06-.04-.11-.1-.15-.16-1.39-2.34-2.41-2.5-2.69-2.37-.12.07-.25.09-.39.05-.13-.04-.24-.14-.3-.26-.69-1.36-1.3-1.71-1.6-1.81-.3-.09-.49.01-.5.01-.15.08-.34.09-.49,0-.15-.08-.26-.23-.26-.41-.05-1-.36-1.75-.91-2.23-.81-.7-1.92-.62-1.93-.62-.28.03-.52-.18-.54-.45-.03-.27.18-.52.45-.54.07,0,1.54-.13,2.68.86.64.56,1.04,1.34,1.19,2.33.16,0,.34,0,.54.06.75.2,1.45.86,2.07,1.97.17-.02.37-.01.61.05.95.23,1.92,1.15,2.87,2.74.47.32,2.2,1.56,2.98,2.67.14-.03.31-.05.49,0,.67.13,1.24.8,1.74,2.05.52.4,2.57,2.07,3.95,4.42.7,1.19,1.66,2.23,2.5,3.15,1,1.1,1.87,2.04,2.14,3.02.46,1.7.15,2.29-.08,2.49-.1.09-.21.13-.33.13Z"
  />
  <path
    d="m142.81,173.89c-.08,0-.15-.02-.23-.05-.17-.09-.27-.26-.27-.44-.29-.56-2.49-2.7-3.7-3.53-.81-.55-1.29-1.87-1.89-3.55-.56-1.54-1.19-3.28-2.18-4.69-1.06-1.51-1.14-2.71-1.21-3.78-.08-1.16-.15-2.15-1.31-3.58-1.95-2.38-3.69-6.87-5.09-10.48-.37-.95-.72-1.85-1.04-2.62-1.49-3.63-6.28-12.72-6.33-12.81-.13-.24-.04-.55.21-.68.24-.13.55-.04.68.21.2.38,4.86,9.22,6.37,12.9.32.78.67,1.68,1.04,2.64,1.37,3.54,3.08,7.95,4.93,10.21,1.37,1.67,1.45,2.93,1.53,4.14.07,1.02.13,1.99,1.03,3.27,1.07,1.52,1.72,3.33,2.3,4.92.5,1.39.98,2.69,1.52,3.06.05.03,4.62,3.53,4.09,4.58-.09.17-.26.27-.45.27Zm-.48-.45h0,0Zm9.58-14.97c-.15,0-.31-.07-.41-.21-4.12-5.68-4.82-15.9-4.85-16.33-.02-.28.19-.51.47-.53.25,0,.51.19.53.47,0,.1.71,10.36,4.66,15.81.16.22.11.54-.11.7-.09.06-.19.1-.29.1Zm19.94-6.95c-.09,0-.18-.03-.27-.08-.17-.11-1.64-1.22-.3-4.99,1.31-3.68,4.77-5.83,6.77-5.97,2.13-.13,3.32,1.8,3.37,1.88.14.24.07.54-.17.69-.23.14-.54.07-.69-.16,0-.02-.95-1.5-2.44-1.41-1.68.11-4.75,2.07-5.9,5.3-1.07,3.01-.09,3.82-.08,3.83.21.17.26.47.11.69-.1.14-.25.21-.41.21Z"
  />
  <path
    d="m107.91,185.76c-.24,0-.49-.25-.54-.48-.78-3.61-5.91-14.67-8.1-19.39l-.44-.96c-1.75-3.78-4.62-9.4-5.92-11.71l-.81-1.42c-1.15-2.01-2.45-4.29-3.74-6.96-1.54-3.2-12.22-15.6-12.33-15.72-.18-.21-.16-.52.05-.71.21-.18.52-.16.71.05.44.51,10.88,12.62,12.47,15.94,1.27,2.64,2.57,4.9,3.7,6.9l.81,1.42c1.31,2.33,4.2,7.99,5.96,11.79l.44.95c1.87,4.04,5.88,12.68,7.54,17.47.5-6.02,1.37-23.37,1.91-35.47.01-.27.23-.48.5-.48,0,0,.01,0,.02,0,.28.01.49.25.48.52,0,.09-.43,9.54-.91,18.87-1,19.31-1.16,19.32-1.77,19.37,0,0-.02,0-.03,0Zm73.08-20.54c-2.4,0-4.5-6.4-4.97-7.92-3.02-4.29-4.8-9.84-4.88-10.07-.08-.26.06-.54.33-.63.26-.09.54.06.63.33.02.06,1.83,5.7,4.79,9.86.03.04.05.09.07.14,1.1,3.61,3.02,7.43,4.08,7.28.1-.01.14-.05.18-.11.46-.73-.45-3.55-.99-5.24-.52-1.63-.79-2.5-.71-3,.03-.2.19-.36.39-.41,2.28-.5,9.82-2.08,11-1.53,2.57,1.22,3.62,1.5,3.83,1.52-.01,0,.04-.08.05-.25.02-.19.01-.88-.82-1.85-1.5-.86-3.3-1.77-3.81-1.85-.3.14-1.15.31-4.13.02-.28-.03-.48-.27-.45-.54.03-.28.29-.48.54-.45,1.47.14,3.27.2,3.59.08.19-.18.59-.52,4.83,1.92.05.03.09.06.13.1,1.16,1.31,1.28,2.48,1.01,3.14-.17.4-.49.65-.88.68-.2.02-.83.05-4.33-1.61-.66-.26-5.5.55-9.94,1.51.1.51.4,1.44.65,2.21.94,2.9,1.55,5.04.88,6.08-.2.32-.51.51-.9.56-.06,0-.11.01-.17.01Zm-14.19-13.69c-.06,0-.13-.01-.19-.04-.12-.05-.22-.15-.27-.27-.4-.95-3.01-2.82-5.35-3.23-1.76-.31-5.5-1.19-10.73-3.55-3.22-1.45-3.65-2.26-3.66-2.81,0-.39.23-.65.44-.75.24-.13.55-.03.67.22.1.19.06.42-.08.57.12.19.66.79,3.04,1.86,5.13,2.31,8.77,3.17,10.49,3.48,2.35.42,4.94,2.1,5.85,3.4.87-.32,2.8-.93,3.89-.4.25.12.35.42.23.67-.12.25-.42.35-.67.23-.71-.34-2.51.18-3.47.58-.06.03-.13.04-.2.04Z"
  />
  <path
    d="m113.85,240.94c-.2,0-.38-.08-.53-.23-.94-.93-.57-5.75.02-9.42-1.35,2.79-2.42,5.17-2.44,5.62.03.26-.16.48-.42.52-.31.05-.97-.01-1.46-.53-.66-.71-.8-1.99-.4-3.8.89-4,1.83-6.65,1.83-6.67.09-.26.38-.4.64-.3.26.09.4.38.3.64,0,.03-.92,2.62-1.8,6.55-.42,1.94-.09,2.65.15,2.91.08.09.18.14.26.18.56-1.87,3.11-6.95,4.29-9.27h0s.04-.08.07-.1c.17-.19.45-.23.66-.09.21.14.28.42.17.64-.06.11-.11.22-.17.33-.64,1.78-1.75,10.34-1.11,11.91.88-1.09,2.56-6.98,3.3-9.58.49-1.73.78-2.73.94-3.09.24-.53.54-1.86.84-3.16.62-2.73.86-3.57,1.24-3.86.18-.14.4-.18.62-.13.71.16,1.46,1.46,1.84,2.22.05.1.07.22.04.33-.09.43.18,1.17.68,1.84.33.44.64.69.81.78.32-1.41.56-2.58.17-4.65-.39-2.05-2.8-4.45-2.82-4.48-.04-.04-.07-.09-.1-.14-1.5-3.12-5.32-7.16-5.36-7.2-.19-.2-.18-.52.02-.71.2-.19.52-.18.71.02.16.17,3.91,4.13,5.5,7.38.41.42,2.63,2.76,3.04,4.94.44,2.32.14,3.66-.17,5.07-.13.59-.57.89-1.09.78-1.07-.23-2.51-2.27-2.39-3.65-.32-.61-.72-1.2-.97-1.45-.21.53-.56,2.07-.8,3.13-.32,1.4-.62,2.73-.9,3.34-.14.31-.49,1.54-.89,2.96-2.2,7.72-3.16,10.15-4.13,10.4-.06.02-.13.03-.19.03Zm76.94-89.25c-.15,0-.29-.06-.39-.19-1.47-1.82-4.46-1.84-4.49-1.84-.13,0-.25-.05-.34-.14-1.2-1.14-8.57-7.77-8.64-7.84-.21-.18-.22-.5-.04-.71.19-.21.5-.22.71-.04.29.26,6.99,6.29,8.52,7.72.78.04,3.52.3,5.06,2.21.17.21.14.53-.07.7-.09.07-.2.11-.31.11Z"
  />
  <path
    d="m108.19,244.65c-.01.28-.02.56-.02.85.33.13.66.27,1,.41,0-.4,0-.81.03-1.22.04-.86.09-1.67-.12-2.38-.26-.91.94-3.65,1.76-5.17.13-.24.04-.55-.2-.68-.24-.13-.55-.04-.68.2-.39.71-2.29,4.35-1.84,5.92.16.55.12,1.28.08,2.06Z"
  />
  <path
    d="m152.8,136.21c.87.42,1.56.28,1.94.13.21.2.59.72.68,1.93.01.19.14.36.32.43,1.04.4,2.25,1.12,2.39,1.57.15.47.58,1.83,2.21,1.54.65.83,2.72,3.36,4.46,4.11.79.73,5.33,4.93,6.21,5.38.37.19.73.25,1.05.25.63,0,1.09-.24,1.12-.26.24-.13.33-.43.21-.67-.13-.24-.43-.34-.67-.21-.03.01-.64.32-1.25,0-.59-.3-4.02-3.4-6.05-5.28-.04-.04-.1-.08-.16-.1-1.8-.72-4.29-4.04-4.31-4.07-.12-.17-.34-.24-.54-.18-.76.22-1.04.05-1.31-.8-.31-.96-1.96-1.76-2.7-2.08-.25-2.12-1.33-2.55-1.46-2.6-.15-.05-.33-.02-.46.07-.02.01-.49.32-1.25-.05-.54-.25-.69-1.5-.68-2.17,1.75-3.1,8.87-9.73,8.94-9.79.2-.19.21-.5.03-.71-.19-.2-.5-.21-.71-.03-.3.28-7.47,6.96-9.2,10.15-.04.07-.06.14-.06.21-.01.27-.08,2.61,1.24,3.23Z"
  />
  <path
    d="m221.41,211.22c-.13-1.12-2.27-5.16-6.37-12.79-4.44-8.28-10.51-19.61-14.08-28.08-.12-.51-2.99-12.42-6.72-14.98-.23-.16-.54-.1-.7.13-.16.23-.1.54.13.69,3.41,2.34,6.28,14.26,6.33,14.46,3.61,8.59,9.7,19.95,14.15,28.24,3.29,6.15,6.14,11.46,6.26,12.44.21,1.78-2.75,4.36-7.54,6.58-4.11,1.9-10.91,3.28-11.99,2.03-.54-.63-2.04-4.58-3.48-8.4-2.09-5.53-4.46-11.8-6.14-14.37-1.78-2.71-2.11-3.88-2.35-4.74-.16-.56-.3-1.04-.74-1.71-1-1.5-2.13-4.9-2.14-4.94-.04-.13-.14-.24-.26-.3-.12-.06-.19-.13-.23-.26-.15-.44.14-1.27.35-1.68.07-.14.08-.3,0-.44-.07-.14-.19-.24-.35-.28-1.26-.27-1.22-1.54-1.21-1.68.01-.15-.05-.3-.16-.41-.11-.1-.26-.15-.42-.13-.45.06-.63-.1-.68-.15-.39-.38-.35-1.36-.3-1.67.02-.14-.02-.29-.11-.39-.09-.11-.23-.17-.37-.18-4.26-.1-10.59,1.09-16.73,2.24-5.52,1.03-10.74,2.01-13.27,1.78-4.92-.44-7.04,2.64-10.27,7.31-.51.74-1.05,1.53-1.64,2.35-3.12,4.36-5.91,16.99-7.75,25.36-.72,3.28-1.29,5.87-1.6,6.6-1.17,2.79-1.84,14.65-1.75,18.82.07,3.47-.94,4.76-1.62,5.62-.05.07-.09.12-.13.18.43-.02.86-.04,1.29-.06.69-.96,1.52-2.54,1.46-5.76-.09-4.54.63-15.93,1.68-18.42.34-.81.89-3.31,1.65-6.77,1.71-7.78,4.58-20.8,7.58-24.99.59-.83,1.14-1.62,1.66-2.36,3.14-4.53,5.03-7.28,9.36-6.88,2.66.24,7.95-.75,13.54-1.8,5.84-1.09,11.87-2.22,16-2.23,0,.57.09,1.42.62,1.95.2.2.51.41.99.45.09.69.46,1.56,1.4,1.99-.19.51-.4,1.29-.18,1.93.1.31.29.55.55.73.26.75,1.25,3.58,2.2,5,.35.53.46.9.61,1.42.26.92.62,2.17,2.48,5.01,1.62,2.48,4.08,8.96,6.05,14.17,1.86,4.92,3.03,7.97,3.66,8.7,1.72,1.99,9.6-.13,13.17-1.78,2.57-1.19,8.5-4.32,8.12-7.61Z"
  />
  <path
    d="m108.63,224.41c-.58,2.09-2.01,8.07.26,9.22.07.04.15.05.23.05.18,0,.36-.1.45-.27.12-.25.03-.55-.22-.67-1.29-.65-.55-5.38.38-8.53.04-.15.02-.3-.07-.43-.09-.12-.23-.2-.38-.21-.17-.01-.3-.08-.42-.24-.74-.97-.43-4.22-.06-6.04.05-.27-.12-.53-.39-.59-.26-.05-.53.12-.59.39-.11.53-1.02,5.2.24,6.84.16.21.35.37.56.47Z"
  />
  <path
    d="m209.35,228.76c-1.55,0-3.26-.35-4.62-.79-.99-.32-2.71-.99-3.05-1.85-.51-1.3-1.37-4.58-1.4-4.72-.07-.27.09-.54.36-.61.27-.07.54.09.61.36,0,.03.87,3.37,1.36,4.61.07.18.76.72,2.43,1.26,2.26.73,5.34,1.11,6.75.22,2.06-1.3,3.2-3.04,3.5-3.53-.24-1.74-.71-5.43-.39-6.14.36-.8,1.4-1.46,1.52-1.53.24-.14.54-.07.69.17.14.24.07.54-.17.69-.34.21-.95.69-1.13,1.08-.14.43.15,3.33.49,5.77.01.11,0,.21-.05.31-.05.1-1.29,2.38-3.92,4.04-.77.49-1.83.68-2.97.68Z"
  />
  <path
    d="m91.51,194.59c-.24,0-.46-.18-.49-.43-.04-.27.15-.53.42-.57,2.87-.42,5.5-3.54,7.02-5.73-3.15,1.61-8.34,2.96-9.09,3.15-.27.07-.54-.09-.61-.36-.07-.27.09-.54.36-.61,2.6-.66,9.6-2.73,10.71-4.36.15-.22.45-.28.67-.15.23.14.31.43.18.66-.17.31-4.16,7.65-9.1,8.38-.03,0-.05,0-.07,0Z"
  />
  <path
    d="m91.11,182.74c-1.9,0-3.45-.2-3.82-.49-.16-.13-.26-.4-.21-.6.11-.39.53-.51,1.33-.59,3.04-.34,9.37-7.97,11.55-10.88.17-.22.48-.27.7-.1.22.17.27.48.1.7-.3.4-6.79,9.02-11.05,10.92,2.34.14,6.28,0,8.38-1.2.24-.14.54-.06.68.18.14.24.06.54-.18.68-1.75,1.01-4.93,1.37-7.47,1.37Z"
  />
  <path
    d="m158.35,140.17s-.04,0-.06,0c-.27-.03-.47-.28-.43-.56.55-4.45,9.21-10.79,9.58-11.06.22-.16.54-.11.7.11.16.22.11.54-.11.7-.09.06-8.68,6.35-9.17,10.37-.03.25-.25.44-.5.44Z"
  />
  <path
    d="m154.78,136.26c-.25,0-.46-.18-.49-.43-.33-2.41,6.59-9.21,7.98-10.55.2-.19.51-.19.71.01.19.2.19.52-.01.71-3.3,3.18-7.87,8.29-7.68,9.7.04.27-.15.53-.43.56-.02,0-.05,0-.07,0Z"
  />
  <path
    d="m207.64,241.69c-.58,0-1.07-.11-1.42-.38-1.98-1.49-3.16-4.29-3.07-5.61-.42-.72-2.08-3.8-1.87-6.59-1.13-1.41-2.86-3.7-2.81-4.49.05-.78.52-2.29.57-2.46.06-.19.23-.33.43-.35.19-.02.39.08.49.25l2.19,3.95c.13.24.05.55-.19.68-.24.13-.54.05-.68-.19l-1.6-2.89c-.1.4-.19.81-.2,1.07.05.42,1.45,2.39,2.71,3.95.08.1.12.24.11.37-.31,2.83,1.77,6.29,1.79,6.32.07.11.09.24.06.36-.15.73.84,3.44,2.67,4.81,1.1.83,5.7-1.1,8.84-2.83l-.54-1.59c-.08-.23.02-.49.24-.6,3.65-1.92,5.88-1.61,8.24-1.27,2.5.36,5.1.73,9.98-1.37,8.96-3.87,9.45-10.38,9.08-11.91-.11-.45-1.07-1.51-2.54-2.25-.9-.46-2.68-1.1-4.41-.36-3.46,1.49-10.5,2.05-11.67,2.05-1.06,0-7.31-2.36-8.55-2.83-.26-.1-.39-.39-.29-.65.1-.26.39-.38.65-.29,3.02,1.15,7.56,2.77,8.2,2.77,1,0,7.97-.54,11.27-1.97,1.56-.67,3.42-.53,5.25.39,1.54.77,2.85,2.03,3.06,2.91.4,1.71-.06,8.92-9.66,13.06-5.14,2.21-8,1.8-10.52,1.44-2.2-.31-4.12-.58-7.25.97l.54,1.58c.08.23-.02.48-.23.6-1.12.64-6.04,3.33-8.87,3.33Z"
  />
  <path
    d="m220.54,232.3c-.79,0-1.53-.04-1.93-.16-1.1-.33-5.44-3.77-6.3-4.46-.22-.17-.25-.49-.08-.7.17-.22.49-.25.7-.08,1.93,1.55,5.26,4.08,5.96,4.28.56.17,2.23.14,3.66.06l-7.09-7.09c-.2-.2-.2-.51,0-.71s.51-.2.71,0l7.86,7.87c.14.14.18.34.12.53-.07.18-.24.31-.43.33-.26.02-1.8.14-3.18.14Z"
  />
  <path
    d="m206.53,237.73c-1.69,0-2.84-1.13-3.28-1.87-.14-.24-.06-.54.18-.68.24-.14.54-.06.68.18.06.1,1.21,1.94,3.42,1.21.55-.18,1.23-.48,2.02-.83,2.99-1.31,7.51-3.28,13.77-3.03,7.75.33,14.03-1.6,19.41-12.1.13-.25.43-.34.67-.22.25.13.34.43.22.67-5.62,10.97-12.2,12.98-20.34,12.64-6.01-.26-10.42,1.67-13.33,2.95-.81.36-1.51.66-2.11.86-.47.15-.91.22-1.32.22Z"
  />
  <path
    d="m218.8,215.44c-.18,0-.36-.1-.45-.28-.14-.29-14.35-29.24-16.14-33.16-1.77-3.87-6.69-15.13-6.74-15.25-.11-.25,0-.55.26-.66.25-.11.55,0,.66.26.05.11,4.97,11.36,6.74,15.23,1.78,3.9,15.98,32.84,16.13,33.13.12.25.02.55-.23.67-.07.03-.15.05-.22.05Z"
  />
  <path
    d="m126.15,194.19c-.17,0-.33-.08-.42-.24-.15-.23-.08-.54.16-.69l13.65-8.52c.23-.15.54-.08.69.16.15.23.08.54-.16.69l-13.65,8.52c-.08.05-.17.08-.26.08Z"
  />
  <path
    d="m125.12,188.84c-.18,0-.35-.1-.44-.26-.13-.24-.04-.55.21-.68l15.36-8.2,7.5-14.08c.13-.24.43-.33.68-.21.24.13.34.43.21.68l-7.58,14.21c-.05.09-.12.16-.21.21l-15.5,8.27c-.08.04-.16.06-.24.06Z"
  />
  <path
    d="m146.01,185.67c-.06,0-.12,0-.17-.03-.26-.1-.39-.38-.29-.64l6.48-17.34c.1-.26.39-.39.64-.29.26.1.39.38.29.64l-6.48,17.34c-.08.2-.27.33-.47.33Z"
  />
  <path
    d="m148.05,183.26c-.2,0-.39-.12-.46-.32-.08-.21-.01-.44.15-.57.42-.44,4.94-5.97,8.93-10.86,4.91-6.01,9.54-11.69,10.09-12.25.19-.2.51-.2.71,0,.2.19.2.51,0,.71-.51.52-5.57,6.71-10.03,12.18-8.97,10.99-9,11-9.21,11.08-.06.02-.12.04-.18.04Z"
  />
  <path
    d="m135.19,149.68c-.08,0-.17-.02-.25-.05-.6-.25-.96-1.44-1.9-5.05-.54-2.05-1.14-4.37-1.74-5.71-1.37-3.06-5.75-15.46-6.41-17.82-.63-2.27-4.13-11.5-4.17-11.59-.1-.26.03-.55.29-.64.26-.1.55.03.65.29.14.38,3.55,9.36,4.19,11.67.66,2.34,5.01,14.64,6.36,17.68.63,1.41,1.25,3.77,1.79,5.86.45,1.72,1,3.83,1.33,4.35.14.02.28.11.36.25.14.24.05.55-.19.68-.1.05-.2.08-.31.08Z"
  />
  <path
    d="m109.27,128.03h0c-.17,0-.31-.08-.4-.21-.47-.42-4.31-2.91-6.67-4.41-.23-.15-.3-.46-.15-.69.15-.23.46-.3.69-.15,7.05,4.49,7.05,4.62,7.05,4.97,0,.27-.23.5-.5.5Z"
  />
  <path
    d="m89.4,103.21c-.17,0-.35-.03-.53-.11-.22-.1-.38-.28-.44-.52-.2-.77.78-2.17,1.2-2.74.17-.22.48-.26.7-.1.22.17.26.48.1.7-.49.65-.93,1.42-1.01,1.77.28-.01.64-.31.76-.44.19-.2.5-.22.71-.03.2.19.22.5.03.71-.3.32-.89.77-1.52.77Z"
  />
  <path
    d="m127.15,184.93c-.07,0-.16,0-.24-.03-1.28-.32-3.29-3.83-3.87-4.9-.13-.24-.04-.55.2-.68.24-.13.55-.04.68.2,1.25,2.28,2.76,4.34,3.25,4.41.23-.15.5-.07.65.16.15.23.04.55-.19.7-.1.07-.26.14-.46.14Zm2.69-1.67c-2.95,0-6.93-10.51-7.7-12.62-.09-.26.04-.55.3-.64.26-.09.55.04.64.3,1.81,4.96,5.1,11.96,6.76,11.96.28,0,.5.22.5.5s-.22.5-.5.5Zm.98-1.19s-.05,0-.08,0c-1.19-.2-5.14-8.87-6.01-11.41-1.16-3.4-3.01-6.42-3.02-6.45-.14-.23-.07-.54.16-.69.24-.14.54-.07.69.16.08.13,1.93,3.14,3.12,6.65,1.22,3.6,4.63,10.18,5.32,10.78.22.08.35.31.31.55-.04.25-.25.42-.49.42Zm.2-.95h0Zm-.12-.04h0,0Zm1.79.3c-.2,0-.38-.12-.46-.31-.03-.07-2.75-6.68-3.33-7.8-.05-.09-4.82-9.58-4.78-11.14.02-.79-1.79-4.49-3.09-6.87-.13-.24-.04-.55.2-.68s.55-.04.68.2c.54,1,3.25,6.04,3.21,7.38-.03,1.01,3.69,8.78,4.66,10.65.6,1.16,3.26,7.61,3.37,7.88.11.26-.02.55-.27.65-.06.03-.13.04-.19.04Zm1.73-1.12c-.07,0-.13,0-.18-.03-.58-.21-1.22-1.7-3.8-8.86-1.04-2.89-2.02-5.62-2.46-6.41-1.11-2-7.49-16.22-7.77-16.82-.11-.25,0-.55.25-.66.25-.11.55,0,.66.25.07.15,6.64,14.78,7.73,16.75.48.86,1.42,3.5,2.52,6.55,1.15,3.19,2.7,7.52,3.24,8.25.11.04.21.11.27.22.14.24.07.54-.17.69-.08.05-.19.07-.3.07Zm-.21-.93h0s0,0,0,0Zm0,0-.28-23.04c-.16,0-.32-.08-.42-.22-.15-.23-.09-.54.14-.69,3.16-2.1,5.84-4.48,5.75-5.1-.13-.24-.03-.54.21-.67.24-.13.55-.03.68.22.8,1.51-3.47,4.65-6.08,6.39-.08.06-.18.08-.28.08Zm4.55-5.73s-.1,0-.15-.02c-5.51-1.69-12.88-10.71-13.19-11.09-.17-.21-.14-.53.07-.7.21-.17.53-.14.7.07.07.09,7.48,9.17,12.7,10.77.26.08.41.36.33.62-.07.22-.26.35-.48.35Z"
  />
  <path
    d="m143.94,171.51c-.07,0-.15-.02-.22-.05-.25-.12-.35-.42-.23-.67-.02-.46-1.73-2.65-2.86-4.1-1.65-2.1-2.66-3.44-2.86-4.23-.14-.54-.8-1.64-1.44-2.69-1.43-2.36-2.66-4.4-1.57-5.16.31-.49-.93-3.57-1.67-5.42-.62-1.55-1.26-3.15-1.62-4.45-.97-3.48-10.59-27.32-10.68-27.56-.1-.26.02-.55.28-.65.25-.1.55.02.65.28.4.98,9.73,24.13,10.72,27.67.35,1.24.98,2.82,1.59,4.35,1.55,3.87,2.31,5.92,1.3,6.61-.18.45,1.15,2.64,1.86,3.82.74,1.22,1.37,2.28,1.55,2.96.17.64,1.5,2.35,2.68,3.86,2.4,3.07,3.34,4.39,2.98,5.15-.09.18-.26.28-.45.28Zm-12.91-19.99c-.17,0-.33-.09-.43-.24-3.55-5.83-3.32-7.44-2.74-8.7.17-.38.23-.5-.07-1.01-1.34-2.24-7.02-18.49-7.26-19.18-.09-.26.05-.55.31-.64.26-.09.55.05.64.31.06.17,5.89,16.85,7.18,19,.54.89.38,1.39.12,1.95-.33.71-.88,1.9,2.68,7.76.14.24.07.54-.17.69-.08.05-.17.07-.26.07Z"
  />
  <path
    d="m136.88,172.78h0c-.4,0-.77-.23-.97-.59-.15-.28-.33-.87.19-1.7.35-.56.85-.6,1.2-.39.6.36.86,1.48.49,2.15-.19.34-.53.54-.91.54Zm0-1.66c-.16.29-.16.49-.1.59.03.06.08.07.1.07.11-.18.08-.47,0-.66Zm-.37-.36h0,0Zm8.46-1.47c-.16,0-.31-.08-.41-.21-3.21-4.62-3.59-5.43-3.61-5.73-.07-.21-.44-.83-.69-1.26-.49-.82-.79-1.34-.87-1.67-.13-.4-1.89-3.44-3.49-6.08-.14-.24-.07-.54.17-.69.23-.14.54-.07.69.17.81,1.34,3.45,5.74,3.6,6.36.05.21.46.9.76,1.4.61,1.03.82,1.42.84,1.7.22.5,1.89,3.01,3.42,5.22.16.23.1.54-.13.7-.09.06-.19.09-.29.09Zm.95-2.18c-.18,0-.36-.1-.45-.28-.28-.55-1.12-2.06-1.69-2.49-.5-.38-.73-1.18-.98-2.03-.11-.38-.29-1-.43-1.19-.45,0-1.38-.48-5.05-7.98-.12-.25-.02-.55.23-.67.25-.12.55-.02.67.23,1.58,3.23,3.61,6.9,4.23,7.4h.01c.75,0,1.03.98,1.3,1.93.15.53.38,1.33.62,1.51.86.65,1.87,2.62,1.98,2.84.12.25.03.55-.22.67-.07.04-.15.05-.22.05Zm-13.25-3.02c-.41,0-.84-.25-1.12-.69-.42-.66-.27-1.42.35-1.84h0c.59-.39,1.02-.27,1.23-.16.39.2.63.65.64,1.21.01.46-.13,1.06-.6,1.34-.16.1-.33.14-.51.14Zm-.21-1.7h0c-.1.07-.19.16-.12.36.08.21.28.33.34.34.03-.03.11-.18.11-.42,0-.23-.08-.36-.1-.38,0,0-.07,0-.22.11Zm-4.43-8.13c-.25,0-.43-.08-.56-.18-.65-.48-.47-1.68-.41-2.03.02-.12.09-.23.19-.31.42-.32.97-.36,1.48-.11.51.25.84.73.84,1.23,0,.28-.1.82-.83,1.2-.28.15-.52.2-.72.2Zm.04-.98h0,0Zm-.06-.81c-.03.34-.01.69.05.79.01-.01.09-.03.22-.1.19-.1.3-.21.3-.3,0-.1-.11-.25-.29-.34-.05-.03-.17-.07-.29-.06Zm-2.44.9c-.05,0-.11,0-.16-.03-.26-.09-.4-.37-.31-.64l2.5-7.27c.09-.26.37-.4.63-.31.26.09.4.37.31.64l-2.5,7.27c-.07.21-.26.34-.47.34Zm-1.76-3.26s-.1,0-.15-.02c-.26-.08-.41-.36-.33-.63l2.51-7.97c.08-.26.37-.41.63-.33.26.08.41.36.33.63l-2.51,7.97c-.07.21-.26.35-.48.35Zm-1.31-3.17c-.05,0-.11,0-.16-.03-.26-.09-.4-.37-.31-.63l1.54-4.57c-.1.06-.23.1-.41.12-.38.03-.72-.07-.98-.31-.1-.09-.19-.2-.26-.31l-.7,1.98c-.09.26-.38.4-.64.31-.26-.09-.4-.38-.31-.64l2.59-7.36c.09-.26.38-.4.64-.31.26.09.4.38.31.64l-1.37,3.9c.93.55,1.28.93,1.39,1.19l.73-2.18c.09-.26.37-.4.63-.31.26.09.4.37.31.63l-2.54,7.55c-.07.21-.26.34-.47.34Zm.41-5.63h0,0Zm-3.14-1.67s-.09,0-.14-.02c-.27-.08-.42-.36-.34-.62l2.05-6.93c.08-.26.36-.42.62-.34.27.08.42.36.34.62l-2.05,6.93c-.06.22-.26.36-.48.36Z"
  />
  <path
    d="m139.54,177.44s-.07,0-.11-.01c-.27-.06-.44-.33-.38-.6.18-.82-.25-4.62-.56-6.82-.04-.27.15-.53.42-.57.26-.04.53.15.57.42.09.6.83,5.91.55,7.17-.05.23-.26.39-.49.39Zm1.99-1.13c-.08,0-.17-.02-.25-.07-.24-.14-.33-.44-.19-.68.05-.25-.11-1.88-.3-3.21-.04-.27.15-.53.42-.57.27-.04.53.15.57.42.48,3.32.26,3.72.18,3.85-.09.16-.26.25-.43.25Zm-3.93-.61c-.24,0-.45-.17-.49-.42-.2-1.23.45-6.32.53-6.89.04-.27.29-.47.56-.43.27.04.47.29.43.56-.29,2.2-.67,5.78-.53,6.6.04.27-.14.53-.41.57-.03,0-.05,0-.08,0Zm-3.18-3.98c-.16,0-.32-.08-.41-.22-.16-.23-.1-.54.13-.7.67-.46,1.59-3.71,2.02-5.88.05-.27.32-.45.59-.39.27.05.45.32.39.59-.19.94-1.19,5.65-2.44,6.5-.09.06-.18.09-.28.09Zm-1.13-2.45c-.16,0-.32-.08-.41-.22-.16-.23-.1-.54.13-.7.27-.4.84-4,1.18-7.08.03-.27.27-.47.55-.44.27.03.47.28.44.55-.53,4.8-1.07,7.43-1.61,7.8-.09.06-.19.09-.28.09Zm-1.33-2.91c-.24,0-.44-.16-.49-.4-.13-.79,1.29-5.48,1.9-7.46.08-.26.36-.41.63-.33.26.08.41.36.33.63-.95,3.05-1.91,6.5-1.87,7,.02.27-.17.52-.44.55-.02,0-.04,0-.07,0Zm-2.12-4.51c-.11,0-.22-.04-.31-.11-.21-.17-.25-.49-.07-.7.66-.82,1.67-4.84,2.14-7.18.06-.27.32-.45.59-.39.27.05.45.32.39.59-.13.64-1.31,6.33-2.35,7.61-.1.12-.24.19-.39.19Zm-1.28-2.51s-.05,0-.08,0c-.27-.04-.46-.3-.42-.57.13-.85,1.55-7.05,1.61-7.32.06-.27.33-.44.6-.38.27.06.44.33.38.6-.01.06-1.47,6.43-1.6,7.25-.04.25-.25.42-.49.42Zm-1.52-3.05c-.26,0-.48-.19-.5-.46-.04-.73,1.54-5.33,2.22-7.27.09-.26.37-.4.64-.31.26.09.4.38.31.64-1.06,3.02-2.16,6.42-2.16,6.89,0,.27-.22.5-.49.51h-.01Zm-19.11-57.94c-.53,0-1.04-.08-1.48-.27-2.71-1.15-2.83-5.38-2.84-5.56,0-.28.21-.5.49-.51.26,0,.5.21.51.49,0,.04.11,3.77,2.22,4.66,2.15.9,6.6-1.66,6.97-2.08.27-.39.55-3.06-.15-3.93-.17-.21-.14-.53.08-.7.22-.17.53-.14.7.08,1.03,1.28.66,4.5.17,5.16-.43.58-3.96,2.66-6.68,2.66Zm-10.23-3c-.18,0-.35-.1-.44-.27l-1.07-2.01c-.13-.24-.04-.55.21-.68.24-.13.55-.04.68.21l.03.06v-.07c-.02-.28.2-.51.47-.52.32-.03.51.2.52.48l.1,2.28c0,.23-.14.44-.37.5-.04.01-.09.02-.13.02Z"
  />
  <path
    d="m94.68,99.93c-.97,0-1.83-.31-2.55-.93-1.78-1.53-2.13-4.45-2.19-5.12-3.53-5.74.22-18.94.38-19.5.08-.27.35-.42.62-.34.27.08.42.35.34.62-.04.13-3.83,13.49-.43,18.79.05.07.07.16.08.24,0,.03.21,3.14,1.85,4.55.62.53,1.36.76,2.25.67,4.29-.4,4.9-.63,5.49-1.39.42-.54.41-2.88.26-4.37-.03-.27.17-.52.45-.55.27-.02.52.17.55.45.06.66.34,4.03-.47,5.07-.9,1.16-2.05,1.39-6.18,1.77-.15.01-.3.02-.44.02Zm13.42-6.32c-.21,0-.4-.13-.47-.34l-.66-1.97c-.09-.26.05-.55.31-.63.21-.07.43,0,.56.17.1-.13.26-.2.43-.2.28.02.48.26.46.53l-.13,1.97c-.02.24-.2.43-.43.46-.02,0-.04,0-.06,0Zm3.12-9.43c-.06,0-.12,0-.17-.03-10.58-3.87-16.63-13.65-16.69-13.75-.14-.24-.07-.54.17-.69.23-.14.54-.07.69.17.06.1,5.94,9.59,16.18,13.33.26.09.39.38.3.64-.07.2-.27.33-.47.33Zm3.25-4.72c-.18,0-.36-.1-.45-.28-4.93-9.83-16.18-10.36-16.29-10.37-.26,0-.47-.22-.48-.48-.01-.26.18-.49.44-.52.15-.02,14.41-1.52,21.87,10.11.15.23.08.54-.15.69-.23.15-.54.08-.69-.15-4.14-6.46-10.51-8.68-15.13-9.4,3.79,1.33,8.52,4.07,11.33,9.66.12.25.02.55-.22.67-.07.04-.15.05-.22.05Z"
  />
  <path
    d="m89.78,93.61c-.11,0-.23-.04-.32-.12-2.41-2.02-3.06-10.75-3.12-11.74-.02-.28.19-.51.47-.53.25-.01.51.19.53.47.17,2.57,1.01,9.56,2.77,11.04.21.18.24.49.06.7-.1.12-.24.18-.38.18Zm16.29-8.69c-.1,0-.2-.03-.28-.09-.38-.26-8.11-5.67-11.3-11.82.15,2.15.55,5.11,1.59,7.49.11.25,0,.55-.26.66-.25.11-.55,0-.66-.26-1.78-4.1-1.77-9.66-1.76-10.63-.04-.06-.11-.14-.26-.16-.43-.06-2.21.37-6.71,7.36-.15.23-.46.3-.69.15-.23-.15-.3-.46-.15-.69,3.52-5.46,6.04-8.02,7.69-7.81.57.07.9.46,1.04.74.03.05.05.1.07.16,1.74,6.83,11.87,13.92,11.97,13.99.23.16.28.47.13.7-.1.14-.25.22-.41.22Zm8.63-1.76c-.12,0-.24-.04-.33-.13-7.88-7.1-10.58-11.46-10.69-11.64-.14-.24-.07-.54.17-.69.24-.14.54-.07.69.17.03.04,2.75,4.44,10.5,11.42.21.19.22.5.04.71-.1.11-.23.17-.37.17Zm-6.17-1.95c-.17,0-.34-.09-.43-.25-3.87-6.82-11.65-11.03-11.73-11.07-.24-.13-.34-.43-.21-.68.13-.24.43-.33.68-.21.33.18,8.12,4.38,12.13,11.46.14.24.05.54-.19.68-.08.04-.16.06-.25.06Zm-13.68-11.26c-.13,0-.26-.05-.36-.15-.19-.2-.19-.51,0-.71.07-.07,6.96-6.72,15.89-1.9.24.13.33.43.2.68-.13.24-.44.33-.68.2-8.27-4.47-14.45,1.48-14.71,1.73-.1.1-.22.14-.35.14Z"
  />
  <path
    d="m123.3,250.61c-3.12,0-6.89-.56-7.97-.73-.27-.04-.46-.3-.42-.57.04-.27.3-.46.57-.42,4.16.66,10.42,1.14,11.34.15.19-.2.51-.21.71-.03.2.19.21.5.03.71-.62.67-2.31.88-4.25.88Zm-1.98-40.25c-.09,0-.19-.03-.27-.08-.23-.15-.3-.46-.15-.69,1.56-2.44,22.62-23.1,23.51-23.98.2-.19.51-.19.71,0,.19.2.19.51,0,.71-7.56,7.41-22.17,21.93-23.37,23.8-.1.15-.26.23-.42.23Zm25.18-25.41c-.17,0-.33-.08-.42-.24-.15-.23-.07-.54.16-.69.88-.55,21.61-13.42,26.45-14.03.26-.04.52.16.56.43.03.27-.16.52-.43.56-4.63.59-25.84,13.75-26.05,13.89-.08.05-.17.08-.26.08Zm37.38-3.29c-.26,0-.48-.23-.5-.5-.03-.42.95-2.26,2.92-5.49l-3.63,3.43c-.2.19-.52.18-.71-.02-.19-.2-.18-.52.02-.71l6.45-6.1c.18-.17.47-.18.66-.02.2.16.24.44.11.65-2.28,3.6-4.71,7.67-4.82,8.24.02.28-.18.48-.46.5-.01,0-.02,0-.03,0Zm-76.56-57.28c-.1,0-.21-.03-.29-.1-1.22-.89-6.41-3.62-6.46-3.65-.25-.13-.34-.43-.21-.67.13-.25.43-.34.67-.21.22.11,5.31,2.8,6.59,3.73.22.16.27.48.11.7-.1.13-.25.2-.4.2Zm9.7-6.88s-.01,0-.02,0c-.28-.01-.49-.25-.48-.52.06-1.31,1.01-10.29,1.05-10.67.03-.27.27-.47.55-.44.27.03.47.28.44.55,0,.09-.99,9.33-1.05,10.61-.01.27-.23.48-.5.48Zm-29.56-24.5c-.14,0-.28-.06-.38-.17-3.72-4.22-2.62-12.43-2.57-12.78.04-.27.3-.46.56-.43.27.04.46.29.43.56-.01.08-1.08,8.11,2.33,11.98.18.21.16.52-.04.71-.1.08-.21.13-.33.13Zm18.96-6.84c-.05,0-.11,0-.17-.03-8.07-2.82-12.58-13.09-12.77-13.52-.11-.25,0-.55.26-.66.25-.11.55,0,.66.26.04.1,4.53,10.3,12.18,12.98.26.09.4.38.31.64-.07.21-.26.33-.47.33Z"
  />
  <path
    d="m130.04,291.07c-.05.16-.1.33-.18.53-.87,2.35-2.81,5.11-4.55,5.66-2.52.81-4.85.69-5.41.64-1.16-.94-4.44-3.56-5.3-3.73-.46-.09-.98-.04-1.43.04-.01.02-.03.04-.05.07-.08.37-.18.73-.29,1.09.43-.11,1.13-.25,1.61-.16.47.1,2.96,1.96,5,3.62.07.06.15.09.24.1.07,0,1.26.15,2.94-.03.89-.1,1.92-.28,2.99-.63,2.41-.78,4.56-4.38,5.31-6.69.15-.46.23-.85.27-1.2-.26.34-.64.6-1.14.68Z"
  />
  <path
    d="m137.61,295.66c-.31-.77-1.55-3.58-3.85-5-.38-1.71-1.07-4.4-1.76-4.85-.12-.08-.28-.16-.45-.25-.25,0-.49.02-.74.02-.05.23-.11.46-.18.69.34.15.66.3.84.42.32.3.97,2.53,1.38,4.42.03.15.12.28.25.35,2.42,1.38,3.65,4.72,3.67,4.75.05.14.15.24.27.3.61.27,1.91,2.25,1.72,4.11-.1.99-4.01,3.07-7.7,4.5l-.87-1.1c-.13-.17-.36-.23-.54-.15-3.79,1.54-4.9,3.15-6.08,4.86-1.23,1.77-2.49,3.61-7.04,5.83-8.56,4.17-14.83,1.82-16.05.96-.31-.22-.72-1.16-.65-2.31.05-.84.41-2.39,2.26-3.28,3.53-1.7,8.42-6.43,9.15-7.27.67-.76,2.37-6.29,2.87-7.96.08-.27-.06-.57-.31-.67-.25-.09-.53.05-.62.33-1.02,3.4-2.3,7.16-2.66,7.58-.62.71-5.47,5.4-8.85,7.04-2.3,1.11-2.76,3.08-2.82,4.15-.08,1.38.38,2.75,1.1,3.26.04.03,3.41,2.13,9.09,1.5,2.28-.25,4.94-.94,7.9-2.39,4.77-2.33,6.17-4.36,7.41-6.15,1.11-1.6,2.06-2.98,5.33-4.38l.87,1.09c.13.17.34.23.53.16,1.97-.75,8.43-3.35,8.64-5.48.22-2.15-1.08-4.44-2.13-5.1Z"
  />
  <path
    d="m121.49,308.31c-.07,0-.14,0-.21-.03-.16-.06-.29-.21-.32-.4l-1.73-9.37c-.05-.28.12-.56.38-.61.24-.05.52.14.57.42l1.56,8.47c.95-.92,2.09-2.11,2.31-2.56.22-.47.3-3.61.25-6.25,0-.29.21-.53.48-.53.27,0,.49.23.5.52.03,1.35.08,5.82-.35,6.74-.43.91-2.71,3.06-3.17,3.48-.08.07-.17.11-.26.12Z"
  />
  <path
    d="m108.48,316.41c-2.38.26-5.1.3-8.28.1-.27-.02-.48-.26-.47-.55.01-.29.24-.51.51-.49,12.54.81,17.84-2.3,22.33-7.59,3.66-4.31,8.05-6.41,10.95-7.8.78-.37,1.44-.69,1.94-.98,1.96-1.14,1.35-2.79,1.33-2.86-.1-.27.01-.57.26-.68.25-.11.53.02.63.29.34.89.41,2.91-1.76,4.18-.53.31-1.21.63-2,1.01-2.83,1.35-7.1,3.4-10.63,7.55-3.53,4.15-7.52,7.02-14.8,7.82Z"
  />
  <path
    d="m130.47,280.38c-.86-5.41-1.93-12.14-1.81-14.98.13-3.26-.16-4.51-.38-5.43-.12-.52-.21-.89-.18-1.5.08-1.63-.44-4.54-.59-5.31.12-.26.15-.55.09-.86-.13-.65-.64-1.27-1.01-1.65.23-.32.33-.68.36-1.03-.3-.07-.59-.15-.88-.22-.02.29-.13.59-.43.85-.1.09-.15.23-.14.38.01.15.09.3.21.39.35.29.95.91,1.03,1.36.02.12,0,.22-.06.32-.07.1-.09.23-.07.37,0,.04.69,3.51.61,5.23-.04.76.08,1.25.21,1.81.2.85.48,2.02.35,5.13-.12,2.95.91,9.45,1.82,15.2.63,3.97,1.28,8.07,1.15,8.84-.26,1.53-6.08,2.95-10.08,2.85-4.67-.12-8.1-1.27-8.75-2.93-.36-.92-.59-6.76-.86-13.52-.36-9.12-.86-21.61-2-30.67-.01-.06-.29-1.05-.63-2.53,0-.03-.01-.06-.02-.09-.13,0-.25,0-.38-.01.15.17.29.35.44.52,0,.29-.09.56-.23.83l.47.56c0,.42-.17.81-.46,1.19,1.08,8.9,1.57,21.15,1.93,30.13.34,8.4.53,12.83.94,13.88,1.2,3.08,7.15,3.56,9.65,3.62,3.47.08,10.45-1.09,10.86-3.53.15-.89-.34-4.07-1.15-9.18Z"
  />
  <line x1="127.18" y1="249.44" x2="128.59" y2="247.96" />
  <path
    d="m127.18,249.94c-.12,0-.25-.05-.34-.14-.2-.19-.21-.51-.02-.71l1.41-1.48c.19-.2.51-.21.71-.02.2.19.21.51.02.71l-1.41,1.48c-.1.1-.23.16-.36.16Z"
  />
  <path d="m113.45,291.32l.25,2.76-.25-2.76Z" />
  <path
    d="m113.71,294.58c-.25,0-.47-.19-.5-.45l-.25-2.76s0-.03,0-.05c0-.26.2-.47.46-.5.26-.02.52.18.54.45l.25,2.76s0,.03,0,.05c0,.26-.2.47-.46.5-.01,0-.03,0-.05,0Z"
  />
</svg>
