<svg xmlns="http://www.w3.org/2000/svg" viewBox="0 0 320 320" opacity="0.6">
  <path
    d="m144.77,176.96c-.09,0-.17-.03-.24-.09-.16-.13-.18-.37-.04-.53.04-.12.26-1.26.47-2.39l-.4.4c-.15.15-.38.14-.53,0-.15-.15-.14-.38,0-.53l.94-.93c.15-.15.38-.14.53,0,.11.12.14.29.07.42.14.07.22.23.19.4-.52,2.89-.63,3.03-.71,3.11-.07.09-.18.13-.29.13Zm2.27-.9c-.14,0-.27-.08-.34-.21-.09-.19-.01-.41.17-.5l1.43-.7c.19-.09.41-.01.5.17.09.19.01.41-.17.5l-1.43.7c-.05.03-.11.04-.16.04Zm8.27-3.88s-.03,0-.04,0c-.47-.02-.81-.46-1.02-.84-.15.09-.32.14-.51.07-.17-.06-.69-.25-.48-2.56-.28-.52-.3-.99-.09-1.4.48-.89,1.98-1,2.15-1.01.18-.04.38.15.39.35.01.21-.15.38-.35.4-.32.02-1.29.17-1.53.62-.1.19-.06.45.13.77.04.07.06.15.05.22-.06.67-.06,1.37,0,1.73.02-.02.03-.04.05-.07.08-.12.22-.18.36-.16.14.02.26.12.3.25.15.43.43.86.58.87h0c.06,0,.28-.14.56-.77.52-.77.95-1.73.81-2.04-.34-.72-.49-1.16-.49-1.16-.07-.2.03-.41.23-.48.19-.07.41.03.48.23,0,0,.15.42.47,1.09.4.85-.63,2.41-.84,2.72-.1.24-.51,1.15-1.21,1.15Zm-1.24-1.42h0,0Zm-3.19-5.4c-.2,0-.36-.15-.37-.35-.04-.66,0-1.58,0-1.61,0-.21.21-.34.39-.36.21,0,.37.19.36.39,0,0-.04.91,0,1.53.01.21-.14.39-.35.4,0,0-.02,0-.03,0Zm8.94-.62c-.07,0-.13-.02-.19-.05-.18-.11-.24-.34-.13-.51.29-.49.55-1.16.47-1.39-.19-.56-.5-2.23-.52-2.3-.04-.2.1-.4.3-.44.2-.03.4.1.44.3.09.47.34,1.77.49,2.2.23.68-.4,1.8-.53,2.02-.07.12-.19.18-.32.18Zm-5.55-.95c-.19,0-.35-.14-.37-.33l-.26-2c-.03-.21.12-.39.32-.42.06,0,.12,0,.18.02.14-.05.31-.02.42.11l1.06,1.22c.14.16.12.39-.04.53-.16.14-.39.12-.53-.04l-.55-.63.15,1.12c.03.21-.12.39-.32.42-.02,0-.03,0-.05,0Zm-6.33-2.17s-.03,0-.05,0c-.35-.03-.55-.31-.76-.61-.14-.2-.29-.42-.52-.61-.28-.24-.43-.54-.45-.87-.02-.44.22-.82.38-1.04-.3-1.06.43-1.98.89-2.33.16-.13.4-.1.52.07.13.16.1.4-.06.53-.04.03-.97.77-.58,1.68.06.14.03.3-.08.41-.09.09-.34.4-.33.67,0,.07.03.19.18.32.3.25.49.53.65.75.07.1.16.23.22.28.01-.02.07-.06.16-.16.15-.15.38-.15.53,0,.15.14.15.38,0,.53-.17.17-.42.39-.73.39Zm.04-.74h0,0Zm9.47.41s-.06,0-.09-.01c-.2-.05-.32-.25-.27-.45.14-.55-.15-1.1-.15-1.11-.1-.18-.03-.41.15-.51.18-.1.41-.03.51.15.02.03.43.8.22,1.64-.04.17-.2.29-.36.29Zm-2.75-1.37c-.35,0-.63-.1-.73-.39,0-.02-.61-1.74-.04-2.28.05-.04.13-.11.27-.14.07-.34.25-.79.65-.96.35-.15.76-.05,1.2.31.34.09,1.26.4,1.47,1.04.07.21.09.54-.2.91-.22.5-.66,1.29-1.19,1.36-.12.02-.24,0-.35-.05-.36.12-.75.21-1.08.21Zm-.06-.75c.19,0,.67-.09,1.08-.23.12-.04.25-.02.34.05.15-.13.41-.54.58-.93.01-.03.03-.06.05-.09.08-.1.12-.18.1-.24-.07-.22-.65-.48-1.02-.57-.06-.01-.11-.04-.16-.08-.28-.24-.44-.27-.49-.25-.12.05-.23.42-.25.69,0,.12-.07.23-.18.3-.08.05-.18.07-.27.05-.03.28.08.92.2,1.29Zm7.67-2s-.1,0-.15-.03c-.19-.08-.28-.3-.2-.49.05-.11,1.16-2.71,2.38-3.58.17-.12.4-.08.52.09.12.17.08.4-.09.52-.87.62-1.83,2.56-2.12,3.26-.06.14-.2.23-.35.23Zm-12.09-.34c-.08,0-.21-.02-.35-.13-.26-.2-.43-.59-.51-1.22-.11-.85-.84-1.25-.87-1.27-.18-.1-.25-.32-.16-.51.1-.18.32-.25.5-.16.04.02,1.1.58,1.27,1.83.06.47.16.65.2.7.15.03.27.15.3.31.03.21-.11.4-.31.43-.02,0-.04,0-.07,0Zm.1-.72h0Zm-.14-.02h0,0Zm3.02.44c-.17,0-.33-.12-.37-.3-.04-.2.09-.4.29-.44.62-.13.52-.98.51-1.01-.03-.21.12-.39.32-.42.2-.03.39.12.42.32.07.55-.06,1.64-1.1,1.85-.02,0-.05,0-.07,0Zm3.8,0c-.11,0-.22-.05-.29-.14-.13-.16-.1-.4.06-.53.51-.41,1.74-.45,1.99-.45h0c.2,0,.37.16.38.37,0,.21-.16.38-.37.38-.48,0-1.3.11-1.53.29-.07.05-.15.08-.23.08Zm.98-5.49c-.3,0-.5-.13-.62-.25-.22-.22-.31-.5-.27-.79.08-.62.76-1.22,1.28-1.6-.22-.19-.38-.46-.47-.78-.3-1.04.11-2.64.66-3.16.3-.28.43-1.66.39-2.77,0-.19.12-.35.31-.38.6-.11,1.12.03,1.52.4.56.53.8,1.46.89,2.35l1.05-2.97c.06-.17.23-.27.41-.25.18.03.31.17.32.35.02.5,1.09,1.46,1.85,1.98.12.08.18.22.16.36-.17,1.2-1.39,2.06-2.37,2.75-.55.39-1.17.83-1.24,1.1-.23.94-2.24,3.27-3.51,3.62-.13.04-.24.05-.34.05Zm1.28-2.34c-.58.35-1.37.99-1.42,1.39,0,.06,0,.11.06.17.05.05.16.02.23,0,.98-.27,2.81-2.35,2.98-3.07.05-.2.16-.39.33-.57-.08.04-.17.05-.26.03-.19-.04-.31-.22-.29-.41.1-.85.19-3.24-.64-4.01-.16-.15-.33-.22-.55-.23,0,.79-.05,2.43-.62,2.98-.3.29-.7,1.58-.46,2.41.11.39.32.52.49.57.1.01.23.05.31.15.12.15.1.36-.03.5h-.01s-.08.07-.12.09Zm3.86-6.52l-1.5,4.24s-.01.03-.02.04c.28-.26.65-.52,1.04-.8.83-.59,1.77-1.25,2.01-2.03-.38-.28-1.09-.84-1.54-1.45Zm-7.78,8.43h0c-.21,0-.37-.17-.37-.38,0-.67-1.19-1.67-1.95-2.13-.18-.11-.23-.34-.12-.52.11-.18.34-.23.52-.12.2.12,1.68,1.06,2.16,2.13.46-.83,1.18-2.21,1.26-2.84.03-.21.22-.35.42-.32.21.03.35.21.32.42-.14,1.05-1.46,3.31-1.61,3.57-.09.16-.29.23-.46.16-.05.02-.1.04-.16.04Z"
  />
  <path
    d="m150.52,170.42c-.25,0-.5-.07-.72-.2-.77-.45-1.18-1.54-1.33-2.09h-.03c-2.9,0-3.52-2.01-3.54-2.1-.03-.1-.01-.21.04-.3l.67-1.07.39-2.98c.02-.18.18-.32.37-.33h0c.18,0,.34.13.37.31.09.54.52,1.38,1.02,2.21-.13-.39-.18-.78-.15-1.17.1-1.1.88-1.71.91-1.74.13-.1.3-.11.44-.01.13.09.2.25.15.41-.37,1.39.87,2.63,1.69,3.45l.1.1c.83.83.55,2.41.4,3.01.27.3.76.94.62,1.56-.06.28-.27.65-.92.86-.16.05-.32.08-.48.08Zm-1.39-2.68c.12.47.47,1.51,1.04,1.83.19.11.38.12.6.05.17-.06.39-.16.42-.31.06-.27-.3-.77-.56-1.01-.1-.1-.14-.25-.1-.38.15-.5.41-1.91-.16-2.48l-.1-.1c-.64-.64-1.59-1.59-1.89-2.75-.01.06-.02.12-.03.19-.06.7.28,1.47,1.02,2.29.06.06.09.15.1.23l.05,1.25c0,.16-.09.31-.25.37-.15.06-.33,0-.43-.12-.08-.1-1.49-1.96-2.31-3.56l-.21,1.58c0,.05-.03.1-.05.15l-.61.97c.19.4.89,1.45,2.96,1.41.13-.04.28,0,.38.1h.01c.07.08.1.17.1.26Zm10.4-15.41s-.03,0-.04,0c-.31-.01-.58-.15-.76-.39-.28-.36-.39-.77-.32-1.17.13-.78.87-1.28.96-1.33.17-.11.41-.06.52.11.11.17.06.41-.11.52-.15.1-.56.44-.63.83-.03.19.02.38.18.58.05.07.11.09.19.1.5-.03,1.39-.69,2.09-1.37-.09-.05-.18-.12-.25-.2-.5-.51-.47-1.36-.46-1.46.01-.21.19-.36.4-.35.21.01.36.19.35.39,0,.17.02.66.25.89.06.07.17.15.42.14.13-.01.29.08.35.21.06.14.04.3-.06.41-.31.35-1.91,2.07-3.07,2.07Z"
  />
  <path
    d="m145.95,174.02c-.25,0-.44-.08-.57-.17-.34-.24-.45-.65-.49-.96-.39-.06-.62-.26-.74-.44-.44-.62-.12-1.65.01-2.01-.1-.47.06-.78.21-.96.48-.56,1.52-.57,1.97-.55.28-.28.62-.43.99-.44.87-.03,1.61.75,1.69.84.05.05.08.12.09.19.02.1.16,1.02-.36,1.62-.16.18-.43.39-.87.45.08.03.16.06.26.08.84.17,1.46-.44,1.74-1.71.05-.2.25-.33.45-.28.2.05.33.25.28.45-.56,2.5-2.15,2.38-2.62,2.28h0c.09.8-.23.97-1.38,1.46-.25.11-.47.15-.65.15Zm-.7-1.86c.1,0,.19.04.27.11.08.08.12.18.11.29-.01.21.04.58.19.68.12.08.36,0,.49-.05.31-.13.89-.38.96-.48,0-.01-.02-.11-.03-.19l-.06-.47c-.25-.19-.41-.44-.38-.69.01-.12.08-.51.76-.49.28.02.5-.06.63-.21.21-.24.22-.66.2-.89-.21-.2-.63-.54-1.04-.51-.21,0-.39.11-.56.32-.08.1-.2.14-.33.13-.49-.05-1.28,0-1.51.27-.03.04-.11.13-.03.4.02.08.02.17-.01.25-.17.42-.33,1.13-.14,1.41.07.1.23.15.47.14,0,0,.02,0,.02,0Zm7.85-9.11c-.31,0-.64-.12-.91-.24-.7-.3-1.1-.71-1.18-1.22-.13-.8.59-1.45.67-1.52.16-.13.39-.12.53.04s.12.39-.03.53c-.13.11-.48.51-.43.84.05.29.42.51.73.64.51.22.66.17.67.17,0-.06-.12-.42-.27-.69-.07-.13-.06-.29.03-.41.09-.12.25-.17.39-.13,0,0,.15.01.33-.22.13-.29-.46-1.75-1.03-2.36-.05-.05-.07-.06-.07-.06-.03.04-.17.32-.24.56-.05.2-.26.32-.46.26-.2-.05-.32-.26-.26-.46.06-.22.3-.96.82-1.09.19-.04.47-.04.76.28.58.62,1.63,2.62,1.07,3.34-.15.2-.32.32-.48.4.13.36.2.82-.07,1.12-.15.17-.36.23-.58.23Zm8.24-7.53s-.02,0-.03,0c-.81-.02-1.51-.87-1.72-1.16-.57-.28-.89-.65-.95-1.09-.1-.69.48-1.21.55-1.27.16-.13.39-.12.53.04.14.16.12.39-.04.53-.09.08-.33.36-.3.6.03.19.25.39.61.56.06.03.11.07.15.13.16.23.73.91,1.19.92.09-.02.25-.02.43-.26.02-.03.05-.05.07-.07.12-.09,1.14-.94.2-2.19-.08-.1-.1-.23-.05-.35.13-.36.19-.81.13-.92-.17-.11-.21-.34-.1-.51.11-.17.35-.21.53-.1.5.34.34,1.16.21,1.59.93,1.4.16,2.58-.42,3.05-.34.42-.72.52-.99.52Zm-5.64-.25c-.15,0-.32-.04-.5-.16,0,0-.02,0-.03,0-.05,0-1.19.14-1.79-.57-.35-.41-.44-1-.25-1.73-.09-.38-.33-1.59.31-2.23.36-.37.9-.47,1.6-.3.31-.12,1.1-.35,1.66-.03.2.12.45.35.53.81.15.35.63,1.6.28,2.27-.08.16-.2.28-.35.35-.16.43-.59,1.37-1.24,1.55-.07.02-.15.03-.23.03Zm-.82-1.23c.2,0,.42.19.7.41.09.08.13.07.15.06.25-.07.61-.7.79-1.24.04-.13.15-.22.28-.25.2-.31-.04-1.18-.27-1.71-.01-.03-.02-.07-.03-.1-.03-.21-.11-.27-.16-.31-.27-.16-.87,0-1.12.11-.08.03-.17.04-.25.02-.33-.09-.77-.15-1,.07-.35.35-.18,1.3-.1,1.6,0,.03.01.07.01.1h0s0,.08-.01.11c-.15.52-.12.91.07,1.14.14.16.35.24.56.28.01-.06.05-.12.1-.18.08-.09.17-.12.26-.12Z"
  />
  <path
    d="m189.7,190.18c-.09,0-.17-.03-.24-.09-1.59-1.36-5.52-6-5.69-6.2-.13-.16-.11-.39.04-.53.16-.13.4-.12.53.04.04.05,4.06,4.79,5.6,6.11.16.13.18.37.04.53-.07.09-.18.13-.29.13Zm-39.82-13.47s-.04,0-.07,0c-.5-.05-.74-.62-.85-1-.34-.1-.51-.3-.59-.48-.29-.63.27-1.58.52-1.95-.03-.92,1.08-2.4,1.52-2.76.22-.17.42-.22.6-.13.08.04.25.15.25.43.11.35.63.74.96.93.09.05.16.14.18.24.22,1,.14,1.82-.26,2.44-.31.48-.73.71-.97.81-.42,1.01-.83,1.47-1.28,1.47Zm.77-5.38c-.44.5-1.1,1.57-1.01,1.96.02.11,0,.22-.06.3-.33.45-.62,1.1-.53,1.31.03.07.19.08.24.09.17.01.31.14.34.3.05.28.19.6.27.66,0-.03.23-.19.63-1.16.05-.12.15-.2.27-.23.13-.03,1.25-.36.89-2.26-.26-.17-.79-.54-1.05-.98Zm5.83-3.62c-.19,0-.39-.04-.57-.14-.21-.12-.45-.38-.5-.91-.21-.18-.57-.53-.64-1-.04-.25.01-.5.14-.72-.17-.43-.43-1.35.06-1.84.44-.44,1.19-.25,1.67-.07.19-.34.52-.76.96-.76.01,0,.03,0,.04,0,.58.03.86.73,1.02,1.28.22.3.86,1.22.59,1.9-.07.18-.22.39-.55.5-.01.51-.11,1.35-.62,1.63-.18.1-.45.16-.82-.03-.19.08-.48.17-.78.17Zm-.76-4.14c-.11,0-.17.02-.2.05-.14.15-.03.75.17,1.2.06.13.04.28-.05.39-.12.15-.12.26-.11.33.04.26.36.53.47.61.1.07.17.19.17.31,0,.14.02.39.14.46.17.1.57-.02.8-.14.12-.07.27-.06.39.02.16.11.23.1.22.1.13-.06.26-.65.23-1.25,0-.19.13-.36.33-.39.07,0,.25-.04.28-.12.09-.21-.21-.81-.53-1.21-.03-.04-.05-.08-.07-.13-.2-.71-.37-.81-.38-.81-.06.03-.26.31-.38.58-.02.07-.05.13-.1.18-.13.13-.33.15-.48.05,0,0,0,0,0,0-.44-.19-.73-.25-.91-.25Zm-4.47-.22c-.42,0-.85-.24-1.29-.72-.42-.45-.62-.96-.59-1.5.03-.72.47-1.31.71-1.58-.16-.85-.04-1.45.36-1.78.64-.53,1.64-.13,1.75-.08.19.08.28.3.2.49s-.3.28-.49.2c-.22-.09-.75-.22-.97-.03-.19.16-.21.61-.07,1.24.03.13-.01.27-.11.36,0,0-.59.55-.62,1.22-.01.34.11.65.39.96.31.34.59.5.8.48.24-.04.38-.36.38-.37.08-.19.3-.28.49-.2.19.08.28.3.2.49-.03.07-.31.7-.94.82-.06.01-.13.02-.19.02Zm9.18-2.62c-.52,0-.87-.17-1.05-.49-.2-.36-.1-.81.05-1.17-.22-.03-.44-.1-.63-.27-.31-.29-.4-.75-.26-1.37.06-.26.16-.46.27-.6-.03-.01-.05-.03-.07-.05-.26-.24-.29-.61-.07-1,.35-.61,1.35-1.3,2.33-1,1.15.35,1.21,1.47,1.09,2.01-.02.08-.06.15-.12.2,1.21-.22,1.67-.14,1.81.25.07.2.22.6-1.56,1.58.15.43.23.89,0,1.27-.25.39-.78.6-1.65.64-.05,0-.09,0-.13,0Zm-.34-2.47c.12,0,.23.06.3.15.09.13.1.3,0,.44-.24.35-.45.86-.36,1.02.03.06.18.12.49.1.81-.04,1.01-.22,1.06-.29.1-.17-.03-.55-.18-.9-.07-.18,0-.39.17-.48.41-.21.82-.46,1.11-.67-.28.03-.71.1-1.35.24-.11.03-.23,0-.32-.07-.41-.33-1.14-.73-1.49-.61-.05.02-.19.06-.26.4-.07.32-.06.56.04.65.14.13.5.08.67.03.04-.01.07-.02.11-.02Zm-.41-1.84c.66,0,1.37.46,1.68.68.08-.02.17-.03.24-.05-.18-.06-.28-.25-.24-.44.02-.09.17-.9-.57-1.13-.33-.1-.74,0-1.1.27-.29.22-.41.45-.41.52.06.05.09.11.11.18.09-.02.19-.03.29-.03Zm3.12-5.38c-.2,0-.37-.16-.37-.36,0-.21.15-.38.36-.39.07,0,1.44-.13,1.57-2.52.02-.57.12-2.49.39-3.01.08-.16.33-.29.51-.23.66.21.37,2.93.36,2.96-.03.19-.11.7-.53.7h0c-.31,2.75-2.24,2.86-2.26,2.86h-.01Z"
  />
  <path
    d="m189.7,196.04s-.09,0-.13-.02c-1.13-.43-2.66-1.72-2.46-2.62.06-.25.28-.66,1.21-.59,1.54.14,4.01-2.78,4.57-4.05.28-.73-1.08-7.67-2.56-13.96-.05-.2.08-.4.28-.45.2-.05.4.08.45.28.52,2.19,3.07,13.18,2.52,14.44-.53,1.22-3.19,4.65-5.32,4.5-.34-.03-.43.04-.43.04-.02.23.9,1.29,2.02,1.72.19.07.29.29.22.48-.06.15-.2.24-.35.24Z"
  />
  <path
    d="m177.78,293.61c-.42,0-.72-.01-.84-.02-.18,0-.33-.15-.36-.33-.02-.18.08-.35.26-.41,2.11-.67,6.52-12.48,8.97-20.25.06-.2.27-.31.47-.25.2.06.31.27.25.47-.57,1.83-5.26,16.5-8.49,20.03,1.92-.02,4.3-.31,4.73-1.1.1-.18.33-.25.51-.15.18.1.25.33.15.51-.73,1.32-4.04,1.49-5.65,1.49Zm1.21-10.67c-.79,0-1.74-.22-2.65-1-1.99-1.69-5.83-16.33-6.27-17.99-.05-.2.07-.41.27-.46.2-.05.41.07.46.27,1.16,4.46,4.5,16.31,6.02,17.61,1.73,1.47,3.63.52,3.71.48.18-.09.41-.02.51.16.1.18.02.41-.16.5-.06.03-.84.43-1.89.43Zm-18.98-.01s-.07,0-.11-.02c-4.54-1.37-10.6-11.44-10.6-11.93,0-.21.17-.38.38-.38.17,0,.32.12.36.28.27.63,5.82,10.02,10.08,11.3.2.06.31.27.25.47-.05.16-.2.27-.36.27Zm-9.96-11.94h0,0Zm35.07-11.48c-.09,0-.17-.03-.24-.09-2.26-1.92-14.26-23.3-14.77-24.21-.1-.18-.04-.41.14-.51.18-.1.41-.04.51.14,4.29,7.66,12.87,22.54,14.6,24.01.16.13.18.37.04.53-.07.09-.18.13-.29.13Zm-28.48-6.54c-.08,0-.16-.03-.23-.08-1.97-1.53-10.29-24.79-11.24-27.44-.07-.2.03-.41.23-.48.2-.07.41.03.48.23,3.67,10.31,9.63,26.04,10.99,27.1.16.13.19.36.07.53-.07.1-.18.15-.3.15Zm3.3-32.84c-.16,0-.3-.1-.36-.26-2.58-7.87-16.32-22.08-16.46-22.22-.14-.15-.14-.39,0-.53.15-.14.39-.14.53,0,.57.59,14,14.48,16.63,22.51.06.2-.04.41-.24.47-.04.01-.08.02-.12.02Zm29.88-21.26c-.13,0-.23-.03-.25-.04-.19-.07-.29-.29-.22-.48.07-.19.27-.28.46-.23.17.03.68-.29,1.05-1.96.56-2.51.39-4.94.38-4.97-.02-.21.14-.39.35-.4.21-.02.39.14.4.35,0,.1.18,2.56-.4,5.18-.29,1.3-.72,2.12-1.29,2.42-.19.1-.35.13-.48.13Zm-43.43-2.27c-.17,0-.33-.12-.37-.3-.23-1.1.47-8.75.55-9.62.02-.21.21-.36.41-.34.21.02.36.2.34.41-.31,3.36-.72,8.64-.56,9.39.04.2-.09.4-.29.45-.03,0-.05,0-.08,0Zm-7.59-2.6c-.08,0-.15-.02-.22-.07-.17-.12-.2-.36-.08-.52.21-.34,1.84-4.64,2.81-7.26.07-.19.29-.29.48-.22.19.07.29.29.22.48-.61,1.65-2.63,7.07-2.91,7.45-.07.1-.19.15-.3.15Zm-3.74-9.49c-.51,0-.91-.17-1.23-.36-.03-.02-.06-.04-.08-.05-.19-.08-.28-.3-.2-.49.08-.19.28-.28.47-.21.05.02.11.05.19.1.4.23,1.32.76,3.17-1.03,2.88-2.8,4.64-5.3,4.82-6.84.04-.32.11-.83.2-1.47.44-3.13,1.37-9.65.71-11.9-.06-.2.06-.41.25-.46.2-.06.41.05.47.25.71,2.4-.2,8.79-.68,12.22-.09.63-.16,1.14-.2,1.46-.27,2.34-3.28,5.57-5.04,7.29-1.19,1.15-2.11,1.5-2.83,1.5Zm-6.75-38.59c-.18,0-.35-.04-.51-.11-.87-.39-1.22-1.68-1.26-1.83-.05-.2.07-.4.27-.46.2-.06.4.07.46.27.07.28.38,1.13.84,1.33.1.04.26.09.52-.04.3-.15.48-.33.51-.49.03-.21-.2-.43-.2-.43-.15-.14-.16-.38-.02-.53.14-.15.37-.16.53-.02.05.05.52.49.44,1.08-.06.42-.36.78-.91,1.06-.22.11-.44.17-.66.17Z"
  />
  <path
    d="m121.98,164.52c-.32,0-.5-.09-.62-.24-.34-.41,0-.97.41-1.61.2-.31.42-.67.47-.9.3-1.24,7.39-10.03,8.53-10.83.85-.59,1.39-5.2,1.3-6.78-.05-.88-1.76-2.95-2.83-4.04-.15-.15-.14-.38,0-.53.15-.14.39-.14.53,0,.3.31,2.96,3.07,3.04,4.52.07,1.2-.29,6.5-1.62,7.43-1.16.81-8.01,9.45-8.23,10.39-.08.35-.33.74-.57,1.12-.13.2-.32.52-.4.71.22,0,.81-.1,2.32-.69.19-.07.41.02.49.21.08.19-.02.41-.21.49-1.37.53-2.15.74-2.62.74Zm9.02-2.73c-.06,0-.12-.02-.18-.05-.18-.1-.24-.33-.14-.51.03-.06,3.12-5.56,3.78-6.89.4-.82-.85-4.08-1.88-6.13-.09-.19-.02-.41.17-.5.19-.09.41-.02.5.17.44.88,2.59,5.35,1.88,6.79-.66,1.35-3.67,6.7-3.8,6.93-.07.12-.2.19-.33.19Z"
  />
  <path
    d="m135.79,156.17c-2.49,0-5.71-3.74-5.86-3.91-.13-.16-.12-.39.04-.53.16-.13.39-.12.53.04.96,1.13,3.84,3.97,5.59,3.62,1.28-.26,1.39-.81,1.46-1.22.04-.21.08-.44.29-.57.13-.08.29-.1.46-.06.2.05.32.26.27.46-.04.14-.15.24-.28.27,0,.01,0,.03,0,.04-.09.47-.27,1.45-2.05,1.82-.15.03-.3.04-.45.04Z"
  />
  <path
    d="m182.71,196.61c-.18,0-.38-.02-.59-.05-.2-.04-.34-.23-.3-.44.04-.2.23-.34.44-.3,1.42.26,2.1-.79,2.1-.8.07-.11.18-.17.3-.18.2,0,.35-.08.47-.22.62-.76.24-3.08.06-4.2-.08-.49-.12-.76-.12-.92.01-.45-.47-2.3-.9-3.93-.17-.63-.33-1.26-.47-1.83-.56-2.22.31-7.87.34-8.11.03-.2.23-.35.43-.31.21.03.35.22.31.43,0,.06-.88,5.73-.36,7.81.14.57.31,1.19.47,1.82.59,2.24.94,3.63.93,4.15,0,.1.05.44.11.78.23,1.41.61,3.78-.22,4.8-.21.26-.5.42-.83.48-.26.33-.97,1.04-2.17,1.04Zm-45.08-41.24c-.18,0-.35-.14-.37-.32-.57-4.16-5.02-8.75-5.07-8.79-.15-.15-.14-.39,0-.53.15-.14.39-.14.53,0,.19.19,4.68,4.81,5.28,9.22.03.21-.12.39-.32.42-.02,0-.03,0-.05,0Zm.59-1.62h-.02c-.21,0-.37-.18-.36-.39.37-8.78-6.51-11.7-6.81-11.82-.19-.08-.28-.3-.21-.49.08-.19.3-.28.49-.21.08.03,7.66,3.23,7.27,12.54,0,.2-.17.36-.37.36Zm19.76-6.09c-.11,0-.22-.05-.29-.14-.13-.16-.1-.4.06-.53.99-.78,9.44-11.6,12.61-15.7.13-.16.36-.19.53-.07.16.13.19.36.07.53-.47.6-11.47,14.83-12.74,15.83-.07.05-.15.08-.23.08Zm-20.13-4.5c-.25,0-.35-.28-.57-.94-.45-1.32-4.1-3.76-5.47-4.59-.18-.11-.23-.34-.13-.51s.34-.23.52-.13c.46.28,4.12,2.53,5.41,4.3.18-.03.34.1.39.28.34,1.25.39,1.45,0,1.57-.06.02-.11.03-.15.03Z"
  />
  <path
    d="m187.56,205.36c-.16,0-.31-.1-.36-.27-.17-.57.27-1.58,1.02-3.17.5-1.07,1.01-2.17,1.11-2.85.13-.93-.32-1.23-1.46-1.88-.33-.19-.69-.39-1.07-.64-1.58-1.03-5.83-2.09-5.88-2.1-4.42-2.24-14.11-3.53-18.77-4.15-1.75-.23-2.6-.35-2.91-.44-1.23-.38-10.3-5.55-10.68-5.77-.18-.1-.24-.33-.14-.51.1-.18.33-.24.51-.14,2.61,1.49,9.58,5.42,10.53,5.71.26.08,1.37.23,2.78.42,5.06.67,14.47,1.93,18.93,4.19.1.01,4.35,1.07,6.03,2.17.36.24.71.44,1.03.61,1.1.62,2.05,1.17,1.84,2.63-.11.79-.65,1.94-1.17,3.06-.43.92-1.08,2.32-.98,2.64.06.2-.05.41-.25.47-.04.01-.07.02-.11.02Zm2.66-23.74c-.16,0-.3-.1-.36-.26-.46-1.4.84-9.44.99-10.35.03-.21.23-.34.43-.31.2.03.34.23.31.43-.56,3.38-1.32,9.07-1.02,9.99.06.2-.04.41-.24.47-.04.01-.08.02-.12.02Z"
  />
  <path
    d="m137.55,191.53s-.1,0-.14-.03c-.09-.03-2.1-.86-2.92-1.57-.64-.55-1.18-2.06-1.88-4.15-.15-.46-.3-.9-.44-1.27-.5-1.38,1.1-8.86,2.79-16.4.22-.99.42-1.86.57-2.55.96-4.43,3.97-15.33,4-15.44.06-.2.26-.32.46-.26.2.05.32.26.26.46-.03.11-3.03,10.99-3.99,15.4-.15.68-.34,1.56-.57,2.55-1.07,4.77-3.29,14.69-2.82,15.98.14.38.29.82.44,1.29.47,1.42,1.12,3.36,1.65,3.82.73.63,2.69,1.43,2.71,1.44.19.08.28.3.21.49-.06.15-.2.23-.35.23Zm20.84-3.15c-.15,0-.29-.09-.35-.24-.08-.19.02-.41.21-.49.12-.05,2.98-1.15,10.3-1.75,2.88-.24,4.95-.62,6.47-.9,2.44-.45,3.78-.7,5.3.19.18.1.24.33.13.51-.1.18-.33.24-.51.13-1.28-.75-2.45-.53-4.79-.1-1.53.28-3.63.67-6.54.91-7.18.59-10.06,1.69-10.09,1.7-.04.02-.09.03-.14.03Zm-37.02-70.79c-.11,0-.23-.05-.3-.15-.12-.17-.09-.4.07-.53l1.17-.88-.58-.21c-.19-.07-.3-.29-.22-.48.07-.19.29-.3.48-.22l1.23.45c.13.05.22.16.24.3.02.14-.04.27-.15.36l-1.72,1.3c-.07.05-.15.08-.23.08Z"
  />
  <path
    d="m156.21,294.03c-2.65,0-6.1-1.22-6.48-1.59-.23-.23-.44-1.18-1.56-9.88-.15-1.13-.27-2.11-.36-2.73-.38-2.76-1.35-17.36-1.42-19.19-.04-.98-.45-3.96-.92-7.4-.45-3.26-.96-6.95-1.25-9.7-.4-3.76-1.25-6.95-2.07-10.04-.4-1.48-.77-2.88-1.07-4.27-.47-2.18-1.12-6.69-1.7-10.67-.54-3.72-1.05-7.23-1.29-8.08-.5-1.71-1.9-10.97-1.5-12.58.36-1.45.88-9.84.88-9.92.01-.21.19-.39.4-.35.21.01.36.19.35.4-.02.35-.53,8.54-.91,10.05-.34,1.38.99,10.45,1.49,12.19.26.9.75,4.27,1.32,8.18.58,3.97,1.23,8.47,1.69,10.62.29,1.37.67,2.76,1.06,4.23.79,2.97,1.69,6.33,2.09,10.15.29,2.74.8,6.43,1.25,9.68.48,3.46.89,6.45.93,7.47.07,1.82,1.04,16.37,1.42,19.12.09.62.21,1.6.36,2.73.39,3.06,1.11,8.67,1.37,9.46.56.31,4.35,1.65,6.77,1.31l.31-.04c2.34-.33,5.88-.83,6.2-2.5.19-1.02.1-4.48.02-7.83-.08-3.22-.16-6.26-.02-7.54.32-2.83.5-15.51.15-16.41-.28-.62-.09-1.51.08-2.3.08-.37.2-.93.15-1.07-.16-.32,0-.68.24-1.24.43-1,1.16-2.68.52-5.06-.02-.06-.02-.11,0-.17.01-.06,1.11-5.75.27-9.3-.05-.2.08-.4.28-.45.2-.05.4.08.45.28.83,3.51-.1,8.78-.24,9.54.67,2.58-.14,4.45-.58,5.46-.11.25-.25.57-.24.66.16.3.04.84-.11,1.51-.14.64-.31,1.44-.13,1.83.48,1.04.19,14.31-.09,16.8-.14,1.23-.06,4.39.02,7.44.09,3.55.18,6.89-.03,7.99-.42,2.21-4.12,2.73-6.83,3.11l-.31.04c-.3.04-.62.06-.95.06Z"
  />
  <path
    d="m175.63,300c-.1,0-.19,0-.27,0-1.61-.13-2.19-1.4-2.53-2.16-.1-.22-.19-.43-.27-.53-.28-.33-.24-.8-.18-1.45.08-.83.18-1.96-.33-3.32-.41-1.1-.27-2.66-.11-4.32.21-2.16.44-4.61-.55-6.37-1.1-1.98-1.2-7.41-1.29-12.2-.06-3.09-.11-6.01-.45-6.84-.43-1.03-.41-2.82-.4-4.71.02-2.26.04-4.83-.71-6.3-.9-1.76-3.02-9-4.73-14.82-1.02-3.49-1.91-6.51-2.25-7.37-.91-2.33-5.52-30.42-5.72-31.62-.03-.2.1-.4.31-.43.21-.03.4.11.43.31.05.29,4.8,29.21,5.68,31.47.35.9,1.24,3.92,2.27,7.43,1.7,5.79,3.81,12.99,4.68,14.69.83,1.63.81,4.3.79,6.65-.01,1.81-.03,3.52.34,4.42.4.96.45,3.68.51,7.12.08,4.47.18,10.03,1.2,11.85,1.1,1.97.85,4.54.64,6.8-.15,1.57-.29,3.05.06,3.99.57,1.52.46,2.8.38,3.65-.03.36-.07.81,0,.9.15.17.26.42.38.7.33.72.73,1.62,1.9,1.72,1.91.15,8.81-1.78,9.86-3.23.89-1.22.89-1.45.88-2.93,0-.39,0-.86.02-1.44l.03-1.25c.09-3.61.25-10.34.65-13.14.48-3.38.4-15.93.02-17.02-.22-.64-.27-1.97-.33-3.38-.05-1.33-.12-3.15-.38-3.51-.33-.45-.27-1.31-.18-2.73.11-1.76.27-4.17-.33-6.63-1.03-4.22-5.42-17.49-5.46-17.62-.06-.2.04-.41.24-.47.2-.07.41.04.47.24.04.13,4.44,13.43,5.48,17.68.63,2.57.47,5.05.35,6.86-.06.99-.13,2.01.04,2.25.37.51.44,1.82.52,3.92.05,1.29.1,2.63.28,3.16.51,1.44.43,14.46.02,17.38-.39,2.75-.55,9.45-.64,13.05l-.03,1.25c-.02.58-.02,1.04-.02,1.42,0,1.54,0,1.95-1.03,3.37-1.25,1.72-7.94,3.55-10.26,3.55Z"
  />
  <path
    d="m184.54,239.07c-.12,0-.25-.06-.32-.17-.11-.18-.06-.41.12-.52.98-.62,1.7-5.09,1.54-6.7-.16-1.64.6-4.46.99-5.56.25-.69-.1-4.14-.38-6.21-.01-.03-.03-.06-.03-.08-.07-.29.05-.81,1.47-2.47,1.31-1.54.33-6.12-.16-7.76-.02-.06-.02-.12,0-.18.3-1.6-.33-3.69-.5-4.2-.51-.36-2.33-1.97-2.24-6.22-.77.7-2.14,1.52-4.26,1.32-3.32-.31-21.19-6.83-24.72-8.83-1.64-.93-3.85-1.92-5.8-2.8-2.85-1.28-3.95-1.8-4.21-2.2-.47-.71-.8-1.62-.81-1.66-.07-.2.03-.41.23-.48.19-.07.41.03.48.22,0,0,.32.87.74,1.5.23.29,2.18,1.16,3.89,1.93,1.97.88,4.19,1.88,5.87,2.83,3.49,1.98,21.15,8.44,24.42,8.74,3.02.25,4.29-1.83,4.3-1.85.09-.15.27-.22.44-.17.17.05.27.22.26.39-.47,5.21,1.91,6.69,1.93,6.7.07.04.13.11.16.2.04.11.93,2.6.59,4.62.23.79,1.74,6.33-.01,8.37-1.03,1.21-1.25,1.67-1.3,1.81,0,.02.02.05.02.08.08.56.74,5.54.35,6.64-.36,1.01-1.1,3.74-.95,5.24.14,1.46-.42,6.48-1.89,7.4-.06.04-.13.06-.2.06Zm2.47-19.63s0,0,0,0c0,0,0,0,0,0Zm0,0h0,0Zm0,0h0,0Zm0,0s0,0,0,0c0,0,0,0,0,0Zm0,0s0,0,0,0t0,0Zm0,0s0,0,0,0c0,0,0,0,0,0Zm0,0h0,0Z"
  />
  <path
    d="m136.17,189.29c-.14,0-.27-.07-.33-.2-.1-.18-.02-.41.16-.51.41-.22,10.19-5.3,13.84-5.3s10.88.37,10.96.37c.21.01.37.19.36.39-.01.21-.19.36-.39.36-.07,0-7.37-.37-10.92-.37s-13.39,5.17-13.49,5.22c-.06.03-.11.04-.17.04Zm42.41-20.42c-.07,0-.14-.02-.21-.06-.86-.56-.92-2.15-.8-2.71.06-.31.21-.49.42-.52.07,0,.31-.03.48.25.41.27,4.84.39,6.74-.94,1.5-1.05.61-5.59.14-7.25-.06-.2.06-.41.26-.46.2-.05.41.06.46.26.19.66,1.77,6.53-.43,8.07-1.77,1.24-5.58,1.42-7.07,1.11-.12-.02-.22-.05-.31-.08-.02.52.11,1.4.51,1.66.17.11.22.35.11.52-.07.11-.19.17-.31.17Zm11-3.44c-.22,0-.48-.03-.74-.12-.28-.1-.94-.32-.25-9.32.02-.21.21-.38.4-.35.21.02.36.2.35.4-.29,3.73-.42,7.87-.16,8.59.48.13.9-.02.9-.03.19-.07.41.03.48.22s-.02.41-.21.48c-.02,0-.33.13-.77.13Zm-.38-.74h0,0Zm-11.04-3.04c-.16,0-.31-.1-.36-.26-.06-.2.04-.41.24-.47,1.02-.33.93-3.41.73-4.85-.03-.21.11-.39.32-.42.2-.03.39.11.42.32.07.52.67,5.06-1.24,5.67-.04.01-.08.02-.12.02Zm-55.77-16.93c-.3,0-.56-.04-.72-.16-.1-.07-.16-.16-.2-.26-.3-.15-1.44-.27-2-.33-.44-.04-.83-.09-1.05-.13-.83-.17-2-1.91-2.34-2.44-.11-.17-.06-.41.11-.52.18-.11.41-.06.52.11.61.96,1.5,2.03,1.85,2.11.21.04.57.08.98.12,1.67.17,2.44.3,2.62.74.24.04.85-.03,1.44-.16.33-.27,1.5-1.2,2.45-1.06.35.05.64.23.84.52.02.02.03.04.04.06.08-.12.18-.32.25-.47.26-.54.59-1.21,1.22-1.26.02-.08-.17-.52-.27-.75-.19-.43-.34-.78-.27-1.07.05-.2.26-.32.46-.27.2.05.32.26.27.46,0,.07.14.38.23.58.23.53.47,1.07.23,1.47-.08.13-.25.3-.58.33-.2.02-.46.53-.61.84-.23.47-.45.92-.88.95-.4.02-.63-.33-.71-.45-.08-.12-.18-.18-.31-.2-.6-.08-1.62.68-1.93.95-.05.04-.1.07-.16.08-.4.09-.98.21-1.47.21Zm-.88-.4h0,0Zm-.06-.14h0Zm34.52-6.97c-1.38,0-2.56-.14-2.83-.18-.21-.03-.35-.22-.32-.42.03-.21.21-.34.42-.32,1.55.21,5.82.46,6.86-.83,1.32-1.62,1.57-2.25,1.58-2.26.07-.19.29-.29.48-.22.19.07.29.28.22.48-.03.07-.29.75-1.7,2.48-.84,1.03-2.94,1.28-4.72,1.28Z"
  />
  <path
    d="m183.36,158.16c-.65,0-1.25-.09-1.56-.36-.32-.28-.68-.51-1.22-.86-.52-.34-1.23-.8-2.22-1.51-1.53-1.12-1.27-2.5-1.06-3.6.09-.45.17-.88.11-1.22-.26-1.47,1.86-3.05,2.1-3.23.17-.12.4-.08.52.08.12.17.08.4-.08.52-.52.38-1.96,1.64-1.8,2.49.08.47,0,.96-.11,1.49-.2,1.04-.38,2.02.77,2.86.96.7,1.64,1.14,2.18,1.49.55.36.94.61,1.31.93.31.28,1.92.19,3.26-.07,1.76-1.4,2.9-2,3.38-1.79.27-.07,1.28-1.5,1.28-2.64s-.35-3-.42-3.39c-.69-.95-1.57-2.01-1.82-2.11l-.43-.04c-.21-.02-.36-.2-.34-.41.02-.21.2-.36.41-.34l.47.04c.42.04,1.21.87,2.36,2.48.03.04.05.09.06.14.02.09.46,2.24.46,3.62,0,1.2-.87,2.74-1.59,3.21-.33.22-.58.18-.73.12-.28,0-1.63.91-2.68,1.75-.05.04-.1.06-.16.07-.44.09-1.49.28-2.43.28Zm10.31-4.85c-.16,0-.31-.1-.36-.27-.43-1.44-3.92-8.58-3.95-8.66-.09-.19-.01-.41.17-.5.19-.09.41-.01.5.17.14.3,3.54,7.27,4,8.77.06.2-.05.41-.25.47-.04.01-.07.02-.11.02Zm-71.62-.98c-.23,0-.47-.02-.75-.07-.2-.04-.34-.23-.3-.43.04-.2.23-.34.43-.3.93.16,1.6-.02,1.95-.52.29-.42.28-.99.1-1.28-.51-.83.05-2.03.46-2.9.07-.15.13-.29.18-.41.17-.39-.29-1.46-.64-2.06-.11-.18-.05-.41.13-.51.18-.11.41-.05.51.13.18.3,1.06,1.86.69,2.74-.05.13-.12.27-.19.43-.3.64-.79,1.71-.5,2.2.31.5.36,1.38-.12,2.09-.25.37-.81.91-1.95.91Zm-6.56-2.43c-.09,0-.18-.02-.27-.06-.6-.27-1.28-1.23-1.35-1.34-.12-.17-.08-.4.09-.52.17-.12.4-.08.52.09.22.32.66.86.98,1.05.14-.23.26-1.01.01-1.65-.4-1.03,1.06-4.22,1.52-5.18.09-.19.31-.27.5-.18.19.09.27.31.18.5-.87,1.81-1.69,4.08-1.5,4.58.33.86.22,2.08-.24,2.51-.13.12-.29.18-.44.18Zm61.76-1.46c-.14,0-.28-.08-.34-.21-1.1-2.33,2.45-10.76,2.85-11.71.08-.19.3-.28.49-.2.19.08.28.3.2.49-1.07,2.5-3.67,9.38-2.86,11.1.09.19,0,.41-.18.5-.05.02-.11.04-.16.04Zm-.19-9.4h0c-.21,0-.37-.17-.37-.38.04-2.27,3.01-9.43,3.14-9.73.08-.19.3-.28.49-.2.19.08.28.3.2.49-.03.07-3.04,7.33-3.08,9.46,0,.21-.17.37-.38.37Z"
  />
  <path
    d="m186.4,174.34c-.1,0-.2-.04-.28-.12-.14-.15-.13-.39.02-.53,4.73-4.38,7.5-15.04,7.53-15.14.05-.2.26-.32.46-.27.2.05.32.26.27.46-.11.45-2.86,10.98-7.75,15.51-.07.07-.16.1-.25.1Zm-11.98-10.88c-.11,0-.23-.05-.3-.15-.18-.24-.55-.73,4.73-8.02.12-.17.36-.2.52-.08.17.12.21.36.08.52-2.23,3.08-4.56,6.58-4.68,7.25.04.15,0,.31-.13.41-.07.05-.15.07-.22.07Zm-47.21-25.16s-.01,0-.02,0c-.21-.01-.37-.19-.35-.39.02-.41.54-10.18,2.05-13.66.84-1.95.82-2.64.8-3.19-.01-.44-.03-.85.32-1.62.71-1.55,1-5.07.63-6.01-.42-1.06-2.29-6.87-2.45-7.48-.03-.13-.13-.16-.19-.17-.04.54.26,2.58.37,3.33.03.2-.11.4-.31.43-.2.03-.4-.11-.43-.31-.04-.28-.42-2.75-.42-3.36,0-.44.28-.77.7-.82.4-.05.88.18,1.01.73.15.6,2.01,6.34,2.42,7.39.47,1.2.11,4.96-.64,6.6-.28.6-.27.89-.25,1.28.02.63.04,1.41-.87,3.51-1.45,3.36-1.98,13.3-1.99,13.41-.01.2-.18.36-.37.36Z"
  />
  <path
    d="m126.7,110.38c-.18,0-.36-.06-.51-.21s-.15-.38,0-.53.38-.15.53,0c.08.02.39-.17.62-.38.18-.6-1-1.72-2.93-2.78-.46-.25-1.98.27-2.2.55-.04.22.25,1.63.57,2.77.06.2-.06.41-.26.46-.2.06-.41-.06-.46-.26-.53-1.9-.69-3.04-.48-3.38.32-.51,2.32-1.28,3.2-.81,1.49.82,3.9,2.41,3.23,3.82-.02.04-.05.08-.08.11-.14.13-.69.63-1.22.63Z"
  />
  <path
    d="m119.71,138.3s-.05,0-.07,0c-.2-.04-.33-.24-.29-.44.99-4.94,2.82-14.63,2.77-16.43-.9-1.54-2.85-5-2.78-5.78.04-.38.33-1.66.84-2.03,0-.01,0-.03,0-.04.03-.45.08-1.39,1.07-2.4.43-.44.82-1.03,1.19-1.61.75-1.15,1.47-2.25,2.47-1.9,1.26.42,3.31,4.26,3.2,4.93-.02.11.03.54.07.85.12,1.05.15,1.54-.07,1.81-.06.08-.23.17-.33.18l-.38.03c-.2.01-.39-.14-.41-.34-.02-.21.14-.39.34-.41l.19-.02c.02-.27-.05-.84-.09-1.17-.06-.52-.1-.85-.06-1.06-.04-.48-1.79-3.79-2.7-4.09-.45-.16-1.04.74-1.61,1.6-.39.6-.8,1.23-1.28,1.72-.79.81-.83,1.53-.86,1.92,0,.17-.03.55-.34.63-.15.19-.44.9-.5,1.48,0,.45,1.41,3.16,2.72,5.4.03.05.05.1.05.16.15,2.06-2.66,16.12-2.78,16.71-.04.18-.19.3-.37.3Zm.75-24.79h0,0Z"
  />
  <path
    d="m127.38,118.21c-.11,0-.23-.03-.34-.09-.37-.19-1.85-1.12-1.99-1.67-.05-.2.07-.4.27-.45.2-.05.4.07.46.27.1.18,1,.88,1.61,1.19.06-.04.18-.36.24-.66-1.23-2.62-2.68-5.46-3.02-5.74-.21-.05-1.26.43-2.2,1.05-.17.11-.41.07-.52-.11-.11-.17-.07-.41.11-.52.84-.55,2.35-1.43,3-1.06.57.32,2.35,4,3.37,6.17.03.07.04.14.03.21-.04.25-.19,1.08-.69,1.34-.1.05-.2.08-.31.08Z"
  />
  <path
    d="m148.42,150.91c-.08,0-.17-.03-.23-.08-.16-.13-.19-.37-.06-.53.77-.96,18.99-23.62,20.34-24.83,1.32-1.17,5.39-6.07,5.43-6.12.13-.16.37-.18.53-.05.16.13.18.37.05.53-.17.2-4.15,4.99-5.51,6.2-1.04.93-13.71,16.59-20.26,24.74-.07.09-.18.14-.29.14Zm-7.56-5.6s-.07,0-.11-.02c-.2-.06-.31-.27-.25-.47.07-.62-1.87-4.93-2.81-7-.44-.97-.79-1.75-.93-2.11-.51-1.3-1.93-3.47-2.28-3.97-.1-.14-.14-.31-.09-.47.09-.37.52-.58,1.18-.89.68-.33,1.52-.73,2.09-1.37.98-1.1,2.08-1.47,2.67-1.67.14-.05.29-.1.35-.13.26-.15,1.4-1.05,2.11-1.62.16-.13.4-.1.53.06.13.16.1.4-.06.53-.18.15-1.81,1.46-2.19,1.68-.12.07-.29.13-.49.2-.56.19-1.5.5-2.34,1.46-.66.75-1.62,1.21-2.32,1.54-.25.12-.56.27-.71.37.51.73,1.78,2.73,2.28,4.01.14.36.49,1.12.91,2.07,2.08,4.6,3.03,6.9,2.84,7.53-.05.16-.2.26-.36.26Zm36.63-1.45c-.14,0-.27-.08-.34-.21-.29-.59-.35-1.23-.47-2.51-.11-1.22-.28-3.05-.76-6.01-.99-6.05,3.79-11.14,4-11.35.14-.15.38-.16.53-.01.15.14.16.38.01.53-.05.05-4.73,5.04-3.8,10.72.49,2.98.66,4.83.77,6.06.11,1.19.16,1.78.4,2.25.09.19.02.41-.17.5-.05.03-.11.04-.17.04Zm-16.43-15.92c-.21,0-.38-.17-.38-.38v-1.05c0-.21.17-.38.38-.38s.38.17.38.38v1.05c0,.21-.17.38-.38.38Zm-35.93-10.18c-.66,0-1.59-.17-1.94-.52-.17-.17-.23-.4-.17-.61.08-.27-.12-.96-.28-1.35-.08-.19,0-.41.2-.49.19-.08.41,0,.49.2.08.19.46,1.13.33,1.76.26.17,1.17.3,1.57.26-.02-.15-.12-.53-.57-1.36l-.15-.29c-.81-1.61-1.19-2.02-1.36-2.08-.26-.08-1.48.37-2.61.96-.18.1-.41.02-.51-.16-.1-.18-.02-.41.16-.51.74-.38,2.52-1.24,3.21-1,.55.2,1.09,1.08,1.78,2.45l.14.28c.58,1.08.76,1.7.61,2.08-.07.16-.19.28-.36.33-.12.04-.32.06-.55.06Zm4.07-4.5s-.06,0-.09,0l-1.46-.35c-.2-.05-.33-.25-.28-.45.05-.2.25-.32.45-.28l1.46.35c.2.05.33.25.28.45-.04.17-.19.29-.36.29Z"
  />
  <path
    d="m184.74,175.76c-.23,0-.45-.02-.67-.08-1.97-.47-7.94-5.06-9.63-10.23-1.57-4.78,1.77-13.1,2.34-14.46-.28-.47-.77-1.45-.52-2.03.21-.48,2.12-3.3,3.53-3.73.2-.06.41.05.47.25.06.2-.05.41-.25.47-1.03.32-2.83,2.78-3.06,3.32-.08.17.2.9.57,1.5.07.1.08.24.03.35-.04.09-3.97,9.27-2.39,14.11,1.63,4.99,7.45,9.35,9.1,9.74,1.44.35,3.27-.95,4.74-1.99.26-.18.51-.36.74-.51,1.11-.75,2.6-4.29,4-9.48.53-1.98.35-4.4.15-6.95-.14-1.79-.28-3.65-.19-5.51.14-2.8-.35-6.43-.77-9.62-.25-1.91-.5-3.72-.58-5.17-.22-3.74-2.71-9-2.74-9.05-.09-.19-.01-.41.18-.5.19-.09.41,0,.5.18.1.22,2.58,5.44,2.81,9.33.08,1.42.32,3.21.58,5.11.43,3.23.92,6.89.78,9.76-.09,1.81.05,3.64.19,5.42.2,2.62.39,5.1-.18,7.2-.86,3.19-2.55,8.73-4.3,9.91-.23.15-.47.32-.72.5-1.4.98-3.09,2.18-4.68,2.18Zm-56.48-35.53s-.08,0-.12-.02c-.2-.06-.3-.27-.24-.47,0,0,0,0,0,0,.03-.1.51-1.61.02-2.55-.17-.32-.44-.54-.82-.64-.2-.06-.31-.26-.26-.46.06-.2.26-.31.46-.26.58.17,1.01.51,1.28,1.02.39.74.33,1.69.21,2.35.39-.01.82.07,1.15.16.05-1.38.92-1.79,1.4-2.02.11-.05.26-.12.29-.16.13-.48,1.66-2.73,2.18-3.48-.36-1.21.29-2.12.71-2.45.16-.13.4-.1.53.06.13.16.1.4-.06.53-.04.03-.82.69-.41,1.79.04.12.03.25-.04.35-1.01,1.47-2.11,3.16-2.2,3.45-.09.32-.39.46-.68.6-.51.24-1.09.51-.96,1.81.01.13-.04.25-.14.33-.1.08-.24.1-.36.06-.73-.26-1.48-.34-1.61-.23-.05.16-.2.25-.35.25Zm61.89-16.44c-.09,0-.19-.03-.26-.1-1.86-1.77-3.97-3.67-4.56-4.06-.41.3-1.39,1.18-1.63,1.55.03.07.03.16,0,.24-.06.2-.27.31-.47.25-.15-.04-.31-.25-.33-.4-.06-.7,2.1-2.33,2.21-2.39.27-.14.54-.27,5.3,4.26.15.14.16.38.01.53-.07.08-.17.12-.27.12Z"
  />
  <path
    d="m181.62,124.41c-.14,0-.27-.08-.34-.21-.36-.71.7-2.74,1.12-3.15.2-.2.66-.66,5.86,2.67.17.11.23.34.11.52-.11.17-.34.22-.52.11-1.99-1.27-4.39-2.62-4.99-2.7-.4.48-1,1.91-.91,2.23.09.18.02.4-.17.5-.05.03-.11.04-.17.04Z"
  />
  <path
    d="m181.57,128.83c-.12,0-.24-.06-.31-.17-.07-.11-.08-.25-.02-.38.04-.09,0-.29-.07-.56-.14-.57-.37-1.52-.23-3.21.07-.82.46-1.15.78-1.29,1.33-.57,3.77,1.32,4.25,1.7.16.13.19.37.06.53-.13.16-.36.19-.53.06-1.04-.84-2.8-1.89-3.48-1.59-.07.03-.28.12-.33.66-.13,1.57.07,2.41.21,2.97.03.12.06.23.08.33.17-.15.34-.42.39-.88.02-.21.21-.35.41-.33.21.02.36.21.33.41-.14,1.32-1.05,1.72-1.51,1.75,0,0-.02,0-.02,0Z"
  />
  <path
    d="m183.5,127.92s-.07,0-.1-.01c-.6-.17-1.42-1.37-1.66-1.73-.11-.17-.06-.41.11-.52.17-.11.41-.06.52.11.45.7,1.03,1.36,1.23,1.41.2.05.32.26.26.46-.05.17-.2.28-.36.28Z"
  />
  <path
    d="m132.45,166.03c-.85,0-2.37-.17-4.42-.42-1.8-.21-3.65-.43-4.19-.37-1.28.16-3.82-.35-3.93-.38-.05,0-.1-.03-.14-.06-4.87-3.45-7.36-10.98-8.07-14.89-.65-3.59,2-6.74,3.27-8.25.24-.29.43-.51.53-.66.49-.75,1.16-.84,1.6-.75l.42-.51c-.09-1.25.15-2.19.72-2.78.62-.64,1.39-.61,1.41-.61.16,0,.3.12.34.27.04.15-.02.32-.15.41-.35.24-.73.64-.73.82,0,.04.09.09.1.1.86.5,3.5,1.14,4.88.72.4-.12.85-.23,1.28-.33.87-.2,2.07-.48,2.12-.87l.12-.87c.03-.21.21-.36.42-.32.21.03.35.22.32.42l-.12.87c-.12.9-1.37,1.19-2.7,1.5-.42.1-.84.2-1.23.32-1.64.5-4.52-.23-5.47-.79-.25-.14-.37-.32-.43-.48-.15.44-.19,1.02-.13,1.71,0,.1-.02.2-.08.27l-.68.83c-.11.14-.3.18-.45.1-.09-.04-.56-.22-.94.38-.11.17-.31.42-.58.74-1.2,1.43-3.69,4.39-3.11,7.64.68,3.78,3.06,11.03,7.7,14.36.43.08,2.57.48,3.61.35.63-.08,2.37.13,4.37.37,1.94.23,4.13.49,4.71.39.73-.13,2.67-2.45,3.81-4.05.12-.17.35-.21.52-.09.17.12.21.35.09.52-.49.69-3,4.12-4.29,4.35-.13.02-.3.03-.51.03Zm50.31-11.83c-.57,0-1.9-.82-2.22-1.04-.77-.52-1.17-.98-1.23-1.39-.12-.82.42-14.84.5-16.81-.75-1.99-.44-4.14-.37-4.54-.01-.3.16-1.16,1.53-4.18.09-.19.31-.27.5-.19.19.09.27.31.19.5-.71,1.57-1.48,3.47-1.47,3.81.02.06.02.08,0,.14,0,.02-.42,2.29.35,4.26.02.05.03.1.03.15-.25,6.41-.59,16.16-.51,16.75.07.51,2.25,1.75,2.7,1.79.02-.01.23-.07.5-.15,1.07-.32,2.07-.6,2.47-.6.11-.07.55-.7.85-1.11.55-.77.96-1.31,1.34-1.57-.47-2.08-3.15-13.98-3.01-15.96.16-2.23,4.74-7.95,5.21-8.42.36-.36.85-1.23.72-2.16-.04-.3-.06-.83-.09-1.44-.05-1.04-.16-3.46-.48-3.78-.7-.38-3.67-.75-4.05-.41-.15.13-.37.31-.62.5-.35.27-1.06.82-1.23,1.08.36.46.13.99-.13,1.26-.14.15-.38.15-.53,0-.15-.14-.15-.38,0-.53.06-.07.16-.2.06-.3-.12-.12-.17-.27-.16-.44.03-.47.6-.95,1.55-1.68.23-.17.43-.33.58-.46.81-.72,4.23-.06,4.93.32.58.32.73,1.61.86,4.39.03.59.05,1.1.09,1.37.15,1.12-.38,2.24-.94,2.79-.59.59-4.85,6.05-4.99,7.95-.12,1.61,1.95,11.19,3.06,16.03.02.1,0,.2-.05.29s-.14.14-.24.16c-.25.06-.89.95-1.23,1.43-.69.96-1.04,1.42-1.46,1.42-.33,0-1.63.39-2.26.57-.29.08-.51.15-.6.17-.03,0-.06,0-.1,0Zm-22.02-41.37c-.71,0-1.44-.12-2.13-.41-1.47-.63-1.7-.85-1.64-1.2.03-.17.24-.34.41-.35.19-.03.37.13.4.32.15.09.47.26,1.13.54,2.13.91,4.9-.18,5.69-.78.17-.13.4-.09.53.07s.09.4-.07.53c-.57.43-2.39,1.28-4.32,1.28Zm-1.01-3.83c-.1,0-.21-.04-.28-.13-.09-.11-.19-.17-.26-.17-.09.02-.16.07-.16.07-.15.14-.38.15-.53,0-.15-.14-.15-.37-.02-.52.03-.03.27-.28.71-.3.2,0,.51.08.82.43.14.16.12.39-.04.53-.07.06-.16.09-.25.09Zm-3.79-6.76c-.37,0-.6-.16-.73-.3-.44-.45-.35-1.24-.34-1.33.02-.21.2-.36.42-.33.21.02.35.21.33.42-.02.17,0,.56.14.72.04.04.09.08.24.07.64-.05.79-.47.81-.52.06-.19.27-.3.47-.25.2.06.31.26.26.46-.01.04-.28.96-1.47,1.06-.04,0-.07,0-.11,0Zm9.89-.1c-.43,0-.68-.18-.83-.34-.42-.46-.31-1.18-.29-1.26.03-.2.23-.35.43-.31.2.03.34.23.31.43-.02.14-.03.49.11.63.02.03.1.11.33.09.27-.02.35-.12.38-.16.12-.16.08-.45.06-.54-.05-.2.08-.4.28-.45.19-.04.4.07.45.27.02.07.16.68-.18,1.15-.14.19-.41.43-.93.47-.04,0-.08,0-.12,0Z"
  />
  <path
    d="m152.24,117.1c-.17,0-.32-.12-.36-.29-.7-2.9.38-13.67,1.88-18.89,1.54-5.34,4.32-6.84,6.84-7.61,2.25-.69,2.95-2.41,2.98-2.48.08-.19.29-.29.49-.21.19.08.29.29.21.48-.03.09-.85,2.13-3.46,2.93-2.44.75-4.9,2.12-6.34,7.1-1.45,5.03-2.54,15.75-1.87,18.5.05.2-.08.4-.28.45-.03,0-.06.01-.09.01Z"
  />
  <path
    d="m181.33,120.79c-.16,0-.3-.1-.35-.25-.05-.14-1.22-3.58-1.74-9.93-.51-6.26-4.55-18.37-6.11-21.56-1.87-3.84-5.49-5.13-6.96-5.51-.53-.14-.93-.08-1.23.17-.63.54-.66,1.89-.62,2.36,0,.1-.22,2.14,1.42,4.07.7.82,1.58,2.01,2.44,3.15,1.33,1.78,2.71,3.63,3.41,4.15.08.06.13.14.14.24.03.16.48,3,.73,5.29.39-1.05.89-2,1.46-2.1.36-.06.71.09.97.41.44.54.63,1.56.41,2.14-.03.09-.09.26-.17.48-1.15,3.36-1.74,4.39-2.4,4.34l-.26-.03c-.03.89-.21,3.01-1.18,4.93-1.28,2.53-5.79,6.07-10.22,6.07s-9.09-6.57-9.29-6.85c-.12-.17-.08-.4.09-.52.17-.12.4-.08.52.09.05.07,4.64,6.53,8.68,6.53s8.39-3.35,9.55-5.66c1.15-2.29,1.11-4.98,1.11-5.01,0-.11.04-.21.12-.29.08-.07.19-.1.29-.1l.68.08c.12-.11.58-.87,1.6-3.84.08-.23.14-.41.18-.51.1-.27.01-1.03-.29-1.4-.14-.17-.23-.15-.27-.15-.32.12-.99,1.72-1.42,3.43-.05.18-.22.29-.4.28-.19-.02-.33-.17-.33-.36-.07-1.86-.74-6.19-.87-7.03-.79-.67-2.08-2.39-3.43-4.2-.85-1.13-1.73-2.31-2.41-3.11-1.86-2.2-1.6-4.47-1.59-4.57,0,0-.17-2.03.88-2.92.48-.41,1.12-.52,1.9-.32,1.57.4,5.44,1.79,7.45,5.91,1.52,3.13,5.64,15.23,6.18,21.83.51,6.24,1.69,9.71,1.71,9.74.07.2-.04.41-.23.48-.04.01-.08.02-.12.02Z"
  />
  <path
    d="m143.6,124.4s-.04,0-.06,0c-.36-.07-.54-.1-.9-7.64-.33-7.06,4.35-21.21,6.11-26.54.21-.64.38-1.16.5-1.53,1.2-3.75,8.82-6.94,11.44-7.02,2.85-.09,3.83,1.93,3.87,2.01.09.19,0,.41-.18.5-.19.09-.41.01-.5-.18-.04-.08-.85-1.67-3.18-1.59-2.4.07-9.66,3.09-10.74,6.5-.12.37-.29.9-.5,1.54-1.75,5.29-6.4,19.35-6.07,26.27.26,5.52.45,6.78.52,7.06.08.1.11.25.05.38-.06.14-.21.23-.36.23Zm28.05-4.5s-1.11-.75-1.93-1.27c-.96-.61-.63-3.12-.51-3.87.03-.2.23-.34.43-.31.2.03.34.23.31.43-.22,1.32-.2,2.88.17,3.11.83.53,1.95,1.28,1.95,1.28l-.42.62Z"
  />
  <path
    d="m141.5,142.03c-.14,0-.26-.07-.33-.21-.62-1.31,2.18-19.12,2.74-22.67.1-.92,2.46-23.06,6.74-28.79,4.22-5.64,12.45-5.4,13.24-5.37.48-.09,4.07-.72,6.31.86,2.32,1.62,4.45,7.95,4.54,8.22l3.18,14.46c.04.2-.08.4-.29.45-.2.04-.4-.08-.45-.29l-3.17-14.42s-2.13-6.32-4.25-7.81c-2.09-1.47-5.74-.73-5.78-.73-.03,0-.07,0-.1,0-.08,0-8.55-.41-12.65,5.07-4.16,5.56-6.57,28.21-6.6,28.43-1.29,8.07-3.18,21.23-2.8,22.26.07.19-.02.41-.2.49-.05.02-.1.03-.15.03Z"
  />
  <path
    d="m144.59,167.74s-.08,0-.12-.02c-.16-.05-.27-.21-.25-.38,0-.05.32-4.78-1.13-8.17-.23.9-.5,2.32-.34,3.53.27.85.46,1.36.47,1.39.07.18-.02.38-.19.46-.17.08-.38.03-.48-.14-.27-.43-.44-.95-.52-1.49-1.05-3.21-3.31-11.02-2.22-15.61.69-2.9,1.57-4.97,2.35-6.8.77-1.81,1.44-3.37,1.77-5.35.03-.2.23-.34.43-.31.2.03.34.23.31.43-.34,2.06-1.03,3.66-1.82,5.52-.77,1.8-1.64,3.84-2.31,6.68-.84,3.52.47,9.25,1.53,12.97.19-1.3.55-2.36.58-2.44.05-.14.17-.24.32-.25.16-.01.29.06.36.19,1.31,2.3,1.62,5.43,1.67,7.45.3-1.12.49-2.68-.01-4.47-1.07-3.81,1.31-13.1,1.42-13.49.05-.19.24-.32.44-.27.2.04.33.23.3.42-.54,3.61.26,6.31,1.21,8.12-.8-2.63-1.26-5.99-.31-7.28,1.3-1.73,3.76-9.27,3.98-10.8.13-.89.93-3.26,1.77-5.77.72-2.15,1.47-4.37,1.87-5.84.83-3.08-1.47-10.79-1.49-10.86-.06-.2.05-.41.25-.47.2-.06.41.05.47.25.1.32,2.38,7.99,1.5,11.27-.4,1.5-1.15,3.73-1.88,5.89-.84,2.48-1.62,4.82-1.74,5.64-.23,1.61-2.74,9.29-4.12,11.14-1.17,1.57.53,8.33,1.77,9.57.14.14.15.37.01.52-.14.15-.36.16-.52.04-.15-.13-3.1-2.6-3.62-7.57-.59,3.05-1.18,7.17-.58,9.29,1.08,3.87-.72,6.72-.8,6.84-.07.11-.19.17-.31.17Z"
  />
  <path
    d="m160.8,126.88c-3.12,0-4.8-1.62-4.88-1.7-.15-.15-.15-.38,0-.53.15-.15.38-.15.53,0,.02.02,1.98,1.89,5.55,1.4,3.64-.5,9.08-6.65,9.13-6.71.14-.15.37-.17.53-.03.16.14.17.37.03.53-.23.26-5.68,6.42-9.6,6.96-.46.06-.89.09-1.3.09Z"
  />
  <path
    d="m157.2,135.3c-.5,0-.98-.11-1.23-.32-.44-.38-1.41-.81-1.83-.82l-.58.03c-.11.02-.23-.04-.3-.12-.08-.08-.11-.2-.09-.31.04-.21.88-5.03,1.41-6.83.37-1.26-.84-8.4-1.73-12.9-.04-.2.09-.4.29-.44.2-.04.4.09.44.29.23,1.16,2.25,11.42,1.72,13.25-.42,1.44-1.07,5-1.3,6.28h.1c.74-.05,1.92.61,2.36.99.1.09.56.18,1.03.12.34-.04.51-.13.54-.17-.18-.69.94-1.41,3.35-2.66l.5-.26c.75-.4,4.65-6.01,6.75-9.01l1.1-1.58c.83-1.18,1.75-1.86,2.75-2,.86-.12,1.52.19,1.8.36,1.03-.17,4.08.11,9.11.85.2.03.35.22.32.43s-.22.35-.43.32c-7.47-1.1-8.74-.91-8.91-.87-.13.06-.28.05-.4-.04-.02-.02-.58-.43-1.39-.31-.77.12-1.52.69-2.23,1.69l-1.1,1.58c-3.34,4.79-6.17,8.79-7.01,9.25l-.51.27c-.7.37-2.85,1.48-2.97,1.92.07.27-.07.56-.38.75-.29.17-.73.26-1.17.26Zm4.1-26.29c-.12,0-.24-.06-.31-.16-.12-.17-.08-.4.09-.52.04-.03.98-.67,1.93,0,.17.12.21.35.09.52-.12.17-.35.21-.52.09-.52-.37-1.06,0-1.06,0-.07.05-.14.07-.21.07Zm2.32-6.77s-.08,0-.12-.02c-.2-.07-.3-.28-.24-.47.21-.63,1.01-1.83,2.52-1.83h0c1.78,0,3.13,1.33,3.19,1.39.15.15.15.38,0,.53-.15.15-.38.15-.53,0-.01-.01-.98-.96-2.25-1.14l.08,1.04c.02.21-.14.39-.35.4-.2.03-.39-.14-.4-.35l-.08-1.1c-1.09.19-1.47,1.27-1.47,1.29-.05.16-.2.26-.36.26Zm-5.7,0c-.12,0-.25-.06-.32-.18-.02-.04-.45-.71-1.22-.97v.17c0,.21-.17.38-.38.38s-.38-.17-.38-.38v-.28c-.11,0-.22.02-.33.04-1.55.33-1.89.52-1.91.52-.18.1-.4.04-.51-.13-.1-.17-.06-.39.11-.5.08-.06.48-.26,2.15-.62,1.96-.43,3.05,1.3,3.09,1.37.11.18.05.41-.12.51-.06.04-.13.06-.2.06Zm11.1-2.77s-.06,0-.09-.01c-3.99-.99-5.94-.04-5.96-.03-.18.09-.41.02-.5-.16-.09-.18-.02-.41.16-.5.09-.05,2.19-1.1,6.49-.03.2.05.32.25.27.46-.04.17-.2.28-.36.28Zm-11.1,0s-.07,0-.11-.02c-.02,0-1.75-.52-3.65-.22-.2.04-.4-.11-.43-.31-.03-.2.11-.4.31-.43,2.08-.33,3.91.22,3.99.24.2.06.31.27.25.47-.05.16-.2.27-.36.27Z"
  />
  <path
    d="m144.06,161.29c-.19,0-.36-.15-.37-.35-.05-.59-1.1-14.5,1.98-17.74,2.71-2.84,4.32-20.57,2.39-26.35-1.45-4.34,1.17-12.84,2.9-18.47.57-1.85,1.06-3.46,1.28-4.49.93-4.37,10.85-7.43,11.27-7.56.16-.05.32,0,.41.13.12-.16.34-.2.51-.09.38.25,9.29,6.26,10.13,13.56.05.43-.19.59-.29.63-.21.1-.7.31-3.21-2.59-.14-.16-.12-.39.04-.53.16-.14.39-.12.53.04.73.84,1.63,1.77,2.14,2.17-1.09-6.82-9.66-12.6-9.75-12.66-.04-.02-.07-.05-.09-.09-.05.06-.11.11-.19.13-.1.03-9.92,3.06-10.76,7-.23,1.06-.72,2.68-1.3,4.55-1.7,5.53-4.27,13.9-2.9,18.01,1.87,5.61.55,23.85-2.56,27.11-2.85,3-1.79,17.02-1.77,17.17.02.21-.14.39-.34.4,0,0-.02,0-.03,0Zm32.09-41.32c-.11,0-.21-.05-.29-.13-1.29-1.55-1.98-13.1-2.05-14.41-.01-.21.15-.38.35-.4.2-.04.38.15.4.35.28,4.86,1.03,12.95,1.88,13.97.13.16.11.4-.05.53-.07.06-.15.09-.24.09Zm-2.41-.75c-.11,0-.22-.05-.29-.14-1.72-2.11-1.08-10.42-1.06-10.78.02-.21.2-.37.4-.34.21.02.36.2.34.4-.19,2.32-.39,8.68.89,10.24.13.16.11.4-.05.53-.07.06-.15.08-.24.08Z"
  />
  <path
    d="m146.69,148.44s-.02,0-.03,0c-.21-.02-.36-.2-.35-.4.05-.62.79-2.55,2.01-5.66,1.12-2.88,2.4-6.14,2.68-7.54.55-2.68,1.07-11.28-.47-15.11-1.59-3.94-.09-18.84-.02-19.48.02-.21.21-.35.41-.33.21.02.36.21.33.41-.02.15-1.54,15.35-.03,19.12,1.59,3.96,1.07,12.8.51,15.54-.3,1.46-1.59,4.76-2.72,7.66-.94,2.41-1.91,4.9-1.96,5.45-.02.2-.18.35-.37.35Zm32.51-28.48c-.18,0-.34-.13-.37-.31-.07-.38-1.65-9.3-1.65-11.04s-3.42-14.51-6.07-18.1c-2.63-3.57-6.79-3.97-6.84-3.97-.21-.02-.36-.2-.34-.41.02-.21.2-.36.41-.34.18.02,4.53.43,7.38,4.28,2.8,3.79,6.22,16.76,6.22,18.55,0,1.67,1.63,10.81,1.64,10.9.04.2-.1.4-.3.43-.02,0-.04,0-.07,0Z"
  />
  <path
    d="m174.12,313.45c-.07,0-.15,0-.23-.02-1.21-.22-1.65-2.76-1.43-4.48.25-2,.49-6.36.02-7.56-.56-1.44-.04-4.29-.02-4.41.04-.21.23-.34.44-.3.2.04.34.23.3.44,0,.03-.5,2.76-.02,4,.59,1.51.22,6.41.02,7.92-.23,1.82.35,3.56.82,3.64.29.06.53-.15.88-.49.26-.25.53-.5.87-.62.31-.1,2.77-.72,3.47-.26.11.08.22.16.32.25.3.25.62.52,1.55.67,1.27.21,3.68-.63,3.92-1.84l.08-.38c.3-1.49.67-3.35-.06-5.47-.3-.86-.66-2.48-.89-4.02-1.02-.5-2.21-1.18-2.9-1.93-.14-.15-.13-.39.02-.53.15-.14.39-.13.53.02.52.57,1.4,1.11,2.24,1.54-.15-1.42-.12-2.63.26-2.88.16-.1.37-.07.49.08.41.51,2.43,3.12,1.65,4.35-.1.15-.28.21-.45.15-.05-.02-.47-.17-1.05-.43.19,1.18.46,2.44.79,3.4.8,2.31.39,4.36.09,5.86l-.07.38c-.35,1.8-3.35,2.67-4.77,2.44-1.14-.18-1.57-.54-1.91-.83-.08-.07-.16-.14-.25-.2-.29-.16-2,.08-2.82.35-.19.06-.38.25-.59.45-.33.32-.74.71-1.31.71Zm10.72-13.44c.43.2.8.36,1.06.46,0-.61-.61-1.71-1.23-2.59,0,.49.06,1.26.17,2.13Zm-32.72,10.83c-.35,0-.66-.02-.9-.04-.62-.05-.86-.44-1.1-.82-.22-.36-.5-.81-1.24-1.27-1.35-.84-2.77-.03-2.83,0-.1.06-.22.07-.33.03-.11-.04-.19-.13-.22-.24-.78-2.49,4.14-7.1,5.01-7.7.6-.42,2.03-4.31,2.86-6.94.06-.2.27-.3.47-.25.2.06.31.27.25.47-.34,1.1-2.11,6.62-3.15,7.33-1.05.72-4.69,4.43-4.77,6.42.66-.25,1.9-.52,3.11.23.89.55,1.23,1.1,1.48,1.51.22.35.29.45.52.47.93.08,4.09.18,5.66-1.88.75-.98,1.42-1.71,2.14-2.48.92-1,1.88-2.04,3.03-3.68.87-1.26,1.73-1.79,2.41-2.22.93-.59,1.55-.97,1.79-2.92.3-2.44-.24-5.06-1.28-6.24-.33-.37-.68-.53-1.03-.56h0c-.21,0-.37-.17-.38-.37,0-.21.2-.39.38-.38.57,0,1.12.28,1.58.81,1.19,1.34,1.8,4.15,1.46,6.83-.28,2.3-1.14,2.84-2.14,3.46-.66.42-1.41.89-2.2,2.02-1.18,1.69-2.15,2.74-3.09,3.76-.7.76-1.37,1.48-2.09,2.43-1.43,1.88-3.86,2.21-5.42,2.21Zm-10.31-149.54c-.18,0-.34-.13-.37-.31-.95-5.59,1.58-15.01,3.25-21.25.18-.69.36-1.33.51-1.91.7-2.65.6-6.43.48-10.8-.13-5.01-.28-10.69.63-16.73,1.73-11.38,6.15-17.21,6.34-17.45.13-.16.36-.19.53-.07.16.13.19.36.07.53-.04.06-4.49,5.93-6.19,17.11-.9,5.97-.75,11.62-.62,16.6.12,4.43.22,8.26-.51,11.01-.15.58-.33,1.23-.51,1.91-1.56,5.8-4.16,15.5-3.24,20.93.03.2-.1.4-.31.43-.02,0-.04,0-.06,0Z"
  />
  <path
    d="m177.73,316.23c-2.16,0-4.14-.46-4.99-1.15-1.42-1.17-.6-4.35-.51-4.71.05-.2.26-.32.46-.26.2.05.32.26.26.46-.23.85-.63,3.2.26,3.93,1.18.97,5.3,1.38,8.23.46.61-.19,1.18-.34,1.7-.48,2.28-.6,3.29-.94,3.39-2.71.15-2.52-.86-5.6-1.01-5.87-.1-.18-.04-.41.14-.51.18-.1.4-.04.51.13.23.38,1.27,3.62,1.11,6.29-.14,2.38-1.74,2.81-3.95,3.39-.52.14-1.07.28-1.67.47-1.24.39-2.63.56-3.94.56Zm-25.11-3.24c-2.54,0-6.65-1.39-7.61-2.24-1.11-.99.31-3.08.48-3.31.12-.17.35-.21.52-.09.17.12.21.35.09.52-.4.57-1.08,1.89-.59,2.32.81.72,5.09,2.19,7.44,2.04,2.38-.15,4.97-.61,6.05-2.87.4-.83.55-1.45.67-1.95.26-1.07.46-1.66,2.07-2.29,2.22-.87,5.76-3.01,5.83-5.06-.16-1.21-.6-2.7-.99-2.79-.2-.05-.33-.25-.28-.45.05-.2.25-.33.45-.28,1.07.26,1.47,2.73,1.56,3.48-.08,2.67-4.16,4.95-6.3,5.79-1.32.52-1.4.86-1.62,1.77-.13.54-.29,1.2-.72,2.11-1.25,2.6-4.08,3.12-6.68,3.29-.12,0-.25.01-.38.01Z"
  />
  <path
    d="m174.71,305.43c-.16,0-.3-.1-.35-.25-.06-.18.02-.38.19-.46.19-.09.92-.43,1.86-.82-.61-.06-1.18-.07-1.65-.02-.18.02-.34-.08-.4-.25s.01-.35.17-.44c.09-.05,1.2-.69,2.57-1.3-.84-.19-1.67-.32-2.38-.32-.17,0-.32-.12-.36-.29-.04-.17.04-.34.19-.42.32-.16,1.02-.52,1.87-.93-.63-.11-1.21-.16-1.65-.09-.2.04-.4-.11-.43-.32-.03-.2.11-.39.32-.42.75-.11,1.81.05,2.88.3,1.8-.83,3.82-1.66,4.5-1.58.21.03.35.21.33.42-.03.21-.21.35-.42.33-.37-.04-1.71.46-3.26,1.15,1.57.46,2.93,1.02,3.03,1.06.18.07.27.27.22.45s-.24.3-.43.26c-.51-.09-1.23.04-2.02.29,1.23.39,2.15.77,2.23.8.18.07.28.28.22.46-.06.19-.25.3-.44.25-.41-.1-1.22.07-2.18.36.86.2,1.63.41,2.14.56.26.05.5.12.7.22.18.08.26.29.19.48-.07.18-.28.28-.46.22-.01,0-.25-.08-.65-.2-1.76-.33-5.13.23-6.42.51-.03,0-.05,0-.08,0Zm3.2-1.32c-.08.03-.15.06-.23.09.15-.02.29-.03.44-.05-.07-.01-.14-.03-.21-.04Zm-1.69-.99c.52.04,1.07.12,1.62.21.69-.25,1.41-.49,2.06-.65-.47-.16-1.02-.34-1.61-.5-.72.29-1.45.63-2.07.94Zm-.15-2.2c.71.11,1.46.28,2.18.47.55-.21,1.1-.39,1.63-.52-.66-.23-1.46-.49-2.26-.69-.52.24-1.04.49-1.55.74Zm-19.19,2.04c-.09,0-.17-.03-.24-.09-.07-.06-.14-.12-.22-.18-.65-.31-3.06-.57-5.17-.63-.18,0-.33-.14-.36-.32-.03-.18.08-.35.25-.41.09-.03,1.24-.42,2.67-.67-.61-.42-1.08-.69-1.27-.69-.24,0-.69,0-.76-.39-.07-.4.42-.57.63-.65.29-.06.9-.17,1.65-.28-.42-.21-.83-.37-1.22-.44-.18-.03-.31-.19-.31-.37s.13-.34.31-.37c.26-.05,1.39-.25,2.72-.38-.75-.48-1.35-.79-1.57-.74-.46.13-.86.24-1.01-.12-.04-.1-.1-.36.28-.57.04-.02.09-.04.13-.05.15-.02.53-.08,1.06-.14-.42-.15-.78-.24-1.03-.25-.21-.01-.37-.19-.36-.39.01-.21.2-.36.39-.36.59.03,1.57.38,2.6.83,1.19-.11,2.56-.17,3.69-.11-.03-.04-.06-.08-.08-.13l-.56-1.71c-.06-.2.04-.41.24-.47.2-.06.41.04.47.24l.38,1.17c.57-.43,1.19-.64,1.83-.61,1.06.05,1.95.72,2.44,1.19-.06-.64-.54-2-1.19-3.25-.09-.18-.02-.41.16-.5.19-.1.41-.02.51.16.26.51,1.54,3.08,1.21,4.14-.09.27-.26.41-.39.47-.16.08-.35.04-.46-.1-.01-.01-1.05-1.3-2.31-1.35-.61-.03-1.17.23-1.7.78-.01.01-.02.02-.04.03.66.08,1.2.21,1.49.45.16.13.19.36.07.53-.13.16-.36.19-.53.07-.47-.37-2.06-.42-3.82-.32,1.14.55,2.15,1.1,2.57,1.33.07.03.13.07.18.1.17.11.22.33.11.51-.1.17-.33.23-.5.13-.05-.03-.11-.06-.16-.09-.39-.17-1.09-.25-1.92-.22.46.35.86.67,1.16.92.15.12.18.34.07.5-.11.16-.33.21-.5.11-.31-.18-1.2-.18-2.27-.09,1.05.8,1.84,1.6,1.9,1.66.12.12.14.32.05.46s-.27.21-.44.15c-.56-.2-1.24-.25-1.94-.24.46.37.88.71,1.16.96.11.07.2.15.25.24.09.16.06.36-.08.48-.07.06-.16.09-.24.09Zm-3.18-1.52c.48.04.96.1,1.4.17-.14-.11-.28-.22-.42-.32-.34.04-.67.1-.98.16Zm-.31-1.92c.45.24.98.6,1.51.99.58-.06,1.18-.08,1.75-.04-.43-.37-.96-.81-1.54-1.2-.58.07-1.17.16-1.72.25Zm1.03-1.53c.29.15.58.32.87.5.7-.08,1.42-.14,2.05-.14h.02c-.27-.2-.54-.4-.8-.59-.71.05-1.45.13-2.14.23Zm.98-1.87c.44.24.92.55,1.38.87.35-.02.7-.03,1.04-.03-.61-.3-1.26-.62-1.88-.89-.18.02-.37.03-.55.05Zm32.67-174.48s-.07,0-.11-.02c-.2-.06-.31-.27-.25-.47l.05-.18s-.02-.03-.03-.05l-.59-1.18c-.09-.19-.02-.41.17-.5.19-.09.41-.02.5.17l.26.52.26-.85c.06-.2.27-.31.47-.25.2.06.31.27.25.47l-.62,2.06c-.05.16-.2.27-.36.27Zm3.18-1.41c-.08,0-.16-.03-.23-.08-.16-.13-.2-.36-.07-.53l.99-1.29-3.76-2.75-1.13,1.82c-.11.18-.34.23-.52.12-.18-.11-.23-.34-.12-.52l1.34-2.16c.06-.09.14-.15.25-.17.06-.01.12,0,.18,0l1.44-1.9s-.03-.02-.05-.03c-.15-.12-.19-.35-.07-.51l13.84-19.62c.06-.08.14-.13.24-.15.08-.02,1.99-.37,3.19.28,1.25.67,1.63,2.54,1.64,2.62.02.1,0,.2-.06.28l-13.88,20.32c-.08.11-.21.17-.35.16-.07,0-.14-.04-.19-.08l-1.41,1.79.18.13c.08.06.14.15.15.25.01.1-.01.2-.07.28l-1.22,1.59c-.07.1-.19.15-.3.15Zm-2.45-5.12l3.11,2.28,1.52-1.92c-.62-.55-1.9-1.46-3.17-2.29l-1.46,1.94Zm5.34.01s0,0,0,0l13.5-19.77c-.11-.41-.46-1.55-1.23-1.95-.74-.39-1.98-.31-2.55-.23l-13.51,19.16c1,.64,2.95,1.93,3.79,2.78Zm-64.95-7.53s-.06,0-.09,0c-.2-.05-.33-.25-.28-.45l.29-1.25-4.55-.98-.11.78c-.03.21-.22.35-.42.32-.21-.03-.35-.22-.32-.42l.16-1.18c.01-.1.07-.2.16-.26.05-.04.11-.06.17-.06l.54-2.33c-.18-.03-.32-.18-.32-.37,0-.03,0-.06,0-.08l4.66-23.56c.02-.1.07-.18.15-.24.07-.05,1.66-1.14,3.03-1.05,1.41.1,2.52,1.65,2.56,1.72.06.08.08.18.06.28l-4.42,24.23c-.02.14-.12.25-.25.29-.07.02-.15.02-.22,0l-.57,2.22.21.04c.1.02.18.08.24.17s.07.19.05.29l-.38,1.63c-.04.17-.19.29-.36.29Zm-4.24-3.38l3.76.81.61-2.38c-.8-.25-2.33-.56-3.83-.8l-.54,2.37Zm.3-3.17c1.17.18,3.48.57,4.59.99l4.3-23.57c-.26-.33-1.05-1.22-1.91-1.28-.91-.06-2.06.6-2.43.84l-4.55,23.02Zm23.18-6.01s-.07,0-.1-.01c-.2-.06-.31-.26-.26-.46.07-.23,1.65-5.63,5.82-8.98,4.24-3.4,10.02-1.27,10.27-1.18.19.07.29.29.22.48-.07.19-.29.29-.48.22-.06-.02-5.63-2.06-9.53,1.07-3.99,3.19-5.56,8.54-5.57,8.6-.05.16-.2.27-.36.27Z"
  />
</svg>
