<svg class="svg" xmlns="http://www.w3.org/2000/svg" viewBox="0 0 320 320">
  <path
    d="m159.52,99.89c-.17,0-.33-.11-.38-.28-.06-.21.05-.43.26-.5,1.27-.4,3.58-2.47,6.18-5.52.11-.12.12-.13.16-.16.18-.13.43-.07.56.11.11.16.08.37-.04.5l-.06.07c-1.6,1.89-4.59,5.15-6.55,5.76-.04.01-.08.02-.12.02h-.01Zm30.51,201.18c-.07,0-.14-.02-.2-.05-.02-.01-2.43-1.44-5.44-1.16-.19.02-.34-.08-.4-.24s-.02-.35.12-.45l2.72-2.29-5.87-.47c-.16-.01-.31-.13-.35-.28-.04-.16,0-.33.14-.43l3.69-2.88-6.18-.31c-.18,0-.33-.13-.37-.31-.04-.17.03-.35.18-.44l6.28-3.79c.19-.12.43-.05.55.14.12.19.05.43-.14.55l-5.16,3.12,5.95.29c.17,0,.31.12.36.27.05.16,0,.34-.14.43l-3.72,2.91,5.83.46c.16.01.29.13.35.27.05.16,0,.33-.13.43l-2.59,2.18c2.69.08,4.66,1.24,4.75,1.3.19.12.25.36.14.55-.07.13-.21.2-.35.2h-.01Z"
  />
  <path
    d="m176.6,297.93c-.14,0-.26-.07-.35-.19-.12-.19-.05-.43.14-.55.23-.36.47-3.58.44-5.08-.03-1.27,2.15-4.47,2.4-4.83.13-.18.38-.23.56-.11s.22.38.11.56c-.88,1.27-2.28,3.59-2.25,4.36,0,.05.01,5.28-.83,5.78-.06.04-.14.05-.2.05h-.01Z"
  />
  <path
    d="m180.98,289.83c-.33,0-1.43-.04-1.77-.61-.08-.14-.19-.41,0-.78.11-.19.35-.26.54-.17.19.11.27.35.17.54.05.09.48.19.92.21l.87-.78c-.21-.28-.41-.54-.52-.61-.16-.04-.27-.18-.28-.36-.01-.22.15-.41.37-.42.19-.01.43-.02,1.29,1.23.12.17.08.39-.06.53l-1.26,1.13c-.07.06-.17.11-.26.11h.01Z"
  />
  <path
    d="m185.51,297.93c-.21,0-.39-.17-.4-.38-.02-.7-.82-2.03-1.53-3.22-.6-1.02-1.17-1.98-1.34-2.63-.35-1.41-.02-4.69,0-4.83.02-.22.2-.38.43-.36.22.02.38.22.36.43,0,.03-.33,3.28,0,4.56.14.54.7,1.5,1.24,2.42.79,1.33,1.6,2.71,1.63,3.59,0,.22-.16.41-.38.41h-.02Zm-36.15-16.15c-.11,0-.21-.04-.28-.13-.15-.16-.15-.41.01-.57,1.3-1.23,3.54-6.49,3.67-7.09,0-.18.12-.34.31-.39.21-.04.43.07.48.29.15.6-2.58,6.51-3.9,7.76-.07.07-.18.11-.27.11h-.01Z"
  />
  <path
    d="m147.04,286.3c-2.27,0-4.97-2.68-5.25-3.39-.06-.16-.02-.42.11-.53.11-.09.29-.18.6-.03.77.39,4.7.43,5.36.36.22,0,.41.14.44.36.02.22-.14.41-.35.44-.42.04-3.2.08-4.85-.18.86.87,2.53,2.18,3.94,2.18,2.55,0,5.72-1.23,7-4.68.07-.21.31-.31.52-.23.21.07.32.31.23.52-1.42,3.83-4.93,5.2-7.74,5.2v-.02Z"
  />
  <path
    d="m146.95,287.64c-2.94,0-5.24-1.32-5.35-1.38-.19-.12-.25-.36-.15-.55.12-.19.36-.25.55-.15.03.02,3.56,2.02,7.26.96.21-.06.43.06.5.27s-.06.43-.27.5c-.86.25-1.72.35-2.53.35Z"
  />
  <path
    d="m147.9,288.73c-.18,0-.34-.12-.39-.29-.05-.21.07-.43.28-.48,1.31-.35,5.27-1.65,6.29-3.07.13-.18.38-.22.56-.08.18.13.22.38.08.56-1.4,1.94-6.68,3.35-6.73,3.37-.03,0-.07.01-.11.01h.01Zm-7.1-26.64c-.18,0-.34-.12-.38-.29-.05-.21.06-.43.28-.48,1.09-.29,6.53-1.74,7.66-1.54.22.04.36.25.32.46-.04.22-.25.36-.46.32-.73-.14-4.87.86-7.31,1.52-.03,0-.07.01-.11.01h0Zm8.39-6.5c-1.5,0-6.85-1.21-7.36-1.97-.08-.13-.11-.39-.02-.52.41-.67,11.25-4.44,11.35-4.44.22,0,.4.18.4.4,0,.19-.13.35-.31.39-.59.18-8.42,2.98-10.39,3.91,1.35.56,5.54,1.58,6.45,1.43,1.16-.19,3.72-.92,3.74-.92.21-.05.43.06.5.27s-.06.43-.27.5c-.11.03-2.62.74-3.83.94-.06,0-.15.01-.24.01h0Zm2.08,4.37c-.16,0-.32-.09-.37-.25-.08-.2.02-.43.23-.52.45-.18,1.16-.92,1.75-1.65-.74.2-1.84.44-3.45.68-3.51.54-8.55-1.34-8.77-1.42-.21-.07-.31-.31-.23-.52.07-.21.31-.31.52-.23.05.02,5.06,1.89,8.37,1.37,3.32-.52,4.47-1.02,4.48-1.03.16-.07.36-.03.47.11s.13.34.02.48c-.18.25-1.76,2.51-2.88,2.94-.04.02-.09.03-.15.03h0Zm18.85-58.29h-.07c-.55-.04-1.14-.54-1.81-1.53-.4-.58-.53-1.19-.39-1.8.27-1.21,1.55-1.97,1.6-2,.19-.12.43-.04.55.15s.05.43-.14.55c0,0-1.03.62-1.22,1.5-.08.39,0,.77.27,1.17.83,1.23,1.24,1.18,1.23,1.18.15-.16.38-.16.54,0,.16.15.15.42,0,.58-.11.11-.29.22-.56.22h0Z"
  />
  <path
    d="m168.29,205.53c-.31,0-.51-.37-.95-1.26-.76-1.51.59-3.81.64-3.91.12-.19.36-.25.55-.14s.25.36.14.55c-.33.56-1.09,2.21-.62,3.14.23.46.37.7.44.81.13.05.22.18.23.33.02.19-.12.41-.29.46-.04.01-.09.02-.14.02Z"
  />
  <path
    d="m170.15,213.06h-.04c-.21-.02-.37-.21-.35-.42,0,0,0-.01,0-.02,0,0,.05-.61-.26-2.39-.35-1.99-.61-3.09-1.14-3.91-.54-.84-.47-2.17-.43-2.8,0-.12.01-.21,0-.26,0-.09.04-.27.11-.35.06-.08.22-.28,1.21-.4v-.94c0-.22.18-.4.4-.4s.4.18.4.4v1.3c0,.21-.16.38-.37.4-.36.03-.75.09-.95.15v.15c-.03.56-.09,1.71.31,2.33.66,1.02.94,2.39,1.25,4.2.34,1.91.27,2.55.27,2.61-.02.2-.2.36-.4.36h-.01Zm-1.43-9.9h0s0,0,0,0Zm-13.04-103.59s-.07,0-.12-.02c-4.8-1.42-7.68-6.03-7.8-6.22s-.05-.43.13-.55c.19-.12.43-.05.55.13.03.04,2.83,4.54,7.34,5.87.21.06.33.28.27.5-.05.17-.21.28-.38.28h0Zm18.96,188.34c-.5,0-.94-.09-1.09-.14-1.18-.06-3.73-3.19-3.99-3.56-.77-1.09-.21-2.88-.19-2.95.04-.12.13-.21.24-.25.12-.04.24-.03.35.03.77.47,1.66.98,2.25,1.26-.52-.88-1.63-2.43-2.2-2.96-.95-.86-1.99-6.21-1.93-7.43.06-1.19.02-11.08.02-12.01-.19-.53-.22-.84-.11-1.09.05-.12.13-.19.2-.24-.18-.86-.04-3.22,0-3.97.01-.22.2-.39.42-.37.22.01.39.2.37.42-.11,1.56-.14,3.45-.02,3.76.05.14.11.34.01.53-.06.14-.17.21-.25.25.01.08.04.23.14.48.02.04.02.09.02.14,0,.44.04,10.86-.02,12.13-.06,1.37,1.04,6.23,1.66,6.81.31.28,3.18,3.68,2.64,4.39-.2.26-.4.53-3.18-1.14-.09.54-.13,1.29.2,1.74.83,1.17,2.89,3.2,3.37,3.22.04,0,.08,0,.14.01.4.12,1.62.31,1.93-.27.58-1.07,1.77-.78,3.16-.44.32.07.64.16,1,.23,1.18.25,1.92-.07,2.52-.34.29-.13.55-.24.8-.26.43-.04,1.27-.79,1.72-2.62.15-.6,0-.63-.58-.78-.5-.13-1.43-.36-1.16-1.63.38-1.71-.19-8.6-.34-9.82-.08-.66.5-2.95,1.39-6.37.44-1.69.85-3.28.94-3.85.16-1.16-1.6-3.58-2.03-3.89-.17-.04-.29-.2-.29-.38,0-.22.18-.4.4-.4.19,0,.39.09.8.57.56.64,2.12,2.79,1.93,4.21-.08.61-.48,2.15-.95,3.94-.61,2.32-1.44,5.5-1.37,6.07.13,1.01.74,8.2.33,10.09-.12.52.02.55.57.68.52.13,1.49.37,1.16,1.74-.51,2.12-1.58,3.15-2.41,3.23-.14.01-.34.11-.56.2-.63.27-1.58.7-3.01.39-.36-.07-.71-.16-1.02-.24-1.44-.36-2-.44-2.27.04-.35.65-1.07.81-1.71.81h0Z"
  />
  <path
    d="m173.15,261.36c-.21,0-.38-.16-.4-.37-.02-.22.15-.41.37-.43.06,0,6.07-.48,8.85-3.15,2.61-2.5,1.13-4.5,1.06-4.58-.14-.18-.11-.42.07-.56s.42-.11.56.07c.02.03,2,2.64-1.14,5.66-2.99,2.86-9.08,3.35-9.34,3.37h-.03,0Zm.99,2.59s-.07,0-.12-.02c-3.19-.95-5.71-3.72-5.82-3.83-.15-.17-.14-.41.03-.56.16-.15.41-.14.56.03.02.03,2.48,2.72,5.45,3.61.21.06.33.28.26.5-.05.17-.21.28-.38.28h.01Zm4.39,1.14c-.18,0-.35-.13-.39-.31-.05-.21.08-.43.29-.47,1.65-.38,6.73-3.28,6.78-3.31.19-.11.43-.04.55.15.11.19.04.43-.15.55-.21.13-5.24,2.99-7,3.39h-.09Zm-8.78,16.69c-.16,0-.32-.11-.38-.26-.29-.83.03-2.51.38-2.98.14-.18.39-.21.56-.07.18.14.21.38.07.56-.18.24-.48,1.62-.26,2.22.07.21-.03.43-.24.52-.04.02-.09.02-.14.02h.01Zm6.65,4.52h-.03c-2.73-.14-5.71-2.5-5.89-2.77-.13-.18-.07-.43.12-.56.18-.12.43-.07.56.12.27.31,2.97,2.31,5.27,2.41h.03c.8,0,6.3-1.32,6.81-1.64.03-.08.01-.56-.06-1.06-3.5,1.3-7.23,1.32-7.4,1.32-.22,0-.4-.18-.4-.4s.18-.4.4-.4c.04,0,4.09-.02,7.55-1.43.11-.04.23-.04.34.02.11.05.18.16.2.27.14.67.32,1.86-.11,2.3-.48.48-6.55,1.84-7.39,1.84h0Z"
  />
  <path
    d="m190.96,310.05c-4.51,0-10.05-4.13-10.97-5.42-.13-.18-.29-.41-.48-.68-1.09-1.58-3.12-4.51-4.92-5.67-2.29-1.47-3.51-2.48-4.21-4.24-.62-1.54.06-3.87.29-4.55-1.61-2.55.14-4.33.16-4.35.16-.16.41-.16.56,0s.16.41,0,.56c-.06.06-1.37,1.43.05,3.5.07.11.08.24.04.37,0,.03-.97,2.67-.37,4.17.62,1.55,1.76,2.48,3.9,3.86,1.94,1.24,4.02,4.27,5.15,5.89.19.27.35.51.47.67.91,1.25,6.92,5.66,11.18,5.03,1.91-.28,3.1-.81,3.53-1.57.29-.52.25-1.17-.12-2.06-.65-1.57-4.22-5.54-5.57-7.04-1.57-1.75-5.4-8.7-5.48-9.72l-.02-.32c-.03-.47-.11-1.58-.32-1.74-.21-.06-.32-.28-.25-.5.06-.21.29-.33.51-.26.71.21.78,1.35.85,2.44l.02.31c.06.7,3.66,7.44,5.28,9.25,2.34,2.59,5.1,5.76,5.72,7.26.29.72.63,1.79.07,2.77-.57,1-1.91,1.64-4.11,1.97-.32.04-.63.06-.97.07h0Z"
  />
  <path
    d="m191.72,313.58c-1.85,0-3.68-.32-4.51-.48-2.75-.55-6.27-3.96-7.05-5.53-1.3-2.59-2.68-4.3-4-4.94-2-.97-5.92-4.09-6.65-5.5-.76-1.47.16-3.82.2-3.92.08-.2.32-.31.52-.22.2.08.31.32.22.52-.23.58-.72,2.31-.23,3.27.64,1.24,4.45,4.26,6.28,5.14,1.88.91,3.41,3.38,4.37,5.3.71,1.41,4,4.61,6.5,5.11,2.97.6,6.93.81,8.28-.56,1.38-1.39,1.44-2.92.19-5.11-.11-.19-.04-.43.15-.55s.43-.04.55.15c1.42,2.49,1.32,4.41-.32,6.07-.96.97-2.74,1.25-4.5,1.25h0Z"
  />
  <path
    d="m175.8,298.65c-.17,0-.33-.11-.38-.28-.14-.44-.61-1.71-1.07-2.17-.58-.56-.62-1.64-.12-3.3.07-.42-.64-3.15-1.39-5.54-.06-.21.05-.43.26-.51.22-.06.43.05.5.26.48,1.57,1.61,5.3,1.39,6.01-.54,1.8-.24,2.35-.08,2.5.7.68,1.22,2.32,1.29,2.5.06.21-.05.43-.26.5-.04.01-.08.02-.12.02v.02Zm11.22,3.41c-.14,0-.27-.07-.35-.2,0,0-.33-.59-1.1-1.53-.16-.19-.55-.6-1.03-1.11-1.96-2.02-5.59-5.77-6.41-8.49-.93-3.09-2.04-3.83-2.05-3.85-.18-.12-.24-.37-.13-.55s.36-.24.54-.14c.14.08,1.39.92,2.4,4.3.76,2.53,4.45,6.33,6.22,8.16.53.54.91.94,1.09,1.16.81,1,1.15,1.61,1.17,1.64.11.19.04.43-.16.54-.06.03-.13.05-.19.05h0Z"
  />
  <path
    d="m185.51,303c-.15,0-.28-.07-.36-.22-.09-.2-.02-.43.17-.54l.15-.07c3.81-1.99,4.83-2.04,5.28-1.86.21.07.31.31.23.52-.07.2-.32.31-.52.23-.11-.04-.83-.15-4.63,1.83l-.15.07c-.06.03-.12.04-.18.04h0Zm-11.44-11.97c-1.05,0-2.95-1.13-3.17-1.25-.19-.12-.25-.36-.14-.55.12-.19.36-.25.55-.14.77.46,2.2,1.19,2.79,1.14.21,0,.41.15.42.37.01.22-.15.41-.37.42h-.09.01Z"
  />
  <path
    d="m189.55,301.07c-.15,0-.29-.08-.36-.22,0-.02-.95-1.95-2.9-5.08-1.46-2.34-1.82-4.97-1.98-6.24-2.14,1.45-7.36,1.5-8.02,1.5-.22,0-.4-.18-.4-.4s.18-.4.4-.4c1.84,0,6.86-.31,7.95-1.71.09-.13.28-.19.43-.15.29.08.32.28.39.91.14,1.13.45,3.77,1.89,6.06,1.98,3.17,2.91,5.08,2.94,5.16.09.2.01.44-.19.54-.05.03-.12.04-.17.04h.01Z"
  />
  <path
    d="m186.08,302.7c-.15,0-.28-.07-.36-.22-.09-.18-.03-.4.14-.52.22-.21,1.4-1.79,2.56-3.38-2.48-.21-5.01-.37-5.35-.28-.18.11-.36.04-.48-.12-.23-.29-.09-.42.55-1.05.65-.63,2.3-2.23,2.71-2.98-1.01-.21-5.46.67-6.1.92-.18.07-.41,0-.52-.16-.19-.32-.12-.38.82-1.13,2.78-2.24,4.22-3.63,4.29-4.15.03-.22.21-.37.45-.35.22.03.37.23.35.45-.12.83-1.66,2.29-4.01,4.19,1.89-.41,4.77-.91,5.39-.34.18.16.24.39.17.62-.23.73-1.52,2.04-2.76,3.26.88.02,2.45.11,5.28.36.14.01.26.11.33.23s.04.28-.04.4c-2.87,3.99-3.12,4.13-3.21,4.17-.06.03-.12.04-.18.04v.03Zm-53.21,9.23c-1.5,0-2.6-.37-3.28-1.11-.81-.87-.75-1.99-.68-2.43.15-1.05,1.16-3.01,2.47-4.77.73-.98.92-1.16,1.44-1.65.46-.43,1.18-1.09,2.77-2.78,3.29-3.48,5.53-10.61,5.55-10.68.06-.21.28-.33.5-.26.21.06.33.29.26.5-.09.31-2.33,7.37-5.73,11-1.61,1.71-2.33,2.37-2.8,2.81-.51.46-.67.62-1.35,1.54-1.37,1.85-2.2,3.62-2.32,4.4-.04.33-.09,1.16.48,1.78.6.65,1.7.93,3.29.82,4.42-.28,7.13-1.04,10.57-4.6,1.01-1.05,1.81-1.92,2.52-2.69,1.88-2.04,3.11-3.39,5.97-5.53,3.36-2.51,3-3.65,2.52-5.22-.05-.16-.09-.32-.15-.47l-.37-1.3c-.5.35-1.38.87-2.64,1.3-.21.07-.43-.04-.51-.25s.04-.43.25-.51c1.88-.62,2.83-1.51,2.84-1.51.11-.09.24-.13.38-.09.14.04.24.14.27.27l.53,1.86c.04.16.09.31.14.46.52,1.66,1,3.24-2.81,6.09-2.8,2.1-4.01,3.42-5.86,5.44-.71.78-1.51,1.65-2.53,2.71-3.59,3.73-6.55,4.55-11.08,4.85-.22.01-.44.02-.64.02h0Z"
  />
  <path
    d="m154.74,291.02c-.05,0-.11,0-.16-.03-.2-.08-.29-.33-.2-.53.81-1.83.63-2.59.45-2.88-.17-.27-.43-.28-.43-.28-.21-.01-.39-.19-.39-.41s.18-.39.39-.39c.25,0,.76.14,1.09.63.48.75.36,1.97-.39,3.65-.06.15-.21.24-.37.24h.01Zm-16.07,12.77c-.07,0-.14-.02-.2-.05-.19-.12-.25-.36-.14-.55.2-.33,4.68-6.64,5.53-7.35.55-.45,2.92-4.06,4.37-6.35.12-.19.36-.24.55-.13s.24.37.13.55c-.38.6-3.71,5.86-4.53,6.54-.73.61-5.15,6.81-5.36,7.15-.07.13-.21.19-.35.19Zm-2.93-1.73c-.08,0-.17-.03-.24-.08-.17-.14-.2-.39-.06-.56.03-.03,2.68-3.41,3.96-4.87.98-1.11,1.2-4.98,1.2-6.38,0-.22.18-.4.4-.4s.4.18.4.4c0,.55-.05,5.38-1.4,6.91-1.26,1.44-3.91,4.8-3.93,4.84-.07.11-.2.15-.32.15h-.01Z"
  />
  <path
    d="m139.7,304.79c-.26,0-.57-.2-1.75-1.07-.74-.54-2.24-1.64-2.68-1.7-.16.07-.36.05-.48-.09-.15-.17-.13-.42.04-.56.52-.45,1.5.18,3.59,1.71.53.39,1.19.86,1.35.93.22,0,.37.17.37.39s-.21.39-.43.39h-.01Zm-4.61,4.79h-.03c-2.02-.16-3.39-.65-4.07-1.5-.48-.6-.42-1.16-.42-1.21.03-.22.23-.38.45-.34.21.03.37.22.34.44,0,.02-.01.31.27.64.38.44,1.29,1.01,3.48,1.17.22.02.38.21.37.43-.02.21-.19.37-.4.37h.01Zm13.49-16.16h-.06c-.15-.02-3.54-.54-4.59-.74-1.17-.22-2.72-2.05-2.89-2.27-.14-.17-.12-.42.05-.56s.42-.12.56.05c.58.71,1.75,1.86,2.42,1.99,1.04.2,4.53.73,4.57.73.22.03.37.23.34.45-.03.2-.2.34-.39.34h-.01Z"
  />
  <path
    d="m138.67,304.16c-.13,0-.25-.06-.34-.18l-2.79-4.29c-.08-.13-.08-.28-.01-.42.07-.13.23-.2.37-.2l5.48.27-3.27-2.83c-.13-.11-.17-.28-.12-.44s.2-.26.37-.26l4.93-.05-2.71-3.4c-.11-.13-.12-.31-.03-.45.08-.14.25-.21.41-.19l5.5.92c.22.03.37.24.33.46-.03.22-.24.36-.46.33l-4.48-.75,2.56,3.23c.09.12.12.28.05.42s-.2.22-.36.23l-4.7.05,3.35,2.91c.13.12.17.29.11.45s-.22.26-.39.25l-5.85-.29,2.36,3.63c.12.19.07.43-.12.55-.06.04-.15.06-.22.06h.02Z"
  />
  <path
    d="m140.73,302.06h-.04l-5.65-.54c-.22-.02-.38-.21-.36-.43s.21-.38.43-.36l4.68.44-2.76-3.31c-.09-.12-.12-.27-.06-.41s.19-.23.34-.24c.92-.07,3.2-.24,4.92-.11-.66-.57-1.56-1.37-2.79-2.47-.12-.09-.16-.25-.13-.4s.15-.25.29-.29c1.22-.28,7.37-1.68,8.43-1.32.21.07.33.29.25.51s-.29.33-.51.25c-.52-.17-3.95.44-7.24,1.17,1.17,1.03,2.63,2.31,3.3,2.86.16.07.29.15.38.24.29.33.16.55.06.64-.17.17-.25.25-.85-.2-.78-.27-3.08-.29-5.28-.16l2.89,3.46c.11.13.13.29.04.44-.07.14-.21.21-.35.21h0Z"
  />
  <path
    d="m145.75,306.86c-.14,0-.27-.07-.36-.19-.31-.44-.82-5.19-.85-6.6-.03-1.64-1.88-7.45-1.89-7.51-.06-.21.05-.43.26-.51.21-.06.43.05.51.26.07.24,1.9,5.97,1.93,7.73.03,1.7.56,5.78.73,6.19.13.18.07.41-.12.54-.06.04-.14.06-.21.06h0Z"
  />
  <path
    d="m145.72,304.79c-.07,0-.15-.02-.21-.06-.19-.12-.24-.37-.12-.55,0,0,.91-1.55.62-6.48-.27-4.76-2.91-5.18-3.02-5.2-.22-.03-.37-.23-.34-.45.03-.22.22-.37.44-.35.14.02,3.4.48,3.72,5.94.31,5.26-.71,6.89-.75,6.95-.07.12-.2.18-.34.18v.02Zm-7.01,1c-4.94,0-6.01-2.52-6.06-2.64-.08-.2.02-.43.22-.52.2-.07.43.02.52.22.02.05,1.18,2.58,6.76,2.08.21-.02.41.14.43.36.02.22-.14.41-.36.43-.54.05-1.04.07-1.52.07h0Z"
  />
  <path
    d="m135.66,315.82c-3.06,0-6.81-1.39-7.64-3.07-1.03-2.06.58-4.08.64-4.16.14-.17.39-.19.56-.05.17.14.2.39.05.56-.01.02-1.35,1.69-.55,3.3.8,1.61,5.59,3.19,8.57,2.45,3.04-.76,5.45-2.14,7.29-6.42,1.46-3.41,5.66-5.14,8.16-6.17.82-.34,1.68-.7,1.85-.9.7-.78,1.07-1.88,1.33-2.6l.11-.28c.22-.62.13-2.56-.14-2.93-.18-.02-.33-.17-.35-.36-.02-.22.14-.41.36-.43.13-.02.39,0,.6.28.54.7.53,3.01.27,3.71l-.09.27c-.27.78-.68,1.97-1.49,2.87-.28.33-.94.6-2.15,1.11-2.39.99-6.41,2.64-7.73,5.75-2.09,4.86-4.99,6.17-7.83,6.88-.55.14-1.17.2-1.82.2h-.01Zm35.89-56.12c-.07,0-.16-.02-.22-.07l-3.12-2.13c-.11-.07-.18-.2-.18-.33v-1.99c0-.16.08-.28.21-.36-.08-.11-.17-.22-.25-.33-1.91-2.35-2-6.31-1.89-8.45.08-1.66-.42-3.52-1.47-5.36-.42-.75-.47-2.36-.52-3.93-.02-.61-.03-1.19-.07-1.7-.14-1.78-.81-5.64-1.43-7.12-.38-.92-.64-2.59-.87-4.06-.14-.84-.29-1.89-.4-2.08-.4-.37-2.29-7.61-2.21-7.93.04-.22.25-.35.47-.31.19.04.32.2.32.39.08.61,1.72,6.83,2.04,7.35.19.17.28.65.57,2.45.21,1.36.47,3.04.82,3.88.71,1.69,1.37,5.73,1.5,7.37.04.51.05,1.12.07,1.73.03,1.33.08,2.98.41,3.55,1.13,1.98,1.68,3.99,1.58,5.81-.11,2.03-.03,5.76,1.71,7.91,1.73,2.14,3.23,5,3.3,5.12.08.16.05.36-.08.48-.07.06-.17.11-.26.11v-.02Zm-2.72-2.74l1.54,1.05c-.41-.7-.95-1.56-1.54-2.4v1.35Zm12.81-11.09c-.07,0-.14-.02-.21-.05-.15-.08-.22-.25-.18-.42.02-.09.5-2.35,1.83-4.77.92-1.65,1.72-4.69,2.24-6.69.22-.84.4-1.51.52-1.83.25-.67.09-6.47.02-9.25-.06-2.18-.06-2.36-.03-2.48.05-.21.27-.34.48-.29.2.05.33.24.29.45,0,.17.02,1.2.05,2.3.15,5.53.19,8.86-.07,9.56-.11.29-.28.94-.5,1.76-.54,2.04-1.35,5.13-2.32,6.87-.26.47-.5.96-.7,1.4.19.02.34.18.35.38l.06,1.46c0,.13-.05.24-.15.33l-1.46,1.2c-.07.06-.16.09-.25.09h.01Zm1.02-2.41c-.13.34-.23.64-.32.92l.35-.28-.03-.63h0Z"
  />
  <path
    d="m173.61,258.77c-.18,0-.35-.13-.39-.31-.05-.21.07-.43.29-.48,6.89-1.7,8.59-4.25,9.5-5.62,1-1.51.97-3.82.61-6.85-.25-2.13-.82-2.65-.96-2.75-.05,0-.09-.01-.15-.03-.2-.08-.29-.32-.21-.53.07-.17.28-.27.46-.24.21.03,1.26.34,1.63,3.46.38,3.19.4,5.67-.74,7.39-.97,1.46-2.78,4.18-9.98,5.95-.03,0-.06.01-.09.01h.01Zm9.43-16.25s-.04.07-.07.11c.03-.03.05-.06.07-.11Zm-61.66-78.38c-1.41,0-2.62-.48-3.51-.83-.74-.29-1.31-1.13-1.69-2.45-.32-1.1-.55-2.98-.22-3.43.13-.17.33-.43,2.94.04-1.22-.77-2.88-2.21-3.53-4.07-1.2-3.41,1.47-5.92,2.36-6.74,1.63-1.52,4.42-.42,4.54-.38.2.08.31.32.22.52-.08.2-.32.31-.52.22-.02-.01-2.44-.95-3.7.22-1.37,1.27-3.08,3.28-2.15,5.9.83,2.35,3.53,3.96,4.13,4.13.2-.06.48,0,.87.2.83.41,1.78,1.23,1.73,2.18-.03.54-.2.93-.5,1.16-.35.27-.73.21-.77.21-.03,0-.28-.04-.51-.32-.32-.39-.43-1.06-.35-2.02-1.71-.38-3.59-.71-4.16-.68-.09.72.34,4.09,1.57,4.58,1.52.61,3.8,1.52,6.41-.27,1.43-.99,2.78-1.92,2.84-2.34,0-.03.01-.09-.09-.23-.58-.8-1.11-1.53-1.25-2.01-.15-.19-1.71-1.43-2.84-2.35-2.72-2.17-3.24-2.64-3.33-2.95,0-.01-.41-1.61.06-2.23.28-.38.85-.32,1.18.03.36.38.51,1.13.46,2.2,1.77.53,3.45.81,3.74.62.21-.41,0-.71,0-.72-.14-.18-.11-.42.07-.56s.42-.09.56.07c.2.25.43.88.03,1.62-.31.59-1.65.56-3.99-.09.55.44,1.17.94,1.71,1.37,2.56,2.04,3.02,2.45,3.11,2.74.11.36.64,1.1,1.12,1.75.23.32.31.59.25.87-.12.7-.92,1.31-3.18,2.87-1.3.9-2.54,1.19-3.65,1.19h.02Zm.18-5.46c-.11,1.09.12,1.47.21,1.53,0,0,.06,0,.13-.06.06-.05.17-.19.19-.58.02-.31-.22-.62-.52-.9h-.01Zm-.99-7.95c-.07.29-.01,1.03.11,1.44.02.03.07.08.15.15.03-.93-.11-1.43-.25-1.59Zm-2.06,21.73c-.32,0-.94-.22-2.21-1.38-.16-.15-.18-.4-.03-.56.15-.17.4-.18.56-.03.5.45,1.04.86,1.39,1.05-.28-.73-1.37-1.97-2.33-3.08-.41-.46-.82-.95-1.22-1.42-1.73-2.08-2.01-9.08-2.02-9.38,0-.22.17-.4.38-.41.24.02.4.17.41.38,0,.07.28,7.03,1.83,8.9.4.47.81.95,1.21,1.41,1.57,1.8,2.54,2.96,2.6,3.8.03.43-.22.59-.33.64-.05.02-.13.06-.25.06h.01Zm9.46-1.51c-3.85,0-8.78-4.14-9-4.33-.17-.15-.19-.39-.04-.56.14-.17.39-.19.56-.04.05.04,5.47,4.6,9.05,4.1,3.62-.51,4.76-1.07,4.77-1.09.19-.11.43-.03.54.17.11.19.03.43-.17.54-.05.02-1.22.63-5.03,1.17-.22.03-.44.04-.67.04h-.01Z"
  />
  <path
    d="m131.48,161h-.05c-.54-.07-3.26-.82-3.96-1.17-.2-.09-.27-.34-.18-.54s.34-.27.54-.18c.61.31,3.23,1.02,3.71,1.1.22.03.37.23.34.45-.03.2-.2.35-.39.35h0Zm-6.98,32.06c-.08,0-.18-.03-.25-.08-.07-.06-1.94-1.57-2.5-3.63-.25-.92-1.14-2.69-2.06-4.57-1.01-2.02-2.15-4.31-2.77-6.08-1.2-3.41-1.44-9.97-1.45-10.24,0-.22.17-.4.39-.41.24,0,.4.17.41.39,0,.06.24,6.71,1.4,10,.6,1.72,1.74,3.98,2.73,5.98,1,2,1.85,3.73,2.13,4.72.5,1.81,2.2,3.2,2.22,3.21.17.14.2.39.06.56-.07.09-.19.15-.32.15h.01Zm.9,2.06c-.15,0-.29-.08-.36-.23-.09-.2,0-.44.19-.53.05-.02,5.82-2.71,7.73-5.36.13-.18.38-.22.56-.08.18.13.22.38.08.56-2.04,2.81-7.8,5.5-8.05,5.62-.05.02-.12.03-.17.03h.01Zm7.04,5.18c-.82,0-2.02-.55-2.99-1-.43-.2-.97-.44-1.16-.48-.17.04-.35-.02-.44-.18-.12-.19-.05-.43.14-.55.31-.19.67-.03,1.79.48.87.4,2.09.93,2.71.93.2-.05.41.16.42.38s-.16.41-.38.42h-.09.01Zm4.53,10.25c-.38,0-1.32-.39-5.53-4.5l-.2-.2c-.16-.15-.18-.39-.04-.56.14-.16.38-.19.55-.06.01,0,.11.09.25.24,3.97,3.87,4.84,4.25,5.01,4.27.21-.03.4.12.44.33s-.13.42-.35.46c-.03,0-.07.01-.13.01h-.01Zm-2.08-26.84c-2.04,0-8.44-2.06-8.85-2.53-.11-.13-.14-.33-.06-.47.14-.26.43-.23.53-.23.62.04,3.57-1.54,6.6-3.4-7.53,1.09-13.93-2.91-14.19-3.28-.13-.18-.08-.43.08-.56.17-.12.39-.09.53.05.74.65,7.93,4.69,15.57,2.54.19-.05.39.04.47.22s.02.39-.15.5c-1.04.67-5.57,3.56-7.89,4.46,2.11.77,6.87,2.13,7.53,1.89.21-.07.43.02.52.23.07.21-.02.43-.23.52-.11.04-.26.06-.46.06h.01Z"
  />
  <path
    d="m133.95,181.82h-.06l-2.48-.4c-.17-.02-.29-.15-.33-.32-.03-.16.04-.33.18-.42,1.38-.86,2.91-1.86,3.09-2.04.11-.2.33-.24.52-.14s.24.38.15.57c-.05.09-.14.25-2.42,1.72l1.43.23c.22.03.37.24.33.45-.03.2-.2.34-.39.34h-.01Zm25.18,30.8c-.14,0-.27-.07-.35-.2l-1.39-2.47s-.04-.11-.05-.17c-.11-1.4-.32-3.65-.46-4.1-.22-.68-.37-5.58-.4-6.56,0-.22.17-.4.39-.41.22-.02.4.17.41.39.07,2.78.23,5.94.36,6.34.21.65.44,3.56.5,4.19l1.35,2.38c.11.19.04.43-.15.55-.06.03-.13.05-.2.05Zm1.33-9.01c-.16,0-.31-.09-.37-.25-.38-.94-.16-3.12,0-3.56.07-.21.29-.33.51-.25.21.07.32.29.25.51-.13.37-.28,2.31,0,3.01.08.2-.02.44-.22.52-.05.02-.09.03-.15.03h-.02Zm-22.62,38.06c-.18,0-.34-.13-.39-.31-.01-.05-1.36-5.5-1.8-6.6-.28-.68-.28-2.25-.27-3.92,0-1.24,0-2.52-.14-3.04-.34-1.27-1.63-12.34-1.69-12.81-.02-.22.13-.42.35-.44.21-.02.41.13.44.35.46,3.96,1.4,11.73,1.66,12.71.17.63.17,1.91.16,3.26,0,1.44,0,3.08.22,3.61.47,1.15,1.79,6.48,1.84,6.71.05.21-.07.43-.29.48-.03,0-.06.01-.09.01h0Z"
  />
  <path
    d="m142.74,281.36h-.01c-.7,0-1.53-.96-1.77-1.25-.14-.17-.12-.42.05-.56s.42-.12.56.05c.36.44.83.85,1.07.95-.04-.91-1.31-4.56-2.01-6.57-.42-1.2-.78-2.23-.96-2.84-.64-2.18-1.13-11.62-1.06-13.36.03-.79.35-1.43.63-1.99.43-.86.7-1.39-.05-2.17-1.42-1.49-1.11-3.36-.96-3.95-.32-.56-1.27-2.37-1.27-3.45,0-1.18,1-9.58,1.26-11.1.21-1.2-.48-7.19-.77-9.39-.03-.22.13-.42.35-.44.22-.03.42.13.44.35.04.33,1.03,8.06.76,9.63-.28,1.62-1.25,9.93-1.25,10.97,0,.84.91,2.59,1.25,3.19.05.09.07.22.03.33-.02.07-.61,1.93.73,3.32,1.15,1.19.64,2.2.19,3.09-.25.52-.53,1.04-.55,1.66-.07,1.93.45,11.14,1.03,13.11.17.59.53,1.62.95,2.81,1.94,5.57,2.3,6.96,1.91,7.41-.14.16-.34.25-.55.25v-.03Zm9.48,7.67c-.11,0-.22-.04-.29-.14-.15-.17-.13-.42.04-.56l.48-.42c.15-.23.73-1.1,1.51-1.66.21-.16.19-.4.11-.87-.07-.38-.19-.99.34-1.26.15-.34.16-1.71-.51-6.19l-.06-.46c-.21-1.5.67-6.73.95-7.56.13-.38.16-1.39.19-2.69.03-1.15.07-2.59.19-4.2.2-2.61-.33-2.9-.34-2.9-.13.03-.22-.01-.32-.11-.09-.09-.11-.22-.08-.35,0-.03.46-3.04.46-3.93,0-.6-.66-1.27-.92-1.49-.09-.08-.16-.21-.15-.34,0-.13.07-.24.18-.32,0,0,.71-.45,1.19-.95.16-.29-.13-2.03-.63-3.79-.03-.12-.01-.23.05-.33.03-.05.9-1.38,1.65-2.08.26-.24.19-1.53.14-2.37-.05-.95-.11-1.85.09-2.39.25-.66-.01-3.55-.19-5.46-.08-.9-.16-1.68-.17-2.17-.06-1.7.4-4.41,1.09-5.26.48-.59.92-6.32.75-7.16-.19-.96,1.1-7.91,1.33-8.4.09-.2.34-.27.54-.18.19.09.27.33.18.53-.21.55-1.41,7.15-1.26,7.89.17.84-.18,6.93-.91,7.83-.5.61-.97,3.08-.91,4.72.02.48.09,1.25.17,2.13.25,2.81.43,5.04.14,5.81-.15.39-.09,1.27-.04,2.06.08,1.35.15,2.51-.4,3.01-.54.5-1.18,1.41-1.42,1.77.42,1.47.96,3.82.38,4.4-.29.29-.64.57-.92.77.36.38.83,1.02.83,1.75,0,.77-.29,2.9-.42,3.72.03.02.07.05.11.08.53.47.72,1.63.58,3.54-.12,1.6-.16,3.02-.19,4.16-.04,1.45-.06,2.42-.23,2.92-.27.83-1.1,5.91-.92,7.2l.06.46c.83,5.66.7,6.77.08,7.02,0,.03.04.25.07.4.09.48.23,1.21-.42,1.68-.76.54-1.32,1.46-1.32,1.47-.02.03-.05.06-.07.09l-.53.46c-.07.06-.17.09-.26.09h0Z"
  />
  <path
    d="m149.43,301.53c-.22,0-.4-.18-.4-.4v-2.47l1.6-6.74.62-2.84-1.41-.04-1.01.95c-.07.06-.65.54-1.27.45-.22-.03-.54-.15-.79-.53-.21-.27-1.83-.53-2.81-.67-1.63-.25-2.57-.41-2.93-.81-.59-.65-.36-1.35-.21-1.8.04-.14.09-.26.11-.38,0-.15-.29-.65-.51-1.03-.4-.71-.9-1.6-1.09-2.49-.35-1.6,1.41-6.23,1.61-6.74.07-.21.32-.31.52-.23.21.07.31.31.23.52-.53,1.36-1.82,5.13-1.58,6.29.17.78.63,1.6,1,2.27.39.7.64,1.15.6,1.53-.02.17-.07.35-.14.54-.15.44-.22.72.04,1.01.21.21,1.56.42,2.45.56,1.84.28,2.99.48,3.35,1.02.09.14.18.17.23.17.21.03.53-.16.63-.25l1.12-1.05c.07-.07.17-.09.28-.11l2.05.06c.12,0,.23.06.31.16s.11.21.07.33l-.73,3.33-1.59,6.66v2.37c.01.22-.17.4-.39.4h.02Zm41.47-129.25c-.54,0-.95-.04-1.15-.16-.63-.34-3.76-.38-4.44-.15-.05.08-.13.15-.22.18-.21.07-.43-.04-.51-.25-.05-.16.03-.41.16-.52.63-.53,4.53-.41,5.38.04.7.38,5.78-.47,6.32-.92.16-.19.23-.5.25-.76-1.5.12-6.36.56-7.86,1.22-.2.08-.43,0-.53-.2-.08-.2,0-.43.2-.53,1.9-.85,8.3-1.31,8.57-1.33.22-.01.41.15.42.37,0,.12.06,1.11-.46,1.75-.48.59-4.16,1.25-6.15,1.25h.01Zm-37.15,26.56c-.22,0-.4-.18-.4-.4s.18-.4.4-.4c.08,0,8.21,0,9.68-.33l.59-.13c1.51-.33,6.08-1.31,6.56-1.69.16-.16.41-.15.56,0,.16.16.15.41,0,.57-.39.38-2.2.87-6.95,1.9l-.59.13c-1.55.34-9.51.34-9.85.34h0Zm-.56-7.57h-.13c-.62-.05-.92-.48-1.02-.64-.18-.13-.2-.35-.08-.53.12-.18.4-.21.58-.09.04.03.13.13.16.17.09.14.21.28.43.29.27,0,.95-.13,2.19-1.41.05-.06.13-.09.21-.12.12-.02,2.83-.54,5.15,0,2.22.53,9.2-.22,10.8-1.64.17-.15.41-.13.56.03.15.17.13.42-.03.56-1.93,1.71-9.29,2.34-11.52,1.82-1.89-.44-4.16-.11-4.7-.02-1.04,1.05-1.9,1.56-2.61,1.56v.02Zm2.82,2.32h-.01c-.22,0-.39-.19-.39-.41s.19-.41.41-.39c.39,0,6.22-.21,7.17-.51.21-.06.43.05.5.26s-.05.43-.26.51c-1.12.35-7.04.55-7.42.55h0Zm9.58-1.57c-.26,0-.44,0-.51-.03-.21-.05-.35-.27-.29-.48s.26-.34.47-.29c.34.04,3.68-.03,6.08-.98.2-.07.43.02.52.22s-.02.43-.22.52c-2.1.83-4.88,1.04-6.04,1.04h-.01Z"
  />
  <path
    d="m154.55,190.73c-.15,0-.28-.07-.35-.21-.11-.2-.03-.43.17-.54.37-.19,1.06-1.32,1.81-2.51.37-.59.78-1.25,1.23-1.95,1.39-2.13,8.4-9.52,8.84-9.67.21-.07.43.04.51.25.06.18-.01.37-.17.46-.52.42-7.03,7.13-8.51,9.39-.45.68-.86,1.34-1.22,1.93-.94,1.51-1.56,2.5-2.11,2.79-.06.03-.13.04-.19.04h-.01Zm10.62-2.73h-.07c-.21-.04-.36-.25-.32-.46.8-4.08,7.52-15.48,7.81-15.95.12-.19.36-.25.55-.14s.25.36.14.55c-.07.12-6.93,11.76-7.7,15.7-.04.19-.2.33-.39.33v-.02Zm4.98.54h-.09c-.21-.05-.35-.26-.29-.47.24-1.04.99-3.35,1.65-5.37.51-1.57,1.09-3.36,1.12-3.61-.04-.22.11-.39.33-.42.21-.03.42.15.46.36.04.21-.05.55-1.15,3.93-.65,2.01-1.39,4.3-1.63,5.31-.04.18-.21.31-.39.31v-.02Zm-19.24-9.84c-.11,0-.22-.04-.29-.13-.15-.17-.14-.42.03-.57.01,0,1.19-1.09,3.6-3.72,1.9-2.06,7.29-18.86,9.87-27.46.06-.21.28-.33.5-.26s.33.28.26.5c-.31,1.02-7.56,25.05-10.05,27.77-2.44,2.67-3.61,3.73-3.66,3.77-.07.07-.17.11-.26.11h0Zm5.97-17.96c-.07,0-.14-.02-.2-.05-2.84-1.68-11.46-13.76-11.82-14.28-.13-.18-.08-.43.09-.56.18-.13.43-.08.56.09.08.13,8.87,12.46,11.58,14.05.19.12.25.36.14.55-.07.13-.21.2-.35.2h0Zm11.69-28.38c-.07,0-.14-.01-.21-.04-.36-.15-.39-.59-.41-.74-.04-.52.15-.78.32-.92.35-.28.81-.15.85-.14.21.06.33.28.26.5-.01.05-.04.09-.07.13.11.03.21.09.26.21.09.2.02.44-.18.54-.04.02-.09.07-.15.12-.18.15-.41.35-.67.35Zm.19-1.07s-.01.03-.02.12c.04-.04.09-.07.14-.12-.04,0-.11-.01-.13,0h.01Z"
  />
  <path
    d="m170.1,132.37c-.12,0-.23-.04-.33-.13-.12-.11-.39-.35-.01-1.83.04-.18.2-.31.39-.31h.59c.12,0,.22.05.31.14.07.08.11.2.09.32-.08.57-.31,1.56-.84,1.76-.06.02-.13.03-.19.03v.02Z"
  />
  <path
    d="m172.08,132.36c-.16,0-.31-.09-.37-.24l-.14-.33c-.02.08-.03.15-.03.18-.01.22-.21.36-.41.38-.21,0-.39-.18-.39-.39,0-.23.21-1.07.35-1.55.04-.17.19-.28.36-.29.16-.03.33.08.39.24l.21.51.18-.48c.07-.21.31-.32.51-.23.21.07.32.31.23.52l-.53,1.44c-.05.16-.2.26-.37.26h.01Zm-35.7,46.95c-.09,0-.2-.03-.27-.09-.45-.36-2.17-4.93-2.54-7.24-.33-2.09-1.44-6.88-2.12-9.75l-.36-1.53c-.2-.88-.44-2.45-.72-4.29-.46-3.13-1.05-7.02-1.72-8.98-1.11-3.24-2.44-13.31-2.61-14.71-.2-1.7-.79-5.11-.79-5.14-.04-.22.11-.42.33-.46.22-.03.42.11.46.33,0,.03.6,3.48.8,5.18.26,2.25,1.58,11.61,2.57,14.55.68,2.02,1.27,5.95,1.75,9.11.27,1.81.51,3.37.7,4.22l.36,1.53c.67,2.88,1.79,7.68,2.13,9.8.38,2.43,2.01,6.42,2.29,6.77.17.14.18.37.04.54-.07.09-.19.14-.31.14h.01Z"
  />
  <path
    d="m131.14,159.14c-.12,0-.22-.04-.31-.14-.04-.05-4.26-4.9-6.37-7.87-2.19-3.08-5.51-12.73-5.64-13.16-.05-.21.06-.43.28-.48.21-.06.43.07.48.28.12.41,3.42,9.97,5.51,12.91s6.28,7.76,6.32,7.81c.15.17.13.42-.04.56-.07.06-.17.09-.26.09h.02Zm68.86-9.9c-.08,0-.18-.02-.24-.07-.72-.47-1.31-7.76-1.31-8.31,0-.84-1.33-4.57-2.21-7.05-.51-1.43-.95-2.67-1.1-3.19-.32-1.18-5.01-8.87-6.8-11.73-.12-.19-.06-.43.13-.55s.43-.06.55.13c.66,1.06,6.49,10.43,6.89,11.95.14.5.57,1.72,1.07,3.13,1.29,3.58,2.27,6.41,2.27,7.31,0,.46.06,1.3.16,2.24,0-.82.05-1.42.21-1.75.36-.94-2.65-10.36-3.37-11.25-.19-.17-.57-.92-1.96-3.78-1.43-2.95-4.4-9.08-5.2-9.43-.2-.08-.29-.32-.22-.52.08-.2.29-.31.51-.22.91.35,2.6,3.58,5.64,9.82.8,1.64,1.62,3.35,1.81,3.57.64.56,4.16,10.82,3.53,12.16-.25.54-.08,2.97.03,4.58.17,2.41.17,2.73-.15,2.91-.06.03-.14.05-.21.05h-.02Z"
  />
  <path
    d="m202.23,162.4h-.05c-.22-.03-.37-.23-.35-.44.04-.29.94-7.3,1.27-8.39.27-.86-1.01-10.08-1.46-11.75-.19-.71-.34-2.17-.48-3.72-.17-1.75-.36-3.72-.64-4.66-.16-.55-.25-1.24-.37-2.13-.27-2.08-.7-5.2-2.47-9.12-2.45-5.44-7.94-10.12-8-10.17-.17-.15-.19-.39-.04-.56s.39-.19.56-.04c.23.2,5.68,4.85,8.21,10.45,1.82,4.02,2.24,7.23,2.53,9.34.12.85.2,1.53.35,2.01.29,1.01.48,2.94.67,4.8.15,1.52.28,2.94.46,3.58.36,1.31,1.84,10.95,1.45,12.19-.26.84-.99,6.24-1.24,8.25-.02.2-.2.35-.4.35h0Z"
  />
  <path
    d="m194.93,126.09s-.08,0-.14-.02c-.21-.07-.32-.31-.24-.51.22-.63,2.24-3.26,2.65-3.77.14-.18.39-.21.56-.07.17.14.2.39.07.56-.97,1.24-2.39,3.17-2.53,3.55-.06.16-.21.26-.38.26Zm-9.77,40.11h-.07c-.21-.04-.36-.25-.32-.47.27-1.35,2.08-6.22,3.04-8.83.24-.66.42-1.15.5-1.35.29-.84,2.49-14.02,2.63-15.58.14-1.34,2.37-11.52,2.47-11.95.04-.21.25-.35.47-.31.21.05.35.26.31.47-.02.11-2.32,10.57-2.45,11.86-.13,1.26-2.32,14.73-2.68,15.77-.07.2-.25.7-.5,1.36-.9,2.41-2.75,7.43-3,8.71-.04.19-.2.32-.39.32h-.01Z"
  />
  <path
    d="m183.97,179.29c-.22,0-.4-.18-.4-.4,0-.06.09-6.31.73-7.32.25-.41.56-1.73.83-2.9.26-1.13.51-2.18.75-2.65.32-.63.98-4.88,1.32-7.41.03-.22.23-.36.45-.35.22.03.37.23.35.45-.09.68-.92,6.7-1.39,7.66-.19.39-.44,1.45-.68,2.48-.32,1.35-.61,2.62-.93,3.14-.4.65-.6,5.77-.6,6.91,0,.22-.18.4-.4.4h-.02Z"
  />
  <path
    d="m184.63,172.18c-.22,0-.4-.18-.4-.39v-1c-.01-.12.03-.23.13-.31.06-.05.25-.26.08-.57-.45-.84-.15-17.85.35-19.15.37-.96-.05-12.92-.4-20.23,0-.22.16-.41.38-.42.22.02.41.16.42.38.09,1.95.9,19.11.35,20.54-.52,1.36-.67,17.53-.38,18.53.31.56.09,1.09-.14,1.37v.83c.01.22-.16.4-.38.4h-.01Zm12.61-25.6h-.08c-.22-.05-.52-1.09-.87-3.13-.21-1.22-.53-3.03-.67-3.5-.48-.14-2.48-.19-4.17-.2-.22,0-.4-.18-.4-.4s.18-.4.4-.4c4.41-.03,4.68.32,4.79.46.17.21.31.86.84,3.9.02.09.03.2.05.31.37-3.99.48-4.39.76-4.58.18-.13.42-.08.56.09.11.15.09.35-.01.48-.17.43-.41,3.02-.54,4.42-.2,2.15-.22,2.23-.31,2.37-.07.12-.21.18-.35.18h0Zm4.56-5.79c-.2,0-.37-.15-.39-.35-.07-.21-.84-.73-1.13-.75-.16.09-.36.07-.5-.06-.16-.16-.15-.41,0-.57.2-.19.5-.22.87-.09.51.18,1.45.78,1.53,1.36.03.22-.13.42-.34.45h-.05,0Z"
  />
  <path
    d="m188.85,158.4c-.25,0-.44-.01-.54-.05-.13-.04-.25-.18-.28-.31-.06-.26-.24-.9-.24-.9l.77-.21s.11.38.18.68c.8.02,3.59-.32,4.3-.46.17-.59.6-2.82.95-4.86.03-.17.17-.31.34-.33.18-.02.34.07.41.23l2.25,4.89h4.25c.15-.37.43-1.2.39-2.31-.06-1.65,0-12.59,0-13.05,0-.22.18-.4.4-.4s.4.18.4.4c0,.12-.06,11.38,0,13.02.07,1.76-.56,2.89-.58,2.94-.07.13-.2.2-.35.2h-4.76c-.16,0-.29-.09-.36-.23l-1.83-3.96c-.68,3.92-.84,4.02-1,4.12-.28.19-3.38.59-4.71.59h.02Zm-2.91,9.01c-.07,0-.16-.02-.22-.07-.18-.13-.23-.37-.11-.56.7-1.01,4.85-2.73,6.75-3.23,1.54-.41,4.74-3.86,5.85-5.15.14-.17.39-.19.56-.04.17.15.19.39.04.56-.17.2-4.16,4.85-6.25,5.4-2.08.56-5.82,2.21-6.3,2.91-.07.12-.2.17-.33.17v.02Zm2.94,35.57c-.11,0-.22-.04-.29-.14-.15-.17-.13-.42.03-.56.27-.24.47-1.22.61-1.95.11-.54.21-1.03.35-1.37.26-.62-.19-2.68-.4-2.97-.11-.09-.45-.45.41-2.11.06-.12.17-.19.28-.21.13-.01.25.02.34.11.04.03,1.1.94,3.36-.58,1.98-1.32,3.47-4.8,4.18-6.47.2-.45.33-.76.42-.92.09-.15.05-.37-.02-.7-.09-.46-.24-1.11.24-1.74.27-.37.66-1.59,1.04-2.77.43-1.37.93-2.93,1.45-3.88.93-1.65.75-5.82.75-5.86,0-.09.02-.18.07-.25,1.3-1.74,1.44-4.72,1.58-7.35.04-.72.07-1.4.13-2.02.25-2.82-.26-4.9-.27-4.92-.05-.21.07-.43.28-.48.21-.05.43.07.48.28.02.09.56,2.23.29,5.19-.05.61-.08,1.29-.13,1.99-.14,2.69-.29,5.73-1.65,7.68.02.78.09,4.46-.85,6.14-.5.87-.97,2.39-1.39,3.73-.5,1.58-.82,2.57-1.17,3.02-.24.32-.2.62-.09,1.09.08.4.18.84-.07,1.27-.07.13-.2.42-.37.82-.75,1.75-2.3,5.37-4.47,6.83-1.96,1.31-3.28,1.06-3.91.77-.17.38-.28.74-.29.88.38.56.86,2.86.5,3.76-.11.26-.2.73-.29,1.22-.19.97-.39,1.96-.86,2.38-.07.06-.17.11-.26.11v-.04Z"
  />
  <path
    d="m189.49,195.59c-.2,0-.37-.15-.4-.35-.45-3.85-5.52-11.09-6.48-11.81-1.31-.97-1.56-3.04-.55-4.44.66-.92,2.65.16,5.85,2,1.29.75,3.02,1.72,3.43,1.72.12-.43-.58-1.44-.8-1.77-.15-.21-.2-.29-.23-.39-.07-.21.04-.43.25-.51.2-.07.41.03.5.22.02.04.07.12.15.22.55.79,1.11,1.7.93,2.38-.06.25-.23.45-.47.57-.55.27-1.57-.26-4.15-1.75-1.51-.87-4.32-2.5-4.81-2.21-.74,1.03-.56,2.61.39,3.32,1.27.94,6.32,8.31,6.8,12.36.02.22-.13.42-.35.44h-.04Zm-4.15,2.53c-.19,0-.36-.14-.39-.33,0,0-.12-.56-.71-2.48l-.48-1.57c-1.7-5.43-1.82-5.99-1.76-6.23.05-.21.27-.34.48-.29.19.05.32.22.31.41.05.46,1.15,3.97,1.74,5.87l.48,1.58c.61,1.99.72,2.54.73,2.57.04.22-.11.42-.32.46h-.08Zm8.91-4.53c-.21,0-.39-.17-.4-.39-.21-6.49-1.85-8-1.88-8.02-.17-.15-.19-.39-.05-.56.14-.17.39-.19.56-.05.07.06,1.94,1.64,2.16,8.61,0,.22-.17.4-.39.41h-.01.01Z"
  />
  <path
    d="m196.4,187.28c-.15,0-.29-.08-.36-.23-.12-.26-1.14-.39-1.97-.32-.21.03-.41-.14-.43-.36-.02-.22.14-.41.36-.43.55-.05,2.35-.14,2.76.78.09.2,0,.43-.2.53-.05.02-.11.03-.16.03Zm.01-3.26s-.07,0-.11-.01c-.09-.02-9.25-7.35-9.11-9.13.02-.28.17-.52.41-.63.96-.46,3.54,1.15,4.61,1.85.18.13.23.37.12.55-.13.19-.37.23-.55.12-1.68-1.12-3.47-1.96-3.82-1.8.11,1.04,7.56,7.67,8.62,8.3.21.05.31.25.25.46-.04.18-.23.28-.41.28h-.01Zm.34-1.46c-.14,0-.27-.07-.35-.2-.29-.52-2.69-4.27-2.71-4.31-.12-.19-.06-.43.13-.55.19-.12.43-.06.55.13.09.16,2.42,3.8,2.73,4.34.12.19.04.43-.15.55-.06.03-.13.05-.2.05h0Zm0-3.86c-.09,0-.19-.03-.26-.11-.09-.09-.15-.22-.13-.35-.24-.53-2.09-2.52-2.45-2.71-.23-.03-.41-.29-.39-.6.04-.47.7-1.37,2.89-1.37s3.01-.92,3.02-.93c.15-.16.4-.18.56-.03.17.15.18.39.03.56-.04.05-1.07,1.2-3.61,1.2-1.29,0-1.84.35-2.02.54.81.55,2.56,2.56,2.75,3.13.09.27,0,.45-.08.53-.07.08-.19.13-.29.13h0Zm-27.1,41.02c-.09,0-.19-.03-.26-.11-1.4-1.27-.56-2.58-.05-3.36.14-.21.27-.43.31-.56.17-.62.34-5.37.03-9.58-.23-3.24.59-8.55,1.07-11.74.14-.88.24-1.58.28-1.97.04-.42.17-1.37.33-2.61.51-3.96,1.44-11.35,1.4-12.9-.01-.37-.04-1.12-.08-2.13-.21-4.84-.64-14.89-.31-16.52.39-1.89.33-16.08.25-18.53-.06-2.29,0-14.05.26-16.74.03-.36.08-.77.14-1.23.32-2.81.84-7.51.32-10.07-.59-2.91-3.56-6.73-3.59-6.76-.14-.17-.11-.42.06-.56s.42-.11.56.06c.13.16,3.12,4,3.74,7.1.55,2.69.01,7.46-.31,10.31-.05.45-.09.86-.14,1.22-.26,2.6-.33,14.42-.26,16.65.05,1.98.15,16.66-.27,18.71-.32,1.54.13,11.89.32,16.32.04,1.01.07,1.77.08,2.14.05,1.61-.86,8.75-1.4,13.02-.16,1.23-.27,2.18-.33,2.59-.04.41-.16,1.12-.29,2.01-.48,3.14-1.3,8.4-1.06,11.56.29,4.02.17,8.98-.05,9.84-.06.24-.22.5-.41.78-.59.93-.92,1.58-.07,2.35.16.15.18.4.03.56-.07.08-.19.13-.29.13h.01Z"
  />
  <path
    d="m170.46,221.95c-.08,0-.17,0-.26-.03-.5-.12-.79-.74-.91-1.9-.09-.9-.14-3.53.83-3.98.06-.03.14-.04.2-.03.37.03,1.09.34,1.16,1.23.03.44.02,1.12,0,1.72-.01.43-.03.98,0,1.1.04.22.12,1.17-.37,1.63-.18.17-.4.25-.64.25h-.01Zm-.06-5.1c-.13.21-.32.81-.35,1.91-.04,1.44.22,2.3.37,2.4.08.01.12-.02.14-.03.16-.16.19-.68.15-.91-.04-.19-.03-.59,0-1.27.02-.58.03-1.23,0-1.63-.02-.28-.17-.41-.29-.46h-.01Z"
  />
  <path
    d="m179.87,222.25c-3.52,0-8.28-1.29-8.49-1.35-.21-.05-.34-.27-.27-.48.05-.21.27-.35.48-.28.05.01,5.09,1.4,8.52,1.32,3.24-.06,5.15-1.13,5.77-1.75.28-.41.37-3.58.28-6.29,0-.22.17-.4.39-.41.26-.01.4.17.41.39.07,2.3.12,6.25-.52,6.88-.87.87-3.06,1.92-6.32,1.98h-.26Z"
  />
  <path
    d="m181.09,215.22c-2.83,0-10.15-2.59-10.36-3.28-.06-.21.05-.43.26-.51.14-.04.27,0,.38.07.55.32,7.07,3.1,9.91,2.9h.13c2.99-.2,4.36-.29,5.51-3.14.86-2.14,1.32-2.95,1.56-3.27-.01-.8-.05-4.29,0-5.13.03-.52-1.07-2.8-1.6-3.9-.47-.97-.64-1.33-.68-1.51-.04-.22.09-.43.31-.47.22-.04.43.09.47.31.03.13.35.77.61,1.33.98,2.02,1.74,3.62,1.69,4.3-.06.91,0,5.17,0,5.22,0,.13-.06.25-.16.33-.06.07-.45.58-1.46,3.09-1.34,3.32-3.17,3.43-6.19,3.63h-.13c-.08.01-.17.02-.25.02h.01Zm-30.81,1.11c-1.94,0-4.81-.48-8.72-1.46-5.34-1.34-9.18-4.67-9.33-4.81-.17-.15-.18-.4-.03-.56.15-.17.4-.18.56-.03.04.03,3.85,3.34,9,4.64,4.89,1.22,8.21,1.66,9.85,1.33l.15-.03c1.56-.33,3.49-.73,4.81-2.23.15-.17.4-.18.56-.03.17.15.18.4.03.56-1.51,1.71-3.67,2.16-5.25,2.49l-.15.03c-.41.08-.91.13-1.49.13h.01Z"
  />
  <path
    d="m182.37,200.97c-.14,0-.27-.07-.35-.21-1.11-2.01-3.37-16.98-3.39-17.11-.02-.22.14-.41.36-.43.21-.02.41.14.43.36.07.64,2.3,15.01,3.29,16.8.11.19.03.43-.16.54-.06.03-.13.05-.19.05h.01Zm-8.43-1.46h-.02c-.22,0-.39-.2-.38-.42.15-2.9,2.97-8.78,3.11-8.98.13-.18.37-.23.56-.12.18.13.23.37.12.55-.19.32-2.84,5.93-2.98,8.59,0,.21-.19.38-.4.38Zm-19.4,12.57c-.11,0-.22-.04-.29-.14-.87-.97-4.92-16.59-4.51-17.4.09-.2.34-.27.54-.18.16.07.24.24.22.4.06,1,3.35,15.53,4.35,16.65.15.17.14.42-.03.56-.07.07-.17.11-.26.11h-.01Zm-17.64.98c-.06,0-.12-.01-.18-.04-.73-.36-.95-1.97-.56-2.82.19-.42-.29-1.27-.81-2.18-.13-.21-.24-.43-.37-.65-.74-1.34-1.04-2.16-1.04-3.72,0-.67-.68-1.98-1.35-3.24-.64-1.22-1.31-2.49-1.51-3.46-.45-2.17,5.51-19.26,6.05-20.52.53-1.24.19-10.84.04-14.93-.04-1.2-.07-2.11-.07-2.53,0-.93-.27-2.68-.56-4.53-.34-2.19-.68-4.47-.68-5.85v-7.39c0-.22.18-.4.4-.4s.4.18.4.4v7.39c0,1.32.34,3.56.67,5.72.28,1.89.56,3.66.57,4.65,0,.42.03,1.32.07,2.51.23,6.71.44,13.98-.11,15.28-.8,1.9-6.36,18.28-5.99,20.05.18.85.81,2.08,1.42,3.24.74,1.41,1.43,2.75,1.43,3.61,0,1.38.23,2.04.95,3.33.12.22.24.43.36.64.64,1.14,1.21,2.11.84,2.91-.27.61-.03,1.68.19,1.78.2.09.27.34.18.54-.07.14-.21.22-.36.22h.01Z"
  />
  <path
    d="m137.01,198.52h-.05c-.22-.03-.37-.23-.34-.45.34-2.51.95-7.56.83-8.68-.17-1.46-.15-13.24-.14-13.75,0-.22.18-.4.4-.4s.4.18.4.4c0,.13-.02,12.23.14,13.65.17,1.5-.79,8.58-.83,8.88-.03.2-.2.35-.39.35h-.02Zm11.36-18.89h-.03c-.22-.01-.38-.21-.37-.42.13-1.73-2.27-14.29-3.12-18.25-.72-3.32-3.2-9.06-3.23-9.12-.08-.2,0-.43.21-.53.2-.08.43,0,.53.21.11.24,2.55,5.88,3.28,9.27.64,2.96,3.27,16.5,3.13,18.47-.01.21-.19.37-.4.37h.01Zm-18.12-48.72c-.12,0-.23-.05-.31-.15-.14-.17-.12-.42.05-.56.48-.39,1.05-.88,1.15-1,.07-.29.37-.84,1.54-1.59.97-.61,4.88-4.4,6.82-6.33l.99-1.59c.12-.19.37-.24.55-.13.19.12.24.37.13.55l-1.05,1.66c-.28.29-5.72,5.7-7.01,6.51-.71.44-1.13.85-1.24,1.22-.05.15-.09.27-1.37,1.32-.07.06-.16.08-.25.08h.01Zm14.54,25.15c-.17,0-.32-.11-.38-.27-1-2.98-2.72-7.69-3.32-8.44-.93-1.14-4.99-10.16-5.92-12.34-.38-.9-.79-1.7-1.15-2.41-.66-1.31-1.1-2.17-.99-2.79.14-.81,4.47-4.78,7.04-7.08.16-.15.41-.14.56.03s.14.42-.03.57c-3.17,2.83-6.57,6.09-6.78,6.65-.05.34.42,1.29.93,2.28.37.73.78,1.55,1.17,2.47,1.03,2.43,4.99,11.15,5.81,12.14.88,1.09,3.19,7.91,3.46,8.68.07.21-.04.43-.25.51-.04.01-.08.02-.13.02h0Zm41.97-32.62c-.72,0-1.88-.75-3.72-1.99-.92-.62-1.88-1.25-2.64-1.66-2.17-1.15-6.57-6.6-6.75-6.82-.14-.17-.12-.42.06-.56.17-.14.42-.12.56.06.04.05,4.48,5.54,6.51,6.62.81.43,1.78,1.07,2.72,1.71,1.15.77,2.86,1.96,3.3,1.85.2-.04.43.08.48.28.05.21-.05.41-.25.47-.07.02-.16.03-.24.03h-.02Z"
  />
  <path
    d="m170.15,208.24h-.09c-.21-.05-.35-.26-.29-.48.47-1.98.95-4.21.95-4.51-.02-.28.33-1.82,2.3-9.16l.41-1.52c.64-2.41,2.6-9.77,3.66-14.42.83-3.67.82-7.05.82-9.28,0-.78,0-1.39.03-1.83.13-1.59,1.72-11.04,2.43-12.27.32-.55.36-2.37.39-3.96.03-1.38.06-2.69.24-3.5.19-.85.72-3.6,1.21-6.26.58-3.06,1.13-5.95,1.3-6.65.06-.25.15-.65.26-1.17.46-2.16,1.34-6.19,2.43-8.2,1.3-2.36,3.34-14,3.34-15.35,0-1.11-3.11-4.08-8.93-6.75-5.37-2.47-7.63-1.73-7.65-1.72-.2.07-.43-.03-.51-.24s.03-.43.23-.51c.11-.03,2.53-.9,8.26,1.74,5.45,2.51,9.4,5.65,9.4,7.48,0,1.41-2.04,13.21-3.43,15.74-1.04,1.9-1.9,5.85-2.35,7.98-.12.52-.2.93-.26,1.19-.17.68-.74,3.7-1.3,6.61-.53,2.78-1.02,5.42-1.22,6.29-.17.74-.2,2.06-.22,3.34-.04,1.86-.08,3.62-.51,4.35-.58.99-2.18,10.03-2.33,11.94-.03.41-.03,1.01-.03,1.77,0,2.28,0,5.71-.84,9.46-1.05,4.68-2.95,11.78-3.67,14.45l-.41,1.52c-.61,2.29-2.24,8.38-2.27,8.9.04.42-.66,3.46-.97,4.74-.04.18-.21.31-.39.31v-.02Zm-13.26-79.03h-1.21c-.22,0-.4-.18-.4-.4v-3.6c0-.07.02-.15.05-.2l.26-.45c.04-.06.09-.12.16-.15-.01-.13.03-.25.14-.35.17-.15.42-.13.56.04l.73.84c.06.07.09.17.09.26v3.6c0,.22-.18.4-.4.4h.02Zm-.81-.8h.41v-3.06l-.26-.31-.16.26v3.1h.01Z"
  />
  <path
    d="m185.63,118.78s-.09,0-.14-.02c-.21-.07-.31-.31-.23-.52.88-2.35-.18-7.69-1.62-9.96-1-1.57-5.31-3.66-9-5.08-.03-.01-.15-.06-.18-.08-.18-.13-.22-.38-.09-.56.11-.16.32-.21.48-.14,2.45.95,8.1,3.3,9.46,5.43,1.57,2.47,2.68,8.07,1.7,10.66-.06.16-.21.25-.37.25h-.01Zm.4,5.93s-4.86-2.79-6.18-3.59c-1.37-.82-5.56-5.52-5.74-5.72-.15-.17-.14-.42.03-.57s.42-.13.56.03c1.19,1.34,4.51,4.94,5.55,5.57,1.33.8,6.17,3.58,6.17,3.58l-.4.7h.01Zm-42.9-46.91s-.09,0-.14-.02c-.21-.07-.31-.31-.23-.52.57-1.53,2.52-2.73,2.59-2.77.19-.12.43-.05.55.14.12.19.05.43-.14.55-.02,0-1.79,1.11-2.27,2.37-.06.16-.21.26-.37.26h0Zm.79-3.18c-.06,0-.12-.01-.18-.04-.2-.09-.27-.34-.18-.54.63-1.3,2.54-2.38,2.61-2.43.19-.11.43-.04.55.15.11.19.04.43-.15.55-.02,0-1.77,1.02-2.3,2.09-.07.14-.21.22-.36.22h0Zm12.5,40.91c-.82,0-1.7-.08-2.61-.28-7.39-1.58-7.82-9.07-7.82-9.16,0-.22.16-.41.38-.42.2-.02.41.16.42.38.01.28.41,6.96,7.19,8.41,7.4,1.58,11.43-4.39,11.87-5.08.93-1.46,1.42-2.87,1.02-5.33l-.79-.92s-.06-.09-.08-.15c-.47-1.64-.03-9.25-.01-9.58.01-.22.2-.41.42-.38.22.01.39.2.38.42-.13,2.12-.37,7.83-.03,9.23l.8.93c.04.05.07.13.09.19.47,2.77-.11,4.4-1.12,6.01-.41.65-3.83,5.71-10.09,5.71l-.02.02Z"
  />
  <path
    d="m147.1,158.75c-.19,0-.36-.14-.39-.33-.14-.76-1.86-11.53-1.99-12.59-.03-.27-.15-.82-.29-1.53-.45-2.18-1.15-5.49-.84-6.86.35-1.59-1.89-10.67-2.75-12.8-.65-1.59-.37-3.55-.16-4.98.07-.54.15-1.01.13-1.26-.06-.99.98-8.12,1.85-9.91.86-1.75,4.11-3.74,4.25-3.82.11-.06.23-.07.35-.03s.2.14.24.24c.05.15,5,14.81,8.71,18.94,1.04-.87,5.27-5.17,10.3-20.48.07-.21.29-.33.51-.25s.33.29.25.51c-5.92,18.02-10.7,21-10.9,21.11-.16.09-.36.06-.48-.06-3.52-3.54-8.05-16.32-8.98-19.03-.9.59-2.94,2.02-3.53,3.22-.78,1.59-1.83,8.6-1.78,9.5.02.34-.05.82-.14,1.43-.2,1.34-.46,3.17.11,4.56.85,2.1,3.19,11.42,2.79,13.27-.26,1.2.43,4.53.84,6.52.16.74.27,1.31.31,1.59.14,1.06,1.85,11.8,1.99,12.55.04.22-.11.42-.32.46h-.07v.02Zm-21.98-35.31c-.16,0-.32-.09-.37-.26-.06-.18-1.62-4.35-1.62-6.86,0-2.97,1.27-6.41,3.59-9.67,2-2.82,6.66-3.71,9.17-4.18.65-.13,1.4-.26,1.55-.36.66-.54,7.61-5.08,7.9-5.27.19-.13.43-.07.55.12s.07.43-.12.55c-2.49,1.63-7.33,4.83-7.85,5.24-.24.19-.73.29-1.89.52-2.39.45-6.85,1.3-8.66,3.87-3,4.24-3.45,7.59-3.45,9.21,0,2.36,1.55,6.53,1.57,6.57.07.21-.03.43-.23.52-.04.02-.09.02-.14.02h-.01Z"
  />
  <path
    d="m152.82,222.86c-3.31,0-10.74-.87-15.12-4.2-5.11-3.88-5.87-5.5-5.99-6.38-.06-.47-.02-1.05.03-1.61.04-.43.09-1.09.01-1.24l-.09-.17c-2.18-3.67-4.56-8.32-4.01-10.52-.81-.23-2.43-.88-3.09-2.53-.52-1.29-.48-2.63-.45-3.61.01-.55.02-1.06-.07-1.3-.08-.2.01-.44.21-.53s.43,0,.52.21c.16.39.15.94.14,1.62-.02.96-.05,2.16.4,3.3.71,1.76,2.93,2.15,2.95,2.15.13.02.24.11.29.22.05.12.05.26-.02.37-.71,1.2.72,5,3.81,10.19l.11.18c.2.35.16.87.08,1.71-.04.52-.09,1.04-.04,1.42.17,1.15,2.08,3.12,5.69,5.86,4.21,3.19,11.42,4.05,14.63,4.05,2.32,0,4.9-1.37,5.12-2.73.23-1.43-1.09-5.04-1.77-6.55-.45-1.01-2.63-7.13-2.56-9.36.06-1.85-1.25-7.49-1.75-9.62l-.11-.45c-.43-1.85-1.01-10.29-.8-11.72.07-.53-.14-1.68-.41-3.12-.39-2.09-.94-4.93-1.05-8.19-.19-5.33-.97-7.79-2.24-10.2-.67-1.29-2.19-3.4-3.54-5.28-1.07-1.51-2.01-2.8-2.34-3.43-.71-1.35-4.19-8.66-6.12-12.79-1.85-3.97-3.14-5.64-3.9-6.32-.79-.73-5.01-5.68-5.7-6.65-.65-.92-4.55-7.81-4.85-8.9-.31-1.15,1.79-3.14,2.44-3.73.17-.15.41-.14.56.03s.14.42-.03.57c-1.16,1.04-2.33,2.48-2.2,2.93.24.91,4.01,7.66,4.72,8.65.64.91,4.84,5.83,5.59,6.52.81.74,2.17,2.49,4.08,6.57,1.92,4.12,5.39,11.41,6.1,12.75.31.59,1.26,1.93,2.29,3.35,1.36,1.9,2.9,4.04,3.59,5.36,1.33,2.52,2.14,5.06,2.34,10.55.12,3.19.64,6.01,1.03,8.06.29,1.58.52,2.73.42,3.38-.18,1.3.4,9.72.79,11.43l.11.45c.55,2.35,1.82,7.86,1.77,9.82-.06,1.98,1.95,7.8,2.49,9.01.02.05,2.16,4.93,1.82,7.01-.31,1.94-3.37,3.39-5.91,3.39l.04.03Z"
  />
  <path
    d="m113.89,143.39h-.02c-.22-.01-.39-.2-.38-.42.07-1.38,2.74-10.56,3.42-12.05.53-1.15.7-1.99.94-3.26.08-.43.18-.91.29-1.44.47-2.18,3.53-6.36,3.66-6.53.13-.18.38-.22.56-.08.18.13.21.38.08.56-.03.04-3.08,4.21-3.52,6.24-.12.54-.21,1-.29,1.43-.25,1.27-.43,2.2-1,3.43-.72,1.58-3.29,10.59-3.35,11.76-.01.21-.19.38-.4.38h.01Z"
  />
  <path
    d="m112.43,158.05c-.18,0-.35-.06-.52-.19-.65-.53-.16-9.84-.15-9.92.14-1.44,3.3-8.68,4.22-9.68.74-.8,2.25-3.42,3.06-4.84l.27-.47c.48-.84,2.62-3.6,4.19-5.62.71-.92,1.38-1.77,1.45-1.9.12-.18.35-.24.54-.15.19.11.26.33.17.52-.06.12-.34.48-1.53,2.01-1.46,1.89-3.67,4.73-4.13,5.52l-.27.47c-.88,1.54-2.37,4.12-3.17,4.98-.82.88-3.89,7.94-4.01,9.21-.03.31-.05.8-.08,1.43.07-.98.22-1.73.5-2.1.4-.56,1.3-2.44,2.09-4.11,1.18-2.5,1.73-3.61,2.03-3.88.44-.38,4.7-6.44,5.16-7.22.09-.16.39-.61.77-1.2.85-1.33,2.81-4.38,3.02-4.93,0-.12.05-.23.15-.31.17-.14.42-.11.56.06.24.31.29.37-3.07,5.59-.37.58-.65,1.02-.75,1.18-.36.59-4.73,6.89-5.33,7.41-.23.23-1.12,2.11-1.83,3.61-.84,1.77-1.71,3.61-2.16,4.24-.56.78-.39,4.95-.31,6.96.03.87.06,1.51.04,1.8-.05.77-.26,1.24-.65,1.42-.09.04-.19.06-.28.06h.02Zm0-6.91c-.06,2.32-.07,5.11.04,5.98.03-.11.08-.29.11-.6.02-.25-.01-.94-.04-1.72-.05-1.3-.09-2.55-.09-3.67h-.01Zm16.61-28.71c-.13,0-.25-.06-.33-.17-2.94-4.24-1.63-6.92-.48-9.29.15-.32.31-.62.44-.94,1.18-2.63,7.69-4.84,8.69-5.16.35-.43,1.79-2.2,4.02-4.15,2.62-2.29,6.22-1.91,6.36-1.9.22.02.38.22.35.44-.02.22-.22.37-.44.35-.03,0-3.39-.35-5.75,1.7-2.47,2.14-3.98,4.11-3.99,4.13-.05.06-.12.12-.2.14-2,.63-7.41,2.73-8.32,4.77-.15.32-.29.64-.45.96-1.11,2.29-2.25,4.64.42,8.49.13.18.08.43-.09.56-.07.05-.15.08-.23.07h.01Zm.99-12.37s-.11,0-.16-.03c-.2-.08-.29-.32-.21-.53,1.54-3.66,7.91-6.35,9.18-6.86.2-.08.44.01.53.22.08.2,0,.43-.21.52h-.01c-.74.31-7.29,2.99-8.73,6.44-.06.15-.21.24-.37.24h-.01Zm27.57-2.39c-.14,0-.27-.07-.35-.21-.11-.19-.03-.43.16-.54.51-.27,1.38-.77,1.56-.91.04-.11.14-.94.16-1.75,0-.22.19-.37.41-.39.22,0,.39.19.39.41-.05,2.05-.37,2.29-.48,2.37-.28.21-1.51.88-1.64.96-.06.03-.13.05-.19.05h-.01Zm-1.78,12.17c-2.04,0-6.6-1.5-8.4-3.38-1.75-1.84-3.8-8.01-3.89-8.26-.07-.21.04-.43.25-.51.21-.07.43.04.51.25.02.06,2.08,6.26,3.71,7.96,1.68,1.76,6.11,3.18,7.92,3.14.23,0,.4.17.41.39,0,.22-.17.4-.39.41h-.13Zm10.15-3.59c-.13,0-.25-.06-.34-.18-.12-.19-.06-.43.12-.55,1.25-.82,4.42-5.5,4.57-6.76.15-1.18-.62-3.03-1.32-4.28-.52-.92-1.92-1.51-2.15-1.53-.22,0-.39-.18-.39-.4s.19-.4.41-.4c.44,0,2.16.76,2.82,1.94.27.48,1.63,2.99,1.41,4.76-.18,1.51-3.46,6.37-4.93,7.33-.06.04-.14.06-.22.06h.01Zm-8.1,3.59c-.17,0-.33-.11-.38-.27-.06-.21.04-.43.25-.51.09-.03.36-.07.72-.13,1.06-.16,3.3-.48,4.69-1.36.18-.12.43-.06.55.13s.06.43-.13.55c-1.54.98-3.88,1.32-4.99,1.47-.28.04-.48.06-.58.09-.04.01-.08.02-.12.02h-.01Zm-2.19-5.69c-.21,0-.38-.16-.4-.37-.02-.26-.84-.38-1.4-.34-1.23,0-3.93-.72-4.05-.75-.21-.05-.34-.27-.28-.48s.27-.34.48-.28c.03,0,2.73.72,3.81.72.19-.02,2.13-.13,2.22,1.06.02.22-.15.41-.37.43h-.03.01Zm24.41,2.78c-.12,0-.24-.05-.33-.14-.13-.13-.19-.29-.86-2.3-.47-1.42-1.27-3.81-1.53-4.12-.21-.2-.32-.61-.57-1.61-.39-1.61-1.05-4.32-2.62-5.94-2.27-2.33-6.8-2.94-6.85-2.94-.22-.03-.37-.23-.35-.44s.22-.37.44-.35c.2.02,4.86.64,7.31,3.18,1.73,1.78,2.42,4.61,2.83,6.31.13.53.27,1.13.36,1.24.29.26.75,1.53,1.71,4.41.29.88.63,1.9.72,2.04.16.16.14.38-.02.54-.07.07-.17.11-.26.11h.02Zm-36.83-35.27c-.16,0-.32-.09-.37-.26-.03-.09-.9-2.51.65-7.95,1.55-5.44,4.18-7.87,4.3-7.96.16-.15.41-.14.56.03.15.16.14.41-.03.56-.02.02-2.59,2.4-4.07,7.6-1.46,5.15-.68,7.44-.67,7.46.07.21-.03.43-.24.52-.04.02-.09.02-.14.02h.01Zm-2.39,17.9c-.08,0-.18-.03-.25-.08-.15-.12-.19-.32-.11-.48,0,0,.03-.06.07-.16.26-.85.81-5.19,1.06-7.11.09-.78.18-1.4.22-1.72.17-1.13-.58-3.72-.85-4.54-.07-.21.04-.43.25-.51.21-.07.43.04.51.25.01.03,1.11,3.36.88,4.91-.04.32-.13.94-.22,1.71-.19,1.5-.35,2.69-.48,3.66.35-1.01.62-2.04.66-2.84,0-.22.22-.36.42-.38.22,0,.39.2.38.42-.11,2.18-1.77,5.81-2.13,6.54-.06.15-.12.22-.17.26-.07.06-.16.08-.25.08h0Z"
  />
  <path
    d="m141.94,89.65c-.12,0-.23-.05-.32-.16-2.18-2.81-1.96-6.5-1.95-6.66-.14-7.81,5.37-14.26,5.6-14.54.15-.17.4-.18.56-.04.17.15.18.4.04.56-.05.06-5.54,6.5-5.42,14.03,0,.07-.2,3.58,1.79,6.15.14.17.11.42-.07.56-.07.05-.16.08-.24.08h0Zm5.78,9.91c-.11,0-.21-.04-.29-.13-1.68-1.81-2.56-3.36-3.02-4.6-.05,1.04-.08,2.23-.08,3.34,0,.15-.07.27-.21.35-.13.07-.28.06-.4-.01-.63-.39-1.66-3.3-1.54-3.73.06-.21.29-.33.5-.26.18.05.29.23.28.41.03.25.29,1.07.58,1.78.03-1.92.17-4.7.59-5.29.12-.16.34-.21.51-.12.18.09.25.31.19.48,0,.02-.48,1.55.99,4.16-.46-1.29-.8-2.69-.62-3.76.03-.22.24-.36.45-.33.22.03.37.24.33.45-.37,2.29,2.06,6.62,2.1,6.66.09.18.05.4-.12.52-.07.05-.16.07-.23.07h.01Z"
  />
  <path
    d="m146.71,107.27c-.05,0-.12-.01-.17-.03-.2-.09-.28-.33-.2-.53l1.39-3.06s.36-1.61.36-5.43-.81-4.87-.81-4.88c-.13-.18-.09-.42.07-.56s.42-.11.55.06c.11.13.98,1.36.98,5.37s-.39,5.62-.41,5.68l-1.42,3.13c-.06.15-.21.23-.36.23h.02Zm5.76-29.03c-.62,0-1.15-.91-1.4-1.45-.09-.2,0-.43.19-.54.2-.09.43,0,.53.19.22.46.57.95.72,1,.08-.01.39-.36.57-.7.11-.19.35-.26.54-.16s.26.35.17.54c-.14.25-.62,1.06-1.25,1.12h-.05Zm9.89.43h-.09c-.73-.08-.98-.82-1.02-1.25-.02-.22.15-.41.37-.43.21-.03.41.15.43.37,0,0,.05.5.31.53.12,0,.43-.41.61-.94.07-.21.29-.32.51-.24s.32.29.24.51c-.08.25-.56,1.46-1.37,1.46h.02Zm-17.26,9.1c-.11,0-.21-.04-.28-.13-.16-.17-.96-1.05-.96-1.79,0-.48.21-.86.37-1.09-.24-.58-.54-1.11-.72-1.31-.14.07-.31.06-.43-.04-.17-.14-.2-.39-.07-.56.15-.19.36-.28.58-.24.59.08,1.13,1.18,1.46,2.08.06.15.02.33-.11.43,0,0-.31.29-.31.72,0,.31.44.92.75,1.24.15.16.15.41-.02.57-.07.07-.18.11-.27.11h.01Z"
  />
  <path
    d="m145.59,89.18c-.13,0-.24-.06-.33-.17-.52-.73-1.22-.54-1.23-.54-.21.06-.43-.06-.48-.28-.06-.21.06-.43.28-.48.05-.01,1.25-.33,2.09.84.13.18.08.43-.09.56-.07.05-.15.08-.23.07Zm22.78,1.19s-.09,0-.14-.02c-.21-.07-.32-.31-.24-.51.16-.45.62-1.22,1.41-1.13.57.06,1.11.03,2-.91.16-.16.41-.17.56-.01.16.15.17.4.01.57-1.14,1.19-1.96,1.21-2.65,1.15-.28-.04-.54.46-.58.6-.06.16-.21.26-.38.26h.01Z"
  />
  <path
    d="m168.83,88.96c-.07,0-.16-.02-.22-.07-.18-.13-.23-.37-.11-.56.38-.55,1.01-1.5,1.1-1.68.03-.12.02-.74-.04-1.31,0-.06,0-.13.02-.19.06-.17.65-1.63,1.68-1.72.24-.02.41.15.43.37.02.22-.15.41-.37.43-.35.03-.76.65-.96,1.13.06.61.09,1.36-.05,1.65-.14.27-.98,1.51-1.15,1.75-.07.12-.2.17-.33.17v.02Z"
  />
  <path
    d="m170.62,87.78c-.09,0-.19-.03-.26-.09-.17-.15-.19-.4-.04-.56.23-.27.03-.88-.06-1.09s0-.43.19-.53c.2-.09.43,0,.53.19.06.13.56,1.23-.06,1.95-.07.09-.19.14-.31.14h.02Zm-25.99,3.1c-.59,0-.95-.81-1.3-1.6-.15-.34-.31-.7-.48-.99-.68-1.17-1.25-4.79-.83-6.27.38-1.34,1.27-1.19,1.82-1.12.19.03.36.06.47.03.12-.02.29-.02.48.11.64.44,1.04,2.43,1.18,3.28.03.22-.11.42-.33.46-.21.03-.42-.12-.46-.33-.21-1.23-.57-2.47-.81-2.72-.23.03-.46,0-.67-.04-.53-.08-.74-.12-.93.54-.38,1.32.23,4.75.76,5.65.19.32.35.68.52,1.04.19-.27.44-.45.48-.48.09-.06.2-.08.31-.05.11.02.2.09.25.19l.36.6c.08.14.07.29,0,.42.02,0,.04,0,.06-.01.17-.03.35.05.43.2s.05.35-.07.47c-.04.04-.28.26-.92.55-.12.05-.22.07-.32.07h-.01Zm.04-1.45c-.04.07-.07.16-.06.23h.21s-.04-.04-.05-.07c0,0-.09-.16-.09-.16Zm8.74-24.65c-.07,0-.14-.02-.21-.06-.19-.12-.25-.36-.14-.55.05-.08,1.3-2.1,6.06-2.98.21-.04.42.11.46.32.04.22-.11.42-.32.46-4.36.81-5.51,2.59-5.52,2.61-.07.13-.21.19-.34.19h0Z"
  />
  <path
    d="m155.08,65.36s-.08,0-.13-.02c-.2-.06-.32-.28-.26-.48.06-.21.76-2.1,5.68-1.95.22,0,.39.19.39.41s-.18.39-.4.39h-.01c-4.31-.13-4.89,1.37-4.89,1.39-.06.16-.21.26-.38.26Z"
  />
  <path
    d="m156.78,65.77c-.13,0-.25-.06-.33-.17-.13-.18-.08-.43.09-.56.2-.14,2.01-1.34,4.74-.45.21.06.33.29.25.51-.06.21-.29.33-.51.25-2.37-.77-3.88.23-4.04.35-.07.05-.15.08-.23.07h.01Zm-13.46,15.3s-.09,0-.14-.02c-.21-.07-.32-.31-.23-.52.53-1.42,1.99-1.98,2.05-2,.21-.07.43.03.52.23.07.21-.03.43-.23.52-.01,0-1.19.45-1.58,1.53-.06.16-.21.26-.38.26h-.01Zm-.31-1.34c-.06,0-.12-.01-.18-.04-.2-.09-.27-.34-.18-.54.66-1.36,2.19-2.24,2.25-2.28.19-.12.43-.04.55.15.11.19.04.43-.15.55-.01,0-1.38.8-1.94,1.94-.07.14-.21.22-.36.22Zm22.32-1.5c-.05,0-.12-.01-.17-.04-.45-.21-1.78-.79-2.47-.86-.56-.06-1.59.47-2.13.83-.18.12-.43.07-.56-.12-.13-.18-.07-.43.12-.56.17-.11,1.65-1.06,2.65-.96.95.11,2.64.9,2.72.94.2.09.28.33.19.53-.06.15-.21.23-.36.23h0Zm-10.6,0c-.18,0-.35-.13-.39-.31,0-.03-.24-.87-1.31-1.14-.85-.22-3.14.74-4.36,1.39-.2.11-.43.03-.54-.17s-.03-.43.17-.54c.36-.19,3.5-1.83,4.93-1.46,1.55.39,1.88,1.66,1.89,1.73.05.21-.08.43-.29.48-.03,0-.06.01-.09.01Zm5.12-3.62c-.16,0-.31-.09-.37-.25-.08-.2.02-.44.22-.52.07-.03,1.75-.7,3.14-.7s2.05.35,2.12.38c.19.11.26.35.16.54s-.35.26-.54.16c0,0-.55-.28-1.74-.28s-2.82.63-2.84.63c-.05.02-.09.03-.15.03h0Zm-11.76.94c-.11,0-.22-.04-.29-.14-.15-.17-.13-.42.03-.56.11-.08,2.47-2.18,3.66-2.6,1.29-.45,3.26.83,3.48.98.18.13.23.37.11.56-.13.18-.37.23-.55.12-.71-.47-2.09-1.13-2.77-.88-.86.31-2.74,1.88-3.39,2.44-.07.06-.17.11-.26.11v-.02Zm8.24,3.86h-.02c-.22,0-.39-.19-.38-.41,0-.02.06-1.72,0-2.59-.05-.71-.28-.97-.28-.97-.15-.16-.15-.41,0-.56.16-.15.39-.16.55,0,.07.07.44.47.52,1.49.06.92,0,2.61,0,2.68,0,.21-.19.38-.4.38h.02Zm-.4,4.86c-.17,0-.33-.11-.38-.27-.01,0-.18-.11-.32-.16-.2-.08-.29-.33-.21-.53.08-.2.32-.29.53-.21.23.11.64.32.75.64.07.21-.04.43-.25.51-.04.01-.08.02-.13.02h.01Zm1.66,0c-.13,0-.25-.06-.33-.17-.13-.18-.08-.43.11-.56.51-.35,1.19-.7,1.59-.39.18.14.21.38.08.56-.12.16-.33.2-.48.13-.14.02-.47.19-.73.37-.07.05-.15.08-.23.07h-.01Zm4.21,4.22c-.42,0-1.04-.17-1.94-.42-.44-.13-.99-.28-1.16-.28-.15,0-.48,0-.9.01-1.05.01-2.49.04-3.12,0-.43-.04-.77.15-1.13.35-.21.12-.43.24-.67.31-.66.16-1.11-.33-1.25-.61-.09-.2-.02-.44.18-.54.2-.11.43-.02.54.17.02.04.15.25.35.19.14-.03.31-.13.48-.23.4-.22.88-.51,1.57-.45.59.04,2.06.02,3.04,0,.42,0,.76-.01.92-.01.26,0,.68.13,1.37.32.54.16,1.53.44,1.78.39.2-.05.43.07.48.28s-.06.42-.26.48c-.08.02-.17.03-.27.03v.02Zm-4.83,1.29c-.87,0-1.66-.26-1.71-.28-.21-.07-.32-.29-.24-.51s.29-.32.51-.24c.43.15,1.72.44,2.42.03.19-.11.43-.05.55.15.12.19.04.43-.15.55-.41.24-.91.32-1.38.32h0Z"
  />
  <path
    d="m161.66,96.27c-.73,0-2.04-.21-3.86-.53l-.27-.05c-.53-.09-1.43.11-2.23.28-.79.18-1.47.33-1.95.25-.9-.14-5.68-2.55-6.44-3.62-.68-.96-1.66-3.57-1.71-3.69-.07-.21.03-.43.23-.52.21-.07.43.03.52.23,0,.02.99,2.62,1.61,3.5.58.81,5.13,3.17,5.91,3.3.32.05,1-.09,1.65-.24.91-.2,1.85-.41,2.54-.28l.27.05c.95.17,3.47.61,3.94.51.58-.15,3.85-1.7,4.63-2.73.82-1.07,1.27-2.11,1.27-2.12.05-.13.17-.21.29-.23s.26.02.36.12c.44.47,1.06.84,1.21.74.47-.32,2.23-2.78,2.62-4.29.37-1.4-.07-3.67-.35-3.95-.54-.22-1.94-.39-2.12-.12-.21.33-.68,2.8-1,4.91-.03.21-.21.36-.44.34-.21-.02-.37-.21-.35-.43.21-2.77.36-5.88.23-6.28-.12-.19-.04-.42.15-.53.19-.12.44-.03.56.16.09.17.14.72.13,1.49.02-.04.04-.07.05-.11.62-.93,2.86-.27,3.15-.15.79.34,1.16,3.35.76,4.86-.41,1.58-2.23,4.27-2.95,4.75-.59.39-1.35-.07-1.82-.47-.22.43-.61,1.1-1.13,1.78-.94,1.22-4.38,2.84-5.07,3.02-.11.02-.24.04-.41.04h0Zm-10.24-30.9c-.06,0-.14-.02-.19-.05-.19-.11-.26-.35-.16-.54.11-.2,2.74-4.83,7.1-4.79.22,0,.4.19.39.4s-.17.37-.4.39h-.08c-3.81,0-6.28,4.34-6.31,4.38-.07.13-.21.2-.35.2h0Z"
  />
  <path
    d="m163.98,76.34s-.07,0-.11-.01c-.2-.05-.33-.24-.28-.45,0-.04.04-.29.11-.66.06-.97-.08-3.23-1.74-7.44-.98-2.5-2.57-5.96-4.54-8.27-.09-.11-.13-.15-.16-.21-.09-.2-.02-.44.18-.54.2-.11.43-.02.54.18l.05.04c2.04,2.39,3.68,5.94,4.68,8.5.77,1.96,1.22,3.52,1.49,4.74.09-.55.17-1,.21-1.21.98-5.09-3.72-10.31-3.77-10.37-.15-.16-.14-.41.02-.56s.41-.14.56.02c.21.22,5.03,5.56,3.96,11.05-.12.58-.5,2.96-.68,4.15-.03.51-.12.74-.14.77-.06.16-.21.25-.37.25h0Z"
  />
  <path
    d="m167.76,84.59s-.09,0-.14-.02c-.16-.06-.26-.21-.25-.38.01-.76.02-1.78.01-2.65,0,.01-.02.03-.03.04l-.25.34c-.14.18-.38.21-.56.08-.18-.14-.21-.38-.08-.56.03-.05.08-.14.14-.24-.8-3.82-1.8-7.96-2.14-8.41-.14-.18-.09-.42.07-.56.18-.14.42-.09.56.07.5.66,1.53,5.18,2.05,7.62.06-.16.13-.32.18-.46.06-.16.22-.27.4-.25.18.01.33.14.36.32.04.21.07.73.08,1.35.18-.97.37-2.04.53-3.09.03-.17.16-.31.33-.33.18-.02.34.05.42.21l.11.19c-.08-2.27-.68-6.43-1.71-10.65-1.2-5-6.49-9.02-7.25-9.34-.16-.02-.28-.14-.33-.29-.05-.21.07-.43.29-.48.18-.04.34.02.61.19,1.26.77,6.23,4.67,7.45,9.75,1.35,5.58,1.95,10.93,1.66,12.4-.03.17-.17.29-.33.32-.17.03-.34-.06-.41-.21l-.24-.45c-.37,2.2-.88,4.97-1.23,5.38-.07.09-.19.14-.31.14Zm-22.65-1.79s-.09,0-.14-.02c-.21-.07-.32-.31-.24-.51l.78-2.2v-5.45c0-.07.02-.16.06-.22l.94-1.4c-.12-.44-.13-1.46.03-4.09.02-.28.03-.48.03-.55,0-.16,0-.48,2.56-3.27.15-.16.4-.17.56-.02.16.15.17.4.02.57-1.05,1.14-2.25,2.54-2.37,2.81.02-.03,0,.2-.02.51-.14,2.2-.16,3.49-.06,3.81.04.05.06.11.08.17.02.11,0,.22-.05.31l-1,1.5v5.4s0,.09-.02.14l-.8,2.27c-.06.16-.21.26-.38.26l.02-.02Z"
  />
  <path
    d="m166.84,99.56c-.06,0-.14-.02-.2-.05-.15-.08-.22-.24-.2-.41.13-.77.38-2.96.08-3.87-.07-.21.04-.43.25-.51s.43.04.51.25c.2.59.2,1.52.16,2.35.6-1.51,1.2-3.72,1.54-5.24.04-.19.21-.32.4-.32s.35.15.38.35c.22,1.56.07,3.31-.11,4.61.82-1.75,1.76-4.5,2.32-6.37.05-.19.25-.32.44-.28.2.03.34.21.34.41l-.05,1.72c.4-1.88.75-4.52.92-6.37.01-.16.12-.28.26-.34s.31-.01.42.09c.13.13.21.48.27,1.06.06-3.3-.28-6.69-.29-6.74-.02-.18.08-.35.25-.41s.36,0,.46.15c.33.46.6,1.47.82,2.61-.8-6.62-4.31-13.02-4.36-13.11-.07-.14-.06-.31.03-.43s.26-.18.41-.15c.14.03.27.07,1.18,1.61-1.05-2.75-2.43-6.24-3.51-8.86-1.47-3.61-6.58-7.53-9.01-8.07-2.33-.55-11.24,5.95-12.11,7.83-.79,1.7,0,4.14.02,4.16.07.21-.04.43-.25.51s-.43-.04-.51-.25c-.03-.12-.91-2.77.02-4.75.95-2.05,10.1-8.92,13-8.27,2.93.66,8.09,4.92,9.58,8.55.83,2.03,5.07,12.57,5.15,13.55.01.19-.11.36-.28.41-.11.03-.21.02-.31-.03,1.31,3.73,2.44,8.55,1.64,12.84-.03.2-.18.36-.41.33-.2,0-.36-.17-.38-.37-.06-.76-.19-2.09-.38-3.42.07,2.73-.02,6.02-.78,7.79-.07.18-.26.27-.45.23-.19-.04-.32-.21-.32-.4.02-.54.03-1.09.04-1.62-.33,2.03-.78,4.08-1.35,4.65-.12.12-.28.15-.44.08-.15-.06-.24-.21-.24-.38l.04-1.4c-.76,2.2-1.85,5-2.73,5.66-.14.11-.32.11-.45.01s-.21-.26-.17-.43c0-.02.37-1.57.51-3.41-.51,1.75-1.21,3.75-1.93,4.34-.07.06-.17.09-.25.09v.02Z"
  />
  <path
    d="m162.32,68.03c-.12,0-.22-.04-.31-.14l-.8-.93c-.47-.56-2.09-.58-3-.46-.13.01-.25-.03-.34-.12l-.03-.03c-.19-.08-.74-.25-1.15-.38-.71-.21-1.43-.43-1.82-.64-.47-.26-1.61-.11-2.29-.02-.2.03-.39.05-.54.06-.55.05-1.98.58-2.48.77-.2.08-.43-.02-.52-.22s.02-.43.22-.52c.2-.07,1.94-.76,2.7-.82.14-.01.32-.03.51-.06.87-.12,2.08-.27,2.78.11.32.17,1.03.39,1.68.58.68.21,1.12.34,1.36.48.67-.06,2.72-.18,3.52.76l.8.93c.15.17.13.42-.04.56-.07.06-.17.09-.26.09h.01Z"
  />
  <path
    d="m149.43,65.41c-.19,0-.36-.14-.39-.34-.02-.15-.53-3.53,3.54-6.09.96-.6,1.89-1.21,2.74-1.77,3.13-2.04,4.8-3.09,5.67-2.93.32.13,5.89,2.52,8.32,5.28.15.17.13.42-.03.56-.17.15-.41.13-.56-.03-2.32-2.62-7.9-5.03-7.96-5.06-.52-.09-2.79,1.39-5,2.83-.86.56-1.79,1.17-2.75,1.77-3.59,2.27-3.19,5.16-3.17,5.28.03.22-.12.42-.33.45h-.06v.04Zm20.13,13.71c-.19,0-.36-.14-.39-.33-.02-.09-1.59-9.13-3.95-12.35-.13-.18-.09-.43.08-.56.18-.13.42-.09.56.08,2.47,3.36,4.02,12.31,4.09,12.68.04.22-.11.42-.33.46h-.06Zm4.56,7.49h-.01c-.22,0-.39-.19-.38-.41.26-7.06-3.98-15.48-4.02-15.56-.09-.2-.02-.43.18-.54.19-.11.43-.02.54.18.18.35,4.37,8.69,4.11,15.95,0,.21-.19.38-.4.38h-.01Z"
  />
  <path
    d="m172.14,83.06c-.08,0-.17-.02-.24-.07-.18-.13-.21-.38-.08-.56.08-.25-.34-1.63-.91-2.93-.08-.2,0-.44.2-.53s.43,0,.53.2c.61,1.38,1.25,3.14.82,3.73-.07.11-.2.16-.32.16Zm.18-12.97c-.18,0-.34-.12-.38-.29-1.92-6.83-9.24-12.73-9.31-12.78-.18-.13-.23-.37-.12-.55s.35-.24.54-.13c.07.04,7.64,6.08,9.66,13.23.06.21-.06.43-.27.5-.03,0-.07.01-.11.01h-.01Zm-5.19,11.3s-.06,0-.11-.01c-.21-.05-.34-.27-.28-.48.27-1.06.25-3.93.25-3.96,0-.22.18-.4.39-.4.22,0,.4.18.4.39,0,.13.03,3-.27,4.17-.04.18-.21.29-.39.29h.01Zm-22.38-9.04c-.07,0-.15-.02-.21-.06-.19-.12-.24-.37-.13-.55.68-1.09,1.97-2.29,2.02-2.34.16-.15.41-.14.56.02.15.16.14.41-.02.57-.01.01-1.26,1.18-1.9,2.18-.07.12-.2.19-.34.19h.01Zm-1.43,175.84c-.16,0-.32-.09-.37-.25-.07-.21.02-.43.23-.52,4.46-1.71,8.43-12.15,8.47-12.25.07-.2.31-.31.52-.23.21.07.31.31.23.52-.17.44-4.15,10.88-8.93,12.72-.04.02-.09.03-.15.03h0Zm32.15-7.72c-.07,0-.15-.02-.22-.06-3.77-2.5-10.05-17.33-10.31-17.96-.08-.2,0-.43.21-.53.2-.08.43,0,.53.21.06.15,6.45,15.23,10.02,17.6.18.13.23.37.12.55-.07.12-.2.18-.34.18h0Zm-18.61-19.61c-.21,0-.39-.17-.4-.38-.06-1.26-1.3-5.37-1.32-5.42-.06-.21.05-.43.26-.5.21-.07.43.05.5.26.05.17,1.27,4.24,1.35,5.6,0,.22-.16.41-.38.42h-.02.01Zm-2.55,1.82h-.08c-.21-.04-.35-.26-.31-.47.16-.73-.63-4.18-1.16-6.17-.05-.21.07-.43.28-.48s.43.07.48.28c.15.55,1.41,5.39,1.17,6.55-.04.19-.21.32-.39.32v-.02Zm-4.22-.43c-.05,0-.12-.01-.17-.04-.2-.09-.28-.33-.19-.53.31-.65.14-3.4-.03-4.97-.02-.22.14-.41.35-.44.22-.02.41.14.44.36.05.44.46,4.33-.03,5.4-.06.15-.21.23-.36.23h-.01Zm-3.92-.73c-.19,0-.36-.14-.39-.34-.09-.62.37-4.14.46-4.84.03-.22.23-.37.45-.35.22.03.37.23.34.45-.23,1.69-.53,4.24-.46,4.6.03.22-.12.42-.34.45h-.06Zm-3.53-.39c-.16,0-.31-.09-.37-.25-.28-.77.42-4.3.65-5.36.04-.21.25-.35.47-.31.21.04.35.25.31.47-.43,2.05-.82,4.52-.68,4.91.07.21-.03.43-.24.51-.04.02-.09.02-.14.02h0Zm-2.86-1.62c-.13,0-.26-.06-.34-.18-.47-.67.4-3.57.96-5.24.07-.21.29-.33.51-.25.21.07.32.29.25.51-.63,1.88-1.2,4.14-1.05,4.54.13.18.07.42-.11.55-.06.04-.15.07-.22.07Zm-2.78-2.12c-.18,0-.34-.12-.39-.31-.21-.85.68-2.92.87-3.32.09-.2.33-.29.53-.2s.28.33.2.53c-.47,1.04-.92,2.41-.82,2.8.05.21-.07.43-.29.48-.03,0-.06.01-.09.01h0Zm-1.46-.59c-.09,0-.19-.03-.27-.09-.61-.52-.21-2.44.23-3.98.06-.21.28-.34.5-.27.21.06.34.28.27.5-.41,1.42-.63,2.9-.47,3.17.17.14.18.38.04.55-.07.09-.19.14-.31.14h.01Zm-1.99-2.17c-.14,0-.28-.07-.35-.21-.46-.87.5-2.6.7-2.94.12-.19.36-.25.55-.15.19.12.25.36.14.55-.46.79-.84,1.84-.68,2.16.11.19.03.43-.17.54-.06.03-.13.04-.19.04h.01Zm38.77,6.5c-.14,0-.27-.07-.35-.21-.11-.19-.03-.43.16-.54.21-.43-.15-4.25-.65-7.49-.03-.22.12-.42.34-.45.21-.03.42.12.45.34,1.2,7.8.47,8.19.24,8.31-.06.03-.13.05-.19.05h0Zm2.21-.27c-.11,0-.21-.04-.29-.13-.15-.16-.14-.41.02-.57.62-.58.31-3.95-.12-6.15-.04-.22.09-.42.32-.46.22-.04.42.11.46.32.19.96,1.04,5.79-.12,6.89-.07.07-.18.11-.27.11h0Zm3.39.66c-.12,0-.24-.05-.32-.16-.14-.18-.09-.42.07-.56.27-.39.01-3.31-.42-5.78-.04-.22.11-.42.33-.46.22-.04.42.11.46.33.46,2.68.86,5.99.12,6.56-.07.05-.16.08-.24.08h0Zm3.18,0c-.13,0-.24-.05-.33-.16-.13-.18-.09-.43.08-.56.41-.31.16-2.99-.56-5.75-.05-.21.07-.43.28-.48s.43.07.48.28c.44,1.72,1.35,5.78.25,6.6-.07.05-.16.07-.23.07h.01Zm2.74-.39c-.08,0-.17-.03-.24-.08-.17-.14-.2-.39-.07-.56.23-.42-.18-3.16-.68-5.46-.05-.21.08-.43.31-.47s.43.08.47.31c.44,1.98,1.1,5.4.54,6.12-.07.11-.2.16-.32.16h0Zm1.49-.27c-.14,0-.26-.06-.34-.19-.12-.19-.05-.43.13-.55.41-.25.19-2.82-.47-5.4-.05-.21.07-.43.28-.48s.43.07.48.28c.42,1.64,1.29,5.56.13,6.28-.06.04-.14.06-.21.06Z"
  />
</svg>
