<svg xmlns="http://www.w3.org/2000/svg" viewBox="0 0 320 320">
  <path
    d="M163.28 70.4c-.12 0-.24-.06-.31-.17-1.47-2.35-3.47-1.27-3.55-1.22-.18.1-.4.04-.5-.14-.1-.18-.04-.4.14-.5.03-.02 2.69-1.49 4.54 1.47.11.17.05.4-.12.51a.36.36 0 0 1-.2.06ZM153.93 68.42a.38.38 0 0 1-.34-.23c-.81-1.93-4.37-.75-4.41-.74-.19.07-.4-.04-.47-.23s.04-.4.23-.47c.17-.06 4.26-1.4 5.32 1.16.08.19-.01.4-.2.48-.05.02-.1.03-.14.03ZM164.73 66.65a.42.42 0 0 1-.21-.06c-1.61-1.09-4.78-.21-4.81-.2-.2.05-.4-.06-.46-.25-.05-.2.06-.4.25-.45.14-.04 3.54-.98 5.43.3.17.11.21.34.1.51-.07.1-.19.16-.31.16ZM155.19 65.58a.36.36 0 0 1-.2-.06c-.04-.02-3.79-2.4-6.47-1.17-.19.08-.41 0-.49-.18-.08-.19 0-.4.18-.49 3.06-1.4 7.01 1.12 7.18 1.22a.37.37 0 0 1-.2.68Z"
  />
  <path
    d="M165.68 76.19c-.06 0-.11-.01-.17-.04-.17-.09-.25-.3-.17-.48 0-.01.54-1.22.6-2.46.03-.54-.15-1.09-.36-1.52-.05.04-.1.06-.16.07-.28.05-.86 0-1.31-.47-.66-.7-.77-2.04-.31-3.99.9-3.92.37-4.85-.79-6.87l-.31-.54c-1.22-2.16-4.5-.92-4.54-.91a.374.374 0 0 1-.47-.2c-.34-.78-.88-1.23-1.65-1.38-2.3-.44-5.77 1.87-7.04 3.14-1.34 1.34-.65 7.7-.27 10.04.02.15-.05.3-.18.38-.13.08-.3.07-.42-.03-.92-.73-1.81-2.23-2.28-3.11-.19.78-.32 2.2-.34 3.46 0 .13-.08.25-.19.32-.12.07-.26.06-.37-.01-.35-.22-.6-.92-1.08-2.47-.21-.68-.5-1.6-.65-1.77-.11 0-.42.3-.62.59-.07.11-.21.18-.32.16-.13 0-.24-.08-.31-.19-.36-.65-.21-2.62.21-6.98.41-4.24 5.88-8.74 9.47-9.98 1.42-.49 2.6-.49 3.51 0 .39.2.67.47.87.72.02-.02.04-.05.06-.07 1.16-1.22 4.92-1.35 7.71-.72 2.83.65 4.62 5.37 5.93 8.82.46 1.21.86 2.26 1.2 2.86 1.13 1.99.38 7.16-.72 9.15-.34.62-.7.93-1.1.94-.86.04-2.37 2.08-3.11 3.36a.36.36 0 0 1-.32.18Zm-.32-5.98c.11 0 .22.05.29.14.05.06 1.09 1.45 1.02 2.9 0 .18-.03.35-.05.52.72-.91 1.64-1.82 2.44-1.86.06 0 .25-.12.49-.56 1-1.81 1.73-6.65.72-8.43-.37-.65-.78-1.72-1.24-2.96-1.25-3.29-2.96-7.8-5.4-8.36-3.02-.69-6.24-.29-7.01.51-.17.18-.16.32-.13.42.05.2-.06.4-.26.45-.2.06-.4-.06-.45-.26 0-.03-.22-.74-.98-1.14-.73-.38-1.7-.36-2.91.06-3.78 1.3-8.63 5.77-8.98 9.36-.22 2.25-.46 4.74-.4 5.92.19-.17.43-.31.67-.32.24-.02.44.08.59.25.24.28.46.96.8 2.04.08.25.17.55.27.85.09-1.2.29-2.64.75-3.05.09-.08.2-.11.32-.09.11.02.21.1.26.2 0 .02.77 1.6 1.67 2.74-.33-2.49-.86-8.03.65-9.54 1.41-1.41 5.11-3.84 7.7-3.34.91.17 1.59.68 2.04 1.5 1.44-.46 3.99-.66 5.12 1.35l.3.53c1.22 2.13 1.84 3.2.87 7.41-.51 2.21-.14 3.03.12 3.31.11.12.24.19.35.22v-.43c0-.16.1-.3.25-.35.04-.01.08-.02.12-.02Z"
  />
  <path
    d="M161.18 69.84c-.17 0-.33-.04-.48-.13-.34-.2-.46-.46-.51-.65-.1-.46.17-.87.2-.91a.36.36 0 0 1 .51-.09c.17.12.21.34.09.51-.03.05-.12.21-.09.34 0 .02.02.09.15.17.06.04.11.04.17.03.21-.06.44-.36.52-.5.1-.18.33-.24.5-.14.18.1.24.32.14.5-.04.07-.4.7-.96.85-.09.02-.17.03-.26.03ZM152.06 68.42c-.74 0-.9-1.17-.94-1.67-.01-.2.14-.38.34-.39.23-.02.38.14.39.34.03.43.16.92.26 1.01.06-.04.36-.43.53-.8.09-.18.31-.26.49-.18.18.09.27.3.18.49-.13.28-.61 1.21-1.27 1.21ZM155.19 74.99c-.14 0-.27-.08-.34-.21-.25-.54-1.1-.37-1.1-.36-.19.05-.39-.08-.44-.28-.04-.2.08-.39.28-.44.53-.12 1.53-.09 1.93.77.09.19 0 .4-.18.49-.05.02-.1.03-.15.03ZM157.91 75.37c-.07 0-.15-.02-.21-.07-.4-.28-.81-.03-.85 0-.17.11-.4.07-.51-.1a.377.377 0 0 1 .09-.51c.03-.02.86-.58 1.69 0 .17.12.21.35.09.51a.38.38 0 0 1-.3.16ZM159.01 79.63c-.3 0-.57-.06-.61-.07a.267.267 0 0 1-.14-.07c-3.04-2.31-7.94-1.48-7.99-1.48-.2.04-.39-.1-.43-.3-.04-.2.1-.39.3-.43.21-.04 5.19-.87 8.49 1.56.19.03.5.05.68 0 .19-.07.4.04.47.23.06.19-.04.4-.23.47-.17.06-.36.08-.54.08Z"
  />
  <path
    d="M154.63 86.83c-.24 0-.48 0-.73-.02-6.48-.44-8.3-6.59-8.48-7.29-.52-1.93-.03-11.1-.01-11.49 0-.2.2-.37.39-.35.2.01.36.18.35.39 0 .1-.5 9.44-.01 11.26.17.65 1.86 6.33 7.82 6.74 5.31.35 8.75-3.6 9.49-5.46.76-1.89 1.89-4.92 1.89-4.92l.69.26s-1.14 3.04-1.9 4.94c-.77 1.93-4.19 5.94-9.5 5.94ZM164.16 69.56c-.06 0-.13-.02-.19-.05a.354.354 0 0 1-.13-.5c2.27-3.88 3.06-6.94 2.37-9.09-.59-1.84-2.2-2.75-3.53-3.34-2.49-1.11-4.25 2.1-4.33 2.24-.08.16-.27.23-.44.17s-.27-.23-.24-.41c.06-.44-.9-3.3-1.87-5.81-.07-.19.02-.4.21-.48.19-.08.4.02.48.21.37.95 1.36 3.58 1.75 5.14.97-1.28 2.71-2.65 4.74-1.74 1.47.65 3.25 1.68 3.93 3.79.77 2.39-.02 5.56-2.43 9.69a.36.36 0 0 1-.32.18Z"
  />
  <path
    d="M144.37 76.44c-.93 0-1.4-.71-1.68-1.14l-.06-.1c-.39-.59-.62-5.41-.69-7.46 0-.2.15-.37.36-.38h.01c.2 0 .36.16.37.36.12 3.16.37 6.67.58 7.08l.06.09c.38.57.73 1.11 1.88.59.18-.09.4 0 .49.18.08.19 0 .4-.18.49-.43.2-.8.28-1.12.28ZM165.69 80.57c-.16 0-.33-.03-.52-.11-1.43-.55-1.11-1.43-1.09-1.46.07-.19.29-.29.48-.21.19.07.28.29.21.48 0 .05.09.28.67.51.61.23.99-.5 1.91-2.7l.27-.64c1.01-2.38.76-3.98.75-4-.03-.2.1-.39.3-.43.19-.03.39.1.43.3.01.07.3 1.82-.8 4.42l-.27.64c-.79 1.88-1.35 3.2-2.34 3.2Z"
  />
  <path
    d="M145.55 74.39c-.2 0-.36-.16-.37-.36-.05-.1-.52-.49-1-.8-.62-.44-.97-.97-1.03-1.58-.11-1.01.61-1.83.64-1.86.14-.15.37-.17.52-.03.15.13.17.37.03.52 0 0-.54.62-.46 1.3.04.38.29.74.72 1.04.86.56 1.31 1.03 1.32 1.39 0 .2-.16.37-.36.38ZM165.73 77.75c-.29 0-.56-.07-.74-.16-.18-.09-.26-.31-.18-.49.09-.18.31-.26.49-.18.13.06.83.32 1.26-.46.44-.78-.07-1.18-.18-1.26a.368.368 0 0 1-.1-.51.37.37 0 0 1 .51-.11c.42.27 1.05 1.09.42 2.23-.4.72-.98.93-1.48.93ZM145.84 67.35c-.18 0-.34-.13-.37-.32l-.05-.38c-.68-5.04-1.09-8.08 7.41-12.32 2.29-1.14 4.11.54 4.75 1.59.11.17.05.4-.12.51-.17.11-.4.05-.51-.12-.06-.1-1.55-2.44-3.8-1.32-8.03 4.01-7.66 6.7-7.01 11.57l.05.38c.03.2-.12.39-.32.41h-.05Z"
  />
  <path
    d="M167.1 73.54a.37.37 0 0 1-.37-.37c0-.25-.02-6.15.86-9.9.81-3.44-.14-5.58-3.92-8.79-.95-.81-1.92-1.15-2.91-1.02-1.86.24-3.18 2.09-3.19 2.1a.36.36 0 0 1-.51.09.36.36 0 0 1-.09-.51c.06-.09 1.51-2.13 3.7-2.41 1.19-.16 2.37.25 3.48 1.19 3.46 2.94 5.15 5.33 4.16 9.52-.86 3.67-.84 9.67-.84 9.73 0 .2-.16.37-.37.37ZM142.87 67.09c-.2 0-.36-.16-.36-.36 0-.06.03-.72.96-4.63 1-4.19 5.41-8.14 8.13-9.77 3.11-1.86 5.16.93 5.18.96.12.16.08.39-.08.51-.17.12-.4.08-.51-.08-.07-.09-1.69-2.26-4.2-.76-2.62 1.57-6.85 5.34-7.79 9.31-.9 3.78-.94 4.44-.94 4.47 0 .2-.17.36-.37.36ZM148.37 94.83s-.06 0-.09-.01a.364.364 0 0 1-.26-.45c.66-2.54-1.49-12.23-1.51-12.33a.368.368 0 1 1 .72-.16c.09.41 2.22 9.96 1.51 12.67-.04.17-.19.28-.36.28ZM163.03 88.14c-.17 0-.33-.12-.36-.3-.26-1.35.65-6.56.76-7.15.04-.2.23-.33.43-.3.2.04.33.23.3.43-.28 1.56-.96 5.85-.76 6.88.04.2-.09.39-.29.43h-.07Z"
  />
  <path
    d="M152.37 96.75c-.42 0-1.33-.2-3.46-1.19-1.37-.63-2.05-1.31-2.07-2.06-.03-.89.93-1.42.97-1.45.18-.1.4-.03.5.15.1.18.03.4-.15.5 0 0-.6.35-.59.78 0 .25.23.76 1.64 1.41 2.3 1.07 2.98 1.13 3.16 1.12.02-.02.05-.03.07-.05l5.31-2.4c.18-.08.4 0 .49.18s0 .4-.18.49l-5.26 2.38s-.06.05-.1.06c-.06.03-.15.07-.34.07Zm-.13-.54Zm0-.01Zm0 0Zm0 0Zm.01 0Zm0 0ZM164.73 94.27c-.12 0-.23-.06-.31-.16-.11-.17-.07-.4.1-.51l2.75-1.85c.06-1.25.69-2.46 1.11-3.27.1-.19.22-.42.27-.56-.23-.28-.67-.92-1.55-2.23-.37-.55-.69-1.03-.82-1.2-.21-.13-1.55-.08-2.85.14a.364.364 0 1 1-.12-.72c1.4-.23 3.15-.4 3.56.14.13.17.46.67.84 1.23.51.77 1.37 2.05 1.54 2.21.33.25.13.63-.23 1.32-.41.79-1.03 1.99-1.03 3.13 0 .12-.06.24-.16.31l-2.91 1.96c-.06.04-.14.06-.21.06Z"
  />
  <path
    d="M154.43 98.25c-.08 0-.17-.03-.23-.08a.367.367 0 0 1-.05-.52c.25-.31 6.21-7.54 7.67-8.94 1.63-1.55 3.35-3.79 3.3-4.27-.13-.16-.09-.36.06-.49.16-.13.41-.08.53.08.89 1.08-3.34 5.17-3.39 5.21-1.43 1.36-7.55 8.8-7.61 8.87a.36.36 0 0 1-.29.13ZM144.96 101.42c-.17 0-.33-.13-.37-.31-.05-.27.08-.69.43-1.66.15-.41.3-.83.39-1.17.16-.59.54-.84.85-1.05.26-.17.47-.31.6-.64.23-.56-.1-2.29-.36-3.24-.05-.2.06-.4.26-.45.2-.05.4.06.45.26.07.28.73 2.74.33 3.71-.22.54-.58.78-.88.98-.28.18-.46.31-.55.63-.1.35-.25.79-.41 1.22-.16.45-.4 1.12-.4 1.28.04.2-.09.38-.29.42h-.07ZM150.53 176.69c-.44 0-.82-.03-1.12-.11-3.04-.74-5.45-3.6-6.96-8.27-1.59-4.89-3.93-18.56-3.75-23.07.04-.88.06-1.87.08-2.93.1-4.45.22-9.98 1.54-12.46 1.6-3.02 7.12-16.04 7.29-17.02.04-.2.22-.34.43-.3.2.04.33.23.3.43-.21 1.18-5.86 14.39-7.37 17.23-1.23 2.32-1.36 7.76-1.45 12.13-.02 1.06-.05 2.06-.08 2.94-.19 4.44 2.14 17.97 3.71 22.81 1.43 4.41 3.66 7.1 6.43 7.78 1.8.44 7.55-.86 12.61-2.01 2.71-.61 5.27-1.19 7.27-1.53 4.34-.73 5.23-.5 5.48-.02.34-.07 1.11-.32 1.69-.59.16-.33-.31-2.68-.69-4.57-.24-1.19-.51-2.55-.71-3.82-.47-2.94-.63-5.47-.83-8.67-.07-1.16-.15-2.41-.25-3.8-.38-5.21-.07-12.17-.06-12.24 0-.04 0-.07.02-.11 1.09-3.02 3.06-12.96 3.01-13.82-.03-.54.5-2.34 1.38-5.23.73-2.4 1.56-5.12 1.71-6.28.3-2.23 1.22-5.77 2.23-8.61.95-2.67 1.51-6.21 1.69-7.88.16-1.51-.78-5.32-3.69-7.25-2-1.34-4.72-1.38-8.07-.13-1.9.71-3.51-.77-3.58-.83a.365.365 0 0 1-.02-.52c.14-.15.37-.16.52-.02.01.01 1.35 1.23 2.82.68 3.58-1.34 6.52-1.27 8.74.21 2.97 1.97 4.24 5.88 4.02 7.95-.18 1.7-.75 5.31-1.72 8.05-1 2.79-1.9 6.27-2.19 8.46-.17 1.22-.97 3.85-1.74 6.4-.65 2.13-1.38 4.54-1.35 4.97.07 1.04-1.95 11.02-3.03 14.06-.03.67-.29 7.18.06 12.1.1 1.4.18 2.65.25 3.81.2 3.19.36 5.7.82 8.61.2 1.26.46 2.55.71 3.79.76 3.81.95 5.07.28 5.38-.34.16-1.84.77-2.32.66-.12-.03-.28-.12-.33-.37-.06-.04-.66-.3-4.7.38-1.98.34-4.53.91-7.23 1.52-4.59 1.04-9.31 2.11-11.83 2.11Z"
  />
  <path
    d="M141.16 102.73c-.07 0-.15-.02-.21-.07a.36.36 0 0 1-.09-.51l5.69-8.21a.36.36 0 0 1 .51-.09c.17.12.21.35.09.51l-5.69 8.21a.38.38 0 0 1-.3.16ZM164.73 115.88c-1.14 0-2.85-.41-3.66-.87-.9-.52-5.38-.7-7.78-.8-.94-.04-1.62-.07-1.88-.1-.4-.05-1.07-.24-1.84-.45-.92-.25-2.3-.63-2.65-.57-2.75.5-7.54 1.16-8.86-.1-1.58-1.51-.13-4.01-.06-4.12.1-.18.33-.23.5-.13.17.1.23.33.13.5-.01.02-1.22 2.1-.06 3.21.76.72 3.97.69 8.2-.09.48-.09 1.5.17 2.99.58.72.2 1.4.38 1.74.43.23.03.93.06 1.81.1 3.57.15 7.14.34 8.12.9 1.18.68 3.33.86 3.77.75.78-1.23 1.84-2.67 2.42-2.56.2.03.34.22.31.42-.03.2-.21.34-.42.31-.21.12-1.19 1.44-1.73 2.3-.13.21-.54.3-1.06.3Zm.44-.7Z"
  />
  <path
    d="M170.81 115.21c-2.01 0-3.88-.18-4.74-.57a.361.361 0 0 1-.18-.49c.09-.19.31-.26.49-.18 1.22.56 5.6.68 8.67.23 2.69-.39 2.9-2.48 2.91-2.57a.37.37 0 0 1 .74.05c0 .03-.25 2.76-3.54 3.24-1.27.19-2.84.29-4.34.29ZM140.56 109.34c-.64 0-1.25-.1-1.77-.19-.35-.06-.79-.13-.9-.1-.15.12-.38.1-.51-.04-.1-.11-.41-.46 2.57-3.44.06-.06.15-.2.29-.41.69-1 2.12-3.09 4.01-3.79.8-.3 1.43-.59 1.93-.83.9-.43 1.54-.74 2.36-.64.59-.04 4.38-1.31 4.69-1.84.4-.69 1.24-.87 2.48-.55.32.08 1.44-.21 1.96-.65.38-.31.95-.24 1.55-.17.52.06 1.11.14 1.3-.11.62-.82 3.93-1.19 4.93-1.28 2.55-.71 4.69-.54 6.31.52 2.17 1.42 2.55 3.92 2.57 4.03.03.2-.11.39-.31.42-.22.02-.39-.11-.42-.31 0-.02-.35-2.28-2.25-3.52-1.43-.93-3.36-1.07-5.76-.41-1.96.19-4.18.62-4.47 1-.44.59-1.26.49-1.98.4-.36-.04-.86-.1-.99 0-.6.5-1.95.97-2.62.8-.89-.23-1.44-.16-1.66.21-.54.93-4.89 2.2-5.38 2.2h-.02c-.62-.07-1.12.17-1.96.57-.51.24-1.15.55-1.99.86-1.67.62-3.01 2.57-3.66 3.51-.18.26-.31.44-.38.51-.22.22-1.35 1.48-2.01 2.25.14.02.29.04.45.07.83.14 1.97.33 2.87-.02 1.69-.65 4.23-.66 4.34-.66.2 0 .37.17.37.37s-.17.37-.37.37c-.02 0-2.52 0-4.07.61-.48.18-.99.25-1.49.25ZM167.2 94.27c-.08 0-.17-.03-.24-.09a.367.367 0 0 1-.05-.52c6.06-7.22 15.21-2.54 15.3-2.49.18.09.25.32.16.5s-.32.25-.5.16c-.02-.01-2.22-1.15-5.09-1.41-3.81-.35-6.94.9-9.31 3.73-.07.09-.18.13-.28.13Z"
  />
  <path
    d="M169.79 93.63c-.09 0-.18-.03-.25-.1a.365.365 0 0 1-.02-.52c.13-.15 3.4-3.62 10.12-1.43.19.06.3.27.24.46s-.27.3-.46.24c-6.25-2.04-9.22 1.09-9.35 1.22-.07.08-.17.12-.27.12Z"
  />
  <path
    d="M167.58 95.34s-.09 0-.13-.02a.356.356 0 0 1-.22-.46c.04-.12 1.08-2.82 7.5-.82.19.06.3.27.24.46s-.27.3-.46.24c-5.68-1.77-6.58.35-6.59.37-.06.15-.2.24-.35.24ZM179.52 110.5c-.16 0-.31-.1-.35-.26-.06-.19.05-.4.25-.46.36-.33 2.11-4.39 3.55-8.12.07-.19.29-.29.48-.21.19.07.28.29.21.48-2.14 5.52-3.5 8.4-4.03 8.56-.04.01-.07.02-.11.02ZM147.68 108.23c-.18 0-.34-.13-.36-.32-.03-.2.11-.39.31-.42 11.92-1.72 30-4.42 30.91-4.83.19-.08.41 0 .49.18.08.18 0 .4-.17.49-1.22.58-28.06 4.46-31.12 4.9h-.05ZM161.56 115.21s-.06 0-.09-.01a.364.364 0 0 1-.26-.45l.24-.91c.02-.06.05-.12.09-.16.52-.53.71-1.03.6-1.53-.25-1.1-2-1.98-2.65-2.23a.365.365 0 0 1-.21-.48c.07-.19.28-.29.48-.21.11.04 2.73 1.05 3.11 2.76.16.72-.08 1.44-.72 2.13l-.21.82c-.04.17-.19.28-.36.28ZM141.92 113.62c-.12 0-.23-.05-.3-.15-.12-.17-.08-.4.09-.51.7-.5 6.89-4.88 8.46-5.01.22 0 .38.14.4.34.02.2-.13.38-.34.4-1.04.09-5.41 2.96-8.09 4.88-.07.05-.14.07-.21.07ZM115.31 128.43c-.11 0-.22 0-.32-.02-.4-.05-.69-.22-.82-.48-.22-.45-1.08-1.03-1.37-1.08a.47.47 0 0 1-.33.03c-.35-.1-.52-.51-.91-1.51-.08-.2-.16-.41-.25-.62-.37-.89-.53-3.02-.53-6.9 0-1.76.97-2.55 1.61-3.08.27-.22.53-.43.53-.59 0-.74.87-1.07 1.7-1.39.53-.2 1.14-.44 1.33-.71.51-.74 1.67-1.36 2.08-1.57.21-.6.53-1.01.97-1.22.44-.21.85-.17 1.07-.11.48-.23 2.3-1.16 2.64-2.42.36-1.32 1.2-1.44 1.61-1.5h.05c.1-.31.47-.45.78-.56.14-.05.37-.13.41-.19-.11-.71 1.91-2.85 2.81-3.39.72-.43 2.51-2.54 3.2-3.39.41-1.41 2.18-2.9 3.7-3.1 1.45-.19 7.9-1.07 7.9-1.07l.1.73s-6.45.89-7.9 1.08c-1.28.17-2.81 1.47-3.1 2.63a.37.37 0 0 1-.07.14c-.25.31-2.47 3.04-3.45 3.62-.92.55-2.43 2.36-2.48 2.76.07.53-.5.74-.87.88-.1.04-.26.1-.33.14-.05.38-.46.44-.65.47-.36.05-.77.11-1 .97-.48 1.8-3.07 2.91-3.18 2.96-.09.04-.19.04-.28 0s-.33-.12-.65.05c-.28.14-.49.45-.63.92-.03.1-.1.19-.2.23-.4.18-1.52.79-1.94 1.39-.32.46-1.01.73-1.67.98-.49.19-1.23.47-1.23.7 0 .5-.39.82-.81 1.16-.6.49-1.34 1.09-1.34 2.51s0 5.46.48 6.62c.09.22.17.43.25.63.14.37.32.81.44 1.01.09-.01.18 0 .29.02.56.13 1.55.85 1.86 1.47.02.01.16.09.48.09 1.3 0 3.7-1.13 6.56-4.28.14-.15.37-.16.52-.02s.16.37.02.52c-3.05 3.36-5.65 4.52-7.11 4.52Zm-2.86-2.22Z"
  />
  <path
    d="M130.11 109.34c-.18 0-.34-.13-.36-.31-.13-.83 1.06-2.13 1.61-2.68.01-.26.15-.7.59-1.47-.09-1.51.87-2.2 1.6-2.42.03-.28.13-.7.43-1.17.42-.66 1.78-.38 4.49.43.43.13.79.24 1.03.29 1 .24 3.33 0 3.35 0 .2-.02.38.13.41.33.02.2-.13.38-.33.41-.1.01-2.48.25-3.6 0-.25-.06-.63-.17-1.07-.31-.9-.27-3.29-1-3.67-.72-.34.55-.31.99-.31 1.01.02.19-.12.37-.31.4-.14.02-1.41.26-1.27 1.81 0 .08 0 .15-.05.22-.27.47-.51 1.01-.55 1.2.02.04.03.09.03.14 0 .1-.04.19-.11.26-.79.76-1.59 1.82-1.54 2.17.03.2-.1.39-.31.42h-.06Z"
  />
  <path
    d="M130.13 112.71s-.09 0-.13-.03c-.08-.03-.15-.14-.22-.3h-.01l-.01-.06c-.3-.75-.52-2.39-.52-2.41-.13-1.33 1.62-1.87 2.67-1.98.19-.02.38.13.4.33.02.2-.13.38-.33.41-.55.06-2.08.4-2.01 1.18.06.6.2 1.25.32 1.72.39-.23 1.03-.52 2.09-.93.1-.04.21-.03.3.02.77.4 3.87.59 5 .63.2 0 .36.18.36.38s-.17.36-.37.36h-.01c-.41-.02-3.92-.15-5.15-.64-.81.32-1.7.72-2 .92.01.11 0 .22-.12.32-.07.06-.16.09-.24.09ZM137.66 102.23c-.07 0-.14-.02-.21-.07a.359.359 0 0 1-.09-.51l10.02-14.54c.11-.17.34-.21.51-.09.17.12.21.34.09.51l-10.02 14.54a.38.38 0 0 1-.3.16ZM121.7 115.5c-.09 0-.19-.04-.26-.11-.41-.41-4.2-.89-7.47-1.09a.361.361 0 0 1-.34-.39c.01-.2.2-.37.39-.34 1.66.11 7.15.51 7.95 1.31.14.14.14.38 0 .52-.07.07-.17.11-.26.11ZM121.01 123.52c-1.73 0-2.62-.75-3.06-1.38-.44-.64-.58-1.39-.45-1.72.07-.19.29-.28.48-.21.18.07.27.28.21.46-.02.13.05.7.5 1.22.52.61 1.37.9 2.43.89.21-.03.37.16.38.36 0 .2-.16.37-.36.38h-.13Z"
  />
  <path
    d="M125.49 126.36c-.14 0-.56 0-6.23-4.21a.378.378 0 0 1-.08-.52c.12-.16.35-.2.52-.08 2.17 1.61 5.41 3.94 5.85 4.07.17 0 .88 0 1.16-.32.1-.11.14-.27.12-.48-.02-.2.13-.38.33-.41.19 0 .38.13.41.33.05.43-.06.78-.3 1.05-.5.55-1.42.55-1.77.55Z"
  />
  <path
    d="M127.31 124.93c-.29 0-.55-.08-.71-.27-.11-.13-.41-.39-.72-.68-.57-.5-1.21-1.08-1.51-1.5-.33-.48-1.88-1.65-2.44-2.06a.378.378 0 0 1-.08-.52c.12-.17.35-.2.52-.08.22.16 2.15 1.57 2.61 2.24.25.35.88.91 1.39 1.37.37.33.66.59.8.76.08.04.51.01.78-.21.12-.1.27-.29.11-.68a14.3 14.3 0 0 1-.34-.94c-.25-.72-.37-1.05-.68-1.21-.54-.27-3.47-2.55-3.72-3.31-.06-.19.04-.4.23-.47.19-.07.4.04.47.23.17.43 2.7 2.56 3.35 2.88.59.3.79.86 1.05 1.63.09.27.19.57.33.9.27.68.07 1.3-.53 1.66-.26.16-.6.25-.9.25Z"
  />
  <path
    d="M128.7 123.57c-.13 0-.27-.02-.41-.06a.371.371 0 0 1-.24-.46c.06-.19.26-.3.46-.24.58.19 1.17-.54 1.24-.73.04-.23-.29-1.53-.86-2.67-.44-.87-2.31-2.49-3-3.04a.377.377 0 0 1-.06-.52c.13-.16.36-.18.52-.06.11.08 2.6 2.09 3.2 3.28.43.87 1.1 2.71.89 3.27-.15.39-.86 1.23-1.74 1.23ZM112.67 126.87c-.2 0-.36-.16-.37-.36-.01-.38-.25-9.26 5.87-11.35.19-.07.4.04.47.23.07.19-.04.4-.23.47-5.61 1.92-5.38 10.54-5.37 10.63 0 .2-.15.37-.36.38h-.01ZM120.31 119.6c-.2 0-.37-.17-.37-.37v-1.07c0-.14.07-.26.19-.32l.68-.37.28-1.05s.03-.09.06-.13l1.07-1.39c.13-.16.36-.19.52-.07s.19.36.07.52l-1.03 1.33-.3 1.13c-.03.1-.09.18-.18.23l-.63.34v.85c0 .2-.17.37-.37.37ZM132.18 121.5c-.6 0-1.12-.25-1.48-.71-.12-.16-.1-.39.06-.52s.39-.1.52.06c.21.27.51.42.88.42.27-.02.59-.09.74-.17-.1-.24-.12-.56-.15-.99-.03-.52-.07-1.17-.28-1.75-.34-.91-1.81-.76-1.82-.76a.37.37 0 0 1-.41-.33c-.02-.2.12-.38.32-.41.09 0 2.06-.22 2.6 1.24.25.68.29 1.39.33 1.97.02.28.04.66.09.75.11.08.18.26.14.44-.09.37-.61.61-1.03.7-.18.04-.35.06-.51.06Z"
  />
  <path
    d="M117.39 126.07c-.76 0-1.94-.32-2.69-.55a.367.367 0 0 1-.24-.46.36.36 0 0 1 .46-.24c.92.28 1.85.48 2.35.52-.04-.05-.09-.09-.13-.14-.94-.96-2.88-2.97-1.66-6.77.02-.08.63-2.54 3.16-3.27 1.26-.37 2.5-.53 3.4-.65.59-.08 1.26-.17 1.39-.26 1.3-1.21 2.61-1.53 3.93-.98 1.5.62 2.68 2.12 3.39 3.02.19.24.34.43.45.54.69.69.4 2.92.07 3.59-.37.73-.97 1.04-.99 1.05-.18.1-.4.02-.5-.16a.38.38 0 0 1 .16-.5s.41-.22.67-.73c.3-.59.39-2.41.07-2.73-.12-.12-.29-.34-.5-.6-.66-.84-1.77-2.24-3.1-2.79-1.39-.58-2.44.19-3.11.81-.3.27-.77.34-1.83.48-.93.12-2.08.27-3.29.62-2.1.61-2.63 2.67-2.65 2.76-1.09 3.41.58 5.13 1.48 6.06.38.4.62.64.54.96-.03.14-.12.25-.25.33-.13.07-.32.1-.56.1Z"
  />
  <path
    d="M131.24 116.76a.36.36 0 0 1-.2-.06.36.36 0 0 1-.1-.51l3.16-4.74c.11-.17.34-.21.51-.1.17.11.22.34.1.51l-3.16 4.74c-.07.11-.19.16-.31.16ZM128.49 114.77a.36.36 0 0 1-.22-.07.378.378 0 0 1-.08-.52l1.61-2.2c.12-.17.35-.2.52-.08.16.12.2.35.08.52l-1.61 2.2c-.07.1-.18.15-.3.15ZM118.25 123.46c-1.38 0-2.58-.59-2.65-.62a.368.368 0 0 1-.17-.49c.09-.18.31-.26.49-.17.02 0 1.89.92 3.43.37a.367.367 0 0 1 .25.69c-.45.16-.91.22-1.36.22ZM111.25 143.39c-.39 0-.79-.13-1.19-.4-.35-.23-.56-.58-.61-.99-.17-1.41 1.55-3.33 1.75-3.54l10.83-14.74c.12-.17.35-.2.51-.08.16.12.2.35.08.51l-10.86 14.77c-.5.55-1.69 2.08-1.58 2.99.02.2.12.35.29.47.36.24.7.32 1.01.25.53-.13.86-.68.86-.69l11.78-16.44c.12-.17.35-.2.51-.08.17.12.2.35.08.51l-11.76 16.4s-.46.81-1.31 1.01c-.13.03-.27.05-.4.05ZM120.31 114.77c-.18 0-.34-.14-.37-.32-.36-2.87-1.34-4.43-1.35-4.44a.37.37 0 0 1 .11-.51c.17-.11.4-.06.51.11.04.07 1.07 1.7 1.46 4.75.03.2-.12.39-.32.41h-.05Z"
  />
  <path
    d="M126.13 113.35s-.1 0-.15-.03c-.6-.26-5.84-2.53-6.73-3.22a.367.367 0 0 1-.06-.52c.12-.16.36-.19.52-.06.69.54 4.97 2.44 6.56 3.12.19.08.27.3.19.48a.37.37 0 0 1-.34.22ZM119.48 114.3c-.13 0-.26-.07-.33-.19-.39-.74-2.43-.69-3.62-.49a.38.38 0 0 1-.43-.3c-.03-.2.1-.39.3-.43.37-.06 3.62-.57 4.39.87.1.18.03.4-.15.5a.38.38 0 0 1-.17.04ZM129.6 112.47c-.16 0-.3-.1-.35-.26-.66-2.07-5.7-6.05-5.74-6.09a.368.368 0 0 1-.06-.52c.13-.16.36-.19.52-.06.22.17 5.27 4.16 5.99 6.45.06.19-.05.4-.24.46-.04.01-.07.02-.11.02ZM130.11 109.34a.42.42 0 0 1-.21-.06c-2.63-1.78-1.81-7.24-1.77-7.47.03-.2.21-.34.42-.31.2.03.34.22.31.42 0 .05-.78 5.22 1.46 6.75.17.11.21.34.1.51-.07.1-.19.16-.31.16ZM130.61 107.79c-.18 0-.33-.13-.36-.31-.45-2.78 2.64-11.33 2.77-11.7a.367.367 0 0 1 .69.25c-.03.09-3.16 8.74-2.73 11.33.03.2-.1.39-.31.42h-.06ZM141.65 126.24s-4.04-4.42-4.99-5.43c-.91-.97-.89-1.6-.87-2.33v-.39c0-1.03 3.09-3.97 4.04-4.85.15-.14.38-.13.52.02s.13.38-.02.52c-1.82 1.68-3.78 3.81-3.8 4.31v.41c-.02.68-.03 1.05.67 1.8.95 1.01 4.99 5.44 4.99 5.44l-.54.5Z"
  />
  <path
    d="M140.66 129.59c-.2 0-.37-.17-.37-.37-.07-.36-1.54-2.09-2.72-3.48-1.51-1.78-3.21-3.79-3.87-5-1.35-2.5.32-5.3.39-5.41.11-.17.33-.23.5-.12.17.1.23.33.13.51-.02.02-1.52 2.56-.37 4.68.62 1.15 2.3 3.13 3.78 4.88 2.1 2.48 2.9 3.46 2.9 3.96 0 .2-.17.37-.37.37ZM140.04 132.1s-.09 0-.13-.02c-4.74-1.81-9.13-10.54-9.32-10.91a.36.36 0 0 1 .17-.49c.18-.09.4-.02.49.17.04.09 4.45 8.84 8.92 10.55.19.07.29.29.21.48-.06.15-.2.24-.34.24Z"
  />
  <path
    d="M140.04 133.19h-.07a.365.365 0 0 1-.29-.43c.63-3.18 11.03-18.57 11.48-19.22a.368.368 0 0 1 .61.41c-.11.16-10.77 15.92-11.36 18.95-.03.18-.19.3-.36.3ZM144.95 119.6c-.18 0-.34-.13-.37-.32-.13-1.01.71-5.7.81-6.23.04-.2.22-.33.43-.3.2.04.33.23.3.43-.37 2.04-.89 5.33-.8 6 .03.2-.12.39-.32.41h-.05ZM141.92 122.23c-.1 0-.21-.04-.28-.13-1.14-1.35-5.59-3.65-5.64-3.67a.373.373 0 0 1-.16-.5c.09-.18.31-.25.5-.16.19.1 4.63 2.39 5.86 3.85.13.16.11.39-.04.52-.07.06-.15.09-.24.09ZM141.33 117.6c-1.53 0-4.29-.23-4.62-.67a.379.379 0 0 1 .07-.52c.14-.11.34-.1.47.02.52.25 4.31.57 4.8.4.19-.07.4.03.47.23.07.19-.03.4-.23.47-.13.05-.48.07-.96.07ZM150.2 100.2s-.07 0-.11-.02a.371.371 0 0 1-.24-.46s.25-.82.63-1.96c.41-1.23 1.1-1.66 1.18-1.71.17-.1.4-.04.5.13.1.17.04.4-.13.5-.03.02-.53.34-.85 1.3a90.33 90.33 0 0 0-.63 1.94c-.05.16-.19.26-.35.26ZM165.14 95.61c-.14 0-.27-.08-.33-.21l-3.07-6.27c-.09-.18-.01-.4.17-.49.18-.09.4-.01.49.17l3.07 6.27c.09.18.01.4-.17.49-.05.03-.11.04-.16.04ZM152.92 91.61c-.05 0-.11-.01-.16-.04-1.49-.72-1.65-2.06-1.66-2.12-.02-.2.12-.38.33-.41.22-.02.38.13.41.33 0 .05.14 1.01 1.25 1.54a.368.368 0 0 1-.16.7Z"
  />
  <path
    d="M152.11 98.25c-.32 0-.54-.13-.66-.24-.34-.31-.35-.8-.35-.86a.37.37 0 1 1 .74 0c0 .07.03.24.11.32.02.01.05.06.21.05.37-.03.43-.09.43-.1.01-.02.06-.12-.04-.59-.03-.12-.07-.16-.12-.18-.21-.11-.66 0-.84.08-.19.08-.4-.01-.48-.2s.01-.4.2-.48c.09-.04.89-.35 1.46-.05.26.14.43.37.49.68.09.43.14.86-.09 1.18-.22.3-.59.37-.96.4h-.11Zm-.28-1.1ZM149.06 98.25a.4.4 0 0 1-.23-.08l-1.86-1.5a.367.367 0 0 1-.05-.52c.13-.16.36-.18.52-.05l1.86 1.5c.16.13.18.36.05.52a.37.37 0 0 1-.29.14ZM154.69 146.08a.37.37 0 0 1-.37-.33c-.38-3.71.35-30.59.38-31.74 0-.2.18-.39.38-.36.2 0 .36.17.36.38 0 .28-.75 27.98-.38 31.64.02.2-.13.38-.33.4h-.04ZM165.74 144.69c-.18 0-.33-.13-.36-.31-1.45-8.68 1.94-28.75 2.09-29.6.03-.2.22-.33.43-.3.2.03.34.22.3.43-.04.21-3.51 20.8-2.09 29.36.03.2-.1.39-.3.42h-.06Z"
  />
  <path
    d="M158.43 169.18c-.23 0-.41-.01-.54-.04-1.41-.32-4.31-1.86-4.95-4.11-.57-2.04-1.01-18.11-1.02-18.79 0-.1.04-.2.1-.27s.16-.11.26-.11c.04 0 .41-.06 1.01-.15 14.51-2.13 16.98-2.02 17.51-1.69 1.51.95 1.85 8.25 1.75 10.44-.05 1.02-.23 2.14-.4 3.22-.31 1.89-.62 3.86-.13 5.03.05.12.03.26-.04.36.52.7.96 1.27 1.17 1.5.42.45.9.97.71 1.53-.17.5-.78.81-2.05 1.04l-1.12.2c-5.31.97-10.39 1.86-12.26 1.86Zm-5.77-22.64c.16 5.84.56 16.75.99 18.28.52 1.84 3.1 3.3 4.4 3.59 1.15.26 9.4-1.25 12.5-1.82l1.12-.21c1.34-.24 1.47-.51 1.48-.55.05-.15-.37-.61-.55-.8-.77-.83-4.24-5.7-4.39-5.91-.12-.17-.08-.4.09-.51.17-.12.4-.08.51.09.02.03 1.13 1.59 2.24 3.1-.13-1.22.12-2.71.37-4.26.17-1.06.35-2.15.39-3.13.14-3.25-.48-9.2-1.41-9.78-.4-.2-3.14-.24-17.01 1.79-.35.05-.58.09-.74.11Z"
  />
  <path
    d="M160.25 166.99c-.16 0-.3-.1-.35-.26-.06-.19.05-.4.24-.46.31-.1 7.74-2.36 11.42-1a.367.367 0 0 1-.25.69c-3.44-1.27-10.87.99-10.95 1.02-.04.01-.07.02-.11.02ZM169.28 172.74h-.02a.361.361 0 0 1-.34-.39c.04-.65-.57-3.27-.99-4.87-.05-.2.07-.4.26-.45.2-.05.4.07.45.26.11.42 1.08 4.13 1.01 5.11-.01.19-.17.34-.37.34ZM141.54 134.34c-.11 0-.21 0-.3-.02-.19-.02-.47-.14-.7-.58-.26-.49-.42-1.32-.21-1.72.24-.47 1.19-.84 1.47-.94a.31.31 0 0 1 .19-.01c1.42.26 1.29 1.65 1.25 2.16-.02.29-.16.54-.4.73-.37.3-.91.38-1.3.38Zm.41-2.53c-.45.17-.89.42-.96.54-.1.23.14 1.14.36 1.24.32.04.8-.03 1.03-.21.08-.06.12-.13.12-.22.08-.86-.07-1.23-.55-1.35Z"
  />
  <path
    d="M142.87 132.81c-.17 0-.33-.12-.36-.3-.04-.2.1-.39.3-.43l1.39-.26c.21-.03.39.1.43.3.04.2-.1.39-.3.43l-1.39.26h-.07ZM141.29 147.15c-.18 0-.34-.13-.36-.32-.03-.2.11-.39.31-.42l2.27-.32c.22-.04.39.11.42.31.03.2-.11.39-.31.42l-2.27.32h-.05ZM127.93 173.69c-.17 0-.31-.05-.4-.08-.61-.2-2.53-1.61-2.53-2.69 0-.42.21-1.39.44-2.51.25-1.19.54-2.53.57-3.22.07-1.42 2.13-10.98 2.73-13.07.39-1.38 4.61-14.61 6.51-16.17.56-.46.16-1.18-.83-2.61-.85-1.24-1.82-2.65-1.65-4.16.29-2.61.23-3.1.23-3.12-.01-.09 0-.19.05-.26l.18-.29c.11-.17.34-.22.51-.12.17.11.22.34.12.51l-.12.18c.01.32 0 1.13-.24 3.17-.14 1.23.75 2.52 1.53 3.66.9 1.31 1.83 2.66.68 3.6-1.53 1.25-5.51 13.14-6.27 15.8-.66 2.32-2.64 11.61-2.7 12.9-.04.75-.31 2.07-.58 3.34-.21.99-.43 2.01-.43 2.35 0 .57 1.48 1.81 2.02 1.99.14.05.19.05.27.01.45-.23 1.34-1.66 2.99-7.11 2.32-7.65 7.63-20.12 7.68-20.24.08-.19.3-.27.48-.19.19.08.27.3.19.48-.05.12-5.35 12.55-7.66 20.17-1.84 6.08-2.73 7.23-3.36 7.56-.16.08-.31.11-.44.11Z"
  />
  <path
    d="M132.82 146.4c-.06 0-.11-.01-.16-.04a.368.368 0 0 1-.17-.49c1.08-2.15 6.07-8.87 6.28-9.15.12-.17.35-.2.52-.08.16.12.2.35.08.52-.05.07-5.17 6.95-6.21 9.04-.07.13-.19.2-.33.2ZM141.02 161.02c-.05 0-.11-.01-.16-.04-.39-.19-2.31-.57-3.42-.75-1.02-.2-3.21-2.01-3.46-2.21a.367.367 0 0 1-.05-.52c.13-.16.36-.18.52-.05.88.73 2.5 1.93 3.12 2.05.29.05 2.99.51 3.61.82a.368.368 0 0 1-.16.7Z"
  />
  <path
    d="M141.75 166.29h-.07c-4.57-.9-4.8-1.28-4.89-1.42-.33-.53-.11-4.47.41-5.21a.36.36 0 0 1 .51-.09c.17.12.21.35.09.51-.32.45-.54 3.72-.39 4.37.42.23 2.56.75 4.4 1.11.2.04.33.23.29.43-.03.18-.19.3-.36.3Z"
  />
  <path
    d="M136.55 163.77c-.05 0-.11-.01-.16-.04-1.55-.77-3.54-2.34-3.62-2.41a.368.368 0 0 1-.06-.52c.13-.16.36-.19.52-.06.02.02 2.01 1.59 3.49 2.32a.368.368 0 0 1-.16.7ZM165.84 201.12h-.03c-6.4-.53-14.4-4.26-16.04-5.16-1.6-.88-4.53-3.78-6.1-5.34-.39-.39-.69-.68-.85-.84-.83-.76-2.71-2.9-3.04-3.67-.25-.61-.9-2.83-.76-3.56.08-.46-.47-5.6-.86-7.24-.4-1.68.19-4.54.56-5.81.35-1.19.29-3.54.29-3.57 0-.2.16-.37.36-.38.19.01.37.16.38.36 0 .1.06 2.49-.32 3.79-.41 1.41-.9 4.01-.55 5.43.38 1.59.99 6.88.87 7.55-.08.44.42 2.43.72 3.14.26.61 2.04 2.66 2.85 3.41.17.16.48.46.87.86 1.55 1.53 4.43 4.39 5.94 5.22 1.61.88 9.47 4.56 15.74 5.07.2.02.35.19.34.4-.02.19-.18.34-.37.34Z"
  />
  <path
    d="M140.11 184.25c-.2 0-.36-.15-.37-.35 0-.2.15-.38.35-.39 1.42-.07 1.78-1.42 2.07-3.05.12-.67.22-1.19.46-1.49.46-.56.3-3.1-.3-4.69-.62-1.66.6-3.88.66-3.97.1-.18.32-.24.5-.14.18.1.24.32.14.5-.01.02-1.11 2.02-.61 3.36.58 1.54.94 4.48.18 5.42-.13.15-.22.69-.31 1.16-.26 1.41-.64 3.55-2.77 3.65h-.02Z"
  />
  <path
    d="M152.19 180.46c-3.57 0-12.55-3.17-12.94-3.31a.367.367 0 0 1 .25-.69c.09.03 9.24 3.27 12.69 3.27h.09c.98-.02 1.99-.06 2.97-.09 2.56-.1 4.76-.18 5.85.1.2.05.31.25.26.45s-.25.31-.45.26c-.99-.26-3.25-.17-5.64-.08-.98.04-1.99.07-2.98.09h-.1Z"
  />
  <path
    d="M149.85 184.28c-.1 0-.21-.02-.33-.05-.53-.17-1.31-.94-2.56-2.18-.9-.9-2.26-2.26-2.67-2.29a.361.361 0 0 1-.34-.39c.01-.2.18-.39.39-.34.64.04 1.61.97 3.14 2.51.84.84 1.87 1.88 2.25 2 .23.08.45-.11.96-.6.64-.61 1.52-1.45 3.12-1.93 2.81-.83 14.48-.35 14.98-.33.2 0 .36.18.35.38 0 .2-.17.33-.38.35-.12 0-12.05-.49-14.74.3-1.43.42-2.23 1.19-2.82 1.75-.46.44-.86.82-1.37.82ZM137.62 172.74c-.11 0-.21-.05-.28-.13-.79-.96-6.03-7.16-6.03-7.16l.56-.48s5.24 6.21 6.03 7.17c.13.16.11.39-.05.52a.34.34 0 0 1-.23.08ZM143.31 169.98h-.02c-.6-.02-3.66-.17-4.4-.57-.72-.38-5.56-5.19-6.52-6.15-.14-.14-.14-.38 0-.52s.38-.14.52 0c2.2 2.19 5.87 5.77 6.35 6.03.46.25 2.75.42 4.08.48.2 0 .36.18.35.38 0 .2-.17.35-.37.35ZM139.37 183.39a.37.37 0 0 1-.34-.22c-1.32-3-8.67-14.51-8.75-14.62a.37.37 0 0 1 .11-.51c.17-.11.4-.06.51.11.3.48 7.46 11.67 8.8 14.72.08.19 0 .4-.19.49-.05.02-.1.03-.15.03ZM134.42 182.27c-1.19 0-4.5-2.79-7.16-5.22a.365.365 0 0 1-.02-.52c.14-.15.37-.16.52-.02 2.52 2.3 5.56 4.74 6.45 5.01-.26-1.4-3.28-6.32-5.33-9.4a.368.368 0 0 1 .61-.41c.55.84 5.41 8.21 5.47 9.92.01.39-.23.55-.33.59-.06.03-.13.04-.22.04Z"
  />
  <path
    d="M152.66 190.5c-.05 0-.1-.01-.15-.03-.06-.03-5.84-2.66-10.19-4.03-3.86-1.21-5.55-3.35-6.1-4.05-.07-.09-.12-.15-.15-.18a.365.365 0 0 1-.07-.51c.12-.17.36-.19.52-.07.08.06.14.14.27.31.52.66 2.1 2.66 5.75 3.81 4.39 1.38 10.22 4.03 10.28 4.06.19.08.27.3.18.49a.37.37 0 0 1-.34.22ZM142.61 189.43s-.08 0-.12-.02c-.04-.01-1.04-.36-2.17-1.55-.85-.9-8.62-5.27-11.54-6.88a.363.363 0 0 1-.14-.5c.1-.18.33-.24.5-.14 1.09.6 10.63 5.87 11.72 7.02.99 1.05 1.86 1.36 1.87 1.36.19.07.29.28.23.47-.05.15-.2.25-.35.25Z"
  />
  <path
    d="M146.82 193.51s-.08 0-.11-.02a.354.354 0 0 1-.25-.29c-.07-.13-.57-.79-3.66-2.75-3.86-2.45-13.39-3.41-13.49-3.42-.2-.02-.35-.2-.33-.4.02-.2.19-.35.4-.33.4.04 9.8.98 13.81 3.53 4.22 2.68 4.05 3.21 3.98 3.43-.05.16-.19.25-.35.25ZM134.15 225.25c-.2 0-.37-.17-.37-.37 0-.3-.5-1-.84-1.46-.31-.43-.57-.79-.66-1.07-.26-.77-4.13-18.06-4.19-21.21-.05-2.69-.9-6.31-1.26-7.85-.06-.24-.1-.43-.12-.55-.1-.45-.22-2.58-.41-6.05-.15-2.79-.31-5.68-.44-6.94-.18-1.7-.03-2.52.21-2.9-.49-1.39 0-4.07.07-4.39.04-.2.22-.34.43-.29.2.04.33.23.29.43-.17.85-.5 3.26-.03 4.16.05.1.05.21.02.31a.39.39 0 0 1-.14.17c-.05.07-.31.55-.11 2.44.13 1.28.29 4.18.44 6.98.15 2.71.3 5.52.39 5.94.02.12.07.3.12.53.37 1.57 1.22 5.23 1.28 8 .06 3.02 3.9 20.21 4.15 21 .06.17.33.55.56.88.48.67.97 1.36.97 1.89 0 .2-.17.37-.37.37Z"
  />
  <path
    d="M162.08 211.54c-.06 0-.12-.01-.17-.04-9.73-5.06-15.37-17.68-15.43-17.81-.08-.19 0-.4.19-.49.19-.08.4 0 .49.19.05.12 5.59 12.52 15.09 17.45.18.09.25.32.16.5-.07.13-.19.2-.33.2Z"
  />
  <path
    d="M144.1 264.37c-.65 0-2.46-.69-5.82-2.21l-.36-.16c-.48-.21-.49-.9-.04-4.36.09-.67.17-1.28.2-1.7.08-.98.67-1.07.95-1.11h.03c-.01-.09-.05-.29-.2-.68-.43-1.16-.49-2.09-.54-2.85-.04-.62-.07-1.1-.27-1.56-.74-1.67-1.22-3.25-1.48-4.83-.11-.65-.27-.98-.45-1.37-.35-.72-.75-1.55-.88-4.49-.11-2.64-.63-4.08-1-5.13-.27-.75-.48-1.34-.45-2.04q.05-1.29-.41-2.3l-.26-.57c-.8-1.8-.05-4.85-.02-4.98.05-.2.25-.31.45-.27.2.05.32.25.27.45 0 .03-.72 2.93-.02 4.5l.25.56c.52 1.15.53 1.2.47 2.58-.02.62.16 1.12.41 1.82.39 1.1.93 2.6 1.05 5.35.12 2.79.48 3.54.8 4.2.19.4.4.81.52 1.58.25 1.52.71 3.04 1.43 4.65.26.58.29 1.17.33 1.81.05.74.1 1.58.5 2.63.27.73.31 1.09.16 1.36-.15.25-.4.29-.57.31-.21.03-.29.04-.32.44-.04.43-.12 1.05-.2 1.73-.14 1.12-.41 3.15-.3 3.63l.27.12c4.22 1.91 5.24 2.16 5.52 2.14 1.2-.09 4.29-.56 4.82-1.09.19-.19.47-.38.79-.61.94-.66 2.22-1.56 2.14-2.9-.07-1.12-.47-2.33-.78-3.3-.26-.8-.45-1.38-.42-1.75 0-.08.03-.25.06-.52.81-6.49.91-11.1.32-13.71-1.36-6.05-1.87-9.19-1.64-10.21.27-1.21.17-1.98.06-2.1-.27-.21-.26-.64-.23-1.51.02-.44.05-1.37-.1-1.53-.32-.28-.36-.77-.41-1.29-.06-.67-.12-.99-.35-1.02-.1-.01-.2-.07-.26-.16a.358.358 0 0 1-.05-.3c.35-1.36.6-3.52 0-3.81a.362.362 0 0 1-.18-.46c.02-.04 1.67-4.57 1.05-11.85 0-.1.25-5.03.25-5.97 0-.18.13-.34.31-.36.19-.02.35.08.41.26.05.15 1.09 3.59 1.28 5.25.04.38.07.7.1.97.07.88.11 1.25.54 1.9.39.58.53 1.52.68 2.52.12.79.24 1.6.49 2.23.16.41.24.78.33 1.14.22.97.43 1.88 2.12 3.53.15.14.15.38 0 .52-.14.15-.37.15-.52 0-1.85-1.8-2.09-2.86-2.32-3.9-.08-.35-.15-.68-.29-1.04-.28-.7-.41-1.56-.53-2.39-.13-.87-.27-1.77-.57-2.22-.54-.81-.58-1.32-.66-2.25-.02-.27-.05-.58-.09-.95-.08-.72-.35-1.84-.61-2.85-.07 1.63-.16 3.46-.17 3.58.55 6.5-.66 10.78-1.01 11.85.83.84.41 3.16.19 4.13.49.3.55 1.01.6 1.56.02.27.06.71.16.8.39.34.39 1.06.35 2.11-.01.34-.03.85.01.98.59.45.25 2.23.14 2.76-.19.87.36 4.19 1.64 9.89.61 2.7.5 7.4-.31 13.97-.03.25-.05.42-.06.49-.02.22.19.85.38 1.45.33 1.01.74 2.27.82 3.48.11 1.75-1.43 2.83-2.45 3.55-.29.21-.55.38-.69.53-.93.93-5.25 1.3-5.29 1.31h-.06Zm-5.77-2.94Zm-.12-.11ZM155.35 187.65c-9.34 0-12.88-4.79-13.04-5.01a.366.366 0 0 1 .59-.43c.04.06 4.15 5.57 15.03 4.59.2-.03.38.13.4.33.02.2-.13.38-.33.4-.93.08-1.82.12-2.65.12ZM168.69 180.49c-.39 0-1-.34-1.5-.84-.65-.65-2.39-4.99-2.73-5.85-.07-.19.02-.4.21-.48.19-.07.4.02.48.21.62 1.58 1.65 4.01 2.24 5.1.07-.07.16-.1.26-.1h1.65c.15 0 .29.09.34.23.42 1.04-.3 1.44-.54 1.57-.03.05-.15.14-.3.17h-.1Zm-.24-.56Zm-.61-.68c.33.3.63.44.78.49.04-.03.08-.05.12-.07.18-.1.32-.18.28-.42h-1.17Z"
  />
  <path
    d="M156.15 223.55a.37.37 0 0 1-.29-.14c-2.51-3.29-2.3-7.45-2.29-7.63.01-.2.16-.38.39-.35.2.01.36.19.35.39 0 .04-.2 4.06 2.14 7.14.12.16.09.39-.07.52-.07.05-.15.08-.22.08ZM172.04 189.11c-.07 0-.13-.02-.19-.05a.38.38 0 0 1-.13-.51c.22-.37-.14-1.64-.44-2.38a.335.335 0 0 1 0-.26c.87-2.44 0-4-.03-4.07a.37.37 0 0 1-.03-.29c.03-.1.1-.18.19-.22.39-.19.41-1.22.3-1.87-.02-.11.01-.22.08-.3 1.05-1.22.69-2.41.26-3.3-.35-.74-.86-2.29-1.14-3.16s-.02-.04-.02-.06c-.06-.19.05-.4.25-.46.17-.05.38.08.46.25s0 .01 0 .02c0 0 0 .02.01.03.46 1.44.86 2.55 1.1 3.06.27.57 1.09 2.28-.26 3.97.06.47.14 1.67-.43 2.27.26.62.7 2.15 0 4.25.22.56.79 2.17.34 2.92a.36.36 0 0 1-.32.18Z"
  />
  <path
    d="M163.47 232.71s-.09 0-.14-.03c-9.25-3.72-8.67-11.33-8.66-11.4.02-.2.2-.35.4-.33.2.02.35.2.34.4-.03.29-.52 7.14 8.21 10.66.19.08.28.29.2.48a.38.38 0 0 1-.34.23ZM169.98 226.9c-.14 0-.26-.07-.33-.2a.36.36 0 0 1 .17-.49c.53-.27 2.06-2.59 2.99-4.21.15-1.94.08-7.15.01-11.75-.05-3.58-.1-6.67-.04-7.9.14-2.81-.7-11.27-.71-11.35-.01-.11.03-.23.12-.31.41-.38.61-.79.59-1.2-.04-.81-.89-1.48-.89-1.49a.377.377 0 0 1-.07-.52c.12-.16.36-.19.52-.07.05.04 1.13.88 1.18 2.04.03.59-.2 1.14-.69 1.64.12 1.27.82 8.61.69 11.28-.06 1.21-.01 4.44.04 7.86.07 4.69.14 10-.02 11.9 0 .05-.02.11-.05.15-.39.68-2.41 4.1-3.34 4.57-.05.03-.11.04-.16.04Zm3.19-4.79Z"
  />
  <path
    d="M164.54 279.22c-.19 0-.36-.15-.37-.35-.06-1.09-1.65-6.7-2.19-8.03-.26-.65-.61-3.15-1.1-6.88-.3-2.29-.68-5.14-.84-5.48-.2-.4-.09-1 .06-1.83.21-1.11.46-2.49-.06-3.54-.87-1.74-.28-3.82-.08-4.43-1.59-2.77-1.02-4.49-.68-5.12-.3-.51-.12-1.35.02-1.8-1.58-1.32-1.09-3.72-.96-4.24-1.3-5.36-1.96-10.26-1.97-10.31-.03-.2.12-.39.32-.41.22-.02.39.12.41.32 0 .05.67 4.98 1.97 10.33.02.06.01.13 0 .19 0 .03-.72 2.61.87 3.7.14.1.19.27.14.43-.24.63-.3 1.35-.14 1.46.09.06.14.15.16.25s-.01.21-.08.29c-.05.06-1.18 1.58.66 4.7.06.1.07.22.03.32 0 .02-.87 2.27-.01 4 .64 1.27.34 2.85.13 4-.1.56-.22 1.19-.13 1.37.19.38.42 2.03.91 5.71.38 2.85.81 6.09 1.06 6.7.53 1.32 2.17 7.01 2.24 8.27.01.2-.14.38-.35.39h-.02ZM177.12 290.46c-.2 0-.37-.17-.37-.37s.17-.37.37-.37c.23 0 .58-.41.89-.78.18-.21.37-.43.57-.63.45-.74.06-9.28-.42-11.34-.35-1.5-.08-7.57.21-13.14.04-.82.08-1.51.1-2 .07-1.49-.29-3.98-.6-6.18-.3-2.12-.56-3.95-.47-4.84.18-1.69-.36-5.71-.81-7.58-.26-1.1-.27-1.49-.27-2.09 0-.43 0-.97-.11-2-.19-1.9-.74-2.64-1.13-3.18-.1-.14-.2-.27-.27-.4-.4-.67-.81-4.08-.88-4.76v-.11c.65-3.35-.63-5.6-.64-5.62a.37.37 0 0 1-.02-.34c1.6-3.49-.27-6.57-.29-6.6-.11-.17-.05-.4.12-.51.17-.11.4-.06.51.12.09.14 2.05 3.34.41 7.13.31.62 1.23 2.81.65 5.9.19 1.62.55 4.02.78 4.41.07.11.15.22.24.34.42.57 1.05 1.44 1.27 3.54.11 1.06.11 1.62.12 2.07 0 .57 0 .91.25 1.93.47 1.93 1.02 6.07.83 7.83-.09.79.18 2.67.47 4.66.32 2.23.68 4.76.61 6.32-.02.49-.06 1.18-.1 2.01-.2 3.99-.58 11.4-.23 12.93.35 1.5 1.1 11.17.22 12.04-.18.18-.36.39-.52.58-.45.54-.88 1.04-1.45 1.04Z"
  />
  <path
    d="M170.05 292.23c-.35 0-.98-.1-2.16-.32-2.41-.46-4.02-2.92-4.89-4.24-.14-.21-.26-.39-.35-.52-.42-.57-.55-1.9-.69-3.43-.1-1.07-.21-2.17-.42-2.8-.52-1.57.88-7.76 1.05-8.47.05-.2.23-.33.44-.28.2.05.32.24.28.44-.43 1.85-1.45 6.9-1.06 8.07.24.71.35 1.86.45 2.97.12 1.24.25 2.65.55 3.06.1.14.22.32.37.55.81 1.23 2.31 3.52 4.41 3.92 1.23.23 1.74.29 1.94.31.11-.07.26-.08.39-.01.16.09.25.31.19.48-.06.17-.13.27-.49.27Z"
  />
  <path
    d="M168.52 295.38c-.23 0-.45-.06-.63-.17-.64-.4-1.98-2.11-2.87-5.01-.06-.19.05-.4.24-.46.2-.06.4.05.46.24.85 2.78 2.11 4.32 2.55 4.6.1.06.29.1.52 0 .45-.18.83-.75 1.04-1.55.18-.71.28-1.44.36-2.08.13-1.05.25-1.95.7-2.49.82-.98 4.01-.47 4.96-.11 1.13.42 2.07 3.59 2.25 4.23.05.2-.06.4-.26.45-.2.05-.4-.06-.45-.26-.46-1.65-1.28-3.54-1.8-3.73-1.12-.42-3.71-.63-4.14-.11-.31.37-.42 1.18-.53 2.11-.09.66-.18 1.41-.38 2.17-.36 1.41-1.08 1.89-1.48 2.05-.19.07-.38.11-.56.11Z"
  />
  <path
    d="M179.93 316.07c-2.16 0-4.2-1.37-5.63-2.49-1.98-1.55-4.66-5.66-5.13-8.64-.44-2.78-1.88-4.92-3.09-6.47-.45-.58-.99-1.04-1.57-1.52-1.07-.9-2.18-1.84-2.79-3.64-.92-2.76.81-6.38.88-6.53.09-.18.31-.26.49-.17s.26.31.17.49c-.02.03-1.67 3.5-.85 5.98.54 1.61 1.52 2.44 2.56 3.31.58.49 1.18.99 1.68 1.63 1.26 1.62 2.76 3.85 3.23 6.8.44 2.77 3.02 6.73 4.85 8.17 2.5 1.95 4.47 2.65 6.19 2.21 2.46-.63 5.02-1.79 5.16-2.79.21-1.5.32-6.94-.67-9.08-1.08-2.34-5.28-7.81-6.56-9.05l-1.38-1.33a.365.365 0 0 1-.01-.52c.14-.15.38-.15.52-.01l1.38 1.33c1.35 1.3 5.6 6.82 6.72 9.27 1.11 2.42.93 8.04.72 9.49-.27 1.91-4.8 3.17-5.71 3.4-.4.1-.8.15-1.2.15ZM168.13 286.87c-.59 0-.84-.11-.91-.42-.07-.31-.18-.82 10.02-6.78-2.37-3.32-10.83-1.93-10.92-1.91a.38.38 0 0 1-.43-.3c-.03-.2.1-.39.3-.43.39-.07 9.57-1.58 11.88 2.59.1.17.04.4-.14.5-3.97 2.32-8.31 4.98-9.63 6.01.5-.02 1.26-.1 1.92-.17 2.13-.23 4.78-.52 5.88.09.18.1.24.32.14.5-.1.18-.32.24-.5.14-.89-.5-3.52-.21-5.44 0-.99.11-1.69.18-2.17.18Z"
  />
  <path
    d="M180.16 313.16c-1.23 0-2.72-.26-4.13-1.01-2.56-1.36-7.28-9.2-7.48-9.54-.1-.17-.05-.4.13-.5.17-.1.4-.05.5.13.05.08 4.81 8 7.19 9.26 2.38 1.26 4.93.96 5.79.61.88-.35 3.78-1.68 4.07-3.97.03-.2.21-.34.41-.32.2.03.35.21.32.41-.33 2.62-3.28 4.06-4.53 4.56-.5.2-1.31.36-2.28.36ZM129.9 278.2c-1.28 0-2.61-.2-3.69-.78-2.8-1.5-3.1-2.91-3.16-4.23-.08-1.62 4.85-6.14 6.17-7.02 1.43-.95 6.46-2.72 7.35-3.03.46-.75 1.19-1.66 1.22-1.7.13-.16.36-.18.52-.05.16.13.18.36.05.52 0 0-.81 1-1.23 1.72a.39.39 0 0 1-.2.16c-.06.02-5.85 2.02-7.31 2.99-1.64 1.09-5.89 5.3-5.84 6.37.06 1.2.31 2.3 2.78 3.62 2.46 1.31 6.38.45 7.52-.02 1.28-.52 5.38-2.75 7.35-4.48 1.47-1.29 4.34-1.92 6.43-2.37.84-.18 1.57-.34 1.87-.48l.35-.16c1.06-.48 3.53-1.6 3.48-2.84-.04-.95-.48-1.96-.8-2.71-.23-.54-.4-.93-.4-1.23 0-.36-.43-1.55-.69-2.21-.08-.19.01-.4.2-.48.19-.07.4.01.48.2.12.31.75 1.88.75 2.49 0 .14.18.56.34.93.34.8.82 1.89.86 2.97.07 1.74-2.52 2.91-3.92 3.54l-.34.16c-.37.17-1.1.33-2.02.53-1.9.41-4.78 1.04-6.1 2.2-2.03 1.78-6.25 4.08-7.56 4.61-.85.35-2.61.77-4.45.77Z"
  />
  <path
    d="M142.67 266.54c-.41 0-.7-.1-.88-.19-1.09-.57-.34-2.71-.17-3.14.07-.19.28-.29.48-.21.19.07.29.29.21.48-.35.91-.5 2.05-.17 2.22.69.36 2.37-.06 4.83-2.42.15-.14.38-.14.52.01.14.15.14.38-.01.52-2.32 2.23-3.87 2.74-4.8 2.74Z"
  />
  <path
    d="M129.07 275.77c-.94 0-1.8-.13-2.47-.45-2.15-1.01-2.87-3.35-2.9-3.45-.06-.19.05-.4.25-.46.19-.06.4.05.46.25 0 .02.67 2.13 2.51 2.99 1.84.86 5.87.13 8.34-1.07.89-.44 1.72-1 2.6-1.6 1.53-1.05 3.12-2.13 5.35-2.78 3.51-1.02 6.89-2.69 7.79-3.33.97-.69 1.81-1.56 1.92-1.83a.37.37 0 0 1 .22-.38c.19-.08.41 0 .48.2.34.79-2.18 2.6-2.2 2.62-1.07.76-4.53 2.43-8.01 3.44-2.12.62-3.66 1.67-5.14 2.68-.9.62-1.75 1.2-2.7 1.66-1.63.79-4.28 1.52-6.5 1.52Zm23.88-11.63ZM144.73 260.11c-.33 0-.68-.01-1.07-.04-3.67-.27-5.27-4.4-5.33-4.58-.07-.19.02-.4.21-.47.19-.07.4.02.48.21.01.04 1.5 3.87 4.7 4.1 2.82.21 3.13-.45 3.13-.45 0-.2.17-.32.38-.33.2 0 .36.2.35.41 0 .07-.03.31-.31.56-.44.4-1.3.6-2.54.6ZM140.6 248.57h-.08c-1.69-.07-3.53-3.83-3.73-4.25-.09-.18 0-.4.17-.49.18-.08.4 0 .49.17.7 1.46 2.15 3.79 3.09 3.83 1.14.06 2.79-1.37 3.35-1.92.14-.14.38-.14.52 0s.14.38 0 .52c-.09.09-2.17 2.13-3.82 2.13ZM146.91 251.93c-.1 0-.19 0-.27-.02-.96-.12-3.03-.92-3.39-1.49-.12-.19-.47-.75 2.2-3.49.14-.14.38-.15.52 0s.15.38 0 .52c-.99 1.01-2.06 2.33-2.07 2.66.27.32 2.66 1.21 3.1 1.08.33-.33 3.51-4.47 3.46-6.51a.37.37 0 1 1 .74-.02c.07 2.35-3.29 6.68-3.73 7.1-.15.14-.36.18-.55.18Z"
  />
  <path
    d="M146.35 258.3h-.06c-.04 0-.13-.02-.26-.03-3.55-.44-5.13-.99-5.29-1.85-.11-.65.15-1.09.36-1.45.22-.36.3-.51.15-.78-.46-.85-1.69-2.38-1.7-2.4a.39.39 0 0 1-.08-.27c.01-.1.06-.19.14-.25l2.53-1.97c.16-.12.39-.1.52.06.12.16.1.39-.06.52l-2.23 1.74c.39.5 1.18 1.54 1.55 2.21.35.65.06 1.13-.17 1.51-.18.3-.34.56-.27.94.01.07.25.7 4.65 1.24.15.02.25.03.29.04.2.03.34.22.3.42-.03.18-.19.31-.36.31ZM144.58 235.3c-.06 0-.13-.02-.19-.05-.04-.02-.15-.1-.32-.21-4.77-3.28-7.13-4.14-8.26-4.29a.372.372 0 0 1-.32-.39c.01-.19.17-.34.37-.34.27 0 6.74.08 8.88 1.11 1.93.94 3.94.3 3.96.3.19-.06.4.04.46.24.06.19-.04.4-.24.46-.1.03-2.32.72-4.51-.34-1.17-.57-3.89-.82-5.96-.94 1.61.73 3.62 1.93 6.03 3.58.15.1.24.17.28.19.17.11.23.33.13.51a.36.36 0 0 1-.32.18ZM148.81 230.44h-.03c-.27-.02-6.76-.6-9.52-2.33-.43-.27-.85-.6-.74-1.02.15-.55.95-.6 3.23-.64 1.92-.03 4.55-.08 6.37-.71.2-.07.4.04.47.23.07.19-.04.4-.23.47-1.93.66-4.63.71-6.6.75-.86.01-1.9.03-2.37.12.06.05.14.11.26.18 2.61 1.64 9.12 2.21 9.19 2.22.2.02.35.2.34.4-.02.19-.18.34-.37.34ZM144.21 225.83s-.09 0-.13-.01a.37.37 0 0 1 .05-.73c.08 0 .16-.01.24-.02.4-.15 1.26-.94 2.15-1.97-1.57.31-3.93.43-4.52.45-.2 0-.37-.15-.38-.35 0-.2.15-.37.35-.38 1.95-.08 4.91-.36 5.41-.74.15-.11.36-.1.49.03s.14.34.03.49c-.45.58-1.27 1.59-2.08 2.32 1.58-.22 3.01-.59 3.25-.98a.38.38 0 0 1 .51-.12c.17.11.22.34.12.51-.65 1.03-4.13 1.39-5.28 1.48-.07.02-.14.02-.2.02Z"
  />
  <path
    d="M146.91 263.71s-.08 0-.13-.02a.367.367 0 0 1-.22-.47c.04-.12 1.09-2.97 1.41-3.63.18-.5-.52-4.09-.85-5.82-.12-.61-.22-1.16-.3-1.58-.37-2.06-1.22-13.34-1.22-14.53s-.42-5.6-.66-6.06c-.32-.44-.57-1.33-.59-1.43a.308.308 0 0 1 0-.19c.35-1.38-.53-3.23-1.25-4.72-.35-.74-.69-1.44-.84-2.01-.3-1.15-.04-4 .27-7.31.16-1.76.33-3.57.42-5.22.12-2.21.37-4.45.57-6.24.21-1.89.39-3.52.28-3.95-.26-1.05.28-3.77.64-4.49.19-.39.38-2.8.44-4.4 0-.2.19-.38.38-.35.2 0 .36.18.35.38-.03.67-.19 4.03-.52 4.7-.29.57-.79 3.14-.58 3.98.13.54 0 1.82-.27 4.21-.2 1.78-.45 4-.57 6.2-.09 1.66-.26 3.49-.42 5.25-.29 3.1-.56 6.03-.29 7.05.13.5.45 1.17.79 1.88.75 1.57 1.68 3.51 1.32 5.13.08.29.28.86.47 1.12.42.59.79 5.69.79 6.47 0 1.04.85 12.39 1.21 14.41.07.42.18.96.3 1.57.74 3.83 1.05 5.74.79 6.28-.3.63-1.37 3.54-1.38 3.57-.05.15-.2.24-.35.24Z"
  />
  <path
    d="M143.84 197.77a.37.37 0 0 1-.3-.15c-1.8-2.49-10.99-7.34-11.08-7.39a.367.367 0 0 1-.15-.5c.1-.18.32-.25.5-.15.38.2 9.44 4.98 11.34 7.61a.364.364 0 0 1-.3.58ZM173.2 211.54c-.2 0-.37-.17-.37-.37.02-2.28-2.37-18.61-2.4-18.77 0-.06 0-.12.02-.17.49-1.44-.02-2.23-.57-3.07-.15-.23-.3-.45-.42-.68-.51-.96-.76-3.58-.94-5.5-.04-.38-.07-.72-.1-1.01-.18-1.64-1.65-5.46-1.67-5.5a.383.383 0 0 1 .03-.33c.4-.63.54-1.19.42-1.66-.14-.56-.62-.83-.63-.83a.375.375 0 0 1-.15-.5c.1-.18.32-.25.5-.15.03.02.76.41.99 1.28.17.64.03 1.34-.41 2.09.3.78 1.48 3.97 1.65 5.52.03.29.07.64.1 1.02.17 1.75.43 4.4.86 5.23.11.21.25.41.38.62.55.85 1.24 1.9.68 3.63.21 1.43 2.41 16.52 2.39 18.8 0 .2-.17.37-.37.37ZM162.69 236.17c-2.94 0-5.1-2.39-5.12-2.42a.375.375 0 0 1 .03-.52c.15-.13.39-.12.52.03.12.14 3.03 3.34 6.59 1.72.18-.09.4 0 .49.18.08.19 0 .4-.18.49-.81.37-1.59.52-2.33.52ZM169.07 255.72c-1.1 0-6.88-4.41-7.32-5.34a.832.832 0 0 1 0-.7c.43-1.08 3.05-2.31 4.32-2.86-3.4-2.7-6.21-.93-6.24-.91a.37.37 0 0 1-.51-.11.37.37 0 0 1 .11-.51c.03-.02 3.57-2.26 7.59 1.36a.366.366 0 0 1-.11.62c-1.57.62-4.16 1.9-4.47 2.67-.03.07-.02.1-.01.11.47 1 5.82 4.7 6.6 4.93.15 0 .3.09.36.24.07.19-.02.4-.21.48-.02 0-.06.01-.09.01ZM174.65 253.69c-.17 0-.32-.12-.36-.29-.39-1.7-4.09-4.8-5.49-5.85a.374.374 0 0 1-.09-.49c.1-.16.32-.22.48-.13.49.22 4.12-.4 7.2-1.11.2-.05.4.08.44.28.05.2-.08.4-.28.44-1.2.27-4.5 1-6.42 1.13 1.52 1.24 4.46 3.83 4.86 5.57.05.2-.08.4-.28.44h-.08Z"
  />
  <path
    d="M172.11 254.38s-.08 0-.12-.02c-1.97-.65-6.58-2.25-6.92-3.27-.11-.33 0-.8.66-1.16 1.38-.76 4.46-.63 7.3 2.83.13.16.11.39-.05.52s-.39.11-.52-.05c-2.27-2.78-4.68-3.24-6.04-2.8-.48.16-.65.38-.65.43.24.5 3.54 1.84 6.45 2.79.19.06.3.27.24.47-.05.15-.19.25-.35.25ZM171.19 245.33h-.34c-2.03-.08-4.07-1.64-5.42-2.68-.29-.23-.56-.43-.78-.59-.86-.6-3.09.56-3.8 1.02a.37.37 0 0 1-.51-.11.37.37 0 0 1 .11-.51c.32-.21 3.2-2 4.62-1 .23.16.51.37.81.61 1.27.98 3.2 2.46 4.99 2.52 2.18.07 3.44-.73 3.45-.74a.368.368 0 0 1 .41.61c-.06.04-1.32.86-3.54.86ZM174.53 240.67c-.15 0-.3-.1-.35-.25-.34-1.01-3.32-3.74-4.44-4.7-.15-.13-.17-.37-.04-.52s.36-.17.52-.04c.43.37 4.2 3.65 4.66 5.03.06.19-.04.4-.23.47-.04.01-.08.02-.12.02ZM163.53 284.71c-.05 0-.1-.01-.15-.03-.18-.09-.26-.3-.18-.49.07-.15 1.77-3.71 7.85-2.76.2.03.34.22.31.42-.03.2-.21.35-.42.31-5.49-.85-7 2.21-7.06 2.34-.06.13-.2.21-.34.21ZM137.62 159.85c-.17 0-.33-.12-.36-.3-.78-4.02 1.37-11.36 1.46-11.67.06-.19.26-.31.46-.25.19.06.31.26.25.46-.02.07-2.19 7.48-1.44 11.32.04.2-.09.39-.29.43h-.07Z"
  />
  <path
    d="M142.17 166.29h-.07c-.86-.17-3.69-.78-4.21-1.53-.51-.75.13-3.58.43-4.76.02-.07.05-.13.1-.17-.02.01-.05.02-.08.03-.2.05-.39-.08-.44-.28-.05-.2-.17-.89.19-1.26.1-.1.32-.26.68-.19.77.14 1.25 1.16 1.29 1.67.04.48-.25.62-.34.65-.23.08-.52.08-.76.06-.44 1.84-.65 3.55-.46 3.84.23.34 2.12.9 3.74 1.22.2.04.33.23.29.43-.03.18-.19.3-.36.3Zm-3.49-6.58h.07c.15.03.39.06.56.04-.06-.29-.36-.86-.68-.92-.06.05-.06.34-.01.57.03.13-.01.26-.1.34.05-.02.1-.04.16-.04ZM141.54 108.23h-.1a.624.624 0 0 1-.53-.34c-.24-.46.13-1.19.24-1.41.47-.83 1.15-.98 1.61-.92.26-.25.52-.31.7-.3.19 0 .36.08.49.16a.8.8 0 0 1 .38-.19c.57-.15 1.15.27 1.21.31.14.1.19.29.12.45-.52 1.16-1.06 1.76-1.64 1.83-.2.02-.37-.02-.49-.08-.21.16-.5.32-.79.19-.1-.04-.17-.1-.23-.17-.25.25-.59.47-.98.47Zm.26-1.39c-.15.27-.26.61-.23.72.23-.03.63-.51.78-.77.09-.14.26-.22.42-.17.16.05.27.2.27.36 0 .06 0 .13.01.19.05-.03.11-.09.19-.17.07-.08.19-.13.29-.11.11 0 .21.06.27.14 0 0 .05.06.15.05.1-.01.43-.14.9-1.09-.12-.05-.24-.08-.33-.05-.03 0-.1.03-.17.18-.06.12-.17.2-.3.21a.36.36 0 0 1-.33-.16c-.04-.05-.16-.18-.26-.18-.09.01-.17.07-.26.19-.1.13-.27.17-.42.12-.09-.03-.57-.15-.96.53ZM161.07 102.47c-.05 0-.11-.01-.16-.04a.368.368 0 0 1-.17-.49c1.09-2.24-.58-4.65-.59-4.68-.12-.17-.08-.4.09-.51.16-.12.4-.08.51.09.08.11 1.94 2.79.65 5.43-.06.13-.19.21-.33.21Z"
  />
  <path
    d="M166.12 101.41c-.16 0-.31-.11-.36-.27-.82-3.03-4.98-3.96-5.03-3.97a.361.361 0 0 1-.28-.44c.04-.2.23-.33.44-.28.19.04 4.65 1.03 5.58 4.5.05.2-.06.4-.26.45-.03 0-.06.01-.1.01ZM155.62 104a.37.37 0 0 1-.29-.14c-1.48-1.92-1.27-5.83-1.26-6 .01-.2.17-.39.39-.35.2.01.36.19.35.39 0 .04-.2 3.8 1.11 5.5.12.16.09.39-.07.52-.07.05-.15.08-.22.08ZM179.52 109.94c-.15 0-.29-.09-.35-.24-.59-1.66-2.53-3.43-2.55-3.45a.375.375 0 0 1-.03-.52c.14-.15.37-.16.52-.03.09.08 2.1 1.92 2.75 3.75.07.19-.03.4-.22.47-.04.01-.08.02-.12.02ZM174.62 125.73c-.15 0-.3-.1-.35-.25-1.2-3.55-6.72-10.05-6.77-10.11a.376.376 0 0 1 .04-.52c.15-.13.39-.11.52.04.23.27 5.67 6.67 6.91 10.36.07.19-.04.4-.23.47-.04.01-.08.02-.12.02ZM142.87 131.55c-.1 0-.19-.04-.26-.11a.374.374 0 0 1 0-.52c.34-.33 8.35-8.08 11.03-9.39.18-.09.4-.01.49.17.09.18.01.4-.17.49-2.57 1.26-10.75 9.17-10.84 9.25-.07.07-.16.1-.26.1ZM144.26 138.75a.3.3 0 0 1-.22-.08c-.85-.65-3.26-4.57-3.53-5.01-.11-.17-.05-.4.12-.51.17-.11.4-.05.51.12 1.04 1.7 2.79 4.38 3.35 4.81.16.12.19.36.07.52a.37.37 0 0 1-.29.14ZM163.39 60.97c-.12 0-.24-.06-.31-.17-.44-.67-3.31-1.3-5.22-1.54a.363.363 0 0 1-.31-.27c-.04-.14 0-.3.12-.39.1-.08 2.39-1.88 4.74-1.33 1.32.31 2.39 1.29 3.15 2.91.09.18 0 .4-.18.49a.37.37 0 0 1-.49-.18c-.67-1.41-1.56-2.26-2.65-2.51-1.25-.29-2.53.23-3.32.68 1.53.25 4.16.8 4.77 1.73a.37.37 0 0 1-.31.57Z"
  />
  <path
    d="M157.91 59.26c-.06 0-.12-.02-.18-.05-.03-.02-3.35-1.85-6.42-.4-.18.09-.4 0-.49-.18-.09-.18 0-.4.18-.49 3.42-1.62 6.95.35 7.1.43a.37.37 0 0 1-.18.69ZM165.36 70.95c-.13 0-.25-.07-.32-.18-.61-1.07.58-5.22.82-6.04.06-.19.26-.31.46-.25.19.06.31.26.25.46-.68 2.27-1.2 4.93-.89 5.46.1.18.04.4-.14.5-.06.03-.12.05-.18.05ZM169.28 68.72h-.08a.375.375 0 0 1-.29-.44c1.03-4.94-1.27-9.68-1.3-9.73a.36.36 0 0 1 .17-.49c.18-.09.4-.02.49.17.1.2 2.45 5.01 1.36 10.21-.04.17-.19.29-.36.29Z"
  />
  <path
    d="M167.96 58.25a.36.36 0 0 1-.36-.37c0-.16 0-4-3.93-5.48-3.94-1.49-6.71 1.76-6.73 1.79-.13.16-.36.18-.52.05a.367.367 0 0 1-.05-.52c.03-.04 3.13-3.68 7.56-2.01 4.42 1.67 4.41 6.13 4.41 6.18 0 .2-.17.36-.37.36ZM145.14 71.64c-.17 0-.33-.12-.36-.3-.06-.35-1.55-8.51-.6-11.24.07-.19.28-.29.47-.23.19.07.29.28.23.47-.89 2.54.61 10.78.63 10.86.04.2-.1.39-.3.43h-.07Z"
  />
  <path
    d="M157.91 57.05a.34.34 0 0 1-.22-.07.376.376 0 0 1-.07-.52c.19-.25 1.92-2.48 3.33-2.48a.37.37 0 1 1 0 .74c-.79 0-2.1 1.34-2.74 2.19-.07.1-.18.15-.29.15ZM191.18 46.18a.4.4 0 0 1-.23-.08l-14.9-11.51a.364.364 0 0 1-.08-.5l7.02-10.13c.06-.08.15-.14.24-.15.1-.01.2 0 .28.07l15.02 11.32c.16.12.19.34.08.5l-7.15 10.32c-.06.08-.15.14-.25.15h-.06Zm-14.39-11.95 14.31 11.06 6.72-9.71-14.43-10.87-6.61 9.53Z"
  />
  <path
    d="M196.9 94.27c-.16 0-.3-.1-.35-.25-.03-.08-2.82-8.05-8.16-7.19-.16.03-.33-.07-.4-.22-.28-.66-6.03-14.66-5.56-25.02-1.98 9.87-.69 14.6.46 18.81l.07.26c1.19 4.39 6.99 7.2 7.05 7.23.11.05.19.16.21.29.02.13-.03.25-.13.33-1.26 1.03-2.2 1.39-2.89 1.07-.74-.34-.78-1.31-.78-1.35-.48-1.79-.81-2-.84-2.02-.17.15-.52 1.46-.68 2.81-.02.15-.12.27-.26.31-.14.04-.3 0-.39-.12-1.36-1.67-2.71-1.63-4.26-1.6-2.4.06-5.11.12-8.04-6-4.77-9.95 10.39-40.74 11.04-42.04.09-.18.31-.25.49-.17.18.09.26.31.17.49-.16.32-15.65 31.77-11.04 41.4 2.73 5.7 5.09 5.64 7.36 5.58 1.43-.03 2.89-.07 4.31 1.27.18-1.17.5-2.31 1.06-2.6-1.33-1.23-2.57-2.82-3.08-4.7l-.07-.26c-1.26-4.63-2.69-9.87.07-21.61 2.77-11.78 4.66-15.35 4.74-15.5.09-.17.31-.24.48-.16.18.08.26.29.18.47-.01.03-1.21 3.03-3.98 14.17-2.35 9.42 3.99 25.82 4.9 28.09 4.36-.49 7.01 3.97 8.11 6.32.18-3.18-.02-11.19-5.4-19.81-7.1-11.38-.5-26.75-.43-26.91.08-.19.3-.27.49-.19.19.08.27.3.19.49-.07.15-6.51 15.17.38 26.22 7.07 11.34 5.38 21.68 5.36 21.78a.36.36 0 0 1-.33.3h-.03Zm-10.21-7.59c.15.38.3.86.45 1.44.01.09.04.64.36.78.16.07.62.14 1.66-.62-.55-.3-1.48-.84-2.48-1.6ZM169.7 61.01c-.16 0-.3-.1-.35-.26-2.69-8.41 8.58-23.5 9.06-24.14.12-.16.36-.19.52-.07.16.12.19.35.07.52-.12.15-11.51 15.42-8.94 23.47.06.19-.05.4-.24.46-.04.01-.07.02-.11.02Z"
  />
  <path
    d="M168.23 87.05c-.11 0-.21-.05-.29-.14-.13-.16-.1-.39.05-.52 3.47-2.81 2.75-8.25 2.74-8.3-.03-.2.11-.39.31-.42.19-.03.39.11.42.31.03.24.8 5.9-3 8.98a.34.34 0 0 1-.23.08ZM160.82 50.73a.37.37 0 0 1-.37-.34c-.46-5.08 14.97-15.93 15.63-16.39.17-.12.4-.08.51.09.12.17.08.4-.09.51-4.38 3.06-15.66 11.85-15.32 15.72.02.2-.13.38-.33.4h-.03ZM166.59 53a.37.37 0 0 1-.37-.34c-.42-4.95 8.27-10.42 8.64-10.65.17-.11.4-.06.51.12.11.17.05.4-.12.51-.09.05-8.68 5.46-8.3 9.96.02.2-.13.38-.34.4h-.03ZM197.69 31.75c-6.47 0-11.74-5.27-11.74-11.74s5.27-11.74 11.74-11.74 11.74 5.27 11.74 11.74-5.27 11.74-11.74 11.74Zm0-22.74c-6.07 0-11.01 4.94-11.01 11.01s4.94 11.01 11.01 11.01 11.01-4.94 11.01-11.01-4.94-11.01-11.01-11.01ZM192.22 87.69c-.2 0-.37-.17-.36-.38.07-3.09-1.3-5.79-2.87-8.92-1.32-2.61-2.81-5.56-3.85-9.39-2.32-8.51 3.46-24.21 3.71-24.87.07-.19.29-.29.47-.22.19.07.29.28.22.47-.06.16-5.94 16.14-3.69 24.42 1.02 3.76 2.5 6.68 3.79 9.25 1.62 3.22 3.02 5.99 2.95 9.27 0 .2-.17.36-.37.36Z"
  />
  <path
    d="M184.24 88.41a.36.36 0 0 1-.2-.06c-5.87-3.92-7.84-7.8-8.11-15.96-.26-7.92 8.84-30.18 9.23-31.12.08-.19.29-.28.48-.2.19.08.28.29.2.48-.09.23-9.43 23.05-9.17 30.81.26 7.88 2.15 11.61 7.79 15.37.17.11.22.34.1.51-.07.11-.19.16-.31.16ZM170.61 63.11c-.2 0-.36-.15-.37-.35-.25-5.71 9.89-24.3 10.32-25.08.1-.18.33-.24.5-.15.18.1.24.32.15.5-.1.19-10.47 19.2-10.23 24.7 0 .2-.15.38-.35.38h-.02ZM166.59 84.63c-.11 0-.21-.05-.29-.14a.367.367 0 0 1 .05-.52c1.09-.89 2.03-7.66 2.37-11.72.02-.2.17-.35.4-.34.2.02.35.2.34.4-.09 1.11-.95 10.85-2.64 12.23a.34.34 0 0 1-.23.08ZM164.4 51.25c-.18 0-.34-.13-.36-.31-.72-4.54 12.91-15.33 13.49-15.79.16-.12.39-.1.52.06s.1.39-.06.52c-3.86 3.04-13.76 11.68-13.22 15.1.03.2-.11.39-.31.42h-.06ZM178.257 31.175l2.305-3.183 15.317 11.088-2.304 3.184zM194.49 13.12c1.72 1.14 1.96 2.25 1.37 3.06-.38.53-.95.5-1.42.16-.37-.27-.45-.67-.17-1.21.41-.77.42-1.33.09-1.92l.12-.09Zm-3.33 4.91c.15.15.22.2.45.36.17.12.32.16.59.04 1.86-.81 4.75-2.31 7.42-3.8l.07.13c-2.66 2.01-4.74 3.51-6.47 4.73-.38.27-.47.37-.56.49-.1.13-.21.26-.25.44-.18.77-.39 1.44-.68 1.84-.4.55-1.09.81-1.81.28-.48-.35-.5-.77-.22-1.17.2-.28.5-.61.78-.9.23-.24.44-.48.58-.68.41-.56.49-.78-.03-1.71l.11-.07Zm6.32-6.87c1.72 1.14 1.97 2.26 1.39 3.07-.32.44-.91.57-1.38.23-.53-.38-.5-.75-.22-1.28.36-.69.46-1.34.09-1.92l.12-.09Zm2.6 2.74c1.11 1.27 1.57 2.56.93 3.45-.44.6-.99.66-1.44.33-.36-.26-.45-.59-.18-1.07.54-.93.82-1.86.57-2.67l.12-.04Zm-5.6 10.93c-.34.47-.78.41-1.48-.11-.35-.25-.37-.35-.16-.65l3.6-4.75 1.14-1.57c.26-.36.4-.63.53-.98h.16c.84 1 1.12 1.41 1.18 1.62l.85.62 2.24-3.07c.33-.46.49-.78.55-1.01l.15-.02c1.37 1.29 1.67 1.67 1.54 1.85-.1.13-.27.17-.68.02l-2.38 3.27.95.69c.92-.28 1.12-.27 1.22-.19.12.09.21.32.43 1.08.19.67.19.89.1 1.03-.09.12-.31.14-.71.05l-.93 1.27-2.77 4.03c-.6.83-1.61.65-2.5 0-.34-.24-.34-.29-.2-.64.19-.47.25-.97-.39-1.75l.09-.12c.46.35.81.61 1.29.9.26.15.41.17.69-.21l1.1-1.51-3.59-2.61-2.02 2.77Zm7.13-2.26 1.07-1.48-3.36-2.45c-.09.03-.2.02-.35 0l-.95 1.31 3.59 2.61Zm-4.96-.73 3.59 2.61 1.21-1.67-3.59-2.61-1.21 1.67Zm5.55-2.04c.84-.45 1.75-1.04 2.7-1.82.19-.14.36-.27.52-.52h.14c1.04 1.76 1.15 2.11 1.02 2.29-.11.16-.38.11-.8-.19-1.12.27-2.49.39-3.56.35l-.03-.11Z"
  />
</svg>
