<svg xmlns="http://www.w3.org/2000/svg" viewBox="0 0 320 320" opacity="0.6">
  <path
    d="m191.81,163.04c-.23,0-.44-.16-.49-.39-.1-.46-1.32-1.9-2.05-2.76-.89-1.06-1.24-1.48-1.34-1.77-.09-.27-.07-.71.01-1.96.11-1.77.3-4.74-.03-7.86-.38-3.62-.83-4.38-1.02-4.71-.08-.13-.16-.27-.18-.47-.03-.24.67-5.34.92-5.7.15-.23.46-.29.69-.14.2.14.27.39.18.61-.13.48-.81,4.69-.8,5.14,0-.01.03.02.05.06.24.42.75,1.28,1.16,5.11.34,3.21.15,6.23.04,8.03-.04.71-.09,1.44-.06,1.6.07.16.67.86,1.15,1.43,1.23,1.46,2.11,2.54,2.26,3.19.06.27-.11.54-.38.6-.04,0-.07.01-.11.01Z"
  />
  <path
    d="m153.42,181.05c-.24,0-.73-.25-3.04-2.57-1.18-1.18-2.63-2.73-2.85-3.38-.2-.59.15-4.93.99-14.71.45-5.21.91-10.59,1.03-13.15.25-5.4,1.14-21.61,1.41-22.56.24-.84,1.45-4.07,1.5-4.21.1-.26.39-.39.64-.29.26.1.39.38.29.64-.01.03-1.25,3.32-1.47,4.12-.21.86-1.07,15.88-1.37,22.34-.12,2.58-.58,7.98-1.03,13.19-.52,6.07-1.17,13.62-1.03,14.33.23.67,3.96,4.38,4.94,5.15.98-.71,4.67-3.93,4.93-5.6.1-.67.04-1.58-.05-2.95-.19-2.89-.51-7.72.04-17.32.82-14.19-.12-28.76-.34-29.56-.22-.42-1.32-3.36-1.44-3.7-.1-.26.04-.55.29-.64.26-.1.55.04.64.29.48,1.29,1.25,3.33,1.42,3.65.36.7,1.22,16.22.42,30.02-.55,9.53-.23,14.33-.04,17.2.1,1.49.16,2.4.04,3.17-.35,2.33-5.26,6.43-5.83,6.53-.03,0-.06,0-.09,0Z"
  />
  <path
    d="m142.82,118.05s-.03,0-.05,0c-.27-.03-.48-.27-.45-.55.1-1.06,2.02-3.67,2.4-4.19.17-.22.48-.27.7-.1.22.17.27.48.1.7-.88,1.18-2.15,3.11-2.21,3.68-.03.26-.24.45-.5.45Z"
  />
  <path
    d="m181.23,170.95c-.35,0-1.46-.6-8.73-13.11-1.84-3.16-4.06-13.1-5.13-17.88-.21-.93-.36-1.61-.44-1.92-.21-.81-.71-3.51-1.24-6.38-.58-3.13-1.38-7.41-1.56-7.86-.38-.9-1.33-8.13-1.52-9.57-.04-.27.16-.52.43-.56.27-.03.52.16.56.43.43,3.28,1.2,8.72,1.45,9.31.21.51.76,3.38,1.62,8.06.53,2.84,1.03,5.53,1.23,6.31.08.32.24,1.01.45,1.95.97,4.36,3.25,14.56,5.02,17.59,2.57,4.43,6.55,10.92,7.78,12.39.6-.56,1.79-.84,3.15-1.1.36-.07.66-.13.83-.18.79-.26,3-.27,3.25-.27.28,0,.5.22.5.5s-.22.5-.5.5c-.88,0-2.45.06-2.93.22-.2.07-.54.14-.96.22-.64.13-2.6.51-2.74.96-.06.19-.27.37-.47.39-.02,0-.03,0-.05,0Z"
  />
  <path
    d="m176.29,163.63c-.2,0-.39-.12-.47-.32l-.66-1.7c-1.16-2.8-2.02-13.19-2.53-19.39-.19-2.32-.34-4.16-.43-4.62-.26-1.34-.19-9.12-.11-15.75,0-.79.02-1.33.02-1.51,0-.28.01-.88.03-1.63.03-1.6.09-4.8.02-5.64-.48-.13-1.9-.23-3.08-.26-.16,0-.32-.09-.41-.22-.09-.14-.11-.31-.05-.46l.73-1.79c-.83-.97-2.18-1.12-3.37-1.25-.38-.04-.74-.08-1.07-.14-1.64-.32-2.79-2.2-2.84-2.28-.14-.24-.07-.54.17-.69.24-.14.54-.07.69.17,0,.02.97,1.58,2.17,1.81.3.06.63.09.99.13,1.41.16,3.17.35,4.24,1.88.1.14.12.32.05.48l-.56,1.39c2.94.11,3.12.47,3.24.7.14.28.18,1.26.08,6.2-.01.74-.03,1.33-.03,1.61,0,.18,0,.73-.02,1.53-.04,3.5-.18,14.13.09,15.55.1.52.24,2.28.44,4.73.5,6.15,1.35,16.44,2.46,19.1l.67,1.71c.1.26-.03.55-.28.65-.06.02-.12.03-.18.03Zm-4-50.52h0Z"
  />
  <path
    d="m137.53,121.8c-.13,0-.26-.05-.35-.15-.89-.89-.97-2.1-.88-2.61.02-.1.06-.38.32-.5.27-.17,4.34-2.94,5.28-3.92,1.17-1.22,2.48-1.13,2.53-1.12.28.02.48.26.46.54-.02.27-.28.48-.53.46-.05,0-.91-.04-1.73.82-.92.96-4.43,3.39-5.35,3.99-.02.3.04,1.07.61,1.65.2.2.2.51,0,.71-.1.1-.23.15-.35.15Z"
  />
  <path
    d="m136.53,166.47c-.18,0-.35-.09-.44-.26-.69-1.25-1.55-10.77-1.47-16.17.09-5.58-.59-12.4-.78-13.31-.1-.46-.54-3.8-.84-7.1-.62-6.84-.09-6.97.42-7.09.76-.18,4.01-1.55,5.2-2.06.25-.11.55,0,.66.26.11.25,0,.55-.26.66-.17.07-3.97,1.71-5.2,2.07-.46,1.45.74,11.84,1,13.06.2.93.89,7.89.8,13.53-.09,5.79.83,14.74,1.34,15.67.13.24.05.55-.2.68-.08.04-.16.06-.24.06Z"
  />
  <path
    d="m125.99,143.7c-.1,0-.2-.03-.29-.09-.22-.16-.27-.47-.11-.7.35-.71.39-7.24.42-10.38.01-1.45.02-2.59.04-3.05.09-1.62-.55-10.49-.56-10.58-.01-.15.04-.29.15-.4.83-.8,2.3-.87,4-.94,1.58-.07,3.37-.14,4.9-.83,3.25-1.44,7.03-2.26,7.19-2.3.27-.06.54.11.59.38.06.27-.11.54-.38.59-.04,0-3.84.84-6.99,2.23-1.71.76-3.6.84-5.27.91-1.36.06-2.55.11-3.18.52.11,1.52.62,8.91.54,10.45-.02.44-.03,1.57-.04,3.01-.06,7.83-.2,10.39-.61,10.96-.1.13-.25.21-.41.21Z"
  />
  <path
    d="m125.99,152.63c-.11,0-.22-.04-.31-.11-.87-.68-1.44-3.94-1.11-6.34.33-2.41,3.7-9.17,3.85-9.46.12-.25.43-.35.67-.22.25.12.35.42.22.67-.03.07-3.44,6.9-3.75,9.15-.33,2.43.36,5.12.74,5.42.22.17.25.48.08.7-.1.13-.25.19-.39.19Z"
  />
  <path
    d="m124.79,162.44c-.09,0-.18-.02-.26-.07-.21-.12-.29-.38-.21-.6.03-.19.09-.99.14-1.76.19-2.87.4-5.53.79-6.54.55-1.4,1.68-9.16,1.73-9.68.02-.27.27-.49.52-.46.27.01.48.23.48.49,0,.35-1.18,8.46-1.8,10.02-.37.95-.59,4.26-.73,6.24-.12,1.79-.14,1.95-.24,2.12-.09.16-.26.24-.43.24Z"
  />
  <path
    d="m121.92,180.13c-.37,0-1.14-.41-3.28-3.95-.46-.18-.74-.79-.88-1.22-.64-.3-.94-.97-1.07-1.39-.54-.25-.89-1.03-1.08-1.6-.21-.04-.37-.14-.48-.24-.49-.43-.55-1.24-.55-1.58-.54-1.11-3.33-5.36-5.03-7.8-1.51-2.17-3.02-5.47-3.29-6.08-1.22-1.18-1.75-4.32-1.75-4.5,0-.27-.12-.56-.26-.92-.24-.61-.54-1.36-.57-2.53-.05-1.88,1.68-2.66,2.42-2.99.12-.05.22-.1.28-.13.39-.31,2.65-3.68,3.5-5.02.54-.86,5.91-5.39,7.39-6.63.04-1.62.45-2.79,1.24-3.48.44-.39.91-.54,1.26-.6.17-.9,1.01-2.02,1.54-2.66-.07-.42-.19-1.3-.15-1.9.04-.58.69-1.84,1.69-3.7.32-.6.62-1.17.82-1.57.66-1.36,1.92-1.41,2.49-1.23.26.08.42.36.34.62-.08.26-.35.42-.62.34-.15-.04-.88-.19-1.31.71-.2.42-.51.99-.84,1.61-.58,1.08-1.54,2.89-1.57,3.3-.04.67.18,1.88.18,1.89.03.15-.01.3-.11.42-.86,1-1.57,2.19-1.48,2.5.05.16.01.35-.1.47-.11.13-.27.2-.44.18-.02,0-.56-.05-1.05.39-.58.52-.89,1.54-.89,2.95,0,.15-.07.29-.18.38-2.65,2.22-6.99,5.96-7.36,6.55-.03.05-3.15,4.94-3.83,5.35-.09.05-.22.11-.38.19-.9.4-1.86.93-1.83,2.06.03.99.28,1.63.5,2.19.17.43.33.84.33,1.29.03.43.66,3.1,1.5,3.83.05.05.1.11.13.17.02.04,1.67,3.74,3.24,6.01,1.55,2.24,4.7,6.99,5.17,8.07.03.07.04.14.04.22-.01.34.07.8.21.91,0,0,.03.02.11,0,.26-.05.51.11.58.36.16.59.46,1.22.63,1.31.26-.04.45.14.5.41,0,0,.16.89.7,1.03.17.04.31.18.36.35.09.32.25.67.35.79.16.02.3.1.38.24.9,1.5,2.07,3.2,2.55,3.59.22-.24.57-1,.72-1.34.18-.39.28-.62.4-.77.03-.04.1-.15.21-.32,3.24-5,5.93-8.05,8-9.12-3.08-2.66-6.38-5.41-6.86-5.62-.48-.14-.59-.66-.69-1.17-.19-.96-.44-1.52-1.5-1.52-.19-.01-.33-.08-.42-.22-.09-.14-.11-.32-.05-.47.03-.08.78-2.22-3.33-4.26-.64-.34-2.73-1.47-3.07-1.76-.21-.18-.23-.5-.05-.7.18-.21.5-.23.7-.05.19.16,1.61.95,2.88,1.63,3.64,1.8,4.01,3.86,3.93,4.88,1.48.25,1.74,1.55,1.89,2.28.03.16.07.36.11.46.92.46,5.2,4.11,7.74,6.31.14.12.2.31.16.49-.04.18-.18.32-.36.37-1.08.29-3.59,1.85-8.24,9.02-.13.2-.22.33-.25.38-.05.07-.18.36-.29.58-.48,1.06-.87,1.82-1.48,1.96-.04,0-.1.02-.16.02Z"
  />
  <path
    d="m188.32,115.23s-.05,0-.07,0c-.24-.03-.42-.24-.43-.47-.14-.49-1.74-3.2-3.3-4.55-.6-.52-.83-.49-.82-.49-.03.02-.08.14-.1.2-.05.12-.16.41-.49.43-.21.02-.4-.1-.5-.26-.06-.05-.53-.25-1.29-.18-1.11.09-8.88-1.18-10.4-1.54-1.16-.27-3.22.46-3.91.76-.25.11-.55,0-.66-.26-.11-.25,0-.55.26-.66.12-.05,2.83-1.22,4.54-.82,1.72.4,9.23,1.59,10.08,1.52.64-.06,1.24.02,1.67.21.12-.16.3-.31.56-.38.47-.12,1.02.11,1.71.7,1.58,1.36,3.74,4.68,3.64,5.35-.04.25-.25.43-.49.43Z"
  />
  <path
    d="m119.41,152.64c-1.12,0-3.44-1.45-6.77-3.61l-.81-.53c-2.36-1.52-6.25-.99-6.29-.98-.27.03-.53-.15-.57-.42-.04-.27.15-.53.42-.57.17-.02,4.29-.59,6.97,1.13l.81.53c1.79,1.16,5.54,3.62,6.24,3.45.78-.14.9-.23,2.11-2.36.05-.09.12-.16.21-.2,2.83-1.4,3.04-1.3,3.26-1.2.25.12.36.42.24.67-.09.19-.29.3-.48.29-.3.07-1.45.59-2.44,1.08-1.14,2-1.48,2.49-2.73,2.71-.06.01-.12.02-.19.02Z"
  />
  <path
    d="m119.27,154.66c-.27,0-.5-.22-.5-.49,0-.7-.15-1.48-.3-1.62-.23-.16-.28-.46-.13-.69.16-.23.47-.28.7-.13.64.43.72,1.84.72,2.43,0,.28-.22.5-.49.5h0Z"
  />
  <path
    d="m202.89,171.51c-.44,0-.81-.22-1.02-.62-.28-.53-.21-1.28.17-1.79.21-.28.48-.46.8-.53,0-.4.07-.92.39-1.3.12-.15.31-.31.6-.4.01-.54.21-1.2.83-1.55-.03-.73.22-1.74,1.31-2.1.06-.02.12-.03.19-.02.5-1.12,1.77-3.62,3.96-7.88.63-1.23,1.17-2.26,1.44-2.81,1.04-2.09,2.85-7.35,1.79-10.3-.92-2.53-10.46-11.81-14.05-15.17-.03-.03-.05-.05-.07-.09-3.17-4.72-4.42-4.62-4.43-4.62-.13.07-.24.06-.38,0-.14-.05-.2-.18-.25-.31-.86-2.41-2.79-2.85-2.88-2.87-.23-.05-.4-.26-.4-.49,0-.1.03-.19.08-.27-.04-.14-.17-.49-.65-1.21-.86-1.29-2.67-2.24-3.35-2.61-.18-.09-.29-.16-.33-.19-.22-.17-.26-.48-.1-.7.17-.22.47-.26.69-.11.04.02.11.06.21.11.74.39,2.72,1.44,3.72,2.93.57.85.78,1.36.82,1.7.75.29,2.17,1.07,2.99,3,.81.1,2.36,1.03,5.06,5.02.95.89,13.1,12.31,14.27,15.52,1.28,3.52-.95,9.33-1.83,11.09-.28.56-.81,1.59-1.45,2.83-1.42,2.76-3.77,7.31-4.08,8.16.08.32.19,1.04-.15,1.61-.14.24-.34.42-.59.54,0,.58-.19,1.32-.83,1.68,0,.42-.05,1.07-.42,1.54-.15.19-.35.34-.57.43-.02.38-.1.92-.44,1.31-.24.28-.58.44-.98.46-.02,0-.04,0-.05,0Zm.27-1.97c-.13,0-.24.05-.32.16-.16.21-.17.55-.08.72.04.07.08.09.14.08.15,0,.22-.06.26-.11.16-.19.2-.57.2-.83-.02,0-.05,0-.07,0-.05,0-.09-.01-.13-.01Zm1.15-1.74c-.22,0-.29.08-.32.11-.17.2-.17.64-.14.92.17-.02.24-.09.29-.16.16-.21.21-.58.2-.88-.01,0-.03,0-.04,0Zm.87-1.63c-.29.16-.35.49-.35.73.26-.14.34-.47.35-.73Zm.8-1.84c-.28.24-.33.61-.33.88.16-.05.22-.13.26-.18.11-.19.1-.48.07-.7Zm-15-45.87h0,0Z"
  />
  <path
    d="m201.2,176.33c-1.29,0-5.95-1.23-6.57-2.11-.16-.23-.11-.54.12-.7.22-.16.54-.11.7.12.41.47,4.33,1.59,5.5,1.7.18-.54.68-1.76,1.99-4.65.12-.25.41-.36.66-.25.25.11.36.41.25.66-.94,2.07-1.95,4.4-2.02,4.74,0,.19-.15.39-.39.47-.06.02-.14.03-.25.03Z"
  />
  <path
    d="m200.55,176.05c-.18,0-.35-.09-.44-.26-.03-.06-.05-.13-.06-.2-.16-.14-.58-.47-1.7-1.14-.04-.02-4.12-2.48-4.73-3.08-.31-.29-2.95-1.57-5.32-2.63-.18-.08-.3-.26-.3-.46,0-.99,1.92-3.14,1.94-3.16.47-.51,3.77-5.59,4.13-6.55.27-.71,1.3-2.14,2.42-3.67.32-.43.65-.88.7-.98.07-.19.06-1.12.05-1.79,0-.65-.02-1.38.02-2.02.06-1.06.93-1.88,1.68-2.4-.8-.25-1.78-.59-2.22-.91-.43-.31-1.51-1.9-3.77-5.35-.71-1.08-1.51-2.31-1.66-2.47-.14-.09-1.07-.37-1.68-.56-.59-.18-1.15-.35-1.5-.49-.65-.26-.78-1.16-.97-2.51-.17-1.2-.39-2.7-1.01-4.14-.72-1.68-1.06-4.15-1.38-6.53-.25-1.87-.51-3.79-.96-5.31-1.02-3.51-1.26-9.34-1.27-9.58-.01-.28.21-.51.48-.52.31.01.51.21.52.48,0,.06.24,5.95,1.23,9.34.46,1.59.73,3.55.99,5.45.31,2.32.64,4.71,1.31,6.27.67,1.56.91,3.19,1.08,4.39.1.71.23,1.6.39,1.75.27.11.83.28,1.38.44,1.25.38,1.82.57,2.06.78.15.13.43.53,1.82,2.66,1.17,1.79,3.14,4.78,3.53,5.1.45.33,2.09.83,3.02,1.07.21.05.35.23.37.44.02.21-.1.41-.29.5-.58.26-2.1,1.17-2.16,2.17-.04.6-.03,1.32-.02,1.95.01,1.27.01,1.94-.18,2.29-.08.15-.31.46-.77,1.09-.77,1.04-2.05,2.79-2.29,3.43-.41,1.07-3.77,6.26-4.33,6.87-.56.61-1.31,1.66-1.58,2.21,1.48.67,4.74,2.17,5.22,2.66.37.37,3.19,2.12,4.54,2.93,2.08,1.24,2.23,1.56,2.22,1.91,0,.18-.14.4-.3.49-.08.04-.16.06-.24.06Z"
  />
  <path
    d="m161.12,100.47c-.12,0-.24-.04-.33-.12l-.79-.69c-.21-.18-.23-.5-.05-.71.09-.11.23-.17.36-.17-.04-.85.12-1.77.27-2.5l.03-.16c0-.28.22-.47.5-.47s.5.25.5.53c0,.07-.01.13-.05.31-.34,1.58-.34,2.67-.02,3.23.12.21.07.48-.12.64-.09.08-.21.11-.32.11Z"
  />
  <path
    d="m149.95,105.46s-.03,0-.05,0c-6.52-.62-6.63-.72-6.78-.86-.2-.19-.22-.5-.03-.71.15-.16.37-.2.56-.12.44.1,3.56.43,6.34.69.28.03.48.27.45.54-.02.26-.24.45-.5.45Z"
  />
  <path
    d="m151.43,105.46c-.15,0-.3-.07-.4-.19-.17-.22-.13-.53.09-.7,4.64-3.59,4.9-3.64,5.04-3.66.28-.05.53.14.58.41.04.24-.1.48-.33.55-.37.2-2.67,1.93-4.68,3.49-.09.07-.2.1-.31.1Z"
  />
  <path
    d="m151.71,111.57s-.06,0-.08,0c-1.54-.26-2.96-1.75-3.02-1.82-.19-.2-.18-.52.02-.71s.52-.18.71.02c.01.01,1.25,1.31,2.45,1.51.27.04.46.3.41.58-.04.25-.25.42-.49.42Z"
  />
  <path
    d="m153.84,114.68c-.12,0-.23-.04-.33-.12-.39-.27-5.25-2.39-8.21-3.67-.25-.11-.37-.4-.26-.66.11-.25.4-.37.66-.26,3,1.29,8.1,3.5,8.47,3.83.21.18.23.5.05.71-.1.11-.24.17-.38.17Z"
  />
  <path
    d="m149.44,123.7c-.17,0-.33-.09-.42-.24l-4.32-6.94c-.1-.16-.1-.36,0-.52h0s.22-.45.04-1.36c-.24-1.21-.02-4.57,0-4.71.02-.28.26-.5.53-.46.28.02.48.26.46.53-.06.93-.19,3.55,0,4.45.17.85.07,1.43-.04,1.76l3.69,5.93c.85-1.89,2.01-4.35,2.38-4.68.04-.07.15-.45.23-.73.25-.92.59-2.16,1.52-2.58.37-.65,1.78-3.03,3.65-4.52,1.82-1.45,3.37-3.56,3.66-3.95.09-.83-1.35-6.97-1.54-7.51-.04-.07-.14-.27.01-2.21.01-.16.1-.3.23-.38.13-.08.3-.1.45-.04.02,0,.57.2,1.02-.19.44-.38.72-2.66.82-3.52.03-.23.05-.42.07-.57.13-.88-.33-2.63-.9-3.03-.34-.24-1.31.09-1.87.43-.23.14-.54.06-.68-.18-.14-.24-.06-.54.18-.68.32-.18,1.95-1.08,2.95-.39.98.68,1.48,2.89,1.32,3.99-.02.15-.04.33-.07.55-.23,1.85-.48,3.56-1.16,4.15-.48.41-1,.49-1.4.48-.04.58-.05,1.13-.03,1.27h0s1.91,7.33,1.51,8.25c-.01.03-.03.06-.05.09-.07.1-1.78,2.53-3.9,4.22-1.98,1.58-3.47,4.35-3.49,4.38-.06.12-.17.21-.3.24-.55.16-.85,1.25-1.04,1.96-.16.58-.27.99-.53,1.22-.25.29-1.48,2.87-2.52,5.2-.08.17-.24.28-.42.3-.01,0-.02,0-.03,0Z"
  />
  <path
    d="m160.19,121.43c-.59,0-1.28-.75-3.09-2.88-1.19-1.4-2.68-3.15-3.48-3.55-.25-.12-.35-.42-.22-.67.12-.25.42-.35.67-.22.99.49,2.42,2.17,3.8,3.8.73.86,1.69,1.99,2.18,2.4.68-1.39,2.45-5.31,2.57-6.03-.08-.3-.11-.94-.17-2.72-.05-1.65-.12-3.7-.29-4.53-.26-1.26-.89-1.58-.92-1.59-.24-.12-.36-.41-.25-.66.11-.25.39-.36.64-.26.12.05,1.13.52,1.5,2.3.19.92.25,2.93.31,4.7.03,1.07.07,2.28.13,2.49.36.72-2.77,7.01-2.81,7.07-.1.2-.29.32-.5.35-.03,0-.05,0-.08,0Z"
  />
  <path
    d="m138.91,74.91s-.02,0-.03,0c-.28-.01-.49-.25-.47-.53,0-.17.24-4.18,2.31-5.89.75-.62,1.64-.87,2.66-.73,3.96.54,5.72,3.58,6.01,4.13l.92.93c.19.2.19.51,0,.71-.19.2-.51.19-.71,0l-.97-.98s-.07-.08-.09-.13c-.06-.13-1.57-3.15-5.29-3.66-.73-.1-1.35.07-1.88.51-1.73,1.43-1.95,5.13-1.95,5.17-.01.27-.23.47-.5.47Z"
  />
  <path
    d="m140.45,78.99c-.22,0-.42-.14-.48-.36-.87-2.13-.39-3.94,1.3-5.18,2.64-1.92,4.41-2.03,4.48-2.04.29-.02.51.2.53.47.02.28-.2.51-.47.53-.01,0-1.58.13-3.95,1.85-1.33.96-1.66,2.28-.99,3.93.04.09.06.16.07.19.06.27-.11.54-.38.6-.04,0-.07.01-.11.01Z"
  />
  <path
    d="m141.56,78.2c-.2,0-.4-.13-.47-.33-.02-.05-.43-1.23.2-2.42.48-.91,1.41-1.56,2.76-1.93.27-.07.54.09.61.35.07.27-.08.54-.35.61-1.07.29-1.79.77-2.13,1.42-.42.8-.15,1.63-.15,1.64.09.26-.05.54-.31.64-.05.02-.11.03-.17.03Z"
  />
  <path
    d="m142.91,77.88c-.13,0-.26-.05-.36-.15-.17-.18-.19-.45-.05-.64l.05-.1c1-2.06,2.6-2.97,4.75-2.7.27.03.47.28.43.56-.03.28-.29.47-.56.43-2.54-.33-3.44,1.53-3.73,2.14-.07.15-.11.23-.19.31-.1.1-.22.14-.35.14Z"
  />
  <path
    d="m145.12,77.39c-.21,0-.4-.13-.47-.34-.08-.25.04-.52.29-.62.03-.02.08-.04.13-.08.56-.34,2.06-1.24,3.51-.76.26.09.41.37.32.63-.09.26-.37.4-.63.32-1.02-.34-2.23.39-2.69.67-.14.09-.22.13-.3.16-.05.02-.11.03-.16.03Z"
  />
  <path
    d="m134.15,89.55c-.27,0-.49-.21-.5-.48,0-.13-.04-1.27.16-1.94,0,0,0,0,0,0-.02,0-.09-.14-.14-.25-.39-.8-1.11-2.29-.09-5.84.38-1.34,1.09-2.22,2.1-2.63,1.89-.76,4.1.51,4.19.57.24.14.32.44.18.68-.14.24-.45.32-.68.18-.02-.01-1.88-1.08-3.32-.5-.71.28-1.21.95-1.51,1.97-.91,3.18-.3,4.45.03,5.13.16.32.31.63.2.98-.13.42-.13,1.3-.12,1.6.01.28-.21.51-.48.52h-.02Z"
  />
  <path
    d="m135.83,89.33c-.13,0-.24-.04-.33-.1-.23-.15-.29-.46-.14-.69.04-.06.09-.11.15-.15.01-.28-.04-1.06-.54-3.07-.9-3.6,1.93-5.33,3.56-5.74.27-.07.54.09.61.36.07.27-.09.54-.36.61-.15.04-3.72,1-2.83,4.53.85,3.38.6,3.89.24,4.14-.11.08-.23.11-.35.11Z"
  />
  <path
    d="m133.92,86.53h0c-.28,0-.5-.23-.5-.5,0-.01,0-1.5-.48-2.83-.08-.2-.14-.35-.19-.47-.29-.66-.22-.82.15-1.71.19-.44.47-1.11.87-2.2.48-1.31,1.22-2.15,2.21-2.49,1.51-.53,2.99.35,3.06.38.24.14.31.45.17.68-.14.24-.45.31-.69.17-.01,0-1.15-.67-2.22-.29-.69.24-1.22.88-1.59,1.89-.41,1.11-.7,1.79-.88,2.24q-.27.65-.16.92c.06.13.13.29.21.52.55,1.51.54,3.11.54,3.18,0,.27-.23.5-.5.5Z"
  />
  <path
    d="m156.95,120.83h-3.85c-.35,0-.49,0-1.39-2.41-.1-.26.03-.55.29-.64.26-.1.55.03.64.29.25.65.56,1.41.72,1.76h3.31c.3-.47.55-.95.61-1.15-.05-.18.01-.38.16-.5.21-.18.53-.15.71.06.18.21.44.52-.79,2.37-.09.14-.25.22-.42.22Z"
  />
  <path
    d="m137.12,169.75c-.08,0-.16-.02-.24-.06-1.47-.79-.68-3.44-.35-4.35-.5-1.23-.06-3.81.7-7.79.49-2.56.99-5.21.88-6.63-.21-2.53.5-6.39.93-8.7.14-.76.26-1.42.27-1.64.03-.58.67-3.77,1.52-7.88.35-1.7.68-3.31.71-3.55.03-.22.21-1.2.43-2.47.43-2.39,1.23-6.85,1.23-7.39,0-.94,1-3.09,1.11-3.34.12-.25.41-.36.67-.24.25.12.36.42.24.67-.39.84-1.02,2.37-1.02,2.91,0,.58-.56,3.77-1.25,7.57-.22,1.25-.4,2.21-.43,2.42-.03.26-.28,1.48-.72,3.62-.59,2.86-1.47,7.18-1.5,7.72-.01.28-.12.88-.29,1.77-.42,2.26-1.11,6.04-.92,8.44.13,1.56-.37,4.16-.89,6.9-.55,2.88-1.23,6.45-.71,7.32.08.13.09.29.04.44-.46,1.19-.78,3-.18,3.31.24.13.33.43.2.68-.09.17-.26.26-.44.26Z"
  />
  <path
    d="m138.41,91.81c-1.18,0-2.11-.77-3.41-3.37-.11-.23-.04-.51.18-.64.15-.09,3.58-2.26,7.48-2.44.3-.13,1.25-.5,1.87-.62.59-.57,3.14-2.75,7.71-3.09.13,0,.25.03.35.11l7,5.66c.21.17.25.49.07.7-.17.21-.49.25-.7.07l-5.97-4.83c.09.98.09,2.38-.54,2.88l-.19.15c-.87.72-2.91,2.4-5.86,1.9-.04,0-.07-.02-.1-.03-.25-.1-1.33-.56-1.92-1.19l-.37.17c.09,1.23-.36,3.2-2.68,3.84-.36.1-.68.2-.98.3-.75.24-1.37.41-1.94.41Zm-2.3-3.4c1.47,2.82,2.04,2.64,3.94,2.04.31-.1.64-.2,1.01-.3,2.34-.65,1.93-2.98,1.91-3.08-.04-.22.07-.45.28-.54l1.07-.51c.12-.06.26-.07.38-.02.12.04.23.14.28.26.16.34,1.05.83,1.63,1.08,2.46.4,4.24-1.07,4.99-1.69l.21-.17c.21-.19.26-1.45.09-2.59,0-.06,0-.13,0-.19-4.5.45-6.77,2.84-6.79,2.87-.08.09-.2.15-.32.16-.38.03-1.33.39-1.84.6-.06.02-.12.04-.18.04-2.93.11-5.69,1.5-6.68,2.05Z"
  />
  <path
    d="m143.28,88.3s-.05,0-.08,0c-.27-.04-.46-.3-.42-.57.14-.89-.31-1.03-.46-1.06-.27-.04-.46-.29-.42-.56s.27-.46.55-.43c.06,0,.62.09,1.01.6.31.41.41.95.31,1.6-.04.25-.25.42-.49.42Z"
  />
  <path
    d="m145.81,87.98c-.09,0-.18-.02-.26-.06-.11-.06-.19-.15-.24-.25-.08-.06-.19-.15-.35-.28-1.16-.89-.07-2.85.06-3.07.14-.24.45-.32.68-.18.24.14.32.44.18.68-.28.49-.66,1.5-.31,1.77.62.48.96.74.69,1.16-.09.15-.28.22-.46.22Z"
  />
  <path
    d="m137.33,95.48c-.17,0-.34-.09-.44-.24-.06-.09-.23-.35-1.92-6.91-.07-.27.09-.54.36-.61.27-.07.54.09.61.36.61,2.37,1.64,6.28,1.81,6.65.15.23.08.52-.15.67-.08.05-.17.08-.26.08Z"
  />
  <path
    d="m158.85,93.57c-.25,0-.46-.18-.5-.43-.02-.17-.04-.35-.07-.53-.37-1.71-2.22-6.04-2.47-6.51-.15-.23-.08-.53.15-.68s.55-.08.7.16c.07.1.73,1.58,1.38,3.23.03-.62.13-1.08.32-1.29.13-.15.32-.22.51-.21.28.01.49.25.47.53,0,.17-.11.32-.24.4-.14.53-.03,2.49.18,4.29.04.21.06.4.06.54,0,.26-.2.48-.47.5-.01,0-.02,0-.03,0Z"
  />
  <path
    d="m142.91,104.73c-.09,0-.17-.02-.24-.04-.58-.23-3.03-2.42-3.87-3.98-.41-.77-2.44-5.7-2.08-6.37.13-.24.44-.33.68-.2.19.1.29.32.25.53.06.62,1.3,4.2,2.03,5.58.71,1.33,2.78,3.17,3.29,3.48.37-.08,1.55-.59,2.5-1,1.64-.71,3.51-1.52,4.53-1.68,1.21-.19,3.13-.68,4.54-1.04.68-.17,1.25-.32,1.6-.39.98-.21,1.98-.77,1.99-.78.24-.14.55-.05.68.19.13.24.05.55-.19.68-.05.03-1.14.64-2.27.88-.34.07-.9.22-1.56.39-1.42.36-3.38.86-4.63,1.05-.9.14-2.78.95-4.29,1.61-1.86.81-2.56,1.09-2.96,1.09Zm0-1h0Z"
  />
  <path
    d="m145.78,110.93c-.21,0-.41-.13-.48-.35,0-.01-.38-1.16-1.75-3.71l-1.41-2.64c-.13-.24-.04-.55.2-.68.24-.13.55-.04.68.2l1.41,2.64c1.42,2.65,1.8,3.83,1.82,3.88.08.26-.06.54-.32.63-.05.02-.1.02-.15.02Z"
  />
  <path
    d="m136.75,89.96c-.07,0-.13-.01-.2-.04-.25-.11-.37-.4-.26-.66.12-.29.06-1.09-.03-1.53-.05-.27.12-.53.4-.59.27-.06.53.12.59.39.05.23.26,1.44-.03,2.12-.08.19-.27.3-.46.3Z"
  />
  <path
    d="m136.74,87.49c-.25,0-.47-.19-.5-.44-.04-.38-.38-3.73.63-5.18.55-.78,3.4-4.69,5.96-4.75.61-.01,1.25-.19,1.86-.35,1.4-.38,2.99-.81,4.37.71.18.2.17.52-.04.71-.21.18-.52.17-.71-.04-.92-1.01-1.88-.81-3.36-.41-.67.18-1.37.37-2.1.39-1.72.04-4.06,2.74-5.16,4.32-.68.97-.56,3.58-.46,4.5.03.27-.17.52-.44.55-.02,0-.04,0-.06,0Z"
  />
  <path
    d="m151.85,82.65c-.07,0-.13-.01-.2-.04-.89-.38-2.47-1.53-2.8-3.43-.26-1.5-1.75-5.9-3.76-7.37-.52-.38-1.18-.48-1.96-.28-1.62.4-3.23,1.92-3.67,2.83-.56,1.15.29,3.45.66,4.24.12.25.01.55-.24.67-.25.12-.55.01-.67-.24-.16-.33-1.52-3.32-.65-5.11.61-1.26,2.5-2.91,4.33-3.36,1.07-.26,2.03-.11,2.79.45,2.4,1.76,3.91,6.55,4.16,8,.25,1.48,1.51,2.38,2.21,2.68.25.11.37.4.26.66-.08.19-.27.3-.46.3Z"
  />
  <path
    d="m138.59,101.17c-.46,0-.87-.51-1.5-1.61.08.33.16.66.25.98.06.23-.05.48-.27.58-.22.1-.48.04-.62-.16,0,0-.52-.73-1.37-1.67-1.02-1.12-1.3-4.75-.99-5.92.14-.55-.18-1.92-.38-2.73-.17-.69-.24-1.02-.2-1.24-.04-.13-.16-.38-.25-.59-.3-.65-.74-1.64-.94-2.67-.16-.82-.07-1.22.02-1.61.1-.44.21-.93-.11-2.48-.59-2.85,1.61-4.94,2.93-6.2.15-.14.29-.27.41-.39,1.09-1.09,2.5-.77,3.09-.46.24.13.34.43.21.68-.13.24-.43.33-.67.21-.05-.03-1.09-.54-1.92.28-.12.12-.27.26-.42.41-1.24,1.18-3.12,2.96-2.64,5.27.37,1.76.22,2.39.11,2.9-.08.34-.13.58-.01,1.19.18.91.58,1.8.87,2.45.27.59.42.92.33,1.2.02.16.11.52.18.81.32,1.33.56,2.49.37,3.22-.27,1.04.06,4.22.77,5l.04.04c-.15-.71-.25-1.35-.2-1.64.04-.21.23-.42.44-.46.45-.08.62.23,1.32,1.53.2.37.49.9.76,1.35.03-.1.1-.18.19-.25.23-.16.54-.1.7.13.12.17.49.77.31,1.3-.09.26-.29.44-.57.53-.07.02-.13.03-.2.03Z"
  />
  <path
    d="m140.47,103.58c-.34,0-.62-.1-.85-.29-.63-.53-.46-1.51-.44-1.62.05-.27.32-.45.58-.4.27.05.45.31.4.58-.04.21-.02.56.1.67.09.07.35.09.81-.08.26-.1.55.03.64.29.1.26-.03.55-.29.64-.35.13-.67.2-.95.2Z"
  />
  <path
    d="m160.22,94.32c-.11,0-.22-.03-.33-.08-.83-.42-.64-3.29-.6-3.44-.03-.14-.42-.84-.85-1.45-.16-.23-.11-.54.12-.7.22-.16.54-.11.7.12.08.11.15.22.22.33-.04-.08-.07-.16-.07-.26,0-.28.22-.5.5-.5.68,0,1.25.46,1.5,1.23.24.72.19,1.72-.39,2.15-.02.07-.05.4.15,1.37.06.32.14.71-.27.86-.03.01-.06.02-.09.02-.04.06-.08.11-.13.15-.14.13-.3.2-.48.2Zm-.71-5.19c.59.89.84,1.52.76,1.89,0,.02,0,.04-.01.07.05-.07.11-.12.17-.18.09-.07.2-.53.04-1.03-.07-.21-.23-.55-.55-.55-.17,0-.31-.08-.41-.21Z"
  />
  <path
    d="m145.6,82.39l-.41-.91c.48-.22,2.99-1.26,5.35-.55.26.08.42.36.34.62-.08.26-.35.41-.62.34-2.02-.6-4.23.32-4.66.51Zm-.21-.45h0,0Z"
  />
  <path
    d="m137.29,87.23c-.13,0-.27-.05-.37-.16-.24-.25-.16-.59.05-1.04.6-1.34,1.98-2.86,3.86-2.85.28,0,.5.23.49.51,0,.27-.23.49-.5.49-.01,0-.04,0-.05,0-1.8,0-2.86,2.03-2.98,2.51.01.15-.04.3-.16.41-.1.09-.22.13-.34.13Z"
  />
  <path
    d="m163.34,93.71c-.3,0-.68-.26-1.23-.65-.23-.16-.28-.47-.13-.7.12-.17.33-.25.53-.2-.22-1.39-.23-3.44.17-3.91.2-.24.53-.29.79-.13.07.04.13.1.17.18.24.42.51.88.75,1.28-.1-.73-.27-1.68-.51-2.74-.5-2.22-2.32-3.48-2.34-3.49-.09-.06-.16-.16-.2-.26l-.43-1.37c-.38-1.21-3.99-4.42-4.76-4.7l-.31-.11c-.98-.32-2.62-.87-7.42-4.16-2.61-1.79-4.27-1.97-5.19-1.8-.87.16-1.24.65-1.25.65-.16.23-.47.29-.69.13-.23-.16-.29-.47-.13-.69.06-.08.61-.84,1.89-1.07,1.61-.29,3.62.37,5.94,1.96,4.68,3.21,6.23,3.72,7.16,4.03.12.04.23.08.34.12,1,.36,4.89,3.79,5.37,5.34l.38,1.21c.5.38,2.1,1.75,2.61,3.99.17.74.98,4.44.53,4.99-.1.12-.26.2-.41.2h0c-.27,0-.43,0-1.6-2-.02,1.06.1,2.62.29,2.95.33.37.16.66.06.76-.11.12-.23.18-.37.18Z"
  />
  <path
    d="m159.06,88.14c-.09,0-.19-.03-.27-.08-6.27-4.11-6.35-4.23-6.42-4.33-.15-.23-.09-.54.14-.69.2-.13.46-.1.63.06.35.28,3.97,2.67,6.2,4.13.23.15.29.46.14.69-.1.15-.26.23-.42.23Z"
  />
  <path
    d="m147.68,86.12c-.13,0-.26-.05-.35-.15-.19-.2-.19-.51,0-.71.05-.05,1.25-1.28,2.72-1.23.72,0,1.37.3,1.93.87.19.2.19.51,0,.71-.2.2-.51.19-.71,0-.37-.38-.77-.56-1.22-.57-1.04-.04-2,.93-2.01.94-.1.1-.22.14-.35.14Z"
  />
  <path
    d="m138.64,90.33s-.06,0-.08,0c-.27-.05-.45-.3-.41-.57,0-.05.23-1.33,1.35-2.02.8-.5,1.83-.56,3.05-.18.26.08.41.36.33.62s-.37.41-.62.33c-.93-.29-1.67-.26-2.22.07-.73.45-.89,1.33-.89,1.34-.04.24-.25.42-.49.42Z"
  />
  <path
    d="m149.55,86.35c-.35,0-.89-.17-1.3-1.07-.11-.25,0-.55.25-.66.25-.11.55,0,.66.25.18.39.33.49.4.48.12-.03.34-.32.34-.79,0-.27.23-.5.5-.5h0c.28,0,.5.23.5.5,0,.88-.49,1.62-1.14,1.75-.06.01-.13.02-.22.02Z"
  />
  <path
    d="m140.91,89.55c-.76,0-1.48-.84-1.63-1.03-.17-.21-.14-.53.08-.7.21-.17.53-.14.7.08.3.38.73.68.85.66,0,0,.09-.08.16-.44.05-.27.32-.45.59-.39.27.05.45.32.39.59-.13.69-.44,1.1-.91,1.22-.08.02-.16.03-.24.03Z"
  />
  <path
    d="m144.53,92.69c-.19,0-.38-.11-.46-.3-.04-.08-.12-.27-.42-.16-.26.1-.55-.02-.65-.27-.11-.25,0-.54.26-.65.48-.21,1.34-.21,1.72.67.11.25,0,.55-.26.66-.07.03-.13.04-.2.04Z"
  />
  <path
    d="m147.03,92.45c-.12,0-.25-.05-.35-.14-.2-.19-.2-.51-.01-.71.01-.03,0-.11-.02-.19-.05-.01-.09,0-.1,0-.14.04-.29.24-.32.31-.12.25-.43.35-.67.22-.25-.12-.35-.42-.22-.67.03-.07.34-.65.93-.82.23-.07.6-.1,1.02.15.08.04.14.11.18.19.19.33.38,1.03-.08,1.51-.1.1-.23.15-.36.15Z"
  />
  <path
    d="m143.46,98.48c-.28,0-.5-.22-.5-.5s.22-.5.49-.5c.02,0,.05,0,.07,0,.13-.5.67-1.55,2.79-2.28,1.47-.5,2.7-.33,3.43-.23.19.03.42.06.49.05.2-.11.37-.33.37-.33.16-.22.48-.27.7-.11.22.16.27.47.12.69-.03.04-.32.43-.8.67-.27.12-.56.08-1.01.02-.68-.1-1.72-.24-2.97.19-1.86.63-2.12,1.46-2.15,1.62-.11.5-.59.72-1.02.72Z"
  />
  <path
    d="m136.53,168.49c-.11,0-.22-.04-.3-.1-.47-.08-2.38-.01-3.98.1-.25.01-.51-.19-.54-.46-.02-.28.19-.51.46-.54,4.78-.35,4.81-.05,4.86.45.03.28-.18.52-.45.54-.02,0-.03,0-.05,0Zm-.5-.45h0s0,0,0,0Zm0,0h0Zm0,0h0s0,0,0,0Z"
  />
  <path
    d="m137.65,185.23c-.64,0-1.33-.59-2.09-1.3-.16-.15-.29-.27-.36-.33-.17-.06-.53-.37-2.2-1.93-.76-.71-1.54-1.44-1.83-1.66-.63-.48-1.63-1.15-2.83-1.56-1.32-.46-3.5-2.89-3.74-3.16-.18-.21-.16-.52.04-.71.21-.18.52-.17.71.04.62.69,2.41,2.56,3.33,2.88,1.32.46,2.42,1.19,3.1,1.71.33.25,1.09.96,1.9,1.72.75.7,1.77,1.65,1.97,1.78.12.04.26.17.59.48.25.24.99.92,1.33,1.02-.06-.3-.49-1.43-3.46-4.9l-.13-.16c-.54-.64-.26-1.28.05-1.56.21-.18.52-.17.71.04.18.21.17.52-.04.71-.02.02-.05.05.05.17l.13.15c3.77,4.4,3.95,5.54,3.57,6.12-.16.24-.4.4-.67.43-.04,0-.08,0-.13,0Z"
  />
  <path
    d="m141.11,181.69c-.9,0-3.95-1.74-4.42-2.06-.75-.52-3.14-1.41-3.48-1.46-.28,0-.49-.22-.49-.5s.24-.5.51-.5c.5,0,3.19,1.05,4.03,1.63.83.57,3.37,1.86,3.83,1.89.08-.01.24-.02.41-.02.2,0,.66,0,.77-.09-.12-.44-1.61-1.77-2.7-2.06-.84-.22-1.94-1.08-3.09-2.01-.27-.22-.58-.47-.67-.52-.23-.13-.34-.43-.22-.67.12-.24.39-.35.63-.24.17.07.38.24.88.65.75.61,2,1.63,2.71,1.82,1.28.34,3.23,1.86,3.39,2.9.06.38-.07.63-.19.77-.35.42-1,.43-1.51.44-.13,0-.25,0-.33.01-.02,0-.04,0-.07,0Z"
  />
  <path
    d="m143.66,179.15c-.49,0-.96-.23-1.17-.35-.15-.09-1.01-.47-1.63-.75-.54-.24-1.04-.47-1.2-.55-.29-.15-3.47-1.56-4.67-2.09-.25-.11-.37-.41-.25-.66.11-.25.41-.37.66-.25.18.08,4.34,1.92,4.72,2.11.16.08.64.3,1.16.53.92.41,1.53.69,1.71.79.31.18.65.26.8.2.02,0,.08-.03.14-.19.12-.36-1.35-1.69-3.25-2.53-1.55-.69-3.67-1.95-4.11-2.39-.28-.28-1.07-.86-1.36-1.05-.23-.16-.28-.47-.12-.7.16-.22.47-.28.7-.12.11.08,1.1.78,1.49,1.17.3.3,2.24,1.5,3.8,2.18.04.02,4.39,1.99,3.79,3.76-.17.5-.49.71-.73.8-.16.06-.32.08-.48.08Z"
  />
  <path
    d="m138.08,173.44c-.25,0-.47-.19-.5-.44-.02-.18.06-.34.19-.45.03-.04.05-.1.09-.17.13-.27.31-.63.59-.95.36-.41,1.13-.38,3.08-.2.72.07,1.82.18,2.06.09,0,0,.02-.09,0-.18-.05-.3-.38-.67-.99-.83-.57-.15-1.71-.24-2.93-.33-1.58-.12-3.38-.26-4.62-.58-.27-.07-.43-.34-.36-.61.07-.27.34-.43.61-.36,1.16.3,2.91.43,4.45.55,1.31.1,2.45.19,3.1.36,1.12.29,1.62,1.03,1.72,1.63.08.49-.1.95-.47,1.2-.37.25-1.07.21-2.68.05-.76-.08-2.03-.2-2.3-.08-.12.17-.26.45-.38.68-.16.31-.29.58-.62.62-.02,0-.04,0-.06,0Z"
  />
  <path
    d="m179.67,174.72c-.1,0-.21-.03-.3-.1,0,0-.73-.54-2.2-1.23-.58-.27-1.69-.25-2.66-.23-1.52.03-2.97.06-3.29-.95-.12-.39-.21-.83.03-1.22.36-.57,1.14-.68,3.23-.97l.55-.08c2.28-.32,3.07-.07,3.83.18.35.11.68.22,1.17.27,1.51.18,3.66-.87,3.68-.88.25-.12.55-.02.67.23.12.25.02.55-.23.67-.1.05-2.43,1.17-4.23.97-.6-.07-1.01-.2-1.37-.31-.69-.22-1.34-.43-3.39-.14l-.55.08c-1.27.18-2.38.33-2.52.52,0,0-.02.08.08.39.09.29,1.59.26,2.31.25,1.14-.02,2.32-.05,3.11.33,1.57.74,2.34,1.31,2.37,1.33.22.17.27.48.1.7-.1.13-.25.2-.4.2Z"
  />
  <path
    d="m172.77,180c-.25,0-.48-.05-.69-.16-.39-.21-.54-.5-.6-.7-.16-.57.16-1.15.4-1.58.34-.61,1.41-1.04,2.39-1.4l.16-.06c.21-.08.79-.34,1.44-.63.95-.42,1.94-.87,2.28-.98.55-.18,2.02-.74,2.02-.74l.35.94s-1.5.56-2.06.75c-.3.1-1.34.57-2.19.94-.68.3-1.29.57-1.5.65l-.17.06c-1.38.5-1.77.79-1.86.95-.13.23-.36.65-.31.82.01.04.08.08.12.1.38.21,1.57-.38,2.08-.64l.25-.12c.61-.3,3.34-1.24,4-1.15.17-.02,1-.37,1.5-.58.44-.18.86-.36,1.18-.47.2-.07.35-.11.47-.12.26-.03.52.16.55.44.03.27-.17.52-.44.55,0,0-.07,0-.26.07-.3.1-.7.27-1.11.45-1.18.5-1.7.7-2.03.65-.37-.02-2.69.7-3.42,1.06l-.24.12c-.69.34-1.56.78-2.31.78Z"
  />
  <path
    d="m179.6,185.35c-.22,0-.43-.05-.6-.14-.51-.27-.65-.83-.74-1.16-.09-.35.25-.88.75-1.44-.22.12-.41.21-.56.25-.23.06-.74.33-1.24.59-.83.43-1.7.88-2.29.97-.35.05-.67-.06-.88-.31-.56-.64-.2-1.97-.16-2.12.14-.48.74-1,2.15-1.86.23-.14.53-.33.86-.54.75-.47,1.59-1.01,2.24-1.37.86-.47,2.24-1.71,2.25-1.72.15-.14.37-.17.55-.08.65.31,1.62,1.06,1.65,2.1.09-.04.17-.07.24-.08.36-.09.59.1.68.28.17.36.25.54-2.12,2.25-1.05.75-2.87,2.43-3.12,2.94.05.18.11.38.21.43.09.05.29.03.53-.06.64-.23,1.72-.99,2.67-1.66.6-.42,1.16-.82,1.63-1.1l4.08-2.43c.32-.19.8-.42,1.35-.67,1.06-.5,2.67-1.24,2.98-1.79.21-.37.62-.89,1.09-1.5.61-.79,1.74-2.25,1.75-2.69,0-.27.23-.5.5-.5h0c.28,0,.5.23.5.5,0,.72-.78,1.77-1.95,3.29-.43.55-.83,1.08-1.01,1.38-.43.76-1.75,1.42-3.43,2.2-.51.24-.99.46-1.26.62l-4.08,2.43c-.44.26-.98.65-1.56,1.06-1.05.74-2.14,1.51-2.91,1.79-.26.09-.51.14-.73.14Zm-.37-1.41h0Zm2.54-6.46c-.47.41-1.45,1.23-2.17,1.62-.62.34-1.49.89-2.18,1.33-.33.21-.63.4-.87.55-1.46.89-1.68,1.21-1.71,1.29-.12.43-.15,1.05-.04,1.18.41-.09,1.27-.53,1.96-.89.59-.31,1.1-.57,1.43-.66.4-.11,1.59-.96,2.23-1.41.32-.23.58-.42.73-.51l.42-.27c.36-.24.71-.46,1.02-.65-.04-.1-.05-.21-.03-.32.13-.55-.42-1.02-.78-1.25Z"
  />
  <path
    d="m182.39,180c-.24,0-.45-.17-.49-.42-.14-.87-.97-1.34-.98-1.35-.24-.13-.33-.44-.2-.68.13-.24.44-.33.67-.2.05.03,1.27.7,1.49,2.06.04.27-.14.53-.41.57-.03,0-.05,0-.08,0Z"
  />
  <path
    d="m169.71,116.67c-.55,0-.93-.18-1.12-.53-.35-.65.23-1.48.41-1.72.06-.07.13-.13.22-.16.76-.29,1.48-.21,1.92.22.33.33.44.8.29,1.23-.19.53-.75.89-1.47.95-.08,0-.16.01-.24.01Zm-.23-.98h0,0Zm.02-.03s.17.02.37,0c.39-.03.57-.18.61-.29.02-.06,0-.13-.05-.18-.1-.1-.34-.16-.72-.05-.13.19-.23.41-.23.52,0,0,.01,0,.02,0Z"
  />
  <path
    d="m149.6,122.1s-.07,0-.11,0c-.69-.1-.92-1.01-1-1.31-.03-.11-.02-.24.03-.34.06-.13.4-.78.98-.83.18-.01.54.01.84.42.35.47.28,1.14.02,1.57-.19.32-.47.5-.77.5Zm-.08-1.37c.02.07.04.12.06.17.01-.09.01-.18-.01-.24-.02.02-.03.04-.05.06Z"
  />
  <path
    d="m160.04,120.09c-.35,0-.73-.19-1.03-.54-.42-.48-.52-1.07-.26-1.55.03-.05.07-.1.12-.14.14-.12.89-.7,1.54-.39.41.19.62.64.62,1.33,0,.86-.41,1.14-.66,1.23-.1.04-.21.06-.32.06Zm-.44-1.54c0,.09.05.18.07.22.1.17.24.28.33.31,0-.04.02-.12.02-.28,0-.35-.07-.45-.07-.45-.03.02-.19.1-.34.2Z"
  />
  <path
    d="m147.4,173.45c-.59,0-1.68-.49-3.25-1.45-.24-.15-.31-.45-.16-.69s.45-.31.69-.16c1.04.64,2.33,1.31,2.69,1.31.26-.08.52.07.6.33.08.26-.08.55-.35.63-.07.02-.14.03-.23.03Z"
  />
  <path
    d="m162,178.87h-.02c-1.38-.05-1.52-.69-1.56-1.47,0-.14-.01-.3-.04-.48-.04-.32-.09-.76-.14-1.24-.11-.95-.23-2.03-.34-2.65-.02-.09-.06-.22-.14-.27-.08-.06-.23-.06-.44-.02l-.14-.48-.07-.49.07.49-.09-.49c.5-.11.91-.05,1.22.16.15.1.34.28.46.57.24-.17.67-.28,1.21,0,.27.14.78.41.51,5.9-.01.27-.23.48-.5.48Zm-.53-1.09s.01.01.05.03c.07-1.89.05-3.93-.11-4.46-.05-.01-.07-.01-.08,0-.1.11-.27.16-.35.16.09.62.17,1.39.25,2.09.05.47.1.91.14,1.22.03.21.04.4.04.56,0,.16.02.37.05.42h0Z"
  />
  <path
    d="m167.95,173.87c-.3,0-.62,0-.95,0l-4.53-.41c-.27-.03-.48-.27-.45-.54.03-.27.28-.46.54-.45l4.5.41c1.73.03,3.86-.07,4.21-.29.18-.21.47-.22.68-.04.21.18.21.51.04.72-.34.41-1.7.61-4.04.61Z"
  />
  <path
    d="m168.86,180c-.09,0-.19-.03-.27-.08l-.74-.47c-.19-.12-.28-.35-.21-.56.18-.61-.25-3.06-.75-5.04-.07-.27.1-.54.36-.61.26-.07.54.1.61.36.13.54.66,2.7.78,4.25.19-1.42.28-3.27-.23-4.26-.13-.25-.03-.55.22-.67.25-.13.55-.03.67.22,1.06,2.06.08,6.3.04,6.48-.04.16-.15.29-.3.35-.06.02-.12.04-.19.04Z"
  />
  <path
    d="m145.58,178.61c-.41,0-.81-.17-1.02-.59-.08-.16-.33-.66.91-5.21.07-.27.34-.42.61-.35.27.07.42.35.35.61-.51,1.89-1.02,4.17-.95,4.57,0,0,.01,0,.04,0,.79-4.59,1.14-4.79,1.35-4.91.24-.14.54-.06.68.18.12.2.08.45-.08.61-.21.41-.69,2.69-1.01,4.62-.03.18-.15.33-.33.39-.17.06-.35.09-.53.09Z"
  />
  <path
    d="m144.76,176.34s-.1,0-.14-.02l-2.92-.88c-.26-.08-.42-.36-.33-.62.08-.26.36-.41.62-.33l2.92.88c.26.08.42.36.33.62-.06.22-.26.36-.48.36Z"
  />
  <path
    d="m149.13,176.94s-.04,0-.07,0c-1.08-.14-2.3-.29-2.46-.3-.27-.01-.49-.24-.49-.51,0-.27.22-.49.49-.49.19,0,1.7.19,2.58.31.27.04.47.29.43.56-.03.25-.25.44-.5.44Z"
  />
  <path
    d="m160.62,178.3s-.03,0-.05,0l-3.72-.33c-.27-.02-.48-.27-.45-.54s.27-.48.54-.45l3.72.33c.27.02.48.27.45.54-.02.26-.24.46-.5.46Z"
  />
  <path
    d="m167.68,178.87c-.07,0-.15-.02-.21-.05-.42-.2-2.87-.43-4.04-.54-.88-.08-1.31-.12-1.48-.16-.27-.06-.43-.33-.37-.6.06-.27.33-.43.6-.37.12.03.77.09,1.34.14,2.15.2,3.84.38,4.38.63.25.12.36.42.24.67-.09.18-.26.29-.45.29Z"
  />
  <path
    d="m174.23,181.94c-.12,0-.23-.04-.32-.12-.79-.67-4.67-2.54-5.07-2.7-.26-.1-.38-.4-.27-.65.1-.26.4-.38.65-.27.32.13,4.39,2.06,5.34,2.87.21.18.24.49.06.71-.1.12-.24.18-.38.18Z"
  />
  <path
    d="m174.96,181.94c-.05,0-.1,0-.15-.02-.26-.08-.41-.37-.32-.63.35-1.09.74-2.4.76-2.63-.03-.27.16-.49.44-.53.26-.04.52.19.56.46.01.11.04.37-.8,3-.07.21-.26.35-.48.35Z"
  />
  <path
    d="m167.06,175.15s-.08,0-.12-.01c-.38-.09-2.94-.31-4.46-.42-.28-.02-.48-.26-.46-.54s.26-.49.54-.46c.41.03,4.04.3,4.63.45.27.07.43.34.37.6-.06.23-.26.38-.49.38Z"
  />
  <path
    d="m173.37,177.36c-.14,0-.28-.06-.38-.17-.29-.33-2.18-1.17-3.77-1.76-.26-.1-.39-.38-.29-.64.1-.26.38-.39.64-.29.83.31,3.58,1.37,4.17,2.04.18.21.16.52-.04.71-.09.08-.21.12-.33.12Z"
  />
  <path
    d="m160.62,178.61h-4.34c-.28,0-.5-.22-.5-.5s.22-.5.5-.5h4.34c.28,0,.5.22.5.5s-.22.5-.5.5Z"
  />
  <path
    d="m160.52,174.21s-.08,0-.12-.02l-1.33-.34c-.27-.07-.43-.34-.36-.61.07-.27.35-.43.61-.36l1.33.34c.27.07.43.34.36.61-.06.23-.26.38-.48.38Z"
  />
  <path
    d="m173.25,173.78c-1.15,0-2.16-.12-2.24-.13-.27-.03-.47-.28-.44-.55.03-.28.3-.47.55-.44.86.1,3.34.27,4.43-.17.26-.1.55.02.65.28.1.26-.02.55-.28.65-.7.28-1.74.36-2.68.36Z"
  />
  <path
    d="m158.97,163.63c-.25,0-.47-.19-.5-.45-.03-.28.17-.52.45-.55.46-.04.63-.16.65-.21.01-.03.02-.15-.1-.38-.01.03-.02.05-.03.08-.1.26-.39.39-.65.29-.26-.1-.39-.38-.29-.64.07-.19.35-.82.9-.87.24-.02.58.05.87.54.33.55.4,1.03.19,1.43-.22.43-.7.68-1.45.76-.02,0-.03,0-.05,0Z"
  />
  <path
    d="m186.93,192.39c-.25,0-.46-.18-.49-.43-.04-.27.15-.53.43-.56,0,0,.57-.08,1.38-.31,1-.28,3.04-.08,3.78.28.35.16,2.38-.22,3.01-1.5.44-.88.07-8.47-.5-15.16-.02-.28.18-.52.46-.54.26-.03.52.18.54.46.2,2.35,1.16,14.17.4,15.69-.87,1.75-3.45,2.38-4.34,1.96-.55-.26-2.33-.43-3.08-.22-.89.25-1.49.34-1.52.34-.02,0-.05,0-.07,0Z"
  />
  <path
    d="m190.43,295.93c-1.54,0-3.77-.25-4.36-1.61-.16-.38-.36-.8-.59-1.27-.81-1.69-1.93-4-2.71-7.46-.51-2.24-1.13-6.07-1.73-9.77-.58-3.53-1.12-6.86-1.48-8.3-.15-.61-.29-1.21-.44-1.81-.55-2.33-1.07-4.52-2.13-6.94-.74-1.67-1.31-4.53-1.86-7.29-.48-2.39-.93-4.65-1.41-5.65-.83-1.75-1.57-5.37-2.01-7.53-.13-.65-.24-1.16-.31-1.45-.1-.42-.75-1.67-1.44-2.99-1.19-2.28-2.81-5.4-3.43-7.61-1.11-3.96-5.06-14.37-6.26-15.36-1.55-1.28-1.89-3.49-1.91-3.58-.04-.27.15-.53.42-.57.27-.05.53.15.57.42,0,.02.3,1.93,1.55,2.96,1.62,1.34,5.67,12.58,6.59,15.86.59,2.11,2.19,5.18,3.36,7.42.89,1.71,1.4,2.7,1.53,3.21.07.29.18.82.32,1.49.43,2.12,1.16,5.66,1.93,7.3.53,1.11.99,3.43,1.48,5.88.52,2.59,1.11,5.52,1.8,7.09,1.1,2.49,1.63,4.74,2.19,7.11.14.59.28,1.19.43,1.8.37,1.48.92,4.83,1.49,8.38.6,3.69,1.22,7.5,1.72,9.71.76,3.35,1.84,5.6,2.64,7.25.23.48.44.92.61,1.31.45,1.05,3.43,1.08,4.8.93,5.87-.7,6.91-3.97,7.53-7.55.28-1.61-.1-2.29-.61-3.23-.55-1.01-1.24-2.27-1.31-4.94-.08-3.29-.43-6.36-.83-9.92-.21-1.89-.44-3.93-.66-6.21-.42-4.5-1.6-8.93-2.74-13.21-.53-1.99-1.03-3.86-1.45-5.74-.67-2.94-1.71-4.47-2.47-5.59-.74-1.08-1.32-1.94-.48-3.14,1.15-1.64.92-3.12.48-5.03-.22-.94-.65-6.58-1.12-12.55-.45-5.79-.96-12.35-1.16-13.03-.25-.82-.31-1.77-.35-2.54-.02-.41-.06-.98-.12-1.11-.27-.42-.19-.85-.13-1.24.04-.21.07-.43.06-.67-.02-.5-.5-2.57-.83-3.84-.02-.09-.02-.19,0-.28,2.26-6.94-.9-12.94-.93-13-.13-.24-.04-.55.2-.68.24-.13.55-.04.68.2.14.26,3.34,6.37,1.04,13.64.17.68.8,3.21.82,3.92.01.34-.04.63-.08.87-.05.32-.07.45,0,.54.19.3.22.75.27,1.58.04.71.09,1.59.31,2.3.22.73.6,5.49,1.2,13.24.44,5.67.89,11.54,1.09,12.4.47,2.02.75,3.86-.63,5.83-.42.61-.26.89.49,2,.76,1.12,1.91,2.81,2.62,5.93.42,1.86.92,3.72,1.44,5.7,1.15,4.32,2.34,8.79,2.77,13.37.21,2.28.44,4.31.65,6.2.4,3.58.75,6.67.83,10.01.06,2.43.66,3.52,1.18,4.48.54,1,1.06,1.94.72,3.88-.63,3.64-1.85,7.59-8.41,8.37-.17.02-.74.07-1.47.07Z"
  />
  <path
    d="m149.88,293.8c-.44,0-.84-.05-1.13-.18-.41-.19-.54-.48-.59-.69-.16-.81-2.1-6.12-3.3-8.65-1.03-2.17-3.1-7.05-3.57-10.01-.37-2.34-.47-11.64-.53-17.2-.01-1.11-.02-2.05-.03-2.74-.06-4.09-1.13-12.62-1.42-14.3-.12-.7-.32-2.75-.58-5.36-.42-4.27-1-10.11-1.46-12.46-.27-1.37-.72-3.58-1.19-5.87-.83-4.08-1.7-8.29-1.78-8.98-.04-.34-.2-1.05-.39-1.88-.37-1.6-.83-3.59-.78-4.62.05-1.2-.7-4.97-1.37-8.3l-.35-1.77c-.76-3.84.99-9.51,1.06-9.75.08-.26.37-.41.63-.33.26.08.41.36.33.63-.02.06-1.74,5.66-1.04,9.26l.35,1.76c.71,3.55,1.44,7.22,1.39,8.54-.04.89.42,2.89.76,4.35.2.89.37,1.59.41,1.98.08.65.97,5.03,1.77,8.89.47,2.3.92,4.5,1.19,5.88.47,2.4,1.03,8.03,1.48,12.56.24,2.48.46,4.63.57,5.29.32,1.92,1.37,10.33,1.43,14.45.01.69.02,1.64.03,2.75.06,5.17.16,14.79.52,17.06.44,2.85,2.47,7.62,3.48,9.74,1.18,2.49,3.18,7.91,3.38,8.88.33.27,2.63-.09,3.09-.34.23-.13.52-.11.96-.08.99.07,2.65.18,3.75-1.54,1.74-2.7,2.28-4.59,2.29-4.6.04-.37.02-5.8-.83-7.62-.51-1.1-.2-1.71.14-2.36.4-.77.94-1.82.7-4.53-.44-4.95-2-8.12-2.01-8.15-.03-.05-.04-.11-.05-.16-.49-4.08-1.59-13.67-1.27-14.54.03-.08-.01-.17-.17-.45-.34-.64-.92-1.71-.21-4.09.98-3.29,1.83-10.04,1.59-11.63-.25-1.68,1.29-20.93,2.59-22.38.19-.2.5-.22.71-.04.21.18.22.5.04.71-.96,1.27-2.58,20-2.35,21.56.28,1.85-.67,8.84-1.62,12.06-.59,1.98-.17,2.76.14,3.33.19.35.41.76.23,1.26-.17.77.71,8.96,1.31,14.01.26.54,1.65,3.66,2.07,8.43.27,3-.38,4.25-.81,5.08-.31.6-.43.83-.12,1.48.99,2.11.98,7.97.9,8.29,0,.02-.56,2.03-2.41,4.9-1.42,2.21-3.61,2.07-4.66,2-.18-.01-.4-.02-.47-.01-.26.16-1.64.51-2.79.51Z"
  />
  <path
    d="m123.67,179.61c-.79,0-1.26-.38-1.31-.43-.21-.18-.24-.5-.06-.71.18-.21.49-.24.7-.06.02.02.34.25.88.18.55-.08,1.46-.49,2.59-2.03.17-.22.48-.27.7-.11.22.16.27.48.11.7-1.1,1.49-2.21,2.3-3.32,2.43-.1.01-.2.02-.29.02Z"
  />
  <path
    d="m130.5,207.15c-.73,0-1.2-.14-1.41-.42-.85-1.17-4.22-26.2-3.79-28.19l.11-.64c.05-.27.31-.47.58-.41.27.05.45.31.41.58l-.11.66c-.43,2,2.91,25.29,3.62,27.39.47.16,2.4-.1,4.34-.6.27-.07.54.09.61.36.07.27-.09.54-.36.61-1.74.44-3.07.66-3.99.66Z"
  />
  <path
    d="m145.29,313.98c-1.1,0-2.34-.21-3.16-.98-2.28-2.14-1.42-6.13-1.13-7.44.4-1.85,4.54-7.73,5.43-8.74.7-.79,1.46-2.91,1.69-3.66.08-.26.36-.42.62-.33.26.08.41.36.33.62-.04.12-.91,2.92-1.89,4.03-.93,1.05-4.87,6.76-5.2,8.29-.25,1.17-1.03,4.75.84,6.5.6.56,1.76.8,3.25.67,2.38-.21,5.02-1.34,5.89-2.52,1.55-2.08,2.45-4.65,2.75-6.21.23-1.22,1.38-3,2.13-4.18.24-.37.5-.79.55-.9.07-.19.26-.5.62-1.09.56-.92,1.5-2.46,1.58-3.11.02-.21.06-.45.1-.71.16-1.06.39-2.66-.05-3.59-.04-.09-.06-.19-.04-.29.09-.61.28-2.37.01-3.24-.19-.64-.32-1.06.16-1.23.48-.17.67.31.78.59.05.11.05.23.01.34,0,0,0,0,0,.01.33,1.1.11,2.98.04,3.53.49,1.19.25,2.82.07,4.02-.04.25-.07.48-.09.67-.09.81-.86,2.12-1.72,3.52-.23.38-.49.81-.54.92-.07.19-.26.48-.64,1.08-.67,1.05-1.79,2.8-1.99,3.83-.32,1.67-1.28,4.4-2.93,6.62-1.06,1.42-3.9,2.67-6.61,2.91-.27.02-.56.04-.87.04Z"
  />
  <path
    d="m198,315.21c-.19,0-.39-.01-.59-.03-4.63-.54-6.98-5.39-7.05-6.58-.06-1.04-.93-6.28-1.8-8.01-.94-1.88-1.47-4.81-1.47-5.16,0-.28.22-.5.5-.5s.5.22.5.49c.02.32.5,2.99,1.37,4.72.98,1.96,1.84,7.36,1.91,8.4.06.95,2.25,5.19,6.17,5.64,1.26.15,2.41-.28,3.39-1.26,1.51-1.51,2.15-3.87,2.05-4.66-.17-1.43-2.83-8.42-3.23-9.29-.3-.66-1.51-3.72-1.59-4.61-.04-.52-.46-1.41-.62-1.7-.13-.24-.04-.55.21-.68.24-.13.54-.04.68.21.07.13.67,1.27.74,2.09.05.6,1.08,3.37,1.5,4.27.39.85,3.12,7.98,3.32,9.59.14,1.17-.68,3.82-2.33,5.48-1.04,1.04-2.28,1.59-3.62,1.59Zm-9.92-19.78h0,0Z"
  />
  <path
    d="m145.8,316.19c-.18,0-.36,0-.53-.02-3-.27-3.84-1.6-4.4-2.48-.11-.18-.21-.34-.33-.47-.75-.88-.28-4.23-.05-5.63.05-.27.31-.46.58-.41.27.05.46.3.41.58-.37,2.22-.45,4.47-.17,4.81.14.17.27.37.41.59.5.8,1.13,1.79,3.64,2.02,3.06.28,7.74-2.25,8.25-7.55.03-.28.28-.47.55-.45.28.03.48.27.45.55-.54,5.64-5.37,8.47-8.81,8.47Z"
  />
  <path
    d="m190.11,303.14c-.09,0-.17-.02-.25-.07-.24-.14-.32-.45-.17-.68,1.68-2.83,1.18-6.55,1.17-6.59-.04-.27.15-.53.42-.57.26-.03.53.15.57.42.02.17.56,4.1-1.3,7.24-.09.16-.26.25-.43.25Z"
  />
  <path
    d="m201.55,302.76c-.08,0-.16-.02-.24-.06-3.74-2.01-5.24-8.53-5.3-8.8-.06-.27.11-.54.38-.6.26-.06.54.11.6.38.01.06,1.47,6.35,4.8,8.14.24.13.33.43.2.68-.09.17-.26.26-.44.26Z"
  />
  <path
    d="m144.21,301.25c-.18,0-.35-.1-.44-.26-.13-.24-.04-.55.2-.68,4.21-2.25,5.36-6.6,5.37-6.64.07-.27.34-.43.61-.36.27.07.43.34.36.61-.05.2-1.28,4.82-5.87,7.28-.08.04-.16.06-.24.06Z"
  />
  <path
    d="m157.86,302.76h-1.24c-.28,0-.5-.22-.5-.5s.22-.5.5-.5h1.01c1.19-1.39,2.45-3.07,2.51-3.46,0-.2.02-.44.04-.73.06-.69.14-1.63-.04-3-.06-.48-.11-.77-.14-.95-.07-.08-.12-.18-.12-.3,0-.56.33-.65.48-.66.51-.02.57.27.77,1.78.2,1.48.11,2.49.05,3.22-.02.25-.04.47-.04.66,0,.8-1.82,3.02-2.9,4.27-.09.11-.23.17-.38.17Z"
  />
  <path
    d="m197.77,316.73c-3.2,0-5.91-2.98-6.72-3.96-.72-.87-.77-4.02-.77-4.96,0-.28.22-.5.5-.5h0c.28,0,.5.22.5.5,0,1.76.21,3.92.54,4.33.57.69,3.55,4.1,6.67,3.53,3.22-.58,5.05-1.96,4.85-7.22l-.67-1.41c-.12-.25-.01-.55.24-.67.25-.12.55-.01.67.24l.71,1.5c.03.06.04.12.05.19.26,6.03-2.07,7.7-5.66,8.35-.3.05-.61.08-.9.08Z"
  />
  <path
    d="m157.86,302.76c-.22,0-.42-.14-.48-.36l-.57-2c-.08-.27.08-.54.34-.62.27-.08.54.08.62.34l.57,2c.08.27-.08.54-.34.62-.05.01-.09.02-.14.02Z"
  />
  <path
    d="m154.89,296.85c-.11,0-.21-.03-.31-.1l-.19-.15c-.66-.34-3.11-.62-5.21-.67-.28,0-.5-.24-.49-.51,0-.28.27-.5.51-.49.63.02,2.03.07,3.34.24l-2.1-1.62c-.22-.17-.26-.48-.09-.7.17-.22.48-.26.7-.09l3.99,3.08c.09.05.16.11.21.17.18.19.18.49,0,.68-.1.11-.23.16-.37.16Z"
  />
  <path
    d="m154.89,304.32c-.2,0-.39-.12-.47-.32-1.32-3.36-1.12-7.23-.84-9.45-1.67.37-3.82,1.03-4.78,1.36-.26.09-.55-.05-.63-.31-.09-.26.05-.55.31-.63.16-.05,3.09-1.03,5.25-1.46.08-.45.14-.73.15-.78.04-.17.17-.31.34-.37.17-.05.35-.01.49.11l1.06.97c.16.14.21.37.12.56s-.28.32-.49.31c-.21,0-.48.01-.79.06-.28,2.06-.56,5.99.73,9.28.1.26-.03.55-.28.65-.06.02-.12.03-.18.03Z"
  />
  <path
    d="m190.77,298.82c-.19,0-.37-.11-.45-.29-.12-.25-.01-.55.24-.67.35-.16,2.48-1.15,4.47-1.52-1.33-.51-2.52-.79-2.94-.55-.24.13-.54.05-.68-.19-.14-.24-.05-.55.19-.68,1.46-.83,5.39,1.16,6.17,1.57.24.13.34.43.21.67s-.43.34-.67.21c-1.19-.61-4.5.53-6.31,1.38-.07.03-.14.05-.21.05Z"
  />
  <path
    d="m190.77,299.09c-.07,0-.15-.02-.22-.05-.25-.12-.35-.43-.23-.68.19-.41,2.17-1.97,5.89-4.64.22-.16.54-.11.7.11.16.22.11.54-.11.7-2.53,1.82-5.32,3.92-5.59,4.29-.08.18-.25.27-.43.27Z"
  />
  <path
    d="m125.24,134.92c-.25,0-.47-.19-.5-.44-.52-4.42-3.44-6.86-3.47-6.88-.21-.17-.25-.49-.07-.7.17-.21.49-.25.7-.07.13.11,3.25,2.7,3.83,7.54.03.27-.16.52-.44.55-.02,0-.04,0-.06,0Z"
  />
  <path
    d="m124.98,140.41c-.22,0-.42-.15-.48-.37-1.13-4.3-4.92-7.62-4.96-7.65-.21-.18-.23-.5-.05-.71.18-.21.5-.23.71-.05.17.14,4.06,3.55,5.27,8.15.07.27-.09.54-.36.61-.04.01-.09.02-.13.02Z"
  />
  <path
    d="m122.95,142.45c-.09,0-.18-.02-.26-.07-2.54-1.56-3.96-6.22-4.81-9.59-.07-.26-.11-.45-.14-.54-.07-.13-.08-.3-.01-.45.12-.25.41-.36.67-.24.24.11.26.19.46.98.46,1.84,1.87,7.45,4.36,8.98.24.14.31.45.16.69-.09.15-.26.24-.43.24Z"
  />
  <path
    d="m121.39,140.89c-.16,0-.32-.08-.42-.23-1.07-1.62-4.24-2.48-4.27-2.49-.27-.07-.42-.34-.35-.61.07-.27.34-.43.61-.35.15.04,3.57.96,4.85,2.91.15.23.09.54-.14.69-.08.06-.18.08-.27.08Z"
  />
  <path
    d="m120.57,147.94s-.07,0-.1,0c-1.49-.3-6.42-1.33-7.16-2.13-.19-.2-.17-.52.03-.71.2-.18.52-.17.71.03.36.35,3.11,1.08,5.74,1.64-.48-1.24-1.32-3.3-1.98-4.9-.64-1.56-1.01-2.45-1.08-2.68-.09-.26.06-.54.32-.63.26-.09.54.06.63.32.07.2.55,1.37,1.06,2.61.9,2.18,2.02,4.9,2.31,5.79.06.17.02.35-.1.49-.1.11-.23.17-.37.17Z"
  />
  <path
    d="m115.13,151.46c-.1,0-.19-.03-.28-.09-1.09-.74-7.94-1.62-8.48-1.66-.27-.02-.49-.25-.47-.52.01-.27.23-.47.5-.47,0,0,.01,0,.02,0,.07,0,7.55.85,8.99,1.83.23.16.29.47.13.69-.1.14-.25.22-.41.22Z"
  />
  <path
    d="m118.5,159.21h-.02c-.21,0-5.3-.98-5.87-2.09-.12-.23-.11-.49.04-.7.54-.82,3.67-1.22,5.49-1.39.29-.01.52.18.54.45.03.28-.18.52-.45.54-1.73.16-3.73.5-4.48.81,1,.54,4.23,1.36,4.77,1.38.28.01.49.25.48.52-.01.27-.23.48-.5.48Z"
  />
  <path
    d="m117.12,160.8c-.11,0-.23-.04-.32-.12-1.09-.92-4.95-1.63-6.34-1.83-.27-.04-.46-.29-.42-.57.04-.27.3-.46.57-.42.54.08,5.34.79,6.84,2.06.21.18.24.49.06.7-.1.12-.24.18-.38.18Z"
  />
  <path
    d="m119.86,162.56c-.27,0-.49-.21-.5-.48-.01-.28.2-.51.47-.52.57-.03,1.25-.41,1.81-.81-.59.13-1.44.45-2.67,1.11l-.19.1c-.25.12-.55.02-.67-.22-.12-.25-.02-.55.22-.67l.16-.09c1.4-.76,3.41-1.7,4.66-1.13.15.07.25.2.28.37.03.16-.02.33-.14.44-.07.07-1.82,1.83-3.42,1.9,0,0-.02,0-.02,0Z"
  />
  <path
    d="m119.27,176.05c-.15,0-.3-.07-.4-.2-.17-.22-.13-.53.09-.7.11-.09.17-.15.21-.19-.14-.09-.47-.2-.75-.24-.27-.04-.46-.29-.42-.55.06-.52-.03-.7-.06-.73-.08-.05-.38.02-.6.14-.21.12-.47.07-.63-.11-.16-.18-.16-.45-.01-.63.21-.26.2-.44.17-.54-.09-.42-.69-.81-.89-.91-.19-.1-.3-.3-.27-.51.01-.1-.01-.13-.03-.15-.11-.12-.45-.15-.61-.17h0c-.27,0-.5-.22-.5-.49,0-.28.22-.5.49-.51.09,0,.92,0,1.37.51.11.13.23.32.27.59.37.24.99.73,1.14,1.43.02.1.04.22.03.35.2,0,.41.05.6.18.35.23.53.64.53,1.23.45.13,1.02.38,1.16.9.11.42-.09.83-.61,1.23-.09.07-.2.1-.3.1Z"
  />
  <path
    d="m130.06,165.91c-.15,0-.3-.07-.4-.2-.17-.22-.12-.53.1-.7,3.86-2.93,4.49-6.65,4.5-6.68.02-.27.26-.51.52-.46.27.01.48.22.48.49,0,.49-.91,4.44-4.89,7.46-.09.07-.2.1-.3.1Z"
  />
  <path
    d="m135.18,167.99c-.11,0-.23-.04-.32-.12-.21-.18-.24-.49-.07-.7.42-.5.43-.74.41-.77-.22-.38-2.19-.35-4.12.05-.27.06-.54-.12-.59-.39-.06-.27.12-.54.39-.59,1.32-.27,4.46-.78,5.18.41.31.51.14,1.16-.5,1.92-.1.12-.24.18-.38.18Z"
  />
  <path
    d="m137.35,164.85c-.06,0-.13-.01-.19-.04-.26-.1-.38-.4-.28-.65,1.05-2.6.08-4.21.04-4.28-.07-.12-.1-.27-.06-.4l.88-3.1c.03-.09.07-.17.14-.23.49-.46.48-.67.48-.67-.02-.03-.13-.1-.24-.12-.27-.06-.44-.32-.38-.59.06-.27.31-.44.58-.39.08.02.82.18,1,.83.19.67-.36,1.28-.65,1.58l-.79,2.78c.29.6.97,2.41-.07,4.98-.08.19-.27.31-.46.31Z"
  />
  <path
    d="m138.46,167.07c-.12,0-.24-.04-.33-.13l-1.39-1.25c-.21-.18-.22-.5-.04-.71.18-.21.5-.22.71-.04l1.39,1.25c.21.18.22.5.04.71-.1.11-.24.17-.37.17Z"
  />
  <path
    d="m142.73,165.82c-.22,0-.43-.15-.48-.37-.07-.27.09-.54.36-.61.15-.04.22-.1.27-.24.53-1.47-2.68-6.73-4.82-9.71-.16-.22-.11-.54.11-.7.22-.16.54-.11.7.11.98,1.36,5.81,8.25,4.95,10.63-.16.45-.49.74-.96.87-.04.01-.08.02-.13.02Z"
  />
  <path
    d="m147.48,162.76c-.19,0-.38-.11-.46-.3-1.1-2.5-8.78-8.86-8.86-8.93-.21-.18-.24-.49-.07-.7.18-.21.49-.24.7-.07.32.27,7.94,6.58,9.13,9.3.11.25,0,.55-.26.66-.07.03-.13.04-.2.04Z"
  />
  <path
    d="m147.97,167.99c-.09,0-.18-.02-.27-.08-.63-.4-1.25-1.47-2.13-3.7-.43-1.1-1.41-2.81-1.78-3.45l-.13-.23c-.14-.24-.05-.55.19-.68.24-.14.55-.05.68.19l.13.22c.41.72,1.38,2.41,1.84,3.58.74,1.88,1.32,2.96,1.73,3.22.23.15.3.46.16.69-.09.15-.26.23-.42.23Z"
  />
  <path
    d="m140.94,163.63c-.2,0-.38-.12-.46-.31-.33-.8-2.24-2.44-2.64-2.67-.19-.06-.33-.22-.35-.42-.03-.27.17-.52.44-.55,0,0,.02,0,.03,0,.67,0,3.1,2.39,3.45,3.27.1.26-.02.55-.27.65-.06.03-.13.04-.19.04Z"
  />
  <path
    d="m140.38,159.83c-.15,0-.31-.07-.4-.21-.32-.44-1.39-.96-1.9-1.22-.46-.23-.79-.39-.67-.81.08-.27.36-.42.62-.34.08.02.14.06.2.11.06.03.16.08.29.15.87.43,1.84.94,2.27,1.53.16.22.11.54-.11.7-.09.06-.19.1-.29.1Z"
  />
  <path
    d="m146.62,172.07s-.05,0-.08,0c-1.41-.22-2.92-2.12-4.08-3.74l-.13-.18c-.41-.57-2.94-1.76-3.67-2.03-.26-.1-.39-.38-.29-.64.1-.26.39-.39.64-.29.03.01,3.42,1.4,4.13,2.38l.13.18c.56.78,2.25,3.15,3.43,3.34.27.04.46.3.42.57-.04.25-.25.42-.49.42Z"
  />
  <path
    d="m144.39,149.71c-.13,0-.27-.05-.36-.16-.87-.92-2.97-2.69-4.09-3.64-.47-.4-.79-.67-.84-.73-.19-.2-.18-.52.03-.71.2-.19.51-.18.7.02.07.07.36.31.76.65,1.14.96,3.26,2.75,4.17,3.72.19.2.18.52-.02.71-.1.09-.22.14-.34.14Z"
  />
  <path
    d="m149.7,148.27c-1.85,0-4.74-1.29-6.19-1.93-.29-.13-.5-.22-.6-.26-.15-.02-.28-.11-.36-.25-.13-.24-.05-.55.2-.68.24-.13.33-.1,1.18.28,1.37.61,4.59,2.05,6.1,1.82.26-.04.53.15.57.42.04.27-.15.53-.42.57-.14.02-.3.03-.46.03Z"
  />
  <path
    d="m143.97,154.11c-.12,0-.24-.04-.34-.13-.2-.19-.22-.5-.03-.71.4-.44,3.95-4.21,6.43-3.13.25.11.37.41.26.66-.11.25-.41.37-.66.26-1.55-.68-4.35,1.85-5.29,2.89-.1.11-.23.16-.37.16Z"
  />
  <path
    d="m140.35,138.84c-.13,0-.26-.05-.36-.16-.2-.2-.17-.53.03-.73.44-.44,3.73-1.06,4.46-.94.27.05.45.31.4.58-.05.27-.32.44-.58.4-.5-.09-3.22.47-3.63.71-.09.09-.21.14-.32.14Z"
  />
  <path
    d="m140.58,136.89c-.19,0-.37-.11-.45-.29-.12-.25,0-.55.25-.66.79-.36,7.81-3.52,10.3-2.28.25.12.35.42.22.67-.12.25-.42.35-.67.22-1.75-.88-7.4,1.36-9.43,2.29-.07.03-.14.05-.21.05Z"
  />
  <path
    d="m148.98,131.03c-.17,0-.33-.08-.43-.24-.47-.77-5.44-3.24-6.15-3.37-.28.01-.48-.18-.5-.45-.03-.28.22-.52.49-.54.64-.05,6.35,2.74,7.02,3.84.14.24.07.54-.17.69-.08.05-.17.07-.26.07Z"
  />
  <path
    d="m142.82,126.22c-.18,0-.35-.09-.44-.26-.13-.24-.04-.55.2-.68.16-.09,3.97-2.14,6.62-.88.25.12.36.42.24.67-.12.25-.42.35-.67.24-1.82-.86-4.74.32-5.71.85-.08.04-.16.06-.24.06Z"
  />
  <path
    d="m150.63,128.38c-.15,0-.3-.07-.4-.2-.94-1.25-.06-2.67-.02-2.73.15-.23.46-.3.69-.16.23.15.3.46.16.69-.03.05-.54.91-.02,1.59.17.22.12.53-.1.7-.09.07-.2.1-.3.1Z"
  />
  <path
    d="m158.97,123.7c-.07,0-.13-.01-.19-.04-.25-.11-.37-.4-.27-.66.27-.65-.37-2.43-.91-3.49-.13-.25-.03-.55.22-.67.25-.13.55-.03.67.22.25.49,1.5,3.03.94,4.33-.08.19-.27.31-.46.31Z"
  />
  <path
    d="m159.18,130.6c-.14,0-.28-.06-.38-.17-.18-.21-.16-.52.05-.71.05-.05.22-.2.45-.42,3.05-2.88,3.46-3.1,3.78-3.13.28-.01.49.13.59.37.26.66-.79,2.54-1.23,2.9-.21.18-.53.15-.7-.06s-.15-.53.06-.7c.12-.1.32-.43.51-.79-.54.48-1.32,1.2-2.32,2.15-.25.23-.42.4-.48.45-.09.08-.21.12-.33.12Z"
  />
  <path
    d="m169.34,153.69c-.42,0-.81-.01-1.01-.05-.5-.09-1.07-.61-1.96-1.47-.18-.17-.35-.33-.51-.48-1-.92-1.34-16.41-1.34-16.57,0-.25.1-.47.29-.63.5-.42,1.51-.3,1.93-.23.27.05.46.3.41.58-.05.27-.31.46-.58.41-.39-.07-.86-.07-1.05-.01.02,2,.48,14.73,1.06,15.78.12.09.29.26.47.44.42.4,1.2,1.15,1.45,1.21.32.06,1.67.03,2.46,0,.25,0,.51.2.52.48.01.28-.2.51-.48.52-.22,0-.99.04-1.67.04Z"
  />
  <path
    d="m162.06,173.29c-.19,0-.37-.11-.45-.29-.09-.2-.05-.42.1-.56.31-.6,1.24-4.9.92-6.39-.31-1.45-.73-7.13-1.02-11.27l-.04-.58c-.09-1.32-1.68-6.59-2.51-9.2-.08-.26.06-.54.33-.63.26-.08.54.06.63.33.1.31,2.43,7.66,2.56,9.43l.04.58c.17,2.37.67,9.58,1,11.13.32,1.51-.54,7.04-1.33,7.41-.07.03-.14.05-.21.05Zm0-.5h0,0Z"
  />
  <path
    d="m163.45,171.42s-.05,0-.07,0c-.23-.02-.63-.17-.76-.87-.05-.27.12-.53.4-.59.26-.04.51.11.58.36.59-.5,1.85-2.56,2.61-4.33.78-1.81,5.37-8.86,5.57-9.16.15-.23.46-.29.69-.15.23.15.3.46.15.69-.05.07-4.74,7.28-5.49,9.01-.02.05-2.19,5.03-3.67,5.03Z"
  />
  <path
    d="m164.41,173.29c-.08,0-.16-.02-.23-.06-.25-.13-.34-.43-.21-.67.35-.68,7.03-2.75,8.29-2.61.27.04.47.29.43.56-.04.27-.29.47-.56.43-1.19-.16-6.72,1.82-7.38,2.21-.09.09-.22.14-.34.14Z"
  />
  <path
    d="m172.89,166.64c-1.09,0-1.27-.26-1.36-.38-.23-.32-.65-.92,3.51-4.38.21-.18.53-.15.7.06.18.21.15.53-.06.7-1.26,1.05-2.65,2.37-3.12,3,.74.04,2.54-.2,4.05-.49.27-.06.53.12.59.39.05.27-.12.53-.39.59-1.94.38-3.15.51-3.91.51Z"
  />
  <path
    d="m173.86,170.54c-.18,0-.35-.1-.44-.27-.13-.25-.03-.55.21-.67.42-.22,2.67-2.36,4.13-3.81.19-.19.51-.19.71,0,.19.2.19.51,0,.71-.61.6-3.66,3.61-4.37,3.98-.07.04-.15.06-.23.06Z"
  />
  <path
    d="m177.5,170.54s-.01,0-.02,0c-.28-.01-.49-.25-.47-.52.01-.27.22-.52.52-.47.19-.09,1.26-.98,1.43-1.2.14-.24.44-.31.68-.17.24.14.32.45.18.69-.14.25-1.68,1.69-2.31,1.69Z"
  />
  <path
    d="m185.13,169.1c-.23,0-.44-.16-.49-.39-2.34-10.61-8.39-11.88-8.45-11.9-.27-.05-.45-.31-.4-.58.05-.27.31-.44.58-.4.27.05,6.75,1.36,9.24,12.67.06.27-.11.54-.38.6-.04,0-.07.01-.11.01Z"
  />
  <path
    d="m183.04,169.75c-.12,0-.23-.04-.33-.12-.11-.09-1.04-.91-1.38-1.54-.12-.22-.11-.47.02-.67.09-.14.29-.45,1.62-.47-2.14-2.16-4.56-3.99-4.59-4.01-.22-.17-.27-.48-.1-.7.17-.22.48-.26.7-.1.13.1,3.22,2.42,5.57,5.02.14.15.17.37.08.56-.09.18-.27.29-.49.28-.61-.05-1.26-.05-1.67-.01.3.35.71.74.89.9.21.18.23.5.05.71-.1.11-.24.17-.38.17Z"
  />
  <path
    d="m189.03,159.32c-.14,0-.28-.06-.38-.18-.82-.97-3.28-1.79-4.16-2.03-.27-.07-.43-.34-.36-.61.07-.27.34-.43.61-.36.14.04,3.49.94,4.67,2.35.18.21.15.53-.06.7-.09.08-.21.12-.32.12Z"
  />
  <path
    d="m183.04,154.48c-.1,0-.21-.03-.3-.1-.98-.72-.71-3.94-.6-4.91.1-.93.11-2.74,0-5.38,0-.16,0-.26,0-.28,0-.28.22-.5.5-.5s.5.22.5.5v.24c.05,1,.16,4.04,0,5.52-.24,2.14-.04,3.77.2,4,.22.16.27.47.1.7-.1.13-.25.2-.4.2Zm.1-10.66h0,0Z"
  />
  <path
    d="m174.23,138.8c-.17,0-.34-.09-.43-.25-.59-1-1.56-2.8-1.42-3.52.03-.15.12-.27.25-.34,1.69-.94,10.17-5.63,10.93-5.82,1-.24,1.52,1.31,1.96,2.94.03.12.06.21.07.26.2.53.25.67-11.13,6.68-.07.04-.15.06-.23.06Zm-.84-3.39c.12.45.56,1.38,1.03,2.23,3.63-1.92,8.99-4.81,10.14-5.57-.43-1.59-.71-2.06-.84-2.2-.92.37-6.63,3.49-10.33,5.54Z"
  />
  <path
    d="m197.9,146.45c-.13,0-.26-.05-.36-.15-.19-.2-.19-.5,0-.7.06-.06,7.18-5.78,14.6-4.33.18.04.33.17.38.34s0,.37-.12.5c-.34.35-2.09,2.08-3.14,2.2-.26.02-.52-.17-.55-.44-.03-.27.17-.52.44-.55.34-.04,1.09-.58,1.81-1.22-6.59-.71-12.65,4.16-12.71,4.21-.1.09-.22.14-.35.14Z"
  />
  <path
    d="m201.62,158.48c-2.6,0-4.13-2.35-4.15-2.38-.15-.23-.08-.54.15-.69.24-.15.54-.08.69.15.08.13,2,3.04,5.17,1.43.24-.12.55-.03.67.22.13.25.03.55-.22.67-.85.43-1.62.6-2.32.6Z"
  />
  <path
    d="m157.12,200.46c-.17,0-.36,0-.55,0-.26,0-.48-.22-.49-.48,0,0-.14-3.64-.29-6.6-.08-1.58.03-5.42.17-8.48.29-6.53.4-6.58.76-6.72.26-.1.55.02.65.28.05.14.04.28-.01.4-.21,1.01-.72,11.61-.57,14.47.12,2.32.23,5.05.28,6.13.91,0,1.75-.07,2.04-.17.11-.44.33-1.87.48-3.1-.09-1-.7-7.66-.2-8.99.1-.26.39-.39.64-.29.26.1.39.38.29.64-.32.87,0,5.74.26,8.6,0,.04,0,.07,0,.11-.09.71-.39,3.07-.59,3.53-.1.22-.29.68-2.86.68Z"
  />
  <path
    d="m152.52,202.01c-2.25,0-11.84-2.49-14.89-3.3-.27-.07-.43-.34-.36-.61.07-.27.34-.43.61-.36,6.49,1.72,13.86,3.46,14.7,3.27.27-.06.54.1.61.36.07.26-.07.52-.33.6-.08.02-.2.04-.35.04Z"
  />
  <path
    d="m156.26,183.48c-.19,0-.37-.11-.45-.29-.25-.32-2.62-1.77-4.67-2.91-.24-.13-.33-.44-.19-.68.13-.24.44-.33.68-.19,2.17,1.21,4.82,2.77,5.09,3.36.12.25,0,.55-.24.66-.07.03-.14.05-.21.05Z"
  />
  <path
    d="m164.41,184.29c-.17,0-.33-.08-.42-.23-.15-.23-.08-.54.16-.69.07-.04,8.27-3.08,9.01-2.58.23.15.29.47.14.69-.11.16-.29.24-.47.22-.78.08-7.09,1.85-8.14,2.52-.08.05-.17.08-.27.08Z"
  />
  <path
    d="m172.75,186.72c-1.25,0-2.65-.12-4.2-.41-.27-.05-.45-.31-.4-.58.05-.27.32-.45.58-.4,6.48,1.24,10.36-.9,10.4-.92.24-.13.54-.05.68.19.14.24.05.54-.19.68-.13.07-2.59,1.44-6.89,1.44Z"
  />
  <path
    d="m178.56,194.43c-.81,0-2.17-.18-4.45-.78-.27-.07-.43-.34-.36-.61.07-.27.34-.43.61-.36,1.59.41,3.47.71,4.33.76-2.04-1.46-13.42-6.38-14.8-6.72-.19-.01-.36-.14-.43-.33-.1-.26.04-.55.29-.64.95-.39,15.39,6.28,16.07,7.4.27.45.09.77,0,.89-.09.12-.29.38-1.26.38Z"
  />
  <path
    d="m183.94,208.6c-.14,0-.27-.06-.37-.17-.07-.08-6.95-7.68-8.59-9.64-1.27-1.51-8.48-5.92-12.11-8.04-.24-.14-.32-.45-.18-.68.14-.24.45-.32.68-.18.44.25,10.68,6.24,12.38,8.26,1.63,1.94,8.5,9.54,8.57,9.61.18.2.17.52-.04.71-.1.09-.21.13-.33.13Z"
  />
  <path
    d="m177.51,198.73c-.22,0-.43-.15-.49-.38-.07-.27.1-.54.36-.61.78-.2,6.2-2.32,8.22-3.13.26-.1.55.02.65.28.1.26-.02.55-.28.65-.3.12-7.33,2.92-8.34,3.17-.04,0-.08.01-.12.01Z"
  />
  <path
    d="m184.18,202.37c-.17,0-.33-.09-.43-.24-.14-.24-.07-.54.17-.69l2.64-1.59c.24-.14.54-.07.69.17.14.24.07.54-.17.69l-2.64,1.59c-.08.05-.17.07-.26.07Z"
  />
  <path
    d="m183.62,205.5c-.05,0-.1,0-.15-.02-.25-.09-.4-.35-.32-.6.2-.65,2.45-3.28,3.41-4.38.18-.21.5-.23.71-.05.21.18.23.5.05.71-1.46,1.68-3.06,3.64-3.21,4.02-.08.2-.27.33-.48.33Z"
  />
  <path
    d="m149.83,293.65c-.18,0-.35-.1-.44-.26-.67-1.25-.89-2.12-.66-2.6,0-.7-1.4-3.96-1.75-4.36-.37-.42-.65-1.8-1.18-4.83-.13-.73-.26-1.45-.38-2.07-.34-1.76.5-2.96,1.24-3.56-.61-.91-1.92-2.94-2.08-3.85-.16-.91-2.01-18.27-1.61-20.42.17-.88-.04-2.96-.27-5.17-.24-2.41-.52-5.14-.36-6.95.17-1.89.09-4.5.02-6.79-.06-1.75-.1-3.27-.02-4.08.18-1.75.3-9.99.31-10.08,0-.27.23-.49.5-.49h0c.28,0,.5.23.49.51,0,.34-.13,8.37-.31,10.16-.08.74-.03,2.22.02,3.94.07,2.32.16,4.96-.02,6.91-.16,1.71.12,4.39.36,6.75.24,2.38.45,4.43.25,5.45-.34,1.81,1.36,18.66,1.61,20.06.12.69,1.42,2.74,2.2,3.88.08.12.11.27.08.41-.04.14-.13.26-.26.32-.06.03-1.57.86-1.19,2.79.12.62.25,1.35.38,2.09.28,1.59.71,4,.96,4.35.26.29,2.43,4.64,1.87,5.48,0,.15.29.97.66,1.66.13.24.04.55-.21.68-.08.04-.16.06-.24.06Z"
  />
  <path
    d="m144.3,277.47s-.09,0-.13,0c-.28-.02-.48-.27-.46-.54.02-.28.27-.46.54-.46.92.06,4.38-1.16,6.74-2.08-1.5-1.91-4.73-2.54-4.76-2.54-.27-.05-.45-.31-.4-.58.05-.27.32-.45.58-.4.17.03,4.26.81,5.78,3.52.07.13.08.28.04.41-.05.13-.15.24-.28.3-.62.25-5.96,2.38-7.63,2.38Z"
  />
  <path
    d="m146.31,278.89c-.23,0-.44-.17-.49-.41-.05-.27.13-.53.4-.58,4.64-.89,10.03-5.28,10.09-5.33.21-.17.53-.14.7.07.17.21.14.53-.07.7-.23.19-5.64,4.6-10.54,5.54-.03,0-.06,0-.09,0Z"
  />
  <path
    d="m151.47,280.12c-.18,0-.36-.1-.45-.28-.12-.25-.02-.55.23-.67,7.83-3.83,7.14-8.4,7.11-8.6-.05-.27.13-.53.41-.58.27-.05.53.13.58.4.04.22.9,5.48-7.65,9.67-.07.03-.15.05-.22.05Z"
  />
  <path
    d="m149.19,281.48c-.27,0-.49-.22-.5-.49,0-.28.21-.51.49-.51,4.56-.12,8.54-3.83,8.58-3.87.2-.19.52-.18.71.02.19.2.18.52-.02.71-.17.16-4.31,4.02-9.25,4.14h-.01Z"
  />
  <path
    d="m154.52,269c-.17,0-.31-.03-.43-.08-.66-.25-.9-.98-.92-1.07-.08-.27.07-.54.34-.62.11-.03.23-.02.33.02-2.01-1.53-6.58-4.12-7.42-4.51-.26-.09-.38-.36-.3-.62.09-.26.39-.39.65-.31.09.03,8.78,4.57,8.99,6.2.04.28-.08.53-.32.68-.36.23-.67.31-.93.31Zm.26-.83h.01-.01Zm-.72-.74s.06.1.08.15c.03.11.16.35.31.41.06.02.14.01.21-.01-.13-.15-.33-.34-.6-.55Z"
  />
  <path
    d="m191.84,295.86c-.17,0-.33-.09-.43-.24l-.74-1.23c-.82-1.36-2.92-12.97-2.79-14.49.11-1.36-1.15-9.36-1.65-11.27-.17-.63-.18-1.31-.2-2.17-.03-1.83-.08-4.6-1.77-9.57-1.18-3.49-2.06-6.71-2.77-9.29-.68-2.5-1.27-4.65-1.65-5.12-.55-.67-.55-2.01-.54-3.71,0-1.42,0-3.04-.38-4.09-.46-1.24-.7-3.21-.92-4.95-.18-1.44-.36-2.93-.61-3.38-.66-1.19-1.34-7.59-1.03-8.65.15-.51-.28-1.99-.59-3.08-.12-.44-.25-.86-.34-1.23-.39-1.54-.07-2.07.26-2.23.24-.12.55-.03.67.22.1.2.06.42-.09.57-.02.08-.07.4.13,1.2.09.36.21.78.33,1.2.49,1.72.8,2.9.59,3.63-.2.69.36,6.84.94,7.89.33.59.49,1.81.73,3.74.21,1.68.45,3.59.86,4.72.45,1.22.45,2.93.45,4.44,0,1.26,0,2.68.32,3.07.5.6.95,2.21,1.85,5.49.7,2.57,1.58,5.77,2.75,9.23,1.74,5.12,1.79,7.98,1.83,9.87.01.79.03,1.41.16,1.93.48,1.82,1.82,9.99,1.68,11.6-.13,1.56,2.02,12.85,2.65,13.89l.74,1.23c.14.24.07.54-.17.69-.08.05-.17.07-.26.07Zm-15.72-83.8s0,0,0,0t0,0Zm0,0h0Zm0,0h0Z"
  />
  <path
    d="m191.84,272.41c-1,0-10.76-8.12-10.76-8.95,0-.28.22-.5.5-.5.19,0,.36.11.44.26.74.91,8.83,7.95,9.86,8.19.26,0,.65-1.06.76-2.14.03-.28.28-.48.55-.45.27.03.48.27.45.54-.05.51-.36,3.04-1.8,3.04Zm-9.76-8.95h0,0Z"
  />
  <path
    d="m189.74,238.78c-.16,0-.33-.08-.42-.23-.47-.74-4.74-3.71-7.32-5.41-.23-.15-.29-.46-.14-.69.15-.23.46-.3.69-.14,1.14.75,6.89,4.57,7.61,5.71.15.23.08.54-.15.69-.08.05-.18.08-.27.08Z"
  />
  <path
    d="m188.88,236.86c-.14,0-.28-.06-.38-.18-.17-.21-1.7-2.01-1.99-2.46-.12-.18-.14-.4-.05-.6.07-.15.26-.62,2.2-1.02.26-.05.54.12.59.39.06.27-.12.53-.39.59-.49.1-1.01.26-1.3.38.39.5,1.17,1.45,1.71,2.08.18.21.15.53-.06.71-.09.08-.21.12-.32.12Z"
  />
  <path
    d="m151.71,80.12s-.02,0-.02,0c-.28-.01-.49-.25-.47-.52.07-1.45-2.1-5.55-2.95-7.01-.14-.24-.06-.54.18-.68.24-.14.54-.06.68.18.33.56,3.18,5.55,3.08,7.56-.01.27-.23.48-.5.48Z"
  />
  <path
    d="m154.77,84.27s-.06,0-.1,0c-.27-.05-.45-.32-.4-.59.75-3.84-2.47-8.14-2.5-8.18-.17-.22-.12-.53.1-.7.22-.17.53-.12.7.09.14.19,3.52,4.69,2.69,8.98-.05.24-.26.4-.49.4Z"
  />
  <path
    d="m156.69,85.58c-.06,0-.12-.01-.19-.04-.26-.1-.38-.39-.28-.65.69-1.74-.61-5.41-1.17-6.67-.11-.25,0-.55.25-.66.25-.11.55,0,.66.25.09.2,2.17,4.97,1.18,7.45-.08.2-.27.31-.46.31Z"
  />
  <path
    d="m159.27,86.04s-.07,0-.11-.01c-.27-.06-.44-.32-.38-.59.67-3.15-2.25-7.74-2.28-7.78-.15-.23-.08-.54.15-.69.23-.15.54-.08.69.15.13.2,3.17,4.98,2.41,8.53-.05.23-.26.4-.49.4Z"
  />
  <path
    d="m163.79,89.33h-.02c-.28,0-.49-.24-.48-.52.02-.46-.59-1.79-1.04-2.65-.13.43-.27.96-.38,1.45-.06.25-.3.41-.56.38-.26-.04-.44-.26-.43-.52,0-.01.06-1.09,0-2.88-.05-1.68-1.58-4.24-1.6-4.26-.14-.24-.07-.54.17-.69.23-.14.54-.07.69.17.07.11,1.68,2.8,1.74,4.75,0,.03,0,.06,0,.09.04-.02.08-.03.12-.05.16-.06.37-.01.51.1.34.29,1.82,3.14,1.78,4.16,0,.27-.23.48-.5.48Z"
  />
  <path
    d="m136.14,97.6c-.24,0-.46-.18-.49-.43-.02-.12-.42-2.94,0-5.08.05-.27.32-.45.59-.39.27.05.45.32.39.59-.39,1.97,0,4.71,0,4.73.04.27-.15.53-.42.57-.03,0-.05,0-.07,0Z"
  />
</svg>
