<svg xmlns="http://www.w3.org/2000/svg" viewBox="0 0 320 320" opacity="0.6">
  <path
    d="m183.31,282.71c-.31,0-.6-.03-.88-.08-.2-.04-.33-.24-.29-.44.04-.2.24-.34.44-.29,2.11.44,5.87-1.34,8.12-2.4,1.3-.61,1.94-.91,2.29-.91.21,0,.38.17.38.38s-.17.37-.37.38c-.22,0-1.15.45-1.97.84-2.19,1.04-5.37,2.54-7.71,2.54Zm-2.7-5.93c-.09,0-.17-.03-.24-.09-.16-.13-.18-.37-.04-.53.1-.11,2.38-2.77,4.79-2.77,1.68,0,4.71-4.4,5.73-6.09.11-.18.34-.23.52-.13s.23.34.13.51c-.4.66-3.97,6.45-6.37,6.45-2.06,0-4.19,2.48-4.21,2.51-.07.09-.18.13-.29.13Zm3.62-5.79c-.2,0-.39-.03-.58-.1-2.56-.89-4.5-8.58-4.29-9.21.06-.2.27-.31.47-.24.17.06.28.22.26.4.04.86,1.82,7.65,3.81,8.35,1.53.53,4.69-2.92,6.32-5.22.12-.17.35-.21.52-.09.17.12.21.35.09.52-.43.61-4.03,5.59-6.6,5.59Zm-46.78-2.6c-1.55,0-3.45-.49-5.62-1.47-.05-.02-4.63-2.15-4.39-2.92.06-.2.27-.31.47-.24.1.03.17.1.21.18.54.51,6.08,4.07,9.91,3.69,1.25-.12,2.14-.65,2.71-1.6.11-.18.34-.24.51-.13.18.11.24.34.13.51-.79,1.32-2.14,1.99-3.95,1.99Zm50.5-4.81c-.15,0-.29-.09-.35-.24-.07-.19.02-.41.22-.48,3.05-1.15,3.84-15.2,3.89-20.51,0-.21.16-.36.38-.37.21,0,.37.17.37.38-.02,2.01-.29,19.67-4.37,21.21-.04.02-.09.02-.13.02Zm-54.25-1.82s-.04,0-.07,0c-2.63-.14-3.32-2.35-3.32-3.5,0-.21.17-.37.37-.37h0c.21,0,.37.17.38.37,0,.11.04,2.62,2.62,2.76.01,0,.02,0,.03,0,1.79,0,3.33-8.5,3.86-14.58.02-.21.21-.35.41-.34.21.02.36.2.34.41-.22,2.56-1.5,15.26-4.62,15.26Zm5.16-21.1c-.2,0-.37-.16-.38-.36,0-.21.15-.38.36-.39,2.08-.08,5.91-.97,5.95-.98.21-.05.4.08.45.28.05.2-.08.4-.28.45-.16.04-3.94.92-6.09,1,0,0,0,0-.01,0Zm4.07-5.18c-.35,0-.72-.03-1.12-.1-.2-.03-.34-.23-.31-.43.04-.2.22-.35.43-.31,2.27.38,3.57-.63,3.62-.67.16-.13.4-.1.53.06.13.16.11.4-.05.53-.05.04-1.17.93-3.09.93Zm-3.84-3.12c-.22,0-.42-.01-.62-.03-.21-.02-.35-.21-.33-.42.02-.21.22-.35.42-.33,2.59.32,7.68-1.93,7.73-1.95.19-.08.41,0,.5.19.08.19,0,.41-.19.49-.2.09-4.65,2.04-7.51,2.04Zm39.88-2.01c-2.88,0-7.18-5.68-7.36-5.92-.12-.17-.09-.4.08-.52.16-.12.4-.09.52.07,1.17,1.56,4.68,5.62,6.76,5.62.21,0,.38.17.38.38s-.17.38-.38.38Zm5.21-55.24c-.17,0-.32-.11-.36-.28-.05-.2.07-.41.27-.46.05-.12-.03-.76-.2-1.39-1.27-.34-8.18-2.19-10.16-2.4-1.17-.13-6.83-.07-12.3-.02-4.78.05-9.73.1-11.65.02-4.21-.17-8.92-1.52-9.1-1.6-.19-.09-.27-.31-.18-.5.09-.18.3-.26.49-.18.31.12,4.86,1.38,8.82,1.54,1.89.07,6.83.03,11.61-.02,5.75-.06,11.17-.11,12.39.02,1.91.21,7.95,1.8,9.88,2.32-.14-.31-.13-.84-.11-1.72.02-.57.05-1.62-.1-1.81-.16-.06-.23-.21-.21-.39.03-.17.2-.29.37-.3.05,0,4.54-.33,5.43-.46.63-.09,4.66-1.97,7.05-3.14.18-.09.41-.01.5.17.09.19.01.41-.17.5-.64.31-6.32,3.07-7.27,3.2-.73.1-3.66.33-4.91.42.09.43.08,1.04.06,1.82-.01.43-.03,1.04.01,1.3.1.04.18.13.21.24.04.15-.01.3-.13.4.05.04.09.1.12.17.12.37.47,1.62.15,2.2-.09.17-.24.29-.41.33-.03,0-.07.01-.1.01Zm-12.57-6.77c-.92,0-1.61-.07-1.93-.26-.71-.41-4.56-.36-7.66-.32-3.22.04-6,.08-6.88-.25-1.61-.61-9.54-1.29-11.76-1.39-1.4-.07-2.93-.88-3.84-1.37-.26-.14-.55-.29-.66-.33-.15.01-.3-.08-.36-.22-.08-.19,0-.41.19-.49.25-.11.49.02,1.18.39.86.46,2.29,1.22,3.53,1.28,1.92.09,10.17.74,12,1.43.74.28,3.72.24,6.6.2,4.32-.06,7.22-.06,8.04.42.98.57,8.6-.4,13.44-1.18-.03-.03-.05-.07-.06-.11-.07-.19.03-.41.22-.48.08-.03,2.12-.77,3.24-.77.6,0,4.49-2.11,7.89-4.15.17-.1.41-.05.51.13.11.18.05.41-.13.51-1.19.71-7.16,4.25-8.27,4.25-.77,0-2.15.44-2.72.64.07.06.12.13.13.23.03.2-.1.4-.31.43-1.69.28-8.78,1.41-12.38,1.41Zm9.73-3.65c-.59,0-1.15-.05-1.5-.19-.74-.32-9.43-.52-10.57-.09-1.34.51-12.34-.68-16.63-1.65-3.05-.68-6.04-.44-8.22-.26-1.14.09-2.05.17-2.65.08-1.65-.24-3.81-.49-3.81-.49l.09-.75s2.18.25,3.83.49c.51.08,1.38,0,2.48-.09,2.23-.18,5.28-.43,8.44.27,4.99,1.12,15.27,2.02,16.21,1.67,1.29-.48,10.23-.28,11.13.11.56.24,2.39.11,3.4-.03.21-.03.39.12.42.32.03.21-.12.39-.32.42-.18.02-1.28.17-2.3.17Zm2.33-1.43c-.16,0-.3-.1-.35-.25-.03-.09-.03-.18,0-.26-.83.16-1.5-.48-2.09-1.06-.43-.41-.86-.84-1.35-1-1.34-.43-15.29-.57-17.63,0-1.56.38-5.71-.7-9.05-1.58-1.5-.39-3.19-.83-3.64-.84-.36.32-1.3.4-3.59.49-.75.03-1.46.05-1.82.11-.78.12-1.15-.26-1.4-.51-.21-.21-.29-.28-.51-.24-1.01.16-2.37-.36-2.43-.38-.19-.07-.29-.29-.21-.48.08-.19.29-.29.48-.22.01,0,1.24.47,2.04.34.62-.1.94.22,1.17.46.22.22.35.35.75.29.41-.06,1.1-.09,1.91-.12,1.06-.04,2.83-.1,3.12-.3.18-.36.54-.31,4.33.68,3.09.81,7.32,1.91,8.68,1.57,2.56-.63,16.5-.49,18.04,0,.66.21,1.18.72,1.65,1.17.8.78,1.18,1.06,1.73.74.18-.1.41-.04.51.14.06.11.07.23.02.34,1.27-.46,3.55-1.35,4.1-1.9.86-.85,5.78-2.84,6.33-3.06.19-.08.41.02.49.21s-.02.41-.21.49c-2.13.86-5.52,2.34-6.09,2.9-.87.86-4.45,2.1-4.85,2.24-.04.01-.08.02-.12.02Zm.26-4.03c-.19,0-.35-.14-.37-.33-.03-.21.12-.39.32-.42.56-.07,2.15-.4,2.74-1,.85-.86,5.53-2.88,6.06-3.11.19-.08.41,0,.49.2.08.19,0,.41-.2.49-2.03.87-5.26,2.38-5.82,2.95-.9.91-3.08,1.21-3.18,1.22-.02,0-.03,0-.05,0Zm-1.25-1.46c-.11,0-.22-.05-.29-.14-.29-.18-1.86-.48-2.9-.68l-1.02-.2c-.75-.15-3.54-.05-6.23.04-3.53.12-7.18.25-8.31-.05-.2-.05-.32-.26-.27-.46.05-.2.26-.32.46-.27,1.03.27,4.79.14,8.1.02,2.99-.1,5.57-.2,6.4-.03l1.01.2c2.51.49,3.17.65,3.37.99.11.18.04.41-.13.51-.06.03-.12.05-.19.05Zm-20.65-1.53c-.07,0-.15-.02-.21-.07-.09-.06-.14-.15-.16-.25-.21-.11-1.11-.42-4.64-.42-3.21,0-4.8-.71-5.86-1.18-.8-.36-1.15-.5-1.66-.26-1.63.77-8.85.8-9.16.81h0c-.21,0-.37-.17-.38-.37,0-.21.17-.38.37-.38,2.04,0,7.62-.16,8.84-.73.84-.39,1.48-.11,2.28.25,1,.44,2.51,1.11,5.56,1.11,4.9,0,5.21.58,5.34.83.1.2.06.39-.02.5-.07.11-.19.16-.31.16Zm-.31-.58h0,0Zm0,0s0,0,0,0c0,0,0,0,0,0Zm24.64-1.71s-.05,0-.08,0c-.21-.01-.36-.19-.35-.4.01-.21.18-.38.4-.35.92.05,3.78-1.74,5.37-2.89.17-.12.4-.08.52.08.12.17.08.4-.08.52-.43.31-4.23,3.03-5.78,3.03Zm-31.19-2.23c-1.68,0-3.12-.62-4.26-1.1-.41-.17-.78-.34-1.13-.45-1.29-.43-6.83.44-8.86.81-.21.04-.4-.1-.44-.3-.04-.2.1-.4.3-.44.77-.14,7.53-1.35,9.24-.79.36.12.76.29,1.19.47,1.53.65,3.43,1.47,5.71.78.2-.06.41.05.47.25.06.2-.05.41-.25.47-.69.21-1.34.29-1.96.29Zm30.48-.81c-.14,0-.27-.01-.41-.04-2.73-.6-3.77-1-3.98-1.54-.47-.31-3.48-.52-4.7-.43-.22.02-.56.05-.97.09-2.27.22-4.56.42-5.48.15-.2-.06-.31-.27-.25-.47s.26-.31.47-.25c.85.25,3.67-.02,5.19-.17.42-.04.76-.07.98-.09.05,0,5.18-.17,5.46.92.11.15.81.48,3.43,1.06.92.2,1.88-.78,1.89-.79l3.65-2.96c.16-.13.4-.11.53.05s.11.4-.05.53l-3.61,2.93s-.99,1.02-2.14,1.02Zm-4.41-1.66h0s0,0,0,0Zm-24.07-1.33c-1.17,0-3.46-.44-6.83-1.33-.2-.05-.32-.26-.27-.46.05-.2.26-.32.46-.27,2.98.78,6.51,1.5,7,1.31.14-.15.35-.14.5,0,.15.14.14.4,0,.55-.12.13-.41.2-.86.2Zm8.43-1.16c-.09,0-.19-.04-.26-.11-.21-.21-1.26-.2-2.06-.06-.21.03-.4-.1-.43-.31-.04-.2.1-.4.3-.43.49-.08,2.12-.32,2.72.26.15.15.15.38,0,.53-.07.07-.17.11-.27.11Zm20.72,0s-.07,0-.11-.02c-.19-.06-.31-.26-.25-.46.25-.84,2.94-2.37,4.08-2.98.18-.1.41-.03.51.15.1.18.03.41-.15.51-1.69.91-3.58,2.15-3.72,2.54-.05.16-.2.26-.36.26Zm-20.06-1.37c-.1,0-.2-.04-.27-.12-.83-.87-2.99-.74-3.76-.61-.2.04-.4-.1-.43-.31-.03-.2.1-.4.31-.43.13-.02,3.15-.51,4.42.83.14.15.14.39-.01.53-.07.07-.17.1-.26.1Zm10.98-39.59s-.08,0-.11-.02c-.2-.06-.31-.27-.24-.47.36-1.13-1.24-3.47-1.88-4.27-.13-.16-.1-.4.06-.53.16-.13.4-.1.53.06.26.33,2.56,3.26,2.01,4.97-.05.16-.2.26-.36.26Zm-28.33-1.07c-.16,0-.31-.11-.36-.27-.46-1.56-.03-3.65,0-3.73.04-.2.24-.33.45-.29.2.04.33.24.29.44,0,.02-.42,1.99,0,3.37.06.2-.05.41-.25.47-.04.01-.07.02-.11.02Zm27.63-3.96s-.07,0-.11-.02c-.2-.06-.31-.27-.25-.47.37-1.24-1.13-2.65-1.15-2.67-.15-.14-.16-.38-.02-.53.14-.15.38-.16.53-.02.08.07,1.87,1.75,1.35,3.43-.05.16-.2.27-.36.27Zm-26.74-2.08s-.1,0-.14-.03c-.19-.08-.28-.3-.2-.49,1.09-2.65,2.47-4.31,4.09-4.93,1.46-.56,2.56-.04,2.61-.01.19.09.26.31.17.5-.09.19-.32.26-.5.17h0s-.89-.4-2.04.05c-1.39.54-2.65,2.1-3.64,4.51-.06.15-.2.23-.35.23Zm23.97-3.2c-.18,0-.35-.14-.37-.32-.03-.1-.38-.71-4.4-2.43-2.52-1.07-5.57.7-5.6.72-.17.11-.41.05-.51-.13-.1-.18-.05-.41.13-.51.14-.08,3.42-1.98,6.28-.76,4.13,1.76,4.77,2.49,4.84,3.01.03.21-.11.39-.32.42-.02,0-.04,0-.05,0Zm-13.65-1.15c-.11,0-.21-.05-.29-.13-.11-.13-2.69-3.1-7.67-1.82-.2.05-.41-.07-.46-.27-.05-.2.07-.4.27-.46,5.46-1.4,8.31,1.92,8.43,2.06.13.16.11.39-.05.53-.07.06-.16.09-.24.09Zm.62-1.94c-.14,0-.28-.08-.34-.22-.04-.1-1.15-2.49-4.26-1.24-.19.07-.41-.02-.49-.21-.08-.19.02-.41.21-.49,3.8-1.52,5.21,1.61,5.22,1.64.08.19,0,.41-.19.49-.05.02-.1.03-.15.03Zm12.33-1.44c-.08,0-.17-.03-.24-.08-1.65-1.33-4.26-.34-4.29-.33-.19.07-.41-.02-.49-.21-.08-.19.02-.41.21-.49.12-.05,3.04-1.16,5.03.45.16.13.19.37.06.53-.07.09-.18.14-.29.14Zm-10.56,0c-.11,0-.21-.04-.28-.13-.13-.16-.12-.39.04-.53l.07-.06c2.15-1.99,4.14-1.91,5.44-1.49.2.06.31.28.24.47-.06.2-.28.3-.47.24-1.1-.36-2.81-.42-4.7,1.33l-.09.08c-.07.06-.16.09-.25.09Z"
  />
  <path
    d="m176.88,174.61c-1.61,0-3.14-.1-4.17-.4-2.31-.67-16.17-.6-23.62-.57-2.51.01-4.32.02-5.02,0-2.91-.09-5.73-1.55-5.85-1.61-.18-.1-.25-.32-.16-.51s.32-.25.51-.16c.03.01,2.79,1.44,5.53,1.53.69.02,2.59.01,4.99,0,8.01-.04,21.42-.11,23.83.6,2.33.68,7.72.25,10.02.06,1.16-.09,1.25-.1,1.37-.06.2.06.31.27.24.47-.06.2-.27.3-.47.24-.03,0-.54.05-1.08.09-1.48.12-3.88.31-6.12.31Zm-14.72-11.35c-.2,0-.36-.16-.38-.36l-.17-3.39s0-.09.02-.13c-.75-.08-1.42-.29-1.55-.74-.19-.64.72-1.06,1.06-1.22.04-.02.09-.03.14-.03.1,0,.27-.01.5-.01l-.17-1.97s0-.09.01-.14c-.56-.19-.99-.46-1.11-.79-.09-.25-.11-.72.79-1.1.05-.02.11-.03.17-.03.8.04,3.45.27,3.75,1.43.07.27-.03.61-.53.77-.47.14-1.43.11-2.31-.07l.16,1.89s0,.02,0,.02c.91.03,2.01.17,2.45.58.2.19.24.4.24.54,0,.58-.78.76-1.37.85-.23.03-.84.08-1.5.07,0,.02,0,.03,0,.05l.17,3.39c0,.21-.15.38-.36.39,0,0-.01,0-.02,0Zm-1.29-4.82c.2.09.69.22,1.54.24.98.02,1.73-.11,2.01-.23-.32-.22-1.67-.37-3.03-.31-.29.14-.44.24-.52.31Zm.35-4.14c.06,0,.37.22,1.2.41.89.2,1.68.21,1.99.13-.33-.37-1.69-.67-2.9-.74-.25.12-.3.2-.3.2,0,0,0,0,0,0Zm-23.15,7.87c-.96,0-2.16-1.17-2.55-1.58-.14-.15-.14-.39.01-.53.15-.14.39-.14.53.01.75.78,1.83,1.51,2.13,1.32.18-.11.41-.06.52.12.11.18.06.41-.12.52-.16.1-.33.14-.51.14Zm.6-2.29c-.97,0-1.57-.81-1.97-1.35-.12-.16-.28-.39-.36-.43-.19-.07-.29-.29-.21-.48.08-.19.3-.29.49-.21.26.1.44.35.68.68.47.64.87,1.12,1.5,1.04.22-.02.39.12.42.32.03.21-.12.39-.32.42-.08.01-.16.02-.23.02Zm22.18-3.64s-.07,0-.1-.01c-1.49-.43-5.59-7.24-6.32-9.19-.8-2.16-3.34-7.19-3.36-7.24-.09-.19-.02-.41.17-.5.18-.09.41-.02.5.17.1.21,2.58,5.11,3.4,7.32.85,2.29,4.83,8.44,5.82,8.73.2.06.31.27.26.46-.05.16-.2.27-.36.27Zm23.34-1c-.63,0-1.36-.17-1.79-.82-.6-.91-2.54-1.4-6.5-1.64-2.17-.13-4.09-.03-5.62.05-1.28.07-2.21.12-2.79,0-.2-.04-.34-.23-.3-.44.04-.2.22-.34.44-.3.49.09,1.43.04,2.61-.02,1.55-.08,3.49-.18,5.71-.05,4.34.26,6.32.82,7.08,1.98.54.82,2.08.35,2.1.35.2-.06.41.05.47.25.06.2-.05.41-.25.47-.04.01-.55.17-1.16.17Zm-44.8-.33c-1.69,0-2.49-1.15-3.15-2.09-.47-.67-.88-1.26-1.51-1.4-1.94-.45-6.6-3.52-6.8-3.65-.17-.11-.22-.35-.11-.52.12-.17.35-.22.52-.11.05.03,4.75,3.13,6.56,3.55.91.21,1.44.97,1.95,1.7.71,1.01,1.38,1.97,3.02,1.73.21-.02.39.12.42.32.03.21-.11.4-.32.42-.21.03-.4.04-.58.04Zm21.1-3.71c-.19,0-.45-.07-.68-.37-.55-.73.51-1.75.73-1.94,0,0,.02-.02.03-.02l.52-.39c.09-.07.22-.09.33-.06.11.03.21.12.25.23.04.11.38,1.1-.04,1.74-.24.36-.63.8-1.11.82,0,0-.02,0-.03,0Zm.54-1.74c-.42.38-.68.84-.62.92.03.03.06.07.08.07h0c.08,0,.28-.13.51-.48.08-.13.1-.34.07-.55l-.04.03Zm-21.17,1.74c-.79,0-2.06-1.18-4.19-3.4-.37-.39-.67-.71-.83-.85-.47-.42-3.49-1.72-5.28-2.44-.19-.08-.28-.3-.21-.49s.29-.29.49-.21c.49.2,4.77,1.93,5.5,2.58.17.15.48.48.88.89.75.79,3.03,3.17,3.63,3.17,0,0,.01,0,.02,0,.2-.05.4.08.45.28.05.2-.08.4-.29.45-.05.01-.1.02-.16.02Zm45.84-4.16c-.05,0-.1-.01-.15-.03-.74-.33-1.56-.57-1.75-.5-.44.31-1.64.08-1.88.04-.54-.11-1.49-.38-1.86-.94-.07-.11-.21-.09-.73.09-.54.18-1.21.41-1.85.04-1.09-.64-3.61-1.52-4.79-.79-.17.11-.41.05-.52-.12-.11-.18-.05-.41.12-.52,1.72-1.05,4.83.35,5.57.79.35.2.77.06,1.23-.1.51-.17,1.2-.41,1.61.22.35.55,2.35.85,2.71.68.5-.34,1.75.14,2.46.45.19.08.27.31.19.5-.06.14-.2.22-.34.22Zm-45.76-.43s-.01,0-.02,0c-.81-.04-1.36-1.15-1.81-2.05-.13-.26-.29-.59-.37-.67-.02,0-.2.03-.3.06-.37.09-.92.22-1.51-.16-.83-.53-4.25-3.26-4.4-3.37-.16-.13-.19-.36-.06-.53.13-.16.37-.19.53-.06.04.03,3.54,2.81,4.34,3.33.32.21.62.14.93.06.3-.07.71-.17,1.02.16.14.15.27.41.49.85.26.52.8,1.61,1.17,1.63.21,0,.37.19.36.39,0,.2-.18.36-.38.36Zm46.54-3.39c-.05,0-.11-.01-.16-.04-.64-.31-2.63-1.06-3.43-.53-.73.48-1.58.17-2.27-.08-.28-.1-.71-.25-.82-.2-.12.34-.29.46-.42.52-.44.18-1.02-.11-1.81-.53-1-.52-2.25-1.17-2.99-.61-.16.12-.4.09-.53-.07-.12-.17-.09-.4.07-.52,1.12-.84,2.66-.04,3.79.55.41.21,1.02.53,1.18.5.03-.22.17-.39.37-.5.4-.2.89-.02,1.41.17.58.21,1.18.43,1.6.16,1.29-.85,3.88.35,4.17.49.19.09.27.31.18.5-.06.13-.2.21-.34.21Zm-46.87-2.11c-.12,0-.24-.06-.32-.17-1.22-1.91-6.09-3.94-6.14-3.96-.19-.08-.28-.3-.2-.49.08-.19.3-.28.49-.2.21.09,5.13,2.14,6.48,4.24.11.17.06.41-.11.52-.06.04-.13.06-.2.06Zm47.95-1.11s-.03,0-.05,0c-2.13-.26-5.77-.55-6.47-.18-.11.06-.24.06-.35,0-.71-.39-1.51-.69-1.7-.65-.3.23-.81.04-1.52-.23-.44-.16-1.17-.44-1.39-.34-.82.36-1.82-.03-1.87-.04-.19-.08-.29-.29-.21-.48.07-.19.29-.29.48-.22.21.08.86.25,1.29.06.51-.22,1.24.06,1.96.32.31.12.78.28.92.28.38-.3,1.41.12,2.24.56,1.4-.45,5.8.07,6.71.18.21.03.35.21.33.42-.02.19-.19.33-.37.33Zm-8.66-2.71c-.57,0-1.29-.36-2-.72-.43-.21-1.14-.57-1.33-.53-.19.09-.41,0-.49-.19-.09-.19,0-.41.19-.5.45-.21,1.12.12,1.97.54.48.24,1.6.8,1.78.6.74-.82,4.18-.39,5.22-.24.21.03.35.22.32.42-.03.2-.21.35-.42.32-1.95-.28-4.24-.35-4.56,0-.18.2-.41.28-.68.28Z"
  />
  <path
    d="m160.85,170.59c-.16,0-.31-.1-.36-.27-.06-.2.05-.41.25-.47,1.74-.53,17.09-5.15,19.79-3.62.65.37.73.77.68,1.05-.24,1.35-4.85,2.24-6.82,2.56-.21.04-.4-.11-.43-.31-.03-.2.11-.4.31-.43,3.19-.52,6.15-1.45,6.2-1.95h0s-.03-.1-.31-.26c-1.84-1.04-12.49,1.63-19.21,3.68-.04.01-.07.02-.11.02Zm24.96-3.65c-.08,0-.17-.03-.24-.09-.16-.13-.18-.37-.05-.53,5.1-6.07,2.91-16.54,2.89-16.64-.04-.2.08-.4.29-.45.21-.04.4.09.45.29.1.44,2.29,10.92-3.05,17.28-.07.09-.18.13-.29.13Zm0-4.35s-.08,0-.12-.02c-.2-.07-.3-.28-.23-.48,1.59-4.67,2.12-15.77,2.13-15.89,0-.21.2-.36.39-.36.21,0,.37.19.36.39-.02.46-.54,11.32-2.17,16.09-.05.16-.2.25-.35.25Zm-49.68-3.71c-.2,0-.36-.15-.37-.35-.08-1.48,2.79-5.84,3.12-6.33.12-.17.35-.22.52-.1.17.12.22.35.1.52-1.19,1.78-3.05,4.94-3,5.87.01.21-.15.38-.35.4,0,0-.01,0-.02,0Zm25.32-5.2c-.17,0-.32-.11-.36-.28-.36-1.35-1.33-3.93-2.04-5.8-.36-.95-.64-1.7-.74-2.01-.2-.63-4.53-7.36-7.22-11.45-.11-.17-.07-.41.11-.52.17-.11.4-.07.52.11.72,1.09,7.01,10.69,7.3,11.63.1.3.38,1.04.73,1.97.72,1.89,1.7,4.49,2.07,5.88.05.2-.07.41-.27.46-.03,0-.06.01-.1.01Zm-26.33-.9c-.19,0-.35-.14-.37-.33-.29-2.36,1.31-7.73,1.38-7.95.06-.2.27-.31.47-.25.2.06.31.27.25.47-.02.05-1.62,5.44-1.36,7.65.03.21-.12.39-.33.42-.01,0-.03,0-.04,0Zm2.61-16.71c-.17,0-.32-.11-.36-.27-.06-.2.06-.41.26-.46.07-.02,7-1.91,12.85-1.3.21.02.36.21.33.41-.02.21-.2.35-.41.33-5.7-.6-12.5,1.26-12.57,1.28-.03,0-.07.01-.1.01Zm-1.94-1.75c-.11,0-.21-.05-.29-.14-.13-.16-.11-.4.05-.53.53-.44,3.21-1.29,7.95-2.52l.21-.05c.33-.08.57.09.75.23.25.18.45.33.94.14,1.11-.44,3.59-.78,3.98-.73.21.02.35.21.33.42-.03.2-.2.35-.42.33-.26-.02-2.57.27-3.62.69-.87.34-1.36-.02-1.65-.23-.06-.04-.13-.1-.17-.11l-.17.05c-6.49,1.69-7.51,2.24-7.67,2.37-.07.06-.15.09-.24.09Zm7.2-4.4l-.19-.73s4.97-1.31,5.3-1.39c.2-.05.4.07.45.28s-.07.4-.28.45c-.33.08-5.28,1.39-5.28,1.39Z"
  />
  <path
    d="m173.44,231.85c-.1,0-.19-.04-.27-.11-2.96-2.96-2.47-6.66-2.29-7.57l-8.29-8.85c-.14-.15-.13-.39.02-.53.15-.14.39-.13.53.02l8.42,8.99c.09.09.12.22.09.35,0,.04-.97,4.04,2.05,7.06.15.15.15.38,0,.53-.07.07-.17.11-.27.11Zm-32.6-84.57c-.18,0-.34-.14-.37-.32-.03-.21.11-.39.32-.42.75-.1,7.35-1,9.18-.02.18.1.25.33.15.51-.1.18-.33.25-.51.15-1.36-.73-6.76-.18-8.72.1-.02,0-.04,0-.05,0Zm17.36-2.29s-.09,0-.14-.03c-.02,0-1.64-.63-5.45-1.76-3.75-1.11-12.14,0-12.22.01-.2.03-.39-.12-.42-.32-.03-.21.12-.39.32-.42.35-.05,8.63-1.15,12.54.01,3.85,1.14,5.44,1.75,5.51,1.78.19.07.29.29.21.48-.06.15-.2.24-.35.24Zm-17.86-5.77c-.19,0-.35-.14-.37-.33-.02-.21.13-.39.33-.41.27-.03,6.57-.7,10.18-.29,2.7.31,3.31-.05,3.39-.11.08-.15.24-.23.41-.19.2.04.33.25.29.45-.11.48-.92.97-4.18.6-3.53-.4-9.95.28-10.02.29-.01,0-.03,0-.04,0Zm13.5-1.06h0s0,0,0,0Zm0,0h0s0,0,0,0Zm0,0h0Z"
  />
  <path
    d="m138.43,316.8c-3.47,0-7.52-1.72-9.29-3.62-1.92-2.04,1.04-7.33,1.59-8.27.13-8.43-3.47-15.98-3.5-16.05-.09-.19-.01-.41.17-.5.19-.09.41-.01.5.17.04.08,3.74,7.84,3.58,16.49,0,.07-.02.13-.05.19-.94,1.58-3.1,6.02-1.74,7.46,1.66,1.78,6.45,3.93,10.18,3.27,3.69-.66,4.88-.95,5.31-2.84.49-2.14.87-8.2,0-11.27-.39-1.39-1.35-3.69-2.27-5.91-1.47-3.54-2.37-5.75-2.28-6.54.03-.2.2-.35.42-.33.21.03.35.21.33.42-.08.63,1.2,3.7,2.23,6.16.93,2.24,1.9,4.55,2.3,5.99.92,3.24.52,9.38,0,11.65-.56,2.46-2.35,2.78-5.91,3.42-.5.09-1.03.13-1.57.13Zm-7.33-11.79h0,0Zm11.33-13.23c-.11,0-.22-.05-.29-.14-.13-.16-.1-.4.06-.53.98-.78.35-3.97.03-4.5-.1-.07-.17-.18-.17-.31,0-.21.17-.38.38-.38.34,0,.49.36.61.7.41,1.17.89,4.08-.37,5.08-.07.06-.15.08-.23.08Zm36.88-2.72c-.07,0-.14,0-.2,0-1.69-.06-3.88-1.43-4.78-3-.52-.92-.58-1.81-.16-2.58.74-1.36.65-3.45.54-5.86-.05-1.2-.11-2.45-.08-3.78.04-1.78.19-2.81.31-3.72.18-1.24.33-2.3.19-4.91-.14-2.63-.49-6.62-.78-9.83-.22-2.46-.4-4.58-.45-5.5-.03-.73-.23-2.24-.47-3.98-.53-3.95-.87-6.71-.67-7.73-.29-.37-.87-1.33-1.19-3.42-.44-2.84,2.27-4.74,2.39-4.82.17-.12.41-.07.52.1.12.17.07.4-.1.52-.02.02-2.44,1.71-2.07,4.08.38,2.43,1.12,3.15,1.12,3.16.12.11.15.29.09.43-.28.6.3,4.96.65,7.57.24,1.76.44,3.28.47,4.04.04.91.23,3.02.44,5.47.28,3.22.63,7.22.78,9.86.15,2.68-.01,3.79-.19,5.06-.13.93-.27,1.89-.31,3.63-.03,1.31.03,2.54.08,3.73.11,2.52.21,4.7-.62,6.25-.29.54-.24,1.16.15,1.85.77,1.35,2.71,2.58,4.15,2.63,2.28.07,12.55-1.48,13.55-1.87.28-.11.68-.66.36-3.17l-.02-.14c-.34-2.81-.25-4.44.25-5.06.53-.78.93-10.83.22-11.93-.8-1.26-.61-3.79.12-4.42.16-.43.14-2.77.13-4.65-.03-3.06-.05-6.22.37-7.34.7-1.86,1.22-17.83,1.11-21.38-.1-3.14-6.34-10.48-7.05-11.21-.14-.15-.14-.39.01-.53.15-.14.39-.14.53.01.07.07,7.14,8,7.25,11.71.11,3.44-.36,19.57-1.16,21.67-.38.99-.35,4.36-.33,7.07.04,4.23-.02,4.96-.39,5.23-.35.25-.66,2.39.02,3.45.79,1.24.57,11.78-.28,12.81-.13.16-.52.94-.1,4.44l.02.2c.21,1.62.3,3.53-.83,3.97-1.04.41-10.93,1.93-13.65,1.93Z"
  />
  <path
    d="m185.89,313.23c-.76,0-1.58-.05-2.48-.1-4.26-.24-7.89-3.43-9.67-5.31-1.11-1.17-1-4.04-.9-5.22.18-2.14.78-4.62,1.72-5.32.75-.56.63-1.41.32-3.27-.15-.86-.33-1.93-.41-3.16-.24-3.55.35-4.31.62-4.48.18-.11.41-.05.52.13.1.16.06.37-.08.49-.05.06-.51.74-.3,3.81.08,1.2.25,2.2.41,3.09.31,1.82.54,3.14-.61,4-.53.4-1.21,2.3-1.42,4.78-.19,2.21.08,3.99.7,4.64,1.7,1.8,5.16,4.85,9.16,5.07,2.53.15,4.53.27,5.5-.68.58-.57.84-1.57.78-3.05-.08-2.04-.68-3.36-1.27-4.63-.69-1.49-1.4-3.03-1.21-5.63.2-2.83.71-5.77,1.05-7.71.19-1.09.38-2.21.35-2.42-.03-.2.11-.4.31-.43.2-.03.39.1.43.3.05.31-.07,1.04-.35,2.67-.34,1.93-.84,4.85-1.04,7.64-.17,2.41.47,3.8,1.15,5.27.62,1.34,1.25,2.72,1.33,4.91.06,1.73-.26,2.87-1.01,3.61-.81.8-2.04,1-3.58,1Zm-54.32-26.49c-4.45,0-8.73-2.72-8.93-2.85-.17-.11-.22-.34-.11-.52.11-.17.35-.22.52-.11.05.03,5.06,3.22,9.65,2.66,4.68-.57,9.52-2.67,9.56-2.69.19-.08.41,0,.49.19.08.19,0,.41-.19.49-.05.02-4.99,2.17-9.78,2.75-.41.05-.81.07-1.22.07Zm47.54-.54c-2,0-4.35-2.25-4.46-2.35-.15-.14-.15-.38,0-.53.14-.15.38-.15.53,0,.68.65,2.74,2.31,4.15,2.13.24-.03.62-.07,1.11-.13,7.53-.85,11.66-1.65,12.27-2.38.13-.16.37-.18.53-.05.16.13.18.37.05.53-.98,1.18-7,2-12.76,2.65-.48.05-.86.1-1.1.13-.1.01-.21.02-.31.02Zm-39.27-2.25c-.07,0-.14-.02-.2-.06-.18-.11-.23-.34-.12-.52.09-.15-.29-.87-.44-1.13-.3-.56-.54-1-.38-1.35.05-.11.13-.2.25-.26.17-.66-.23-3.94-.47-5.93-.22-1.85-.36-3-.33-3.44.08-1.17.71-2.9,1.13-3.41.05-.29-.07-1.47-.19-2.61-.19-1.8-.45-4.27-.45-6.65,0-2.19.74-5.09,1.46-7.9.75-2.93,1.52-5.95,1.35-7.9-.34-3.98.87-6.51,1.71-7.17.34-.27.07-2.52-.03-3.37-.09-.77-.14-1.22-.11-1.49.1-.9,1-2.05,2.11-2.68.67-.38.3-3.01-.11-4.26-.23-.69.1-1.49.32-1.9.32-.59.85-1.25,1.33-1.38.28-.12.8-1.42,1.05-2.04.13-.33.25-.63.36-.85.37-.78,1.12-1.86,3.34-2.15,1.18-.16,4.99-4.13,6.82-6.04,1.76-1.84,1.8-1.88,2.09-1.78.2.06.31.27.24.47-.04.11-.12.2-.23.24-.19.15-.89.88-1.57,1.59-3.06,3.2-5.93,6.09-7.26,6.26-1.83.24-2.42,1.01-2.76,1.73-.1.21-.22.5-.34.81-.56,1.4-.98,2.32-1.55,2.48-.14.04-.55.41-.87,1.01-.27.51-.38,1-.27,1.31.01.04,1.28,4.28-.23,5.15-.96.54-1.67,1.53-1.73,2.1-.02.19.05.76.11,1.32.25,2.06.37,3.56-.25,4.05-.61.48-1.75,2.69-1.43,6.51.18,2.07-.58,5.02-1.38,8.15-.71,2.76-1.43,5.62-1.43,7.71,0,2.35.26,4.79.45,6.57.25,2.42.28,2.91.02,3.17-.23.23-.88,1.84-.96,2.98-.03.39.15,1.8.33,3.29.63,5.2.65,6.35.2,6.63.06.17.21.45.32.65.36.67.74,1.37.42,1.89-.07.11-.19.18-.32.18Zm35.64-2.55c-.11,0-.22-.05-.3-.15-.13-.16-.1-.4.07-.53.94-.72,1.98-7.16,1.7-7.89-.22-.55-1.11-5.57-.27-6.14.33-.26.88-2.41.52-3.25-.49-1.16.36-7.2.64-8.47.22-.99-.82-6.63-1.38-9.67-.26-1.4-.46-2.5-.51-2.91-.16-1.38-.2-4.84-.02-5.88.12-.72-.75-3.04-1.62-4.89-.54-1.15.01-2.42.41-3.35.09-.21.17-.4.23-.57.22-.6-1.07-2.41-1.81-3.16-.52-.52-.59-1.5-.67-2.54-.03-.35-.05-.71-.1-1.06-.08-.62-.34-1.15-.98-2.45-.62-1.27-1.56-3.18-2.99-6.52-1.48-3.48-2.94-4.6-3.9-4.92-.87-.29-1.44.02-1.46.03-.18.1-.41.04-.51-.14-.1-.18-.05-.4.13-.51.03-.02.85-.49,2.05-.1,1.62.53,3.1,2.33,4.39,5.35,1.42,3.32,2.36,5.22,2.98,6.49.66,1.34.96,1.94,1.05,2.68.05.36.07.74.1,1.1.06.85.13,1.74.45,2.06.02.02,2.48,2.59,1.99,3.94-.07.18-.15.39-.25.61-.36.84-.82,1.89-.42,2.74.45.95,1.88,4.15,1.68,5.33-.15.9-.14,4.23.02,5.66.04.39.25,1.48.5,2.86.86,4.65,1.61,8.91,1.37,9.96-.35,1.58-1.02,7.19-.68,8.01.47,1.11-.13,3.72-.8,4.17-.21.44.21,4.4.55,5.24.42,1.06-.73,7.84-1.94,8.77-.07.05-.15.08-.23.08Z"
  />
  <path
    d="m131.85,284.86c-.09,0-.18-.03-.25-.09-.83-.73-3.67-2.59-4.04-2.83-1.72-.58-4.5-1.49-4.76-1.54-.21,0-.35-.17-.35-.37s.19-.37.4-.37c.06,0,.19,0,3.22,1-.02-.02-.05-.04-.08-.07-1.19-1.1-1.78-1.81-1.5-2.37.12-.23.38-.25.47-.26,1.3-.1,11.06,2.38,12.63,4.58.12.17.08.4-.09.52-.17.12-.4.08-.52-.09-1.28-1.79-9.94-4.18-11.75-4.28.13.2.47.6,1.26,1.33.1.1.19.18.24.23.15.15.15.38,0,.53-.02.02-.05.04-.08.06.36.12.74.25,1.17.39.03,0,.06.02.08.04.13.09,3.25,2.1,4.18,2.92.16.14.17.38.03.53-.07.08-.18.13-.28.13Zm32.47-59.34c-5.89,0-13.75-.1-14.25-.11-.21,0-.37-.17-.37-.38,0-.21.17-.37.38-.37h0c.19,0,18.52.25,20.43,0,.22-.02.39.12.42.32.03.21-.12.39-.32.42-.67.09-3.21.11-6.29.11Zm30.65-3.24c-.12,0-.23-.05-.3-.15-.12-.17-.09-.4.08-.52,0,0,.81-.62,1.1-1.7.18-.65-1.76-3.9-3.65-6.52-.12-.17-.08-.4.09-.52.17-.12.4-.08.52.08.97,1.35,4.12,5.86,3.77,7.16-.36,1.34-1.34,2.07-1.38,2.1-.07.05-.14.07-.22.07Z"
  />
  <path
    d="m202.21,287.67c-1.9,0-2.57-1.54-3.11-2.79l-.1-.23c-.58-1.32-4.38-13.54-4.54-14.06-.06-.2.05-.41.25-.47.2-.06.41.05.47.25.04.13,3.95,12.69,4.52,13.98l.1.23c.55,1.27,1.08,2.47,2.67,2.33.39-.03.69-.18.92-.45.5-.6.49-1.62.48-1.88-.62-1.32-8.02-17.33-7.99-21.96.03-4.64-.6-41.04-.61-41.4,0-.21.16-.38.37-.38h0c.2,0,.37.16.38.37,0,.37.64,36.77.61,41.42-.03,4.56,7.87,21.53,7.95,21.7.02.04.03.08.03.12,0,.06.14,1.56-.64,2.49-.36.43-.84.67-1.43.71-.1,0-.21.01-.3.01Z"
  />
  <path
    d="m200.34,285.34s-.01,0-.02,0c-.21-.01-.37-.19-.36-.39,0-.08.11-1.95,1.56-2.16.88-.13,1.96.18,2.58.73.33.29.5.63.49.98,0,.21-.19.38-.38.37-.21,0-.37-.18-.37-.38,0-.12-.08-.26-.24-.4-.46-.4-1.32-.64-1.97-.55-.84.12-.92,1.44-.92,1.46-.01.2-.18.36-.37.36Zm-64.2-122.1c-.17,0-.32-.11-.36-.28-.05-.2.07-.41.27-.46l1.4-.37c.14-.38.47-1.23.91-2,.36-.62.92-4,1.25-6.01.16-.98.29-1.75.37-2.07.13-.52.21-1.82.29-2.97.07-1,.12-1.85.21-2.27.04-.22,0-.37-.1-.72-.19-.66-.51-1.77-.41-4.6.15-4.02-3.64-6.49-3.68-6.51-.17-.11-.23-.34-.11-.52.11-.18.35-.23.52-.11.17.11,4.19,2.73,4.02,7.17-.1,2.71.2,3.74.38,4.37.11.37.19.67.12,1.07-.07.37-.13,1.25-.19,2.18-.08,1.23-.17,2.51-.31,3.09-.07.29-.2,1.09-.36,2.01-.5,3.03-.95,5.59-1.34,6.27-.53.93-.91,2.04-.92,2.05-.04.12-.14.21-.26.24l-1.59.42s-.06.01-.1.01Zm1.59-.79h0,0Zm13.66-.35c-.1,0-.19-.04-.26-.11-1.39-1.39-1.69-3.15-2.03-5.18l-.14-.79c-.23-1.29.21-4.08.73-7.3.43-2.71.88-5.52.93-7.53.06-2.8-.27-4.88-.51-6.4-.13-.85-.24-1.53-.24-2.08,0-1.13-1.45-4.01-2.01-5.02-.1-.18-.04-.41.15-.51.18-.1.41-.03.51.15.22.39,2.11,3.85,2.11,5.38,0,.49.1,1.14.23,1.96.25,1.55.58,3.67.52,6.54-.05,2.07-.5,4.9-.94,7.63-.48,3.03-.94,5.88-.73,7.05l.14.8c.32,1.9.6,3.55,1.82,4.77.15.15.15.38,0,.53-.07.07-.17.11-.27.11Zm32.28-2.22c-.08,0-.16-.02-.22-.07-.17-.12-.2-.36-.08-.52.01-.02,1.44-1.95,1.95-4.47.26-1.25.27-3.13.29-4.78.02-2.26.05-3.46.42-3.88.46-.55,1.56-6.55,1.56-7.29,0-.21.17-.38.38-.38s.38.17.38.38c0,.53-1.03,6.98-1.74,7.79-.21.28-.22,2.08-.23,3.39-.01,1.69-.03,3.6-.3,4.92-.55,2.69-2.02,4.69-2.09,4.77-.07.1-.19.15-.3.15Zm-18.28-7.89c-.28,0-.55-.08-.79-.28-.47-.39-.69-1.07-.54-1.61.13-.46.52-.77,1.06-.85.08-.01.16,0,.23.04.77.41,1.71,1,1.8,1.5.03.17-.02.32-.13.45-.31.34-.99.76-1.63.76Zm-.27-1.98c-.27.07-.32.24-.33.29-.07.26.06.63.3.84.3.26.93-.04,1.25-.3-.19-.2-.7-.54-1.22-.83Zm19.04,1.43s-.02,0-.02,0c-.21-.01-.36-.19-.35-.4.49-7.79-7.47-18-7.55-18.1-.13-.16-.1-.4.06-.53.16-.13.4-.1.53.06.33.43,8.21,10.54,7.71,18.62-.01.2-.18.35-.37.35Zm-16.4-3.27c-.36,0-.72-.16-1.01-.29l-.15-.07c-.21-.09-.35-.26-.38-.47-.07-.51.57-1.1.95-1.4.11-.09.26-.11.39-.05.27.12,1.16.56,1.3,1.17.05.23,0,.47-.17.66-.29.34-.61.45-.92.45Zm-.75-.99l.04.02c.58.26.81.32,1.06.03,0-.12-.31-.37-.65-.55-.2.18-.37.37-.45.5Zm12.77.67c-.07,0-.14-.02-.21-.06-.17-.11-.22-.35-.11-.52,0,0,.88-1.76-1.75-8.99-2.62-7.2-4.69-7.67-4.71-7.68-.2-.04-.34-.23-.31-.43.03-.2.21-.34.41-.32.25.03,2.53.5,5.32,8.16,2.77,7.63,1.79,9.47,1.67,9.65-.07.11-.19.17-.31.17Zm-20.29,0c-.41,0-1.45-.24-1.6-.83-.05-.18-.17-.66,1.5-1.14.16-.04.32.02.41.14.11-.17.33-.22.5-.12.69.4.74.81.67,1.08-.16.6-1.12.86-1.48.86Zm-.73-.93c.18.08.49.18.73.18.21,0,.68-.17.75-.3-.01,0-.08-.1-.32-.24-.05-.03-.09-.06-.12-.11-.05.07-.12.13-.21.15-.3.09-.63.21-.83.31Z"
  />
  <path
    d="m138.38,205.04c-.12-.01-1.81-.24-1.81-3.35,0-.03,0-.06,0-.08v-25.23c-.05-.19-.05-.46.11-.72.31-.5,1.08-.8,2.34-.91-2.05-.95-1.99-3.45-1.67-4.64.05-.2.25-.32.46-.26.2.05.32.26.27.46-.03.12-.73,2.84,1.26,3.76.19.09.27.31.18.5-.03.06-.07.12-.13.15.29-.02.6-.02.93-.02,3.93,0,53.15.81,53.65.82.13.02,1.73.36,1.27,3.48-.41,2.78-4.3,22.59-4.46,23.43-.02.1-.49,2.19-2.08,2.28-1.32.08-48.34.32-50.34.33Zm-1.06-3.25c.03,2.31,1.06,2.5,1.1,2.51.44,0,48.95-.25,50.25-.33,1.02-.06,1.38-1.67,1.39-1.69.04-.2,4.05-20.63,4.46-23.38.34-2.35-.61-2.63-.62-2.63h0c-.46,0-49.64-.81-53.56-.81-2.43,0-2.92.47-3.01.61-.03.04-.03.09-.03.09.02.05.04.11.04.16v25.39s0,.06,0,.08Zm43.04-30.6s-.1,0-.15-.03c-.19-.08-.28-.29-.2-.48.2-.48,1.8-2.02,2.74-2.9.49-.46.92-.85,1.12-1.02-.05-.07-.13-.17-.2-.25-.29-.34-.76-.91-.33-1.51.11-.15-.02-.47-.15-.78-.19-.47-.51-1.25.28-1.66.34-.39-.28-3.43-.58-4.89-.21-1.04-.39-1.93-.45-2.51-.16-1.75-1.57-7.44-1.82-8.03-.08-.1-.1-.23-.06-.35.07-.19.28-.3.48-.23.62.22,2.11,8.13,2.15,8.54.05.54.24,1.46.44,2.43.73,3.56.98,5.28.2,5.7-.14.07-.18.13.06.72.18.45.41,1.01.06,1.5-.08.11-.01.23.29.59.21.25.43.51.4.83-.01.12-.06.29-.24.43-.16.13-.62.54-1.15,1.04-1.53,1.43-2.46,2.43-2.56,2.64-.06.14-.2.22-.35.22Zm-41.87-5.6c-.21,0-.38-.17-.38-.38v-2.33c0-.21.17-.38.38-.38s.38.17.38.38v2.33c0,.21-.17.38-.38.38Z"
  />
  <path
    d="m124.08,265.57c-.19,0-.35-.14-.37-.34-1.12-11.25.54-32.91.66-34.44-.61-1.64-.81-4.49-.57-5.81.1-.57,1-2.13,2-3.74-.1-.06-.18-.17-.18-.3-.1-1.46,1.04-3.62,2.03-5.2-.15-.07-.25-.23-.22-.4.91-6.2,8.44-16.94,8.75-17.39.12-.17.36-.21.52-.09.17.12.21.35.09.52-.07.11-7.18,10.24-8.5,16.37.42-.61.73-1.02.78-1.08.13-.17.36-.19.53-.07s.2.36.07.53c-.03.04-2.92,3.82-3.27,6.16.17-.26.33-.52.5-.77,2.91-4.5,3.11-4.5,3.3-4.5.21,0,.38.17.38.38,0,.13-.06.24-.16.3-.6.65-5.67,8.31-5.87,9.41-.22,1.22,0,4.04.56,5.49.02.05.03.11.02.17-.02.23-1.82,22.85-.67,34.39.02.21-.13.39-.34.41-.01,0-.03,0-.04,0Zm67.51-65.97c-.15,0-.29-.09-.35-.23-.08-.19.01-.41.21-.49.48-.24,3.01-3.6,3.7-4.71.07-.12.1-.21.07-.27-.08-.18-.47-.33-.66-.38-.1-.02-.19-.08-.24-.17-.05-.09-.07-.19-.04-.29.4-1.45-.98-2.11-1.04-2.14-.19-.09-.27-.31-.18-.5s.31-.27.5-.18c.65.3,1.73,1.21,1.52,2.67.29.12.68.33.83.71.09.21.14.54-.12.96-.3.48-3.25,4.68-4.06,5.01-.05.02-.09.03-.14.03Zm0-2.14c-.07,0-.14-.02-.2-.06-.17-.11-.22-.34-.11-.52l1.81-2.8c.11-.17.34-.22.52-.11.17.11.22.34.11.52l-1.81,2.8c-.07.11-.19.17-.31.17Zm-24.22-3.93c-.79,0-1.92-.37-2.29-.5-.99.2-1.76.05-2.29-.45-.89-.84-.72-2.32-.65-2.76.06-.35.24-.62.54-.8.71-.42,1.89-.14,2.37,0,2.2-1.37,3.33.2,3.77.8.05.07.1.13.14.18.43.52.09,1.65-.02,1.98-.14.4-.53,1.36-1.18,1.51-.11.02-.23.04-.37.04Zm-2.27-1.27s.09,0,.13.02c.66.24,1.88.58,2.34.48.1-.02.35-.27.57-.84.29-.73.3-1.33.22-1.45-.05-.06-.1-.13-.16-.22-.47-.65-1.19-1.64-2.84-.55,0,0-.02.02-.03.03-.1.07-.22.09-.34.06-.53-.18-1.51-.37-1.93-.12-.1.06-.16.15-.18.28-.12.71-.07,1.63.43,2.09.36.34.94.42,1.72.24.03,0,.06,0,.08,0Zm28.89-15.99c-.17,0-.32-.11-.36-.28-.42-1.64-1.14-7.38-1.17-7.63-.03-.21.12-.39.33-.42.21-.03.39.12.42.33,0,.06.74,5.94,1.15,7.53.05.2-.07.4-.27.46-.03,0-.06.01-.09.01Z"
  />
  <path
    d="m133,289.79c-4.98,0-9.8-2.3-10.51-3.07-.94-1.04-.3-5.03-.11-6.07-1.33-3.56-.7-6.29.02-9.44.15-.67.46-1.89.83-3.41,1.17-4.75,3.59-14.57,3.41-15.74-.08-.11-.1-.26-.04-.39.09-.19.31-.27.5-.18.55.26.66,1.11-3.14,16.49-.37,1.51-.67,2.73-.83,3.4-.7,3.06-1.31,5.71-.01,9.1.02.06.03.13.02.2-.36,1.94-.62,4.94-.09,5.53.5.55,5.11,2.89,10.08,2.83,3.66-.03,6.63-1.31,8.83-3.81.56-.64.24-7.12.07-10.6-.08-1.53-.14-2.91-.16-3.91-.07-3.59-1.41-4.65-1.42-4.66-.15-.12-.2-.33-.09-.5,1.13-1.82,1.67-6.77,2.11-10.75.21-1.95.41-3.79.66-5.03.73-3.73,1.39-10.45,1.39-10.52,0-.09.05-.17.11-.23,1.57-1.56.82-4.64.81-4.67-.05-.19.06-.38.24-.45,1.13-.38.67-2.96.42-3.83-.03-.1-.01-.21.04-.29.05-.09.14-.15.24-.18,2.58-.59,2.93-5.13,2.93-5.18,0-.14.09-.26.22-.31,5.57-2.59,10.44-7.35,12.27-9.15.84-.82.89-.87,1.09-.87s.38.17.38.38c0,.15-.09.28-.22.34-.1.08-.4.38-.72.69-1.83,1.8-6.67,6.53-12.28,9.2-.1.96-.65,4.64-3.12,5.53.23.98.67,3.46-.69,4.25.16.88.48,3.41-.98,4.98-.1.96-.71,6.98-1.39,10.46-.24,1.21-.44,3.04-.65,4.97-.44,4.08-.95,8.69-2.06,10.8.46.51,1.41,1.92,1.47,5.01.02.99.09,2.36.16,3.89.3,6.01.45,10.33-.26,11.13-2.34,2.67-5.5,4.03-9.39,4.07-.05,0-.09,0-.14,0Zm59.49-72.29s-.01,0-.02,0c-.21-.01-.37-.19-.36-.39.62-12.66-2.21-13.15-2.24-13.16-.2-.02-.35-.2-.34-.4.01-.2.19-.35.37-.35.08,0,.53.04,1.05.6,1.11,1.19,2.34,4.47,1.91,13.34-.01.2-.18.36-.38.36Z"
  />
  <path
    d="m194.39,225.41s-.09,0-.14-.03c-.19-.08-.29-.29-.21-.49,2.25-5.73-5.7-10.62-5.78-10.67-.18-.11-.23-.34-.13-.51.11-.18.34-.23.51-.13.35.21,8.57,5.27,6.1,11.59-.06.15-.2.24-.35.24Zm-32.88-94.17c-1.43,0-2.9-.12-4.24-.4-3.11-.64-5.62-3.26-7.45-7.8-.87-2.16-1.05-4.76-1.2-6.84-.02-.33-.04-.65-.07-.95-.17-2.19.4-4.1.42-4.18.06-.2.26-.31.47-.25.2.06.31.27.25.47,0,.02-.56,1.86-.39,3.9.02.3.05.62.07.96.14,2.03.32,4.56,1.14,6.61,1.73,4.29,4.06,6.76,6.91,7.34,3.95.81,8.96.26,10.8-.78,1.89-1.07,4.53-4.87,4.6-5.41,0-.05.97-5.62,1.74-6.12.36-.42.69-3.65.4-4.09-.19-.08-.24-.28-.16-.47.08-.19.34-.25.53-.17.35.15.43.62.47,1,.09,1.04-.17,3.93-.82,4.35-.37.42-1.29,4.68-1.4,5.58-.11.91-3,4.86-4.98,5.97-1.32.74-4.13,1.26-7.08,1.26Zm14.42-20.43c-.19,0-.35-.14-.37-.33l-.49-3.88s-.06-.59-.95-2.07c-.45-.74-.59-1.73-.75-2.77-.22-1.44-.44-2.93-1.43-4.01-1.52-1.66-5.76-1.77-6.59-1.78-2.15,1.94-4.62.5-5.29.04-1.66.5-4.7-.02-4.83-.05-1.92.06-3.78,5.4-4.35,7.51v1.48c-.02.19-.2,1.41-.8,1.89-.19.18-.36,1.38-.36,2.57,0,.21-.17.38-.38.38s-.38-.17-.38-.38c0-.79.06-2.69.64-3.15.29-.23.48-1.01.52-1.36v-1.48s0-.06,0-.1c.22-.82,2.22-8.02,5.14-8.11.11.01,3.29.56,4.71.02.12-.05.26-.03.37.06.1.08,2.53,1.99,4.58.02.07-.07.16-.1.25-.1.23,0,5.39-.06,7.29,2.02,1.14,1.25,1.4,2.92,1.62,4.4.15.97.29,1.88.65,2.5.99,1.65,1.05,2.29,1.05,2.41l.49,3.84c.03.21-.12.39-.33.42-.02,0-.03,0-.05,0Z"
  />
  <path
    d="m164.02,149.98s-.07,0-.11-.02c-.2-.06-.31-.27-.25-.47.07-.48-1.32-3.17-2.07-4.62-.56-1.07-1.04-2-1.22-2.49-.25-.67-1.78-2.57-3.13-4.25-1.2-1.49-2.33-2.9-2.86-3.77-.54-.88-1.02-1.89-1.49-2.86-.56-1.17-1.09-2.27-1.7-3.14-1.33-1.93.07-3,.08-3.01.17-.12.4-.09.53.08.12.17.09.4-.07.52-.09.07-.81.7.08,1.99.64.92,1.18,2.05,1.75,3.24.46.96.94,1.94,1.46,2.8.5.83,1.67,2.28,2.81,3.69,1.52,1.89,2.95,3.67,3.25,4.46.16.44.66,1.39,1.18,2.4,1.64,3.17,2.3,4.59,2.13,5.18-.05.16-.2.27-.36.27Zm7.43-14.93c-.1,0-.19-.04-.27-.11-1.66-1.66-.86-6.91-.76-7.51.03-.2.23-.35.43-.31.21.03.34.23.31.43-.24,1.51-.62,5.68.55,6.85.15.15.15.38,0,.53-.07.07-.17.11-.26.11Z"
  />
  <path
    d="m121.01,180.9c-.11,0-.22,0-.33-.01-2.58-.2-4.08-4.13-4.61-7.74-.31-2.08-.47-5.73.87-6.25,1.3-.51,4.67-5.6,6.63-8.94.39-1.68,1.43-3.24,1.66-3.57.37-1.45,1.8-3.44,1.86-3.52.05-.08.14-.13.23-.15,2.6-.55,6.68.77,8.45,1.95.65.43,1,.84,1.08,1.24.29,1.55-1.65,2.8-1.74,2.86-.17.11-.41.06-.52-.12-.11-.17-.06-.41.12-.52.45-.28,1.57-1.21,1.4-2.08,0-.05-.09-.31-.75-.75-1.59-1.06-5.36-2.29-7.74-1.87-.31.45-1.41,2.08-1.67,3.21-.01.05-.03.09-.06.13-.01.02-1.2,1.69-1.59,3.41,0,.04-.02.07-.04.11-.51.87-5.07,8.54-7.04,9.31-.47.18-.88,2.22-.4,5.44.51,3.42,1.92,6.95,3.93,7.1,2.24.18,4.34-1.83,5.38-3.05,1.58-1.85,2.23-3.51,2.16-3.81-.06-.21-.16-.49-.27-.81-.62-1.86-1.12-3.45-.98-4.15l.17-.82c.04-.2.24-.33.44-.29.2.04.33.24.29.44l-.17.82c-.11.56.59,2.64.96,3.77.11.33.2.61.27.83.24.77-.85,2.72-2,4.15-.91,1.13-3.25,3.68-5.97,3.68Zm41.5-27.21s-.07,0-.11-.02c-.2-.06-.31-.27-.25-.47,1.41-4.67,8.31-15.28,9.69-15.91.82-.37.67-2.57.35-3.29-.17-.39-.26-.82-.35-1.28-.1-.48-.2-.98-.41-1.5-.36-.86-.2-1.24.06-1.67.06-.11.14-.22.2-.38.16-.42-.38-.68-.39-.68-.19-.09-.27-.31-.18-.5.09-.19.31-.27.5-.18.47.22,1.07.84.77,1.62-.08.2-.17.36-.25.5-.18.29-.25.41,0,.99.24.58.35,1.14.45,1.63.09.43.16.81.3,1.13.36.82.67,3.63-.73,4.27-.94.45-7.85,10.69-9.29,15.45-.05.16-.2.27-.36.27Zm-35.11-4.78s-.09,0-.13-.02c-.19-.07-.29-.29-.22-.48.07-.19,1.74-4.65,2.32-5.96.55-1.25,3.96-7.45,4.94-8.51.84-.91,1.99-1.57,3.63-2.08.86-.27,3.93-2.11,5.97-3.33,1.06-.63,1.89-1.13,2.29-1.35,1.21-.65,4.58-2.72,4.61-2.74.18-.11.41-.05.52.12.11.18.05.41-.12.52-.14.09-3.41,2.1-4.65,2.76-.39.21-1.25.73-2.26,1.33-2.31,1.39-5.19,3.11-6.13,3.41-1.51.47-2.56,1.06-3.3,1.88-.84.91-4.21,6.96-4.8,8.31-.57,1.3-2.29,5.88-2.3,5.92-.06.15-.2.24-.35.24Z"
  />
  <path
    d="m128.14,176.27c-.13,0-.26-.07-.33-.19-.1-.18-.03-.41.15-.51.82-.45,1.96-3.61,2.21-4.62.12-.48,1.46-4.98,1.79-5.42.12-.17.36-.2.52-.08.17.12.2.35.08.52-.23.38-1.49,4.43-1.67,5.16,0,.04-1.22,4.36-2.58,5.1-.06.03-.12.05-.18.05Zm-3.72-8.03c-1.18,0-2.07-.2-2.16-.22-.2-.05-.33-.25-.28-.45.05-.2.25-.33.45-.28.05.01,5.04,1.13,7.02-2.22.1-.18.33-.24.51-.13.18.11.24.34.13.51-1.37,2.31-3.87,2.79-5.68,2.79Zm42.33-14.15c-.07,0-.14-.02-.2-.06-.17-.11-.23-.34-.11-.52.06-.09,5.95-9.33,7.58-12.26,1.11-2,.92-3.68.77-5.03-.07-.6-.13-1.11-.07-1.59.03-.28-.06-1-1.02-2.69-.71-1.26-1.54-2.39-1.55-2.4-.12-.17-.09-.4.08-.52.17-.12.4-.09.52.08.04.05.86,1.18,1.59,2.48.83,1.45,1.2,2.48,1.12,3.15-.04.39,0,.87.07,1.42.16,1.38.37,3.27-.86,5.48-1.64,2.95-7.54,12.21-7.6,12.3-.07.11-.19.17-.32.17Z"
  />
  <path
    d="m185.16,171.4c-.91,0-1.5-.21-1.54-.23-.19-.07-.29-.29-.22-.48.07-.19.29-.29.48-.22.01,0,1.16.41,2.66,0,1.43-.4,8.57-4.13,10.06-4.91-.87-2.95-8.1-26.21-8.32-26.78-.51-.65-8.92-4.86-14.09-7.35-.19-.09-.26-.31-.17-.5.09-.19.31-.27.5-.18,5.26,2.53,14.13,6.91,14.47,7.75.28.7,8.16,26.08,8.43,27.16.04.17-.04.34-.19.42-.36.19-8.8,4.64-10.47,5.11-.59.16-1.12.22-1.58.22Zm-50.6-9.96c-.11,0-.21-.04-.29-.13-.13-.16-.12-.39.04-.53.42-.36,1.5-1.46,1.44-2.25-.06-.58-3.03-2.79-5.76-4.49-.18-.11-.23-.34-.12-.52.11-.18.34-.23.52-.12,1.41.88,6.03,3.83,6.12,5.07.09,1.3-1.52,2.71-1.7,2.87-.07.06-.16.09-.24.09Zm-7.67-10.1c-.13,0-.25-.06-.32-.18l-4.54-7.46c-.05-.09-.07-.2-.04-.3.03-.1.1-.19.19-.23l1.32-.66c.18-.09.39-.03.49.15l4.46,7.58c.11.18.05.41-.13.51-.17.1-.41.05-.51-.13l-4.28-7.28-.64.32,4.33,7.11c.11.18.05.41-.12.52-.06.04-.13.05-.2.05Z"
  />
  <path
    d="m132.74,163.66c-.16,0-.31-.1-.36-.27-.06-.2.05-.41.25-.47.35-.11.72-.48.98-1.01.29-.59.41-1.26.27-1.63-.17-.45-2.63-1.67-4.82-2.54-.19-.08-.29-.29-.21-.49.08-.19.3-.29.49-.21,1.14.45,4.88,2,5.25,2.98.21.57.09,1.44-.3,2.22-.21.42-.67,1.16-1.43,1.39-.04.01-.07.02-.11.02Z"
  />
  <path
    d="m139.75,171.33c-.05,0-.11,0-.16-.01-1.61-.24-4.27-4.52-4.79-5.38-.11-.18-.05-.41.13-.52.08-.05.16-.06.24-.05l-.48-.63s-.02.08-.04.12l-.58,1.06c-.09.16-.27.23-.44.18l-1.48-.48c-.17-.05-.27-.21-.26-.38-.68.87-1.37.74-3.71-.44l-.97.76c-.16.13-.4.1-.53-.06-.13-.16-.1-.4.06-.53l1.16-.91c.12-.09.27-.11.4-.04,2.64,1.35,2.73,1.21,3.21.45.12-.2.27-.43.46-.67.07-.09.09-.17.06-.28-.2-.87-2.6-2.08-3.5-2.54-.44-.22-.57-.29-.65-.37-.15-.14-.16-.38-.02-.53.13-.15.36-.16.51-.03.07.05.25.14.5.26,1.88.95,3.65,1.98,3.89,3.04.07.32,0,.64-.2.9-.17.23-.3.43-.42.62-.01.02-.02.04-.03.05.08-.04.18-.04.27-.01l1.19.38.43-.79c.08-.14.22-.21.37-.19l-.92-1.2c-.13-.16-.09-.4.07-.53.16-.12.4-.09.53.07l1.61,2.11.3-.19-1.93-2.63c-.12-.17-.09-.4.08-.52.17-.12.4-.09.52.08l2.11,2.88c.06-.05.14-.07.22-.07.71,0,2.87,3.03,3.5,4.69.38,1,.34,1.7-.11,2.1-.17.15-.37.23-.6.23Zm-4.26-5.7c1.14,1.87,3.25,4.8,4.21,4.94.09.01.12,0,.15-.03.13-.11.13-.36.1-.54-.2-1.6-2.57-4.64-3.08-4.95-.06-.01-.11-.04-.15-.07-.01,0-.02.02-.04.03l-.93.58c-.08.05-.18.07-.27.05Zm-2.32-9.88c-.14,0-.28-.08-.34-.23-.08-.19,0-.41.19-.49l1.15-.5c.19-.08.41,0,.49.19.08.19,0,.41-.19.49l-1.15.5s-.1.03-.15.03Zm29.57-30.72c-.75,0-1.53-.19-2.32-.58-1.44-.7-2.41-1.79-2.45-1.84-.08-.1-.11-.22-.08-.34-.13.07-.25.13-.35.19-.18.11-.41.05-.51-.13-.11-.18-.05-.41.13-.51.14-.08,1.38-.81,2.14-.71.42.05.79.32,1.14.58.31.23.63.46.91.49.13.01.29.03.47.04.89.08,2.24.2,3.11.56.61.26,1.91-.16,2.58-.48.19-.09.41-.01.5.18.09.19.01.41-.18.5-.14.07-.98.46-1.87.59-.02.08-.06.15-.12.2-.94.83-1.99,1.25-3.1,1.25Zm-4.32-2.99s.08.05.11.08c.14.16,3.26,3.62,6.36,1.45-.09-.02-.19-.05-.27-.09-.76-.32-2.03-.43-2.88-.51-.19-.02-.35-.03-.49-.04-.48-.05-.9-.36-1.28-.63-.28-.2-.57-.41-.79-.44-.18-.02-.47.06-.77.18Zm4.78-2.81c-.13,0-.25-.07-.32-.18-.11-.18-.05-.41.13-.51.43-.26,1.49-.82,2.04-.49.18.11.23.34.12.52s-.34.23-.52.12c-.15-.05-.76.19-1.26.49-.06.04-.13.05-.19.05Zm-2.47-.5c-.11,0-.22-.05-.29-.14-.16-.2-.67-.32-.98-.35-.21-.02-.36-.2-.34-.41s.19-.35.41-.34c.11,0,1.08.11,1.5.63.13.16.1.4-.06.53-.07.06-.15.08-.24.08Zm-2.48-7.16c-.1,0-.2-.04-.28-.12-1.29-1.43-4.09-.29-4.12-.28-.19.08-.41,0-.49-.2-.08-.19,0-.41.2-.49.13-.06,3.31-1.36,4.96.46.14.15.13.39-.03.53-.07.06-.16.1-.25.1Zm7.51,0c-.13,0-.27-.07-.33-.2-.1-.18-.03-.41.16-.51.06-.03,1.5-.78,3.15-.78s2.87.77,2.92.8c.17.11.22.34.11.52-.11.17-.34.22-.52.11-.01,0-1.09-.68-2.52-.68s-2.78.69-2.79.7c-.06.03-.12.04-.17.04Z"
  />
  <path
    d="m160.73,111.56s-.03,0-.04,0c-.21-.02-.36-.21-.33-.41v-.11c.15-1.33.18-1.6-4.42-2.2-4.62-.6-5.23,1.19-5.24,1.21-.03.1-.1.18-.19.23-.09.04-.2.06-.3.02l-2.48-.91c-.1-.04-.18-.11-.22-.21-.04-.1-.04-.21.01-.3,0-.01.56-1.18.01-2.13-.57-.99-1.51-3.51-.95-5.95.31-1.35,1.81-6.98,2.96-7.8.2-.14.56-.54.98-.99,1.4-1.52,3.53-3.82,5.5-3.6.83.09,1.38.08,1.78.08.23,0,.41,0,.58.01-.49-.6-1.05-1.12-1.47-1.15-.2-.01-.35-.18-.35-.38s.16-.36.36-.37c.08,0,2.01-.07,3.17.51.96-.68,5.03-3.29,8.51-1.28.14.08.21.25.18.4-.04.16-.17.28-.33.29-.46.04-.92.16-1.23.29,1.04.37,3.05,1.2,3.79,2.34.68.02,2.58.29,4.23,2.73,1.21,1.8,1.83,3.33,2.24,4.35.22.54.39.97.54,1.14.29.33.59,1.01.89,1.66.19.42.44.99.55,1.09.13.09.55.4-.24,2.07l.47,1.93c.02.06.01.13,0,.2-.31,1.04-1.1,3.48-1.74,3.85-.12.07-.45.41-.8,2l-.38-.03-.37-.08c.22-1.02.55-2.19,1.17-2.55.28-.2.92-1.85,1.37-3.31l-.48-1.96c-.02-.09-.01-.18.03-.25.25-.51.46-1.11.46-1.32-.2-.2-.39-.61-.71-1.33-.24-.54-.55-1.22-.77-1.47-.23-.26-.4-.69-.67-1.35-.4-.99-1-2.48-2.17-4.21-1.74-2.57-3.69-2.41-3.78-2.4-.14,0-.31-.07-.38-.21-.55-1.1-3.12-2.08-4.06-2.37-.19-.06-.3-.26-.25-.45.11-.42.55-.69,1.02-.85-3.23-.91-6.77,1.79-6.81,1.82-.13.1-.3.1-.43.02-.37-.23-.94-.37-1.49-.44.73.72,1.3,1.67,1.4,1.83.09.16.06.36-.08.48-.14.12-.34.12-.48,0-.59-.5-.72-.5-1.45-.49-.41,0-.98,0-1.86-.08-1.63-.16-3.66,2.05-4.88,3.37-.47.51-.83.91-1.1,1.1-.7.5-2.07,4.76-2.66,7.36-.47,2.05.26,4.36.87,5.41.53.91.33,1.91.16,2.45l1.81.66c.43-.66,1.78-1.92,5.88-1.39,4.89.64,5.28,1.07,5.08,3.02v.11c-.03.19-.19.34-.38.34Z"
  />
  <path
    d="m173.68,111.97c-.08,0-.15-.02-.21-.07-.1-.07-.16-.19-.16-.31,0-.51-.38-1.19-.6-1.52-4.72-1.35-7.3-.42-8.28-.06-.12.04-.21.08-.29.1-.32.1-.54.94-.57,1.5-.01.21-.2.36-.39.36-.21-.01-.37-.19-.36-.39,0-.14.04-.52.14-.92-1.29-.38-1.97-.04-2-.03-.18.09-.41.03-.5-.15-.1-.18-.03-.4.15-.5.04-.02.98-.53,2.65-.01.16-.26.37-.47.67-.56.07-.02.15-.05.26-.09,1.05-.38,3.83-1.38,8.87.09.08.02.15.07.2.14.03.04.56.77.75,1.55l3.11-1.14c.2-.07.41.03.48.22.07.19-.03.41-.22.48l-3.55,1.3s-.09.02-.13.02Zm-15.02-4.29c-.08,0-.15-.02-.22-.07-1.13-.8-3.13-1.3-5.64-1.43h-.12c-.21-.02-.36-.2-.34-.41.02-.21.18-.36.4-.34h.09c2.65.13,4.79.69,6.03,1.57.17.12.21.35.09.52-.07.1-.19.16-.31.16Zm5.37-.66c-.17,0-.32-.12-.36-.29-.05-.2.07-.4.28-.45.16-.04.61-.21,1.14-.41,2.63-1,4.08-1.47,4.7-1.22.9.36,1.28.87,1.32.93.12.17.08.4-.08.52-.17.12-.4.08-.52-.08,0,0-.3-.39-1-.67-.48-.18-3.14.84-4.15,1.23-.6.23-1.03.39-1.23.44-.03,0-.06.01-.09.01Z"
  />
  <path
    d="m174.46,121.89c-.46,0-.74-.04-.76-.04-.2-.03-.34-.22-.31-.43.03-.2.23-.34.43-.31,0,0,.55.08,1.4,0,.28-.03.38-.22.61-.96.13-.42.29-.94.59-1.48.36-.63.42-1.17.49-1.69.06-.52.12-1,.45-1.47.31-.43.3-1.3.29-2.22,0-.56-.01-1.14.05-1.72.05-.49-.04-.61-.04-.61,0,.02-.12.06-.2.12-.17.12-.4.08-.52-.08-.12-.17-.09-.4.08-.52.06-.04.58-.41,1.03-.15.5.29.42,1.07.4,1.32-.05.53-.05,1.09-.04,1.63.01,1.05.02,2.04-.42,2.67-.22.31-.26.67-.32,1.13-.07.54-.15,1.21-.58,1.97-.26.46-.4.92-.53,1.33-.23.72-.44,1.41-1.25,1.49-.32.03-.6.04-.83.04Zm-25.13-1.27s-.08,0-.12-.02l-1.49-.49c-.56-.2-.79-1.27-1-4.62-.03-.46-.13-.75-.26-1.13-.21-.62-.48-1.4-.48-3.19,0-1.16.25-1.84.77-2.06.63-.27,1.28.3,1.35.37.15.14.16.38.02.53-.14.15-.38.16-.53.02-.14-.13-.42-.28-.54-.23-.03.01-.32.17-.32,1.37,0,1.66.23,2.34.44,2.94.14.39.26.77.3,1.32.15,2.41.33,3.75.55,4l1.42.45c.2.06.3.28.24.47-.05.16-.2.26-.36.26Zm19.2-8.06c-.11,0-.22-.03-.33-.09-.52-.29-.82-1.27-.9-1.56-.05-.2.07-.41.26-.46.2-.05.41.06.46.26.13.5.39,1.04.53,1.1.08-.04.22-.55.22-1,0-.21.17-.37.38-.37h0c.21,0,.37.17.37.37,0,.24-.04,1.48-.8,1.72-.06.02-.13.03-.2.03Zm-12.11-.01c-.8,0-1.04-1.34-1.1-1.93-.02-.21.13-.39.33-.41.22-.02.39.13.41.33.06.56.25,1.18.39,1.26.08-.01.22-.38.25-.67.02-.21.21-.36.41-.33.21.02.36.2.33.41-.01.14-.16,1.32-1.03,1.34h-.01Z"
  />
</svg>
