<svg
  xmlns="http://www.w3.org/2000/svg"
  viewBox="0 0 320 320"
  fill="none"
  stroke="#000"
  opacity=".6"
  stroke-linecap="round"
  stroke-linejoin="round"
  stroke-width=".75"
>
  <path
    d="M116.88 107a6.48 6.48 0 0 1 3.66 2.75c.19.3.35.62.37.97s-.16.73-.48.86c-.28.11-.61.02-.86-.15s-.44-.41-.65-.63a5.547 5.547 0 0 0-2.1-1.37"
  />
  <path
    d="M116.5 111.36c-.95-1.63-1.76-3.64-1.18-5.53.28-.9.93-1.57 1.21-2.46.26-.82-.36-1.87.68-2.37 1.52-.73 3.32 2.05 3.78 3.13 1.35 3.21-1.36 1.28-3.07.48"
  />
  <path
    d="M120.38 106.2c.7.59 1.26 1.36 1.6 2.21.09.23.17.49.11.74-.12.44-.68.62-1.11.5s-.77-.46-1.09-.78M117.52 100.57c-.49-.25-.81-.81-.75-1.36s.47-1.04 1.01-1.19c.5-.14 1.04.02 1.46.32s.73.73 1 1.17c.7 1.14 1.16 2.58.64 3.82-.07-.02-.13-.03-.2-.05"
  />
  <path
    d="M123.49 104.63c-.82.05-1.56-.57-1.92-1.31s-.4-1.58-.44-2.4c-.04-.75-.07-1.54.25-2.22s1.12-1.19 1.83-.93c-.23 1.05.08 2.15.55 3.12s1.09 1.86 1.52 2.85c1.02 2.3.94 5.07-.13 7.3-.28 3.75.29 7.56 1.64 11.06.61 1.58 1.4 3.27.93 4.9M118.36 97.45c.19-.38.6-.6 1.02-.68s.84-.01 1.26.04c.26.04.52.07.75.19s.43.32.46.58"
  />
  <path
    d="M118.06 96.97c-.26-.11-.38-.45-.31-.72s.3-.49.56-.62.54-.17.83-.21c.55-.08 1.1-.14 1.65-.06s1.09.3 1.46.71c.16.18.29.39.31.63s-.07.49-.27.62"
  />
  <path
    d="M118.85 95.08c-.49-.07-1-.08-1.49 0-.28.04-.6.13-.73.38-.15.28 0 .63.24.85s.53.35.77.55M117.55 92.87c-.32.44-.58.92-.77 1.43M124.05 95.64c.03.44.05.93-.23 1.28-.23.28-.59.4-.94.5"
  />
  <path
    d="M118.67 94.96c.93.02 1.86.05 2.76.28s1.76.7 2.31 1.45M116.85 94.17c-.17.37-.26.77-.28 1.17M117.53 92.87c.69-.36 1.39-.72 2.15-.9s1.58-.19 2.29.15c.61.3 1.08.83 1.41 1.42s.54 1.24.75 1.89M124.39 95.93l1.38 2.75M117.34 92.71a13.69 13.69 0 0 0-2.9 1.78c-.06-.52 0-1.06.15-1.55M114.58 92.84c-1.92-2.54-3.18-5.57-3.69-8.98.21-.17.5-.19.76-.12s.48.22.71.36c.64.42 1.29.83 1.93 1.25.54.35 1.09.71 1.4 1.27.14.25.22.52.3.79.4 1.36.81 2.71 1.21 4.07"
  />
  <path
    d="M114.32 85.72a30.43 30.43 0 0 0 2.02 6.09M112.83 84.81c.58 2.59 1.51 5.11 2.75 7.46M116.96 88.64l1.68-.32M120.87 85.44c-.48-.14-1.01-.28-1.47-.07-.34.15-.57.46-.78.76"
  />
  <path
    d="m120.79 85.21.25-.98c-.34.07-.68-.02-1.02-.07s-.7-.08-1 .09c-.21.12-.36.32-.52.65-.04.38-.08.77.19 1.36l-.34 1.74M123.53 85.07l.56.27c.13.44.05.93-.22 1.3-.2.03-.38-.17-.42-.37s.02-.41.07-.61.08-.42 0-.61M123.54 86.87c.04 1.09.04 2.18.02 3.26M121.36 91.87c-.19-.64-.36-1.29-.49-1.94-.03-.16-.06-.32-.04-.47.08-.63.88-.92 1.09-1.44l.82 2.11c-.34.55-.69 1.11-1.03 1.66-.01-.05-.03-.1-.04-.15M120.85 85.87c.06.33.13.67.26.98s.36.6.66.75c.31.16.71.15 1.01-.02s.53-.49.57-.84M123.49 90.33c.6.53 1.12 1.15 1.54 1.83.39-.27.77-.54 1.16-.81-.02-.1-.04-.2-.07-.3 1.65.14 3.31.27 4.96.41-.44 1.19-1.02 2.35-1.84 3.32s-1.93 1.73-3.17 2c.02.59-.03 1.18-.15 1.76"
  />
  <path
    d="M127.67 91.65c-.53 1.06-1.23 2.04-2.07 2.87M129.21 91.44c-.79 1.66-2.05 3.1-3.6 4.1M119.45 80.7l-.21 3.2M124.04 81.78l-.34 3.34M119.43 74.44c-.55.51-1.05 1.07-1.52 1.67-.01.6-.02 1.2-.05 1.8l1.4 2.83M125.29 76.23c.28.75.56 1.49.83 2.24l-.01-.02c-.06.51-.12 1.02-.17 1.53-.67.42-1.31.91-1.89 1.45M119.65 74.5c1.6-17.52 3.21-35.04 4.91-52.64.46-3.22 1.79-6.31 3.8-8.86M125.33 76.12c.15-2.83 4.55-50.48 4.65-52.39M128.45 12.9c1.2 3.47 1.75 7.16 1.63 10.82M120.96 83.92c.11-1.21.23-2.42.34-3.63-.62-.91-1.25-1.82-1.83-2.74-.1-.53-.09-1.08.05-1.6.73-.32 1.39-.77 1.96-1.33"
  />
  <path
    d="M129.78 23.86c-.06-1.82-.46-3.63-1.12-5.23-1.03 1.02-1.69 2.4-2.04 3.96l-2.16 22.65c-.94 9.83-1.87 19.66-2.81 29.49M117.64 118.45c-1.38 5.9-1.51 13.1 3.23 17.57M127.41 127.36a16.6 16.6 0 0 1-4.65 5.35c-.81.6-1.76 1.26-1.89 2.27-.12.99.63 1.86 1.41 2.48a11.48 11.48 0 0 0 6.47 2.46c1.65.09 3.56-.09 4.69 1.12"
  />
  <path d="m128.32 125.41.52.51c-2.06 3.81-2.7 8.36-1.77 12.58" />
  <path
    d="M136.08 144.63a40.501 40.501 0 0 1-7.36-11.6c-.55-1.31-1.03-2.72-.84-4.12.3-2.18 2.44-3.95 4.61-3.69l.61-.62c.07.64.83.92 1.47.99 1.27.14 2.56 0 3.78-.39 1.23-.4 2.54-1.07 3.74-.59"
  />
  <path
    d="M138.2 131.22c.4-2.51 1.97-4.7 3.8-6.47 1.26-1.23 2.77-2.35 4.52-2.56s3.74.78 4.11 2.5"
  />
  <path
    d="M149.67 124.73c1.58.07 3.18-.18 4.67-.73M136.24 144.61c.35.97.51 2.01.47 3.04M140.37 128.2c-2.72 5.65-3.41 12.24-1.92 18.33M160.94 114.03c-.31.75-1.2 1.06-1.98 1.28-1.2.34-2.42.68-3.66.68s-2.55-.41-3.64-2.01h6.22c1.04 0 2.12 0 3.09-.37M153.65 110.86l.83.3M157.37 110.71l-.8.39M157.71 92.52c-2.16.39-4.08 1.68-5.6 3.27s-2.68 3.48-3.84 5.35"
  />
  <path d="M156.76 92.6c-1.71.12-3.33.89-4.71 1.91s-2.55 2.29-3.72 3.55" />
  <path
    d="M159.2 92.2c-2.31-.95-5.07-.37-7.09 1.1s-3.37 3.72-4.18 6.08-1.13 4.86-1.45 7.34M150.06 92.12c-2.78 3.07-4.16 7.36-3.68 11.47"
  />
  <path d="M155.72 89.67c-2.85-.07-5.7 1.44-7.23 3.85" />
  <path
    d="M159.18 88.64c-1.62-.92-3.6-1.17-5.4-.68s-3.38 1.7-4.32 3.31M158.87 87.56c.5.6.99 1.2 1.77 1.39 2.61-.47 5.39.17 7.54 1.71 2.15 1.55 3.63 3.99 4.01 6.61"
  />
  <path d="M161.15 90.17c2.57.06 5.11.97 7.13 2.55s3.53 3.82 4.22 6.29" />
  <path
    d="M164.84 92.08c2.41 1.09 4.55 2.77 6.18 4.86.75.96 1.42 2.13 1.2 3.32"
  />
  <path
    d="M167.64 95.45c2.32 1.4 4.16 3.58 5.13 6.11-.11.11-.22.21-.33.32M160.92 93.19a23.56 23.56 0 0 1 9.41 7.35M165.86 97.52c1.95 1.16 3.57 2.85 4.64 4.85M167.88 100.97c.85.53 1.63 1.2 2.28 1.97M168.8 103.38c.61.47 1.15 1.03 1.59 1.66M159.44 91.07l1.73-.24c-.06.06-.03.19.06.2M159.83 91.59l1.18.35M160.01 92.38l.83.35M158.21 89.58c.28.13.55.26.92 1.14l-.96-.57M159.18 91.16l-.92-.22M170.53 103.67c.87-.25 1.89.21 2.29 1.02M170.51 104.81l.98.62c-.24.18-.54.29-.85.3"
  />
  <path
    d="M171.94 102.24c.41.07.76.39.87.79s-.02.86-1.07 1.35l.37.63c-.24.03-.48.07-.72.1M172.94 104.89c.38.83.1 1.8-.18 2.68-.33 1.04-.66 2.08-1 3.11-.13.41-.29.86-.66 1.09-.47.3-1.1.12-1.58-.17"
  />
  <path
    d="M171.78 105.39c.13.75.27 1.53.12 2.27s-.64 1.48-1.38 1.68M170.27 106.74l.06 2.36M148.86 105.21c.64-.12.94-.39 1.31-.55.93-.41 2.08-.22 2.84.45"
  />
  <path
    d="m150.83 104.72.69.45.14-.22c-.02-.23-.34-.36-.51-.2s-.07.49.16.52c.24.04.44-.29.31-.49s-.49-.17-.6.04.05.52.29.56.49-.16.51-.4M158.97 105.21c1.14-1.08 2.99-1.34 4.37-.6.25.13.65.45 1.09.4"
  />
  <path
    d="m160.9 104.61.8.37c.13-.13.07-.4-.11-.46s-.39.1-.37.29.25.31.42.22a.766.766 0 0 0-.77-.11c0 .16.29.19.32.04-.01.15.14.28.29.25 0-.14 0-.28.01-.42-.11-.15-.36-.15-.47 0s-.03.39.15.45.38-.1.38-.28M158.57 102.43l.87-.37.32.04c.02-.05.03-.11.05-.16.16.03.32.07.48.1.01-.08.03-.16.04-.23l.5.12c.15-.16.45-.11.54.09a.318.318 0 0 1 .62-.07c-.05-.12-.09-.23-.14-.35.23.13.46.27.7.4l-.26-.4.71.37-.13-.35.59.33-.07-.28.67.38-.06-.28 1.43.47M152.64 102.65l-.57-.04.05-.3-.54.19.1-.26c-.15.06-.3.12-.44.18l-.36.03a.681.681 0 0 0-.6.11l.17-.26c-.15.06-.3.12-.44.19l.26-.29c-.2.09-.39.18-.59.26l.23-.29-.63.44.32-.37c-.3.11-.59.28-.82.5l.4-.45c-.28.07-.54.21-.74.41l.17-.14-.36.26"
  />
  <path
    d="M150.36 102.44c.18-.24.52-.34.81-.24M147.14 107.21c.18 2.68.38 5.39 1.28 7.92s2.63 4.88 5.1 5.92c2.07.87 4.46.74 6.61.09 2.15-.65 2.76-1.12 4.71-2.24M169.37 110.01a13.88 13.88 0 0 1-1.82 6.62M168.5 115.04c-.09 1.35-.18 2.7.01 4.04s.67 2.67 1.58 3.66M154.06 121.97l.88 5.24"
  />
  <path
    d="M169.07 120.34c.66-.51 1.68.23 1.74 1.06s-.49 1.57-1.02 2.21a39.968 39.968 0 0 1-12.89 10.16M154.48 124.97c-1.01 2.89-.28 6.31 1.82 8.54.31.33.66.66.76 1.1.18.75-.43 1.45-1.04 1.92-.62.48-1.3.89-2.02 1.22"
  />
  <path d="M152.28 124.64c-.48 2.21-.95 4.48-.64 6.72s1.59 4.49 3.69 5.32" />
  <path
    d="M155.95 135.45c-.09.17-.18.35-.33.48s-.36.21-.54.14c-.17-.06-.28-.22-.34-.39-.1-.3-.05-.65.16-.87s.6-.28.85-.08.24.63-.02.8M151.46 131.28c-2.59 3.47-5.17 6.95-7.76 10.42M152.13 133.33l-3.75 7.05M152.91 135.25l-1.33 3.18M156.16 136.98c3.85-1.45 7.2-3.93 10.51-6.38 1.84-1.36 3.7-2.75 5.08-4.57.54-.71 1.02-1.55.95-2.45-.1-1.26-1.21-2.16-2.23-2.9M172.93 124.14c.55-.16 1.19.22 1.31.78M173.62 125.47c.24-.13.53-.13.79-.05s.49.23.72.38c1.09.7 2.17 1.39 3.26 2.09"
  />
  <path
    d="M175.4 127.81c1.59-.07 3.19-.14 4.75.17s3.09 1.02 4.07 2.27c.99 1.26 1.32 2.89 1.59 4.47.53 3.15.93 6.32 1.18 9.51"
  />
  <path
    d="M180.19 131.26c-1.08.64-2.17 1.28-3.1 2.11s-1.73 1.87-2.08 3.07c-.26.91-.26 1.86-.39 2.79s-.44 1.9-1.16 2.51M173.27 140.14a11.37 11.37 0 0 0-1.21 6.92M170.5 138.53a10.41 10.41 0 0 0 1.26 7.28M158.09 136.37l-.69 2.78M160.69 135.44c-.57 1.16-1.15 2.32-1.72 3.48M163 133.52c-.8 1.86-1.27 3.85-1.38 5.87M174.22 144.16c-.28 1.2-.32 2.46-.14 3.68M185.12 144.75c.88-.18 1.78-.37 2.68-.31s1.82.38 2.41 1.06c.96 1.1.8 2.79.28 4.15s-1.36 2.62-1.63 4.05c-.24 1.28-.02 2.6-.1 3.89s-.59 2.71-1.76 3.27c.66-2.47-.53-5.13-2.37-6.91s-4.22-2.85-6.55-3.88M176.18 148.93a7.985 7.985 0 0 1 6.01-2.47"
  />
  <path
    d="M175.47 148.26c1.93-2.42 5.46-3.42 8.37-2.37 2.91 1.05 4.99 4.07 4.93 7.16M187.89 145.93l-.2 2.47M186.88 160.77c-.51.08-1.03.06-1.54-.05M186.65 159.51a14.15 14.15 0 0 1-3.66 2.36"
  />
  <path
    d="M186.88 157.87a8.81 8.81 0 0 1-2.06 2.99M153.03 137.36s30.25 15.47 29.62 15.71c.63 11-1.03 23.56-4.66 31.07-4.64 9.59-12.73 17.4-22.25 22.18"
  />
  <path
    d="M153.11 137.47s-28.03 18.21-27.78 18.4c0 10.86 2.42 21.53 7.28 30.73 5.51 10.43 14.9 15.07 23.17 19.6"
  />
  <path
    d="M128.77 158.11c-.48.34-1.22.22-1.56-.25s-.24-1.21.23-1.57 1.21-.25 1.57.21.27 1.21-.19 1.57M180.31 155.82c-.4.14-.89-.03-1.13-.38s-.19-.88.11-1.19c.42-.44 1.25-.34 1.59.17s.14 1.28-.37 1.61M156.44 204.32c-.73-.07-1.57-.22-1.93-.86-.34-.61 0-1.48.65-1.76s1.45-.02 1.89.53c.26.33.41.77.3 1.17s-.5.74-.92.69M129.98 161.64c.66 7.7 2.73 15.28 5.99 22.32l1.2-.18c.52 1.22 1.27 2.34 2.21 3.28.34.34.72.67.93 1.1s.21 1.01-.19 1.38c3.71 3.58 7.73 6.85 12.03 9.83.54-.5.98-1.12 1.27-1.79 1.55.21 3.16.04 4.77-.51.53.6 1.06 1.21 1.52 1.86 4.36-2.76 8.19-6.36 11.22-10.54"
  />
  <path
    d="m174.32 182.39-1.16-.33c-.81 1.23-1.61 2.46-2.42 3.69-.23.36-.48.73-.53 1.16-.08.67.31 1.3.69 1.86M178.48 159.49a57.81 57.81 0 0 1-4.06 22.67M176.43 159.6l1.84.1M174.41 153.31c-.04.65-.27 1.28-.64 1.81 1.11 1.26 2.02 2.7 2.67 4.25M129.72 161.52c.81-.24 1.65-.33 2.49-.29.35-1.51.96-2.95 1.8-4.25-.23-.62-.45-1.25-.58-1.65 4.21-2.81 8.42-5.63 12.74-8.46 1.03 1.27 2.06 2.54 3.15 3.98 2.72-.31 5.46-.42 8.2-.23.78-1.61 1.76-3.12 3.2-4.51 4.58 2.35 9.16 4.71 13.74 7.06"
  />
  <path
    d="m154.09 154.7-1.14.05c-.37-.35-.34-1.04.07-1.34s1.09-.11 1.27.36-.22 1.08-.65 1.38v1.24M163.9 170.46c-.53.19-1.17-.32-1.1-.88s.82-.89 1.29-.57.41 1.14-.09 1.4M161.91 168.8l.79.38M145.48 171.15l-1.13-.16c-.26-.31-.18-.85.16-1.08s.86-.09 1.05.27 0 .87-.38 1.02M145.67 170.19l.9-.49M161.76 169.01c-5.12.03-10.23.23-15.34.6 2.48-4.4 4.95-8.8 7.45-13.16l7.89 12.43"
  />
  <path d="M157.85 162.63a64.916 64.916 0 0 0-3.65 6.44" />
  <path
    d="M154.21 168.94a95.367 95.367 0 0 0-4.06-5.91c2.53-.04 5.06-.13 7.59-.27M142.83 169.93c1.45-3.02 3.19-5.91 5.19-8.6-1.03-.61-1.96-1.39-2.73-2.3.4-.8.8-1.6 1.21-2.41 1.49.56 3.25.3 4.52-.66-1.85-.56-3.69-1.11-5.64-1.48a26.369 26.369 0 0 0-3.24 5.06c.8.74 1.6 1.48 2.38 2.23-1.32 1.52-2.65 3.03-4.02 4.53l-3.46-.16c-.7-2.43-.41-5.14.67-7.44.38-.64.76-1.27 1.18-1.86-.51.25-1.02.51-1.56.72a18.67 18.67 0 0 0-2.73 4.14l-.45 7.15c2.83.05 5.66.4 8.42 1.06M156.39 156.02l1.05.53c1.08-.44 2.23-.7 3.39-.78.59.79 1.18 1.59 1.77 2.38l-2.8 2.44c1.97 2.83 4.05 5.6 6.11 8.32 2.95-.81 5.97-1.32 9.02-1.54-.14-2.6-.47-5.19-1-7.7-1.02-1.26-2.04-2.52-3.06-3.8-.7-.18-1.41-.35-2.1-.51.86 1.41 1.71 2.82 2.5 4.25l.3 4.79c-1.38-.14-2.78-.06-4.14.25-1.53-.94-2.85-2.23-3.83-3.74.49-.91 1.18-1.71 1.99-2.32-1-1.71-2.19-3.32-3.52-4.66-1.83.76-3.67 1.52-5.5 2.27M149.29 174.13c-.76.75-1.11 1.9-.9 2.96s.99 1.97 1.99 2.36c.69.27 1.52.34 1.98.91.39.5.32 1.3-.15 1.72s-1.27.41-1.92.02c.24.91.04 1.93-.53 2.68s-1.5 1.21-2.44 1.22c.62-1.5 1.25-2.99 1.87-4.49l-.6-.41c-.83.97-1.7 1.98-2.86 2.52s-2.7.5-3.55-.46c1.94-.8 3.83-1.73 5.66-2.76l-.66-.97c-1.43.68-2.9 1.36-4.47 1.47s-3.3-.5-4.08-1.88c2.85.26 5.74.04 8.53-.63-.32-.32-.45-.82-.31-1.25-2.14.23-4.34.45-6.42-.1s-4.05-2.06-4.52-4.16c3.79 1.2 7.64 2.21 11.54 3.01l1.78-1.82M159.66 173.86c.89.42 1.52 1.34 1.59 2.32s-.44 1.98-1.27 2.51c-.95.61-2.42.82-2.62 1.93-.1.53.21 1.1.7 1.31s1.12.04 1.43-.39c-.03 1.9 1.58 3.67 3.47 3.83-1.02-1.3-1.84-2.74-2.45-4.27l.92-.46c.54 1.15 1.61 2.03 2.84 2.34s2.59.03 3.61-.72c-2.02-.78-4.04-1.57-6.06-2.35l.44-1.1c1.54.68 3.14 1.37 4.82 1.38s3.49-.81 4.11-2.37c-2.95 0-5.9 0-8.85.01l.18-1.19c1.47-.19 2.97-.1 4.45-.17s3.01-.31 4.26-1.11 2.18-2.25 2.25-3.74a81.81 81.81 0 0 1-11.43 4.27c-.46-1.06-1.29-1.51-2.31-2.04M154.61 174.14c-1.11 1-2.1 2.15-2.91 3.4.56-.35 1.3-.38 1.9-.09s1.02.9 1.09 1.55c.24-.63.5-1.29 1.03-1.72s1.4-.51 1.83.02a6.236 6.236 0 0 0-3.17-2.84M154.68 179.78c-.69.44-1.01 1.27-1.33 2.02s-.8 1.55-1.59 1.77c.79.25 1.61.53 2.15 1.15s.62 1.71-.05 2.2c.98.69 1.16 2.28.34 3.17.86.99 1.4 2.26 1.52 3.56-.14-1.28.18-2.6.88-3.67a3.63 3.63 0 0 1-.19-3.18c-.47-.66-.56-1.57-.22-2.3s1.09-1.26 1.89-1.32c-1.07-1.18-2.13-2.37-3.2-3.55"
  />
  <path
    d="m151.81 187.71.74-2.21c.09-.25.24-.56.51-.55.18 0 .33.18.36.36s-.01.37-.06.54c-.19.69-.41 1.38-.65 2.05.14-.04.28-.08.42-.06s.28.13.28.27c0 .11-.07.21-.13.29-.34.44-.68.87-1.01 1.31l.12-1.14-2.18.07c.39.33.66.79.77 1.29-.71-.45-1.38-.96-1.99-1.52-.07-.06-.14-.13-.14-.22 0-.17.22-.25.39-.26.84-.07 1.68-.15 2.53-.22M157.62 187.54l-.75.16c.27.84.81 1.59 1.51 2.12.16-.45.08-.97-.19-1.36.71.02 1.41-.05 2.1-.22-.33.46-.52 1.02-.54 1.58a6.9 6.9 0 0 0 2.1-1.96c.07-.1.14-.22.09-.33-.06-.13-.24-.14-.38-.14l-1.64.09c-.33.02-.68.03-.98-.1-.44-.19-.7-.66-.86-1.11s-.27-.94-.55-1.33c-.17-.23-.5-.43-.73-.25-.23.18-.12.54 0 .8.37.74.73 1.48 1.1 2.22M117.37 110.08l-.14 1.48M116.29 112.44c.18-.39.58-.65.99-.76s.85-.09 1.45.06c.5-.01 1.01-.02 1.47.16s.86.62.84 1.12M116.82 112.61l-.92 2.18c.3.36.6.73.9 1.09M120.49 113.1l.53 2.22c-.38.11-.73.31-1.03.56M116.9 115.5c.83-.49 1.98-.36 2.68.31M116.94 116.29c.06.52.12 1.05.35 1.51.06.12.14.24.25.33.29.22.69.15 1.05.07.17-.04.39-.14.37-.31-.01-.1-.11-.17-.2-.22-.42-.23-.96-.22-1.38.01M119.91 116.16l-.84 1.67M187.43 160.99c.67.62 1.03 1.53 1.17 2.43s.07 1.83 0 2.74c-.06.83-.14 1.69-.59 2.38M187.08 167.09c.58.98.62 2.25.11 3.27M186.78 169.77c.17.35.34.7.4 1.09s.01.8-.23 1.1c-.38.47-1.07.52-1.6.81-.47.26-.8.69-1.19 1.06-.8.77-1.88 1.24-2.99 1.31M182.48 166.52l2.48 2.85M139.72 195.78a756.558 756.558 0 0 0-13.53 83.72M167.98 198.01a733.395 733.395 0 0 0-2.28 74.72M180.94 177.21l.81-.13M182.32 175.44c-.16.56.02 1.16.32 1.66s.69.93 1.01 1.41c1.51 2.23 1.3 5.14 1.49 7.83.43 6.02 3.18 11.77 3.06 17.81M190.33 216.26c2.87 20.22 3.34 40.79 1.4 61.12M190.22 251.44c-.17 11.48-1.13 22.95-2.84 34.31M184.87 173.66c.41.53.59 1.23.49 1.89"
  />
  <path
    d="m185.82 174.56 6.69 22.74c7.99 27.15 16 54.38 20.59 82.36-1.45 1.47-3.35 2.42-5.33 3.02s-4.04.85-6.08 1.11c-1.21.15-2.48.3-3.62-.12-.94-.35-1.76-1.07-2.76-1.18-.94-.1-1.86.37-2.62.94s-1.43 1.26-2.27 1.72-1.91.64-2.72.14M125.97 280.05a73.453 73.453 0 0 0 26.03 2.12c1.79-.18 3.61-.43 5.22-1.21.86-.42 1.66-.99 2.58-1.22 1.34-.34 2.74.06 4.1.31 3.94.71 7.98.12 11.98-.02s8.26.27 11.44 2.68l.11.05M132.73 281.81l1.04 5.68M143.57 283.04c-.18 1.39-.36 2.78-.67 4.35-.1.72.33 1.39.58 2.07s.21 1.63-.45 1.92c-.28.13-.61.09-.91.06-2.76-.31-5.53-.61-8.29-.92-.42-.05-.87-.11-1.16-.41-.43-.44-.28-1.22.14-1.67s1.04-.65 1.63-.83c.81-.25 1.64-.51 2.48-.51s1.74.27 2.28.92"
  />
  <path
    d="M138.81 287.21c1.27-.64 3.01-.07 3.66 1.2.08-.13.1-.3.04-.44M132.82 290.9a5.69 5.69 0 0 1-.86 4.11c2.94-.78 6.24-.12 8.65 1.74"
  />
  <path
    d="M142.3 291.46c.17 2.3.33 4.64-.2 6.88s-1.88 4.41-3.98 5.35c1.22-1.79.08-4.49-1.91-5.35s-4.37-.19-6.07 1.14-2.87 3.22-3.97 5.08c.31-.6.64-1.23 1.2-1.61s1.42-.4 1.84.13c-.22-.36-.45-.73-.67-1.09-.38.49-.75.98-1.13 1.47"
  />
  <path
    d="m135.56 302.73 2.04 1.91c.18.17.44.35.65.23.3-.17.09-.64-.15-.89-.72-.77-1.5-1.59-2.53-1.81M137.3 304.57c-1.02.98-2.05 1.96-3.23 2.73s-2.54 1.33-3.95 1.37c-1.54.04-3.09-.52-4.59-.16.24-1.49.67-2.94 1.29-4.32M130.06 302.05a4.77 4.77 0 0 1 3.88-.1"
  />
  <path
    d="M132.14 302.04c-.11-.23.04-.54.29-.59M136.02 301.95l-1.51-.31c-.48.51-.17 1.51.51 1.66s1.39-.61 1.18-1.28M128.87 302.11c.2-.36.56-.63.96-.71.38.4.15 1.11-.31 1.41s-1.04.32-1.59.33M132.32 295.59c-.07.97-.37 1.93-.86 2.76"
  />
  <path
    d="M142.25 297.33c1.34.86 1.77 2.7 1.4 4.24s-1.41 2.84-2.5 3.99-2.3 2.22-3.16 3.56c-.65 1.01-1.12 2.19-2.09 2.89-1.3.94-3.07.74-4.65.49-1.65-.25-3.3-.51-4.96-.76-.47-.07-.98-.16-1.33-.49-.44-.42-.49-1.1-.5-1.71-.03-.94-.05-1.9.2-2.82s.81-1.79 1.66-2.18"
  />
  <path
    d="M125.56 311.74c2.71 1.02 5.66 1.38 8.54 1.04M139.07 308.33c.6-.66 1.75-.4 2.48-.91.8-.56.76-1.73.65-2.69M183 280.84a20.61 20.61 0 0 1 1.37 5.29l.06-.26M192.71 283.75l.05 2.27"
  />
  <path
    d="M184.71 286.48c-.4-.41-.95-.68-1.52-.75.12 1.08.24 2.15.35 3.23.03.24.06.5.18.71.21.37.65.54 1.06.6 1.22.2 2.44-.27 3.68-.32.72-.03 1.43.09 2.15.11s1.47-.05 2.09-.42 1.06-1.09.93-1.8"
  />
  <path
    d="M189.22 288.56c.63-.41 1.45-.3 2.2-.32s1.65-.3 1.83-1.03l1 .09c-.11-.41-.14-.83-.07-1.25l-.65-.86c-.17.61-.72 1.06-1.31 1.27s-1.24.23-1.88.23c-1.96 0-3.92-.11-5.86-.35M184.03 290.56c.15 2.78.03 5.58-.36 8.34M193.38 289.61c1.29 3.49 1.72 7.29 1.23 10.97M184.26 292.71c1.15-.89 2.76-.79 4.19-.57s2.98.49 4.28-.15"
  />
  <path
    d="M194.71 293.4c1.13 1.45 1.59 3.34 1.61 5.18.02 1.84-.36 3.66-.74 5.46-.25 1.19-.55 2.46-1.46 3.26-1.2 1.06-3.01.92-4.6.71-2.06-.26-4.11-.53-6.17-.79-.14.48-.67.82-1.16.75-.48-3.11.01-6.35 1.39-9.18"
  />
  <path
    d="M184.37 299.79c-.83-.02-1.64.52-1.93 1.3.74-.28 1.41-.74 1.95-1.33M185.69 299.47c-.11.41-.7.56-1.03.3s-.34-.82-.05-1.12.8-.35 1.16-.14c.22.13.4.35.42.6s-.15.52-.4.56M186.4 299.16c.67-.26 1.47-.18 2.06.22-.2.02-.24.36-.05.43-.25 0-.44-.29-.36-.52s.4-.34.6-.2c0 .15 0 .3.32.33l2.09.83M192.71 300.03l-1.26-.48c-.27.75.41 1.68 1.21 1.65"
  />
  <path
    d="M192.13 300.52c.65.81 1.39 1.54 2.2 2.19.11.09.23.18.37.19.24.02.44-.23.45-.47s-.11-.47-.25-.67a4.043 4.043 0 0 0-2.26-1.58M193.6 302.8c-1.17 1.02-2.4 2.07-3.91 2.44-1.87.45-3.82-.23-5.75-.2-.34-1.05-.68-2.11-1.02-3.16M182.78 307.76c1.36.56 2.74 1.12 4.2 1.26 1.89.18 3.76-.37 5.58-.91"
  />
</svg>
