<svg class="svg" xmlns="http://www.w3.org/2000/svg" viewBox="0 0 320 320">
  <path
    d="m122.9,138.71c-.5,0-1-.02-1.49-.07l-.38-.04.04-.38c.34-3.22.69-6.54.7-9.79v-.33s.33-.04.33-.04c.97-.13,1.96-.14,2.95-.03.22.03.52.07.71.33.17.21.17.48.17.66v1.21h-.75v-1.21c0-.06,0-.17-.02-.2-.03-.02-.14-.03-.2-.04-.82-.09-1.64-.09-2.45,0-.03,3.05-.34,6.15-.66,9.15,1.04.08,2.12.04,3.2-.12.07-1.44.08-2.91.08-4.33v-.38h.75v.39c-.01,1.53-.02,3.11-.1,4.67l-.02.3-.3.05c-.87.14-1.73.21-2.58.21Zm40.59-19.34l-.18-.72c-1.82-7.33-4.39-14.06-7.65-19.99l.66-.36c3.18,5.79,5.71,12.31,7.53,19.41,1.09-1.64,1.71-3.91,1.83-6.77l.75.03c-.14,3.4-.97,6.04-2.46,7.83l-.47.57Z"
  />
  <path
    d="m147.83,118.99c-.19,0-.37-.01-.55-.04l.1-.74c.66.09,1.36-.02,2.03-.3l.29.69c-.61.26-1.25.4-1.87.4Zm18.54-1.43l-.02-1.09c-.09-5.74-2.06-11.41-5.54-15.95l.6-.46c3.34,4.36,5.33,9.73,5.65,15.22,1.07-1.85,1.56-4.19,1.4-6.7-.18-2.88-1.14-5.63-2.05-7.94-.78-2-1.76-4.25-3.52-5.7l.48-.58c1.91,1.57,2.93,3.92,3.75,6,.93,2.36,1.91,5.19,2.1,8.17.2,3.14-.57,6.03-2.18,8.15l-.66.87Z"
  />
  <path
    d="m145.02,123.97c-.79,0-1.6-.26-2.29-.75-.88-.63-1.55-1.61-1.89-2.75-.19-.64-.24-1.18-.14-1.68.11-.57.42-1.05.85-1.34v-.03l.21-.1c1.05-.5,2.3-.62,3.36-.3,1.16.35,2.18,1.2,2.73,2.28.33.67.47,1.33.41,1.93-.12,1.16-1.03,2.21-2.2,2.58-.33.1-.68.15-1.03.15Zm-2.81-6.03l-.13.07c-.32.15-.56.51-.65.93-.07.37-.03.8.12,1.31.29.98.86,1.82,1.61,2.35.79.56,1.81.75,2.66.49.89-.28,1.58-1.07,1.68-1.94.05-.46-.06-.98-.33-1.51-.46-.9-1.31-1.61-2.28-1.9-.84-.25-1.83-.18-2.69.2Zm11.81,4.91c-.58,0-1.19-.13-1.79-.4-1.24-.55-2.24-1.58-2.75-2.81-.3-.7-.39-1.36-.25-1.95.15-.66.65-1.2,1.35-1.49l.08-.03c1.26-.5,2.42-.58,3.45-.21,1.2.42,2.21,1.38,2.7,2.57.39.95.4,1.92.04,2.68-.38.78-1.16,1.37-2.09,1.57-.24.05-.5.08-.75.08Zm-3.22-5.93c-.44.2-.75.54-.84.94-.1.43-.03.93.21,1.49.44,1.06,1.3,1.94,2.37,2.42.5.22,1.26.45,2.07.28.7-.15,1.29-.58,1.57-1.16.27-.56.25-1.32-.05-2.06-.42-1-1.26-1.8-2.26-2.15-.88-.31-1.88-.23-2.99.23l-.08.03Z"
  />
  <path
    d="m151.75,129.52c-1.29,0-2.42-.52-3.01-1.39l-.8-1.17,1.28.63c.63.31,1.36.29,1.85.22.67-.1,1.34-.33,1.96-.56l1.88-.66c.7-.25,1.41-.5,2.11-.75l1.47-.51-1.08,1.13c-.62.65-1.46,1.47-2.49,2.1-1.06.65-2.13.97-3.18.97Zm-1.15-.93c1.11.37,2.57.15,3.93-.69.39-.24.75-.5,1.08-.78l-.45.16-1.88.66c-.66.24-1.37.49-2.11.59-.19.03-.38.04-.57.05Zm.38-3.12l-.31-.68,1.5-.68.31.68-1.5.68Zm-10.39-5.22c-.05,0-.11,0-.17-.02-.17-.05-.31-.19-.35-.36l-.06-.21.17-.23c.09-.09.19-.11.22-.12l3.9-.68.13.74-3.58.62-.19.13c.05.08.14.12.2.1-.07.02-.16.05-.27.05Zm5.84-1.29c-.63-.32-1.38-.46-2.11-.39l-.07-.75c.87-.09,1.77.08,2.52.47l-.34.67Zm5.39-.81l-.49-.57c1.09-.94,2.68-1.22,4.03-.72l-.26.7c-1.09-.41-2.41-.17-3.28.59Zm4.54-.13c-.33,0-.62-.11-.83-.31l.52-.54c.09.09.26.12.45.09.18-.03.37-.13.57-.24l1.08-.6c.53-.29,1.06-.59,1.59-.88l.36.66c-.53.29-1.06.58-1.59.88l-1.02.56c-.3.17-.57.31-.87.36-.09.01-.17.02-.25.02Z"
  />
  <path
    d="m154.16,135.3c-.31,0-.6-.04-.89-.12-1.29-.38-2.09-1.46-2.86-2.51l-.3-.4c-.57-.76-1.22-1.5-1.85-2.2-.98-1.11-1.99-2.25-2.75-3.56-1.55-2.67-1.94-5.75-2.32-8.74l.74-.1c.37,2.91.75,5.92,2.22,8.46.72,1.25,1.71,2.36,2.67,3.44.64.72,1.3,1.46,1.88,2.25l.3.41c.69.95,1.41,1.93,2.46,2.23.98.28,2.13-.06,3.52-1.04,1.5-1.07,2.84-2.38,3.97-3.52,1.52-1.53,2.97-3.06,3.96-4.89.63-1.18,1.58-3.52.85-5.9l.72-.22c.6,1.96.28,4.26-.9,6.48-1.04,1.92-2.53,3.49-4.09,5.06-1.16,1.17-2.52,2.5-4.07,3.61-1.21.85-2.29,1.28-3.27,1.28Z"
  />
  <path
    d="m166.88,121.13c-.26,0-.53-.05-.79-.18l.33-.68c.75.36,1.68-.34,1.94-.57,2.15-1.8,3.04-4.92,2.16-7.58l.71-.23c.97,2.95-.01,6.4-2.39,8.39-.35.29-1.12.85-1.96.85Z"
  />
  <path
    d="m143.32,120.89c-.5-.28-.91-.71-1.18-1.22-.03-.03-.05-.07-.07-.1-1.35-1.18-2.32-2.96-2.89-5.29-1.17-4.83-.21-10.17,2.58-14.27,2.76-4.05,7.34-6.93,12.28-7.71,3.11-1.6,7.04-1.68,10.51-.23,3.18,1.33,5.95,3.91,7.79,7.24,1.63,2.95,2.54,6.43,2.7,10.34.06,1.58.04,3.92-.9,6.02-.93,2.09-2.71,3.59-4.65,3.92l-.12-.74c1.69-.29,3.26-1.62,4.08-3.48.66-1.49.93-3.29.83-5.68-.15-3.79-1.03-7.16-2.6-10-1.76-3.19-4.4-5.65-7.43-6.92-3.29-1.38-7-1.29-9.93.23l-.12.04c-4.75.73-9.18,3.49-11.83,7.4-2.67,3.93-3.6,9.04-2.47,13.67.54,2.21,1.45,3.88,2.71,4.96l.16.22c.2.4.53.74.91.96l-.37.65Z"
  />
  <path
    d="m143.63,121.34c-1.01-1.47-1.72-3.18-2.06-4.93l.74-.14c.32,1.65.99,3.26,1.95,4.65l-.62.42Zm18.18-3.51l-.71-.24c.57-1.69.55-4.11-.06-6.65l.73-.18c.65,2.67.67,5.25.05,7.07Zm-18.31-.2c-1.97-5.66-2-11.92-.07-17.6l.71.24c-1.88,5.53-1.85,11.61.07,17.12l-.71.25Z"
  />
  <path
    d="m149.96,121.01l-1.34-3.6s-.02-.08-.04-.11l.04-.02-2.35-15.06.74-.12,2.96,18.9Zm-3.93-2.68c-1.52-1.37-2.77-3.05-3.62-4.87l.68-.32c.69,1.48,1.66,2.86,2.83,4.04-1.45-4.88-2.17-9.93-2.14-15.02h.75c-.03,5.35.77,10.65,2.4,15.75l-.69.22-.21.19Z"
  />
  <path
    d="m148.15,119.06l-.57-.89c-.97-1.51-1.83-3.06-2.56-4.6l.68-.32c.56,1.19,1.2,2.38,1.92,3.56.1-1.69.02-3.49-.25-5.36l.74-.11c.33,2.35.38,4.59.16,6.66l-.12,1.05Zm7.58-.97l-.72-.93c-.96-1.26-1.71-2.74-2.16-4.3l.72-.21c.31,1.07.77,2.11,1.34,3.05.02-1.09.1-2.21.26-3.32l.74.11c-.21,1.5-.29,2.99-.24,4.43l.04,1.17Zm-6.22-.59l-.7-.27c2.25-5.82,1.97-12.63-.75-18.22l.67-.33c2.81,5.78,3.1,12.82.78,18.82Z"
  />
  <path
    d="m150.96,118.72l.02-1.36c.02-1.59-.15-3.17-.52-4.71l.73-.17c.27,1.13.44,2.28.51,3.44,1.34-2.95,1.49-6.47.34-9.49l.7-.27c1.4,3.68.99,8.05-1.06,11.4l-.71,1.16Zm6.16-1.62l-.41-.91c-.82-1.8-1.46-3.38-1.95-4.84l.71-.24c.4,1.19.91,2.47,1.52,3.88.12-.36.24-.74.35-1.08l.26-.79.71.23-.26.8c-.23.69-.49,1.5-.65,2.01l-.29.95Z"
  />
  <path
    d="m119.25,138.64c-1.41,0-2.81-.12-4.17-.34l.12-.74c1.98.33,4.04.42,6.1.25l.06.75c-.71.06-1.41.08-2.11.08Zm39.76-.91c-.91,0-1.75-.3-2.34-.85-.76-.71-1.02-1.86-.62-2.74l.68.32c-.27.59-.08,1.38.45,1.87.5.46,1.24.7,2.06.64.68-.04,1.4-.26,2.26-.68,4.09-1.95,7.22-5.75,8.38-10.17.39-1.48.66-3.53.01-5.41l-1.03-.89.49-.57.49.43.34-.18c1.22,2.3.9,4.97.42,6.81-1.21,4.63-4.49,8.62-8.78,10.66-.96.46-1.76.7-2.54.75-.09,0-.18,0-.27,0Zm-52.8-.67c-.17,0-.33-.01-.5-.04-.85-.15-1.65-.71-2.2-1.52-.44-.66-.73-1.48-.85-2.46-.18-1.43.02-2.78.57-3.9.63-1.28,1.76-2.23,3.04-2.56h0c.9-.23,1.94.18,2.58,1.02.56.74.78,1.68.94,2.59.2,1.17.25,2.12.13,2.99-.14,1.13-.59,2.12-1.27,2.81-.67.68-1.58,1.07-2.45,1.07Zm.25-9.75c-1.06.27-2.02,1.08-2.55,2.16-.49.99-.66,2.19-.5,3.48.11.85.35,1.57.73,2.13.43.65,1.06,1.09,1.7,1.2.77.14,1.65-.17,2.28-.81.56-.57.94-1.41,1.06-2.38.1-.8.06-1.68-.13-2.77-.13-.76-.31-1.62-.79-2.26-.45-.6-1.2-.9-1.8-.75h0Zm14.44,3.38l-1.74-1.9-.45.46-.07-.81c-.07-.83.15-1.67.65-2.43l.09-.13.15-.03c.8-.16,1.62-.26,2.44-.31.09-.27-.13-.61-.39-.75-.35-.19-.8-.22-1.23-.22-1.62-.02-3.22.06-4.73.24-.09.09-.18.17-.28.26-.36.34-.74.69-.9,1.14-.1.28-.11.62-.1.95h.02c0,.07,0,.15-.02.24l-.59,2.8-.15-2.86c-.02-.45-.03-.93.13-1.38.22-.62.69-1.05,1.09-1.43.12-.11.24-.22.34-.33l.09-.1.13-.02c1.58-.19,3.25-.27,4.96-.26.53,0,1.08.04,1.58.31.47.26.84.81.79,1.38.36,0,.77.02,1.1.32.38.32.44.82.46,1.26v.1c0,.3.02.56.14.74l.39.55-.67.04c-1.44.09-2.93.07-4.45-.08l1.21,2.25Zm-1.53-2.29l.07.06-.07-.06Zm.04-.75c1.42.15,2.82.19,4.17.14-.04-.2-.04-.4-.05-.59v-.1c-.01-.28-.04-.59-.2-.72-.15-.13-.42-.13-.68-.13-.95.02-1.9.12-2.83.29-.21.36-.35.73-.42,1.11Zm53.22-9.51l-.74-.12c.45-2.71.46-5.51.04-8.22-.03.17-.07.34-.11.51-.54,2.14-1.92,3.94-3.69,4.8l-.33-.67c1.57-.76,2.8-2.38,3.29-4.31.42-1.67.31-3.62-.33-5.63-.62-1.93-1.65-3.72-2.58-5.21l.64-.4c.95,1.53,2.01,3.37,2.65,5.38.35,1.1.55,2.19.6,3.23l.15-.04c.85,3.46.99,7.15.4,10.69Zm-11.52-.17c-5.42-6.02-8.57-13.88-8.87-22.14l.75-.03c.29,8.09,3.37,15.78,8.68,21.67l-.56.5Z"
  />
  <path
    d="m112.42,137.4c-2.23,0-4.47-.16-6.67-.49l.11-.74c3.09.46,6.24.59,9.37.4.83-.06,1.57-.13,2.2-.49.56-.33,1.03-.89,1.4-1.68.49-1.05.71-2.21.63-3.35-.08-1.29-.57-2.34-1.35-2.89-.58-.42-1.34-.57-2-.67-1.56-.23-3.18-.25-4.74-.26-1.29-.01-2.61-.02-3.92-.15l-.02.03-.05-.04c-.05,0-.11-.01-.16-.02v-.08s-.42-.28-.42-.28l.27-.42.23.03c1.35.15,2.73.16,4.08.17,1.59.01,3.23.03,4.84.27.75.11,1.61.29,2.32.8.96.68,1.57,1.94,1.66,3.45.08,1.27-.16,2.55-.7,3.72-.43.93-1,1.61-1.7,2.02-.76.44-1.63.53-2.52.59-.95.06-1.91.09-2.86.09Z"
  />
  <path
    d="m114.66,138.89c-.08,0-.17,0-.25,0-1.39-.03-2.78-.25-4.12-.63l-.32-.09.2-1.18.74.12-.09.52c1.18.31,2.39.49,3.6.52.49.01,1,0,1.42-.2l.33.67c-.49.24-1.01.29-1.52.29Zm-13.7-2.25c-.6,0-1.18-.12-1.68-.47-.55-.38-.96-1.01-1.25-1.91-.47-1.46-.56-3.01-.28-4.48.18-.95.55-1.55,1.12-1.85.39-.2.82-.23,1.23-.23,1.45-.04,2.88-.03,4.22.01l-.02.75c-1.33-.04-2.74-.05-4.19-.01-.37,0-.65.03-.89.15-.35.19-.6.62-.73,1.33-.26,1.35-.18,2.77.25,4.11.24.74.55,1.24.96,1.52.74.51,1.82.34,2.78.13l.16.73c-.54.12-1.12.22-1.68.22Z"
  />
  <path
    d="m104.71,149.15l-.33-.25c-.95-.74-1.94-1.5-2.39-2.63-.36-.9-.32-1.9-.29-2.7.12-2.96.35-6.02.69-9.09l.75.08c-.34,3.05-.57,6.09-.68,9.04-.03.77-.06,1.64.24,2.39.38.94,1.24,1.61,2.15,2.31l.08.06c4.67-.65,9.39-.76,14.02-.32l-.07.75c-4.63-.44-9.34-.32-14,.34l-.16.02Zm25.68-10.97c-.87,0-1.73-.01-2.6-.04h-.2s-.11-.18-.11-.18c-1.52-2.49-2.53-4.96-3.02-7.34l-.64-.02,1.18-1.08.08.37c2.63.05,6.11-.17,9.49-.39l.26-.02.11.23c1.08,2.33,2.3,4.98,3.07,7.71l.12.44-.46.04c-2.39.19-4.83.28-7.28.28Zm-2.37-.78c3.07.08,6.14,0,9.13-.21-.73-2.43-1.81-4.8-2.79-6.93-3.24.21-6.57.42-9.13.38.47,2.19,1.41,4.46,2.79,6.76Zm-14.23.4l-.1-.96.26-.03c1.53-.99,2.05-2.92,2.03-4.42-.02-1.79-.67-3.52-1.29-5.19l.7-.26c.65,1.73,1.32,3.53,1.34,5.45.03,2.18-.9,4.13-2.42,5.09l-.52.33Zm-3.57-.63l-.27-.7c.44-.17.85-.55,1.15-1.06.25-.42.42-.93.54-1.62.42-2.18.19-4.51-.63-6.56l.7-.28c.88,2.19,1.12,4.67.67,6.98-.14.77-.34,1.36-.63,1.86-.27.47-.76,1.08-1.53,1.38Z"
  />
  <path
    d="m123.34,145.61l-18.12-.42v-.04s-.36.02-.36.02c-.1-.79,0-1.58.29-2.3l.11-.27.29.03c5.1.61,11.16.63,17.52.08l.43-.04-.14,2.93Zm-17.77-1.16l17.06.39.06-1.34c-6.13.51-11.97.49-16.95-.08-.1.33-.16.68-.17,1.03Zm-2.92-9.05c-.79-1.1-1.18-2.46-1.1-3.83.08-1.36.65-2.66,1.6-3.66l.54.52c-.81.86-1.32,2.02-1.39,3.19-.07,1.2.27,2.39.96,3.35l-.61.44Z"
  />
  <path
    d="m115.86,148.75c-.39-.35-.63-.84-.66-1.35-.01-.27.03-.54.13-.79l-9.78-.03v-.75s1.22,0,1.22,0c-.21-.24-.37-.52-.45-.83l.72-.2c.14.51.59.91,1.11.98-.01-.25,0-.51.05-.79l.74.11c-.04.26-.05.5-.03.73l10.83.03v.71c.08-.42.11-.86.15-1.26l.75.06c-.06.76-.14,1.71-.53,2.54-.08.16-.21.41-.44.59-.28.22-.65.26-.94.1l.35-.66s.08,0,.12-.03c.08-.07.15-.16.23-.32.15-.31.24-.64.31-.97h-3.55c-.15.2-.24.47-.22.73.02.3.17.61.41.83l-.5.56Zm-7.72-2.91h0s0-.03,0-.04v.04Zm14.58-2.2h-.75v-1.78l-9.76.5c-.07.31-.04.65.09.94l-.69.3c-.24-.54-.25-1.18-.04-1.73l.09-.23,1.79-.09c0-1.01.08-2.06.25-3.1l.74.12c-.17.99-.25,1.98-.25,2.94l7.36-.38-.55-.06.31-2.95.75.08-.31,2.92.96-.05v2.57Zm-16.3-.51l-.75-.04.32-6.3.75.04-.32,6.3Zm22.55-12.7c-.77-.97-1.9-1.62-3.1-1.78-.25-.04-.57-.03-.65.12l-.67-.34c.22-.44.72-.62,1.42-.52,1.39.19,2.7.94,3.58,2.05l-.59.47Z"
  />
  <path
    d="m130.8,130.48c-.82-1.29-2.44-2-3.94-1.73l-.13-.74c1.79-.32,3.72.52,4.7,2.06l-.63.4Z"
  />
  <path
    d="m119.78,151.07l.09-.48c.27-1.38,1.08-2.55,2.24-3.23.72-.42,1.55-.69,2.49-.81v-.02c.65-.15,1.08-.77,1.26-1.3.22-.66.22-1.38.22-2.14-.01-2.04-.02-4.08-.02-6.12-.28-.03-.54-.12-.77-.29l.45-.6c.28.21.72.2,1.01-.03l.46.59c-.12.1-.26.17-.4.22,0,2.07.01,4.14.02,6.21,0,.79,0,1.6-.26,2.38-.13.39-.33.74-.58,1.03.45.02.91.12,1.26.47.33.34.47.85.38,1.33-.07.38-.27.77-.57,1.12-.92,1.06-2.31,1.42-3.32,1.52-.65.07-1.32.07-1.96.07-.51,0-1.01,0-1.51.03l-.49.03Zm5.93-3.83c-1.27,0-2.35.26-3.22.77-.84.49-1.46,1.3-1.76,2.26.35-.01.7,0,1.05,0,.65,0,1.26,0,1.88-.06.88-.09,2.08-.39,2.84-1.27.22-.25.36-.51.4-.77.04-.24-.03-.51-.18-.67-.22-.22-.63-.25-1-.25Zm2.65.87l-.24-.71c.57-.19,1.07-.74,1.34-1.47.26-.7.31-1.49.36-2.25l.18-2.79c.07-1.01.13-2.01.2-3.02l.75.05c-.06,1.01-.13,2.02-.2,3.02l-.18,2.78c-.06.82-.12,1.67-.41,2.47-.35.95-1.01,1.65-1.81,1.92Zm-.88-19.65c-.01-.47-.02-.95-.02-1.43,0-.06,0-.09,0-.11,0,0-.04,0-.1,0-.44-.04-.89-.07-1.33-.08-.08.41-.05.83.07,1.25l-.72.21c-.19-.66-.19-1.33,0-1.96l.08-.26h.28c.57,0,1.13.05,1.68.09.12,0,.39.03.59.23.19.21.21.45.21.63,0,.47.01.95.02,1.41l-.75.02Z"
  />
  <path
    d="m127.79,151.04c-.16,0-.3-.02-.41-.07-.08-.03-.15-.08-.2-.14-.27-.13-.5-.37-.62-.67-.11-.27-.15-.59-.12-.88.03-.48.18-.88.45-1.19.45-.5,1.21-.63,1.81-.33.58.29.94.92.92,1.57-.03.62-.41,1.21-.98,1.5-.27.14-.58.21-.85.21Zm-.04-.75c.13.01.34-.02.55-.13.33-.17.56-.52.57-.87.02-.35-.19-.71-.5-.87-.3-.15-.7-.08-.92.16-.19.21-.24.52-.26.75-.02.19,0,.39.07.55.05.12.13.21.22.26h.22l.04.15Z"
  />
  <path
    d="m119.96,154.61c-.26,0-.5-.04-.72-.11-.59-.2-1.03-.69-1.11-1.24l-.02-.16.1-.13c.72-.89,1.57-1.71,2.52-2.44l.46.59c-.85.66-1.62,1.39-2.28,2.17.1.24.34.42.57.5.29.1.65.1,1.13-.01,1.21-.25,2.33-.98,3.08-2,.22-.29.3-.5.27-.68-.01-.08-.07-.16-.15-.19l-.43-.66c.22-.13.5-.14.75-.02.29.14.52.43.57.75.08.52-.2.96-.42,1.25-.86,1.16-2.14,1.99-3.52,2.28-.3.07-.57.1-.81.1Zm8.06-3.58c-.57-.34-.94-.95-.97-1.6-.03-.65.3-1.3.85-1.68l.43.62c-.33.23-.54.63-.53,1.03.02.4.25.78.6.99l-.38.65Z"
  />
  <path
    d="m122.03,156.14l-.7-2.16.71-.23.5,1.53c.43-.07.86-.1,1.27-.14.43-.04.86-.07,1.29-.15,1.77-.32,3.4-1.39,4.4-2.88-.33-.62-.59-1.28-.77-1.95l.72-.19c.18.68.45,1.34.81,1.97l.11.19-.12.19c-1.1,1.76-2.98,3.03-5.03,3.41-.45.08-.91.12-1.36.15-.52.04-1.02.08-1.51.19l-.33.07Z"
  />
  <path
    d="m121.99,160.34c-.61,0-1.43,0-2.01-.51-.8-.72-.69-1.97-.11-2.77.56-.77,1.45-1.2,2.16-1.54l.32.68c-.67.32-1.43.68-1.87,1.3-.38.52-.46,1.36,0,1.77.37.33,1.01.33,1.52.33l4.53-.07c.21,0,.42,0,.64-.02-.1-.07-.19-.16-.28-.25-.29-.34-.43-.77-.37-1.19.05-.4.29-.78.65-1.02.37-.25.81-.35,1.22-.25.4.09.75.36.98.73.23.38.29.82.19,1.22-.17.59-.67,1.08-1.33,1.32-.57.2-1.17.22-1.69.22l-4.53.07h-.02Zm6.08-2.84c-.16,0-.33.05-.47.16-.19.13-.31.31-.33.51-.03.2.04.42.2.59.15.17.35.27.54.27v.31c.42-.16.74-.46.83-.8.05-.2.01-.43-.11-.63-.12-.2-.3-.34-.5-.38-.05-.01-.1-.02-.15-.02Zm-4.13-4.03c-.21,0-.42-.02-.63-.06l.13-.74c.93.17,1.83-.18,2.41-.51.8-.45,1.49-1.09,2.1-1.66l.51.55c-.64.6-1.37,1.28-2.24,1.77-.56.32-1.37.65-2.28.65Z"
  />
  <path
    d="m131.12,158c-.42,0-.83-.2-1.16-.58-.29-.33-.45-.74-.58-1.1-.2-.55-.42-1.14-.39-1.78.03-.71.37-1.33.89-1.62.2-.29.58-.43.98-.36.21.04.42.12.62.26h.48l-.3.13s.05.04.08.07c1.07.96,1.39,2.67.74,3.98-.29.56-.71.91-1.17.99-.06,0-.12.01-.18.01Zm-.3-4.68l-.5.22c-.37.16-.56.64-.57,1.03-.02.49.16.98.33,1.46.13.35.25.66.45.89.21.23.46.35.66.32.3-.05.52-.39.62-.59.5-1.01.25-2.33-.58-3.08-.1-.09-.24-.2-.41-.25Zm-3.64,4.3c-.33-.26-.5-.71-.46-1.14.05-.43.32-.81.72-1.01l.33.68c-.16.08-.28.24-.3.41-.02.18.06.37.18.48l-.47.58Z"
  />
  <path
    d="m126.12,164.62c-.55-.65-.69-1.55-.76-2.35-.06-.67-.13-1.44-.54-1.93l.57-.48c.57.67.65,1.6.72,2.35.06.68.18,1.44.59,1.93l-.57.48Zm4.74-8.5c-.21,0-.42-.08-.58-.21-.25-.22-.38-.56-.38-.97,0-.38.12-.72.33-.96.29-.32.76-.43,1.13-.26.29.15.49.45.54.8.09.49-.04,1.1-.45,1.34-.11.13-.28.22-.47.25-.04,0-.08,0-.12,0Zm.12-1.73c-.06,0-.14.03-.19.09-.09.1-.14.27-.14.46s.05.33.13.41c0,0,.02.01.04.02v-.06l.25-.09s.14-.26.09-.56c-.02-.12-.07-.22-.14-.26-.01,0-.03,0-.04,0Zm-1.05-1.28c-.06-.24-.17-.47-.31-.71l.64-.39c.18.3.31.6.4.91l-.72.19Z"
  />
  <path
    d="m133.93,161.07c-.6-1.26-.68-2.74-.21-4.04l.08-.2c.15-.38.29-.73.2-1.03-.07-.24-.28-.44-.5-.66l-.08-.08c-.75-.75-1.33-1.7-1.67-2.73-.04-.11-.08-.23-.11-.35-.16-.52-.32-1.02-.69-1.29-.4-.29-1-.28-1.59-.24l-.05-.75c.73-.05,1.49-.06,2.09.38.57.42.77,1.09.96,1.67l.11.33c.31.92.83,1.77,1.5,2.44l.08.08c.26.26.56.55.69.97.16.55-.04,1.07-.21,1.52l-.07.18c-.39,1.1-.32,2.39.19,3.46l-.68.32Z"
  />
  <path
    d="m139.04,170.76l-.53-.53c.54-.54.82-1.42.78-2.41-.02-.52-.14-1.04-.28-1.56-.04.18-.09.36-.15.54l-.72-.21c.51-1.73.58-3.6.19-5.39-.12-.54-.27-.96-.48-1.32-.23-.39-.55-.68-.93-.81-.55-.18-1.25.02-1.73.5-.43.43-.74,1.06-.92,1.85-.18.84-.22,1.69-.11,2.5.04.3.11.69.3,1,.16.28.41.48.67.53.31.06.71-.11.98-.44.29-.35.44-.8.56-1.24l.05-.21c.11-.44.23-.89.45-1.32l.67.34c-.18.35-.28.75-.39,1.17l-.06.21c-.14.52-.32,1.07-.71,1.53-.46.55-1.11.81-1.7.69-.46-.09-.9-.42-1.17-.89-.25-.43-.34-.91-.39-1.28-.13-.91-.09-1.84.12-2.77.21-.94.58-1.69,1.12-2.22.68-.68,1.68-.95,2.5-.68.54.19,1.02.59,1.34,1.14.25.43.42.92.56,1.53.27,1.27.34,2.57.19,3.85l.09-.03-.09.03s0,.03,0,.05l.12-.02c.31.91.63,1.86.67,2.86.05,1.22-.3,2.28-1,2.97Zm-5.35-12.43c-.95-.3-1.73-1.13-1.99-2.11-.14-.53-.11-1.02.08-1.41.26-.52.79-.82,1.31-.79l-.06.75c-.22-.02-.46.14-.58.38-.14.28-.09.64-.03.89.19.74.78,1.36,1.49,1.59l-.23.71Z"
  />
  <path
    d="m134,178.57l-.12-.27c-.32-.72-.64-1.44-.97-2.15-.32-.72-.65-1.44-.97-2.16l.69-.3c.32.72.64,1.44.97,2.15.28.63.57,1.26.85,1.89,1.28-.26,2.5-.72,3.64-1.36.39-.22.81-.51.96-.9.03-.1.05-.21.08-.32.04-.18.08-.39.18-.6.06-.13.14-.24.23-.35.08-.11.15-.2.18-.29.08-.23-.04-.53-.17-.82-1.15-2.56-2.26-4.93-3.41-7.26l.67-.33c1.15,2.33,2.27,4.72,3.42,7.28.18.41.36.88.2,1.37-.07.2-.18.36-.28.5-.06.08-.11.15-.16.24-.05.11-.08.26-.12.42-.03.14-.06.29-.11.42-.24.63-.79,1.01-1.3,1.3-1.3.74-2.7,1.24-4.16,1.51l-.29.05Zm-4.74-11.02c-1,0-1.99-.16-2.94-.49l.24-.71c1.74.6,3.65.6,5.38,0,.32-.11.7-.27.84-.55.18-.35-.05-.83-.38-1.06-.43-.3-1.02-.34-1.48-.34-.83,0-1.67.12-2.48.37l-.21.06c-.27.09-.55.17-.86.2-.51.05-.96-.07-1.26-.35l.51-.55c.14.13.39.19.69.16.23-.02.46-.1.71-.17l.22-.07c.88-.27,1.79-.4,2.7-.4.57,0,1.31.05,1.91.48.6.42,1,1.3.61,2.02-.27.52-.81.76-1.26.91-.95.33-1.94.49-2.93.49Z"
  />
  <path
    d="m129.99,170.34c-.82,0-1.77-.15-2.67-.65l.37-.65c1.11.62,2.36.61,3.21.49,1.17-.17,2.3-.63,3.27-1.06.42-.18.9-.41,1.21-.75.25-.27.41-.72.26-1.05-.14-.29-.49-.49-.95-.54-.6-.06-1.23.14-1.67.53l-.49-.56c.6-.52,1.44-.79,2.24-.71.72.08,1.3.44,1.55.96.31.67.03,1.42-.38,1.88-.41.46-.97.72-1.47.93-1.01.44-2.21.93-3.46,1.11-.3.04-.64.07-1.02.07Zm-3.55-3.29c-.56-.02-1.07-.42-1.22-.96-.23-.89-.06-1.9.46-2.62l.61.44c-.39.55-.52,1.31-.34,1.99.06.21.29.39.51.4l-.02.75Z"
  />
  <path
    d="m132.43,174.44c-.17,0-.34,0-.52-.02-1.37-.11-2.77-.62-4.16-1.52-.4-.26-.81-.56-1.09-.98-.3-.45-.4-.97-.27-1.42-.18-.29-.36-.59-.53-.88-.21-.34-.42-.69-.62-1.03-.24-.4-.47-.78-.57-1.23-.16-.76.08-1.59.61-2.12l.53.53c-.36.36-.52.92-.41,1.43.07.33.27.66.46.99.22.36.43.71.64,1.05.21.34.42.69.62,1.03l.11.17-.09.18c-.11.24-.06.59.14.88.21.31.54.55.88.77,1.29.83,2.57,1.31,3.81,1.4,1.42.11,2.79-.29,3.74-1.11.15-.13.37-.33.46-.57.08-.2.07-.4-.02-.51-.04-.05-.11-.09-.18-.1-.04,0-.08,0-.09.02l-.47-.58c.18-.14.41-.21.65-.18.27.03.53.17.69.38.25.33.3.79.13,1.24-.15.39-.45.68-.67.87-.98.84-2.33,1.31-3.77,1.31Z"
  />
  <path
    d="m139.08,187.96l-.09-.28-.36.16-4.25-9.52.68-.31,4.08,9.13c1.57-.54,3.08-1.12,4.51-1.75l-3.72-8.5c-.19-.45-.38-.77-.65-.84l.19-.72c.68.18.99.89,1.15,1.27l3.77,8.63c.24.02.47.06.68.12l-.2.72c-.21-.06-.43-.09-.67-.1-1.61.72-3.33,1.38-5.12,1.98Zm-7.13-15.49c-1,0-2.05-.18-3.15-.53l.23-.71c1.57.5,3.03.62,4.33.36,1.49-.31,2.76-1.18,3.42-2.33.17-.3.22-.51.16-.66-.06-.18-.29-.3-.56-.3-.29,0-.58.14-.89.28l-.2-.32-.15-.34c.39-.18.78-.35,1.22-.37.48,0,1.1.25,1.28.8.18.48-.04.96-.22,1.28-.76,1.34-2.22,2.35-3.92,2.7-.5.1-1.02.16-1.56.16Zm-3.94-7.45l-.24-.71c.15-.05.3-.09.45-.12.09-.02.18-.04.27-.07.54-.15,1.04-.42,1.45-.8-.25-.4-.44-.86-.56-1.34-.73.42-1.5.74-2.3.96-.49.12-1.05.2-1.5-.11l.43-.62c.2.14.56.08.88,0,.88-.24,1.74-.62,2.54-1.15l.5-.32.08.58c.09.67.34,1.32.71,1.83l.18.25-.21.23c-.53.58-1.24,1.01-2.01,1.22-.09.03-.19.05-.29.07-.13.03-.26.06-.39.11Zm29.97-27.7c-.51-1.16-.85-2.4-.98-3.68l.75-.08c.13,1.2.44,2.36.92,3.46l-.69.3Z"
  />
  <path
    d="m140.17,190.98c-.42,0-.86-.07-1.26-.27-.68-.35-1.17-1.03-1.26-1.79-.09-.77.21-1.55.8-2.04l.48.57c-.39.33-.6.86-.53,1.37.06.5.4.98.85,1.21.59.29,1.36.18,1.88.08,1.29-.26,2.51-.73,3.63-1.4l.38.64c-1.19.71-2.49,1.21-3.86,1.49-.31.06-.7.13-1.1.13Z"
  />
  <path
    d="m149.05,198.21c-.43,0-.83-.11-1.21-.21l-.32-.08c-.96-.24-1.97-.19-3.02-.13-.69.03-1.4.07-2.11.02-.46-.03-1.11-.13-1.5-.63-.38-.5-.33-1.12-.18-1.69-.23-.05-.47-.14-.68-.3-.34-.25-.58-.67-.68-1.16-.08-.4-.05-.82-.03-1.18h.11c-.23-.12-.43-.28-.58-.47-.4-.49-.55-1.18-.46-2.11l.75.08c-.07.72.02,1.23.29,1.56.31.39.9.55,1.79.56,1.49-.02,2.98-.39,4.31-1.06l.34.67c-1.43.72-3.04,1.11-4.64,1.14-.45,0-.83-.03-1.17-.12-.01.27-.02.54.03.79.03.18.13.51.39.7.23.17.56.21.85.23,1.17.07,2.32-.08,3.43-.47l.25.71c-1.15.4-2.34.57-3.54.52-.12.43-.19.87.02,1.15.15.19.46.3.96.34.66.05,1.35.01,2.02-.02,1.07-.05,2.17-.11,3.24.15l.34.09c.36.1.7.19,1.05.19.48,0,.94-.23,1.48-.52l.65-.34c1.42-.74,2.84-1.48,4.27-2.2l.34.67c-1.43.72-2.85,1.46-4.27,2.2l-.65.34c-.5.26-1.12.59-1.82.61h-.05Zm-11.73-8.81c-.1,0-.2,0-.31-.03-.46-.1-.79-.46-.8-.87-.02-.34.15-.6.34-.83.5-.61,1.04-1.16,1.5-1.63l.54.53c-.45.46-.97,1-1.45,1.58-.09.11-.17.23-.17.32,0,.07.11.15.21.17.16.04.36,0,.57-.04l.13.36.06.37c-.21.04-.41.07-.61.07Zm13.19-2.56c-.16,0-.31-.02-.48-.08-.29-.11-.49-.34-.66-.54-.05-.06-.11-.12-.16-.18-.32-.33-.79-.5-1.29-.67-.18-.06-.36-.13-.54-.2-.66-.27-1.29-.67-1.89-1.21l-.24-.22c-.17-.15-.33-.31-.52-.44-.18-.12-.45-.26-.73-.22-.21.03-.39.17-.42.33l-.74-.12c.08-.49.52-.89,1.07-.96.41-.05.84.07,1.25.35.21.15.41.33.6.5l.23.21c.54.48,1.1.84,1.68,1.08.17.07.34.13.51.19.55.2,1.13.4,1.57.85.06.06.13.14.19.21.13.15.25.29.37.33.12.05.28.03.46.02,1.06-.11,2.07-.14,3.08-.11l-.03.75c-.97-.03-1.95,0-2.92.1-.13.01-.26.03-.39.03Zm-15.71-7.54c-1.74-1.16-3.06-2.99-3.61-5.02l.72-.2c.51,1.85,1.71,3.53,3.3,4.59l-.42.62Zm-27.26-42.88c-.68,0-1.38-.28-1.94-.79-.54-.5-.95-1.23-1.16-2.11-.33-1.35-.14-2.78.52-3.91.71-1.23,2-2.04,3.35-2.12l.05.75c-1.1.07-2.16.74-2.75,1.75-.56.97-.72,2.19-.44,3.36.13.51.39,1.24.94,1.74.5.46,1.15.67,1.72.57l.13.74c-.14.03-.28.04-.42.04Z"
  />
  <path
    d="m168.02,178.48c-2.49-3.91-4.66-8-6.5-12.25l-.17.16c-7.67-8.31-13.69-18.35-17.43-29.05l.71-.25c3.54,10.14,9.16,19.68,16.29,27.7-1.11-2.68-2.08-5.41-2.92-8.19l.72-.22c2.31,7.66,5.66,14.96,9.94,21.69l-.63.4Zm-38.7-20.24l-.41-.62,1.27-.84.41.62-1.27.84Zm-20.53-23.81h-.29c-.84-.05-1.61-.76-1.78-1.66-.14-.74.07-1.57.57-2.28.36-.51.82-.77,1.37-.77h.31l.06.3c.29,1.45.24,2.92-.16,4.13l-.09.27Zm-.43-3.9c-.17.07-.31.2-.46.4-.39.54-.55,1.17-.45,1.71.09.44.42.83.8.98.24-.93.28-2,.11-3.08Z"
  />
  <path
    d="m153.74,154.43c-1.01-4.64-1.41-9.4-1.18-14.13l.75.04c-.22,4.67.17,9.36,1.17,13.94l-.73.16Zm-9.32-18.63c-.11-2.1,1.12-4.23,2.99-5.19l.06.11c.14-.3.31-.59.49-.87l.63.41c-.47.72-.79,1.52-.97,2.37l-.74-.15c.05-.27.12-.53.2-.79-1.23.94-2,2.51-1.92,4.06l-.75.04Z"
  />
  <path
    d="m145.08,163.77c-.09-.94.29-1.92.98-2.58l.06.07c-.23-2.41-.17-4.86.2-7.28-.23-.33-.42-.68-.57-1.05-.51-1.26-.5-2.7.03-3.97-.03-.06-.07-.11-.1-.17-.46-.8-.56-1.5-.28-2.06l.06.03c-.47-.75-.8-1.6-.94-2.48l.27-.04c-.24-.43-.44-.87-.6-1.33-.6-1.68-.71-3.55-.31-5.28-.25-.58-.33-1.18-.24-1.76.09-.61.41-1.21.87-1.63l.51.55c-.34.31-.57.74-.64,1.18-.07.48,0,.97.24,1.46l.05.12-.03.13c-.4,1.62-.31,3.38.26,4.97.56,1.57,1.61,2.99,2.96,4l-.45.6c-.65-.49-1.24-1.06-1.74-1.7.43.99,1.12,1.85,2.01,2.48l-.43.61c-.46-.33-.88-.71-1.24-1.14.02.26.13.57.33.91.66,1.13,1.7,2.04,2.92,2.55l-.29.69c-1.03-.43-1.94-1.11-2.64-1.96-.28.97-.24,2.02.13,2.95.44,1.1,1.32,1.99,2.41,2.47l-.3.69c-.59-.25-1.12-.62-1.58-1.06-.31,2.47-.31,4.96,0,7.4l-.74.1s0-.06-.01-.08c-.3.45-.45,1.01-.4,1.54l-.75.07Zm4.15-13.45c-.35,0-.69-.07-1-.2l.3-.69c.32.14.72.17,1.09.1l.15.73c-.18.04-.36.06-.55.06Z"
  />
  <path
    d="m159.91,170.08l-.57-.49c.78-.91,1.39-1.98,1.77-3.09l.71.24c-.41,1.2-1.07,2.36-1.91,3.34Zm-15.56-4.95l-.56-.49c1.46-1.67,2.93-3.19,4.96-3.52.74-.12,1.48-.06,2.2.08l-.04-.07c1.31-.85,2.84-1.35,4.43-1.46l.05.75c-1.23.08-2.41.42-3.47.98.12.03.24.06.35.08,1.09.26,2.12.51,3.14.37l.1.74c-1.16.15-2.31-.12-3.42-.39-1.12-.27-2.18-.52-3.23-.36-1.78.29-3.16,1.72-4.52,3.28Z"
  />
  <path
    d="m145.06,180.87c-1.13,0-2.27-.12-3.38-.35l.15-.73c4.59.97,9.52-.19,13.19-3.11,2.78-2.2,4.48-5.15,4.66-8.09l.75.04c-.19,3.16-1.99,6.31-4.94,8.64-2.95,2.34-6.69,3.6-10.43,3.6Zm3.93-5.69l-.36-1.32c-.59-2.15-1.63-4.19-3.01-5.94h-.29l.68,5.5-.74.09-.17-1.42-.62.18c-.61-2.12-1.34-4.2-2.18-6.18-.16-.4-.34-.81-.63-1.09-.53-.51-1.37-.57-2.26-.59l.02-.75c1,.02,2.04.11,2.77.8.09.09.18.19.26.29l.12-.17c.4.29.93.4,1.42.3l.15.73s-.09.02-.14.02c.49.44.93.92,1.32,1.43l.34-.29c1.23,1.4,2.23,3.01,2.96,4.73l-.25-3.29.75-.06.4,5.33h-.11s.07.03.07.03c-.02.07-.04.13-.06.19-.02.05-.04.1-.05.16l-.36,1.32Zm-6.03-9.42l.02.04c.77,1.82,1.45,3.73,2.03,5.67l-.52-4.22c-.45-.55-.96-1.05-1.53-1.49Z"
  />
  <path
    d="m153.01,180.26l1.4-2.81c.66-1.31,1.2-2.65,1.6-4-.7-1.66-1.38-3.32-2.07-4.99l.69-.28c.5,1.21.99,2.42,1.49,3.62l.84-2.66.15-.07c1.06-.49,2.19-.89,3.38-1.19l.19.73c-1.08.28-2.12.64-3.1,1.07l-.79,2.49-.59-.19c.18.43.36.86.54,1.29l.05.12-.04.13c-.4,1.38-.95,2.77-1.62,4.12h.03c-.03.06-.07.11-.11.16l-2.07,2.45Zm-7.09-.68l-.75-.05c.11-1.51.09-3.03-.07-4.52l.75-.08c.16,1.53.18,3.1.07,4.65Zm-3.3-.4l-.65-.38c.87-1.48,1.62-3.05,2.22-4.67l.7.26c-.62,1.66-1.38,3.27-2.28,4.79Zm-1.84-.86v-1.85c0-.05,0-.11,0-.16h.04c1.25-2.96,1.63-6.32,1.08-9.48l.74-.13c.58,3.31.17,6.83-1.13,9.92l-.72,1.7Zm9.78-.47l-.72-.19c.2-.75.42-1.51.65-2.27h-.75s.06-5.45.06-5.45h.75s-.06,5.43-.06,5.43c.31-1.01.66-2.03,1.04-3.04l.7.26c-.65,1.76-1.21,3.53-1.67,5.26Zm-9.54-6.16l-.74-.12c.35-2.1.3-4.22-.14-6.27l.73-.16c.46,2.15.51,4.36.15,6.56Zm15.79-3.82l-3.96-2.66.42-.62,3.35,2.25c.69-1.02,1.29-2.13,1.77-3.3l.69.29c-.55,1.34-1.24,2.6-2.06,3.75l-.21.3Z"
  />
  <path
    d="m154.71,187.57c-.1-.54-.47-1.09-1.11-1.65l-.58-.51.76-.14c.51-.1,1.06-.09,1.6.02l-.15.73c-.17-.04-.35-.06-.53-.07.41.48.65.97.75,1.47l-.74.14Zm.28-14.37c-1.51-3.18-4.01-5.91-7.04-7.68l.38-.65c3.15,1.85,5.76,4.69,7.34,8.01l-.68.32Zm13.54-.45l-.39-4.52.75-.06.39,4.52-.75.06Zm-12.33-6.86c-.44-.68-.96-1.26-1.52-1.74-.06-.05-.21-.16-.26-.36-.1-.3.09-.57.18-.7.33-.44.66-.87,1.1-1.21.53-.41,1.13-.6,1.69-.54l-.08.75c-.35-.04-.78.1-1.15.39-.36.28-.64.65-.95,1.05,0,0-.02.03-.04.05.65.55,1.19,1.18,1.66,1.89l-.63.41Zm-4.6-.55l-1.7-.24c-1.17-.18-2.31-.35-3.31-.93l.38-.65c.87.51,1.94.67,2.98.83l1.75.25-.1.74Zm18.33,0l-.84-5.72.74-.11.84,5.72-.74.11Zm-3.39-4.2l-1.86-2.52.14,1.8-.94-2.72c-.04-.11-.08-.22-.11-.33l-1.78-2.43,1.34,1.02c-.4-1.36-.71-2.74-.95-4.13l.74-.12c.3,1.76.73,3.51,1.29,5.21.03.06.06.12.09.18l2.65,3.61-.61.44Zm-9.23-4.68l-2.49-3.9.63-.4,2.49,3.9-.63.4Zm.47-9.92c-.78-2.08-1.47-4.21-2.03-6.33l.72-.19c.56,2.1,1.23,4.2,2,6.26l-.7.26Zm2.6-11.15l-1.55-1.03.41-.62,1.55,1.03-.41.62Zm8.84-12.71c-.21-.94-.33-1.94-.36-2.98l.75-.03c.03.99.15,1.95.35,2.85l-.73.16Z"
  />
  <path
    d="m159.25,199.5c-.13,0-.26-.02-.39-.07-.34-.12-.57-.36-.79-.57-.97-1.06-1.6-2.33-2.15-3.45l-.7-1.41,1.15.74c.62.4,1.21.86,1.74,1.35.07.06.16.14.21.16.07.01.19-.01.42-.22l.5.56c-.25.22-.63.51-1.09.4-.23-.05-.41-.21-.54-.33-.13-.12-.26-.23-.4-.35.39.71.83,1.43,1.4,2.04.16.16.32.32.49.38.11.04.26.04.33-.04.07-.08.07-.26.07-.43-.07-4.16-1.59-8.53-4.27-12.3-.18-.25-.32-.37-.42-.43l-.06.12-.68-.33.26-.54.2-.03c.66-.1,1.13.53,1.3.77,2.77,3.89,4.34,8.41,4.41,12.73,0,.27,0,.63-.24.92-.19.22-.46.34-.76.34Z"
  />
  <path
    d="m157.51,196.69v-.94l.28-.09-.18-.17c.31-.33.44-.83.33-1.27-.54.27-1.05.58-1.52.93l-.45-.6c.05-.04.11-.08.16-.12l.03-.35c-.07-.02-.13-.04-.2-.08-.29-.16-.44-.45-.53-.69-.5-1.26-.76-2.61-.99-3.81-.07-.35-.14-.76-.01-1.16.13-.4.46-.74.93-.97.38-.18.78-.24,1.14-.3l.12.74c-.32.05-.65.1-.92.23-.28.13-.47.32-.54.52-.07.22-.02.52.03.78.23,1.17.48,2.49.96,3.68.05.12.11.26.19.3.07.04.25,0,.34-.02.74-.17,1.44-.45,2.08-.84l.39.64c-.06.04-.12.07-.18.11l.17.48c-.38.14-.75.3-1.11.47l.64-.17c.18.69-.02,1.47-.51,1.99l-.65.68Zm30.76-29.3c-1.44,0-2.98-.29-4.52-.87-1.79-.69-3.04-1.56-3.83-2.66-1.19-1.68-1.29-3.88-1.27-5.4.16-7.97,4.19-15.92,10.53-20.74l.45.6c-6.16,4.68-10.08,12.41-10.23,20.16-.03,1.41.06,3.45,1.13,4.95.7.98,1.84,1.76,3.49,2.39,3.3,1.25,6.57,1.07,8.74-.49l.44.61c-1.34.96-3.05,1.45-4.93,1.45Z"
  />
  <path
    d="m168.16,181c-.68-1.08-.69-2.6-.01-3.88.56-1.05,1.52-1.92,2.85-2.58,1.04-.51,2.16-.81,3.25-1.08l-.1-1.49,2-.52.19.73-1.4.36.1,1.5-.48.12c-1.09.28-2.22.56-3.23,1.06-1.17.58-2.04,1.36-2.52,2.25-.55,1.04-.56,2.27-.01,3.12l-.63.4Zm9.16-4.16l-.14-.32c-1.04-2.4-.97-5.2.17-7.54-.14-.15-.26-.31-.36-.5-.4-.74-.37-1.68.08-2.39.08-.12.16-.23.25-.34.13-.17.25-.33.31-.49.08-.23.06-.5.03-.79,0-.12-.02-.24-.02-.37-.04-1.23.54-2.46,1.5-3.2l.46.59c-.78.6-1.24,1.59-1.21,2.58,0,.11.01.22.02.33.03.34.06.72-.08,1.09-.1.28-.27.51-.43.7-.07.09-.14.18-.21.28-.3.48-.32,1.13-.05,1.64.26.49.79.83,1.34.85l-.72-.64.5-.56,6.74,5.95-.5.56-4.76-4.21c.04,1.57.7,3.12,1.81,4.25l-.54.53c-1.41-1.43-2.15-3.45-2.01-5.43l-.46-.41v.71c-.38,0-.75-.11-1.08-.29-.99,2.12-1.03,4.63-.1,6.78l-.16.07.12.36c-.1.04-.14.06-.18.08l-.33.11Zm2.86-.2c0-1.82-.76-3.61-2.06-4.9l.53-.53c1.44,1.43,2.27,3.41,2.28,5.43h-.75Z"
  />
  <path
    d="m165.81,189.83c-.12-3.09-1.25-6.12-3.17-8.53l-.78-.98,1.19.39c.22.07.51-.12.69-.3.13-.13.24-.27.34-.41.14-.18.27-.36.44-.51.97-.92,2.39-.79,3.65-.6l-.12.74c-1.08-.17-2.29-.29-3.02.4-.13.13-.24.28-.36.42-.13.17-.26.34-.41.49-.2.2-.41.34-.63.43,1.78,2.44,2.81,5.41,2.93,8.43l-.75.03Zm8.51-10.31c-.19-1.7-1.16-3.27-2.61-4.2l.41-.63c1.64,1.06,2.74,2.83,2.95,4.75l-.75.08Z"
  />
  <path
    d="m155.33,185.12c-.27,0-.54-.02-.81-.06l.1-.74c.91.12,1.83,0,2.68-.33h-.29s1.48-.71,1.48-.71c1.26-.61,2.94-1.38,4.71-1.96l.23.71c-1.61.52-3.14,1.21-4.34,1.79l-.16.12c-1.04.77-2.32,1.18-3.6,1.18Z"
  />
  <path
    d="m159.82,199.28l-.3-.69c1.37-.59,2.75-1.18,4.12-1.77l2.51-1.08c2.07-.89,3.79-1.64,5.52-2.51,3.98-2.02,7.67-4.6,10.97-7.66.99-.92,1.94-1.89,2.86-2.81l.53.53c-.92.93-1.88,1.9-2.88,2.84-3.35,3.11-7.1,5.73-11.14,7.78-1.74.89-3.48,1.64-5.56,2.54l-2.51,1.08c-1.38.59-2.75,1.18-4.12,1.77Zm3.46-9.29c-.15-1.29-.37-2.78-1.04-4.02-.55-1.01-1.64-2.11-3.07-2.19l.04-.75c1.45.08,2.87,1.06,3.69,2.58.74,1.36.97,2.93,1.13,4.29l-.74.09Z"
  />
  <path
    d="m186.63,183.55c-1.07,0-2.19-.3-3.28-.62l.22-.72c1.71.51,3.48.95,4.84.16.87-.5,1.44-1.43,1.94-2.34,2.34-4.21,4.07-8.71,5.14-13.38l.73.17c-1.08,4.74-2.83,9.31-5.21,13.58-.53.96-1.19,2.03-2.22,2.62-.67.39-1.4.54-2.15.54Z"
  />
  <path
    d="m192.37,168.89l-.15-.73c3.38-.68,5.52-3.78,6.4-6.45,1.02-3.12.91-6.48.8-9.72l.75-.03c.1,3.16.22,6.73-.84,9.98-.94,2.87-3.26,6.21-6.96,6.95Zm-5.36-6.38l-.2-.72c4.39-1.19,8.13-4.37,10-8.52l.68.31c-1.96,4.35-5.88,7.69-10.49,8.94Zm-9.23-2.46l1.62-3.03c1.89-3.53,4.72-6.46,8.17-8.5l.38.65c-3.07,1.81-5.63,4.36-7.44,7.41l.14.12c-.18.22-.36.43-.55.65l-2.33,2.71Zm10.37-.7l-.61-.44c.2-.28.4-.56.59-.85l-.47-.04.74-.35c2.89-4.34,5.03-9.1,6.39-14.18l.72.19c-1.27,4.75-3.22,9.23-5.81,13.35,2.81-1.43,5.36-3.29,7.58-5.54l.53.53c-2.45,2.48-5.27,4.49-8.4,5.99l-.03.17c-.11-.02-.23-.03-.34-.04h-.06c-.27.4-.55.81-.83,1.21Z"
  />
  <path
    d="m170.12,192.22l-.45-.6c1.24-.94,2.94-1.23,4.42-.75l-.23.71c-1.25-.41-2.68-.17-3.73.63Zm4.12-6.11c-1.66-2.27-2.92-4.76-3.77-7.41l.71-.23c.82,2.57,2.05,4.99,3.66,7.19l-.61.44Zm5.76-1.22l-.73-.18c.21-.88.94-1.63,1.96-2.01.85-.32,1.74-.35,2.61-.39l.05.75c-.83.03-1.67.07-2.4.34-.61.23-1.32.74-1.5,1.49Zm6.51-4.76c-.35,0-.67-.13-.92-.22l-4.23-1.59.27-.7,4.23,1.59c.28.11.5.19.72.17.28-.02.55-.23.82-.45.7-.56,1.38-1.13,2.06-1.71l.49.57c-.69.59-1.38,1.16-2.08,1.72-.35.29-.74.57-1.22.61-.05,0-.1,0-.15,0Zm8.29-15.8l-.73-.18c.54-2.19,2.06-4.13,4.04-5.2l.36.66c-1.8.97-3.17,2.74-3.67,4.72Zm-12.75-2.89l-2.87-4.19.84.11c1.26.17,2.53.49,3.87.83.93.24,1.9.48,2.86.67l-.14.74c-.98-.19-1.96-.44-2.9-.68-1.01-.26-1.98-.5-2.93-.68l1.9,2.77-.62.42Zm2.82-6.65h-.75c0-.55.39-.99,1.17-1.32.92-.38,1.85-.68,2.79-.89l.49-1.91h.05c1.58-2.84,2.75-5.94,3.47-9.18l.73.16c-.75,3.37-1.97,6.59-3.63,9.55l-.73,1.3c.6-.12,1.21-.21,1.82-.27l.07.75c-.8.07-1.59.21-2.38.41l-.17.29.07-.27c-.77.2-1.54.45-2.29.76-.26.11-.71.34-.71.63Zm13.55-3.92c-.06-3.96-.76-7.86-2.09-11.6l.71-.25c1.36,3.82,2.08,7.8,2.14,11.84h-.75Z"
  />
  <path
    d="m200,147.43c-.26-3.03-1.03-5.96-2.29-8.71-1.37-1.5-2.53-3.2-3.66-4.84-1.19-1.74-2.42-3.53-3.88-5.06-3.89-4.06-9.55-6.28-15.15-5.93h-.16s-.12-.1-.12-.1c-1.31-1.22-2.92-2.19-4.67-2.8l.25-.71c1.8.62,3.46,1.61,4.82,2.85,5.76-.32,11.58,1.99,15.58,6.17,1.5,1.57,2.75,3.39,3.96,5.16,1.12,1.64,2.28,3.33,3.63,4.8l.07.1c1.31,2.84,2.11,5.87,2.38,9.01l-.75.06Z"
  />
  <path
    d="m206.37,192.58c-.2,0-.4-.02-.59-.05l.12-.74c1.31.22,2.75-.53,3.35-1.73.17-.35.29-.74.41-1.16.18-.6.36-1.22.75-1.74-.63-1.43-.53-3.1-.32-4.71l.08-.59c.19-1.36.39-2.77.08-4.09-.79-4.84-1.9-10.03-3.31-15.46-.25-.96-.48-1.82-.83-2.65-.55-1.29-1.4-2.49-2.22-3.64-1.16-1.63-2.36-3.32-2.78-5.34.05-1.67-.42-3.43-1.25-4.8l.64-.39c.91,1.49,1.41,3.41,1.35,5.13.38,1.77,1.48,3.32,2.65,4.96.85,1.19,1.72,2.42,2.3,3.78.38.88.62,1.77.87,2.76,1.42,5.44,2.53,10.66,3.32,15.5.33,1.42.13,2.9-.07,4.33l-.08.58c-.21,1.57-.31,3.2.35,4.49l.12.23-.17.19c-.39.44-.56,1.03-.75,1.66-.13.42-.26.86-.46,1.28-.66,1.33-2.09,2.18-3.55,2.18Z"
  />
  <path
    d="m205.77,299.3l-.73-.15c.75-3.66,2.25-7.21,4.33-10.29l.62.42c-2.03,3-3.49,6.46-4.22,10.02Zm-34.86-84.73l-.59-.46c2.87-4.2,6.06-8.25,9.48-12.05l-1.41-2.13,1.3.95c-.05-1.45-.4-2.87-1.03-4.17l.67-.33c.76,1.56,1.14,3.3,1.11,5.04,1.09.77,2.24,1.42,3.41,1.93l-.3.69c-1.08-.48-2.13-1.06-3.14-1.74l-.03.62-.15-.23c-3.27,3.64-6.32,7.52-9.08,11.52l.04.03-.28.31Zm33.35-22.21c-8.36,0-16.75-1.01-24.95-3.02l.18-.73c8.69,2.12,17.57,3.12,26.44,2.98v.75c-.55,0-1.1.01-1.66.01Zm.43-1.37l.48-2.06.34.08c2.3-2.61,3.73-5.93,4.05-9.41l.75.07c-.35,3.85-2.01,7.51-4.65,10.31l-.96,1.02Zm.59-3.67l-22.37-.08v-.75s3.13.01,3.13.01l-.09-.23c3.27-1.32,6.7-2.02,10.22-2.07l.25-.22c.11.12.2.23.31.33l.63.63h-.9c-3.08.03-6.11.55-9,1.56l17.82.06v.75Zm-18.53-1.8l-1.61-.95.38-.64,1.61.95-.38.64Zm21.4-1.39h-.75c0-.15-.02-.3-.04-.44h.07c.18-2.54.18-5.1,0-7.63l.75-.05c.19,2.7.18,5.43-.03,8.12Zm-15.54-2.08l-.19-.72,12.93-3.43.19.72-12.93,3.43Zm3.88-7.72l-.27-.7c1.04-.41,1.97-1,2.95-1.62.28-.18.56-.36.84-.53,1.13-.69,2.64-1.51,4.28-1.62,1.45-.1,3.31.48,4.15,2l-.66.37c-.68-1.23-2.23-1.69-3.45-1.61-1.48.1-2.88.86-3.94,1.51-.28.17-.56.35-.83.52-.97.62-1.97,1.25-3.08,1.69Zm1.87-7.86l-.32-.68c1.99-.93,3.72-2.47,4.87-4.33l.64.39c-1.23,1.99-3.07,3.63-5.19,4.62Zm3.92-6.03c-.62,0-1.22-.27-1.68-.48l.31-.68c.64.29,1.21.52,1.72.36.31-.1.58-.36.86-.63l1.59-1.55.53.54-1.6,1.55c-.32.3-.67.65-1.15.81-.2.06-.4.09-.59.09Zm-42.53-20.23c-.3,0-.61-.02-.9-.05l.08-.75c2.35.24,4.95-.56,7.35-2.25,2.16-1.52,3.95-3.57,5.68-5.54l.33.19.28.25c-1.81,2.07-3.63,4.15-5.86,5.72-2.24,1.58-4.68,2.43-6.95,2.43Zm26.47-.79l-.73-.19c.42-1.63,1.36-3.1,2.65-4.14,1.3-1.06,2.93-1.67,4.6-1.75l.03.75c-1.5.06-2.98.62-4.16,1.58-1.17.95-2.02,2.28-2.4,3.75Zm-.71-6.54c-3.07-1.82-6.21-3.75-9.33-5.72l.4-.63c3.11,1.97,6.24,3.89,9.31,5.71l-.38.64Z"
  />
  <path
    d="m206.83,310.95c-1.43,0-2.86-.22-4.23-.66-.88-.29-1.97-.74-2.69-1.65-1.21-1.51-.86-3.61-.2-4.94.67-1.35,1.76-2.41,2.81-3.44l.33-.32c.53-.52,1.06-1.05,1.52-1.63.05-.32.19-.62.35-.87.11-.16.23-.31.35-.46.2-.25.39-.49.49-.75l.71.25c-.26.78-.67,1.47-1.16,2.11,0,.1.03.2.09.28.14.18.43.28.87.26.43,0,.85-.06,1.3-.11.57-.07,1.16-.14,1.75-.11.98.05,1.9.39,2.79.71.25.09.5.18.75.27,1.38.46,2.42.51,3.24.15.43-.18.81-.47,1.2-.78.28-.22.57-.45.89-.64.57-.34,1.29-.54,1.94-.43.3-1.35.59-2.7.87-4.06l.73.15c-.29,1.38-.57,2.75-.88,4.12h.06v.1s.09.08.14.13l-.19.21c-.15,1.18-.46,2.33-.91,3.42l.21.06c-.4,1.44-.72,2.93-.95,4.41l-.74-.12c.12-.75.25-1.5.42-2.25-1.1,1.78-2.59,3.32-4.36,4.45-2.23,1.42-4.85,2.15-7.48,2.15Zm-2.28-11.69c-.38.42-.78.83-1.17,1.22l-.33.32c-1.01.98-2.05,2-2.67,3.23-.61,1.23-.81,2.98.11,4.14.6.76,1.57,1.15,2.34,1.41,3.68,1.19,7.82.66,11.08-1.41,2.95-1.88,5.07-4.95,5.81-8.37l-.18.18.22-1.07c-.45-.06-.98.1-1.39.34-.28.17-.54.37-.82.59-.42.33-.85.66-1.37.88-1.32.57-2.79.2-3.77-.13-.26-.09-.51-.18-.77-.27-.88-.32-1.71-.62-2.58-.66-.53-.03-1.06.04-1.62.11-.45.05-.91.11-1.38.12-.68.02-1.18-.16-1.48-.54-.02-.02-.04-.05-.05-.07Z"
  />
  <path
    d="m206.3,314.48c-3.33,0-6.51-1.3-8.6-3.64l-.09-.1v-.13c-.09-1.7.34-3.62,1.17-5.27l.67.34c-.75,1.5-1.15,3.22-1.11,4.76,2.51,2.72,6.82,3.9,10.77,2.96,3.6-.87,7.01-3.42,9.36-7.01l.63.41c-2.45,3.75-6.02,6.42-9.81,7.33-.99.24-2,.35-2.99.35Zm4.17-15.46l-.73-.14c0-.06.01-.12.02-.19l.02-.15h.05c.64-2.11,1.27-4.21,1.9-6.31l.23-.75c.17-.54.31-1.05.16-1.5-.07-.21-.27-.41-.48-.48-.09-.03-.22-.05-.34.03l-.42-.62c.29-.2.64-.24,1-.12.43.15.81.52.95.95.22.66.04,1.33-.15,1.96l-.22.75c-.34,1.13-.68,2.27-1.02,3.41.83-1.67,1.71-3.31,2.63-4.89.17-.31.39-.69.75-.96.43-.34.99-.42,1.41-.22l-.33.68c-.16-.08-.42-.02-.63.14-.24.18-.41.48-.56.74-1.35,2.32-2.61,4.75-3.74,7.24l-.31-.14c-.06.19-.12.39-.18.58Z"
  />
  <path
    d="m214.16,293.15l-1.08-1.56c-.55-.79-1.72-1.09-2.61-.69l-.07.04s-.06.03-.09.05l-.38-.64.02.02v-.02s.04-.03.07-.04h0s.11-.17.11-.17l.04.02c.54-.48,1.31-.67,2.01-.49.78.2,1.4.85,1.58,1.65l.41,1.86Z"
  />
  <path
    d="m212.64,293.88c-.14-.62-.59-1.14-1.18-1.36-.59-.22-1.21-.1-1.68.33l-.08.18h-1.15l.6-.61c.27-.56.79-.98,1.38-1.12.63-.15,1.32,0,1.81.38.54.43.88,1.12,1.04,2.06l-.74.14Zm4.61-1.21l-.91-.6c-.8-.53-1.88-.61-2.76-.24-.19.19-.37.24-.51.27l-.05-.22-.31-.43.1-.07c.1-.06.21-.12.32-.18.01-.02.03-.04.05-.06l.13-.16c.45-.54,1.18-.83,1.88-.75.77.09,1.46.66,1.71,1.41l.34,1.03Z"
  />
  <path
    d="m212.65,297.11l-.84-1.96c-.12-.29-.33-.54-.58-.73h-.3l.13-.11c-.17-.1-.35-.17-.53-.21-.53-.12-1.07.07-1.27.32,0,.01-.01.02-.02.03l-.71,1.3v-1.6l.06-.09s.03-.04.05-.07c.46-.73,1.4-1.13,2.25-.95.38.08.73.28,1.01.56.05-.04.1-.07.15-.11-.02-.21.04-.42.17-.58.2-.25.49-.35.75-.42.48-.16,1.01-.31,1.58-.29.7.03,1.3.41,1.55.96l.34.78-.81-.27c-.74-.25-1.55-.24-2.28.01l.79.42h-1.47c-.13.06-.23.12-.3.17.1.22.16.46.18.71l.13,2.13Z"
  />
  <path
    d="m212.15,298.79l-.8-1.79c-.17-.37-.56-.67-1.06-.8-.49-.13-1.02-.11-1.57-.08-.04.05-.07.1-.1.16l-.16.31-.32-.13c-.16-.06-.27-.2-.29-.37-.03-.2.07-.41.24-.55.07-.06.15-.1.23-.12.52-.52,1.3-.78,2.02-.63.94.2,1.67,1.08,1.71,2.04l.08,1.96Zm4.24-3.31l-1.55-.33c-1.05-.22-2.16-.07-2.46.01l-.26.24-.45-.45.13-.26s.07-.09.12-.12c.88-.77,2.32-.81,3.24-.08l1.24.99Z"
  />
  <path
    d="m214.57,300.57l-.71-.23.1-.44.07.02c.13-.3.25-.6.38-.91l-1.01-.42c-1.84-.76-3.94-.98-5.9-.62v-.05h-.35l-.2.61-.71-.24,2.43-7.33.71.24-2,6.03s.02,0,.03,0c.46-.53,1.22-.78,2.25-.77.51.02,1.01.09,1.5.22.27-.52.83-.88,1.5-.98.6-.09,1.19,0,1.69.1l1.31.25c.57-1.37,1.15-2.74,1.72-4.1l.69.29c-.95,2.28-1.91,4.56-2.86,6.83l.75.58-.85-.35c-.18.43-.36.85-.54,1.28Zm-2.21-3.48c.5.23.98.52,1.42.85l.82.64c.32-.75.63-1.51.95-2.26l-1.2.21c-.67.12-1.31.33-1.83.51-.05.02-.1.03-.15.05Zm-57.43-88.29l-.73-.16c.63-3.75,1.54-7.51,2.72-11.18l.71.23c-1.13,3.52-2.01,7.13-2.63,10.73h.04s-.11.38-.11.38Z"
  />
  <path
    d="m148.16,233.02l-.05-.26c-.21-1.17-.42-2.38-.39-3.61.04-1.53.42-2.82,1.12-3.82l.21.15c.08-4.73,1.2-9.47,3.29-13.7l.5.25c-.14-1.25-.4-2.5-.78-3.73l-.04-.14.06-.13c.79-1.66,1.79-3.18,2.96-4.53l.57.49c-1.09,1.26-2.03,2.68-2.78,4.23.7,2.3.99,4.66.85,7.03l.37.26c-.08.16-.24.28-.42.33-.18.05-.38.02-.54-.07l-.19-.12.02-.23c.07-1.01.06-2.02-.03-3.02-2.57,5.36-3.58,11.53-2.84,17.42l-.74.09c-.14-1.13-.22-2.28-.24-3.43-.36.76-.55,1.66-.58,2.7-.03,1.15.18,2.32.38,3.46l.05.26-.74.13Z"
  />
  <path
    d="m147.49,276.57c-.7-6.66-.57-13.41.38-20.08l-.44-2.68c-.64-3.88-1.37-8.29-1.31-12.63.06-4.83,1.11-8.97,3.12-12.31l.64.39c-1.94,3.22-2.95,7.24-3.02,11.93-.06,4.28.67,8.64,1.3,12.5l1.96,11.98-.74.12-1.09-6.69c-.64,5.79-.66,11.63-.06,17.4l-.75.08Z"
  />
  <path
    d="m157.4,280.96c-1.46,0-2.92-.13-4.35-.38-.35-.06-.71-.14-1.01-.34-.41-.27-.63-.74-.55-1.17l.74.13c-.03.15.09.32.22.41.19.12.46.18.74.23,3.24.58,6.65.48,9.87-.29-.72-4.1-1.41-8.29-1.99-11.87l.74-.12c.6,3.67,1.31,7.99,2.05,12.21l.06.34-.34.08c-2.01.51-4.09.76-6.17.76Zm-7.39-.94c-.61-.46-1.21-.92-1.82-1.4-.59-.48-1.14-.96-1.41-1.65-.3-.75-.12-1.82.69-2.22l.34.67c-.41.21-.5.84-.33,1.28.21.52.68.93,1.18,1.34.59.47,1.19.94,1.79,1.39l-.45.6Z"
  />
  <path
    d="m162.39,288.81l-.99-.44c-4.73-2.13-9.14-4.87-13.12-8.15l-.08-.07-.03-.1c-.26-.81.06-1.74.77-2.21l.42.62c-.4.27-.6.79-.5,1.26,3.61,2.96,7.59,5.48,11.83,7.49-1.57-2.66-3.69-4.98-6.2-6.76l.43-.61c2.53,1.8,4.69,4.13,6.3,6.8-.23-2.43.54-4.97,2.11-6.84l.57.48c-1.64,1.95-2.33,4.7-1.8,7.19l-.36.08c.05.1.11.2.16.3l.5.96Zm-.39-39.4l-5.91-5.31.5-.56,5.91,5.31-.5.56Zm-13.17-13.43l-.36-.66c3.47-1.87,6.83-3.97,9.97-6.26l.44.61c-3.17,2.3-6.56,4.42-10.06,6.31Zm18.73-13.93l-.66-.36,7.23-13.15.66.36-7.23,13.15Zm2.3-7.43l-.67-.34c2.65-5.22,5.9-10.17,9.66-14.71l.58.48c-3.72,4.5-6.94,9.4-9.57,14.58Zm14.66-13.5l-.48-1.75c-.07-.24-.04-.51.07-.75l.99-7.13.74.1-.87,6.27c.22-.09.45-.14.66-.19l2.93-.68.17.73-2.92.68c-.3.07-.59.14-.81.29-.06.05-.12.1-.16.17l-.31,2.25Zm-8.15-4.8l-3.63-1.4.27-.7,3.63,1.4-.27.7Zm3.82-1.33l-.65-.37,2.07-3.64.65.37-2.07,3.64Z"
  />
  <path
    d="m183.11,218.37l-.75-.02c0-.09,0-.18.01-.26.3-6.55,1.07-13.11,2.29-19.5l.74.14c-1.2,6.27-1.96,12.7-2.26,19.12h0v.19s-.02.06-.02.1c0,.08,0,.16-.01.24Zm5.75-4.63l-.31-.68c5.94-2.74,11.47-6.23,16.44-10.36l.48.58c-5.02,4.18-10.6,7.7-16.6,10.47Zm-3.77-18.44l-.17-.73c3.28-.75,6.65-1.25,10.02-1.47l.05.75c-3.33.22-6.66.71-9.9,1.45Z"
  />
  <path
    d="m217.34,287.95l2.29-8.67c-3.54-3.55-5.12-8.63-6.18-13.15-.18-.76-.35-1.52-.52-2.28-.9-3.97-1.82-8.07-3.85-11.61-.38-.66-.81-1.32-1.22-1.96-.98-1.51-2-3.08-2.49-4.86-.21-.75-.32-1.52-.43-2.27-.12-.82-.24-1.66-.49-2.44-.43-1.36-1.51-2.78-2.94-2.88l-.29-.02-2.16-11c-.22-1.17-.46-2.38-.43-3.61.04-1.67.51-3.31.93-4.75l4.37-14.99.72.21-.67,2.31.91-2.95.1.03c1.83-2.99,2.28-6.85,1.16-10.17l.71-.24c1.23,3.65.68,7.91-1.44,11.13l-1.45,2.2-3.69,12.68c-.41,1.4-.87,2.99-.91,4.56-.02,1.15.2,2.33.42,3.46l2.05,10.45c1.74.28,2.86,1.96,3.31,3.36.27.84.39,1.72.52,2.56.1.72.21,1.47.41,2.17.46,1.67,1.45,3.19,2.4,4.65.42.65.86,1.32,1.24,2,2.08,3.64,3.02,7.8,3.93,11.82.17.76.34,1.52.52,2.27,1.06,4.48,2.62,9.52,6.13,12.94l.16.15-1.36,5.13.27.15-2.04,3.61Z"
  />
  <path
    d="m202.36,215.31l-.71-.25c.32-.93.83-1.79,1.47-2.48l2.1-9.41.73.16-2.15,9.61-.07.08c-.6.63-1.08,1.42-1.38,2.29Z"
  />
  <path
    d="m219.58,284.38l-.67-.33.24-.57.07.03c.93-1.61,1.63-3.09,1.43-4.65-.15-1.11-.75-2.15-1.33-3.15l-.13-.22c-1.63-2.83-2.94-5.83-3.91-8.97.07.6.13,1.2.18,1.8l-.75.06c-.71-8.22-2.79-16.16-6.21-23.62-.03.8-.13,1.59-.3,2.36l-.74-.13c.03-.27.07-.55.09-.83h.07c.26-1.67.17-3.41-.27-5.06l-1.26-1.89c-.14.35-.32.68-.54.99l-.61-.44c.94-1.32,1.07-3.17.32-4.62-.74-1.43-2.31-2.38-3.91-2.38h-.05v-.75c.58,0,1.16.09,1.72.29-.38-2.3-.83-4.65-1.36-7.16-.45.76-.96,1.48-1.46,2.19l-.66-.37c1.1-1.57,2.19-3.12,2.65-4.89.65-2.53-.04-5.32-.6-7.57l.73-.18c.58,2.33,1.3,5.23.6,7.94-.2.77-.5,1.49-.87,2.18l.21-.05c.6,2.78,1.1,5.35,1.51,7.86l-.6.1c1.17.45,2.18,1.32,2.76,2.44.59,1.13.71,2.49.4,3.72l.14-.1,1.6,2.43c.25.95.4,1.93.44,2.9l.3-.14c2.88,6.09,4.88,12.5,5.96,19.13l.29-.06c.96,4.4,2.57,8.58,4.79,12.42l.13.22c.62,1.07,1.26,2.17,1.43,3.43.27,2.11-.94,4.14-1.82,5.62Zm-13.16-34.49l-.08-.25c-5.21-.58-11.02-1.32-15.68-4.57-4.24-2.96-7.34-8.06-8.51-14.02-.92-4.69-.82-9.8.34-16.57l.74.13c-1.14,6.67-1.25,11.7-.34,16.29,1.13,5.76,4.12,10.7,8.2,13.55,4.67,3.25,10.64,3.92,15.91,4.5l1.83.2-2.42.73Z"
  />
  <path
    d="m222.3,295.87l-.58-.67c-1.78-2.05-3.57-3.99-5.85-5.15-2.48-1.27-5.3-1.28-7.19-.03-.63.69-1.33.85-1.82.87-.72,0-1.37-.25-1.86-.75-.86-.87-1.13-2.11-1.35-3.11l-.04-.2,2.14-2.12.53.53-1.85,1.83c.19.86.45,1.88,1.11,2.54.34.34.85.53,1.3.52.49-.01.95-.24,1.31-.65l.07-.06c2.11-1.42,5.25-1.44,7.99-.04,2.13,1.08,3.82,2.78,5.45,4.62,0-1.57-.35-3.12-1-4.54l.68-.31c.84,1.81,1.19,3.83,1.03,5.84l-.07.89Zm-9.38-9.5l-.54-.52c1.82-1.9,4.26-3.15,6.86-3.5l.1.74c-2.43.33-4.71,1.5-6.42,3.28Zm-1.42-.93l-.5-.56c1.99-1.8,4.04-3.54,6.1-5.19l-10.25.65-.05-.75,12.65-.81-.95.75c-2.37,1.86-4.72,3.84-7,5.9Zm-5.51-.57c-2.7-1.81-4.87-4.78-6.27-8.58-1.23-3.33-1.75-6.89-2.25-10.33l.14-.03c-2.33-4.23-4.38-8.64-6.15-13.17l.5-.19c-2.75-3.79-4.91-8.03-6.36-12.48l.71-.23c1.99,6.11,5.35,11.81,9.72,16.48l-.55.51c-1.08-1.15-2.09-2.36-3.04-3.62,2.41,6.07,5.35,11.91,8.76,17.38l-.63.41-.39-.6h.01c-.61-.99-1.2-1.99-1.77-3,.44,2.91.96,5.86,1.98,8.62.94,2.55,2.74,6.04,5.98,8.22l-.42.62Zm9.85-6.87l-.58-.39c-1.49-1-2.98-2-4.46-3l-2.66-1.79.42-.62,2.66,1.79c1.41.95,2.82,1.9,4.23,2.85h.4v1.17Zm-13.56-22.09c-5.03-1.78-9.46-5.45-12.14-10.06l.65-.38c2.6,4.46,6.88,8.01,11.74,9.73l-.25.71Zm-1.54-16.95c-3.2-1.35-6.58-2.1-10.06-2.22l.03-.75c3.57.12,7.04.89,10.33,2.28l-.29.69Zm-41.04-10.5c-2.46-7.35-3.24-15.31-2.25-23.03l.74.09c-.97,7.61-.2,15.46,2.22,22.7l-.71.24Z"
  />
  <path
    d="m221.01,290.06c-1.39-1.45-3.36-2.33-5.39-2.41l.03-.75c2.22.09,4.37,1.06,5.89,2.64l-.54.52Z"
  />
  <path
    d="m220.92,290.44c-1.12-2.11-1.7-4.48-1.65-6.84h.75c-.04,2.25.5,4.49,1.56,6.49l-.66.35Zm-56.29-60.31l-.68-.31c3.82-8.28,6.1-17.11,6.78-26.23l.75.05c-.68,9.21-2.99,18.12-6.85,26.49Z"
  />
  <path
    d="m165.24,241.4l-.35-3.71h.15c.6-4.19.91-8.42.92-12.6h.75c-.01,4.43-.36,8.91-1.02,13.32l-.45,2.99Z"
  />
  <path
    d="m136.71,296.35c-.98,0-2.11,0-3.16-.4-1.06-.4-1.86-1.19-2.12-2.13l-.08-.27.24-.15c2.63-1.6,5.7-3.53,8.6-5.77l.18-.14.1.05,6.87-5.16-.46.08.65-.78c.33-.4.57-.89.66-1.39l.74.14c-.07.35-.19.69-.36,1.02.87-.05,1.76.08,2.59.36l-.24.71c-.77-.27-1.59-.37-2.41-.32l.11.15-7.38,5.54c2.92,1.25,6.22,1.74,9.37,1.38l.44-.05c.8-.1,1.63-.2,2.45,0,.84.21,1.67.82,1.93,1.68,1.85-.99,3.62-2.12,5.29-3.39l.45.6c-7,5.33-15.68,8.25-24.47,8.25Zm-4.47-2.47c.27.6.83,1.1,1.57,1.37.93.34,1.94.36,2.9.35,6.27,0,12.47-1.51,18.04-4.35-.11-.65-.78-1.15-1.43-1.31-.69-.17-1.42-.08-2.18.01l-.45.05c-3.45.39-7.07-.19-10.23-1.65-2.77,2.13-5.69,3.98-8.22,5.52Zm25.77-16.78l-.71-.22c.81-2.59,1.83-5.13,3.03-7.57l.67.33c-1.18,2.4-2.19,4.91-2.99,7.46Zm3.05-7.85l-.58-.48c1.74-2.08,2.13-5.08,2.44-7.49.64-4.89,1.29-9.89.78-14.77v-.1s.03-.09.03-.09c1.4-3.07,1.67-6.83.73-10.31l.72-.2c.97,3.61.7,7.51-.73,10.72.5,4.93-.15,9.94-.78,14.79-.33,2.56-.74,5.68-2.62,7.93Z"
  />
  <path
    d="m157.35,289.9c-.37-1.23,0-2.66.93-3.56l.52.54c-.73.71-1.02,1.84-.73,2.8l-.72.21Zm-11.73-.26l-.39-.64c1.39-.84,2.78-1.68,4.16-2.53,1.47-.89,2.93-1.78,4.4-2.67l.39.64c-1.47.89-2.93,1.78-4.4,2.67-1.39.84-2.78,1.69-4.17,2.53Zm-.78-1.17c-.34-.35-.86-.6-1.5-.72-.3-.06-.59-.08-.82-.1-.16-.01-.29-.02-.4-.05l-.38.11v-3.17l.64,2.23c.15-.02.29-.06.46-.03.28-.14.57-.26.87-.35l.43-.52s.03-.04.05-.06l-.96.45,2.64-2.06c.59-.46,1.3-.95,2.14-1.12.9-.19,1.79.03,2.35.57l.19.05v1.26l-.59-.64c-.82-.18-2.1-.13-3.34.36.61-.03,1.21.1,1.75.4l1.54.85-1.75-.14c-.65-.05-1.82-.06-2.96.38h.02c.39,0,.78.04,1.16.13l-.13.74c-.61-.07-1.27-.05-1.92.06.41.21.78.51,1.06.88l-.57.49Z"
  />
  <path
    d="m144.11,287.99l-.33-1.19c-.13-.47-.22-.94-.27-1.39l-.05-.55.53.15c.25.07.44.22.56.44.22.41.09.95-.05,1.37l-.38,1.17Zm1.31-1.7l-.58-1.92.72-.22.06.19c.05-.16.09-.33.12-.5h-.02c-.03-.17.03-.36.16-.49l.73-.71-.09,1.01c-.06.68-.29,1.35-.65,1.94l-.44.7Zm.84-2.55l.14.15s.06-.11.05-.18l-.19.04Zm.53,1.84l.32-3.29.11-.1c.37-.34.48-.44.68-.44h.42l-.05.42c-.07.63-.28,1.27-.61,1.86l-.87,1.55Z"
  />
  <path
    d="m135.05,299.27c-.71,0-1.47-.05-2.2-.27-1.26-.37-2.24-1.19-2.61-2.2-.41-1.12-.01-2.66,1.23-3.17l.28.7c-.81.33-1.09,1.44-.81,2.22.29.79,1.08,1.44,2.11,1.74.92.27,1.88.26,3.05.21,5.37-.19,10.57-.52,15.27-2.4,2.42-.97,4.69-2.36,6.89-3.7l.19-.11c.94-.58,1.92-1.19,2.62-2.04.57-.7,1.04-1.82.66-2.87l.7-.26c.41,1.12.11,2.5-.78,3.6-.78.95-1.81,1.59-2.81,2.21l-.19.11c-2.23,1.36-4.53,2.77-7,3.76-4.81,1.92-10.08,2.26-15.51,2.45-.34.01-.71.03-1.09.03Zm7.13-10.67l-.54-.53c2.54-2.6,5.49-4.76,8.75-6.42l.34.67c-3.19,1.62-6.07,3.73-8.55,6.28Z"
  />
</svg>
