<svg xmlns="http://www.w3.org/2000/svg" viewBox="0 0 320 320" opacity="0.6">
  <path
    d="M182.08 161.19c-.1 0-.2-.04-.27-.11a.387.387 0 0 1 0-.53c3.09-3 5.73-5.44 8.31-7.67.01-.02.05-.08.09-.15.1-.16.23-.36.45-.49.13-.07.26-.1.36-.12.23-.04.47-.06.7-.03.21.02.36.2.34.41-.02.21-.19.36-.41.34-.17-.02-.33 0-.5.02-.04 0-.1.02-.13.04-.06.03-.12.13-.19.23-.06.1-.12.19-.2.28-2.6 2.26-5.23 4.69-8.31 7.68-.07.07-.17.11-.26.11Z"
  />
  <path
    d="M194.01 156.97a.42.42 0 0 1-.21-.06.373.373 0 0 1-.1-.52c3.16-4.75 5.9-9.86 8.53-14.83-2.34.8-4.4 1.79-6.27 3.01-.81.53-1.72 1.19-2.29 2.09-.43.68-.7 1.53-.85 2.68-.06.44-.09.88-.13 1.32-.05.56-.09 1.11-.18 1.66-.02.12-.13.3-.24.36-.19.09-.41.03-.53-.15a.42.42 0 0 1 .05-.5c.07-.48.11-.96.15-1.43.04-.45.08-.91.13-1.36.17-1.26.47-2.21.96-2.98.64-1.02 1.63-1.74 2.51-2.31 2.16-1.41 4.56-2.51 7.34-3.38.14-.04.3 0 .4.12.1.12.11.28.04.42-2.78 5.25-5.65 10.68-9 15.72-.07.11-.19.17-.31.17Z"
  />
  <path
    d="M182.9 160.52c-.16 0-.31-.11-.36-.27-.06-.2.06-.41.26-.46l6.91-1.94c1.38-.39 2.81-.79 3.96-1.63.17-.12.4-.08.52.08.12.17.08.4-.08.52-1.27.92-2.83 1.36-4.2 1.75l-6.91 1.94s-.07.01-.1.01ZM190.64 152.61a.39.39 0 0 1-.38-.36c-.12-2.47-.09-5.07 1.02-7.32 1.08-2.2 3.17-4.04 6.39-5.64 1.02-.5 2.24-1.04 3.55-1.22.16-.02.36-.04.56 0 .25.06.45.2.6.31.39.28.77.57 1.16.85.09.06.14.16.15.27 0 .11-.03.21-.1.29-.41.44-.75 1.02-.97 1.64-.07.2-.28.3-.48.23-.2-.07-.3-.28-.23-.48.2-.58.5-1.12.86-1.58-.27-.2-.55-.41-.83-.61-.11-.08-.23-.17-.33-.19-.08-.02-.19 0-.29 0-1.21.16-2.35.67-3.32 1.15-3.07 1.52-5.05 3.25-6.05 5.3-1.03 2.1-1.06 4.58-.94 6.95 0 .21-.15.38-.36.39h-.02Z"
  />
  <path
    d="M191.62 151.13c-.2 0-.37-.16-.38-.37-.06-2.71 1.32-5.58 3.69-7.68 1.88-1.67 4.31-2.9 7.63-3.87.2-.06.41.05.46.25.06.2-.05.41-.25.46-3.21.95-5.54 2.13-7.34 3.72-2.2 1.95-3.48 4.6-3.43 7.1 0 .21-.16.38-.37.38Z"
  />
  <path
    d="M191.36 148.3s-.07 0-.1-.01a.37.37 0 0 1-.26-.46c.62-2.21 1.89-4.28 3.58-5.82 1.69-1.55 3.86-2.63 6.12-3.05.21-.04.4.1.44.3.04.2-.1.4-.3.44-2.12.39-4.16 1.41-5.75 2.86-1.59 1.45-2.78 3.4-3.36 5.47-.05.17-.2.27-.36.27ZM179.56 163.37a.37.37 0 0 1-.28-.62l.56-.64c.14-.16.37-.17.53-.03s.17.38.03.53l-.56.64c-.07.08-.18.13-.28.13ZM190.13 153.47c-.09 0-.19-.04-.26-.11-.97-.95-1.97-1.93-3.1-2.69-1.79-1.23-3.88-1.93-5.86-2.54-1.35-.42-2.49-.74-3.66-.94-.49-.08-.97-.15-1.46-.21l-5.54-.71a.38.38 0 0 1-.33-.42c.03-.21.22-.35.42-.33l5.53.7c.51.07 1.01.13 1.5.21 1.21.21 2.38.54 3.75.96 1.95.6 4.18 1.35 6.06 2.64 1.17.8 2.2 1.81 3.2 2.78.15.14.15.38 0 .53-.07.08-.17.11-.27.11Z"
  />
  <path
    d="M190.41 151.94a.41.41 0 0 1-.29-.13c-2.02-2.4-4.86-4.28-8.46-5.58-3-1.09-6.12-1.66-9.85-2.18l-1.06 1.95c-.1.18-.33.25-.51.15a.378.378 0 0 1-.15-.51l1.19-2.18c.07-.14.22-.22.38-.19 3.9.53 7.13 1.12 10.26 2.25 3.72 1.35 6.67 3.3 8.78 5.81a.38.38 0 0 1-.29.62Z"
  />
  <path
    d="M185.53 148.61c-.06 0-.12-.01-.17-.04-4.28-2.23-9.27-2.97-14.02-3.54a.375.375 0 0 1-.33-.42c.02-.21.2-.36.42-.33 4.81.58 9.88 1.33 14.28 3.62a.375.375 0 0 1-.17.71Z"
  />
  <path
    d="M190.11 151.39a.36.36 0 0 1-.32-.18c-1.55-2.55-4.15-4.75-7.52-6.37-2.95-1.42-6.16-2.28-9.28-3.1-.29.68-.68 1.31-1.15 1.89a.37.37 0 0 1-.53.05.379.379 0 0 1-.05-.53c.49-.6.88-1.27 1.16-1.99a.37.37 0 0 1 .44-.23c3.26.85 6.62 1.73 9.74 3.23 3.49 1.68 6.2 3.98 7.83 6.65.11.18.05.41-.12.52-.06.04-.13.05-.2.05Z"
  />
  <path
    d="M188.59 149.23a.42.42 0 0 1-.21-.06.383.383 0 0 1-.11-.52c1.11-1.69 2.32-3.35 3.6-4.92a.37.37 0 0 1 .53-.05c.16.13.19.37.05.53a58.07 58.07 0 0 0-3.55 4.86c-.07.11-.19.17-.31.17ZM158.64 162.75s-.09 0-.14-.03a.378.378 0 0 1-.23-.42l.24-1.27c.04-.22.16-.35.28-.41 1.85-3.02 3.91-5.95 6.11-8.71.31-.39.63-.79.95-1.18.48-.59.95-1.18 1.42-1.77 1.52-1.95 2.91-4.01 4.13-6.1a.375.375 0 0 1 .65.37c-.39.67-.8 1.33-1.22 1.99.16.12.2.34.09.51-1.2 1.85-2.52 3.64-3.93 5.32-.23.27-.46.55-.7.82-.45.53-.91 1.06-1.34 1.6-1.25 1.57-2.34 3.3-3.39 4.97l-2.61 4.12c-.07.11-.19.17-.32.17Z"
  />
  <path
    d="M172.83 163.9h-.02c-4.78-.25-9.61-.56-14.36-.91a.385.385 0 0 1-.35-.4c.02-.21.2-.38.4-.35 4.74.35 9.56.65 14.34.91.21.01.37.19.35.39 0 .2-.18.36-.37.36ZM179.22 167.67c-.25 0-.5-.04-.74-.14-.1-.04-.19-.08-.29-.13-.11-.05-.22-.1-.33-.14-.27-.08-.58-.06-.92-.03-.32.03-.65.06-.99 0-.2-.03-.39-.1-.57-.16-.15-.05-.3-.11-.46-.13-.12-.02-.25-.03-.37-.03-.15 0-.29-.02-.44-.04-.37-.06-.7-.21-1.02-.36-.31-.15-.61-.29-.91-.31-.21-.02-.36-.2-.34-.41s.17-.37.41-.34c.43.04.81.21 1.17.38.28.13.55.26.82.3.12.02.24.02.36.03.15 0 .31.02.46.04.2.03.39.1.58.16.15.05.3.11.46.13.25.04.51.02.8 0 .39-.03.78-.07 1.19.06.15.04.29.11.44.18.08.04.16.07.24.11.33.13.8.14 1.09-.12.09-.08.17-.2.25-.32.1-.15.22-.32.38-.46.2-.18.44-.28.64-.37l.5-.22c.35-.16.68-.32.8-.58.04-.09.06-.21.09-.34.14-.76.29-1.62.06-2.37-.06-.18-.13-.33-.21-.44-.25-.33-.68-.44-.92-.48-.25-.04-.55-.02-.68.14-.1.12-.1.33-.08.48 0 .09.02.18.04.27.03.18.06.37.06.56 0 .45-.18.9-.49 1.23-.14.15-.38.16-.53.02a.378.378 0 0 1-.02-.53c.18-.19.29-.46.29-.72 0-.14-.02-.29-.05-.43-.02-.1-.03-.21-.04-.31-.04-.42.04-.77.24-1.02.28-.36.79-.51 1.39-.42.59.09 1.09.36 1.39.76.14.18.25.4.34.67.29.93.11 1.92-.03 2.73-.03.16-.06.34-.14.52-.25.53-.8.78-1.17.95l-.5.22c-.17.07-.34.15-.45.25-.09.08-.17.2-.26.33-.1.14-.21.31-.37.45-.29.26-.69.4-1.12.4Z"
  />
  <path
    d="M172.24 166.19h-.08c-.31-.07-.47-.34-.53-.43-.43-.73-.38-1.6-.34-2.3.01-.21.17-.37.4-.35.21.01.36.19.35.4-.03.6-.08 1.34.24 1.88.04.07.06.08.06.08.2.04.32.24.28.44-.04.18-.2.29-.38.29ZM177.48 165.62c-.15 0-.3-.1-.35-.25-.51-1.43-1.26-2.75-2.22-3.91-.27-.32-.49-.59-.62-.92-.19-.48-.13-.99.16-1.33.46-.55 1.28-.44 1.83-.19 1.13.51 1.94 1.51 2.65 2.5.73 1.02 1.41 2.1 2.02 3.2.1.18.04.41-.15.51a.37.37 0 0 1-.51-.15c-.6-1.08-1.26-2.13-1.97-3.13-.75-1.05-1.43-1.84-2.35-2.25-.33-.15-.76-.21-.94 0-.12.14-.1.39-.03.57.09.23.26.43.44.65 1.08 1.3 1.87 2.7 2.41 4.21.07.19-.03.41-.23.48-.04.01-.08.02-.13.02Z"
  />
  <path
    d="M173.87 165.33c-.12 0-.24-.06-.31-.17-.64-.99-1.04-2.08-1.43-3.15-.16-.43-.35-.96-.23-1.51.08-.36.33-.69.65-.86.27-.15.56-.17.82-.07.2.07.35.2.49.33.67.65 1.13 1.46 1.57 2.24.48.84.94 1.64 1.62 2.23.16.13.18.37.04.53-.14.16-.37.17-.53.04-.79-.67-1.29-1.57-1.79-2.43-.44-.77-.85-1.5-1.44-2.07a.817.817 0 0 0-.22-.17c-.06-.02-.13-.01-.21.03a.62.62 0 0 0-.28.37c-.08.34.07.74.2 1.09.37 1.02.76 2.08 1.36 3 .11.17.06.41-.11.52a.36.36 0 0 1-.2.06ZM177.87 170.38c-.22 0-.44-.02-.66-.04-.25-.03-.5-.05-.75-.08-.31-.04-1.03-.12-1.32-.7a.368.368 0 0 1 .17-.5c.18-.09.41-.02.5.17.09.19.44.25.73.29.25.03.5.05.74.08.44.04.83.07 1.17-.05.15-.05.29-.13.43-.21.94-.53 1.83-1.15 2.65-1.85.19-.16.38-.33.54-.52.47-.58.61-1.42.35-2.12-.07-.19.03-.41.22-.48.2-.07.41.03.48.22.35.95.17 2.07-.47 2.85-.19.24-.42.44-.63.62-.86.73-1.79 1.38-2.77 1.94-.18.1-.36.2-.56.27-.27.09-.55.12-.83.12Z"
  />
  <path
    d="M179.11 176.67c-.17 0-.33-.12-.37-.3-.2-.93-.4-1.89-.82-2.74-.36-.72-.85-1.34-1.38-2-.36-.45-.73-.92-1.05-1.41-.32-.49-.59-1.02-.85-1.52l-1-1.94a.376.376 0 0 1 .16-.5c.18-.09.41-.02.5.16l1 1.94c.25.49.51 1 .81 1.46.3.46.66.92 1.01 1.35.53.66 1.08 1.35 1.47 2.14.46.93.68 1.94.89 2.92.04.2-.09.4-.29.45h-.08Z"
  />
  <path
    d="M177.8 171.73c-.26 0-.5-.02-.73-.03a.372.372 0 0 1-.35-.4c.02-.21.18-.37.4-.35.53.04 1.13.08 1.61-.12.31-.13.59-.37.86-.61.82-.7 1.67-1.43 2.29-2.31.67-.94.97-1.97.86-2.88-.03-.21.12-.39.33-.42.21-.03.39.12.42.33.13 1.09-.22 2.3-1 3.4-.67.95-1.56 1.71-2.41 2.44-.3.26-.64.55-1.06.73-.4.17-.83.22-1.23.22Z"
  />
  <path
    d="M179.92 172.58c-.12 0-.24-.07-.3-.17-.11-.17-.37-.24-.67-.32-.23-.06-.48-.13-.7-.26-.06-.04-.12-.07-.18-.11-.08-.05-.15-.1-.21-.12-.06.2-.27.27-.47.2-.2-.06-.3-.31-.23-.51.13-.39.58-.52.92-.41.17.05.29.14.41.22.04.03.09.06.13.08.14.08.33.13.53.19.24.07.5.14.72.28.76-1.08 1.4-2.25 1.9-3.48.08-.19.3-.28.49-.21.19.08.29.3.21.49-.57 1.42-1.32 2.76-2.24 3.99-.07.1-.18.15-.3.15Z"
  />
  <path
    d="M182.15 169.79a.88.88 0 0 1-.46-.12.366.366 0 0 1-.14-.51c.1-.18.33-.24.51-.14.1.06.35-.03.44-.06.57-.2 1.03-.44 1.38-.71.55-.42.98-1.02 1.39-1.6.18-.26.35-.5.44-.76.09-.28.09-.6.09-.91 0-.22 0-.47-.08-.65-.07-.14-.14-.28-.12-.47.02-.19.16-.37.34-.44.17-.06.36-.03.49.09.15.14.16.38.02.53l-.03.03c.13.31.13.65.13.91 0 .35 0 .75-.13 1.14-.12.37-.33.67-.54.96-.44.63-.9 1.27-1.54 1.76-.42.32-.94.59-1.59.82-.12.04-.34.12-.59.12Z"
  />
  <path
    d="M185.39 166.49c-.2 0-.37-.16-.38-.36-.03-.87.28-1.66.58-2.43.12-.31.25-.63.35-.95.15-.48.24-.97.34-1.49.14-.76.29-1.55.63-2.29.09-.19.31-.27.5-.18.19.09.27.31.18.5-.3.65-.43 1.36-.57 2.11-.1.52-.2 1.05-.36 1.57-.1.33-.23.67-.36 1-.29.73-.56 1.42-.53 2.13 0 .21-.15.38-.36.39h-.01Z"
  />
  <path
    d="M184.22 167.99s-.1 0-.15-.03a.375.375 0 0 1-.2-.49c.5-1.17.33-2.58-.42-3.6-.12-.17-.09-.4.08-.52.17-.12.4-.09.52.08.9 1.23 1.1 2.93.5 4.33a.38.38 0 0 1-.34.23ZM179.7 143.54h-.05a.371.371 0 0 1-.32-.42c.26-1.83.9-3.58 1.51-5.27.37-1 .75-2.04 1.04-3.08.15-.54.28-1.08.41-1.62.25-1.04.51-2.11.91-3.12a.376.376 0 1 1 .7.28c-.38.97-.63 2.01-.88 3.02-.13.55-.26 1.1-.42 1.64-.3 1.06-.68 2.11-1.05 3.13-.6 1.66-1.23 3.37-1.48 5.12-.03.19-.19.32-.37.32Z"
  />
  <path
    d="M186.34 146.92h-.02a.372.372 0 0 1-.35-.4c.05-.76.1-1.62.11-2.46 0-.77-.02-1.55-.05-2.32l-.27-7.23c0-.17-.01-.35-.07-.47-.01-.03-.03-.05-.05-.07-1.35 1.26-2.53 2.28-3.72 3.17-.16.13-.4.09-.52-.07-.12-.17-.09-.4.07-.52 1.21-.92 2.42-1.96 3.82-3.27.06-.06.15-.1.24-.1.33-.04.68.21.85.56.12.26.13.54.14.76l.27 7.23c.03.79.06 1.57.05 2.35 0 .86-.06 1.73-.11 2.5-.01.2-.18.35-.37.35Z"
  />
  <path
    d="M186.39 140.97h-.08a.375.375 0 0 1-.29-.44c.25-1.24.51-2.53.57-3.8.07-1.41-.13-2.64-.58-3.66-.44-1-1.15-1.87-1.96-2.83-.93-1.09-1.87-2.17-2.82-3.23-.2-.22-.42-.47-.66-.66-.51-.4-1.17-.62-1.8-.83-.2-.07-.3-.28-.24-.47.07-.2.28-.3.47-.24.67.22 1.42.47 2.03.96.29.23.54.5.75.75.96 1.07 1.9 2.15 2.83 3.24.85 1 1.59 1.92 2.08 3.01.5 1.13.71 2.47.64 4-.06 1.33-.33 2.65-.59 3.92-.04.18-.19.3-.37.3Z"
  />
  <path
    d="M178.96 125.48h-.04c-1.64-.2-3.04-1.12-4.38-2-.28-.19-.57-.37-.85-.55-1.38-.87-2.86-1.59-4.4-2.13-.2-.07-.3-.28-.23-.48.07-.2.28-.3.48-.23 1.59.56 3.12 1.3 4.55 2.2.29.18.58.37.86.56 1.27.84 2.59 1.71 4.06 1.89.21.02.35.21.33.42a.37.37 0 0 1-.37.33ZM163.27 155.33c-.12 0-.23-.05-.3-.16-.93-1.29-.77-2.96-.52-4.57.37-2.42.75-4.92 1.36-7.35.03-.11.1-.2.2-.25.1-.05.22-.05.32 0 .45.21 1.39.3 2.22.37 1.46.13 2.97.27 4.42.71.2.06.31.27.25.47-.06.2-.27.31-.47.25-1.38-.41-2.85-.55-4.28-.68-.73-.07-1.49-.13-2.05-.29-.55 2.26-.91 4.61-1.25 6.88-.22 1.45-.37 2.96.39 4.02.12.17.08.4-.09.52a.36.36 0 0 1-.22.07ZM177.49 174.3c-.06 0-.12-.01-.18-.05l-1.35-.75c-.16-.09-.35-.2-.5-.38-.25-.31-.29-.69-.32-1-.07-.66-.17-1.43-.47-2.12a4.177 4.177 0 0 0-1.98-2.06.372.372 0 0 1-.18-.5c.09-.19.32-.27.5-.18 1.03.5 1.89 1.38 2.34 2.44.34.78.46 1.62.53 2.34.02.23.05.46.15.59.06.08.19.15.29.21.44.25.89.5 1.34.75.18.1.25.33.15.51-.07.12-.2.2-.33.2Z"
  />
  <path
    d="M177.48 175.52c-.08 0-.17-.03-.24-.08-4.17-3.4-7.8-7.4-10.77-11.89a.374.374 0 0 1 .11-.52c.17-.11.41-.07.52.11 2.93 4.42 6.51 8.37 10.62 11.72a.379.379 0 0 1-.24.67ZM184.11 206.24c-.21 0-.37-.17-.37-.38 0-3.83-.52-7.64-1.57-11.32-.1-.36-.21-.72-.32-1.08-.21-.7-.42-1.4-.59-2.12-.32-1.32-.52-2.66-.71-3.96l-1.62-11c-.03-.21.11-.4.32-.43.21-.04.4.11.43.32l1.62 11c.19 1.28.38 2.61.7 3.89.17.7.38 1.39.58 2.08.11.36.22.73.32 1.09 1.07 3.75 1.6 7.63 1.6 11.53 0 .21-.17.37-.38.37Z"
  />
  <path
    d="M158.89 213.54c-.21 0-.37-.17-.38-.37 0-.21.16-.38.37-.38 4.21-.05 8.48-.25 12.68-.61.97-.08 1.84-.17 2.71-.37.95-.23 1.88-.6 2.77-.96 1.32-.53 2.68-1.08 3.87-1.87 1.3-.86 2.24-1.92 2.71-3.07a.375.375 0 0 1 .69.29c-.53 1.29-1.56 2.47-2.99 3.41-1.26.83-2.66 1.4-4.01 1.94-.92.37-1.87.76-2.88 1-.91.22-1.85.31-2.82.39-4.22.36-8.51.57-12.74.61Z"
  />
  <path
    d="M158.69 213.88c-.2 0-.36-.15-.37-.35l-4.06-69.76c-.23-3.94-.47-8.02.56-11.95 1.15-4.42 3.92-7.87 7.4-9.23l.95-.45c.11-.05.27-.14.49-.12.19.01.35.1.45.16l1.63.95c.55.32 1.12.65 1.64 1.08.19.16.4.35.55.6.05.08.08.16.12.24l.09.18c.11.18.3.32.51.46.13.1.27.19.39.3.39.35.64.81.88 1.25.25.46.49.9.87 1.15.17.11.22.35.11.52-.11.17-.35.22-.52.11-.54-.36-.83-.9-1.11-1.42-.22-.4-.42-.78-.72-1.05-.1-.09-.21-.17-.33-.25-.25-.18-.52-.38-.71-.68-.05-.08-.1-.17-.14-.26-.03-.06-.05-.12-.09-.17-.09-.15-.24-.28-.38-.4-.47-.39-1.02-.7-1.55-1.01l-1.63-.95s-.1-.06-.12-.06c-.02 0-.09.04-.12.05l-.97.46c-3.28 1.29-5.88 4.55-6.97 8.73-.99 3.82-.76 7.83-.53 11.72l4.06 69.76c.01.21-.15.38-.35.4h-.02Z"
  />
  <path
    d="M170.86 129.42h-.09a.361.361 0 0 1-.29-.33l-.49-4.72c-.11-1.05-.22-2.13-.71-3.05-.25-.47-.58-.88-.94-1.32-.29-.35-.59-.72-.84-1.12-.18-.29-.34-.6-.5-.91-.21-.42-.41-.82-.68-1.17-.21-.28-.6-.69-1.15-.9.13.22.23.47.26.75.02.26-.02.51-.06.72-.32 1.64-.63 3.27-.96 4.9a.37.37 0 0 1-.44.29.375.375 0 0 1-.29-.44c.32-1.63.64-3.26.96-4.9.03-.17.07-.36.05-.51-.03-.37-.33-.69-.68-1.05-.1-.1-.14-.26-.08-.4.05-.14.18-.23.32-.24 1.01-.08 1.98.41 2.67 1.32.31.4.53.85.75 1.28.15.29.29.58.46.85.23.36.5.7.78 1.05.36.45.74.91 1.02 1.45.55 1.05.68 2.25.79 3.32l.45 4.33.05.05c.12.15.13.36.03.53a.47.47 0 0 1-.39.22Zm-.22-.28ZM157.1 130.78a.4.4 0 0 1-.23-.08c-.16-.12-.36-.27-.49-.5-.18-.3-.2-.66-.03-.93.11-.19.31-.31.54-.34.21-.02.4.04.54.18.11.11.16.25.19.36.13.48.02.95-.26 1.2-.07.06-.16.09-.25.09ZM157.08 143.49h-.04c-.08 0-.15-.04-.22-.09-.17.04-.38.06-.58-.08-.34-.24-.3-.68-.28-.82.08-.78.48-.95.71-.98.31-.05.6.12.77.4.12.2.15.42.18.6.02.17.06.44-.08.69-.09.14-.26.29-.46.29Zm-.29-1.2s-.06.09-.08.28v.08c.02 0 .04-.01.06-.02.04-.01.08-.03.12-.04a.922.922 0 0 0-.08-.29ZM157.75 155.65c-.09 0-.18-.04-.25-.1-.21-.04-.44-.12-.63-.3a.827.827 0 0 1-.26-.7c.02-.22.14-.41.31-.52.15-.09.33-.13.53-.1.44.05.9.41.91.91 0 .4-.34.75-.53.8-.03 0-.06.01-.09.01Zm-.39-.98c.06.06.14.1.23.13a.33.33 0 0 0-.23-.13ZM158.32 168.03h-.12a.887.887 0 0 1-.75-1.15c.08-.26.26-.47.49-.58.23-.11.51-.1.75.01.25.11.43.32.51.56.14.45-.14.91-.32 1.04-.07.04-.19.07-.22.06a.92.92 0 0 1-.33.06Zm-.02-1.06h-.05c-.03.02-.07.06-.08.11s-.01.1 0 .13c.02.03.07.05.12.06.05 0 .1 0 .12-.03.02-.02.04-.03.06-.04.01-.04.02-.09.01-.12-.01-.04-.05-.08-.1-.1a.292.292 0 0 0-.09-.02ZM159.05 181.28c-.06 0-.11-.01-.16-.04-.18.03-.36.01-.53-.03a.383.383 0 0 1-.27-.28c-.08-.38-.08-.78.02-1.15.03-.1.1-.38.37-.51.32-.15.62.04.73.11.19.12.43.27.6.52.22.34.21.77-.02 1.04-.2.24-.5.3-.68.33h-.07Zm-.21-1.25c-.04.17-.05.33-.04.48.03 0 .05 0 .08-.02.1-.08.21-.14.3-.18-.07-.1-.21-.19-.34-.28ZM160.1 193.84c-.16 0-.3-.05-.41-.15l-.01-.01c-.25-.1-.47-.27-.59-.49-.14-.26-.15-.6-.02-.88a.83.83 0 0 1 .6-.48c.26-.05.55.03.8.22.29.23.46.54.47.87.01.41-.25.79-.62.9-.07.02-.14.03-.21.03Zm-.13-.91c.07 0 .14 0 .2.02v-.02c0-.1-.07-.21-.18-.3a.323.323 0 0 0-.2-.08c-.09.13-.09.21-.07.26.03.05.07.09.12.12.04 0 .08-.01.12-.01ZM157.85 126.65a.37.37 0 0 1-.34-.22l-2.17-4.9c-.11-.26-.24-.55-.44-.71-.36-.29-.96-.19-1.56-.04a.37.37 0 0 1-.45-.27c-.05-.2.07-.4.27-.45.53-.13 1.51-.38 2.21.18.34.28.52.67.66.99l2.17 4.9c.08.19 0 .41-.19.5-.05.02-.1.03-.15.03Z"
  />
  <path
    d="M159.2 124.29c-.12 0-.25 0-.37-.02a5.25 5.25 0 0 1-.55-.09c-.42-.08-.82-.15-1.14-.02a.375.375 0 0 1-.29-.69c.53-.22 1.08-.12 1.56-.03.17.03.33.06.5.08.31.03.62.01.93-.06.2-.05.4.07.45.28.05.2-.07.4-.28.45-.27.07-.54.1-.82.1Z"
  />
  <path
    d="M159.88 124.33c-.09 0-.19-.04-.26-.11a.368.368 0 0 1 0-.53 69.18 69.18 0 0 0 4.64-5.2.38.38 0 0 1 .53-.06c.16.13.19.37.06.53a70.737 70.737 0 0 1-4.69 5.26c-.07.07-.17.11-.27.11ZM145.63 126.34a.36.36 0 0 1-.2-.06.36.36 0 0 1-.17-.35c.15-1.8-.02-3.59-.51-5.33-.12-.41-.24-.82-.14-1.26.09-.38.33-.68.54-.94.62-.77 1.1-1.56 1.47-2.41l.05-.12c.12-.28.25-.57.45-.83.3-.38.71-.6 1.12-.6h.01c.14 0 .28.09.34.22s.04.29-.05.4c-.05.06-.09.34.04.67s.37.62.61.89c1.16 1.32 2.5 2.47 3.96 3.44.1.07.18.2.18.33 0 .22-.16.34-.25.4-.15.16-.26.31-.37.46l-.3.39c-1.2 1.49-2.91 2.49-4.42 3.38l-2.16 1.26c-.06.03-.12.05-.19.05Zm2.11-10.86s-.02.03-.03.04c-.14.19-.25.42-.35.66l-.06.13c-.4.9-.91 1.75-1.53 2.52-.22.27-.38.47-.43.69-.06.24.03.53.11.84.47 1.63.67 3.28.6 4.93l1.55-.91c1.53-.89 3.1-1.81 4.22-3.2.1-.12.19-.25.29-.37.09-.12.18-.24.27-.35-1.38-.95-2.65-2.07-3.76-3.33-.27-.31-.57-.67-.75-1.11-.06-.16-.11-.34-.13-.54ZM154.07 123.13c-.28 0-.53-.18-.68-.5-.13-.27-.18-.56-.15-.85a.96.96 0 0 1 .19-.52c.19-.23.47-.29.66-.32.17-.02.43-.04.65.12.18.13.26.32.31.45.1.29.11.55.04.78-.08.27-.28.53-.48.62-.03.01-.05.03-.07.05-.09.06-.23.16-.41.17h-.05Zm-.07-1.39s-.02.03-.02.11c-.01.16.01.32.08.46.02.05.05.08.06.08.04-.08.08-.12.14-.15.03-.03.08-.1.11-.17.02-.08.01-.19-.03-.32a.27.27 0 0 1-.03-.08s-.04 0-.11.01c-.15.02-.18.05-.18.05Z"
  />
  <path
    d="M131.39 155.87c-.16 0-.31-.11-.36-.26-.79-2.52-1.17-5.15-1.14-7.79 0-.3.01-.61.02-.91.03-1.01.06-2.06-.13-3.05-.22-1.16-.75-2.27-1.26-3.34l-.17-.36a62.801 62.801 0 0 1-3.72-10.02c-.03-.12 0-.25.08-.35 1.24-1.4 2.3-2.43 3.17-3.26.49-.46 1.02-.95 1.61-1.36 1.33-.93 2.86-1.43 4.34-1.91l4.2-1.36c1.04-.34 2.11-.68 2.96-1.35.1-.08.2-.17.31-.26.15-.13.31-.26.47-.38.89-.65 2.06-.89 3.13-.65.2.04.33.24.29.45-.04.2-.25.33-.45.29-.87-.19-1.81 0-2.53.53-.15.11-.29.23-.42.34-.11.09-.22.19-.33.28-.96.75-2.15 1.14-3.19 1.48l-4.2 1.36c-1.43.46-2.91.94-4.14 1.81-.54.38-1.03.83-1.52 1.29-.83.78-1.83 1.75-2.99 3.06.93 3.32 2.15 6.59 3.62 9.7l.17.36c.53 1.12 1.08 2.27 1.32 3.52.2 1.07.17 2.16.14 3.21 0 .3-.02.6-.02.9-.03 2.32.27 4.62.89 6.84.16.05.27.21.26.38l-.03.48c-.01.18-.15.33-.33.35h-.04Z"
  />
  <path
    d="M131.62 148.74h-.08a.38.38 0 0 1-.29-.45c.49-2.28.33-4.69.19-7.02-.04-.56-.07-1.12-.1-1.67-.05-1-.07-2-.09-3.01-.05-2.27-.1-4.61-.48-6.87-.03-.2.1-.4.31-.43.21-.03.4.1.43.31.39 2.31.44 4.69.49 6.98.02 1 .04 1.99.09 2.99.03.55.06 1.11.1 1.67.15 2.38.31 4.84-.2 7.23-.04.18-.19.3-.37.3ZM138.59 193.78c-.11 0-.22-.03-.32-.08-.2-.11-.3-.33-.26-.55a.382.382 0 0 1 .51-.28c.13-3.51.24-7.05.32-10.53.03-1.4.07-2.99-.2-4.48-.19-1.04-.52-2.05-.85-3.04l-6.37-19.37c-.06-.2.04-.41.24-.47s.41.04.47.24l6.37 19.37c.33 1.01.68 2.05.87 3.14.28 1.56.25 3.19.21 4.63a755.4 755.4 0 0 1-.32 10.54c0 .18-.02.51-.28.74-.11.09-.25.14-.39.14ZM142.37 183.27a.37.37 0 0 1-.37-.34c-.36-4.46-1.37-8.84-3-13.02a.38.38 0 0 1 .21-.49c.2-.08.41.02.49.21 1.65 4.24 2.68 8.69 3.04 13.23.02.21-.14.39-.34.4h-.03Z"
  />
  <path
    d="M139.1 180.85c-.09 0-.18-.03-.25-.09-.29-.25-.56-.52-.82-.8-.26-.28-.55-.62-.76-1.02-.34-.67-.39-1.43-.43-2.1-.01-.21.14-.39.35-.4.24-.04.39.14.4.35.04.62.08 1.27.35 1.81.16.32.41.61.63.85.25.26.5.51.77.75.16.14.17.37.03.53-.07.08-.18.13-.28.13Z"
  />
  <path
    d="M133.78 207.02c-.12 0-.24-.06-.31-.17-.75-1.13-1.37-2.34-1.82-3.61a.376.376 0 0 1-.01-.21c1.04-4.59 2.37-9.18 3.96-13.62l.05-.14c.43-1.2.87-2.44.88-3.68 0-.38-.04-.75-.07-1.13-.05-.49-.1-.99-.07-1.5.08-1.31.68-2.56 1.66-3.44.15-.14.39-.12.53.03s.12.39-.03.53c-.83.74-1.34 1.81-1.41 2.92-.03.45.02.91.07 1.38.04.4.08.81.08 1.21 0 1.38-.47 2.68-.92 3.93l-.05.14c-1.56 4.38-2.88 8.9-3.91 13.43.43 1.18 1 2.3 1.7 3.34.12.17.07.41-.1.52-.06.04-.14.06-.21.06Z"
  />
  <path
    d="M158.38 213.47h-.03c-1.41-.12-2.87-.25-4.3-.22-.46 0-.92.03-1.38.06-.69.04-1.41.08-2.12.06-2.61-.06-5.31-.84-8.02-2.32-2.66-1.45-4.98-3.4-6.7-4.93l-.16-.14c-1.11-.99-2.26-2.01-3.64-2.4a.379.379 0 0 1-.26-.46c.06-.2.27-.31.46-.26 1.54.44 2.76 1.52 3.93 2.56l.16.14c1.7 1.51 3.97 3.42 6.56 4.83 2.61 1.43 5.19 2.18 7.68 2.23.69.02 1.39-.02 2.07-.06.47-.03.94-.05 1.41-.06 1.47-.03 2.95.1 4.39.23.21.02.36.2.34.41-.02.19-.18.34-.37.34ZM119.08 141.53c-.17 0-.37-.16-.42-.33-.04-.18.02-.42.22-.52.02-.12.04-.23.06-.34.12-.72.24-1.46.55-2.15.4-.9 1.09-1.63 1.7-2.28l1.42-1.5c.18-.19.36-.39.43-.6.04-.12.04-.27.05-.42v-.14c.06-1.18.64-2.34 1.55-3.1.16-.13.4-.11.53.05s.11.4-.05.53c-.75.62-1.23 1.58-1.28 2.56v.13c-.01.19-.02.4-.08.62-.12.38-.38.67-.6.9l-1.42 1.5c-.6.63-1.21 1.29-1.57 2.07-.27.6-.38 1.26-.49 1.96l-.09.56c-.07.37-.31.51-.51.51Z"
  />
  <path
    d="M111.55 152.28a.37.37 0 0 1-.37-.33c-.06-.61-.14-1.3-.02-1.98.14-.8.55-1.46 1.13-1.81.12-.07.24-.13.36-.19s.23-.11.34-.18c.24-.17.41-.45.6-.75.23-.37.48-.79.92-1.04.2-.12.42-.18.61-.24.09-.03.18-.05.27-.08.69-.25 1.2-.9 1.66-1.46.07-.08.08-.18.08-.33l-.03-1.61c0-.28 0-.6.11-.92.08-.23.22-.42.35-.59.44-.59.94-1.14 1.48-1.64.15-.14.39-.13.53.02s.13.39-.02.53c-.51.47-.98.99-1.39 1.54-.1.13-.2.27-.24.4-.07.19-.06.41-.06.65l.03 1.61c0 .17 0 .52-.25.82-.49.6-1.1 1.36-1.98 1.69-.1.04-.21.07-.31.1-.17.05-.32.1-.45.17-.27.16-.46.46-.66.78-.22.35-.44.71-.8.97-.14.1-.3.17-.45.25-.1.05-.2.09-.29.15-.39.24-.68.72-.78 1.3-.1.57-.04 1.18.03 1.77.02.21-.13.39-.33.41h-.04Z"
  />
  <path
    d="M113.06 155.58c-.09 0-.19-.01-.29-.05-.21-.08-.35-.24-.44-.34l-.59-.68c-.29-.33-.69-.79-.77-1.38-.13-.95.6-1.74 1.33-2.17a.372.372 0 1 1 .38.64c-.5.29-1.05.84-.97 1.41.05.33.29.63.6.99l.59.68s.1.12.13.13h.17c1.36-.17 2.74-.24 4.1-.2.21 0 .37.18.37.38s-.19.39-.38.37c-1.33-.03-2.67.03-3.99.2-.07 0-.14.02-.23.02Z"
  />
  <path
    d="M113.7 160.77c-.69 0-1.37-.15-2-.44-.18-.08-.36-.18-.5-.36-.21-.26-.23-.58-.23-.84 0-.5.09-1 .17-1.44l.55-3.16c.03-.2.22-.34.43-.3.2.04.34.23.3.43l-.55 3.16c-.08.43-.15.87-.16 1.31 0 .12 0 .29.07.37.04.05.13.1.23.15.92.43 2 .49 2.97.15.19-.07.41.04.48.23s-.04.41-.23.48c-.49.17-1.01.25-1.53.25Z"
  />
  <path
    d="M111.76 159.98a.37.37 0 0 1-.37-.34c-.02-.21.13-.39.34-.41l5.05-.51c1.53-.15 3.12-.31 4.52-.96.19-.09.41 0 .5.18.09.19 0 .41-.18.5-1.52.7-3.24.87-4.76 1.02l-5.05.51h-.04Z"
  />
  <path
    d="M119.8 157.93a.37.37 0 0 1-.37-.34c-.08-.77.56-1.37 1.2-1.55.62-.18 1.26-.05 1.77.05 1.04.21 2.07.42 3.1.64l1.4.29c.16.03.33.07.45.03.12-.04.24-.17.35-.39.24-.47.32-1.02.24-1.54-.03-.21.11-.4.31-.43.21-.05.4.11.43.31.1.67 0 1.38-.31 1.99-.2.41-.47.67-.8.78-.3.09-.61.03-.83-.01l-1.36-.29c-1.07-.23-2.1-.44-3.13-.65-.55-.11-1-.18-1.42-.07-.34.1-.69.42-.66.76.02.21-.13.39-.34.41h-.04ZM130.43 155.5c-.12 0-.24-.01-.36-.04-.24-.05-.46-.15-.63-.29-.13-.11-.23-.23-.31-.34l-.08-.1c-.27-.33-.63-.59-1.02-.84-1.89-1.26-3.9-2.33-5.99-3.2l-.11-.04c-.74-.31-1.51-.63-2.07-1.26-.06-.07-.12-.14-.17-.21-.12-.15-.23-.3-.36-.38-.07-.04-.17-.06-.24-.04-.1.18-.34.26-.52.17-.18-.1-.27-.31-.17-.5s.28-.33.5-.39c.27-.08.59-.03.83.12s.41.36.56.55l.15.18c.44.51 1.13.79 1.8 1.07l.11.04c2.13.89 4.19 1.99 6.12 3.27.43.29.85.58 1.18.99l.09.11c.07.09.13.17.2.22.08.06.18.11.3.13.23.05.49.01.7-.1.18-.1.41-.03.51.16.1.18.03.41-.16.51-.26.14-.55.21-.84.21Z"
  />
  <path
    d="M128.14 155.95c-.06 0-.11 0-.16-.03a.375.375 0 0 1-.13-.6c0-.56-.14-1.12-.41-1.62-.1-.18-.03-.41.15-.51.18-.1.41-.03.51.15.35.65.53 1.38.5 2.12 0 .14-.07.33-.23.43a.45.45 0 0 1-.24.06ZM130.3 154.53a.53.53 0 0 1-.27-.08c-.17-.11-.22-.28-.25-.38-.07-.19-.22-.33-.41-.49-.18-.15-.38-.33-.52-.57-.16-.28-.21-.58-.26-.84-.08-.47-.15-.94-.15-1.42 0-1.32.59-2.53 1.1-3.6.09-.19.31-.27.5-.18.19.09.27.31.18.5-.48 1-1.02 2.13-1.03 3.28 0 .42.06.84.14 1.28.04.22.07.43.16.59.08.13.22.25.37.38.2.17.42.37.56.65.13 0 .26.09.32.22.07.15 0 .41-.12.52-.09.08-.21.12-.33.12Zm.21-.64ZM124.33 155.1s-.07 0-.1-.01c-2.19-.59-4.34-1.4-6.39-2.39-.2-.09-.33-.22-.38-.38l-3.53 1.12c-.2.06-.41-.05-.47-.24-.06-.2.05-.41.24-.47l3.71-1.18c.36-.11.67 0 .77.3.02.07.03.14.02.2 2.02.98 4.1 1.75 6.22 2.33.2.05.32.26.26.46-.05.17-.2.28-.36.28ZM121.08 165.24c-.34 0-.69-.17-1.04-.51-.43-.41-.78-.88-1.12-1.34-.26-.35-.51-.69-.79-.99-.34-.38-1.25-1.24-2.28-1.07a.366.366 0 0 1-.42-.28l-.34-1.35a.38.38 0 0 1 .27-.46c.21-.05.41.07.46.27l.26 1.04c.84-.03 1.81.46 2.61 1.33.31.34.58.7.84 1.05.34.45.65.88 1.04 1.25.24.23.44.33.59.3.2-.05.4.07.45.27.05.2-.07.4-.27.45-.08.02-.16.03-.24.03Z"
  />
  <path
    d="M136.82 182.45c-.13 0-.27-.05-.35-.15-.11-.14-.15-.36-.03-.53l-1.58-5.6c-.15-.55-.31-1.11-.56-1.62-.24-.5-.58-1-1.08-1.59-2.12-2.48-5.07-4.14-7.92-5.75-1.57-.88-3.19-1.79-4.68-2.84-.48-.18-1.18-.71-1.27-1.5-.11-.94.72-1.67 1.12-2.03.54-.48 1.11-.98 1.77-1.37 1.38-.82 3.07-1.05 4.61-.68-.44-.41-.92-.77-1.42-1.08a.376.376 0 0 1-.13-.51c.11-.18.34-.23.51-.13 1.02.62 1.94 1.45 2.66 2.4.11.14.1.34-.02.47a.37.37 0 0 1-.46.08c-1.65-.91-3.76-.88-5.38.08-.6.35-1.13.83-1.65 1.29-.49.43-.93.89-.87 1.38.05.49.57.81.81.89.04.01.07.03.1.05 1.47 1.04 3.09 1.95 4.66 2.83 2.91 1.64 5.91 3.33 8.12 5.91.54.64.92 1.19 1.19 1.75.27.57.45 1.19.6 1.74l1.64 5.79c.1.34-.05.56-.22.65-.05.03-.11.04-.17.04Z"
  />
  <path
    d="M135.38 166.77a.4.4 0 0 1-.23-.08c-2.81-2.24-5.57-4.63-8.18-7.1a.368.368 0 0 1-.01-.53c.14-.15.38-.16.53-.01 2.6 2.46 5.34 4.83 8.13 7.05.16.13.19.36.06.53a.37.37 0 0 1-.29.14ZM119.77 148.84c-.2 0-.37-.16-.38-.36 0-.21.15-.38.36-.39 1.12-.04 2.22-.25 3.28-.61.21-.07.42-.15.54-.28.17-.18.2-.5.24-.81.25-2.12.73-4.22 1.4-6.25.06-.2.28-.31.47-.24.2.07.3.28.24.47-.66 1.98-1.12 4.03-1.37 6.1-.05.38-.1.86-.43 1.22-.24.26-.56.39-.85.48-1.13.38-2.3.6-3.49.65h-.02ZM159.95 116.49c-1.14 0-2.25-.12-3.29-.57-1.3-.55-2.21-1.64-3.1-2.7-.15-.18-.31-.37-.46-.54-.65-.76-1.3-1.55-1.92-2.35-.33-.43-.65-.85-.87-1.34-.24-.52-.35-1.08-.45-1.57-.29-1.4-.56-2.8-.81-4.21-.04-.2.1-.4.3-.44.21-.04.4.1.44.3.25 1.4.53 2.8.81 4.19.1.48.2.97.4 1.41.19.41.47.78.78 1.19.62.79 1.25 1.57 1.9 2.32.16.18.31.37.47.55.83.99 1.69 2.01 2.82 2.49 1.41.6 3.01.55 4.67.44.2-.02.38.14.4.35s-.14.38-.35.4c-.58.04-1.15.07-1.72.07Z"
  />
  <path
    d="M161.75 116.43c-.18 0-.34-.13-.37-.32-.03-.21.11-.4.32-.43 1.84-.27 2.77-2.31 3.67-4.28l.05-.11c.53-1.17.96-2.41 1.37-3.61.31-.92.64-1.86 1.01-2.78l.1-.24c.23-.55.44-1.08.54-1.63.06-.34.07-.69.08-1.06l.13-4.76c0-.21.14-.39.38-.37.21 0 .37.18.37.38l-.13 4.74c-.01.4-.02.79-.09 1.19-.11.63-.35 1.22-.58 1.79l-.1.24c-.36.9-.69 1.83-1 2.74-.42 1.22-.85 2.48-1.4 3.68l-.05.11c-.94 2.05-2 4.38-4.24 4.71h-.06Z"
  />
  <path
    d="M164.81 117.94c-.16 0-.3-.1-.36-.25-.34-1.01-.62-2.04-.83-3.07-.04-.2.09-.4.29-.44.2-.05.4.09.44.29.2 1 .48 2 .81 2.98.07.2-.04.41-.24.48-.04.01-.08.02-.12.02ZM148.23 105.59h-.07c-.74-.14-1.59-.31-2.29-.79-.79-.54-1.25-1.38-1.67-2.12-.56-1-1.13-2.03-1.39-3.18-.21-.95-.14-1.8.21-2.46.46-.87 1.44-1.36 2.3-1.13.2.05.32.26.26.46-.05.2-.25.32-.46.26-.57-.16-1.18.26-1.44.75-.33.63-.26 1.41-.14 1.95.24 1.05.79 2.03 1.31 2.98.37.67.8 1.42 1.44 1.87.58.4 1.34.54 2.01.67.2.04.34.24.3.44-.03.18-.19.3-.37.3Z"
  />
  <path
    d="M148.38 115.27h-.07a.382.382 0 0 1-.3-.44c.62-3.2.25-6.6-1.04-9.59-.08-.19 0-.41.2-.49.19-.08.41 0 .49.2a17.25 17.25 0 0 1 1.09 10.03c-.04.18-.19.3-.37.3ZM147.38 102.79h-.06c-.51-.09-.89-.45-1.14-.71a6.29 6.29 0 0 1-.74-.96c-.15-.25-.31-.57-.24-.93.08-.41.39-.63.64-.82.09-.07.18-.13.26-.21.15-.15.38-.15.53 0s.15.38 0 .53c-.1.1-.22.19-.35.28-.17.12-.33.24-.35.35-.02.11.07.28.15.4.18.3.4.58.64.84.27.29.5.45.72.48.2.04.34.23.3.43-.03.18-.19.31-.37.31Z"
  />
  <path
    d="M145.65 104.25a.37.37 0 0 1-.34-.22c-.74-1.65-1.29-3.39-1.63-5.17-.04-.2-.09-.48-.04-.76.09-.58.53-.96.97-1.31.16-.13.4-.1.53.06s.1.4-.06.53c-.34.26-.64.53-.7.84-.02.14 0 .3.04.5.33 1.72.86 3.4 1.58 5 .08.19 0 .41-.19.5-.05.02-.1.03-.15.03ZM163.67 107.29a.375.375 0 0 1-.19-.7l.39-.21c.18-.1.41-.04.51.15s.03.41-.15.51l-.38.21c-.06.03-.12.05-.18.05ZM161.64 107.19s-.1 0-.14-.03l-.75-.3c-.19-.08-.28-.3-.21-.49s.3-.28.49-.21l.75.3a.375.375 0 0 1-.15.72ZM163.58 105.71c-.2 0-.37-.16-.38-.36l-.16-5.15c0-.21.16-.38.36-.39.19-.02.38.16.39.36l.16 5.15c0 .21-.16.38-.36.39h-.01ZM162.17 110.87c-.59 0-1.17-.08-1.74-.23-.24-.07-.48-.15-.72-.23-.5-.17-.97-.33-1.45-.35-.21 0-.37-.18-.36-.39 0-.21.19-.39.39-.36.59.02 1.14.21 1.67.38.22.08.45.15.67.21 1.16.32 2.41.26 3.53-.14.19-.07.41.03.48.22s-.03.41-.22.48c-.72.26-1.48.39-2.25.39ZM164.61 100.44a.375.375 0 0 1-.15-.72c.48-.2.98-.19 1.45-.17.35 0 .68.02.98-.06.23-.06.46-.17.69-.28a.38.38 0 0 1 .5.17c.09.19.01.41-.17.5-.25.12-.53.26-.83.33-.4.1-.8.09-1.19.08-.42 0-.81-.02-1.15.12-.05.02-.09.03-.14.03ZM157.96 100.1c-.22 0-.44-.01-.67-.04-.67-.08-1.32-.28-1.98-.49a.366.366 0 0 1-.24-.47c.06-.2.28-.3.47-.24.65.21 1.23.39 1.84.46.67.09 1.26.03 1.75-.17.19-.08.41.02.49.21s-.02.41-.21.49c-.44.18-.93.26-1.46.26Z"
  />
  <path
    d="M158.02 100.6h-.1a.977.977 0 0 1-.81-.65c-.07-.2.04-.41.24-.48.19-.07.41.04.48.24.03.08.1.14.18.15.08-.02.14-.08.18-.12.03-.03.07-.08.08-.1.09-.19.32-.26.5-.18.19.09.27.31.18.5-.06.12-.14.21-.21.28-.09.1-.21.22-.37.29-.11.05-.22.07-.34.07Z"
  />
  <path
    d="M157.81 100.4a.37.37 0 0 1-.37-.33c0-.07 0-.14.03-.21 0-.06.03-.11.07-.16.08-.11.21-.16.34-.15l.14.02s.05 0 .08.02h.01c.18-.03.36.09.41.27.04.16-.02.33-.16.42-.05.04-.11.06-.17.07-.14.04-.27.04-.38.05h-.01ZM165.89 100.78h-.05c-.07 0-.15 0-.25-.04-.23-.08-.37-.25-.47-.36-.13-.16-.11-.4.05-.53s.4-.11.53.05c.03.04.1.12.12.13h.1c.08-.19.33-.31.52-.24.19.08.32.27.25.46-.1.26-.34.46-.62.52-.06.01-.12.02-.19.02Z"
  />
  <path
    d="M165.73 100.55s-.08 0-.1-.03c-.07-.05-.14-.11-.21-.19a.37.37 0 0 1 .04-.53.38.38 0 0 1 .44-.04h.01c.15-.05.33-.02.44.09.14.13.16.35.04.51-.08.1-.21.17-.34.14h-.12c-.06.01-.13.03-.2.03ZM145.9 84.51h-.08a.376.376 0 0 1-.28-.45c.57-2.54 1.9-4.62 3.74-5.86 2.12-1.44 4.88-1.59 6.87-.4.18.11.23.34.13.51-.11.18-.34.23-.51.13-1.74-1.05-4.18-.9-6.06.37-1.68 1.14-2.89 3.06-3.42 5.41-.04.17-.19.29-.37.29Z"
  />
  <path
    d="M143.42 97.02c-.15 0-.29-.09-.35-.24-1.38-3.72-1.42-8.01-.11-11.76.62-1.77 2.13-4.94 5.24-6.23a.375.375 0 0 1 .29.69c-2.83 1.17-4.23 4.13-4.82 5.78-1.26 3.59-1.22 7.69.1 11.25.07.19-.03.41-.22.48-.04.02-.09.02-.13.02ZM146.63 97.76h-.08c-.22-.04-.33-.2-.38-.26-.75-1.03-1.05-2.3-1.32-3.42-.05-.2.08-.4.28-.45.21-.05.4.08.45.28.25 1.05.51 2.12 1.1 3.01.15-.02.3.05.37.2.07.13.05.35-.03.46-.09.12-.24.2-.39.2Z"
  />
  <path
    d="M146.39 98.07s-.08 0-.12-.02c-.2-.07-.3-.28-.24-.47.37-1.09.62-2.23.75-3.37.02-.2.2-.34.42-.33.21.02.35.21.33.42-.14 1.2-.4 2.38-.79 3.53-.05.16-.2.26-.36.26ZM146.64 93.81a.37.37 0 0 1-.37-.33c-.43-3.7.5-7.61 2.54-10.73.11-.17.35-.22.52-.11s.22.35.11.52c-1.95 2.97-2.84 6.7-2.43 10.23a.38.38 0 0 1-.33.42h-.04Z"
  />
  <path
    d="M148.84 100.23a.42.42 0 0 1-.21-.06c-.58-.38-.77-1.06-.89-1.74a34.57 34.57 0 0 1-.44-7.74c.01-.21.18-.37.39-.35.21.01.37.19.35.39-.14 2.53 0 5.08.43 7.57.09.51.21 1.02.56 1.24.17.11.22.35.11.52-.07.11-.19.17-.31.17Z"
  />
  <path
    d="M149.42 100.58h-.05a.462.462 0 0 1-.34-.25.501.501 0 0 1 .04-.43c.06-.08.15-.13.25-.15 1.08-1.53 2.16-3.11 3.2-4.7a.38.38 0 0 1 .52-.11c.17.11.22.35.11.52-1.08 1.66-2.2 3.3-3.33 4.89-.14.2-.3.24-.41.24Z"
  />
  <path
    d="M149.46 99.9h-.07a.377.377 0 0 1-.3-.44c.37-1.98.52-4 .46-6.01 0-.21.16-.38.36-.39.18-.02.38.16.39.36.07 2.06-.09 4.14-.47 6.17-.03.18-.19.31-.37.31ZM152.75 88.11c-.16 0-.31-.1-.36-.26-.18-.56-.05-1.14.03-1.57.32-1.57.67-3.15 1.03-4.69.05-.2.25-.33.45-.28.2.05.33.25.28.45-.36 1.53-.71 3.1-1.03 4.66-.09.45-.16.86-.05 1.2.06.2-.05.41-.24.47-.04.01-.08.02-.11.02ZM152.36 98.09a.4.4 0 0 1-.23-.08.352.352 0 0 1-.13-.38c.04-.15.13-.28.27-.36.05-.03.1-.05.16-.05.06-.05.11-.1.17-.15l.12-.11c.36-.32.69-.7 1.02-1.1.31-.36.58-.75.85-1.13.28-.4.51-.81.74-1.34.12-.27.25-.52.38-.78.19-.36.36-.7.49-1.07.23-.66.37-1.36.5-2.04.06-.32.13-.63.21-.95.12-.55.24-1.09.33-1.64.07-.43.1-.86.14-1.29.03-.38.07-.76.12-1.14.03-.21.22-.34.42-.32.21.03.35.22.32.42-.05.37-.08.74-.11 1.11-.04.45-.08.89-.15 1.33-.09.57-.21 1.13-.34 1.69-.07.31-.14.62-.2.93-.14.71-.29 1.44-.53 2.14-.15.42-.34.8-.54 1.16-.12.24-.25.48-.36.74a7.84 7.84 0 0 1-.82 1.47c-.26.37-.56.79-.89 1.18-.35.41-.7.81-1.09 1.17l-.11.1c-.17.15-.35.33-.57.44-.05.03-.12.04-.17.04Z"
  />
  <path
    d="M154.45 97.53c-.15 0-.29-.09-.35-.24a.37.37 0 0 1 .22-.48c1.76-.67 3.24-2.4 3.95-4.64.66-2.07.69-4.3.71-6.46 0-.21.17-.37.38-.37s.37.17.37.38c-.02 2.21-.04 4.51-.74 6.69-.8 2.49-2.4 4.35-4.4 5.11-.04.02-.09.02-.13.02Z"
  />
  <path
    d="M163.55 97.88c-.1 0-.21-.04-.28-.13-2.34-2.67-3.69-6.24-3.7-9.79 0-.21.17-.38.37-.38.21 0 .37.17.38.37 0 3.37 1.29 6.76 3.51 9.3.14.16.12.39-.04.53-.07.06-.16.09-.25.09Z"
  />
  <path
    d="M163.23 96.63c-.14 0-.28-.08-.34-.23-.73-1.67-1.2-3.42-1.41-5.22a.38.38 0 0 1 .33-.42c.21-.03.39.12.42.33.2 1.73.66 3.41 1.36 5.01a.37.37 0 0 1-.34.52Z"
  />
  <path
    d="M167.53 97.67c-.06 0-.13-.02-.19-.05-1.5-.86-2.87-2.19-4.07-3.96-1.06-1.57-1.87-3.29-2.65-4.95a.38.38 0 0 1 .18-.5c.19-.09.41 0 .5.18.77 1.64 1.57 3.33 2.59 4.85.48.7.98 1.33 1.5 1.89-.5-.75-.95-1.53-1.36-2.33a.376.376 0 0 1 .16-.5c.18-.09.41-.02.5.16.84 1.65 1.89 3.2 3.11 4.59.12.14.12.34 0 .48a.37.37 0 0 1-.29.14Z"
  />
  <path
    d="M169.22 97.71a.36.36 0 0 1-.2-.06c-2.72-1.73-4.83-4.49-5.78-7.58-.06-.2.05-.41.25-.47s.41.05.47.25c.9 2.92 2.89 5.53 5.46 7.16.17.11.23.34.12.52-.07.11-.19.17-.32.17Z"
  />
  <path
    d="M168.71 98.64c-.21 0-.37-.18-.37-.38.08-4.13-1.06-8.35-3.23-11.87a.383.383 0 0 1 .12-.52c.17-.11.41-.05.52.12 2.24 3.64 3.43 8 3.34 12.28 0 .2-.17.37-.38.37Z"
  />
  <path
    d="M168.88 99.76a.52.52 0 0 1-.25-.07c-.15-.09-.24-.34-.17-.51.06-.16.2-.28.43-.31.58-.83.77-1.89.92-3 .5-3.65.77-7.87-.95-11.43-.27-.56-.62-1.16-1.08-1.86-1.09-1.65-2.13-2.82-3.27-3.65-1.41-1.04-2.99-1.55-4.47-1.46-1.15.07-2.25.51-3.29.95-.19.08-.41 0-.49-.2s0-.41.2-.49c1.09-.46 2.26-.92 3.53-1.01 1.66-.11 3.41.47 4.96 1.61 1.21.89 2.31 2.11 3.45 3.84.48.73.84 1.35 1.13 1.95 1.81 3.74 1.53 8.09 1.01 11.86-.17 1.24-.4 2.53-1.19 3.53-.15.18-.32.26-.47.26Z"
  />
  <path
    d="M166.07 86.02c-.15 0-.3-.09-.35-.25-1.06-2.93-3.72-5.18-6.79-5.73a.372.372 0 0 1-.3-.43c.04-.2.24-.34.43-.3 3.33.59 6.22 3.03 7.37 6.21.07.2-.03.41-.23.48-.04.02-.08.02-.13.02ZM164.86 97.81s-.09 0-.13-.02a.378.378 0 0 1-.24-.42c.04-.2.1-.39.18-.58.08-.17.26-.25.44-.2.09-.04.19-.05.29-.01.01 0 .03.01.04.02.08-.04.17-.05.25-.03.02 0 .03 0 .05.01.06-.05.12-.1.19-.15.1-.07.22-.1.33-.06l.09-.03c.09-.01.18 0 .27.03.06-.03.12-.07.17-.1.1-.06.22-.06.33-.01l.21-.12c.15-.08.33-.05.45.06.24-.09.4-.01.48.04.17.12.21.35.09.52-.09.13-.25.19-.39.15-.11.05-.24.11-.41.09a.27.27 0 0 1-.15-.05l-.22.12c-.1.06-.22.06-.33.02l-.09.06c-.1.07-.23.08-.33.04a.54.54 0 0 1-.25.18c-.08.03-.16.02-.23 0l-.01.01c-.09.09-.22.12-.35.09h-.02l-.12.12c-.09.09-.22.12-.34.1-.07.06-.16.09-.25.09ZM159.77 97.18c-.05 0-.1-.01-.15-.03-.16.02-.3-.04-.38-.17-.12 0-.2-.04-.28-.12-.02 0-.03.01-.05.02-.11.03-.23.01-.32-.05-.1.04-.22.04-.32 0-.14.09-.32.08-.45-.03l-.1-.08c-.09.06-.2.08-.3.05-.1-.03-.19-.06-.28-.1 0 0-.02.01-.03.02-.13.08-.28.1-.4.03a.36.36 0 0 1-.32 0c-.1.07-.24.09-.36.04l-.57-.23c-.06 0-.13-.01-.19-.06-.15-.11-.25-.35-.16-.52.09-.17.25-.27.42-.2l.15.06c.08-.05.17-.07.26-.05.04 0 .08.01.11.02.03-.04.07-.08.12-.11.13-.07.29-.06.41.03l.05.04s.02-.01.03-.02c.14-.08.32-.06.44.05.04.03.07.06.11.09.04-.06.09-.1.16-.13.13-.06.29-.04.4.05s.11-.07.18-.08c.08-.02.16 0 .23.03.06-.07.13-.11.22-.13a.4.4 0 0 1 .33.1c.12-.03.24 0 .33.08.02 0 .03-.02.05-.02.11-.04.22-.03.32.03.16-.02.32.07.39.22v.01c.13.04.23.15.26.29l.08.42c.03.18-.07.36-.25.42-.04.01-.08.02-.12.02ZM160.84 221.21c-.21 0-.37-.17-.37-.38.03-2.38 0-4.79-.12-7.17 0-.21.15-.38.36-.39.22 0 .38.15.39.36.11 2.39.15 4.82.12 7.22 0 .21-.17.37-.38.37Z"
  />
  <path
    d="M156.84 242.97h-.08a.38.38 0 0 1-.29-.45c.82-3.88 1.24-7.9 1.65-11.79.47-4.55.96-9.26 2.1-13.78.05-.2.25-.32.46-.27.2.05.32.25.27.46-1.12 4.47-1.61 9.15-2.08 13.67-.41 3.91-.83 7.95-1.66 11.87-.04.18-.19.3-.37.3Z"
  />
  <path
    d="M152.83 265.52a.7.7 0 0 1-.52-.25.701.701 0 0 1-.15-.63c.05-.19.25-.3.43-.27l1.14-7.93c.71-4.97 1.45-10.11 2.92-15.01.06-.2.27-.31.47-.25.2.06.31.27.25.47-1.46 4.86-2.19 9.97-2.9 14.91l-1.24 8.64c-.02.17-.16.3-.33.32h-.08Z"
  />
  <path
    d="M149.52 302.32h-.05a.371.371 0 0 1-.32-.42l.78-5.9c.52-3.96 1.05-8.02 1.37-12.03.18-2.34.3-4.73.41-7.05l.58-12.09c.01-.21.16-.36.39-.36.21.01.37.19.36.39l-.58 12.08c-.11 2.32-.23 4.72-.41 7.07-.32 4.03-.85 8.09-1.37 12.02l-.78 5.94c-.03.19-.19.33-.37.33Z"
  />
  <path
    d="M148.4 304.6c-.14 0-.27-.08-.33-.21a.368.368 0 0 1 .17-.5c1.9-.95 3.06-3.26 2.69-5.35l-.03-.18c-.06-.28-.12-.61-.08-.94.04-.27.14-.52.23-.74l.04-.1c.69-1.7.68-3.67.68-5.42l-.06-15.92c0-.21.17-.38.37-.38.21 0 .37.17.38.37l.06 15.92c0 1.81.02 3.87-.73 5.7l-.04.11c-.08.19-.16.37-.18.55-.03.21.02.45.07.7l.04.19c.43 2.41-.9 5.06-3.09 6.16-.05.03-.11.04-.17.04Z"
  />
  <path
    d="M138.5 306.74c-.82 0-1.66-.12-2.43-.49-.83-.4-1.47-1.03-2.09-1.65-.45-.44-.87-.86-1.36-1.2a.37.37 0 0 1-.09-.52.37.37 0 0 1 .52-.09c.54.37 1.01.83 1.46 1.28.61.6 1.18 1.16 1.89 1.51 1.32.63 2.96.4 4.28.21l3.82-.54c1.1-.16 2.23-.32 3.28-.69 0-.06.03-.12.06-.17a.47.47 0 0 1 .52-.18c.16.04.33.24.34.4 0 .12-.02.43-.45.59-1.18.45-2.43.63-3.64.8l-3.82.54c-.7.1-1.48.21-2.28.21Z"
  />
  <path
    d="M138.36 303.47c-1.25 0-2.41-.26-3.3-1.09-.11-.1-.22-.21-.33-.33-.55-.56-.94-.91-1.32-.75a.375.375 0 0 1-.29-.69c.88-.36 1.57.35 2.14.92l.31.31c1.27 1.18 3.3.96 5.11.66l6.74-1.12c1.33-.22 2.8-.55 3.43-1.63a.375.375 0 0 1 .65.37c-.79 1.36-2.46 1.74-3.95 1.99l-6.74 1.12c-.82.14-1.65.24-2.45.24Z"
  />
  <path
    d="M132.85 303.52h-.02a.374.374 0 0 1-.35-.38v-.21c0-.06.01-.11.04-.16v-.22c0-.2.04-.38.08-.54.02-.1.05-.19.06-.29.21-1.9.91-3.72 1.57-5.26-.04-4.5.43-9.05.88-13.45l.75-7.32c.02-.21.2-.36.41-.33.21.02.36.21.33.41l-.75 7.32c-.45 4.41-.92 8.96-.88 13.45 0 .05 0 .11-.03.15-.65 1.5-1.35 3.29-1.54 5.12-.01.13-.04.26-.07.38-.03.13-.06.26-.06.38 0 .22-.02.42-.05.63a.37.37 0 0 1-.37.33Z"
  />
  <path
    d="M135.48 280.66a.38.38 0 0 1-.38-.38c0-4.3.4-8.63 1.18-12.87.17-.92.36-1.84.55-2.76l2.33-11.44c.04-.2.23-.34.44-.29.2.04.33.24.29.44l-2.33 11.44c-.19.92-.37 1.83-.54 2.75-.77 4.19-1.16 8.48-1.16 12.73 0 .21-.17.38-.38.38ZM151.04 257.88c-.2 0-.37-.16-.38-.36l-.42-13.55c-.09-3.01-.2-6.43 1.16-9.43.09-.19.31-.27.5-.19.19.09.27.31.19.5-1.29 2.84-1.18 6.16-1.09 9.09l.42 13.55c0 .21-.16.38-.36.39h-.01ZM141.21 253.27h-.06a.377.377 0 0 1-.31-.27c-.15-.55-.07-1.15.19-1.64.1-.18.33-.25.51-.15.02 0 .03.02.05.03.38-1.05.56-2.17.7-3.18.77-5.52.72-11.18.68-16.66 0-.21.17-.38.37-.38.21 0 .37.17.38.37.04 5.51.08 11.2-.69 16.77-.22 1.59-.54 3.41-1.51 4.95-.07.11-.19.17-.32.17ZM139.12 252.49h-.04a.373.373 0 0 1-.34-.41c.48-5.19-.75-10.43-1.93-15.49-.24-1.01-.47-2.02-.7-3.03-2.09-9.43-3.05-19.1-2.87-28.76 0-.21.17-.37.38-.37s.37.17.37.38c-.19 9.6.77 19.21 2.85 28.58.22 1 .46 2.01.69 3.02 1.2 5.12 2.44 10.42 1.95 15.73-.02.19-.18.34-.37.34Z"
  />
  <path
    d="M138.11 258.8c-.2 0-.36-.15-.37-.35l-1.39-21.26c-.01-.21.14-.38.35-.4.19-.03.38.14.4.35l1.39 21.26c.01.21-.14.38-.35.4h-.02ZM139 281.05h-.08a.376.376 0 0 1-.28-.45 46.666 46.666 0 0 1 6.48-15.08c.04-.06.12-.18.12-.23 0-.04-.07-.13-.11-.2a8.084 8.084 0 0 1-1.37-3.97c-.01-.21.14-.39.35-.4.23-.02.39.14.4.35.09 1.28.52 2.53 1.24 3.6.1.14.23.33.24.58.02.3-.14.53-.24.69a46.04 46.04 0 0 0-6.38 14.84c-.04.17-.19.29-.37.29ZM169.47 281.65a.37.37 0 0 1-.37-.34l-1.16-12.4c-.14-1.48-.28-3.02-.24-4.55.01-.39.03-.79.06-1.18.07-1.25.14-2.42-.15-3.56-.08-.31-.19-.61-.29-.92-.16-.44-.32-.9-.4-1.38-.13-.71-.08-1.43-.03-2.12.02-.32.04-.65.05-.97.01-1.57-.42-3.15-.84-4.68-2.38-8.67-4.94-18.74-5.31-29.04 0-.21.16-.38.36-.39.18 0 .38.16.39.36.36 10.22 2.91 20.24 5.27 28.83.45 1.62.89 3.25.88 4.93 0 .34-.03.67-.05 1.01-.04.68-.09 1.31.02 1.94.08.42.22.83.37 1.27.11.32.23.65.31.98.33 1.25.25 2.55.17 3.8-.02.39-.05.78-.06 1.16-.04 1.48.1 2.99.24 4.45l1.16 12.4c.02.21-.13.39-.34.41h-.04Z"
  />
  <path
    d="M167.24 257.54c-.14 0-.27-.07-.33-.2-1.11-2.15-1.64-4.54-2.15-6.85-.28-1.26-.57-2.56-.95-3.8-.3-1-.68-2-1.04-2.97-.42-1.13-.86-2.3-1.2-3.48-.54-1.89-.82-3.85-1.09-5.75l-1.59-11.13c-.03-.21.11-.39.32-.42.2-.04.4.11.42.32l1.59 11.13c.27 1.87.54 3.81 1.07 5.65.33 1.16.76 2.31 1.18 3.42.37.98.75 1.99 1.06 3.02.39 1.27.68 2.58.96 3.86.5 2.26 1.02 4.6 2.08 6.67.09.18.02.41-.16.5-.05.03-.11.04-.17.04ZM168.21 290.12c-.17 0-.32-.11-.36-.28-1.37-5.37-1.34-10.97-1.31-16.38.02-4.87.05-9.9.72-14.81.03-.2.21-.35.42-.32.21.03.35.22.32.42-.66 4.86-.69 9.87-.71 14.71-.03 5.37-.05 10.91 1.29 16.19.05.2-.07.41-.27.46-.03 0-.06.01-.09.01ZM177.93 221.58c-.17 0-.32-.12-.37-.29l-2.14-9.1c-.05-.2.08-.4.28-.45.21-.05.4.08.45.28l2.14 9.1c.05.2-.08.4-.28.45h-.09ZM179.28 233.01h-.07a.372.372 0 0 1-.3-.43c.66-3.72 1.89-7.3 3.64-10.65.18-.35.34-.65.38-.95.04-.32-.02-.65-.1-1.01-.81-3.95-.9-7.93-.29-11.87.03-.21.22-.35.43-.31.21.03.34.22.31.43-.6 3.85-.51 7.74.27 11.56.09.45.18.87.11 1.31-.06.43-.26.8-.45 1.16a36.31 36.31 0 0 0-3.58 10.46c-.03.18-.19.31-.37.31Z"
  />
  <path
    d="M176.49 257.54h-.07a.382.382 0 0 1-.3-.44c.2-1.03.71-1.94 1.2-2.81.18-.31.35-.63.51-.95.84-1.66 1.29-3.47 1.71-5.33 2.18-9.63 3.16-18.35 3.01-26.65 0-.21.16-.38.37-.38.25 0 .38.16.38.37.15 8.37-.84 17.14-3.03 26.83-.43 1.91-.89 3.77-1.77 5.51-.17.33-.35.65-.53.97-.48.86-.94 1.68-1.12 2.59-.04.18-.19.3-.37.3Z"
  />
  <path
    d="M173.99 263.33a.34.34 0 0 1-.22-.07.37.37 0 0 1-.08-.52c5.86-7.89 8.93-17.65 8.67-27.47 0-.21.16-.38.37-.38.21.02.38.16.38.37.27 9.99-2.86 19.91-8.82 27.94a.37.37 0 0 1-.3.15Z"
  />
  <path
    d="M185.36 291.05c-.18 0-.33-.12-.37-.31-.58-3.06-.59-6.21-.61-9.27-.01-3.12-.03-6.36-.65-9.44-.16-.81-.37-1.62-.58-2.41-.29-1.14-.6-2.32-.77-3.51-.24-1.61-.25-3.25-.26-4.84v-.51c-.04-4.96-.33-9.98-.84-14.91-.02-.21.13-.39.33-.41.22-.02.39.13.41.33.52 4.96.8 10 .84 14.98v.51c.01 1.56.02 3.18.25 4.73.17 1.15.47 2.31.76 3.43.21.8.42 1.62.58 2.45.64 3.16.66 6.43.67 9.59.01 3.02.03 6.14.59 9.13.04.2-.09.4-.3.44h-.07Z"
  />
  <path
    d="M187.34 302.12h-.06a.387.387 0 0 1-.31-.43c.74-4.29-.79-8.67-2.01-11.59-.48-1.14-.99-2.27-1.5-3.39-1.15-2.53-2.34-5.15-3.07-7.89a.38.38 0 0 1 .27-.46c.21-.06.41.07.46.27.71 2.68 1.89 5.27 3.03 7.77.52 1.13 1.03 2.27 1.51 3.41 1.25 3.01 2.83 7.53 2.06 12.01-.03.18-.19.31-.37.31Z"
  />
  <path
    d="M175.7 304.69c-1.51 0-3.08-.19-4.79-.59-.95-.22-2.26-.65-2.67-1.81-.16-.46-.14-.92-.12-1.36v-.14c.06-1.32-.11-2.66-.28-3.96-.08-.67-.17-1.34-.23-2.02-.51-5.97 1.14-11.86 2.73-17.55.82-2.94 1.67-5.97 2.21-8.98.13-.71.24-1.42.35-2.13.43-2.75.88-5.58 2.2-8.09.1-.18.33-.25.51-.16.18.1.25.32.16.51-1.26 2.4-1.7 5.17-2.12 7.86-.11.72-.23 1.44-.36 2.15-.55 3.05-1.4 6.1-2.23 9.05-1.57 5.62-3.2 11.44-2.7 17.28.06.66.14 1.33.22 1.99.17 1.33.34 2.71.29 4.09v.15c-.02.39-.04.76.07 1.08.22.62.9 1.04 2.14 1.33 1.71.4 3.24.57 4.75.57 1.61-.01 3.23-.27 4.8-.51l5.2-.81c.51-.08.89-.2 1.13-.37-.02-.16.02-.33.13-.47.15-.2.39-.29.62-.25.2.04.34.23.3.44-.14.73-.83 1.2-2.06 1.39l-5.2.81c-1.59.25-3.24.5-4.91.52h-.14Z"
  />
  <path
    d="M171.36 302.58c-.39 0-.79-.04-1.18-.16-.76-.24-1.59-.95-1.61-1.92 0-.21.16-.38.37-.38.22-.04.38.16.38.37.01.57.56 1.04 1.09 1.21.64.2 1.38.12 2.04.05l2.11-.23c.81-.09 1.66-.18 2.45-.4.25-.07.49-.15.74-.23.64-.21 1.3-.43 2.01-.44.35 0 .71.05 1.04.1l.42.06c2.48.29 4.99-1 5.95-3.08.09-.19.31-.27.5-.18.19.09.27.31.18.5-1.09 2.37-3.91 3.85-6.72 3.52l-.45-.06a9.75 9.75 0 0 0-.93-.09c-.59 0-1.17.2-1.78.4-.26.08-.51.17-.77.24-.85.24-1.72.33-2.57.42l-2.11.23c-.37.04-.76.08-1.17.08ZM171.69 307.97a.37.37 0 0 1-.34-.22c-.3-.67-.32-1.44-.06-2.13.26-.68.79-1.25 1.46-1.55.19-.08.41 0 .5.19.08.19 0 .41-.19.5-.48.22-.88.64-1.07 1.13-.19.5-.18 1.07.04 1.56a.37.37 0 0 1-.34.52ZM182.59 313.86c-.67 0-1.34-.09-1.98-.33-.8-.31-1.69-1.02-1.76-2.05-.07-.98.64-1.92 1.94-2.57 2.55-1.28 5.63-1.34 8.24-.17.56.25.76.87.92 1.37.04.11.07.23.11.33.1.27.21.63.14 1-.17.93-1.28 1.25-1.64 1.36-1.4.42-2.85.73-4.29.93-.55.08-1.11.14-1.68.14Zm2.49-5.22c-1.37 0-2.73.31-3.97.93-.37.19-1.59.88-1.52 1.85.05.69.72 1.19 1.28 1.4 1.02.4 2.18.31 3.29.15 1.4-.2 2.81-.5 4.18-.91.69-.21 1.05-.46 1.11-.78.04-.19-.03-.4-.11-.59l-.12-.36c-.13-.4-.26-.8-.52-.92a8.884 8.884 0 0 0-3.62-.77Z"
  />
  <path
    d="M188.85 311.74h-.02a.378.378 0 0 1-.36-.39c0-.14-.07-.31-.15-.49l-.04-.09a5.09 5.09 0 0 1-.45-2.21c0-.21.19-.33.38-.37.21 0 .37.17.37.38-.01.64.12 1.29.39 1.88l.04.08c.11.24.24.52.22.84 0 .2-.18.36-.38.36Z"
  />
  <path
    d="M182.97 316.93c-.75 0-1.51-.05-2.27-.15-.93-.12-1.67-.3-2.34-.55-1.74-.66-3.15-1.94-4.45-3.2-.79-.76-1.56-1.53-2.33-2.3l-3.5-3.49c-.14-.14-.33-.33-.42-.6-.08-.28-.03-.55.03-.78.28-1 .91-1.88 1.76-2.48.12-.08.28-.09.41-.02.13.08.2.22.18.37l-.03.24c-.04.28-.07.49 0 .62.05.09.17.16.3.25.08.05.16.1.24.16.18.14.33.31.47.47.2.23.37.43.58.47.2.04.34.23.3.44a.37.37 0 0 1-.44.3c-.46-.09-.76-.42-1.01-.71-.11-.13-.23-.26-.36-.37-.06-.05-.12-.08-.18-.12-.19-.12-.4-.26-.54-.5-.07-.12-.11-.25-.13-.38-.38.43-.66.94-.81 1.48-.03.12-.07.26-.04.35.03.09.14.2.23.29l3.5 3.49c.77.77 1.54 1.54 2.32 2.29 1.25 1.2 2.59 2.43 4.2 3.04.61.23 1.3.39 2.17.51 3.35.45 6.7-.15 9.44-1.67.38-.21.83-.5.9-.9.04-.21-.04-.47-.1-.67-.36-1.04-1.03-1.95-1.68-2.83-.12-.17-.09-.4.08-.52.17-.12.4-.09.52.08.65.89 1.38 1.89 1.78 3.03.1.28.21.66.13 1.05-.13.71-.75 1.13-1.27 1.43-2.25 1.25-4.9 1.91-7.63 1.91ZM188.91 309.02a.37.37 0 0 1-.34-.22c-.06-.13-.12-.26-.19-.38-.28-.54-.63-1.05-.99-1.57-.78-1.13-1.6-2.27-2.44-3.38a.39.39 0 0 1 .07-.53c.16-.12.4-.09.53.07.84 1.12 1.67 2.26 2.46 3.4.37.54.73 1.07 1.03 1.65.07.14.14.28.2.42.08.19 0 .41-.19.5-.05.02-.1.03-.16.03Z"
  />
  <path
    d="M188.14 312.87a.378.378 0 0 1-.18-.71c.3-.16.49-.55.42-.88-.04-.2.09-.4.3-.44.2-.04.4.09.44.3.13.66-.21 1.37-.8 1.68-.06.03-.12.04-.18.04ZM127.16 314.14c-.06 0-.11-.01-.16-.04a.368.368 0 0 1-.17-.5c.41-.85.99-1.59 1.54-2.32l.2-.26c1.67-2.19 3.19-4.52 4.5-6.93a.375.375 0 1 1 .66.36 53.885 53.885 0 0 1-4.57 7.03l-.2.26c-.53.69-1.08 1.41-1.46 2.19-.06.13-.2.21-.34.21ZM144.7 309.88a.37.37 0 0 1-.15-.71c.84-.37 1.54-1.06 1.91-1.9.05-.11.05-.14.05-.15 0-.03-.06-.12-.09-.16l-.68-1.02c-.11-.17-.07-.41.1-.52.17-.11.41-.07.52.1l.68 1.02c.08.11.19.28.21.5.02.2-.05.38-.11.53-.45 1-1.28 1.83-2.29 2.28-.05.02-.1.03-.15.03Z"
  />
  <path
    d="M146.73 308.21c-.1 0-.21-.04-.28-.13a.378.378 0 0 1 .03-.53c.47-.41.87-.9 1.2-1.44l.15-.25c.14-.25.29-.51.48-.74l-.14-.22a.376.376 0 0 1 .12-.52c.17-.11.41-.06.52.12l.29.47c.09.15.07.35-.06.47-.22.21-.39.49-.56.79l-.15.26c-.36.6-.81 1.15-1.34 1.61-.07.06-.16.09-.25.09Z"
  />
  <path
    d="M133.98 317.92c-1.26 0-2.53-.09-3.8-.35-.56-.12-1.2-.29-1.72-.68-.91-.68-1.23-1.78-1.52-2.94-.05-.2.08-.4.28-.45.2-.05.4.08.45.28.25 1.03.53 1.99 1.24 2.52.4.3.92.44 1.43.55 2.37.5 4.81.35 7.12.17.85-.07 1.55-.15 2.17-.45.44-.21.83-.54 1.26-.92 2.78-2.44 5.44-5.08 7.89-7.86.1-.11.21-.24.23-.35a.938.938 0 0 0-.04-.31l-.46-1.89c-.05-.2.07-.4.28-.45.2-.04.4.07.45.28l.46 1.89c.04.17.09.38.05.62-.05.32-.26.55-.41.72a87.61 87.61 0 0 1-7.96 7.93c-.47.41-.9.77-1.42 1.03-.8.39-1.71.46-2.44.52-1.15.09-2.33.18-3.53.18Z"
  />
  <path
    d="M134.06 315.08h-.03c-.42 0-.82-.09-1.2-.17-1.08-.24-2.2-.48-3.29-.83-.21-.07-.55-.18-.76-.48-.14-.2-.18-.43-.2-.58-.17-1.51.87-2.79 1.91-3.49.45-.3 2.04-1.24 3.96-.9.26.04.51.11.76.17l1 .25c.87.22 2.07.52 2.78 1.42.56.7.75 1.69.55 2.72-.03.15-.07.3-.18.44-.16.19-.37.26-.51.3-1.11.35-2.24.63-3.33.91-.47.12-.95.24-1.46.24Zm-3.14-4.93c-.82.55-1.72 1.6-1.58 2.78.01.12.04.2.07.24.06.09.22.15.38.2 1.05.34 2.15.58 3.21.81.37.08.71.15 1.05.16h.02c.42 0 .86-.11 1.28-.22 1.08-.27 2.19-.55 3.29-.9.04-.01.13-.04.16-.06 0 0 .01-.03.03-.11.16-.8.01-1.59-.4-2.11-.51-.65-1.38-.91-2.38-1.16l-1.01-.25c-.24-.06-.47-.12-.71-.16-1.64-.29-3.02.53-3.41.78Z"
  />
  <path
    d="M130.4 314.14s-.08 0-.12-.02l.05-.32-.26.13c-.31-.64-.4-1.44-.25-2.24.12-.63.38-1.29.8-2.01.1-.18.33-.24.51-.13.18.1.24.33.13.51-.38.65-.61 1.23-.72 1.77-.12.64-.06 1.27.19 1.77.07.14.04.3-.06.41-.07.08-.17.13-.28.13ZM179.63 315.93c-.3 0-.61-.02-.91-.06a.373.373 0 1 1 .1-.74c1.04.14 2.11-.03 3.16-.19l2.62-.41c.99-.16 2.02-.32 3.01-.58l.49-.14c.9-.26 1.84-.53 2.8-.35.2.04.34.23.3.44s-.23.34-.44.3c-.79-.14-1.6.09-2.46.33l-.5.14c-1.03.28-2.08.44-3.09.6l-2.62.41c-.8.13-1.62.25-2.46.25ZM136.79 316.57c-.78 0-1.55-.06-2.3-.14-2.47-.26-4.47-.67-6.28-1.29-.2-.07-.3-.28-.23-.48.07-.2.29-.3.48-.23 1.76.61 3.7 1.01 6.12 1.26 1.62.17 3.34.26 4.97-.22.2-.05.41.06.47.25.06.2-.06.41-.25.47-.98.29-1.97.38-2.96.38Z"
  />
</svg>
