<svg xmlns="http://www.w3.org/2000/svg" viewBox="0 0 320 320" opacity="0.6">
  <path
    d="m153.75,128.18c-.19,0-.36-.13-.41-.3-.7-2.26-1.51-2.96-2.07-3.15-.58-.2-1.03.12-1.04.12-.09.07-.21.09-.33.07s-.21-.08-.28-.18c-.69-.99-.56-3.28-.55-3.54.01-.23.19-.43.47-.41.23.01.42.22.41.47-.05.73-.01,1.95.23,2.66.33-.12.82-.2,1.37,0,.83.28,1.54,1.06,2.12,2.34.71-2.97,2.14-8.19,3.33-8.73.22-.09.48,0,.57.21.09.22,0,.48-.21.57-.71.32-2.2,5.19-3.18,9.53-.05.19-.21.33-.41.34h-.02Zm56.95,23.84c-.06,0-.13-.01-.19-.05-.21-.11-.3-.37-.2-.58l2.55-5.28c.11-.21.36-.3.58-.2.21.11.3.36.2.58l-2.55,5.28c-.07.15-.23.25-.39.25h-.01Zm-3.26.53c-.07,0-.13-.01-.19-.05-.21-.11-.3-.37-.2-.58l2.63-5.35c.11-.21.36-.3.58-.2.21.11.3.36.2.58l-2.63,5.35c-.07.15-.23.25-.39.25h-.01Zm-11.91,7.74c-.21,0-.4-.15-.43-.36-.04-.23.13-.46.36-.49l36.03-5.65c.25-.06.46.13.49.36s-.13.46-.36.49l-36.03,5.65h-.07.01Zm.87,6.63c-.21,0-.4-.15-.43-.36-.04-.23.13-.46.36-.49l36.25-5.74c.23-.04.46.13.49.36s-.13.46-.36.49l-36.25,5.74h-.07.01Zm1.4,7.04c-.21,0-.4-.15-.43-.36-.04-.23.12-.46.36-.5l36.04-5.95c.27-.02.46.12.5.36.04.23-.12.46-.36.5l-36.04,5.95s-.07,0-.07,0Z"
  />
  <path
    d="m205.61,165.46c-.21,0-.39-.15-.43-.36l-1.16-6.57c-.05-.23.12-.46.35-.5.25-.05.46.12.5.35l1.16,6.57c.05.23-.12.46-.35.5h-.07Zm17.95-2.84c-.21,0-.4-.15-.43-.37l-1.01-6.56c-.04-.23.13-.46.36-.49.22-.04.46.13.49.36l1.01,6.56c.04.23-.13.46-.36.49h-.07.01Zm-12.06-3.22c-.21,0-.4-.15-.43-.37-.04-.23.13-.46.37-.49l4.84-.69c.23-.05.46.13.49.37s-.13.46-.37.49l-4.84.69s-.06,0-.06,0Zm-13.7,2.2c-.21,0-.4-.15-.43-.36-.04-.23.13-.46.36-.49l4.48-.7c.23-.06.46.13.49.36s-.13.46-.36.49l-4.48.7h-.07.01Zm27.86-4.14c-.21,0-.4-.15-.43-.36-.04-.23.12-.46.36-.5l4.26-.7c.25-.04.46.12.5.36.04.23-.12.46-.36.5l-4.26.7s-.07,0-.07,0Zm-30.83,1.04c-.21,0-.4-.15-.43-.37-.04-.23.13-.46.36-.49l5.21-.77c.26-.05.46.13.49.36s-.13.46-.36.49l-5.21.77h-.07.01Zm2.18,10.92c-.21,0-.4-.15-.43-.36-.04-.23.13-.46.36-.49l8.95-1.42c.23-.05.46.13.49.36s-.13.46-.36.49l-8.95,1.42h-.07.01Zm.43,2.98c-.2,0-.39-.14-.42-.35-.05-.23.11-.47.35-.5l7.54-1.43c.23-.05.47.11.5.35.05.23-.11.47-.35.5l-7.54,1.43h-.08Zm.55,3.81c-.21,0-.39-.14-.43-.35-.05-.23.12-.47.35-.5l4.56-.84c.25-.05.47.12.5.35.05.23-.12.47-.35.5l-4.56.84h-.08.01Zm16.71-3.18c-.21,0-.4-.15-.43-.36-.04-.23.12-.46.36-.5l14.57-2.42c.25-.04.47.12.5.36.04.23-.12.46-.36.5l-14.57,2.42h-.07Zm16.13-2.69c-.21,0-.4-.15-.43-.36-.04-.23.12-.46.36-.5l3.02-.49c.23-.04.46.13.5.36s-.12.46-.36.5l-3.02.49h-.07Zm0,2.28c-.2,0-.37-.13-.42-.33-.06-.23.08-.47.32-.53l3.02-.73c.23-.07.47.09.53.32.06.23-.08.47-.32.53l-3.02.73s-.07.01-.11.01Zm-14.49,1.91c-.22,0-.41-.16-.43-.39-.02-.23.14-.46.37-.48l2.85-.34c.28-.02.46.14.48.37.02.23-.14.46-.37.48l-2.85.34h-.05Zm-66.67,67.51c-.18,0-.33-.11-.4-.27-.09-.22.01-.48.23-.56,1.27-.53,12.46-5.09,14.39-5.09h.04c.23,0,.43.21.42.44,0,.23-.2.42-.43.42h-.04c-1.32,0-9.1,2.99-14.05,5.02-.06.02-.11.04-.16.04Zm6.75,1.85c-.19,0-.36-.12-.42-.3-.07-.23.06-.47.29-.54.11-.04,10.82-3.26,13.12-4.12.22-.08.48.04.56.26s-.04.48-.26.56c-2.33.87-12.73,4.01-13.17,4.14-.05.01-.08.02-.13.02v-.02Zm69.94-117.73s-.09,0-.14-.02l-5.6-1.93c-.22-.08-.35-.33-.27-.55.08-.22.32-.35.55-.27l5.6,1.93c.22.08.35.33.27.55-.06.18-.23.29-.41.29Zm-2.78,2.04s-.11,0-.15-.02l-5.43-2.04c-.22-.08-.34-.34-.26-.56.08-.22.34-.34.56-.26l5.43,2.04c.22.08.34.34.26.56-.07.18-.23.28-.41.28Zm-2.71,2s-.11,0-.15-.02l-5.46-2c-.22-.08-.34-.33-.26-.56.08-.22.33-.34.56-.26l5.46,2c.22.08.34.33.26.56-.07.18-.23.28-.41.28Zm-2.4,1.75s-.11,0-.15-.02l-5.44-1.99c-.22-.08-.34-.33-.26-.56.08-.22.33-.34.56-.26l5.44,1.99c.22.08.34.33.26.56-.07.18-.23.28-.41.28Zm-2.43,1.79s-.08,0-.13-.02l-5.67-1.79c-.23-.07-.35-.32-.28-.55.07-.23.32-.35.54-.28l5.67,1.79c.23.07.35.32.28.55-.06.19-.23.3-.41.3Zm-2.56,1.88s-.09,0-.14-.02l-5.52-1.88c-.22-.08-.35-.33-.27-.55.07-.22.33-.35.55-.27l5.52,1.88c.22.08.35.33.27.55-.06.18-.23.29-.41.29Zm-2.48,1.81s-.09,0-.14-.02l-5.58-1.81c-.22-.07-.35-.32-.28-.55.07-.22.32-.35.55-.28l5.58,1.81c.22.07.35.32.28.55-.06.19-.23.3-.41.3Zm-2.53,1.86s-.09,0-.14-.02l-5.5-1.86c-.22-.08-.35-.33-.27-.55s.32-.35.55-.27l5.5,1.86c.22.08.35.33.27.55-.06.18-.23.29-.41.29Zm-2.5,1.84s-.09,0-.14-.02l-5.5-1.84c-.22-.07-.35-.33-.27-.55s.32-.35.55-.27l5.5,1.84c.22.07.35.33.27.55-.06.19-.23.29-.41.29Zm23.55,7.8c-.07,0-.14-.01-.2-.05-.21-.12-.29-.37-.18-.58l2.67-4.99c.12-.21.37-.29.58-.18s.29.37.18.58l-2.67,4.99c-.08.14-.23.23-.39.23h0Zm-3.19.51c-.07,0-.14-.01-.2-.05-.21-.11-.29-.37-.19-.58l2.63-5.04c.11-.21.37-.29.58-.19s.29.37.19.58l-2.63,5.04c-.08.15-.23.23-.39.23Zm-3.28.54c-.07,0-.14-.01-.2-.05-.21-.11-.29-.37-.19-.58l2.64-5.09c.12-.21.37-.29.58-.19s.29.37.19.58l-2.64,5.09c-.08.15-.23.23-.39.23Zm-3.15.51c-.07,0-.14-.01-.2-.05-.21-.11-.29-.37-.19-.58l2.67-5.15c.11-.21.37-.29.58-.19s.29.37.19.58l-2.67,5.15c-.08.15-.23.23-.39.23Zm-2.89.48c-.07,0-.13-.01-.19-.05-.21-.11-.3-.37-.2-.58l2.55-5.17c.11-.21.36-.3.58-.2.21.11.3.36.2.58l-2.55,5.17c-.07.15-.23.25-.39.25h-.01Zm-3.24.53c-.07,0-.13-.01-.19-.05-.21-.11-.3-.37-.2-.58l2.59-5.23c.11-.21.37-.3.58-.2s.3.36.2.58l-2.59,5.23c-.07.15-.23.25-.39.25h-.01Zm-84.29,138.53c-.08,0-.16-.02-.25-.07-4.37-2.94-6.04-8.78-6.11-9.03-.07-.23.07-.47.3-.54.23-.06.47.07.54.3.01.06,1.65,5.78,5.75,8.54.2.13.26.41.12.61-.08.13-.22.19-.36.19Z"
  />
  <path
    d="m120.64,285.2c-.5,0-1.03-.04-1.54-.09-.57-.08-1.52-.19-2.68-.34-6.19-.76-12.9-1.61-14.27-2.2-1.38-.58-6.92.06-8.95.35-.25.04-.46-.13-.49-.36s.13-.46.36-.49c.77-.12,7.57-1.09,9.42-.29,1.38.58,9.61,1.59,14.04,2.13,1.17.14,2.12.26,2.69.34,2.7.36,5.54-.49,5.57-.5.23-.07.47.06.54.29s-.06.47-.29.54c-.11.04-2.09.63-4.4.63h.01Zm.95-5.16c-.2,0-.37-.14-.42-.34-.22-.94.3-3.53.42-4.08-.06-.57.16-.88.37-1.04.42-.34,1.08-.27,1.58-.15-.08-2.26-.41-5.21-.96-5.71-1.04-.96-4.36-11.76-5.02-13.91-.07-.23.06-.47.29-.54s.47.06.54.29c1.86,6.13,4.18,12.96,4.77,13.52,1.09.99,1.24,5.95,1.25,6.94,0,.14-.07.28-.19.36s-.28.09-.41.05c-.48-.2-1.15-.3-1.32-.18-.05.04-.06.15-.04.32v.15c-.25,1.15-.57,3.17-.43,3.78.06.23-.09.47-.33.53h-.12Z"
  />
  <path
    d="m87.91,287.99c-.91,0-1.26-.73-2.55-3.4l-.07-.15c-1.25-2.61-1.35-9.25-1.35-11.23,0-.94.57-2,1.45-2.73.67-.55,1.38-.78,2-.66,1.18.23,4.77,0,4.81,0,.26-.02.44.16.47.41.01.25-.16.44-.41.47-.15,0-3.74.25-5.04,0-.35-.07-.82.11-1.29.48-.68.56-1.13,1.38-1.13,2.06,0,3.97.33,8.9,1.26,10.84l.07.15c.98,2.06,1.39,2.91,1.77,2.91.06-.06.29-.5.46-.81.42-.78.94-1.75,1.82-1.98,1.29-.32,3.56-.34,3.65-.34.23,0,.43.19.43.43s-.19.43-.43.43c-.02,0-2.26.01-3.44.32-.51.13-.94.91-1.27,1.54-.37.7-.68,1.26-1.22,1.26v-.02Z"
  />
  <path
    d="m96.72,302.99c-.48,0-.96-.02-1.46-.06-2.98-.25-9.08-1.2-10.77-3.02-1.74-1.87-2.59-5.56-2.78-8.15-.21-2.85-.62-5.58-.87-6.21-.13.04-.4.13-.61.26-.11.06-.25.07-.36.04-.12-.05-.21-.14-.26-.26-.07-.18-1.59-4.3-1.93-6.64-.35-2.51,1.53-5.08,2.56-5.83.33-.23.82-.7,1.35-1.18,1.05-.98,2.25-2.09,3.11-2.4.18-.06.35-.14.54-.22,1.08-.47,2.55-1.11,4.19.76.16.18.14.46-.05.61-.18.16-.46.14-.61-.05-1.22-1.39-2.13-.99-3.18-.53-.2.08-.4.18-.58.25-.69.25-1.86,1.35-2.81,2.22-.57.53-1.06.98-1.43,1.25-.95.69-2.5,2.95-2.21,4.99.26,1.8,1.31,4.87,1.72,6.01.33-.13.73-.21,1.04-.06.73.36,1.16,5.4,1.27,6.94.23,3.23,1.24,6.21,2.55,7.61,1.24,1.33,6.19,2.41,10.2,2.75,3.13.27,5.71-.41,6.54-.96.26-.18.19-.51-.05-1.16-.14-.37-.26-.7-.13-.98,0-.07-.12-.41-.2-.67-.16-.51-.4-1.22-.43-1.98-.04-.77-1.43-1.89-2.29-2.42-.11-.06-.18-.16-.2-.28-.18-.85-1.12-1.52-1.12-1.53-.2-.14-.25-.41-.11-.61.14-.2.41-.25.61-.11.05.04,1.11.78,1.43,1.87.6.39,2.5,1.7,2.56,3.03.02.63.23,1.25.39,1.74.19.55.32.95.18,1.27,0,0,.09.19.15.34.22.6.58,1.6-.28,2.19-.92.62-3.09,1.17-5.64,1.17h-.02Zm78.87-1.49c-1.52,0-2.99-.69-4.07-1.93-.78-.9-1.16-1.89-.97-2.54.32-1.06,1.25-4.63,1.26-4.68.06-.23.29-.36.53-.32.23.06.37.3.32.53-.04.15-.95,3.63-1.26,4.7-.07.25.13.96.8,1.72.5.57,1.88,1.89,4,1.58,1.16-.16,2.14-.61,3.09-1.03,1.42-.64,2.77-1.25,4.37-.73-.29-.76-.63-1.84-.73-2.91-.02-.23.16-.44.4-.47.23-.01.44.16.47.4.14,1.77,1.09,3.65,1.1,3.66.09.18.05.39-.09.51s-.36.15-.53.05c-1.71-1.05-3.01-.48-4.66.26-.96.43-2.04.91-3.31,1.1-.23.04-.48.05-.71.05v.05Z"
  />
  <path
    d="m98.1,297.78c-.36,0-.75-.04-1.16-.12l-.41-.08c-3.54-.69-6.6-1.3-7.8-3.13-.77-1.18-.91-3.44-1.01-5.09-.04-.57-.08-1.26-.14-1.5-.11-.11-.15-.28-.11-.43.07-.23.32-.35.54-.28.44.14.48.64.57,2.16.09,1.46.22,3.68.87,4.67,1.01,1.53,3.9,2.11,7.24,2.76l.41.08c1.08.21,1.92.11,2.5-.33.73-.54.82-1.43.82-1.44.02-.23.21-.41.47-.39.23.02.41.23.4.47,0,.05-.12,1.27-1.16,2.05-.55.41-1.23.62-2.05.62v-.02Z"
  />
  <path
    d="m90.19,288.56c-.88,0-1.73-.06-2.39-.21-.23-.06-.37-.29-.33-.53.06-.23.29-.39.53-.33,2.23.51,7.05-.21,7.1-.21.23-.05.46.13.49.36s-.13.46-.36.49c-.15.02-2.73.41-5.04.41h0Zm-8.87-2.5c-.15,0-.29-.08-.37-.21-1.06-1.8-1.72-10.43-1.79-11.42-.01-.25.16-.44.4-.47.27-.04.44.16.47.4.19,2.61.85,9.66,1.67,11.03.12.21.06.47-.15.6-.07.04-.14.06-.22.06h0Zm3.7,10.41s-.11,0-.16-.04c-.22-.08-.33-.34-.25-.56.57-1.45,1.31-2.28,2.2-2.49,1.01-.23,1.78.47,1.81.5.18.16.19.43.02.61-.16.18-.43.19-.61.02-.02-.01-.49-.42-1.04-.29-.58.14-1.12.82-1.58,1.97-.07.18-.23.28-.41.28h.01Zm4.68-1.17c-.21,0-.39-.15-.43-.36-.05-.23.12-.46.35-.5,3.81-.67,8.02-1.56,8.63-1.94.09-.14.25-.23.43-.2.23.04.4.26.36.49-.05.34-.13.91-9.29,2.5h-.07.01Zm84.71,18.07c-.49,0-5.64-2.53-6.12-3.01-.37-.37-.32-1.06-.26-2.02.06-.87.14-1.93-.13-2.77-.61-1.93.05-5.28.7-7.74.76-2.88,2.84-3.45,2.92-3.47.23-.06.47.08.53.32.06.23-.08.47-.3.53-.07.02-1.68.49-2.3,2.85-.88,3.32-1.13,5.91-.71,7.26.32,1.01.23,2.16.16,3.1-.04.5-.08,1.2,0,1.36.39.36,5.03,2.61,5.57,2.75.09-.02,1.1-.32,1.92-.58.23-.07.48.05.55.28.07.23-.05.47-.28.55-.88.28-1.98.62-2.26.62h.01Z"
  />
  <path
    d="m188.72,320.52c-1.06,0-1.89-.04-2.21-.08-.25-.04-.57-.07-.96-.09-1.86-.15-4.98-.42-7.15-2.34-.07-.06-.12-.14-.14-.23-.46-2.18-1.36-5.86-1.82-6.52-.62-.87-.68-.94-3.15-2.09-.73-.34-1.44-.63-2.09-.91-2.02-.85-3.01-1.29-3.16-1.99-.05-.23.11-.47.34-.51.25-.04.47.11.51.34.12.3,1.58.92,2.64,1.37.67.28,1.39.58,2.13.92,2.41,1.12,2.7,1.29,3.49,2.37.7.97,1.73,5.68,1.94,6.71,1.94,1.65,4.81,1.89,6.53,2.04.41.04.76.07,1.02.11,1.67.26,9.02-.05,9.72-.8.15-.16.22-.33.21-.5-.02-.42-.41-.85-.56-.98-.08-.07-.13-.16-.14-.27,0-.02-.33-2.4-1.37-4.36-.66-1.25-3.06-3.9-4.83-5.83-1.15-1.25-2.05-2.25-2.37-2.73-.8-1.17-3.11-4.07-3.13-4.09-.15-.19-.12-.46.07-.61s.46-.12.61.07c.09.12,2.35,2.96,3.17,4.15.28.42,1.22,1.44,2.29,2.62,1.89,2.08,4.25,4.67,4.96,6.01.97,1.84,1.35,3.92,1.44,4.5.23.23.7.8.74,1.49.02.42-.14.82-.44,1.15-.84.89-5.42,1.13-8.28,1.13v-.05Z"
  />
  <path
    d="m174.41,313.37c-.23,0-.43-.19-.43-.42l-.12-3.8c0-.25.18-.44.42-.44.22,0,.44.18.44.42l.12,3.8c0,.25-.18.44-.42.44,0,0-.01,0-.01,0Zm17.09.8c-.49,0-1.04-.05-1.67-.15-4.42-.73-7.84-2.64-9.38-5.26-.8-1.36-1.61-3.51-2.27-5.23-.37-.98-.8-2.08-.97-2.37-.11-.06-.18-.15-.21-.27-.06-.23.07-.47.3-.54.54-.15.73.32,1.7,2.87.64,1.7,1.44,3.8,2.2,5.1,1.4,2.4,4.61,4.16,8.77,4.84,3.82.62,4.29-1.06,4.32-1.13.06-.23.29-.37.51-.32.23.06.37.28.33.51-.02.09-.46,1.95-3.63,1.95h0Z"
  />
  <path
    d="m178.93,304.7c-.09,0-.19-.04-.27-.09-.19-.14-.22-.41-.08-.6.09-.13.99-1.22,4.09-1.78,3.18-.57,5.21,1.22,5.29,1.3.18.16.19.43.04.61-.16.18-.43.19-.61.04-.07-.07-1.8-1.58-4.55-1.09-2.75.5-3.54,1.44-3.56,1.45-.08.11-.21.16-.34.16h-.01Zm-.74,11.15c-.2,0-.37-.14-.42-.34-.55-2.46,1.78-6.69,2.82-7.35.88-.55,3.4-1.61,5.52-1.35,2.01.25,6.52,2.19,6.71,2.27.22.09.33.35.22.57s-.35.32-.57.22c-.05-.02-4.57-1.97-6.47-2.2-1.88-.23-4.19.74-4.95,1.22-.7.43-2.9,4.36-2.43,6.41.05.23-.09.47-.33.51h-.09v.02Zm7.86-19.42c-.23,0-.42-.19-.43-.42-.05-1.24-1.26-30.45-.83-36.76.14-2.12.35-4.43.55-6.66.39-4.37.75-8.52.54-9.87-.04-.23.13-.46.36-.49.25-.04.46.13.49.36.22,1.46-.13,5.46-.54,10.08-.2,2.22-.4,4.53-.55,6.64-.43,6.27.82,36.37.83,36.67,0,.25-.18.44-.42.46h-.02.02Zm14.82-104.34c-1.68,0-9.45-1.99-11.7-2.62-2.43-.69-10.64-1.61-10.73-1.63-.23-.02-.41-.25-.39-.48.02-.23.22-.39.48-.39.34.04,8.36.95,10.87,1.66,2.66.75,9.97,2.6,11.45,2.6,1.39,0,1.77-.13,1.78-.13.22-.08.47.04.55.25.08.22,0,.46-.22.55-.11.05-.56.2-2.12.2h.02Zm.07-47.27c-.13,0-.27-.06-.35-.18-.14-.2-.11-.47.09-.61l25.45-18.69c-.41-.6-1.3-1.85-2.02-2.46-.74-.62-1.73.23-1.78.27l-23.21,17.24c-.19.14-.47.11-.61-.09-.14-.19-.11-.47.09-.61l23.18-17.22c.53-.46,1.84-1.13,2.88-.26,1.08.9,2.36,2.91,2.42,2.99.13.2.08.44-.11.58l-25.79,18.94c-.07.05-.16.08-.26.08Zm4.05,8.13c-.21,0-.4-.15-.43-.36-.04-.23.12-.46.36-.5l27.99-4.59-.57-3.58-27.29,4.02c-.25.04-.46-.13-.49-.36s.13-.46.36-.49l27.71-4.08c.25-.05.46.13.49.36l.7,4.43c.04.23-.12.46-.36.49l-28.42,4.64h-.07.02Zm-6.01,26.08c-1.8,0-2.89-.6-3.1-1.7-.27-1.4-2.95-16.36-2.97-16.52-.05-.23.12-.47.35-.5.25-.04.47.12.5.35.02.15,2.7,15.11,2.97,16.5.2,1.06,2.09,1.03,2.89.97.9-.07,2.56-.39,2.57-.39.25-.05.47.11.5.34s-.11.47-.34.51c-.07.01-1.72.33-2.68.41-.25.02-.48.02-.71.02h.01Z"
  />
  <path
    d="m223.56,175.38c-.21,0-.4-.15-.43-.36-.04-.23.13-.46.36-.5.09-.01,8.95-1.44,10.73-1.68,1.51-.21,1.67-2.08,1.64-2.57-.05-.57-2.57-16.22-3.54-22.21-.04-.23.12-.46.36-.5.25-.02.46.13.5.36.14.88,3.5,21.58,3.56,22.28.08,1.02-.4,3.22-2.39,3.5-1.77.25-10.62,1.66-10.71,1.68h-.07,0Zm-44.32,9.92c-.2,0-.37-.13-.42-.33-.06-.23.08-.47.32-.53.04,0,2.92-.77,5.19-3.86,2.26-3.08,8.71-9.18,10.85-9.54.26-.04.46.12.5.36.04.23-.12.46-.36.5-1.63.27-7.79,5.77-10.31,9.19-2.46,3.36-5.54,4.15-5.68,4.19-.04,0-.07.01-.11.01h.01Zm2.73-7.93c-.16,0-.33-.09-.4-.25-.11-.21-.02-.48.19-.58h.02c.13-.16.57-.83,1.79-3.45,1.09-2.36,1.46-2.63,2.37-3.06.53-.25,1.25-.6,2.62-1.87,2.01-1.87,1.84-2.4,1.84-2.41-.01-.04-.14-.07-.19-.07-.23,0-.43-.2-.42-.44,0-.23.2-.42.43-.42.28,0,.8.14.98.63.28.73-.37,1.79-2.05,3.36-1.46,1.37-2.29,1.75-2.83,2.01-.69.33-.95.44-1.97,2.64-1.81,3.92-2.09,3.92-2.39,3.93h-.01Zm-.01-19.65c-.23,0-.43-.21-.42-.44.05-2.06-2.55-7.09-2.57-7.14-.11-.21-.02-.48.19-.58s.48-.04.58.19c.11.21,2.74,5.29,2.68,7.56,0,.23-.2.42-.43.42h-.02Z"
  />
  <path
    d="m193.56,186.26c-.15,0-.36-.05-.56-.23-1.37-1.29-1.24-9.98-1.19-11.71,0-.25.18-.41.44-.42.23,0,.43.21.42.44-.12,4.99.23,10.64.94,11.07.63-.07,1.77-3.75,2.37-7.9.04-.23.25-.4.49-.36.23.04.4.26.36.49-.37,2.55-1.43,8.48-3.2,8.63h-.07Zm1.98,4.32c-.15,0-.3-.08-.37-.22-.78-1.4-3.08-3.78-4.19-4.9-.5,3.87-.77,3.88-1.12,3.91-.11,0-.41,0-.53-.44-.19-.69-2.26-3.97-3.53-5.87-.13-.2-.08-.47.12-.61.2-.13.47-.08.61.12.28.42,2.3,3.49,3.22,5.19.16-.84.35-2.13.49-3.28.02-.16.13-.3.28-.35.15-.06.33-.02.44.09.15.15,3.87,3.72,4.97,5.72.12.21.04.48-.16.58-.07.04-.14.06-.21.06h-.01Zm-25.78,58.84c-.23,0-.5-.06-.83-.23-1.79-.99-8.98-4.46-12.6-5.29-3.74-.85-6.95-1.36-6.97-1.37-.23-.04-.4-.26-.36-.49s.25-.41.49-.36c.04,0,3.26.51,7.04,1.38,3.91.89,11.29,4.53,12.83,5.37.36.2.51.12.57.09.36-.19.55-1.01.58-1.38.36-1.37,1.25-4.44,1.82-4.96.18-.16.46-.15.61.04.16.18.15.46-.04.61-.29.29-1.03,2.55-1.56,4.47,0,.08-.15,1.52-1.02,1.99-.14.07-.34.14-.57.14h-.01Z"
  />
  <path
    d="m185.47,296.47c-2.43,0-12.93-1.15-14.19-4.69-.01-.05-.02-.09-.02-.14,0-.76-.06-7.43,0-8.04,0-.11-.09-.55-.19-.97-.36-1.64-1.12-5.03-.78-9.03.18-2.13-.06-4.42-.3-6.84-.36-3.47-.76-7.42-.11-11.99-.25-.2-.58-.55-.7-1.09-.14-.73.18-1.53.95-2.4.32-.35.69-.76,1.1-1.22,1.85-2.02,4.94-5.4,5.28-6.5.07-.23.32-.36.54-.29.23.07.36.32.29.54-.36,1.18-2.69,3.79-5.46,6.83-.41.44-.78.85-1.1,1.2-.57.63-.83,1.2-.75,1.65s.5.67.51.67c.16.08.27.27.23.46-.69,4.59-.29,8.55.07,12.05.26,2.47.49,4.8.32,7.01-.32,3.86.39,7.05.77,8.77.16.73.22,1.03.21,1.24-.04.42-.02,4.9,0,7.87,1.12,2.75,10.9,4.11,13.46,4.05,2.07-.05,3.57-1.75,4.12-2.49.18-.41.06-3.45-.06-6.67-.11-2.91-.25-6.55-.25-10.14,0-6.48.61-12.39,1.05-16.7.12-1.17.22-2.21.3-3.12.37-4.25-.67-11.98-.85-12.67-.21-.8.35-3.88.55-4.9-.98-1.23-1.24-1.93-1.58-2.88-.23-.63-.51-1.42-1.11-2.6-1.46-2.89-14.04-12.61-14.17-12.71-.19-.15-.22-.42-.08-.61s.42-.22.61-.08c.53.41,12.85,9.95,14.41,13.01.62,1.23.91,2.04,1.16,2.69.34.95.57,1.57,1.57,2.78.08.11.12.23.09.36-.33,1.66-.74,4.21-.61,4.7.26.95,1.26,8.7.88,12.97-.08.91-.19,1.97-.3,3.13-.44,4.29-1.05,10.18-1.05,16.61,0,3.58.14,7.19.25,10.11.2,5.37.21,6.78-.12,7.22-.62.83-2.34,2.78-4.8,2.84h-.14Z"
  />
  <path
    d="m171.03,251.34s-.08,0-.12-.01c-.41-.12-.73-.37-.9-.74-.43-.85,0-2.04.05-2.16.08-.22.33-.34.56-.26.22.08.34.34.26.56-.09.26-.3,1.04-.08,1.47.07.15.19.23.37.29.23.07.36.3.29.54-.06.19-.23.32-.42.32h-.01Zm-38.69,43.3c-5.01,0-10.27-1.17-11.84-1.85-1.26-.55-4.29-1.73-6.74-2.68-1.66-.64-3.06-1.19-3.53-1.39-.22-.09-.33-.35-.23-.57.09-.22.35-.33.57-.23.46.2,1.86.74,3.5,1.38,2.44.95,5.5,2.14,6.77,2.69,2.04.89,11.23,2.73,16.77,1.17,4.41-1.23,5.53-4.36,6.82-7.99.28-.8.57-1.61.9-2.41,1.75-4.25-.01-20.89-.04-21.05-.02-.23.15-.46.39-.48.26-.02.46.15.48.39.07.69,1.8,17.03-.04,21.48-.33.78-.61,1.58-.89,2.37-1.31,3.7-2.56,7.18-7.4,8.54-1.64.46-3.56.63-5.51.63h.01Zm-7.76-18.07c-.15,0-.3-.08-.39-.23-.01-.02-1.44-2.71-4.18-7.26-2.74-4.56-5.33-11.67-6.08-14.86-.69-2.91-3.3-7.36-4.39-8.94-1.13-1.65-1.95-7.85-1.99-8.12-.04-.23.14-.46.37-.49.23-.02.46.14.49.37.22,1.73.99,6.52,1.84,7.73,1.11,1.61,3.8,6.19,4.52,9.23.74,3.12,3.3,10.13,5.98,14.61,2.75,4.57,4.18,7.28,4.2,7.3.12.21.04.48-.18.58-.07.04-.14.05-.2.05v.02Z"
  />
  <path
    d="m97.64,292.17c-.18,0-.35-.07-.53-.2-1.91-1.45-6.19-14.01-6.33-15.8-.11-1.29-.37-4.69,1.19-6.32.62-.64,1.44-.94,2.47-.9,1.46.07,3.64.27,5.95.49,3.45.33,7.01.67,8.28.54,1.59-.16,10.8-.18,11.97.94.06.06.11.13.12.2,0,.02.66,2.37,1.65,4.32.02.05.05.11.05.16,0,.05.39,4.47,2.4,6.18,2.11,1.79,10.38,6.09,10.46,6.14.21.11.29.37.19.58-.12.21-.37.29-.58.19-.34-.18-8.43-4.4-10.62-6.25-2.14-1.82-2.63-6-2.7-6.68-.89-1.74-1.47-3.72-1.64-4.27-1.08-.6-8.6-.9-11.21-.64-1.36.13-4.96-.21-8.45-.54-2.3-.22-4.47-.42-5.91-.49-.76-.05-1.36.18-1.8.63-1.29,1.33-1.04,4.47-.95,5.64.2,2.48,4.84,14.71,6.04,15.22,1.35-.28,17.87-1.09,18.57-1.12.28,0,.44.18.46.41,0,.25-.18.44-.41.46-5.93.29-17.45.89-18.54,1.1-.04,0-.08.01-.13.01h0Z"
  />
  <path
    d="m120.35,271.68c-.14,0-.29-.07-.37-.21-.82-1.36-.67-3.7-.66-3.79.01-.25.22-.42.47-.4.23.01.42.22.4.47,0,.02-.14,2.16.54,3.28.13.21.06.47-.14.6-.07.05-.15.06-.22.06h-.01Zm29.46-50.47c-.18,0-.35-.11-.41-.29-.02-.07-.57-1.68.46-3.03.95-1.25,2.89-1.79,5.75-1.59.23.01.42.22.41.46s-.23.42-.46.41c-2.53-.16-4.26.27-5.01,1.25-.74.97-.33,2.21-.33,2.22.08.22-.05.48-.27.55-.05.01-.09.02-.14.02h-.01Z"
  />
  <path
    d="m140.01,225.36c-.15,0-.29-.07-.37-.21-.12-.21-.06-.48.15-.6.85-.5,8.42-4.95,10.16-4.95.23,0,.43.2.43.43s-.2.43-.43.43c-1.13,0-6.57,2.96-9.72,4.83-.07.05-.14.06-.22.06Zm-7.09,24.49c-3.9,0-4.54-2.15-4.57-2.26-.06-.22.06-.46.28-.53,15.44-5.1,16.26-9.14,16.27-9.18.04-.23.25-.4.49-.36.23.04.4.23.37.47-.05.46-.89,4.55-16.38,9.74.43.58,1.73,1.63,5.3,1.11.23-.04.46.13.49.36s-.13.46-.36.49c-.7.11-1.33.14-1.88.14h-.01Zm-8.94,4.7c-.06,0-.13-.01-.19-.05-2.97-1.4-5.63-4.87-8.2-8.22-2.49-3.25-5.67-8.53-5.71-8.59-.13-.21-.06-.47.15-.6.2-.12.47-.06.6.15.04.05,3.19,5.29,5.65,8.49,2.51,3.28,5.1,6.66,7.88,7.98.22.11.3.36.21.57-.07.15-.23.25-.4.25h0Zm8.96-15.33s-.07,0-.11-.01c-3.2-.77-4.68-2.25-4.99-3.36-.16-.56-.04-1.1.33-1.46.51-.51,1.4-.62,2.5-.3,3.31.95,14.52.42,14.62.42.22.01.44.18.46.41,0,.23-.18.44-.41.46-.47.02-11.45.54-14.9-.46-.89-.26-1.44-.12-1.65.09-.18.18-.15.43-.11.62.26.9,1.71,2.11,4.36,2.75.23.06.37.29.32.53-.05.2-.22.33-.42.33h0Zm-5.38.82s-.11,0-.15-.04c-1.19-.47-2.91-3.63-4.14-6.2-1.24-2.59-5.32-5.68-5.36-5.71-.19-.14-.23-.42-.08-.61.14-.19.42-.23.61-.08.18.13,4.28,3.25,5.61,6.02,1.88,3.93,3.16,5.56,3.67,5.77.22.08.34.34.25.56-.07.18-.23.28-.41.28Zm.87,15.1c-.36,0-.82-.04-1.39-.11-.23-.04-.41-.25-.37-.48s.23-.41.48-.37c.57.07,1.17.11,1.57.08-.05-.02-.09-.06-.15-.09-1.85-1.05-5.36-7.01-8.49-12.5-.44-.77-.81-1.42-1.06-1.84-1.44-2.42-8.85-6.43-8.92-6.47-.21-.12-.29-.37-.18-.58s.37-.29.58-.18c.32.16,7.7,4.16,9.26,6.8.26.43.62,1.08,1.06,1.86,2.07,3.61,6.37,11.15,8.18,12.18.35.2,1.09.62.9,1.18-.06.18-.18.54-1.45.54h-.01Zm35.96-27.56c-.96,0-9.11-2-10.04-2.23-.23-.06-.37-.29-.32-.53s.28-.37.53-.32c3.59.89,9.18,2.2,9.84,2.21.23,0,.43.2.43.43s-.2.43-.43.43h-.01Z"
  />
  <path
    d="m147.52,221.31c-.14,0-.27-.07-.36-.19-1.35-1.97-8.59-7.46-8.67-7.51-.19-.14-.23-.42-.08-.61.14-.19.42-.23.61-.08.3.23,7.44,5.63,8.85,7.72.14.2.08.47-.12.61-.07.05-.16.07-.25.07h.01Zm-15.53-9.22h-.04c-.23-.01-.42-.22-.4-.47.34-4.68,7.25-23.65,7.54-24.45.08-.22.33-.34.56-.26.22.08.34.33.26.56-.07.2-7.16,19.65-7.49,24.21-.01.23-.21.4-.43.4h-.01Zm19.38-80.02s-.12,0-.16-.04l-1.29-.54c-.36-.15-.62-.42-.75-.8-.36-1.04.43-2.55.53-2.73.12-.21.37-.29.58-.18s.29.37.18.58c-.28.51-.66,1.52-.47,2.02.05.13.13.22.26.27l1.29.54c.22.09.33.35.23.57-.07.16-.23.27-.4.27h0Zm56.09,49.85c-.35,0-.91-.21-1.89-.61-.87-.34-1.84-.74-2.56-.87-.88-.16-1.39-.48-1.57-.96-.16-.46,0-.98.5-1.59.92-1.11,3.11-.48,3.36-.41.84.18,1.93.35,2.14.33.23-.07.46.05.54.28.07.23-.06.48-.29.55-.29.09-1.17,0-2.61-.32-.51-.15-2-.44-2.47.12-.32.39-.4.64-.35.74.05.12.3.29.91.4.81.15,1.82.56,2.73.91.57.23,1.36.55,1.56.55.13-.01.42-.18.67-.32.49-.28,1.05-.58,1.63-.55s1.24.25,1.59.36l.23-.23c.06-.11,1.1-1.58,2.26-1.13.56.21,1.38.33,2.12-.3.16-.14.37-.29.6-.44.91-.66,1.54-1.17,1.3-1.85-.44-1.19-4.69-4.9-5.38-5.05-.32-.06-.55.15-.64.25-.23.26-.32.62-.22.94.23.78,2.55,3.91,3.4,4.96.15.19.12.46-.07.61s-.46.12-.61-.07c-.04-.04-3.2-4.08-3.56-5.26-.18-.61-.02-1.29.41-1.77.39-.42.91-.62,1.44-.51,1.03.2,5.5,4.18,6.04,5.6.5,1.35-.76,2.26-1.6,2.85-.2.14-.39.27-.53.4-.83.71-1.89.87-2.98.46-.41-.14-1.05.54-1.29.88l-.49.49c-.12.12-.3.15-.47.09,0,0-.92-.36-1.61-.41-.3-.04-.75.22-1.13.44-.36.2-.69.39-1.02.42h-.08l.02.04Z"
  />
  <path
    d="m209.85,180.62s-.08,0-.13-.02c-.2-.06-.33-.26-.3-.47-.06-.13-.29-.43-.49-.69-.47-.6-1.11-1.43-1.47-2.43-.49-1.4-.64-2.47-.44-3.19.14-.53.84-.97,1.54-.99.41-.02,1.43.13,1.92,1.63.62,1.88,2.18,2.91,2.19,2.92.2.13.26.4.13.6-.13.2-.4.26-.6.13-.07-.05-1.82-1.19-2.54-3.38-.15-.47-.46-1.02-1.03-1.03h-.01c-.41,0-.73.26-.76.35-.08.3-.14,1.06.42,2.68.3.88.9,1.64,1.33,2.19.47.6.77.98.66,1.39-.06.19-.23.3-.42.3v.02Zm12.38-1.63c-.7,0-1.57-.4-3.11-1.31-.28,0-.58.07-.64.14-.15.19-.42.22-.61.08-.19-.14-.23-.42-.08-.61.36-.48,1.2-.48,1.47-.48.07,0,.14.02.21.06-.55-.69-1.08-1.65-.81-2.63.14-.5.48-.87.98-1.04,1.11-.4,2.81.25,3.6.81.68.48,1.42,1.57,1.44,2.62.01.64-.23,1.18-.73,1.56-.66.51-1.13.81-1.72.81h-.01Zm-1.17-1.23c1.24.61,1.52.4,2.28-.2.35-.27.48-.55.47-.91-.01-.74-.57-1.58-1.08-1.93-.66-.46-2.07-.96-2.81-.69-.23.08-.36.22-.43.46-.29,1.02.97,2.29,1.49,2.69.18.14.22.4.09.58h-.01Z"
  />
  <path
    d="m211.5,177.37c-.22,0-.41-.16-.43-.39-.02-.23.14-.46.37-.48l1.74-.21c.23-.04.46.14.48.37.02.23-.14.46-.37.48l-1.74.21h-.05Zm7.76-1.15h-1.13c-.23,0-.43-.2-.43-.43s.2-.43.43-.43h1.13c.23,0,.43.2.43.43s-.2.43-.43.43Zm-9.8,14.78s-.07,0-.11-.01c-.06-.01-1.35-.35-2.2-.87-.26-.15-.68-.25-1.12-.35-.8-.18-1.7-.37-2.32-1.03-.23-.25-.51-.5-.81-.76-.84-.75-1.71-1.52-1.75-2.46-.06-1.03,0-5.59,0-5.79,0-.23.2-.43.43-.43s.43.2.43.44c0,.05-.06,4.73,0,5.73.04.56.8,1.25,1.47,1.85.3.28.61.55.85.81.43.46,1.17.62,1.87.77.53.12,1.02.22,1.39.46.58.35,1.47.63,1.81.73l1.94-.88c.21-.58.97-1.23,1.45-1.59-.02-1.68.99-7.29,1.11-7.97.05-.23.27-.39.5-.35.23.05.4.27.35.5-.5,2.75-1.2,7.14-1.1,7.95.02.16-.05.32-.18.41-.68.48-1.31,1.12-1.35,1.33,0,.18-.11.32-.26.39l-2.28,1.03s-.12.04-.18.04v.05Z"
  />
  <path
    d="m208.47,193.5c-1.95,0-4.04-.34-5.03-1.04-.21-.14-.46-.3-.73-.49-1.66-1.1-4.46-2.94-5.19-5.57-.78-2.75-1.02-6.52.06-8.07.14-.2.41-.25.61-.11s.25.41.11.61c-.8,1.13-.76,4.42.06,7.33.66,2.32,3.17,3.98,4.84,5.08.28.19.54.35.75.5,1.27.9,5.37,1.19,7.44.54,1.1-.35,1.85-1.61,2.64-2.96.54-.92,1.11-1.87,1.85-2.69,1.01-1.09.75-1.39.62-1.53-.08-.09-.25-.28-.19-.54.04-.18.15-.3.35-.4,0-.06.04-.5.05-.82.05-.83.12-1.86.71-2.61.64-.78-.55-1.78-.61-1.81-.19-.15-.21-.42-.06-.61.15-.19.42-.21.61-.07.11.08,1.01.84,1.11,1.81.05.44-.08.87-.37,1.23-.43.53-.48,1.42-.53,2.12-.04.57-.06,1.04-.28,1.35.32.51.37,1.23-.78,2.49-.68.74-1.22,1.65-1.74,2.54-.88,1.49-1.71,2.89-3.12,3.35-.82.26-1.97.39-3.17.39h0Zm-74.51-17.95h-.05c-3.5-.4-8.7-2-8.91-2.07-.23-.07-.36-.32-.29-.54.07-.23.3-.36.54-.29.06.01,5.35,1.64,8.76,2.04.23.02.41.25.39.48-.02.22-.21.39-.43.39Zm8.63,11.65c-.19,0-.36-.12-.41-.3-.07-.23.06-.47.29-.54,1.33-.41,4.57-4.3,5.71-5.78.15-.19.42-.22.61-.08s.22.42.08.61c-.43.56-4.3,5.51-6.14,6.07-.05.01-.08.02-.13.02h-.01Zm11.11.98c-1.03,0-3.02-.09-6.94-.42-.23-.02-.42-.23-.4-.47.02-.23.21-.41.47-.4,3.39.28,7.17.5,7.61.4.2-.13.43-.05.56.15s.04.49-.16.62c-.07.05-.2.13-1.15.13h0Zm16.89-24.42c-.22,0-.41-.16-.43-.39-.34-3.32,3.01-14.26,3.15-14.73.07-.23.32-.36.54-.29.23.07.36.32.29.54-.04.12-3.43,11.23-3.11,14.39.02.23-.15.46-.39.48,0,0-.05,0-.05,0Zm8.01-4.35s-.09,0-.14-.02c-.22-.08-.35-.33-.27-.55.83-2.36-.77-8.47-.78-8.54-.06-.23.08-.47.3-.53.23-.06.47.08.53.3.07.26,1.68,6.43.77,9.04-.06.18-.23.29-.41.29Zm-28.2,8.38h-.04c-.23-.02-.41-.23-.4-.47,0,0,.08-1.64-1.86-6.19-1.98-4.63-6.12-8.42-6.15-8.46-.18-.16-.19-.43-.04-.62.16-.18.43-.19.61-.04.18.16,4.32,3.94,6.37,8.76,2.06,4.83,1.93,6.54,1.92,6.61-.02.22-.21.4-.43.4h.01Z"
  />
  <path
    d="m146.18,157.27s-.11,0-.16-.04c-.22-.09-.33-.34-.23-.56.68-1.64-.11-6.45-.61-7.45-.6-1.2-.09-3.28-.04-3.5.06-.23.3-.36.53-.32.23.06.37.29.32.53-.14.54-.42,2.12-.04,2.9.57,1.17,1.42,6.27.63,8.18-.07.16-.23.27-.4.27h0Zm-14.73-3.7c-.11,0-.21-.04-.29-.12-.18-.16-.19-.44-.02-.61.02-.04.69-.77.74-2.2.04-1.22.95-1.79,1.68-2.25.4-.25.77-.48.91-.76.6-1.18,2.23-1.33,2.3-1.35.11,0,.2.02.29.08.4.28.85.55,1.1.64.26-.26.81-.18,1.42-.08.37.06,1.26.19,1.44.05.06-.64.68-1.05,1.29-1.45.48-.32.98-.64.98-.98,0-1.33,2.55-2.21,3.05-2.37.23-.07.47.06.55.28.07.23-.06.47-.28.55-1.16.36-2.46,1.09-2.46,1.54,0,.81-.73,1.29-1.37,1.71-.41.27-.88.58-.91.84-.02.23-.14.43-.32.57-.47.36-1.3.23-2.09.12-.23-.04-.53-.08-.69-.08-.06.07-.14.13-.23.18-.13.05-.51.2-1.84-.7-.34.06-1.16.26-1.45.84-.25.49-.75.81-1.23,1.11-.78.48-1.25.83-1.27,1.54-.06,1.78-.94,2.73-.97,2.76-.08.09-.2.14-.32.14h-.01Zm22.24,73.69c-.8,0-1.67-1.05-2.69-2.26-.57-.68-1.16-1.38-1.63-1.75-.67-.53-.71-1.11-.64-1.51.22-1.2,1.89-2.23,2.96-2.56.27-.08.54-.14.81-.19,1.08-.21,2-.4,2.91-2.96.32-.89.67-1.7.99-2.48.96-2.23,1.78-4.15,1.39-6.83-.63-4.39-1.25-9.7-.69-10.63.01-.34-.53-1.57-.85-2.3-.53-1.2-.85-1.97-.87-2.43-.04-.98-.14-3.2-.14-3.2l.87-.05s.11,2.23.14,3.22c0,.34.44,1.32.8,2.12.83,1.87,1.2,2.78.71,3.23-.2.49.19,4.98.9,9.94.42,2.91-.49,5.04-1.46,7.3-.33.77-.67,1.57-.97,2.42-.28.8-.57,1.39-.88,1.86,2.76-1.72,7.35-3.87,7.97-4.16,5.06-4.57,6.45-7.76,6.97-8.96.18-.41.32-.71.61-.74.23-.19,1.39-1.47,4.76-9.67,3.58-8.71,6.64-26.08,6.67-26.26.04-.23.27-.4.5-.35.23.04.4.27.35.5-.04.18-3.11,17.63-6.73,26.44-3.43,8.34-4.7,9.92-5.28,10.18-.04.06-.06.14-.11.25-.54,1.25-1.99,4.59-7.23,9.3-.04.04-.07.06-.11.07-.07.04-6.85,3.18-9.12,4.95.15,1.18.66,5.56-.08,6.97-.21.42-.53.54-.74.56h-.11Zm.02-7.7c-.35.14-.7.21-1.05.28-.23.05-.48.09-.73.16-.98.3-2.23,1.19-2.36,1.89-.02.15-.02.39.33.67.55.43,1.17,1.17,1.77,1.87.58.7,1.72,1.99,2.04,1.95,0,0,.02-.02.07-.09.57-1.1.16-5.21-.05-6.7v-.04h-.01Zm3.46-23.56s-.01,0-.01.01h.01Z"
  />
  <path
    d="m159.8,216.63l-.73-.48s3.12-4.73,3.61-5.49c.34-.77-.42-8.38-1.42-12.93-.98-4.46-.36-11.64-.34-11.94.02-.23.22-.42.47-.4.23.02.41.23.4.47,0,.07-.63,7.35.33,11.67.82,3.73,1.97,12.55,1.3,13.58-.49.76-3.61,5.5-3.61,5.5h-.01Zm8.74-10.63c-.12,0-.27-.07-.35-.15-.29-.32-.33-1.31.09-6.84l.11-1.39c.08-1.26-.39-5.23-.77-8.42-.54-4.5-.61-5.28-.47-5.58.42-.9,6.21-2.13,8.32-2.28,2.71-.21,4.55-1.09,4.57-1.1.21-.11.48-.01.58.2s.01.48-.2.58c-.08.04-2.01.96-4.89,1.18-2.77.21-6.91,1.37-7.58,1.81-.01.57.27,2.96.53,5.09.41,3.39.87,7.24.77,8.59l-.11,1.4c-.13,1.79-.37,4.95-.3,5.99.44-.14,1.24-.43,1.93-.71.22-.09.48.01.56.25.09.22-.01.48-.23.56-.78.32-2.15.84-2.55.84h-.01Z"
  />
  <path
    d="m167.99,189.23c-.22,0-.41-.16-.43-.39-.11-.88,1.33-1.26,6.33-2.12.8-.14,1.54-.27,2.16-.39,2.46-.48,2.84-2.14,2.84-2.15.05-.23.27-.39.51-.34.23.05.39.28.34.51-.02.09-.51,2.23-3.53,2.83-.62.12-1.38.26-2.19.39-1.92.33-5.1.88-5.63,1.3-.04.18-.19.32-.37.34h-.05.01Zm-21.02,72.92c-.84,0-2.26-.09-4.67-.36-.39.05-11.62,1.12-17.37-1.84-6.19-3.18-9.31-6.21-11.92-11.56-2.82-5.79-3.53-11-3.8-12.96-.34-2.44-.07-5.75,1.68-7.74.75-.84,1.73-3.37,2.78-6.05,1.12-2.87,2.39-6.12,3.68-8.09,1.26-1.93,2.14-5.32,2.98-8.61.77-3.01,1.51-5.84,2.48-7.23,1.91-2.7,6.29-12.66,6.33-12.75.09-.22.35-.32.57-.22.22.09.32.35.22.57-.19.41-4.46,10.13-6.42,12.9-.89,1.25-1.6,4.01-2.35,6.94-.87,3.35-1.75,6.82-3.09,8.87-1.24,1.91-2.49,5.11-3.6,7.93-1.12,2.87-2.09,5.35-2.94,6.3-1.56,1.77-1.78,4.8-1.47,7.04.29,2.11.96,7.03,3.72,12.7,2.51,5.16,5.53,8.08,11.53,11.17,5.53,2.84,16.87,1.75,16.98,1.74,2.12.23,4.49.42,5.26.35,0-1.6.09-9.23.55-11.32.48-2.19,1.02-9.37,1.02-10.89,0-1.33.32-10.77.39-11.36.01-.15-.07-.88-.13-1.46-.18-1.56-.29-2.78-.19-3.39.04-.23.26-.39.5-.36.23.04.4.27.36.5-.09.54.08,2.06.2,3.16.11.94.15,1.43.13,1.65-.05.44-.37,9.81-.37,11.26,0,1.54-.55,8.84-1.04,11.08-.44,2.01-.54,9.95-.54,11.43,0,.13-.07.28-.16.37-.08.07-.23.21-1.3.21h-.02Z"
  />
  <path
    d="m102.03,244.58c-.08,0-.16-.02-.23-.07-.2-.13-.26-.4-.13-.6.02-.05,2.71-4.16,2.97-7.17.07-.74.33-1.2.77-1.37.97-.39,2.33.89,3.64,2.12.53.49,1.13,1.06,1.38,1.16.22.09.33.34.23.56s-.34.33-.56.25c-.39-.15-.88-.61-1.65-1.33-.74-.69-2.26-2.12-2.73-1.94-.06.02-.18.19-.21.63-.28,3.23-3.01,7.39-3.11,7.57-.08.13-.22.2-.36.2h-.01Zm40.32,17.21h-.08c-.23-.05-.39-.27-.34-.51.01-.07,1.39-7.23,1.03-11.67-.41-4.98,1.52-10.64,2.36-12.85,1.06-2.76,3.37-14.81,3.39-14.93.05-.23.27-.4.5-.34.23.05.39.27.34.5-.09.5-2.34,12.25-3.43,15.08-.83,2.15-2.71,7.67-2.3,12.47.37,4.57-.98,11.62-1.04,11.92-.04.21-.22.35-.42.35h-.01Z"
  />
  <path
    d="m139.24,231.78c-3.09,0-7.5-.96-9.35-1.54-1.12-.35-2.11-1.23-3.15-2.15-1.01-.89-2.15-1.89-3.59-2.61-2.99-1.47-8.13-5.68-8.35-5.86-.19-.15-.21-.42-.06-.61.15-.19.42-.21.61-.06.05.05,5.26,4.33,8.18,5.75,1.54.76,2.74,1.81,3.79,2.74,1.02.9,1.89,1.67,2.84,1.97,2.18.69,7.44,1.75,10.2,1.45,2.87-.32,7.02-1.51,7.05-1.52.22-.07.47.07.54.29s-.07.47-.29.54c-.18.05-4.27,1.22-7.21,1.54-.37.04-.77.06-1.2.06h-.01Z"
  />
  <path
    d="m139.1,228.85c-1.27,0-3.09-.7-4.99-1.43-1.05-.41-2.06-.8-2.92-1.04-2.9-.83-14.22-10.15-14.7-10.55-.19-.15-.21-.42-.06-.61.15-.19.42-.21.61-.06,4.02,3.32,12.21,9.76,14.39,10.39.9.26,1.97.67,2.99,1.06,2,.76,4.48,1.72,5.28,1.26,1.26-.73,7.57-3.6,8.9-3.44.23.02.41.25.39.48-.02.23-.23.42-.48.39h-.07c-1.11,0-6.68,2.4-8.3,3.35-.28.16-.62.22-1.02.22v-.02Zm22.65,4.78c-.85,0-3.43-.47-11.91-2.96-.23-.07-.36-.3-.29-.54s.32-.36.54-.29c4.94,1.45,10.53,2.94,11.57,2.96.07-.18.22-.62.37-1.04.9-2.57,3.02-8.61,7.53-11.33.06-.04,1.49-.98,3.5-.69-.23-.18-.48-.36-.71-.54-1.13-.84-2.54-1.89-3.7-2.84-2.8-2.29-4.62-1.87-4.64-1.86-.23.06-.47-.08-.53-.3s.07-.47.3-.53c.09-.02,2.25-.58,5.43,2.04,1.15.95,2.54,1.99,3.66,2.82,2.57,1.92,2.74,2.04,2.48,2.48-.23.4-.7.19-1.11,0-2.32-1.05-4.12.13-4.2.18-4.27,2.57-6.32,8.4-7.18,10.89-.35,1.01-.47,1.31-.64,1.47-.06.05-.13.12-.46.12v-.02Zm-16.26-41.86h-.08c-.21-.02-.39-.13-.49-.3-.28-.49.08-1.29.98-3.19.96-2.02,2.27-4.8,2.21-6.81-.04-1.45-.23-2.59-.4-3.5-.2-1.16-.33-1.85.04-2.32.18-.23.46-.36.81-.39l.25-.02c1.22-.09,4.07-.33,4.76-.64.34-.15.54,0,.62.07.3.29.14.67-.28,1.65-.5,1.18-1.36,3.15-.94,4.29.22.62.43,1.37.67,2.15.5,1.77,1.13,3.97,1.92,4.62.07.06.12.14.14.23,1.18-.71,2.04-.66,2.39-.57,3.58-1.32,6.14-4.05,6.16-4.08s.06-.06.09-.07l1.57-.96v-1.49c0-.25.2-.43.43-.43s.43.2.43.43v1.72c0,.15-.08.29-.21.37l-1.73,1.05c-.37.39-2.95,3.01-6.6,4.3-.11.04-.21.04-.32,0-.02,0-.76-.26-2.04.61-.07.05-.15.07-.25.07h-1.53c-1.4.62-7.3,3.2-8.64,3.2h.04Zm7.79-16.2c-1.04.23-2.78.39-4.4.51l-.25.02c-.11,0-.18.04-.2.06-.13.16,0,.91.13,1.64.15.89.37,2.12.41,3.63.06,2.23-1.3,5.11-2.3,7.21-.39.81-.84,1.79-.96,2.25,1.09-.19,4.83-1.68,8.14-3.16.06-.02.12-.04.18-.04h.64c-.81-.98-1.35-2.88-1.87-4.71-.22-.77-.43-1.51-.64-2.11-.53-1.46.36-3.54.96-4.92.06-.13.11-.26.16-.39h0Zm-3.75-1.19c-.18,0-.34-.11-.41-.27-.88-2.19.32-4.99,1.59-6.73,1.11-1.5,2.66-1.16,3.67-.92.35.08.69.15.88.13.94-.15,7.52-.47,7.8-.48.23,0,.44.18.46.41,0,.23-.18.44-.41.46-2.35.12-6.99.36-7.71.47-.35.06-.75-.04-1.2-.13-.99-.22-2.01-.44-2.78.6-1.24,1.68-2.19,4.15-1.49,5.88.09.22-.02.48-.25.56-.06.02-.11.04-.16.04h.01Z"
  />
  <path
    d="m148.6,176.11c-.07,0-.14-.01-.21-.06-.21-.12-.29-.37-.18-.58.23-.42,2.14-3.82,4.19-4.39l-.51-1.39c-.08-.22.04-.48.26-.56s.48.04.56.26l.7,1.91c.05.14.04.29-.06.41-.08.12-.23.16-.36.19h-.02c-1.46,0-3.42,2.97-3.98,4.01-.08.14-.22.22-.39.22h0Zm.66-3.31s-.08,0-.12-.01c-.11-.02-.99-.32-1.5-1.68-.51-1.42,2.32-3.3,3.19-3.84.21-.13.47-.06.6.14.13.2.06.47-.14.6-1.49.91-3.02,2.29-2.83,2.8.34.95.9,1.13.92,1.15.22.07.35.32.28.54-.06.19-.22.3-.41.3h0Zm-33.25,17.78c-.15,0-.3-.08-.39-.23-.11-.21-.02-.48.19-.58,3.85-1.98,10.28-5.06,11.67-5.59,1.39-.55,14.57,3.44,18.57,4.66.23.07.36.32.29.54-.07.23-.32.36-.54.29-8.02-2.46-17.1-4.94-18.02-4.68-1.37.53-7.76,3.59-11.58,5.56-.07.04-.13.05-.2.05Z"
  />
  <path
    d="m100.72,244.88c-.22,0-.39-.05-.48-.15s-.27-.37.02-.81c.77-1.13,1.72-3.36,1.72-4.33,0-1.18,7.4-22.33,8-22.86.35-.49,2.82-8.38,2.98-11.44.16-3.18.76-5.95,1.1-6.96.13-.37-.11-1.84-.3-3.12-.25-1.59-.54-3.38-.44-4.6.14-2.05,2.22-2.85,4.41-3.71.61-.23,1.24-.48,1.85-.76,2.63-1.2,6.37-4.41,6.42-4.44.19-.15.46-.14.61.05s.14.46-.05.61c-.15.14-3.88,3.31-6.62,4.57-.62.28-1.26.54-1.89.78-2.01.78-3.75,1.46-3.86,2.96-.08,1.11.2,2.87.44,4.4.29,1.88.46,2.98.27,3.53-.34,1.03-.9,3.81-1.05,6.74-.15,2.85-2.6,11.45-3.28,12.05-.6.97-7.64,21.16-7.71,22.21,0,1.12-.84,3.1-1.58,4.34,1.19-.36,3.79-1.54,5.06-2.23,1.51-.81,2.47-.67,2.57-.64.23.05.39.27.35.5-.05.23-.26.4-.5.35,0,0-.76-.12-2,.55-.21.11-4.47,2.39-6.02,2.39l-.02.02Z"
  />
  <path
    d="m117.72,187.77c-.08,0-.16-.02-.23-.07-.2-.13-.26-.4-.13-.6.35-.54,1.16-4.32,1.74-7.06.58-2.76.96-4.48,1.18-4.96.28-.62.69-4.97.97-7.85.21-2.21.34-3.47.42-3.81.19-.75.06-2.99-.32-4.11-.3-.9.22-2.14.74-3.35.26-.6.49-1.16.61-1.64.25-.97,1.57-2.62,2.84-4.21.76-.95,1.47-1.85,1.7-2.29.33-.67,1.09-1.29,1.81-1.89.54-.44,1.26-1.05,1.3-1.33.11-.83,1.35-1.19,3.06-1.71.84-.25,1.71-.5,2.41-.82.88-.39,2.29-.4,3.8-.4,1.95,0,4.15,0,4.83-.92,1.54-2.11,3.28-1.36,3.35-1.32.22.11.32.35.21.57-.09.22-.35.32-.57.22-.06-.02-1.17-.47-2.28,1.04-.94,1.27-3.28,1.27-5.53,1.29-1.35,0-2.74,0-3.45.33-.75.34-1.65.6-2.51.85-.88.26-2.33.69-2.46.98-.07.61-.78,1.19-1.6,1.88-.63.53-1.35,1.12-1.59,1.61-.26.53-.97,1.42-1.8,2.44-1.1,1.38-2.48,3.1-2.68,3.88-.14.54-.39,1.13-.66,1.75-.42,1.01-.91,2.14-.71,2.73.41,1.22.57,3.61.34,4.6-.07.29-.23,1.94-.4,3.68-.4,4.18-.73,7.43-1.04,8.13-.19.42-.67,2.64-1.12,4.78-.87,4.04-1.46,6.73-1.86,7.36-.08.13-.22.2-.36.2Z"
  />
  <path
    d="m146.91,164.85c-.2,0-.37-.13-.42-.33-.02-.08-2.19-8.3-5.22-12.97-2.98-4.61-9.91-7.11-9.98-7.14-.22-.08-.34-.33-.27-.55.08-.22.33-.34.55-.27.29.11,7.28,2.63,10.41,7.49,3.1,4.78,5.24,12.89,5.32,13.23.06.23-.08.47-.32.53-.04,0-.07.01-.11.01h.02Z"
  />
  <path
    d="m133.71,174.37c-.21,0-.39-.15-.43-.36-.05-.23.12-.47.35-.5.02,0,2.12-.37,3.18-.64.73-.19,5.66-3.68,8.6-5.85.08-.06.19-.09.29-.08l4.02.35c-3.06-2.87-12.66-8.77-12.76-8.84-.2-.13-.27-.4-.14-.6.13-.21.4-.27.6-.14.49.3,11.94,7.35,13.73,9.86.09.14.11.32.02.47s-.25.23-.41.22l-4.97-.43c-1.54,1.13-7.68,5.63-8.77,5.9s-3.15.64-3.23.66c0,0-.08,0-.08,0Zm-11.79-16.39c-.13,0-.25-.05-.33-.15-.15-.19-.13-.46.05-.61s4.37-3.57,15.69-1.6c.23.04.4.27.35.5-.04.23-.26.4-.5.35-10.87-1.88-14.94,1.38-14.97,1.4-.08.07-.18.11-.28.11Z"
  />
  <path
    d="m146.91,164.85c-.12,0-.25-.05-.33-.15l-5.05-5.81c-8.5-7.14-17.15-6-17.23-5.98-.26.04-.46-.13-.49-.36s.13-.46.36-.49c.37-.06,9.11-1.2,17.97,6.22l5.1,5.86c.15.18.14.46-.05.61-.08.07-.19.11-.28.11Z"
  />
  <path
    d="m142.6,159.88c-.22,0-.41-.18-.43-.4-.6-6.62-8.52-9.61-8.6-9.65-.22-.08-.34-.33-.26-.56.08-.22.34-.34.56-.26.35.13,8.52,3.2,9.16,10.39.02.23-.15.44-.4.47h-.04Zm15.24,7.36c-.22,0-.41-.16-.43-.39-.2-1.89.88-3.03,1.66-3.86.62-.66.8-.9.67-1.12-.75-1.32-.68-4.66-.67-5.03,0-.23.22-.43.44-.42.23,0,.43.21.42.44-.02.96.02,3.64.56,4.59.47.83-.18,1.5-.8,2.15-.75.78-1.59,1.67-1.43,3.17.02.23-.15.46-.39.48h-.05,0Zm4.89-.81c-.21,0-.4-.16-.43-.37-.01-.11-.33-2.6,0-3.92.33-1.24,1.26-4.42,1.27-4.46.07-.23.3-.36.54-.29s.36.3.29.54c0,.04-.95,3.19-1.26,4.42-.3,1.16,0,3.56,0,3.58.04.23-.14.46-.37.49h-.06.02Zm-16.81,12.73c-.07,0-.14-.01-.21-.06-1.89-1.03-6.08-2.08-9.14-2.85-1.52-.39-2.73-.69-3.29-.9-1.02-.37-1.64-1.02-1.73-1.78-.07-.58.16-1.49,1.64-2.44,2.13-1.38,10.91-8.61,11-8.68.19-.15.46-.13.61.06s.13.46-.06.61c-.36.29-8.91,7.32-11.08,8.74-.87.56-1.31,1.13-1.25,1.63.05.42.47.81,1.17,1.06.53.2,1.77.5,3.2.87,3.1.78,7.33,1.85,9.33,2.94.21.12.29.37.18.58-.08.14-.22.22-.39.22h.01Zm-18.29,5.84c-.15,0-.3-.08-.39-.22-.49-.91-.41-2.07-.33-3.18.07-.97.14-1.88-.22-2.32-.58-.73-.97-2.41-1.32-3.91-.18-.76-.41-1.8-.55-1.99-.33-.29-.61-1.16-1.02-2.56-.16-.55-.39-1.31-.49-1.45-.33-.44-1.13-4.08-1.58-6.21-.05-.23.11-.47.34-.51.23-.05.47.11.51.34.55,2.62,1.24,5.53,1.44,5.88.16.22.33.74.62,1.71.2.69.58,1.98.78,2.18.28.26.44.87.81,2.42.29,1.26.69,2.98,1.15,3.56.57.7.49,1.79.41,2.92-.07.99-.14,2.01.23,2.7.12.21.04.48-.18.58-.07.04-.14.05-.21.05h-.01Z"
  />
  <path
    d="m145.92,188.94s-.11,0-.16-.04c-.66-.27-16.07-6.5-19.57-10.64-.15-.19-.13-.46.05-.61.19-.15.46-.13.61.05,3.36,3.98,19.07,10.34,19.23,10.4.22.09.33.34.23.56-.07.16-.23.27-.4.27h.01Zm30.03-58.96h-.09c-.92-.09-1.26-1.19-1.32-1.82-.02-.23.15-.44.4-.47.26,0,.44.15.47.4.04.3.2.99.54,1.03.23-.19.34-.84.34-1.25,0-.25.2-.43.43-.43s.43.2.43.43-.04,1.38-.58,1.87c-.18.16-.39.25-.62.25h.01Zm-1.44-3.22c-.18,0-.34-.11-.41-.28-.08-.22.02-.48.25-.56.15-.06,3.66-1.37,5.63.06.2.14.23.41.09.61-.14.2-.41.23-.61.09-1.31-.96-3.92-.28-4.81.06-.05.02-.11.02-.15.02h.01Zm-6.04-.87s-.09,0-.13-.02c-1.67-.54-6.4-1.77-8.07-.96-.21.11-.48.01-.58-.2s-.01-.48.2-.58c2.33-1.12,8.46.83,8.71.91.23.07.35.32.28.55-.06.19-.23.3-.41.3Zm2.36,11.46c-.16,0-.32-.09-.4-.25-.13-.27-1.06-.11-1.8.21-.21.09-.48,0-.57-.22-.09-.22,0-.48.22-.57.39-.18,2.37-.96,2.92.21.11.21,0,.48-.21.58-.06.02-.13.05-.19.05h.02Zm2.41.36c-.14,0-.28-.07-.36-.2-.11-.15-.27-.32-.34-.34-.15.19-.42.21-.6.06-.19-.15-.2-.42-.04-.61.19-.22.44-.34.7-.32.54.04.94.62,1.02.74.13.2.07.47-.13.6-.07.05-.15.07-.23.07h-.02Zm-.49,4.42c-.23,0-.48-.05-.69-.13-.06-.02-.22,0-.37.04-.28.06-.68.15-1.06-.06-.33-.12-2.82-.16-5.04-.15-.21,0-.43-.19-.43-.43s.19-.43.43-.43c2.25-.02,5.02,0,5.46.26.09.05.23.02.47-.02.26-.06.56-.12.88,0,.26.11.5.07.55.05.14-.2.37-.22.57-.09.2.13.22.43.09.63-.16.25-.49.36-.84.36h-.01Z"
  />
  <path
    d="m168.63,149.46h-.18c-.22,0-.43-.01-.67-.01-2.14,0-4.82,0-13.39-8.18-.12-.15-1.63-2.3-2.15-5.53-.67-.01-1.94-.21-2.94-1.39-1.19-1.44-2.88-8.14-1.75-9.19l.16-.15c.77-.75,1.94-1.89,4.02.16.18.16.18.44,0,.62-.16.18-.44.18-.61,0-1.49-1.45-2.05-.91-2.82-.15l-.16.16c-.53.67.67,6.61,1.82,8.01,1.04,1.25,2.51,1.08,2.59,1.06.23-.02.46.14.49.37.43,3.24,1.99,5.45,2,5.47,8.27,7.87,10.75,7.87,12.74,7.87.25,0,.48,0,.71.01,1.87.11,4.64-2.12,7.57-6.11,2.82-3.84,3.61-10.83,3.54-13.43-.05-1.63.18-3.09.4-4.5.18-1.13.34-2.21.34-3.25,0-1.61-1.08-4.46-1.67-5.93-.46.96-1.3,2.37-2.61,3.2-.16.09-.36.09-.51-.04-.14-.12-.2-.33-.12-.5.63-1.53,1.22-3.33,1.3-4.15-2.08.51-10.31,2.74-11.6,6.26-.07.2-.27.3-.48.28-.2-.04-.36-.21-.36-.41,0-.07-.04-1.1.23-2.28-1.19,1.35-2.28,2.82-2.29,3.53,0,.23-.2.42-.43.42-.23-.02-.43-.18-.44-.41,0-.18-.18-3.13.23-5.64-1.16,1.71-2.57,4.12-2.62,5.75,0,.21-.15.37-.35.41-.2.04-.4-.07-.48-.26l-.27-.67c-.25.4-.5.89-.55,1.3v.14c0,.19-.13.46-.3.51-.16.06-.37,0-.49-.14-.25-.3-.55-3.67-.32-5.91-.77.89-1.49,1.92-1.46,2.54,0,.18-.09.33-.25.4s-.34.06-.47-.05c-.63-.5-1.02-.89-1.25-1.17-.57.76-1.37,2.01-1.35,2.94,0,.16-.08.32-.22.39-.14.08-.32.07-.44-.01-.02-.02-.41-.27-.77-.69-.2.97-.56,2.13-1.12,2.49-.13.08-.29.09-.43.01-.14-.07-.22-.21-.23-.37,0-.04-.13-3.52-.32-4.59-.22-1.18.43-5.64,1.06-6.46.07-.08.15-.23.27-.42.8-1.31,2.89-4.77,7.08-4.89.23,0,.44.19.44.42,0,.25-.19.44-.42.44-3.71.11-5.57,3.16-6.35,4.47-.14.22-.25.4-.32.5-.43.56-1.08,4.77-.9,5.78.12.62.2,1.94.26,3.03.15-.56.28-1.22.35-1.82.02-.21.21-.37.42-.39.2.01.4.15.43.36.06.34.26.64.48.89.41-1.52,1.75-3.06,1.82-3.13.12-.14.32-.19.48-.12.16.06.28.22.28.41.05.09.35.42.76.78.56-1.52,2.42-3.28,2.67-3.51.16-.15.4-.15.57-.01.16.14.21.37.09.56-.46.75-.41,3.2-.29,4.94.28-.46.54-.77.56-.8.09-.12.26-.18.4-.15.15.02.28.13.34.27v.05c.95-2.96,3.88-6.62,4.02-6.8s.4-.21.58-.08c.19.13.25.37.13.57-.74,1.29-.9,3.92-.91,5.73,1.17-1.77,3.19-3.75,3.51-4.06.16-.16.43-.16.6,0s.19.42.04.6c-.58.68-.88,1.64-1.03,2.46,3.12-3.45,11.32-5.28,11.72-5.37.21-.05.41.06.49.26.26.61-.16,2.14-.61,3.44.9-1.16,1.35-2.48,1.35-2.5.06-.18.21-.29.39-.3.18-.04.35.09.42.26.09.2,2.15,4.81,2.15,7.23,0,1.1-.16,2.21-.35,3.39-.21,1.38-.43,2.81-.39,4.35.08,2.81-.73,9.92-3.71,13.97-2.19,2.97-5.35,6.46-8.14,6.46v-.02Z"
  />
  <path
    d="m182.45,125.08h-.02c-.2-.01-.37-.16-.4-.36,0-.06-.85-5.51-2.63-7.53-.16-.18-.14-.46.05-.61.18-.16.46-.14.61.05,1.19,1.37,1.98,3.99,2.41,5.86.58-4.32-.7-8.53-2.26-11.25-1.61-2.82-5.24-3.12-5.28-3.12-.23-.02-.42-.22-.4-.47.01-.23.23-.43.47-.4.16.01,4.12.34,5.97,3.56.92,1.61,3.78,7.37,1.92,13.99-.06.19-.22.32-.42.32v-.02Z"
  />
  <path
    d="m165.99,115.98c-.06,0-.12-.01-.18-.04-.22-.11-.32-.35-.21-.57,1.09-2.39,7.59-7.33,7.87-7.54,1.05-.49,2.15-1.22,2.25-1.63-.87-1.12-2.54-2.9-3.19-3.31-.04.02-.07.05-.11.06-.15.07-.34.02-.47-.09-.11-.11-2.68-2.59-5.73-.63-.07.05-.16.07-.26.07-.04,0-3.39-.12-4.59,1.91-.07.13-.2.2-.35.21-.14,0-3.43.27-3.81,3.61v.19c-.04.23-.22.41-.49.4-.23-.02-.42-.23-.4-.47l.02-.21c.41-3.52,3.52-4.23,4.4-4.36,1.35-2.01,4.27-2.15,5.06-2.15h.06c2.92-1.78,5.5-.14,6.37.55.99-.2,3.99,3.45,4.12,3.61.2.25.26.53.19.83-.25,1.03-2.25,1.99-2.64,2.16.01,0-6.52,4.97-7.52,7.16-.07.16-.23.26-.4.26h0Z"
  />
  <path
    d="m153.58,108.43s-.08,0-.12-.01c-.23-.07-.36-.3-.29-.54,0-.04.89-2.96,4.33-2.18.23.06.37.28.33.51-.05.23-.28.39-.51.33-2.63-.6-3.28,1.49-3.3,1.57-.06.19-.23.32-.42.32h-.01Zm-3.12,25.25c-.09,0-.19-.02-.26-.09-.19-.14-.23-.42-.08-.61.22-.29.66-.27,1.53-.2.15,0,.28.02.39.02.07-.18.11-.69-.27-1.24-.62-.9-.27-1.79-.08-2.14-.05-.39-.28-1.7-1.63-2.78-.36-.29-.67-.4-.96-.32-.55.15-.95.94-1.05,1.2-.08.22-.33.34-.56.26-.22-.08-.34-.34-.26-.56.06-.15.57-1.45,1.64-1.74.56-.15,1.15,0,1.73.48,1.88,1.53,1.95,3.47,1.95,3.56,0,.09-.02.18-.07.26-.01.02-.43.67,0,1.3.56.82.55,1.7.3,2.15-.15.28-.39.43-.67.43-.13,0-.33-.01-.55-.04-.26-.02-.73-.06-.89-.04-.07.05-.15.07-.23.07v.02Zm11.01,21.81c-.12,0-.22-.05-.3-.13-2.11-2.09-7.09-7.26-9.24-11.4-2.51-4.83-.57-8.74-.49-8.9.11-.21.37-.29.58-.19s.3.37.19.58c-.02.04-1.82,3.68.48,8.11,2.11,4.02,7.16,9.26,8.89,10.98.89-.4,3.9-1.98,5.31-5.29.09-.22.35-.33.57-.23s.33.35.23.57c-1.8,4.25-5.88,5.8-6.05,5.86-.05.02-.11.02-.15.02h-.02Zm22.36-.44s-.09,0-.13-.02c-.21-.07-.33-.28-.29-.49.05-.27.09-.55.15-.84-.08-.49-.43-.82-.46-.84-1.32-1.68-7.31-4.04-9.51-4.81-.69-.4-.95-1.18-.97-1.26-.07-.23.06-.47.29-.54.22-.07.47.06.54.28.05.15.22.57.5.74.26.08,8.09,2.84,9.78,4.99.02.02.05.04.07.07.63-3.56,1.43-8.12,1.47-8.61.07-.71.85-.96,1.6-1.18.51-.16,1.1-.34,1.5-.66l.47-.37c2.37-1.94,3.91-3.05,4.69-3.05.96,0,4.66.75,5.54,1.24,1.52.84,3.3,2.02,3.19,2.96s-.96,1.52-2.29,1.57c-.22-.01-.44-.18-.46-.42,0-.25.18-.44.42-.46.41-.01,1.38-.13,1.46-.8-.04-.29-1.15-1.22-2.75-2.11-.7-.39-4.23-1.12-5.13-1.12-.63,0-3.28,2.15-4.14,2.87l-.48.39c-.53.42-1.19.62-1.78.81-.34.11-.98.3-.99.44-.07.64-1.25,7.35-1.71,9.91.02.34-.02.7-.21,1.09-.07.15-.23.25-.39.25h0Z"
  />
  <path
    d="m203.44,148.69c-.15,0-.3-.02-.43-.06l-.48-.15c-2.25-.7-4.61-1.5-5.53-2.16-.63.28-2.07.89-2.5.96-.23.04-.46-.12-.5-.36-.04-.23.12-.46.36-.5.3-.05,1.67-.62,2.54-1.01.16-.07.36-.04.49.09.4.41,2.21,1.13,5.4,2.14l.49.15c.27.08.84-.11,1.13-.28-.47-.26-1.23-.84-2.42-1.75-1.8-1.39-4.53-3.5-5.47-3.63-.85-.14-2.96.87-4.67,1.65-1.49.69-2.77,1.27-3.57,1.39-1.42.2-1.77.97-1.78,1.01-.09.21-.35.32-.57.23-.22-.09-.33-.34-.23-.56.02-.05.53-1.25,2.46-1.53.67-.09,2.01-.71,3.32-1.32,2.09-.96,4.07-1.85,5.15-1.72,1.09.15,3.22,1.73,5.88,3.79,1.02.78,2.08,1.6,2.36,1.72.54.21.61.62.5.9-.19.53-1.19.99-1.95.99h.02Z"
  />
  <path
    d="m188.44,149.46c-.07,0-.14-.01-.2-.05-.21-.11-.29-.37-.19-.58.05-.08.98-1.86,3.08-2.37.08-.09.18-.15.35-.15s.36.01.55.02c2.42-.12,5.56-.05,7.32.15.35.04.78.09.75.53-.05.53-.05.54-8.06.19-2.18.12-3.16,1.95-3.2,2.02-.08.15-.23.23-.39.23h-.01Zm-31.57,35.54c-.82,0-1.17-.16-1.3-.55-.11,0-.28-.04-.37-.14-.08-.09-.12-.21-.11-.34s.02-1.01-1.66-3.06c-.13-.15-.13-.37-.01-.53.05-.06,4.47-6.23,5.51-8.19.26-.48.54-1.04.83-1.61,1.22-2.42,2-3.92,2.68-4.23.13-.06.48-.2.98-.4,2.51-.98,9.21-3.6,12.7-6.36.04-.02.07-.05.11-.06,1.85-.76,4.77-2.02,5.25-2.36.44-.32,1.46-1.86,2-2.76.12-.21.39-.28.6-.15.21.12.27.39.15.6-.15.26-1.5,2.5-2.25,3.03-.69.49-4.68,2.15-5.37,2.43-3.61,2.82-10.34,5.45-12.88,6.45-.48.19-.81.32-.94.37-.44.21-1.59,2.49-2.27,3.85-.29.58-.57,1.15-.83,1.64-.95,1.79-4.49,6.78-5.38,8.01,1.17,1.49,1.51,2.48,1.6,3.02.2.06.37.19.46.47.13.04.5.08,1.56-.02,2.14-.2,4.36-1.61,6.32-2.87.68-.43,1.32-.84,1.91-1.16,1.11-.62,5.86-4.15,10.46-7.57,4.67-3.47,9.49-7.05,10.89-7.88,2.11-1.24,3.05-2.04,4.14-2.96.33-.28.67-.56,1.06-.88,1.11-.89,1.63-2.7,1.93-3.78.16-.55.23-.81.36-.96.08-.11.19-.29.32-.51.54-.92.9-1.49,1.37-1.53.07,0,.33,0,.7.04,1.46.12,5.91.47,6.95-.82.43-.53.42-.71.42-.71-.16-.12-1.16,0-1.53.02-1.27.15-4.94-.94-5.36-1.06-2.91-.36-5.02-1.58-5.11-1.63-.21-.12-.27-.39-.15-.6s.39-.28.6-.15c.02,0,2.05,1.18,4.84,1.53,1.15.34,4.12,1.17,4.99,1.06,1.04-.11,2.13-.23,2.49.43.3.55-.15,1.2-.51,1.66-1.18,1.45-4.74,1.37-7.7,1.13-.28-.02-.47-.05-.56-.04-.11.08-.5.77-.69,1.1-.15.26-.29.49-.39.61-.04.06-.13.39-.21.67-.34,1.18-.9,3.15-2.22,4.21-.39.3-.71.6-1.04.87-1.12.95-2.11,1.77-4.26,3.04-1.37.81-6.16,4.37-10.81,7.83-4.83,3.59-9.38,6.98-10.55,7.63-.57.32-1.19.71-1.86,1.13-2.04,1.3-4.35,2.77-6.7,2.99-.46.05-.82.07-1.13.07h-.02Z"
  />
  <path
    d="m205.24,151.61c-1.27,0-3.16-.23-4.6-.42-.84-.11-1.73-.21-1.92-.2-.68.05-3.6-.26-3.94-.29-.23-.02-.41-.25-.39-.48s.21-.4.48-.39c1.27.14,3.32.33,3.77.29.28-.01.91.06,2.11.21,1.65.21,3.9.5,5.02.39.49-.05.85-.27,1.06-.69.18-.35.2-.73.16-.9-.83-.06-3.57-.46-3.91-.5-.23-.04-.4-.26-.37-.49.04-.23.25-.41.49-.37,1.36.19,3.63.5,3.97.5.3,0,.68.25.71.96.05,1.05-.64,2.23-2.02,2.35-.18.01-.37.02-.6.02h-.02Zm-37.42,9.77c-.08,0-.15-.02-.22-.06l-1.84-1.09c-1.67-.98-3.25-3.87-3.7-4.74h-.44c-6.14,5.63-6.49,5.72-6.61,5.75-.58.18-.85-.44-1.13-1.08-.16-.37-.37-.84-.67-1.27-.41-.61-1.7-3.38-3.08-6.32-1.13-2.41-2.29-4.91-2.88-6-1.25-2.35-1.36-4-.4-6.29.88-2.09,4.28-4.63,4.43-4.74.2-.14.47-.11.61.09s.11.47-.09.61c-.04.02-3.36,2.5-4.14,4.37-.74,1.77-.9,3.18.36,5.56.6,1.11,1.77,3.63,2.9,6.05,1.3,2.77,2.64,5.65,3.01,6.2.33.49.55.99.74,1.4.07.18.16.37.23.5.77-.61,4.15-3.66,6.26-5.58.08-.07.19-.12.29-.12h.88c.16,0,.32.09.39.25.02.04,1.78,3.6,3.47,4.61l1.16.69c-.02-1.38.01-4.19.7-5.73.82-1.85.42-5.32.41-5.36-.04-.23.14-.46.37-.48.25-.04.46.14.48.37.02.15.44,3.74-.48,5.81-.83,1.86-.61,6.09-.61,6.13,0,.16-.07.32-.21.4-.07.05-.15.06-.22.06h.02Zm-.29-32.23c-.19,0-.35-.12-.41-.3-.12-.36-.48-1.18-.87-1.37-.6-.28-4.05-.47-5.12.71-.16.18-.43.19-.61.02-.18-.16-.19-.43-.02-.62,1.39-1.53,5.26-1.32,6.13-.91.84.4,1.29,1.74,1.33,1.89.07.23-.06.47-.28.54-.05.01-.08.02-.13.02h-.02Zm6.19.82c-.06,0-.12-.01-.18-.04-.22-.11-.32-.35-.22-.57.04-.08.85-1.87,2.56-2.01,1.68-.13,2.75,1.35,2.8,1.42.14.2.09.47-.11.61s-.47.09-.61-.11c0,0-.82-1.16-2.01-1.04-1.18.09-1.84,1.49-1.84,1.5-.07.16-.23.26-.4.26h0Z"
  />
  <path
    d="m164.82,129.08h-.04c-.26,0-.49-.12-.67-.32-.49-.56-.4-1.74-.37-1.97.02-.23.23-.42.48-.39.23.02.41.23.39.48-.05.42,0,1.11.16,1.31h.02c.29,0,.64-.71.77-1.32.05-.23.28-.39.51-.33.23.05.39.28.33.51-.07.34-.5,2.04-1.59,2.04v-.02Zm-12.6-3.81c-.14,0-.28-.07-.36-.2-.12-.16-.09-.39.05-.54l1.97-2.09c-1.8.7-3.63,1.45-3.91,1.63-.18.15-.44.14-.6-.02-.16-.16-.16-.43,0-.6l.04-.04c.95-.81,5.71-4.85,6.85-5.06.25-.05.47.11.5.34.05.23-.11.47-.34.5-.43.08-2.16,1.36-4.11,2.91.83-.33,1.84-.73,3.02-1.17.19-.07.4,0,.51.16s.09.39-.05.54l-2,2.13.77-.29c.22-.08.48.04.56.26s-.04.48-.26.56l-2.5.94s-.11.02-.15.02v.02Z"
  />
  <path
    d="m149.68,122.35c-.09,0-.2-.04-.28-.11-.19-.15-.21-.42-.06-.61.63-.77,5.56-2.76,7.04-3.35.22-.08.48.02.56.25.09.22-.02.48-.25.56-3.02,1.19-6.35,2.68-6.69,3.09-.08.11-.21.16-.34.16h.01Zm20.29,18.27c-.09,0-.19-.02-.26-.08-.19-.14-.23-.42-.08-.61l.98-1.31c.14-.2.42-.23.61-.08.19.14.23.42.08.61l-.98,1.31c-.08.12-.21.18-.35.18h0Z"
  />
  <path
    d="m168.15,140.78c-.12,0-.23-.05-.33-.15-.16-.18-.14-.46.04-.61l2.07-1.82c.18-.15.46-.14.61.04.16.18.14.46-.04.61l-2.07,1.82c-.08.07-.19.11-.29.11h.01Zm-1.81,0c-.13,0-.26-.06-.35-.18-.14-.19-.11-.47.08-.61l1.95-1.47c.19-.14.47-.11.61.08s.11.47-.08.61l-1.95,1.47c-.07.05-.16.08-.26.08h0Z"
  />
  <path
    d="m164.33,141.67c-.12,0-.23-.05-.32-.14-.16-.18-.15-.44.02-.62l1.66-1.54c.18-.16.44-.15.61.02s.15.44-.02.62l-1.66,1.54c-.08.08-.19.12-.29.12Zm7.83-1.19h-.06c-.23-.04-.41-.25-.37-.49-.04-.07-.34-.74-.61-1.26-.11-.21-.02-.48.19-.58s.48-.02.58.19c.74,1.45.71,1.66.69,1.78-.04.22-.21.37-.43.37h.01Z"
  />
  <path
    d="m173.41,141.07c-.23,0-.43-.2-.43-.43-.05-.13-.53-.9-.96-1.52-.14-.2-.08-.47.11-.61.2-.14.47-.08.61.11,1.11,1.6,1.11,1.89,1.11,2.01,0,.25-.2.43-.43.43h0Z"
  />
  <path
    d="m174.44,143.06c-.23,0-.43-.2-.43-.43v-.62s-.54-1.16-.99-2.12c-.11-.22,0-.48.21-.57s.48,0,.57.21c1.08,2.28,1.08,2.37,1.08,2.49v.62c0,.25-.2.43-.43.43h0Zm-10.82-.63c-.08,0-.16-.02-.23-.07-.2-.13-.26-.4-.13-.6l.98-1.53c.13-.2.4-.26.6-.13s.26.4.13.6l-.98,1.53c-.08.13-.22.2-.36.2Zm5.25,2.2s-.07,0-.11-.01c-.23-.06-.37-.29-.32-.53l.16-.62c.06-.23.3-.36.53-.32.23.06.37.29.32.53l-.16.62c-.05.2-.22.33-.42.33Z"
  />
  <path
    d="m169.65,145.37h-.05c-.23-.02-.41-.25-.37-.48l.16-1.36c.02-.23.23-.41.48-.37.23.02.41.25.37.48l-.16,1.36c-.02.22-.21.39-.43.39h0Z"
  />
  <path
    d="m170.58,144.63s-.12,0-.16-.04c-.22-.09-.33-.35-.23-.57l.26-.62c.09-.22.35-.33.57-.23.22.09.33.35.23.57l-.26.62c-.07.16-.23.27-.4.27h-.01Zm-9.16,2.55c-.18,0-.34-.11-.41-.28-.08-.22.02-.48.25-.56l1.01-.4c.22-.08.48.02.56.25s-.02.48-.25.56l-1.01.4s-.11.04-.16.04h.01Zm1.39.58c-.14,0-.27-.06-.35-.18-.14-.2-.09-.47.11-.61l.82-.58c.2-.14.47-.09.61.11s.09.47-.11.61l-.82.58c-.07.05-.16.08-.26.08h0Zm1.17.56c-.11,0-.22-.04-.3-.12-.18-.16-.18-.44-.01-.62l1.1-1.15c.16-.18.44-.18.61-.01.18.16.18.44.01.62l-1.1,1.15c-.08.09-.2.13-.32.13h.01Zm.95.41c-.11,0-.21-.04-.29-.12-.18-.16-.19-.44-.02-.62l1.66-1.75c.16-.18.44-.19.61-.02.18.16.19.44.02.61l-1.66,1.75c-.08.09-.2.14-.32.14h0Zm1.42.33c-.08,0-.16-.02-.25-.07-.2-.14-.25-.41-.12-.61l1.42-2.08c.14-.2.4-.26.61-.12.2.14.25.41.12.61l-1.42,2.08c-.08.13-.22.19-.36.19Zm1.4,0c-.07,0-.15-.02-.22-.06-.21-.12-.28-.39-.15-.6l1.44-2.48c.12-.21.39-.28.6-.15.21.12.28.39.15.6l-1.44,2.48c-.08.14-.22.21-.37.21Z"
  />
  <path
    d="m168.7,148.85h-.08c-.23-.05-.39-.27-.34-.51l.33-1.67c.05-.23.27-.4.5-.34.23.05.39.27.34.51l-.33,1.67c-.04.21-.22.35-.42.35h0Z"
  />
  <path
    d="m169.81,149.06c-.23,0-.42-.19-.43-.41l-.08-1.89c0-.25.18-.44.41-.46h.02c.23,0,.42.19.43.41l.08,1.89c0,.25-.18.44-.41.46h-.02Z"
  />
  <path
    d="m170.7,148.32c-.21,0-.4-.16-.43-.37l-.13-.99c-.04-.23.14-.46.37-.49.25-.04.46.14.49.37l.13.99c.04.23-.14.46-.37.49,0,0-.06,0-.06,0Z"
  />
  <path
    d="m171.83,147.86c-.13,0-.25-.06-.34-.15l-.33-.39c-.15-.19-.13-.46.06-.61s.46-.13.61.06l.33.39c.15.19.13.46-.06.61-.08.07-.18.11-.28.11h.01Zm-19.04-11.17c-.09,0-.2-.04-.27-.09-.19-.15-.21-.42-.06-.61l.82-.99c.15-.19.42-.21.61-.06.19.15.21.42.06.61l-.82.99c-.08.11-.21.16-.34.16h0Zm.54,1.92c-.11,0-.2-.04-.28-.11-.19-.15-.2-.43-.05-.61l.76-.89c.15-.19.43-.21.61-.05.19.15.2.43.05.61l-.76.89c-.08.11-.21.15-.33.15Z"
  />
  <path
    d="m155.01,141.07c-.23,0-.43-.2-.43-.43v-.77h-.3c-.23,0-.43-.2-.43-.43v-1.1c0-.25.2-.43.43-.43s.43.2.43.43v.67h.3c.23,0,.43.2.43.43v1.2c0,.25-.2.43-.43.43Zm.33.91c-.14,0-.28-.07-.37-.2-.13-.2-.07-.47.14-.6l.63-.4c.2-.13.47-.07.6.14.13.2.07.47-.14.6l-.63.4c-.07.05-.15.07-.23.07h.01Zm11.62,8.55c-.11,0-.2-.04-.28-.11l-.81-.68-.63.12c-.11.02-.22,0-.32-.07l-.63-.42-.14.06c-.14.06-.29.05-.41-.04-.13-.08-.2-.21-.2-.36v-.19l-1.03.22c-.12.02-.23,0-.33-.06s-.16-.16-.19-.28l-.19-.9-1.06-.15c-.19-.02-.34-.18-.37-.36l-.12-.78h-1.26c-.23,0-.43-.2-.43-.43v-.58l-1.35-.37c-.15-.05-.27-.16-.3-.32l-.21-.87-.62-.18c-.22-.06-.35-.29-.3-.51.02-.11.05-.22.06-.33-.22,0-.54,0-.81.02-.21.04-.44-.18-.46-.42s.18-.44.42-.46c.49-.02,1.11-.04,1.31,0,.12.02.26.13.32.22.04.06.15.23.08.73l.49.14c.15.05.27.16.3.32l.21.87,1.42.4c.19.05.32.22.32.42v.48h1.2c.21,0,.4.15.43.37l.13.83,1.05.15c.19.02.33.16.36.34l.15.77,1.12-.23c.13-.02.26,0,.36.09s.16.21.16.34v.14s.11.04.16.07l.69.46.66-.12c.13-.02.26.01.36.09l.7.6,1.24-.88c.13-.09.3-.11.44-.04.12.06.19.16.22.28l1.02-.18c.14-.02.29.02.39.13l.14.14,1.05-1.39c.08-.11.21-.18.35-.18h.74c.23,0,.43.2.43.43s-.2.43-.43.43h-.51l-1.23,1.64c-.08.11-.2.16-.33.18-.14.02-.26-.05-.34-.14l-.33-.35-1.27.22c-.13.02-.26-.01-.35-.09l-.98.69c-.07.06-.16.08-.25.08h-.04Z"
  />
  <path
    d="m165.16,148.73c-.22,0-.41-.16-.43-.4-.02-.23.15-.46.39-.47l2.32-.22c.23-.02.46.15.47.39.02.23-.15.46-.39.47l-2.32.22h-.04Zm-7.03-4.41c-.15,0-.3-.08-.39-.23l-.51-.98-.89-.5c-.11-.06-.18-.15-.2-.27-.04-.11-.01-.23.05-.33l.22-.37c.12-.21.39-.28.6-.16.21.12.28.39.16.6s.63.36.63.36c.07.05.13.11.18.18l.57,1.1c.11.21.02.48-.19.58-.07.04-.13.05-.2.05h-.04Zm4.6-30.54s-.08,0-.12-.01c-.23-.06-.36-.3-.3-.54.07-.23,1.65-5.87,6.61-8.62.21-.12.48-.04.58.18.12.21.04.48-.16.58-4.62,2.56-6.18,8.04-6.19,8.09-.06.19-.22.32-.42.32Zm2,6.64c-.07,0-.15-.02-.22-.06-.21-.12-.27-.39-.15-.6.2-.34,5.05-8.41,11.18-10.02.23-.07.47.08.53.3.06.23-.08.47-.3.53-5.79,1.52-10.61,9.54-10.66,9.63-.08.14-.22.21-.37.21h0Zm17.72,4.66h-.07c-.23-.04-.4-.26-.36-.49.85-5.56-4.48-13.72-4.54-13.8-.13-.2-.08-.47.12-.6.2-.13.47-.08.6.12.23.34,5.58,8.53,4.67,14.41-.04.21-.22.36-.43.36h.02Zm-25.59-2.33h-.04c-.23-.01-.42-.22-.41-.47.02-.42.73-10.22,2.91-13.81.13-.21.39-.27.6-.14.2.13.27.4.14.6-2.08,3.42-2.78,13.32-2.78,13.42-.01.23-.21.41-.43.41h.01Zm-2.77-3.54c-.21,0-.4-.15-.43-.36-.48-3.06,2.61-8.39,2.75-8.61.12-.21.39-.28.6-.15.21.12.28.39.15.6-.04.05-3.06,5.29-2.63,8.04.04.23-.13.46-.36.49h-.07Zm-3.37,2.47c-.2,0-.37-.14-.42-.34-.91-3.97,2.78-10.23,2.94-10.5.13-.21.39-.27.6-.15.21.13.27.39.15.6-.04.06-3.67,6.23-2.84,9.86.06.23-.09.47-.33.53h-.09,0Z"
  />
  <path
    d="m150.22,121.19c-.13,0-.26-.06-.34-.18-1.11-1.44-.09-8.13.13-9.45.04-.23.25-.4.5-.36.23.04.4.26.36.5-.48,2.92-.97,7.9-.29,8.78.15.19.11.47-.08.61-.08.06-.18.09-.27.09h-.01Zm10.71-10.29s-.08,0-.12-.01c-.23-.06-.36-.3-.3-.54.99-3.59,4.97-8.55,5.15-8.76.15-.19.42-.21.61-.07.19.15.21.42.07.61-.04.05-4.04,5.03-4.98,8.45-.06.19-.22.32-.42.32h0Zm.84,10.52s-.11,0-.15-.04c-.22-.08-.34-.34-.25-.56.22-.58,5.59-14.24,12.46-17.57.21-.11.48-.01.58.2s.01.48-.2.58c-6.56,3.18-11.98,16.96-12.04,17.1-.07.18-.23.28-.41.28Z"
  />
</svg>
