<svg class="svg" xmlns="http://www.w3.org/2000/svg" viewBox="0 0 320 320">
  <path
    d="m137.45,80.04c-.78,0-1.57-.23-2.22-.66-.17-.11-.22-.35-.11-.52s.35-.22.52-.11c.73.49,1.69.65,2.55.45.29-.06.57-.18.87-.3,1.35-.57,3.7-1.86,4.19-4.05.25-1.15-.05-2.42-.31-3.54-.97-4.07-1.78-7.76-1.91-11.61-.05-1.65,0-3.77.94-5.64.32-.67.75-1.27,1.17-1.85.2-.27.39-.55.58-.83,1.31-1.95,2.13-4.24,2.37-6.62.08-.82.09-1.66.11-2.48.02-1.15.04-2.34.24-3.52.43-2.44,1.75-4.3,3.52-4.97,1.37-.52,3-.28,4.17.62.16.13.19.36.07.53-.13.17-.36.2-.53.07-.96-.74-2.31-.94-3.44-.51-1.52.58-2.66,2.22-3.05,4.4-.2,1.11-.21,2.27-.23,3.4-.01.83-.03,1.69-.11,2.54-.25,2.5-1.11,4.91-2.49,6.96-.19.29-.39.57-.59.85-.42.58-.81,1.13-1.11,1.74-.86,1.72-.91,3.72-.86,5.28.12,3.79.93,7.43,1.89,11.46.28,1.2.6,2.56.31,3.88-.53,2.39-2.81,3.81-4.63,4.58-.31.13-.65.27-.99.34-.3.07-.61.11-.91.11Z"
  />
  <path
    d="m138.29,78.41h0c-.97-.01-1.48-1.01-1.61-1.86-.33-2.21.5-4.29,1.31-6.3.45-1.11.91-2.26,1.16-3.41.45-2.04.27-4.2.09-6.28l-.03-.39c-.38-4.7-.56-9.7.78-14.47,1.47-5.25,4.66-9.38,8.76-11.3.19-.09.41,0,.5.18s0,.41-.18.5c-3.9,1.84-6.95,5.78-8.36,10.83-1.3,4.66-1.13,9.58-.75,14.21l.03.39c.18,2.14.36,4.36-.11,6.51-.27,1.21-.74,2.38-1.2,3.52-.8,2.01-1.56,3.9-1.26,5.9.09.58.41,1.22.88,1.23.21,0,.37.17.37.38,0,.21-.17.37-.38.37Z"
  />
  <path
    d="m139.75,79.03c-.14,0-.28-.08-.34-.23-1.26-2.91-.49-6.59,1.82-8.76.15-.14.39-.13.53.02.14.15.13.39-.02.53-2.09,1.96-2.78,5.29-1.65,7.91.08.19,0,.41-.2.49-.05.02-.1.03-.15.03Z"
  />
  <path
    d="m146.9,79.89c-.2,0-.37-.16-.38-.36-.05-1.65-.75-3.23-1.44-4.76l-.3-.68c-1.62-3.73-2.69-7.69-3.19-11.76-.02-.21.12-.39.33-.42.2-.02.39.12.42.33.48,4,1.54,7.89,3.13,11.55l.3.68c.71,1.6,1.45,3.25,1.5,5.05,0,.21-.16.38-.36.39h-.01Zm-7.98-.58c-.08,0-.16-.03-.23-.08-.16-.13-.19-.36-.06-.53,1.85-2.37,2.31-5.34,2.36-7.42.07-2.76-.46-5.55-.93-8.01-.04-.2.09-.4.3-.44.2-.04.4.09.44.3.48,2.5,1.02,5.33.94,8.17-.06,2.19-.54,5.34-2.52,7.87-.07.09-.18.14-.3.14Zm1.49-23.12h-.02c-.21-.01-.37-.19-.36-.39.09-1.88.41-3.47.97-4.87.25-.62.55-1.23.85-1.82.21-.42.42-.85.62-1.28,1.21-2.77,1.5-5.86,1.78-8.84.02-.21.21-.36.41-.34.21.02.36.2.34.41-.29,3.04-.59,6.19-1.85,9.08-.2.44-.41.88-.63,1.31-.29.57-.59,1.17-.82,1.76-.53,1.33-.83,2.84-.92,4.63-.01.2-.18.36-.37.36Zm6.28-14c-.07,0-.15-.02-.21-.06-.17-.12-.22-.35-.1-.52,1.69-2.5,4.18-4.43,7.02-5.44.2-.07.41.03.48.23.07.2-.03.41-.23.48-2.69.96-5.05,2.79-6.65,5.15-.07.11-.19.17-.31.17Z"
  />
  <path
    d="m168.85,79.07c-.1,0-.2-.04-.28-.12-.97-1.06-1.21-2.56-1.35-3.88-.28-2.58-.47-5.61.3-8.43.11-.42.25-.85.39-1.27.14-.43.28-.86.4-1.3.33-1.28.48-2.74.48-4.6.01-2.16-.14-4.36-.44-6.54-.03-.21.12-.39.32-.42.21-.04.39.11.42.32.31,2.22.45,4.45.44,6.64,0,1.92-.16,3.44-.51,4.79-.12.45-.26.9-.41,1.34-.13.41-.27.82-.38,1.23-.73,2.7-.55,5.64-.28,8.15.13,1.26.33,2.56,1.15,3.45.14.15.13.39-.02.53-.07.07-.16.1-.25.1Zm-22.15-1.04c-.15,0-.34-.1-.4-.23-.06-.13-.03-.34.07-.45.06-.07.13-.11.21-.12.34-1,.37-2.19.1-3.79-.23-1.38-.58-2.71-1.03-3.96-.21-.6-.46-1.18-.7-1.77-.39-.95-.8-1.94-1.08-2.95-1.28-4.57-.16-9.5.88-13.59-.19.25-.39.5-.6.74-.13.16-.37.18-.53.04-.16-.13-.18-.37-.04-.53,2.6-3.03,4.11-6.9,4.26-10.92,0-.21.21-.37.39-.36.21,0,.37.18.36.39-.13,3.44-1.22,6.79-3.11,9.63.16.08.24.25.2.43-1.06,4.15-2.39,9.31-1.08,13.97.27.97.67,1.94,1.05,2.87.25.6.49,1.19.71,1.8.47,1.29.83,2.67,1.07,4.09.21,1.25.37,2.87-.22,4.38-.09.23-.32.33-.5.34h0Zm11.86-6.78c-1.32,0-2.6-.31-3.62-.6-1.9-.56-3.71-1.31-5.39-2.22-.18-.1-.25-.33-.15-.51.1-.18.33-.25.51-.15,1.63.88,3.4,1.61,5.25,2.16,1.24.36,2.87.74,4.44.5,1.98-.29,3.75-1.49,5.31-2.55.17-.12.4-.07.52.1.12.17.07.41-.1.52-1.63,1.1-3.47,2.35-5.62,2.67-.38.06-.76.08-1.14.08Zm14.14-17.33s-.05,0-.08,0c-1.82-.39-3.56-1.48-5.46-3.42-.69-.71-1.57-1.68-2.18-2.84-1.11-2.11-1.21-4.51-1.32-6.84-.05-1.14-.1-2.32-.27-3.44-.11-.71-.31-1.63-.8-2.34-.84-1.19-2.55-1.83-4.56-1.7-.62.04-2.67.29-3.19,1.76-.07.2-.28.3-.48.23s-.3-.28-.23-.48c.45-1.29,1.89-2.14,3.84-2.26,2.28-.14,4.23.61,5.22,2.02.59.84.81,1.86.93,2.66.18,1.16.23,2.36.28,3.52.1,2.35.2,4.57,1.23,6.52.57,1.07,1.39,1.99,2.05,2.67,1.79,1.84,3.41,2.86,5.08,3.21.2.04.33.24.29.45-.04.18-.19.3-.37.3Z"
  />
  <path
    d="m166.23,55.36c-.09,0-.18-.03-.25-.1-3.28-2.97-5.52-7.19-6.16-11.58-.05-.34-.09-.69-.13-1.03-.15-1.24-.29-2.41-.84-3.45-.66-1.23-2.23-2.17-3.43-1.55-.18.1-.41.02-.5-.16-.09-.18-.02-.41.16-.5,1.61-.82,3.59.3,4.43,1.87.62,1.16.78,2.46.93,3.71.04.34.08.68.13,1.01.61,4.22,2.77,8.27,5.92,11.13.15.14.17.38.03.53-.07.08-.18.12-.28.12Z"
  />
  <path
    d="m167.44,54.84c-.09,0-.18-.03-.25-.09-3.03-2.68-4.91-6.52-5.16-10.53-.03-.52-.04-1.05-.04-1.57-.01-.97-.02-1.98-.22-2.92-.25-1.24-1-2.73-2.36-3.21-.2-.07-.3-.28-.23-.48.07-.2.28-.3.48-.23,1.4.5,2.46,1.91,2.84,3.77.21,1.01.22,2.06.23,3.06,0,.51.01,1.02.04,1.53.24,3.81,2.02,7.46,4.9,10.01.16.14.17.37.03.53-.07.08-.18.13-.28.13Z"
  />
  <path
    d="m168.23,79.41c-.12,0-.24-.06-.32-.17-.39-.6-.32-1.43.18-2.34.49-.9,1.16-1.68,1.81-2.44.71-.83,1.37-1.6,1.83-2.52.94-1.86.97-4.27.07-6.61-.11-.28-.23-.56-.35-.84-.29-.67-.59-1.37-.73-2.12-.27-1.44.06-2.88.38-4.27.31-1.32.6-2.57.4-3.81-.26-1.67-1.36-3.1-2.43-4.49l-.33-.43c-1.14-1.5-2.42-3.5-2.11-5.65.03-.21.22-.36.42-.32.2.03.35.22.32.42-.27,1.88.91,3.7,1.96,5.09l.33.43c1.13,1.46,2.29,2.97,2.58,4.83.21,1.39-.1,2.76-.41,4.09-.32,1.37-.62,2.67-.38,3.95.13.67.4,1.29.69,1.96.12.29.25.57.36.86.98,2.54.94,5.17-.1,7.22-.5,1-1.23,1.85-1.93,2.67-.62.73-1.27,1.48-1.73,2.31-.17.31-.53,1.07-.21,1.57.11.17.06.41-.11.52-.06.04-.13.06-.2.06Z"
  />
  <path
    d="m173.34,59.84c-.08,0-.16-.03-.23-.08-.16-.13-.19-.36-.07-.53.62-.8,1.03-1.89,1.22-3.23.47-3.36-.5-6.73-1.61-9.87-.44-1.21-.92-2.49-1.57-3.68-1.57-2.89-4.09-5.22-7.11-6.54-.19-.08-.28-.3-.19-.5.08-.19.31-.28.49-.19,3.16,1.39,5.81,3.83,7.46,6.87.67,1.24,1.17,2.55,1.62,3.79,1.15,3.23,2.14,6.71,1.65,10.23-.21,1.48-.67,2.69-1.37,3.59-.07.1-.18.15-.3.15Z"
  />
  <path
    d="m171.27,72.16c-.16,0-.31-.1-.36-.26-.06-.2.05-.41.24-.47.8-.25,1.48-.97,2.08-2.2,1.01-2.06,1.45-4.35,1.28-6.63-.11-1.51-.47-2.99-.98-4.74-.56-1.91-1.23-3.97-2.04-6.3-1.52-4.33-3.15-8.57-4.86-12.62-.08-.19,0-.41.2-.49.19-.08.41,0,.49.2,1.71,4.06,3.35,8.32,4.88,12.66.81,2.34,1.49,4.41,2.05,6.33.42,1.45.88,3.14,1.01,4.9.18,2.41-.29,4.83-1.36,7.01-.69,1.42-1.52,2.27-2.52,2.59-.04.01-.08.02-.11.02Z"
  />
  <path
    d="m176.37,76.19c-.53,0-1.04-.11-1.47-.27-1.8-.7-3.11-2.53-3.19-4.45-.03-.83.15-1.62.32-2.4.05-.24.1-.47.15-.71.37-1.85.39-3.82.07-5.69-.04-.2.1-.4.31-.43.2-.03.4.1.43.3.34,1.96.32,4.03-.07,5.97-.05.24-.1.48-.15.72-.17.76-.33,1.48-.3,2.21.06,1.63,1.18,3.18,2.71,3.78.85.32,2.02.35,2.71-.33.15-.15.38-.14.53,0s.14.38,0,.53c-.57.57-1.32.77-2.04.77Z"
  />
  <path
    d="m174.75,78.33c-.93,0-1.85-.12-2.75-.24-1-.12-2-.35-2.5-1.2-.11-.18-.05-.41.13-.51.18-.11.41-.05.52.13.34.57,1.14.74,1.96.84,1.34.18,2.72.37,4.05.12.2-.03.4.1.44.3s-.1.4-.3.44c-.51.09-1.02.13-1.53.13Zm.59-1.81c-1.69,0-3.49-.19-4.94-1.24-.17-.12-.21-.36-.08-.52.12-.17.35-.21.52-.08,1.53,1.1,3.58,1.14,5.39,1.08.64-.02,1.3-.08,1.71-.46.15-.14.39-.14.53.01.14.15.14.39-.01.53-.6.57-1.42.64-2.2.67-.3,0-.6.01-.91.01Zm-6.91-3.16c-.09,0-.18-.03-.25-.1-.15-.14-.17-.38-.03-.53,1.85-2.04,2.42-5.13,1.43-7.7-.07-.19.02-.41.21-.48.19-.08.41.02.48.21,1.09,2.83.46,6.23-1.58,8.47-.07.08-.18.12-.28.12Zm-19.67-21.72c-.1,0-.21-.04-.28-.13-.14-.15-.12-.39.03-.53,1.33-1.18,3.56-1.18,4.89,0,.16.14.17.37.03.53-.14.15-.38.17-.53.03-1.06-.94-2.84-.94-3.9,0-.07.06-.16.09-.25.09Z"
  />
  <path
    d="m160.72,51.76c-.07,0-.13-.02-.2-.05-.18-.11-.23-.34-.12-.52.28-.46.81-.81,1.43-.95.52-.12,1.04-.1,1.55-.09.61.01,1.37.1,1.78.68.18.27.07.48.03.54-.11.17-.41.23-.58.12-.08-.05-.15-.16-.17-.25,0-.03,0-.06,0-.09-.25-.2-.69-.24-1.07-.24-.46-.01-.94-.02-1.37.07-.43.09-.77.31-.95.6-.07.12-.19.18-.32.18Zm-9.38-.25c-.23,0-.45-.04-.66-.13-.04-.01-.09-.03-.13-.06-.1-.05-.19-.11-.27-.17-.12-.1-.17-.27-.12-.42s.19-.25.35-.25h.01s.06,0,.09.01c.06.02.11.03.16.04.06-.03.13-.05.2-.07.23-.04.46,0,.64.14,0,0,.02.01.03.02.1.02.19.06.28.1.14.06.23.2.22.36,0,.15-.1.29-.25.34-.18.07-.37.1-.56.1Z"
  />
  <path
    d="m156.61,63.57c-.65,0-1.3-.03-1.95-.08-.43-.04-.89-.09-1.34-.27-.19-.08-.28-.3-.2-.49.08-.19.3-.28.49-.2.34.14.72.18,1.11.22,2.22.2,4.43.04,6.58-.44.2-.05.4.08.45.28s-.08.4-.28.45c-1.59.36-3.22.54-4.86.54Zm-.41-5.06s-.03,0-.05,0l-1.32-.16c-.21-.03-.35-.21-.33-.42.03-.21.21-.35.42-.33l1.32.16c.21.03.35.21.33.42-.02.19-.19.33-.37.33Zm2.33-.03c-.15,0-.28-.08-.34-.23-.08-.19,0-.41.2-.49l.75-.32c.19-.08.41,0,.49.2s0,.41-.2.49l-.75.32s-.1.03-.15.03Zm4.69-6.78s-.08,0-.12-.02c-.29-.1-.59-.25-.88-.47-.1-.07-.16-.18-.16-.31h0c0-.12.05-.23.13-.3s.19-.1.3-.08c.45.07.68.09.86.11h.14c.12.03.23.1.29.21.06.11.06.24,0,.35-.08.16-.19.3-.32.41-.07.06-.16.09-.25.09Zm-3.05-3.33c-.13,0-.25-.06-.32-.18-.11-.18-.05-.41.13-.51.46-.27.93-.47,1.42-.58.16-.03.32.04.4.17.3-.05.61-.05.92.07.19.07.29.29.22.48-.07.19-.29.29-.48.22-.3-.12-.68-.05-1.24.22-.18.09-.38.02-.48-.14-.12.06-.24.12-.37.2-.06.04-.13.05-.19.05Zm-10.74-.17s-.04,0-.06,0l-1.55-.27c-.2-.03-.34-.23-.31-.43.03-.2.23-.34.43-.31l.76.13c.06-.17.22-.27.4-.25.04,0,.08,0,.12.01.03-.18.18-.32.37-.32.16,0,.31,0,.46,0,.4,0,.78.02,1.16-.04.07,0,.15,0,.22.03l.58.28c.08-.08.18-.13.3-.12l.95.07c.21.01.36.19.35.4s-.19.38-.4.35l-.71-.05v.02c-.11.17-.32.25-.5.16l-.05-.03c-.06.02-.12.03-.19.03l-.71-.09c-.15-.02-.26-.12-.31-.25-.02,0-.03,0-.05,0,0,.03,0,.06-.01.1-.07.26-.21.33-.74.29-.05.01-.11.02-.16.03-.05.15-.19.25-.35.25Zm14.08-.27c-.17,0-.33-.12-.37-.3,0-.03,0-.05,0-.08,0-.17.12-.33.3-.37l.62-.13c.2-.05.4.09.44.29,0,.03,0,.05,0,.08,0,.17-.12.33-.3.37l-.62.13s-.05,0-.08,0Z"
  />
  <path
    d="m161.29,60.39c-.1,0-.19-.04-.26-.11h-.01c-.14-.16-.14-.4.01-.54.15-.15.39-.14.53.01.14.15.14.39,0,.54-.07.07-.17.11-.26.11Zm-10.94-5.54c-.74,0-1.49-.09-2.21-.29-.25-.06-.63-.18-.86-.48-.13-.17-.2-.37-.25-.53l-.17-.57c-.07.03-.15.04-.23.02l-1.43-.34c-.2-.05-.33-.25-.28-.45.05-.2.25-.33.45-.28l1.26.3-.08-.26c-.4-.09-.83-.14-1.29-.16-.21,0-.37-.18-.36-.39,0-.21.18-.36.39-.36.47.02.92.08,1.34.16.02-.01.05-.02.08-.03.2-.06.41.05.47.25l.57,1.9c.03.11.07.23.12.29.07.09.22.16.45.22,2.15.58,4.51.2,6.38-1,.1-.35.2-.71.3-1.06.11-.39.22-.79.33-1.19.04-.15.18-.26.34-.27.77-.05,1.55-.1,2.28-.18.19-.02.36.1.41.29.18.77.41,1.58.69,2.48.78.53,1.77.71,2.72.82,1.05.12,2.15.17,3.03-.33.18-.1.41-.04.51.14.1.18.04.41-.14.51-1.07.6-2.36.54-3.49.42-1.1-.13-2.24-.35-3.17-1.03-.06-.05-.11-.11-.14-.19-.27-.84-.49-1.61-.67-2.33-.56.06-1.14.1-1.72.14-.09.31-.18.62-.26.94-.11.39-.22.79-.33,1.19-.02.09-.08.16-.15.21-1.44.96-3.17,1.47-4.89,1.47Zm9.69-6.4c-.1,0-.2-.04-.27-.12-.11-.11-.14-.28-.07-.42l.34.16-.33-.18c.16-.33.34-.62.97-.89.14-.06.31-.03.42.08.09-.16.29-.22.46-.16.15.06.24.2.24.35,0,.05,0,.09-.03.14l-.21.52c-.08.19-.3.29-.49.21-.09-.04-.15-.1-.19-.18-.15.16-.35.31-.69.45-.05.02-.1.03-.15.03Zm2.93-.24c-.12,0-.23-.06-.3-.16-.09-.13-.09-.3,0-.43.15-.22.32-.41.95-.68.12-.05.26-.03.37.04.04-.01.07-.02.11-.02h.33c.21,0,.38.17.38.38s-.17.38-.38.38h-.33c-.05,0-.1,0-.14-.03-.14.19-.38.36-.88.5-.03,0-.07.01-.1.01Zm-9.69-.35s-.01,0-.02,0c-.26-.01-.5-.06-.72-.14-.17-.06-.27-.23-.25-.41.03-.18.17-.31.35-.32.07,0,.13,0,.16-.01,0,0,0-.01,0-.02.06-.1.15-.17.26-.18.11-.02.22.01.31.09.17.15.27.37.27.62,0,.1-.04.2-.12.27-.07.07-.16.1-.26.1Zm-.42-.89h0Z"
  />
  <path
    d="m117.82,128.14c-.07,0-.14-.02-.2-.06l-3.75-2.36c-.91-.57-1.94-1.21-2.77-2.09-.02-.02-.04-.05-.05-.07-.15-.02-.31-.04-.46-.07-.2-.04-.34-.23-.3-.44,0,0,0-.01,0-.02-.07-.02-.12-.07-.17-.12-.07-.09-.09-.22-.06-.33.31-1.08.79-2.09,1.42-2.99,1.39-5.78,2.99-11.6,4.38-16.59l.04-.14c.33-1.19.67-2.41.88-3.63.05-.27.09-.55.13-.83.09-.6.18-1.22.34-1.83.2-.76.48-1.49.72-2.11.83-2.16,1.69-4.4,2.58-6.59.27-.65.54-1.33.93-1.94,1.38-2.18,3.8-3.28,6.2-4.15,2.5-.91,5.09-1.65,7.68-2.22.2-.05.4.08.45.29.04.2-.08.4-.29.45-2.56.56-5.11,1.3-7.58,2.19-2.28.83-4.57,1.86-5.82,3.85-.35.56-.6,1.18-.87,1.83-.89,2.18-1.75,4.41-2.58,6.57-.24.61-.5,1.31-.69,2.03-.14.57-.23,1.17-.32,1.75-.04.28-.08.57-.13.84-.21,1.25-.56,2.5-.89,3.7l-.04.14c-1.39,5.01-3,10.84-4.39,16.64-.01.05-.03.09-.06.13-.52.72-.92,1.52-1.21,2.37.14.06.23.19.23.35,0,.05,0,.09-.02.13.68.08,1.38.06,2.06.04h.26c6.29-.19,12.59.45,18.72,1.89.2.05.33.25.28.45-.05.2-.25.33-.45.28-6.07-1.43-12.3-2.06-18.53-1.88h-.26c-.34.02-.7.02-1.04.02.66.57,1.41,1.04,2.09,1.47l3.75,2.36c.18.11.23.34.12.52-.07.11-.19.17-.32.17Zm29.51-46.43s-.1,0-.15-.02c-.14-.04-.25-.16-.27-.31-.03-.24-.4-.39-.71-.36-.27.02-.55.13-.83.24-.15.06-.3.12-.45.17-1.17.37-2.37.14-3.53-.07-.66-.12-1.35-.25-2-.26-.14,0-.27-.08-.33-.21-.06-.13-.05-.28.04-.39.37-.47.67-.95.9-1.42.09-.19.32-.26.5-.17.19.09.26.32.17.5-.16.33-.35.65-.57.98.48.05.96.14,1.43.23,1.12.21,2.17.4,3.16.09.13-.04.27-.1.4-.15.33-.13.67-.27,1.06-.29.51-.04,1.08.17,1.35.59.06-.01.15.02.21.06.17.12.22.35.1.52-.11.17-.3.26-.49.26Zm-.93-3.34c-.1,0-.19-.04-.27-.11-.26-.26-.37-.64-.3-1,.04-.2.24-.34.44-.29.11.02.2.09.25.18.84-1.37,1.22-3.15,1.08-5.1-.15-2.07-.88-4.08-1.64-5.96l-.19-.46c-.44-1.06-.9-2.16-1.13-3.32-.39-1.93-.14-3.89.09-5.8.21-1.7.43-3.46.18-5.14-.03-.21.11-.4.32-.43.21-.03.4.11.43.32.26,1.78.04,3.59-.18,5.34-.24,1.93-.46,3.75-.1,5.56.21,1.08.66,2.15,1.08,3.18l.19.46c.79,1.93,1.54,4.01,1.69,6.19.17,2.44-.42,4.65-1.66,6.23-.07.08-.17.14-.27.14,0,0-.01,0-.02,0Z"
  />
  <path
    d="m159.82,169.32c-.95,0-1.84-.23-2.55-.45-3.75-1.17-7.11-3.54-9.47-6.68-.44-.59-.86-1.21-1.26-1.82-.61-.92-1.25-1.88-1.99-2.71-1.7-1.91-3.92-3.14-6.27-4.44-1.2-.66-2.44-1.35-3.58-2.13-2.12-1.44-3.98-3.23-5.56-4.8-2.86-2.86-5.69-5.96-7.96-8.45-.97-1.06-1.97-2.16-2.59-3.49-.84-1.8-.92-3.8-.98-5.74-.06-1.57-.11-3.19-.59-4.67-.06-.2.04-.41.24-.47.2-.07.41.04.47.24.51,1.57.57,3.25.63,4.87.07,1.95.14,3.78.91,5.44.58,1.23,1.54,2.28,2.47,3.3,2.27,2.49,5.09,5.58,7.94,8.43,1.55,1.54,3.38,3.31,5.45,4.71,1.12.76,2.34,1.44,3.53,2.09,2.3,1.27,4.68,2.59,6.46,4.59.78.87,1.43,1.85,2.06,2.8.4.59.8,1.21,1.23,1.78,2.27,3.01,5.5,5.29,9.1,6.41,1.2.37,2.11.49,2.94.38,1.01-.13,1.87-.69,2.26-1.45.09-.18.32-.26.5-.17.18.09.26.32.17.5-.5.98-1.58,1.69-2.83,1.86-.24.03-.48.05-.71.05Z"
  />
  <path
    d="m161.53,167.94c-.93,0-1.76-.45-2.56-.89-.7-.38-1.36-.75-2.06-.82-.21-.02-.36-.2-.34-.41.02-.21.21-.35.41-.34.85.08,1.61.5,2.35.9.83.46,1.62.88,2.46.79.31-.04.65-.16,1.05-.38.98-.52,1.83-1.3,2.47-2.26.11-.17.35-.22.52-.11.17.11.22.35.11.52-.7,1.06-1.65,1.92-2.74,2.51-.48.25-.89.4-1.3.46-.12.02-.24.02-.36.02Z"
  />
  <path
    d="m163.87,165.34c-.57,0-1.13-.13-1.68-.26-.65-.15-1.27-.29-1.87-.22-.2.03-.39-.12-.42-.33-.02-.21.12-.39.33-.42.73-.09,1.44.08,2.12.24.81.19,1.57.36,2.27.12.37-.13.69-.38.96-.6.46-.39,1-.99.92-1.62-.02-.21.12-.39.33-.42.2-.03.39.12.42.33.09.76-.32,1.55-1.18,2.29-.32.27-.71.57-1.2.74-.34.12-.67.17-1.01.17Z"
  />
  <path
    d="m165.64,162.87c-.41,0-.83-.06-1.26-.19-.7-.21-1.34-.54-1.96-.85l-.53-.27c-.19-.09-.26-.32-.17-.5.09-.19.32-.26.5-.17.18.09.36.18.54.27.62.32,1.2.61,1.83.8.86.26,1.7.2,2.29-.15.6-.35.99-1.07.96-1.78-.02-.28-.15-.59-.34-.63-.06-.01-.17.01-.28.04-.15.03-.32.06-.5.05-.27-.02-.49-.13-.69-.25-2.26-1.27-4.23-3.05-5.69-5.14-.12-.17-.08-.4.09-.52s.4-.08.52.09c1.41,2,3.29,3.7,5.45,4.92.13.08.26.14.37.15.09,0,.19-.01.29-.04.17-.04.36-.08.57-.04.62.12.93.76.96,1.33.04,1-.48,1.96-1.33,2.46-.46.27-1.02.41-1.63.41Z"
  />
  <path
    d="m166.54,158.75c-.45,0-.9-.06-1.34-.19-.2-.06-.31-.27-.25-.47.06-.2.26-.31.47-.25.82.24,1.7.21,2.5-.08.26-.1.38-.23.37-.28,0-.05-.12-.17-.17-.21-3.32-3.39-6.64-6.49-10.8-7.09-.71-.1-1.45-.13-2.17-.16-1.26-.05-2.57-.1-3.8-.55-1.14-.42-2.14-1.18-3.02-1.84-2.42-1.82-5.17-3.89-7.21-6.51-.83-1.06-1.54-2.21-2.24-3.33-.52-.84-1.06-1.71-1.64-2.52-1.02-1.44-2.23-2.8-3.4-4.11l-4.14-4.61c-.14-.15-.12-.39.03-.53.15-.14.39-.13.53.03l4.14,4.62c1.18,1.32,2.4,2.69,3.45,4.17.59.83,1.14,1.71,1.66,2.56.68,1.1,1.39,2.24,2.19,3.27,1.98,2.54,4.69,4.58,7.08,6.37.88.67,1.79,1.36,2.83,1.74,1.12.42,2.31.46,3.56.51.74.03,1.5.06,2.25.17,4.39.63,7.81,3.82,11.22,7.3.16.16.34.36.38.65.05.45-.27.85-.85,1.07-.53.2-1.09.3-1.65.3Z"
  />
  <path
    d="m143.84,143.52s-.08,0-.12-.02c-.2-.06-.3-.28-.24-.47.62-1.89.5-3.97.38-5.99-.02-.36-.04-.72-.06-1.08-.44-8.88,1.64-17.69,3.65-26.21,1.57-6.65,3.19-13.52,3.61-20.38.06-.98.08-1.92-.22-2.76-.37-1.02-1.22-1.9-2.04-2.74-1.16-1.19-2.37-2.43-2.28-4.15.01-.21.21-.37.39-.35.21,0,.37.19.36.39-.07,1.39.97,2.46,2.07,3.59.88.9,1.79,1.83,2.21,3.01.35.97.33,2,.26,3.06-.42,6.93-2.05,13.84-3.63,20.51-2,8.47-4.07,17.23-3.63,26,.02.36.04.71.06,1.07.12,2.08.25,4.24-.41,6.26-.05.16-.2.26-.36.26Zm-12.48-15.46h0c-.21,0-.37-.17-.37-.38.01-.82,0-1.68-.06-2.61-.01-.21.15-.38.35-.39.19-.05.38.15.39.35.05.95.07,1.82.06,2.66,0,.21-.17.37-.38.37Z"
  />
  <path
    d="m140.57,136.6h-.01c-.21,0-.37-.18-.36-.39.36-9.84.36-19.92-.01-29.96,0-.21.15-.38.36-.39.18,0,.38.15.39.36.37,10.06.38,20.15.01,30.01,0,.2-.17.36-.37.36Zm2.37-10.67c-.07,0-.13-.01-.19-.04-.49-.06-.94-.24-1.31-.52-.11-.08-.16-.21-.15-.35.04-.29.09-.62.27-.92.23-.39.62-.6,1.01-.57.27.03.52.17.73.4.32.35.46.79.38,1.21-.07.37-.31.69-.6.77-.05.01-.1.02-.15.02Zm-.87-1.04c.21.12.46.21.72.25.04,0,.07,0,.11,0,.02-.04.04-.08.05-.13.03-.19-.04-.4-.2-.57-.08-.09-.18-.15-.25-.16-.09,0-.22.1-.29.21-.07.11-.11.25-.13.4Zm-6.3.77c-.2,0-.36-.15-.37-.35l-.61-9.64c-.01-.21.14-.38.35-.4.21-.03.39.14.4.35l.61,9.64c.01.21-.14.38-.35.4,0,0-.02,0-.02,0Zm-3.54-.46c-.06,0-.12-.01-.18-.04-.18-.1-.25-.32-.16-.51.38-.71.72-1.45.51-2.1-.04-.12-.09-.23-.15-.35-.09-.19-.19-.41-.24-.66-.07-.37.02-.73.1-1.05l.06-.24c.12-.58.06-1.2,0-1.85-.07-.67-.13-1.37,0-2.07.06-.3.16-.6.25-.88.06-.19.13-.38.18-.58.23-.88.18-1.84.14-2.78-.13-2.38-.25-4.83-.69-7.19-.6-3.26-1.75-6.34-3.41-9.15-.11-.18-.05-.41.13-.51.18-.1.41-.05.51.13,1.71,2.89,2.89,6.05,3.5,9.4.44,2.4.57,4.88.7,7.27.05,1,.1,2.03-.16,3.02-.06.21-.13.42-.2.63-.09.26-.18.52-.23.78-.12.59-.06,1.2,0,1.85.07.67.13,1.37,0,2.07l-.06.27c-.07.27-.13.52-.09.74.03.15.1.3.18.47.07.14.13.29.18.44.31.93-.13,1.87-.56,2.68-.07.13-.2.2-.33.2Zm4.07-8.86h-.01c-.21,0-.37-.18-.36-.38.18-6.89-.06-13.86-.73-20.72-.02-.21.13-.39.34-.41.2-.02.39.13.41.34.57,5.88.83,11.85.78,17.78.38-2.83.62-5.71.85-8.51.49-5.94,1-12.08,2.86-17.85.06-.2.27-.31.47-.24.2.06.3.28.24.47-1.84,5.69-2.35,11.78-2.83,17.68-.3,3.61-.6,7.34-1.21,10.96-.03.2-.23.33-.43.31,0,.07,0,.15,0,.22,0,.2-.17.37-.38.37Zm9.87-5.73c-.12,0-.23-.03-.32-.09-.02-.01-.04-.03-.06-.05-.38-.24-.71-.52-.98-.84-.07-.08-.23-.27-.23-.53s.17-.43.26-.52c.19-.19.61-.61,1.15-.57.36.03.7.26.92.63.26.43.31.9.15,1.29-.12.3-.4.56-.69.65-.07.02-.15.03-.22.03Zm-.8-1.5c.27.31.53.54.84.73.06-.03.14-.11.18-.2.07-.17.03-.4-.1-.63-.09-.16-.22-.26-.34-.27-.18-.02-.38.16-.55.33,0,0-.01.01-.03.03Zm19.49-9.89s-.03,0-.05,0c-.21-.03-.35-.21-.32-.42.33-2.6,1.3-5.25,3.05-8.35.84-1.49,1.79-2.95,2.7-4.36.67-1.03,1.33-2.06,1.97-3.11.13-.22.13-.3.13-.32-.13-.14-.24-.25-.27-.44-.01-.08,0-.15.01-.22-.36-.36-.76-.65-1.21-.87-.15-.07-.23-.23-.21-.39.02-.16.15-.29.31-.32l7.21-1.1c-.45-.43-1.03-.72-1.65-.8-.21-.03-.35-.22-.32-.42.03-.21.22-.36.42-.32,1.04.14,2,.74,2.57,1.61.07.11.08.24.03.36-.05.12-.16.2-.29.22l-6.86,1.05c.26.2.51.44.73.69.11.08.19.24.19.36,0,.07-.02.14-.05.19,0,0,0,.01.01.02.27.41,0,.88-.12,1.09-.64,1.06-1.31,2.1-1.98,3.13-.91,1.4-1.84,2.85-2.68,4.32-1.7,3.01-2.64,5.58-2.96,8.07-.02.19-.19.33-.37.33Zm-15.92-3.06s-.1,0-.14-.01c-.03,0-.06-.01-.08-.02-.22-.04-.45-.08-.67-.2-.34-.18-.56-.5-.58-.83-.02-.32.13-.63.42-.92.41-.43.87-.61,1.29-.47.29.1.52.32.67.67.19.4.22.81.07,1.15-.17.38-.58.65-.97.65Zm-.08-.39h0,0Zm.03-1.36c-.12,0-.29.1-.47.29-.14.14-.21.27-.21.36,0,.05.07.15.18.21.14.07.32.1.52.13.02,0,.04,0,.06.01.08-.02.21-.1.26-.2.06-.13.03-.33-.06-.53-.05-.11-.12-.24-.22-.27-.02,0-.03,0-.05,0Z"
  />
  <path
    d="m158.98,149.15s-.04,0-.07,0c-.2-.04-.34-.23-.3-.44.2-1.09.83-2.01,1.44-2.89l.25-.36c1.15-1.7,2.08-3.55,2.77-5.5,1.89-7.13,2.86-14.42,2.88-21.63.01-6.15-.67-12.38-1.33-18.41.56-8.11,2.06-15.84,4.46-23.04.06-.2.27-.31.47-.24.2.07.3.28.24.47-2.38,7.15-3.87,14.82-4.42,22.79.66,5.98,1.34,12.24,1.33,18.43-.02,7.27-1,14.62-2.92,21.85-.71,2.04-1.67,3.95-2.86,5.7l-.25.37c-.57.82-1.15,1.67-1.32,2.6-.03.18-.19.31-.37.31Z"
  />
  <path
    d="m157.24,149.84c-.11,0-.22-.05-.3-.14-.13-.16-.1-.4.06-.53.77-.6,1.72-.69,2.64-.79.34-.03.67-.07.99-.13,1.96-.36,3.6-1.78,5.04-3.03.67-.58,1.35-1.16,2.02-1.74.64-.56,1.28-1.11,1.93-1.67,1.08-.93,2.19-1.89,3.13-2.97.65-.75,1.24-1.57,1.82-2.37.21-.29.42-.58.63-.87,2.18-2.96,4.75-5.65,7.25-8.26.7-.73,1.34-1.39,2.09-1.92.83-.58,1.75-1,2.62-1.37,2.42-1.02,4.47-1.63,6.46-1.92,1.71-.2,3.32-.97,4.87-1.71l.25-.12c.29-.14.68-.32,1.1-.22.35.08.58.31.79.52.14.14.27.27.41.33.21.08.48,0,.79-.11.38-.12.82-.26,1.27-.11.11.04.19.12.23.23.04.11.02.23-.04.32-1.71,2.72-4.26,4.97-7.17,6.33-.19.09-.41,0-.5-.18-.09-.19,0-.41.18-.5,2.56-1.19,4.83-3.11,6.45-5.44-.06.02-.13.04-.2.06-.39.13-.83.27-1.29.09-.29-.11-.49-.31-.67-.49-.16-.16-.29-.29-.43-.32-.17-.04-.42.07-.61.17l-.25.12c-1.61.77-3.28,1.56-5.1,1.78-1.92.28-3.91.88-6.27,1.87-.83.35-1.7.75-2.47,1.29-.7.49-1.31,1.12-1.98,1.83-2.48,2.59-5.04,5.27-7.19,8.19-.21.28-.42.57-.62.86-.58.81-1.19,1.65-1.86,2.42-.98,1.12-2.11,2.1-3.21,3.04-.64.55-1.29,1.11-1.93,1.67-.67.58-1.34,1.17-2.02,1.75-1.44,1.25-3.23,2.8-5.39,3.2-.34.06-.7.1-1.05.14-.85.09-1.66.17-2.25.63-.07.05-.15.08-.23.08Z"
  />
  <path
    d="m148.21,173.38c-.67,0-1.34-.27-1.44-.94-.05-.33.08-.64.2-.87.05-.1.1-.19.15-.29-.18.12-.37.25-.55.37-.26.17-.53.33-.86.39-.44.08-.89-.1-1.09-.44-.28-.47-.07-.98.12-1.32,1.03-1.92,2.4-3.61,3.8-5.21-.27.25-.54.5-.81.76-.58.54-1.16,1.08-1.75,1.62-.28.27-.68.65-1.2.77-.56.13-1.27-.11-1.47-.72-.09-.28-.06-.59.09-.94.14-.37.34-.7.57-1.05,1.04-1.62,2.04-3.05,3.06-4.37.13-.16.36-.19.53-.07.16.13.19.36.07.53-1,1.31-1.99,2.72-3.02,4.32-.21.33-.39.61-.51.93-.08.19-.1.34-.07.43.05.17.35.28.59.22.29-.07.56-.31.85-.59.59-.54,1.17-1.08,1.75-1.62.58-.54,1.16-1.08,1.75-1.62.15-.14.39-.13.53.02.06.06.09.13.1.21,0,0,.01-.01.02-.02.14-.16.37-.17.53-.03.15.14.17.38.03.53-1.73,1.93-3.52,3.93-4.77,6.26-.15.28-.2.48-.14.58.04.07.18.11.32.09.18-.03.37-.15.56-.27,2.21-1.47,4.28-3.1,6.16-4.87.15-.14.39-.13.53.02.14.15.13.39-.02.53-1.13,1.06-2.32,2.07-3.56,3.02,0,.12-.04.23-.14.31-.62.51-1.13,1.16-1.49,1.87-.07.13-.15.29-.13.41.04.25.51.34.92.29.8-.1,1.59-.37,2.29-.79.69-.42,1.29-.96,1.96-1.58.45-.42.9-.84,1.36-1.26.45-.42.91-.84,1.36-1.26.15-.14.39-.13.53.02.14.15.13.39-.02.53-.45.42-.91.84-1.36,1.26-.45.42-.91.84-1.36,1.26-.4.38-.79.72-1.19,1.04.18.22.52.34.87.29.38-.05.73-.21,1.15-.45.68-.38,1.34-.84,1.98-1.36.52-.44,1.04-.93,1.26-1.54.07-.2.28-.29.48-.22.19.07.29.29.22.48-.29.78-.88,1.35-1.49,1.86-.68.55-1.38,1.04-2.09,1.44-.42.24-.89.48-1.42.54-.62.08-1.22-.15-1.57-.59-.1.07-.19.13-.29.19-.8.48-1.69.79-2.59.9-.1.01-.21.02-.32.02Zm20.41-15.64c-.14,0-.28-.08-.34-.22-.08-.19,0-.41.19-.5,2.01-.9,3.77-2.29,5.47-3.63l6.85-5.39c1.97-1.55,3.95-3.11,5.61-4.91.74-.8,1.44-1.67,2.12-2.5.97-1.2,1.98-2.45,3.14-3.53.19-.17.37-.34.56-.5.62-.55,1.2-1.06,1.64-1.71.91-1.32,1.08-3.02,1.25-4.66l.03-.25c.37-3.46.94-6.03,1.83-8.33.08-.19.29-.29.49-.21.19.08.29.29.21.49-.87,2.24-1.42,4.75-1.78,8.14l-.03.25c-.18,1.74-.37,3.53-1.38,5.01-.49.72-1.13,1.29-1.76,1.85-.18.16-.37.33-.55.49-1.12,1.05-2.11,2.27-3.07,3.45-.69.85-1.39,1.72-2.15,2.54-1.7,1.84-3.7,3.42-5.63,4.94l-6.91,5.44c-1.74,1.37-3.53,2.78-5.63,3.72-.05.02-.1.03-.15.03Zm9.09-37.78c-.1,0-.21-.02-.31-.07-.19-.08-.27-.31-.19-.5.08-.19.31-.27.49-.19.07-.01.24-.25.3-.57.4-2.15.69-4.36.97-6.5.35-2.66.7-5.38,1.29-8.05-.21.02-.4,0-.5,0-1.82-.14-3.65-.42-5.43-.84-.18-.04-.4-.1-.59-.24-.42-.35-.44-.9-.46-1.2-.02-.93-.04-1.81-.39-3.02-.04-.12,0-.26.08-.35.09-.1.22-.14.34-.12l.15.03c2.74.49,5.57,1,8.41,1.03.12,0,.23.06.3.16.07.1.09.23.04.34-1.42,3.96-1.98,8.23-2.51,12.37-.28,2.15-.57,4.37-.98,6.54-.07.37-.29.89-.68,1.09-.11.06-.23.09-.35.09Zm-3.94-20.81c.23,1.02.25,1.84.27,2.63,0,.27.04.53.16.63.06.04.18.07.29.1,1.75.41,3.54.69,5.33.82.43.04.58-.03.63-.1h0c.25-1.06.55-2.1.9-3.12-2.57-.08-5.11-.51-7.58-.96Zm-15.93-1s-.08,0-.12,0c-.48-.04-.9-.31-1.23-.52-1.86-1.2-3.73-2.42-5.59-3.63-.17-.11-.22-.35-.11-.52.11-.17.35-.22.52-.11,1.86,1.21,3.72,2.43,5.58,3.63.27.18.59.38.88.41.33.02.68-.17,1.04-.4,2.69-1.67,5-3.79,6.88-6.28.12-.17.36-.2.52-.07s.2.36.07.53c-1.93,2.57-4.32,4.74-7.09,6.46-.42.26-.87.51-1.38.51Z"
  />
  <path
    d="m178.16,120.39c-.24,0-.45-.1-.62-.18-1-.46-1.96-.98-2.87-1.55-1-.62-2.08-1.41-2.53-2.59-.49-1.22-.2-2.57.05-3.76l.03-.13c.63-3.11.9-6.29.81-9.46,0-.21.16-.38.36-.39.21,0,.38.16.39.36.09,3.23-.19,6.47-.83,9.64l-.03.13c-.24,1.14-.49,2.32-.08,3.33.38.98,1.3,1.65,2.23,2.23.89.55,1.83,1.05,2.79,1.5.13.06.25.12.33.11-.04-.2.09-.36.3-.4.2-.04.4.13.44.33.03.17,0,.35-.12.5-.12.17-.32.29-.53.31-.04,0-.08,0-.11,0Z"
  />
  <path
    d="m179.98,119.54c-.33,0-.65-.04-.95-.07l-1.02-.13c-.36-.05-.72-.09-1.09-.13-.21-.02-.35-.21-.33-.42.02-.21.21-.35.42-.33.37.04.73.09,1.1.14l.96.12c.59.07,1.15.14,1.63-.03.54-.18,1.01-.65,1.3-1.31.28-.64.37-1.36.43-2.05.13-1.43.17-2.91.2-4.35.07-3.05.15-6.2,1.12-9.15.09-.31.06-.38.06-.39-.01,0-.07-.03-.16-.05-.73-.18-1.38-.64-1.81-1.27-.12-.17-.07-.4.1-.52.17-.12.4-.07.52.1.32.47.81.82,1.35.96.06.01.15.03.24.07.92-2.91,2.17-5.68,3.71-8.23.11-.18.34-.23.51-.13.18.11.23.34.13.51-1.52,2.52-2.75,5.25-3.65,8.13-.04.11-.12.2-.22.24.08.31-.02.64-.07.8-.94,2.85-1.02,5.95-1.09,8.94-.04,1.44-.07,2.94-.2,4.4-.07.75-.17,1.54-.49,2.28-.38.86-1,1.47-1.75,1.72-.31.11-.63.14-.95.14Z"
  />
  <path
    d="m183.27,127.13c-.17,0-.32-.12-.36-.29-.74-3.04-1.13-6.15-1.17-9.23,0-.21.16-.38.37-.38h0c.21,0,.37.17.38.37.03,3.03.42,6.08,1.15,9.06.05.2-.07.4-.28.45-.03,0-.06.01-.09.01Z"
  />
  <path
    d="m182.65,123.77c-.1,0-.2-.04-.27-.12-.14-.15-.14-.39.01-.53,1.96-1.88,4.63-2.83,6.99-3.68,2.45-.88,5.23-1.87,8.06-1.67.24.02.49.04.74.07.82.08,1.59.16,2.29-.08.09-.03.18-.07.27-.11.21-.09.45-.18.71-.22.52-.08.99.1,1.22.47.03.05.05.11.06.17l.28,2.76c.02.21-.13.39-.34.41-.2,0-.39-.13-.41-.34l-.27-2.65c-.09-.08-.26-.11-.44-.08-.17.02-.35.1-.53.17-.1.04-.21.09-.31.12-.86.3-1.75.21-2.61.12-.24-.02-.48-.05-.71-.06-2.68-.17-5.38.78-7.76,1.63-2.4.86-4.88,1.75-6.72,3.51-.07.07-.17.1-.26.1Z"
  />
  <path
    d="m140.47,177.33c-.32,0-.58-.24-.7-.35-1.1-.98-2.64-1.59-4.84-1.93-.67-.1-1.34-.17-2-.24-1.14-.12-2.33-.24-3.47-.53-.1-.02-.19-.09-.24-.18-.05-.09-.06-.2-.03-.29.59-1.98.77-4.09.94-6.14.17-2.09.36-4.25.97-6.3.14-.49.31-.97.48-1.45.38-1.07.73-2.09.82-3.16.02-.21.2-.36.41-.34.21.02.36.2.34.41-.1,1.17-.49,2.28-.86,3.35-.16.47-.33.94-.47,1.41-.59,1.98-.77,4.1-.94,6.15-.16,1.96-.33,3.98-.86,5.91.98.21,2,.32,2.99.42.68.07,1.36.14,2.04.25,1.48.23,3.64.69,5.23,2.11.1.09.15.13.18.14,0-.01.02-.05.04-.1.85-1.8,1.72-3.62,2.17-5.52.41-1.74.49-3.58.57-5.2l.44-9.23c0-.21.19-.37.39-.36.21.01.37.19.36.39l-.44,9.23c-.08,1.65-.16,3.53-.59,5.34-.47,1.97-1.35,3.83-2.2,5.62-.05.11-.18.43-.51.54-.07.03-.15.04-.22.04Zm.07-37.7s-.02,0-.03,0c-.21-.02-.36-.2-.34-.41.09-1.08.14-2.18.14-3.26,0-.21.17-.38.38-.38s.38.17.38.38c0,1.1-.05,2.22-.14,3.33-.02.2-.18.34-.37.34Zm35.55-3.62s-.02,0-.02,0c-.21-.01-.36-.19-.35-.4.31-4.99.82-9.98,1.51-14.82.03-.21.21-.36.42-.32.21.03.35.22.32.42-.68,4.82-1.19,9.79-1.5,14.76-.01.2-.18.35-.37.35Zm-50.27-15.46c-1.5,0-3-.14-4.46-.28-.81-.08-1.63-.16-2.44-.21-2.12-.14-4.21-.12-6.21.06-.21.03-.39-.13-.41-.34-.02-.21.13-.39.34-.41,2.04-.18,4.17-.2,6.33-.06.82.05,1.64.13,2.46.21,1.74.17,3.54.34,5.3.26.18.01.38.15.39.36,0,.21-.15.38-.36.39-.31.01-.63.02-.94.02Zm57.02-1.57c-.16,0-.31-.11-.36-.27-.33-1.14.16-2.28.68-3.35,2.2-4.41,4.6-8.75,7.13-12.88.11-.18.34-.23.52-.12.18.11.23.34.12.52-2.52,4.11-4.9,8.43-7.1,12.82-.48.97-.89,1.92-.63,2.8.06.2-.06.41-.26.46-.03,0-.07.01-.1.01Zm18.47-.53c-.2,0-.36-.15-.37-.35-.19-3.22-.97-6.42-1.73-9.52-.46-1.85-.93-3.77-1.27-5.68-.14-.8-.26-1.6-.38-2.41-.18-1.23-.37-2.51-.64-3.74-.76-3.6-2.18-6.97-3.33-9.5-.8-1.77-1.72-3.59-3.26-4.66-1.6-1.11-3.58-1.27-5.67-1.44-1.88-.15-3.82-.3-5.51-1.21-.18-.1-.25-.33-.15-.51s.32-.25.51-.15c1.55.83,3.41.98,5.21,1.12,2.1.17,4.27.34,6.04,1.57,1.7,1.18,2.67,3.1,3.52,4.96,1.16,2.57,2.6,5.99,3.38,9.65.27,1.26.46,2.54.65,3.79.12.8.24,1.59.37,2.39.34,1.89.8,3.79,1.26,5.63.77,3.13,1.56,6.37,1.75,9.66.01.21-.15.38-.35.4,0,0-.02,0-.02,0Zm-32.64-1.26s-.05,0-.07,0c-.2-.04-.34-.23-.3-.44.75-4.06,1.17-8.26,1.25-12.46.03-1.38,0-2.94-.83-4.09l-.09-.12c-.14-.2-.32-.44-.36-.75-.05-.33.08-.65.22-.93.62-1.27,1.3-2.48,2.01-3.59.11-.17.34-.23.52-.12.17.11.23.34.12.52-.69,1.09-1.36,2.28-1.97,3.53-.09.18-.17.36-.15.5.02.13.12.27.22.41l.1.13c.96,1.32,1,3.03.97,4.53-.08,4.24-.51,8.48-1.27,12.58-.03.18-.19.31-.37.31Zm13.06-16.43s-.04,0-.06,0c-.2-.03-.34-.23-.31-.43.88-5.35-.6-10.91-1.9-15.81-.05-.2.07-.41.27-.46.2-.05.41.07.46.27,1.32,4.98,2.82,10.62,1.92,16.13-.03.18-.19.31-.37.31Zm-54.98-6.96c-.14,0-.28-.08-.34-.22l-2.68-5.97c-.08-.19,0-.41.19-.5.19-.08.41,0,.5.19l2.68,5.97c.08.19,0,.41-.19.5-.05.02-.1.03-.15.03Zm8.63-14.06c-.15,0-.3-.09-.35-.24-.07-.19.03-.41.22-.48l1.78-.67c.25-.09.5-.2.71-.35.41-.31.61-.88.8-1.44.07-.2.28-.3.48-.23.2.07.3.28.23.48-.22.63-.46,1.35-1.07,1.8-.29.21-.6.33-.89.44l-1.78.67s-.09.02-.13.02Zm10.63-1.35c-.14,0-.27-.08-.34-.21-.1-.2-.22-.42-.36-.47-.09-.03-.21-.03-.34-.03-.52-.01-1.04-.14-1.51-.36-.19-.09-.27-.31-.18-.5.09-.19.31-.27.5-.18.37.18.8.28,1.2.29.19,0,.38,0,.6.08.39.15.6.49.77.85.09.19.01.41-.18.5-.05.03-.11.04-.16.04Zm29.12-.31c-.13,0-.25-.07-.32-.19-.1-.18-.04-.41.13-.51l2.95-1.72c.18-.1.41-.04.51.13s.04.41-.13.51l-2.95,1.72c-.06.03-.12.05-.19.05Z"
  />
  <path
    d="m141.27,176.33c-.06,0-.13-.02-.19-.05-1.81-1.05-3.83-1.69-5.78-2.3l-.19-.06c-1.52-.48-3.1-.97-4.7-1.03-.21,0-.37-.18-.36-.39,0-.21.18-.34.39-.36,1.69.07,3.32.58,4.89,1.07l.19.06c1.9.6,4.05,1.28,5.93,2.37.18.1.24.33.14.51-.07.12-.2.19-.32.19Z"
  />
  <path
    d="m127.33,176.51c-.65,0-1.3-.06-1.95-.22-.79-.2-1.55-.53-2.28-.86-1.15-.51-2.23-.99-3.4-.94-.19,0-.31-.09-.37-.25-.06-.15,0-.33.12-.43,1.11-.85,1.58-2.36,1.91-3.87.33-1.53.59-3.13.77-4.75.15-1.37.23-2.78.32-4.14.08-1.37.17-2.78.32-4.18.24-2.14.63-4.28,1.02-6.36.49-2.62.99-5.32,1.16-8.01.01-.21.21-.38.4-.35.21.01.36.19.35.4-.18,2.73-.68,5.46-1.17,8.1-.38,2.06-.78,4.19-1.01,6.3-.15,1.37-.23,2.78-.32,4.14-.08,1.37-.17,2.78-.32,4.18-.18,1.65-.44,3.27-.78,4.83-.3,1.33-.69,2.68-1.53,3.67.99.14,1.93.55,2.84.96.7.31,1.43.63,2.16.81,1.81.45,3.64.08,5.57-.31,1.3-.26,2.65-.54,3.99-.54.23.02.38.17.38.37,0,.21-.17.38-.37.38-1.27,0-2.58.27-3.84.53-1.3.26-2.63.53-3.96.53Z"
  />
  <path
    d="m128.93,175.01c-1,0-2-.12-2.96-.37l-.28-.08c-.37-.1-.72-.2-1.08-.24-.09,0-.18,0-.28-.01-.22,0-.45-.02-.67-.06-.32-.06-.61-.17-.89-.28-.16-.06-.32-.13-.48-.18-.25-.08-.72-.17-1.02.05-.17.12-.4.08-.52-.08-.12-.17-.08-.4.08-.52.42-.31,1.02-.36,1.68-.16.18.06.36.13.54.2.26.1.5.2.74.24.19.04.38.04.56.05.11,0,.21,0,.31.02.43.04.83.15,1.22.26l.27.08c1.23.31,2.5.41,3.79.3.19,0,.39.13.41.34s-.13.39-.34.41c-.36.03-.72.05-1.08.05Zm58.64-.35s-.09,0-.14,0c-.3-.04-.55-.17-.76-.28l-.18-.09c-.84-.43-1.83-.52-2.79-.61l-2.69-.24c-.97-.09-1.94-.18-2.92-.27-1.24-.12-2.5-.24-3.61-.83-1.08-.57-1.89-1.5-2.59-2.32-.72-.84-1.45-1.68-2.36-2.17-.74-.4-1.92-.66-2.8-.07-.59.39-.92,1.07-1.26,1.78-.28.58-.57,1.17-1.02,1.66-.63.67-1.48,1.06-2.07,1.29-2.4.95-5,1.2-7.51.74-.19-.04-.32-.21-.3-.41l.1-1.06c.02-.21.2-.34.41-.34.21.02.36.2.34.41l-.07.72c2.27.36,4.6.1,6.76-.75.52-.21,1.27-.54,1.79-1.1.37-.41.63-.93.9-1.48.37-.77.76-1.57,1.52-2.07.95-.64,2.36-.63,3.58.03,1.03.56,1.8,1.45,2.54,2.31.69.8,1.44,1.67,2.4,2.17.98.52,2.16.63,3.31.74,1,.09,1.97.18,2.94.27l2.67.24c1.05.1,2.11.19,3.07.69l.19.1c.17.09.34.18.5.2.14.01.29-.04.31-.11.06-.2.26-.31.46-.26.2.06.32.26.26.46-.13.45-.57.66-.99.66Zm-45.21-15.65c-.13,0-.25-.05-.34-.13-.62-.21-1.17-.57-1.62-1.04-.14-.14-.14-.37,0-.52.27-.29.59-.49.91-.6.77-.23,1.6.16,1.84.85.18.55-.14,1.19-.54,1.38-.08.04-.16.05-.24.05Zm.19-.65h0,0Zm-1.32-.77c.33.27.71.48,1.11.6h.01c.06-.09.12-.25.08-.38-.1-.3-.53-.48-.9-.37-.1.03-.2.08-.3.15Z"
  />
  <path
    d="m186.13,179.48c-.1,0-.2-.04-.27-.12-.14-.15-.14-.39.01-.53.55-.53.92-1.27,1-2.02.02-.18.02-.37.03-.55.01-.41.02-.84.16-1.25.13-.38.35-.71.56-1.02.24-.35.47-.69.51-1.05.03-.31-.08-.64-.2-.99-.05-.16-.11-.33-.15-.49-.18-.66-.16-1.35-.15-2.02l.15-5.66c.02-.71.04-1.44.13-2.16.03-.25.07-.5.11-.76.08-.5.16-.98.16-1.46.02-.81-.16-1.59-.35-2.42-.06-.25-.11-.51-.17-.76-.31-1.48-.45-3.01-.59-4.49-.22-2.39-.45-4.86-1.4-7.07-.08-.19,0-.41.2-.49.19-.08.41,0,.49.2.99,2.31,1.23,4.85,1.46,7.29.14,1.46.28,2.97.58,4.41.05.25.11.5.16.75.19.84.38,1.71.37,2.59,0,.53-.09,1.06-.17,1.58-.04.24-.08.49-.11.73-.09.68-.11,1.4-.13,2.09l-.15,5.65c-.01.61-.02,1.25.13,1.81.04.15.09.29.14.44.14.41.28.83.23,1.3-.06.55-.35.98-.64,1.4-.19.28-.38.55-.47.83-.11.31-.12.66-.13,1.03,0,.2-.01.41-.03.61-.1.95-.54,1.83-1.22,2.49-.07.07-.17.1-.26.1Zm-29.58-7.23c-.15,0-.3-.09-.35-.25-.07-.2.03-.41.22-.48.9-.33,1.85-.45,2.76-.57.26-.03.52-.07.78-.11.96-.14,2.19-.4,3.11-1.13.16-.13.4-.1.53.06.13.16.1.4-.06.53-1.06.83-2.41,1.12-3.46,1.28-.26.04-.53.07-.79.11-.92.12-1.78.23-2.6.53-.04.02-.09.02-.13.02Zm15.91-3.12h0c-.21,0-.37-.17-.37-.38.01-.62,0-1.13-.25-1.53-.09-.14-.22-.29-.35-.43-.89-.94-1.79-1.8-2.67-2.53-.16-.13-.18-.37-.05-.53.13-.16.37-.18.53-.05.9.76,1.82,1.63,2.74,2.6.15.16.32.34.44.55.38.62.37,1.35.35,1.93,0,.21-.17.37-.38.37Z"
  />
  <path
    d="m135.26,286.95c-.17,0-.32-.11-.36-.28l-.7-2.54c-.83-3.05-1.7-6.21-2.07-9.41-.06-.54-.12-1.08-.17-1.63-.23-2.37-.46-4.82-1.71-6.79-1.62-2.17-1.69-4.48-1.76-6.71-.04-1.25-.07-2.44-.4-3.52-.04-.12-.08-.24-.12-.37-.18-.54-.36-1.09-.25-1.7.08-.53.39-.98.64-1.34,1.63-2.35,3.51-4.58,5.32-6.72,2.09-2.47,4.24-5.02,6.02-7.77.11-.17.34-.22.52-.11.17.11.22.34.11.52-1.8,2.79-3.97,5.36-6.07,7.84-1.8,2.13-3.67,4.34-5.28,6.67-.21.31-.46.67-.52,1.04-.08.43.07.88.22,1.34.04.13.09.26.12.39.35,1.17.39,2.41.43,3.71.06,2.11.13,4.3,1.63,6.3,1.36,2.14,1.6,4.68,1.84,7.14.05.54.1,1.08.17,1.61.37,3.15,1.23,6.27,2.05,9.3l.7,2.54c.06.2-.06.41-.26.46-.03,0-.07.01-.1.01Zm-5.46-36.6c-.05,0-.11-.01-.16-.04-.19-.09-.27-.31-.18-.5.5-1.08.31-2.3.11-3.59-.11-.68-.21-1.39-.22-2.09,0-1.31.36-2.58.72-3.8.37-1.28.73-2.5.68-3.75-.03-1.01-.33-1.98-.64-3-.18-.6-.37-1.22-.51-1.85-.38-1.81-.29-3.71-.21-5.54.1-2.14.2-4.18-.4-6.08-.17,0-.32-.13-.35-.3-.15-.74-.47-1.43-.82-2.16-.2-.42-.4-.85-.57-1.28-.46-1.17-.64-2.43-.81-3.54l-.1-.65c-.2-1.34-.4-2.72-.55-4.08-.54-4.84-.43-9.79-.33-14.58v-.25c.03-1.33.06-2.67.09-4-.09.02-.19.02-.28-.03-.49-.27-.8-.84-.83-1.52-.02-.42.07-.82.15-1.21l.06-.29c.4-1.94.14-3.95-.11-5.91l-.53-4.16c-.03-.21.12-.39.32-.42.21-.02.39.12.42.32l.53,4.16c.26,2.01.52,4.09.1,6.15l-.06.3c-.08.36-.15.69-.14,1.01.01.3.12.68.38.86.08-3.86.17-7.72.26-11.59l.02-.68c0-.21.18-.37.38-.37.21,0,.37.18.37.38l-.02.68c-.12,5.44-.24,10.88-.35,16.32v.25c-.11,4.76-.21,9.68.32,14.48.15,1.35.35,2.72.55,4.05l.1.65c.16,1.07.34,2.28.76,3.38.16.42.35.82.55,1.23.23.48.47.98.65,1.49.11.03.2.1.24.21.99,2.27.87,4.77.76,7.19-.08,1.78-.17,3.63.19,5.35.13.6.31,1.2.49,1.78.31,1.02.64,2.08.68,3.2.05,1.37-.34,2.7-.71,3.99-.36,1.23-.69,2.38-.69,3.59,0,.64.11,1.32.21,1.98.21,1.34.42,2.73-.17,4.02-.06.14-.2.22-.34.22Zm56.64-82.24c-.19,0-.35-.14-.37-.33-.26-2.34-.28-4.68-.05-6.96.02-.2.21-.35.41-.33.21.02.36.21.34.41-.23,2.23-.21,4.51.05,6.8.02.21-.12.39-.33.42-.01,0-.03,0-.04,0Z"
  />
  <path
    d="m135.99,288.35s-.03,0-.04,0c-.21-.02-.35-.21-.33-.42.18-1.49.11-3.03-.2-4.56l-.1-.46c-.08-.37-.17-.76-.21-1.15-.21-1.92.54-3.71,1.27-5.44.41-.98.84-2,1.08-3.02.05-.2.25-.33.45-.28.2.05.33.25.28.45-.25,1.08-.69,2.13-1.12,3.14-.72,1.72-1.4,3.35-1.21,5.07.04.36.12.72.2,1.08l.1.47c.33,1.61.4,3.23.21,4.8-.02.19-.18.33-.37.33Z"
  />
  <path
    d="m148.58,301.14c-.2,0-.39-.04-.58-.14-.28-.14-.45-.39-.6-.61-.04-.06-.08-.12-.12-.18-.29-.38-.75-.64-1.2-.88-1.73-.94-3.6-1.84-5.56-2.07-2.33-.29-4.74.38-6.62,1.84-.56.44-.98.69-1.33.5-.09-.05-.23-.16-.27-.38-.21-.23-.23-.56-.24-.71-.21-3.4-.07-6.86.41-10.27.02-.12.09-.22.19-.28,3.2-1.73,6.81-2.54,10.47-2.36,3.48.17,6.81,1.21,10.02,2.21.1.03.2.11.24.2.05.09.07.21.03.3-.77,2.01-.94,4.13-1.13,6.38-.13,1.54-.26,3.14-.6,4.68-.06.25-.13.51-.3.73-.19.22-.42.33-.61.42-.58.25-1.13.42-1.69.54-.17.04-.35.06-.52.06Zm-9.13-4.69c.39,0,.77.02,1.16.07,2.09.25,4.04,1.18,5.83,2.16.49.27,1.05.58,1.44,1.09.05.07.1.14.15.21.11.16.2.3.32.36.15.08.38.05.6,0,.51-.11,1.01-.26,1.54-.49.13-.06.26-.12.33-.21.08-.09.12-.27.15-.42.33-1.49.46-3.06.59-4.58.17-2.07.35-4.21,1.04-6.21-3.09-.96-6.25-1.91-9.5-2.07-3.45-.18-6.87.58-9.9,2.18-.45,3.3-.58,6.64-.38,9.93,0,.14.02.2.03.23.04.02.07.04.1.08.02.02.03.04.04.06.1-.06.24-.16.44-.32,1.72-1.34,3.86-2.07,6.01-2.07Z"
  />
  <path
    d="m133.64,313.24c-.27,0-.54-.02-.81-.04-1.8-.13-3.61-.36-5.39-.7-.73-.13-1.49-.31-2.09-.82-.74-.63-1.01-1.62-1.15-2.42-.38-2.02-.14-3.64.71-4.79.56-.74,1.3-1.23,2.15-1.75l5.58-3.48c.18-.11.41-.05.52.12.11.18.06.41-.12.52l-5.58,3.48c-.78.48-1.47.93-1.95,1.56-.72.98-.92,2.39-.58,4.2.12.67.34,1.5.9,1.98.46.39,1.12.54,1.75.66,1.75.33,3.53.56,5.3.69.48.03.98.07,1.45-.03.7-.14,1.32-.52,1.98-.93.66-.41,1.33-.83,2.12-1l.21-.04c.23-.04.45-.09.61-.19.18-.11.33-.31.47-.51.59-.82,1.18-1.64,1.76-2.47.72-1.01,1.47-2.06,2.47-2.9,1.04-.85,2.26-1.4,3.45-1.94.35-.16.69-.31,1.03-.47.49-.23,1-.5,1.38-.9.38-.4.56-.89.48-1.31-.04-.2.1-.4.3-.43.21-.03.4.1.43.3.12.65-.14,1.38-.67,1.95-.47.49-1.05.8-1.6,1.07-.34.16-.7.32-1.05.48-1.14.51-2.32,1.04-3.28,1.83-.93.77-1.65,1.78-2.34,2.75-.58.83-1.17,1.65-1.76,2.48-.18.26-.38.53-.69.71-.28.17-.59.24-.87.29l-.19.04c-.66.15-1.25.52-1.89.91-.69.42-1.4.86-2.23,1.02-.28.06-.56.08-.84.08Z"
  />
  <path
    d="m145.73,300.66c-.47,0-.94-.14-1.29-.44-.38-.31-.61-.72-.83-1.13-.19-.34-.36-.67-.62-.89-.11-.09-.23-.16-.35-.23-.23-.14-.5-.3-.7-.57-.12-.17-.09-.4.07-.53.16-.12.4-.09.53.07.11.15.29.25.49.38.15.09.3.19.44.3.37.31.59.72.8,1.11.19.35.37.69.64.9.52.42,1.41.34,1.96-.18.15-.14.39-.14.53.01.14.15.14.39-.01.53-.45.43-1.06.65-1.65.65Zm-12.67-7.8c-.21,0-.38-.17-.38-.38s.17-.38.38-.38c.75,0,1.45-.33,2.2-.67l.36-.16c3.31-1.44,7.29-1.76,12.51-1,1.11.16,2.46.49,2.98,1.64.09.19,0,.41-.19.5-.19.08-.41,0-.5-.19-.37-.82-1.48-1.07-2.41-1.21-5.08-.74-8.93-.44-12.1.94l-.35.16c-.79.36-1.6.74-2.52.74Zm19.25-4.98s-.09,0-.13-.02c-.19-.07-.29-.29-.22-.48,1.15-3.07.38-6.48-.38-9.78l-.17-.75c-.65-2.84-1.15-5.75-1.5-8.66-.02-.21.12-.39.33-.42.21-.03.39.12.42.33.34,2.88.84,5.77,1.48,8.59l.17.75c.78,3.41,1.58,6.93.35,10.21-.06.15-.2.24-.35.24Zm-6.8-3.03c-.15,0-.3-.09-.35-.24-.12-.33-.52-.54-.74-.64-.14-.06-.29-.11-.44-.17-.27-.1-.56-.2-.83-.35-.56-.33-1.03-.89-1.33-1.58-.25-.59-.4-1.21-.53-1.85-.04-.2.09-.4.29-.45.2-.04.4.09.44.29.13.6.26,1.18.49,1.71.23.54.59.98,1.01,1.22.21.12.45.2.7.29.16.06.33.12.49.18.59.25.99.62,1.15,1.07.07.19-.03.41-.22.48-.04.02-.09.02-.13.02Zm6.57-47.38c-.09,0-.18-.03-.25-.1-.15-.14-.17-.38-.03-.53.37-.41.69-.89.95-1.42.31-.63.5-1.31.68-2.01.65-2.53,1.12-5.1,1.39-7.61.02-.21.21-.35.41-.33.21.02.35.21.33.41-.27,2.55-.75,5.15-1.41,7.72-.18.71-.39,1.46-.73,2.15-.29.59-.65,1.12-1.06,1.59-.07.08-.18.12-.28.12Zm-4.82-6.34c-.07,0-.15-.02-.21-.07-.17-.12-.21-.35-.09-.52l7.02-10.07c.12-.17.35-.21.52-.09.17.12.21.35.09.52l-7.02,10.07c-.07.1-.19.16-.31.16Z"
  />
  <path
    d="m152.36,277.67s-.03,0-.04,0c-.21-.02-.36-.21-.33-.41.92-8.76,1.26-17.65.99-26.41-.04-1.42-.1-3.11-.26-4.82-.12-1.25-.29-2.53-.46-3.77-.55-4.05-1.11-8.25.02-12.23.06-.2.26-.31.46-.26.2.06.31.26.26.46-1.09,3.83-.54,7.95,0,11.93.17,1.25.34,2.54.46,3.8.16,1.74.23,3.44.27,4.87.26,8.79-.07,17.71-1,26.51-.02.19-.18.34-.37.34Zm-4.14-23.16s-.09,0-.13-.02c-.19-.07-.29-.29-.22-.48.28-.76-.55-1.61-1.07-2.05-1.69-1.43-3.56-2.6-5.55-3.48-.19-.08-.27-.31-.19-.5.08-.19.31-.27.49-.19,2.06.91,3.99,2.12,5.73,3.59,1.17.99,1.62,1.99,1.29,2.88-.06.15-.2.25-.35.25Zm11.73-16.1c-.15,0-.29-.09-.35-.24l-2.71-6.9c-.93-2.37-1.88-4.79-2.31-7.32-.65-3.78-.15-7.65.33-11.39.25-1.96.52-3.99.61-5.98.11-2.45-.03-4.93-.16-7.34l-.21-3.67c-.05-1.01-.22-2.21-1.07-2.58-.19-.08-.28-.3-.19-.49.08-.19.3-.28.49-.19,1.24.54,1.46,2.1,1.52,3.23l.21,3.66c.14,2.42.28,4.93.16,7.42-.09,2.02-.36,4.06-.61,6.04-.48,3.68-.97,7.49-.34,11.17.42,2.46,1.35,4.84,2.26,7.15l2.72,6.93c.08.19-.02.41-.21.49-.04.02-.09.03-.14.03Zm-5.16-47.96c-.21,0-.37-.17-.38-.37l-.09-9.14c0-.21.16-.38.37-.38h0c.21,0,.37.17.38.37l.09,9.14c0,.21-.16.38-.37.38h0Z"
  />
  <path
    d="m159.52,257.45s-.04,0-.06,0c-.2-.03-.34-.23-.31-.43.39-2.33.36-4.69-.09-7.01.04-1.87.1-3.67.17-5.46v-.16c.16-4.57.33-9.3-.34-13.88-.03-.21.11-.4.32-.43.2-.03.4.11.43.32.68,4.64.51,9.4.36,14.01v.16c-.07,1.79-.13,3.58-.18,5.37.46,2.33.49,4.78.09,7.2-.03.18-.19.31-.37.31Z"
  />
  <path
    d="m161.87,304.63c-.95,0-1.63-.92-1.87-1.82-.28-1.06-.2-2.16-.13-3.22.08-1.16.16-2.25-.2-3.25-.23-.64-.65-1.25-1.05-1.84-.66-.96-1.35-1.95-1.31-3.19,0-.2.17-.37.38-.37.02,0,.07,0,.1.01,1.98.01,3.89-.53,5.9-1.13,1.21-.36,2.47-.74,3.74-.96,2.81-.49,5.64-.26,8.41.12.02-.02.03-.05.06-.07,1.19-1.11,1.6-2.93,1.93-4.39,1.16-5.31,2.19-10.13,3.14-14.74.59-2.86.85-5.68,1.1-8.41l.04-.41c.22-2.48.45-5.05.2-7.55-.13-1.28-.39-2.58-.64-3.83-.23-1.17-.47-2.37-.61-3.58-.11-.95-.16-1.96.15-2.93.15-.45.37-.86.59-1.26.2-.37.39-.72.52-1.1.5-1.42.12-2.92-.28-4.51-.18-.73-.38-1.48-.48-2.23-.41-3.03.69-6.03,1.66-8.68.07-.2.28-.3.48-.22.19.07.29.29.22.48-.94,2.57-2.01,5.47-1.62,8.32.09.71.28,1.44.46,2.14.41,1.63.84,3.31.26,4.95-.15.43-.37.83-.57,1.21-.21.38-.41.75-.54,1.13-.27.83-.22,1.75-.12,2.61.14,1.18.37,2.37.6,3.52.25,1.27.51,2.58.65,3.9.27,2.57.03,5.17-.2,7.69l-.04.42c-.25,2.75-.52,5.6-1.11,8.49-.96,4.61-1.98,9.44-3.15,14.75-.32,1.42-.71,3.16-1.8,4.42.39.06.78.11,1.17.17.61.09,1.3.24,1.7.77.49.66.3,1.52.16,2.16-.71,3.18-.47,6.61-.27,9.64,0,.14-.06.28-.19.35-.12.07-.28.07-.4-.01-1.15-.77-2.33-1.56-3.66-1.99-1.86-.59-4.11-.44-6.34.42-2.11.82-4.03,2.19-5.66,3.41-.36.27-.75.56-1.26.61-.04,0-.09,0-.13,0Zm-3.8-12.93c.11.83.62,1.58,1.16,2.37.43.63.88,1.27,1.14,2.01.42,1.16.33,2.38.24,3.56-.08,1.05-.15,2.04.1,2.98.17.65.64,1.3,1.21,1.26.29-.02.57-.23.86-.45,1.69-1.26,3.65-2.67,5.85-3.52,2.39-.92,4.82-1.08,6.84-.44,1.18.38,2.25,1.02,3.22,1.66-.19-2.89-.33-6.08.34-9.1.12-.52.26-1.16-.03-1.54-.23-.31-.73-.4-1.21-.48-3.37-.5-6.85-1.02-10.25-.42-1.22.21-2.46.58-3.65.94-1.88.56-3.82,1.14-5.82,1.16Zm2.23-1.03s-.04,0-.06,0c-.2-.03-.35-.22-.31-.43.11-.73,0-1.46-.1-2.25-.1-.77-.21-1.56-.11-2.36.01-.12.03-.24.05-.37.06-.39.11-.76-.02-1.04-.07-.16-.19-.3-.32-.45l-.11-.13c-1.04-1.27-.99-3.02-.85-4.7-.06-4.54-.38-9.44-.68-14.18-.12-1.88-.26-4,.35-5.96.41-1.3,1.13-2.51,1.83-3.63,2.13-3.42,4.42-6.89,6.82-10.31.12-.17.35-.21.52-.09.17.12.21.35.09.52-2.39,3.41-4.68,6.87-6.8,10.28-.68,1.08-1.37,2.23-1.75,3.45-.57,1.84-.44,3.88-.32,5.68.31,4.76.63,9.67.68,14.27-.13,1.63-.18,3.14.68,4.2l.1.12c.15.17.32.37.44.62.23.49.15,1.01.08,1.47-.02.12-.03.23-.05.34-.09.71,0,1.42.11,2.17.11.8.22,1.63.1,2.46-.03.19-.19.32-.37.32Zm20.11-61.49c-.08,0-.17-.03-.24-.09-.16-.13-.18-.37-.05-.53,1.42-1.7,3.04-3.97,2.93-6.41.29-1.62.22-2.79.16-3.91-.02-.44-.05-.87-.05-1.3,0-1.34.2-2.68.4-3.98l.11-.72c1.13-7.45.99-15.15.85-22.58l-.03-1.93c-.02-.85-.03-1.69.12-2.51.06-.36.16-.71.25-1.07.05-.17.09-.34.13-.51.76-3.1.27-6.45-.16-9.4-.03-.2.11-.39.32-.42.21-.03.4.11.43.32.44,3.02.94,6.44.14,9.68-.04.18-.09.35-.14.53-.09.33-.18.67-.24,1.01-.14.76-.13,1.55-.11,2.36l.03,1.93c.14,7.47.28,15.2-.86,22.71l-.11.73c-.2,1.27-.4,2.58-.39,3.86,0,.41.02.83.05,1.26.06,1.12.13,2.38-.17,4.01.13,2.62-1.59,5.04-3.1,6.84-.07.09-.18.13-.29.13Zm-39.49-3.38c-.2,0-.37-.16-.37-.36-.04-.84.1-1.69.23-2.51.22-1.34.42-2.6-.11-3.71-.21-.43-.51-.8-.85-1.22-2.03-2.46-4.13-4.83-6.24-7.05-.14-.15-.14-.39.01-.53.15-.14.39-.14.53.01,2.12,2.23,4.23,4.61,6.27,7.09.36.43.7.87.95,1.37.63,1.33.4,2.76.17,4.15-.13.78-.26,1.59-.23,2.35,0,.21-.15.38-.36.39h-.02Zm-6-36.51c-.19,0-.35-.14-.37-.33-.03-.21.12-.39.32-.42l5.6-.74c.21-.02.39.12.42.32s-.12.39-.32.42l-5.6.74s-.03,0-.05,0Zm6.2-6.5s-.06,0-.1-.01l-8.41-2.21c-.2-.05-.32-.26-.27-.46.05-.2.25-.32.46-.27l8.41,2.21c.2.05.32.26.27.46-.04.17-.2.28-.36.28Z"
  />
  <path
    d="m179.64,316.62c-.5,0-1-.05-1.54-.1-1.38-.14-2.74-.28-4.12-.43-.27-.03-.59-.07-.88-.23-.3-.18-.48-.45-.64-.69-.06-.09-.12-.19-.19-.28-.3-.38-.76-.59-1.25-.81-.33-.15-.67-.31-.99-.53-.5-.34-.89-.82-1.17-1.19-.81-1.05-1.49-2.2-2.03-3.4-.12-.26-.23-.53-.35-.8-.32-.76-.63-1.48-1.08-2.12-.67-.93-1.58-1.5-2.44-1.43-.21-.01-.38-.15-.39-.36,0-.21.15-.38.36-.39,1.12-.02,2.27.6,3.08,1.74.5.7.84,1.5,1.17,2.26.11.26.22.52.34.78.52,1.15,1.17,2.25,1.95,3.26.25.33.59.75,1,1.03.26.18.56.32.88.46.55.25,1.11.51,1.52,1.02.08.1.16.22.24.33.13.2.24.36.39.45.16.09.37.12.57.14,1.38.15,2.75.29,4.12.43.93.1,1.75.16,2.54,0,.89-.19,1.8-.7,2.72-1.53,1.17-1.05,1.81-2.13,1.9-3.2.15-1.64-.97-3.1-1.93-4.04-.44-.43-.93-.83-1.39-1.22-.79-.66-1.61-1.34-2.27-2.18-.09-.11-.19-.24-.29-.36-.53-.67-1.07-1.37-1.79-1.42-.21-.01-.36-.19-.35-.4.01-.21.19-.36.4-.35,1.06.07,1.74.94,2.33,1.71l.28.35c.62.78,1.37,1.41,2.17,2.07.48.4.97.81,1.44,1.26,1.08,1.05,2.34,2.71,2.16,4.64-.11,1.27-.83,2.51-2.15,3.69-1.01.92-2.04,1.49-3.06,1.71-.41.09-.82.12-1.24.12Zm-19.84-20.6c-.19,0-.36-.15-.37-.35-.02-.21.14-.39.35-.4.5-.04.96-.31,1.44-.61.28-.17.57-.34.87-.47.71-.31,1.46-.4,2.2-.49h.13c.82-.11,1.64-.23,2.45-.35,1.56-.23,3.17-.46,4.78-.54,2.85-.15,5.3.26,7.27,1.23.19.09.26.32.17.5-.09.19-.32.27-.5.17-1.86-.91-4.18-1.3-6.9-1.15-1.57.08-3.17.31-4.71.54-.82.12-1.65.24-2.47.34l-.13.02c-.68.08-1.38.17-1.99.43-.27.12-.53.27-.79.43-.54.32-1.1.66-1.77.71,0,0-.02,0-.03,0Zm3.68-8.18c-.08,0-.16-.03-.23-.08-.16-.13-.19-.36-.06-.53,3.17-4.01,5.64-8.49,7.33-13.32.16-.46.32-.93.48-1.4.61-1.83,1.25-3.71,2.31-5.36-2.67-1.07-5.34-2.15-8.01-3.23l-.65-.26c-.19-.08-.28-.3-.21-.49.08-.19.3-.28.49-.21l.65.26c2.81,1.14,5.63,2.28,8.44,3.4.11.04.19.13.22.24.03.11.01.23-.05.32-1.16,1.65-1.83,3.63-2.48,5.56-.16.47-.32.94-.48,1.41-1.72,4.9-4.23,9.46-7.45,13.53-.07.09-.18.14-.29.14Zm12.49-.68c-.11,0-.21-.05-.29-.13-.56-.67-.7-1.56-.76-2.35-.12-1.53-.07-3.06.14-4.57.03-.2.22-.35.42-.32.21.03.35.22.32.42-.2,1.45-.25,2.93-.14,4.4.05.67.16,1.42.58,1.93.13.16.11.4-.05.53-.07.06-.16.09-.24.09Zm-9.68-57.9s-.05,0-.08,0c-.2-.04-.33-.24-.29-.44l4.68-22.79c.04-.2.24-.34.44-.29.2.04.33.24.29.44l-4.68,22.79c-.04.18-.19.3-.37.3Zm12.63-31.22s-.05,0-.08,0l-9.04-2.02c-.2-.05-.33-.25-.28-.45.05-.2.24-.33.45-.28l9.04,2.02c.2.05.33.25.28.45-.04.17-.19.29-.37.29Zm-4.04-9.66c-1.92,0-3.83-.12-5.7-.23-.21-.01-.36-.19-.35-.4.01-.21.2-.37.4-.35,2.4.15,4.88.3,7.33.2.87-.04,1.59-.11,2.27-.36,1.07-.4,1.96-1.32,2.33-2.4.07-.2.28-.3.48-.24.2.07.3.28.24.47-.44,1.31-1.48,2.38-2.78,2.87-.77.28-1.55.36-2.5.41-.57.02-1.14.03-1.71.03Zm-16.4-.22c-.13,0-.26-.07-.33-.2-.1-.18-.03-.41.16-.51,1.75-.92,3.06-2.62,3.51-4.54.05-.2.25-.33.45-.28.2.05.33.25.28.45-.5,2.13-1.95,4.01-3.89,5.03-.06.03-.12.04-.17.04Zm-3.68-7.2c-.2,0-.37-.16-.38-.36-.09-2.71-.06-5.46.1-8.18.01-.21.19-.38.4-.35.21.01.36.19.35.4-.16,2.69-.2,5.41-.1,8.11,0,.21-.16.38-.36.39h-.01Zm-30.49-2.23c-.06,0-.11-.01-.16-.04-1.09-.53-2.23-.95-3.41-1.25-.18-.04-.44-.11-.6-.36-.1-.19-.12-.36-.1-.54.03-.22.09-.41.17-.59.01-.03.03-.07.05-.12,0,0,.02,0,.04,0-.04-.02-.08-.05-.11-.08-.07-.08-.11-.18-.1-.28l.07-.86c.02-.21.2-.35.4-.34.21.02.36.2.34.4l-.05.62c.12.12.19.29.19.47s-.07.31-.12.41c0,0-.04.09-.04.09-.05.11-.09.24-.11.37,0,.05.08.07.13.08,1.23.31,2.43.75,3.56,1.3.19.09.26.32.17.5-.07.13-.2.21-.34.21Z"
  />
  <path d="m142.75,49.31h29.35s0,5.15,0,5.15h-29.35s0-5.15,0-5.15Z" />
  <path
    d="m172.1,54.84h-29.35c-.21,0-.38-.17-.38-.38v-5.15c0-.21.17-.38.38-.38h29.35c.21,0,.38.17.38.38v5.15c0,.21-.17.38-.38.38Zm-28.97-.75h28.6v-4.4h-28.6v4.4Z"
  />
</svg>
