<svg xmlns="http://www.w3.org/2000/svg" viewBox="0 0 320 320" opacity="0.6">
  <path
    d="m142.86,78.19c-.12,0-.24-.07-.28-.2-.06-.16.02-.33.18-.39.8-.31,2.48-1.66,2.98-2.51.34-.58.39-1.19.44-1.9.03-.43.06-.87.17-1.34.6-2.82,1.67-4.42,3.93-5.9,4.27-2.81,8.83-2.55,13.12-1.86.08,0,.14.05.19.11.7.89.8,1.97.28,2.88-.55.97-1.69,1.5-2.92,1.36-.17-.02-.29-.17-.26-.34.02-.17.16-.28.34-.27.99.12,1.88-.28,2.31-1.05.38-.66.31-1.45-.16-2.12-4.13-.66-8.51-.88-12.57,1.78-2.13,1.4-3.09,2.85-3.67,5.52-.09.43-.12.85-.15,1.26-.06.75-.11,1.46-.52,2.17-.58.98-2.37,2.42-3.29,2.77-.04,0-.07.02-.11.02h0Z"
  />
  <path
    d="m161.98,72.22c-.06,0-.13-.02-.18-.06-.14-.1-.16-.29-.06-.43.21-.28.28-.57.23-.88-.19-1.08-1.88-2.22-2.89-2.9-.17-.11-.32-.22-.46-.31-1.56-1.09-2.38-.71-3.43-.23-.75.35-1.6.74-2.8.63-.17-.02-.29-.16-.28-.33.02-.17.15-.3.33-.27,1.04.1,1.78-.24,2.49-.57,1.07-.5,2.18-1.02,4.03.28.13.09.28.19.45.3,1.16.78,2.92,1.97,3.15,3.31.08.48-.03.93-.34,1.35-.06.08-.15.12-.25.12h0Z"
  />
  <path
    d="m160.5,74.74c-1.47,0-3.43-.9-3.86-1.18-.14-.09-.18-.28-.09-.42s.28-.18.42-.09c.75.49,3.55,1.53,4.36.87.36-.29.18-.98-.03-1.5-.77-1.91-4.35-2.35-6.18-1.62-.16.06-.33,0-.4-.17s0-.33.17-.4c1.87-.75,6.01-.44,6.97,1.96.42,1.03.36,1.77-.15,2.19-.31.25-.74.35-1.22.35h.01Z"
  />
  <path
    d="m156.98,78.97c-.48,0-.9-.08-1.14-.23-.14-.09-.19-.28-.1-.42s.28-.19.42-.1c.46.29,2.52.17,3.13-.76.54-.82.21-1.49-.38-2.51-.13-.23-.27-.47-.39-.71-.08-.15-.02-.33.14-.41.15-.07.33-.02.41.14.12.23.25.46.37.68.56.97,1.14,1.98.36,3.15-.54.82-1.82,1.17-2.82,1.17Z"
  />
  <path
    d="m148.89,86.16c-.16,0-.29-.12-.3-.29-.06-.04-.13-.09-.19-.12-.47-.28-.87-.53-.86-.88,0-.07.03-.26.26-.38.15-.08.33-.02.41.13.05.09.05.19,0,.27.13.11.37.25.51.33.19.12.35.21.45.31,5.48-.38,6.14-5.67,6.16-9.64,0-.17.14-.3.3-.3.17,0,.3.14.3.31-.02,4.29-.76,10.01-7.02,10.26h-.02Z"
  />
  <path
    d="m121.15,119.96c-.08,0-.16-.03-.22-.09-.12-.12-.12-.31,0-.43,3.75-3.69,11.04-6.45,16.36-8.46l.28-.11c2.94-1.11,5.07-2.12,7.27-3.97.88-.75,1.8-1.65,2.69-2.53,1.42-1.41,2.89-2.86,4.37-3.82.28-1.9-.36-4.34-.87-6.32-.09-.35-.18-.68-.25-.99-.13-.53-.25-1.07-.36-1.61-.35-1.64-.72-3.33-1.51-4.79-.9-1.68-2.25-3.12-3.55-4.51l-.19-.2c-.3-.32-.62-.71-.96-1.13-.97-1.19-2.18-2.67-3.42-3.01-.16-.04-.26-.21-.21-.37.04-.16.21-.26.37-.22,1.44.39,2.66,1.89,3.74,3.21.33.41.65.79.94,1.1l.19.2c1.33,1.42,2.7,2.89,3.65,4.64.83,1.54,1.2,3.27,1.57,4.95.12.54.23,1.07.36,1.59.08.31.16.64.25.99.54,2.08,1.21,4.66.86,6.71,0,.09-.06.16-.14.21-1.47.93-2.95,2.39-4.39,3.81-.9.89-1.82,1.81-2.73,2.57-2.25,1.9-4.52,2.97-7.44,4.08l-.28.11c-5.27,2-12.49,4.73-16.15,8.33-.06.06-.14.09-.21.09l-.02-.03Z"
  />
  <path
    d="m122.34,115.99c-.1,0-.2-.05-.26-.14-.09-.14-.05-.33.09-.42.56-.36,1.23-.85,1.94-1.37,1.28-.93,2.72-1.98,4.05-2.68.64-.34,1.41-.68,2.24-1.04,1.87-.82,3.98-1.75,4.84-2.81.11-.13.3-.15.43-.04.13.11.15.3.05.43-.95,1.18-3.14,2.14-5.07,2.98-.81.36-1.58.69-2.2,1.02-1.29.68-2.72,1.72-3.98,2.63-.72.52-1.4,1.02-1.97,1.39-.05.03-.11.05-.16.05Z"
  />
  <path
    d="m119.38,123.54c-1.31,0-2.59-.4-3.78-1.19-6.05-4.05-8.77-9.59-8.1-16.45.63-6.45,6.42-10.35,11.53-13.8.87-.59,1.73-1.17,2.54-1.74l1.72-1.22c5.66-4.03,11.52-8.2,17.42-11.92.14-.09.33-.05.42.1.09.14.05.33-.1.42-5.89,3.71-11.74,7.87-17.39,11.9l-1.72,1.22c-.81.58-1.67,1.16-2.55,1.75-5,3.37-10.66,7.18-11.27,13.35-.66,6.71,1.9,11.91,7.83,15.88,3.67,2.46,7.08.27,8.79-1.26,2.14-1.91,4.31-3.81,6.46-5.7l1.57-1.37c.15-.13.29-.27.44-.41.22-.22.45-.45.73-.65.13-.1.33-.07.43.06s.08.33-.06.43c-.24.18-.45.39-.67.6-.15.15-.3.29-.46.44l-1.57,1.37c-2.16,1.89-4.32,3.78-6.46,5.69-1.86,1.66-3.84,2.5-5.75,2.5Zm40.11-63.85c-.07,0-.14-.02-.19-.07-.35-.29-1.43-.74-1.97-.57-.13.04-.19.11-.23.22-.05.16-.22.26-.38.21s-.26-.21-.21-.38c.09-.32.31-.54.64-.64.82-.25,2.16.37,2.54.69.13.11.15.3.04.43-.06.07-.15.11-.23.11h-.01Zm3.6,0c-.36,0-.72-.03-1.07-.25-.14-.09-.19-.28-.1-.42s.28-.19.42-.1c.27.17.59.16.96.16h.04c.03-.19.12-.36.26-.5.28-.29.72-.43,1.2-.4.17,0,.29.16.28.33-.02.17-.13.3-.33.28-.28-.03-.56.06-.71.21-.09.09-.12.21-.1.35,0,.09-.02.18-.07.24-.06.07-.14.11-.23.1h-.55Z"
  />
  <path
    d="m157.27,63.86c-.13,0-.3-.15-.35-.26-.02-.04-.03-.08-.03-.13,0-.3.02-.62.03-.94.05-1.17.1-2.37-.21-3.35-.05-.16.05-.33.21-.38.16-.05.32.04.37.2.35,1.09.29,2.35.24,3.56,0,.2-.02.39-.02.58.11.1.13.27.04.4-.02.14-.12.3-.25.32h-.03Zm1.95-.29c-.06,0-.12,0-.17-.04-.37-.21-.36-.84-.3-2.15.02-.54.07-1.43-.03-1.65-.12-.08-.17-.23-.11-.37.07-.16.25-.23.4-.16.42.18.41.88.35,2.21-.03.58-.07,1.45.03,1.63.15.08.18.25.09.39-.05.09-.16.14-.27.14h0Z"
  />
  <path
    d="m155.27,64.07c-.31,0-.62-.07-.86-.28-.13-.11-.14-.3-.03-.43s.3-.14.43-.03c.25.22.78.11,1.24.02.18-.04.36-.07.51-.09.17-.02.32.1.34.27.02.17-.1.32-.27.34-.14.02-.29.05-.46.08-.29.06-.61.12-.91.12h0Zm5.65-.22c-.65,0-1.24-.07-1.61-.35-.14-.1-.16-.29-.06-.43s.29-.16.43-.06c.42.31,1.56.23,2.4.18.42-.03.82-.05,1.12-.04.5.03.97-.04,1.48-.11.59-.08,1.2-.16,1.83-.09.17.02.29.17.27.34-.02.17-.15.29-.34.27-.55-.06-1.09,0-1.67.09-.51.07-1.04.14-1.59.11-.27-.02-.65,0-1.05.04-.39.03-.8.05-1.19.05h-.02Zm-7.48-8.51c-.46,0-.92-.04-1.34-.13-1.49-.31-2.46-1.14-2.79-2.4-.16-.62-.1-1.16.2-1.6.64-.96,2.18-1.17,3.42-1.33l.82-.12c.95-.15,2.03-.31,2.99-.13.6.11,1.17.4,1.72.68.34.17.65.33.94.43.13.05.21.17.2.3h0c.16.07.23.24.16.4-.03.08-.07.21-.11.35-.11.39-.26.93-.55,1.31-1.04,1.32-3.49,2.24-5.67,2.24Zm2.37-5.18c-.65,0-1.34.11-1.96.2l-.83.12c-1.06.14-2.5.34-3,1.07-.19.29-.23.65-.11,1.1.34,1.29,1.45,1.77,2.32,1.95,2.18.45,5.29-.47,6.41-1.89.22-.28.35-.75.45-1.1.03-.12.06-.23.09-.32-.32-.11-.65-.28-.99-.45-.51-.26-1.04-.52-1.56-.62-.26-.05-.53-.07-.81-.07h0Zm11.87,5.09c-1.33,0-2.73-.33-3.76-.85-1.77-.88-2.44-2.19-1.81-3.51v-.02c-.08-.14-.03-.33.11-.41,1.43-.85,7.03-1.46,8.93.31.51.48.97,1.35.24,2.77-.63,1.21-2.12,1.69-3.72,1.69v.02Zm-5.01-4.33c.03.08.03.16,0,.24-.68,1.41.84,2.36,1.53,2.7,2.3,1.14,5.78,1.14,6.67-.58.45-.88.42-1.55-.12-2.05-1.52-1.42-6.5-1.1-8.07-.31Z"
  />
  <path
    d="m160,51.32c-.57,0-1.12-.05-1.6-.21-.16-.05-.25-.23-.19-.39.05-.16.23-.24.39-.19.71.24,1.72.18,2.6.13.38-.02.75-.04,1.08-.04.17,0,.3.14.3.3s-.14.3-.3.3c-.32,0-.68.02-1.04.04-.4.02-.82.05-1.24.05h0Zm-6.16,1.68c-.26,0-.51-.05-.71-.23-.09-.08-.12-.19-.09-.3.03-.11.11-.2.22-.22.03,0,.07-.02.1-.02-.18-.02-.35-.05-.53-.11-.16-.05-.25-.22-.21-.38.05-.16.21-.26.38-.21.45.13.94.12,1.47.1.31,0,.64-.02.95,0,.15.01.26.13.28.27,0,.15-.08.28-.22.32-.13.04-.27.08-.41.12.1.06.16.17.14.29,0,.17-.17.3-.33.28-.16-.02-.35,0-.54.04-.16.02-.34.04-.51.04h0Zm13.92-.38s-.08,0-.12-.03c-.27-.11-.58-.07-.9-.03-.36.05-.77.1-1.18-.06-.1-.04-.17-.13-.19-.23s.02-.21.1-.28c.04-.04.09-.07.14-.11-.03-.05-.05-.11-.05-.17,0-.17.14-.3.3-.3.13,0,.28,0,.43-.02.61-.04,1.3-.08,1.67.29.08.09.11.21.07.32,0,.04-.03.07-.06.1.08.09.11.22.06.33s-.16.18-.28.18h.01Z"
  />
  <path
    d="m144.42,67.48c-.1,0-.19-.05-.25-.13-.15-.22-.19-.3-.26-.51l-.05-.15c-.83-2.33-.86-5.33-.9-7.97,0-.43,0-.85-.02-1.25l-.04-1.96c-.05-2.34-.11-4.76-.11-7.12,0-.3.05-.58.09-.85.06-.36.12-.7.06-1.04-.06-.38-.24-.65-.44-.95-.15-.23-.31-.46-.44-.77-.39-.96-.56-2.65-.16-3.8.73-2.1,2.88-4.66,4.55-6.44l.27-.29c1.99-2.12,3.87-4.12,6.74-4.98,1.06-.32,2.17-.29,3.23-.28h.89c.85,0,1.7-.12,2.53-.23.68-.09,1.39-.19,2.1-.22,2.97-.15,5.13.65,7.95,2.08.31.16.65.32.99.48,2,.96,4.27,2.06,5.14,4.15.77,1.85.89,4.47.98,6.58l.04.86c.04.74.09,1.48.14,2.21.13,1.96.27,3.99.16,6.03-.04.75-.07,1.51-.1,2.27-.07,1.82-.15,3.71-.35,5.51-.03.3-.07.64-.1,1.01-.23,2.3-.53,5.44-1.72,7.03-.07.09-.17.13-.28.12-.11,0-.2-.08-.24-.18-.5-1.19-.49-2.76-.49-4.28,0-.68,0-1.32-.04-1.87-.18-2.26-.43-4.12-.75-5.63-.05.1-.17.17-.28.16-.11,0-.23-.06-.28-.17-.4-.84-.74-1.75-1.08-2.63-.56-1.49-1.15-3.02-2.01-4.33.02.29.02.59.02.88,0,.43,0,.84.05,1.22.02.04.03.08.03.13,0,.17-.14.3-.3.3h-.02c-.06,0-.12-.02-.17-.05-1.42-.94-2.49-2.3-3.52-3.62-.15-.19-.31-.39-.46-.59.13.71.22,1.44.31,2.16.04.31.07.61.11.9.02.04.03.08.03.13,0,.17-.15.33-.31.3-.06,0-.07,0-.11-.02-1.73-.59-3.48-1.99-4.74-3.38.25.68.52,1.35.79,2.01.14.35.28.7.42,1.04.04.05.07.12.07.19,0,.17-.14.3-.3.3h-.02s-.08,0-.11-.02c-2.01-.81-4.31-2.94-5.69-5.07.13.37.28.74.43,1.11.41,1.02.82,2.06.9,3.17,0,.1-.04.2-.12.26-.08.06-.19.08-.29.04-.8-.29-1.87-.81-2.77-1.69-.03.35-.07.68-.12,1-.02.11-.09.2-.19.24-.1.04-.22.02-.3-.05-.98-.81-1.9-1.64-2.4-2.81-.81,1.21-1.65,2.84-2.5,4.87-.23.54-.39,1.17-.56,1.85-.31,1.23-.63,2.51-1.41,3.37-.07.08-.19.12-.3.09-.11-.02-.19-.11-.23-.21-.12-.43-.2-.89-.27-1.33-.02-.14-.04-.27-.07-.4-.15.97-.16,2.06-.17,3.12,0,.83-.02,1.61-.09,2.33-.2,2.11-.43,4.29-.66,6.39l-.11,1.06c0,.13-.11.23-.23.26h-.08v.06Zm11.6-37.89c-.78,0-1.61.03-2.37.26-2.71.82-4.54,2.76-6.47,4.82l-.27.29c-1.34,1.42-3.69,4.12-4.42,6.22-.35,1.01-.2,2.53.14,3.37.1.25.24.45.38.66.23.33.46.68.54,1.2.07.44,0,.84-.06,1.23-.04.26-.08.51-.08.75,0,2.35.05,4.77.11,7.11l.04,1.96c0,.41,0,.83.02,1.26.03,2.37.06,5.04.67,7.19.22-2.05.45-4.15.64-6.2.07-.7.08-1.47.09-2.28.02-1.58.04-3.22.49-4.5.04-.12.16-.2.28-.2.13,0,.24.08.28.2.2.54.3,1.13.39,1.69.03.2.07.41.11.62.43-.73.67-1.68.9-2.6.18-.7.34-1.36.59-1.93.99-2.35,1.96-4.19,2.91-5.47.07-.09.19-.14.3-.12.12.02.21.1.24.22.33,1.14,1.07,1.94,1.99,2.72.04-.35.07-.72.1-1.11,0-.13.09-.23.21-.27s.25,0,.33.1c.73.92,1.71,1.49,2.52,1.85-.14-.84-.46-1.65-.8-2.5-.45-1.13-.91-2.29-.91-3.54,0-.15.11-.28.26-.3.15-.02.29.07.34.21.71,2.26,3.34,5.21,5.69,6.48-.05-.13-.11-.26-.16-.4-.48-1.18-.97-2.4-1.31-3.63-.04-.14.03-.29.16-.36.14-.06.3-.02.38.1,1.08,1.55,3.1,3.43,5.02,4.27-.02-.16-.04-.32-.06-.49-.14-1.15-.28-2.34-.61-3.35-.04-.14,0-.29.14-.36.12-.07.28-.04.38.06.46.52.9,1.08,1.33,1.63.87,1.11,1.76,2.25,2.86,3.11,0-.24,0-.48,0-.71,0-.67,0-1.37-.18-1.95-.04-.14.02-.29.14-.36.13-.07.28-.04.38.07,1.35,1.57,2.1,3.55,2.83,5.46.18.48.37.97.57,1.46.03-.14.06-.26.09-.39.04-.13.16-.22.29-.22s.25.09.29.22c.54,1.76.92,4.17,1.18,7.36.05.58.05,1.24.05,1.92,0,1.21,0,2.45.25,3.45.82-1.58,1.08-4.21,1.27-6.19.03-.37.07-.71.1-1.01.2-1.78.27-3.65.34-5.46.03-.76.06-1.52.1-2.28.1-2.01-.03-4.01-.16-5.96-.05-.74-.1-1.48-.14-2.22l-.04-.87c-.09-2.06-.21-4.62-.94-6.37-.79-1.88-2.94-2.92-4.85-3.84-.34-.17-.68-.33-1-.49-2.73-1.39-4.8-2.15-7.65-2.02-.68.03-1.34.12-2.05.21-.84.11-1.71.23-2.6.24h-1.58v-.02Z"
  />
  <path
    d="m149.38,51.98h-.07c-.36-.08-.71-.18-1.08-.31-.16-.06-.24-.23-.19-.39.06-.16.23-.24.39-.19.35.12.67.21,1.01.29.16.04.27.2.23.36-.03.14-.16.24-.3.24h.01Zm-1.19,15.96c-.1,0-.2-.05-.26-.14-1.72-2.73-1.85-5.84-1.98-8.85-.06-1.31-.11-2.66-.3-3.95-.02-.17.09-.32.26-.35.18-.03.32.09.35.26.19,1.33.25,2.69.31,4.02.13,3.06.25,5.95,1.89,8.55.09.14.05.33-.1.42-.05.03-.11.05-.16.05h-.01Zm13,6.57c-.17,0-.3-.14-.3-.3s.14-.3.3-.3c7,0,11.25-2.86,13-8.73.05-.16.22-.26.38-.21.16.05.25.22.21.38-1.81,6.08-6.38,9.17-13.59,9.17h0Z"
  />
  <path
    d="m162.8,74.18c-.12,0-.23-.07-.28-.18-.15-.34-.21-.71-.27-1.06-.04-.26-.08-.51-.16-.73-.05-.16.03-.33.19-.39.09-.03.19,0,.27.04.02-.28.06-.55.13-.83.04-.15.16-.24.33-.23.15.02.27.15.27.3,0,.41.1.89.24,1.31.04-.22.1-.44.17-.65.04-.12.15-.2.28-.21.11,0,.24.07.29.18.09.2.18.45.27.7.04-.09.12-.16.21-.18.11-.02.22,0,.29.09.17.19.28.48.33.9.02.17-.1.32-.26.34s-.31-.09-.34-.25v.02c-.04.13-.16.21-.29.21-.14,0-.25-.09-.29-.22-.03-.13-.08-.27-.12-.41-.02.18-.04.36-.06.53,0,.13-.1.23-.22.27-.12.03-.25,0-.33-.11-.12-.16-.23-.35-.32-.56,0,.28,0,.56-.03.83,0,.14-.12.25-.25.28h-.05Zm-21.61-5.09c-.06,0-.12-.02-.17-.05-.12-.08-.17-.23-.12-.37.93-2.32,1.51-6.66.87-9.17-.04-.16.06-.33.22-.37.17-.04.33.06.37.22.59,2.3.23,5.9-.51,8.43.03-.02.06-.05.09-.07.62-.52,1.2-1.01,1.66-1.73.09-.14.28-.18.42-.09s.18.28.09.42c-.51.81-1.16,1.35-1.79,1.87-.31.26-.63.53-.93.82-.06.06-.14.09-.21.09h0Zm36.44,1.27c-.08,0-.15-.03-.21-.08-1.07-1.02-1.75-2.61-2.03-3.76-.04-.16.06-.33.22-.37.17-.04.33.06.37.22.26,1.08.79,2.18,1.41,2.96,0-.41-.05-.87-.1-1.32-.07-.63-.13-1.29-.09-1.85.01-.15.12-.26.27-.28.15-.02.28.07.32.21.24.77.57,1.38.95,1.95-.2-1.29-.35-2.52-.38-3.8-.02-.7.05-1.48.13-2.3.14-1.46.28-2.96-.11-4.05-.06-.16.03-.33.18-.39.16-.05.33.03.39.18.44,1.22.29,2.79.15,4.32-.08.8-.15,1.56-.13,2.22.05,1.65.29,3.22.57,4.96.02.14-.05.27-.18.33s-.28.02-.36-.09c-.41-.52-.79-1.03-1.12-1.6,0,.04,0,.09.01.13.08.81.16,1.58.03,2.17-.02.11-.1.19-.21.22-.03,0-.06,0-.09,0h0Z"
  />
  <path
    d="m177.92,58.2c-.22,0-.45-.04-.69-.12-.16-.05-.25-.22-.19-.38.05-.15.22-.24.37-.2.45.14.81.11,1.1-.1,1.1-.82,1.06-3.94,1.04-5.44v-.28c0-.51.01-1.03.03-1.56.09-2.54.18-4.93-2.22-5.77-.16-.05-.24-.23-.19-.39.05-.16.22-.25.39-.19,2.82.98,2.72,3.84,2.63,6.36-.02.52-.04,1.03-.03,1.53v.28c.03,1.73.07,4.94-1.29,5.94-.28.21-.6.31-.96.31h.01Z"
  />
  <path
    d="m180.15,55.87h-.06c-.11-.03-.2-.11-.23-.22s0-.23.09-.31c.08-.08.18-.11.28-.08.29-.07,1.11-.38,1.25-.5.41-.44.44-1.54.46-2.27,0-.15,0-.28.01-.4.02-.33.05-.67.08-1,.1-1.14.21-2.32-.32-2.83-.3-.29-.78-.38-1.51-.29-.16,0-.32-.1-.34-.27s.1-.32.27-.34c.91-.11,1.57.04,2.01.46.74.72.62,2.04.51,3.32-.03.33-.06.66-.08.98,0,.12,0,.25-.01.39-.02.87-.05,2.06-.63,2.67-.19.21-1.4.7-1.77.7h-.01Zm-38.64,3.89c-.36,0-.68-.12-.95-.36-1.21-1.07-1.04-4.32-.93-6.47.02-.45.04-.83.04-1.1,0-.4,0-.82,0-1.23-.02-1.35-.05-2.74.16-4.04.19-1.21,1.12-2.11,1.64-2.44.14-.09.33-.05.42.09.09.14.05.33-.09.42-.4.26-1.21,1.02-1.37,2.03-.2,1.24-.17,2.61-.15,3.93,0,.42,0,.84,0,1.24,0,.28-.02.67-.04,1.14-.09,1.78-.27,5.11.73,5.99.2.18.44.24.75.19.19-.03.32.08.35.25s-.08.32-.25.35c-.11.02-.21.03-.31.03v-.02Z"
  />
  <path
    d="m139.52,56.45h0c-1.61-.07-1.74-1.07-1.88-2.13l-.05-.37c-.23-1.59-.46-3.64-.12-5.3.02-.09.07-.16.15-.21.43-.24.93-.33,1.37-.41.16-.03.32-.06.47-.09.16-.04.33.06.37.23.04.16-.06.33-.23.37-.16.04-.33.07-.5.1-.37.07-.75.14-1.06.28-.28,1.54-.07,3.44.15,4.94l.05.38c.14,1.07.2,1.55,1.3,1.6.17,0,.3.15.29.32,0,.16-.14.29-.3.29Z"
  />
  <path
    d="m137.43,48.55h-.06c-.16-.03-.27-.2-.24-.36.14-.65.12-1.32.11-2.02-.01-.55-.02-1.11.04-1.67.1-.89.31-1.48.55-2.16.07-.19.13-.38.21-.59.07-.22.13-.44.18-.64.13-.52.24-.96.63-1.08s.81.2,1.18.53c.17.15.18.41.19.72,0,.09,0,.23.02.28.02,0,.04,0,.14.02s.24.04.39.16c.14.11.33.18.52.26.23.09.46.18.67.34.13.1.16.29.06.43-.1.13-.29.16-.43.06-.14-.11-.33-.18-.52-.26-.23-.09-.47-.18-.68-.35-.02-.02-.04-.02-.12-.04-.13-.02-.33-.06-.53-.28-.12-.14-.13-.34-.14-.61,0-.11,0-.28-.03-.33-.41-.36-.56-.35-.56-.35-.06.05-.15.39-.21.64-.05.21-.11.44-.19.68-.07.22-.14.41-.21.6-.24.67-.42,1.2-.52,2.02-.06.52-.05,1.04-.04,1.59.02.71.03,1.44-.12,2.16-.03.14-.16.24-.3.24h0Zm44.97-.6c-.09,0-.17-.04-.23-.11-.63-.73-.48-2.3-.32-3.97.15-1.6.32-3.41-.34-3.94-.11-.09-.25-.18-.38-.16-.19.04-.4.39-.58.71-.19.33-.39.67-.66.86-.1.07-.28.12-.67.23-.32.09-1,.29-1.27.45.12.09.16.26.09.4-.08.15-.27.2-.42.11-.32-.19-.37-.4-.35-.56.05-.46.74-.69,1.78-.99.2-.06.44-.13.5-.16.16-.11.32-.39.47-.65.26-.45.53-.91,1-1,.28-.05.57.04.87.28.92.73.75,2.55.57,4.47-.14,1.47-.28,2.99.18,3.52.11.13.1.32-.03.43-.06.05-.13.07-.2.07h-.01Z"
  />
  <path
    d="m138.93,40.19c-.06,0-.12-.02-.17-.05-.14-.09-.18-.28-.08-.42.38-.57.57-1.31.77-2.1.2-.8.41-1.62.84-2.33.83-1.37,2.22-2.41,3.7-3.44,2.33-1.62,4.65-3.16,7.42-4.2,7.13-2.68,17.51-2.76,23.58,2.25,2.75,2.27,5.02,5.64,6.07,9.01.05.16-.05.33-.21.38-.16.05-.32-.04-.37-.2-1-3.21-3.26-6.56-5.88-8.73-5.9-4.87-16.02-4.77-22.98-2.15-2.71,1.02-4.99,2.53-7.28,4.13-1.42.99-2.76,1.98-3.53,3.26-.38.64-.58,1.42-.77,2.17-.2.8-.41,1.63-.85,2.29-.06.09-.16.14-.25.14h-.01Z"
  />
  <path
    d="m141.02,41.98c-.15,0-.29-.12-.3-.27-.31-2.75,1.77-4.67,3.61-6.36l.34-.31c2.21-2.05,4.65-4.1,7.52-5.17,5.26-1.95,13.47-3,19.32.47,2.13,1.27,4.1,2.43,5.16,4.62.49,1.01.82,2.12,1.14,3.19.31,1.02.59,1.98.99,2.79.07.15.01.33-.14.41-.15.07-.33.01-.41-.14-.42-.86-.71-1.84-1.03-2.88-.32-1.05-.64-2.13-1.11-3.1-.98-2.02-2.87-3.14-4.86-4.33-5.72-3.4-13.72-2.36-18.85-.46-2.77,1.03-5.15,3.03-7.32,5.04l-.34.31c-1.73,1.59-3.7,3.4-3.42,5.85.02.17-.1.32-.27.34,0,0-.03,0-.03,0Zm4.63,30.44c-.17,0-.3-.13-.3-.3-.02-1.07.08-2.26.19-3.52.23-2.7.49-5.75-.47-8.01-.07-.16,0-.33.16-.4s.33,0,.4.16c1.01,2.4.75,5.53.51,8.3-.11,1.25-.21,2.42-.19,3.46,0,.17-.13.31-.3.31Zm28.11,1.24h-.08c-.15-.02-.26-.16-.26-.31.01-.43.04-.92.08-1.42.1-1.49.21-3.18-.2-4.34-.06-.16.03-.33.18-.39.16-.06.33.03.39.18.46,1.28.34,3.03.23,4.58-.02.27-.04.53-.05.79.07.05.12.12.13.21.02.17.03.41-.13.57-.08.08-.18.12-.3.12h.01Z"
  />
  <path
    d="m145.05,76.15c-.06,0-.13-.02-.18-.06-.8-.59-1.51-1.37-1.99-2.18-.67-1.14-.54-1.49.2-1.94.23-.14.52-.32.82-.64.07-.08.18-.11.28-.09s.19.09.23.18c.28.68,1.09,1.14,1.76,1.29.16.04.27.2.23.36s-.19.27-.37.23c-.66-.15-1.51-.57-1.99-1.28-.24.21-.46.34-.64.45-.45.28-.48.29,0,1.12.44.75,1.09,1.46,1.82,2,.14.1.16.29.06.43-.06.08-.15.12-.25.12h.02Zm13.21,5.52c-1.74,0-2.64-.19-2.95-.58-.13-.16-.16-.37-.09-.57.05-.16.22-.25.39-.19.16.05.25.23.19.39.09.17.81.54,5.52.22l.46-.03c.51-.03,1.05-.04,1.61-.06,1.94-.06,4.15-.12,5.88-.7,2.32-.77,4.34-2.23,5.85-4.22.99-1.29,1.96-2.96,1.76-3.57-.14-.44-1.27-.87-2.16-1.06-.08.35-.14.68-.19,1.01-.15.94-.28,1.82-1.14,2.75-1.2,1.3-2.75,2.25-4.36,2.7-1.79.49-3.54.94-5.27.94h-.04c-.59,0-1.19-.06-1.76-.12-.98-.1-1.9-.19-2.82-.03-.16.03-.32-.08-.35-.25s.08-.32.25-.35c1-.17,2.01-.07,2.98.02.56.06,1.14.11,1.7.11h.04c1.65,0,3.36-.43,5.11-.91,1.5-.41,2.95-1.31,4.08-2.52.73-.79.85-1.51.99-2.43.07-.42.13-.86.27-1.35.04-.15.19-.25.34-.22.11.02,2.56.44,2.91,1.53.35,1.07-1.18,3.24-1.85,4.13-1.58,2.09-3.71,3.62-6.15,4.43-1.82.61-4.07.68-6.06.73-.56.02-1.09.03-1.6.06l-.45.03c-1.24.08-2.27.13-3.1.13v-.02Zm-13.21-10.15c-.12,0-.24-.08-.29-.2-.12-.33-.28-.68-.45-1.04-.49-1.05-1.04-2.25-.91-3.42.02-.17.15-.29.34-.27.17.02.29.17.27.34-.11,1.01.41,2.12.86,3.1.17.38.34.74.47,1.08.06.16-.02.33-.18.39-.03,0-.07.02-.11.02Z"
  />
  <path
    d="m175.68,71.52c-.06,0-.13-.02-.18-.06-.13-.1-.16-.29-.06-.43.3-.39.57-1.65.54-2.49,0-.17.13-.31.29-.31.18,0,.31.13.32.29.03.9-.24,2.33-.66,2.88-.06.08-.15.12-.24.12h-.01Zm-61.47,24.55c-.08,0-.19-.02-.31-.12-.1-.08-.14-.23-.09-.35.15-.36.11-.82.07-1.31-.05-.53-.09-1.07.11-1.55.26-.64.78-1.09,1.27-1.52.44-.38.9-.78,1.17-1.31l.37-.72c.65-1.28,1.33-2.6,1.94-3.92,1.75-3.81,3.58-5.96,6.72-7.92.36-.22.71-.46,1.06-.71.85-.58,1.73-1.18,2.73-1.57.94-.36,1.89-.42,2.82-.47.51-.03,1.03-.06,1.54-.14,2.44-.38,5.91-1.07,8.63-2.19.15-.07.33,0,.4.17.06.16,0,.33-.17.4-2.77,1.14-6.3,1.84-8.77,2.22-.54.09-1.08.12-1.6.15-.92.05-1.79.1-2.63.43-.93.36-1.78.94-2.6,1.5-.36.25-.72.49-1.09.72-3.03,1.89-4.79,3.97-6.49,7.66-.61,1.33-1.29,2.66-1.95,3.94l-.37.72c-.33.64-.83,1.07-1.32,1.49-.46.4-.9.78-1.11,1.29-.14.35-.1.79-.06,1.27.03.34.06.68.03,1.01,0,0,.02,0,.03.01.16.07.23.24.16.4-.04.08-.14.34-.39.4-.03,0-.06.01-.1.01h0Zm90.64,77.5c-2.71,0-5.93-.39-8.08-.89-.33-.08-.68-.15-1.04-.23-2.73-.58-6.47-1.37-6.01-4.69.15-1.08.33-2.1.5-3.1.45-2.62.87-5.1.75-8.03-.06-1.3-.1-2.6-.14-3.88-.09-2.82-.19-5.73-.44-8.62-.13-1.52-.17-3.1-.21-4.62-.06-2.49-.12-5.05-.6-7.46-.11-.57-.34-1.19-.56-1.79-.27-.74-.55-1.5-.64-2.21-.17-1.36.37-2.69.88-3.98.13-.32.26-.64.38-.97,2.02-5.52,1.63-11.46,1.25-17.2l-.11-1.73c-.01-.17.12-.31.29-.32.18-.02.31.12.32.28l.11,1.73c.39,5.8.78,11.8-1.28,17.45-.12.33-.25.66-.38.98-.51,1.27-.99,2.48-.84,3.68.08.64.35,1.37.6,2.07.23.62.46,1.26.59,1.88.49,2.46.55,5.05.61,7.56.04,1.52.07,3.08.2,4.59.25,2.91.35,5.83.45,8.66.04,1.28.09,2.57.14,3.88.13,2.99-.3,5.5-.75,8.16-.17.99-.34,2.01-.49,3.08-.38,2.76,2.76,3.42,5.53,4.01.37.08.72.15,1.05.23,2.72.63,7.18,1.09,10.05.78,1-2.33,1.08-4.94,1.16-7.47.03-1.1.07-2.23.18-3.33.16-1.56.11-3.3.06-4.97-.06-2.33-.13-4.75.33-6.9.16-.73.41-1.39.66-2.03.33-.87.65-1.68.75-2.67.15-1.45.34-3.18.6-5.03.35-2.44-.29-5.13-.92-7.72-.34-1.42-.67-2.77-.84-4.09-.32-2.43-.7-4.9-1.08-7.3-.58-3.74-1.19-7.62-1.56-11.47-.66-6.85-2.02-13.05-4.16-18.97-1.9-5.26-4.36-9.03-7.31-11.2-.72-.53-1.69-.74-2.63-.95-.55-.12-1.13-.25-1.64-.44-1.01-.38-1.93-.94-2.82-1.48-.58-.35-1.18-.72-1.79-1.02-.72-.36-1.45-.8-2.15-1.23-1.92-1.17-3.9-2.39-6.02-1.97-.17.03-.33-.08-.36-.24s.07-.33.24-.36c2.35-.46,4.44.82,6.46,2.05.69.42,1.4.86,2.1,1.2.63.31,1.24.69,1.84,1.05.86.53,1.76,1.07,2.72,1.43.47.18,1,.29,1.56.42,1,.22,2.03.45,2.86,1.06,3.05,2.24,5.58,6.1,7.52,11.48,2.15,5.96,3.52,12.22,4.19,19.12.37,3.84.97,7.7,1.56,11.44.37,2.4.76,4.88,1.08,7.31.17,1.28.49,2.61.83,4.02.64,2.65,1.3,5.4.93,7.95-.27,1.84-.46,3.56-.6,5-.11,1.07-.45,1.96-.79,2.83-.25.65-.48,1.26-.63,1.94-.44,2.08-.38,4.46-.31,6.75.05,1.7.1,3.45-.06,5.05-.11,1.08-.14,2.2-.18,3.29-.08,2.64-.17,5.38-1.28,7.85-.04.1-.13.16-.24.18-.7.09-1.5.12-2.35.12h-.04Z"
  />
  <path
    d="m194.45,125.34s-.09,0-.13-.03c-.15-.07-.22-.25-.14-.41.18-.39.38-.79.58-1.21,1.03-2.15,2.2-4.58,2.94-6.91.41-1.27.69-2.63.97-3.95.34-1.63.7-3.32,1.28-4.81.06-.16.23-.24.39-.17.16.06.24.24.18.39-.56,1.45-.9,3.04-1.25,4.72-.28,1.33-.57,2.71-.99,4.01-.76,2.37-1.93,4.83-2.97,6.99-.2.42-.39.82-.58,1.21-.05.11-.16.17-.28.17Zm-1.19,15.91h-.06c-.17-.03-.27-.19-.24-.36.24-1.29,1.63-1.82,2.75-2.25.15-.06.29-.11.43-.17,1.44-.58,1.87-.76,2.85-2.27.09-.14.28-.18.42-.09.14.09.18.28.09.42-1.03,1.6-1.54,1.86-3.13,2.5-.14.06-.29.11-.44.17-.97.37-2.18.84-2.36,1.79-.03.15-.16.25-.3.25h0Zm0,3.78c-.17,0-.3-.14-.3-.3s.14-.3.3-.3c2.17,0,3.94-.08,5.4-1.14.14-.1.33-.07.43.07s.07.33-.07.43c-1.74,1.25-3.96,1.25-5.76,1.25h0Zm1.59,10.74c-.17,0-.3-.14-.3-.3s.14-.3.3-.3c1.2,0,2.67-.06,4.09-.12,2-.08,3.89-.16,5.09-.08.17,0,.3.16.28.32-.01.17-.13.3-.32.28-1.17-.07-3.05,0-5.03.08-1.43.06-2.9.12-4.11.12Zm2.83,3.15c-.76,0-1.51-.13-2.27-.26l-.61-.1c-.17-.03-.28-.18-.25-.35.03-.17.19-.27.35-.25l.61.1c1.22.21,2.27.39,3.45.1.16-.04.33.06.37.22s-.06.33-.22.37c-.49.12-.96.17-1.43.17Zm-6.61-60.04c-.15,0-.28-.11-.3-.26-.28-1.76.24-3.72.8-5.8.62-2.31,1.26-4.69.8-6.92-.03-.16.07-.33.24-.36s.33.07.36.24c.49,2.37-.17,4.83-.8,7.2-.54,2.01-1.05,3.91-.79,5.54.03.17-.09.32-.25.35h-.06Zm-22.51,73.8c-.09,0-.17-.04-.23-.11-.57-.68-.69-1.46-.77-2.23-.72.73-1.5,1.19-2.3,1.33-.09.02-.18,0-.24-.06-.07-.05-.11-.14-.12-.22-.02-.34.03-.7.14-1.03h-.03c-.45,0-.91-.09-1.31-.27-.09-.04-.15-.11-.17-.21-.02-.09,0-.19.06-.26.38-.48.91-.79,1.42-1.04-.78,0-1.54-.12-1.69-.7-.06-.23-.03-.46.09-.66-.16-.05-.3-.12-.41-.23-.21-.19-.28-.47-.19-.74.1-.28.35-.53.72-.72-.49-.1-.98-.24-1.46-.49-.09-.05-.15-.13-.16-.23s.02-.2.1-.26c.09-.09.2-.17.3-.25-.21-.04-.41-.1-.6-.17-.08-.03-.14-.09-.17-.17s-.03-.17,0-.24c.22-.48.6-.88,1.09-1.16-.38-.04-.76-.1-1.09-.24-.1-.04-.18-.14-.19-.25s.04-.22.13-.28c.13-.09.27-.18.41-.27-.45-.07-.81-.24-.96-.59-.16-.36-.05-.63.06-.79.15-.22.43-.38.75-.5-.67-.22-1.12-.54-1.14-.95-.02-.45.43-.78,1.35-.98-.61-.14-1.24-.35-1.75-.82-.09-.08-.12-.21-.08-.33.11-.3.3-.56.56-.77-.28-.07-.55-.17-.82-.3-.1-.05-.17-.15-.17-.26s.05-.22.15-.28c.67-.4,1.49-.71,2.33-1-.73-.1-1.46-.24-2.11-.66-.13-.08-.18-.24-.12-.38.14-.32.35-.57.6-.75-.33-.14-.61-.35-.79-.68-.08-.14-.03-.32.11-.41.11-.07.23-.13.36-.18-.12-.05-.24-.11-.35-.17-.1-.06-.16-.16-.16-.28.02-.41.2-.76.54-1,.07-.05.14-.1.22-.13-.33-.08-.65-.17-.95-.31-.09-.04-.16-.13-.18-.23-.02-.1.02-.21.1-.27.35-.3.74-.52,1.15-.68-.46-.06-.91-.18-1.33-.41-.07-.04-.13-.11-.15-.19s0-.17.03-.24c.2-.33.49-.61.84-.84-.96-.23-1.58-.77-1.65-1.35-.03-.24,0-.96,1.29-1.36-.92-.58-1.47-1.44-1.31-2.19.04-.18.15-.47.46-.71-.26-.25-.38-.61-.35-1.03.08-.96,1.14-1.25,2.13-1.35-.86-.48-1.62-1.19-1.59-1.92.02-.49.37-.86,1.03-1.1-.66-.38-1.23-.93-1.13-1.42.06-.32.32-.48.63-.55-.73-.54-1.41-1.33-1.28-1.94.05-.21.17-.38.37-.49-.15-.13-.27-.28-.34-.46-.14-.34-.08-.71.16-.98.08-.1.18-.17.29-.24-.23-.19-.41-.4-.58-.63-.06-.08-.08-.18-.05-.27.03-.09.1-.17.19-.2.06-.02.11-.04.16-.06-.03-.04-.07-.09-.1-.14-.23-.4-.19-.92.11-1.33.11-.15.25-.28.41-.37-.09-.1-.17-.22-.23-.36-.18-.43-.12-.93.14-1.25-.47-.3-.75-.76-.76-1.19-.02-.42.2-.88.79-1.14-.35-.3-.47-.66-.41-.96,0-.07.04-.15.08-.22-.21-.09-.38-.22-.5-.4-.23-.33-.22-.76,0-1.09.07-.11.17-.2.27-.27-.14-.39-.05-.9.25-1.3.07-.09.14-.17.22-.24-.13-.11-.23-.24-.31-.39-.18-.37-.13-.8.12-1.13.04-.05.08-.09.12-.13-.25-.18-.47-.42-.64-.71-.06-.1-.05-.23.02-.33.09-.12.17-.24.25-.34h-.05c-.15,0-.28-.11-.3-.26-.09-.7.17-1.28.69-1.64-.39-.27-.61-.65-.6-1.08,0-.47.28-.9.71-1.21-.11-.05-.19-.15-.19-.28,0-.37.09-.73.26-1.07-.23-.11-.42-.33-.53-.63-.16-.44-.15-1.13.29-1.82-.42-.1-.62-.34-.73-.55-.24-.51-.04-1.21.33-1.78-.11-.01-.21-.02-.29,0-.11.01-.22-.03-.29-.11-.07-.09-.08-.2-.04-.3.06-.14.11-.31.17-.48.09-.27.19-.57.32-.84-.5-.08-.87-.34-1.01-.73-.11-.3-.07-.62.1-.93-.03-.01-.06-.03-.08-.05-.08-.07-.12-.18-.1-.28.03-.2.04-.35.05-.48,0-.26.03-.47.14-.69-.38-.05-.65-.2-.8-.45-.29-.49,0-1.21.39-1.87-.16-.03-.29-.09-.41-.19-.57-.5-.32-1.7-.11-2.77.07-.33.13-.63.15-.86.11-1.13.06-2.24,0-3.32-.03-.66-.06-1.34-.05-2.01,0-.95.17-2.11.34-3.33.29-2.1.62-4.49.09-5.7-.07-.15,0-.33.16-.4s.33,0,.4.16c.6,1.37.27,3.74-.04,6.03-.17,1.21-.32,2.35-.33,3.26,0,.65.02,1.3.05,1.98.05,1.1.1,2.24,0,3.41-.02.24-.09.57-.16.92-.15.72-.39,1.93-.09,2.19.11.1.38.03.53-.02.13-.04.27,0,.34.11.08.11.08.25,0,.36-.67.92-.85,1.55-.73,1.76.08.15.4.2.86.15.13-.01.25.05.31.17.06.12.03.26-.06.35-.35.35-.35.48-.37.82v.12c.09-.02.19-.04.26-.06.15-.05.3.02.37.15s.03.3-.09.38c-.42.3-.62.65-.53.91.09.25.48.39.96.35.12-.01.24.05.3.16s.04.24-.04.34c-.25.28-.39.73-.52,1.12,0,.04-.02.08-.04.11.03,0,.06,0,.09.01.14.02.28.04.37.02.14-.02.25.05.31.17.06.11.04.25-.05.34-.49.52-.76,1.23-.59,1.58.11.24.46.26.75.25.12-.01.24.06.3.17.05.11.03.25-.05.34-.56.59-.67,1.27-.52,1.67.06.17.17.29.28.3h.04c.18-.2.4-.39.65-.55.12-.08.28-.06.38.04.1.1.12.26.04.38-.25.37-.5.56-.71.65-.2.26-.32.54-.36.83.09.03.16.06.24.09s.15.07.24.09c.13.04.22.16.22.3s-.1.26-.23.29c-.64.16-.99.61-1,.97,0,.34.29.63.81.78.13.04.22.16.22.3s-.09.25-.23.29c-.56.15-.88.51-.91,1.02.05,0,.11,0,.16.01.09,0,.17.02.24.02.18-.09.39-.15.66-.17.14,0,.27.08.31.21s0,.28-.12.35c-.23.15-.46.21-.67.22-.15.1-.28.26-.45.48.19.25.42.43.67.53.24-.05.52-.04.81.02.13.03.23.14.24.28,0,.14-.07.26-.2.31-.28.1-.58.1-.86.03-.12.04-.22.11-.29.2-.11.14-.13.33-.05.49.08.16.24.28.46.36.2-.02.42.02.64.1.14.05.22.2.19.34s-.15.25-.3.25c-.2,0-.39-.02-.56-.07-.19.05-.33.18-.4.28-.18.24-.23.53-.17.71.29-.05.64-.04,1.01.06.13.03.22.14.23.27s-.06.25-.19.3c-.6.25-.98.19-1.22.06-.08.04-.13.1-.17.15-.09.13-.09.28,0,.4.09.14.31.26.65.26.16-.04.38-.09.56-.07.16,0,.28.12.3.27.02.15-.08.29-.23.33-.18.04-.36.07-.52.07-.14.05-.21.13-.23.21-.03.15.15.47.73.68.13.05.22.18.2.33-.02.14-.13.25-.27.26-.65.06-1.03.32-1.02.7,0,.35.34.72.85.87.18-.01.38.02.59.09.14.05.22.2.19.34-.03.15-.19.26-.3.25-.18,0-.36-.03-.52-.06-.06.02-.12.05-.16.1-.14.14-.17.42-.07.64.05.13.18.32.47.41.13,0,.26.02.39.05.15.04.25.18.23.33s-.15.27-.3.27c-.13,0-.26-.02-.39-.05-.37,0-.57.21-.65.31-.16.21-.18.47-.07.66.04.06.09.12.15.16.27-.08.6-.09,1.1.18.12.06.18.19.16.33-.02.13-.13.23-.26.25-.38.05-.72.02-1-.08-.02.01-.04.02-.07.03-.02.01-.05.03-.07.04.24.26.49.44.83.54.11.01.23.03.34.06.16.04.25.19.23.35-.03.16-.18.27-.33.25-.12-.01-.24-.03-.35-.06-.31-.03-.57.04-.71.19-.09.1-.11.23-.06.36.08.21.38.45.97.5.17.01.29.16.28.32,0,.17-.16.28-.32.28-.69-.03-.91.11-.92.19-.09.4,1.01,1.47,1.83,1.79.14.05.22.2.19.35-.03.15-.17.24-.32.24-.9-.06-1.05.11-1.05.11-.02.17.64.82,1.56,1.09.14.04.23.17.22.31,0,.14-.12.26-.26.28-.88.14-1.4.42-1.41.75-.02.59,1.23,1.54,2.45,1.84.15.04.25.17.23.33-.02.15-.14.27-.29.27h-.33c-.82.03-2.54.07-2.6.86-.02.27.06.48.23.6.04.03.09.06.15.08.31-.08.7-.12,1.21-.08.14,0,.26.12.28.25.02.14-.05.28-.18.33-.44.18-.9.23-1.29.14-.28.11-.46.28-.51.5-.12.57.56,1.46,1.75,1.89.13.05.22.18.2.32s-.12.25-.26.27c-1.2.16-1.7.55-1.66.87.06.47,1.05,1.04,2.5.91.03,0,.07,0,.11-.01.17,0,.31.11.33.27.02.17-.1.31-.27.33-.03,0-.07,0-.11.01-.66.08-1.25.36-1.63.78.77.3,1.67.25,2.54.21l.32-.02c.17,0,.29.1.32.26.02.15-.07.3-.23.34-.17.04-.34.08-.5.12-.71.17-1.44.35-2.04.71.42.12.88.2,1.35.27.45.07.92.15,1.38.28.16.05.26.21.21.37s-.21.26-.37.21c-.72-.2-1.75-.19-2.24.16-.13.1-.22.21-.26.36.34.16.72.27,1.11.31.42-.05.79-.04,1,0,.15.03.26.15.25.31,0,.15-.12.28-.26.3-.34.04-.67.05-1,.02-.32.04-.67.12-.96.23.25.2.63.29,1.03.32.43-.07.87-.05,1.27.02.16.03.26.17.25.33s-.14.28-.3.28h-.16c-.32,0-.68.02-1.03-.01-.37.08-.7.24-.92.54.62.31,1.34.39,2.05.48.28.03.57.07.84.12.14.02.24.14.25.27s-.07.27-.2.31c-.23.08-.47.16-.71.25-.73.25-1.49.51-2.13.82.28.08.57.13.86.16.62-.17,1.32-.15,1.87.06.14.05.21.19.19.34-.03.14-.15.25-.3.25-.58,0-1.14.02-1.7-.03-.07.02-.14.05-.2.08-.22.1-.49.27-.66.55.5.37,1.14.5,1.76.64.39.08.8.17,1.16.31.13.05.21.19.19.33s-.14.25-.28.25c-1.83.11-2.36.45-2.4.56.05.19.94.62,2.5.67.37,0,.63,0,.64,0,.16,0,.29.15.28.31,0,.16-.13.29-.3.3h-.68c-.86.03-1.94.21-2.17.54-.03.04-.05.09,0,.2.13.29.88.29,1.56.23.47-.17.98-.26,1.54-.17.15.02.26.16.26.31,0,.16-.13.28-.28.29-.12,0-.29.03-.5.06-.27.04-.57.08-.88.11-.27.11-.53.25-.78.4.29.04.6.06.93.08.43.02.88.05,1.3.14.16.03.26.18.24.34-.02.16-.16.28-.32.26-.96-.06-1.81.3-2.27.93.31.07.68.11,1.04.11.49-.17,1.02-.25,1.52-.21.14,0,.26.12.28.27.02.14-.07.28-.21.33-.39.13-.93.22-1.49.23-.22.08-.43.19-.62.31.7.26,1.44.33,2.21.41h.13c.16.03.28.16.28.32s-.12.29-.28.3c-1.14.11-1.67.49-1.75.72-.02.05,0,.07.02.1.09.08.28.14.61.13.54-.28,1.23-.37,1.5-.38.16-.02.28.1.31.24.03.14-.04.29-.18.35-.54.22-1.04.36-1.46.4-.1.06-.18.13-.23.2-.06.08-.08.16-.05.26.08.31,1.43.24,1.87.22.28,0,.51-.02.64,0s.24.11.27.23c.03.13-.03.26-.14.33-.27.17-.58.31-.87.44-.45.21-.92.43-1.29.74.32.07.66.09.98.04.31-.44.78-.76,1.37-.82.12,0,.22.04.29.14.06.1.07.22,0,.32-.28.49-.76.78-1.3.92-.11.21-.19.45-.22.7.88-.29,1.57-.98,2.03-1.54.08-.1.2-.13.32-.1s.2.13.22.25c.02.18.04.35.06.53.07.67.14,1.3.49,1.84.38-.34.47-.89.46-1.53-.03-.23-.05-.49-.05-.76,0-.16.13-.29.29-.3h0c.16,0,.29.12.3.28.02.22.04.48.05.75.11.69.38.98.56,1.05.11.04.2.02.28-.07.19-.21.34-.86-.25-2-.07-.13-.03-.3.09-.39s.29-.08.4.03l.29.3c.47.49.96.99,1.53,1.24,0-.4-.09-.82-.29-1.28-.16-.2-.29-.45-.4-.76-.05-.15.02-.31.16-.37.14-.07.31,0,.39.12.15.24.27.47.37.7.2.24.49.36.73.35.32-.02.6-.23.67-.53.06-.26-.03-.55-.25-.84-.53-.2-.95-.54-1.24-1.01-.07-.12-.06-.27.04-.37.1-.1.25-.12.37-.06.56.31.94.62,1.2.92.36.11.75.13,1.12.1-.18-.31-.42-.6-.68-.91-.25-.29-.5-.6-.71-.94-.07-.12-.06-.26.03-.36s.23-.13.36-.07c.96.46,1.33.3,1.42.23.13-.09.14-.26.12-.38-.05-.41-.42-.97-1.07-1.37-.18-.08-.35-.17-.53-.27-.14-.08-.19-.25-.12-.4.07-.14.24-.21.39-.15.2.08.39.18.56.28.69.3,1.4.43,2.05.38-.64-.65-1.61-1.03-2.49-1.37l-.15-.06c-.15-.06-.23-.22-.18-.38.05-.15.21-.24.37-.2.97.26,2.02.26,2.88.02-.27-.72-1.1-1.09-1.73-1.27-.24-.03-.47-.08-.68-.15-.15-.05-.24-.21-.2-.36s.18-.26.34-.23c.18.03.42.08.68.15.71.1,1.55.05,2.3,0h.03c-.17-.48-.75-.98-1.37-1.32-.52-.06-1.01-.21-1.36-.48-.11-.08-.15-.22-.1-.35s.19-.21.3-.2c.37.02.85.18,1.33.43.5.04,1.03-.02,1.47-.15-.11-.51-.42-.96-.85-1.22-.05-.03-.1-.06-.15-.08h-.24c-.32,0-.74-.04-1.16-.03-.15,0-.27-.1-.3-.25-.03-.15.05-.29.19-.34.55-.21,1.13-.2,1.65.02h.32c-.21-.26-.65-.7-.87-.92-.55-.54-1.41-1.53-1.07-2.12.24-.41.84-.36,1.41-.23.29-.82.33-2.06.36-3.18.02-.69.04-1.35.11-1.89.26-1.89.27-3.53.24-5.64-.05-4.23.2-8.42.75-12.81.65-5.11.95-10.33,1.24-15.37.22-3.78.44-7.69.81-11.53.78-8.14.88-16.66.98-24.91v-.27c.03-1.95-.09-3.93-.19-5.85-.1-1.82-.21-3.7-.19-5.49,0-.49.01-.96.02-1.43.02-1.39.05-2.7-.03-4.12-.03-.55.01-1.18.06-1.85.08-1.22.17-2.6-.23-3.41-.07-.15-.01-.33.14-.41.15-.07.34-.01.41.14.46.95.37,2.36.28,3.71-.04.65-.08,1.26-.05,1.77.08,1.44.05,2.76.03,4.16,0,.47-.02.94-.02,1.43-.02,1.78.09,3.56.19,5.45.11,1.93.22,3.92.2,5.89v.27c-.1,8.26-.2,16.8-.99,24.96-.37,3.83-.59,7.73-.81,11.51-.29,5.06-.59,10.28-1.24,15.42-.55,4.37-.8,8.53-.75,12.73.03,2.14.02,3.8-.25,5.73-.07.51-.09,1.14-.11,1.82-.04,1.35-.07,2.74-.51,3.65-.06.13-.22.2-.36.16-.82-.23-1-.11-.99-.11-.02.13.3.7.98,1.37.95.94,1.27,1.3,1.12,1.66-.05.11-.12.18-.22.22.4.41.66.96.72,1.55.01.14-.07.26-.19.31-.3.12-.66.2-1.03.25.56.46.97,1.03.96,1.62,0,.16-.13.29-.29.3l-.37.02c-.3.02-.62.03-.93.04.42.32.75.76.85,1.36.02.15-.06.29-.2.34-.46.16-.98.26-1.52.29.56.31,1.07.71,1.43,1.25.05.08.07.19.03.28s-.11.16-.21.19c-.53.13-1.1.15-1.68.05.21.31.33.62.36.9.05.4-.09.75-.38.95-.2.14-.54.26-1.07.16.03.03.05.06.08.09.36.43.74.88.95,1.44.03.09.03.18-.02.26-.05.08-.13.13-.22.15-.43.07-.84.08-1.2.04.12.35.1.63.06.8-.13.56-.64.97-1.23.99-.15,0-.3,0-.45-.06.09.4.09.79.03,1.17-.01.08-.06.16-.13.2-.07.05-.16.06-.24.04-.58-.14-1.07-.49-1.5-.88.1.65-.05,1.12-.29,1.39-.25.28-.62.37-.96.24-.19-.07-.36-.21-.5-.39-.14.41-.4.77-.84,1.01-.05.03-.1.04-.15.04l-.03-.07Z"
  />
  <path
    d="m188.68,180.64h-.04c-1.02-.12-2.21-.16-3.48-.2-1.18-.04-2.39-.08-3.5-.19-.81-.08-1.72-.1-2.67-.12-2-.04-4.08-.08-5.76-.7-.38-.14-.74-.4-1.09-.64-.37-.26-.72-.51-1.06-.6-.45-.12-.87-.07-1.32-.02-.33.04-.66.08-1.02.05-1-.09-1.68-.41-2.34-.73-.71-.34-1.36-.66-2.41-.62-.9.04-1.83.12-2.72.21-1.14.11-2.32.22-3.47.22-1.19,0-2.32-.06-3.44-.12-1.16-.07-2.37-.13-3.54-.12-.79,0-1.54.04-2.27.07-1.87.07-3.63.14-5.58-.12-1.93-.26-3.97-.39-6.22-.39h-.08c-1.52,0-2.94-.3-4.32-.58-.73-.15-1.48-.31-2.24-.42-.82-.12-1.62.05-2.48.22-.93.19-1.88.38-2.91.22-1.03-.17-1.56-.41-1.78-.8-.25-.44-.04-.94.19-1.51.12-.29.26-.63.36-1,.33-1.23.45-2.7.57-4.11.09-1.1.19-2.24.38-3.28.46-2.5.72-3.7,1.88-5.81.97-1.77,1.32-5.2,1.45-6.49.3-2.93.15-5.98,0-8.94-.08-1.71-.17-3.48-.16-5.2,0-2.65-.28-5.32-.55-7.89-.09-.8-.17-1.61-.25-2.42-.12-1.22-.02-2.56.08-3.85.14-1.92.29-3.91-.26-5.59-.05-.16.05-.33.21-.38.16-.05.32.04.37.2.58,1.8.43,3.84.28,5.83-.1,1.33-.19,2.58-.08,3.75.08.8.16,1.61.25,2.41.28,2.59.56,5.27.56,7.96,0,1.71.08,3.47.16,5.17.14,2.97.29,6.05-.01,9.03-.23,2.26-.61,5.06-1.53,6.72-1.12,2.04-1.36,3.2-1.81,5.63-.19,1.01-.28,2.13-.37,3.22-.12,1.44-.24,2.93-.59,4.22-.11.41-.25.76-.38,1.08-.18.45-.33.8-.23.98.11.2.57.37,1.35.5.91.15,1.81-.04,2.69-.22.87-.18,1.77-.36,2.69-.23.78.11,1.54.27,2.27.42,1.41.29,2.74.57,4.19.57h.08c2.28,0,4.34.13,6.3.39,1.9.25,3.64.19,5.48.12.74-.03,1.5-.06,2.29-.07,1.21,0,2.42.05,3.59.12,1.07.06,2.18.12,3.3.12h.1c1.12,0,2.29-.11,3.42-.22.9-.09,1.83-.17,2.75-.21,1.16-.05,1.95.32,2.7.67.63.3,1.24.59,2.13.67.3.03.59,0,.9-.04.48-.06.98-.12,1.55.04.44.12.86.41,1.25.69.33.23.65.46.95.57,1.58.58,3.61.62,5.56.66.97.02,1.88.04,2.72.12,1.09.11,2.29.15,3.46.19,1.28.04,2.49.08,3.53.21.17.02.29.17.27.34-.02.15-.15.27-.3.27v-.03Z"
  />
  <path
    d="m192.79,190.75c-.19,0-.4-.03-.61-.1-2.22-.66-2.68-3.2-3.01-5.06l-.1-.53c-.43-2.3-.88-4.68-.3-7.18.57-2.43,2.16-5.61,4.77-6.59.16-.06.33.02.39.18s-.02.33-.18.39c-2.38.89-3.85,3.87-4.39,6.15-.56,2.38-.12,4.69.3,6.93l.1.53c.32,1.8.72,4.03,2.58,4.58.47.14,1.15.19,1.54-.99.29-.88.07-1.54-.2-2.37-.08-.23-.15-.47-.23-.72-.45-1.61-.81-3.21-.37-4.01.08-.15.26-.2.41-.12s.2.26.12.41c-.38.7.21,2.77.42,3.55.07.25.14.48.22.7.28.86.55,1.68.2,2.74-.32.97-.9,1.48-1.68,1.48l.02.03Z"
  />
  <path
    d="m192.74,196.21c-.67,0-1.2-.29-1.48-.82-.41-.77-.17-1.82.59-2.54.33-.31.73-.55,1.11-.78.95-.56,1.5-.95,1.29-1.9-.06-.02-.12-.07-.16-.13-.07-.11-.05-.26.03-.35.14-.24.28-.31.45-.25.1.04.17.15.19.26.56,1.67-.52,2.31-1.48,2.88-.36.21-.73.43-1,.7-.63.6-.71,1.37-.47,1.82.23.43.73.59,1.37.45,2.62-.57,4.62-2.15,5.46-4.34.45-1.16.67-2.09.7-2.93.01-.29-.11-1.11-.19-1.45-.08-.07-.12-.17-.11-.28.03-.16.21-.32.35-.31.53.05.55,2.04.55,2.06-.04,1.2-.44,2.36-.74,3.13-.92,2.39-3.07,4.11-5.9,4.72-.19.04-.38.06-.56.06h0Z"
  />
  <path
    d="m198.53,192.68c-.14,0-.3-.09-.34-.23-.04-.14.1-.33.22-.4.09-.1.25-.12.37-.06,2.39-.78,3.42-3.66,3.34-6.09-.15-4.38.42-8.79,1.61-12.43.05-.16.22-.25.38-.2.16.05.25.22.19.38-1.17,3.57-1.73,7.91-1.58,12.22.1,2.75-1.15,6.05-4.13,6.79h-.07v.02Zm-70.06-42.38c-.06,0-.13-.02-.18-.06-.14-.1-.16-.29-.06-.43.42-.56.86-1.06,1.28-1.56.85-.99,1.66-1.93,2.27-3.17,2.05-4.09,3.45-8.13,4.16-12,.03-.16.18-.28.35-.24.17.03.28.19.25.35-.72,3.93-2.14,8.03-4.21,12.17-.65,1.3-1.48,2.27-2.36,3.29-.42.49-.85.99-1.25,1.53-.06.08-.15.12-.24.12h-.01Zm47.96,24.77c-.14,0-.27-.1-.3-.24-.13-.65-.64-1.5-1.13-2.31-.34-.56-.68-1.14-.91-1.66l-1.13-2.57c-.57-1.29-1.14-2.58-1.7-3.87-1.19-2.74-2.2-5.6-3.18-8.36-.8-2.25-1.62-4.59-2.54-6.83-.06-.16,0-.33.17-.4.15-.06.33.01.4.17.92,2.26,1.75,4.6,2.55,6.86.97,2.76,1.98,5.6,3.17,8.33.56,1.29,1.13,2.58,1.7,3.87l1.13,2.57c.21.49.55,1.05.88,1.59.52.86,1.05,1.75,1.2,2.5.03.16-.07.33-.24.36h-.07Zm-19-2.02c-.65,0-1.3-.02-1.95-.07l-.58-.04c-1.64-.12-3.35-.25-5.01-.55l-.45-.09c-1.12-.22-3.45-.67-4.08-.26-.14.09-.33.05-.42-.09-.09-.14-.05-.33.09-.42.77-.5,2.66-.19,4.52.17l.44.08c1.63.3,3.24.42,4.95.55l.58.04c3.19.24,6.78-.22,9.2-.59.17-.03.32.09.35.25.03.17-.09.32-.25.35-2.13.33-4.77.67-7.39.67h0Zm14.83-62.01c-.14,0-.27-.1-.3-.24-.09-.42-.04-.74.14-.98.31-.38.86-.39,1.45-.4.51,0,1.03-.01,1.32-.26,1.21-1.04.65-2.06-.21-3.28l-.11-.15c-.08-.11-.07-.26,0-.36.08-.11.22-.14.35-.1.06.02.15.03.24.04,0-.12.01-.25.02-.36.01-.13.02-.28.01-.34-.02-.11.02-.23.11-.3.09-.07.21-.09.32-.04.11.05.22.04.38.03.07,0,.14-.01.22,0,.15-.5-.06-.85-.32-1.29-.19-.32-.41-.69-.47-1.14-.02-.13.06-.26.18-.32.13-.05.27-.02.36.08.12.15.28.19.39.2.19,0,.44-.08.63-.25.06-.06.15-.08.22-.08.08,0,.16.04.21.1.14.16.35.34.55.33.19-.01.36-.22.47-.39.06-.1.15-.25.15-.38-.34-.08-.93-.24-1.28-.5h-.06c-.15-.02-.29-.04-.41-.06-.09-.02-.17-.08-.21-.16s-.05-.18,0-.26c.13-.29.3-.45.46-.52-.14-.48.48-.9.69-1.05.46-.31,1.03-.26,1.58-.21.88.08,1.39.09,1.62-.73.07-.26.13-.61,0-.78-.27-.31-1.25-.18-2.12-.07-1.46.19-3.11.41-3.66-.84-.06-.13-.02-.28.1-.37.12-.09.27-.08.38.01.56.48,1.42.67,2.1.46.33-.1.76-.34.91-.91.17-.6-.07-1.12-.3-1.46-.51-.75-1.51-1.37-2.38-1.47-1.13-.13-2.52.43-2.64,1.33-.01.08-.01.1.2.22.17.09.39.21.46.49.05.24-.04.5-.3.85-.35.46-.94.43-1.51.39-.44-.03-.89-.06-1.18.15-.58.41-.53.61-.36,1.26.03.12.07.25.1.4.56.12,1.48.47,1.7,1.12.09.27.1.7-.41,1.17-.13.12-.51.48-.94.35-.16-.05-.29-.16-.39-.29,0,.22-.08.47-.23.74-.05.1-.15.16-.27.16-.11,0-.22-.07-.27-.17-.19-.38-.27-.83-.35-1.26l-.06-.33s-.07-.06-.1-.08c-.4.11-.76.38-1.14.75-.06.06-.14.09-.23.08-.08,0-.16-.04-.22-.11-.06-.08-.13-.14-.19-.2-.17-.16-.35-.34-.44-.69-1.28.1-1.5.7-1.82,1.57-.22.6-.47,1.29-1.13,1.87-.4.36-.91.81-1.34.61-.37-.17-.35-.66-.35-.82,0-.51.52-.93,1.18-1.35-.71-.06-1.27-.21-1.44-.64-.2-.5.31-1,.47-1.16.09-.08.21-.11.32-.07.08.03.21.1.36.18.84.44,1.11.47,1.18.42s.03-.05.02-.22c-.03-.29-.1-.38-.13-.4-.08-.06-.29-.02-.48.01-.31.05-.65.11-.95-.07-.4-.23-.89-.53-.88-.99,0-.44.48-.69.63-.77.33-.17.76-.02,1.19.16-.55-.56-1.61-1.41-2.04-1.53-.83-.23-1.12.19-1.53.77-.37.52-.83,1.17-1.79,1.2-.86.03-1.42-.53-1.9-1.01s-.86-.86-1.48-.79c-.42.05-.44.14-.51.37-.07.22-.16.55-.6.78-.35.18-.92.14-1.59.08-.14-.01-.27-.03-.36-.03-.17,0-.3-.15-.29-.32,0-.16.14-.29.3-.29h0c.1,0,.24.02.4.03.36.03,1.03.1,1.25-.01.21-.11.24-.22.3-.41.11-.37.27-.72,1.03-.8.92-.1,1.48.47,1.98.97.45.45.82.82,1.45.83.65-.02.95-.45,1.3-.94.43-.6.95-1.35,2.2-1,.66.18,2.41,1.6,2.74,2.32.09.18.09.35.03.49-.06.12-.2.19-.33.17-.18-.03-.4-.13-.63-.23-.23-.1-.71-.31-.83-.25-.28.15-.31.24-.31.24,0,.11.41.35.54.43.15.09.36.05.57.01.31-.05.67-.12.96.11.21.16.33.43.36.83h0c.36-.53.95-.94,2.18-.97.13-.02.3.12.31.28.03.33.13.42.3.59,0,0,.02.01.02.02.24-.21.5-.4.79-.54-.29-.27-.52-.58-.51-1,.03-.6.28-.79.49-.84.38-.09.82.23,1.18.6-.17-.67-.31-1.24.61-1.89.46-.32,1.05-.29,1.57-.26.43.03.84.05.99-.15.2-.26.2-.36.2-.36-.01,0-.09-.05-.15-.08-.21-.11-.59-.32-.52-.84.18-1.3,1.89-2.02,3.32-1.86,1.05.12,2.2.83,2.81,1.73.43.63.56,1.31.38,1.96-.1.35-.27.64-.52.87h.02c1.17-.15,2.18-.28,2.66.27.26.3.3.74.13,1.34-.38,1.34-1.47,1.24-2.26,1.17-.47-.04-.9-.08-1.18.1-.41.28-.44.42-.44.42.11.06.9.11,1.51-.07.15-.04.31.03.37.18s0,.31-.15.38c-.23.11-.47.2-.71.28.13.12.25.25.37.37.06.06.1.16.1.24.1.28.04.61-.19.97-.26.42-.58.64-.94.67-.29.02-.57-.09-.85-.33-.26.17-.56.24-.85.23h-.05c.05.09.1.18.16.26.33.54.69,1.16.27,2.06-.06.13-.21.2-.35.17-.09-.02-.19-.02-.3,0-.07,0-.16.01-.23,0v.09c-.02.19-.04.43,0,.55.04.1.02.22-.06.3-.07.08-.17.12-.28.1.68,1.01,1.32,2.37-.18,3.66-.46.39-1.12.4-1.71.41-.29,0-.6,0-.8.07.05.05.08.12.08.19.03.62-.41.72-.54.74h-.04l-.03.04Zm-7.8-10.32c-.41.24-1.3.78-1.31,1.1,0,.22.03.28.03.28.03-.04.26-.2.61-.52.31-.27.51-.57.66-.87h.01Zm-1.43-1.48c-.18.21-.2.32-.19.35.05.12.38.27,1.72.29h.24c.02-.05.04-.1.05-.15-.47.2-1.18-.16-1.7-.44l-.12-.06h0Zm7.71-1.28c.07.13.11.32.16.55s.19.84.34.89c.02,0,.14-.01.35-.21.21-.2.3-.38.25-.53-.1-.3-.64-.57-1.1-.69h0Zm-.68.53c.1.09.19.18.28.28,0-.05-.02-.09-.03-.14-.03-.15-.08-.36-.11-.41-.23-.39-.95-1.16-1.2-1.17,0,.01-.03.09-.03.27,0,.27.27.51.6.76.05,0,.1,0,.15-.01.14,0,.27.09.31.22.02.06.03.13.05.19h-.02Z"
  />
  <path
    d="m167.52,135.91c-.08,0-.16,0-.24-.02-.14-.02-.28-.05-.41-.1-.06.04-.13.05-.19.04-.7-.09-1.35-.4-1.85-.87-.37.23-.95.26-1.41.11-.63-.21-.98-.69-1-1.33h-.6c-.17,0-.3-.14-.3-.3,0-.17.13-.3.3-.31.32,0,.57-.02.77-.05.05-.03.11-.05.17-.05h.17c.31-.08.41-.19.44-.25.14-.28-.41-.98-.8-1.49-.34-.44-.67-.86-.83-1.26-.23.35-.59.55-.98.56h-.02c-.33,0-.66-.14-.9-.39-1.25.36-2.66.25-3.91.16-.24-.02-.48-.04-.71-.05-.09,0-.17-.05-.22-.12-.05-.07-.08-.16-.06-.24.02-.09.02-.19.03-.29-.55.5-1.19.81-1.91.9-.6.08-1.25,0-1.91-.2-.09.27-.25.39-.37.45-.19.09-.4.08-.6-.01-.03.07-.05.13-.07.2-.05.16-.22.24-.38.19-.4-.13-.76.21-1.3.8-.3.33-.62.68-.98.87-.92.49-2.22.59-2.86.61-.12.37-.35.57-.55.68-.46.24-1.16.19-1.77-.12-1.26-.65-1.5-2.2-1.53-3.07-.02-.42.04-.83.09-1.23.06-.45.11-.88.07-1.32-.05-.5-.23-1-.42-1.53-.17-.48-.35-.97-.43-1.48-.31-.32-.57-.81-.76-1.54-.56-2.09-.22-4.59.28-6.23.42-1.37.95-2.19,1.65-2.52.16-.07.32-.12.48-.14.26-.69.98-1.37,1.59-1.93.22-.21.42-.39.56-.55.19-.21.41-.53.65-.87.29-.41.59-.85.92-1.21-.33-.09-.75-.07-1.27.06-.09.02-.18,0-.25-.05s-.12-.13-.13-.22c-.03-.32-.03-1.57.46-1.78.15-.07.33,0,.4.15s0,.33-.15.4c-.02.05-.1.4-.11.83.41-.07.99-.12,1.53.14.19-.15.38-.27.58-.33.23-.07.45-.08.66-.05.29-.18.59-.28.89-.21.31.07.55.3.73.69.04.1.03.2-.02.29-.06.09-.15.14-.25.14-.3,0-.59-.09-.86-.17-.11-.03-.23-.07-.34-.09-.17.13-.34.28-.49.41-.11.09-.21.18-.3.26-.13.1-.32.08-.43-.05-.03-.04-.06-.07-.09-.1-.33.36-.66.84-.96,1.25-.25.36-.48.69-.7.93-.15.17-.36.37-.6.59-.48.45-1.09,1.02-1.36,1.53.1.03.19.06.3.1.07.03.14.06.19.1l.09-.12s.05-.08.08-.12c.09-.13.28-.17.41-.09.14.08.19.26.11.41-.02.04-.05.08-.07.12-.11.21-.08.41.07.6.06.08.15.15.25.21,0-.01,0-.03.02-.04.07-.12.21-.18.34-.14.23.06.47.15.72.24.12.04.21.16.21.28v.06c.13.08.18.24.11.38-.07.15-.24.22-.39.16-.03-.01-.07-.03-.1-.04-.15-.05-.31-.06-.49-.06-.28-.01-.6-.02-.91-.22-.31-.19-.42-.47-.51-.7-.06.05-.11.1-.17.14l-.16.14c-.12.1-.29.1-.41,0-.26-.23-.4-.5-.43-.8-.04.01-.08.03-.12.05-.52.25-.97.97-1.33,2.15-.47,1.56-.79,3.92-.27,5.89.1.38.21.68.34.92.05-.01.1-.02.14,0,.28.05.54.19.75.38.19-.08.41-.13.66-.16.36-.04.62.1.86.22.1.05.2.1.29.13.23-.03.46-.07.71-.1.15-.02.29.07.33.22.04.14-.03.29-.16.36-.37.18-.67.19-.92.14-.45.07-.87.13-1.27.14.06.34,0,.7-.13,1.02-.04.09-.12.15-.22.17h-.04c.13.39.25.79.29,1.2.05.51,0,.99-.07,1.46-.05.39-.1.76-.08,1.13.03.74.22,2.05,1.21,2.56.43.22.93.27,1.21.13.16-.09.26-.24.29-.47.02-.15.15-.27.3-.27,1.13,0,2.18-.21,2.82-.55.27-.14.55-.45.82-.74.46-.5.98-1.07,1.65-1.02.03-.08.07-.15.11-.23-.09-.18-.14-.41-.12-.67-.41-.25-.81-.54-1.21-.88-.11-.1-.14-.26-.06-.39.07-.13.22-.18.37-.13.4.15.85.29,1.28.43.17-.22.37-.26.48-.26.19,0,.36.13.46.33.05.09.08.2.1.32.05.07.06.15.04.24.06.05.09.11.11.19,0,.08.02.16.03.23.62.21,1.23.29,1.77.22.86-.11,1.59-.6,2.16-1.43.09-.13.26-.17.4-.1.14.08.2.24.14.39-.07.18-.08.44-.09.69v.21c.13,0,.27.02.4.03,1.32.1,2.69.2,3.87-.19.13-.04.27,0,.35.12.13.19.34.31.54.31.12,0,.24-.04.34-.12-.15-.2-.19-.4-.14-.6.04-.14.13-.26.26-.35.02-.08.07-.16.14-.2.13-.08.28-.07.48-.05h.08c.06,0,.12.03.17.06.05,0,.1.01.15.02.05,0,.1.01.15.02-.26-.19-.53-.39-.7-.61-.07-.09-.08-.2-.04-.3.04-.1.13-.17.24-.19,1.01-.15,2.31.17,2.72,1.23.03.08.03.17,0,.25-.04.08-.11.13-.19.16-.64.18-1.29.15-1.91.09-.16.06-.21.13-.22.16-.11.25.41.91.78,1.4.6.77,1.17,1.51.87,2.13,0,.03-.03.05-.05.08.04.02.08.03.12.05.12.06.18.19.17.31h0c.1-.09.24-.1.35-.03.62.39.72.75.68,1,.04.04.08.08.13.12-.06-.1-.05-.22,0-.32.07-.1.19-.15.32-.13.63.13,1.08.5,1.28,1.03.15.07.3.11.44.13.16.02.31.01.43-.04-.17-.44-.31-.89-.43-1.34-.04-.15.04-.3.18-.36.02,0,.04-.02.07-.02,0-.25.15-.56.55-.94.09-.08.22-.11.33-.06.55.24.97.79,1.24,1.37h.03c.47-.08.63-.23.63-.28,0,0,0-.14-.35-.4-.33-.15-.64-.32-.95-.53-.13-.09-.17-.26-.1-.4.08-.14.25-.19.39-.13.39.18.71.35.95.53.37.16.74.28,1.11.35-.03-.09-.06-.18-.09-.24l-.03-.06c-.08-.14-.03-.32.11-.41.14-.08.32-.04.41.1.02.02.03.05.04.07.19.32.49.55.86.67-.16-.09-.31-.19-.45-.3-.06-.05-.1-.11-.11-.18-.05-.27.04-.52.25-.7.08-.07.18-.09.28-.06.44.12.78.39.92.76.03.08.05.16.06.23.33.1.69.17,1.06.19-.32-1.05-.41-1.73-.02-2.04.4-.31.98.05,1.17.17.13.08.18.24.12.38-.07.17-.18.46-.02.57.23.16.85.04,1.22-.32.41-.41.37-.82.3-1.4-.02-.2-.04-.4-.05-.62,0-.14.09-.26.23-.3.14-.04.28.03.35.15.02.04.07.1.12.17.54-.2.61-.35.62-.38.03-.1-.19-.35-.33-.51-.18-.2-.38-.44-.5-.71-.11.05-.23.11-.28.16-.09.08-.2.1-.31.06s-.18-.14-.2-.25c-.06-.47.09-.89.22-1.3.02-.06.04-.13.06-.19-.05.02-.09.04-.12.06-.09.05-.21.06-.3,0-.09-.05-.16-.15-.16-.25-.03-.63.23-1.13.48-1.62.12-.23.24-.46.32-.69-.05,0-.1,0-.15.03-.14.25-.38.51-.7.73-.11.08-.26.07-.36,0-.11-.08-.15-.22-.1-.35.13-.35.39-.65.69-.83,0-.04.01-.07,0-.1-.02-.06-.15-.16-.55-.17-.1,0-.19-.05-.24-.13-.06-.08-.07-.18-.04-.27.13-.4.44-.75.74-1.08h-.04c-.22-.02-.42-.05-.58-.02-.14.02-.28-.06-.33-.19-.05-.14,0-.29.13-.37.02,0,.03-.02.05-.03-.1.02-.21,0-.28-.08-.08-.08-.11-.2-.07-.31.14-.42.39-.71.72-.82.14-.05.33-.08.56-.02.24-.23.43-.5.55-.8.04-.09.11-.15.2-.17.09-.03.18,0,.26.04.64.44.86.25,1.46-.26.08-.09.19-.38.25-.54.09-.23.14-.38.2-.48.11-.17.31-.26.51-.35.14-.06.32-.14.37-.22.33-.58.33-1.67.34-2.63,0-.67,0-1.3.1-1.81.19-1.01.49-1.27.84-1.57.19-.17.41-.36.66-.74.85-1.28.22-1.79-.65-2.5-.54-.44-1.09-.89-1.3-1.57-.19-.62-.01-1.25.16-1.86.17-.61.33-1.19.13-1.71-.22-.56-.79-.82-1.33-1.08-.46-.22-.89-.42-1.14-.79-.09-.14-.06-.33.08-.42s.33-.06.42.08c.16.23.52.4.9.58.62.29,1.33.63,1.64,1.41.28.71.08,1.41-.11,2.09-.15.55-.3,1.07-.16,1.52.15.51.62.88,1.1,1.28.86.7,1.93,1.57.77,3.31-.3.45-.56.67-.76.86-.3.27-.49.43-.64,1.23-.09.45-.09,1.05-.09,1.69,0,1.09,0,2.21-.42,2.93-.14.26-.43.38-.65.48-.08.04-.21.09-.24.13s-.09.22-.14.35c-.14.39-.24.64-.39.76-.58.49-1.09.94-1.94.51-.12.2-.26.39-.42.57.03.07.04.16,0,.24-.11.27-.28.5-.48.69.14.01.28.02.4,0,.12-.01.24.04.3.15s.06.24-.01.34c-.12.17-.27.34-.43.51-.16.17-.32.35-.44.52.42.11.59.34.65.54,0,.03.02.06.02.1.18,0,.35.04.52.12.13.06.19.2.17.34-.09.42-.27.78-.46,1.12-.15.29-.3.57-.37.86.08-.03.16-.05.21-.09.1-.06.22-.05.32.01s.15.18.13.29c-.03.29-.13.57-.22.84-.06.18-.12.35-.16.53.07-.04.14-.07.19-.11.09-.08.23-.09.34-.03.11.06.17.18.16.3-.02.24.21.5.43.76.27.31.57.66.46,1.07-.1.35-.47.62-1.22.87h-.02c.06.59.09,1.2-.49,1.77-.56.55-1.49.74-1.99.39-.16-.11-.47-.42-.29-1.05-.19-.09-.27-.08-.27-.08-.03.06-.1.36.34,1.7.03.09.03.22-.03.3-.05.08-.13.16-.23.16-.47.02-1.02-.03-1.57-.19-.03.07-.06.13-.1.2-.06.09-.16.14-.27.15-.41-.01-.78-.12-1.1-.3-.06.09-.16.14-.28.13-.29-.03-.58-.08-.88-.16v.14c-.05.38-.42.66-1.04.78.1.3.15.6.17.84,0,.09-.03.18-.1.25-.07.06-.17.09-.26.07-.51-.09-.98-.29-1.4-.6.03.07.05.14.08.21.05.12.02.26-.09.35-.24.2-.53.3-.86.3l-.07-.06Zm1.12-1.42c.25.2.52.35.82.45-.03-.13-.07-.26-.11-.39-.24,0-.47-.02-.7-.06h0Zm-5.62-.74c.02.46.31.66.58.75.31.1.62.07.81,0-.15-.21-.27-.43-.36-.67-.02-.05-.02-.1-.02-.15-.05.05-.13.08-.21.08h-.81,0Zm5.4-.55c-.16.19-.24.34-.19.43.07.15.41.27.83.31-.18-.31-.4-.58-.64-.74Zm-5.71-4.95s.04.03.06.04c.19.14.39.29.54.43.03.03.05.06.07.09.15,0,.29-.01.44-.03-.26-.29-.66-.47-1.1-.53h-.01Z"
  />
  <path
    d="m168.81,108.67c-.16,0-.29-.12-.3-.28,0-.07,0-.14.05-.19.06-.1.14-.18.24-.25-.03-.05-.06-.09-.09-.13-.06-.06-.09-.14-.08-.23,0-.06.03-.12.07-.17-.02-.05-.03-.11-.02-.16.04-.32.17-.64.37-.92-.02-.03-.05-.06-.07-.09-.27-.07-.53-.18-.76-.32-.14-.09-.18-.27-.1-.41,0,0-.02-.01-.03-.02h-.2c-.09,0-.17,0-.24.01-.15.03-.3-.06-.35-.21s.03-.31.17-.37c.3-.13.54-.13.73-.06.1-.01.2-.03.29-.07.12-.05.26-.02.34.08.09.1.1.24.04.35-.02.03-.03.07-.05.11.09.08.19.17.31.25.05.03.1.07.14.11.17.03.33.04.49.02.15-.02.27.07.32.2s0,.28-.11.36l-.12.09c.06.04.13.07.23.07,0,0,0-.07.02-.11.05-.16.15-.49.51-.53.32-.03.71-.12,1.08-.2.47-.1.91-.2,1.26-.21s.7.04,1.04.09c.43.06.84.13,1.19.04.17-.04.33.06.37.23.04.16-.06.33-.23.37-.46.11-.94.04-1.41-.03-.31-.05-.63-.09-.93-.09s-.71.1-1.15.2c-.38.08-.78.17-1.13.21.03,0,0,.06,0,.1-.03.1-.08.27-.21.4.02.03.04.07.05.11.03.13-.03.27-.15.34-.27.15-.57.2-.85.22-.05.03-.11.07-.16.11,0,.02.02.03.03.05.06.11.12.21.19.27.11.1.14.27.05.4s-.24.17-.38.11c-.12-.06-.14-.03-.15,0-.05.09-.15.15-.25.16h-.06Zm-6.85,8.46c-.08,0-.16-.03-.22-.1-.1-.1-.11-.25-.04-.37.56-.89,1.25-1.81,2.11-2.17-.3-.36-.18-.66-.03-.92.09-.17.14-.26.09-.43-.09-.3-.3-.59-.5-.87-.37-.52-.85-1.2-.39-1.95-.13-.03-.24-.09-.32-.15-.2-.14-.36-.35-.46-.62-.28-.07-.54-.14-.78-.22-.31-.01-.6-.1-.8-.28-.05-.04-.1-.1-.14-.17-.29-.2-.49-.42-.59-.67-.04-.09-.03-.19.02-.28.05-.08.14-.14.23-.15.16-.02.32-.01.47,0h.15c.1,0,.19.06.25.14.05.08.07.19.03.28-.04.11-.06.2-.06.27.16.09.34.17.56.25.23,0,.49-.06.7-.16.14-.2.32-.34.54-.42.26-.1.56-.08.84.03.07-.62.17-1.07.92-1.47.35-.18,1.95-.18,2.31.05.09.06.18.22.17.33-.02.23-.24.33-.32.36-.15.07-.33,0-.4-.15,0-.03-.02-.05-.02-.08-.44-.05-1.28-.05-1.46.03-.51.27-.54.48-.61,1.13l-.04.33c-.02.11-.09.2-.19.24s-.22.02-.3-.04c-.25-.2-.49-.27-.69-.19-.12.04-.22.14-.3.27.04.33.16.58.32.69.15.1.35.1.61.02.14-.05.29.01.37.14.07.13.04.29-.08.38-.8.63-.53,1.01-.03,1.7.23.32.47.65.59,1.05.13.43-.03.71-.14.91-.07.13-.04.24.09.35.12.1.72.08,1.04.06.39-.02.76-.03,1.02.04.14-.1.27-.2.41-.29,0,0,0,0,.02-.01v-.03c-.17-.59-.34-1.18-.45-1.77-.14-.31-.2-.63-.12-.92,0-.02.02-.05.02-.07,0-.68.15-1.34.56-1.98-.06-.13-.11-.28-.14-.42-.04-.16.06-.33.23-.36.27-.06.45-.09.78-.07.12,0,.22.09.26.2.04.11,0,.24-.07.32-.13.12-.24.25-.34.37.19.27.47.48.81.6.14.05.22.19.2.33s-.14.25-.28.26c-.11,0-.21.02-.32.03.05.12.02.25-.07.34-.38.36-.69.51-.97.46-.02.02-.03.04-.04.06,0,.22.03.45.07.67.18.36.55.8,1.11,1.34.06.06.09.14.09.22s-.03.16-.09.22c-.17.16-.35.31-.53.45.05.19.11.38.16.57.04.14-.03.29-.16.35-.74.36-1.47.15-2.1-.04-.42-.12-.81-.24-1.14-.18-.62.12-1.19.7-1.66,1.35.07.04.12.1.14.17.05.16-.03.33-.19.38-.18.06-.36.14-.52.23-.05.03-.1.04-.15.04h-.04Zm-1.69-12.37s-.1-.01-.14-.04c-.35-.19-.63-.46-.81-.77-.07.06-.14.1-.2.14-.42.22-1,.18-1.61-.1-.09-.04-.16-.13-.17-.22-.08-.03-.16-.06-.24-.1-.06-.03-.13-.06-.21-.09-.16-.06-.23-.24-.17-.4s.24-.23.4-.17c.09.03.17.07.24.1.02.01.05.02.08.03.07-.11.19-.18.29-.24.11-.06.24-.06.34.02.1.07.14.2.11.32-.02.09-.06.2-.12.3.31.1.6.1.78,0,.14-.07.23-.21.26-.42.03-.15.19-.25.31-.25.15,0,.28.13.29.28.03.3.15.57.37.78.05-.19.1-.38.07-.56-.02-.15.07-.3.22-.34.14-.04.3.03.36.18.07.18.18.35.28.32.16-.04.4-.42.33-.91-.02-.17.09-.32.26-.35.16-.03.32.09.35.25.06.36.12.53.16.61.3-.28.8-1.62.88-2.03,0-.08,0-.17.07-.24.09-.11.26-.15.38-.08.24.12.17.37.11.58-.11.41-.7,2.42-1.47,2.42h-.02c-.13,0-.23-.06-.32-.13-.14.23-.33.4-.56.46-.08.02-.28.06-.5-.05,0,.02,0,.04-.02.06-.03.12-.07.24-.07.35,0,.1-.07.2-.16.25-.05.03-.1.04-.15.04Zm-5.39-.99s-.11,0-.17-.02c-.39-.11-.53-.54-.64-.91-.05-.16-.1-.33-.16-.42-.15-.23-.3-.63-.48-1.08-.17-.43-.47-1.19-.67-1.43-.1.09-.25.13-.36.06-.15-.08-.22-.24-.14-.39.17-.31.38-.35.51-.34.47.03.78.73,1.23,1.87.16.39.32.8.43.98.1.16.17.37.23.57.05.15.15.47.22.51,0,0,.11.02.44-.27.33-.3.23-.97.14-1.55-.05-.3-.09-.58-.08-.83,0-.1.06-.19.14-.25.03-.02.07-.04.11-.04-.12-.28-.21-.58-.26-.86-.02-.12.04-.24.14-.31s.24-.06.34.01c.13.09.3.14.48.19h.03c0-.07,0-.13-.02-.2-.05-.58-.11-1.19.11-1.81.05-.14.18-.22.34-.2.09.01.3,0,.46-.02.23-.02.42-.04.57,0,.16.04.26.21.22.37-.04.16-.21.26-.37.22-.05-.01-.24,0-.37.02-.12.01-.24.02-.35.03-.1.43-.06.87-.02,1.34.02.23.04.46.05.69,0,.11-.05.21-.15.27-.1.05-.21.06-.31,0s-.23-.09-.37-.13c0,0-.02,0-.04-.01.09.25.22.49.36.7.08.11.07.26,0,.36-.08.11-.23.14-.35.09-.04-.02-.08-.03-.12-.04,0,.09.03.19.04.3.11.7.24,1.58-.33,2.1-.21.19-.52.43-.84.43h.02Zm-.81,4.39c-.09,0-.17-.02-.26-.05-.11-.04-.21-.1-.3-.18l-.02.02c-.06.06-.16.09-.24.08-.49-.04-.91-.32-1.17-.75-.19.14-.37.16-.5.16-.12,0-.26-.04-.41-.15-.17.34-.46.52-.73.56-.59.09-1.24-.34-1.5-1.02-.06-.16.02-.33.18-.39s.33.02.39.18c.17.45.56.67.82.63.31-.05.37-.42.37-.63,0-.14.1-.26.23-.29.14-.03.27.03.34.15.13.25.26.35.33.35.04-.01.17-.07.3-.27.06-.1.18-.15.3-.14.12.02.21.1.25.21.1.34.29.58.54.7,0-.08,0-.13,0-.17,0-.02,0-.04-.02-.06-.04-.16.06-.32.21-.36.16-.05.32.04.37.2,0,.02,0,.04.02.06.06.18.25.47.42.53.04.01.08.01.13-.02.11-.11.09-.74.09-1.04,0-.34,0-.64.04-.84.04-.14.18-.24.32-.22h.02c0-.1.05-.18.12-.23s.16-.08.24-.06c1.07.2.99,1.66.96,2.37,0,.12-.09.23-.21.27-.11.04-.25,0-.33-.09s-.15-.19-.22-.3c-.05.06-.13.1-.21.11-.06,0-.12,0-.16-.03-.04.24-.13.44-.3.56-.14.1-.29.15-.44.15h.03Zm1.38,5.86s-.1-.01-.15-.04c-.33-.18-.65-.39-.97-.59-.34-.22-.69-.45-1.05-.64-.05-.03-.11-.05-.16-.08-.14-.08-.19-.26-.11-.41.08-.14.25-.2.4-.13-.13-.21-.23-.42-.31-.65-.05-.14.02-.3.15-.37.14-.07.3-.02.39.1.1.15.25.3.41.45.03,0,.07.01.1.03.05.02.13.04.22.07-.03-.09-.05-.18-.08-.26-.04-.13-.08-.27-.13-.41-.05-.14,0-.3.14-.37s.3-.03.39.09c.1.13.29.24.48.34l.06.03c.12-.34.22-.69.28-1.04.02-.14.14-.24.27-.25.1-.27.27-.47.48-.58.14-.08.33-.03.41.12.08.15.03.33-.12.41-.21.11-.32.52-.29,1,0,.16-.11.3-.27.32h-.11c-.07.2-.14.41-.23.6-.04.09-.12.16-.21.18-.1.02-.2,0-.27-.07-.04-.04-.1-.07-.17-.11.04.11.09.22.14.33.06.12.04.26-.05.35-.02.02-.05.04-.07.06.37.34.67.72.73,1.2,0,.11-.04.22-.13.29-.05.03-.11.05-.17.05v-.02Zm-2.98,3.45c-.09,0-.18-.04-.23-.11-.13-.15-.23-.3-.34-.49h0c-.04.1-.07.18-.1.25-.04.12-.14.21-.27.22-.11.02-.25-.06-.3-.18-.03-.06-.05-.12-.07-.18-.16.1-.35.17-.58.22-.1.02-.21-.02-.28-.09-.35-.38-.48-.82-.48-1.26,0-.1,0-.21,0-.33v-.04c0-.05.02-.1.02-.16-.18.16-.37.3-.55.42-.13.08-.3.05-.4-.06s-.09-.29,0-.4c.2-.21.42-.38.66-.53.22-.2.46-.45.71-.72.1-.11.26-.13.38-.06-.1-.21-.22-.41-.34-.62-.17-.31-.35-.62-.5-.96-.07-.15,0-.33.16-.4.15-.07.33,0,.4.16.13.31.3.6.47.9.22.39.44.79.6,1.23.05.15-.02.32-.17.39l-.29.11c-.14.05-.28.11-.42.17-.03.1-.06.2-.09.29.27.01.51.09.7.22.06-.15.23-.22.37-.17.15.05.24.2.21.35.13-.02.26.05.32.17.08.15.15.3.22.45.62-.02,1.53.17,2.51.37.28.06.59.12.66.12.18,0,.31.1.32.27.02.17-.12.32-.28.34-.1,0-.24-.02-.82-.13-.55-.11-1.44-.29-2.07-.34.03.06.06.11.09.17.07.14.03.31-.1.4-.05.03-.11.05-.17.05l.03-.04Zm-2.04-1.65c0,.18.07.29.16.31.08.02.21-.03.33-.14-.11-.11-.28-.17-.49-.17Zm-.18,10.49s-.07,0-.1-.02c-.29-.1-.63-.21-.94-.28-.12.04-.25.07-.38.08-.26.09-.51.15-.78.16h-.02c-.12,0-.23-.07-.28-.18-.03-.08-.04-.16,0-.24-.1-.05-.21-.12-.31-.19s-.15-.2-.12-.32.13-.21.25-.23c.56-.09,1.11,0,1.63.15.32-.19.65-.43.96-.71.8-1.31,1.6-2.82,1.47-4.36,0-.17.11-.32.28-.33.19-.01.32.11.33.28.09,1.01-.17,1.98-.57,2.9.06,0,.11.03.16.07.12.1.14.27.05.4-.1.14-.22.31-.36.48.23.05.46.18.7.39.07-.07.14-.13.22-.2.17-.15.35-.31.44-.47.05-.09.15-.15.26-.15s.21.05.26.14c.17.26.38.26.8.24.4-.02.9-.04,1.35.35.08.07.12.17.1.27-.02.18,0,.37.02.58.02.24.04.5,0,.76-.03.17-.19.27-.35.25-.17-.03-.28-.18-.25-.35.03-.18,0-.39,0-.6-.02-.17-.03-.34-.03-.52-.24-.14-.51-.13-.81-.12-.33.01-.73.03-1.06-.22-.1.11-.21.21-.32.3-.14.13-.28.25-.36.36-.05.08-.14.12-.23.13-.09,0-.18-.03-.24-.1-.26-.29-.48-.44-.68-.44-.18,0-.43.15-.67.37l-.12.16c-.04.05-.1.09-.16.11-.12.11-.24.23-.38.35.14.06.27.12.4.18.14.07.21.24.15.39-.05.12-.16.19-.28.19h-.03Zm-2.18-4.07s-.1-.01-.14-.03c-.08-.04-.13-.11-.15-.19-.13-.49-.4-.95-.67-1.4l-.06-.11c-.07-.12-.05-.28.05-.37l.2-.2c.51-.5,1.04-1.02,1.7-1.25.16-.05.33.03.39.19.04.12,0,.25-.09.33.61.7.82,1.23.71,1.7-.15.61-.84.97-1.82,1.33-.03.01-.07.02-.1.02l-.02-.02Zm-.38-1.85c.21.36.43.74.58,1.14.53-.21,1.06-.47,1.14-.79.07-.27-.16-.69-.67-1.26-.35.23-.68.56-1.01.88l-.03.03h-.01Zm-.72-2.77h-.06l-1.47-.29c-.17-.03-.27-.19-.24-.36.03-.16.19-.27.36-.24l1.14.22c0-.22-.06-.38-.16-.49-.26-.28-.9-.25-1.52-.19-.07.13-.22.19-.36.15-.09.02-.25.04-.37-.08-.14-.14-.1-.32-.09-.38.03-.14.14-.24.28-.25l.31-.03c.84-.08,1.71-.16,2.2.36.28.29.38.74.29,1.32,0,.08-.06.16-.13.21-.05.04-.11.06-.18.06h0Zm-4.5,15.66c-.13,0-.25-.09-.29-.21-.28-.88.58-1.55,1.46-2.14v-.02l-.36.18c-.14.09-.29.18-.43.27-.32.2-.63.4-.94.57-.13.07-.3.04-.39-.09-.09-.12-.08-.29.03-.4.39-.38.9-.63,1.4-.87,0,0,.02-.01.04-.02.31-.19.63-.37.95-.52.23-.17.42-.36.55-.59-.33-.01-.65.11-1,.28-.32.22-.68.41-1.05.58-.24.13-.48.25-.72.32-.15.05-.32-.03-.38-.18s.02-.32.17-.39c.22-.1.44-.19.66-.3.13-.07.26-.14.39-.22.2-.12.41-.24.62-.34.34-.23.62-.49.83-.79-.37.21-.75.36-1.13.51-.39.16-.77.31-1.11.5-.04.03-.08.05-.12.07-.14.09-.33.04-.42-.11-.09-.14-.04-.33.1-.42.04-.03.08-.05.12-.08.11-.06.22-.14.34-.21.6-.39,1.37-.88,2.09-.91h-.38c-.42,0-.85,0-1.27-.02-.14,0-.26-.11-.29-.25-.14-.82.26-1.14.44-1.23.32-.17.73-.13,1.12.09,0,0,0-.02,0-.02.04-.09.07-.18.08-.23,0-.11.08-.2.17-.25.1-.05.21-.04.3.02.14.09.3.18.36.12.38-.34.09-2.46-.22-3.5-.03.04-.06.08-.08.12-.05.1-.13.18-.28.16-.12,0-.22-.07-.27-.17-.14-.29-.22-.62-.29-.94-.07.2-.15.4-.23.6-.05.12-.16.2-.3.19-.13,0-.24-.1-.27-.23l-.09-.35c-.22-.8-.46-1.7-.04-2.29.21-.3.57-.46,1.05-.48.2.01.31.12.32.29,0,.17-.12.31-.29.32-.29.02-.49.09-.59.23-.18.25-.12.72,0,1.2.07-.2.13-.41.18-.61.03-.13.14-.22.27-.22.14,0,.25.07.3.19.13.31.21.64.28.96.03.14.06.27.1.4.03-.04.06-.07.09-.11.06-.09.17-.13.27-.14.11,0,.21.06.26.16.28.51,1.13,3.91.27,4.68-.13.12-.38.26-.77.12-.04.11-.09.22-.09.3,0,.12-.08.22-.19.27-.02,0-.04.01-.06.02.33,0,.66,0,.99.01.12,0,.22.08.27.19s.02.23-.05.32c-.09.1-.19.19-.29.28.11.08.15.23.1.36-.08.18-.17.35-.29.5.18,0,.37.03.56.09.15.05.23.21.19.37-.03.13-.08.25-.14.36.11-.02.23-.03.34-.04.12-.01.23.05.29.15s.05.23,0,.32c-.12.18-.29.35-.49.51.85.01,1.61.21,2.35.46.16.05.25.23.19.39-.05.16-.23.25-.39.19s-.32-.11-.49-.16c.11.07.22.14.32.22.12.08.16.24.1.37s-.19.21-.34.18c-.56-.11-1.1-.24-1.6-.4.15.17.28.35.39.55.06.12.04.27-.05.36-.1.1-.24.12-.36.05-.31-.17-.5-.44-.62-.76l-.14-.14c-.37.72-.89,1.33-2.06,1.38h0l-.03.02Zm1.53-1.86c-.59.39-1.16.82-1.25,1.22.71-.12,1.02-.54,1.32-1.16-.02-.02-.04-.04-.07-.06Zm-1.48-4.27h1.09c-.06-.01-.11-.04-.15-.08-.31-.29-.63-.36-.79-.28-.09.05-.14.17-.15.35h0Zm27.03-1.76s-.11-.01-.16-.04c-.35-.21-.44-.47-.45-.66,0-.08,0-.17.04-.27-.53.05-.84.02-1.04-.18-.22-.21-.22-.51-.18-.93-.05-.25-.06-.52,0-.79-.18-.04-.34-.09-.51-.16,0,.07.02.14,0,.21.05.07.08.16.06.26s-.09.18-.19.22c-.44.84-1.91,1.41-3.12,1.89-.23.15-.48.25-.75.29-.15.02-.3-.07-.34-.21-.04-.15.03-.31.17-.37.18-.08.4-.16.64-.26.32-.22.58-.56.76-1,.04-.1.12-.17.23-.19.1-.02.21.02.28.09.25.27.41.32.46.29.15-.1.24-.72,0-1.21-.07-.13-.03-.29.09-.38s.28-.08.39.02c.05.05.1.09.15.13-.07-.15-.12-.31-.12-.47,0,0-.02-.01-.03-.02-.03-.02-.05-.03-.08-.05l-.15-.1c-.14-.09-.19-.27-.1-.42.09-.14.27-.19.42-.1.07.04.14.08.2.12.1-.08.24-.15.43-.19h.03-.04c-.45-.1-.96-.21-1.4-.68-.31-.33-.42-.9-.51-1.36-.03-.15-.06-.3-.09-.41-.05-.16.05-.33.21-.38.16-.05.33.05.38.21.04.13.07.29.1.46.08.38.17.86.36,1.07.31.33.67.41,1.08.5.27.06.56.12.85.27,0-.09,0-.18,0-.28,0-.14.11-.25.24-.28s.27.04.33.16c.27.53.61.84,1,.92.08.02.16.02.24.02.12-.06.24-.11.37-.16.07-.16.13-.32.18-.48-.27-.15-.57-.35-.72-.79-.05-.15.02-.31.16-.38.46-.21.65-.17,1.03-.06.12.04.28.16.28.29,0,.22,0,.43-.04.63.16.1.31.23.44.42,0,.02.02.04.03.07.11-.02.21-.04.31-.06.17-.06.34-.11.51-.16.16-.04.31.05.37.19.05.15-.02.31-.17.38-.16.07-.35.12-.54.17-.6.21-1.18.5-1.66.74-.11.06-.25.04-.34-.04-.04-.04-.07-.08-.09-.13-.15.11-.26.25-.31.42-.06.18.06.44.17.7.12.27.25.57.19.85h.02c.14-.02.27.05.33.18.05.13,0,.28-.1.36-.23.18-.31.32-.3.39,0,.07.11.14.15.17.14.09.19.27.11.42-.06.1-.16.15-.26.15h-.02Zm-1.17-2.13c.05.17.13.33.24.47.34-.05.39-.13.39-.13.04-.06-.08-.33-.15-.48-.14-.32-.32-.72-.19-1.12.04-.14.1-.26.17-.37-.23-.08-.44-.22-.64-.4v.65h.03c.14.03.25.17.24.31-.02.36-.05.67-.08.92,0,.05,0,.1-.02.15h.01Z"
  />
  <path
    d="m175.08,131.65c-.12,0-.24-.08-.29-.2-.06-.16.02-.33.18-.39.04-.01.07-.03.1-.05-.25-.18-.49-.28-.76-.31-.16-.02-.28-.17-.26-.33,0-.09-.01-.22-.03-.34v-.05c-.06,0-.12.01-.18.02-.19.02-.43.05-.53.1-.13.07-.28.04-.37-.06-.09-.11-.1-.26-.02-.38l.18-.24c.15-.21.3-.41.42-.61-.24.03-.49.07-.62.13-.15.08-.33.02-.41-.13-.08-.15-.02-.33.12-.41.31-.17.63-.36.89-.59-.24-.02-.49-.03-.75-.03-.23,0-.46,0-.68-.02-.12,0-.23-.09-.27-.21-.04-.12,0-.25.1-.33.43-.35.95-.5,1.45-.65.04-.01.08-.02.12-.04-.16-.06-.31-.1-.45-.1-.1,0-.19-.05-.24-.13-.05-.08-.07-.18-.04-.27.11-.3.11-.62.1-.97-.91.21-2.39.29-3.19-.27-.35-.25-.54-.6-.54-1.03,0-.17.13-.31.3-.31.16,0,.31.13.31.3,0,.23.09.4.28.53.7.49,2.34.32,3.03.08.09-.03.19-.02.27.04.08.06.13.15.13.25v.26c.02.31.02.63-.03.96.22.06.44.15.63.24.13.06.25.11.37.15s.2.15.21.27-.06.24-.18.29c-.3.14-.62.23-.93.33-.04.01-.09.03-.13.04.27.02.54.05.8.14.09.03.17.1.2.2.03.09.02.2-.04.28-.09.12-.18.22-.28.32.08,0,.16.04.21.1.07.08.1.2.06.31-.12.31-.28.59-.47.86.13-.02.26-.03.33-.06.09-.04.2-.02.29.04.08.06.13.16.12.27,0,.08.01.2.03.31l.03.21c.37.09.7.28,1.04.58.1.09.13.22.08.34-.11.27-.31.46-.59.56-.03.01-.07.02-.11.02v-.02Zm-6.74,2.24s-.09-.01-.14-.03c-.08-.04-.14-.12-.16-.21-.17-.79.22-1.19.7-1.45-.12-.04-.2-.14-.21-.26,0-.13.06-.26.19-.31.24-.1.61-.22.99-.25-.29-.08-.63-.07-.99-.05-.17,0-.34.02-.49,0-.14,0-.26-.1-.29-.24-.03-.14.03-.28.16-.34.34-.17.74-.46.82-.85-.07-.01-.13-.02-.21-.02-.21.22-.5.37-.84.43-.13.02-.26-.04-.32-.15-.06-.12-.04-.26.05-.35.23-.25.5-.41.78-.49.03-.05.04-.1.05-.15-.12,0-.26,0-.39-.01-.15,0-.33-.02-.4,0-.11.03-.23,0-.31-.1-.07-.09-.09-.21-.05-.32.32-.74.28-.98.24-1.05-.05-.09-.25-.14-.46-.19-.38-.09-.91-.22-1.21-.79-.08-.15-.02-.33.13-.41s.33-.02.41.13c.17.32.48.4.82.48.32.08.68.17.86.52.13.27.12.61-.06,1.12h.06c.19,0,.42.02.53-.01.08-.02.16-.02.23.02s.13.1.15.18c.06.19.07.39.04.57.11.02.21.05.32.09.11.04.18.14.19.26.03.38-.1.74-.37,1.05.46,0,.93.07,1.31.4.11.1.14.26.07.38.02,0,.03.01.05.02.1.04.16.14.17.24s-.03.21-.12.27c-.25.2-.56.32-.87.43.27.19.65.33,1.06.24.17-.04.33.07.36.23.04.16-.07.33-.23.36-.5.11-1.04,0-1.48-.3-.27.38-.64.7-1.01.87-.04.02-.09.03-.13.03h0Zm5.99-16.71c-.05,0-.11-.01-.16-.04-.38-.23-.65-.68-.92-1.11-.19-.32-.42-.68-.59-.76-.16-.08-.48-.02-.76.04-.29.05-.6.11-.88.07-.12-.02-.22-.11-.25-.23s-.03-.23-.02-.32v-.14c-.02-.17.09-.32.26-.34s.32.1.34.26v.17c.14-.01.29-.04.43-.07.39-.07.8-.15,1.13,0,.12-.09.29-.07.4.05.11.11.22.22.34.3-.21-.34-.36-.74-.33-1.15,0-.12.09-.23.2-.27.11-.04.24,0,.33.08.1.11.24.21.39.32.05.04.11.08.16.12.02-.07.04-.13.06-.19.05-.15.1-.28.1-.39,0-.12.09-.23.2-.27.11-.04.24,0,.33.08.01.02.03.03.04.05.02-.04.04-.07.07-.1.3-.36.94-.38,1.51-.26l-.03-.18c-.02-.12-.04-.25-.09-.38-.04-.1-.02-.22.05-.3s.18-.13.29-.11c.34.06.66.18.96.3.11.04.22.09.33.13,0-.35-.05-.7-.09-1.07-.04-.33-.08-.66-.09-1.01-.1-.02-.21-.04-.33-.07l-.13-.03c-.14,0-.24-.08-.28-.21s.04-.28.16-.35c.3-.19.95-.41,1.13-.47.11-.04.23,0,.31.07.08.08.11.2.07.31-.25.74-.13,1.55-.02,2.34.01.1.03.19.04.28.2-.04.41-.1.62-.16.23-.06.46-.13.71-.17v-.08c.03-.16.14-.29.33-.26.29.06.49.25.54.52.02.09,0,.18-.06.25-.05.07-.14.11-.23.11-.37.01-.74.11-1.13.22-.23.06-.47.13-.71.18v.04c0,.09-.03.18-.1.24s-.16.09-.25.08c-.38-.05-.73-.19-1.07-.32-.13-.05-.25-.1-.37-.14.04.21.08.38.23.57.09.11.09.27,0,.38s-.25.14-.38.08c-.54-.28-1.31-.31-1.46-.13-.04.05-.03.16.06.34.09.11.17.23.23.36.07.14.02.31-.12.39-.13.08-.31.05-.4-.08-.09-.12-.16-.24-.22-.34-.06-.07-.13-.15-.2-.22-.06.19-.12.38-.11.55,0,.13-.07.26-.2.3-.12.05-.27,0-.35-.1-.05-.07-.12-.13-.19-.19.15.24.35.48.61.72.09.09.12.22.07.34-.05.12-.16.18-.3.18-.16,0-.32-.04-.48-.08.18.27.37.54.51.81.06.12.04.27-.06.36-.06.05-.13.08-.21.08l.03.02Zm.15-12.83c-.07,0-.14-.02-.2-.08-.13-.11-.14-.3-.03-.43.16-.18.16-.25.16-.25-.06-.04-.43-.1-.63-.13-.27-.04-.52-.09-.72-.18-.84-.4-1.61-.86-1.71-2.19,0-.09.02-.17.09-.24.06-.06.14-.09.24-.09.57.03,1.11.23,1.64.59-.03-.13-.07-.25-.14-.38-.08-.13-.04-.31.09-.4.12-.09.3-.07.4.04.19.21.41.36.64.46-.05-.09-.11-.17-.18-.24-.11-.11-.12-.28-.03-.41.33-.42.79-.52,1.21-.54-.41-.67-1.26-1.12-2.12-1.33.11.06.22.11.32.16.13.06.19.21.16.35s-.19.23-.31.23c-.54-.02-1.1-.12-1.81-.32-.16-.05-.25-.22-.21-.38.04-.14.19-.23.32-.22,0,0-.02-.01-.03-.02-.11-.07-.16-.21-.12-.33.04-.13.15-.21.28-.22,1.46-.07,3.73.59,4.26,2.29.03.09.01.19-.04.27-.05.08-.14.12-.24.13h-.17c-.32.01-.63.02-.86.16.08.11.14.23.2.34.07.12.13.24.19.31.08.09.1.22.05.33-.05.12-.17.18-.3.18-.33,0-.64-.07-.94-.21v.04c.01.12.03.25.05.38.03.13-.03.26-.15.33-.11.07-.26.05-.36-.04-.5-.47-1-.75-1.5-.87.15.65.56.95,1.31,1.3.12.06.34.09.56.13.48.08.97.16,1.11.55.13.37-.18.72-.29.84-.06.07-.14.1-.23.1h.04Zm-13.27,9.51c-.08,0-.17-.03-.23-.1-.12-.13-.25-.26-.38-.39-.04.03-.09.05-.14.05-.61.08-.93-.05-1.33-.53-.07-.08-.09-.19-.06-.28.05-.15.12-.26.19-.35.03-.08.09-.16.18-.23.12-.09.28-.09.39.01.04.03.06.07.08.12.1-.04.23-.02.32.06l.25.22s.07.06.1.09c-.02-.31.04-.6.16-.85.05-.1.14-.16.25-.17.11-.02.21.04.28.13.03.05.07.1.1.14v-.25c0-.13.1-.23.22-.27.12-.04.25.01.33.11l.13.17c.18.25.37.51.57.67,0-.21-.02-.42-.06-.55-.03-.12,0-.25.11-.33.1-.08.24-.08.35-.01.26.17.25.4.25.49.03.1,0,.2-.04.29v.1c0,.15,0,.3.03.42,0,.09,0,.18-.07.25s-.14.11-.24.1c-.35,0-.62-.18-.86-.41.06.23.14.45.21.61.07.15,0,.32-.13.4s-.32.03-.4-.1c-.19-.29-.38-.58-.57-.86.03.26.12.54.27.81.08.14.04.31-.09.4-.05.04-.12.06-.18.06v-.02Zm-5.1,7.5s-.1-.01-.15-.04c-.04-.02-.07-.05-.1-.09h-.11c-.17,0-.35-.02-.52-.01-.14,0-.29-.11-.31-.27-.02-.15.07-.29.22-.33h-.03c-.16,0-.29-.12-.3-.28,0-.16.1-.3.26-.33.16-.02.33-.04.49-.04.25-.04.4-.1.5-.17-.02,0-.03,0-.04-.01-.12-.04-.24-.08-.36-.11-.07.03-.14.05-.21.03-.16,0-.41,0-.47-.24-.07-.25.17-.38.25-.42.05-.03.1-.03.16-.03.26.01.55.1.82.19.14.04.27.09.39.12.08.02.15.07.19.14.04.07.06.15.04.23-.04.17-.12.31-.22.44.08.03.16.05.23.08.11.05.19.16.19.28s-.07.23-.18.28c-.07.03-.13.05-.2.08.06.07.09.16.05.28-.05.17-.2.23-.42.21h-.04s-.07.02-.11.02h-.02Zm5.38.15h-.24c-.13,0-.27,0-.42-.03-.11-.02-.19-.1-.23-.2-.03-.1,0-.22.07-.3.28-.3.68-.54,1.06-.72-.02-.04-.03-.09-.04-.13-.05-.14-.12-.27-.18-.41-.21-.44-.42-.9-.24-1.36.06-.17.17-.32.33-.46.11-.2.31-.4.75-.4.14,0,.27.1.3.24s-.04.28-.18.34c-.15.07-.28.14-.38.21,0,.02-.02.04-.02.06-.04.1-.09.23-.18.36-.02.03-.04.05-.07.07,0,.06.02.13.04.2.04-.05.1-.08.17-.09h.04c.1-.1.21-.19.35-.27.13-.08.3-.05.4.06.28.34.4.73.34,1.11-.06.34-.28.65-.61.84-.07.04-.15.05-.23.03-.2.09-.43.2-.63.32.08.06.13.16.12.27,0,.16-.15.28-.3.28l-.02-.02Zm8.07-3.29c-.09,0-.18-.03-.24-.09-.12-.11-.26-.32-.28-.59-.2-.06-.45-.15-.67-.26-.23.15-.46.19-.67.13-.29-.08-.48-.36-.51-.71v-.13c-.03-.06-.05-.13-.04-.2.02-.09.07-.16.13-.2.08-.16.21-.3.36-.37.28-.14.77-.16,1.5.53.09.09.12.22.08.33-.05.12-.16.19-.28.19h-.09c.17.08.37.14.55.16.09.01.17.06.22.14.05.08.06.18.03.26-.04.11,0,.2.04.24.08.05.14.13.15.23,0,.12-.05.25-.16.31-.04.02-.09.03-.13.03h0Zm10.45-10.29h-.01c-.27-.01-.46-.25-.45-.56,0-.03,0-.07.02-.1-.22-.03-.36-.15-.42-.21-.35-.37-.35-1.11.02-1.53.13-.15.44-.41.97-.3.06,0,.12,0,.18.03.03.02.06.03.09.05.15.06.32.15.51.28.12.08.16.23.11.36s-.19.2-.33.19c-.24-.04-.37-.14-.48-.23-.02-.02-.05-.04-.08-.06-.18-.06-.37-.07-.49.07-.17.2-.16.58-.04.71.08.09.28-.05.36-.11.09-.07.21-.09.32-.04.1.05.17.15.18.27v.08c.01.32.02.55-.16.92-.05.11-.16.17-.27.17h-.03Zm-30.69,2.88c-.12,0-.22-.06-.27-.17-.12-.25-.25-.51-.38-.77-.12.01-.23-.04-.29-.14-.08-.12-.05-.28.04-.38-.02-.04-.03-.07-.05-.11-.06-.13-.02-.29.1-.37s.28-.07.39.03c.06.06.12.12.17.18-.04-.12-.06-.23-.08-.35,0-.09.02-.19.08-.26s.15-.1.26-.09c.53.06.83.24,1.2.69.05.06.08.15.07.23,0,.08-.05.16-.12.21-.11.08-.21.16-.29.25.02.04.05.07.07.11.08.13.04.3-.08.4-.11.09-.27.08-.38,0-.06.11-.11.22-.14.34-.03.12-.14.21-.26.22h-.03v-.02Zm-22.44,162c-.83,0-1.31-.37-1.57-.68-.96-1.17-.59-3.58.83-5.39,2.66-3.38,2.58-8.41,2.5-12.84v-.96c-.04-1.96-.13-3.94-.22-5.86-.1-2.28-.21-4.64-.21-6.99,0-4.41-.06-7.76-.19-10.86-.2-4.67-.85-9.38-1.49-13.93-.61-4.39-1.24-8.93-1.46-13.41-.13-2.65-.25-5.12-.83-7.7-.13-.58-.28-1.15-.44-1.71-.34-1.27-.7-2.58-.76-3.95-.1-2.16-.18-4.69,0-7.01.06-.82.41-1.7.74-2.55.31-.78.6-1.53.67-2.19-.07-.05-.12-.14-.16-.26-.03-.1-.01-.21.05-.29.03-.04.07-.08.1-.11.03-.17.18-.28.35-.25.14.03.24.14.25.28v.05c.11.92-.31,1.98-.71,3-.32.81-.64,1.64-.7,2.37-.18,2.29-.1,4.79,0,6.93.06,1.31.39,2.53.74,3.82.16.57.31,1.15.44,1.74.6,2.63.72,5.13.85,7.77.22,4.49.85,9.02,1.46,13.39.64,4.57,1.29,9.29,1.49,13.99.13,3.11.19,6.47.19,10.89,0,2.33.11,4.69.21,6.96.09,1.92.18,3.91.2,5.88l.02.96c.07,4.54.16,9.68-2.64,13.23-1.21,1.54-1.6,3.7-.83,4.62.53.65,1.6.61,3-.1,3.79-1.93,5.98-5.18,6.01-8.94,0-.17.14-.3.3-.3.17,0,.3.14.3.31-.03,3.99-2.34,7.45-6.34,9.48-.91.46-1.62.63-2.18.63l.03-.02Z"
  />
  <path
    d="m147.08,305.35c-.09,0-.17-.04-.23-.1-1.99-2.27-4.72-5.37-8.1-6.86-.31-.14-.97-.3-1.67-.48-1.65-.41-2.75-.72-3.09-1.15-.48-.61-.25-1.55-.03-2.47.15-.61.3-1.25.19-1.63-.35-1.21-1.41-2.07-2.54-2.99-1.33-1.08-2.7-2.21-3.2-4.06-.97-3.62-1.96-9.04-1.8-13.39,0-.16.14-.29.3-.29h.01c.17,0,.3.15.29.32-.16,4.28.82,9.63,1.78,13.21.45,1.66,1.74,2.72,3,3.74,1.2.98,2.33,1.9,2.74,3.29.16.54,0,1.22-.18,1.94-.19.77-.38,1.57-.08,1.95.23.3,1.81.69,2.75.93.76.19,1.41.35,1.77.51,3.44,1.51,6.18,4.59,8.2,6.88,1.64-.3,4.25-1.97,5.41-3.23,1.23-1.34,1.04-3.32.86-5.23-.09-.9-.17-1.75-.11-2.56.1-1.45.28-2.94.45-4.38.21-1.78.43-3.62.51-5.43.11-2.61-.06-5.22-.23-7.74-.06-.96-.13-1.92-.18-2.89-.14-2.78-.56-5.54-.96-8.2-.31-2.07-.64-4.2-.83-6.35l-.05-.6c-.26-2.79-.58-6.26.26-8.83,1.05-3.21,1.86-6.54,2.39-9.9.48-3.02.45-6.27.42-9.41v-1.31c0-.28,0-.57,0-.87.02-.62.04-1.25-.03-1.92-.09-.81-.36-1.41-.65-2.03-.18-.38-.36-.78-.52-1.24-.05-.16.03-.33.19-.39.16-.05.33.03.39.19.14.43.32.81.49,1.18.3.64.61,1.31.71,2.22.07.71.06,1.37.04,2.01,0,.29-.02.57-.02.84v1.31c.04,3.16.08,6.43-.41,9.51-.54,3.39-1.35,6.76-2.42,10-.8,2.44-.48,5.84-.23,8.58l.05.6c.19,2.12.52,4.25.83,6.31.41,2.68.83,5.45.97,8.26.05.96.11,1.92.17,2.88.17,2.54.34,5.17.23,7.81-.08,1.84-.3,3.69-.51,5.48-.17,1.43-.35,2.91-.44,4.35-.05.75.03,1.58.11,2.46.2,2.04.4,4.16-1.02,5.7-1.29,1.4-4.16,3.21-5.94,3.44h-.04v.03Z"
  />
  <path
    d="m165.57,236.34c-.1,0-.19-.05-.25-.13-1.95-2.79-2.73-5.81-3.29-9.48-.16-1.02.08-2.48.32-4.02.3-1.9.63-4,.21-5.28-.38,1.24-1.27,2.23-2.15,3.21-.43.48-.83.93-1.17,1.4-.32.44-.57.83-.79,1.19-.82,1.29-1.37,2.15-3.38,2.57-.17.04-.33-.07-.36-.24-.03-.16.07-.33.24-.36,1.76-.37,2.2-1.05,2.99-2.3.23-.36.49-.77.81-1.22.36-.5.79-.98,1.21-1.45,1-1.11,2.03-2.26,2.16-3.7,0-.12.09-.22.21-.26.11-.04.24,0,.32.09,1.12,1.29.7,3.91.3,6.44-.24,1.5-.46,2.91-.32,3.84.55,3.59,1.3,6.53,3.19,9.23.1.14.06.33-.07.42-.05.04-.11.06-.18.06h0Z"
  />
  <path
    d="m168.44,296.26c-.13,0-.28-.08-.34-.18-.08-.12-.06-.29.04-.39-.02-.38-.15-1.27-.28-1.92-.09-.44-.22-.87-.34-1.29-.09-.29-.17-.58-.25-.87-.72-2.88-.82-5.83-.82-8.59,0-1.68-.26-3.34-.51-4.95-.21-1.36-.43-2.76-.49-4.18-.13-2.88-.08-5.82-.04-8.67.02-1.46.04-2.91.04-4.36,0-.7.02-1.43.04-2.17.07-2.77.14-5.64-.66-8.05-.13-.38-.32-.71-.5-1.03-.32-.56-.66-1.14-.67-2.01,0-1.03.31-1.45.69-1.94.18-.24.37-.48.55-.84,1.04-2.03.71-4.62.38-7.12-.35-2.68-.71-5.45.61-7.63.09-.14.28-.19.42-.1s.19.27.1.42c-1.21,1.99-.88,4.54-.53,7.23.34,2.59.68,5.27-.44,7.47-.21.41-.42.68-.61.93-.34.45-.57.74-.56,1.56,0,.7.28,1.17.59,1.71.2.34.4.7.55,1.14.84,2.51.76,5.43.69,8.25-.02.74-.04,1.46-.04,2.16,0,1.45-.02,2.91-.04,4.37-.04,2.84-.09,5.77.04,8.63.06,1.38.28,2.77.49,4.11.25,1.63.52,3.31.51,5.05,0,2.72.09,5.62.8,8.44.07.28.16.56.24.84.13.43.26.87.35,1.35.47,2.42.27,2.5.07,2.58-.03.01-.06.02-.09.02v.03Z"
  />
  <path
    d="m171.85,305.53c-.13,0-.26-.02-.39-.05-.91-.24-1.43-1.27-1.93-2.27-.14-.27-.27-.54-.41-.78-.2-.34-.5-.73-.83-1.13-.66-.83-1.34-1.69-1.4-2.53-.12-1.89,2.32-4.73,3.91-5.51.15-.07.33-.01.41.14.07.15,0,.33-.14.41-1.42.69-3.67,3.33-3.57,4.92.04.65.69,1.47,1.26,2.19.34.42.66.83.88,1.21.14.25.28.53.42.81.44.87.89,1.78,1.54,1.95.33.09.71-.01,1.16-.31.35-.23.56-.73.77-1.22.15-.36.31-.74.54-1.02.59-.75,1.53-1.47,2.36-2.11.26-.2.51-.39.73-.57.83-.67,3.01-2.32,5.23-3.19.85-.33,1.85-.41,2.82-.49,1.04-.09,2.12-.17,2.92-.57.62-.31,1.54-1.42,1.9-2.57.13-.41.24-.99.01-1.41-.09-.17-.31-.24-.66-.34-.38-.11-.8-.23-1.11-.61-.64-.81-.57-1.6-.49-2.52l.02-.19c.15-1.67.48-3.35.83-5.14.39-1.96.79-3.98.92-5.98.05-.82.15-1.68.24-2.5.29-2.56.58-5.22-.23-7.58-.05-.16.03-.33.19-.39s.33.03.39.19c.85,2.49.55,5.21.26,7.84-.09.82-.19,1.67-.24,2.48-.14,2.04-.54,4.08-.93,6.06-.35,1.77-.68,3.44-.82,5.07l-.02.19c-.08.89-.13,1.47.36,2.08.18.23.48.31.8.4.38.11.81.23,1.03.64.26.48.27,1.13.03,1.88-.38,1.2-1.37,2.51-2.21,2.93-.91.45-2.04.54-3.14.63-.93.08-1.89.15-2.65.45-2.14.83-4.25,2.44-5.06,3.1-.23.19-.48.38-.74.58-.8.61-1.71,1.31-2.26,2-.17.22-.31.54-.45.88-.24.57-.49,1.16-.99,1.49-.44.29-.87.44-1.26.44v.02Z"
  />
  <path
    d="m183.02,282.82c-.54,0-1.01-.21-1.36-.6-.8-.89-.34-2.31-.01-3.35.06-.19.12-.37.16-.53,1.01-3.69,3.22-6.72,5.36-9.66.54-.74,1.08-1.49,1.6-2.23,1.68-2.43,2.44-5.1,3.24-7.94.18-.62.35-1.24.54-1.87,2.08-6.92-.56-12.93-3.35-19.28-1.72-3.92-3.51-7.98-4.03-12.23-.02-.17.1-.32.26-.34.19-.02.32.1.34.27.51,4.16,2.27,8.17,3.98,12.06,2.71,6.18,5.52,12.56,3.37,19.7-.19.63-.36,1.25-.54,1.86-.82,2.88-1.59,5.61-3.33,8.12-.52.75-1.06,1.49-1.61,2.24-2.11,2.89-4.29,5.88-5.27,9.46-.05.17-.11.35-.17.56-.29.9-.68,2.13-.12,2.75.24.27.55.4.91.4.56,0,1.2-.32,1.63-.82.11-.13.3-.14.43-.03s.14.3.03.43c-.55.62-1.36,1.02-2.09,1.02h-.01.04Z"
  />
  <path
    d="m191.86,242.51c-.15,0-.28-.11-.3-.27l-.07-.6c-.27-2.34-.62-5.24-.17-8.04.59-3.74,1.2-8.14,1.24-12.47.02-2.57.74-5.01,1.43-7.38.57-1.93,1.15-3.93,1.35-5.98.42-4.4.81-8.73.81-13.3,0-.17.14-.3.3-.3s.3.14.3.3c0,4.6-.38,8.94-.81,13.36-.2,2.11-.8,4.14-1.37,6.1-.68,2.32-1.39,4.73-1.4,7.21-.03,4.37-.65,8.81-1.24,12.56-.43,2.72-.1,5.58.18,7.88l.07.6c.02.17-.1.32-.27.34h-.05Zm-66.93-58.69c-.06,0-.12-.02-.17-.05-.14-.1-.17-.29-.08-.42.36-.53.53-1.3.7-2.11.27-1.28.58-2.72,1.74-3.71.13-.11.32-.1.43.03s.09.32-.03.43c-1.01.86-1.28,2.14-1.54,3.38-.19.88-.36,1.7-.79,2.33-.06.09-.15.13-.25.13h-.01Zm-.39,8.96h-.08c-.16-.04-.26-.21-.22-.37.29-1.1,1.59-2.59,2.74-3.9.33-.37.64-.73.9-1.04l.14-.17c1.07-1.3,1.92-2.33,2.15-3.96.1-.7.07-1.45.04-2.17-.04-1.03-.09-2.09.22-3.09.05-.16.22-.25.38-.19.15.05.24.22.2.37-.27.91-.23,1.87-.19,2.89.03.75.06,1.53-.04,2.28-.25,1.81-1.19,2.95-2.28,4.27l-.14.17c-.26.32-.58.68-.91,1.06-1.05,1.2-2.36,2.69-2.61,3.65-.04.14-.16.23-.3.23v-.03Zm14.35-7.95c-.13,0-.25-.08-.3-.21-.15-.39.2-.88.69-1.55.34-.48.73-1.01.85-1.42.3-1.04.34-2.42.38-3.64,0-.45.03-.88.05-1.28,0-.17.14-.3.32-.29.17,0,.3.15.29.32-.02.39-.04.82-.05,1.26-.04,1.25-.08,2.68-.4,3.79-.15.51-.57,1.09-.94,1.61-.24.34-.61.85-.61,1,.06.16-.02.32-.18.38-.03,0-.07.02-.1.02h0Z"
  />
  <path
    d="m146.05,198.74c-.15,0-.28-.11-.3-.26-.11-.78-.21-1.58-.32-2.41-.63-5.04-1.35-10.76-5.18-14.73-.12-.12-.11-.31,0-.43.12-.12.32-.11.43,0,3.97,4.12,4.7,9.94,5.35,15.08.1.82.2,1.62.31,2.39.02.17-.09.32-.26.34h-.04v.02Zm17.02-2.25c-.94,0-1.89-.15-2.24-.44-.66-.55-.79-2-.86-3.55,0-.23-.02-.44-.04-.6-.16-1.77-.16-3.65-.16-5.46,0-3.24,0-6.59-.87-9.6-.05-.16.05-.33.21-.38s.33.05.38.21c.88,3.09.89,6.48.89,9.76,0,1.8,0,3.66.16,5.41.02.16.03.38.04.62.05.94.14,2.69.65,3.12.46.38,3.06.4,3.57.03.13-.1.33-.07.43.07.1.14.07.33-.07.43-.35.26-1.21.39-2.08.39h0Z"
  />
  <path
    d="m162.96,196.11h-.05c-.15-.02-.26-.16-.26-.31.07-2.92-.14-5.72-.38-8.31-.1-1.04-.12-2.09-.15-3.11-.02-.83-.04-1.61-.1-2.38-.05-.74-.21-1.51-.37-2.25-.23-1.1-.47-2.24-.39-3.4,0-.17.12-.29.33-.28.17,0,.29.16.28.33-.08,1.08.15,2.17.37,3.23.16.76.32,1.55.38,2.34.05.79.08,1.61.1,2.41.03,1.01.05,2.05.15,3.07.22,2.36.42,4.89.4,7.54,0,0,.02,0,.03.02.15.08.21.26.13.41-.08.16-.14.32-.19.5-.04.13-.16.22-.29.22v-.03Zm16.35,23.93h-.01c-.26,0-.27,0-1-2-.22-.6-.45-1.21-.6-1.58-.41-.97-.75-1.94-1.06-3.04-.5-1.76-.89-3.58-1.27-5.34-.35-1.65-.72-3.35-1.17-4.99-.35-1.29-.68-2.6-.99-3.87-.53-2.16-1.08-4.39-1.79-6.54-.12-.37-.23-.73-.33-1.08-.31-1.06-.6-2.06-1.23-2.98-.28-.41-.72-.86-1.15-1.3-.68-.69-1.32-1.35-1.44-1.95-.03-.16.07-.33.24-.36.17-.03.33.07.36.24.09.42.69,1.04,1.28,1.64.45.46.91.93,1.22,1.38.67,1,.98,2.04,1.31,3.15.1.35.21.7.33,1.06.71,2.17,1.27,4.42,1.8,6.59.31,1.27.63,2.58.99,3.85.46,1.66.82,3.37,1.18,5.02.38,1.75.77,3.57,1.26,5.3.3,1.07.63,2.02,1.04,2.97.16.38.39,1,.61,1.61s.53,1.43.64,1.66c.11.09.15.24.09.37-.05.11-.17.18-.28.18h-.03Zm5.98,1.58c-.09,0-.18-.04-.24-.11-.57-.7-.33-2.47-.09-4.36.14-1.03.26-1.99.22-2.58-.01-.17.11-.31.28-.33.18,0,.32.11.33.28.05.65-.08,1.65-.22,2.7-.2,1.51-.45,3.4-.05,3.89.11.13.09.32-.04.43-.06.05-.12.07-.19.07h0Zm5.78-28.25c-2.04-.06-3.19-3.58-4.02-6.15-.24-.74-.45-1.38-.63-1.79-.07-.15,0-.33.16-.4.15-.07.33,0,.4.16.2.44.41,1.1.65,1.85.73,2.26,1.84,5.68,3.46,5.73.17,0,.3.15.3.31,0,.17-.14.3-.3.3h-.02Zm-2.32,1.18c-.79,0-4.44-4.85-4.47-4.91-1.35-2.35-2.7-6.92-2.48-9.72.01-.17.14-.3.33-.28.17,0,.29.16.28.33-.2,2.61,1.1,7.11,2.4,9.37.52.91,3.52,4.3,3.96,4.63.08.02.14.08.18.15.08.15.02.33-.13.41-.02,0-.04,0-.06,0h-.01Zm-39.51,51.94c-.06,0-.12-.02-.17-.05-1.24-.82-2.61-5.09-2.91-6.19-.66-2.43-.88-4.91-1.08-7.3-.12-1.42-.25-2.89-.47-4.33-.27-1.76-.59-3.54-.9-5.27-.34-1.9-.7-3.87-.99-5.81-.16-1.09-.29-2.25-.42-3.47-.33-2.97-.67-6.05-1.51-8.56-.05-.16.03-.33.19-.39.17-.06.33.03.39.19.86,2.57,1.21,5.68,1.54,8.69.13,1.22.26,2.37.42,3.45.28,1.93.64,3.9.98,5.79.31,1.73.64,3.52.9,5.28.22,1.46.35,2.94.47,4.37.2,2.37.42,4.82,1.06,7.19.56,2.04,1.83,5.29,2.66,5.85.14.09.18.28.08.42-.06.09-.16.14-.25.14h0Zm-16.34,15.12c-.11,0-.22-.06-.27-.17-.79-1.57-.59-5.94-.47-8.55l.04-.91c.1-2.6.4-5.24.69-7.8.18-1.57.37-3.2.5-4.79.3-3.52.07-7.18-.15-10.73l-.06-.95c-.03-.46-.04-.93-.06-1.4-.04-1.19-.08-2.42-.32-3.53-.14-.65-.44-1.24-.77-1.87-.35-.66-.7-1.35-.84-2.12-.03-.17.08-.32.25-.35.16-.03.32.08.35.25.12.68.44,1.3.78,1.95.33.63.67,1.28.82,2.02.24,1.16.29,2.42.33,3.64.02.47.03.93.06,1.39l.06.95c.22,3.57.45,7.26.14,10.82-.14,1.6-.32,3.23-.5,4.81-.29,2.55-.59,5.19-.69,7.76l-.04.91c-.11,2.39-.31,6.83.41,8.25.08.15.02.33-.14.41-.04.02-.09.03-.14.03l.02-.02Zm-2.79,3.38c-.17,0-.3-.13-.3-.3s.13-.31.3-.31c1.01-.02,1.89-1.09,2.75-2.13.65-.79,1.33-1.61,2.1-2.01.15-.08.33-.02.41.13.08.15.02.33-.13.41-.66.34-1.29,1.11-1.91,1.86-.94,1.14-1.92,2.33-3.2,2.35h-.02Zm43.83-2.05c-.11,0-.2-.04-.28-.13-.06-.07-.14-.24.01-.48.09-.14.28-.18.42-.1.02,0,.03.02.05.03.07-.02.14-.05.21-.08.24-.09.5-.19.76-.25.17-.04.34-.07.5-.1.28-.05.54-.1.8-.19,1.34-.45,1.91-.97,2.94-1.92.91-.84,1.72-2.01,2.49-3.13,1.03-1.5,2.1-3.05,3.48-3.92.14-.09.33-.05.42.09s.05.33-.09.42c-1.27.81-2.31,2.3-3.3,3.75-.8,1.15-1.62,2.35-2.58,3.23-1.06.97-1.7,1.56-3.16,2.05-.3.1-.6.15-.88.21-.16.03-.32.06-.48.1-.23.05-.47.15-.69.22-.26.1-.46.17-.62.17v.03Zm-23.31,29.11c-.06,0-.12-.02-.18-.06-1.7-1.19-4.3-1.75-6.97-1.5-2.58.25-4.17-.22-6.16-.81-.71-.21-1.44-.42-2.29-.63-.16-.04-.26-.2-.23-.37.04-.16.21-.26.37-.22.87.21,1.61.43,2.32.64,1.94.57,3.45,1.02,5.94.79,2.8-.26,5.56.34,7.38,1.61.14.1.17.29.07.42-.06.09-.15.13-.25.13h0Zm-.8,5.96c-.12,0-.23-.07-.28-.19-.36-.88-1.12-1.6-1.93-2.35-.94-.88-1.92-1.8-2.27-3.06-.04-.16.05-.33.21-.37.17-.04.33.05.38.21.3,1.09,1.17,1.91,2.1,2.77.82.77,1.66,1.56,2.08,2.56.06.16,0,.33-.17.4-.04.02-.08.02-.12.02h0Zm-4.18.6s-.09,0-.13-.03c-1.23-.58-2.18-1.52-3.1-2.43-.72-.71-1.46-1.44-2.31-1.97-.14-.09-.19-.28-.1-.42s.28-.19.42-.1c.91.57,1.67,1.32,2.41,2.05.92.91,1.8,1.77,2.93,2.31.15.07.22.25.14.41-.05.11-.16.17-.28.17h.02Zm26.89-7.16c-.09,0-.17-.04-.23-.11-.11-.13-.09-.32.04-.43,1.3-1.09,2.52-2.8,3.71-4.44.66-.92,1.35-1.87,2.03-2.68.11-.13.3-.15.43-.04s.15.3.04.43c-.66.8-1.31,1.7-2,2.65-1.21,1.68-2.46,3.41-3.81,4.55-.06.05-.13.07-.2.07h-.01Zm14.47,1.44c-.38,0-.7-.1-.96-.29-.7-.52-.8-1.62-.88-2.58-.04-.45-.08-.87-.17-1.17-.05-.16.05-.33.21-.38.16-.05.32.04.37.2.11.36.15.82.19,1.3.07.84.16,1.78.64,2.15.23.17.56.21,1,.13.16-.03.33.07.36.24.03.16-.07.33-.24.36-.19.04-.36.06-.53.06v-.02Zm-15.36,6.07c-.32,0-.6-.05-.84-.18-.15-.08-.21-.26-.13-.41.08-.15.26-.21.41-.13.94.48,3.22-.64,5.23-1.63,1.5-.74,2.92-1.43,3.94-1.59,1.62-.25,2.94-.58,4.73-1.18.17-.06.33.03.39.19.05.16-.03.33-.19.39-1.82.61-3.18.95-4.83,1.2-.93.14-2.31.82-3.77,1.53-1.88.92-3.67,1.8-4.94,1.8h0Zm17.12,15.35c-2.42,0-4.36-.57-7.05-1.95-3.12-1.6-5.64-3.49-8.15-6.12-.15-.16-.33-.38-.49-.57l-.16-.2c-.11-.13-.09-.32.03-.43.13-.11.32-.09.43.03l.17.2c.15.18.33.39.47.54,2.47,2.58,4.93,4.43,7.99,6,3.47,1.78,5.54,2.16,9.23,1.72,2.4-.29,3.88-1.03,4.4-2.2,1.06-2.38-1.73-6.37-4.19-9.89-1.44-2.05-2.8-3.99-3.25-5.43-.05-.16.05-.33.21-.38.16-.05.32.04.37.2.43,1.36,1.76,3.26,3.17,5.27,2.56,3.65,5.46,7.79,4.25,10.48-.62,1.4-2.22,2.23-4.89,2.56-.92.11-1.75.17-2.53.17h0Z"
  />
  <path
    d="m185.29,313.53s-.09-.01-.14-.03c-.15-.08-.21-.26-.13-.41.39-.76,3.86-2.56,5.16-2.97,1.9-.61,4.05-.43,5.91-.17.17.02.28.18.26.34-.02.17-.18.28-.34.26-1.79-.25-3.86-.42-5.64.15-1.42.45-4.56,2.2-4.8,2.67-.05.1-.16.17-.27.17h-.01Zm-6.37-3.18c-.09,0-.18-.04-.24-.11-.11-.13-.09-.32.04-.43.3-.25.58-.53.88-.83.34-.34.69-.69,1.07-.99-.56-.72-1.64-1.44-2.69-2.14-1.6-1.06-3.1-2.06-3.35-3.31-.03-.16.07-.33.24-.36s.33.07.36.24c.2,1,1.67,1.98,3.09,2.92,1.27.85,2.47,1.64,3.03,2.56.08.14.04.32-.09.41-.44.3-.83.69-1.23,1.09-.29.29-.6.6-.92.87-.06.05-.12.07-.19.07h0Zm-46.86,6.47c-1.54,0-2.99-.29-4.12-1.1-1.08-.78-1.72-1.99-1.85-3.5-.2-2.25.81-5.08,2.4-6.72.31-.32.64-.64.98-.96,1.1-1.05,2.24-2.13,2.69-3.55.2-.65.28-1.21.35-1.71.15-1.11.26-1.99,1.66-2.64.15-.07.33,0,.41.15.07.15,0,.33-.15.4-1.09.51-1.17,1.1-1.31,2.17-.07.52-.15,1.12-.37,1.81-.49,1.57-1.69,2.71-2.85,3.81-.33.31-.65.62-.96.94-1.47,1.52-2.41,4.15-2.23,6.24.12,1.33.67,2.38,1.6,3.06,2.48,1.8,6.92.72,9.86.01l.43-.1c4.53-1.09,6.18-3.96,8.47-7.93l.06-.1c.12-.2.23-.41.35-.61.51-.91,1-1.78,1.73-2.61.11-.13.3-.14.43-.03.13.11.14.3.03.43-.69.79-1.16,1.62-1.66,2.51-.11.2-.23.41-.35.62l-.06.1c-2.28,3.95-4.08,7.07-8.86,8.22l-.43.1c-1.78.43-4.09.99-6.25.99h0Z"
  />
  <path
    d="m140.27,314.73c-2.57-.08-4.31-.73-6.32-1.57-1.6-.67-2.52-.28-3.69.22-.8.34-1.7.72-2.92.75-.15,0-.31-.13-.31-.3s.13-.31.3-.31c1.1-.03,1.91-.37,2.7-.71,1.2-.51,2.32-.99,4.16-.22,1.95.82,3.64,1.45,6.11,1.52.17,0,.3.15.3.31s-.14.29-.3.29l-.03.02Zm4.56-4.95c-1.54,0-3.82-.27-4.79-1.1-.06-.05-.1-.13-.11-.21,0-.08.02-.16.08-.22,1.58-1.7,3-3.84,4.25-5.74l.13-.19c.09-.14.28-.18.42-.09s.18.28.09.42l-.13.19c-1.14,1.73-2.55,3.86-4.08,5.56,1.09.64,3.5.86,4.92.74.19-.03.32.11.33.28.02.17-.11.31-.28.33-.24.02-.52.03-.84.03h0Zm35.04-5.71c-.25,0-.48-.03-.67-.1-1.06-.37-1.6-.85-1.63-1.45-.06-1.31,2.36-2.54,4.84-3.69.45-.21.96-.45,1.05-.52.1-.14.28-.15.41-.05.06.04.1.1.11.17.04.02.08.04.11.07.02.02.05.04.1.06.12.06.31.16.4.47.02.09,0,.18-.04.25-.71,1.06-1.9,1.6-3.06,2.13-.09.04-.19.09-.28.13h.13c.97-.05,2.45-1.19,3.04-1.95.05-.07.13-.11.21-.12.09,0,.17.02.23.07.56.49.65,1.13.26,1.8-.79,1.36-3.56,2.73-5.23,2.73h.02Zm3.79-5.17c-.18.1-.48.24-.98.47-1.36.63-4.54,2.11-4.49,3.11.02.32.45.64,1.22.91,1.08.38,4.36-.97,5.17-2.36.18-.31.21-.57.07-.8-.69.74-2.1,1.85-3.26,1.91-.44.03-.82-.11-1.09-.4-.07-.07-.1-.17-.08-.26.02-.1.08-.18.16-.22.28-.14.57-.28.87-.41,1.01-.46,2.05-.94,2.69-1.75-.07-.03-.16-.08-.25-.18l-.02-.02h-.01Z"
  />
  <path
    d="m187.32,301.74c-.31,0-.61-.04-.89-.13-.89-.28-1.34-.93-1.21-1.72.01-.08.06-.15.13-.2.07-.05.15-.07.23-.05.18.04.38.03.59.03h.24-.24c-.62-.02-1.26-.04-1.73-.54-.1-.1-.11-.26-.04-.37.07-.1.14-.19.22-.27-.04-.07-.06-.17-.03-.25.05-.16.21-.24.37-.2.05,0,.17.01.33.02h.05c.1-.05.22-.04.31.02,1.49.1,3,.35,3.53,1.25.26.43.25.94-.03,1.52-.29.61-1.07.91-1.85.91l.02-.02Zm-1.5-1.47c.07.45.51.66.79.75.8.25,1.77.03,2.01-.46.19-.39.21-.7.06-.95-.45-.76-2.29-.91-3.2-.97-.14.07-.26.13-.36.21.29.15.66.16,1.08.18.34.01.69.02,1.05.11.16.04.26.19.23.35l-.04.2c-.03.14-.05.27-.07.42-.01.1-.07.18-.16.23-.09.04-.19.05-.28,0-.19-.09-.46-.09-.73-.08h-.38Z"
  />
  <path
    d="m182.12,305.32c-.23,0-.47-.05-.71-.15-.14-.06-.21-.21-.18-.35.13-.54.3-1.24.62-1.71.1-.14.29-.17.42-.07.14.1.17.29.07.42-.22.31-.36.8-.46,1.23.68.13,1.32-.37,1.99-.9.48-.38.98-.78,1.52-.95.72-.23,1.44-.14,2.14-.05.56.07,1.1.14,1.6.04-.04-.54-.32-.97-.82-1.26-.14-.09-.19-.27-.11-.42.09-.14.27-.19.42-.11.76.45,1.16,1.17,1.12,2.03,0,.13-.09.24-.21.28-.69.22-1.39.13-2.08.04-.67-.08-1.29-.16-1.88.02-.44.14-.87.48-1.33.85-.64.51-1.34,1.06-2.14,1.06h.02Z"
  />
  <path
    d="m183.65,306.09c-.14,0-.28-.02-.42-.07-.43-.16-.76-.56-1.01-1.24-.06-.16.02-.33.18-.39s.33.02.39.18c.18.49.4.79.65.88.38.14.92-.16,1.49-.48.41-.23.83-.47,1.27-.59.72-.2,1.56-.21,2.37-.22.33,0,.65-.01.95-.03-.09-.31-.25-.6-.47-.82-.12-.12-.12-.31,0-.43s.31-.12.43,0c.38.39.64.93.7,1.5.02.17-.1.32-.27.33-.41.04-.86.05-1.34.06-.77.01-1.57.03-2.22.2-.37.1-.76.32-1.13.53-.53.29-1.06.6-1.58.6h.01Z"
  />
  <path
    d="m187.21,307.14h-.17c-.94-.04-1.67-.45-2.02-1.13-.08-.15-.02-.33.13-.41.15-.08.33-.02.41.13.33.65,1.08.78,1.5.8.93.03,1.95-.36,2.32-.95.19-.3.19-.62.01-.96-.08-.15-.02-.33.13-.41.15-.08.33-.02.41.13.28.53.27,1.09-.03,1.57-.46.73-1.58,1.23-2.7,1.23h0Zm-48.95-3.04c-.95,0-1.87-.17-2.19-.64-.26-.38-.57-.94-.3-1.35.36-.53,1.4-.3,2.5-.06.44.1,1.09.24,1.25.19.21-.17.23-.26.23-.26-.06-.09-.51-.36-3.16-.41h-.32c-.08,0-.16-.04-.21-.1s-.08-.14-.07-.22c.03-.32.18-.47.31-.58.04-.04.09-.08.14-.14.05-.06.11-.1.18-.11-.16-.03-.27-.19-.24-.35.03-.17.19-.28.35-.25.14.03.35.05.59.08,1.28.15,3.41.4,4.2,1.51.28.4.37.86.25,1.38-.16.71-1.16,1.04-1.98,1.2-.45.09-1,.14-1.53.14v-.03Zm-1.98-1.65s-.04.16.3.66c.23.33,1.7.51,3.1.24.96-.18,1.45-.5,1.5-.73.08-.35.03-.64-.15-.89-.63-.89-2.68-1.13-3.77-1.25-.16-.02-.3-.04-.42-.05.01,0,.02.02.04.02.13.1.16.29.06.43-.02.03-.05.06-.07.09,2.36.06,3.31.29,3.49.85.1.3-.06.61-.48.92-.27.21-.78.11-1.72-.1-.51-.11-1.7-.37-1.86-.19h-.02Z"
  />
  <path
    d="m133.97,304c-.11,0-.22,0-.33-.02-.73-.09-1.27-.47-1.48-1.04-.29-.81,0-1.67.79-2.37.86-.76,2.32-1.24,3.27-.75.15.08.21.26.13.41s-.26.21-.41.13c-.63-.33-1.79-.03-2.59.67-.35.31-.9.94-.62,1.7.17.48.69.61.98.64.68.08,1.41-.17,1.69-.59.12-.18.15-.39.09-.63-.66.34-1.32.25-1.85-.25-.11-.11-.12-.28-.03-.4.39-.51.83-.51,1.3-.52h.16c.17,0,.3.13.3.3s-.13.31-.3.31h-.17c-.27,0-.44.01-.57.07.41.2.82.02,1.11-.2.07-.05.16-.07.25-.05.09.02.16.07.2.15.31.55.31,1.11,0,1.56-.36.53-1.14.88-1.94.88h.02Z"
  />
  <path
    d="m137.06,305.56c-2.06,0-4.79-.75-4.83-.76-.12-.03-.2-.14-.22-.26-.04-.31.05-.6.26-.85.11-.13.3-.15.43-.04.13.11.15.3.04.43-.05.07-.09.13-.11.2,1.61.43,5.36,1.08,6,.32.04-.05.16-.19-.03-.59-.07-.15,0-.33.14-.41.15-.07.33,0,.41.14.3.63.13,1.02-.06,1.25-.36.42-1.13.56-2.04.56h0Z"
  />
  <path
    d="m134.24,307.1c-1.39,0-2.7-.25-3.12-.86-.08-.11-.07-.26.02-.37l.15-.18c.37-.44.78-.94,1.24-1.26.14-.1.33-.06.42.07.1.14.06.33-.07.42-.38.27-.76.72-1.1,1.12.95.66,4.64.59,5.84-.19.33-.22.26-.35.2-.43-.09-.14-.04-.33.1-.42.14-.09.33-.04.42.1.28.45.13.92-.39,1.26-.69.45-2.25.73-3.71.73h0Z"
  />
  <path
    d="m135.27,308.27c-1.02,0-2.03-.06-3.07-.12l-.28-.02c-.09,0-.17-.05-.23-.12-.05-.07-.07-.16-.05-.25.02-.1,0-.27-.02-.42-.02-.19-.04-.37-.01-.53.03-.17.19-.27.36-.24s.27.19.24.36c-.01.07,0,.22.02.35l.03.27c1.72.1,3.36.19,5.06.02,0-.1-.02-.2-.02-.31-.01-.25-.03-.52-.09-.68s.02-.33.18-.39.33.02.39.18c.09.25.11.56.13.86.01.21.02.4.05.53.02.08,0,.17-.04.25-.05.07-.13.12-.21.13-.82.1-1.62.14-2.42.14h-.02Zm24.42-265.84c-.08,0-.17-.03-.23-.1l-.62-.68c-1.68-1.84-3.13-3.42-3.79-6.17-.04-.16.06-.33.23-.37.16-.04.33.06.37.23.62,2.59,1.95,4.05,3.64,5.9l.62.68c.11.13.1.32-.02.43-.06.05-.13.08-.2.08Zm4.78,0s-.1-.01-.14-.04c-2.51-1.32-4.14-4.21-5.58-6.76-.28-.49-.55-.97-.81-1.41-.09-.14-.04-.33.11-.42.14-.09.33-.04.42.11.27.45.54.93.82,1.43,1.4,2.47,2.99,5.28,5.34,6.52.15.08.21.26.13.41-.05.1-.16.16-.27.16h-.02Zm4.35,1.57h-.04c-.23-.06-.25-.29-.27-.45,0-.15-.03-.34-.12-.54-.24-.55-.49-1.08-.76-1.62-.55-1.08-1.14-2.13-1.77-3.13-1.18-1.88-2.84-4.24-5.15-5.88-.14-.1-.17-.29-.07-.42.1-.14.29-.17.42-.07,2.4,1.7,4.1,4.13,5.31,6.05.64,1.02,1.25,2.09,1.8,3.18.26.52.51,1.04.77,1.65.1.22.14.44.15.61,0,0,.02,0,.02.02.14.1.18.28.08.41-.07.09-.26.21-.38.21v-.02Zm5.22,6.34h-.02c-.17-.01-.3-.16-.28-.33.16-2.21-1.48-7.06-2.93-10.53-1.4-3.36-3.12-5.73-5.93-8.16-.13-.11-.14-.3-.03-.43.11-.13.3-.14.43-.03,2.85,2.47,4.67,4.98,6.09,8.39.53,1.28,3.19,7.83,2.98,10.81-.01.16-.15.28-.3.28h-.01Zm1.04-3.29c-.17,0-.3-.14-.3-.31.08-3.35-.18-9.38-2.75-12.02-.12-.12-.12-.31,0-.43s.31-.12.43,0c2.73,2.8,3,9,2.92,12.45,0,.17-.14.3-.3.3h0Zm-21.96-.74c-.14,0-.27-.1-.3-.25-.16-.8-.42-1.61-.67-2.39-.33-1.03-.68-2.09-.81-3.2-.07-.55-.04-1.11-.02-1.65.03-.75.07-1.47-.13-2.14-.05-.16.04-.33.2-.38.17-.05.33.04.38.2.23.77.2,1.57.16,2.34-.02.54-.05,1.05,0,1.55.12,1.05.46,2.08.79,3.08.26.8.53,1.62.69,2.46.03.17-.07.33-.24.36h-.06v.02Zm-5.98,1.64c-.17,0-.3-.13-.3-.3-.04-1.52-.02-6.76,1.68-10.14.07-.15.26-.21.41-.14.15.08.21.26.14.41-1.63,3.25-1.65,8.36-1.61,9.85,0,.17-.13.31-.3.31h-.02Zm-2.98,2.98h0c-.17,0-.3-.15-.29-.31.02-.51,0-1.17,0-1.91-.04-3.94-.1-9.9,2.85-11.47.15-.08.33-.02.41.12.08.15.02.33-.12.41-2.62,1.4-2.56,7.37-2.52,10.93,0,.76,0,1.42,0,1.94,0,.16-.14.29-.3.29h-.02Z"
  />
</svg>
