<svg class="svg" xmlns="http://www.w3.org/2000/svg" viewBox="0 0 320 320">
  <path
    d="m179.52,96.24h-.03c-.43-.03-.76-.31-1.1-.6-.47-.39-1.01-.84-2-.84-1.57,0-2.24,1.17-2.27,1.21-.11.21-.38.27-.58.16s-.29-.38-.17-.58c.03-.07.93-1.66,3.02-1.66,1.3,0,2.03.6,2.55,1.03.25.21.46.38.63.4.24.02.41.23.39.47-.02.22-.21.39-.42.39h-.01Zm-6.51,30.28c-.21,0-.38-.15-.42-.35l-.49-2.61c-.05-.23.11-.46.34-.5.24-.05.46.11.5.34l.49,2.61c.05.23-.11.46-.34.5h-.08Zm1.98-1.58h-.02c-.24-.01-.41-.22-.4-.46-.01-.21-.53-.88-.74-1.17-.31-.41-.45-.6-.49-.78-.06-.23.08-.46.31-.51.22-.06.45.07.51.29.05.08.22.32.35.49.55.73.94,1.28.92,1.74-.01.23-.21.4-.42.4h-.01Zm1.44-1.04c-.23,0-.41-.17-.42-.4-.03-.18-.51-1.11-.94-1.85-.11-.21-.05-.47.16-.58.19-.11.47-.05.58.16.47.82,1.03,1.88,1.05,2.22.01.24-.16.45-.4.46h-.03Zm2.57-2.04c-.22,0-.4-.16-.42-.38-.05-.32-.88-1.19-1.63-1.8-.18-.15-.22-.42-.07-.61.15-.18.42-.22.61-.07.42.34,1.83,1.53,1.95,2.36.03.24-.14.45-.37.48h-.07Zm1.5-1.81c-.1,0-.21-.03-.29-.11-.11-.1-.16-.26-.13-.41-.16-.24-.81-.79-1.48-1.25-.19-.14-.25-.4-.11-.6.14-.19.4-.24.6-.11.82.56,1.81,1.34,1.87,1.89.02.17-.03.33-.15.46-.08.09-.19.14-.31.14Zm1.66-2.41c-.13,0-.25-.06-.33-.16-.14-.17-.92-.6-1.2-.65-.15.03-.31,0-.41-.13-.16-.17-.15-.45.02-.61.09-.08.29-.14.41-.13.42.03,1.54.6,1.85.98.15.18.11.46-.07.61-.08.07-.17.09-.26.09h-.01Zm1.25-1.24c-.1,0-.21-.03-.29-.1l-.88-.78c-.17-.16-.19-.42-.03-.61s.42-.19.61-.03l.88.78c.17.16.19.42.03.61-.08.09-.21.15-.32.15h0Zm-24.72,6.48s-.08,0-.11-.01c-.23-.06-.37-.31-.31-.54.08-.31.71-1.01,1.87-2.07.17-.16.45-.15.61.02s.15.45-.02.61c-.7.65-1.52,1.48-1.63,1.68-.05.19-.22.31-.4.31Zm10.39,4.6c-.22,0-.4-.16-.42-.38l-.4-3.07c-.03-.24.14-.45.37-.48.25-.03.45.14.48.37l.4,3.07c.03.24-.14.45-.37.48h-.06,0Z"
  />
  <path
    d="m176.44,96.5h-.08c-1.02-.07-1.49-1.19-1.51-1.25-.09-.22.01-.47.23-.56.22-.09.47.01.56.23,0,0,.3.69.78.71.4.05.66-.68.66-.69.08-.23.32-.34.54-.27.23.08.34.32.27.54-.16.48-.63,1.28-1.45,1.28h0Zm-9.34-.26c-.18,0-.35-.13-.41-.32-.01-.05-.34-1.13-1.63-1.38-1.36-.27-2.64.68-2.65.69-.19.15-.46.1-.6-.09s-.1-.46.09-.6c.07-.05,1.59-1.19,3.34-.85,1.81.35,2.27,1.93,2.28,2,.07.23-.07.47-.3.53-.03,0-.08.01-.11.01h-.01Z"
  />
  <path
    d="m164.74,96.25c-.07,0-.14,0-.21-.02-.73-.15-1.28-1.1-1.38-1.28-.11-.21-.03-.47.17-.58s.47-.03.58.17c.18.33.56.81.8.86.21.05.81-.3,1.21-.63.18-.15.45-.13.61.06.15.18.13.46-.06.61-.25.21-1.05.82-1.73.82Zm4.73,8.37s-.1,0-.15-.03c-.29-.11-.72-.56-.96-.82-.16-.17-.15-.45.02-.61s.45-.15.61.02c.25.27.56.56.66.61.21.1.31.35.21.57-.07.16-.22.26-.39.26Zm1.44,0c-.08,0-.16-.02-.23-.07-.21-.13-.26-.39-.14-.58.07-.11.42-.66.96-.72.18-.02.46.01.72.29.16.17.16.45-.01.61-.17.16-.45.16-.61-.01-.08-.02-.24.15-.32.29-.08.13-.22.21-.37.21h-.01Zm-.53,3.15c-.08,0-.17-.02-.24-.07-.33-.13-3.01-.22-4.01-.25h-.19c-.63-.03-1.06-.21-1.32-.55-.21-.27-.23-.61-.17-.81.06-.23.29-.37.51-.31s.37.29.32.5c0,.01,0,.06.03.1.03.03.17.17.66.18h.19c2.9.11,3.88.19,4.27.32.66-.08,3.43-.42,4.17-.37.07,0,.14,0,.16-.02.05-.05.06-.18.06-.26-.02-.23.15-.45.38-.47.25-.03.45.14.47.38,0,.06.06.58-.29.95-.14.15-.39.32-.84.3-.61-.03-3.17.26-4.11.38h-.07Z"
  />
  <path
    d="m169.94,109.19c-2.44,0-3.73-1.52-3.79-1.59-.15-.18-.13-.45.06-.61.18-.15.45-.13.61.05.05.06,1.16,1.32,3.23,1.28,2.82-.06,3.55-.86,3.73-1.2.11-.21.37-.29.58-.18.21.11.29.37.17.58-.55,1.04-2.09,1.61-4.46,1.66h-.13Zm.45,1.91h-.09c-1.09-.06-2.41-.94-2.47-.97-.19-.13-.25-.4-.11-.6.13-.19.4-.25.6-.11.33.22,1.34.8,2.05.84.69.02,1.79-.6,2.14-.84.19-.13.46-.08.6.11.13.19.08.47-.11.6-.15.1-1.5.98-2.57.98h-.01Zm-8.99-4.97s-.08,0-.11-.01c-.23-.07-.35-.3-.3-.53.11-.41-.11-1.02-.21-1.21-.1-.22-.02-.47.19-.57s.47-.02.57.19c.06.1.49,1.03.26,1.84-.06.18-.23.31-.41.31v-.02Zm18.32.48c-.19,0-.37-.13-.41-.32l-.19-.77c-.05-.17.02-.37.17-.46.06-.06.16-.34.19-.56.03-.24.25-.4.48-.37s.4.25.37.48c-.02.16-.1.61-.33.93l.14.54c.06.23-.08.47-.31.53-.03,0-.07.01-.1.01h0Zm-.86-12.89c-.14,0-.29-.07-.37-.19-1.13-1.77-1.08-5.3-1.03-8.13,0-.72.02-1.38,0-1.97-.05-2.63-.85-3.64-.85-3.64-.15-.18-.13-.45.06-.61.18-.15.45-.14.6.05.05.05,1.01,1.2,1.05,4.19v.15c.06-.14.13-.24.21-.33.16-.18.42-.19.61-.03.17.16.19.42.03.61-.66.76-.34,5.97.1,9.44.02.19-.09.39-.27.46-.05.02-.09.02-.15.02h.01Z"
  />
  <path
    d="m177.9,92.64c-.07,0-.13-.01-.19-.05-1-.5-3.56-.27-4.46-.15-.24.03-.45-.13-.48-.37s.13-.45.37-.48c.37-.05,3.56-.48,4.97.23.21.1.3.37.19.57-.08.15-.23.24-.38.24h-.01Zm-11.71-.35c-.19,0-.37-.14-.41-.33-1.04-4.37,2.88-11.46,5.23-15.19-2.59,2.41-6.65,7.06-7.72,13.27-.05.23-.26.38-.49.35-.23-.05-.39-.26-.34-.49,1.67-9.66,9.97-15.45,10.31-15.7.17-.11.4-.09.55.06s.16.38.05.55c-.08.11-8.08,11.32-6.74,16.95.06.23-.09.46-.32.51-.03,0-.07.01-.1.01Zm-13.09.55c-.24,0-.42-.19-.42-.43,0-.95,1.35-4.82,1.5-5.25,1.21-5.15,3.73-9.42,5.62-12.08,2.31-3.25,7.19-4.88,8.41-4.81,1.04.05,3.22.65,3.31.69.23.07.37.3.3.53s-.31.35-.53.3c-.02,0-2.17-.61-3.11-.65-.98-.06-5.57,1.49-7.67,4.45-2.61,3.68-4.57,7.88-5.5,11.83-.57,1.64-1.46,4.41-1.46,5.01,0,.24-.19.43-.42.43h-.01Z"
  />
  <path
    d="m177.43,116.85c-.16,0-.33,0-.5-.01-.17,0-.32-.13-.38-.29s0-.34.13-.46c.02-.02,2.16-1.93,3.25-5.76.06-.23.3-.37.53-.3s.35.3.3.53c-.76,2.69-2,4.49-2.79,5.41,4.94-.35,7.72-5.44,7.76-5.49.09-.17.3-.26.48-.22.19.05.32.23.32.42l-.02,1.02c4.01-6.29,5.13-13.39,3.46-21.66-1.79-8.82-4.22-13.66-8.4-16.73-4.2-3.08-9.48-1.72-9.53-1.69-.23.06-.47-.08-.53-.31s.07-.47.3-.53c.23-.06,5.72-1.5,10.27,1.83,4.37,3.2,6.9,8.21,8.73,17.25,1.83,9.04.4,16.74-4.41,23.53-.1.15-.31.22-.48.16-.18-.06-.3-.23-.3-.41l.02-.98c-1.29,1.76-4.06,4.68-8.21,4.68h.01Zm-15.28.5h-.09c-1.58-.32-3.74-2.74-5.33-4.79.81,1.13,1.79,2.19,2.33,2.72.14.13.17.33.08.5s-.27.26-.46.23c-1.4-.24-4.79-2.21-5.77-6.49-.9-3.96-.82-12.35-.82-12.7,0-.24.19-.42.42-.42.24,0,.42.19.42.43,0,.09-.08,8.63.8,12.5.54,2.33,1.91,3.98,3.19,4.92-1.19-1.42-2.61-3.47-2.43-4.96.02-.18.15-.32.33-.37.17-.05.35.03.46.18,1.01,1.54,3.6,5.13,5.6,6.68-.08-.14-.07-.32.02-.45.1-.14.27-.22.45-.17.41.09,1.29.26,2.08.34-1.43-1-3.25-2.4-3.36-3.2-.02-.16.05-.31.16-.4.13-.09.3-.11.43-.05l.21.09-.98-1.79c-.1-.19-.05-.43.14-.56s.43-.09.57.08l1.09,1.32.02-.1c.06-.23.3-.37.53-.31s.37.3.31.53l-.24.9c-.03.13-.13.23-.24.29l.19.35c.09.16.07.37-.06.5-.07.07-.15.11-.24.14.81.69,1.99,1.54,3.1,2.27.15.09.22.26.18.43s-.16.31-.33.34c-.7.16-1.89,0-2.75-.14l.31.49c.09.15.09.33,0,.47-.08.11-.22.18-.35.18h.02Z"
  />
  <path
    d="m164.48,123.18c-.07,0-.14-.01-.19-.05-3.91-2.01-5.6-6.82-5.66-7.02-.08-.23.05-.47.26-.55.23-.08.47.05.55.26.01.05,1.64,4.68,5.24,6.53.21.1.3.37.18.57-.08.15-.23.23-.38.23h0Zm-8.27-6.11c-.14,0-.29-.07-.37-.21-.13-.21-.07-.47.14-.6.38-.23,1.44-1.03,1.44-1.03.18-.14.46-.1.6.09.14.19.1.46-.09.6-.05.03-1.11.82-1.5,1.06-.07.05-.15.07-.23.07h.01Z"
  />
  <path
    d="m168.35,123.97c-.46,0-.94-.02-1.44-.08-5.65-.57-10.73-6.52-11.76-7.8l-1.49.45-1.5.78c-.21.1-.47.02-.57-.18s-.02-.47.18-.58l1.57-.81,1.83-.55c.17-.06.35,0,.46.15.06.07,5.53,7.12,11.36,7.71,5.97.61,8.94-2.77,12.39-6.68.16-.18.42-.19.61-.03.17.16.19.42.03.61-3.18,3.62-6.2,7.04-11.68,7.04h.01Zm-30.88-6.69c-.27,0-.63-.07-1.18-.22-.01,0-.02,0-.03-.01-.22-.08-5.23-2.12-3.85-13.63,1.46-12.26,8.29-13.48,8.34-13.48.43,0,11.59,1.34,13.46,2.65,1.68,1.2,2.14,1.74,1.96,3.04-.22,1.52-2.06,1.59-3.04,1.63-.46.01-1.27-.05-2.2-.13-.97-.08-2.64-.22-3.39-.15.09.07.19.14.29.19.79.54,2.12,1.44,2.06,3.43-.08,2.77-1.33,3.99-4.07,3.99-1.35,0-2.35-.43-2.98-.86,0,.29-.03.61-.1.92-.1.42-.25.66-.37.86-.06.09-.09.16-.13.24.63-.29,1.77-.72,3.26.03,2.52,1.26,2.59,2.4,2.67,3.5.08,1.26-.65,2.93-1.99,3.43-1.04.39-2.87.88-3.66.74-.11.1-.34.4-.51.64-.56.77-1.33,1.81-2.54,2.24-.63.23-.93.43-1.14.58-.3.21-.51.32-.86.32h.01Zm-.93-1.04c.95.25,1.01.22,1.3.01.24-.16.61-.41,1.34-.68.96-.34,1.64-1.27,2.14-1.95.46-.62.81-1.11,1.33-.98.4.1,2.05-.25,3.24-.7.93-.34,1.5-1.64,1.44-2.57-.07-1.02-.11-1.75-2.2-2.79-1.25-.63-2.11-.22-2.68.05-.31.15-.6.29-.87.1-.11-.08-.26-.23-.26-.54,0-.56.16-.84.31-1.09.1-.17.19-.33.27-.64.18-.72,0-1.6,0-1.61-.05-.19.06-.39.23-.48.18-.08.39-.03.51.11.05.05,1.06,1.27,3.16,1.27,2.25,0,3.15-.88,3.22-3.16.05-1.52-.92-2.17-1.69-2.7-.47-.32-.88-.6-.88-1.06,0-.16.07-.31.19-.42.43-.4,1.72-.34,4.34-.13.87.07,1.67.15,2.09.13,1.52-.06,2.15-.3,2.23-.88.1-.77.07-1.04-1.61-2.23-1.57-1.12-12.49-2.49-12.95-2.49-.05,0-6.13,1.37-7.5,12.73-1.26,10.46,3,12.59,3.28,12.71h.01Z"
  />
  <path
    d="m146.47,104.25c-.13,0-.25-.06-.33-.16-.15-.18-.11-.46.07-.61.93-.74,1.13-1.08,1.34-3.22.13-1.22-.69-1.79-1.46-2.33-.4-.27-.77-.54-.97-.88-.31-.53-.34-.97-.39-1.49-.03-.45-.08-1-.3-1.81-.43-1.58-2.3-2.33-2.31-2.35-.22-.09-.33-.34-.24-.56s.33-.33.55-.24c.09.03,2.28.93,2.83,2.92.25.9.3,1.5.33,1.98.03.47.06.76.26,1.11.11.18.41.4.73.62.85.6,2,1.41,1.83,3.12-.22,2.15-.43,2.82-1.66,3.8-.08.07-.17.09-.26.09h-.01Zm-3.46-.48c-.07,0-.14-.01-.21-.05-.62-.33-.92-.86-1.24-1.41-.25-.43-.51-.89-.96-1.32-.39-.37-.71-.47-1.1-.61-.57-.19-1.28-.43-2.33-1.49-1.84-1.84-1.56-4.13-1.54-4.22.03-.23.26-.4.48-.37.23.03.4.24.37.48,0,.08-.23,1.97,1.3,3.5.9.92,1.46,1.1,2,1.27.43.15.89.3,1.42.79.55.51.85,1.04,1.12,1.52.27.48.49.87.89,1.08.21.11.29.37.17.58-.08.15-.23.23-.38.23Zm-9.89,6.43c-.06,0-.11-.01-.17-.03-.22-.1-.31-.35-.22-.57.05-.1,1.16-2.49,3.22-2.9,1.21-.23,2.17-.05,2.95.1.43.08.81.16,1.08.11.57-.09,1.25-.76,1.45-1.01.15-.18.42-.21.61-.05.18.15.19.42.05.61-.1.11-.98,1.12-1.97,1.29-.41.07-.86-.02-1.37-.11-.7-.14-1.58-.3-2.63-.1-1.63.31-2.59,2.38-2.6,2.4-.07.16-.23.25-.39.25Zm6.84,11.24c-1.79,0-6.41-1.98-7.08-2.44-.88-.6-1.9-4.39-1.97-4.71-.15-.77.33-2.85.43-3.26.05-.19.22-.33.41-.33h.84c.24,0,.42.19.42.43s-.19.43-.42.43h-.49c-.21.94-.42,2.19-.34,2.56.21,1.03,1.19,3.88,1.6,4.17.6.39,5.08,2.29,6.59,2.29h.09c.23,0,.41.18.42.41,0,.24-.17.43-.41.45,0,0-.09,0-.09,0Z"
  />
  <path
    d="m139.52,122.87c-.06,0-.13-.01-.18-.05-.72-.34-1.2-1.45-1.26-1.58-.09-.22,0-.47.23-.56.22-.09.47,0,.56.23.13.3.49.97.84,1.13.22.1.31.35.21.57-.07.15-.23.24-.39.24h0Zm2.93-4.83c-.23,0-.5-.07-.86-.22-1.41-.61-2.69-.61-3.06-.55-.24.03-.45-.13-.48-.37s.13-.45.37-.48c.54-.08,1.98-.05,3.51.62.53.23.61.15.71.06.33-.31.69-.42,1.4-.05.21.11.29.37.17.58-.11.21-.37.29-.58.18-.26-.14-.35-.14-.37-.14-.25.23-.49.37-.82.37h.01Z"
  />
  <path
    d="m144.19,117.25c-.11,0-.24-.05-.32-.15-.86-1-.78-3.4-.34-3.85.17-.17.43-.17.61,0,.15.15.16.4.03.56-.14.33-.23,2.05.34,2.71.16.18.14.45-.05.61-.08.07-.18.1-.29.1h.01Zm3.28-2.47c-.18,0-.35-.13-.41-.31-.05-.16-.46-.39-.79-.49-.23-.07-.35-.31-.29-.54s.31-.35.54-.29c.19.06,1.16.39,1.36,1.08.07.23-.07.47-.3.53-.03.01-.08.01-.11.01h0Z"
  />
  <path
    d="m148.33,115.28s-.11,0-.16-.03c-.22-.09-.32-.34-.23-.56.02-.05.19-.53-.17-.76-.29-.17-.55-.37-.79-.54-.22-.16-.51-.38-.61-.4-.24,0-.41-.19-.41-.42s.21-.42.45-.42c.31,0,.62.23,1.09.56.22.16.47.34.72.5.8.49.69,1.41.51,1.82-.07.16-.23.26-.4.26h0Z"
  />
  <path
    d="m150.53,116.55h-.1c-.24-.02-.41-.23-.39-.47.02-.21.18-.37.39-.39-.27-.34-.87-1.1-1.14-1.42-.08-.1-.34.07-.34.07-.19.14-.46.1-.6-.08-.14-.19-.1-.46.09-.61.43-.32,1.09-.45,1.51.07.35.43,1.29,1.6,1.29,1.6.05.06.08.14.09.22,0,.08.05.49-.23.78-.1.1-.29.23-.56.23h-.01Zm-10.06-9.36c-.22,0-.4-.17-.42-.39-.15-1.56.65-5.21.69-5.36.06-.23.27-.38.51-.33.23.05.38.29.32.51,0,.03-.8,3.67-.68,5.09.02.24-.15.45-.39.47h-.05.01Z"
  />
  <path
    d="m184.91,154.9c-5.47,0-13.87-5.21-16.68-8.32-.95-.33-5.86-2.04-6.71-2.68-.43-.32-.82-.78-1.24-1.26-.46-.54-.94-1.09-1.48-1.45-.34-.23-1.35-.57-2.41-.93-2.14-.71-4.57-1.52-5.32-2.54-.54-.71-.92-2-1.33-3.36-.45-1.48-.94-3.16-1.63-3.9-.49-.54-1.93-1.51-3.47-2.53-3.43-2.3-5.52-3.76-5.55-4.84-.05-1.45,4.28-6,5.15-6.89,2.21-2.28,2.52-2.28,2.69-2.28.73,0,6.05,2.92,6.77,3.72.24.26.5.65.8,1.11.63.96,1.42,2.15,2.36,2.63,1.46.73,3.85,2.11,4.68,2.63.13.08.33.11.6.15.9.14,2.28.34,4.05,2.98,1.1,1.64,1.35,1.5,1.64,1.34.48-.26,1.03-.47,1.96.21,1.11.81,1.19,1.41,1.09,1.93h.03c.17.05.37.09.56.15,1.06.27,2.27.58,2.88,1.27.09.1.48-.1.79-.26.6-.31,1.4-.73,2.22-.34.81.39,1.1.92,1.14,1.36,1.18.02,4.09.3,5.33,2.54.11.21.05.47-.17.58-.21.11-.47.05-.58-.17-1.27-2.3-4.98-2.09-5.02-2.09-.14,0-.29-.06-.38-.18s-.1-.27-.05-.41c.02-.07.13-.49-.64-.86-.43-.21-.96.07-1.46.32-.57.3-1.28.66-1.82.07-.45-.49-1.57-.78-2.46-1.01-.21-.06-.4-.1-.57-.15-.73-.21-.73-.63-.65-.97.05-.19.11-.47-.74-1.1-.56-.41-.73-.31-1.03-.15-.84.46-1.45.33-2.76-1.61-1.56-2.32-2.67-2.48-3.47-2.61-.33-.05-.65-.09-.93-.27-.81-.53-3.16-1.87-4.6-2.59-1.14-.57-2-1.88-2.69-2.92-.27-.42-.51-.79-.72-1.01-.66-.72-5.26-3.17-6.1-3.42-1.14.7-7.06,7.15-7.04,8.27.02.7,3.24,2.86,5.16,4.14,1.64,1.1,3.06,2.05,3.62,2.67.81.89,1.33,2.6,1.82,4.25.37,1.24.74,2.51,1.19,3.09.6.8,3.09,1.64,4.91,2.24,1.22.41,2.19.73,2.62,1.03.63.42,1.14,1.02,1.65,1.6.38.45.74.87,1.1,1.13.6.45,4.26,1.79,6.58,2.59.07.02.14.07.18.13,2.7,3.06,11.64,8.58,16.77,8.09,5.15-.48,11.25-5.85,11.78-7.11.17-.4.09-1.3,0-2.27-.16-1.92-.38-4.57.87-6.74,1.8-3.11,3.22-12.43,3.23-12.52.89-2.59.78-4.34.65-6.18-.03-.51-.07-1.03-.08-1.57-.06-1.85-3.03-3.57-4.17-4.07-.07-.03-.14-.08-.18-.15-1.3-1.91-5.63-.54-7.19.15-.17.07-.35.03-.48-.1-.37-.4-1.95.03-2.93.5-.14.07-.29.06-.41-.02-.09-.06-.15-.15-.18-.24-.22-.16-1.08-.39-1.91-.5-.23-.03-.4-.25-.37-.48.03-.24.23-.4.48-.37,1.4.19,2.05.46,2.36.7.78-.32,2.44-.9,3.34-.37,1.16-.47,6.1-2.3,7.93.15.71.33,4.5,2.22,4.58,4.78.01.53.05,1.04.08,1.53.13,1.93.25,3.76-.68,6.44-.05.31-1.44,9.49-3.32,12.75-1.12,1.93-.92,4.33-.76,6.24.09,1.16.17,2.07-.08,2.67-.6,1.41-6.93,7.12-12.49,7.63-.24.02-.48.03-.72.03Z"
  />
  <path
    d="m188.23,137.04c-.14,0-.27-.07-.35-.19-2.78-4.33-6.18-3.22-6.21-3.2-.23.08-.47-.05-.54-.26-.08-.23.05-.47.26-.55.05-.01,4.06-1.33,7.21,3.56.13.19.07.47-.13.6-.07.05-.15.07-.23.07h-.01Z"
  />
  <path
    d="m180.88,133.5h-.05c-.23-.02-.4-.24-.38-.47,0-.03.1-.87.81-1.41.09-.07.24-.17.42-.3,2.25-1.58,2.75-2.2,2.76-2.44,0-.73.55-6.31,1.12-7.34.11-.21.38-.27.58-.16.21.11.27.38.16.58-.43.77-1.02,6.05-1.02,6.91,0,.79-1.19,1.79-3.12,3.14-.17.13-.31.22-.4.29-.41.31-.47.81-.47.81-.02.22-.22.38-.42.38Z"
  />
  <path
    d="m185.95,123.97c-.09,0-.18-.02-.25-.08-.19-.14-.23-.41-.09-.61.18-.25,4.59-6.1,7.77-6.1h.09c3.02.1,8.03.26,9.18,4.46.07.23-.07.47-.3.53-.23.07-.47-.07-.53-.3-.98-3.58-5.41-3.73-8.34-3.83h-.07c-2.31,0-5.9,4.14-7.11,5.76-.08.11-.22.17-.34.17h-.01Zm-18.7,3.94c-.65,0-1.06-.06-1.11-.06-.23-.03-.4-.25-.37-.48.03-.23.26-.4.48-.37.05,0,3.83.48,7.68-1.77,1.93-1.13,4.58-4.04,6.92-6.6,3.03-3.32,4.78-5.2,5.86-5.08.24.02.41.23.39.47-.02.24-.22.42-.47.39h-.02c-.72,0-3.26,2.78-5.12,4.81-2.38,2.61-5.07,5.56-7.12,6.76-2.85,1.67-5.62,1.95-7.11,1.95h-.02Zm-17.45,5.6c-.07,0-.15-.02-.22-.06-.21-.11-.27-.38-.15-.58.08-.15,2.07-3.52,3.16-4.69,1.1-1.18,7.07-4.73,7.32-4.88.21-.11.47-.06.58.15s.06.47-.15.58c-1.71,1.01-6.29,3.82-7.14,4.71-1.03,1.1-3.02,4.51-3.04,4.54-.08.14-.22.22-.37.22Zm22.11,15.56c-.17,0-.33-.1-.4-.27-.17-.43-.06-.8.05-1.09.11-.34.21-.63-.03-1.18-.39-.87-.33-1.25-.1-1.63.05-.08.06-.09.06-.14,0-.13-.15-.51-.24-.77-.24-.61-.45-1.13-.16-1.49.08-.22-.02-1.45-.07-1.91l-.03-.35c-.05-.64.46-.78.68-.84.23-.06.35-.09.45-.45.22-.87-.35-1.73-.86-1.93-.63-.26-.79-1.02-.61-1.64.17-.6.55-.74.85-.69.21,0,1.02-.51,1.37-.88.18-.18.53-.98.76-1.63.08-.22.32-.34.55-.26.22.08.34.32.26.55-.09.25-.55,1.54-.96,1.96-.16.16-1.26,1.1-1.98,1.13-.05.1-.09.3-.05.48.03.15.1.18.13.19.89.38,1.67,1.67,1.35,2.94-.21.84-.76.98-1.05,1.06h-.03l.02.29c.13,1.38.14,2.11-.07,2.46.02.15.15.49.24.7.16.41.32.81.31,1.12-.01.27-.11.45-.19.55-.06.1-.13.21.15.82.39.86.21,1.41.07,1.81-.09.26-.11.37-.06.5.09.22-.02.47-.24.56-.06.02-.1.03-.16.03l.02-.03Zm21.25,2.08s-.11,0-.16-.03c-.22-.09-.32-.34-.23-.56.16-.38.06-1.33-.02-2.01-.06-.53-.1-.98-.08-1.3.05-.41.4-.89.88-1.56.57-.77,1.29-1.74,1.48-2.64.17-.82-.02-.93-.3-1.09-.21-.11-.51-.3-.57-.71-.06-.42.16-.76.37-1.08.19-.31.42-.66.49-1.18.07-.55-1.19-1.85-2.4-2.75-.07-.05-.11-.11-.15-.19-.53-1.42-1.3-2.33-2.32-2.72-1.59-.61-3.27.27-3.28.29-.17.09-.38.06-.51-.08-.31-.32-1.13-.13-1.33-.06-.23.08-.47-.03-.55-.26s.03-.47.26-.55c.14-.05,1.22-.41,1.98.06.61-.26,2.16-.8,3.73-.21,1.22.47,2.16,1.51,2.78,3.11.65.49,2.79,2.22,2.64,3.47-.09.71-.4,1.19-.62,1.53-.14.21-.25.39-.24.5,0-.01.08.03.14.06.49.27,1,.69.72,2.01-.23,1.1-1.01,2.14-1.64,2.99-.3.4-.7.95-.72,1.12-.02.23.02.69.08,1.12.1.92.21,1.85-.03,2.44-.07.16-.23.26-.4.26v.02Z"
  />
  <path
    d="m180.52,133.11h-.07c-.23-.03-.39-.26-.35-.49.02-.17.06-.45.1-.8.15-1.26.4-3.36.92-5.07.63-2.11,2.25-9.84,2.28-9.91.05-.23.27-.39.5-.33.23.05.38.27.33.5-.07.32-1.66,7.85-2.29,9.98-.49,1.63-.73,3.68-.88,4.92-.05.37-.08.65-.1.84-.03.21-.22.37-.42.37h-.01Zm-3.89-1.65h-.03c-.24-.01-.41-.22-.4-.46.11-1.53,2.16-7.78,2.24-8.04.08-.23.32-.35.54-.27.23.07.34.32.27.54-.73,2.21-2.13,6.69-2.21,7.84-.01.23-.21.4-.42.4h.01Zm-1.65,1.28c-.23,0-.42-.18-.42-.42,0-.06-.03-1.43.26-2.88s.63-4.2.63-4.63c0-.24.19-.43.42-.43s.42.19.42.43c0,.53-.35,3.36-.65,4.81-.27,1.36-.24,2.68-.24,2.69,0,.24-.18.43-.41.45h-.01Z"
  />
  <path
    d="m180.52,130.17c-.16,0-.31-.09-.38-.24-.14-.29-.33-.45-.57-.5-.63-.15-1.56.43-1.83.65-.18.15-.46.11-.61-.07s-.11-.46.07-.61c.14-.11,1.41-1.06,2.54-.81.49.11.89.45,1.14.96.1.22.02.47-.19.57-.06.03-.13.05-.19.05h.02Zm1.64-3.51c-.09,0-.18-.03-.25-.08-.19-.14-.24-.4-.1-.6.1-.15,1.03-1.42,2.14-1.45.37,0,.82.09,1.26.64.15.18.11.46-.07.61s-.46.11-.61-.07c-.23-.3-.43-.32-.57-.32-.57.01-1.27.81-1.46,1.09-.08.11-.22.18-.35.18h.02Zm-67.31,9.24c-.1,0-.19-.03-.29-.1-.18-.16-.19-.42-.05-.61.01-.01,1.42-1.64,2.17-2.82.8-1.25,4.47-1.93,5.52-2.11.84-.74,3.26-1.54,3.93-1.75,1.48-2.04,5.16-2.25,6.19-2.28,1.16-2.06,4.67-5,4.83-5.13.18-.15.45-.13.61.06.15.18.13.46-.06.61-.03.03-3.8,3.18-4.73,5.08-.07.15-.24.24-.39.24-.03,0-4.47-.05-5.82,2.03-.06.08-.14.15-.23.17-1.22.38-3.34,1.16-3.81,1.67-.07.07-.15.13-.25.14-1.69.26-4.57.97-5.06,1.74-.79,1.22-2.19,2.85-2.24,2.91-.08.1-.21.15-.32.15Z"
  />
  <path
    d="m129.49,150.86c-.79,0-1.56-.07-2.24-.24-.23-.06-.37-.29-.31-.51s.29-.37.51-.31c2.71.68,7.1-.48,7.14-.49.08-.02.16-.02.24,0,3.55,1.13,6.58-.1,7.21-.5.6-.38,1.75-4.52,2.3-9.1.48-4.01-.09-6.32-2.43-9.88-2.06-3.12-7.95-2.9-8.67-2.76-.21.1-.42,0-.54-.21-.1-.22.02-.48.23-.6.29-.15,7.19-.72,9.68,3.08,2.45,3.72,3.07,6.26,2.56,10.45-.43,3.59-1.56,8.99-2.69,9.72-.85.54-4.05,1.79-7.8.63-.56.14-2.92.7-5.2.7v.02Z"
  />
  <path
    d="m134.69,150.14c-.15,0-.29-.07-.37-.21-.13-.21-.06-.47.14-.6.18-.11,4.42-2.83,4.1-9.13-.24-4.71-1.22-5.93-2.48-7.47-.47-.58-1.02-1.25-1.54-2.14-1.75-2.93-5.95-2.38-6-2.38-.24.03-.45-.13-.48-.37s.13-.45.37-.48c.19-.02,4.81-.64,6.85,2.78.5.85,1,1.45,1.48,2.04,1.3,1.59,2.43,2.98,2.68,7.96.34,6.83-4.31,9.78-4.51,9.91-.07.05-.15.07-.22.07h-.01Z"
  />
  <path
    d="m134.76,138.62c-.24,0-.42-.19-.42-.43,0-1.3-.86-3.12-1.68-4.88l-.45-.96c-.27-.61-1.44-1.72-6.13-2.36-.18-.02-.3-.05-.33-.06-.23-.06-.37-.29-.31-.51s.29-.37.51-.31c.03,0,.13.02.25.03,3.95.54,6.17,1.48,6.8,2.85l.45.95c.87,1.84,1.76,3.75,1.76,5.24,0,.24-.19.43-.42.43h-.02Z"
  />
  <path
    d="m132.27,147.09c-.06,0-.11-.01-.17-.03-.22-.1-.31-.35-.22-.57,1.05-2.35.01-8.23-1.57-11.72-1.4-3.07-6.72-3.57-7.26-3.52-.23.08-.43-.06-.5-.27-.08-.23.08-.48.31-.55.49-.16,6.59.39,8.23,4.01,1.5,3.31,2.83,9.64,1.57,12.43-.07.16-.23.25-.39.25h0Z"
  />
  <path
    d="m126.84,148.38c-.13,0-.26-.06-.34-.17-.14-.19-.1-.46.09-.6.89-.66,3.32-2.6,3.81-3.47.48-.86.46-3.06-.05-5.87-.32-1.77-3.4-2.83-5.64-3.6-.41-.14-.8-.27-1.14-.4-1.85-.69-6.33.93-7.9,1.6-.22.09-.47,0-.56-.23-.09-.22,0-.47.23-.56.24-.1,5.96-2.56,8.53-1.63.34.13.73.26,1.13.4,2.59.88,5.8,1.99,6.21,4.26.4,2.2.71,5.09-.05,6.44-.66,1.19-3.7,3.48-4.04,3.74-.08.06-.17.08-.25.08h-.03Z"
  />
  <path
    d="m126.14,147.9c-.23,0-.42-.18-.42-.41-.14-3.62-.98-4.26-2.15-5.14-.38-.29-.81-.62-1.25-1.06-1.6-1.66-6.23-2.67-6.27-2.68-.23-.05-.38-.27-.33-.51.05-.23.26-.39.5-.33.21.05,4.93,1.08,6.72,2.93.39.4.78.7,1.14.97,1.25.94,2.33,1.76,2.49,5.79,0,.24-.17.43-.41.45h-.02Z"
  />
  <path
    d="m125.85,147.09c-.22,0-.4-.16-.42-.38-.16-1.24-1.8-3.47-2.41-4.22-.15-.18-.13-.46.06-.61s.45-.13.61.06c.09.11,2.38,2.93,2.6,4.66.03.24-.14.45-.37.48h-.06Zm.88,7.44c-.71,0-1.46-.21-2.09-.77-2.07-1.84-1.35-3.44-1.32-3.51.1-.22.35-.31.57-.21s.31.35.21.57c-.01.03-.46,1.11,1.11,2.51.84.74,2,.62,2.74.3.54-.24.71-.51.72-.58-1.33-.92-1.74-2.49-1.74-3.11-.01-.25-.63-1.14-.89-1.35-.16-.05-.29-.18-.3-.35-.03-.24.14-.45.38-.48.22-.03.38.09.5.21.34.3,1.17,1.37,1.17,1.99,0,.39.31,1.67,1.32,2.37.31.21.46.53.42.86-.06.51-.6,1.03-1.4,1.34-.4.15-.88.25-1.37.25l-.02-.02Zm-14.3-9.18c-.24,0-.42-.19-.42-.43v-4.86c-.07-.46-.58-4.99,1.68-5.57.06-.01.13-.02.18,0,.23.05,2.24.55,3.06,5.37l.79,4.66c.03.23-.11.46-.35.49-.24.05-.46-.11-.49-.35l-.79-4.66c-.62-3.66-1.95-4.47-2.29-4.63-1.19.48-1.06,3.57-.93,4.65v4.92c0,.24-.18.43-.42.43h-.01Z"
  />
  <path
    d="m109.21,145.57c-.34,0-.68-.1-.87-.43-.11-.19-.6-.88-1.06-1.54-.74-1.06-1.51-2.16-1.73-2.57l-.07-.13c-1.34-2.52-2.8-5.95-2.17-8.02.19-.64.57-1.12,1.13-1.41.08-.05.17-.06.26-.05.26.03,1.68.45,3.54,4.61.65,1.02,2.68,3.95,3.88,4.6.21.11.29.38.17.58s-.38.29-.58.17c-1.65-.89-4.12-4.79-4.22-4.96-1.4-3.11-2.46-3.91-2.82-4.11-.26.18-.45.45-.56.8-.42,1.4.32,4.01,2.11,7.37l.07.13c.19.37,1.02,1.54,1.67,2.48.61.86.97,1.4,1.1,1.61.1.06.54-.03.88-.18.22-.09.47,0,.56.22s0,.47-.22.56c-.15.07-.63.26-1.1.26h.03Z"
  />
  <path
    d="m105.5,144.35c-.13,0-.24-.05-.32-.15-.89-1.05-8.65-10.37-5.25-13.7.1-.14.47-.41.97-.31,1.01.22,1.9,1.9,2.75,5.17.06.23-.08.47-.31.53s-.46-.08-.53-.31c-1.05-4.09-1.92-4.5-2.08-4.54-.08-.02-.15.02-.17.05-2.43,2.38,2.99,9.86,5.28,12.55.15.18.14.45-.05.61-.08.07-.18.1-.27.1h-.01Z"
  />
  <path
    d="m116.37,149.6c-3.16,0-6.8-1.73-7.52-2.09-.39.02-1.36-.02-3.17-.84-2.11-.95-2.72-3.02-2.86-3.57-.43-.46-2.11-2.23-2.37-2.56-.21-.26-1.17-1.21-1.6-1.65-.45-.14-2.04-.72-2.77-2.12-.46-.89-.48-1.92-.05-3.07.05-.13.16-.23.29-.26.14-.03.27,0,.38.08,1.01.81,2.63,1.99,3.08,2.11.23.06.38.29.32.51s-.29.38-.51.32c-.62-.15-2.11-1.25-2.92-1.88-.15.68-.09,1.27.18,1.8.65,1.27,2.32,1.72,2.33,1.72.07.02.14.06.19.11.15.15,1.45,1.43,1.75,1.8.23.29,1.81,1.97,2.4,2.6.06.06.09.14.11.22,0,.02.42,2.19,2.39,3.08,1.99.9,2.79.77,2.8.76.09-.02.21,0,.29.03.06.03,6.2,3.18,9.4,1.64.22-.1.47-.01.57.21s.01.47-.21.57c-.74.35-1.61.5-2.52.5h0Z"
  />
  <path
    d="m123.34,151.86s-.07,0-.11-.01c-.62-.16-2.11-.62-2.45-1.2-.08-.06-.48-.09-.76-.11-.56-.05-1.25-.1-1.92-.42-.22-.1-.31-.35-.21-.57s.37-.3.57-.21c.54.25,1.12.31,1.63.34.62.05,1.16.09,1.42.54.13.19,1.03.57,1.93.81.23.06.37.3.31.53-.05.19-.23.32-.41.32h0Zm-12.99-12.69c-.11,0-.23-.05-.31-.14-.16-.17-.15-.45.02-.61l1.57-1.48c.17-.16.45-.15.61.02s.15.45-.02.61l-1.57,1.48c-.08.08-.18.11-.3.11Z"
  />
  <path
    d="m110.43,140.09c-.15,0-.29-.07-.37-.21-.13-.21-.06-.47.14-.6l1.5-.93c.21-.13.47-.06.58.14.13.21.06.47-.14.6l-1.5.93c-.07.05-.15.07-.23.07h.01Zm6.84-1.67c-.11,0-.23-.05-.32-.14-.16-.17-.15-.45.03-.61.15-.14,3.76-3.43,5.23-4.2.21-.11.47-.03.57.18.11.21.03.47-.18.58-1.36.72-5.01,4.04-5.05,4.07-.08.08-.18.11-.29.11h0Zm3.87,1.2c-.11,0-.23-.05-.32-.14-.16-.17-.15-.45.02-.61.66-.62,4.06-3.68,5.44-3.85.26-.02.45.14.48.38.02.24-.14.45-.38.48-.85.1-3.49,2.28-4.96,3.62-.08.08-.18.11-.29.11Zm3.44,2.32c-.17,0-.33-.1-.4-.26-.09-.22,0-.46.22-.55.09-.06.4-.27.81-.56,3.26-2.32,4.54-3.08,5.15-2.99.23.03.4.25.37.49-.03.23-.25.39-.48.37-.57.02-3.55,2.14-4.53,2.84-.72.51-.86.61-.96.65-.06.02-.1.03-.16.03v-.02Zm1.75,3.81c-.18,0-.34-.11-.41-.3-.06-.17,0-.35.14-.47.07-.08.19-.27.38-.53,1.26-1.79,2.7-3.71,3.79-3.89.24-.05.46.11.49.35.03.23-.11.46-.35.49-.84.14-2.63,2.7-3.23,3.55-.46.65-.5.72-.68.77-.05.01-.09.02-.14.02h.01Zm23.92-15.59c-.14,0-.27-.07-.35-.18-2.9-4.29-8.87-7.13-8.93-7.15-.22-.1-.31-.35-.21-.57s.35-.31.57-.21c.25.11,6.25,2.96,9.27,7.45.14.19.08.47-.11.6-.07.05-.16.07-.24.07Zm1.28-1.99c-.14,0-.27-.07-.37-.19-2.14-3.38-8.34-7.36-8.4-7.4-.19-.13-.26-.39-.13-.6.13-.21.4-.26.6-.13.26.17,6.42,4.13,8.66,7.67.13.19.07.47-.13.6-.07.05-.15.07-.23.07h-.01Zm3-1.52c-.14,0-.27-.07-.35-.19-.56-.84-2.72-2.95-9.85-8.23-.23-.17-.38-.27-.4-.3-.18-.15-.21-.42-.06-.61s.42-.21.6-.06c.03.02.16.13.37.27,5.81,4.3,9.2,7.14,10.06,8.45.13.19.08.47-.11.6-.07.05-.16.07-.24.07h0Zm2-2.57c-.06,0-.11-.01-.17-.03-2.76-1.24-9.12-7.87-9.4-8.16-.16-.17-.16-.45.01-.61.17-.16.45-.16.61.01.07.07,6.52,6.8,9.13,7.98.22.09.31.35.22.57-.07.16-.23.25-.39.25h-.01Zm25.26,22.18c-4.98,0-10.67-.77-13.73-1.18-.86-.11-1.6-.22-1.79-.22-.16.02-.34-.05-.43-.19-.13-.19-.07-.47.13-.6q.18-.11,2.21.15c4.34.58,15.85,2.13,20.47.29,5.78-2.3,8.35-4.35,8.39-4.37.18-.15.46-.13.61.07.15.18.11.46-.07.61-.1.09-2.69,2.14-8.61,4.51-1.75.7-4.34.95-7.16.95h-.01Zm-37.96,8.26h-.03c-.24-.02-.41-.23-.39-.47.03-.41-.92-2.47-1.81-4.14-.11-.21-.03-.47.17-.58s.47-.03.58.17c.47.87,1.98,3.79,1.9,4.62-.02.22-.21.39-.42.39h0Z"
  />
  <path
    d="m163.44,232.01c-1.33,0-2.69-.33-4.02-.66-1.12-.27-2.19-.54-3.19-.6-.8-.05-2.32.05-4.07.14-3.74.22-8.4.48-11.12-.15-4.7-1.1-7.24-5.39-7.27-5.42-.35-.62-.79-3.59-1.48-8.88-.13-.97-.23-1.77-.3-2.22-.13-.82-.41-1.54-.73-2.3-.39-.95-.79-1.93-.92-3.24-.22-2.33,2.2-11.5,2.3-11.89.02-.26.93-7.8,1.57-10.17.64-2.36,2.15-7.32,2.72-8.78.31-.77.45-2.23.57-3.51.09-1,.18-1.95.34-2.53.08-.26.21-.85.39-1.61.71-3.06,2.04-8.75,3.34-11.62,1.61-3.51,5.63-12.94,5.82-13.52.05-.18.22-.33.41-.33.24,0,.42.19.42.43,0,.37-5.04,11.9-5.89,13.78-1.28,2.78-2.63,8.64-3.3,11.46-.18.79-.32,1.38-.4,1.66-.14.5-.23,1.42-.32,2.37-.14,1.41-.27,2.87-.63,3.75-.57,1.43-2.06,6.35-2.7,8.69-.63,2.3-1.54,10.02-1.56,10.1-.03.15-2.48,9.46-2.29,11.65.11,1.18.49,2.11.86,2.99.32.77.64,1.57.78,2.49.07.46.17,1.27.3,2.24.33,2.59,1.03,7.98,1.36,8.56.65,1.11,3.11,4.19,6.72,5.02,2.61.61,7.39.33,10.88.13,1.79-.1,3.32-.19,4.18-.14,1.09.06,2.23.34,3.34.62,1.51.38,3.08.76,4.51.6,2.46-.27,4.74-.63,5.7-1.91.14-.19.41-.23.6-.08.19.14.23.41.09.61-1.17,1.56-3.54,1.93-6.29,2.24-.26.03-.53.05-.79.05h.06Z"
  />
  <path
    d="m170.74,228.82c-.18,0-.35-.11-.41-.3-.07-.23.06-.47.29-.54.22-.07,5.38-1.67,8.55-1.67s8.5-1.18,9.49-2.11c.53-.49,1.32-1.11,2.09-1.69.61-.47,1.42-1.09,1.63-1.33-.08-.92-1.28-7.24-1.61-8.26-.18-.55-.11-2.37.01-5.55.13-2.92.26-6.21.03-7.47,0-.24.49-15.2.27-18.01l-.03-.5c-.22-2.84-.55-7.12.55-11.17.92-3.4,1.19-8.06,1.29-9.81.02-.45.05-.73.06-.81.02-.1.14-.55.32-1.19.56-2.03,1.72-6.24,1.82-8,.01-.24.19-.42.46-.4.24.01.41.22.4.46-.1,1.85-1.28,6.12-1.85,8.17-.16.6-.27,1.01-.3,1.11-.01.08-.02.33-.05.72-.1,1.77-.38,6.5-1.32,9.99-1.05,3.91-.73,8.1-.53,10.88l.03.5c.22,2.85-.26,17.39-.29,18.01.23,1.26.09,4.46-.03,7.58-.09,2.25-.21,4.81-.06,5.24.29.85,1.76,8.18,1.66,8.74-.07.32-.43.63-1.96,1.81-.72.55-1.53,1.18-2.03,1.64-1.26,1.18-6.83,2.33-10.07,2.33-3.04,0-8.24,1.61-8.3,1.63-.05.01-.08.02-.13.02v-.02Z"
  />
  <path
    d="m175.43,230.46h-.14c-5.8-.06-11.44-3.51-14.37-8.81-5.34-9.65-11.38-33.48-11.56-39.52-.06-1.84.02-4.68.11-7.96.21-7.1.46-15.93-.54-19.97-.79-3.23-.68-4.74-.54-6.65.13-1.65.27-3.71-.15-7.6-.88-8.07-5.62-13.01-5.66-13.07-.17-.17-.16-.45,0-.61.17-.17.43-.16.61,0,.21.21,4.99,5.2,5.9,13.57.43,3.97.27,6.07.16,7.75-.14,1.91-.24,3.3.51,6.39,1.02,4.15.76,13.05.56,20.2-.09,3.27-.17,6.1-.11,7.91.18,5.97,6.16,29.57,11.44,39.13,2.78,5.02,8.14,8.31,13.63,8.37h.13c4.21,0,7.77-1.97,9.76-5.41,5.08-8.78,7.13-21.8,6.44-23.69-.08-.22.03-.47.25-.55s.47.03.55.25c.8,2.22-1.35,15.51-6.5,24.42-2.15,3.72-5.97,5.84-10.51,5.84v.02Z"
  />
  <path
    d="m159.7,160.33c-.85,0-1.56-.24-2.25-.47-.51-.17-1.04-.34-1.63-.42-.81-.11-3.06.23-4.85.51-1.66.25-2.7.41-3.14.37-.97-.09-1.98-.19-3.09-.71-.76-.34-2.17-.1-2.67.02-.23.06-.46-.08-.51-.31s.08-.47.31-.53c.08-.02,2.05-.5,3.23.02,1,.45,1.88.54,2.83.63.35.03,1.66-.17,2.92-.37,1.95-.3,4.15-.64,5.09-.51.66.09,1.22.29,1.77.47.73.24,1.42.47,2.23.42.53-.03,1.22-.33,2.04-.69,1.32-.56,2.98-1.26,4.68-1.13,1.1.08,1.97.31,2.8.54,1.25.33,2.32.62,3.95.38,1.42-.22,2.51-.61,3.48-.95.95-.34,1.76-.63,2.59-.63.49,0,1.59-.09,2.86-.21,2.69-.24,6.03-.53,7.23-.26,1.49.33,4.57,1.02,4.34,2.79-.03.23-.24.39-.48.37-.23-.03-.4-.24-.37-.48.13-1-2.74-1.64-3.67-1.84-1.08-.24-4.49.06-6.97.27-1.34.11-2.4.21-2.93.21-.68,0-1.38.25-2.3.58-.95.34-2.14.77-3.64,1-1.81.27-3.02-.06-4.3-.39-.8-.22-1.63-.43-2.64-.51-1.51-.11-2.99.51-4.28,1.08-.88.38-1.65.7-2.32.74h-.3,0Zm20.16,28.24c-.64,0-1.24-.37-1.66-.63-.15-.09-.37-.23-.43-.24-.55.1-3.32-.08-4.2-.51-.34-.17-1.81.09-2.88.27-.86.15-1.74.31-2.43.34-1.6.09-6.61-.54-7.53-1.29-.45-.22-2.9.72-3.94,1.12-1.02.39-1.6.61-1.93.64-.82.1-1.38-.43-1.84-.85-.15-.14-.3-.27-.43-.37-.54-.22-5.04-.03-6.72.03-.61.02-1.06.05-1.22.05-.8,0-1.91-.55-3.46-1.44-.55-.33-1.57.09-2.38.42-.7.29-1.3.54-1.77.43-1-.22-2.01-1.64-2.12-1.8-.14-.19-.09-.46.1-.6.19-.14.46-.09.6.1.35.5,1.1,1.34,1.6,1.45.21.05.79-.19,1.26-.39.98-.41,2.22-.92,3.15-.38.8.47,2.29,1.33,3.02,1.33.16,0,.6-.02,1.19-.05,5.05-.21,6.81-.17,7.23.11.17.11.35.27.54.45.39.35.74.68,1.18.63.23-.02.98-.31,1.72-.6,2.47-.94,4.13-1.51,4.78-.98.6.48,5.13,1.19,6.93,1.1.64-.03,1.5-.18,2.32-.33,1.75-.31,2.85-.48,3.41-.19.64.32,3.23.53,3.73.43.31-.05.61.13.97.35.43.27.97.61,1.43.47.33-.1.63-.46.9-1.05.06-.14.19-.23.34-.25.41-.05,1.58-.32,1.96-1.02.08-.14.22-.22.38-.23,1.48,0,3.2-.33,3.42-.8.23-.5.63-.82,1.11-.89.62-.09,1.32.23,1.79.79.24.03.63-.32.85-.63.14-.19.4-.23.6-.09.19.14.23.41.09.6-.11.16-.74,1-1.45,1.02-.3.01-.55-.1-.74-.34-.27-.33-.7-.54-1.02-.49-.19.02-.34.16-.46.4-.5,1.11-3.03,1.28-3.96,1.3-.6.81-1.73,1.11-2.23,1.2-.35.72-.8,1.14-1.33,1.32-.16.05-.32.07-.47.07h.01Zm-35.33,22.14c-9.06,0-13.45-5.54-13.63-5.78-.15-.18-.11-.46.08-.61.18-.15.46-.11.6.08.05.06,4.59,5.72,13.62,5.44,6.6-.19,9.86-1.08,11.25-1.45.79-.21,1.11-.3,1.38-.09.29.22.35.56.41.85.02.1.06.29.09.32.15-.01.38-.19.61-.38.41-.33.94-.76,1.64-.68.29.02.62.1,1,.19.9.22,2.01.48,3.58.29.63-.08,1.52-.26,2.56-.48,2.71-.56,6.1-1.26,7.98-.76,1.3.35,2.55.25,3.55.17.9-.07,1.61-.13,2.14.14.47.24.71.53.9.77.24.3.34.42.85.42.69,0,2.82-1.82,4.2-3.18.01-1.8.25-3.86,1.24-3.97.93-.1,2.75.71,2.95.8.22.1.31.35.22.57-.09.22-.35.31-.57.22-.69-.31-1.97-.79-2.51-.72-.23.18-.48,1.76-.48,3.3,0,.11-.05.22-.13.31-.6.6-3.62,3.56-4.93,3.56-.92,0-1.24-.4-1.51-.74-.16-.19-.31-.39-.62-.54-.31-.16-.95-.11-1.69-.06-1.06.08-2.39.18-3.83-.21-1.67-.46-5.09.25-7.58.77-1.05.22-1.97.4-2.63.49-1.72.22-2.96-.08-3.88-.3-.33-.08-.63-.15-.88-.17-.38-.03-.68.22-1.01.49-.34.27-.69.56-1.13.56-.74,0-.88-.69-.94-1.01-.01-.07-.03-.18-.06-.25-.15.02-.41.1-.68.17-1.42.38-4.75,1.27-11.44,1.48h-.71Z"
  />
  <path
    d="m190.82,211.04c-.21,0-.39-.15-.42-.35-.24-1.4-1.8-4.71-3.22-7.27-1.46-2.64-1.57-6.61-1.58-6.79,0-.24.18-.43.42-.43.22,0,.43.18.43.42,0,.03.11,3.94,1.46,6.39,1.41,2.54,3.04,5.99,3.31,7.54.05.23-.11.46-.35.49h-.07.01Zm-47.91,6.53c-2.95,0-10.65-4.06-10.99-4.23-.21-.11-.29-.37-.18-.58.11-.21.38-.29.58-.18.08.05,7.84,4.13,10.59,4.13,1.27,0,4.09-.35,7.06-.72,3.66-.46,7.45-.93,8.7-.78,1.74.22,9.29-.9,15.78-2.03,1.8-.31,2.76-.06,3.7.19.87.23,1.77.46,3.47.29,3.54-.38,6.88-1.32,8.74-2.47.21-.13.47-.06.6.14.13.21.06.47-.14.6-1.99,1.24-5.4,2.21-9.11,2.6-1.84.19-2.87-.07-3.78-.31-.93-.24-1.73-.45-3.34-.17-3.18.55-13.72,2.3-16.03,2.03-1.16-.14-5.06.34-8.49.78-3.01.38-5.85.73-7.18.73h.02Zm-3.88,18.52c-.14,0-.26-.07-.35-.18-2.52-3.58-2.83-7.34-2.84-7.5-.02-.24.16-.45.39-.46.25-.02.45.16.46.4,0,.03.31,3.67,2.68,7.06.14.19.09.46-.1.6-.07.05-.16.08-.25.08h.02Z"
  />
  <path
    d="m139.41,249.55c-.17,0-.32-.1-.4-.26-2.23-5.29-1.92-8.42-1.74-10.29.07-.66.11-1.18,0-1.41-.65-1.2-.76-4.23-.77-4.58,0-.24.18-.43.41-.45h.01c.23,0,.42.18.42.41.02.87.19,3.33.66,4.2.25.46.19,1.06.1,1.9-.18,1.79-.48,4.78,1.67,9.88.09.22,0,.47-.23.56-.06.02-.11.03-.17.03h.02Z"
  />
  <path
    d="m143.46,287.17c-.86,0-1.69-.15-2.3-.56-.19-.13-.25-.4-.11-.6.14-.19.4-.25.6-.11,1.19.8,3.79.27,4.78-.17-.17-.02-.38-.05-.56-.06-1.6-.16-4.28-.43-5.85-2.48-1.59-2.08-2.07-5.8-2.62-10.12-.25-1.93-.5-3.93-.88-6.01-1.18-6.55.47-16.56.69-17.88-.9-2.14.07-3.42.1-3.47.15-.18.42-.22.61-.07s.22.41.07.6c-.03.05-.72,1,.05,2.71.03.08.05.17.03.25-.02.11-1.92,10.99-.71,17.69.38,2.11.64,4.12.89,6.05.54,4.19,1.01,7.8,2.46,9.7,1.34,1.76,3.79,2,5.25,2.15,1.02.1,1.68.17,1.68.78,0,.46-.51.73-.68.82-.7.38-2.14.77-3.5.77h0Z"
  />
  <path
    d="m145.13,290.83c-1.83,0-3.24-.31-3.35-.34-.05,0-.09-.02-.13-.05-2-1.21-2-3.46-2-4.66s-.63-2.78-.63-2.79c-.09-.22.01-.47.23-.56s.47.01.56.23c.03.07.7,1.72.7,3.12s.11,3,1.52,3.89c.64.13,5.72,1.08,8.82-1.3.88-.68.13-5.07-.13-5.74-.08-.22.01-.47.22-.56s.45-.01.55.19c.11.22,1.42,5.62-.13,6.8-1.87,1.43-4.29,1.79-6.25,1.79h.01Zm10.48-54.74c-.11,0-.23-.05-.31-.14-.16-.17-.16-.45.01-.61,2.48-2.37,2.04-4.17,2.03-4.19-.07-.23.06-.47.27-.54s.46.05.54.26c0,.02.7,2.25-2.25,5.08-.08.08-.19.11-.3.11h.01Z"
  />
  <path
    d="m147.5,257.88c-2.76,0-6.2-.74-10.3-2.24-.22-.08-.33-.33-.25-.55.08-.23.33-.34.55-.25,7.1,2.59,12.26,2.88,14.89.84,2.12-1.64,2.12-4.33,2.03-5.41-.15-1.66.78-3.9.81-3.99.02-.05.06-.1.09-.14.8-.8.5-3.03.31-3.82-.02-.09-.01-.18.02-.26.61-1.43,1.25-6.37,1.26-6.42v-1.35c0-.24.18-.43.42-.43s.42.19.42.43v1.41c-.03.25-.63,4.91-1.27,6.58.14.68.58,3.22-.5,4.42-.15.38-.85,2.22-.72,3.51.11,1.22.1,4.27-2.36,6.17-1.33,1.02-3.12,1.53-5.4,1.53h0Z"
  />
  <path
    d="m147.66,289.12c-.68,0-1.1-.21-1.22-.62-.23-.68.47-1.6,1.72-3.19.72-.93,1.46-1.88,1.88-2.7.94-1.87.95-8.35.95-8.42.49-3.39.35-4.9.25-6-.08-.82-.14-1.46.13-2.43.55-2.01,1.12-9.22,1.13-9.29.02-.24.23-.4.46-.4.24.02.41.23.39.46-.02.3-.58,7.37-1.16,9.46-.22.8-.17,1.33-.1,2.12.1,1.14.25,2.71-.25,6.13,0,.22,0,6.69-1.04,8.74-.45.89-1.22,1.88-1.97,2.84-.64.82-1.61,2.06-1.57,2.4.34.24,2.76-.34,3.22-.73.1-.17.31-.26.5-.19.23.08.34.32.27.55-.23.7-2.69,1.26-3.58,1.26h0Z"
  />
  <path
    d="m149.86,286.87c-.24,0-.42-.19-.42-.43v-2.29c0-.24.19-.43.42-.43s.42.19.42.43v2.29c0,.24-.19.43-.42.43Zm53.5,5.65c-.38,0-.76-.06-1.1-.18-1.37-.48-2.05-1.75-2.19-2.04l-3.25-4.17s-.81-1.04-1.19-1.8c-.19-.4-.34-1.05-.53-1.88-.17-.8-.39-1.8-.71-2.76-.34-1.03-2-3.89-3.75-6.92-1.45-2.49-2.95-5.08-3.99-7.12-2.11-4.1-3.26-8.82-3.49-9.8-1.04-.69-1.33-2.11-1.38-2.59-2.13-2.25-6.87-12.37-7.06-12.85-.22-.55-1.97-3.59-3.62-6.39-.96-1.63-1.33-3.86-1.34-3.95-.03-.23.13-.46.35-.49.25-.05.46.13.49.35,0,.02.35,2.16,1.24,3.65.56.94,3.34,5.7,3.67,6.5.31.79,5.14,10.89,6.97,12.67.08.07.13.17.13.27,0,.01.14,1.64,1.13,2.16.11.06.19.16.22.29,0,.06,1.16,5.3,3.46,9.77,1.04,2.01,2.53,4.59,3.97,7.08,1.85,3.2,3.46,5.96,3.83,7.08.33,1.01.56,2.03.74,2.85.16.74.3,1.37.45,1.68.33.66,1.09,1.64,1.1,1.65l3.28,4.2s.05.06.06.09c0,.01.55,1.22,1.72,1.63.76.26,1.65.14,2.62-.38,3-1.59,3.4-1.91,4.12-2.48l.16-.13c-.29-1.11-.66-2.31-.84-2.61-.06-.03-.11-.09-.15-.15-.13-.19-.07-.4,0-.64.17-.61.56-2.03-.77-4.58-.11-.21-.02-.47.18-.58.21-.11.47-.02.57.18,1.48,2.85,1.01,4.55.84,5.2v.02c.22.33.54,1.13,1.06,3.2.05.17-.02.34-.15.45l-.38.3c-.77.61-1.19.94-4.25,2.56-.78.41-1.51.62-2.21.62h-.03Z"
  />
  <path
    d="m207.43,283.57c-.15,0-.3-.08-.38-.23-.1-.19-.05-.43.14-.56.06-.07.72-.9-.17-4.85-1.03-4.53-2.13-6.05-2.14-6.07-.03-.05-.06-.09-.07-.14-.05-.17-5-17.6-6.74-20.67-.02-.05-.05-.09-.05-.15-.15-.97-.42-1.97-.58-2.14-.23-.08-.31-.3-.23-.51.08-.23.35-.32.58-.25.18.06.66.23,1.06,2.7,1.77,3.26,6.37,19.34,6.76,20.71.24.35,1.27,2.06,2.23,6.32,1.06,4.68.1,5.6-.22,5.77-.07.03-.14.05-.21.05v.02Z"
  />
  <path
    d="m189.61,254.89c-.79,0-1.64-.05-2.55-.14-.1,0-.16-.02-.19-.02-.23,0-.42-.21-.41-.43,0-.23.19-.42.42-.42.03,0,.13,0,.27.02,5.2.51,7.1-.61,7.77-1.32l.08-.08c2.06-2.2,2.61-2.79,1.89-5.68-.74-2.99-2.11-4.52-2.12-4.54-.03-.03-1.14-1.18-.74-3.03.27-1.29-.53-1.66-.54-1.66-.16-.07-.25-.23-.25-.39v-1.52c0-.24.19-.43.42-.43s.42.19.42.43v1.28c.49.35,1.06,1.16.78,2.48-.31,1.4.51,2.24.53,2.25.08.08,1.52,1.71,2.32,4.92.84,3.34.03,4.19-2.09,6.48l-.08.08c-1.06,1.14-3.09,1.72-5.93,1.72h0Z"
  />
  <path
    d="m191.67,237.62c-.16,0-.32-.09-.39-.25-.09-.21-.02-.46.18-.56.05-.02.13-.05.24-.09,1.14-.37,2.37-1.05,1.81-3.08l-.49-.27c-.21-.11-.29-.38-.17-.58s.38-.29.58-.17l.64.35c.09.06.17.14.21.24.47,1.48.45,3.42-2.31,4.31-.06.02-.1.03-.13.05-.06.02-.11.03-.17.03v.02Z"
  />
  <path
    d="m191.34,236.09c-.17,0-.33-.1-.4-.27-.08-.22.02-.47.23-.55.03-.02,1.45-.72,1.27-4.21-.21-3.88-.62-8.32-.63-8.35-.02-.24.15-.45.39-.47.23-.02.45.15.47.39,0,.05.42,4.5.63,8.39.23,4.2-1.72,5.02-1.8,5.05-.06.02-.1.03-.16.03Zm-47.75,78.37c-4.91,0-6.05-5.84-6.67-9.03-.47-2.38,1.04-7.03,2.13-10.41.43-1.36.82-2.53.86-2.95.15-1.59.68-2.29.73-2.37.15-.18.42-.22.61-.07s.22.41.07.6c-.01.02-.43.6-.56,1.92-.05.51-.4,1.61-.89,3.14-1.01,3.11-2.53,7.83-2.11,9.99.64,3.26,1.74,8.72,6.33,8.32,4.77-.41,6.89-2.03,6.82-10.52-.03-4.26.01-7.44.06-9.77.03-1.99.06-3.57-.02-3.83-.07-.22.05-.47.26-.55s.46.03.54.25c.13.37.13,1.28.08,4.13-.03,2.32-.09,5.5-.06,9.75.08,9.06-2.51,10.94-7.6,11.39-.19.01-.38.02-.56.02h-.01Zm74-4.42c-1.24,0-2.56-.22-3.86-.64-3.39-1.13-7.06-6.09-9.75-9.7l-.88-1.18c-1.41-1.87-2.61-2.98-3.67-3.95-.9-.84-1.76-1.63-2.54-2.71-1.74-2.43-.89-5.8-.85-5.94.06-.23.3-.37.53-.31s.37.3.31.53c0,.03-.79,3.12.72,5.23.73,1.02,1.52,1.74,2.43,2.59,1.09,1.01,2.32,2.14,3.78,4.06l.88,1.19c2.62,3.52,6.2,8.35,9.33,9.41,2.56.86,5.39.79,6.87-.17.64-.41,1-.98,1.06-1.68.26-2.71-3.12-6.72-5.68-8.57-1.32-.95-2.07-2.8-2.82-4.6-.84-2.04-1.64-3.96-3.07-4.45-.23-.08-.34-.32-.26-.55s.33-.34.55-.26c1.81.63,2.71,2.82,3.58,4.94.7,1.68,1.41,3.42,2.53,4.23,2.69,1.96,6.34,6.15,6.03,9.35-.09.95-.6,1.75-1.45,2.31-.93.61-2.27.92-3.75.92v-.03Z"
  />
  <path
    d="m218.52,313.34c-3.06,0-6.53-1.59-7.43-2.03-3.26-1.59-7-8.78-7.05-8.85-.82-1.59-2.65-3.07-3.11-3.42h-1.28c-.1,0-.19-.03-.27-.1-.43-.37-4.3-3.6-5.04-5.08-.79-1.57.74-4.97.93-5.34.1-.22.35-.31.57-.21.22.1.31.35.21.57-.6,1.29-1.38,3.7-.94,4.6.54,1.08,3.47,3.66,4.69,4.7h1.27c.09,0,.18.02.25.08.1.07,2.45,1.8,3.48,3.8,1.01,1.95,4.17,7.26,6.66,8.47,3.3,1.61,7.87,2.85,9.96,1.06,1.87-1.6,1.79-1.92,1.36-3.43-.09-.33-.19-.71-.3-1.17-.05-.23.09-.46.32-.51.24-.06.46.09.51.32.09.43.19.8.29,1.12.49,1.79.54,2.44-1.64,4.31-.93.79-2.15,1.09-3.47,1.09h.02Zm-73.35,4.09c-.76,0-1.58-.07-2.46-.21-4.25-.65-5.33-4.73-5.85-6.68-.68-2.52.05-5.2.08-5.31.06-.23.3-.37.53-.3.23.06.37.3.3.53,0,.02-.69,2.57-.08,4.85.77,2.85,1.91,5.56,5.15,6.05,4.38.68,6.84-.37,7.52-3.18.84-3.48,1.29-5.55.94-7.48-.05-.23.11-.46.34-.5.23-.05.46.11.5.34.39,2.11-.08,4.25-.95,7.84-.64,2.69-2.67,4.04-6.01,4.04h-.01Zm-3.16-24.86c-.15,0-.29-.03-.41-.14-.6-.46-.69-1.76-.7-2.01,0-.24.17-.43.41-.45.29,0,.43.17.45.41.02.49.16,1.11.32,1.33.13-.02.39-.11.6-.18,1.12-.39,3.18-1.1,5.6.07,2.16-1.71,2.61-1.64,2.75-1.61.23.03.4.25.37.48s-.24.4-.48.37c-.22.06-1.4.87-2.31,1.61-.14.1-.32.13-.47.05-2.2-1.18-4.06-.53-5.17-.15-.39.14-.7.24-.95.24h.01Z"
  />
  <path
    d="m149.21,296.48c-.97,0-2.08-.26-3.27-.92l-.64-.35c-.43.15-.96.26-1.58.33-2.99.3-5.25-.22-6.21-1.4-.49-.61-.62-1.36-.38-2.17.13-.41.4-.7.79-.84,1.67-.6,5.47,1.97,5.97,2.32l1.45.81c.76-.33,1.21-.81,1.65-1.28.8-.85,1.64-1.73,4.02-1.32,1.54.27,1.97,1.09,2.08,1.54.19.8-.22,1.71-1.08,2.37-.68.51-1.65.89-2.83.89h.02Zm-2.95-1.73l.09.05c2.27,1.26,4.15.87,5.17.09.57-.45.87-1.02.77-1.48-.11-.45-.61-.77-1.4-.9-1.93-.33-2.48.25-3.25,1.05-.37.39-.78.82-1.37,1.19h-.01Zm-7.72-2.86c-.13,0-.24.01-.33.05-.14.05-.22.13-.25.27-.16.53-.09,1,.22,1.37.76.94,2.8,1.34,5.47,1.09.21-.02.39-.05.57-.08l-.73-.41s-.02-.01-.03-.02c-1.36-.94-3.73-2.28-4.9-2.28h-.01Z"
  />
  <path
    d="m139.9,301.42c-.53,0-1.12-.06-1.79-.18-.23-.05-.39-.26-.34-.5.05-.23.26-.39.5-.34,1.73.32,2.95.18,3.62-.42.72-.65.74-1.8.66-2.82-.11-1.5-.94-3.5-1.28-3.9-.13-.02-.24-.09-.31-.21-.13-.21-.06-.47.15-.58.13-.08.39-.08.53,0,.69.35,1.64,3.07,1.76,4.63.09,1.16.07,2.61-.94,3.52-.61.55-1.45.81-2.56.81h0Zm11.07.68s-.1,0-.15-.02c-.09-.03-2.17-.81-3.3-1.93-1.16-1.16-.69-6-.57-6.95.02-.24.22-.4.47-.38.24.02.4.24.38.47-.25,2.21-.31,5.61.33,6.25.98,1,2.96,1.73,2.99,1.74.22.08.33.33.25.55-.07.17-.23.29-.4.29h0Z"
  />
  <path
    d="m149.09,299.18h-8.48c-.24,0-.42-.19-.42-.43s.19-.43.42-.43h6.91l-4.73-2.8c-.21-.13-.27-.39-.15-.58.13-.21.39-.27.58-.15l6.08,3.59c.17.1.25.3.19.48-.05.18-.22.32-.41.32h0Z"
  />
  <path
    d="m141.33,298.76c-.08,0-.16-.02-.24-.07-.19-.13-.25-.4-.11-.6.1-.15.23-.34,6.65-2.45.22-.07.47.05.54.27.07.23-.05.47-.27.54-2.77.9-5.87,1.98-6.28,2.2-.08.07-.17.1-.27.1Zm63.88-2.85c-.53,0-.66-.17-.74-.39-.13-.34-.35-.98,5.73-3.81.06-.02.11-.03.18-.03.03,0,.61,0,1.3.37,1.5-1.14,3.01-2.03,3.97-1.08.73.72.78,1.72.13,2.45-.76.84-2.32,1.11-3.98-.26-.02-.02-.05-.03-.07-.05-.23.18-.45.37-.65.53-.96.78-1.72,1.4-2.28,1.56-1.97.55-3.01.74-3.59.74v-.02Zm5.25-3.38c-1.97.92-3.75,1.88-4.63,2.46.5-.08,1.35-.26,2.75-.65.39-.1,1.19-.76,1.97-1.4l.38-.31c-.21-.07-.37-.09-.46-.1h0Zm1.97.01c1.19.94,2.23.81,2.71.27.26-.3.38-.78-.09-1.26-.46-.45-1.54.18-2.62.97h0Z"
  />
  <path
    d="m207.29,302.83c-.22,0-.4-.16-.42-.38-.15-1.16,2.37-3.48,3.36-4.34.15-4.12-3.67-6.47-3.72-6.49-.21-.11-.27-.38-.16-.58s.38-.29.58-.17c.05.02,4.45,2.63,4.14,7.46,0,.11-.06.23-.15.3-1.76,1.52-3.26,3.25-3.2,3.7.03.24-.14.45-.37.48h-.06v.02Z"
  />
  <path
    d="m209.45,298.25c-.16,0-.3-.08-.38-.22-.09-.16-.07-.37.07-.5l1.53-1.64-1.96.15c-.17,0-.33-.08-.41-.23s-.07-.33.05-.47l1.51-1.93-2.82-.18c-.24-.01-.41-.22-.4-.46.01-.24.19-.42.46-.4l3.4.22,1.46-1.88c.15-.18.41-.22.61-.07.18.15.22.41.07.61l-1.1,1.41,2.25.15c.16,0,.31.11.37.27s.02.33-.09.46l-1.26,1.34,1.74-.14c.22,0,.39.11.45.31s-.02.4-.21.5c-1.44.79-4.83,2.62-5.26,2.7h-.08,0Zm2.49-2.45l-.57.61c.39-.21.8-.42,1.24-.65l-.66.05h0Zm-1.05-2.31l-1.27,1.63,1.92-.15,1.27-1.36-1.92-.13h0Zm-9.25-2.07c-.11,0-.23-.05-.32-.14-.65-.73-.26-1.35-.02-1.73.24-.38.31-.49.02-.8-.82-.89-.57-1.67-.35-2.37.1-.34.22-.69.24-1.1.05-.88-.76-1.71-1.68-2.65-.27-.29-.57-.58-.85-.89-.66-.74-.65-1.32-.63-1.79.01-.5.03-.94-1.1-1.82-1.71-1.34-1.82-2.94-1.88-3.89-.01-.22-.03-.5-.07-.57-.64-.45-5.82-11.43-6.39-12.74-.21-.48-.32-.87-.42-1.24-.33-1.14-.63-2.13-3.9-5.42-4.35-4.37-13.54-23.23-13.93-24.03-.1-.21-.02-.47.19-.57.21-.1.47-.01.57.19.09.19,9.51,19.53,13.77,23.8,3.43,3.44,3.75,4.53,4.12,5.79.1.35.21.71.39,1.14.93,2.17,5.62,11.84,6.17,12.45.29.21.32.62.35,1.14.06.87.15,2.17,1.56,3.27,1.36,1.06,1.45,1.75,1.43,2.53-.01.4-.02.69.41,1.18.27.31.56.6.82.87,1.02,1.05,1.99,2.05,1.92,3.31-.02.51-.16.95-.27,1.32-.21.66-.32,1,.17,1.52.73.79.32,1.45.07,1.84-.24.39-.26.47-.07.7.16.17.15.45-.03.61-.08.08-.18.11-.29.11v-.03Zm-51.27-9.12c-.15,0-.3-.08-.38-.23-.27-.51-1.57-3.12-.53-4.22.53-.55.48-.72.21-1.64-.08-.25-.16-.55-.25-.9-.3-1.21.27-4.41.93-7.67.09-.48.16-.81.17-.9,0-.24.19-.41.42-.41s.42.21.42.45c0,.1-.03.25-.19,1.05-.33,1.67-1.22,6.1-.94,7.29.08.34.17.62.24.87.29.97.46,1.56-.41,2.47-.46.48.13,2.21.66,3.23.11.21.03.47-.17.58-.07.03-.14.05-.21.05h.02Z"
  />
  <path
    d="m146.81,275.46c-1.73,0-3.4-.55-4.99-1.66-2.55-1.79-4.06-4.51-4.09-4.85-.02-.24.16-.45.39-.46.21-.02.4.13.45.33.13.26,3.81,7.34,10.38,5.48.23-.06.47.07.53.3.07.23-.07.47-.3.53-.8.23-1.6.34-2.38.34h.01Zm-3.73,6.19h-.08c-1.04-.02-2.04-.7-2.9-1.92-.92-1.32-1.64-3.32-1.48-3.8.08-.23.31-.34.54-.27.21.07.32.27.29.48.02.63,1.48,4.59,3.57,4.65,1.98.09,4.34-2.75,5.1-3.82.14-.19.4-.24.6-.1.19.14.24.4.1.6-.13.17-2.96,4.19-5.74,4.19h0Z"
  />
  <path
    d="m142.34,283.72c-.22,0-.4-.16-.42-.38-.03-.24.14-.45.37-.48,1.65-.22,5.26-3.35,6.51-4.54.17-.16.45-.16.61.02.16.17.16.45-.01.61-.19.18-4.74,4.46-6.99,4.76h-.06Zm-.09,23.49c-.64,0-1.16-.02-1.4-.1-.18-.06-.38-.29-.38-.48,0-.31.02-.63,4.47-1.79h-3.08c-.24,0-.42-.19-.42-.43s.19-.43.42-.43h6.6c.22,0,.4.16.42.38s-.11.41-.32.47c-2.11.5-4.35,1.09-5.8,1.52,2.4-.06,6.52-.4,7.13-.77.11-.16.34-.22.53-.13.22.1.31.35.21.57-.11.24-.32.68-4.75,1.02-.93.07-2.47.16-3.63.16h-.01Zm70.76-3.43h-.09c-.23-.05-.38-.3-.33-.53.1-.51,1.24-1.24,2.59-1.91-1.51.26-3.3.79-4.45,1.12-.79.23-1.18.34-1.36.37-.25.02-.45-.15-.47-.38-.02-.24.15-.45.38-.47.13-.01.69-.17,1.22-.33,2.01-.58,5.38-1.57,6.97-1.26.18.03.32.18.34.38.02.18-.08.37-.25.45-1.82.79-3.91,1.89-4.12,2.27-.05.21-.21.33-.4.33l-.02-.03Zm-16.24-25.98c-.18,0-.35-.11-.41-.3-.07-.23.06-.47.27-.54.05-.01,4.37-1.38,5.48-1.87.84-.37,2-2.08,2.38-2.71.13-.21.39-.26.58-.15.21.13.26.39.15.6-.15.25-1.53,2.52-2.77,3.06-1.14.5-5.39,1.84-5.56,1.9-.05.01-.09.02-.13.02h0Z"
  />
  <path
    d="m199.18,274.31c-.63,0-1.24-.1-1.76-.35-.22-.1-.3-.37-.19-.57.1-.22.37-.3.57-.19,1.3.64,3.58,0,4.79-.57.95-.46,1.56-2.19,1.71-2.82.06-.23.29-.38.51-.32s.37.29.31.51c-.02.1-.66,2.67-2.17,3.39-.87.42-2.38.93-3.79.93h.02Zm4.03,7.91c-.13,0-.25,0-.38-.03-.8-.14-1.19-.66-1.22-.72-.14-.19-.09-.46.11-.6.19-.14.46-.08.6.11.02.03.79,1.03,2.67-.35,2-1.48.43-6.12.42-6.17-.08-.23.05-.47.26-.55s.47.05.55.26c.07.22,1.79,5.3-.72,7.14-.81.6-1.58.9-2.27.9h-.02Zm-1.26,4.23c-.22,0-.4-.16-.42-.38-.03-.24.14-.45.37-.48.33-.14,1.66-1.63,1.84-2.16-.39-.16-1.67-.11-1.96.06-.17.17-.42.16-.58-.01-.17-.17-.15-.46.01-.62.41-.41,2.05-.46,2.72-.25.48.15.63.41.68.62.05.22.02.55-.51,1.3-.34.49-1.49,1.85-2.07,1.92h-.07Zm2.08,5.09c-1.5,0-2.9-.23-3.04-1.08-.03-.22,0-.42.14-.61.41-.58,1.58-.81,3.33-1.09.14-.02.29-.05.45-.07-1.72-.21-4.63-.33-5.31-.33-.24,0-.42-.19-.42-.43s.19-.43.42-.43c.07,0,6.61.09,7.16.87.08.11.11.32.07.46-.15.43-.69.54-2.22.78-.84.14-2.57.41-2.76.73.21.31,2.37.42,4.53.17.24-.02.45.14.48.38.02.24-.14.45-.38.48-.7.08-1.58.16-2.43.16h-.02Zm-5.09-8.67s-.1,0-.16-.03c-1.71-.68-3.79-2.95-3.87-3.04-.16-.17-.15-.45.02-.61s.45-.15.61.02c.02.02,2.04,2.23,3.55,2.83.22.09.33.33.24.56-.07.17-.23.27-.4.27h.01Zm-8.14-34.89c-.96,0-2-.23-3.15-.7-3.26-1.35-6.5-4.42-6.63-4.78-.08-.23.05-.47.27-.55.19-.07.4.02.5.18.51.65,6.88,6.59,10.86,4.57,2.29-1.17,2.72-2.06,2.78-2.48s-.22-.66-.22-.68c-.17-.16-.19-.42-.03-.61s.42-.19.6-.05c.23.19.6.71.51,1.41-.13,1.06-1.21,2.13-3.25,3.16-.68.34-1.43.51-2.25.51h0Z"
  />
  <path
    d="m191.02,251.81c-4.99,0-10.29-6.28-10.54-6.59-.15-.18-.13-.46.06-.61s.45-.13.61.06c.07.08,6.98,8.29,11.9,5.81,3.08-1.54,3.78-2.62,3.93-3.12.07-.26,0-.39,0-.4-.15-.18-.11-.45.07-.6s.46-.11.61.07c.03.05.32.41.18,1.04-.25,1.17-1.73,2.43-4.38,3.76-.78.39-1.58.56-2.4.56h-.02Zm-44.21,4.57h-.18c-3.14-.4-4.59-.97-4.71-1.85-.02-.16.02-.32.13-.46.46-.58,2.45-.81,6.55-1.18,1.85-.16,4.15-.37,4.5-.58.19-.11.47-.07.6.13s.08.45-.1.58c-.45.31-1.83.46-4.91.73-2.03.18-5,.45-5.8.78.24.21,1.08.64,3.87.98h.14c.24.05.4.26.37.5-.02.22-.22.38-.42.38h0Zm1.02-5.94c-.19,0-.38-.14-.42-.34-.05-.23.09-.46.33-.51,3.11-.68,7.51-5.69,7.55-5.73.16-.18.42-.19.61-.05.17.16.19.42.05.61-.18.22-4.63,5.26-8.01,6.01h-.09v.02Zm-3.71,1.37c-.1,0-.21-.03-.29-.1-.47-.41-1.54-2.55-3.56-7.13l-.11-.26c-.42-.94-1.72-1.77-2.19-2.01-.21-.1-.3-.37-.18-.58.1-.21.37-.3.57-.18.08.05,1.95,1.02,2.57,2.43l.11.26c2.45,5.53,3.15,6.65,3.34,6.83.18.16.19.42.05.61-.08.09-.21.15-.32.15h0Zm-7.19-24.35c-.17,0-.33-.1-.4-.27-.81-2.2-.73-6.27-.7-8.01v-.58c0-.81-.7-2.63-.97-3.26-.09-.22,0-.47.23-.56.22-.09.47,0,.56.23.1.25,1.04,2.47,1.04,3.6v.61c-.03,1.69-.11,5.65.65,7.69.08.22-.03.47-.25.55-.05.02-.1.02-.15.02h-.01Zm3.18,2.14c-.18,0-.34-.11-.4-.29-.06-.18-1.51-4.45-1.96-6.02-.46-1.61-.85-7.15-.85-7.5,0-.24.19-.42.42-.42.24,0,.42.19.42.42,0,.33.39,5.77.81,7.26.45,1.54,1.93,5.94,1.95,5.99.08.23-.05.47-.26.55-.05.01-.09.02-.14.02h0Z"
  />
  <path
    d="m141.12,230.75c-.19,0-.37-.13-.41-.32-.05-.16-1.01-3.94-1.01-5.12,0-.55-.32-2.82-.61-4.82-.56-3.97-.54-4.01-.43-4.2.11-.21.38-.27.58-.17.17.09.25.29.21.46,0,.33.27,2.24.49,3.78.3,2.13.62,4.33.62,4.93,0,.89.71,3.85.98,4.9.06.23-.08.47-.31.53-.03,0-.07.01-.1.01v.02Zm2.2-.01c-.14,0-.26-.07-.34-.19-.29-.45-1.06-4.03-1.06-5.17,0-.69-.5-3.88-.84-5.99-.27-1.76-.38-2.39-.38-2.55,0-.24.19-.43.42-.43s.42.19.42.42c0,.16.19,1.32.37,2.43.46,2.93.85,5.42.85,6.12,0,1.1.78,4.39.94,4.73.1.21.03.47-.16.58-.07.05-.15.06-.22.06h0Zm2.15-1.14c-.16,0-.32-.09-.39-.25-.51-1.1-.57-3.01-.63-4.68-.02-.77-.05-1.48-.11-1.93-.21-1.37-1.4-4.83-1.41-4.86-.08-.23.05-.47.26-.55.22-.07.47.05.55.26.05.15,1.22,3.56,1.44,5.01.08.5.1,1.21.13,2.04.05,1.52.11,3.41.55,4.35.1.22,0,.47-.21.57-.06.02-.13.03-.18.03h0Zm2.36,0c-.17,0-.34-.11-.4-.29-.03-.09-.8-2.25-1.02-3.34-.11-.56-.07-1.19-.01-1.91.06-.82.13-1.75,0-2.93-.19-2.12-.97-3.12-.98-3.14-.15-.18-.11-.46.07-.61s.45-.11.6.07c.03.05.94,1.2,1.17,3.59.11,1.26.05,2.27,0,3.08-.05.69-.09,1.24,0,1.68.21,1.03.97,3.2.98,3.22.08.23-.03.47-.26.55-.05.02-.09.02-.15.02h.01Zm2.36,0h-.08c-.23-.05-.39-.27-.34-.5.21-1.04-.24-2.75-.63-4.26-.1-.4-.21-.78-.29-1.14-.4-1.71-1.09-5.65-1.09-5.96,0-.24.19-.43.42-.43s.42.18.42.42c.02.27.63,3.96,1.06,5.77.08.35.18.73.29,1.12.41,1.6.88,3.41.65,4.63-.05.21-.22.34-.42.34h0Zm2.36,0h-.06c-.23-.02-.4-.24-.38-.48.05-.4-.77-2.88-1.38-4.03-.46-.85-.3-1.91-.17-2.85.06-.41.11-.81.11-1.14,0-1.1-.49-3.47-.62-3.78-.09-.22,0-.47.23-.56.22-.09.47,0,.56.23.17.41.69,2.92.69,4.11,0,.4-.06.82-.13,1.27-.13.85-.25,1.72.08,2.32.53,1,1.57,3.78,1.48,4.53-.02.22-.21.38-.42.38h.01Zm1.64.87c-.57,0-.64-.38-.73-4.44-.01-.58-.02-1.12-.05-1.56-.07-1.75-.92-7.51-.93-7.56-.03-.24.13-.46.37-.49s.45.13.48.37c.03.24.86,5.87.93,7.66.01.43.03.98.05,1.57.03,1.24.08,3.27.19,3.74.07.08.11.18.11.3,0,.24-.19.42-.42.42h0Zm-18.93-4.51c-.22,0-.4-.16-.42-.38,0-.05-.49-4.36-.9-6.1-.43-1.8-.8-5.58-.81-5.74-.02-.24.15-.45.39-.47.23-.03.45.15.47.39,0,.03.38,3.89.8,5.63.43,1.8.9,6.03.93,6.21.02.24-.14.45-.38.47h-.07Zm21,3.64c-.19,0-.38-.14-.42-.33-.02-.11-.65-2.92-.65-4.67s-.78-7.98-.78-8.03c-.03-.24.14-.45.38-.48.24-.03.45.14.48.38.03.26.79,6.42.79,8.14s.63,4.45.63,4.47c.05.23-.09.46-.32.51h-.1Zm1.56.58c-.23,0-.41-.17-.42-.4-.03-.5-.18-1.03-.33-1.58-.07-.25-.15-.51-.21-.79-.13-.53,0-1.42.21-2.84.14-.94.3-2,.32-2.86.06-1.83-1.06-5.4-1.08-5.44-.07-.23.06-.47.27-.54.22-.08.47.06.54.27.05.15,1.18,3.74,1.12,5.72-.02.9-.19,1.99-.33,2.96-.16,1.04-.32,2.13-.23,2.51.06.26.14.5.21.76.17.6.32,1.16.37,1.75.01.24-.16.45-.4.46h-.03Zm1.87.57c-.16,0-.32-.09-.39-.25-.26-.61-.23-2.94-.07-7.04l.03-1c.05-1.51-.69-3.97-1.09-5.29-.17-.55-.25-.82-.26-.97-.03-.24.13-.46.37-.48.22-.05.45.13.48.37.01.11.11.42.24.85.41,1.36,1.18,3.9,1.12,5.56l-.03,1c-.07,1.83-.23,6.11,0,6.66.09.22,0,.47-.22.56-.06.02-.11.03-.17.03h-.01Zm2.14.71c-.18,0-.35-.13-.41-.31-.32-1.11-.72-7.7-.54-9.75.1-1.09.03-2.53-.01-3.67-.07-1.49-.07-1.9.06-2.14.11-.21.37-.29.58-.18.19.1.29.34.19.55-.05.19,0,1.01.02,1.73.05,1.18.11,2.64,0,3.8-.19,2.07.24,8.5.5,9.44.07.23-.07.47-.3.53-.03.01-.08.01-.11.01h.01Zm1.79.54c-.24,0-.42-.19-.42-.43,0-.07.02-.14.05-.21.01-.33-.13-1.49-.22-2.28-.1-.85-.19-1.64-.22-2.06-.03-1.01-.33-4.54-.54-5.58-.23-1.13-.08-5.18,0-5.73.03-.24.25-.41.48-.37.23.03.4.25.37.48-.07.45-.21,4.41,0,5.44.22,1.08.53,4.69.55,5.72,0,.38.11,1.19.21,1.98.3,2.43.29,2.63.09,2.86-.08.09-.22.15-.33.15v.03Zm2.29-.54c-.14,0-.29-.07-.37-.21-.13-.21-.06-.47.14-.6.14-.08.17-.1-.02-.79-.06-.18-.11-.39-.17-.62-.22-.94-.46-2.74-.57-3.59-.13-.93-.57-9.49-.58-9.85-.01-.23.17-.43.4-.45,0,0,0,0,0,0h.02c.23,0,.41.18.42.41.16,3.07.48,9.05.57,9.7.13.94.35,2.7.56,3.6.05.21.1.4.15.57.18.62.39,1.32-.34,1.76-.07.05-.15.07-.23.07l.02-.02Zm2.36-.71c-.17,0-.33-.1-.4-.26-.4-.95-.74-3.93-.73-5.54,0-.93-.29-3.98-.51-6.43-.32-3.33-.31-3.35-.26-3.5.07-.23.31-.34.54-.27.19.07.32.26.29.47,0,.25.14,1.76.29,3.23.24,2.47.54,5.55.53,6.52-.01,1.61.34,4.43.66,5.2.09.22-.01.47-.23.56-.06.02-.11.03-.16.03h0Zm.57-7.66h-.02c-.24-.01-.42-.22-.4-.45.14-2.64-.56-7.38-.57-7.43-.03-.23.13-.46.35-.49.25-.03.45.13.49.37.03.19.72,4.88.57,7.6,0,.23-.21.41-.42.41h0Zm1.35,4.93c-.16,0-.31-.09-.39-.25-.64-1.35-.24-12.89-.16-13.49.03-.23.25-.39.48-.37.23.03.4.25.37.49-.15,1.01-.4,11.97.08,13,.1.22,0,.47-.21.57-.06.02-.13.05-.18.05h.01Zm1.85,0c-.22,0-.4-.16-.42-.38-.3-2.3.33-9.65.56-12.42.05-.5.07-.82.07-.89,0-.23.19-.42.42-.42s.42.19.42.42c0,.05-.03.4-.08.96-.22,2.47-.86,10.01-.57,12.23.03.24-.14.45-.37.48h-.06.02Zm1.43-.57s-.11,0-.17-.03c-.22-.09-.32-.34-.23-.56.53-1.26.69-5.04.61-6.61-.06-1.29.57-4.06.88-5.39.07-.29.11-.48.13-.55,0-.24.19-.4.42-.4s.42.22.42.46c0,.08,0,.13-.14.69-.27,1.19-.92,3.99-.86,5.16.07,1.43-.03,5.47-.68,6.99-.07.16-.23.26-.4.26h.01Zm2.43,0c-.08,0-.15-.02-.22-.06-.21-.13-.26-.39-.15-.6.25-.41.26-3.1.26-4.7,0-.78,0-1.5.02-2.04.07-1.97,1.26-5.69,1.3-5.85.07-.23.31-.35.54-.27.23.07.34.31.27.54-.01.03-1.2,3.76-1.27,5.62-.02.53-.02,1.25-.02,2.01-.01,2.74-.05,4.57-.39,5.14-.08.14-.22.21-.37.21h.01Zm2.01-.22c-.23,0-.42-.18-.42-.41-.14-4.12,1.64-12.05,1.8-12.59.07-.23.31-.35.53-.3.23.07.35.3.3.53-.15.53-1.89,8.31-1.76,12.32,0,.24-.17.43-.41.45h-.02Z"
  />
  <path
    d="m179.31,226.74c-.16,0-.31-.09-.39-.24-.34-.68.34-2.52.35-2.54.05-.1.29-1.11-.02-2.04-.38-1.14,1.83-6.23,2.52-7.76.1-.22.35-.31.56-.22.22.09.31.35.22.57-1.34,2.98-2.67,6.56-2.48,7.13.4,1.19.09,2.46-.02,2.69-.11.26-.45,1.5-.35,1.77.1.21.02.47-.18.57-.06.03-.13.05-.19.05h0Zm2.14,0c-.13,0-.26-.06-.34-.17-.84-1.11-.05-1.98.66-2.75l.08-.09c.21-.23.17-.48.09-.97-.09-.53-.22-1.18.13-1.95.53-1.22,1.36-6.18,1.4-6.48.02-.23.21-.4.45-.4s.41.19.41.42c0,.19-.86,5.39-1.46,6.8-.23.54-.15.98-.07,1.45.09.54.21,1.14-.3,1.71l-.08.09c-.74.82-.97,1.16-.61,1.66.14.19.1.46-.09.61-.08.06-.17.09-.25.09v-.02Z"
  />
  <path
    d="m183.12,226.31c-.14,0-.26-.06-.35-.18-.53-.74-.08-1.93.31-2.99.17-.48.35-.96.35-1.2,0-.88,1.42-7.59,1.58-8.35.05-.23.27-.39.5-.33.23.05.38.27.33.51-.63,2.96-1.56,7.58-1.56,8.17,0,.39-.19.9-.41,1.51-.26.72-.68,1.81-.41,2.19.14.19.09.46-.1.6-.07.05-.16.08-.25.08h.01Zm2.44-1.48c-.13,0-.24-.05-.32-.15-.08-.09-.76-.97-.19-2.72.5-1.59,1.52-8.16,1.42-8.78-.03-.23.11-.46.34-.5.24-.05.45.1.49.33.17.84-.94,7.64-1.44,9.21-.41,1.29.02,1.89.05,1.91.14.18.11.46-.07.6-.08.07-.17.09-.27.09h0Zm1.67,0c-.21,0-.38-.14-.42-.34-.19-.98.07-5.32.35-6.84.1-.54.19-1.36.29-2.16.3-2.57.4-3.14.82-3.3.22-.08.47.03.55.25.06.17,0,.35-.11.47-.14.33-.3,1.73-.41,2.67-.09.81-.19,1.66-.3,2.23-.29,1.51-.51,5.71-.35,6.51.05.23-.1.46-.33.5h-.08Z"
  />
  <path
    d="m189.37,223.38c-.15,0-.3-.08-.38-.23-1.34-2.53-.1-10.3-.05-10.63.03-.23.24-.4.49-.35.23.03.39.26.35.49-.35,2.16-1.04,8.21-.05,10.09.11.21.03.47-.17.58-.07.03-.14.05-.21.05Z"
  />
  <path
    d="m191.34,222.59c-.17,0-.33-.1-.4-.27-.02-.06-.49-1.29-.54-2.52-.05-1.21-.61-5.25-.74-5.64-.08-.22.02-.47.24-.56.22-.08.46.01.55.23.22.54.77,4.86.81,5.93.05,1.08.48,2.23.48,2.24.08.22-.02.47-.24.56-.05.02-.1.02-.15.02h-.01Zm-54.36-36.52c-.19,0-.38-.14-.42-.34-.33-1.56.69-4.28,1.44-6.26.27-.73.51-1.37.61-1.73.06-.23.13-.56.22-.97.48-2.15,1.38-6.16,2.13-7.63.68-1.35,1.33-7.58,1.52-9.86.02-.24.24-.41.47-.39.24.02.41.23.39.47-.03.34-.73,8.41-1.61,10.17-.69,1.38-1.61,5.47-2.06,7.44-.09.42-.17.76-.23.98-.1.41-.33,1.04-.63,1.83-.66,1.77-1.68,4.46-1.41,5.78.05.23-.09.46-.33.51h-.09.01Zm2.04-.35h-.06c-.24-.03-.4-.24-.37-.48.27-2.15,1.92-7.03,2.55-8.69.37-.97.63-2.05.9-3.18.25-1.03.5-2.09.87-3.24.77-2.37,1.54-10.41,1.57-10.93,0-.23.19-.41.42-.41h.01c.24,0,.42.21.41.45-.01.54-.8,8.67-1.6,11.17-.35,1.11-.61,2.16-.86,3.17-.27,1.17-.55,2.27-.94,3.3-.74,1.95-2.27,6.57-2.51,8.49-.02.22-.22.38-.42.38v-.02Zm11.24-6.01c-.22,0-.4-.16-.42-.38-.16-1.22.92-4.86,1.34-5.63.26-.47.27-2.11.27-3.3,0-.53,0-1.01.02-1.4.05-.78.39-3.54.7-5.97.22-1.74.45-3.54.45-3.74,0-.24.19-.42.42-.42.24-.02.42.19.42.42s-.16,1.56-.46,3.86c-.29,2.3-.65,5.16-.69,5.9-.02.37-.02.85-.02,1.35-.01,1.77-.05,3.08-.38,3.7-.4.73-1.36,4.14-1.24,5.1.03.24-.14.45-.37.48h-.06v.02Zm1.85,6.71c-.21,0-.4-.16-.42-.37-.22-1.57.29-4.78.64-7.13.13-.86.24-1.56.29-1.98.05-.43.11-1.12.21-1.92.22-1.92.53-4.57.57-6.08.06-1.64.51-3.49.85-4.84.11-.48.23-.9.3-1.25.26-1.27,0-3.49,0-3.51-.03-.24.14-.45.38-.48.24-.03.45.14.48.38.01.09.29,2.38,0,3.79-.07.35-.18.79-.31,1.28-.34,1.38-.78,3.11-.82,4.66s-.35,4.2-.57,6.15c-.09.79-.17,1.46-.21,1.9-.05.42-.15,1.14-.29,2.03-.33,2.16-.84,5.44-.64,6.88.03.24-.13.45-.37.48h-.06l-.02.02Zm5.7.81c-.23,0-.42-.18-.42-.42,0-.1-.05-2.57.24-3.9.29-1.3,1.06-7.58,1.06-8.93,0-1.66.08-5.65.85-6.95.47-.79.22-4.47-.06-6.6-.03-.24.14-.45.37-.48.24-.02.45.14.48.38.13.97.7,5.87-.06,7.14-.54.92-.72,3.96-.72,6.51,0,1.51-.8,7.86-1.08,9.11-.27,1.22-.23,3.67-.22,3.7,0,.24-.18.43-.42.43h-.02Zm2.72-.81c-.14,0-.26-.07-.34-.18-.63-.93-.34-6.08.31-8.06.64-1.96.97-7.59.9-9.76-.07-2.31,1.35-9.46,1.41-9.77.05-.23.27-.38.5-.33.23.05.38.27.33.5-.01.07-1.46,7.36-1.4,9.58.07,2.29-.27,7.98-.95,10.06-.65,2.01-.77,6.76-.41,7.31.13.19.08.47-.11.6-.07.05-.16.07-.24.07h0Zm13.23.81c-.23,0-.41-.18-.42-.41,0-.09-.09-2.15.27-4.04.17-.89-.02-2.29-.23-3.78-.21-1.43-.41-2.91-.32-4.19.08-1.32.03-5.44,0-9.06-.06-5.21-.07-6.66.02-6.92.08-.23.32-.34.55-.26.22.08.33.3.27.51-.06.39-.02,3.72,0,6.66.05,3.65.09,7.78,0,9.13-.08,1.19.13,2.63.32,4.02.22,1.56.42,3.02.22,4.05-.34,1.79-.25,3.81-.25,3.83,0,.24-.17.43-.41.45h-.02Zm2.91,0h-.05c-.24-.02-.4-.24-.38-.47.13-1.22.08-7.88-.57-11.84-.63-3.85-.55-15.76-.42-16.28.06-.23.29-.37.51-.32.22.06.35.27.32.49-.08.71-.19,12.16.43,15.96.64,3.89.73,10.56.57,12.07-.02.22-.21.39-.42.39h0Zm5.14-.38l-.85-.11s.64-4.58.79-5.58c.07-.51-.16-2.96-.34-4.92-.16-1.69-.31-3.3-.31-3.97,0-1.46-1.69-14.34-1.71-14.46-.03-.24.14-.45.37-.48.24-.03.45.14.48.37.07.54,1.72,13.05,1.72,14.58,0,.64.15,2.22.31,3.89.25,2.72.41,4.55.33,5.13-.14,1.01-.79,5.58-.79,5.58h0Zm1.85-.87h-.07c-.23-.05-.39-.26-.34-.49,1.05-6.04-1.89-27.48-1.92-27.69-.03-.24.13-.45.37-.48.25-.02.45.14.48.37.13.88,2.99,21.78,1.91,27.96-.03.21-.22.35-.42.35h0Zm5.66-1.71c-.22,0-.4-.16-.42-.38,0-.03-.46-3.59-.6-5.16-.15-1.64.29-7.05.88-8.77.45-1.29.35-9.78.27-12.95,0-.24.18-.43.42-.43.22,0,.43.18.43.42.02,1.18.26,11.58-.32,13.25-.55,1.57-.97,6.91-.84,8.41.14,1.54.6,5.09.6,5.13.03.24-.14.45-.37.48h-.07Zm2.01-13.41h-.05c-.24-.02-.4-.24-.38-.47.38-3.63.53-12.13.53-12.66,0-.24.19-.43.42-.43s.42.19.42.43c0,.08-.13,8.86-.54,12.75-.02.22-.21.39-.42.39h.01Zm-54.39-57.18c-.29,0-.63-.08-1.02-.3-.7-.38-1.09-.86-1.17-1.43-.09-.65.29-1.2.49-1.45,0-.11.03-.23.11-.32.32-.34.71-.51,1.13-.49.89.05,1.61.9,1.82,1.17.35.46.29,1.65-.27,2.31-.16.18-.51.5-1.09.5h-.01Zm-.97-2.7c-.13.11-.42.5-.37.87.03.29.29.55.72.79.69.38.94.1,1.03.01.34-.37.38-1.1.27-1.26-.29-.38-.78-.81-1.18-.82-.09,0-.21,0-.35.11,0,.11-.05.23-.13.31h0Z"
  />
  <path
    d="m137.12,115.02h-.15c-1.79-.06-2.86-1.35-3.03-3.64,0-.05,0-.09.01-.14.03-.14.84-3.19,3.12-3.19h.18c2.12.15,3.38,1.71,3.23,3.97-.13,1.87-1.41,3-3.36,3Zm-2.32-3.64c.23,2.71,1.71,2.76,2.2,2.77.74.02,2.49-.15,2.63-2.2.05-.68,0-2.88-2.44-3.06-1.58-.07-2.28,2.07-2.39,2.47h0Zm8.55.18h-1.08c-.24,0-.42-.19-.42-.43v-1.09l-.62-.3c-.21-.1-.3-.34-.21-.55l.35-.88c.07-.16.22-.26.4-.26h.53l.34-.66c.07-.15.22-.23.38-.23h.9c.24,0,.42.19.42.43v.86l.68.16c.19.05.33.22.33.42v1.21c0,.13-.06.25-.16.33s-.24.11-.35.09l-.88-.18-.19.78c-.05.19-.22.32-.41.32v-.02Zm-.65-.86h.32l.22-.85c.06-.22.26-.37.5-.31l.77.16v-.35l-.68-.16c-.19-.05-.33-.22-.33-.42v-.77h-.22l-.34.66c-.07.15-.22.23-.38.23h-.49l-.09.24.49.24c.15.07.24.22.24.39v.93h-.01Z"
  />
  <path
    d="m144.64,112.99c-.22,0-.4-.16-.42-.37-.03-.24.13-.45.37-.48.32-.09,1.52-1.41,1.4-3.04-.1-1.4-1.6-2.36-1.99-2.47-.15.02-.32-.03-.41-.17-.14-.19-.09-.46.1-.6.24-.17.57-.07.81.06.76.35,2.21,1.46,2.35,3.12.15,1.99-1.32,3.86-2.13,3.97h-.06v-.02Zm-.35-10.76h-.15c-.56-.08-1.48-1.25-1.4-1.95.07-.65.71-1.54,1.5-1.48.92.08,1.38.5,1.63.84.3.42.4.97.26,1.46-.21.81-1.28,1.13-1.84,1.13h0Zm-.14-2.59c-.21,0-.51.4-.55.72-.01.23.49.92.71,1.02.17.05.9-.18,1-.5.05-.19.05-.5-.14-.76-.18-.26-.53-.43-1-.47h-.02Zm-4.18-2.14c-.48,0-.98-.33-1.3-.66-.48-.49-.71-1.1-.61-1.65.19-1.09,1.28-2.13,2.07-1.98,1.19.22,2.09,1.24,2.06,2.33-.03,1.14-1.36,1.83-2.06,1.93-.05,0-.1.01-.16.01h0Zm0-3.44c-.22,0-.93.55-1.06,1.29-.05.27.09.61.38.89s.62.42.72.4c.45-.07,1.33-.53,1.34-1.11.02-.68-.6-1.33-1.36-1.46h-.01Z"
  />
  <path
    d="m136.65,95.36s-.1,0-.16-.03c-.22-.09-.32-.34-.24-.56.07-.17.46-1.05,1.14-1.12.27-.02.69.07,1.08.65.13.19.08.47-.13.6-.19.13-.46.08-.6-.13-.15-.23-.25-.27-.27-.27-.1,0-.33.31-.43.58-.07.17-.23.27-.4.27h.01Zm1.01,2.2c-.72,0-1.28-.65-1.34-.73-.15-.18-.13-.45.06-.61.18-.15.45-.13.61.06.13.15.46.43.71.41.14-.01.27-.14.41-.35.11-.21.38-.27.58-.15.21.11.27.38.15.58-.35.61-.78.76-1.08.78h-.1Zm2.13-4.02c-.06,0-.13-.01-.18-.03-.31-.15-1.34-.68-1.26-1.4.07-.62.8-.86,1.34-.98.94-.22,1.64-.11,2.08.31s.47,1.08.41,1.38c-.03.16-.15.3-.31.34-.45.11-1.53.4-1.82.4-.05,0-.09,0-.13-.02-.05.01-.09.02-.13.02v-.02Zm.78-1.67c-.19,0-.42.03-.69.09-.6.14-.7.27-.7.27.05.05.4.3.73.47.05-.01.08-.02.13-.02.13,0,.72-.14,1.29-.29-.01-.11-.06-.25-.16-.35-.13-.11-.33-.17-.61-.17Zm.6,8.18c-.21,0-.4-.03-.55-.06-.05,0-.09-.01-.11-.01-.11,0-.24-.02-.32-.09-.3-.22-.55-1.02-.48-1.53.09-.78,1.2-.93,1.43-.95h.14c.77.17,1.09.8.95,1.85-.03.24-.14.43-.32.57-.21.16-.47.21-.72.21h-.01Zm-.48-.92h.07c.35.06.56.06.63,0,.08-.71-.09-.84-.24-.88-.26.03-.55.14-.6.22-.01.18.07.48.14.65h0Zm4.25,4.09c-.31,0-.58-.07-.82-.19-.47-.26-.6-.69-.61-.73-.06-.23.08-.47.31-.53s.46.08.53.31c.01.05.19.5,1.25.17.47-.15.78-.39.93-.74.18-.45.11-1.08-.19-1.69-.42-.84-1.79-.66-1.8-.66-.24.03-.45-.14-.48-.37-.03-.23.13-.45.37-.48.08,0,1.98-.26,2.68,1.12.43.85.51,1.73.22,2.41-.17.41-.56.95-1.45,1.22-.33.1-.63.15-.9.15h-.01Zm-5.71,1.43c-.17,0-.34-.02-.5-.05-.5-.08-.86-.58-.82-1.18.03-.62.48-1.04,1.1-1.08.32-.02.64.11.86.35.33.35.4.85.37,1.16s-.19.49-.32.58c-.19.15-.43.19-.69.19h.01Zm-.19-1.43c-.07,0-.26,0-.27.26,0,.16.07.27.1.27.42.07.54.02.54.01,0-.14-.06-.35-.16-.47-.06-.06-.13-.08-.19-.08h-.01Zm-4.29,3.15s-.09,0-.15-.02c-.38-.11-.46-.51-.31-1.46.03-.18.16-.31.33-.35l-.13-.62c-.02-.09,0-.18.03-.27l.45-.9-.21-1.11c-.02-.1,0-.22.06-.31l.43-.68v-1.01c0-.16.09-.32.24-.39s.32-.05.46.06l.45.37c.18.15.22.42.06.61-.09.11-.23.16-.35.16v.33c0,.08-.02.16-.07.23l-.41.64.21,1.09c.02.09,0,.18-.03.26l-.45.9.24,1.27c.01.09,0,.18-.03.26-.21.42-.45.95-.84.95h.02Zm35.33,9.65c-1.76,0-6-2.94-9.06-6.29-3.4-3.71-2.4-11.35-1.45-13.32.31-.63.73-1.63,1.18-2.68,1.53-3.62,1.96-4.43,2.38-4.6.11-.05.29-.05.39,0,.22.09.57.25.26,2.17.1-.09.25-.13.39-.09.16.05.27.17.31.33l.13.62.77-1.08c.09-.13.24-.19.4-.17s.29.13.34.27l.39,1.01.9-.18.62-.9c.09-.14.26-.21.42-.18.17.03.3.15.34.32l.25,1.01h1.89c-.14-1.79.81-5.69,1.03-6.55.06-.23.27-.37.51-.31.23.06.37.29.32.51-.19.87-.11,2.45.02,3.87.39-1.16.94-2.41,1.49-3.64.21-.46.4-.92.58-1.34.98-2.32,1.51-7.18,1.58-7.86l-.42-1.45-2.04-.92c-.11-.06-.21-.15-.24-.27l-.35-1.29-1.9-.92c-.22-.1-.3-.35-.19-.57s.35-.3.57-.19l2.07,1.01c.11.06.19.15.23.27l.35,1.28,2.03.92c.11.05.19.15.24.27l.5,1.72s.02.1.01.16c-.02.23-.54,5.58-1.65,8.19-.18.43-.39.89-.58,1.35-.97,2.22-2.08,4.73-1.9,6.16.03.23-.14.45-.37.48-.22.03-.45-.13-.48-.35-.01-.1-.22-1.36-.37-2.85-.19,1.22-.27,2.25-.13,2.61.06.14.05.29-.03.4s-.22.19-.35.19h-2.74c-.19,0-.37-.14-.41-.32l-.1-.41-.17.26c-.06.09-.16.16-.27.18l-1.43.29c-.21.05-.4-.07-.48-.26l-.24-.61-.87,1.22c-.1.14-.27.21-.43.17-.17-.03-.3-.16-.33-.33l-.15-.72-.48.57c-.13.15-.34.19-.53.1-.17-.09-.26-.29-.22-.48.16-.64.3-1.37.38-1.96-.43.89-1.01,2.23-1.43,3.25-.45,1.06-.88,2.06-1.19,2.72-.87,1.77-1.77,8.99,1.32,12.36,3.36,3.67,7.24,6.02,8.43,6.02,1.3,0,8.63-2.85,10.04-5.86,1.45-3.11,2.28-10.43,1.95-12.08-.34-.42-1.85-2.38-2.72-4.92-.97-2.82-.7-8.97-.69-9.22.01-.24.23-.43.45-.41.24,0,.42.21.41.45,0,.06-.27,6.25.64,8.9.92,2.65,2.62,4.71,2.63,4.74.05.05.07.1.09.17.46,1.77-.49,9.57-1.98,12.75-1.6,3.42-9.33,6.35-10.81,6.35l-.03-.03Z"
  />
  <path
    d="m161.3,116.85c-.13,0-.24-.05-.32-.15-4.82-5.61-4.61-8.11-4.46-8.7-.96-13.48,1.34-23.44,6.84-29.62,3.95-4.43,8.3-5.37,9.54-5.55.22-.08.46.05.53.27.08.23-.06.47-.29.55-.02,0-.1.02-.13.02-1.83.26-17.88,3.5-15.64,34.33,0,.07,0,.13-.02.18,0,0-.62,2.22,4.28,7.93.15.18.14.45-.05.61-.08.07-.18.1-.27.1h-.01Zm17.15-.45c-.15,0-.3-.08-.38-.22-.11-.21-.05-.47.16-.58,9.49-5.33,9.2-19.5,7.28-30.45-2.25-12.87-10.96-12.14-11.33-12.11-.25.02-.45-.15-.47-.38-.02-.24.15-.45.38-.47.1,0,2.52-.25,5.26,1.24,2.51,1.35,5.76,4.45,7,11.58,1.97,11.23,2.22,25.77-7.7,31.36-.07.03-.14.06-.21.06v-.02Z"
  />
  <path
    d="m182.16,92.45c-.22,0-.4-.17-.42-.39-.68-7.27-3.67-12.39-4.94-14.58-.61-1.03-.74-1.27-.57-1.58.08-.14.26-.24.41-.24.24,0,.42.19.42.43v.09c.09.18.29.51.48.85,1.3,2.23,4.36,7.47,5.06,14.93.02.24-.15.45-.39.47h-.05Zm-27.2,1.61h-.03c-.24-.02-.41-.23-.39-.47.51-5.73,2.29-9.11,6.25-16.18,4.17-7.44,10.68-5.66,10.75-5.64.23.07.35.3.3.53-.07.23-.3.37-.53.3-.24-.07-5.94-1.59-9.76,5.24-3.9,6.97-5.64,10.28-6.13,15.84-.02.23-.21.39-.42.39h-.02Zm.26,16.49c-.17,0-.32-.1-.39-.26-1.33-3.14-.74-12.83-.71-13.24.01-.24.22-.45.46-.4.24.01.41.22.4.46,0,.1-.61,9.9.64,12.85.09.22,0,.47-.23.56-.06.02-.11.03-.17.03Z"
  />
  <path
    d="m160.13,108.41c-.14,0-.27-.07-.37-.19-.06-.09-1.37-2.24-1.5-8.17-.11-5.14.94-8.33,2.69-13.62.27-.85.58-1.75.89-2.74,2.33-7.24,10.4-9.74,10.75-9.84.23-.07.47.06.54.29s-.06.47-.29.54c-.08.02-7.98,2.47-10.17,9.28-.32.98-.62,1.89-.89,2.74-1.77,5.38-2.76,8.34-2.64,13.33.11,5.63,1.36,7.71,1.37,7.72.13.21.06.47-.14.6-.07.05-.15.07-.23.07h-.01Zm20.39,4.02c-.1,0-.22-.03-.3-.11-.17-.16-.18-.43-.01-.61,1.01-1.06,2.17-6.05,3.02-9.7.27-1.17.51-2.23.73-3.07.92-3.51-.38-13.23-2.55-19.27-1.25-3.47-3.52-5.38-6.59-5.53-.14,0-.21,0-.29-.03-.23-.08-.34-.32-.27-.55.07-.21.27-.32.49-.29h.1c3.39.17,6,2.33,7.36,6.1,2.22,6.16,3.52,16.15,2.59,19.77-.22.82-.46,1.89-.73,3.04-1.17,5.02-2.14,8.95-3.23,10.09-.08.09-.19.14-.31.14h-.01Z"
  />
  <path
    d="m179.52,116.02c-.19,0-.37-.13-.41-.32-.06-.23.07-.47.3-.53.02,0,2.48-.7,4.86-3.51,2.21-2.61,4.82-7.63,4.67-16.72-.15-9.11-2.88-14.29-5.16-17.04-2.45-2.96-4.9-3.8-4.92-3.81-.23-.07-.34-.32-.27-.54.07-.23.31-.35.54-.27.42.14,10.38,3.59,10.67,21.64.3,18.08-9.74,20.96-10.17,21.08-.03,0-.08.01-.11.01h.02Zm-10.04-23.38c-.19,0-.37-.13-.41-.32-.43-1.63.29-6.23,1.63-8.7,1.2-2.23,2.07-8.64,2.08-8.7.03-.23.25-.4.48-.37.24.03.4.25.37.48-.03.27-.9,6.64-2.17,8.99-1.19,2.21-1.92,6.63-1.54,8.07.06.23-.08.47-.31.53-.03,0-.07.01-.11.01Zm-3.28,34.38h-.05c-.24-.02-.41-.23-.39-.47l.23-2.36-3.06.61c-.17.03-.37-.05-.46-.21l-.84-1.45-.82.82c-.17.17-.43.16-.61,0-.17-.17-.16-.45,0-.61l1.22-1.21c.09-.09.22-.14.35-.13.13.02.25.09.31.21l.96,1.67,3.32-.65c.13-.02.27.01.37.1s.15.23.14.35l-.29,2.93c-.02.22-.21.39-.42.39h.02Zm4.81,0h-.02c-.24,0-.42-.21-.41-.45.03-.69-.46-1.97-.65-2.4-.09-.22,0-.47.22-.56s.47,0,.56.22c.08.18.77,1.79.72,2.79,0,.23-.21.41-.42.41h.01Z"
  />
</svg>
