<svg
  xmlns="http://www.w3.org/2000/svg"
  viewBox="0 0 320 320"
  fill="none"
  stroke="#000"
  opacity=".6"
  stroke-linecap="round"
  stroke-linejoin="round"
  stroke-width=".75"
>
  <path d="M137.8 66.11a37.708 37.708 0 0 1-13.73 16.24" />
  <path
    d="M132.94 67.87a56.586 56.586 0 0 0-10.06 18.8m.44-8.97c-1.51 2.46-1.91 5.57-1.06 8.33m-1.64-6.21c-1.34 2.35-1.3 5.43.1 7.75"
  />
  <path d="M118.74 70.96c-1.9 2.32-2.89 5.35-2.73 8.34s1.47 5.9 3.6 8.01" />
  <path d="M127.41 64.36c-2.74.25-5.36 1.63-7.13 3.74s-2.64 4.94-2.4 7.68" />
  <path d="M133.52 62.92c-4.38-.22-8.76 2.41-10.63 6.37" />
  <path
    d="M135.38 63.72c-1.11-.33-2.32-.27-3.39.18s-1.97 1.26-2.52 2.27m6.7-2.77c1.25.35 2.14 1.53 2.45 2.78s.14 2.58-.23 3.8c-.97 3.76-2.58 7.35-4.72 10.58"
  />
  <path
    d="M136.24 70.17c-.37 3.56-1.52 7.04-3.34 10.13m5.98-10.2c.37 3.4-.04 6.89-1.2 10.11m1.47-11.57c1.52 4.19 2.64 8.52 3.35 12.92m-2.85-15.26c1.9 2.67 2.25 6.09 3.03 9.27.9 3.66 2.45 7.16 4.56 10.29"
  />
  <path
    d="M138.29 63.66c1.65 1.31 2.87 3.09 3.79 4.99s1.53 3.92 2.15 5.94c1.06 3.45 2.12 6.92 2.64 10.5"
  />
  <path
    d="M139.51 64.68c3.46 2.31 6.11 5.81 7.4 9.77s1.21 8.35-.22 12.26m-28.48-.94c.22 1.37.45 2.76.97 4.05.2.5.47 1.01.94 1.27s1.19.11 1.36-.39m-4.79-7.21c-.4 3.25 2.46 6.17 2.31 9.44m1.07-.37-.24 2.59m1.1-1.02-.55.79m18.29-13.6c1.35-.8 3.01-1.07 4.54-.68h.08m-15.71.42c1.56-.71 3.45-.62 4.94.23m-.1-3.98c-.53-.06-1.07-.03-1.59.06.12-.14.24-.28.36-.43-.21.13-.45.22-.7.25 0 .04-.02.08-.03.12-.3-.06-.63.02-.88.2m9.87-.3-.07.47h.1c.82-.44 1.77-.62 2.69-.51-.25.02-.49.14-.66.33.4-.17.79-.33 1.19-.5m-7.66 9.65c.2.06.4.14.58.25m2.6-.44-.39.32s.02-.03.39-.32Z"
  />
  <path d="m136.31 80.69.19 2.22" opacity=".95" />
  <path
    d="M146.38 87.27c.1 1.03-.15 2.08-.7 2.95m.22-5.54c.03 1.67.05 3.34-.17 5s-.72 3.3-1.65 4.68c-1.24 1.85-3.16 3.1-5.03 4.31m-15.31-9.91c1.17 4.06 3.75 7.7 7.19 10.16m8.11.24-3.93 9.09m5.67-17.5c-2.74 1.69-6.42 1.73-9.02-.12 3.05.66 6.24.63 9.02.12Zm-2.72 11.54a19.31 19.31 0 0 1-2.17 7.39m1.09 1.11c.56-.16 1.1-.41 1.58-.74m.07-8.61c.7.34 1.23.99 1.52 1.71s.34 1.53.25 2.3c-.17 1.45-.84 2.79-1.58 3.55-.02-.31-.53-.32-.68-.05s-.06.6.04.89"
  />
  <path
    d="M138.58 108.93a65.694 65.694 0 0 1 1.73 15.99m-6.47-16.23.28-.95c.23.07.39.33-.28.95Z"
  />
  <path
    d="M134.05 108.08c1.69 1.83 2.04 4.49 2.31 6.97l2.01 18.28m-2.48-23.48c1.51 5.31 3.01 10.63 4.6 15.63 2.5 9.62 5.77 19.03 9.79 28.12m-39.57-56.97c-.84.95-1.73 1.84-2.68 2.67m3.75-1.37a44.22 44.22 0 0 0-11.9 6.19"
  />
  <path
    d="M102.57 102.13c-1.38-.34-2.82.64-3.45 1.91s-.62 2.76-.51 4.18.3 2.86 0 4.25m4.21-11.07c.81-1.32 1.29-2.85 1.71-4.45.17-2.26 2.23-4.05 4.44-4.56 2.21-.51 4.53.02 6.68.74 7.57 2.53 14.27 7.62 18.73 14.24"
  />
  <path
    d="M105.62 95.59c1.98-.68 4.04-1.36 6.12-1.16 1.36.13 2.65.64 3.92 1.13 1.49.59 2.99 1.17 4.38 1.97 1.31.75 2.51 1.67 3.7 2.6 2.43 1.87 4.86 3.76 6.95 6 .9.98 1.75 2.03 2.81 2.82"
  />
  <path
    d="M134.65 110.52c-7.21-1.95-12.14-9.64-19.56-10.42-4.91-.52-9.71 2.3-12.79 6.15-3.08 3.86-4.73 8.64-6.17 13.36-.91 2.99-1.76 6.03-1.81 9.15-.07 3.87 1.1 7.68 2.82 11.15s3.97 6.64 6.22 9.79"
  />
  <path
    d="M94.63 122.12c-.59 7.5-3.98 14.64-4.07 22.16-.07 6.67 2.47 13.3 1.43 19.78.74 5.78 2.25 11.47 4.48 16.86.93 2.26 2.03 4.53 3.81 6.2 1.97 1.86 4.6 2.84 7.15 3.76 4.71 1.71 9.48 3.43 14.48 3.84m30.38-23.08c-5.01 3.28-9.67 7.05-14.33 10.81l-16.04 12.95"
  />
  <path
    d="M106.18 190.67c1.99.88 4.23-.39 6.03-1.62l22.67-15.41m-2.42.33a37.47 37.47 0 0 1 18.46-2.6m-43.03-23.08c3.61 3.59 7.86 6.54 12.5 8.65m-21.5-23.34c5.33 7.09 11.46 13.58 18.23 19.3m-3.8-3.3-.07 3.81m3.41 2.71.91 10.06c.04.46.09.94.36 1.32s.84.57 1.2.29"
  />
  <path
    d="M101.59 164.14c6.31 1.29 12.62 2.59 18.92 3.88 3.87.79 7.84 1.59 11.75 1.04 2.32-.33 4.78-1.1 6.9-.11m-14.49.36c.84 2.96 1.93 5.85 3.26 8.63"
  />
  <path
    d="M106.12 123.56a149.74 149.74 0 0 0 14.35 31.66c2.05 3.41 4.3 6.8 7.45 9.23 5.26 4.06 12.24 4.89 18.84 5.58"
  />
  <path
    d="M133.66 162.79c4.68 3.58 9.93 6.4 15.5 8.32m-46.44-33.28c.54-3.71 1.81-7.31 3.71-10.54-1.08-3.12.09-6.63 2.12-9.22s4.85-4.44 7.75-6.11c5.37.07 10.56 3.41 12.85 8.26m-15.11-19.83c.17 3.87.91 7.72 2.18 11.37m7.17-4.58c1.86 2.8 3.45 5.79 4.73 8.9m1.29 4.44c1.12 2.2 1.77 4.63 1.91 7.09m-1.57-12.6c3.44 3.91 5.61 8.76 7.4 13.65s3.23 9.92 5.49 14.61c2.25 4.69 5.42 9.11 9.85 11.85m-25.09-32a72.479 72.479 0 0 1 11.97 17.51c1.64 3.38 3.02 6.88 4.89 10.13 1.87 3.25 4.3 6.29 7.55 8.17"
  />
  <path
    d="M147.77 157.5c4.5 2.13 9.13 4.01 13.84 5.61 1.21.41 2.45.81 3.73.82.53 0 1.12-.04 1.51.31.52.47.36 1.34.7 1.95.34.6 1.08.83 1.77.88s1.39-.02 2.04.21c.8.27 1.41.98 1.72 1.76s.36 1.66.3 2.5c-.12 1.74-.65 3.44-1.55 4.93"
  />
  <path
    d="M149.68 170.38c4.34 2.1 9.12 3.08 13.86 3.97 1.79.34 3.59.67 5.38 1 .78.14 1.77.2 2.17-.48m2.64-2.96c.88.93 2.11 1.44 3.05 2.3.24.22.46.46.58.77.32.88-.41 1.82-.28 2.75"
  />
  <path
    d="M152.55 171.86c10.69 2.37 21.41 4.75 31.81 8.18 3.85 1.27 7.93 2.9 10.06 6.34 2.14 3.45 1.79 7.84 1.12 11.84a100.197 100.197 0 0 1-15.91 39.65m6.28-9.62c-1.75 4.41-2.81 9.1-3.13 13.83-.08 1.14-.12 2.33-.63 3.36-.69 1.38-2.14 2.26-3.63 2.62s-3.06.29-4.6.21"
  />
  <path
    d="M178.82 248.13c-1.98.63-3.65 2.2-4.39 4.15-.21.56-.37 1.16-.78 1.6-.36.38-.87.58-1.37.7-1.72.43-3.62.16-5.14-.75s-2.67-2.44-3.11-4.16m17.3-50.75-7.11 3.79m10.12-3.9c-.95 1.31-2.59 2.1-4.21 2.03-.56-.02-1.11-.14-1.67-.16s-1.15.1-1.57.46m-1.93 1.28c-1.92 3.8-3.86 7.63-5.06 11.72-2.5 8.46-1.8 17.64-4.54 26.02-.8 2.47-1.89 5.19-.68 7.47-.46.45-.73 1.1-.73 1.74m-41.89-54.03c8.74-1.29 17.52 1.33 25.98 3.84s17.33 4.97 26.01 3.35m7.25-9.85-3.5 5.12m-29.95-72.12c.54 6.93.39 13.92-.46 20.82"
  />
  <path
    d="M140.19 107.08c3.61.61 6.68 3.26 8.37 6.52s2.11 7.05 1.82 10.7c-.29 3.65-1.24 7.22-2.2 10.76m-1.33-24.71c1.32 1.09 2.55 2.28 3.68 3.56"
  />
  <path
    d="M148.8 111.56c1.33.48 2.4 1.63 2.78 3s.05 2.9-.85 4m.7-4.95c2.2 2.31 4.37 4.65 6.52 7.02.58.63 1.15 1.27 1.72 1.91 1.14 1.27 2.29 2.54 3.43 3.81"
  />
  <path
    d="M161.81 124.46c.43.22.87.45 1.19.81s.51.89.33 1.34c-.13.33-.43.57-.72.79-1.18.9-2.36 1.8-3.53 2.7-.46.35-.92.7-1.47.89s-1.18.18-1.65-.16"
  />
  <path
    d="M162.16 124.75c.9-.48 2.17.09 2.42 1.07.11.43.09.97.47 1.18.25.14.55.07.84.07.57 0 1.11.27 1.53.65s.74.85 1.06 1.32"
  />
  <path
    d="M156.25 141.72c3.13-5.03 7.26-9.44 12.08-12.9m-.68 2.56c.68-3.25 3.41-5.98 6.66-6.65m.51 8.61c-.48-4.38-.22-8.84.77-13.13.27-1.16.62-2.37 1.46-3.22s2.33-1.17 3.33-.47h-.05"
  />
  <path
    d="m147.74 144.88 8.32 1.44c3.41.59 6.84 1.18 10.31 1.22 3.46.05 6.99-.48 10.09-2.02 5.48-2.72 8.97-8.18 12.19-13.38 1.24-2.01 2.53-4.19 2.42-6.55"
  />
  <path
    d="M190.81 125.78c-.51.99-1.69 1.51-2.8 1.45s-2.14-.63-2.98-1.36-1.52-1.61-2.25-2.46c-.84-.98-1.75-1.93-2.29-3.11s-.65-2.64.35-3.79c.16.3.61.33.89.15s.44-.51.59-.82c.59-1.27 1.18-2.55 1.78-3.82m11.01 7.81c-.91.83-1.82 1.66-2.55 2.65s-1.26 2.16-1.3 3.39"
  />
  <path
    d="M192.9 115.24c.42.65 1.03 1.14 1.54 1.72s.92 1.33.79 2.09c-.16.96-1.19 1.6-2.16 1.62s-1.9-.43-2.73-.94c-2.89-1.78-5.25-4.51-6.24-7.76.22-.16.44-.31.67-.47m5.43 8.6c-1.35 2.19-2.7 4.38-3.84 6.74a60.694 60.694 0 0 1-13.27 16.22m-24.91-3.04c1.25.32 2.4 1.02 3.26 1.99.76.85 1.33 1.92 2.31 2.5 1.58.92 3.56.25 5.39.22 1.02-.02 2.04.17 3.07.17 1.13 0 2.24-.24 3.35-.48l7.36-1.59"
  />
  <path
    d="M193.02 115.28a47.13 47.13 0 0 0-2.41 3.97m-5.66-7.8c.66-.91 1.22-1.9 1.65-2.94.51-1.23.88-2.57 1.74-3.59.38-.45.85-.82 1.16-1.32.29-.46.42-1.01.73-1.45.43-.61 1.14-.98 1.87-1.13s1.49-.12 2.23-.08c.54.03 1.12.06 1.55.4.28.21.46.53.63.83.36.63.71 1.25 1.07 1.88.23.41.47.89.27 1.32s-.78.58-1.27.53c-1.06-.11-2.02-.84-2.44-1.6-.43.18-.9.17-1.37.17h-.73m3.35-3.83c.53-.45 1.09-.93 1.78-1.02.66-.09 1.36.23 1.73.79s.38 1.33.04 1.9m-1.86.55c.27-.16.54-.32.84-.41s.64-.1.92.05c.27.14.46.4.6.68.23.44.36.96.23 1.45s-.59.89-1.09.85"
  />
  <path
    d="M195.91 105.93c-.33.23-.72.35-1.09.5s-.74.35-.97.67c-.26.37-.3.89-.09 1.3s.66.67 1.12.67m4.96-1.23c-1.24.09-2.48.31-3.67.64-.28.08-.57.17-.81.33s-.44.42-.48.71c-.06.48.37.92.83 1.05s.97.04 1.44-.06c.48-.09.96-.19 1.43-.28m-.58.41c.46.28 1.04.35 1.55.18"
  />
  <path
    d="M199.51 105.4c.76 1.33.76 2.95.6 4.47-.05.41-.11.84-.33 1.19-.21.34-.56.57-.89.8-.86.58-1.73 1.16-2.59 1.74-.43.29-.87.58-1.36.72-.36.1-.74.13-1.1.24-.22.07-.42.18-.65.22-.64.12-1.24-.28-1.82-.58.05.1.09.2.14.3m2.65-10.02c-.34.3-.54.75-.53 1.2s.22.89.56 1.18m-3.31 108.7c3.19 7.36 6.39 14.72 9.58 22.08.39.89.78 1.79.98 2.75.25 1.16.21 2.38.59 3.51.52 1.55 1.86 2.81 3.45 3.22m-31.81-76.66c7.38.68 14.93 1.41 21.66 4.52 1.7.79 3.38 1.75 4.58 3.2 1.18 1.42 1.82 3.2 2.44 4.95 1.21 3.41 2.43 6.86 3.04 10.36 1.96 7.51 3.52 15.11 5.09 22.72l2.46 11.95c.77 3.72 1.6 7.58 3.91 10.6m-4.53 4.3a27.415 27.415 0 0 1-5.45 4.26c-.21.13-.44.25-.69.28s-.53-.06-.65-.28m-25.18-46.03a1.75 1.75 0 0 1-1.1 1.26c.2.12.41.23.61.35-1.65 4.11-3.29 8.22-4.94 12.33-1.22 3.04-2.44 6.09-3.17 9.28-.71 3.05-.97 6.23-2.11 9.15-.74 1.9-1.86 3.72-2.02 5.75-.11 1.48.3 2.96.34 4.44.04 1.49-.43 3.16-1.75 3.85.37.11.73.21 1.1.32l-2.13 2.7m-27.07-67.94c11.53 7.7 26.97 7.17 38.86 14.29.78.47 1.86.95 2.51.3-.12 1.31-1.35 2.41-2.66 2.39l1.71-.21c-.12.31.1.71.43.76"
  />
  <path
    d="M196.23 194.37c2.28 7.14 3.28 14.61 4.63 21.99 1.35 7.37 3.1 14.79 6.71 21.36.47.85.97 1.7 1.14 2.66s-.08 2.05-.88 2.61c.34.04.69.09 1.03.13l-.27.45.75 1.65m-45.1 6.74-.64 1.13m5.57 2.38c-.47.65-.94 1.31-1.53 1.86s-1.32.97-2.12 1.08c-.41.05-.84.01-1.18-.22-.3-.21-.48-.54-.63-.88-.73-1.67-.76-3.64-.15-4.89l-1.25-.37a16.752 16.752 0 0 0-2.43 3.79c-.29 1.44-.57 2.88-.86 4.31-.12.6-.26 1.24-.72 1.63 0 1.08 0 2.15-.08 3-.21 1.11-.42 2.23-.33 3.35s.51 2.27 1.38 2.99c.66.55 1.51.81 2.33 1.06 4.8 1.44 9.59 2.89 14.39 4.33 5.34 1.61 10.99 3.22 16.4 1.9 3.58-.87 6.72-2.96 9.78-5.02.86-.58 1.76-1.2 2.18-2.15.63-1.43-.03-3.07-.69-4.48a.635.635 0 0 1-.49-.39c-1.63 2.07-3.9 3.56-6.32 4.59s-5.01 1.61-7.59 2.11c-2.39.46-4.82.84-7.25.71-2.56-.14-5.05-.86-7.51-1.57-5.54-1.6-11.14-3.23-16.11-6.15"
  />
  <path
    d="M159.57 256.78c.55 1.09 1.3 2.1 2.29 2.8s2.25 1.08 3.45.87c1.24-.22 2.29-1.03 3.24-1.87 1.4-1.24 2.68-2.6 3.85-4.06m1.75-.86c.79 1 1.91 1.72 3.14 2.04m-.43 2.62c-1.02 1.59-2.72 2.58-4.26 3.66s-3.07 2.46-3.45 4.31c-.28 1.4.15 2.84.6 4.2m-10.09-12.62c.77 2.04 2.35 3.65 3.79 5.29s2.85 3.47 3.13 5.64m13.39-14.01c-.96 1.86-.56 4.11-.1 6.15s.94 4.25.12 6.17c.23-3.09.47-6.19.7-9.28.1-1.36.15-2.9-.71-3.04Z"
  />
  <path
    d="M179.89 254.47c-.84-.19-1.76.1-2.35.73s-.81 1.57-.57 2.39c.1-.08.19-.16.2-.37l-1.32-.07c.12.44-.39.91-.82.75a9.03 9.03 0 0 1 3.52-1.3c.31-.04.62-.08.9-.21s.52-.4.43-1.92Z"
  />
  <path
    d="M179.87 254.66c.26-.95 1.14-1.64 2.09-1.93s1.95-.28 2.94-.25c.47.01.97.04 1.34.32.26.2.42.55.3.86-.14.33-.57.46-.92.37s-.64-.33-.93-.55c-.5-.38-1.04-.71-1.66-.82s-1.3.05-1.7.53c.67.15 1.28.53 1.71 1.06m3.38 2.16a6.5 6.5 0 0 0-3.78 3.12m-1.83-.57 5.79-.57m.91-1.21a33.239 33.239 0 0 0-3.94 4.53"
  />
  <path
    d="M182.74 260.3c1.66-.41 3.4-.54 5.11-.37m1.93-.74c-.58 1.28-1.32 2.49-2.19 3.59"
  />
  <path d="M184.39 262.41c2.56-.65 5.21-.97 7.85-.94" />
  <path d="M191.64 260.42a14.746 14.746 0 0 0-4.09 4.09" />
  <path
    d="M186.32 256.26c2.09 2.86 5.03 5.08 8.34 6.33l-1.59-.72m-.95.45c2.55.89 5.11 1.78 7.66 2.67.2.07.42.16.48.36.07.22-.09.45-.26.61-.99.94-2.37 1.31-3.7 1.63-2.96.74-5.92 1.47-8.88 2.21m12.51-5.13c.7-.2 1.47.14 1.97.67s.81 1.21 1.1 1.88"
  />
  <path
    d="M188.02 264.02c.4.9.8 1.85.65 2.82-.07.42-.23.82-.36 1.22-.45 1.45-.34 3.06.3 4.43m-19.38-5.1c4.63 1.81 9.55 2.88 14.51 3.16"
  />
  <path
    d="M174.49 261.27a9.032 9.032 0 0 0 5.36 4.07c.91.24 1.86.34 2.75.64s1.76.84 2.16 1.7c.81 1.76-.69 3.94.06 5.73m-4.34-26.05c.83 1.48 1.4 3.1 1.68 4.77m-1.23 2.63c1.31.47 2.62.95 3.92 1.42.09.03.21.06.28 0 .12-.1.03-.29-.07-.41-.9-1.08-2.07-1.93-4.14-1.01Zm3.59-.52c.68.37 1.58.31 2.2-.15.14-.11.28-.24.46-.28.41-.09.75.42.64.82s-.49.67-.88.82-.8.24-2.42-1.22Zm34.4-15.17c-2 .09-4.3.34-5.43 1.99-.61.89-.74 2.02-.99 3.08-.37 1.56-1.05 3.04-1.99 4.34-.64.89-1.65 1.77-2.71 1.48-.57-.16-.99-.62-1.38-1.06s-.81-.9-1.38-1.07-1.3.14-1.61 1.09c.87 1.77.43 3.88.67 5.84.22 1.77 1.01 3.42 1.78 5.03"
  />
  <path
    d="M207.15 264.34a16.8 16.8 0 0 1-1.49-4.54c8.06-.61 15.39-4.82 22.06-9.44 3.17-2.2 6.28-4.53 8.87-7.38 2.6-2.85 4.67-6.26 5.65-10.1 1.28-.12 2.56.89 3.19 2.49-1.43 5.05-4.21 9.7-7.98 13.35-3.08 2.98-6.75 5.27-10.39 7.53-2.81 1.74-5.62 3.49-8.43 5.23-1.75 1.08-3.51 2.18-5.47 2.81s-4.15.76-6.02.05Zm13.48-25.42c3.66-1.08 7.49-1.55 11.3-1.38"
  />
  <path
    d="M220.01 235.09c1.41 1.19 3.77.54 5.19 1.71.42.35.72.83 1 1.3s.56.96.97 1.33.97.61 1.51.5.99-.66.87-1.2c-.16-.7-1.04-.91-1.75-1.03-1.63-.27-3.23-.77-4.72-1.49-.3-.14-.61-.3-.94-.33s-.71.09-2.13-.8Z"
  />
  <path
    d="m219.78 235.44-.49-.4 5.72.03.48-.99c.33.74 1.55.84 1.74 1.63.12.51-.29 1.02-.78 1.18s-1.03.09-1.54 0m-5.18-.18c1.26.17 2.31 1.36 2.32 2.63"
  />
  <path
    d="M218.39 240.28c.24.3.73.12 1.04-.12.88-.69 1.56-1.64 1.91-2.7 1.28.42 2.42 1.23 3.25 2.29-.01.08-.16.05-.15-.02"
  />
  <path
    d="M224.93 237.21c-.52.61-1.13 1.16-1.79 1.62.07-.06.15-.11 1.79-1.62Zm-.27.56 2.7 1.83c-.04-.48-.16-.96-.33-1.41.62.07 1.23.25 1.78.53a3.71 3.71 0 0 1 2.39-.8m-10.42 4.14c3.86-1.17 7.67-2.53 11.59-3.91a8.544 8.544 0 0 1 3.89 4.73"
  />
  <path
    d="M233.66 245.01c-.82-1.06-1.68-2.15-2.84-2.82s-2.73-.83-3.81-.02c-.34.25-.61.59-.91.88-.67.66-1.49 1.14-2.3 1.61-.6.35-1.21.7-1.9.81s-1.46-.1-1.85-.67m-5.75-1.47-2.05.44m1.85 1.45-2.21.16m3.56-5.58c-.97 1.7-1.14 3.72-1.43 5.66s-.79 3.98-2.22 5.32c-1.04.97-2.46 1.46-3.88 1.57-1.42.11-2.84-.12-4.23-.42"
  />
  <path
    d="M219.95 238.94c-.07 3.2-.45 6.39-1.11 9.52-.24 1.12-.51 2.27-.32 3.4s1 2.24 2.13 2.4m-16.26-.83c.49-.47 1.26-.5 1.9-.31s1.23.55 1.86.79c1.55.6 3.28.41 4.94.47s3.49.47 4.44 1.83"
  />
  <path
    d="M232.03 243.37c-4.46 3.07-8.91 6.14-13.37 9.21m23.58-19.48c-.56-.37-1.21-.59-1.88-.62a28.597 28.597 0 0 1-9.86 5.35"
  />
  <path
    d="M240.37 232.33c-1.42 2.88-3.19 5.6-5.25 8.06m-20.71-7.1.6-.97c2.59 1.31 4.39 4.07 4.52 6.97M92.12 150.84c.49 2.54 2.1 4.85 4.32 6.18m53.67-4.65c.79.21 1.46.74 2.1 1.25.8.64 1.6 1.29 2.4 1.94.4.32.79.64 1.15 1.01.39.4.72.85 1.03 1.31.93 1.36 1.75 2.79 2.44 4.29"
  />
  <path
    d="M155.56 156.4c-.03.48-.26.92-.48 1.35-.09.17-.18.34-.3.48-.15.17-.33.3-.52.42-.7.44-1.44.81-2.21 1.1m47.36-70.14 5.77 28.19c.14.67.77 1.12 1.44 1.02 5-.73 9.81-1.77 14.41-3.15.64-.19 1.03-.83.9-1.49l-6.25-29.63-9.98 2.04"
  />
  <path
    d="M201.28 98.73s-.57-.74-2.21-.37-2.5.28-2.84 1.63m7.87 12.52s-.46 1.23-1.62.96-3.29-1.84-3.73-2.7m6.23 6.04s.04-.53-2.04-.5-6.17-1.84-7.69-5.97m5.15-15.91s-.6 1.31-1.65 1.49-2.32.42-2.72.5-2.2-.04-2.8 4.48m8.45-5.81 4.95 23.73m7.07-26.68 5.14 24.16m-18.91-24.16h17.36m-1.31-6.21s.2.96-3.46.37c-3.34-.54-17.01-3.14-13.75 2.43 0 0 1.17 2.08 2.51 1.73s1.63-3.29 4.44-3.86m-.74 26.63c.12.67 1.49.93 2.11.89 2.64-.17 8.4-1.33 10.79-2.53.55-.27 2.47-1.32 2.35-1.98"
  />
</svg>
