<svg class="svg" xmlns="http://www.w3.org/2000/svg" viewBox="0 0 320 320">
  <path
    d="m150.93,62.26c-.11,0-.22-.04-.31-.12-1.53-1.27-3.92-6.29-4.52-7.61-.58,0-1.08-.21-1.48-.6-1.37-1.32-1.13-4.35-1.09-4.68.03-.26.26-.45.54-.44.27.03.47.26.45.53-.08.8-.08,3.05.8,3.9.27.26.6.36,1.04.31.2-.03.42.09.51.28.78,1.75,3.1,6.5,4.39,7.56.2.18.23.48.07.68-.1.12-.23.18-.38.18h0Z"
  />
  <path
    d="m146.4,58.25c-.22,0-.43-.16-.48-.39,0-.02-.46-2.04-2.29-3.85-2-1.98-1.93-6.17-1.92-6.73-2.35-12.77,6.93-18.92,7.01-18.98.27-.19,6.98-4.74,12.12-3.65,1.23,0,4.4-.2,5.49-1.04l.09-.08c.2-.17.51-.15.68.05.18.2.16.51-.04.68-.03.03-.07.06-.11.09l-1.85,1.54c2.99,1.01,12.42,5.26,12.65,18.26,0,.27-.21.49-.48.5-.29.02-.5-.2-.5-.48-.26-14.62-12.66-17.57-12.79-17.6-.19-.04-.32-.18-.37-.36-.05-.18.02-.37.16-.49l.48-.39c-1.58.28-3.18.29-3.47.29-.04,0-.07,0-.11,0-4.72-1.04-11.34,3.45-11.4,3.49-.1.07-8.86,5.9-6.58,18.05v.11s-.17,4.28,1.63,6.06c2.05,2.03,2.54,4.25,2.56,4.34.06.26-.12.52-.38.58-.04,0-.07,0-.1,0h0Z"
  />
  <path
    d="m146.5,51.67c-.12,0-.23-.04-.32-.12-1.99-1.74-3.51-4.63-3.58-4.75-.13-.23-.03-.53.21-.65s.54-.03.66.2c0,.03,1.07,2.04,2.51,3.63.08-3.71,1.37-9.18,1.42-9.43.02-.08.06-.16.12-.22,3.25-3.47,2.25-7.76,2.23-7.79-.05-.2.04-.42.22-.53s.42-.09.58.05c.07.06,7,6.09,10.54,4.32.24-.12.54-.02.66.21.12.24.02.54-.22.65-3.29,1.63-8.51-1.98-10.66-3.67.1,1.66-.14,4.66-2.56,7.32-.21.95-1.59,7.1-1.35,10.25.02.2-.09.38-.27.48-.07.04-.15.05-.22.05h.02Z"
  />
  <path
    d="m177.05,46.74c-4.09,0-6.4-3.68-6.91-4.58-9.11-2.69-12.84-10.31-12.99-10.64-.12-.24,0-.54.23-.64.24-.12.54,0,.65.23.04.08,3.77,7.67,12.58,10.17.14.04.24.13.3.25.11.22,2.57,5.08,7.39,4.1-2.22-.79-2.7-1.92-2.75-2.07-.1-.25.04-.54.29-.62s.53.04.62.28c.02.05.61,1.3,3.66,1.89.21.04.37.21.39.43.02.21-.1.41-.29.5-1.16.5-2.22.7-3.18.7h0Zm-26.11-7.47c-.1,0-.2-.03-.29-.1-.21-.16-.26-.47-.1-.68,2.43-3.24,5.96-1.74,6-1.72.24.11.36.4.25.64s-.4.36-.64.25c-.12-.05-2.87-1.2-4.81,1.4-.1.13-.24.2-.39.2h-.02Zm1.25,3.28c-.2,0-.39-.13-.47-.32-.09-.25.05-.53.3-.62.46-.16,4.49-1.52,5.91-.16.2.19.2.5,0,.69-.19.2-.5.2-.69,0-.71-.67-3.29-.19-4.9.38-.06.02-.11.03-.17.03h0Z"
  />
  <path
    d="m168.82,43.51c-.12,0-.23-.04-.32-.12-1.91-1.65-3.36-.7-3.38-.69-.22.15-.53.1-.68-.13s-.1-.53.13-.67c.09-.06,2.1-1.38,4.58.77.2.18.22.49.05.68-.1.11-.23.17-.37.17h0Zm-13.41-.54c-.41,0-.62-.2-.71-.34-.32-.47,0-1.14.11-1.34.07-.13.19-.21.33-.24.14-.03.29,0,.4.1.42.32.88.82.74,1.31-.05.17-.2.46-.72.52h-.15Zm.13-.82h0,0Z"
  />
  <path
    d="m166.43,43.82h-.13c-.28-.04-.52-.19-.66-.42-.31-.52-.05-1.29.04-1.51.07-.19.25-.31.46-.31.35,0,.68.23.9.64.19.36.31.91.04,1.3-.15.2-.37.32-.63.32v-.02Zm-6.07,4.18c-.11,0-.22-.04-.31-.12-.04-.03-.09-.08-.19,0-.21.16-.52.13-.68-.08-.17-.2-.15-.5.05-.67.24-.21.87-.49,1.45,0,.2.18.23.48.06.68-.1.12-.23.18-.38.18h0Zm3.19,0c-.17,0-.33-.09-.43-.24,0,0-.14.05-.2.09-.23.14-.54.08-.67-.15-.15-.22-.08-.53.15-.67.09-.06.54-.32.99-.21.25.06.46.21.6.46.14.23.06.53-.19.66-.08.04-.16.07-.24.07Zm-2.86,8.78c-1.1,0-2.16-.15-2.93-.43-1.1-.4-1.8-.99-2.07-1.77-.35-1.02.2-1.93.22-1.97.05-.08.13-.15.21-.19.29-.14,7.27-3.22,9.55.18.83,1.24.4,2.13.06,2.55-.9,1.13-3.06,1.63-5.06,1.63h0Zm-3.99-3.53c-.09.2-.22.6-.07,1.02.18.48.66.87,1.47,1.16,1.98.72,5.87.38,6.88-.89.2-.24.4-.66-.11-1.4-1.47-2.19-6.25-.72-8.17.11Zm17.27.73h-.06c-.2-.02-.36-.17-.42-.36-.4-1.47-.06-7.52-.02-8.2.02-.26.24-.49.52-.46.27.02.48.24.46.52-.08,1.35-.21,4.43-.16,6.38l1.42-2.61c.13-.23.43-.32.66-.2.24.13.33.42.2.66l-2.19,4.03c-.09.16-.25.25-.43.25h0Z"
  />
  <path
    d="m175.26,55.49c-.12,0-.23-.04-.32-.12-.2-.18-.22-.49-.04-.68.69-.78,1.83-5.37,2.38-8.09.06-.26.32-.44.58-.38.26.05.44.31.38.58-.16.74-1.51,7.31-2.6,8.54-.1.11-.23.17-.37.17h0Z"
  />
  <path
    d="m175.33,69.7c-.06,0-.13,0-.19-.04-2.63-1.04-3.32-3.73-3.35-3.83,0-.04,0-.08,0-.12v-4.32c0-.11.03-.2.1-.29.73-.99,1.28-3.85,1.43-4.88.02-.14.1-.25.2-.33,1.71-1.18,1.28-3.44,1.26-3.54-.05-.26.12-.52.38-.58.26-.05.53.12.58.38.02.12.56,2.83-1.48,4.41-.13.8-.63,3.68-1.48,4.97v4.11c.1.34.76,2.33,2.74,3.11.25.1.37.38.27.63-.08.19-.26.3-.46.3h0Zm-20.99-8.11h-.07c-1.12-.15-3.35-1.56-3.6-1.72-.22-.15-.29-.45-.15-.67.15-.22.46-.28.68-.15.88.57,2.52,1.48,3.19,1.57.27.04.46.28.42.55-.03.24-.24.42-.49.42h0Zm11.34,1.58c-.27,0-.49-.21-.49-.49s.22-.49.49-.49c.45,0,2.48-.78,4.18-1.54.24-.12.54,0,.65.24.11.24,0,.54-.24.64-.61.27-3.71,1.62-4.58,1.62h0Zm-36.08,16.07c-.13,0-.25-.05-.35-.15-.2-.19-.2-.5,0-.68,0,0,1.32-1.35,1.39-3.31.02-.5,0-1.22,0-2.03-.04-4.61.08-6.93.86-7.59.99-.85,5.97-3.58,6.18-3.7.05-.03.11-.05.17-.06l2.01-.31c.06,0,2.15-.18,3.06-.43,1.04-.29,3.08-.04,3.32-.02.13.02.24.08.32.19.06.08.59.77.59,1.53,0,.33,0,1.01-4.71,1.91l-4.11,1.7-1.8.44-1.97.08h-.02c-.26,0-.48-.2-.49-.47,0-.27.2-.5.48-.51l1.87-.07,1.64-.4,4.09-1.7s.07-.02.1-.03c1.61-.3,3.49-.8,3.95-1.09-.04-.23-.16-.48-.26-.64-.69-.08-2.07-.17-2.7,0-1,.28-3.12.46-3.21.47l-1.88.29c-1.47.81-5.19,2.91-5.94,3.54-.58.49-.54,4.95-.52,6.85,0,.83,0,1.56,0,2.07-.08,2.36-1.6,3.9-1.67,3.97-.1.1-.22.15-.35.15h-.03Z"
  />
  <path
    d="m147.05,67.36c-.13,0-.25-.05-.35-.15-.19-.2-.19-.5,0-.69.02-.03.28-.32.16-.84-.11-.41-1.89-1.05-2.37-1.01-.27.05-.51-.12-.57-.38s.14-.53.4-.58c.52-.12,3.18.55,3.48,1.74.21.87-.17,1.52-.43,1.78-.1.09-.21.14-.34.14h0Z"
  />
  <path
    d="m140.23,71.93c-.15,0-.29-.08-.39-.2-.17-.21-.09-.54.13-.7.12-.09.42-.31,2.14-.12.76-.43,4.3-2.39,5.38-2.83,0-.08-.15-.41-.36-.71h-3.05l-4.45,1.95s-.07.03-.11.03l-1.87.34c-.26.05-.53-.13-.58-.39s.13-.52.39-.57l1.81-.33,4.49-1.97c.06-.03.13-.04.2-.04h3.4c.15,0,.29.07.38.19.2.24.84,1.1.65,1.79-.07.28-.27.5-.56.61-1.13.47-5.37,2.84-5.42,2.86-.09.05-.2.08-.3.06-.7-.09-1.47-.12-1.65-.06-.09.06-.18.09-.27.09h.04Z"
  />
  <path
    d="m137.17,87.94c-.12,0-.23-.03-.35-.08-6.52-2.91-7.98-8.74-8.04-8.98-.06-.26.1-.53.36-.59.26-.06.53.1.6.36,0,.06,1.4,5.55,7.37,8.27.13-.21.25-.69.38-1.12.21-.76.48-1.7.96-2.51.37-.62.19-1.3.19-1.31-.07-.23.05-.48.26-.58,2.41-1.1,2.76-4.45,2.76-4.48l.92-3.04c.04-.12.12-.22.23-.28l1.74-.96s2.63-1.75,3.48-2.65c.22-.24.33-.49.32-.72,0-.18-.09-.3-.13-.35-.19-.07-.32-.24-.32-.46,0-.27.22-.49.49-.49.37,0,.66.37.81.68.14.31.37,1.13-.45,1.99-.93.99-3.58,2.75-3.69,2.82l-1.59.89-.84,2.76c0,.06-.36,3.54-2.98,5,.04.4.02,1.03-.35,1.66-.41.7-.65,1.54-.86,2.28-.2.7-.35,1.27-.64,1.58-.18.2-.39.29-.62.29h0Z"
  />
  <path
    d="m138.97,88.48c-.53,0-1.11-.14-1.54-.26-.26-.08-.41-.35-.33-.6s.35-.4.61-.33c.6.18,1.3.27,1.52.2.12-.2.37-.28.59-.2.25.1.38.38.28.62-.16.42-.61.56-1.13.56h0Z"
  />
  <path
    d="m134.57,96.23c-1.96,0-4.96-.65-7.44-4-.36-.49-.69-.92-.98-1.31-2.41-3.2-2.6-3.46-1.19-5.61.13-.19.26-.4.42-.63,1.69-2.64,2.91-4.55,2.98-5.94,0-.26.23-.49.52-.47.27,0,.48.24.47.51-.08,1.66-1.29,3.55-3.12,6.42-.16.24-.29.45-.42.64-.7,1.05-.31,2.55,1.15,4.5.29.39.61.82.99,1.32,3.32,4.47,7.66,3.58,8.29,3.42.26-.37.95-1.96,1.46-3.31,0-.03.03-.07.05-.1,0-.02,1.16-1.77,1.89-3.84.73-2.09-1.07-3.94-1.08-3.96-.19-.2-.19-.5,0-.69.2-.19.51-.19.69,0,.09.1,2.25,2.31,1.32,4.97-.71,2.03-1.77,3.71-1.96,4.01-1.38,3.59-1.73,3.73-1.92,3.8-.02,0-.84.26-2.08.26h-.03Zm-3.17-30.2h-1.39c-.27,0-.49-.21-.49-.49v-1.35c0-.27.22-.49.49-.49h4.07c.27,0,.49.21.49.49s-.22.49-.49.49h-3.57v.37h.9c.27,0,.49.21.49.49s-.22.49-.49.49h0Z"
  />
  <path
    d="m130.85,64.68h-.06c-.27-.03-.46-.27-.43-.55l.19-1.5c.03-.24.23-.43.49-.43h6.02c.27,0,.49.21.49.49s-.22.49-.49.49h-5.58l-.14,1.07c-.03.24-.24.43-.49.43Zm32.71-1.11c-.14,0-.27-.06-.37-.18-.18-.2-.15-.51.06-.68l.29-.24v-.09c-6.22-.1-15.83-.2-16.7-.03-.21.09-.47,0-.6-.2-.15-.22-.08-.53.16-.67.15-.09.59-.36,17.64-.08.26,0,.48.22.48.49v.79c0,.15-.06.28-.18.37l-.46.39c-.09.08-.2.12-.32.12h0Z"
  />
  <path
    d="m145.91,63.93c-.26,0-.48-.2-.49-.47,0-.26.2-.5.48-.5l12.29-.36c.27,0,.5.2.51.47,0,.26-.2.49-.48.5l-12.29.36h-.02Zm1.14,1.42c-.25,0-.48-.2-.49-.46-.02-.26.19-.5.46-.52l11.15-.67c.31-.02.51.19.52.46s-.19.5-.46.52l-11.15.67h-.03Z"
  />
  <path
    d="m158.66,79.24c-.21,0-.42-.15-.48-.36-1.21-4.41-.07-16.02,0-16.51.03-.26.25-.47.54-.44.27.03.47.26.44.54,0,.12-1.18,11.92,0,16.15.07.26-.09.53-.34.6-.04,0-.09.02-.13.02h0Zm5.35-.81c-.16,0-.31-.08-.4-.21-.76-1.17-.95-12.38-.99-15.78,0-.27.21-.49.49-.49s.49.21.49.48c.08,6.83.4,14.51.84,15.28.13.23.06.53-.18.66-.08.05-.18.07-.26.07h0Z"
  />
  <path
    d="m159.95,77.75c-.2,0-.4-.13-.47-.34-1.02-3.17-.06-13.93-.02-14.39.02-.26.26-.47.54-.44.27.02.47.26.45.53,0,.11-.99,11.01-.02,14,.09.25-.06.53-.31.61-.05.02-.1.02-.15.02h-.02Zm1.39-6.31c-.24,0-.46-.19-.49-.43-.28-2.49,0-7.73,0-7.95,0-.26.21-.51.52-.46.27,0,.48.24.47.51,0,.05-.27,5.39,0,7.79.03.26-.17.51-.43.54h-.07Zm.73,6.99c-.2,0-.39-.12-.46-.31-.68-1.79-.41-4.19-.4-4.3.03-.26.28-.47.55-.43.27.03.46.27.43.54,0,.02-.25,2.27.34,3.84.1.25-.03.54-.28.62-.06.02-.12.03-.18.03h0Zm-15.02-16.61c-.2,0-.37-.12-.45-.3-.49-1.16.24-3.23.33-3.46.1-.25.38-.38.63-.29.25.1.39.37.29.62-.27.74-.6,2.14-.35,2.75.11.24,0,.54-.26.63-.06.03-.13.04-.2.04h0Z"
  />
  <path
    d="m143.98,61.6c-.24,0-.46-.19-.49-.43-.19-1.69,2.75-4.19,3.35-4.68.21-.17.52-.15.69.07.18.2.15.52-.07.68-1.3,1.07-3.09,2.97-2.99,3.82.03.26-.17.51-.44.54h-.06,0Zm27.7,20.47c-.16,0-.3-.07-.4-.2-.16-.21-.11-.53.12-.68l6.08-4.3c1.61-1.62,6.05-6.44,6.48-8.52.46-2.19-2.3-2.99-2.42-3.02-.2-.06-.34-.22-.36-.43-.34-4.31-7.42-6.18-7.49-6.2-.26-.07-.42-.33-.35-.59,0,0,0,0,0,0,.07-.26.32-.42.6-.35.31.08,7.5,1.98,8.18,6.74,1.33.47,3.27,1.79,2.8,4.06-.58,2.79-6.56,8.8-6.81,9.05l-6.14,4.36c-.09.06-.19.09-.28.09h0Zm-18.56-1.19h-.09c-1.06-.2-7.09-5.1-8.92-6.6-.2-.18-.23-.48-.07-.68.18-.2.49-.23.69-.07,3.66,3.01,7.82,6.23,8.47,6.4.25.07.43.32.37.58-.05.22-.24.38-.47.38h0Z"
  />
  <path
    d="m153.12,83.8h-.03c-.27-.02-.48-.24-.46-.52l.53-8.88c.02-.25.23-.46.49-.46h.69c.27,0,.49.21.49.49v8.15c0,.27-.22.49-.49.49s-.49-.21-.49-.49v-3.29l-.24,4.05c-.02.26-.23.46-.49.46Z"
  />
  <path
    d="m157.59,77.02c-.24,0-.9,0-9.98-9.31-.19-.2-.19-.5,0-.69.2-.19.51-.19.69,0,4.02,4.12,8.63,8.64,9.37,9.01.22.05.39.24.39.48,0,.27-.22.49-.49.49h0Z"
  />
  <path
    d="m152.19,71.9c-.19,0-.36-.1-.44-.27-1.49-3.1-1.31-6.63-1.3-6.78.02-.26.23-.48.52-.46.27.02.48.24.46.52,0,.04-.18,3.44,1.2,6.31.12.24,0,.54-.23.64-.07.03-.14.05-.21.05h0Zm13.49,6.54c-.2,0-.38-.12-.46-.31-.1-.25.03-.54.28-.62.08-.03,8.09-3.11,10.54-9.53.1-.25.38-.38.63-.28s.38.38.28.62c-2.61,6.84-10.77,9.97-11.11,10.1-.06.02-.12.03-.18.03Z"
  />
  <path
    d="m172.28,74.92c-.18,0-.34-.09-.43-.24-.14-.23-.05-.53.19-.66,2.83-1.59,4.68-4.03,6.02-7.88.19-.53.14-1.03-.13-1.54-1.09-2.1-5.37-3.38-5.41-3.38-.26-.08-.41-.35-.33-.6.08-.25.35-.4.61-.33.2.06,4.73,1.4,6.01,3.87.39.75.45,1.52.19,2.3-1.39,4.04-3.45,6.72-6.46,8.42-.08.04-.16.07-.24.07h0Zm-2.21,6.4h-.07c-.27-.04-.46-.28-.42-.55,0-.02.32-2.27.32-3.5,0-1.61,1.55-2.18,1.62-2.19.15-.05.31-.03.45.06.13.09.2.24.2.4v1c0,.06,0,.12-.03.18,0,.02-.84,2.22-.78,4.12,0,.27-.2.5-.48.51-.17,0-.33-.08-.42-.21-.09.13-.24.21-.4.21v-.02Zm1.12-4.88c-.18.2-.31.47-.31.82v.16c.14-.47.25-.82.31-.98Z"
  />
  <path
    d="m172.28,77.61c-.16,0-.31-.08-.41-.21-.15-.22-.09-.53.14-.67,9.35-6.18,9.16-11.77,9.16-11.83,0-.26.2-.5.46-.52.26,0,.5.19.52.46.02.24.27,6.17-9.6,12.7-.09.06-.18.08-.27.08h0Zm-15.94,1.05c-.09,0-.18-.02-.25-.07-3.62-2.2-8.28-7.11-8.48-7.32-.19-.2-.18-.51.02-.69s.51-.18.69.02c.05.05,4.77,5.01,8.27,7.15.23.14.3.44.17.67-.1.15-.25.23-.42.23Zm18.64,18.04c-.22,0-.43-.16-.48-.39l-.71-3.48-1.09-2.96c-.06-.17-.03-.36.1-.5.12-.14.3-.19.49-.15l.18.04-.94-2.32c-.06-.14-.05-.3.04-.43.08-.13.2-.21.35-.23-.3-.54-.67-1.42-1.09-2.86-.78-2.68-3.97-3.13-4-3.13-.22-.03-.4-.2-.42-.43-.03-.22.11-.43.31-.51l.25-.1c-1.51-.55-4.61-.8-7.97-.61-3.75.21-7.96,7.55-8,7.63-.1.17-.28.26-.48.24-.28-.03-.8.29-1.37.72h.39c.21,0,.4.14.47.33s0,.42-.18.55c-.64.48-1.61,4.1-1.58,4.82.07.2,0,.43-.2.56-.22.15-.53.09-.68-.14-.32-.49.43-3.54,1.24-5.14h-.78c-.2,0-.38-.12-.46-.3-.08-.19-.03-.39.11-.53.42-.41,1.76-1.64,2.78-1.81.79-1.33,4.75-7.67,8.66-7.89,3.84-.22,8.28.11,9.51,1.33.12.12.17.28.14.45-.02.11-.09.2-.17.27,1.2.47,2.77,1.44,3.35,3.42.76,2.63,1.31,3.11,1.34,3.12.19.11.26.3.21.51-.04.2-.23.35-.45.37l-.19.02,1.05,2.61c.07.17.04.36-.09.5s-.31.2-.49.16l-.21-.05.79,2.16.73,3.55c.06.26-.12.52-.38.58h-.1v.03Z"
  />
  <path
    d="m157.37,109.43h-.02c-2.99-.1-3.91-1.07-4-1.18-4.51-5.37-5.66-11.81-5.84-12.98-.25-.25-.67-.77-.5-1.33.24-.75,1.34-.84,1.7-.87h.11c2.23,0,26,2.42,27.6,3.37.23.14.3.43.17.66s-.44.3-.67.18c-1.34-.74-25.65-3.33-27.13-3.23-.71.06-.85.2-.85.21.02.04.19.26.34.4.1.08.16.2.18.31,0,.07.96,7.07,5.65,12.66,4.69,5.59.75.75,3.28.83.27,0,.49.23.48.5,0,.26-.22.47-.49.47h0Z"
  />
  <path
    d="m170.07,95.7c-.23,0-.44-.17-.48-.4-.14-.74-.66-2.8-1.52-3.45-1.02-.78-4.27-1.38-4.97-1.15-.23.97-.44,3.44-.12,3.82.2.18.23.48.06.68s-.49.23-.69.06c-1.03-.85-.17-4.9-.16-4.94.05-.18.19-.41.58-.54,1.15-.38,4.74.4,5.9,1.29,1.32,1,1.83,3.75,1.89,4.06.05.26-.13.52-.4.57h-.1Z"
  />
  <path
    d="m164.71,95.6c-.09,0-.19-.03-.26-.08-.22-.15-.29-.45-.15-.67.13-.5-1.1-3.27-1.48-3.65-.24-.13-.3-.39-.18-.63.13-.23.45-.31.69-.19.54.27,1.52,2.54,1.8,3.57.19.69.19,1.13,0,1.42-.1.15-.25.22-.41.22h-.02Zm9.09.63c-.2,0-.38-.12-.46-.31-.64-1.62-1.5-2.69-2.49-3.1-.9-.37-1.61-.09-1.62-.09-.24.11-.54,0-.64-.25s0-.54.26-.63c.04-.02,1.1-.45,2.39.09,1.26.53,2.27,1.75,3.02,3.65.1.25-.03.54-.28.63-.06.02-.12.03-.18.03h0Zm-19.47-2.19c-.19,0-.37-.11-.45-.29-.11-.24,0-.54.25-.64l1.39-.6-.37-.42-5.16,1.34c-.26.07-.53-.09-.59-.35,0,0,0,0,0,0-.07-.26.09-.53.35-.6l5.45-1.41c.18-.05.37,0,.5.15l1.01,1.14c.11.12.15.27.11.43-.03.16-.14.28-.28.34l-2.01.87c-.07.03-.13.04-.2.04v.02Zm4.32-4.3c-.27,0-.49-.21-.49-.49,0-1.97-2.42-4.49-2.45-4.52-.19-.2-.19-.5,0-.69.2-.19.51-.19.69,0,.11.12,2.72,2.82,2.72,5.19,0,.27-.22.49-.49.49h0Zm1.71-2.43h-.02c-.27,0-.48-.23-.48-.51.03-.91-1.15-2.29-1.56-2.7-.2-.19-.2-.5,0-.69s.51-.2.69,0c.2.2,1.9,1.93,1.85,3.42,0,.26-.22.47-.49.47h0Zm3.19-1.97c-.23,0-.44-.17-.49-.4-.31-1.79,2.46-3.9,2.77-4.14.21-.16.53-.12.68.1.17.21.12.52-.1.68-1.01.75-2.56,2.27-2.39,3.19.05.26-.14.52-.4.57h-.09,0Zm.46,3.01c-.21,0-.41-.14-.48-.35-.43-1.52,1.86-3.57,2.33-3.97.2-.18.52-.16.69.05s.16.51-.05.68c-.94.79-2.22,2.28-2.03,2.97.08.26-.08.53-.34.6-.05,0-.09.02-.14.02h0Zm6.87.12c-.27,0-.49-.22-.48-.5,0-.71-1.03-2.09-1.7-2.78-.19-.2-.18-.51.02-.69s.51-.18.69.02c.2.21,1.99,2.14,1.96,3.47,0,.26-.22.48-.49.48h0Zm-19.32,0c-.1,0-.2-.03-.29-.1-.21-.16-.26-.46-.11-.68.06-.08,1.45-1.95,3.33-1.34.25.09.4.36.31.61-.09.25-.36.4-.62.31-1.18-.38-2.21.98-2.22.99-.1.13-.24.2-.4.2h0Zm7.47,4.15c-.22,0-.42-.15-.48-.37-.54-2.08-2.5-2.51-2.58-2.53-.26-.06-.44-.31-.38-.58s.3-.44.58-.38c.11.02,2.64.56,3.34,3.24.07.26-.09.53-.35.6-.04,0-.08.02-.12.02h0Zm3.04-9.47c-.2,0-.39-.13-.46-.32-.51-1.39-1.71-1.44-2.35-1.48-.18,0-.28-.02-.39-.05-.25-.09-.4-.36-.31-.61.08-.24.34-.38.6-.31.04,0,.1,0,.17,0,.68.04,2.49.14,3.22,2.13.1.25-.04.54-.29.62-.06.02-.12.03-.17.03h0Zm3.01-2.84c-.15,0-.29-.07-.39-.2-.76-.99-2.6.11-2.62.12-.23.15-.54.07-.67-.16-.15-.22-.08-.53.16-.67.11-.07,2.61-1.59,3.92.12.17.21.12.52-.1.68-.09.07-.2.1-.29.1h0Zm4.88,10.34c-.18,0-.34-.09-.43-.25-1.08-1.93-3.12-1.43-3.21-1.4-.26.07-.53-.09-.59-.35,0,0,0,0,0,0-.07-.26.09-.53.35-.6.98-.25,3.15-.2,4.32,1.87.14.23.05.53-.19.66-.08.04-.16.06-.24.06h0Zm3.2,15.67h-.09c-.49-.09-.98-.17-1.43-.25-3.83-.72-9.67-2.19-10.03-3.28-.15-.42.11-.97.65-1.44.66-.58,1.73-1,2.73-.52.99.48,4.74.53,6.1.51.31,0,.5.21.5.48s-.21.49-.48.5c-.53,0-5.16.07-6.55-.6-.48-.23-.98-.04-1.23.1-.42.22-.66.52-.75.67.61.42,3.72,1.6,9.24,2.64.46.09.94.18,1.42.25.26.05.45.3.4.57-.04.23-.25.41-.49.41v-.03Z"
  />
  <path
    d="m170.28,110.21c-1.21,0-2.9-.34-4.2-.65-2.61-.63-5.64-1.64-6.59-2.19-.57-.33-.88-.73-.94-1.19-.09-.75.55-1.38.97-1.78l.1-.09c.53-.51,1.43-.13,2.94.5,1.1.46,2.49,1.03,3.72,1.2,2.5.34,5.74-.78,5.77-.79.25-.09.54.04.62.3.09.25-.05.53-.3.62-.15.05-3.51,1.21-6.23.83-1.37-.19-2.8-.79-3.96-1.27-.71-.29-1.7-.7-1.94-.65l-.02.05c-.26.25-.71.69-.68.97.02.14.18.3.46.46.77.45,3.65,1.44,6.33,2.09,2.1.51,3.69.72,4.49.6.27-.04.52.15.57.41.04.26-.15.52-.41.56-.2.03-.42.05-.66.05h0Z"
  />
  <path
    d="m171.64,114.44c-3.06,0-7.04-2.01-7.08-2.04-.45-.23-3.77-.86-5.98-1.24-.09,0-.17-.05-.23-.11-.8-.65-1.14-1.3-1-1.93.2-.97,1.42-1.35,1.56-1.39.1-.03.2-.03.3,0,4.15,1.47,5.28.81,5.29.8.2-.17.51-.14.68.08.18.2.13.53-.08.69-.22.18-1.54.99-6.06-.6-.27.11-.68.34-.73.6-.05.21.17.55.58.9,1.16.2,5.41.95,6.14,1.31,1.39.71,5.83,2.56,7.98,1.72,2.49-.97,6.75-6.05,5.71-11.91-.67-1.69-1.85-3.59-2.49-3.53-.86.06-1.85.45-2.65.77-.45.18-.84.33-1.14.41-.83.2-1.68.6-1.86.83.3.51,1.4,1.44,1.73,1.51,0-.02.16-.1.37-.2.96-.44,2.74-1.27,4.39-1.09.27.03.47.27.44.54s-.28.46-.54.43c-1.38-.14-2.99.6-3.86,1-.35.16-.52.24-.66.27-.86.2-2.48-1.51-2.76-2.09-.12-.23-.12-.51,0-.75.43-.91,2.46-1.39,2.55-1.4.23-.06.59-.2,1-.36.87-.34,1.94-.77,2.96-.84,1.67-.15,3.09,3.23,3.49,4.24,1.18,6.56-3.47,11.99-6.28,13.08-.51.2-1.08.27-1.7.27l-.04.02Zm-47.16,10.65c-6.03,0-10.85-4.76-11.08-4.99-.05-.05-.09-.12-.12-.19-3.9-11.13-1.92-15.71-1.16-16.91-.57-.85-.75-2.1-.55-3.72.79-6.34,7.2-16.81,9.66-18.49,2.86-1.95,6.42-6.49,6.45-6.54.03-.04.07-.08.11-.11l2.77-1.87c.22-.15.53-.1.68.13s.1.53-.13.67l-2.71,1.83c-.46.59-3.78,4.75-6.62,6.68-2.28,1.56-8.49,11.8-9.24,17.8-.2,1.54,0,2.63.56,3.27.17.19.17.47,0,.64-.03.03-3.21,3.86,1.07,16.15.73.69,6.59,6,12.93,4.28,7.04-1.9,8.33-11.83,7.77-14.73,0-.06,0-.11,0-.17.9-5.56,1.56-11.74,1.14-12.49-.2-.19-.2-.47,0-.67.19-.2.51-.2.71,0,.97.89-.12,8.63-.85,13.24.69,3.91-1.33,13.82-8.5,15.76-.99.26-1.95.38-2.89.38h0Z"
  />
  <path
    d="m117.77,104.05c-.37,0-.79-.14-1.19-3.66-.03-.26.17-.51.43-.54.27-.03.52.17.55.43.05.44.12.92.19,1.36,0-.13.03-.27.04-.42.47-5.72,3.44-11.06,3.57-11.29l2.28-2.98c.17-.21.48-.25.69-.09.21.17.25.47.09.68l-2.24,2.92s-2.97,5.33-3.41,10.83c-.18,2.18-.37,2.74-.95,2.75h-.05,0Z"
  />
  <path
    d="m112.37,109.06s-.07,0-.11,0c-.26-.06-.44-.31-.38-.58.1-.43,2.33-10.56,6.55-11.64.26-.07.53.09.6.35.07.26-.09.53-.35.6-3.01.76-5.23,8.13-5.83,10.9-.05.23-.25.38-.48.38h0Zm14.61-25.54c-.11,0-.22-.04-.31-.12-1.94-1.61-4.78-1.72-4.81-1.72-.27,0-.49-.23-.48-.5,0-.26.22-.47.49-.47h.02c.13,0,3.2.12,5.4,1.94.2.18.23.48.06.68-.1.12-.23.18-.38.18h0Zm73.03,50.17c-2.86,0-7.11-.8-11.74-4.41-.18-.14-17.39-13.65-17.86-14.64-.12-.24,0-.54.24-.64.24-.12.54,0,.65.23.46.62,8.85,7.45,17.58,14.29,7.62,5.97,14.35,3.79,14.41,3.77.05-.02.11-.03.16-.03,1.24,0,4.15-.99,5.42-2,.74-.59,1.05-5.67.93-10.05,0-.11.03-.21.1-.3.02-.02,1.74-2.39,1.47-5.93-.27-3.67-4.44-19.13-7.99-26.52-2.6-5.42-5.81-9.35-9.8-11.99-2.14-1.41-10.49-4.04-10.56-4.06-.26-.08-.4-.35-.32-.61.08-.25.36-.4.61-.32.35.11,8.56,2.69,10.82,4.18,4.15,2.74,7.46,6.79,10.15,12.38,3.73,7.76,7.81,23.18,8.09,26.87.25,3.44-1.16,5.83-1.56,6.44.07,2.42.14,9.54-1.3,10.67-1.45,1.15-4.49,2.18-5.95,2.21-.34.11-1.62.46-3.53.46h0Z"
  />
  <path
    d="m192.94,111.36c-.15,0-.29-.07-.39-.19-5.33-6.73-7.88-6.16-7.91-6.16-.21.06-.45-.03-.56-.21-.84-1.35-3.77-2.08-4.82-2.25-.27-.04-.45-.29-.41-.56s.3-.45.57-.4c.17.03,3.88.63,5.31,2.43.99-.06,3.8.5,8.59,6.55.17.21.13.52-.09.68-.09.07-.2.11-.3.11h0Z"
  />
  <path
    d="m202.09,119.14c-.18,0-.35-.1-.44-.26-4-7.57-7.04-9.42-8.5-9.84-.99-.29-1.51-.03-1.52-.03-.23.13-.54.05-.67-.19-.14-.23-.05-.53.19-.66.09-.05.89-.46,2.28-.06,1.96.58,5.12,2.83,9.08,10.33.13.23.03.54-.2.65-.07.04-.16.06-.22.06h0Zm-8.29-22.65s-.1,0-.15-.02c-.26-.08-.4-.35-.32-.6,1.05-3.33,9.67-9.18,10.04-9.42.22-.15.53-.1.68.13.16.22.1.53-.13.67-2.42,1.63-8.86,6.41-9.65,8.91-.07.2-.26.34-.47.34h0Z"
  />
  <path
    d="m206.89,128.93c-.24,0-.45-.18-.49-.42-2.32-15.38-9.75-17.99-9.81-18.01-.25-.09-.4-.36-.31-.61.09-.25.36-.39.61-.31.33.11,8.07,2.75,10.49,18.8.04.26-.15.52-.41.56h-.08Zm-13.95-20.04c-.07,0-.14,0-.2-.05-.24-.12-.35-.4-.24-.64.6-1.36,1.38-27.4,1.25-28.92-.07-.26.09-.5.35-.57.25-.07.54.12.6.38.05.17-.51,27.78-1.32,29.52-.09.18-.26.28-.45.28h0Zm-6.19-3.86c-.07,0-.14,0-.2-.04-.24-.11-.36-.4-.25-.64,1.64-3.69,2.69-15.2,2.64-15.85-.02-.26.17-.5.43-.54.26-.04.5.14.55.39.11.62-1.01,12.54-2.71,16.38-.08.19-.26.29-.45.29h0Zm-8.65,15.3c-.2,0-.38-.12-.46-.31-.1-.25.03-.54.28-.63.31-.13,7.75-3.15,6.1-14.77-.04-.26.15-.52.42-.55.25-.04.52.15.56.42.92,6.46-.94,10.41-2.65,12.58-1.88,2.38-3.97,3.2-4.06,3.24-.06.02-.12.03-.18.03h0Zm-27.57,10.98h-.87c-.2,0-.39-.13-.46-.32l-.82-2.22c-.3-.2-.42-.48-.46-.67-.13-.57.2-1.15.41-1.44-.3-4,2.13-21.42,2.23-22.17.04-.26.29-.45.56-.42.27.04.46.28.42.55,0,.04-.12.82-.28,2.07.12-.6.23-1.04.34-1.27.12-.24.41-.34.65-.22.24.12.34.41.22.65-.63,1.27-1.74,13.08-2.33,20.71v1.27l.86,2.86c.05.15.02.3-.08.43s-.24.2-.39.2v.02Zm-1.37-4.15c-.16.21-.33.56-.29.72,0,.02,0,.07.12.12.11.06.2.16.24.26l.12.31-.17-.56s-.02-.09-.02-.14v-.73h0Zm.89-10.9c-.36,3.22-.67,6.41-.75,8.53.16-1.98.44-5.23.75-8.53Zm19,2.87h-.05c-.25-.02-.45-.23-.45-.49v-4.3c0-.27.22-.49.49-.49.17,0,.3.08.39.2l.04-.2c.05-.26.31-.43.58-.39.26.05.44.3.39.57l-.92,4.7c-.05.23-.25.39-.48.39h0Z"
  />
  <path
    d="m191.24,183.46c-4.98,0-10.54-.98-16.64-2.05-5.83-1.02-11.85-2.08-18.37-2.5-9.23-.59-17.24.37-23.09,1.06-5.54.66-8.33.99-8.85-.37-.47-1.23.13-2.22.6-3.02.58-.98.74-1.34.02-1.89-1.79-1.37-1.26-3.63-.67-4.77-.73-5.08,8.06-48.33,8.44-50.19.06-.26.31-.44.58-.38.26.05.44.31.38.58-2.61,12.83-9.23,46.81-8.42,49.95.03.12,0,.25-.05.36-.06.1-1.34,2.4.33,3.68,1.44,1.1.74,2.29.22,3.15-.43.72-.83,1.39-.53,2.19.24.65,4.1.2,7.8-.25,5.89-.7,13.96-1.67,23.28-1.07,6.57.42,12.62,1.48,18.48,2.51,9.28,1.63,17.29,3.03,23.75,1.08.1-.03.17-.09.26-.37.13-.34.22-1.15-.57-2.8-.03-.07-.05-.14-.05-.2,0-.94.51-2.68,2.37-2.93.34-.88,1.39-3.99.78-8.45-.37-2.74-4.09-11.7-7.69-20.36-3.62-8.7-6.74-16.22-6.74-17.98,0-.27.22-.49.49-.49s.49.21.49.49c0,1.56,3.38,9.72,6.66,17.61,3.62,8.72,7.36,17.73,7.76,20.6.76,5.57-.9,9.1-.98,9.25-.08.17-.24.27-.42.27-1.51.06-1.72,1.46-1.75,1.88.69,1.5.87,2.68.52,3.52-.28.66-.79.86-.85.88-2.36.71-4.89.99-7.59.99l.04.02Z"
  />
  <path
    d="m201.25,163.63h-.08c-.26-.04-.45-.29-.41-.56,1.18-7.37,0-29.25,0-29.47,0-.27.2-.5.47-.52.3-.02.51.2.52.46.05.91,1.19,22.2,0,29.67-.04.24-.24.41-.49.41h0Zm-12.65,4.12c-.21,0-.41-.14-.47-.34-3.58-11.54-6.18-42.46-6.21-42.78-.02-.26.18-.51.45-.53.24-.02.51.18.53.45.03.31,2.62,31.13,6.17,42.57.08.25-.07.53-.32.6-.05.02-.1.02-.15.02h0Zm-3.3,8.16h-.58c-1.74-.06-4.8-.2-8.36-.38-7.08-.33-15.9-.75-20.49-.81-5.63-.08-22.46-2.45-28.79-3.34-1.39-.2-2.48-.35-2.6-.36-.27-.02-.48-.25-.46-.52.02-.26.26-.48.52-.46.13,0,.79.1,2.68.37,6.32.89,23.1,3.26,28.67,3.33,4.6.06,13.42.48,20.51.82,3.55.17,6.61.31,8.35.37,2.36.09,5.52-.42,8.57-.91,3.59-.58,6.7-1.06,8.11-.53.25.1.38.38.28.63s-.38.38-.63.28c-1.15-.44-4.43.08-7.59.59-2.86.46-5.81.93-8.18.93l-.02-.02Z"
  />
  <path
    d="m183.41,178.23c-6.53,0-30.18-1.3-34.73-2.11-5-.89-16.11-1.89-18.07-1.39.31.28,1.25.65,2.81,1.1,1.06.3,1.42.41,1.42.86,0,.27-.22.49-.49.49-.14,0-.26-.06-.36-.16-.16-.06-.54-.17-.85-.26-1.93-.55-3.54-1.09-3.63-2.15-.02-.2.07-.39.22-.54,1.43-1.29,16.24.57,19.11,1.07,4.73.84,32.81,2.33,35.84,2.06.72-.07,1.66-.18,2.69-.29,3.47-.39,7.79-.88,9.45-.53.26.06.44.31.38.58-.06.26-.32.43-.59.37-1.5-.32-5.91.18-9.14.55-1.04.12-1.99.22-2.71.29-.28.03-.75.04-1.38.04h0Zm-55.73-29.38c-.19,0-.37-.11-.45-.29-.99-2.23-1.4-13.58-1.21-17.21.19-3.5,0-6.7,0-6.73-.02-.26.2-.5.46-.52.31-.02.51.19.52.46,0,.03.19,3.28,0,6.84-.2,3.89.26,14.8,1.13,16.76.11.24,0,.54-.25.64-.07.03-.13.04-.2.04h0Zm57.07,26.69c-.19,0-.37-.11-.45-.29-.1-.22-.02-.47.18-.6.38-.56.89-4.3,1.16-7.62-5.81-4.72-6.66-19.89-6.77-22.54-10.12-2.35-35.6-2.3-39.19-2.28-1.57,10.32-7.72,17.53-9.75,19.92-.3.35-.52.6-.6.74-.55.82-.11,6.76.06,7.5.07.21,0,.45-.2.58-.23.15-.54.07-.67-.16-.19-.3-.84-7.19,0-8.46.11-.16.34-.43.67-.83,2.02-2.37,8.17-9.58,9.6-19.84.03-.23.23-.42.48-.42,1.2,0,29.54-.24,40.21,2.39.21.05.37.24.37.46,0,.18.53,17.76,6.6,22.33.14.1.2.26.2.43-.65,8.19-1.43,8.54-1.69,8.64-.07.03-.14.04-.2.04v.02Z"
  />
  <path
    d="m185.49,171.02c-.12,0-.22-.04-.32-.12-9.85-8.37-10.05-22.48-10.02-24.69-5.04-2.74-29.4-2.65-32.97-2.62-1.94,16.23-11.75,21.55-12.88,22.1-.24.12-.54.03-.66-.21-.12-.24-.03-.53.21-.65,1.08-.54,10.62-5.72,12.39-21.77.03-.24.23-.43.48-.44,1.19-.02,29.13-.34,34.18,2.92.15.1.23.26.22.43,0,.16-.61,15.46,9.67,24.2.2.18.23.49.06.68-.1.12-.23.17-.37.17h0Zm-50.07,62.11c-.19,0-.36-.11-.45-.28-.08-.17-7.99-17.25-4.9-39.08-.71-7.07-.56-13.85-.55-13.92,0-.26.27-.46.51-.48.27,0,.49.23.48.5,0,.07-.17,6.83.56,13.85v.12c-3.07,21.56,4.73,38.42,4.81,38.59.12.24,0,.54-.23.64-.07.03-.14.05-.2.05h-.02Zm30.72-22.39h-.08l-1.88-.28c-.27-.04-.45-.29-.41-.56s.29-.45.56-.41l1.88.28c.27.04.45.29.41.56-.04.24-.24.41-.49.41h0Zm29.94,29.11c-.08,0-.16-.02-.22-.06-.24-.13-.33-.42-.2-.65.48-1.03,1.48-14.24.62-17.07-.93-3.06-.64-12.79-.63-13.2,0-.06.02-.13.04-.18,6.98-16,1.88-25.36,1.83-25.46-.14-.22-.06-.53.17-.66s.53-.07.67.16c.06.09,5.4,9.82-1.73,26.27-.03,1.01-.23,10.04.6,12.8.96,3.16-.1,16.67-.69,17.8-.09.17-.26.26-.44.26h0Z"
  />
  <path
    d="m206.71,305.35c-2.63,0-9.22-7.32-10.54-8.81-.14-.16-.16-.37-.07-.55.1-.18.28-.28.49-.26.16.02,3.58.38,5.81,1.89.81-2.75-.83-6.39-.85-6.43-.09-.19-.05-.39.09-.54.35-.37.5-.7.44-1.02-.11-.6-.92-1.09-1.19-1.23-.17-.08-.27-.24-.28-.43,0-.19.1-.35.25-.44,4.42-2.37,3.66-8.75,3.4-10.85-.02-.2-.05-.37-.06-.49-.05-.58,0-1.44.07-2.56.12-1.89.28-4.5-.07-6.75-.54-3.49-6.02-19.8-6.08-19.97-.02-.05-.03-.1-.03-.16v-2.83c-7.54-8.11-3.76-23.55-3.59-24.2.07-.26.33-.42.6-.35.26.07.42.33.36.6-.04.16-3.86,15.76,3.48,23.44.09.09.14.21.14.33v2.95c.46,1.36,5.55,16.57,6.1,20.06.37,2.36.2,5.02.08,6.96-.07,1.02-.12,1.91-.08,2.41,0,.12.03.27.05.47.25,2.15,1.01,8.48-3.22,11.39.42.33.9.83,1.01,1.48.1.56-.06,1.09-.48,1.62.42,1.01,1.65,4.42.67,7.12,1.41.87,5.79,3.83,4.55,6.46-.18.38-.51.61-.91.67-.06,0-.12,0-.18,0h.03Zm-8.88-8.43c3.2,3.48,7.6,7.62,8.92,7.45.07,0,.12-.03.16-.13.86-1.79-3.05-4.57-4.51-5.4-.02,0-.04-.02-.06-.04,0,0-.02-.02-.03-.02-1.22-1.04-3.17-1.59-4.48-1.85h0Z"
  />
  <path
    d="m190.19,305.49c-.06,0-.12,0-.17,0-.84-.13-1.02-1.23-1.04-1.36-.5-1.92-.25-3.63.74-5.02,2.06-2.9,6.58-3.35,6.77-3.37.26-.02.51.18.54.44.03.26-.18.51-.44.53-.04,0-4.27.43-6.06,2.96-.82,1.15-1,2.59-.58,4.26.05.29.17.55.24.59,0,0,.69,0,2.38-3.47.12-.24.41-.34.65-.22s.35.41.23.65c-1.67,3.43-2.61,4.03-3.25,4.03h-.03Z"
  />
  <path
    d="m203.81,307.21s-.08,0-.11,0c-1.7-.39-4.68-.94-5.46-.76-.13.04-.27,0-.39-.07-.14-.1-.72-.52-.92-1.08-2.11-.33-2.12-.78-2.12-1.05,0-.19.07-.33.2-.46-1.46-.6-1.41-1.07-1.4-1.29.02-.21.12-.38.29-.51l-1.02-.26c-.26-.07-.42-.33-.35-.59,0,0,0,0,0,0,.07-.26.33-.42.6-.35l2.84.74c.23.06.38.27.36.51s-.2.42-.44.45c-.51.05-.83.11-1.04.16.4.2,1.11.48,1.81.67.22.06.37.26.36.5,0,.22-.17.4-.38.45.25.05.53.1.79.14s.46.28.42.55c0,.1.18.34.41.53,1.25-.13,4.11.46,5.24.7l.2-.56c.06-.18.21-.29.39-.32-.04-.19-.19-.53-.35-.78-.15-.22-.08-.53.16-.67.22-.15.53-.08.67.16.22.36.72,1.25.4,1.84-.06.12-.2.28-.45.37l-.25.69c-.07.2-.26.32-.46.32h0Z"
  />
  <path
    d="m191.17,302.05c-.5,0-.84-.31-.87-.78-.08-1.42,3.2-3.25,4.21-3.78.16-.08.33-.08.48,0s.23.24.23.42c0,1.95-2.8,4.09-4.03,4.13h-.03Zm2.72-3.09c-1.33.8-2.37,1.64-2.58,2.1.28-.07.83-.33,1.46-.85.48-.4.86-.83,1.12-1.24h0Zm5.7,1.79h-.07l-3.75-.52c-.27-.04-.46-.28-.42-.55s.29-.45.56-.42l3.75.52c.27.04.46.28.42.55-.04.24-.24.42-.49.42Zm2.84,3.72h-.09l-4.71-.83c-.26-.05-.45-.3-.4-.57.05-.26.3-.44.57-.39l4.71.83c.26.05.45.3.4.57-.04.23-.25.4-.48.4h0Zm-4.71-1.86c-.2,0-.39-.12-.46-.31-.1-.25.03-.54.28-.62l2.36-.88c.25-.1.54.03.63.28s-.03.54-.28.62l-2.36.88c-.06.02-.12.03-.18.03Zm6.1,4.6c-.25,0-.47-.2-.49-.45-.02-.26.18-.51.45-.53,1.91-.16,1.97-.88,1.97-.89-.02-.27.2-.49.46-.51.24,0,.51.2.52.47,0,.07.06,1.65-2.88,1.88h-.04v.02Zm-14,.96s-.07,0-.11,0c-.26-.06-.43-.32-.37-.59.27-1.17.9-2.01,1.85-2.49,2.45-1.21,6.21.43,6.38.5.24.11.36.4.24.64-.11.24-.4.35-.65.24-.04-.02-3.51-1.53-5.54-.52-.69.34-1.13.95-1.34,1.82-.05.22-.25.38-.48.38h0Z"
  />
  <path
    d="m201.42,318c-4.86,0-10.15-.5-10.5-6.23-1.25-.64-6.22-3.52-6.65-8.94-.56-.52-2.39-2.4-2.62-4.66-.44.03-1.07-.02-1.67-.41-.89-.58-1.4-1.68-1.54-3.29-.14-1.62.26-2.7,1.18-3.24.61-.36,1.37-.39,2.06-.26-.78-1.21-1.67-3.08-1.43-5.1-.25-1.26-2.89-14.61-2.34-17.41.33-1.67-.05-2.82-.41-3.94-.21-.66-.44-1.36-.5-2.12-.22-3.05-.65-6.68-1.19-7.7-.7-1.33-.2-7.22-.07-8.67-.31-.82-2.17-5.79-2.62-10.74-.36-3.93-2.64-8.23-4-10.81-.46-.86-.82-1.54-1.02-2.03-.78-1.88-.69-5.25-.66-5.98-.37-.69-2.15-4.15-2.21-5.86,0-.27.2-.5.47-.51h.02c.26,0,.48.2.49.47.06,1.38,1.58,4.48,2.16,5.56.04.08.06.17.06.25,0,.04-.2,3.82.59,5.7.19.45.56,1.14.99,1.95,1.39,2.63,3.74,7.04,4.11,11.17.48,5.15,2.59,10.53,2.6,10.57.03.07.04.15.03.22-.26,2.73-.51,7.38-.06,8.24.75,1.41,1.16,6.13,1.31,8.09.05.64.24,1.25.45,1.89.38,1.18.82,2.52.44,4.42-.42,2.16,1.36,12.14,2.35,17.12,0,.05,0,.11,0,.16-.38,2.96,2.2,5.76,2.22,5.78.17.19.18.46,0,.64s-.44.22-.64.09c-.55-.36-1.89-.84-2.7-.36-.57.33-.8,1.11-.69,2.32.11,1.28.49,2.16,1.09,2.56.66.43,1.43.19,1.44.19.16-.05.32-.03.45.07s.2.24.2.41c-.06,2.41,2.44,4.61,2.47,4.63.1.09.16.2.17.34.32,5.61,6.31,8.42,6.37,8.45.17.08.28.24.28.43.16,5.28,4.9,5.65,11.07,5.57h1.49c2.93-.01,4.48-1.35,4.67-4,.32-4.51-2.69-6.48-2.82-6.56-.22-.15-.29-.45-.15-.67s.45-.29.67-.15c.15.1,3.64,2.34,3.28,7.45-.33,4.73-.87,4.89-5.65,4.91h-1.48c-.51,0-1.03,0-1.56,0l.02-.03Zm-48.02-22.25h-.14c-.11,0-.21-.05-.29-.13-.07-.06-6.96-6.11-13.39-4.29-.25.03-4.11.35-7.08-1.09-.57-.07-2.93-.43-3.25-1.86-.24-1.09.73-2.3,3.06-3.78-.24-.18-.5-.41-.75-.75-1.11-1.47-2.11-4.88-.58-12.69-.1-.09-.19-.21-.27-.38-.49-.92-.37-2.53.35-4.79,1.43-4.47,3.03-19.65,2.91-21.52-.11-1.6.48-6.21,1.22-12.06.23-1.84.48-3.79.72-5.75.47-3.84-.29-6.52-1.27-9.89-.99-3.45-2.22-7.76-2.5-14.75-.27-6.9-.75-10.27-1.13-12.99-.38-2.67-.65-4.61-.52-8.47,0-.27.27-.47.51-.47.27,0,.49.23.48.51-.14,3.78.14,5.67.51,8.3.39,2.74.87,6.15,1.14,13.09.27,6.89,1.48,11.12,2.46,14.52.99,3.48,1.79,6.24,1.3,10.27-.24,1.96-.49,3.9-.72,5.76-.71,5.56-1.32,10.36-1.22,11.87.15,2.22-1.58,17.6-2.96,21.88-1.15,3.61-.29,4.2-.28,4.2.24.07.35.3.3.55-1.61,7.99-.51,11.05.29,12.16.55.76,1.08.85,1.1.85.2.03.38.19.42.39s-.05.41-.22.52c-3.37,1.97-3.44,2.95-3.39,3.2.15.67,1.74,1.03,2.48,1.11.06,0,.12.02.18.05,2.74,1.37,6.51,1.05,6.55,1.04,6.45-1.83,13.01,3.48,14.09,4.4.3,0,.82-.1.97-.4.11-.2.28-1.06-1.8-3.46-1.92-2.2-2.72-4.03-2.4-5.42.19-.8.69-1.22.99-1.4,6.53-17.88,4.69-22.2,4.01-23.83l-.04-.1c-.76-1.8-.04-3.83,0-3.92,2.27-5.03.7-10.5.68-10.54-.04-.14-.02-.28.06-.4s.2-.2.35-.21c1-.14,1.95-4.56,2.2-8.61,0-.2.15-.37.33-.43,1.88-.62,2.75-8.06,2.85-12.59,0-.04,0-.08.02-.12,1.32-4.86,1.86-10.47,2.07-13.37.08-1.09.12-1.86.13-2.17-.4-.8-.93-3.53-1.94-12.22l-.13-1.09c-.2-1.62-2.47-14.95-2.5-15.08-.05-.26.14-.52.4-.57.26-.04.52.14.57.4.1.55,2.29,13.49,2.5,15.13l.13,1.1c.86,7.36,1.48,11.36,1.83,11.9.09.1.12.2.12.32,0,0-.03.9-.13,2.34-.2,2.94-.76,8.58-2.09,13.5-.05,2.13-.44,11.72-3.21,13.3-.16,2.23-.73,7.88-2.53,9.03.34,1.43,1.23,6.21-.83,10.76s-.6,1.75,0,3.18l.04.1c.73,1.73,2.68,6.33-4.05,24.71-.05.13-.15.22-.26.28,0,0-.49.23-.62.87-.17.74.09,2.13,2.19,4.55,1.8,2.07,2.44,3.56,1.94,4.54-.44.86-1.55.94-1.93.94h0Z"
  />
  <path
    d="m163.38,200.57c-.23,0-.44-.16-.48-.39-.06-.26.12-.52.38-.58.03,0,2.96-.62,4.48-3.52,1.29-2.45-1.07-12.45-2.1-16.1-.07-.26.08-.53.34-.6.26-.07.54.08.6.34.39,1.38,3.73,13.58,2.02,16.81-1.76,3.33-5.02,4-5.16,4.03h-.1,0Zm-28.95-15.32c-2.72,0-3.47-4.74-3.51-4.95-.04-.26.15-.52.41-.56.26-.04.52.15.56.41.18,1.15.98,4.12,2.54,4.12h.02c6.81-.1,11-5.72,11.04-5.77.16-.21.47-.26.68-.11.22.16.27.46.11.68-.18.24-4.51,6.08-11.82,6.17h-.03,0Zm-4.82,129.92c-2.31,0-4.71-.23-6.39-.49-4.13-.61-6.99-1.39-6.37-5.77.49-3.45,5.27-6.1,7.01-6.96-.22-.41-.03-.79.25-1.21.24-.37.58-.87.86-1.79.55-1.84,4.01-3.66,7.33-5.18.29-.14.52-.23.65-.3.04-.43-.19-1.77-.43-2.85-.06-.26.11-.53.37-.59.26-.06.53.11.59.37.76,3.32.38,3.62.18,3.78-.11.09-.29.18-.94.47-1.56.72-6.3,2.91-6.8,4.58-.31,1.07-.71,1.67-.98,2.06-.06.1-.14.2-.18.27.03,0,.09.07.21.16.14.11.21.27.2.45s-.13.32-.29.39c-.07.03-6.55,2.89-7.05,6.49-.49,3.41,1.32,4.04,5.54,4.67,4.27.63,9.76.78,11.73-.42.65-.39,1.01-.84,1.39-1.31.8-.99,1.71-2.11,5.28-2.87,5.41-1.16,7.11-1.96,7.31-2.17.12-.41.81-3.31.76-3.76-.09-.7.9-1.5,1.75-2.05.6-.48,1.28-1.2,1.46-1.61l-.49-.43c-.11-.1-.17-.24-.17-.39s.09-.28.2-.37c.14-.1,1.29-.99.54-2.48-.12-.24-.02-.54.22-.65s.54-.02.66.21c.73,1.45.2,2.63-.4,3.31l.29.26c.11.1.17.22.17.36,0,.99-1.46,2.21-1.92,2.58-.66.44-1.29.99-1.35,1.19.09.65-.74,3.88-.85,4.21-.24.72-2.93,1.64-7.99,2.72-3.23.69-3.95,1.59-4.72,2.53-.42.52-.85,1.04-1.64,1.53-1.28.77-3.59,1.03-6,1.03Z"
  />
  <path
    d="m139.71,308.93c-.11,0-.21-.04-.3-.11-.21-.17-.24-.48-.08-.68,0,0,.44-.57.32-1.17-.08-.39-.37-.75-.89-1.05-1.61-.96-9.77-1.36-12.79-1.43-.14,0-.27-.07-.36-.18l-1.18-1.38c-.18-.2-.15-.52.06-.68.2-.18.52-.15.69.06l1.03,1.21c1.85.05,11.02.36,13.04,1.57.77.46,1.23,1.03,1.36,1.73.19,1.04-.5,1.91-.53,1.95-.1.12-.24.19-.38.19v-.02Zm2.35-1.99c-.6,0-.95-.26-1.13-.51-.99-1.36.93-4.98,1.54-6.07.11-.19.32-.28.55-.23.21.05.37.23.38.45.06,1.26.41,2.43.65,2.5.64-.05,3.14-1.35,4.71-2.25.2-.12.46-.08.61.09.16.17.18.43.04.61s-3.4,4.66-6.82,5.36c-.2.04-.36.06-.52.06h-.02Zm.56-4.72c-.75,1.59-1.23,3.18-.89,3.64.12.16.46.12.65.08,1.64-.33,3.32-1.75,4.52-2.98-1.08.55-2.22,1.06-2.79,1.1-.27.03-.54-.08-.76-.26-.37-.33-.6-.96-.73-1.56h0Z"
  />
  <path
    d="m151.84,301.73c-.16,0-.31-.08-.41-.21-2.13-3.09-7.7-5.28-8.89-5.73l-2.12,1.38c-.12.08-.27.1-.41.06l-1.91-.55c-.17-.05-.29-.18-.33-.33-.05-.17,0-.33.11-.46.35-.39.67-2.67.77-4.58,0-.26.23-.5.52-.46.27,0,.48.24.47.51-.04.83-.2,3.27-.68,4.55l1.12.32,2.13-1.39c.13-.09.29-.1.43-.05.28.1,7.04,2.46,9.6,6.17.16.22.1.53-.13.67-.09.06-.19.09-.27.09h0Z"
  />
  <path
    d="m151.84,297.25c-.14,0-.27-.06-.37-.17-1.46-1.67-8.07-4.13-10.49-4.94-.25-.09-.4-.36-.31-.61s.36-.39.62-.3c.36.12,8.98,3.02,10.92,5.22.18.2.16.51-.05.68-.1.08-.2.12-.32.12Zm48.94.28c-.16,0-.31-.06-.41-.18-.18-.2-.17-.48.02-.66.03-.26.07-1.03-.14-3.29-.12-1.26-.61-2.1-1.47-2.49-1.16-.53-2.74-.14-3.4.34-.71.51-.98,3-.93,4.6,0,.27-.2.5-.48.5-.29,0-.5-.2-.51-.47-.02-.73-.06-4.43,1.33-5.42.84-.6,2.81-1.15,4.38-.44.83.38,1.86,1.25,2.05,3.29.35,3.91.09,4.03-.25,4.18-.06.03-.13.04-.2.04h0Zm-15.88,5.07c-.11,0-.21-.04-.31-.11-.21-.17-.24-.48-.07-.68.15-.19,3.73-4.5,8.29-5.25.26-.05.52.14.57.4s-.14.52-.41.56c-4.19.68-7.65,4.86-7.69,4.9-.1.12-.24.19-.38.19Zm-1.39-3.02c-.16,0-.31-.08-.41-.21-.16-.22-.1-.53.13-.67.29-.2,7.1-4.74,9.61-4.96.26-.03.51.18.54.44.02.26-.18.51-.45.53-1.87.16-7.23,3.51-9.14,4.79-.09.06-.18.09-.27.09h0Zm.43-11.55c-.89,0-1.32-.2-1.45-.62-.1-.3-.4-1.22,4.68-3.72.24-.12.54-.02.66.22.12.24.02.54-.22.65-1.66.82-3.51,1.92-4.04,2.48.32.04,1.04.03,2.63-.23,1.69-.28,3.67-.58,5.65-.87,3.72-.55,8.65-1.28,10.17-1.84-.34-.1-.95-.22-2.02-.37l-8.94-1.17c-.27-.04-.46-.28-.42-.55s.28-.46.56-.42l8.94,1.17c2.44.32,3.22.63,3.23,1.3,0,.98-1.79,1.43-11.36,2.85-1.98.29-3.95.59-5.63.87-1.04.18-1.83.26-2.42.26h-.02Zm9.48-10.27c-4.07,0-10.05-8.1-10.3-8.45-.16-.21-.11-.53.11-.68s.53-.11.68.11c1.69,2.31,6.73,8.27,9.65,8.04,1.87-.14,3.36-2.84,4.66-5.24,1.18-2.17,2.2-4.03,3.55-4.11.31,0,.51.19.52.46.02.26-.2.5-.46.52-.8.05-1.83,1.93-2.75,3.6-1.43,2.61-3.05,5.57-5.45,5.75h-.21,0Zm-61.37,27.5c-.14,0-.26-.03-.38-.1-.61-.33-.41-1.23-.34-1.52.33-1.47,2.37-5.79,3.42-5.86.26-.02.52.15.61.42.09.25-.04.53-.3.62-.1.03-.2.04-.28.02-.75.76-2.56,4.32-2.58,5.38.23-.12.73-.45,1.7-1.41,2.05-2.05,2.99-3.91,2.81-5.52-.18-1.55-1.37-2.32-1.42-2.36-.22-.15-.29-.45-.16-.67.15-.22.45-.29.67-.16.07.04,1.63,1.03,1.87,3.05.22,1.92-.81,4.05-3.08,6.33-1.22,1.23-1.99,1.77-2.56,1.77h0Zm-6.48-4.76c-.15,0-.3-.07-.4-.2-.17-.21-.12-.52.11-.68,1.09-.8,6.66-4.78,8.72-4.28.26.06.43.32.36.59-.06.26-.33.43-.6.36-1.25-.29-5.51,2.37-7.91,4.13-.09.07-.19.1-.29.1h0Z"
  />
  <path
    d="m131.22,302.61h-.04l-4.99-.44c-.27-.02-.47-.26-.45-.53.02-.27.28-.46.54-.44l4.2.37-1.19-3.02c-.06-.15-.04-.32.05-.45.09-.14.24-.21.41-.21h3.02v-1.67c0-.27.22-.49.49-.49s.49.21.49.49v2.16c0,.27-.22.49-.49.49h-2.79l1.22,3.09c.06.16.04.33-.07.47-.1.13-.24.2-.39.2h0Zm3.88-4.23c-.06,0-.12,0-.18-.03-.25-.1-.38-.38-.28-.63.03-.19-.24-1.01-.6-1.74-.12-.24,0-.54.23-.65s.54,0,.65.22c.33.68.85,1.92.62,2.51-.08.2-.26.31-.46.31h0Z"
  />
  <path
    d="m137.87,304.01s-.08,0-.12-.02c-.26-.07-.42-.33-.36-.6l.09-.37c.99-4.17.35-6.28-.34-7.32-.71-1.05-1.61-1.21-1.65-1.22l-1.72-.42c-.26-.07-.42-.33-.36-.6.07-.26.33-.42.6-.35l1.67.42s1.29.2,2.24,1.59c1.19,1.74,1.37,4.47.51,8.12l-.1.39c-.06.22-.25.37-.48.37h.02Zm-6.1,8.05c-5.49,0-13.5-2.39-13.91-2.51-.26-.08-.41-.35-.33-.6s.35-.4.61-.32c.12.04,12.08,3.6,16.51,2.11,2.18-.73,3.98-1.74,6.07-2.89,2.32-1.29,4.97-2.75,8.89-4.3.25-.1.54.02.64.27.1.25-.02.54-.27.63-3.86,1.53-6.47,2.98-8.77,4.25-2.13,1.18-3.97,2.19-6.23,2.97-.86.29-1.96.41-3.19.41v-.02Zm72.15,2.84c-3.55,0-7.74-.53-9.38-1.25-2.71-1.2-3.89-4.1-4.16-4.88l-3.98-2.31c-.23-.14-.31-.44-.18-.66.14-.23.44-.31.67-.18l4.15,2.4c.11.06.19.17.22.28,0,.03,1.01,3.29,3.68,4.46,3.12,1.38,12.9,1.52,13.79.5.18-.2.49-.22.69-.05.2.18.22.49.05.68-.63.72-2.92,1.01-5.56,1.01h0Z"
  />
  <path
    d="m188.89,306.52c-.08,0-.16-.02-.22-.05-1.83-.92-2.93-1.95-3.27-3.06-.26-.87.05-1.46.09-1.52.13-.23.42-.31.65-.2.62.31,1.11.41,1.33.24.3-.21.29-.96.24-1.26-.04-.26.13-.51.39-.56.26-.06.52.12.58.37l.69,2.97s0,.08,0,.11v2.47c0,.17-.09.32-.23.42-.08.05-.17.07-.25.07h0Zm-2.62-3.72c.05.58.54,1.45,2.13,2.4v-1.59l-.23-.99s-.08.07-.12.1c-.44.32-1.03.35-1.78.09Zm-51.37-13.76c-.4,0-.51-.17-.62-.33-.54-.79.57-2.13,7.87-8.08.66-.54,1.22-.99,1.59-1.31,3.04-2.58,10.54-15.38,10.61-15.51.14-.23.44-.31.67-.18.23.14.31.43.18.66-.31.54-7.66,13.09-10.83,15.76-.37.31-.94.77-1.61,1.32-2.01,1.63-6.44,5.24-7.43,6.6.8-.2,2.98-1.06,8.95-4.32.24-.13.54-.05.66.19s.05.53-.2.66c-6.71,3.68-8.98,4.53-9.86,4.53h.02Zm18.98-82.31h-.07c-.27-.04-.46-.28-.41-.56.65-4.4-.85-27.11-.86-27.34-.02-.26.19-.5.46-.52.28-.02.51.19.53.46.06.94,1.52,23.04.85,27.55-.04.24-.24.42-.49.42h0Zm-2.04,39.49c-.21,0-.42-.15-.48-.36-.94-3.59.15-7.61,1.19-10.71,1.25-3.72.5-19.8.49-19.97,0-.26.2-.5.47-.51.26-.04.5.2.52.46.03.67.77,16.43-.54,20.32-1.48,4.42-1.84,7.55-1.17,10.16.07.26-.09.53-.35.6-.04,0-.08.02-.13.02h0Zm36.36-13.09c-.15,0-.3-.07-.4-.2-3.11-4.17-5.77-19.25-5.88-19.89-.05-.26.14-.52.4-.57.26-.05.52.14.57.4.03.16,2.74,15.5,5.71,19.48.17.21.12.52-.11.68-.09.07-.19.1-.29.1h0Zm8.55-25.23h-.08c-.26-.04-.45-.29-.4-.56.64-3.8,0-22.35,0-22.53,0-.27.2-.5.48-.51.26,0,.5.2.51.47.03.77.65,18.84,0,22.73-.04.23-.24.41-.49.41h-.02Zm-23.02,22.21h-.1c-.26-.05-.44-.31-.38-.58.47-2.3-1.8-33.23-3.06-49.25-.02-.26.18-.5.45-.53.27-.02.51.18.53.45.15,1.9,3.66,46.51,3.05,49.52-.05.23-.25.39-.48.39h0Zm14.14,19.1c-.24,0-.41-.1-.52-.2-.27-.24-1.08-.98,4.03-11.95.12-.24.41-.35.65-.23s.35.4.24.64c-2.05,4.39-4.06,9.33-4.19,10.67.82-.46,2.84-2.68,4.44-4.73.17-.21.48-.25.69-.09s.25.47.09.68c-.93,1.19-4.04,5.08-5.35,5.2,0,0-.09,0-.09,0Zm2.39,7.95c-.22,0-.42-.15-.48-.37-.07-.26.1-.53.36-.59.73-.18,2.75-.85,3.28-1.79.13-.22.15-.44.08-.67-.34-1.07-7.03-2.85-13.04-3.88-.26-.05-.45-.3-.4-.57.05-.26.3-.45.57-.4,3.07.53,13.13,2.41,13.81,4.55.16.49.1.99-.16,1.44-.83,1.47-3.59,2.18-3.9,2.25-.04,0-.08,0-.12,0h0Zm-54.83-4.54c-.13,0-.26-.05-.36-.16-.19-.2-.18-.51.03-.69.09-.08,8.77-8.09,11.63-10.62,2.69-2.39,2.59-8.45,2.59-8.51,0-.27.2-.49.48-.5.26,0,.5.2.51.48,0,.26.12,6.57-2.91,9.26-2.85,2.53-11.53,10.54-11.62,10.61-.1.09-.21.13-.33.13h0Zm10.46,11.17c-.16,0-.31-.08-.41-.21-2.23-3.34-8.4-6.44-8.46-6.47-.24-.12-.34-.41-.21-.65.12-.24.42-.34.66-.21.26.13,6.46,3.25,8.84,6.8.15.22.09.53-.14.67-.09.06-.18.08-.27.08h0Zm62.12-148.21c-2.64,0-6.3-2.53-6.77-2.86-.22-.16-.27-.46-.12-.68.16-.21.47-.27.68-.12,1.35.96,5.24,3.27,6.97,2.55.47-.2.75-.61.86-1.3.05-.26.29-.44.57-.4.26.04.45.29.41.56-.17,1.02-.65,1.71-1.44,2.04-.35.15-.74.2-1.16.2h0Zm-60.03-27.94c-.17,0-.32-.08-.41-.22-1.62-2.5-2.45-9.14-2.48-9.42-.03-.26.16-.51.43-.55.26-.04.52.16.55.42,0,.07.84,6.71,2.33,9.01.15.22.08.53-.15.67-.08.05-.18.08-.26.08h0Zm-5.28,27.24c-.08,0-.15-.03-.23-.06-.52-.19-.36-.74-.16-1.43.63-2.22-1.99-6.95-3.06-8.58-.03-.04-.05-.09-.06-.14-.68-2.42,6.41-5.66,8.6-6.59.24-.11.54,0,.64.25.11.24,0,.54-.25.64-4.04,1.73-8.21,4.24-8.06,5.38.4.62,2.93,4.67,3.24,7.7.21-.45.43-.93.63-1.39.02-.06.06-.11.1-.15.15-.16,1.48-1.46,2.7-1.38.44.03.81.24,1.08.6.53.71.61,1.56.68,2.24.07.69.14,1.13.44,1.29.84.45,5.22-.04,5.77-.41.11-.12.21-.73.27-1.06.12-.71.21-1.27.66-1.45.13-.05.39-.11.68.11.33.23,1.91.51,3.19.61.27.03.47.26.45.53-.03.26-.27.46-.54.44-.43-.04-2.43-.23-3.38-.63-.04.17-.08.39-.11.57-.12.68-.22,1.32-.61,1.65-.77.64-5.69,1.13-6.85.52-.78-.41-.87-1.24-.95-2.05-.07-.62-.14-1.27-.5-1.78-.1-.14-.2-.2-.36-.21-.57-.04-1.4.59-1.86,1.03-1.43,3.2-1.81,3.74-2.16,3.74h-.02Z"
  />
  <path
    d="m151.56,113.16c-.21,0-.42-.15-.48-.36-.07-.26.09-.53.34-.6s.43-.13.56-.19c-.16-.07-.36-.14-.55-.19-.26-.07-.43-.33-.36-.59.07-.26.33-.42.6-.36.68.17,1.5.5,1.51,1.12,0,.63-.75.93-1.5,1.12-.04,0-.09.02-.13.02h0Zm-7.62-3.73c-.24,0-.46-.19-.49-.43-.03-.26.16-.51.43-.55,6.33-.78,6.78-.39,6.95-.24.2.18.22.49.04.68-.17.19-.43.21-.62.09-.53-.15-3.62.12-6.23.44h-.07Zm13.43.77c-.07,0-.13,0-.2-.04-.36-.15-3.16-.49-5.66-.73-.27-.03-.47-.26-.44-.54.03-.26.27-.46.54-.44.88.09,5.28.53,5.95.81.25.11.37.39.26.63-.08.19-.26.29-.45.29h0Z"
  />
  <path
    d="m145.9,108.67c-.26,0-.45-.06-.49-.07-.03,0-.06-.02-.08-.04-.07-.04-1.63-.9-1.72-2.32-.06-.92.51-1.8,1.67-2.62.11-.07.23-.1.35-.09.8.12,2.27.88,2.08,2.96-.09.93-.4,1.58-.94,1.92-.31.2-.62.25-.88.25h0Zm-.15-.99c.09.02.3.04.5-.09.26-.18.43-.59.49-1.19.13-1.34-.68-1.75-1.05-1.85-.75.57-1.11,1.12-1.08,1.64.04.69.81,1.29,1.16,1.5h0Z"
  />
  <path
    d="m148.82,108.08c-.08,0-.16-.02-.23-.06l-.86-.46c-.14-.07-.22-.2-.25-.35l-.51-3.11c-.04-.24.12-.49.36-.55l2.1-.57c.16-.04.33,0,.46.11l.64.57c.13.12.19.28.16.45s-.15.3-.3.37l-1.05.4v.16h.88c.27,0,.49.21.49.49v.58c0,.18-.1.33-.24.42l-.54.3-.67,1.02c-.1.15-.25.22-.41.22h0Zm-.41-1.26l.24.14.49-.74c.04-.07.1-.12.17-.16l.06-.03h-.54c-.27,0-.49-.21-.49-.49v-.99c0-.1.03-.2.09-.27l-.41.11.4,2.44h0Zm-2.83.14h-.04c-.44-.02-.62-.26-.69-.41-.23-.47.15-1.07.31-1.31.1-.13.2-.2.41-.2.16,0,.31.08.4.21.21.31.54.91.29,1.35-.06.11-.24.36-.67.36h0Zm-26.66,12.73c-.2,0-.39-.13-.46-.32-1.93-5.36-5.08-8-5.12-8.03-.2-.18-.23-.48-.06-.68s.48-.23.69-.07c.14.12,3.38,2.83,5.41,8.45.09.25-.04.54-.29.62-.06.02-.11.03-.17.03h0Zm-5.27-20.11c-.14,0-.26-.05-.36-.16-.19-.2-.18-.51.03-.68,1.32-1.2,4.53-3.93,5.78-3.42.25.11.37.39.27.63-.11.25-.39.37-.64.26-.48-.14-2.71,1.39-4.75,3.24-.1.09-.21.13-.33.13Zm92.16,15.3s-.09,0-.13-.02c-.26-.07-.42-.34-.34-.6.45-1.64,1.53-6.2,1.07-7.65-.61-1.93-1.07-10.98-1.09-11.36,0-.26.2-.5.47-.51.28-.03.5.2.52.46.17,3.21.59,9.67,1.04,11.12.62,1.97-.89,7.57-1.06,8.19-.06.21-.25.36-.48.36Zm-11.47,9.51c-.91,0-2.45-.95-2.67-4.51-.27-4.4-2.04-9.95-2.06-10.01-.08-.25.06-.53.32-.61.25-.08.54.06.61.31.08.23,1.82,5.73,2.1,10.24.17,2.72,1.2,3.59,1.69,3.59h0c.17,0,.17-.1.17-.15,0-.27.22-.49.49-.49s.49.21.49.49c0,.63-.47,1.1-1.11,1.12h-.04,0Zm-26.43-83.06c-.08,0-.17-.02-.24-.06-3.17-1.77-4.15-7.43-4.18-7.67-.05-.26.14-.52.4-.56.27-.05.53.14.57.4,0,.06.94,5.44,3.7,6.97.23.13.32.43.19.66-.09.16-.25.24-.43.24h0Zm-18.67-2.05s-.11,0-.16-.03c-1.67-.56-2.63-4.79-2.81-5.64-.06-.26.12-.52.38-.58s.53.12.59.38c.39,1.87,1.33,4.63,2.16,4.91.25.09.4.36.31.61-.07.2-.26.33-.47.33h0Zm23.37,44.99c-.24,0-.46-.19-.49-.43-.03-.26.16-.51.43-.55.58-.15,2.72-2.93,4.36-5.43.15-.22.46-.28.68-.15.22.15.29.45.15.67-1.12,1.72-3.86,5.72-5.06,5.87h-.07Zm-32.02,7.67c-1.02,0-1.86-.71-1.9-.74-.2-.18-.22-.49-.05-.68.18-.2.49-.22.69-.05,0,0,.72.61,1.44.49.14-.02.28-.15.51-.36.63-.59,1.59-1.47,4.35-.89,2.23.47,3.32.87,3.26,1.21-.05.26-.35.42-.62.4-.07,0-.14-.04-.2-.08-.25-.07-.92-.21-2.64-.59-2.26-.48-2.94.15-3.47.64-.28.26-.58.53-1,.6-.13.02-.24.03-.36.03h0Zm-3.56,28.41c-.17,0-.32-.08-.42-.23-.15-.23-.07-.53.16-.67,1.08-.67,1.6-8.15,1.46-14.98v-.11l.29-1.49c.23-1.18.07-8.13,0-10.7,0-.27.2-.5.48-.5s.5.2.51.47c0,.38.29,9.39,0,10.92l-.28,1.43c.05,2.54.16,14.49-1.93,15.77-.08.05-.17.08-.26.08v.02Z"
  />
  <path
    d="m147.97,93.05c-.08,0-.16-.02-.22-.05-1.93-.98-4.5-.38-4.52-.38-.04,0-.08,0-.12,0h-2.5c-.27,0-.49-.21-.49-.49s.22-.49.49-.49h2.44c.44-.1,3.03-.6,5.14.47.24.13.34.42.21.65-.09.17-.26.26-.44.26h0Zm46.27,15.85c-.13,0-.26-.05-.36-.15-.19-.2-.18-.51.02-.69.04-.04,4.2-3.99,4.32-6.98,0-.27.22-.49.51-.47.27,0,.48.23.47.51-.14,3.38-4.45,7.47-4.63,7.65-.1.09-.21.14-.34.14h.02Zm14.08,16.12c-1.45,0-3.15-3.9-3.82-5.59-.1-.25.03-.54.28-.63s.54.03.63.27c1.02,2.59,2.38,4.91,2.9,4.97,0,0,.07-.08.16-.31.74-2.05-3.45-6.07-5.13-7.44-.2-.18-.24-.48-.07-.68s.48-.23.69-.07c.67.56,6.54,5.47,5.43,8.53-.28.78-.73.96-1.06.96h0Zm-90.21-15.2c-.27,0-.49-.21-.49-.49,0-1.33-1.5-4.92-2.08-6.18-.11-.24,0-.54.24-.64s.54,0,.65.24c.09.2,2.17,4.78,2.17,6.58,0,.27-.22.49-.49.49h0Zm21.52,39.44s-.09,0-.13-.02l-1.5-.41c-.26-.07-.42-.34-.34-.6.07-.26.35-.41.6-.34l1.5.41c.26.07.42.34.34.6-.06.21-.25.36-.48.36Zm-.98,3.3s-.11,0-.16-.03l-2-.66c-.25-.09-.4-.36-.31-.61.09-.25.36-.4.62-.31l2,.66c.25.09.4.36.31.61-.07.2-.26.33-.47.33h0Zm-.99,2.66s-.07,0-.1,0l-2.22-.46c-.26-.06-.44-.31-.38-.58.06-.26.32-.44.59-.38l2.22.46c.26.06.44.31.38.58-.05.23-.25.39-.48.39h0Zm-2.22,3.93h-2.79c-.27,0-.49-.21-.49-.49s.22-.49.49-.49h2.79c.27,0,.49.21.49.49s-.22.49-.49.49Zm5.49-14.19h-1.3c-.27,0-.49-.21-.49-.49s.22-.49.49-.49h1.3c.27,0,.49.21.49.49s-.22.49-.49.49Zm-11.22,18.13c-.21,0-.41-.14-.47-.34-.08-.25.07-.53.32-.6l2.71-.83c.25-.08.54.07.61.32s-.07.53-.32.6l-2.71.83s-.1.02-.15.02Zm47.07-16.21c-.22,0-.43-.16-.48-.38-.06-.26.11-.53.37-.59l2.03-.46c.26-.06.53.11.59.37s-.11.53-.37.59l-2.03.46s-.08,0-.11,0Zm0,3.58c-.23,0-.44-.17-.48-.4-.05-.26.13-.52.4-.57l2.58-.46c.27-.05.53.13.58.39.05.26-.13.52-.4.57l-2.58.46h-.1Zm2.58,2.83s-.09,0-.14-.02l-2.58-.73c-.26-.08-.41-.34-.34-.6.08-.26.35-.41.6-.33l2.58.73c.26.08.41.34.34.6-.06.21-.25.35-.47.35Zm1.22,5.59s-.09,0-.13-.02l-2.77-.73c-.26-.07-.42-.33-.35-.59,0,0,0,0,0,0,.07-.26.33-.42.6-.34l2.77.73c.26.07.42.33.35.6-.06.21-.25.36-.48.36h0Zm.86,1.92h-2.24c-.27,0-.49-.21-.49-.49s.22-.49.49-.49h2.24c.27,0,.49.21.49.49s-.22.49-.49.49Zm.99,5.31c-.16,0-.31-.08-.4-.2l-1.48-2.11c-.15-.2-.11-.49.09-.65l1.11-.92c.2-.18.52-.15.69.06.18.2.15.52-.06.68l-.76.63,1.01,1.44,1.03-.34c.25-.09.54.05.62.31.09.25-.06.53-.31.61l-1.39.46s-.11.03-.16.03h0Zm-3.23-17.58s-.07,0-.11,0l-3-.64c-.26-.06-.43-.31-.38-.58.06-.26.32-.42.59-.37l3,.64c.26.06.43.31.38.58-.05.22-.25.38-.48.38h0Zm-15.79,63.13c-.13,0-.25-.05-.35-.15-1.62-1.66-3.53-12.37-3.75-13.58-.05-.26.14-.52.4-.57.25-.05.52.14.57.4.81,4.65,2.41,11.98,3.48,13.07.19.2.19.5,0,.69-.1.09-.21.14-.34.14h0Zm-13.23,78.05c-.1,0-.2-.03-.27-.09-1.48-.99-2.18-1.84-2.19-2.65-.02-.89.75-1.44,1.42-1.94.26-.2.51-.37.69-.56.85-.85,2-3.4,2.37-4.32.1-.25.39-.37.64-.27s.37.38.27.63c-.06.15-1.41,3.47-2.59,4.64-.23.23-.53.45-.81.65-.51.37-1.02.75-1.02,1.14,0,.25.24.84,1.76,1.86.22.16.28.46.13.67-.1.14-.25.21-.41.21h0Zm31.76,7.17c-.29,0-.56-.07-.8-.2-1.05-.56-1.08-2.06-1.07-2.42-.21-1.2.79-1.55,1.46-1.78.49-.17.96-.32,1.17-.7.42-.73,1.8-1.08,3.4-1.48.89-.22,2.55-.63,2.7-.97-.18-.46-2.66-.31-5.13.34-.26.07-.53-.09-.6-.34-.07-.26.09-.53.35-.6,1.71-.45,5.75-1.32,6.31.31.09.25.07.52-.06.75-.39.71-1.75,1.05-3.32,1.44-1.02.25-2.58.64-2.79,1.01-.4.69-1.12.95-1.71,1.14-.82.28-.88.37-.81.72,0,.04,0,.08,0,.12,0,.32.06,1.31.56,1.57.26.14.95.2,2.47-.95,4.08-3.07,8.47-3.65,8.65-3.67.26-.04.52.16.55.42s-.16.51-.43.55c-.04,0-4.32.58-8.18,3.48-1.08.82-1.99,1.22-2.72,1.22h0Zm16.11-7.55c-1.26,0-2.46-.14-2.96-.6-.21-.2-.32-.46-.3-.74.11-1.58,4.46-1.88,7.04-1.92.27,0,.5.21.5.48s-.21.49-.49.5c-2.98.04-5.88.53-6.08,1.02.29.34,2.89.39,5.54.06.27-.04.52.16.55.42.04.26-.16.51-.42.55-.63.08-2.04.23-3.39.23h0Zm-15.1-4.08c-.08,0-.15,0-.2-.04-.24-.13-.34-.42-.21-.65.1-.19.3-.27.49-.26.83-.24,3.99-2.82,4.3-3.64-1.31-1.07-7.06-8.25-8.23-9.73-.17-.21-.13-.52.08-.68.21-.17.53-.13.69.08,2.78,3.48,7.43,9.16,8.12,9.6.16.1.62.49.14,1.32-.6,1.03-4.01,4.01-5.16,4.01h0Zm2.38-36.03c-.2,0-.38-.12-.46-.31-.69-1.79-5.08-5.53-6.72-6.82-.21-.17-.24-.48-.08-.68.17-.21.48-.24.69-.08.24.2,6.1,4.82,7.02,7.23.1.25-.03.54-.28.62-.06.02-.12.03-.18.03h0Zm-52.05-108.09c-.23,0-.45-.18-.49-.41-.04-.26.14-.52.41-.56,9.41-1.46,24.39-5.01,24.47-8.29.08-3.26-11.33-6.16-18.53-7.22-.27-.04-.46-.28-.41-.56.04-.26.3-.45.56-.41,2,.29,19.49,3.01,19.37,8.2-.06,2.31-4.25,4.5-12.85,6.68-6.16,1.56-12.38,2.55-12.44,2.56h-.09Zm3.57,132.47c-.83,0-1.44-.03-1.66-.05-.27-.02-.48-.24-.46-.52.02-.26.23-.49.52-.46,3.11.19,8.33-.18,9.03-1.94.1-.25.39-.37.63-.27.25.1.37.38.27.63-.91,2.27-5.72,2.59-8.36,2.59h.02Zm29.82-244.12s1.47,6.66,5.16,9.31m0-5.76s3.58,6.24,2.98,7.81m-30.48-.87s-.24,4.22.78,6.24m8.65-16.78s2.58,4.97,6.99,7.74"
  />
</svg>
