<svg class="svg" xmlns="http://www.w3.org/2000/svg" viewBox="0 0 320 320">
  <path
    d="m176.03,83.64c-.07,0-.13-.02-.2-.05l-.06-.03c-.09.03-.18.03-.26,0-.64-.24-1.75-.5-2.12-.29-.12.07-.26.07-.38,0s-.19-.2-.19-.33v-.75c0-.21.18-.38.39-.38.04,0,1.09,0,3,1.14.19.11.24.34.14.52-.07.12-.2.19-.33.19h0Zm-31.17,214.08c-.55,0-1-.22-1.32-.6-.76-.92-.5-2.6-.48-2.67.04-.21.23-.36.44-.31.21.04.35.24.31.44-.07.39-.14,1.51.31,2.06.18.21.42.31.74.32.22,0,.38.18.37.39,0,.21-.18.37-.38.37Z"
  />
  <path
    d="m144.57,295.72c-.15,0-.27-.05-.36-.1-.45-.26-.48-.96-.48-1.1,0-.22.17-.38.38-.38s.38.17.39.38c0,.17.05.37.1.44l.08-.04c.4-.23,1.19-1.2,1.71-1.86.39-.49.61-.75.74-.87.32-.25,1.59-1.28,1.59-1.28l.48.6s-1.27,1.04-1.6,1.29c-.09.07-.38.44-.62.74-.76.96-1.44,1.78-1.95,2.05-.18.1-.33.14-.47.14h0Z"
  />
  <path
    d="m145.65,296.36c-.06,0-.13-.02-.19-.05-.19-.1-.25-.33-.15-.52l1.71-3.11c.1-.19.33-.25.52-.15.19.1.25.33.15.52l-1.71,3.11c-.07.13-.21.2-.33.2Zm33.9-5.99c-.1,0-.21-.04-.27-.12-.39-.41-1.07-.8-1.07-.81-.19-.11-.24-.34-.14-.52.11-.19.34-.24.52-.14.03.02.76.45,1.24.94.15.16.14.39,0,.54-.08.07-.17.11-.26.11h0Z"
  />
  <path
    d="m179.97,289.64c-.71,0-1.1-.15-1.16-.18-.2-.08-.28-.3-.21-.5h0c-.07-.16-.04-.33.08-.44.82-.79,3.6-3.29,4.71-2.23.38.36.51.84.37,1.33-.24.83-1.27,1.63-2.46,1.87-.54.11-.99.15-1.35.15h0Zm-.5-.8c.33.05.9.07,1.69-.1.88-.19,1.71-.78,1.88-1.33.06-.22,0-.39-.17-.57-.35-.34-2.03.74-3.4,2h0Zm-6.69,5.24c-.15,0-.24-.04-.31-.07-.16-.07-.41-.25-.4-.73.02-2.14,4.91-4.02,5.46-4.22.2-.07.42.03.49.23,0,.02,0,.03,0,.05.13-.03.27,0,.37.11.15.15.15.39,0,.54,0,0-.36.35-.9.84-3.09,2.81-4.22,3.27-4.71,3.27h0Zm4.5-4.11c-1.9.77-4.43,2.19-4.45,3.31.19.09,1.38-.51,4.15-3.04.11-.1.21-.19.29-.27Z"
  />
  <path
    d="m182.79,299.86s-.1,0-.14-.03l-3.83-1.51c-.13-.05-.22-.16-.24-.28-.02-.13.02-.26.12-.35.33-.29,3.16-2.81,4.82-3.11-.73-.53-3.31-1.43-6.63-.51-.15.04-.29,0-.39-.12-.1-.11-.12-.26-.06-.4.02-.04,1.91-4.23,6.32-4.23h.11c.22,0,.38.18.38.39s-.18.37-.38.37h-.1c-2.86,0-4.51,1.95-5.21,3.05,3.38-.67,6.04.35,6.72,1.1.27.3.24.57.19.7-.07.17-.24.36-.68.4-1,.09-2.98,1.61-4.07,2.54l3.24,1.28c.2.08.29.3.22.5-.06.15-.21.24-.35.24l-.03-.02Z"
  />
  <path
    d="m183.73,299.86c-.1,0-.2-.04-.26-.11-.15-.15-.16-.39,0-.54l1.7-1.74c-1.9-.8-5.77-2.22-7.24-1.77-.2.06-.4-.04-.47-.23s0-.4.2-.48c.68-.31,3.51-1.63,4.94-2.21-1.67-.75-6.04-2.3-6.65-2.2-.26.15-.44-.04-.49-.11-.11-.15-.1-.36.04-.5.23-.24,4.97-2.97,7.46-1.17.18.13.22.36.09.54-.13.18-.36.22-.54.09-1.45-1.04-4.06-.11-5.51.58,2.23.53,6.27,2.17,6.67,2.49.12.09.22.3.19.45-.04.15-.18.27-.33.3-.26.05-2.01.82-3.92,1.69,2.61.37,6.19,1.97,6.38,2.06.12.05.2.16.22.27.02.13-.02.24-.1.34l-2.09,2.14c-.08.08-.18.12-.27.12h0Zm-42.94-11.09c-.13,0-.24-.06-.32-.18-.1-.15-.08-.34.04-.47.77-.83,4.71-4.91,6.58-3.81.41.24.44.57.43.74-.13,1.28-4.65,3.01-6.59,3.69-.04.02-.09.02-.13.02h0Zm5.57-3.88c-.95,0-2.61,1.2-4.04,2.52,2.46-.98,4.36-2,4.43-2.43-.11-.06-.24-.09-.39-.09h0Z"
  />
  <path
    d="m138.65,294.56c-.63,0-1.27-.15-1.8-.59-.24-.21-.37-.49-.38-.82-.03-1.66,3.31-4.71,3.69-5.04.16-.14.4-.13.54.03s.13.4-.03.54c-1.34,1.19-3.45,3.47-3.44,4.47,0,.15.06.21.11.24.93.77,2.54.24,3.09.03l.53-5.63c.02-.21.22-.36.42-.34.22.02.36.21.34.42l-.56,5.86c0,.14-.1.25-.22.31-.07.03-1.15.53-2.31.53h0Z"
  />
  <path
    d="m135.37,297.73c-.1,0-.2-.04-.27-.12-.32-.32-1.07-1.14-1.07-1.67,0-.15.07-.27.21-.39.53-.45,4.02-1.51,5.53-1.81-.58-.67-1.95-1.9-2.86-1.8-.56.08-.8-.16-.91-.35-.35-.66.55-1.89,1.13-2.57.06-.07.15-.12.24-.13,6.86-.93,6.89-.8,6.98-.39.05.21-.08.41-.28.46-.08.02-.17,0-.24-.02-.51-.03-3.51.32-6.21.7-.5.62-.91,1.3-.94,1.57.02,0,.07,0,.14,0,1.52-.2,3.45,1.82,3.85,2.48.06.1.22.34.05.59-.09.13-.27.2-.42.18-.46,0-4.61,1.17-5.45,1.65.12.24.45.67.8,1.03.15.15.15.39,0,.54-.08.07-.18.11-.26.11l-.02-.02Z"
  />
  <path
    d="m136.2,297.78c-.18,0-.33-.12-.37-.29-.05-.21.08-.41.28-.46l3.33-.76c-.81-1.06-2.44-2.79-3.84-2.61-.18.02-.34-.09-.4-.24s0-.35.15-.45c.13-.09,3.01-2.02,7.2-1.55-.88-1.04-2.73-2.81-5.1-2.62-.19.03-.39-.14-.41-.34s.13-.39.33-.42l6.32-.74c.21-.03.4.13.42.33.03.21-.13.4-.33.42l-3.77.45c2.26.98,3.65,3.12,3.73,3.24.08.13.08.29,0,.42-.09.13-.24.2-.39.16-2.92-.56-5.3.19-6.57.76,1.94.7,3.56,3.11,3.63,3.24.07.11.08.24.04.35-.05.12-.15.21-.27.24l-3.9.89s-.06,0-.09,0h.02Zm37.34-177.46s-.06,0-.09,0l-1.6-.38c-.13-.03-.23-.13-.27-.25-.04-.13-.02-.26.07-.36.09-.11.96-1.06,3.53-.45.19.04.3.22.29.4,0,.19-.16.33-.34.35-.77.08-1.09.2-1.2.25.02.09,0,.19-.05.26-.07.12-.2.19-.32.19h0Zm-.37-.86l.07.02s0-.02.02-.03h-.09s0,0,0,0Zm-17.77-39.26c-.19,0-.35-.14-.38-.32-.04-.23-.05-.34,1.62-1.66.17-.14.4-.11.54.06.13.17.11.4-.06.54-.56.44-1.21.99-1.36,1.17-.05.12-.16.21-.29.23,0,0-.06,0-.06,0Zm-.22-1.3c-.07,0-.15-.02-.21-.06-.17-.12-.23-.35-.12-.53.4-.62,1.7-1.25,1.85-1.32.2-.09.42,0,.51.19.09.2,0,.42-.19.51-.48.23-1.32.71-1.54,1.04-.07.12-.2.18-.32.18h0Zm-.48-1.19c-.07,0-.14-.02-.2-.06-.19-.11-.24-.34-.13-.53.42-.7,2.6-1.57,3.26-1.81.21-.08.42.03.49.23.08.2-.03.42-.23.49-1.23.46-2.67,1.17-2.87,1.49-.07.12-.2.19-.33.19h0Zm-.12-1.91c-.14,0-.26-.08-.34-.21-.1-.19-.03-.42.16-.52l1.77-.95c.19-.1.42-.03.52.16s.03.42-.16.52l-1.77.95c-.06.03-.12.05-.18.05Zm-21.67,109.04c-.17,0-.31-.11-.36-.27-.95-3.17.24-7.1.28-7.27.06-.21.27-.31.48-.25.21.06.31.27.25.48,0,.04-1.17,3.88-.28,6.83.06.21-.06.41-.25.48-.04,0-.07.02-.11.02h0Zm33.45-103.24h-.04c-.14-.02-.25-.1-.3-.23-.19-.42-1.45-1.2-2.3-1.64-.24-.05-.48-.09-.69-.13-.21-.03-.35-.23-.32-.43.03-.21.23-.35.43-.32.32.05,3.16.5,4,1.47.12.14.13.33.02.48l-.48.64c-.07.1-.19.16-.3.16h0Zm-32.21,229.96h-.03c-.92-.07-1.19-1.6-1.27-2.4l-2.07-.24c-.48,1.19-1.35,1.49-1.39,1.5-.21.06-.42-.05-.48-.24s.05-.41.24-.48c.04,0,.69-.25,1-1.29.05-.18.24-.29.41-.27l2.68.32c.19.02.32.18.33.35.07,1.06.38,1.99.59,2.01.22.02.37.2.35.41-.02.21-.19.35-.38.35h0Z"
  />
  <path
    d="m130.12,309.71c-.06,0-.13-.02-.19-.05-1.55-.83-2.19-3.72-2.22-3.85-.05-.21.09-.41.29-.45.21-.05.41.09.45.29.16.74.8,2.78,1.83,3.34.19.1.25.33.16.52-.07.13-.21.21-.33.21h0Zm3.3.52h-.09c-.22,0-.38-.18-.37-.39,0-.21.18-.37.38-.37h.05c.4,0,3.33-.04,4.58-1.23.58-.55.96-.77,1.27-.95.45-.26.71-.41,1.33-1.69.58-1.18,1.12-2.76,1.55-4.04.4-1.18.71-2.11.97-2.5.18-.27.72-.92,1.48-1.81,1.34-1.59,3.37-4,3.64-4.74.42-1.16.68-3.4.69-3.42.02-.21.22-.35.42-.34.21.02.36.22.34.42,0,.1-.26,2.36-.72,3.59-.29.8-1.89,2.73-3.78,4.97-.69.81-1.27,1.51-1.43,1.74-.21.31-.54,1.29-.89,2.32-.44,1.29-.99,2.91-1.59,4.12-.71,1.43-1.05,1.67-1.64,2.02-.28.17-.62.35-1.13.84-1.45,1.38-4.52,1.45-5.08,1.45h0Z"
  />
  <path
    d="m137.61,306.4c-.56,0-.74-.28-.81-.46-.2-.52.44-1.44,1.14-2.24-.12-.03-.22-.04-.25-.03-.14.81-2.31,2.14-3.69,2.45-1.41.3-2.54-.32-3.11-1-.35-.4-.45-1.97-.47-3.18-.14.36-.17,1-.14,1.4,0,.17-.07.73-.43,1.04-.17.14-.37.2-.6.18-.19-.02-.34-.12-.45-.27-.32-.47-.11-1.49-.04-1.79.05-.21.25-.32.46-.28.18.04.29.2.29.36.04-.49.17-1.1.52-1.42.23-.21.51-.28.82-.23.19.03.31.2.31.37,0,1.39.12,3.07.29,3.33.15.17.98,1.04,2.37.74,1.42-.3,3.07-1.56,3.15-1.9.05-.23.19-.4.38-.49.48-.23,1.2.13,1.41.24.11.06.18.16.2.27s-.02.24-.1.32c-.66.71-1.23,1.51-1.33,1.83.31.04,1.18-.26,1.29-.5.05-.18.24-.55.81-1.56.71-1.27,2.18-3.92,2.12-4.53,0-.07-.03-.09-.07-.12-.34-.22-1.46,0-2.11.24-.12.04-.24.02-.34-.05s-.16-.19-.16-.31c0-.82-.21-.86-.61-.92-.11-.02-.23-.04-.32-.07-.12-.03-.54.12-.81.22-.52.19-1.17.42-1.78.38-.65-.04-.91-.24-.96-.72-.02-.14-.02-.23-.22-.38-.34-.27-1.02.37-1.19.56-.14.16-.38.18-.54.04s-.18-.38-.04-.54c.47-.55,1.47-1.29,2.25-.66.43.35.47.7.49.89h0s.12.03.24.04c.47.04,1-.17,1.48-.33.5-.19.93-.33,1.28-.24.08.02.16.03.24.05.52.08,1.08.25,1.21,1.17.64-.18,1.7-.38,2.29-.02.24.16.39.38.42.68.1.8-.94,2.74-2.2,5-.32.59-.7,1.25-.74,1.39-.16.64-1.3,1.02-1.87,1.05h-.09s0,.02,0,.02Zm-8.12-3.77v.04c-.1.39-.14.85-.11,1.07.06-.08.11-.24.12-.39,0-.09-.03-.37,0-.71h0Zm48.65-17.67c-.22,0-.38-.18-.38-.38v-1.08c0-.22.18-.38.38-.38s.38.18.38.38v1.08c0,.22-.18.38-.38.38Zm-4.1,1.21c-1.69,0-2.58-.55-2.61-.58-.11-.07-.18-.2-.18-.32v-1.78c0-.22.18-.38.38-.38s.38.18.38.38v1.55c.32.15,1.08.4,2.28.36,1.47-.05,1.8-.27,1.81-.28.14-.17.36-.17.52-.03.17.14.17.4.03.56-.14.17-.63.46-2.33.52h-.28s0,0,0,0Z"
  />
  <path
    d="m184.19,313.42c-2.96,0-6.09-1.91-7.69-3.84-1.66-2-2.46-5.62-2.88-7.56-.6-2.72-1.24-4.36-1.9-4.84-.86-.64-2.73-3.51-2.94-3.84-.05-.08-.07-.17-.06-.26.12-.82.39-3.12.29-3.92-.13-1.03.81-2.52,1.09-2.92.02-.24.04-.84,0-1.56-.08-1.11.86-2.11.9-2.14.15-.16.39-.16.54,0s.16.38,0,.54c0,0-.74.8-.7,1.57.05.73.02,1.35,0,1.63.22.33.3.82.34,1.19,1.81-.29,2.99.25,3.64.76.21-1.95,1.21-3.06,1.69-3.47.55-.48,3.83-1.26,4.51-1.07.94.26,2.19,5.91,2.19,5.96.09.45,2.33,6.06,3.75,9.58.36.22,1.45.93,2.13,2.03.77,1.24,2.08,4.83,2.35,6.23.24,1.25-.28,3.18-.51,4.01l-.07.25c-.24.97-4.38,1.65-6.55,1.69h-.15Zm-14.68-20.37c.61.93,2.07,3.07,2.67,3.52.84.62,1.54,2.3,2.19,5.3.41,1.88,1.19,5.39,2.72,7.24,1.47,1.77,4.51,3.62,7.23,3.56,2.8-.06,5.55-.82,5.86-1.18l.04-.21c.2-.71.71-2.58.5-3.65-.25-1.31-1.53-4.81-2.24-5.96-.71-1.14-1.95-1.82-1.97-1.83-.08-.04-.14-.11-.18-.2-.89-2.18-3.79-9.37-3.86-9.89-.08-.63-1.25-4.94-1.72-5.36-.39-.07-3.33.63-3.71.94-.46.4-1.53,1.59-1.47,3.79,0,.18-.11.32-.27.37s-.34-.02-.43-.16c-.04-.07-1.13-1.67-3.94-1.04-.11.02-.23,0-.32-.07-.09-.07-.15-.18-.15-.29,0-.2-.03-.46-.08-.71-.33.58-.7,1.36-.63,1.86.12.94-.19,3.36-.27,3.98h.03Z"
  />
  <path
    d="m173.37,300.37c-.16,0-.29-.09-.35-.24-.13-.25-1.32-1.19-2.18-1.88-.48-.37-.95-.75-1.36-1.09-1.52-1.26-1.55-2.63-1.57-4.08-.03-1.66.87-2.76.91-2.8.14-.17.37-.19.54-.05.17.14.19.37.05.54,0,0-.76.94-.73,2.3.03,1.54.11,2.53,1.29,3.51.4.33.87.71,1.34,1.08,1.58,1.24,2.28,1.82,2.43,2.2.08.2-.02.42-.22.5-.05.02-.09.03-.14.03h0Z"
  />
  <path
    d="m174.33,303.82c-.06,0-.13-.02-.19-.05-.45-.25-4.47-2.47-5.35-3.55l-.3-.37c-.89-1.07-2.11-2.54-2.29-3.82-.21-1.45,1.58-3.56,1.78-3.8.14-.16.38-.18.54-.04s.18.38.04.54c-.49.57-1.74,2.24-1.61,3.18.16,1.07,1.29,2.44,2.13,3.44l.31.38c.67.81,3.93,2.7,5.12,3.36.19.1.25.33.15.52-.07.13-.21.2-.33.2h0Zm7.12,8.64c-.21,0-.37-.16-.38-.36,0-.22.15-.39.36-.4,1.56-.09,3.45-.38,3.78-.7.24-.24.39-.72.5-1.13.14-.47.24-.8.54-.92.16-.06.31-.03.46.06.17.08.95,0,1.32-.05.53-.06.81-.08,1-.03.43.12.45.64.47,1.28,0,.2.02.5.05.65.37.14,1.1.4,1.1.4l-.25.72s-.9-.32-1.22-.44c-.39-.16-.41-.66-.44-1.29,0-.17-.02-.42-.04-.57-.16,0-.39.03-.59.05-.69.07-1.2.12-1.56.03-.03.1-.07.23-.1.32-.14.49-.31,1.1-.71,1.47-.71.67-3.67.87-4.26.9h-.02Z"
  />
  <path
    d="m189.31,311.56c-.14,0-.27-.08-.34-.22-.1-.19-.02-.42.18-.51.37-.19,1.18-1.35,1.64-2.14.11-.19.34-.24.53-.14s.24.34.14.53c-.21.34-1.25,2.08-1.96,2.43-.06.03-.11.04-.17.04h0Zm-3.83.09h-.03c-4.51-.31-6.85-2.82-7.84-3.9-.15-.16-.26-.29-.36-.38-.48-.44-1.11-2.12-2.01-4.62-.47-1.3-.95-2.64-1.21-3.09-.63-1.04-1.78-1.96-1.79-1.97-.17-.13-.2-.37-.06-.54.13-.17.37-.2.54-.06.05.04,1.28,1.02,1.98,2.17.29.5.75,1.75,1.28,3.21.61,1.67,1.43,3.98,1.81,4.32.11.1.24.24.41.42,1.01,1.09,3.12,3.36,7.34,3.65.22.02.37.2.35.41,0,.21-.19.35-.38.35h-.02Zm-1.74-12.59h-.08s-1.58-.32-1.58-.32c-.09-.02-.18-.07-.23-.14l-4.03-5.23c-.05-.07-.08-.15-.08-.24v-3.22c-.46-.27-1.43-.88-1.72-1.36-.11-.18-.12-.4-.05-.67.24-.87,1.54-2.49,2.35-2.93.95-.51,2.9.33,3.28.5.2.09.27.31.19.51s-.31.28-.51.19c-.8-.36-2.14-.77-2.6-.53-.74.4-2.04,2.16-2,2.57.16.24,1.05.83,1.62,1.17.12.07.2.2.2.33v3.31s3.86,5.01,3.86,5.01l.79.16c-.36-1.12-1.01-3.17-1.01-3.7s.25-1.56.35-1.93l-1.4-2.61c-.06-.12-.06-.25,0-.37.4-.71.85-1.6.87-1.8-.06-.21.07-.38.26-.43.21-.06.42.1.48.3.04.13.12.41-.85,2.13l1.37,2.56c.05.09.06.19.03.28-.1.36-.37,1.39-.37,1.87,0,.4.69,2.62,1.18,4.08.04.13,0,.27-.08.37-.08.09-.18.13-.28.13h.03Z"
  />
  <path
    d="m183.78,302.37c-1.87,0-3.76-.77-4.12-2.29-.05-.19-.19-.75.19-1.09.42-.37,1.11-.12,1.84.16.25.1.5.19.71.24.94.24,1.66-.26,1.93-.5.36-.31.85-.45,1.27-.38.31.06.56.23.71.49.29.53.68,1.76-.03,2.67-.62.79-1.45.71-1.73.65-.25.03-.52.05-.77.05h0Zm-3.43-2.79s0,.12.05.32c.31,1.31,2.39,1.88,4.13,1.66.05,0,.11,0,.16,0,.06.02.6.15.99-.36.42-.55.21-1.42-.03-1.83-.02-.04-.06-.09-.18-.11-.19-.03-.46.05-.65.22-.36.3-1.33.98-2.61.66-.24-.06-.52-.17-.79-.26-.31-.12-.89-.33-1.07-.29h0Z"
  />
  <path
    d="m182.01,308.27c-.74,0-2.95-1.88-3.32-2.26-.79-.81-1.56-4.16-1.7-5.03-.07-.41.02-.71.26-.88.29-.21.7-.12,1.09.05-.74-.88-1.37-2.11-1.89-3.11-.44-.86-.6-1.01-.65-1.04-.19,0-.37,0-.63-.09-.59-.24-.75-1.1-.92-1.92-.08-.39-.16-.8-.26-.99-.08-.14-.12-.16-.48-.16-.3,0-.72,0-1.23-.24-1.19-.56-1.12-1.63-1.05-2.48.08-1.01,2.21-1.29,3.49-1.37.22-.03.39.15.4.36s-.15.39-.36.4c-1.31.08-2.66.41-2.77.68-.07.88-.07,1.4.61,1.72.36.17.65.18.92.18.37,0,.83.02,1.14.56.16.29.24.74.34,1.21.08.41.25,1.27.45,1.36.11.04.17.04.25.04.55,0,.79.24,1.41,1.45.74,1.46,1.87,3.67,3.05,3.84.19.03.32.18.33.36s-.12.34-.29.39c-.16.04-.94.22-1.42-.03-.06-.03-.14-.07-.23-.12-.16-.09-.61-.34-.83-.39,0,.03,0,.06,0,.11.22,1.31.98,4.1,1.49,4.62.41.42,1.29,1.12,1.97,1.58-.14-.18-.27-.35-.38-.5-.81-1.04-1.11-1.42-.88-1.77.2-.29.65-.4.83-.43.58-.1,1.15.02,1.57.33,1.11.82,2.64,1.74,3.68,1.84.97.09,2.04-.08,2.14-.83.06-.4-.18-.84-.38-1.23s-.4-.75-.31-1.12c.12-.44.42-.53.55-.54.44-.06.9.33,1.36,1.14l.22.37c.44.77.9,1.58,1.17,1.8l.4.38c.16.15.16.39,0,.54-.15.16-.39.16-.54,0l-.38-.36c-.33-.27-.72-.94-1.32-2l-.21-.37c-.2-.34-.36-.53-.47-.64.05.14.14.3.21.42.24.47.56,1.05.47,1.69-.15,1.09-1.28,1.66-2.97,1.5-1.5-.15-3.49-1.56-4.06-1.99-.38-.28-.89-.24-1.16-.16.16.24.47.65.71.94.9,1.15,1.3,1.67.93,2.05-.07.07-.24.14-.35.14h.02Z"
  />
  <path
    d="m174.9,299.02c-.08,0-.17,0-.25-.03-.64-.13-1.52-.72-1.91-2.03-.24-.76-.93-2.29-1.95-4.31-.38-.75-.67-1.28-.67-1.28-.1-.19-.03-.42.16-.52s.42-.03.52.16c0,0,.28.54.67,1.29.73,1.45,1.68,3.4,2,4.44.31,1.03.96,1.36,1.15,1.44.21.08.34.08.37.06.21-.25.66-.81.35-2.18-.05-.21.09-.41.29-.46.21-.05.41.09.46.29.33,1.53-.1,2.32-.52,2.84-.15.19-.38.28-.67.28h0Zm-39.01-1.46c-.2,0-.32-.06-.37-.09-.03-.02-.06-.04-.08-.06-.04-.03-.85-.85-.23-2.11.42-.84.67-1.74.72-1.97l-.11-1.6c0-.22.15-.39.35-.41s.39.15.41.35l.12,1.66v.12s-.27,1.14-.79,2.18c-.29.6-.09,1,.02,1.15.18-.03,1.17-.26,2.94-3.49l1.67-2v-2.22c0-.06.02-.13.05-.18l1.15-2.16c-.35-1.24-.86-2.63-1.14-2.89-.5-.04-1.22-.4-1.62-.62l-1.72,1.6c-.16.15-.39.14-.54-.02-.15-.16-.14-.4.02-.54l1.93-1.78c.13-.12.31-.14.46-.05.45.26,1.22.65,1.55.66.24,0,.86,0,1.84,3.59.03.1,0,.2-.03.28l-1.18,2.21v2.26c0,.09-.03.18-.09.24l-1.72,2.04c-1.21,2.2-2.32,3.49-3.27,3.75-.13.04-.24.05-.33.05l-.02.03Zm5.35.17c-.14,0-.27-.08-.34-.21-.1-.19-.03-.42.16-.52l1.37-.72.1-1.89c0-.13.08-.24.19-.3.02,0,2.09-1.27,3.17-3.07.04-.07.1-.12.16-.15,1.2-.59,2.94-1.76,2.83-2.41-.04-.21.11-.4.31-.44.21-.03.4.11.44.31.23,1.37-2.39,2.79-3.15,3.17-1.01,1.62-2.66,2.77-3.2,3.12l-.11,1.91c0,.14-.09.25-.21.31l-1.56.83c-.06.03-.12.05-.18.05h.02Z"
  />
  <path
    d="m174.6,296.92c-.11,0-.23,0-.35-.05-1.06-.27-2.91-3.28-3.46-4.19-.11-.19-.05-.42.14-.53s.42-.05.53.14c1.04,1.74,2.47,3.71,2.99,3.84.21.05.28,0,.31-.02.15-.11.2-.43.2-.57,0-.21.18-.38.38-.38s.38.18.38.38c0,.08,0,.8-.49,1.17-.13.1-.33.21-.62.21h0Zm-32.55-47.98c-1.7,0-6.49-1.05-7.07-1.18-.21-.05-.33-.25-.29-.46.05-.21.25-.33.46-.29,2.41.53,6.3,1.27,7.13,1.15,1.05-.17,2.11-1.5,2.12-1.52l.67-1.22c.1-.19.33-.25.52-.15.19.1.25.33.15.52l-.71,1.27c-.09.12-1.29,1.64-2.63,1.85-.1.02-.22.02-.35.02h.02Zm4.69-5.19c-.1,0-.2-.04-.26-.11-.15-.15-.16-.38,0-.54h0c.22-.42.97-4.51.91-5.12-.07-.75,1.43-3.81,1.89-4.74.1-.19.32-.26.51-.17s.26.32.18.51c-.89,1.77-1.83,3.94-1.81,4.32.03.35-.26,2.4-.59,3.96,1.08-1.27,2.37-2.97,2.51-3.79.04-.21.24-.34.44-.31.21.04.35.24.31.44-.26,1.6-3.44,5.04-3.8,5.43s0,0,0,0c-.08.08-.18.11-.27.11h0Zm-7.22.91c-.1,0-.19-.03-.26-.11-.16-.15-.17-.38-.02-.54,3.08-3.27,5.06-9.94,5.08-10.01.06-.21.27-.32.48-.25.21.06.32.27.25.48-.08.28-2.07,6.9-5.26,10.31-.08.08-.18.12-.28.12h0Zm33.91,33.15c-.59,0-1.08-.07-1.36-.24-.45-.27-1.06-.51-1.7-.76-.94-.37-1.92-.75-2.57-1.31-.73-.64-.7-1.94-.67-3.19.02-.73.04-1.5-.13-1.83-.29-.59-.32-2.24-.35-5.37-.02-2.25-.05-5.06-.25-7.6-.2-2.39-.12-4.43-.05-6.07.08-1.86.14-3.33-.33-3.75-.77-.69-.71-1.61-.64-2.42.04-.53.08-1.02-.1-1.41-.48-1.09-.17-2.39-.05-2.78-.7-2.69-1.5-5.68-1.66-5.99-.16-.26-.23-1.1-.37-3.07-.08-1.06-.18-2.52-.27-2.75-.31-.55-1.07-5.29-1.07-6.75,0-1.58-.92-6.18-1.42-6.68-.66-.66-3.06-6.11-3.53-7.2-.09-.2,0-.42.2-.5.2-.09.42,0,.5.2,1.08,2.47,2.94,6.53,3.37,6.96.79.79,1.65,5.83,1.65,7.23,0,1.61.77,5.98.97,6.39.16.26.23,1.1.36,3.07.08,1.06.18,2.52.27,2.75.25.44,1.41,4.91,1.75,6.27.02.07.02.15,0,.22,0,0-.45,1.34,0,2.33.25.57.21,1.19.16,1.78-.06.72-.11,1.36.38,1.78.74.66.69,2.14.6,4.36-.07,1.62-.15,3.63.04,5.97.22,2.57.24,5.39.26,7.66.02,2.35.05,4.56.27,5.02.25.51.24,1.33.22,2.2-.03,1.03-.06,2.19.4,2.6.55.48,1.46.83,2.34,1.18.68.26,1.31.52,1.82.82.94.58,6.1-.64,6.6-.94.36-.25,1.13-.8,1.37-2.73.26-2.13.07-3.97-.5-4.69-.13-.17-.1-.41.07-.54s.4-.1.54.07c.71.9.95,2.87.66,5.26-.28,2.26-1.26,2.96-1.68,3.26-.38.27-3.92,1.22-6.08,1.22h0Zm10.46-91.28h-.07c-.21-.04-.35-.24-.31-.44.24-1.45-1.8-5.23-2.61-6.56-.11-.18-.05-.41.13-.53.18-.11.41-.05.53.13.31.52,3.05,5.09,2.71,7.09-.03.19-.2.32-.37.32h0Z"
  />
  <path
    d="m179.28,235.27s-.07,0-.11,0c-.21-.06-.32-.26-.26-.47.08-.26,1.86-6.59,2.23-7.8.34-1.1.57-4.53.43-6.82-.13-2.18.81-9.81,1.18-10.75.13-.34.04-2.47-.02-4.03-.1-2.41-.15-3.91.02-4.39.19-.53.37-3,.52-4.81.09-1.15.17-2.14.24-2.7.1-.79.64-1.52,1.16-2.22.58-.78,1.13-1.53,1.07-2.29-.09-1.19-2.06-2.53-2.8-2.95-.19-.11-.25-.33-.15-.52.1-.19.33-.24.52-.15.31.18,3.06,1.74,3.19,3.56.08,1.05-.58,1.94-1.22,2.81-.48.66-.94,1.26-1.01,1.86-.07.54-.15,1.57-.24,2.66-.2,2.57-.35,4.43-.56,5-.14.37-.04,2.53.02,4.1.1,2.38.16,3.87-.03,4.33-.27.71-1.25,8.28-1.13,10.43.13,2.14-.05,5.79-.46,7.09-.37,1.19-2.21,7.71-2.23,7.77-.05.17-.21.27-.37.27h.02Z"
  />
  <path
    d="m178.97,272.59s-.07,0-.1,0c-.21-.06-.32-.26-.26-.47.02-.06,1.6-5.82,1.97-7.44.37-1.64,2.15-10.62,2.17-10.7,0-.08.05-.15.11-.2.03-.03.68-.71.47-1.63-.11-.48-.78-1.05-1.39-1.55-.67-.56-1.24-1.04-1.36-1.58-.12-.51.04-.94.2-1.39.18-.51.38-1.08.31-1.98-.12-1.61-1.33-2.73-1.34-2.74-.09-.08-.13-.19-.13-.3,0-.04.19-3.67,0-4.77-.15-.88-2.14-7.02-3.17-10.15-.07-.21.04-.42.24-.48.2-.07.42.04.48.24.13.37,3.01,9.1,3.2,10.26.18,1.05.05,4.01,0,4.76.36.38,1.34,1.54,1.46,3.12.08,1.06-.17,1.74-.35,2.29-.14.39-.24.68-.17.97s.62.75,1.11,1.16c.72.61,1.48,1.23,1.65,1.97.24,1.12-.36,1.96-.6,2.23-.2,1.01-1.8,9.08-2.15,10.63-.37,1.65-1.91,7.25-1.98,7.48-.05.17-.21.28-.37.28v-.02Z"
  />
  <path
    d="m178.51,274.31s-.06,0-.09,0c-4.85-1.19-6.29-9.22-6.35-9.56-.04-.21.11-.41.31-.44.21-.04.41.11.44.31,0,.08,1.39,7.75,5.67,8.91.24-.1,1.02-.52,1.39-1.99.05-.21.26-.32.47-.27.21.05.33.25.27.46-.56,2.21-1.97,2.57-2.04,2.58-.03,0-.06,0-.09,0h0Zm-.64-18.5c-.18,0-.33-.12-.37-.29-.05-.21.08-.41.28-.46,2.59-.61,3.56-1.63,3.92-2.2-.78-.06-2.35-.27-4.59-1.02-3.36-1.12-10.26-13.93-10.56-14.48-.1-.19-.03-.42.16-.52s.42-.03.52.16c1.95,3.63,7.57,13.26,10.13,14.1,3.13,1.04,4.89,1,4.91,1,.12,0,.23.04.3.13.08.09.11.21.09.31,0,.09-.41,2.24-4.69,3.24-.03,0-.06,0-.09,0v.02Zm1.4,1.41c-.22,0-.38-.18-.38-.38s.18-.38.38-.38c.69,0,2.31-1.16,3.17-1.89.17-.14.4-.12.54.05.14.16.12.4-.05.54-.25.22-2.48,2.07-3.66,2.07h0Z"
  />
  <path
    d="m180.8,251.24c-.77,0-2.4-.61-3.38-1-.18-.07-.27-.25-.24-.44s.21-.32.39-.3h.04c.74,0,1.65-1.22,1.91-1.66.11-.19.34-.24.53-.13s.24.34.13.53c-.09.15-.7,1.13-1.51,1.66.98.35,1.91.62,2.14.58.2-.07.41.03.48.23.08.2-.04.42-.24.49-.07.03-.16.04-.26.04h0Zm-22.52-60.55h-.06c-.21-.04-.35-.24-.31-.44,0-.02.3-1.85,0-2.97-.33-1.27-.02-3.2,0-3.29.04-.21.24-.34.44-.31.21.04.35.24.31.44,0,.02-.3,1.85,0,2.97.33,1.27.02,3.2,0,3.29-.03.19-.2.32-.38.32h0Zm5.49-3.12c-.09,0-.18-.03-.24-.09-.16-.14-.18-.38-.04-.54.1-.22-.14-1.36-.52-2.43-.07-.2.04-.42.24-.49.21-.07.42.04.49.24.41,1.18.81,2.67.37,3.18-.08.09-.19.14-.29.14h0Zm-20.81,95.24c-1.73,0-3.6-.59-4.04-1.01-.33-.33-.4-1.17-.47-2.48-.02-.43-.04-.83-.08-1.04-.13-.71-.51-2.67-.51-2.67l.75-.15s.38,1.98.51,2.68c.05.25.07.67.09,1.14.03.62.1,1.77.25,1.99.24.24,2.5,1.03,4.39.71,1.52-.25,2.75-1.58,3.07-1.94.05-1.03.09-2.65,0-3.03-.14-.62.03-2.71.05-2.96.02-.21.21-.36.41-.35.22.02.37.21.35.41-.07.85-.15,2.35-.07,2.72.14.61.02,3.08,0,3.35,0,.08-.03.16-.08.22-.07.08-1.59,1.97-3.62,2.31-.32.05-.67.08-1.02.08h0Zm31.53,1.09h-.27c-.71-.04-6.11-1.45-6.29-2.14-.06-.25-.04-3.34,0-5.89,0-.21.18-.38.38-.38s.38.18.38.38c-.02,1.88-.04,4.88-.02,5.58.71.38,4.41,1.62,5.58,1.66,1.05.06,3.32-.27,4.14-.39.06-1.19.27-5.36.78-6.77.07-.2.29-.3.49-.24s.3.29.24.49c-.54,1.51-.74,6.8-.75,6.85,0,.19-.14.33-.32.36-.13.02-2.87.46-4.34.46h0Z"
  />
  <path
    d="m135.46,300.36c-.17,0-.32,0-.46-.03-1.98-.29-2.36-1.73-2.56-3.07-.19-1.21,1.06-2.67,2.25-4.09.24-.29.49-.58.71-.86,1.17-1.45,1.42-4.59,1.3-6.24,0-.17-.03-.32-.04-.49-.09-.97-.18-1.97.46-2.68.5-.56,1.38-.84,2.7-.86h.06c3.54,0,4.17,5.03,4.22,5.53.1.39.71,2.76.65,3.65-.06.87-1.76,3.91-3.18,6.3-.87,1.48-4.19,2.83-6.11,2.83h0Zm4.43-17.56h-.04c-1.09.02-1.79.22-2.14.61-.42.47-.35,1.22-.26,2.11.02.17.03.33.04.51.13,1.82-.16,5.14-1.47,6.78-.23.28-.48.58-.72.87-1.04,1.22-2.21,2.61-2.09,3.49.19,1.23.44,2.2,1.91,2.42,1.61.24,5.08-1.21,5.81-2.43,1.83-3.09,3.04-5.44,3.08-5.96.05-.67-.43-2.71-.63-3.44,0-.02,0-.04,0-.06,0-.05-.51-4.88-3.47-4.88h0Z"
  />
  <path
    d="m135.94,311.65c-1.97,0-4.75-.41-5.66-.69-1.29-.37-2.62-1.54-2.69-3.29-.07-1.68.6-4.99,1.31-6.55.71-1.55,3.49-5.21,3.6-5.37.13-.17.37-.21.54-.08s.21.37.08.54c-.03.04-2.84,3.75-3.52,5.22-.67,1.45-1.3,4.64-1.24,6.21.06,1.37,1.12,2.28,2.14,2.59,1.08.31,5.07.87,6.66.57,1.5-.28,4.54-1.88,5.29-4.03.78-2.24,1.55-6.82,1.56-6.86,0-.07.05-.14.1-.2l2.99-3.28c1.39-1.53,2.92-3.77,2.97-4.74.05-.81-.75-1.98-1.06-2.35-.06-.07-.09-.17-.09-.25.06-1.62-.77-3.58-.77-3.59l-.36-1.93c-.03-.14.03-.27.14-.36.13-.1.19-.23.2-.38.04-.64-.71-1.56-1.01-1.86-.15-.15-.15-.39,0-.54s.39-.15.54,0c.13.14,1.28,1.36,1.21,2.44-.02.29-.12.56-.3.76l.3,1.65s.83,1.95.82,3.7c.29.39,1.2,1.66,1.15,2.76-.08,1.34-1.94,3.86-3.17,5.21l-2.91,3.2c-.13.73-.82,4.75-1.57,6.88-.9,2.58-4.27,4.21-5.87,4.52-.36.07-.83.1-1.35.1h-.03Z"
  />
  <path
    d="m143.04,284.59h-.26c-.22-.02-.37-.2-.35-.41.02-.21.21-.36.41-.35,1.02.07,3.39-.29,3.68-.57.09-.19-.15-1.14-.5-1.98-.08-.2,0-.42.21-.5s.42,0,.5.21c.34.8.83,2.24.37,2.78-.49.57-2.99.83-4.04.83h0Zm1.33,17.08c-.17,0-.32-.11-.37-.28-.06-.21.07-.41.26-.47.02,0,.74-.25,3.46-2.12,2.88-1.99,3.67-2.73,3.73-4.16.06-1.45-1.26-2.61-1.27-2.63-.16-.14-.18-.38-.04-.54s.38-.18.54-.04c.07.06,1.61,1.42,1.54,3.24-.07,1.85-1.17,2.77-4.05,4.77-2.84,1.96-3.6,2.2-3.68,2.22-.03,0-.07,0-.1,0h0Zm42.96-138.84c-.07,0-.14-.02-.2-.05-.57-.32-1.19-2.51-1.52-3.77-.05-.21.07-.41.27-.47.21-.05.41.07.47.27.36,1.42.92,3.09,1.18,3.31.19.11.24.33.14.52-.07.12-.2.19-.33.19h0Zm-1.72-35.87c-.22,0-.38-.18-.37-.39.13-7.74,2.21-10.98,2.3-11.12.12-.18.35-.23.53-.11s.23.35.11.53c-.02.03-2.05,3.22-2.17,10.7,0,.21-.18.37-.38.37h0Z"
  />
  <path
    d="m184.58,132.63h-.06c-.21-.03-.35-.23-.32-.44l.51-3.32c.53-3.41,5.09-7.84,5.28-8.03.16-.15.39-.15.54,0,.15.16.15.39,0,.54-.05.04-4.57,4.45-5.05,7.6l-.51,3.32c-.03.19-.2.32-.38.32h0Z"
  />
  <path
    d="m183.5,138.19c-.12,0-.24-.06-.31-.17-1.64-2.39,4.36-10.63,5.05-11.56.13-.17.36-.21.54-.08.17.13.21.36.08.54-2.48,3.35-6.03,9.21-5.03,10.68.12.18.08.41-.1.53-.06.05-.14.07-.22.07h0Z"
  />
  <path
    d="m180.75,153.11h-.04c-.2-.02-.35-.19-.35-.39.03-1.13.05-3.02,0-3.32-.03-.23.11-.87.68-3.35.51-2.2,1.2-5.21,1.17-5.88-.07-1.24,5.06-8.79,6.64-11.07.12-.18.36-.22.53-.1.18.12.22.36.1.53-3.19,4.63-6.5,9.86-6.5,10.6.04.71-.49,3.08-1.19,6.08-.31,1.34-.67,2.86-.67,3.09.04.25.03,1.28.02,2.14,1.59-1.56,5.06-3.3,5.91-3.71.19-.1.42,0,.51.18s0,.42-.18.51c-2.51,1.22-6.11,3.39-6.27,4.35-.03.19-.2.32-.38.32h.03Z"
  />
  <path
    d="m181.22,153.11c-.19,0-.35-.14-.38-.33-.05-.35-.08-.64,5.58-2.36.21-.07.41.05.48.25s-.05.41-.25.48c-2.21.68-4.67,1.51-5.09,1.78-.06.1-.16.17-.28.18h-.05Zm-7.04-.37h-.05c-.21-.03-.36-.22-.33-.42.14-1.15.37-10.79.08-12.79-.3-2.1-.71-10.95-.72-11.33,0-.21.16-.39.36-.4.22,0,.39.16.4.36,0,.09.42,9.19.71,11.25.31,2.16.05,11.91-.08,13-.02.2-.19.33-.38.33h0Zm5.1,14.08c-.06,0-.13-.02-.19-.05-2.53-1.39-5.17-9.14-5.28-9.46-.07-.2.04-.42.24-.49s.42.04.49.24c.73,2.16,3.05,8,4.93,9.04.19.1.25.33.15.52-.07.13-.2.2-.33.2Z"
  />
  <path
    d="m177.02,174.17h-.07c-.22-.02-.37-.2-.35-.41s.21-.37.41-.35c.75.07,5.49-1.34,6.27-1.69.15-.51.16-2.76.16-4.12,0-1.11,0-2.07.06-2.46.08-.63-1.18-3.49-2.1-5.33-.1-.19-.02-.42.18-.52.19-.09.42-.02.51.18.38.77,2.3,4.68,2.17,5.76-.04.34-.05,1.33-.05,2.37-.02,3.93-.1,4.51-.43,4.73-.45.29-5.65,1.85-6.76,1.85Z"
  />
  <path
    d="m157.21,176.27c-2.13,0-8-.83-8.64-1.77-.12-.18-.07-.41.11-.53s.41-.07.53.11c.5.57,6.24,1.55,8.31,1.42.94-.06,3.23-.46,5.45-.85,2.74-.48,4.44-.78,4.92-.74,1.59.12,6.03.34,7.48,0,1.57-.36,6.27-3.55,6.32-3.58.18-.12.41-.08.53.1s.08.41-.1.53c-.2.14-4.87,3.3-6.57,3.69-1.85.43-7.47.03-7.71,0-.39-.02-2.7.37-4.73.73-2.23.39-4.54.8-5.53.86-.1,0-.23,0-.35,0v.03Z"
  />
  <path
    d="m167.02,172.94c-3.01,0-7.3-.43-9.06-1.11-2.47-.94-1.36-5.06-1.32-5.24.06-.21.26-.32.47-.26.21.06.32.26.26.47,0,.04-.97,3.62.85,4.32,2.02.77,8.47,1.32,10.98.94,2.42-.37,8.6-2.74,8.67-2.76.2-.08.42.02.5.22.08.2-.02.42-.22.49-.25.1-6.33,2.43-8.82,2.81-.57.09-1.38.13-2.3.13h0Zm4.48-7.23c-2.81,0-5.33-.46-5.49-.49-.21-.04-.34-.24-.3-.44s.24-.35.45-.3c.06,0,5.77,1.06,9.46,0,.21-.06.41.06.47.26.06.21-.06.41-.26.47-1.32.37-2.86.5-4.32.5Z"
  />
  <path
    d="m164.61,184.43c-2,0-4.19-.23-5.98-.41-1.27-.13-2.37-.25-2.95-.23-2.02.09-10.96-1.66-15.09-2.56-3.49-.75-5.4-1.88-6.39-2.69-.49-.4-.87-.81-1.14-1.24-.59-.93-.02-1.34.32-1.6.3-.22.54-.39.51-.89-.07-1.55,1.53-4.71,1.6-4.85.1-.19.32-.26.52-.17.19.1.26.32.17.52-.44.86-1.56,3.35-1.51,4.47.04.91-.48,1.29-.83,1.54-.22.16-.26.35-.13.57.23.35.55.71.97,1.06.92.75,2.72,1.81,6.06,2.54,4.36.95,13.07,2.61,14.91,2.55.64-.02,1.69.09,3.06.23,2.85.29,6.76.7,9.06.1,2.07-.54,4.29-.93,6.26-1.28,1.32-.24,2.58-.46,3.57-.7,2.02-.47,3.04-1.85,3.24-2.17.06-.98-.02-3.39-.99-4.25-.11-.09-.15-.24-.12-.37l.32-1.4c.05-.21.25-.33.46-.28.21.05.33.25.28.46l-.27,1.19c1.31,1.42,1.08,4.66,1.07,4.81,0,.06-.02.11-.05.16-.05.08-1.16,2.01-3.78,2.61-1.02.24-2.28.46-3.61.71-1.96.35-4.17.74-6.21,1.27-.93.24-2.1.33-3.34.33h0Zm-15,60.79c-.07,0-.15-.02-.22-.07-.18-.12-.23-.35-.11-.53.87-1.3,2.94-5.04,2.09-6.76-1.16-2.3-.5-4.82,0-5.83.35-.71,1.18-3.53,1.3-4.59.05-.43.11-1.83.17-3.44.09-2.25.2-5.06.34-6.39.22-1.85,1.67-4.94,2.38-6.41.17-.34.28-.59.31-.69.19-.51,1.02-2.8,1.02-2.8l.72.25s-.83,2.3-1.02,2.81c-.04.11-.17.37-.34.74-.64,1.33-2.12,4.46-2.31,6.18-.15,1.29-.25,4.08-.34,6.33-.07,1.69-.12,3.04-.17,3.5-.13,1.08-.96,4.02-1.38,4.85-.44.89-1.02,3.1,0,5.14,1.23,2.47-1.99,7.33-2.14,7.53-.08.11-.2.17-.32.17h0Z"
  />
  <path
    d="m135.99,229.97c-.11,0-.22-.05-.28-.14-.84-1.07-4.2-19.45-4.42-21.96-.25-2.98.13-7.27.5-8.92.18-.75.06-1.03-.17-1.57-.2-.47-.47-1.12-.65-2.31-.19-1.26-.51-1.41-.78-1.54-.35-.17-.68-.37-.74-1.1-.15-1.5,2.74-7.84,3.48-8.65.42-.46.79-3.35.93-5.26.02-.21.21-.37.41-.35.22.02.37.2.35.41-.06.81-.37,4.89-1.13,5.72-.7.76-3.39,6.89-3.28,8.06.03.34.09.37.3.47.51.24.99.58,1.22,2.13.17,1.1.4,1.66.6,2.13.25.61.44,1.04.21,2.04-.36,1.57-.73,5.83-.48,8.69.26,3.06,3.62,20.58,4.26,21.56.12.17.08.41-.09.53-.07.05-.15.08-.24.08h0Z"
  />
  <path
    d="m137.1,245.22c-.19,0-.34-.14-.38-.32-.07-.43-.5-1.56-.96-2.74-.72-1.87-1.54-3.99-1.66-5.13-.1-.99.71-4.1,1.89-8.39.64-2.35,1.44-5.27,1.38-5.7-.15-.31-1.38-1.17-2.44-1.75-.19-.1-.25-.33-.15-.52.1-.19.33-.25.52-.15.4.23,2.43,1.38,2.78,2.15.18.4-.11,1.6-1.35,6.16-.87,3.2-1.96,7.19-1.87,8.12.11,1.04.94,3.2,1.61,4.94.51,1.33.92,2.38,1,2.89.04.21-.11.4-.31.44h-.06s0,0,0,0Zm5.57,31.02c-.18,0-.36,0-.56-.02-4.03-.26-5.06-1.1-5.57-2.56-.48-1.37-.03-2.98,0-3.04.06-.21.26-.31.47-.26.21.06.32.27.26.47,0,0-.4,1.43,0,2.58.35,1,.93,1.78,4.9,2.04,3.06.19,4.75-1.43,5.65-2.31.21-.2.36-.34.48-.43.26-.19.36-1.31.27-2.2,0-.12.39-2.79.65-5.18.24-2.35-.37-6.75-.38-6.8,0-.19,0-3.31.33-4.5.32-1.13-.31-3.19-.51-3.79-.28-.85.15-1.78.57-2.67.13-.28.26-.56.36-.83.36-.95,0-2.35,0-2.36-.06-.21.07-.41.26-.47.21-.06.41.07.47.26.02.07.44,1.65,0,2.83-.11.28-.24.59-.38.88-.35.76-.72,1.55-.53,2.12.28.84.89,2.94.52,4.24-.3,1.09-.31,4.2-.31,4.23.02.13.64,4.49.38,6.93-.25,2.4-.65,5.09-.65,5.12.05.46.17,2.28-.6,2.81-.1.07-.23.2-.39.35-.87.84-2.62,2.54-5.68,2.54v.02Z"
  />
  <path
    d="m137.75,273.35c-.16,0-.29-.09-.35-.24-.28-.72-2.26-7.15-2.39-7.85-.05-.28-.12-1.1-.2-2.14-.11-1.44-.24-3.24-.39-4.05-.3-1.67-.67-3.06-.89-3.45-.36-.62-.28-4.1,0-4.55.15-.27.29-2.08,0-3.34-.28-1.19.61-2.26,1.14-2.91.13-.16.27-.33.3-.4.08-.19-.06-1.02-.14-1.51-.07-.43-.15-.87-.17-1.23-.07-1.04.28-1.86.3-1.89.09-.2.31-.27.5-.2.2.09.28.31.2.5,0,0-.29.69-.24,1.53.02.34.09.75.16,1.17.16.97.24,1.59.08,1.96-.07.16-.22.32-.41.57-.47.57-1.18,1.43-.99,2.24.32,1.34.22,3.47-.1,3.94-.15.39-.2,3.33,0,3.74.42.71.86,3.01.98,3.69.16.85.29,2.67.4,4.13.07.93.14,1.81.18,2.06.11.58,2.04,6.92,2.35,7.71.08.2-.02.42-.22.5-.05.02-.1.03-.14.03h0Z"
  />
  <path
    d="m138.37,253.26h-.07c-.59-.1-2.52-.51-2.67-1.53-.13-.83,1.27-1.19,5.84-1.88,1-.16,1.86-.28,2.3-.39,1.01-.25,4.24-4.88,6.04-7.75.11-.18.35-.24.53-.12.18.11.24.35.12.53-.8,1.28-4.91,7.68-6.5,8.08-.47.12-1.35.25-2.37.41-1.63.24-4.57.71-5.16,1.1.21.3,1.17.66,2.01.8.21.04.35.24.31.44-.03.19-.2.31-.37.31h0Zm-9.63-131.34c-.13,0-.26-.07-.33-.19-.18-.3-1.06-.45-1.6-.45-.22,0-.38-.18-.38-.38s.18-.38.38-.38c.29,0,1.8.04,2.26.83.11.19.04.42-.14.52-.06.04-.13.05-.2.05Zm27.23,16.4l-.73-.23s.89-2.84,1.28-3.96c.29-.86,1.82-9.37,2.6-13.75.04-.21.24-.34.44-.31.21.04.34.24.31.44-.09.52-2.23,12.73-2.62,13.87-.38,1.12-1.27,3.95-1.27,3.95h0Zm-11.63,24.48c-1.2,0-5-2.05-5.77-2.46-.19-.1-.25-.33-.16-.52s.33-.25.52-.16c1.69.92,4.61,2.37,5.38,2.37h.03c.92-.26,5.75-7.67,6.04-8.49.24-.69,3.28-10.54,3.31-10.64.06-.21.27-.31.48-.25s.31.27.25.48c-.13.41-3.07,9.97-3.32,10.68-.18.49-5.27,8.9-6.72,8.99h-.06s0,0,0,0Z"
  />
  <path
    d="m142.77,160.26c-.9,0-1.5-.29-1.51-.3-.19-.1-.26-.32-.17-.52s.32-.26.51-.17c.1.05,2.26,1.08,4.51-1.63.14-.17.37-.19.54-.05.17.14.19.37.05.54-1.43,1.72-2.89,2.12-3.94,2.12h0Zm4.72,14.42c-.18,0-.32-.05-.45-.18-.46-.46-3.53-.91-4.83-1.11-2.22-.32-9.66-4.56-10.18-5.08-.53-.53-.11-3.33.34-5.57.2-.99,1.08-2.81,1.12-2.89.09-.19.32-.27.51-.18.19.09.26.32.18.51,0,.02-.87,1.8-1.06,2.7-.47,2.36-.71,4.56-.53,4.92.37.34,7.6,4.52,9.72,4.84,2.83.42,4.61.76,5.21,1.27.18-.02.67-.24,1.06-.41,1.35-.61,3.61-1.63,6.31-1.24.21.03.35.23.32.43s-.23.36-.43.32c-2.47-.35-4.52.57-5.89,1.19-.62.27-1.07.48-1.42.48h.02Z"
  />
  <path
    d="m141.02,168.8h-.08c-3.16-.14-7.22-4.85-7.39-5.04-.14-.16-.12-.4.04-.54s.4-.12.54.04c.04.05,4.02,4.66,6.85,4.78h.06c2.39,0,8.49-5.75,10.66-7.98.15-.16.39-.16.54,0,.16.15.16.39,0,.54-.82.85-8.06,8.22-11.22,8.22h.02Zm5.39-.7c-.21,0-.37-.16-.38-.37,0-.22.16-.39.37-.4.03,0,3.19-.16,5.29-2.43.15-.16.39-.17.54-.02.16.15.17.38.02.54-2.31,2.52-5.68,2.67-5.82,2.67h-.02s0,0,0,0Zm76.7-8.81h-9.42v-.76s13.59,0,13.59,0c1.39,0,2.03-1.26,2.31-2.32.2-.71,2.71-8.4,5.39-16.55,2.49-7.59,5.31-16.19,5.4-16.6.06-.24.11-.7-.14-1.09-.19-.28-.51-.47-.96-.56-1.31-.25-38.12-3.25-40.6-3.31-2.62-.07-3.35.65-3.77,1.97-.29.93-3.39,12.93-5.88,22.56-1.79,6.94-3.33,12.94-3.56,13.78-.24.83-.24,1.41-.03,1.7.19.25.61.38,1.33.4,1.51.04,12.58,0,12.69,0,.22,0,.38.17.38.38s-.17.38-.38.38c-.46,0-11.19.04-12.71,0-.67-.02-1.49-.12-1.93-.71-.37-.51-.4-1.25-.09-2.36.24-.83,1.78-6.83,3.56-13.76,2.61-10.16,5.58-21.66,5.89-22.61.61-1.89,1.83-2.59,4.52-2.5,2.73.07,39.26,3.05,40.72,3.32.66.13,1.16.43,1.46.89.3.46.39,1.06.24,1.67-.1.4-2.2,6.87-5.42,16.67-2.55,7.79-5.19,15.84-5.38,16.52-.51,1.86-1.59,2.88-3.05,2.89h-4.18s0,0,0,0Z"
  />
  <path
    d="m184.68,159.31c-.15,0-.31,0-.48-.04-.2-.04-20.3-4.08-21.09-4.63-.46-.32-.68-.83-.54-1.26.14-.44.59-.71,1.2-.71h21.83c.22,0,.38.18.38.38s-.18.38-.38.38h-21.83c-.25,0-.44.07-.47.17-.03.1.05.27.24.41.91.46,19.74,4.32,20.78,4.51.65.13,1.05-.13,1.06-.14.18-.12.41-.07.53.11s.07.41-.1.53c-.02,0-.45.29-1.15.29Z"
  />
  <path
    d="m184.89,157.25h-.07c-.28-.06-7.03-1.34-7.75-1.54-.46-.13-.49-.39-.47-.54.08-.6,1.55-.66,2.17-.66h6.69c.22,0,.38.18.38.38s-.18.38-.38.38h-6.74c1.75.35,4.55.9,6.24,1.21.21.04.34.24.3.45-.04.19-.2.31-.37.31h0Z"
  />
  <path
    d="m184.58,157.58h-.08s-20.81-4.14-20.81-4.14c-.21-.04-.34-.24-.3-.45s.24-.34.45-.3l20.81,4.14c.21.04.34.24.3.45-.04.19-.2.3-.37.3Zm19.53,7.66c-.4,0-1.46-.45-1.87-.64-.91,0-4.83-.21-6.83-1.05-2.15-.9-2.63-4.11-2.65-4.25-.03-.21.12-.4.32-.43.21-.04.4.12.43.32,0,.03.44,2.92,2.19,3.65,1.93.81,5.95.99,6.62.99.06,0,.11,0,.16.03.64.29,1.44.6,1.63.61.24-.1,1.99-1.49,4.09-3.29l.14-.12c.46-.39,1.32-1.11,1.53-1.92.78-3.14,1.61-6.7,1.6-7.12-.02-.02-.07-.2-.13-.39-.07-.24-.2-.68-.29-.87-.28.11-1.14.64-1.35,1.06-.29.59-1.82,5.84-1.87,6.29,0,.14,0,.47-1.98,2.24-.16.14-.4.13-.54-.03-.14-.16-.13-.4.03-.54.75-.68,1.64-1.55,1.73-1.77,0-.34,1.63-5.91,1.94-6.53.35-.7,1.76-1.6,2.28-1.48.36.09.52.53.78,1.43.05.17.09.31.12.4.06.14.19.46-1.58,7.51-.26,1.05-1.24,1.87-1.77,2.32l-.14.11c-4.05,3.48-4.42,3.48-4.59,3.48h0Z"
  />
  <path
    d="m201.75,163.44c-.16,0-.3-.1-.36-.25-.07-.2.03-.42.23-.49.03,0,2.49-.92,3.17-2.24.39-.75.46-1.83.51-2.77.05-.82.09-1.48.32-1.89.52-.9,1.09-3.28.76-3.55-.53-.2-1.58.75-2.08,1.67-.31.59-.51,1.38-.68,2.09-.09.37-.17.71-.26.98-.15.45-.41,1.19-.63,1.79-.15.43-.28.79-.33.95-.15.45-.81,1.03-1.01,1.19-.17.14-.4.12-.54-.05s-.12-.4.05-.54c.33-.27.72-.69.77-.85.05-.16.19-.53.33-.96.22-.61.47-1.33.62-1.78.09-.24.16-.57.24-.92.18-.74.38-1.59.74-2.27.57-1.07,1.92-2.45,3.03-2.03.16.06.36.2.48.53.37,1.05-.5,3.49-.86,4.11-.15.25-.19.92-.23,1.56-.06,1.02-.13,2.17-.6,3.09-.82,1.58-3.48,2.57-3.59,2.61-.04.02-.09.02-.13.02h.03Zm5.01,1.05c-.73,0-1.39-.13-1.43-.14-.21-.04-.34-.24-.3-.45.04-.21.24-.34.45-.3,0,0,1.37.26,2.23,0,.4-.12,1.54-1.07,2.44-1.84,1.31-1.11,2.14-1.78,2.61-1.9.36-.24,1.02-2.81,1.37-5.04.21-1.09.29-2.16.24-2.57-.59.24-2.1,1.53-2.14,2.09-.08.88-.97,2.52-1.07,2.7-.1.19-.33.25-.52.15-.19-.1-.25-.33-.15-.52.25-.46.93-1.78.98-2.4.09-.99,2.22-2.83,3.06-2.83h0c.16,0,.3.08.41.21.41.5.15,2.28-.04,3.3-.39,2.46-1.06,5.46-1.96,5.66-.32.08-1.46,1.04-2.29,1.73-1.34,1.14-2.19,1.83-2.71,1.99-.36.11-.77.14-1.17.14l-.02.03Z"
  />
  <path
    d="m198.71,163.01c-.08,0-.16,0-.23-.02-.85-.18-1.16-1.36-1.19-1.5-.05-.21.08-.41.28-.46s.41.08.46.28c.08.34.33.87.6.92.29.06.84-.24,1.17-.48l1.63-2.8c-.28-.36-.73-.78-.94-.65-.46.27-1.46,1.66-1.99,2.48-.12.18-.35.23-.53.11-.17-.12-.23-.35-.12-.53.15-.23,1.47-2.25,2.23-2.71,1-.61,2.01.9,2.12,1.07.08.12.08.27,0,.4l-1.78,3.08s-.05.08-.09.11c-.1.08-.88.71-1.63.71h0Zm15.88-1.39h-.16c-.74-.04-3.01,0-3.04,0-.21,0-.38-.17-.38-.37s.17-.38.37-.39c.1,0,2.32-.04,3.09,0,1,.07,2.64-.3,2.73-.69.12-.47-.64-.9-.65-.91-.19-.1-.25-.33-.15-.52.1-.19.33-.25.52-.15.48.26,1.22.92,1.02,1.76-.26,1.09-2.61,1.27-3.37,1.27h0Z"
  />
  <path
    d="m197.05,165.85c-.48,0-.84-.06-1.02-.19-.09-.06-.26-.19-.5-.34-2.68-1.85-2.91-2.05-2.79-2.34-.06-.38-.44-2.01-.81-3.47-.05-.21.07-.41.27-.47.21-.05.41.07.47.27.6,2.33.78,3.21.83,3.58.35.31,1.87,1.36,2.47,1.77.24.17.42.29.51.35.43.19,3.58-.15,4.91-1.17.17-.13.41-.1.54.07s.1.41-.07.54c-1.12.86-3.42,1.36-4.8,1.36v.02Z"
  />
  <path
    d="m191.93,170.03c-.2,0-.31-.09-.37-.17-.16-.2-.81-.73-1.52-1.3-.31-.25-.65-.53-.98-.81-1.07-.89-1.95-2.86-2.16-3.38-.6-.34-3.29-1.87-3.87-2.27-.69-.48-1.9-2.8-2.14-3.26-.1-.19-.02-.42.17-.52.19-.1.42-.02.52.17.56,1.08,1.51,2.71,1.9,2.99.62.43,3.9,2.28,3.93,2.3.08.04.14.11.17.2,0,.02.94,2.32,2,3.2.33.27.67.55.98.8.75.62,1.24,1.02,1.51,1.28,1.12-.25,6.73-3.2,7.4-4.41.11-.19.34-.24.52-.15.19.11.24.33.15.52-.85,1.5-7.06,4.72-8.12,4.81h-.06s-.02,0-.02,0Z"
  />
  <path
    d="m194.64,165.28c-2.85,0-5.5-1.23-5.62-1.29-.2-.09-.27-.31-.19-.51.09-.19.31-.27.51-.19.03,0,3.2,1.49,6.14,1.18.22,0,.4.13.42.34s-.13.4-.34.42c-.31.03-.62.05-.92.05Zm-61.88-33.47h-.06s-6.51-.96-6.51-.96c-.21-.03-.35-.23-.32-.43s.23-.36.43-.32l6.51.96c.21.03.35.23.32.43-.03.19-.2.32-.38.32h0Zm-.96,13.26h-.04s-7.4-.71-7.4-.71c-.22-.02-.36-.21-.34-.42s.21-.35.42-.34l7.4.71c.22.02.36.21.34.42-.02.2-.19.34-.38.34Zm8.23,6.57c-.2,0-.36-.15-.38-.34l-.83-8.17,1.15-10.77s0-.07.02-.1l3-7.87c.04-.11.14-.2.24-.24.12-.04.24,0,.33.06l1.93,1.4c.17.13.21.36.09.54-.13.17-.36.21-.54.09l-1.53-1.11-2.8,7.36-1.15,10.65.83,8.09c.02.21-.13.4-.34.42h-.04s.02,0,.02,0Z"
  />
  <path
    d="m139.2,143.48l-6.44-.13c-.22,0-.38-.18-.37-.39,0-.21.18-.35.39-.37l6.44.13c.22,0,.38.18.37.39,0,.21-.18.37-.38.37h0Zm1.15-10.69h-.06s-6.51-.98-6.51-.98c-.21-.03-.35-.23-.32-.43s.23-.35.43-.32l6.51.98c.21.03.35.23.32.43-.03.19-.2.32-.38.32h0Zm3-7.87h-.06s-6.26-1.02-6.26-1.02c-.21-.03-.35-.24-.31-.44s.23-.34.44-.31l6.26,1.02c.21.03.35.24.31.44-.03.19-.2.32-.38.32h0Zm1.28,8.93c-.2,0-.37-.16-.38-.36l-.37-5.89-1.02-.8c-.17-.13-.2-.37-.06-.54.13-.17.37-.2.54-.06l1.15.91c.09.07.14.17.15.27l.38,6.06c0,.21-.15.39-.36.4h-.02Z"
  />
  <path
    d="m141.95,144.69c-.38,0-.74-.16-1.05-.45-1.02-.96-1.38-3.28-1.38-5.12,0-2.65,1.99-6.53,3.4-7.28.38-.2.7-.12.88,0,.92.5,1.17,2.74,1.2,3.18.02.21-.14.4-.34.41-.22.02-.39-.14-.42-.34-.1-1.09-.44-2.38-.81-2.59-.03,0-.07-.04-.17.02-1.05.55-2.99,4.15-2.99,6.59,0,2.09.46,3.92,1.15,4.56.18.17.35.24.56.24,1.01-.06.98-1.46.98-1.52,0-.21.16-.38.37-.39.22.03.39.16.39.37.03.76-.29,2.23-1.7,2.3h-.08s0,.02,0,.02Z"
  />
  <path
    d="m142.61,143.5h-.1c-.31-.06-.42-.36-.5-.58,0-.03-.03-.08-.05-.12-.17,0-.33-.03-.46-.13-.3-.23-.45-.72-.45-1.48v-1.21c0-.06.02-.64.58-1.14.14-.13.06-.73-.1-1.18-.03-.07-.03-.15-.02-.22l.36-1.68c.03-.12.11-.22.22-.26l.51-.24c-.12-.35-.13-.81.24-1.18.16-.16.37-.24.59-.21.56.08,1.03.82,1.17,1.05.11.19.04.42-.14.52-.19.11-.42.04-.52-.14-.19-.32-.48-.66-.6-.68-.16.2.09.58.1.59.06.09.08.21.05.31s-.11.2-.21.24l-.69.32-.29,1.39c.13.38.4,1.42-.14,1.9-.3.27-.32.56-.32.57v1.2c0,.59.11.83.15.87.43-.17.64.27.73.52.68-.55,1.63-.56,1.66-.56.22,0,.38.17.38.38s-.17.38-.38.38c-.24,0-.92.08-1.24.44-.17.19-.33.27-.51.27h-.02Z"
  />
  <path
    d="m160.71,144.38h-.07s-14.26-2.72-14.26-2.72c0,.06-.04.12-.09.17l-.72.83c-.07.09-.18.13-.29.13h-.91c-.17,0-.3-.11-.36-.25-.02-.06-.53-1.56-.53-3.4s1.03-3.78,1.07-3.86c.09-.16.26-.24.44-.19l1.47.4c.13.04.23.14.26.26,0,0,.16.54.25.9l14.56,2.45s.11.03.15.06c.05.03,1.15.79.93,2.72-.22,1.94-1.72,2.47-1.79,2.49-.04,0-.08.02-.12.02h0Zm-14.7-3.57h.06s14.59,2.78,14.59,2.78c.26-.12,1.06-.59,1.19-1.81s-.38-1.8-.55-1.96l-14.71-2.47c-.15-.03-.27-.14-.3-.28,0-.02,0-.04-.02-.06-.3,1.18-.55,2.86-.26,3.8Zm-1.36,1.21h.45s.41-.47.41-.47c-.88-1.46,0-4.69.13-5.08.05-.19.24-.29.42-.27v-.03s-.96-.26-.96-.26c-.26.57-.84,1.93-.84,3.22s.27,2.41.41,2.89h-.02Z"
  />
  <path
    d="m142.31,140.39c-.31,0-.56-.03-.61-.04-.21-.03-.35-.23-.32-.43s.23-.35.44-.32c.26.04,1.12.1,1.5-.2.11-.08.16-.18.18-.31.07-.66-1.21-1.09-1.67-1.18-.21-.04-.34-.24-.29-.45.04-.21.24-.33.45-.29.91.19,2.41.82,2.28,2.01-.04.34-.2.64-.47.84-.41.32-1.02.39-1.47.39v-.02Zm1.39-3.87c-.75,0-1.48-.26-1.6-.31-.2-.08-.29-.29-.22-.49s.29-.3.5-.22c.38.15,1.58.47,2.07.07.16-.14.4-.12.54.05.14.17.12.4-.05.54-.34.28-.79.38-1.23.38v-.02Zm.16,5.94c-.15,0-.29-.09-.35-.24-.11-.25-.96-.24-1.65-.04-.21.06-.41-.06-.47-.26s.06-.41.26-.47c.35-.1,2.14-.55,2.57.48.08.2,0,.42-.21.5-.05.02-.1.03-.15.03h0Zm-3.96,5.88c-.1,0-.2-.04-.27-.11-.15-.15-.15-.39,0-.54l1.16-1.16.86-2.34c.07-.2.29-.3.49-.23.2.07.3.29.23.49l-.89,2.43s-.05.1-.09.14l-1.21,1.21c-.08.08-.18.11-.27.11h0Zm-18.82-3.26c-.07,0-.14-.02-.21-.06-.31-.2-.82-.26-1.36-.33-.52-.07-1.05-.14-1.55-.33-1.02-.39-1.05-1.63-.91-2.29.05-.21.24-.33.45-.29.21.04.34.24.29.45,0,0-.24,1.16.43,1.41.41.16.9.23,1.37.28.63.09,1.21.16,1.66.45.18.12.24.35.12.53-.07.12-.2.18-.32.18h.02Z"
  />
  <path
    d="m122.22,149.54c-.14,0-.27-.08-.34-.21-1.04-2.06-2.4-4.42-2.79-4.63-.21-.07-.3-.27-.24-.48s.29-.31.49-.24c.71.23,2.32,3.23,3.22,5,.1.19.02.42-.17.52-.06.03-.12.04-.18.04Z"
  />
  <path
    d="m135.61,160.4c-2.71,0-8.45-1.8-9.96-2.82-1.7-1.16-5.32-6.13-5.77-7.94s-.46-4.82-.46-4.94c0-.22.18-.38.38-.38s.38.18.38.38c0,.03,0,3.04.44,4.76.41,1.66,3.89,6.42,5.46,7.49,1.48,1,7.54,2.88,9.87,2.67,1.9-.16,2.58-3.72,2.83-5.05l.05-.26c.24-1.21,0-2.7,0-2.71-.03-.21.11-.4.31-.44.21-.03.4.11.44.31,0,.07.26,1.64,0,2.99l-.05.26c-.31,1.64-1.04,5.47-3.52,5.68-.13,0-.25.02-.4.02l-.02-.02Zm-.06-39.82c-.15,0-.28-.08-.34-.22-2.52-5.36-4.93-6.37-4.95-6.38-.2-.08-.29-.3-.22-.5.08-.2.29-.29.49-.22.11.04,2.69,1.08,5.37,6.77.09.2,0,.42-.19.51-.05.02-.11.04-.17.04h0Zm-4.66.25c-.18,0-.33-.12-.37-.29v-.02c-.09-.17-.41-.71-.68-1.14-1.27-2.08-1.36-2.31-1.29-2.57.03-.1.11-.21.21-.24.19-.1.42-.02.51.17.03.06.04.13.04.2.13.31.78,1.39,1.19,2.05.57.93.82,1.47.75,1.62-.05.12-.15.2-.27.23-.03,0-.06,0-.09,0h0Zm-20.4,15.88c-.06,0-.12,0-.18,0-.81-.1-2.06-1.03-2.13-3.22-.07-2.14,1.23-3.69,2.14-3.77.73-.07,1.41.68,1.69,1.02h1.54c.22,0,.38.18.38.38s-.18.38-.38.38h-1.72c-.13,0-.24-.06-.31-.16-.25-.36-.82-.87-1.12-.86-.46.04-1.5,1.24-1.44,2.99.06,1.69.92,2.42,1.45,2.49.46.04.78-.35.79-.37.13-.17.36-.21.54-.08.17.13.21.36.08.53-.02.03-.52.69-1.32.69h0Z"
  />
  <path
    d="m112.41,135.83h-.07s-1.93-.32-1.93-.32c-.11-.02-.21-.08-.26-.18-1.47-2.31,0-4.13.03-4.15.14-.16.38-.19.54-.05.17.14.19.37.05.54-.05.06-1.08,1.35-.06,3.1l1.75.29c.21.04.35.24.31.44-.03.19-.2.32-.37.32h0Z"
  />
  <path
    d="m107.86,144.69c-.17,0-.31-.11-.36-.27l-.96-3.12s-.02-.09-.02-.14l.83-12.92s0-.08.02-.11l2.74-7.28c.04-.1.12-.18.22-.22l1.34-.54c.1-.04.22-.04.31,0s.17.13.21.24l1.72,5.68s.02.09.02.14c-.22,3-.35,4.59-.4,4.75-.07.2-.28.31-.48.24s-.3-.26-.24-.46c.05-.27.24-2.88.36-4.51l-1.58-5.21-.79.32-2.66,7.07-.82,12.79.82,2.69,1.48-.42,2.19-5.79c.08-.2.29-.29.49-.23.2.08.29.29.23.49l-2.26,5.97c-.04.12-.14.2-.25.24l-2.02.58s-.07.02-.11.02l-.02-.02Z"
  />
  <path
    d="m106.9,148.9s-.1,0-.15-.03c-.1-.04-.18-.13-.22-.24l-2.43-7.34s-.02-.1-.02-.15l.83-13.48s0-.08.03-.12l3.63-9.11c.04-.1.12-.18.22-.22l4.15-1.6c.11-.04.23-.03.32.02s.17.15.2.25l1.72,8.04s0,.08,0,.11c-.13,1.42-.31,3.75-.31,3.95,0,.22-.18.38-.38.38s-.38-.18-.38-.38c0-.27.26-3.37.31-3.96l-1.62-7.54-3.57,1.37-3.56,8.89-.82,13.34,2.26,6.85,2.78-1.34,2.69-7.65c.07-.2.28-.3.49-.24.2.07.3.28.24.49l-2.74,7.81c-.03.1-.11.18-.2.22l-3.32,1.6s-.11.04-.17.04v.02Z"
  />
  <path
    d="m107.74,132.62h-.02c-.22,0-.37-.19-.37-.4.05-1.39.64-4.88,2.03-6.16.4-.36.84-.54,1.3-.52.46.02.85.22,1.17.57,1.12,1.24.94,4.24.93,4.37,0,.22-.21.38-.4.35-.22,0-.37-.2-.36-.4.05-.77,0-2.97-.73-3.81-.18-.21-.39-.3-.64-.31-.25,0-.51.09-.75.31-1.14,1.04-1.73,4.23-1.78,5.62,0,.21-.18.37-.38.37h.02Zm.78,8.69c-1.55,0-1.77-2.84-1.79-3.16,0-.21.15-.39.36-.4.22-.02.39.15.4.36.05.77.38,2.45,1.04,2.45h.02c.95-.05,2.64-2.56,2.9-4.74.03-.21.22-.36.42-.33.21.02.36.22.33.42-.26,2.3-2.07,5.35-3.62,5.43h-.07s0-.02,0-.02Z"
  />
  <path
    d="m106.9,148.9h-.06s-7.02-1.09-7.02-1.09c-.15-.02-.26-.13-.31-.27l-2.17-7.46s-.02-.08-.02-.13l.58-13.58s0-.1.03-.14l4.15-9.37c.05-.11.15-.2.26-.22l5.3-1.15s.11,0,.16,0l5.36,1.15c.21.04.34.24.29.45-.04.21-.25.34-.45.29l-5.28-1.13-5.02,1.09-4.04,9.14-.57,13.45,2.09,7.17,6.78,1.05c.21.03.35.23.32.44-.03.19-.2.32-.38.32h.02Z"
  />
  <path
    d="m104.48,141.56h-.07s-6.77-1.21-6.77-1.21c-.21-.04-.34-.24-.31-.44.04-.21.24-.34.44-.31l6.77,1.21c.21.04.34.24.31.44-.03.19-.2.31-.37.31Zm.82-13.47h-.07s-7.02-1.32-7.02-1.32c-.21-.04-.34-.24-.3-.45.04-.21.24-.35.45-.3l7.02,1.32c.21.04.34.24.3.45-.04.19-.2.31-.37.31h0Zm3.64-9.12s-.06,0-.09,0l-6.51-1.6c-.21-.05-.33-.25-.28-.46.05-.21.25-.32.46-.28l6.51,1.6c.21.05.33.25.28.46-.04.18-.2.29-.37.29Z"
  />
  <path
    d="m99.17,145.33h-.08s-5.28-1.09-5.28-1.09c-.13-.03-.24-.12-.28-.24l-2.17-5.74s-.03-.1-.02-.16l.64-12.18s0-.09.03-.13l3.38-8.13c.05-.12.16-.21.27-.23l3.9-.79s.09,0,.14,0l2.17.32c.21.03.35.23.32.43s-.23.36-.43.32l-2.11-.31-3.62.74-3.28,7.88-.63,12.04,2.07,5.46,5.07,1.05c.21.04.34.24.29.45-.04.18-.2.3-.37.3v-.02Z"
  />
  <path
    d="m97.97,127.43h-.08s-5.61-1.11-5.61-1.11c-.21-.04-.34-.24-.3-.45s.24-.34.45-.3l5.61,1.11c.21.04.34.24.3.45-.04.19-.2.3-.37.3Zm-.51,12.08h-.07s-5.75-1-5.75-1c-.21-.04-.34-.24-.31-.44.04-.21.24-.34.44-.31l5.75,1c.21.04.34.24.31.44-.03.19-.2.31-.37.31Zm4.27-20.53h-.05s-5.99-.79-5.99-.79c-.21-.03-.35-.22-.33-.43.03-.21.22-.35.43-.33l5.99.79c.21.03.35.22.33.43-.03.2-.19.33-.38.33Zm-10.02,13.64h-.08s-13.24-2.79-13.24-2.79c-.63-.14-1.8-.84-1.74-2.56.06-1.76,1.7-2.17,2.59-2.15l13.07,2.5c.21.04.34.24.3.45s-.24.34-.45.3l-13.02-2.49c-.12,0-1.69,0-1.74,1.42-.05,1.47,1.02,1.75,1.14,1.78l13.24,2.79c.21.04.34.24.29.45-.04.18-.2.3-.37.3h0Zm41.3,20.81h-.04s-6.89-.76-6.89-.76c-.17-.02-.29-.14-.33-.3l-1.72-8.3s0-.09,0-.13l1.85-13.53,2.69-9.62c.04-.14.15-.24.28-.26l4.21-.96c.06,0,.12,0,.18,0l5.36,1.27c.13.03.24.13.27.25l.71,2.11c.07.2-.04.42-.24.48-.21.07-.42-.04-.48-.24l-.64-1.9-5.06-1.2-3.91.89-2.61,9.35-1.83,13.41,1.66,7.95,6.51.72,3.15-1.49c.2-.09.42,0,.51.19.09.2,0,.42-.19.51l-3.25,1.53s-.11.04-.17.04h0Z"
  />
  <path
    d="m140.03,151.64h-5.88c-.19,0-.34-.14-.38-.32l-1.4-8.3v-.1s1.09-11.55,1.09-11.55c0,0,0-.08.03-.11l3.25-7.91c.04-.1.12-.18.23-.22l1.93-.71c.07-.02.15-.03.22,0l4.9,1.09c.1.02.18.08.24.17l1.72,2.6c.04.06.07.14.07.22v6.94s-.25,2.4-.25,2.4c-.02.21-.22.35-.42.34-.21-.02-.36-.22-.34-.42l.25-2.36v-6.79s-1.58-2.37-1.58-2.37l-4.63-1.04-1.67.61-3.17,7.7-1.08,11.44,1.34,7.92h5.35s2.02-2.85,2.02-2.85l1.07-3.45.64-2.28c.06-.21.26-.32.47-.26.21.06.32.26.26.47l-.64,2.29-1.09,3.52s-.03.08-.05.11l-2.17,3.07c-.07.1-.19.16-.31.16h0Z"
  />
  <path
    d="m132.76,153.11c-.12,0-.24-.05-.3-.16-.09-.12-.1-.26-.04-.38.06-.58-.46-4.42-.99-7.83l.95-13.36s0-.07.02-.1l3.32-9.25c.04-.11.12-.19.22-.23l2.43-.96c.2-.08.42.02.5.22.08.2-.02.42-.22.5l-2.26.89-3.24,9.04-.95,13.21c1.24,7.98,1.02,8.16.8,8.31-.07.05-.15.08-.23.08h0Z"
  />
  <path
    d="m136.07,122.55h-.07s-7.15-1.27-7.15-1.27c-.21-.04-.34-.24-.31-.44.04-.21.24-.34.44-.31l7.15,1.27c.21.04.34.24.31.44-.03.19-.2.31-.37.31Zm25.01-12.7c-.66,0-1.3-.02-1.93-.05-2.74-.16-4.31-.86-5.68-1.48-.85-.38-1.66-.74-2.66-.95-1.85-.38-3.53-1.83-4.98-4.29l-.06-.1c-.44-.73.18-1.44.83-2.17.18-.2.35-.4.54-.62,1-1.22,2.81-.5,2.89-.47.2.08.28.3.21.5s-.3.29-.5.21c0,0-1.37-.54-2.01.24-.19.24-.38.44-.56.65-.57.64-.89,1.04-.75,1.27l.06.11c1.34,2.26,2.85,3.58,4.48,3.93,1.1.23,1.94.61,2.82,1,1.38.62,2.81,1.26,5.42,1.41,4.43.26,9.6-.47,10.82-.93,1.45-.55,5.53-3.62,5.63-4.59.03-.29-.31-.66-.88-.92-.82-.38-2.02-.49-2.52,0-.15.15-.39.16-.54,0-.15-.15-.16-.39,0-.54.77-.79,2.28-.69,3.39-.18.89.41,1.38,1.05,1.31,1.69-.16,1.56-4.82,4.74-6.12,5.23-1.24.48-5.39,1.04-9.21,1.04h0Z"
  />
  <path
    d="m154.71,105.75c-.14,0-.26-.07-.33-.2-.81-1.44-.88-5.31-.92-6.96,0-.34,0-.57-.02-.65-.07-.2.05-.39.24-.46.21-.07.42.07.49.26.03.09.03.18.05.82.03,1.46.1,5.34.82,6.6.11.19.04.42-.15.52-.06.03-.13.05-.19.05h0Zm7.83-2.87c-.44,0-.93-.32-1.16-.5-.17-.13-.21-.36-.08-.54s.36-.21.54-.08c.25.19.6.33.7.34.21-.14,1.5-1.08,1.97-1.43.17-.13.41-.09.54.08.13.17.09.41-.08.54-.18.13-1.74,1.29-2.08,1.49-.11.07-.23.09-.35.09h0Zm3.06,3.41c-.14,0-.27-.08-.34-.21-.1-.19-.03-.42.17-.52.81-.42,1.91-2.47,2.26-3.22.09-.19.31-.27.51-.19s.27.31.19.51c-.14.3-1.41,2.96-2.61,3.57-.06.03-.12.04-.18.04h0Zm-15.22-3.12c-.13,0-.24-.06-.32-.18-.12-.18-.06-.41.12-.53.62-.4,1.39-1.18,1.85-1.64.19-.19.32-.32.39-.38.17-.14.4-.11.54.05.14.17.11.4-.05.54-.06.05-.18.17-.33.33-.48.48-1.29,1.29-1.98,1.73-.07.04-.14.06-.21.06h0Zm-24.76,27.69c-.2,0-.36-.15-.38-.34-.51-4.72.32-7.21.55-7.8-.24-1.16.22-4.14,1.06-6.85.97-3.11,3.37-4.66,4.65-5.5l.87-.57c2.18-1.41,7.97-5.15,8.9-5.91,1.13-.9,4.13-2.01,4.26-2.06.2-.07.42.03.49.23s-.03.42-.23.49c-.03,0-3.02,1.11-4.04,1.93-.96.77-6.57,4.41-8.96,5.95l-.87.56c-1.29.83-3.45,2.23-4.34,5.08-.98,3.14-1.22,5.86-1.02,6.53.03.09.02.19-.02.27,0,.02-1.1,2.42-.54,7.51.02.21-.13.4-.34.42h-.04s0,.04,0,.04Zm68.55-8.93c-.16,0-.3-.1-.36-.25-.02-.07-2.36-6.67-3.47-8.33-.75-1.14-2.03-1.8-3.64-2.64-.7-.36-1.41-.73-2.17-1.19-2.53-1.52-8.64-5.58-8.7-5.62-.18-.12-.23-.35-.11-.53s.35-.23.53-.11c.06.04,6.15,4.09,8.67,5.6.74.44,1.45.81,2.14,1.18,1.65.86,3.07,1.61,3.93,2.9,1.17,1.74,3.46,8.23,3.56,8.5.07.2-.04.42-.24.49-.04.02-.09.02-.13.02h0Zm-69.76,22.77h-.07c-1.38-.24-4.63-.83-5.11-1.27-.17-.15-.57-.29-.92-.42-.48-.17-.93-.33-1.16-.61-.18-.22-1.28-1.15-2.82-2.37-.16-.13-.88-.37-1.46-.52-.1-.03-.18-.09-.23-.18l-1.15-1.89c-.06-.1-.07-.21-.04-.31.58-1.8,2.52-7.75,3.31-8.4.89-.74,3.33.36,4.05.71.19.09.26.32.18.51-.09.19-.32.27-.51.18-1.28-.63-2.88-1.11-3.22-.81-.43.37-1.86,4.27-3.02,7.88l.98,1.62c.42.12,1.27.37,1.59.63.97.77,2.62,2.12,2.93,2.48.1.12.53.26.82.37.45.16.91.32,1.19.58.3.22,2.68.73,4.72,1.09.21.04.35.24.31.44-.03.19-.2.31-.37.31h0Z"
  />
  <path
    d="m114.12,136.18c-.15,0-.28-.08-.34-.22-.09-.19,0-.42.18-.51.5-.24,1.87-1.01,2.18-1.65l.06-.12c1.53-3.06,2.49-4.54,3.12-4.84.99-.46,1.84,0,1.88,0,.06.03.11.08.14.13l.83,1.27c.12.18.07.41-.11.53s-.41.07-.53-.11l-.76-1.19c-.18-.07-.61-.19-1.11.05-.25.12-.94.85-2.75,4.49l-.06.13c-.49.98-2.33,1.89-2.54,1.99-.05.03-.11.04-.17.04h-.03Z"
  />
  <path
    d="m118.39,135.44c-.15,0-.28-.08-.35-.23-.09-.2,0-.42.19-.51,0,0,1.29-.6,1.73-1.43.12-.22.27-.55.46-.94,1.02-2.14,1.56-3.12,2.08-3.27.15-.05.3-.03.43.05s.38.14.63.2c.6.14,1.41.32,1.59,1.06.17.67.59,1.19.59,1.19.14.17.11.4-.05.54-.17.14-.4.11-.54-.05-.02-.03-.54-.65-.74-1.49-.07-.27-.58-.39-1.02-.5-.26-.06-.51-.12-.71-.22-.38.36-1.19,2.07-1.55,2.82-.19.4-.35.75-.47.97-.57,1.06-2.04,1.73-2.1,1.76-.05.02-.11.03-.16.03v.02Z"
  />
  <path
    d="m123.57,135.51h0c-.24,0-.38-.18-.43-.33-.06-.21.06-.41.25-.48.03,0,.07-.02.1-.02.1-.16.26-.53.54-1.33.75-2.23,1.58-2.57,1.73-2.61.21-.06.41.06.47.26s-.06.41-.26.47-.59.28-1.2,2.12c-.55,1.62-.82,1.92-1.18,1.92h0Zm-5.46,5.8c-.13,0-.24-.06-.32-.18-.15-.23-.7-.93-1.19-1.56-.43-.55-.83-1.07-.95-1.25-.29-.44.02-1.69.33-2.66.07-.2.28-.31.48-.24.21.07.31.28.24.48-.28.87-.48,1.82-.41,2.03.1.15.49.65.91,1.18.52.67,1.06,1.35,1.22,1.61.12.18.06.41-.12.53-.07.04-.14.06-.21.06v.02Zm2.14-2.11c-.11,0-.21-.04-.28-.13-.03-.03-.62-.7-.89-1.31-.29-.66.16-2.27.3-2.75.06-.21.27-.32.48-.25.21.06.31.27.25.48-.25.86-.45,1.96-.33,2.22.23.51.75,1.11.76,1.11.14.16.13.4-.03.54-.07.07-.17.1-.25.1h0Zm.83,3c-.2,0-.36-.15-.38-.34-.04-.32-.46-1.02-.75-1.41-.13-.17-.09-.41.08-.54.17-.13.41-.1.54.08.09.11.83,1.13.9,1.78.02.21-.13.4-.34.42h-.04s0,0,0,0Zm3.37-2.97c-.32,0-.83-.1-1.25-.64-.59-.75-.59-1.71-.59-2.03,0-.22.18-.38.38-.38s.38.18.38.38c0,.24,0,1,.43,1.56.33.43.73.34.78.33.2-.05.41.07.47.27s-.06.41-.26.47c0,0-.15.04-.34.04h0Zm-.94,3.55c-.16,0-.31-.1-.36-.26-.35-1.04-.03-2.57,0-2.63.05-.21.24-.34.45-.29.21.04.34.24.29.45,0,0-.29,1.38,0,2.22.07.2-.04.42-.24.48-.04,0-.08.02-.12.02v.02Z"
  />
  <path
    d="m118.35,138.15c-.21,0-.39-.04-.52-.17-.15-.15-.16-.39,0-.54.13-.13.32-.15.47-.06.17,0,.6-.08.69-.19,0-.22.16-.37.38-.32.22,0,.36.23.35.44,0,.17-.1.48-.62.69-.15.06-.47.15-.76.15h0Zm4.47-.19c-.29,0-.75-.09-1.47-.3-.21-.06-.31-.27-.25-.48s.27-.31.48-.25c.49.15,1.03.26,1.22.27.09-.06.21-.07.31-.04.21.06.31.27.25.48-.06.2-.2.32-.54.32h0Zm-3.02-8.75s-.07,0-.1,0c-.45-.13-.86-.36-1.27-.6-.4-.24-.78-.45-1.12-.51-.44-.07-.94.43-1.1.63-.13.17-.37.2-.54.07s-.2-.37-.07-.54c.09-.11.87-1.07,1.83-.91.47.08.93.34,1.37.6.36.21.73.42,1.09.52.21.06.32.26.26.47-.05.17-.21.28-.37.28h0Zm48.95-35.62c-.21,0-.37-.16-.38-.36-.02-.4-.14-1.09-.3-1.29-.13-.17-.11-.4.06-.54.17-.13.4-.11.54.06.37.47.45,1.52.47,1.72,0,.22-.15.39-.36.4h-.02s0,0,0,0Zm4.03,9.57c-.06,0-.12,0-.18-.04-.1-.05-2.38-1.26-3.12-2.2-.78-.99-.45-3.35-.41-3.61.03-.21.23-.35.43-.32s.35.23.32.43c-.13.88-.18,2.48.25,3.03.54.68,2.26,1.67,2.88,2,.19.1.25.33.16.52-.07.13-.21.21-.34.21h0Zm-23.94-1.78c-.2,0-.36-.16-.38-.35-.02-.21.14-.39.35-.41.02,0,.69-.08,1.26-.78.86-1.07,3.36-4.88,3.36-6.28v-9.26c0-.22.18-.38.38-.38s.38.18.38.38v9.26c0,1.91-3.11,6.25-3.54,6.77-.79.98-1.76,1.07-1.8,1.07h-.03s0,0,0,0Z"
  />
  <path
    d="m154.14,84.31c-.37,0-.71-.15-.97-.25-.18-.08-.34-.15-.46-.16-1.16-.12-2.87-4.8-2.89-4.85-.65-1.79-.3-3.46.94-4.56,1.3-1.17,3.05.44,3.78,1.12l.17.16c.54.48.97,3.11,1.19,4.75.32-.27.58-.54.61-.66.05-.35,0-1.08,0-1.32,0-.06,0-.11.03-.17.19-.48.83-2.09,1.24-2.48.15-.15.39-.14.54,0,.15.16.14.39,0,.54-.2.19-.68,1.23-1.03,2.13,0,.24.05.97,0,1.39-.08.59-1.03,1.29-1.44,1.58-.11.08-.25.09-.37.03s-.21-.17-.23-.3c-.26-2.13-.72-4.61-1.03-4.93l-.18-.16c-.97-.89-2.06-1.72-2.76-1.11-1,.88-1.26,2.24-.72,3.73.7,1.94,1.86,4.17,2.27,4.35.21.02.43.12.66.21.53.23.83.32,1.21-.1.15-.16.38-.17.54-.02s.17.38.02.54c-.37.4-.75.54-1.11.54Z"
  />
  <path
    d="m154.71,82.56c-.17,0-.32-.11-.37-.28,0,0-.24-.91-.6-1.5-.49-.82-.35-1.49,0-1.81,0-.49-.6-2.1-.95-2.4-.24.08-.51.08-.76.08-.56,0-.7.03-.78.33-.05.21-.26.33-.47.27-.21-.06-.32-.26-.27-.47.24-.91,1.05-.92,1.53-.9.21,0,.42,0,.55-.05.39-.18.79.1,1.18.81,0,.02,1.23,2.41.52,2.88-.12.08-.16.4.12.87.4.68.67,1.66.68,1.69.06.21-.07.41-.27.47-.03,0-.07,0-.1,0h.02Z"
  />
  <path
    d="m153.81,81.86h-1.08c-.15,0-.28-.09-.35-.23-.39-.85-1-2.36-.71-2.95.33-.67.74-.83,1.15-.91.21-.04.41.1.45.3s-.1.41-.3.45c-.24.04-.4.1-.6.5-.07.21.22,1.15.62,2.06h.82c.22,0,.38.18.38.38s-.18.38-.38.38h0Z"
  />
  <path
    d="m151.65,79.63c-.14,0-.27-.08-.34-.21l-.76-1.47c-.1-.19-.03-.42.17-.52.19-.1.42-.03.52.16l.76,1.47c.1.19.03.42-.17.52-.06.03-.12.04-.18.04h0Zm18.31-.08c-.09,0-.18-.03-.24-.09l-1.03-.85-.51.24c-.11.06-.24.05-.35,0-1.08-.6-1.94-1.6-2.6-2.6.19.51.38.99.55,1.38.07.16.02.35-.12.45-.14.11-.33.11-.47,0-2.55-2.01-3.29-4.09-3.42-5.61-.85,2.76.78,4.51.87,4.59.12.12.14.29.07.44-.08.15-.24.24-.39.21-1.59-.23-2.51-.76-3.05-1.29,0,.15.02.29.03.43,0,.16-.08.31-.22.37-.15.07-.31.04-.43-.07-2.1-2.02-1.72-5.29-1.71-5.43.03-.21.22-.37.42-.33.21.03.36.22.33.42,0,.03-.24,2.15.77,3.88,0-.64.08-.75.13-.81.09-.13.24-.2.4-.16s.27.16.29.32c0,.05.23,1.19,2.2,1.72-.68-1.19-1.46-3.58.54-6.6.11-.16.32-.22.49-.13.18.09.25.29.19.48-.05.13-1.04,2.91,1.74,5.88-.42-1.16-.88-2.65-.76-3.39.03-.18.18-.3.35-.32.18-.02.33.1.39.26,0,.04,1.26,3.72,3.58,5.14l.55-.26c.14-.07.29-.05.41.05l.34.28c-.19-.97-.34-2.38-.07-3.48.05-.21.25-.32.47-.27.21.05.32.26.27.47-.41,1.6.31,4.17.31,4.19.05.16-.02.33-.16.42-.06.04-.14.06-.21.06h0Z"
  />
  <path
    d="m180.88,83.11h-.06c-1.21-.19-3.19-1.39-4.04-1.94l-.08.21c-.08.2-.29.28-.49.22-1.38-.52-2.17-1.16-2.6-1.61l-.05.11c-.05.1-.14.18-.24.21-.11.03-.22,0-.31-.05-3.95-2.55-4.23-7.18-4.05-9.71v-.12c0-.13.05-.25.16-.33.17-.13.41-.1.54.08.09.12.09.22.07.43-.16,2.28.08,6.39,3.35,8.77l.13-.26c.06-.14.17-.25.34-.22.15,0,.27.08.34.22,0,0,.5.92,2.25,1.66l.12-.28c.04-.11.14-.19.24-.23.11-.03.24-.02.32.05.02,0,.83.57,1.8,1.11-1-.91-2.05-2.07-2.38-3.09-.07-.21.05-.42.24-.48.21-.07.42.05.48.24.59,1.83,4.09,4.34,4.13,4.37.15.1.2.29.14.46-.06.15-.21.24-.35.24v-.03Zm-28.89,3.09c-.12,0-.23-.05-.3-.15-.09-.11-.11-.26-.05-.39.29-.65.08-2.27-.03-2.84-.04-.21.1-.41.3-.45.21-.04.41.1.45.3.04.19.27,1.54.16,2.58.36-.15.77-.39.97-.71.11-.18.34-.24.53-.13.18.11.24.34.13.53-.59.95-2.02,1.24-2.09,1.26h-.08s0,0,0,0Z"
  />
  <path
    d="m152.8,88.87c-.09,0-.18-.03-.25-.1-.13-.11-.17-.28-.1-.44.48-1.14.99-2.52.99-2.78,0-.22.18-.38.38-.38s.38.18.38.38c0,.29-.24,1.01-.49,1.68.02,0,.04.02.06.03.18.12.24.35.12.53-.08.13-.52.79-.89,1.02-.06.04-.13.06-.2.06Z"
  />
  <path
    d="m151.98,87.98c-.11,0-.22-.05-.29-.14-.14-.16-.12-.38.03-.53.34-.33,1.02-1.52,1.24-1.95.1-.19.33-.25.52-.16s.25.33.16.52c-.03.05-.13.24-.25.47.09.02.17.07.23.14.13.17.1.41-.07.54l-1.32,1.02c-.07.05-.16.08-.24.08h0Zm18.84-21.17c-.14,0-.27-.08-.34-.22-2.03-4.1-6.12-6.28-7.54-6.76-1.16-.4-2.68.98-3.16,1.55-.14.16-.38.18-.54.04s-.18-.38-.04-.54c.09-.1,2.12-2.42,4-1.77,1.49.52,5.84,2.81,7.97,7.15.1.19.02.42-.18.51-.06.03-.11.04-.17.04Z"
  />
  <path
    d="m150.69,75.52c-.14,0-.28-.08-.35-.21-.09-.15-.29-.82-.41-3.91v-.21c-.09-2.17-.1-2.26.8-3.56.36-.52.86-1.23,1.59-2.45,2.53-4.25,6.39-4.88,6.55-4.91.21-.03.4.11.43.32.03.21-.11.4-.32.44-.04,0-3.66.61-6,4.53-.73,1.23-1.26,2-1.62,2.5-.5.72-.73,1.75-.68,3.09v.21c.13,3.02.32,3.56.33,3.58.11.19.03.4-.16.51-.06.03-.12.05-.18.05h0Zm31.84,3.61h-.08c-.55-.12-2.01-2.4-2.14-2.86-.06-.21.06-.41.26-.47s.41.06.47.26c.06.21.34.67.66,1.13-.19-.91-.18-1.85-.16-2.76,0-.77.02-1.5-.1-2.13-.29-1.59-1.41-2.65-1.42-2.66-.13-.13-.16-.32-.06-.48.02-.04.57-.97,0-1.9s-1.86-.84-1.87-.84c-.16.02-.3-.07-.37-.22-2.81-5.74-5.34-5.7-5.38-5.72-.15.04-.3-.09-.37-.23-.02-.04-.49-1.01-2.14-1.58-1.41-.49-4.71.59-5.86,1.05-.2.08-.42-.02-.5-.22s.02-.42.22-.5c.18-.07,4.43-1.73,6.4-1.06,1.52.52,2.21,1.38,2.47,1.78.78.1,3.2.82,5.75,5.92.53.02,1.69.18,2.32,1.2.61.99.33,1.97.14,2.43.38.42,1.19,1.46,1.45,2.87.13.71.12,1.47.11,2.28-.02,1.1-.03,2.24.32,3.26.04.11.08.21.12.31.22.49.28.76.11.98-.08.09-.22.15-.34.15h0Z"
  />
  <path
    d="m179.47,81.28c-.19,0-.35-.14-.38-.33-.03-.21.11-.39.3-.43.05-.02.77-.3,1.64-2.51.08-.2.3-.29.5-.22.2.08.29.3.22.5-1.05,2.68-2.03,2.96-2.21,2.98h-.06s0,0,0,0Zm-1.79,4.91c-.14,0-.27-.08-.34-.21l-.76-1.53c-.1-.19-.02-.42.18-.51.19-.1.42-.02.51.17l.08.16c.13-1.05.37-2.26.48-2.77.04-.21.25-.33.45-.29.21.04.34.24.29.45-.35,1.66-.66,3.67-.53,4.03.07.19-.02.41-.21.49-.05.02-.11.03-.16.03h0Zm-19.66-10.13c-.22,0-.38-.18-.38-.38-.06-.12-.58-.46-1.16-.73l-.32.42c-.07.09-.17.15-.28.15-.11.02-.22-.04-.29-.12-.33-.34-.55-.7-.71-1-.28.45-.59.91-.61.94-.08.11-.2.18-.33.18s-.25-.08-.32-.21c-.52-.96-.68-1.69-.69-1.72-.05-.21.09-.41.29-.45.21-.04.41.09.45.29,0,0,.09.38.32.93.24-.39.53-.83.62-1.02.08-.15.24-.24.4-.21.17.03.29.16.32.32,0,0,.09.51.5,1.08l.23-.28c.11-.14.29-.19.46-.12.86.37,1.89.95,1.89,1.56,0,.22-.18.38-.38.38h0Zm4.18,30.46c-2.78,0-7.81-.3-10.42-1.89-3.29-1.99-3.63-4.07-3.64-4.16-.03-.21.11-.4.32-.43.21-.03.4.11.43.32,0,.03.35,1.85,3.29,3.62,2.92,1.76,9.54,1.88,11.63,1.73,1.88-.14,6.54-.73,9.15-3.21.16-.15.39-.14.54,0,.15.16.14.39,0,.54-2.78,2.65-7.65,3.28-9.62,3.42-.33.03-.92.05-1.66.05h0Zm8.72-21.22c-.22,0-.38-.18-.38-.38,0-1.05.5-3.42.52-3.53.04-.21.24-.33.45-.29s.34.24.29.45c0,.02-.5,2.4-.5,3.37,0,.22-.18.38-.38.38Zm-2.56,2.68c-.19,0-.34-.14-.38-.32h-.29c-.22.03-.39-.14-.42-.34-.02-.21.14-.39.34-.42.5-.05,1.03.13,1.12.64.04.21-.11.4-.31.44h-.06s0,0,0,0Zm2.81.89c-.08,0-.16-.02-.23-.07-.12-.09-.18-.07-.18-.07-.13.17-.37.2-.54.06-.17-.14-.2-.37-.06-.54.2-.24.68-.46,1.22-.07.18.13.22.36.09.53-.08.11-.2.16-.31.16Zm-3.65,5.05c-.9,0-1.89-.4-2.82-1.19-1.54-1.3-1.75-3.67-1.76-3.77,0-.17.09-.32.24-.39.16-.06.33-.02.44.12.27.24,3.29,1.52,4.46,1.71,1.12.18,2.78,0,2.8,0,.15,0,.29.06.37.18.08.13.08.28,0,.41-.05.08-1.27,1.93-2.29,2.55-.43.26-.92.39-1.42.39h0Zm-3.67-4.24c.18.72.56,1.79,1.35,2.47,1.19,1,2.44,1.27,3.35.72.5-.3,1.14-1.05,1.59-1.66-.63.03-1.49.05-2.18-.07-.82-.14-2.92-.9-4.11-1.48h0Z"
  />
  <path
    d="m164.8,99.84c-.86,0-1.71-.17-2.35-.65-1.3-.98-5.55-5.53-6.41-7-.11-.19-.05-.42.14-.53s.42-.05.53.14c.81,1.37,4.99,5.86,6.22,6.78,1.08.8,3.4.49,4.59-.04.9-.4,2.28-2.17,3.19-3.35l.43-.55c.3-.38.72-.86,1.2-1.39,1.02-1.14,2.29-2.56,2.98-3.79.72-1.31.84-3.44.9-4.58.03-.49.04-.73.09-.88.13-.46.99-2.8,1.03-2.9.07-.2.29-.29.49-.23s.3.29.23.49c-.3.83-.91,2.5-1.01,2.84-.02.08-.04.42-.06.71-.07,1.2-.19,3.45-1,4.92-.72,1.31-2.03,2.76-3.08,3.93-.46.52-.88.98-1.18,1.35l-.42.55c-1.02,1.31-2.41,3.1-3.49,3.58-.61.27-1.81.6-3.02.6h0Z"
  />
  <path
    d="m168.72,92.11c-2.77,0-5.02-1.95-5.14-2.05-.16-.14-.18-.38-.04-.54s.38-.18.54-.04c.03.03,3.13,2.69,6.26,1.58.2-.07.42.03.49.24s-.03.42-.24.49c-.64.23-1.27.32-1.88.32h0Zm4.5-11.81c-.14,0-.26-.07-.33-.2-2.13-3.83-2.43-13.27-2.44-13.66,0-.22.16-.39.37-.39.23-.03.39.16.39.37,0,.1.31,9.65,2.34,13.32.1.19.04.42-.15.52-.06.03-.13.05-.19.05h0Zm-3.57-13.74c-.1,0-.21-.04-.27-.12-3.93-4.16-8.88-4.47-8.93-4.48-.22,0-.37-.19-.36-.4,0-.22.19-.35.4-.36.22,0,5.31.31,9.45,4.71.15.16.14.39-.02.54-.08.07-.17.11-.26.11Zm0,13c-.13,0-.25-.06-.32-.18-4.24-6.69-3.65-12.37-3.63-12.6.02-.21.22-.37.42-.33.21.02.36.22.34.42,0,.06-.57,5.67,3.52,12.11.12.18.06.41-.12.53-.07.04-.14.06-.21.06h0Zm6.39,2.06c-.13,0-.24-.06-.32-.18-2.34-3.58-1.51-11.89-1.47-12.24.02-.21.22-.35.42-.34.21.02.36.21.34.42,0,.09-.85,8.39,1.35,11.74.12.18.07.41-.11.53-.07.04-.14.06-.21.06h0Zm-17-5.81c-.14,0-.27-.08-.34-.21-2.49-4.8,3.85-10.85,4.12-11.11.16-.15.39-.14.54.02s.14.4-.02.54c-.06.06-6.19,5.92-3.97,10.2.1.19.02.42-.17.52-.06.03-.12.04-.18.04h0Zm-4.76-7.51c-.21,0-.38-.17-.38-.37s.17-.38.37-.39c1.6-.04,3.54-2.78,4.14-3.84.11-.19.34-.24.52-.14.19.11.24.34.14.52-.1.17-2.43,4.17-4.79,4.22Zm12.58-7.23c-.1,0-.2-.04-.27-.11-.15-.15-.15-.39,0-.54.03-.03,2.66-2.6,5.95-.64.19.11.24.34.13.53-.11.18-.34.24-.53.14-2.77-1.66-4.94.43-5.02.52-.08.08-.18.11-.27.11h.02Zm13.47,8.68c-.2,0-.36-.15-.38-.34-.14-1.28-2.55-2.04-3.46-2.21-.21-.04-.34-.24-.3-.45s.24-.34.45-.3c.16.03,3.86.78,4.07,2.89.02.21-.13.4-.34.42h-.04Zm-.83,5.24s-.1,0-.16-.03c-.2-.09-.28-.31-.2-.5.66-1.5-.45-2.06-.57-2.12-.19-.09-.27-.31-.19-.51s.31-.27.5-.2c.68.3,1.73,1.33.96,3.12-.06.15-.21.24-.35.24h0Zm-1.27,3.56c-.14,0-.26-.07-.34-.21-1.01-1.88-.57-4.77-.55-4.9.03-.21.23-.35.44-.32.21.03.35.23.32.44,0,.03-.41,2.77.47,4.42.1.19.03.42-.16.52-.06.03-.12.05-.18.05h0Z"
  />
  <path
    d="m176.54,69.61c-.2,0-.36-.16-.38-.35-.42-5.42-6.25-7.3-6.31-7.32-.21-.07-.31-.27-.25-.48s.27-.31.48-.25c.07.02,6.38,2.06,6.85,7.99.02.22-.14.39-.35.41,0,0-.03,0-.03,0Z"
  />
  <path
    d="m169.64,67.83c-.15,0-.28-.09-.35-.23-.09-.2,0-.42.2-.5,1.85-.81.97-4.62.96-4.66-.05-.21.08-.41.28-.46.21-.06.41.08.46.28.04.19,1.04,4.47-1.4,5.54-.05.02-.1.03-.16.03h0Zm-17.85,6.88c-.14,0-.27-.08-.34-.21-1.27-2.53.16-4.86.22-4.96.12-.18.35-.24.53-.12.18.11.24.35.12.53-.05.08-1.26,2.07-.19,4.2.1.19.02.42-.17.52-.06.03-.12.04-.18.04h0Zm3.17-.81c-.16,0-.3-.1-.36-.24-1.17-3.07,1.02-6.28,1.11-6.41.12-.18.36-.22.53-.1.18.12.22.36.1.53-.02.03-2.05,3.02-1.03,5.71.08.2-.02.42-.23.49-.05.02-.09.03-.14.03h.02Z"
  />
</svg>
