<svg xmlns="http://www.w3.org/2000/svg" viewBox="0 0 320 320" opacity="0.6">
  <path
    d="M143.07 79.4s-.09 0-.13-.02a.378.378 0 0 1-.22-.48c.31-.81.74-1.55 1.29-2.22.13-.16.37-.18.53-.05.16.13.18.37.05.53-.5.6-.89 1.28-1.17 2.01-.06.15-.2.24-.35.24Z"
  />
  <path
    d="M142.8 80.21c-.15 0-.29-.09-.35-.23-.08-.19 0-.41.2-.49l1.78-.75c.19-.08.41 0 .49.2.08.19 0 .41-.2.49l-1.78.75s-.1.03-.15.03ZM143.48 82.59a.374.374 0 0 1-.32-.56 5.6 5.6 0 0 1 1.38-1.61c.16-.13.4-.1.53.06s.1.4-.06.53c-.48.38-.89.86-1.19 1.39-.07.12-.2.19-.33.19ZM143.9 84.21c-.06 0-.12-.01-.18-.04a.378.378 0 0 1-.15-.51c.28-.53.63-1.02 1.02-1.47.14-.16.37-.17.53-.04.16.14.17.37.04.53-.36.41-.67.86-.93 1.33-.07.13-.2.2-.33.2ZM144.47 85.73c-.06 0-.12-.02-.18-.05a.378.378 0 0 1-.15-.51l.86-1.55c.1-.18.33-.24.51-.15.18.1.25.33.15.51l-.86 1.55c-.07.12-.2.19-.33.19ZM156.91 106.84c-2.2-.19-4.61-.52-6.39-1.96-.8-.64-1.4-1.46-1.99-2.24-.99-1.33-2.02-2.7-2.58-4.33-.45-1.31-.56-2.71-.63-3.92-.17-2.91-.13-5.86.1-8.77.02-.21.18-.37.4-.34.21.02.36.2.34.4-.23 2.87-.26 5.79-.1 8.67.07 1.16.17 2.5.59 3.72.52 1.52 1.51 2.84 2.47 4.12.56.75 1.13 1.52 1.86 2.11 1.61 1.31 3.89 1.61 5.91 1.79 2.95-.4 5.79-2.14 7.51-4.67 1.02-1.49 1.66-3.23 2.28-4.91.07-.19.29-.29.48-.22.19.07.29.29.22.48-.64 1.72-1.29 3.51-2.36 5.07-1.84 2.7-4.87 4.57-8.11 4.99Z"
  />
  <path
    d="M167.46 97.22a.37.37 0 0 1-.34-.22c-.08-.19 0-.41.19-.5 1.18-.53 1.8-1.86 2.33-3.17.71-1.74 1.35-3.58.83-5.27-.15-.5-.5-.99-.92-.99-.21 0-.44.13-.69.37-.61.59-.95 1.46-.9 2.31.01.21-.15.38-.35.4-.23.04-.38-.15-.4-.35-.06-1.06.36-2.14 1.12-2.88.39-.38.79-.58 1.2-.59h.02c.86 0 1.42.82 1.64 1.52.6 1.93-.09 3.91-.85 5.78-.56 1.39-1.28 2.92-2.72 3.57-.05.02-.1.03-.15.03ZM145.34 96.1a.4.4 0 0 1-.23-.08c-.84-.64-1.07-1.78-1.23-2.54-.32-1.56-.71-3.5-.11-5.26.08-.23.19-.49.44-.64.2-.13.44-.16.68-.09.28.08.54.3.66.56.19.4.14.83.1 1.17-.02.2-.19.36-.42.33a.375.375 0 0 1-.33-.42c.03-.26.06-.55-.03-.76a.389.389 0 0 0-.19-.17c-.13.04-.19.2-.21.25-.53 1.56-.17 3.32.14 4.87.17.85.38 1.66.95 2.09.16.12.2.36.07.53a.37.37 0 0 1-.3.15ZM146.33 79.39h-.08a.554.554 0 0 1-.34-.24c-.14-.23-.09-.51-.07-.62.72-2.88 2.55-5.49 5-7.16.17-.12.41-.07.52.1s.07.41-.1.52c-2.31 1.56-4.02 4.01-4.7 6.72 0 .01-.01.02-.02.02.11.09.17.23.14.38-.04.18-.19.3-.37.3Z"
  />
  <path
    d="M147.38 79.22c-.21 0-.37-.18-.37-.38.03-1.11.98-1.85 1.54-2.19.24-.15.5-.28.75-.41.46-.24.9-.47 1.26-.79a.37.37 0 0 1 .53.03c.14.15.13.39-.03.53-.43.39-.93.65-1.42.9-.24.12-.48.25-.7.38-.35.21-1.16.79-1.18 1.57 0 .2-.17.37-.38.37ZM143.64 75.96c-.12 0-.25-.06-.32-.17-.21-.34-.27-.76-.17-1.19.13-.53.51-1.02.99-1.3.78-.45 1.71-.43 2.45-.42.21 0 .37.17.37.38s-.17.37-.38.37c-.69 0-1.47-.02-2.07.32-.3.17-.55.5-.63.83-.04.16-.06.39.08.6.11.17.06.41-.12.52a.36.36 0 0 1-.2.06ZM144.71 76.15c-.12 0-.23-.05-.3-.16-.12-.17-.08-.4.08-.52l1.59-1.14c.17-.12.4-.08.52.09.12.17.08.4-.09.52l-1.59 1.14a.36.36 0 0 1-.22.07ZM145.93 72.74a.38.38 0 0 1-.14-.73c1.46-.57 3.05-.83 4.61-.74.21.01.36.19.35.4-.01.21-.16.37-.4.35-1.45-.08-2.94.16-4.29.69a.32.32 0 0 1-.14.03ZM152.73 70.52c-1.45 0-2.4-.23-3.24-.44l-1.51-.37a.384.384 0 0 1-.28-.45c.05-.2.25-.32.45-.28l1.51.37c.74.18 1.5.37 2.59.41l-1.04-1.04a.377.377 0 0 1 0-.53c.15-.14.38-.15.53 0l1.67 1.69c.1.11.14.26.08.4-.06.14-.19.23-.34.24h-.44Z"
  />
  <path
    d="M153.34 76.59a.36.36 0 0 1-.22-.07l-1.29-.91s-.08-.05-.12-.06c-.09.11-.24.15-.38.12a.384.384 0 0 1-.28-.45c.04-.18.17-.33.35-.39.28-.1.63.01.86.17l1.29.91c.17.12.21.35.09.52-.07.1-.19.16-.31.16ZM156.72 77.06c-.06 0-.13-.02-.19-.05a.375.375 0 0 1-.14-.51c.56-.98 1.5-1.76 2.56-2.14.2-.07.41.03.48.23s-.03.41-.23.48c-.9.32-1.68.98-2.16 1.8-.07.12-.2.19-.33.19ZM160.79 76.49a.375.375 0 0 1-.19-.7c.99-.57 2.16-.83 3.29-.74.21.02.36.2.35.4s-.17.37-.4.35c-.99-.08-2 .16-2.86.65-.06.03-.12.05-.19.05Z"
  />
  <path
    d="M155.39 76.99a.34.34 0 0 1-.22-.07l-1.08-.8s-.04.02-.06.02c-.19.05-.46-.1-.52-.28-.08-.24.04-.5.26-.59.28-.11.51.06.59.12l1.26.93a.37.37 0 0 1-.22.67ZM166.46 78.78c-.06 0-.13-.02-.19-.05a7.052 7.052 0 0 0-3.5-.96c-.21 0-.37-.17-.37-.38s.17-.37.38-.37c1.36 0 2.7.37 3.87 1.06.18.1.24.33.13.51-.07.12-.2.19-.32.19ZM169.64 84.8c-.12 0-.24-.06-.31-.16L166 79.85a.37.37 0 0 1 .09-.52c.17-.12.4-.08.52.09l3.33 4.79c.12.17.08.4-.09.52-.07.05-.14.07-.21.07Z"
  />
  <path
    d="M169.75 86.23a.37.37 0 0 1-.29-.14 67.656 67.656 0 0 1-3.93-5.44.383.383 0 0 1 .11-.52c.17-.11.41-.06.52.11 1.2 1.84 2.51 3.65 3.88 5.38.13.16.1.4-.06.53a.4.4 0 0 1-.23.08ZM168.3 85.78a.37.37 0 0 1-.3-.15l-2.79-3.73c-.12-.17-.09-.4.08-.52.17-.12.4-.09.52.08l2.79 3.73c.12.17.09.4-.08.52-.07.05-.15.08-.22.08ZM167.83 86.97c-.16 0-.31-.09-.42-.24-.64-.98-1.35-1.92-2.12-2.79a.37.37 0 0 1 .04-.53c.15-.14.39-.12.53.03.74.85 1.44 1.75 2.06 2.7.16.04.31.21.32.37.02.16-.08.35-.23.42-.06.03-.13.04-.19.04ZM167.98 74.88c-.09 0-.18-.03-.26-.1-1.6-1.49-3.56-2.58-5.67-3.14a.366.366 0 0 1-.26-.46c.05-.2.26-.32.46-.26 2.23.6 4.3 1.75 5.99 3.32.15.14.16.38.02.53-.07.08-.17.12-.27.12ZM153.93 70.85c-.06 0-.12-.01-.18-.05a.378.378 0 0 1-.15-.51c.53-.98 1.2-1.87 1.99-2.66.67-.67 1.37-.89 1.92-.59.18.1.25.33.15.51s-.33.25-.51.15c-.35-.19-.88.3-1.03.46-.74.74-1.36 1.58-1.86 2.49-.07.12-.2.2-.33.2ZM155.73 70.5a.375.375 0 0 1-.19-.7 38.17 38.17 0 0 1 3.5-1.76c1.2-.52 1.81-.22 2.11.12.14.16.12.39-.04.53s-.39.12-.53-.04c-.26-.3-.89-.08-1.24.07-1.16.5-2.32 1.08-3.43 1.72-.06.03-.12.05-.19.05Z"
  />
  <path
    d="M164.84 71.43c-.11 0-.21-.04-.28-.13-.54-.63-1.48-.98-2.52-.94-.95.04-1.88.35-2.9.73-.2.07-.41-.03-.48-.22s.03-.41.22-.48c1.08-.4 2.07-.74 3.13-.78 1.28-.03 2.42.39 3.12 1.2.13.16.12.39-.04.53-.07.06-.16.09-.25.09ZM170.15 81.02c-.14 0-.27-.08-.33-.21-.66-1.31-1.49-2.53-2.46-3.62a.358.358 0 0 1-.09-.24c-.04-1.41-1.11-2.29-2.23-3.22l.47-.58-.24.29.24-.29c1.17.97 2.39 1.97 2.5 3.64.97 1.12 1.81 2.35 2.48 3.68.09.18.02.41-.17.5-.05.03-.11.04-.17.04ZM169.81 82.91c-.13 0-.26-.07-.33-.2l-1.33-2.49c-.1-.18-.03-.41.15-.51.18-.1.41-.03.51.15l1.33 2.49c.1.18.03.41-.15.51-.06.03-.12.04-.18.04ZM158.82 76.63c-.13 0-.26-.07-.33-.19-.1-.18-.03-.41.15-.51l2.25-1.25c.18-.1.41-.04.51.15.1.18.04.41-.15.51L159 76.59c-.06.03-.12.05-.18.05ZM167.78 90.51c-.09 0-.17-.03-.24-.09a.379.379 0 0 1-.05-.53l1.9-2.25c.13-.16.37-.18.53-.05.16.13.18.37.05.53l-1.9 2.25a.36.36 0 0 1-.29.13Z"
  />
  <path
    d="M169.28 92.9s-.06 0-.09-.01a.375.375 0 0 1-.27-.46c.25-1 .22-2.09-.09-3.07-.06-.2.05-.41.24-.47.2-.06.41.05.47.24.36 1.13.4 2.33.11 3.48-.04.17-.2.28-.36.28ZM168.43 93.36a.37.37 0 0 1-.37-.33l-.24-2.08a.38.38 0 0 1 .33-.42c.22-.02.39.12.42.33l.24 2.08a.38.38 0 0 1-.33.42h-.04ZM167.32 93.12a.37.37 0 0 1-.37-.34c-.08-.88-.22-1.76-.43-2.61a.544.544 0 0 1 0-.18c.37-1.4.2-2 0-2.64l.72-.21-.36.11.36-.1c.2.7.42 1.42.02 2.96.2.86.34 1.75.42 2.63.02.21-.13.39-.34.41h-.03ZM151.92 86.41c-.18 0-.33-.12-.37-.3l-.16-.81c-.04-.2.09-.4.29-.44.2-.04.4.09.44.29l.16.81c.04.2-.09.4-.29.44h-.07Z"
  />
  <path
    d="M151.16 86.45c-.15 0-.28-.08-.34-.23l-.48-1.13c-.08-.19 0-.41.2-.49.19-.08.41 0 .49.2l.48 1.13c.08.19 0 .41-.2.49-.05.02-.1.03-.15.03ZM150.12 86.17c-.14 0-.27-.07-.33-.2l-.49-.96a.376.376 0 0 1 .16-.5c.19-.09.41-.02.5.16l.49.96c.09.18.02.41-.16.5-.05.03-.11.04-.17.04Z"
  />
  <path
    d="M147.98 86.13c-.2 0-.36-.15-.37-.35-.01-.21.14-.39.35-.4l.39-.03a.389.389 0 0 1 .07-.37c.13-.16.37-.18.53-.04l.52.44c.12.1.16.26.11.4a.39.39 0 0 1-.33.26l-1.25.08h-.02ZM158.67 86.3s-.09 0-.13-.02a.378.378 0 0 1-.22-.48l.35-.95c.07-.19.29-.29.48-.22.19.07.29.29.22.48l-.35.95c-.06.15-.2.24-.35.24Z"
  />
  <path
    d="M159.32 86.17c-.14 0-.28-.07-.35-.18-.07-.12-.06-.33 0-.45.2-.35.41-.69.64-1.02.12-.17.35-.21.52-.1.17.12.21.35.1.52-.19.27-.36.55-.53.83v.1a.385.385 0 0 1-.37.3Z"
  />
  <path
    d="M160.05 85.91a.42.42 0 0 1-.21-.06.383.383 0 0 1-.11-.52l.74-1.14c.11-.17.35-.22.52-.11s.22.35.11.52l-.75 1.14c-.07.11-.19.17-.31.17Z"
  />
  <path
    d="M160.88 85.68c-.09 0-.19-.04-.26-.1a.377.377 0 0 1-.01-.53c.26-.27.54-.51.84-.73.17-.12.4-.08.52.09.12.17.08.4-.09.52-.26.19-.51.4-.74.63-.07.08-.17.12-.27.12Z"
  />
  <path
    d="M161.61 85.86a.37.37 0 0 1-.34-.22.38.38 0 0 1 .18-.5l.93-.43c.18-.08.41 0 .5.18.09.19 0 .41-.18.5l-.93.43c-.05.02-.1.04-.16.04ZM148.23 90.06c-.09 0-.18-.03-.25-.1a.378.378 0 0 1-.03-.53c.59-.65 1.19-1.24 2.02-1.36.42-.06.82.02 1.17.1 1.04.25 1.69.71 1.95 1.36a.38.38 0 0 1-.21.49.38.38 0 0 1-.49-.21c-.17-.42-.65-.72-1.43-.91-.27-.07-.6-.13-.89-.09-.59.08-1.08.58-1.57 1.12-.07.08-.18.12-.28.12ZM158.22 89.53h-.07a.377.377 0 0 1-.3-.44c.08-.41.36-.78.78-1.02.33-.19.69-.28 1.04-.37.39-.1.88-.21 1.37-.13.46.08.84.31 1.21.54.35.22.68.42 1.02.44.21.01.36.19.35.4-.01.21-.19.36-.4.35-.53-.04-.95-.3-1.36-.55-.32-.2-.62-.38-.94-.44-.34-.06-.7.03-1.06.12-.31.08-.6.15-.84.29-.23.13-.38.32-.42.51-.03.18-.19.31-.37.31ZM154.46 95.55s-.08 0-.11-.02l-.72-.23c-.2-.06-.31-.27-.24-.47s.27-.31.47-.24l.71.23c.2.06.31.27.24.47-.05.16-.2.26-.36.26ZM156.5 95.55c-.12 0-.25-.06-.32-.18a.374.374 0 0 1 .12-.52c.38-.23.82-.35 1.27-.33.21 0 .37.18.36.39-.01.21-.19.37-.39.36-.3-.01-.59.07-.84.22a.36.36 0 0 1-.2.06ZM155.4 100.98c-.12 0-.23 0-.34-.01-.66-.05-1.18-.33-1.64-.57-.49-.26-.9-.46-1.47-.47-.16-.02-.32-.1-.37-.26s.01-.33.15-.42c1.02-.66 1.72-.87 2.81-1.07.95-.17 1.89-.16 2.79-.14.29 0 .59.03.88.05.67.05 1.3.09 1.89-.06.21-.05.41.07.46.27.03.13 0 .26-.08.35-.02.04-.05.08-.08.12l-.22.21c-.59.57-1.25 1.21-2.05 1.52-.4.16-.8.24-1.21.32-.44.09-1 .18-1.53.18Zm-2.37-1.6c.26.1.51.23.75.35.43.23.84.44 1.35.48.55.05 1.21-.07 1.67-.15.38-.07.75-.15 1.08-.28.48-.19.91-.53 1.33-.91-.38 0-.68-.02-1.02-.05-.28-.02-.56-.04-.84-.05-.87-.01-1.77-.03-2.65.13-.66.12-1.15.24-1.66.47Z"
  />
  <path
    d="M153.34 100.31c-.2 0-.37-.16-.38-.36 0-.21.15-.38.36-.39l.73-.03c1.57-.06 3.53-.14 4.94-.42.21-.04.4.09.44.29.04.2-.09.4-.29.44-1.47.29-3.46.37-5.05.44l-.73.03h-.02ZM151.14 90.14c-.21 0-.42-.02-.64-.07a.407.407 0 0 1-.22-.13c-.29-.36-.39-.86-.27-1.33.05-.2.25-.33.45-.28.08.02.15.07.2.13.13-.04.26-.04.39 0 .07.03.13.07.18.12.17 0 .32.05.43.09.13.04.23.14.26.28.08.33.02.69-.16.99-.06.1-.17.17-.28.18-.12.01-.23.02-.34.02ZM160.39 89.62c-.24 0-.47-.03-.7-.09a.379.379 0 0 1-.23-.18c-.21-.38-.25-.83-.11-1.23.07-.2.28-.3.48-.23.05.02.09.04.13.07.05-.05.12-.09.2-.1.05-.04.11-.07.18-.09.16-.03.32.05.39.19l.06.12v-.02c.06-.16.21-.26.38-.24.17.01.3.13.34.29.09.41.04.84-.15 1.21a.38.38 0 0 1-.24.19c-.24.06-.48.09-.72.09ZM146.71 71.59h-.12c-.13-.02-.32-.14-.38-.26a.415.415 0 0 1 .15-.51c.13-.09.33-.08.46 0 .09-.02.2-.06.3-.11.68-.28 1.36-.48 2.06-.6.21-.03.4.1.43.3.04.2-.1.4-.3.43-.65.11-1.28.3-1.88.54-.22.09-.46.19-.73.19Zm-.04-.75ZM156.76 68.75c-.16 0-.3-.1-.36-.26-.07-.2.04-.41.24-.47l1.79-.6c.23-.08.64-.21 1.01 0 .18.11.24.33.13.51s-.34.24-.51.13c-.08-.04-.31.03-.39.06l-1.79.6s-.08.02-.12.02ZM163.4 70.12c-.1 0-.21-.04-.28-.13-.14-.16-.38-.27-.61-.37-.33-.15-.7-.32-1.05-.29-.14.01-.29.05-.46.1-.64.2-1.28.41-1.91.63a.378.378 0 0 1-.48-.22c-.07-.19.03-.41.22-.48.64-.23 1.29-.45 1.95-.65.2-.06.4-.12.62-.13.54-.04 1.02.18 1.41.35.28.12.62.27.88.57.14.16.12.39-.04.53-.07.06-.16.09-.25.09ZM166.93 77.45c-.17 0-.32-.11-.36-.29-.09-.37-.39-.67-.77-1.03-.36-.34-.73-.69-1.15-.92-.75-.41-1.7-.45-2.48-.1-.19.08-.41 0-.5-.19-.08-.19 0-.41.19-.5.99-.45 2.2-.4 3.16.12.5.28.91.66 1.3 1.03.37.35.83.78.99 1.4.05.2-.07.4-.27.45-.03 0-.06.01-.09.01ZM169.83 78.66c-.16 0-.31-.11-.36-.27a10.39 10.39 0 0 0-1.42-3.01c-.12-.17-.07-.4.1-.52s.4-.07.52.1c.68.99 1.19 2.07 1.52 3.23.06.2-.06.41-.26.46-.04 0-.07.01-.1.01Z"
  />
  <path
    d="M170.18 80.58c-.15 0-.29-.09-.35-.24l-.45-1.21c-.07-.19.03-.41.22-.48.2-.07.41.03.48.22l.45 1.21c.07.19-.03.41-.22.48-.04.02-.09.02-.13.02ZM170.16 82.91c-.17 0-.32-.11-.36-.28-.13-.49-.28-.96-.46-1.41a.38.38 0 0 1 .21-.49c.2-.08.41.02.49.21.18.48.35.98.48 1.49.05.2-.07.41-.27.46-.03 0-.07.01-.1.01ZM169.98 85.32c-.18 0-.34-.13-.37-.31-.13-.7-.36-1.38-.69-2.01-.1-.18-.02-.41.16-.51.18-.09.41-.02.51.16.36.7.62 1.45.76 2.23.04.2-.1.4-.3.44h-.07ZM143.35 81.81h-.04a.375.375 0 0 1-.33-.42c.05-.46.13-.93.24-1.4.04-.2.24-.33.45-.29.2.04.33.25.29.45-.1.44-.17.88-.22 1.32a.37.37 0 0 1-.37.33ZM143.63 83.99h-.03a.385.385 0 0 1-.35-.4c.04-.51.14-1.02.3-1.51.06-.2.27-.31.47-.24.2.06.3.28.24.47-.14.43-.23.88-.26 1.33-.01.2-.18.35-.37.35ZM144.73 86.54c-.06 0-.12-.01-.17-.04a.368.368 0 0 1-.16-.5l.4-.79a.36.36 0 0 1 .5-.16c.18.09.26.32.16.5l-.4.79c-.07.13-.2.2-.33.2ZM144.24 85.17s-.08 0-.12-.02c-.2-.07-.3-.28-.24-.47.12-.36.27-.71.43-1.05.09-.19.32-.26.5-.17.19.09.26.32.17.5-.15.31-.28.63-.39.96-.05.16-.2.26-.36.26ZM179.98 115.06c-.6 0-1.32-.09-1.92-.5-.78-.53-1.12-1.39-1.45-2.22l-.18-.45c-.28-.65-.63-1.27-1.05-1.84-.08-.12-.17-.23-.26-.34-.39-.51-.8-1.04-.98-1.71a2.17 2.17 0 0 1 .23-1.62c.22-.36.54-.6.93-.68.2-.05.4.09.45.29.04.2-.08.4-.29.45-.22.05-.37.21-.45.34-.18.29-.23.69-.14 1.03.13.52.48.97.84 1.44l.27.36c.45.61.83 1.28 1.13 1.99.06.15.13.31.19.47.3.76.59 1.47 1.17 1.87.44.3 1.06.41 1.93.35.37-.03.76-.07 1.08-.25.24-.14.47-.4.45-.69a.37.37 0 0 1 .35-.39c.21-.03.38.15.39.35.03.54-.3 1.08-.83 1.38-.45.26-.96.32-1.4.35-.15 0-.31.02-.49.02Z"
  />
  <path
    d="M182.2 113.74c-1.59 0-3.19-.48-4.51-1.37a.373.373 0 0 1-.1-.52c.12-.17.35-.22.52-.1 1.24.83 2.76 1.29 4.23 1.24.2 0 .37.16.38.37 0 .21-.16.38-.37.38h-.16Z"
  />
  <path
    d="M178.9 112.78c-.1 0-.2-.04-.27-.12l-1.71-1.81c-.58-.62-1.19-1.26-1.62-2.04-.54-.98-.63-1.91-.25-2.69.74-4.46 3.17-8.42 5.2-11.38.29-.42.73-1.05 1.4-1.31.48-.18.98-.15 1.42-.09.69.09 1.38.25 2.05.47.2.07.42.15.59.35.24.28.24.65.24.83.02 1.03-.14 2.04-.48 3.01-.06.19-.26.76-.8.87-.26.05-.66 0-1.06-.53-.72-.94-1-2.18-.75-3.34.04-.2.24-.33.45-.29.2.04.33.25.29.45-.21.94.02 1.95.61 2.72.14.19.26.26.33.25.02 0 .12-.04.23-.38.31-.89.45-1.82.44-2.75 0-.14-.01-.29-.07-.36a.693.693 0 0 0-.26-.12c-.62-.21-1.26-.36-1.9-.44-.34-.04-.73-.07-1.05.05-.42.16-.74.58-1.05 1.04-2 2.9-4.38 6.79-5.09 11.13 0 .04-.02.08-.04.11-.36.71-.08 1.5.22 2.04.39.7.96 1.31 1.51 1.89l1.71 1.82c.14.15.13.39-.02.53-.07.07-.16.1-.26.1Z"
  />
  <path
    d="M181.41 98.3c-.17 0-.32-.11-.36-.28-.05-.2.06-.41.26-.46.48-.13.93-.34 1.34-.63.17-.12.4-.08.52.09.12.17.08.4-.09.52-.48.34-1.01.59-1.58.75-.03 0-.07.01-.1.01ZM188.14 96.28c-.72 0-1.18-.68-1.33-.9a7.71 7.71 0 0 1-.91-1.87.37.37 0 0 1 .24-.47c.2-.06.41.04.47.24.2.59.47 1.16.82 1.68.25.38.49.57.71.57.21 0 .41-.2.49-.4.12-.28.11-.62.08-.92-.04-.45-.11-.91-.23-1.34-.06-.23-.14-.5-.28-.7-.19-.26-.51-.44-.92-.53-.4-.08-.82-.07-1.27-.05-.38.01-.8.03-1.11.22-.15.09-.29.24-.41.38-.48.53-.92 1.1-1.32 1.7-.12.17-.35.22-.52.1a.371.371 0 0 1-.1-.52c.42-.62.88-1.22 1.38-1.78.16-.18.34-.37.57-.52.47-.3 1.03-.32 1.48-.34.47-.02.96-.04 1.45.07.59.12 1.08.42 1.38.82.22.3.33.65.4.95.12.48.21.97.25 1.47.03.39.04.85-.14 1.27-.22.51-.69.86-1.18.86Z"
  />
  <path
    d="M185.18 94.56c-.18 0-.35-.14-.37-.32-.03-.21.11-.39.32-.42l1.15-.16c.22-.03.4.12.42.32.03.21-.11.39-.32.42l-1.15.16h-.05ZM189.04 93.88c-.05 0-.1-.01-.15-.03-.19-.08-.27-.31-.19-.5l3.04-6.84c.25-.57.44-1.04.39-1.51a1 1 0 0 0-.35-.65c-.09-.07-.22-.15-.38-.13-.35.04-.62.44-.85.86l-3.46 6.18c-.1.18-.33.24-.51.14a.366.366 0 0 1-.14-.51l3.46-6.18c.21-.38.65-1.16 1.43-1.24.34-.03.66.07.94.29.34.28.58.71.62 1.15.08.71-.22 1.37-.45 1.89l-3.04 6.84a.37.37 0 0 1-.34.22ZM187.29 97.7c-.05 0-.1 0-.15-.03-.19-.08-.28-.3-.19-.5l.55-1.26c.08-.19.3-.28.5-.19.19.08.28.3.19.5l-.55 1.26a.37.37 0 0 1-.34.22Z"
  />
  <path
    d="M188.34 106.34c-.2 0-.36-.15-.37-.35-.15-1.91.46-3.71 1.2-5.7l.41-1.07c1.34-3.54 2.74-7.21 3.21-10.99.14-1.13 0-1.83-.44-2.21-.16-.13-.17-.37-.04-.53a.37.37 0 0 1 .53-.04c.85.73.8 1.99.69 2.87-.49 3.87-1.9 7.58-3.26 11.17l-.41 1.07c-.66 1.75-1.2 3.35-1.18 4.96.03.06.05.13.04.2l-.02.27c-.02.19-.18.34-.37.34Z"
  />
  <path
    d="M182.43 113.89a.37.37 0 0 1-.37-.33c-.03-.21.12-.39.32-.42 1.8-.23 3.28-1.29 4.21-2.14 1.21-1.11 2.2-2.48 3.16-3.8l3.84-5.31c.46-.63.84-1.2.86-1.82.01-.32-.14-.69-.38-.91a.687.687 0 0 0-.52-.19c-.32.04-.59.33-.87.65-1.32 1.51-2.62 3.08-3.86 4.66-.13.16-.36.19-.53.06a.379.379 0 0 1-.06-.53c1.24-1.59 2.55-3.17 3.88-4.69.29-.32.71-.81 1.33-.9.4-.05.8.08 1.12.38.41.37.65.94.62 1.49-.04.89-.57 1.63-1 2.23l-3.84 5.31c-.98 1.35-1.99 2.75-3.26 3.91-1.44 1.32-3.04 2.13-4.61 2.33h-.05ZM170.9 109.41a.379.379 0 0 1-.29-.62l.24-.29c.41-.49.91-1.09 1.62-1.39.55-.23 1.14-.25 1.66-.26h.01c.2 0 .37.16.38.36 0 .21-.16.38-.36.39-.48.01-.97.03-1.39.21-.54.23-.96.73-1.33 1.18l-.24.29a.37.37 0 0 1-.29.14ZM170.93 117.77l-.27-.7 7.55-2.8c.2-.07.41.03.48.22s-.03.41-.22.48l-7.54 2.79Z"
  />
  <path
    d="M173.53 120.46c-.1 0-.21 0-.33-.02-1.09-.15-2.09-1.01-2.59-2.24-.44-1.06-.49-2.23-.54-3.26l-.16-3.41c-.06-1.31.03-2.74 1.12-3.46.17-.11.41-.07.52.11.11.17.07.41-.11.52-.78.51-.83 1.7-.78 2.8l.16 3.41c.05 1.02.09 2.07.48 3.01.32.77 1.01 1.64 2 1.78.17.02.43.03.63-.07.14-.07.27-.2.42-.38.93-1.1 1.5-2.5 1.62-3.93.02-.21.18-.36.4-.34.21.02.36.2.34.4a7.792 7.792 0 0 1-1.79 4.36c-.18.21-.38.42-.64.56a1.7 1.7 0 0 1-.76.17Z"
  />
  <path
    d="M167.8 123.24c-.27 0-.53-.05-.79-.16-.63-.29-.96-.9-1.25-1.44l-.07-.13c-.27-.5-.59-.99-.9-1.46-.47-.71-.95-1.45-1.3-2.26-1.12-2.57-.75-5.67.93-7.9.22-.3.54-.67.97-.89.61-.31 1.26-.26 1.89-.21.22.02.45.04.66.04.74 0 1.55-.23 2.48-.69.19-.09.41-.02.5.17.09.19.02.41-.17.5-1.04.52-1.99.78-2.84.77-.23 0-.46-.02-.69-.04-.55-.04-1.07-.09-1.48.13-.29.15-.53.42-.71.67-1.5 1.99-1.84 4.87-.85 7.15.33.75.77 1.43 1.24 2.15.32.49.65.99.93 1.51l.07.13c.25.46.5.93.91 1.12.41.19.94.06 1.45-.1 1.95-.62 3.77-1.56 5.41-2.77.17-.12.4-.09.52.08.12.17.09.4-.08.52a19.61 19.61 0 0 1-5.63 2.88c-.4.13-.8.23-1.21.23Z"
  />
  <path
    d="M138.47 143.43c-.18 0-.34-.13-.37-.31-.14-.84.22-1.75.98-2.45.57-.52 1.25-.86 1.91-1.18l.21-.1c2.87-1.43 5.56-3.31 8.16-5.13.12-.09.25-.18.32-.28.04-.06.07-.15.11-.24.03-.08.06-.16.1-.23.23-.48.68-.78 1.03-1.02l1.9-1.29c.26-.18.47-.33.55-.53l.03-.1c.04-.11.08-.26.19-.39.19-.23.48-.29.63-.32.33-.07.67-.12 1.01-.17.81-.12 1.58-.23 2.24-.6.38-.21.71-.5 1.07-.81.46-.4.93-.8 1.52-1.05.15-.06.31-.12.46-.17.22-.07.42-.14.6-.24.22-.12.42-.36.38-.57-.02-.1 0-.21.07-.29.06-.08.15-.14.26-.15 1.16-.14 2.14-.83 3.18-1.55.8-.56 1.64-1.14 2.58-1.48.19-.07.41.03.48.23s-.03.41-.23.48c-.85.3-1.64.85-2.4 1.38-.98.68-1.99 1.39-3.19 1.63-.08.42-.4.77-.74.96-.24.14-.5.22-.74.3-.14.04-.27.09-.41.14-.48.2-.89.55-1.32.93-.37.32-.75.65-1.19.89-.78.44-1.65.56-2.5.69-.33.05-.65.1-.97.16-.15.03-.2.06-.21.07-.01.02-.04.09-.05.13-.02.05-.03.1-.05.15-.17.43-.55.69-.83.88l-1.9 1.29c-.3.2-.63.43-.78.73-.03.06-.05.11-.07.17-.05.12-.1.25-.18.38-.15.22-.35.36-.51.47-2.62 1.84-5.33 3.74-8.25 5.19l-.21.1c-.64.31-1.25.61-1.73 1.06-.44.4-.87 1.08-.75 1.77.04.2-.1.4-.31.43h-.06ZM140.32 135.43c-.12 0-.25-.06-.32-.18a.374.374 0 0 1 .12-.52c2.38-1.48 3.67-3.03 3.95-4.74.19-1.15-.1-2.37-.36-3.46l-1.39-5.86c-.05-.2.08-.4.28-.45.21-.05.4.08.45.28l1.39 5.86c.27 1.15.58 2.46.37 3.75-.32 1.94-1.72 3.66-4.29 5.26a.36.36 0 0 1-.2.06ZM155.02 115.93a.4.4 0 0 1-.23-.08.379.379 0 0 1-.06-.53l1.51-1.9c.34-.42.68-.86 1.11-1.23.44-.39.93-.68 1.4-.95 1.27-.73 2.35-1.25 3.42-1.66.85-.32 1.95-.63 2.95-.21.19.08.28.3.2.49-.08.19-.3.29-.49.2-.76-.31-1.68-.05-2.39.22-1.03.39-2.08.9-3.31 1.61-.43.25-.89.52-1.28.87-.38.33-.7.74-1.02 1.14l-1.51 1.9a.37.37 0 0 1-.29.14Z"
  />
  <path
    d="M149 115.92a.383.383 0 0 1-.32-.58c1.09-1.74 3.03-2.77 4.59-3.6.72-.38 1.53-.81 2.43-.93.5-.07.99-.03 1.47 0 .22.01.44.03.66.03.76.02 1.33-.13 1.7-.45.16-.13.4-.11.53.05s.11.39-.05.53c-.52.44-1.26.66-2.2.62-.23 0-.46-.02-.69-.03-.46-.03-.89-.06-1.32 0-.77.1-1.48.48-2.18.85-1.56.83-3.33 1.76-4.31 3.33-.07.11-.19.18-.32.18Z"
  />
  <path
    d="M144.51 114.72c-1.34 0-2.84-.33-4.53-.99l-.15-.06c-.59-.24-1.15-.47-1.73-.44-.21-.02-.38-.16-.38-.37s.16-.38.37-.38c.76-.02 1.39.24 2.02.49l.15.06c2.41.94 4.37 1.17 6.01.71.41-.12.8-.28 1.22-.45.43-.18.88-.36 1.35-.49.38-.1.77-.17 1.16-.24.81-.14 1.58-.28 2.18-.73.17-.12.4-.09.52.08.12.17.09.4-.08.52-.74.55-1.63.71-2.5.86-.37.07-.74.13-1.09.23-.43.12-.83.28-1.26.46-.42.17-.85.34-1.29.47-.61.17-1.27.26-1.96.26Z"
  />
  <path
    d="M137.92 145.05h-.03a.372.372 0 0 1-.35-.4c.26-3.78.22-8.08-2.11-11.3-.23-.31-.47-.61-.72-.91-.33-.4-.67-.82-.97-1.27-.56-.86-.94-1.82-1.31-2.75-.38-.95-.73-1.85-1.27-2.66-.15-.23-.32-.45-.48-.66-.34-.45-.69-.91-.93-1.45-.44-.98-.46-2.06-.48-3.02-.02-1.03-.04-2.19.34-3.27.16-.45.38-.87.6-1.27.13-.24.26-.47.37-.72.1-.21.19-.43.27-.65.16-.4.33-.81.56-1.2.71-1.19 2.01-2.08 3.65-2.51 1.43-.37 2.9-.37 4.32-.36.55 0 1.13 0 1.69.16.87.24 1.59.81 2.22 1.31l2.34 1.87c.16.13.19.37.06.53a.38.38 0 0 1-.53.06l-2.34-1.87c-.6-.48-1.23-.98-1.95-1.18-.47-.13-.96-.13-1.49-.13-1.36 0-2.79 0-4.13.34-1.45.38-2.58 1.15-3.19 2.17-.2.34-.35.71-.51 1.09a10.883 10.883 0 0 1-.68 1.44c-.21.4-.41.77-.55 1.17-.33.95-.31 1.99-.29 3 .02.89.04 1.89.41 2.73.21.46.52.87.84 1.31.17.23.35.46.5.7.58.88.97 1.85 1.34 2.8.37.94.72 1.82 1.24 2.62.27.42.59.8.92 1.21.25.31.51.62.74.95 2.47 3.41 2.52 7.88 2.25 11.79-.01.2-.18.35-.37.35Z"
  />
  <path
    d="M132.54 128.25a.37.37 0 0 1-.37-.33c-.33-3-.08-5.48.76-7.59 1.05-2.64 3.1-4.6 5.48-5.27.2-.06.41.06.46.26.06.2-.06.41-.26.46-2.15.6-4.01 2.4-4.98 4.82-.8 2-1.03 4.36-.71 7.24.02.21-.13.39-.33.41h-.04ZM137.77 161.97c-.18 0-.34-.13-.37-.32-.32-2.01.1-4.03.51-5.97.26-1.23.52-2.5.59-3.74.14-2.45-.45-4.89-1.02-7.25-.05-.2.08-.4.28-.45.2-.05.4.08.45.28.58 2.41 1.18 4.9 1.04 7.46-.07 1.3-.34 2.6-.61 3.85-.41 1.96-.8 3.82-.5 5.7.03.21-.11.4-.31.43h-.06Z"
  />
  <path
    d="M139.27 149.56h-.08a.38.38 0 0 1-.29-.45c.61-2.79 1.36-5.59 2.24-8.32.06-.2.28-.31.47-.24.2.06.31.27.24.47-.88 2.7-1.62 5.48-2.22 8.25-.04.18-.19.3-.37.3Z"
  />
  <path
    d="M140.78 159.36c-.2 0-.36-.15-.37-.35-.08-1.48.11-2.96.3-4.39.09-.68.18-1.35.24-2.03.24-2.64.04-5.28-.57-7.86-.05-.2.08-.4.28-.45.21-.06.4.08.45.28.64 2.66.84 5.38.59 8.1-.06.69-.15 1.38-.24 2.06-.18 1.4-.37 2.84-.3 4.25a.37.37 0 0 1-.35.39h-.02ZM147.22 113.88s-.08 0-.13-.02c-1.55-.55-3.24-1.18-5.42-2.24a.363.363 0 0 1-.2-.41c.03-.17.18-.29.35-.3.15-.14.2-.36.18-.55 0-.08-.02-.16-.04-.24-.06-.36-.13-.8.1-1.2.11-.19.26-.32.4-.44.06-.05.12-.1.17-.16.28-.31.32-.79.36-1.31l.02-.19c.09-.97.45-1.6 1.05-1.84.46-.18.94-.08 1.29 0 1.14.24 2.3.49 3.4.93.88.35 1.69.81 2.49 1.26l3.83 2.16c.18.1.24.33.14.51-.1.18-.33.25-.51.14l-3.83-2.16c-.77-.43-1.57-.88-2.4-1.22-1.04-.42-2.18-.66-3.27-.89-.34-.07-.64-.12-.86-.03-.43.17-.55.83-.58 1.21v.19c-.06.59-.12 1.26-.58 1.76-.07.08-.15.15-.24.22-.1.09-.19.16-.24.24-.1.17-.05.43 0 .7.02.09.03.19.04.28.03.27 0 .64-.18.94 1.88.88 3.39 1.44 4.79 1.94.2.07.3.29.23.48-.06.15-.2.25-.35.25Z"
  />
  <path
    d="M159.83 111.22s-.07 0-.11-.02c-2.33-.68-4.71-1.29-7.08-1.79-.78-.17-1.55-.32-2.31-.36-.25-.01-.49-.01-.74-.02-.32 0-.63 0-.95-.03a7.14 7.14 0 0 1-3.46-1.19c-.32-.22-.72-.52-.95-.97-.27-.52-.22-1.13.12-1.52.13-.16.37-.18.53-.04.16.13.18.37.04.53-.15.18-.12.48-.02.69.15.29.45.52.7.68.92.62 2 .99 3.1 1.07.3.02.6.02.9.03.26 0 .51 0 .77.02.82.04 1.62.2 2.43.37 2.39.51 4.79 1.12 7.13 1.81.2.06.31.27.25.46-.05.16-.2.27-.36.27Z"
  />
  <path
    d="M157.71 111.39c-.16 0-.31-.1-.36-.26a.45.45 0 0 0-.3-.3c-.14-.05-.32-.03-.56.04a.71.71 0 0 0-.16.07c0 .21-.17.36-.37.36s-.38-.18-.38-.39.11-.42.29-.56c.14-.11.29-.16.41-.19.38-.11.71-.12 1-.03.37.12.67.42.79.78.06.2-.04.41-.24.47-.04.01-.08.02-.12.02ZM149.3 110.45c-.06 0-.12-.02-.18-.05-.41-.23-.91-.28-1.43-.33-.19-.02-.38-.04-.57-.07-.67-.1-1.32-.31-1.98-.54-.35-.12-.79-.27-1.15-.56-.44-.35-.67-.87-.6-1.35.03-.2.21-.35.42-.32.21.03.35.22.32.42-.03.22.1.48.33.66.26.21.61.33.93.44.65.22 1.24.42 1.85.51.18.03.36.05.54.06.58.06 1.18.12 1.72.43.18.1.25.33.14.51-.07.12-.2.19-.33.19ZM150.95 107.69c-.21 0-.37-.17-.38-.37 0-1.01-.21-2.04-.59-2.97-.08-.19.01-.41.21-.49.19-.08.41.01.49.21.42 1.02.64 2.15.64 3.25 0 .21-.17.38-.37.38ZM165.37 109.34c-.18 0-.34-.13-.37-.32-.45-2.81-.43-5.65.07-8.45.04-.2.23-.34.43-.3.2.04.34.23.3.43-.48 2.72-.51 5.47-.07 8.2.03.2-.11.4-.31.43h-.06Z"
  />
  <path
    d="M168.52 109.28c-.2 0-.36-.15-.37-.35-.01-.26.02-.53.1-.78-.3.09-.61.15-.92.19l-.35.05c-.48.07-.93.13-1.33.31-.19.09-.41 0-.49-.19a.37.37 0 0 1 .19-.49c.5-.22 1.02-.29 1.53-.36l.34-.05c.44-.07.87-.16 1.3-.29.11-.03.37-.11.6.05.09.06.15.15.17.25s-.01.21-.08.29c-.22.27-.33.63-.31.97a.37.37 0 0 1-.35.39h-.02Z"
  />
  <path
    d="M170.16 108.87c-.18 0-.43-.26-1.21-1.06a.372.372 0 0 1-.01-.51c.13-.15.36-.17.51-.04.33.26.64.56.92.88.27.32.11.52.02.6-.09.08-.15.14-.23.14ZM180.25 130.79c-.17 0-.33-.12-.37-.29-.04-.2.08-.4.28-.45.51-.11.98-.24 1.22-.56.14-.19.2-.46.27-.74.03-.14.06-.28.11-.41.16-.51.44-.97.69-1.37l2.72-4.35c.77-1.22 1.56-2.35 2.84-2.77.08-.02.3-.1.37-.16s-.05-.04-.14-.11a20.53 20.53 0 0 0-8.83-4.29.38.38 0 0 1-.29-.45c.04-.2.24-.33.45-.29a21.2 21.2 0 0 1 9.16 4.45c.13.11.41.34.41.7 0 .57-.59.77-.88.86-1.05.34-1.75 1.35-2.44 2.45l-2.72 4.35c-.24.38-.48.77-.61 1.19-.04.12-.06.24-.09.36-.08.33-.16.7-.4 1.02-.42.57-1.17.74-1.66.85h-.08Z"
  />
  <path
    d="M188.18 123.11c-.07 0-.13-.02-.2-.05a.374.374 0 0 1-.12-.52c.46-.74.64-1.66.51-2.53-.03-.2.11-.4.31-.43.2-.04.4.11.43.31.16 1.03-.06 2.14-.61 3.03a.36.36 0 0 1-.32.18Z"
  />
  <path
    d="M188.89 126.13s-.08 0-.11-.02a.362.362 0 0 1-.24-.47c.05-.14.15-.25.29-.31.21-.56.4-1.13.4-1.71 0-.69-.29-1.39-.78-1.88-.15-.15-.15-.38 0-.53s.38-.15.53 0c.64.63 1 1.52 1 2.42 0 .79-.29 1.54-.53 2.2-.04.11-.14.2-.25.23-.03 0-.06.01-.09.01a.37.37 0 0 1-.21.06Zm.36-.26Z"
  />
  <path
    d="M193.46 142.96h-.03a.373.373 0 0 1-.34-.41c.31-3.58-.25-7.24-1.61-10.56l-.09-.23c-.21-.49-.42-1-.52-1.55-.07-.38-.09-.75-.1-1.11l-.02-.37c-.1-1.57-.57-3.12-1.37-4.48a.363.363 0 0 1 .13-.51c.18-.1.41-.04.51.13.86 1.46 1.37 3.13 1.47 4.82l.02.38c.01.35.03.68.09 1.01.09.47.28.93.48 1.4l.09.23c1.41 3.44 1.99 7.21 1.67 10.91a.37.37 0 0 1-.37.34Z"
  />
  <path
    d="M191.23 160.4c-.16 0-.33-.01-.5-.05a.377.377 0 0 1 .14-.74c1.08.2 2.12-.59 2.62-1.41.58-.96.75-2.11.89-3.31.13-1.18.25-2.44.2-3.69-.02-.62-.09-1.26-.16-1.88-.05-.51-.11-1.02-.14-1.53-.05-.71-.05-1.43-.06-2.16-.02-2.09-.04-4.06-.95-5.78-.1-.18-.03-.41.15-.51.18-.1.41-.03.51.15 1 1.88 1.02 4.04 1.04 6.12 0 .71.01 1.42.06 2.11.03.5.09 1 .14 1.5.07.63.14 1.28.16 1.92.05 1.3-.07 2.59-.21 3.8-.14 1.24-.33 2.53-.99 3.62-.58.95-1.66 1.81-2.9 1.81Z"
  />
  <path
    d="M181.8 164.49c-.2 0-.37-.16-.38-.37 0-.21.16-.38.37-.38 1.96-.04 3.83-1.02 5.47-1.89l1.71-.9c.4-.21.82-.43 1.16-.72.48-.41.83-.97 1.14-1.52a.375.375 0 0 1 .65.37c-.34.61-.74 1.24-1.31 1.72-.41.34-.88.59-1.29.81l-1.71.9c-1.72.91-3.67 1.93-5.81 1.98Z"
  />
  <path
    d="M176.93 165.79c-.43 0-.86-.03-1.28-.08-.21-.03-.35-.21-.32-.42s.2-.35.42-.32c1.41.18 2.86.04 4.2-.42.29-.1.62-.22.89-.42l.13-.1c.12-.09.24-.18.38-.25.12-.06.25-.11.39-.15.06-.02.13-.04.19-.06.56-.22.94-.78 1.34-1.43.11-.18.34-.23.52-.12.18.11.23.34.12.52-.37.59-.87 1.41-1.71 1.74-.08.03-.16.05-.23.08-.09.03-.19.06-.27.1-.09.05-.18.12-.26.18l-.15.12c-.35.25-.75.4-1.09.52-1.05.36-2.16.54-3.26.54Z"
  />
  <path
    d="M171.31 166.07c-.77 0-1.54-.04-2.31-.16-.22-.03-.44-.07-.66-.11-.53-.09-1.03-.18-1.53-.18-.21 0-.37-.17-.37-.38s.17-.37.38-.37c.56 0 1.12.1 1.65.2.21.04.43.07.65.11 2.04.3 4.14.09 6.18-.12.87-.09 1.75-.22 2.21-.81.13-.16.36-.19.53-.07s.19.36.07.53c-.64.82-1.74 1-2.72 1.09-1.33.13-2.69.27-4.05.27ZM180.96 146.42c-.12 0-.24-.06-.31-.17a.383.383 0 0 1 .11-.52c1.05-.68 2.22-1.1 3.36-1.51 1.17-.42 2.29-.82 3.27-1.48.07-.05.09-.07.1-.08-.35-.46-.95-.64-1.42-.65-.59-.02-1.19.17-1.77.35l-2.82.87c-.1.03-.2.02-.29-.03a.379.379 0 0 1-.18-.23c-.13-.49.1-.98.23-1.27 1.59-3.42 3.63-6.6 6.08-9.47.13-.16.37-.18.53-.04.16.13.18.37.04.53-2.4 2.82-4.41 5.94-5.97 9.3-.05.11-.1.23-.14.34l2.3-.71c.64-.2 1.32-.39 2.01-.38.85.02 1.59.39 1.98.99.05.07.2.3.15.58-.06.3-.31.46-.41.53-1.06.7-2.27 1.14-3.43 1.56-1.1.4-2.24.81-3.21 1.44a.36.36 0 0 1-.2.06Z"
  />
  <path
    d="M192.65 142.04c-.55 0-1.18-.03-1.78-.21-.24-.07-.47-.16-.7-.25-.12-.05-.24-.09-.36-.14-1.17-.42-2.46-.49-3.71-.56a.363.363 0 0 1-.35-.39c.01-.21.18-.37.39-.35 1.3.07 2.65.14 3.92.6.13.05.25.09.38.14.21.08.41.16.63.23.55.16 1.15.18 1.68.18.21 0 .37.17.38.37 0 .24-.23.38-.48.38ZM192.58 149.14a.37.37 0 0 1-.37-.34c-.05-.54-.44-1.07-1.03-1.4-.59-.32-1.28-.43-1.94-.5-2.5-.27-5.1-.02-7.52.7-.2.06-.41-.05-.47-.25s.05-.41.25-.47a20.03 20.03 0 0 1 7.81-.73c.74.08 1.52.21 2.23.59.81.45 1.34 1.19 1.42 1.98.02.21-.13.39-.34.41h-.03Z"
  />
  <path
    d="M190.62 150.99s-.09 0-.13-.02c-1.62-.6-3.12-1.46-4.44-2.58a.369.369 0 0 1-.04-.53c.13-.16.37-.18.53-.04 1.25 1.06 2.67 1.88 4.21 2.45.19.07.29.29.22.48-.06.15-.2.25-.35.25ZM185.95 156.29c-.38 0-.75-.08-1.09-.17-1.43-.38-2.78-1.01-3.98-1.88-.16-.11-.31-.23-.47-.35-.83-.62-1.69-1.27-2.63-1.24-.19.04-.38-.16-.38-.37s.16-.38.37-.38c1.18 0 2.17.69 3.1 1.39l.46.34c1.13.81 2.39 1.4 3.74 1.76.46.12 1 .23 1.43.05.19-.08.41 0 .49.2.08.19 0 .41-.2.49-.27.11-.55.16-.83.16ZM179.47 149.42h-.08a.376.376 0 0 1-.28-.45c.11-.47 0-.98-.11-1.52-.07-.32-.14-.64-.17-.98-.07-.82.12-1.61.31-2.38.08-.33.16-.66.22-1 .12-.67.14-1.37.17-2.05l.03-.68c.15-2.87.79-5.7 1.42-8.44.04-.2.24-.33.45-.28.2.05.33.25.28.45-.62 2.71-1.25 5.51-1.4 8.31l-.03.67c-.03.7-.06 1.43-.18 2.15-.06.35-.14.7-.23 1.04-.18.74-.35 1.44-.29 2.14.02.3.09.59.15.89.13.59.26 1.21.11 1.85-.04.17-.19.29-.37.29ZM178.2 134.53h-.05a.371.371 0 0 1-.32-.42 49.17 49.17 0 0 1 3.65-13.03c.08-.19.31-.28.49-.19.19.08.28.3.19.49-1.79 4.09-3 8.41-3.6 12.83-.03.19-.19.33-.37.33ZM167.16 152.36a.37.37 0 0 1-.34-.22.38.38 0 0 1 .18-.5c1.04-.48 2.06-1.02 3.05-1.6-.02 0-.03-.02-.05-.02-.24-.12-.58-.28-.69-.65-.13-.45.18-.83.31-1a95.82 95.82 0 0 1 6.62-7.46c.15-.15.38-.15.53 0 .15.15.15.38 0 .53a92.475 92.475 0 0 0-6.57 7.41c-.18.23-.18.3-.18.32.02.05.19.14.29.19.25.12.6.29.69.69a.37.37 0 0 1-.17.4c-1.14.69-2.32 1.33-3.53 1.89a.47.47 0 0 1-.16.04Z"
  />
  <path
    d="M177.22 151.23a.36.36 0 0 1-.32-.18.363.363 0 0 1 .13-.51c.73-.44 1.45-.91 2.13-1.39.02-.01.03-.03.05-.04a.37.37 0 0 1 .16-.38c.17-.12.4-.08.52.1.2.29.08.67-.29.93-.7.49-1.43.97-2.18 1.42a.34.34 0 0 1-.19.05ZM171.08 153.62a.38.38 0 0 1-.14-.73c.31-.12.62-.28.92-.44.53-.27 1.08-.56 1.7-.69.52-.11 1.07-.11 1.54-.1.39 0 .83 0 1.26.15.16.05.32.12.47.19.21.1.41.19.6.21.21.02.36.2.34.41-.02.21-.21.36-.41.34-.32-.03-.6-.16-.85-.27-.13-.06-.26-.12-.39-.16-.32-.1-.68-.11-1.04-.11-.46 0-.94 0-1.38.08-.52.11-1 .36-1.52.62-.32.17-.65.33-.98.47a.32.32 0 0 1-.14.03Z"
  />
  <path
    d="M175.05 152.2c-.16 0-.3-.1-.36-.25-.07-.2.04-.41.24-.48.77-.26 1.52-.58 2.24-.96.18-.1.41-.03.51.16.1.18.03.41-.16.51-.75.4-1.54.74-2.35 1.01-.04.01-.08.02-.12.02ZM178.39 156.04a.37.37 0 0 1-.34-.22c-.1-.22-.37-.32-.79-.47-.22-.07-.45-.15-.65-.26-.4-.22-.69-.54-.97-.86-.22-.25-.42-.48-.66-.64-.52-.34-1.18-.32-1.89-.32-.53 0-1.07.02-1.6-.12a.375.375 0 0 1-.27-.46c.05-.2.26-.32.46-.27.43.11.9.1 1.41.09.79-.01 1.6-.03 2.31.44.33.21.58.5.82.78s.47.54.75.69c.16.09.35.15.53.21.47.16 1 .33 1.24.87.09.19 0 .41-.18.5-.05.02-.1.03-.16.03ZM167.01 165.53c-.09 0-.18-.01-.27-.04a.375.375 0 0 1-.25-.47c.06-.2.26-.31.47-.25.22.07.48-.31.6-.69.79-2.49.21-5.28-.38-7.43-.15-.56-.32-1.1-.61-1.53-.31-.45-.74-.73-1.17-.75-.17 0-.31-.13-.35-.3-.04-.17.04-.33.19-.41.83-.42 1.57-.55 2.34-.39.11.02.22.05.33.08.21.05.41.11.59.11.2 0 .41-.06.63-.12l.27-.07c.53-.14 1.09-.17 1.63-.1.21.03.35.22.32.42-.03.21-.21.35-.42.32a3.6 3.6 0 0 0-1.35.08l-.25.07c-.26.08-.53.15-.83.15-.28 0-.54-.07-.78-.13-.1-.02-.19-.05-.29-.07-.31-.06-.62-.07-.93 0 .26.18.49.41.69.7.36.53.55 1.13.72 1.76.62 2.25 1.22 5.17.37 7.86-.2.63-.66 1.22-1.25 1.22Z"
  />
  <path
    d="M167.4 165.61h-.07c-1.79-.36-3.62-.62-5.44-.77-.64-.05-1.3-.08-1.78.23-.12.08-.27.08-.4 0a.377.377 0 0 1-.18-.35c.19-2.1-.05-4.27-.69-6.28-.36-1.13-.86-1.76-1.49-1.88a.385.385 0 0 1-.3-.3.37.37 0 0 1 .18-.39c.79-.47 1.7-.53 2.58-.59l.49-.04c1.7-.14 3.43-.65 5-1.49.18-.1.41-.03.51.16.1.18.03.41-.16.51a13.86 13.86 0 0 1-5.29 1.57l-.51.04c-.53.03-1.04.07-1.51.19.5.4.91 1.06 1.21 1.99.61 1.9.87 3.95.77 5.95.52-.14 1.09-.12 1.63-.07 1.85.15 3.71.42 5.53.79a.375.375 0 0 1-.08.74Z"
  />
  <path
    d="M155.78 159.3c-.35 0-.7-.12-.98-.34-.31-.24-.49-.69-.22-1.03.11-.15.27-.21.37-.25.23-.09.42-.25.63-.41.15-.12.31-.24.47-.34.52-.32 1.11-.45 1.63-.56.21-.04.4.08.45.29s-.08.4-.29.45c-.49.11-.99.21-1.4.47-.14.09-.27.19-.4.29-.24.18-.48.38-.78.5.21.16.5.22.75.14.1-.03.13-.06.14-.08.13-.16.37-.18.53-.05.16.13.18.37.05.53-.12.14-.28.25-.49.31-.15.05-.31.07-.46.07Z"
  />
  <path
    d="M158.81 165.31c-.26 0-.44-.14-.57-.25a.614.614 0 0 0-.13-.09.37.37 0 0 1-.22-.38c.14-1.29-.36-2.41-.89-3.6-.41-.93-.84-1.89-.92-2.93-.02-.21.14-.39.34-.4.21-.03.39.14.4.34.07.91.45 1.77.86 2.68.52 1.16 1.05 2.35.97 3.75.02.01.04.03.05.04.04.03.1.08.12.08l.86-.31c.2-.07.41.03.48.23s-.03.41-.23.48l-.81.29c-.08.03-.19.07-.31.07Z"
  />
  <path
    d="M157.22 160.45a.36.36 0 0 1-.22-.07.37.37 0 0 1-.09-.52c.18-.25.43-.45.72-.58.11-.05.24-.04.34.03.1.06.17.17.17.29.04.03.07.06.09.08.37-.1.79-.26 1.18-.46.18-.1.41-.03.51.16.1.18.03.41-.16.51-.45.24-.92.42-1.41.54-.06.01-.14.03-.24.02-.19-.02-.32-.14-.4-.21l-.01-.01c-.04 0-.07-.02-.1-.03-.04.04-.07.08-.1.12a.38.38 0 0 1-.3.16ZM158.53 161.82s-.06 0-.1-.01a.75.75 0 0 1-.44-.32l-.23.05c-.22.04-.4-.09-.44-.29-.04-.2.09-.4.29-.44l.54-.11c.11-.02.22 0 .31.07.08.07.14.17.14.27.3-.08.6-.19.88-.32.19-.08.41 0 .5.19.08.19 0 .41-.19.5-.38.17-.77.31-1.18.4h-.09ZM158.98 163.28c-.13 0-.29-.02-.44-.12a.639.639 0 0 1-.15-.13l-.11.04c-.2.06-.41-.05-.47-.24s.05-.41.24-.47l.49-.16c.15-.05.31 0 .41.13.05.06.07.13.08.21h.01c.18-.02.35-.08.5-.17.18-.1.41-.05.51.13.11.18.05.41-.13.51-.25.15-.53.24-.82.27h-.13Zm-.01-.53ZM159.11 164.59c-.27 0-.53-.09-.67-.14a.378.378 0 0 1-.22-.48c.07-.19.28-.3.48-.22.35.13.48.11.53.07a.38.38 0 0 1 .53.05c.13.16.11.4-.05.53-.18.15-.4.2-.6.2ZM156.73 159.06a.37.37 0 0 1-.15-.71l.81-.36c.12-.05.25-.04.36.03.07.04.12.11.14.18a.586.586 0 0 0 .55-.35.376.376 0 1 1 .7.28c-.16.39-.51.69-.92.79-.08.02-.16.03-.24.04-.09.01-.19.02-.23.05-.12.08-.26.09-.39.02a.353.353 0 0 1-.14-.13l-.34.15s-.1.03-.15.03ZM135.52 167.17s-.08 0-.12-.01c-.23-.05-.37-.22-.43-.28-.17-.2-.31-.41-.42-.64a.35.35 0 0 1-.01-.3c.11-.28.25-.56.4-.81.19-.76.73-1.39 1.17-1.91.66-.77 1.31-1.54 1.98-2.31.5-.57.96-1.06 1.56-1.43.93-.57 2-.69 3.03-.8.58-.07 1.17-.13 1.72-.28.18-.05.37-.11.55-.17.27-.09.54-.17.81-.23.85-.19 1.71-.13 2.52-.05.42.04.83.08 1.25.13 1.67.18 3.39.37 5.05.14.21-.03.4.11.42.32.03.21-.11.39-.32.42-1.75.25-3.52.05-5.24-.14-.41-.05-.83-.09-1.24-.13-.75-.07-1.54-.13-2.29.04-.25.05-.5.13-.74.21-.19.06-.39.12-.58.17-.6.16-1.22.23-1.83.3-1 .11-1.94.22-2.72.7-.51.31-.93.77-1.39 1.29-.67.76-1.32 1.53-1.97 2.29-.39.46-.88 1.04-1.02 1.65 0 .04-.03.08-.05.12-.12.19-.22.38-.31.59.07.12.15.24.24.34.59-.22 1.11-.52 1.58-.9.16-.13.4-.1.53.06s.1.4-.06.53c-.53.42-1.11.76-1.75 1.01-.07.03-.19.07-.33.07Z"
  />
  <path
    d="M136.18 166.37c-.37 0-.71-.15-.91-.41a.933.933 0 0 1-.16-.73c.05-.23.18-.42.38-.53a.375.375 0 0 1 .37.65c-.02.02-.03.11.01.15.07.09.22.13.38.11.2-.03.4-.13.62-.25a19.31 19.31 0 0 0 2.93-1.98c.16-.13.4-.11.53.05s.11.4-.05.53c-.95.77-1.97 1.46-3.04 2.05-.27.15-.56.29-.88.33-.06 0-.11.01-.17.01Z"
  />
  <path
    d="M138.18 164.12c-.14 0-.28-.02-.42-.07-.38-.13-.71-.53-.62-.97.09-.42.49-.61.68-.71 1.3-.63 2.65-1.27 4.1-1.65.49-.13.98-.22 1.48-.32 1.13-.22 2.19-.43 3.11-.98.18-.11.41-.05.51.13.11.18.05.41-.13.51-1.04.62-2.21.85-3.35 1.07-.48.09-.96.19-1.43.31-1.38.36-2.69.99-3.96 1.6-.24.12-.27.17-.27.19 0 .02.05.08.12.11.14.05.34.02.53-.01l6.88-1.09c.79-.12 1.53-.28 1.95-.78.13-.16.37-.18.53-.05.16.13.18.37.05.53-.63.76-1.7.93-2.41 1.04l-6.88 1.09c-.14.02-.3.05-.47.05Z"
  />
  <path
    d="M156.04 165.18c-.24 0-.5-.01-.76-.04-.66-.07-1.31-.21-1.93-.35-.35-.08-.7-.16-1.06-.22-.62-.11-1.25-.19-1.88-.26-1.44-.17-2.94-.35-4.29-1a.372.372 0 0 1-.18-.5c.09-.19.32-.27.5-.18 1.24.59 2.6.76 4.05.93.65.08 1.29.15 1.93.27.36.07.72.15 1.09.23.61.13 1.23.27 1.85.34 1.09.11 2-.04 2.69-.45.18-.1.41-.05.51.13.11.18.05.41-.13.51-.66.39-1.46.59-2.4.59Z"
  />
  <path
    d="M150.37 166.31c-.42 0-.8-.15-1.11-.26-.51-.19-1.21-.45-1.63-1.02-.24-.32-.36-.7-.46-1.04-.06-.2.05-.41.25-.47s.41.05.47.25c.09.3.18.59.35.81.27.36.74.56 1.29.77.28.11.57.21.85.22.23 0 .47-.07.71-.14l3.47-1.03c.2-.06.41.05.47.25s-.05.41-.25.47l-3.47 1.03c-.28.08-.59.17-.93.17Z"
  />
  <path
    d="M142.4 165.12c-.76 0-1.58-.1-2.03-.75-.1-.15-.17-.31-.23-.45-.07-.16-.12-.3-.21-.38a.378.378 0 0 1-.02-.53c.14-.15.38-.16.53-.02.2.19.3.42.39.63.05.12.1.23.15.31.26.38.89.42 1.46.42 1.65 0 3.32-.07 4.95-.16.24-.03.38.15.4.35.01.21-.14.38-.35.4-1.65.1-3.33.16-4.99.17h-.06ZM145.25 158.77c-.06 0-.12-.01-.18-.05a.378.378 0 0 1-.15-.51c.74-1.34 1.13-2.48 1.17-3.5 0-.19.17-.35.36-.36 3.85-.16 7.69.2 11.44 1.05.2.05.33.25.28.45-.05.2-.25.33-.45.28a42.54 42.54 0 0 0-10.91-1.05c-.11 1.04-.52 2.19-1.24 3.48-.07.12-.2.19-.33.19Z"
  />
  <path
    d="M157.3 156.86h-.05a69.02 69.02 0 0 0-10.74-.76c-.21 0-.37-.17-.38-.37s.17-.38.37-.38c3.59-.01 7.27.24 10.85.77.21.03.35.22.32.43-.03.19-.19.32-.37.32ZM181.26 171.15c-.07 0-.13-.02-.19-.05a.376.376 0 0 1-.13-.51c1.3-2.15 2.29-4.46 2.95-6.89.05-.2.26-.32.46-.26.2.05.32.26.26.46-.67 2.49-1.69 4.87-3.03 7.08a.36.36 0 0 1-.32.18ZM178.67 169.83c-.09 0-.17-.03-.24-.09a.369.369 0 0 1-.04-.53c1.18-1.38 2.41-2.74 3.66-4.06.14-.15.38-.16.53-.01.15.14.16.38.01.53-1.24 1.31-2.46 2.66-3.64 4.03a.36.36 0 0 1-.29.13ZM175.26 168.9c-.18 0-.34-.13-.37-.32l-.4-2.69c-.03-.2.11-.4.32-.43.21-.04.4.11.43.32l.4 2.69c.03.21-.11.4-.32.43h-.05ZM173.92 168.45c-.18 0-.33-.12-.37-.3l-.43-2.24c-.04-.2.09-.4.3-.44.21-.04.4.09.44.3l.43 2.24c.04.2-.09.4-.3.44h-.07ZM176.65 182.91c-.1 0-.2-.04-.27-.12-.51-.54-.76-1.34-.73-2.33.01-.37.06-.73.1-1.1.05-.37.09-.73.1-1.1 0-.2.17-.37.38-.37s.37.17.37.38c0 .39-.05.79-.1 1.18-.04.34-.08.68-.1 1.03-.02.55.06 1.3.53 1.79.14.15.13.39-.02.53a.37.37 0 0 1-.26.1ZM175.35 182.75c-.08 0-.17-.03-.23-.08-.32-.26-.52-.69-.54-1.2-.01-.24 0-.48.03-.71l.03-.36c.02-.51-.06-1.03-.15-1.53-.03-.2.1-.4.31-.43.21-.03.4.1.43.31.09.52.19 1.1.16 1.69 0 .13-.02.27-.03.4-.02.2-.04.4-.03.6.02.29.11.53.27.65.16.13.19.37.06.53a.37.37 0 0 1-.29.14ZM141.88 167.4c-.08 0-.17-.03-.24-.08-.12-.09-.24-.29-.13-.56l.72-1.82c.08-.19.29-.28.48-.21.19.07.29.28.23.47q-.72 2.11-.95 2.19s-.07.02-.11.02Zm.33-.36ZM143.15 167.27s-.07 0-.1-.01a.379.379 0 0 1-.26-.46l.51-1.79c.06-.2.26-.32.46-.26s.31.26.26.46l-.51 1.79c-.05.17-.2.27-.36.27ZM140.29 179.28c-.05 0-.11-.01-.16-.03a.372.372 0 0 1-.18-.5c.33-.72.34-1.54.36-2.41 0-.62.02-1.26.15-1.88.04-.2.24-.33.44-.29.2.04.33.24.29.44-.12.55-.12 1.13-.13 1.74-.01.91-.03 1.84-.43 2.71a.37.37 0 0 1-.34.22ZM141.51 179.22c-.17 0-.32-.11-.36-.28-.04-.16.02-.33.16-.41.17-1.25.27-2.44.3-3.62 0-.21.14-.36.39-.36.21 0 .37.18.36.39-.04 1.21-.14 2.44-.3 3.65-.06.43-.28.58-.45.62-.03 0-.07.01-.1.01Z"
  />
  <path
    d="M175.66 182.94c-.65 0-1.29-.06-1.9-.13-1.89-.21-3.8-.52-5.65-.82-1.93-.31-3.93-.63-5.91-.85-4.62-.5-9.35-.43-13.93-.36-4.18.06-8.5.12-12.74-.24a.373.373 0 0 1-.34-.41c.02-.21.2-.37.41-.34 4.2.36 8.5.3 12.66.24 4.6-.07 9.36-.14 14.03.37 2 .21 4 .54 5.95.85 1.84.3 3.74.6 5.61.81 1.01.11 2.08.21 3.1.02.39-.07.78-.19 1.18-.31.48-.14.97-.29 1.49-.37 1.2-.17 2.27.16 2.85.89.13.16.1.4-.06.53s-.4.1-.53-.06c-.42-.52-1.22-.75-2.16-.61-.46.07-.91.2-1.38.34-.41.12-.83.25-1.26.33-.48.09-.95.12-1.42.12Z"
  />
  <path
    d="M130.86 190.8s-.1 0-.15-.03a.375.375 0 0 1-.2-.49c.27-.63.52-1.28.76-1.92.3-.78.6-1.58.95-2.36.74-1.64 1.55-2.84 2.53-3.75-.07-.62.15-1.42.43-2.36l1.03-3.44c.06-.2.27-.31.47-.25.2.06.31.27.25.47l-1.03 3.44c-.21.71-.51 1.69-.38 2.2.03.13-.01.28-.12.37-.96.85-1.76 2.01-2.49 3.64-.34.76-.64 1.55-.94 2.32-.25.65-.5 1.31-.77 1.95a.38.38 0 0 1-.34.23ZM185.18 193.93h-.08a.38.38 0 0 1-.29-.45c.06-.29.07-.6.02-.9s0-.04 0-.07c0-.12.05-.22.14-.29-.89-3.17-1.85-6.31-2.87-9.37-.07-.2.04-.41.24-.47.2-.07.41.04.47.24 1.05 3.15 2.04 6.37 2.94 9.59.02.09.09.32-.05.54-.02.03-.05.06-.08.09.01.27 0 .54-.07.8-.04.18-.19.3-.37.3Zm-.16-1.48Z"
  />
  <path
    d="M170.34 193.38c-2.29 0-4.59-.21-6.82-.42l-.66-.06c-9.35-.85-18.89-1.36-28.12-1.84l-3.93-.21a.363.363 0 0 1-.35-.39c0-.21.18-.39.39-.35l3.92.21c9.24.49 18.79.99 28.15 1.84l.66.06c2.33.21 4.74.42 7.12.41 2.84-.03 5.72-.42 8.5-.79 1.48-.2 3-.4 4.51-.55.33-.03.79-.08 1.2.11.27.13.5.37.6.65.08.23.08.48-.02.69-.09.19-.31.27-.5.18a.372.372 0 0 1-.18-.5c.01-.03.01-.07 0-.11a.41.41 0 0 0-.21-.22c-.21-.1-.48-.08-.82-.05-1.49.15-3.01.35-4.48.55-2.8.38-5.7.77-8.59.8h-.38ZM142.6 184.04c-.56 0-1.12-.02-1.68-.08-.75-.07-1.49-.21-2.21-.33-.85-.15-1.73-.31-2.59-.36a.372.372 0 0 1-.35-.4c.01-.21.2-.38.4-.35.91.06 1.81.22 2.67.37.71.12 1.43.25 2.15.33 1.94.19 3.92-.02 5.84-.23l5.93-.64c1.5-.16 3.36-.36 4.92.47.18.1.25.32.16.51s-.33.25-.51.16c-1.36-.72-3.1-.54-4.49-.38l-5.93.64c-1.41.15-2.86.31-4.32.31ZM166.17 188.76h-.06c-4.46-.74-9.01-1.16-13.52-1.24-.21 0-.37-.17-.37-.38 0-.2.17-.37.38-.37 4.55.08 9.14.5 13.63 1.25.2.03.34.23.31.43-.03.18-.19.31-.37.31ZM173.5 184.53c-1.81 0-3.62-.31-5.4-.62-1.12-.19-2.27-.39-3.4-.51a.364.364 0 0 1-.33-.41.37.37 0 0 1 .41-.33c1.15.12 2.32.32 3.45.51 2.65.46 5.39.93 7.98.31.21-.05.4.08.45.28.05.2-.08.4-.28.45-.96.23-1.92.32-2.88.32ZM140.55 180.49c-.16 0-.31-.1-.36-.26-.14-.44-.2-.93-.16-1.39.02-.21.2-.37.4-.34.21.02.36.2.34.4-.03.37.02.75.13 1.11.06.2-.05.41-.24.47-.04.01-.08.02-.11.02Z"
  />
  <path
    d="M141.23 180.45h-.06a.369.369 0 0 1-.31-.43l.21-1.31c.03-.2.23-.34.43-.31.21.03.34.22.31.43l-.21 1.31c-.03.19-.19.32-.37.32ZM176.32 181.65a.4.4 0 0 1-.23-.08.379.379 0 0 1-.06-.53c.74-.94 1.38-1.95 1.92-3.01.09-.19.32-.26.5-.17s.26.32.17.5c-.56 1.1-1.23 2.16-2 3.13a.37.37 0 0 1-.29.14ZM182.58 183.14c-.18 0-.34-.13-.37-.32-.05-.3-.2-.59-.39-.92-.71-1.23-1.49-2.43-2.31-3.58-.12-.17-.08-.4.08-.52.17-.12.4-.08.52.08.84 1.17 1.64 2.4 2.36 3.65.17.3.41.72.48 1.18.03.2-.11.4-.31.43h-.06ZM137.91 165.88c-.2 0-.37-.16-.38-.37 0-.21.16-.38.37-.38h.95c.23-.02.46-.02.66-.07-.04-.21-.08-.42-.13-.63a.38.38 0 0 1 .27-.46c.2-.06.41.07.46.27.09.33.15.68.19 1.02.02.15-.06.3-.2.38-.41.22-.87.22-1.24.23h-.95v.01Z"
  />
  <path
    d="M140.27 167.68h-.02a.363.363 0 0 1-.35-.39l.05-.99c0-.17.02-.32-.01-.46-.04-.18-.17-.37-.3-.54a.37.37 0 0 1 .09-.52c.17-.12.4-.08.52.09.15.21.34.48.42.8.06.24.04.46.03.67l-.05.99c0 .2-.18.36-.37.36ZM136.66 177.22c-.2 0-.39-.13-.45-.32-.05-.16.03-.37.18-.46.14-.08.3-.07.42.02.29 0 .55-.03.79-.07.23-.04.45-.11.66-.2.29-.13.48-.28.58-.45.1-.17.13-.4.16-.65 0-.08.02-.15.03-.22-.01-.02-.02-.02-.02-.02l-1.66-.22c-.31-.04-.64-.07-.95-.01l-.62.42c-.17.12-.41.07-.52-.1a.371.371 0 0 1 .1-.52l.68-.46s.08-.04.12-.05c.45-.1.88-.07 1.29-.02l1.64.22c.22.03.49.12.67.57.03.07.03.14.02.21-.02.1-.03.2-.04.3-.04.29-.08.63-.26.93-.19.31-.49.56-.93.75-.26.12-.54.2-.82.25-.37.07-.76.08-1.07.09h-.02Zm0-.75Z"
  />
  <path
    d="M137.01 177.34c-.21 0-.37-.17-.37-.38 0-.2.16-.36.36-.37-.02 0 0-.06.04-.15.15-.42.25-.86.3-1.31.02-.21.19-.36.41-.33.21.02.35.21.33.41-.05.5-.17 1-.34 1.48-.2.56-.54.64-.73.64ZM135.29 176.03s-.08 0-.13-.02c-.2-.07-.3-.29-.23-.48.96-2.67 1.24-5.56.83-8.37-.03-.21.11-.4.32-.43.21-.04.4.11.43.32.43 2.92.13 5.94-.86 8.73-.06.15-.2.25-.35.25Z"
  />
  <path
    d="M136.58 177.13s-.07 0-.11-.01c-.63-.18-1.25-.39-1.85-.62-.19-.07-.29-.29-.22-.48s.29-.29.48-.22c.58.22 1.18.42 1.79.6.2.06.31.27.25.47-.05.16-.2.27-.36.27Z"
  />
  <path
    d="M134.57 176.5c-.21 0-.45-.11-.67-.31-.35-.33-.68-.68-.98-1.06a.387.387 0 0 1-.08-.21c-.05-.69.07-1.28.19-1.84l.02-.11c.53-2.53.75-5.13.66-7.72 0-.21.15-.38.36-.39.24-.01.38.16.39.36.09 2.65-.13 5.31-.68 7.9l-.02.11c-.11.5-.21.98-.18 1.52.26.32.54.62.83.89.08.08.15.11.16.11.17-.12.36-.08.48.09.12.17.05.41-.12.54-.11.08-.24.12-.37.12Z"
  />
  <path
    d="M135.04 168.8c-.22 0-.42-.14-.51-.36-.06-.15-.05-.29-.05-.38l.05-1.24c0-.21.19-.37.39-.36.21 0 .37.18.36.39l-.05 1.24c.11.06.18.17.19.29.02.21-.13.39-.34.41h-.04Z"
  />
  <path
    d="M135.39 172h-.04a.37.37 0 0 1-.33-.41c.11-.97.16-1.96.14-2.93 0-.21.16-.38.37-.38s.37.16.38.37c.01 1.01-.04 2.03-.15 3.03a.37.37 0 0 1-.37.33ZM134.79 175.4h-.07a.382.382 0 0 1-.3-.44c.14-.73.27-1.46.37-2.19.03-.21.21-.35.42-.32.21.03.35.22.32.42-.11.75-.24 1.49-.38 2.23-.04.18-.19.3-.37.3ZM133.05 174.08c-.17 0-.32-.12-.37-.29-.63-2.67-.39-5.53.68-8.06a.375.375 0 0 1 .69.29c-1 2.38-1.23 5.08-.64 7.6.05.2-.08.4-.28.45h-.09ZM133.99 165.45c-.18 0-.34-.13-.37-.32-.03-.21.11-.4.31-.43l1.18-.18c.21-.05.4.11.43.31.03.2-.11.4-.31.43l-1.18.18h-.06ZM183.93 169.63h-.04a.373.373 0 0 1-.34-.41l.1-1.04a6.83 6.83 0 0 0-.62-.06.37.37 0 0 1-.34-.4c.02-.21.21-.36.4-.34.37.03.74.07 1.11.13a.377.377 0 0 1 .18.66l-.08 1.14c-.02.19-.18.34-.37.34Z"
  />
  <path
    d="M184.7 171.07c-.05 0-.11-.01-.16-.04a.372.372 0 0 1-.18-.5c.06-.12.06-.29.06-.47s0-.4.07-.6a1.19 1.19 0 0 0-.36-.17.369.369 0 0 1-.25-.46c.06-.2.27-.31.46-.25.33.1.63.28.88.52.13.13.14.33.04.48-.08.1-.08.28-.08.49 0 .25 0 .52-.13.79-.06.13-.2.21-.34.21Z"
  />
  <path
    d="M183.81 179.03h-.02a.363.363 0 0 1-.35-.39l.42-7.63h-.03l-2.12-.08c-.21 0-.37-.18-.36-.39 0-.21.18-.35.39-.36l2.12.08c.12 0 .51.02.68.35.08.16.07.31.07.4l-.43 7.67c-.01.2-.18.35-.37.35Zm.13-8.02Z"
  />
  <path
    d="M183.03 178.55h-.05l-2.14-.27a.366.366 0 0 1-.32-.42c.03-.21.2-.35.42-.32l2.14.27c.21.03.35.21.32.42-.02.19-.19.33-.37.33Z"
  />
  <path
    d="M181.76 180.74h-.05a.371.371 0 0 1-.32-.42c.09-.62.22-1.24.39-1.84.05-.2.26-.32.46-.26s.31.26.26.46c-.16.57-.28 1.15-.37 1.74-.03.19-.19.32-.37.32Z"
  />
  <path
    d="M181.78 181.03a.453.453 0 0 1-.42-.63c.08-.18.34-.3.53-.22.03.01.05.02.07.04.2-.04.38-.04.54-.03h.09c.34.02.7-.03 1.03-.12.08-.49.09-.97.02-1.45-.03-.21.11-.39.32-.42.2-.04.39.11.42.32.08.56.07 1.12-.02 1.67-.02.12-.05.27-.17.4-.12.13-.28.18-.36.21-.42.12-.85.18-1.27.16h-.1c-.16-.01-.31-.02-.42.02-.06.02-.16.07-.28.07ZM185.18 172.13h-.01c-.21 0-.37-.16-.36-.36l.06-1.3c0-.21.19-.37.39-.36.21 0 .37.18.36.39l-.06 1.25c0 .2-.18.39-.38.39ZM184.99 176.08h-.05a.371.371 0 0 1-.32-.42c.12-.91.2-1.85.25-2.79 0-.21.21-.34.39-.36.21 0 .37.19.36.39-.04.96-.13 1.92-.25 2.85-.03.19-.19.33-.37.33Z"
  />
  <path
    d="M184.71 179.37h-.06a.387.387 0 0 1-.31-.43c.1-.58.14-1.17.12-1.76 0-.21.16-.38.36-.39.17-.03.38.16.39.36.02.64-.02 1.28-.13 1.91-.03.18-.19.31-.37.31Z"
  />
  <path
    d="M184.76 180.2c-.24 0-.48-.06-.7-.21a.382.382 0 0 1-.1-.52c.12-.17.35-.21.52-.1.28.19.74 0 .97-.28.28-.36.36-.87.43-1.39.21-1.7.32-3.46.33-5.39 0-.58 0-1.15-.2-1.63-.2-.49-.58-.84-.99-.88a.364.364 0 0 1-.33-.41c.02-.21.19-.35.41-.33.68.07 1.31.6 1.61 1.35.24.61.26 1.25.25 1.92-.01 1.96-.12 3.75-.34 5.48-.08.61-.19 1.25-.58 1.76-.3.38-.79.66-1.29.66Z"
  />
  <path
    d="M186.09 179.15c-.07 0-.15-.02-.21-.07a.37.37 0 0 1-.09-.52c.62-.9.84-2.05.99-3.16.19-1.47.29-3.33-.68-4.63-.12-.17-.09-.4.08-.52.17-.12.4-.09.52.08 1.13 1.52 1.03 3.56.82 5.17-.16 1.2-.4 2.46-1.12 3.49-.07.11-.19.16-.31.16ZM182.85 172.52c-.13 0-.26-.07-.33-.19-.36-.65-1.13-.98-1.71-1.15-.35-.1-.71-.16-1.06-.23-.43-.08-.87-.16-1.3-.29-.14-.04-.29-.1-.43-.15-.36-.13-.71-.25-1.05-.26-.21 0-.37-.18-.36-.39 0-.2.17-.36.38-.36h.02c.46.02.87.17 1.27.31.13.05.27.09.4.14.39.12.79.2 1.22.27.38.07.76.14 1.13.24 1.03.29 1.78.81 2.17 1.51.1.18.03.41-.15.51-.06.03-.12.05-.18.05ZM177.16 178.63c-.38 0-.76-.03-1.14-.12a.376.376 0 0 1-.28-.45c.04-.2.25-.33.45-.28.97.22 2.03.03 2.97-.13l1.32-.23c.81-.14 1.57-.31 1.99-.83.13-.16.37-.18.53-.05.16.13.18.37.05.53-.64.78-1.73.97-2.45 1.09l-1.32.23c-.67.12-1.39.24-2.13.24Z"
  />
  <path
    d="M183.12 173.26s-.06 0-.09-.01c-1.07-.27-2.16-.25-3.32-.24-1.01.01-2.06.03-3.08-.16a.377.377 0 0 1-.3-.44c.04-.2.23-.33.44-.3.95.18 1.96.16 2.94.15 1.16-.01 2.35-.03 3.51.26.2.05.32.25.27.46-.04.17-.2.28-.36.28Z"
  />
  <path
    d="M176.58 172.82a.37.37 0 0 1-.29-.14c-.24-.29-.48-.6-.7-.99l-2.71-.08c-.3 0-.54-.02-.78-.08a.38.38 0 0 1-.27-.46c.05-.2.25-.32.46-.27.16.04.33.05.52.05l3.02.09c.14 0 .26.08.33.21.21.42.46.73.72 1.06.13.16.1.4-.06.53a.35.35 0 0 1-.24.08ZM174.42 177.46c-.88 0-1.77-.03-2.64-.1-.21-.02-.36-.2-.35-.4s.17-.37.4-.35c1.17.09 2.36.12 3.54.08.38-.42.55-.54.71-.65.06-.04.13-.07.21-.07 1.85-.05 3.9.04 6.44.29.21.02.36.2.34.41-.02.21-.21.36-.41.34-2.46-.24-4.45-.33-6.23-.29-.13.1-.28.23-.61.6-.07.08-.17.12-.27.13-.38.01-.76.02-1.14.02ZM182.5 175.82h-.04c-1.84-.17-3.72-.32-5.57-.44a.378.378 0 0 1-.35-.36l-.05-1.62c0-.1.04-.2.11-.28.07-.07.17-.12.28-.11 1.89.06 3.79.14 5.68.23.21.01.37.19.36.39-.01.21-.19.36-.39.36-1.75-.09-3.51-.16-5.26-.22l.03.88c1.75.11 3.51.25 5.25.42.21.02.36.2.34.41-.02.19-.18.34-.37.34Z"
  />
  <path
    d="M178.45 175.25h-.08c-.12-.02-.5-.15-.5-.77 0-.36 0-.72.02-1.08.01-.21.18-.39.4-.35.21.01.36.19.35.4-.02.34-.03.68-.02 1.03v.09c.14.08.23.24.19.41-.04.18-.19.3-.37.3Zm.18-.67ZM179.99 175.62c-.15 0-.29-.09-.35-.24-.21-.56-.35-1.15-.4-1.75a.38.38 0 0 1 .34-.41c.2-.01.39.14.41.34.05.53.17 1.05.36 1.55a.37.37 0 0 1-.22.48c-.04.02-.09.02-.13.02ZM181.07 175.6c-.18 0-.34-.13-.37-.32-.09-.57-.14-1.15-.15-1.72 0-.21.16-.38.37-.38s.37.16.38.37c0 .53.05 1.08.14 1.61.03.21-.11.4-.31.43h-.06Z"
  />
  <path
    d="M183 174.67h-.03l-1.57-.11a.372.372 0 0 1-.35-.4c.01-.21.19-.37.4-.35l1.57.11c.21.01.36.19.35.4-.01.2-.18.35-.37.35Z"
  />
  <path
    d="M182.89 175.31h-.08l-1.31-.27a.375.375 0 0 1-.29-.44c.04-.2.24-.34.44-.29l1.31.27a.375.375 0 0 1-.08.74ZM176.19 173.54h-.05c-2.56-.33-5.21-.67-7.81-.36-.2.03-.39-.12-.42-.33s.12-.39.33-.42c2.69-.33 5.39.02 8 .36.21.03.35.21.32.42-.02.19-.19.33-.37.33ZM167.67 175.12c-.2 0-.37-.16-.38-.37 0-.21.16-.38.37-.38l8.37-.18c.24 0 .38.16.38.37s-.16.38-.37.38l-8.37.18Z"
  />
  <path
    d="M175.59 174.97c-.18 0-.34-.13-.37-.31l-.24-1.46a.376.376 0 0 1 .74-.12l.24 1.46c.03.21-.11.4-.31.43h-.06ZM174.22 174.74h-.08a.375.375 0 0 1-.29-.44c.08-.4.11-.82.08-1.23-.02-.21.14-.39.34-.4.23-.01.39.14.4.34.04.49 0 .97-.09 1.44-.04.18-.19.3-.37.3ZM172.59 175.05h-.04a.375.375 0 0 1-.33-.42c.07-.61.1-1.23.09-1.84 0-.21.16-.38.37-.38.2 0 .37.16.38.37 0 .64-.02 1.29-.1 1.94a.37.37 0 0 1-.37.33ZM170.05 174.99c-.21 0-.37-.17-.38-.37 0-.65.04-1.31.12-1.96.03-.21.21-.35.42-.32.21.03.35.21.32.42-.08.62-.12 1.24-.12 1.86 0 .21-.17.38-.37.38Z"
  />
  <path
    d="M173.73 177.9c-.73 0-1.43-.27-2.01-.5-.27-.1-.57-.22-.81-.46-.19-.18-.31-.41-.42-.6a2.33 2.33 0 0 0-.2-.34c-.24-.31-.67-.48-1.05-.64-.19-.08-.29-.3-.21-.49s.3-.29.49-.21c.45.18 1 .41 1.37.88.11.14.19.29.27.44.09.16.17.32.28.42.14.13.34.21.56.3.62.25 1.33.53 2.01.43.2-.02.39.12.42.32s-.12.39-.32.42c-.12.02-.25.02-.37.02Z"
  />
  <path
    d="M175.4 176.55s-.07 0-.11-.02c-1.05-.31-2.19-.27-3.3-.22a.384.384 0 0 1-.39-.36c0-.21.15-.38.36-.39 1.11-.05 2.37-.1 3.55.25.2.06.31.27.25.47-.05.16-.2.27-.36.27ZM168.25 172.08c-.16 0-.31 0-.47-.02a.37.37 0 0 1-.34-.4c.02-.21.2-.36.4-.34.83.06 1.66-.07 2.43-.37.25-.1.5-.22.74-.34.27-.13.55-.27.83-.38.86-.34 1.79-.47 2.72-.38.21.02.36.2.34.41-.02.21-.19.35-.41.34-.8-.08-1.62.04-2.37.33-.26.1-.52.23-.78.35-.26.13-.52.25-.79.36-.73.29-1.51.44-2.29.44Z"
  />
  <path
    d="M175.15 172.16c-1.26 0-2.53-.21-3.71-.63-.2-.07-.3-.28-.23-.48.07-.19.28-.3.48-.23 1.25.44 2.61.64 3.93.58.2 0 .38.15.39.36 0 .21-.15.38-.36.39-.17 0-.33.01-.5.01ZM163.88 180.84c-1.02 0-2.04-.05-3.07-.15-.44-.04-.96-.11-1.44-.27-.2-.07-.3-.28-.24-.48.07-.2.28-.3.48-.24.41.14.86.19 1.28.23a30.107 30.107 0 0 0 12.13-1.28c.96-.29 1.96-.59 2.98-.76a.376.376 0 0 1 .12.74c-.97.16-1.94.45-2.88.73-.38.11-.75.23-1.13.33-2.7.75-5.45 1.13-8.23 1.13Z"
  />
  <path
    d="M176.28 177.98h-.03a.372.372 0 0 1-.35-.4l.08-1.15a.36.36 0 0 1 .4-.35c.21.01.36.19.35.4l-.08 1.15c-.01.2-.18.35-.37.35ZM176.65 171.54l-.37-.06c.02-.47.03-.94.07-1.47-.81-.49-1.72-.76-2.69-1.05-.52-.16-1.04-.31-1.54-.5-.47-.18-.92-.38-1.38-.59l-.54-.24a28.48 28.48 0 0 0-4.92-1.66.376.376 0 0 1-.28-.45c.05-.2.25-.33.45-.28 1.73.41 3.43.98 5.05 1.71l.54.25c.44.2.88.4 1.33.57.49.18.99.33 1.49.48 1.05.31 2.13.64 3.07 1.26.11.08.18.21.17.34-.05.61-.07 1.14-.09 1.66l-.38.03Z"
  />
  <path
    d="M168.59 168.06c-.09 0-.17-.03-.24-.09-.38-.31-.84-.58-1.73-.41-.1.02-.21 0-.29-.06a.388.388 0 0 1-.15-.26l-.07-.57c-1.48-.76-3.16-1-5.05-1.2-1.13-.12-2.06-.2-2.97.03-.19.05-.33.1-.44.16-.08.05-.17.1-.31.24v.37c.01.21-.15.38-.36.38s-.38-.16-.38-.37v-.52c-.01-.1.02-.2.09-.27.24-.25.4-.39.59-.49.17-.09.36-.17.62-.23 1.11-.28 2.29-.15 3.23-.04 2.04.22 3.86.48 5.5 1.38.11.06.18.16.19.28l.04.38c.85-.08 1.41.21 1.81.51.27-.06.52-.16.77-.28.19-.09.41-.02.5.17.09.18.02.41-.17.5-.35.18-.73.3-1.12.38h-.07Z"
  />
  <path
    d="M154.4 166.79c-.09 0-.19-.01-.29-.05-.18-.07-.29-.21-.36-.29l-.7-.84c-.13-.16-.11-.4.05-.53a.38.38 0 0 1 .53.05l.7.84s.06.07.08.08c0 0 .06-.01.09-.01l2.07-.22c.22-.01.39.13.41.33.02.21-.13.39-.33.41l-2.07.22s-.11.01-.17.01ZM145.63 168.64h-.06a.387.387 0 0 1-.31-.43c.06-.36.14-.71.24-1.06a.337.337 0 0 1-.09-.2c-.02-.18.09-.36.27-.41 1.36-.39 2.76-.68 4.16-.87.2-.02.39.12.42.32s-.12.39-.32.42c-1.23.16-2.46.41-3.65.73-.12.39-.21.79-.28 1.19-.03.18-.19.31-.37.31Z"
  />
  <path
    d="M138.22 168.63a.37.37 0 0 1-.3-.15c-.12-.17-.09-.4.08-.53.98-.73 2.25-1.21 3.67-1.37 1.11-.13 2.3-.09 3.85.14a.373.373 0 1 1-.1.74c-1.49-.22-2.62-.26-3.66-.14-1.29.15-2.44.58-3.31 1.23-.07.05-.15.07-.22.07ZM144.26 175.41c-2.38 0-4.73-.76-6.65-2.17a.37.37 0 0 1-.08-.52c.12-.17.36-.2.52-.08 1.91 1.39 4.27 2.11 6.61 2.01.2 0 .38.15.39.36s-.15.38-.36.39h-.43ZM144.64 172.51h-.08c-2.02-.07-4.1-.16-6.18-.28a.366.366 0 0 1-.35-.4c.01-.21.19-.4.4-.35 2.07.12 4.14.21 6.16.28h.12l-.07.08.38-.04-.37-.12.08-.85c-.29-.11-.65-.11-1.03-.12h-.21c-.75-.01-1.48-.12-2.19-.23l-3.01-.46a.362.362 0 0 1-.31-.43c.03-.2.23-.34.43-.31l3.01.46c.68.11 1.39.21 2.08.22h.2c.53 0 1.13 0 1.63.34.11.08.18.21.17.35l-.1 1.1c-.02.2-.04.38-.16.53-.17.22-.44.24-.6.24Z"
  />
  <path
    d="M140.12 172.09h-.05a.371.371 0 0 1-.32-.42l.22-1.59c.03-.2.21-.36.42-.32.21.03.35.22.32.42l-.21 1.59c-.03.19-.19.33-.37.33ZM141.61 172.3a.37.37 0 0 1-.37-.34 8.34 8.34 0 0 1 0-1.58.37.37 0 0 1 .41-.33c.21.02.35.21.33.41-.05.47-.05.95 0 1.43.02.21-.13.39-.34.41h-.04ZM143.08 172.15h-.06a.387.387 0 0 1-.31-.43l.22-1.32c.04-.2.22-.33.43-.31.2.03.34.23.31.43l-.22 1.32c-.03.18-.19.31-.37.31ZM146.14 170.32c-.14 0-.27-.03-.38-.05-2.46-.47-4.97-.76-7.48-.86-.21 0-.37-.18-.36-.39s.17-.36.39-.36c2.54.1 5.09.39 7.59.87.11.02.23.05.31.02.1-.03.22-.19.33-.34.2-.28.48-.65.97-.61.92.04 1.86.06 2.8.07.21 0 .37.17.37.38s-.17.37-.38.37c-.95 0-1.9-.03-2.85-.07-.07-.05-.21.17-.3.3-.17.23-.37.52-.72.62-.1.03-.2.04-.29.04ZM150.1 175.71h-.02c-1.24-.08-2.48-.17-3.72-.29-.23-.02-.57-.05-.83-.29-.13-.12-.22-.26-.28-.38l-.09-.15c-.12-.15-.33-.25-.57-.34-1.67-.67-3.44-1.06-5.24-1.16a.363.363 0 0 1-.35-.39c.01-.21.2-.39.39-.35 1.89.1 3.73.51 5.48 1.21.32.13.65.28.88.58.06.07.1.15.15.23.04.08.09.15.13.19.08.07.27.09.41.1 1.23.12 2.46.21 3.7.29.21.01.36.19.35.4-.01.2-.18.35-.37.35Z"
  />
  <path
    d="M151.27 175.52c-.06 0-.12-.01-.17-.04a.368.368 0 0 1-.16-.5c0-.02-.02-.1-.08-.15-.1-.09-.27-.13-.46-.18-1.38-.34-2.79-.54-4.21-.59-.21 0-.37-.18-.36-.39 0-.21.19-.36.39-.36 1.47.05 2.94.26 4.37.61.28.07.54.15.77.34.32.28.43.72.26 1.06-.07.13-.2.21-.33.21ZM155.98 171.23h-.02c-.86-.06-1.72-.17-2.56-.33-.24-.05-.5-.11-.73-.26-.21-.14-.35-.33-.48-.49l-.06-.08c-1.01-1.28-2.87-1.85-4.42-1.37-.2.06-.41-.05-.47-.25s.05-.41.25-.47c1.87-.59 4.03.08 5.24 1.62l.07.09c.1.13.19.25.3.32.12.08.28.11.46.15.81.16 1.64.27 2.47.32.21.01.36.19.35.4-.01.2-.18.35-.37.35Z"
  />
  <path
    d="M150.39 175.6a.38.38 0 0 1-.14-.73c.41-.16.77-.44 1.16-.73.22-.16.43-.33.66-.48.9-.58 1.84-.7 2.52-.31a.375.375 0 0 1-.37.65c-.64-.37-1.49.13-1.74.29-.21.14-.41.29-.61.44-.41.31-.83.63-1.34.83a.32.32 0 0 1-.14.03ZM155.03 171.39h-.01c-2.99-.12-6.02-.37-9-.73-.21-.02-.35-.21-.33-.42s.22-.36.42-.33c2.97.36 5.98.61 8.94.72.21 0 .37.18.36.39 0 .2-.17.36-.38.36Z"
  />
  <path
    d="M155.06 173.3h-.04c-3.12-.36-6.3-.56-9.45-.59-.21 0-.37-.17-.37-.38s.17-.37.38-.37c3.17.03 6.38.23 9.53.59.21.02.35.21.33.42a.37.37 0 0 1-.37.33Z"
  />
  <path
    d="M146.35 172.62h-.03a.385.385 0 0 1-.35-.4l.14-1.91c.01-.21.16-.38.4-.35.21.02.36.2.35.4l-.14 1.91c-.01.2-.18.35-.37.35ZM147.65 172.28h-.02c-.21 0-.37-.19-.35-.39l.06-1.25c.01-.21.17-.37.39-.35.21 0 .37.19.35.39l-.06 1.25c0 .2-.18.36-.37.36ZM149.78 172.61h-.06a.381.381 0 0 1-.31-.43l.23-1.35c.03-.2.21-.35.43-.3.2.04.34.23.3.43l-.23 1.35c-.03.18-.19.31-.37.31ZM152.08 172.92h-.04a.37.37 0 0 1-.33-.41l.18-1.66c.02-.2.19-.35.41-.33.21.02.35.21.33.41l-.18 1.66a.37.37 0 0 1-.37.33ZM148.2 167.65c-.14 0-.27-.08-.33-.21a.368.368 0 0 1 .17-.5l1.36-.68c.18-.09.41-.02.5.17.09.18.02.41-.17.5l-1.36.68c-.05.03-.11.04-.17.04ZM174.33 169.99a.36.36 0 0 1-.22-.07l-.72-.52a.37.37 0 0 1-.08-.52c.12-.17.36-.2.52-.08l.72.52c.17.12.21.36.08.52a.38.38 0 0 1-.3.16ZM172.97 179.09c-.09 0-.18-.03-.25-.1a.378.378 0 0 1-.02-.53l.49-.54c.14-.15.38-.16.53-.02.15.14.16.38.02.53l-.49.54c-.07.08-.17.12-.28.12ZM160.46 180.48h-.01c-5.01-.2-10.03-1.49-14.51-3.75-.32-.16-.63-.33-.85-.63-.26-.35-.34-.92 0-1.3.14-.16.37-.17.53-.03.16.14.17.37.03.53-.06.07-.04.24.05.36.12.17.34.28.58.41 4.38 2.21 9.29 3.48 14.2 3.67.21 0 .37.18.36.39 0 .2-.17.36-.38.36Z"
  />
  <path
    d="M149 177.25c-.09 0-.18-.03-.25-.1l-1.32-1.2a.378.378 0 0 1-.03-.53c.14-.15.38-.16.53-.03l1.32 1.2c.15.14.17.38.03.53-.07.08-.18.12-.28.12ZM160.58 179.93c-.13 0-.25-.07-.31-.2-.1-.18-.04-.4.14-.5.18-.1.41-.03.52.15.08.19 0 .44-.18.52-.06.02-.11.04-.17.04ZM160.98 178.1h-.06c-1.08-.02-2.16-.54-2.96-1.45-.66-.74-1.13-1.72-1.41-2.91-.28-1.23-.23-2.27.16-3.09.22-.46.56-.89 1.03-1.33 1.82-1.65 4.51-2.02 6.38-.88 1.92 1.16 2.78 3.9 1.9 6.1-.82 2.07-2.93 3.55-5.05 3.55Zm-.06-.75h.05c1.79 0 3.66-1.32 4.35-3.08.74-1.88.03-4.2-1.6-5.19-1.6-.97-3.91-.63-5.49.8-.4.36-.68.72-.86 1.09-.32.67-.36 1.55-.11 2.6.25 1.07.66 1.93 1.24 2.58.66.74 1.56 1.18 2.41 1.19Z"
  />
  <path
    d="M160.39 179.09h-.13c-1.58-.02-3.17-1.03-4.05-2.58-.72-1.27-1.01-2.9-.85-4.72.19-2.1 1-3.71 2.27-4.55.96-.63 2.09-.78 2.97-.84 1.41-.1 2.56.04 3.53.43 1.46.58 2.64 1.81 3.16 3.29.33.96.43 2.08.29 3.42-.16 1.52-.58 2.64-1.29 3.43-.37.41-.85.78-1.49 1.12-1.53.82-3.22 1.01-4.41 1.01Zm1.05-11.98c-.25 0-.51 0-.79.03-1.17.08-1.98.3-2.62.72-1.46.96-1.84 2.91-1.94 3.99-.15 1.67.11 3.15.75 4.28.75 1.32 2.09 2.19 3.41 2.2 1.12.03 2.74-.14 4.18-.92.55-.3.97-.61 1.28-.96.6-.67.96-1.65 1.1-3.01.13-1.23.05-2.25-.25-3.1a4.855 4.855 0 0 0-2.73-2.85c-.68-.27-1.47-.4-2.41-.4ZM156.76 167.69a.76.76 0 0 1-.53-.23.362.362 0 0 1-.04-.46c.1-.15.14-.23.16-.27 0-.15.09-.28.23-.34.18-.08.39 0 .48.17.14.27.16.59.07.87-.05.15-.19.26-.36.26ZM155.06 169.54c-.05 0-.1 0-.15-.03-.12-.05-.25-.16-.27-.29l-.03-.22c-.03-.2.1-.38.29-.42.28-.05.57.05.74.28.09.12.1.28.02.4-.07.13-.2.21-.36.19-.07.05-.16.08-.25.08ZM155.89 168.4s-.08 0-.11-.02l-.21-.06c-.2-.06-.31-.27-.25-.47s.27-.31.47-.25l.22.07c.2.06.31.27.25.47-.05.16-.2.26-.36.26ZM154.68 175.53c-.19 0-.36-.13-.44-.19a.386.386 0 0 1-.12-.44c.06-.16.22-.25.39-.23l.23.03c.15.02.27.12.31.25.05.16 0 .41-.14.5-.08.06-.16.08-.24.08Zm-.23-.66c-.11.09-.13.24-.1.33l.1-.04.06-.18-.06-.11ZM155.18 176.71c-.08 0-.18-.02-.29-.07a.373.373 0 0 1 .02-.69l.25-.1c.11-.04.23-.04.33.02s.17.16.18.28c.02.19-.05.36-.19.47-.06.04-.15.09-.29.09Zm-.13-.41Zm.13-.34s-.11.01-.17.07c-.07.06-.1.14-.09.22l.16-.02.12-.26h-.02Zm.02 0-.12.26.13-.26h-.02ZM155.75 177.91c-.12 0-.25-.06-.32-.18a.642.642 0 0 1 .21-.89c.11-.06.24-.07.35-.02.13.06.33.24.33.38.01.29-.15.55-.42.67-.05.02-.1.03-.15.03Zm-.16-.72.15.34-.15-.34ZM156.73 178.67c-.2 0-.36-.15-.37-.35a.37.37 0 0 1 .35-.39l.26-.02c.24-.04.39.14.4.35.01.21-.14.39-.35.4l-.27.02h-.02ZM164.58 179.52a.374.374 0 0 1-.32-.57c.13-.21.28-.31.41-.33.07-.04.14-.07.22-.1.13-.05.27-.02.37.06.1.09.15.22.13.36-.05.27-.27.46-.52.46s-.02.01-.02.02c-.07.07-.17.11-.26.11ZM166 178.78a.63.63 0 0 1-.54-.31.351.351 0 0 1-.05-.2.365.365 0 0 1 .05-.35c.12-.15.32-.21.48-.11l.3.18c.12.07.19.21.18.35-.01.18-.15.41-.33.44H166Zm-.49-.35ZM166.83 177.65h-.12c-.17-.02-.3-.15-.32-.32s.07-.33.22-.4l.18-.08a.37.37 0 0 1 .52.31c.01.11-.05.29-.13.36-.09.09-.21.13-.36.13Zm-.06-.38Zm.02-.15.04-.21h-.02l-.03.21Zm.03-.22s-.1.03-.16.09l.13.12.03-.21ZM167.78 176.69s-.09 0-.14-.03c-.15-.06-.29-.14-.42-.25a.379.379 0 0 1-.05-.53c.13-.16.37-.18.53-.05.07.06.14.1.22.13.19.08.29.29.21.49-.06.15-.2.24-.35.24ZM168.02 170.67c-.06 0-.13-.01-.18-.04a.392.392 0 0 1-.21-.35v-.04a.386.386 0 0 1 .12-.44c.13-.1.32-.1.45 0l.11.08c.1.07.16.19.15.32 0 .09-.03.18-.08.25a.47.47 0 0 1-.09.12c-.07.06-.17.1-.26.1Zm-.16-.72ZM167.53 169.7c-.19 0-.4-.18-.44-.37-.04-.22.05-.41.1-.51.07-.15.24-.24.39-.2.16.03.29.15.31.31.03.17.1.69-.32.76h-.05Z"
  />
  <path
    d="M166.96 168.63c-.07 0-.15-.01-.41-.07a.373.373 0 0 1 .16-.73l.34.06c.19.04.32.21.3.4-.02.19-.17.34-.36.35h-.02ZM146.66 149.34s-.06 0-.09-.01a.37.37 0 0 1-.27-.45l1.59-6.42c.05-.2.25-.32.45-.27.2.05.32.25.27.45l-1.59 6.42c-.04.17-.2.29-.36.29ZM125.81 224.01a.37.37 0 0 1-.37-.34c-.18-2.03-.08-4.08.28-6.1l.13-.7c.29-1.51.59-3.08.01-4.41l-.09-.2c-.08-.18-.17-.37-.22-.56-.11-.38-.09-.77-.06-1.06.11-1.16.51-2.28 1.17-3.24.17-.25.39-.56.31-.74a.69.69 0 0 0-.11-.17l-.15-.21c-.28-.49-.16-1.04-.02-1.52 1.34-4.75 2.82-9.54 4.39-14.22.07-.2.28-.31.47-.24.2.07.3.28.24.47-1.57 4.67-3.04 9.45-4.38 14.19-.1.35-.18.71-.05.95.03.05.06.09.09.13.07.09.15.2.21.34.22.56-.13 1.07-.39 1.44-.59.86-.95 1.85-1.05 2.88-.02.23-.04.53.04.8.04.15.11.3.18.44l.1.22c.67 1.55.35 3.23.04 4.85l-.13.69c-.35 1.95-.44 3.93-.27 5.9a.38.38 0 0 1-.34.41h-.03Z"
  />
  <path
    d="M123.77 241.74c-.2 0-.36-.16-.37-.35l-.22-4.04c-.17-3.18-.35-6.47.5-9.65.7-2.61 2.06-4.99 3.38-7.28.8-1.39 1.62-2.83 2.29-4.29.09-.19.31-.27.5-.19.19.08.27.31.19.5-.68 1.5-1.51 2.95-2.32 4.36-1.29 2.25-2.63 4.58-3.3 7.1-.82 3.06-.64 6.29-.48 9.41l.22 4.04a.37.37 0 0 1-.35.39h-.02Z"
  />
  <path
    d="M123.27 244.11h-.08a.375.375 0 0 1-.29-.44c.86-4.18 1.71-8.46 2.53-12.71.04-.2.23-.34.44-.3.2.04.34.24.3.44-.82 4.25-1.68 8.53-2.53 12.71-.04.18-.19.3-.37.3Z"
  />
  <path
    d="M117.96 256.08c-.05 0-.1 0-.14-.02-.16-.05-.28-.24-.28-.4 0-.19.13-.36.31-.41h.04c.25-.36.49-.71.72-1.08.04-.06.06-.12.07-.16a.371.371 0 0 1-.12-.36c.03-.17.18-.3.36-.3.83-.02 1.61-.78 1.64-1.6 0-.18-.01-.37-.04-.56-.03-.27-.06-.56-.02-.86.09-.72.54-1.25.97-1.77.19-.23.37-.45.52-.67a1.35 1.35 0 0 1-.54-.66c-.28-.69-.03-1.56.3-2.15.72-1.28 1.78-2.3 2.81-3.28.29-.28.58-.55.86-.84 2.27-2.27 4.1-5.05 5.31-8.02.08-.19.29-.28.49-.21.19.08.28.3.21.49a25.36 25.36 0 0 1-5.48 8.27c-.29.29-.58.57-.87.85-.99.95-2.01 1.92-2.68 3.11-.3.54-.41 1.14-.26 1.5.08.2.24.33.48.41.1.03.19.11.23.2s.04.21 0 .31c-.2.44-.51.81-.81 1.17-.38.45-.74.88-.8 1.38-.03.21 0 .44.02.68.03.22.05.44.04.67-.04 1.07-.85 2.01-1.87 2.26-.02.24-.14.46-.19.53-.27.43-.56.86-.85 1.28-.13.18-.29.25-.43.25Z"
  />
  <path
    d="M114.54 291.09s-.08 0-.13-.02c-.2-.07-.3-.29-.23-.48.87-2.42 1.1-5.04.69-7.57-.07-.41-.15-.81-.23-1.21-.15-.7-.3-1.43-.36-2.17-.11-1.27.05-2.53.19-3.75l2.17-18c.06-.48.13-1.07.46-1.56.31-.46.78-.73 1.19-.95 1.42-.75 2.96-1.28 4.44-1.79.75-.26 1.5-.51 2.23-.8 5.51-2.14 10.38-5.99 13.72-10.86.12-.17.35-.21.52-.1.17.12.21.35.1.52-3.43 4.99-8.43 8.95-14.07 11.14-.75.29-1.5.55-2.26.81-1.46.5-2.96 1.02-4.33 1.74-.33.18-.71.39-.92.71-.23.34-.29.81-.34 1.23l-2.17 18c-.14 1.18-.29 2.41-.19 3.6.06.69.2 1.4.35 2.08.09.41.17.83.24 1.24.44 2.66.19 5.41-.72 7.95-.06.15-.2.25-.35.25Z"
  />
  <path
    d="M134.21 262.2c-.12 0-.25-.06-.32-.17a93.005 93.005 0 0 0-4.77-6.85c-.13-.16-.09-.4.07-.53.16-.12.4-.09.53.07 1.7 2.22 3.32 4.54 4.81 6.9.11.17.06.41-.12.52a.36.36 0 0 1-.2.06ZM111.89 298.79h-.09c-.46-.11-.85-.46-1.02-.91-.04-.1-.03-.22.03-.32.21-.37 0-.9-.22-1.29l-.12-.2c-.27-.47-.58-1-.55-1.61.01-.26.08-.5.15-.71l.6-2c.04-.14.11-.36.27-.52.22-.23.52-.28.73-.31.96-.16 1.88-.53 2.67-1.07.17-.12.4-.07.52.1s.07.4-.1.52c-.88.6-1.9 1.01-2.95 1.19-.14.02-.29.05-.33.1-.04.04-.07.15-.09.22l-.6 1.99c-.06.19-.11.37-.12.53-.02.4.21.79.45 1.2l.12.21c.48.85.46 1.46.31 1.84.1.15.25.26.42.31.2.05.33.25.28.45-.04.17-.2.29-.37.29Z"
  />
  <path
    d="M124.97 306.17h-.16c-.83-.04-1.63-.33-2.27-.56-2.27-.81-4.54-1.7-6.74-2.64-.63-.27-1.2-.52-1.75-.86-.12-.08-.24-.15-.36-.23-.22-.15-.44-.29-.68-.41-1.08-.53-2.54-.23-3.33.68-.11.12-.28.16-.43.1s-.24-.21-.23-.37c.09-1.23.51-2.42 1.21-3.43.07-.11.2-.17.33-.16.07 0 .15.01.23.02.14.01.28.03.39.01.2-.03.41-.18.6-.31l2.22-1.6c.17-.12.4-.08.52.09.12.17.08.4-.09.52l-2.02 1.45c.91 0 1.83.32 2.55.61.78.32 1.56.67 2.33 1.01 2.7 1.21 5.5 2.45 8.42 2.48.19 0 .4 0 .61.11.42.21.58.69.49 1.41-.06.5-.18 1.42-.89 1.85-.26.16-.58.23-.97.23Zm-13.13-5.71c.52 0 1.04.11 1.51.34.27.13.52.29.76.46.11.07.22.15.34.22.5.31 1.04.55 1.64.8 2.19.93 4.44 1.81 6.7 2.62.59.21 1.33.48 2.05.52.31.01.54-.02.71-.12.37-.22.47-.79.54-1.31.05-.35.01-.6-.09-.65-.05-.03-.16-.03-.26-.03-3.1-.02-5.97-1.3-8.74-2.54-.77-.34-1.54-.69-2.31-1-1.03-.42-2.53-.9-3.54-.19a.37.37 0 0 1-.52-.09.471.471 0 0 1-.06-.15c-.29.52-.51 1.08-.64 1.65.57-.35 1.24-.53 1.91-.53Z"
  />
  <path
    d="M126.01 303.14c-.06 0-.12-.01-.18-.05a.378.378 0 0 1-.15-.51l3.67-6.75c.21-.39.43-.78.55-1.2.17-.56.16-1.18.16-1.78l-.05-8.61c0-.21.17-.38.37-.38.21 0 .37.17.38.37l.05 8.61c0 .65 0 1.33-.19 2-.14.49-.38.92-.61 1.34l-3.67 6.75c-.07.12-.2.2-.33.2Z"
  />
  <path
    d="M129.57 296.41c-.15 0-.29-.09-.35-.24l-1.53-4.06c-.15-.39-.3-.79-.36-1.23-.14-1.07.31-2.1.7-3.01l.04-.09c1.2-2.76 2.11-5.65 2.72-8.58.11-.51.2-1.03.3-1.55.41-2.15.83-4.37 1.87-6.35l.05-.09c.22-.41.45-.84.37-1.22-.06-.28-.3-.54-.51-.77l-2.06-2.26a.378.378 0 0 1 .02-.53c.16-.14.39-.13.53.02l2.06 2.26c.26.28.58.64.68 1.11.14.64-.17 1.22-.44 1.73l-.05.09c-.99 1.88-1.4 4.04-1.8 6.14-.1.52-.2 1.05-.3 1.56-.62 2.99-1.55 5.93-2.77 8.73l-.04.09c-.37.86-.76 1.75-.64 2.61.05.35.18.71.31 1.06l1.53 4.06a.37.37 0 0 1-.22.48c-.04.02-.09.02-.13.02ZM120.39 288.78c-.08 0-.15 0-.23-.02a.38.38 0 0 1-.25-.16c-.06-.08-.08-.19-.06-.29l.08-.41c.04-.2.23-.34.44-.29.18.04.3.19.3.36.22-.08.44-.23.64-.37.73-.54 1.4-1.16 2-1.84.2-.22.41-.49.45-.76.06-.45-.32-.91-.68-1.3a161.79 161.79 0 0 0-4.82-4.97.368.368 0 0 1 0-.53c.15-.15.38-.15.53 0 1.64 1.62 3.27 3.3 4.84 4.99.35.38 1 1.07.88 1.92-.07.46-.34.82-.63 1.15-.63.72-1.34 1.38-2.11 1.95-.39.29-.86.58-1.38.58ZM124.81 295.74h-.08c-.29-.01-.56-.08-.82-.15l-.28-.07c-.74-.17-1.51-.13-2.32-.09-.22 0-.43.02-.65.03-1.81.05-3.62-.17-5.37-.67a.37.37 0 0 1-.26-.46c.06-.2.26-.31.46-.26 1.68.47 3.41.7 5.15.64.21 0 .42-.01.63-.02.82-.04 1.67-.08 2.51.11.1.02.2.05.3.07.23.06.45.12.66.12.13 0 .3-.01.43-.07-.24-.26-.7-.39-1.13-.49-1.12-.25-2.23-.49-3.35-.73-.58-.12-1.25-.27-1.87-.21-.12 0-.24.03-.36.04-.29.04-.59.08-.91.04-.88-.1-1.62-.8-1.77-1.67-.04-.2.1-.4.3-.43.2-.04.4.1.43.3.09.54.58.99 1.12 1.05.23.03.47 0 .72-.04.13-.02.27-.04.4-.05.74-.06 1.45.09 2.09.23 1.12.24 2.24.48 3.36.73.48.11 1.48.33 1.8 1.16.05.12.03.26-.05.36-.25.33-.68.52-1.17.52ZM122.53 301.41a.378.378 0 0 1-.34-.55c-.54-.87-1.14-1.71-1.81-2.49a.378.378 0 0 1 .04-.53c.16-.13.39-.12.53.04.78.92 1.49 1.91 2.1 2.95.07.12.07.26 0 .37a.37.37 0 0 1-.32.19h-.21Z"
  />
  <path
    d="M133.27 268.55s-.09 0-.13-.02a.36.36 0 0 1-.24-.4l.04-.3c.02-.17.15-.3.31-.32 1.78-2.97 2.71-6.61 2.69-10.57 0-.1.04-.2.11-.27.54-.53.77-1.35.97-2.06l1.23-4.39c.05-.17.04-.31.02-.34a.323.323 0 0 1-.25-.24c-.04-.13.02-.25.12-.35.12-.12.27-.2.44-.22.23-.03.4.12.42.32.01.08 0 .15-.03.21.13.31.05.67 0 .83l-1.23 4.39c-.2.72-.45 1.62-1.05 2.28 0 4.26-1.08 8.16-3.1 11.29-.07.11-.19.17-.32.17Z"
  />
  <path
    d="M137.95 250.32a.37.37 0 0 1-.29-.14.38.38 0 0 1 .06-.53c.77-.61 1.31-1.47 1.84-2.31.73-1.15 1.64-2.59 1.65-4.09 0-.21.17-.37.38-.37s.37.17.37.38c0 1.72-.98 3.26-1.77 4.49-.54.85-1.15 1.81-2.01 2.5a.34.34 0 0 1-.23.08Z"
  />
  <path
    d="M139.98 246.6a.374.374 0 0 1-.32-.56c1.07-1.89 1.8-3.99 2.51-6.03.15-.42.29-.84.44-1.26a90.8 90.8 0 0 1 8.43-17.48c1.48-2.38 3.17-4.86 5.45-6.84a.37.37 0 0 1 .53.04c.14.16.12.39-.04.53-2.21 1.92-3.86 4.34-5.31 6.67a89.843 89.843 0 0 0-8.36 17.33c-.15.42-.29.84-.44 1.25-.72 2.07-1.46 4.2-2.56 6.15-.07.12-.2.19-.33.19ZM137.28 214.25c-.2 0-.37-.16-.38-.36 0-.21.16-.38.36-.39 3.17-.1 6.34-.46 9.45-1.07.21-.04.4.09.44.3.04.2-.09.4-.3.44-3.14.62-6.36.98-9.57 1.08h-.01Z"
  />
  <path
    d="M156.66 214.77c-.18 0-.34-.13-.37-.31a79.52 79.52 0 0 1-.54-22.64c.02-.21.21-.35.42-.33.21.02.35.21.33.42a78.79 78.79 0 0 0 .54 22.43c.03.2-.1.4-.31.43h-.06Z"
  />
  <path
    d="M155.78 207.85a.376.376 0 0 1-.12-.73c1.63-.58 3.16-1.2 3.84-2.52.37-.71.44-1.6.5-2.31.27-3.23.42-6.52.43-9.78 0-.21.17-.37.38-.37s.38.17.37.38c0 3.27-.15 6.58-.43 9.84-.07.78-.15 1.75-.58 2.59-.81 1.57-2.55 2.28-4.26 2.89-.04.01-.08.02-.12.02ZM179.72 255.67c-.11 0-.21-.05-.29-.14-1.63-1.97-2.81-4.25-3.96-6.45-3.16-6.08-6.42-12.36-9.3-18.71l-.53-1.17c-2.33-5.16-4.73-10.5-9.07-14.02-.16-.13-.19-.37-.05-.53s.37-.19.53-.05c4.48 3.64 6.92 9.06 9.28 14.3l.53 1.17c2.88 6.34 6.13 12.61 9.28 18.68 1.13 2.17 2.29 4.41 3.87 6.32a.379.379 0 0 1-.29.62Z"
  />
  <path
    d="M181.84 261.21c-.12 0-.24-.06-.31-.17l-3.1-4.65c-.54-.8-1.09-1.64-1.58-2.52-.97-1.76-1.62-3.66-1.95-5.64-.03-.2.1-.4.31-.43.21-.03.4.11.43.31.31 1.9.94 3.71 1.87 5.4.47.86 1.02 1.68 1.54 2.47l3.1 4.65c.11.17.07.41-.1.52-.06.04-.14.06-.21.06Z"
  />
  <path
    d="M185.65 277.4c-.1 0-.21-.03-.29-.09-.27-.19-.28-.5-.29-.65-.07-1.55-.84-3.02-1.58-4.43-.17-.32-.34-.65-.5-.97-1.24-2.48-1.47-4.47-.71-6.08l.07-.14c.12-.24.23-.46.2-.65-.03-.16-.18-.34-.33-.5-1.17-1.33-2.7-3.36-2.52-5.69.02-.21.19-.37.4-.34.21.02.36.2.34.4-.12 1.56.62 3.19 2.34 5.14.2.22.44.5.5.87.07.42-.12.8-.26 1.1l-.06.13c-.65 1.39-.42 3.16.71 5.42.16.32.33.64.5.96.76 1.44 1.54 2.93 1.66 4.59.11 0 .21.05.28.14.15.18.13.44-.03.62-.11.12-.26.18-.41.18Zm.18-.65Z"
  />
  <path
    d="M193.51 300.41c-.1 0-.19-.04-.26-.11a.368.368 0 0 1 0-.53c.39-.39.62-.93.65-1.49-.9-1.82-2.39-3.25-3.95-4.76-1.59-1.54-3.24-3.12-4.2-5.16-.94-1.98-1.15-4.25-1.34-6.25l-.96-10.24c-.02-.21.13-.39.34-.41.2-.02.39.13.41.34l.96 10.24c.19 2.03.39 4.14 1.27 6 .91 1.91 2.5 3.45 4.05 4.94 1.46 1.41 2.96 2.86 3.94 4.65.1.04.19.13.22.24l.17.58a.37.37 0 0 1-.23.46c-.13.52-.4 1.01-.78 1.39-.07.07-.17.11-.27.11Z"
  />
  <path
    d="M191.72 302c-.09 0-.19-.04-.26-.11a.368.368 0 0 1 0-.53c.21-.22.3-.58.26-.99-.04-.33-.15-.65-.26-1l-.09-.26c-.44-1.35-.61-2.8-.51-4.21.02-.21.17-.36.4-.35.21.01.36.19.35.4-.09 1.31.07 2.67.48 3.92l.08.25c.12.37.25.75.3 1.16.07.63-.1 1.21-.46 1.59-.07.08-.17.11-.27.11Z"
  />
  <path
    d="M190.79 305.07c-.31 0-.63-.12-.9-.36-.42-.38-.58-.92-.4-1.39.15-.39.45-.64.75-.87 3.88-2.99 8.77-4.45 13.47-5.58 1.71-.41 2.59-1.02 2.69-1.85.02-.21.2-.36.42-.33.21.02.35.21.33.42-.21 1.76-2.51 2.31-3.26 2.49-4.62 1.11-9.42 2.54-13.19 5.44-.22.17-.43.34-.51.55s.06.43.2.55c.14.13.38.23.57.13.18-.1.41-.03.51.15.1.18.03.41-.15.51-.16.09-.34.13-.53.13Z"
  />
  <path
    d="M191.53 308.46a.36.36 0 0 1-.2-.06c-1-.64-1.41-2.05-.91-3.13.43-.94 1.37-1.46 2.19-1.92l.1-.06c.42-.23.84-.48 1.26-.73 1.52-.89 3.08-1.82 4.85-2.2 3.06-.66 6.44.51 8.43 2.92.08.09.1.21.07.33-.03.12-.11.21-.22.26-.87.36-1.79.05-2.6-.22l-.16-.05c-1.51-.5-2.92-.69-4.19-.55-3.37.36-6.08 2.92-8.35 5.29-.07.08-.17.12-.27.12Zm9.02-7.53c-.53 0-1.06.05-1.58.17-1.65.36-3.16 1.25-4.63 2.12-.42.25-.84.5-1.27.74l-.1.06c-.76.42-1.54.86-1.88 1.58-.3.65-.12 1.5.4 1.99 2.48-2.55 5.23-4.91 8.58-5.27 1.37-.15 2.89.05 4.5.58l.16.05c.51.17 1.02.34 1.5.34-1.47-1.5-3.58-2.36-5.68-2.36Z"
  />
  <path
    d="M206.64 303.54a.37.37 0 0 1-.37-.33c-.03-.25-.15-.51-.27-.76l-.7-1.46c-.21-.45-.44-.91-.59-1.41-.22-.73-.28-1.49-.34-2.23-.02-.21.14-.39.35-.4.23-.02.39.14.4.35.05.69.11 1.41.31 2.07.14.45.35.88.55 1.31l.7 1.46c.14.29.29.62.34.99.03.21-.12.39-.33.42h-.05ZM192.88 234.41c-.13 0-.26-.07-.33-.19-.52-.92-.57-1.98-.61-2.99v-.25c-.24-4.73-1.55-9.37-2.83-13.85-.03-.12 0-.24.07-.34.08-.09.18-.15.32-.14.23.01.32-.06.38-.12.17-.19.2-.64.08-1.14-.12-.55-.37-1.06-.63-1.6-.1-.22-.21-.44-.31-.66-.84-1.93-1.08-4.05-1.31-6.09-.17-1.55-.35-3.16-.8-4.65-.11-.36-.23-.71-.35-1.06-.18-.54-.38-1.09-.51-1.66-.21-.87-.3-1.77-.38-2.65-.15-1.6-.3-3.1-1.12-4.34-.11-.17-.07-.41.1-.52.17-.11.41-.07.52.1.93 1.4 1.09 3.07 1.24 4.69.08.85.17 1.73.36 2.54.13.53.31 1.07.49 1.59.12.36.25.72.36 1.09.46 1.56.65 3.2.83 4.79.23 2.08.45 4.05 1.25 5.88.09.21.19.43.3.64.26.56.54 1.13.68 1.76.08.36.22 1.25-.25 1.79-.1.12-.26.25-.49.33 1.24 4.39 2.5 8.93 2.72 13.6v.25c.05.93.1 1.89.53 2.66a.375.375 0 0 1-.32.56Z"
  />
  <path
    d="M195.89 250.14a.47.47 0 0 1-.46-.37c-.05-.23.04-.54.29-.64.04-.02.08-.02.12-.02.23-2.5.46-5.09-.16-7.55-.3-1.19-.78-2.31-1.22-3.25-4.21-9.08-11.17-16.28-19.58-20.26a.372.372 0 0 1-.18-.5c.09-.19.31-.27.5-.18 8.57 4.06 15.66 11.38 19.94 20.62.45.97.96 2.14 1.27 3.39.66 2.63.4 5.46.17 7.94-.07.73-.51.81-.64.82h-.04Z"
  />
  <path
    d="M199.31 262.27c-.17 0-.32-.12-.36-.29l-1.45-5.92c-.71-2.88-1.44-5.86-2.78-8.54l-.25-.49c-.38-.73-.77-1.49-.96-2.33-.29-1.32-.04-2.63.2-3.91.16-.81.32-1.65.33-2.47 0-.21.17-.37.38-.37s.37.17.37.38c-.01.88-.18 1.75-.34 2.6-.24 1.26-.47 2.44-.21 3.61.17.74.52 1.43.89 2.15l.25.5c1.38 2.76 2.12 5.78 2.84 8.7l1.45 5.92c.05.2-.07.4-.28.45-.03 0-.06.01-.09.01ZM194.44 252.75c-.06 0-.13-.02-.19-.05-5.01-2.87-10.26-5.47-15.58-7.73a.375.375 0 0 1 .29-.69c5.35 2.27 10.61 4.89 15.66 7.77a.375.375 0 0 1-.19.7ZM198.23 261.86c-.07 0-.13-.02-.19-.05l-1.4-.83c-.09-.05-.2-.12-.26-.12-.04-.04-.17.06-.27.12-.07.04-.15.08-.22.12-.7.32-1.39.04-2-.21-.39-.16-.75-.31-1.1-.32-.3-.01-.65.1-1 .22-.31.11-.64.21-.99.25-1.1.12-2.04-.5-2.91-1.18a40.997 40.997 0 0 1-5.21-4.82.37.37 0 0 1 .03-.53c.16-.14.39-.13.53.03 1.56 1.72 3.28 3.31 5.11 4.74.75.58 1.56 1.12 2.38 1.03.27-.03.54-.12.82-.21.39-.13.8-.25 1.26-.26.48.01.93.2 1.36.38.54.22 1 .41 1.4.23.05-.02.11-.06.16-.09.17-.1.38-.22.64-.22h.01c.26 0 .48.13.63.22l1.4.83c.18.11.24.34.13.51a.36.36 0 0 1-.32.18ZM202.48 285.22h-.05c-.69-.09-1.28-.68-1.52-1.49-.14-.5-.15-1-.15-1.48v-.41c-.04-1.2-.35-2.32-.89-3.25-.51-.87-1.26-1.61-1.98-2.33l-9.1-9.04a.368.368 0 0 1 0-.53c.15-.15.38-.15.53 0l9.1 9.04c.75.75 1.53 1.52 2.1 2.48.61 1.03.95 2.28.99 3.6v.43c0 .45 0 .88.12 1.28.12.43.45.89.89.95.21.03.35.22.32.42-.03.19-.19.33-.37.33ZM201.53 296.29c-1.02 0-2.09-.16-3.16-.5-2.27-.71-4.28-2-6.22-3.26a.38.38 0 0 1-.11-.52.38.38 0 0 1 .52-.11c1.9 1.23 3.86 2.5 6.03 3.17 2.37.74 4.71.59 6.43-.39a.375.375 0 0 1 .37.65c-1.11.63-2.44.96-3.87.96ZM185.71 196.88h-.09a.518.518 0 0 1-.34-.24l.07-.08s-.02-.05-.02-.08l-.1.07c-3.05-1.77-6.68-2.48-10.18-3.16a.382.382 0 0 1-.3-.44c.04-.2.23-.34.44-.3 3.57.69 7.25 1.41 10.48 3.3.03.02.06.04.09.07h.03c.15.02.32.19.36.34.03.15-.04.35-.17.44-.08.05-.16.08-.25.08Zm-.31-.45v.07l.14-.16-.14.09Z"
  />
  <path
    d="M185.33 197.74c-.11 0-.24-.04-.35-.15a.402.402 0 0 1-.12-.33l.14-.88c.03-.18.18-.31.37-.32.18 0 .34.13.37.31.12.7.12 1.14-.2 1.31-.06.03-.13.05-.21.05ZM129.77 194.78h-.06a.378.378 0 0 1-.28-.17.383.383 0 0 1-.03-.33c.06-.17.16-.34.27-.49 0-.08.03-.17.1-.24.1-.09.22-.1.33-.06 1.11-.35 2.18-.66 3.2-.96 1.86-.54 3.61-1.05 5.3-1.73.19-.07.41.02.49.21a.38.38 0 0 1-.21.49c-1.72.68-3.49 1.2-5.36 1.75-.99.29-2.01.59-3.07.92-.01.07-.03.14-.07.21a.67.67 0 0 1-.6.4ZM201.53 269.16h-.05a.371.371 0 0 1-.32-.42c.26-1.93.4-3.64-.42-5.04l-.08-.13c-.19-.31-.4-.66-.37-1.09.01-.23.1-.42.17-.59.05-.12.1-.23.11-.33.04-.27-.16-.57-.38-.88a7.22 7.22 0 0 1-.23-.36c-.47-.8-.52-1.71-.57-2.58l-.02-.37c-.05-.74-.2-1.78-.88-2.33-.05-.04-.1-.08-.16-.12-.19-.13-.4-.29-.54-.53-.32-.57-.04-1.18.18-1.66l.09-.2c.32-.74.3-1.63-.07-2.45-.37-.82-1.02-1.43-1.79-1.68-.2-.06-.31-.27-.24-.47s.27-.31.47-.24c.97.31 1.79 1.07 2.25 2.08s.49 2.13.08 3.06l-.1.21c-.17.36-.34.74-.21.98.06.1.19.2.32.29.06.04.13.09.19.14.91.73 1.09 1.98 1.16 2.86l.02.38c.05.83.09 1.61.47 2.25.06.11.13.21.21.32.27.39.57.84.5 1.4-.03.2-.1.36-.16.51-.05.13-.1.25-.11.35-.01.2.12.42.26.65l.08.14c1.02 1.73.73 3.92.52 5.52-.03.19-.19.33-.37.33Z"
  />
  <path
    d="M203.93 280.5h-.02a.372.372 0 0 1-.35-.4c.05-.87-.18-1.72-.43-2.62-.09-.35-.19-.69-.27-1.04-.27-1.17-.35-2.39-.44-3.56-.14-1.97-.28-3.82-1.16-5.45-.1-.18-.03-.41.15-.51.18-.1.41-.03.51.15.97 1.77 1.11 3.8 1.25 5.76.08 1.15.17 2.34.42 3.45.08.34.17.67.26 1.01.25.92.51 1.87.46 2.86-.01.2-.18.35-.37.35Z"
  />
  <path
    d="M206.86 295.67s-.06 0-.09-.01a.38.38 0 0 1-.27-.46c.1-.39.12-.8.06-1.2-.06-.43-.21-.84-.37-1.28-.05-.14-.1-.29-.15-.43-.5-1.46-.67-3.01-.85-4.5l-.07-.59c-.17-1.42-.38-2.88-.64-4.32-.12-.71-.26-1.4-.48-2.06-.33-.96-.86-1.88-1.37-2.77-.67-1.16-1.36-2.36-1.65-3.71-.04-.2.09-.4.29-.44.21-.04.4.09.44.29.26 1.24.89 2.33 1.56 3.49.53.92 1.08 1.87 1.43 2.91.24.71.38 1.46.51 2.17.25 1.45.47 2.92.64 4.36l.07.59c.17 1.46.34 2.96.81 4.35l.15.42c.17.46.34.93.41 1.43.07.5.04 1.01-.08 1.5-.04.17-.2.28-.36.28ZM204.61 315.84h-.77c-.82-.02-1.77-.06-2.69-.35-1.65-.53-3.11-1.82-4.49-3.97-.33-.51-.64-1.04-.95-1.57-.66-1.13-1.34-2.3-2.22-3.27a.378.378 0 0 1 .03-.53c.16-.14.39-.13.53.03.93 1.03 1.63 2.23 2.31 3.4.3.52.61 1.04.93 1.54 1.28 1.99 2.61 3.19 4.08 3.66.74.24 1.53.3 2.48.32 1.24.03 2.48-.01 3.71-.11.55-.05 1.13-.11 1.65-.3.99-.36 1.78-1.19 2.49-1.92.25-.26.46-.49.48-.74.02-.17-.05-.36-.13-.57-.43-1.12-.98-2.19-1.63-3.2-.23-.36-.51-.75-.88-.95-.15-.08-.33-.13-.53-.19-.12-.03-.23-.07-.35-.11-1.1-.39-1.85-1.28-2.56-2.13-.3-.36-.6-.72-.93-1.04a.368.368 0 0 1 0-.53c.14-.15.38-.15.53 0 .35.34.67.72.98 1.09.68.82 1.33 1.59 2.24 1.91.1.04.21.06.31.09.22.06.44.13.67.24.54.28.88.77 1.16 1.21a18.99 18.99 0 0 1 1.7 3.33c.11.28.21.59.18.92-.05.53-.43.93-.69 1.19-.76.79-1.62 1.69-2.77 2.11-.61.22-1.24.29-1.84.34-1 .08-2.01.12-3.02.12ZM103.85 313.38c-1.49 0-2.94-.23-4.01-1.17-.38-.33-.59-.67-.64-1.04-.05-.39.09-.75.21-1.03l.54-1.34c.22-.55.45-1.11.83-1.61.74-.97 1.86-1.45 2.94-1.92l.14-.06c1.2-.52 2.39-1.09 3.53-1.7.86-.46 1.69-.99 1.92-1.79.06-.2.27-.31.46-.26.2.06.31.27.26.46-.31 1.07-1.28 1.71-2.29 2.25-1.16.62-2.37 1.2-3.59 1.72l-.14.06c-1 .43-2.02.87-2.64 1.68-.32.42-.53.94-.73 1.44l-.54 1.34c-.09.22-.18.46-.16.65.02.18.15.37.39.57 1.19 1.04 2.97 1.03 4.55.95 2.6-.14 5.32-.45 7.53-1.74.19-.11.38-.23.57-.35.31-.2.62-.39.94-.56.21-.11.42-.21.64-.3.36-.16.7-.31 1-.52.5-.34.89-.81 1.31-1.31.45-.54.92-1.1 1.54-1.5.17-.11.41-.06.52.11.11.17.06.41-.11.52-.52.34-.93.83-1.37 1.34s-.88 1.05-1.47 1.45c-.36.24-.74.41-1.11.58-.2.09-.41.18-.6.28-.31.16-.6.34-.89.53-.2.12-.39.25-.59.36-2.35 1.37-5.17 1.7-7.86 1.84-.36.02-.71.03-1.07.03Z"
  />
  <path
    d="M117.63 308.21c-.12 0-.25-.06-.32-.17a.376.376 0 0 1 .12-.52c1-.64 2.13-.99 3.23-1.34.83-.26 1.7-.53 2.47-.93.18-.09.41-.02.5.17.09.18.02.41-.17.5-.83.42-1.72.7-2.58.97-1.1.34-2.13.67-3.05 1.25a.36.36 0 0 1-.2.06ZM164.46 203.41c-.17 0-.32-.11-.36-.28-.05-.2.06-.41.26-.46l19-5.17c.2-.06.41.06.46.26.05.2-.06.41-.26.46l-19 5.17s-.07.01-.1.01ZM184.62 214.68h-.05l-22.72-3.05c-.21-.03-.35-.22-.32-.42s.22-.35.42-.32l22.72 3.05c.21.03.35.22.32.42-.03.19-.19.33-.37.33Z"
  />
</svg>
